<?xml version="1.0" encoding="UTF-8"?>
<!DOCTYPE svg PUBLIC "-//W3C//DTD SVG 1.1//EN" "http://www.w3.org/Graphics/SVG/1.1/DTD/svg11.dtd">
<svg xmlns="http://www.w3.org/2000/svg" version="1.1" width="50px" height="43px" style="shape-rendering:geometricPrecision; text-rendering:geometricPrecision; image-rendering:optimizeQuality; fill-rule:evenodd; clip-rule:evenodd" xmlns:xlink="http://www.w3.org/1999/xlink">
<g><path style="opacity:0.883" fill="#004661" d="M 20.5,-0.5 C 23.1667,-0.5 25.8333,-0.5 28.5,-0.5C 32.2306,2.10367 34.0639,5.77034 34,10.5C 37.3153,6.89469 40.982,6.56136 45,9.5C 48.109,15.5821 46.4423,19.5821 40,21.5C 35.3583,20.8583 32.6916,18.1917 32,13.5C 27,18.8333 22,18.8333 17,13.5C 14.2274,22.1812 9.56071,23.5145 3,17.5C 1.43495,11.613 3.60161,8.27971 9.5,7.5C 11.9116,7.40616 13.745,8.40616 15,10.5C 14.9361,5.77034 16.7694,2.10367 20.5,-0.5 Z"/></g>
<g><path style="opacity:0.948" fill="#004661" d="M 36.5,42.5 C 28.5,42.5 20.5,42.5 12.5,42.5C 12.3337,35.825 12.5004,29.1583 13,22.5C 16.0459,19.0898 19.8792,17.7565 24.5,18.5C 29.1208,17.7565 32.9541,19.0898 36,22.5C 36.4996,29.1583 36.6663,35.825 36.5,42.5 Z"/></g>
<g><path style="opacity:0.915" fill="#004661" d="M 10.5,42.5 C 7.5,42.5 4.5,42.5 1.5,42.5C 1.15829,41.6618 0.491622,41.3284 -0.5,41.5C -0.5,36.5 -0.5,31.5 -0.5,26.5C 2.55598,22.7593 6.55598,21.5927 11.5,23C 10.5223,29.4102 10.189,35.9102 10.5,42.5 Z"/></g>
<g><path style="opacity:0.915" fill="#004661" d="M 49.5,26.5 C 49.5,31.5 49.5,36.5 49.5,41.5C 48.5084,41.3284 47.8417,41.6618 47.5,42.5C 44.5,42.5 41.5,42.5 38.5,42.5C 38.811,35.9102 38.4777,29.4102 37.5,23C 42.444,21.5927 46.444,22.7593 49.5,26.5 Z"/></g>
</svg>
