<?xml version="1.0" encoding="UTF-8"?>
<!DOCTYPE svg PUBLIC "-//W3C//DTD SVG 1.1//EN" "http://www.w3.org/Graphics/SVG/1.1/DTD/svg11.dtd">
<svg xmlns="http://www.w3.org/2000/svg" version="1.1" width="400px" height="369px" style="shape-rendering:geometricPrecision; text-rendering:geometricPrecision; image-rendering:optimizeQuality; fill-rule:evenodd; clip-rule:evenodd" xmlns:xlink="http://www.w3.org/1999/xlink">
<g><path style="opacity:0.896" fill="#febab3" d="M 252.5,30.5 C 251.502,55.9946 251.169,81.6612 251.5,107.5C 250.167,107.833 248.833,108.167 247.5,108.5C 247.667,75.165 247.5,41.8317 247,8.5C 216.069,7.16816 185.236,7.16816 154.5,8.5C 153.167,49.8333 153.167,91.1667 154.5,132.5C 180.069,133.827 205.736,133.827 231.5,132.5C 231.5,134.5 231.5,136.5 231.5,138.5C 229.585,138.216 227.919,138.549 226.5,139.5C 201.863,140.825 177.196,140.825 152.5,139.5C 151.163,133.812 149.83,128.145 148.5,122.5C 149.498,85.6704 149.832,48.6704 149.5,11.5C 148.577,7.93595 148.244,4.26928 148.5,0.5C 183.167,0.5 217.833,0.5 252.5,0.5C 252.5,10.5 252.5,20.5 252.5,30.5 Z"/></g>
<g><path style="opacity:0.99" fill="#fdd7d3" d="M 149.5,11.5 C 149.832,48.6704 149.498,85.6704 148.5,122.5C 147.452,115.238 145.785,108.238 143.5,101.5C 142.549,100.081 142.216,98.4147 142.5,96.5C 142.675,94.3792 142.341,92.3792 141.5,90.5C 142.035,87.7615 141.035,85.9282 138.5,85C 132.538,83.1761 126.538,81.6761 120.5,80.5C 120.649,79.448 120.483,78.448 120,77.5C 118.365,76.2744 116.865,74.941 115.5,73.5C 116.456,71.9246 117.123,70.258 117.5,68.5C 118.931,67.2196 119.598,65.5529 119.5,63.5C 121.144,63.7135 122.644,63.3802 124,62.5C 126.707,59.1411 127.54,55.4745 126.5,51.5C 125.311,50.5713 123.978,50.238 122.5,50.5C 122.365,47.493 123.365,44.993 125.5,43C 124.964,39.9275 123.63,37.2609 121.5,35C 122.357,34.3109 123.023,33.4776 123.5,32.5C 122.237,30.9713 121.237,29.3046 120.5,27.5C 129.675,21.3359 139.342,16.0026 149.5,11.5 Z"/></g>
<g><path style="opacity:1" fill="#fbaba4" d="M 245.5,70.5 C 245.167,70.5 244.833,70.5 244.5,70.5C 242.095,69.2318 239.428,68.5651 236.5,68.5C 237.557,59.3467 236.057,50.6801 232,42.5C 230.669,40.0038 228.836,38.0038 226.5,36.5C 221.149,29.1453 213.816,24.8119 204.5,23.5C 204.917,22.8761 205.584,22.5427 206.5,22.5C 214.138,23.2687 221.805,23.7687 229.5,24C 234.459,24.7904 239.292,25.957 244,27.5C 244.499,21.8431 244.666,16.1764 244.5,10.5C 220.06,8.20604 197.06,11.0394 175.5,19C 169.537,22.5649 163.37,25.7316 157,28.5C 156.501,34.4908 156.334,40.4908 156.5,46.5C 158.475,46.1778 160.142,46.1778 161.5,46.5C 161.419,49.5134 160.086,51.5134 157.5,52.5C 155.517,38.539 154.85,24.2057 155.5,9.5C 185.5,9.5 215.5,9.5 245.5,9.5C 245.5,29.8333 245.5,50.1667 245.5,70.5 Z"/></g>
<g><path style="opacity:0.922" fill="#17282f" d="M 120.5,27.5 C 121.237,29.3046 122.237,30.9713 123.5,32.5C 123.023,33.4776 122.357,34.3109 121.5,35C 123.63,37.2609 124.964,39.9275 125.5,43C 123.365,44.993 122.365,47.493 122.5,50.5C 122.5,51.1667 122.833,51.5 123.5,51.5C 122.681,53.7722 122.015,56.1055 121.5,58.5C 120.833,58.5 120.167,58.5 119.5,58.5C 119.806,54.2527 119.139,50.2527 117.5,46.5C 110.244,46.3733 104.577,43.3733 100.5,37.5C 99.6236,37.3691 98.9569,37.7025 98.5,38.5C 99.1667,39.8333 99.8333,41.1667 100.5,42.5C 99.1667,44.5 97.5,46.1667 95.5,47.5C 94.8314,50.5299 94.1647,53.5299 93.5,56.5C 92.8333,55.1667 92.1667,53.8333 91.5,52.5C 92.6857,51.0387 92.6857,49.7054 91.5,48.5C 89.5094,44.0318 88.6761,39.3651 89,34.5C 97.9749,24.7954 108.475,22.4621 120.5,27.5 Z"/></g>
<g><path style="opacity:1" fill="#fbe5e3" d="M 247.5,108.5 C 247.158,109.338 246.492,109.672 245.5,109.5C 245.5,107.5 245.5,105.5 245.5,103.5C 245.5,101.833 245.5,100.167 245.5,98.5C 242.482,98.6646 239.482,98.498 236.5,98C 236.043,97.586 235.709,97.086 235.5,96.5C 238.768,95.513 242.102,95.1796 245.5,95.5C 245.806,92.6146 245.473,89.9479 244.5,87.5C 246.634,84.6543 246.967,81.6543 245.5,78.5C 245.5,75.8333 245.5,73.1667 245.5,70.5C 245.5,50.1667 245.5,29.8333 245.5,9.5C 215.5,9.5 185.5,9.5 155.5,9.5C 154.85,24.2057 155.517,38.539 157.5,52.5C 160.167,53.1667 162.833,53.8333 165.5,54.5C 162.167,54.5 158.833,54.5 155.5,54.5C 155.5,57.8333 155.5,61.1667 155.5,64.5C 155.5,64.8333 155.5,65.1667 155.5,65.5C 154.503,46.674 154.17,27.674 154.5,8.5C 185.236,7.16816 216.069,7.16816 247,8.5C 247.5,41.8317 247.667,75.165 247.5,108.5 Z"/></g>
<g><path style="opacity:1" fill="#faaaa3" d="M 226.5,36.5 C 226.5,37.1667 226.5,37.8333 226.5,38.5C 224.765,36.7649 222.765,35.4316 220.5,34.5C 211.903,37.1363 203.903,40.8029 196.5,45.5C 194.833,45.5 193.167,45.5 191.5,45.5C 189.735,44.5386 187.735,44.2053 185.5,44.5C 179.802,44.596 174.135,45.096 168.5,46C 165.307,47.0255 163.974,49.1922 164.5,52.5C 163.325,52.719 162.325,52.3857 161.5,51.5C 164.899,42.6779 170.233,35.3446 177.5,29.5C 195.399,21.1313 211.732,23.4646 226.5,36.5 Z"/></g>
<g><path style="opacity:1" fill="#ffe9e7" d="M 204.5,23.5 C 213.816,24.8119 221.149,29.1453 226.5,36.5C 211.732,23.4646 195.399,21.1313 177.5,29.5C 185.529,23.4262 194.529,21.4262 204.5,23.5 Z"/></g>
<g><path style="opacity:1" fill="#ffb2ab" d="M 204.5,23.5 C 194.529,21.4262 185.529,23.4262 177.5,29.5C 170.126,33.249 164.793,38.9157 161.5,46.5C 160.142,46.1778 158.475,46.1778 156.5,46.5C 156.334,40.4908 156.501,34.4908 157,28.5C 163.37,25.7316 169.537,22.5649 175.5,19C 197.06,11.0394 220.06,8.20604 244.5,10.5C 244.666,16.1764 244.499,21.8431 244,27.5C 239.292,25.957 234.459,24.7904 229.5,24C 221.805,23.7687 214.138,23.2687 206.5,22.5C 205.584,22.5427 204.917,22.8761 204.5,23.5 Z"/></g>
<g><path style="opacity:0.976" fill="#fdd6d2" d="M 252.5,30.5 C 259.485,39.7929 265.985,49.4596 272,59.5C 281.209,77.9176 290.375,96.2509 299.5,114.5C 299.5,114.833 299.5,115.167 299.5,115.5C 294.156,115.666 288.823,115.499 283.5,115C 282.627,113.955 281.627,113.122 280.5,112.5C 280.141,110.629 279.141,109.129 277.5,108C 268.84,107.5 260.173,107.334 251.5,107.5C 251.169,81.6612 251.502,55.9946 252.5,30.5 Z"/></g>
<g><path style="opacity:1" fill="#ffb2ab" d="M 226.5,38.5 C 233.651,46.7404 236.651,56.407 235.5,67.5C 224.305,68.6953 214.472,65.6953 206,58.5C 204.333,55.1667 202.667,51.8333 201,48.5C 199.591,47.2189 198.091,46.2189 196.5,45.5C 203.903,40.8029 211.903,37.1363 220.5,34.5C 222.765,35.4316 224.765,36.7649 226.5,38.5 Z"/></g>
<g><path style="opacity:1" fill="#b1b7b9" d="M 100.5,37.5 C 98.369,36.6862 96.0356,36.1862 93.5,36C 92.142,33.2485 92.8087,32.7485 95.5,34.5C 100.509,31.4982 105.843,30.8315 111.5,32.5C 107.878,33.3253 104.211,33.8253 100.5,34C 106.36,36.7612 112.36,39.2612 118.5,41.5C 118.167,41.8333 117.833,42.1667 117.5,42.5C 112.077,39.9519 106.41,38.2853 100.5,37.5 Z"/></g>
<g><path style="opacity:1" fill="#f4f5f5" d="M 100.5,37.5 C 104.577,43.3733 110.244,46.3733 117.5,46.5C 119.139,50.2527 119.806,54.2527 119.5,58.5C 119.5,60.1667 119.5,61.8333 119.5,63.5C 118.069,64.7804 117.402,66.4471 117.5,68.5C 115.4,71.1041 113.067,73.6041 110.5,76C 105.467,77.5667 101.633,76.0667 99,71.5C 97.7258,68.6089 96.2258,65.9422 94.5,63.5C 94.552,61.0971 94.2186,58.7638 93.5,56.5C 94.1647,53.5299 94.8314,50.5299 95.5,47.5C 97.5,46.1667 99.1667,44.5 100.5,42.5C 99.8333,41.1667 99.1667,39.8333 98.5,38.5C 98.9569,37.7025 99.6236,37.3691 100.5,37.5 Z"/></g>
<g><path style="opacity:1" fill="#daddde" d="M 121.5,38.5 C 122.713,39.4971 122.546,40.4971 121,41.5C 120.53,40.4232 120.697,39.4232 121.5,38.5 Z"/></g>
<g><path style="opacity:1" fill="#fef8f7" d="M 177.5,29.5 C 170.233,35.3446 164.899,42.6779 161.5,51.5C 162.325,52.3857 163.325,52.719 164.5,52.5C 163.974,49.1922 165.307,47.0255 168.5,46C 174.135,45.096 179.802,44.596 185.5,44.5C 185.5,48.5 185.5,52.5 185.5,56.5C 179.694,56.2679 174.361,57.7679 169.5,61C 172.244,60.9808 174.911,60.3141 177.5,59C 186.124,58.174 194.624,58.674 203,60.5C 203.167,60.1667 203.333,59.8333 203.5,59.5C 197.944,57.9284 192.277,56.7617 186.5,56C 187.456,52.6064 187.789,49.1064 187.5,45.5C 188.833,45.5 190.167,45.5 191.5,45.5C 193.167,45.5 194.833,45.5 196.5,45.5C 198.091,46.2189 199.591,47.2189 201,48.5C 202.667,51.8333 204.333,55.1667 206,58.5C 214.472,65.6953 224.305,68.6953 235.5,67.5C 236.651,56.407 233.651,46.7404 226.5,38.5C 226.5,37.8333 226.5,37.1667 226.5,36.5C 228.836,38.0038 230.669,40.0038 232,42.5C 236.057,50.6801 237.557,59.3467 236.5,68.5C 239.428,68.5651 242.095,69.2318 244.5,70.5C 243.866,71.9468 242.699,72.6134 241,72.5C 237.191,71.4226 233.357,70.4226 229.5,69.5C 228.833,69.8333 228.167,70.1667 227.5,70.5C 234.5,71.0855 240.5,73.7522 245.5,78.5C 246.967,81.6543 246.634,84.6543 244.5,87.5C 243.766,88.8775 243.099,90.3775 242.5,92C 239.333,92.8333 238.167,91.6667 239,88.5C 239.925,87.9535 240.758,87.2868 241.5,86.5C 240.811,84.556 240.311,82.556 240,80.5C 235.989,77.8855 231.822,75.5522 227.5,73.5C 226.702,73.9569 226.369,74.6236 226.5,75.5C 228.017,75.5106 229.184,76.1772 230,77.5C 233.197,84.9925 233.863,92.6591 232,100.5C 230.178,102.825 228.011,103.158 225.5,101.5C 216.969,103.72 208.302,104.553 199.5,104C 198.167,103.333 198.167,102.667 199.5,102C 208.329,101.382 216.996,99.8818 225.5,97.5C 225.106,94.8653 223.939,94.1986 222,95.5C 220.5,95.3333 219.667,94.5 219.5,93C 220.232,91.2345 221.565,90.0678 223.5,89.5C 222.727,86.5692 221.727,83.7359 220.5,81C 210.901,74.8771 210.401,75.3771 219,82.5C 221.701,89.8002 219.367,92.4669 212,90.5C 210.58,87.8159 210.08,85.1492 210.5,82.5C 208.271,81.0368 205.937,80.2035 203.5,80C 205.964,82.7261 206.797,85.8928 206,89.5C 202.518,91.0767 199.852,90.0767 198,86.5C 193.89,77.347 186.723,72.5137 176.5,72C 169.509,71.0248 162.509,70.1915 155.5,69.5C 154.167,68.5 154.167,67.5 155.5,66.5C 165.684,67.2713 176.018,68.1047 186.5,69C 192.864,70.5753 199.197,71.9086 205.5,73C 191.988,67.0357 177.988,63.5357 163.5,62.5C 166.568,60.5056 167.235,57.8389 165.5,54.5C 162.833,53.8333 160.167,53.1667 157.5,52.5C 160.086,51.5134 161.419,49.5134 161.5,46.5C 164.793,38.9157 170.126,33.249 177.5,29.5 Z"/></g>
<g><path style="opacity:1" fill="#303d43" d="M 109.5,48.5 C 111.185,47.156 112.852,47.3227 114.5,49C 112.893,48.9813 111.226,48.8146 109.5,48.5 Z"/></g>
<g><path style="opacity:1" fill="#334349" d="M 100.5,47.5 C 101.873,47.3433 103.207,47.51 104.5,48C 102.152,48.3459 100.319,49.5125 99,51.5C 98.7003,49.9343 99.2003,48.601 100.5,47.5 Z"/></g>
<g><path style="opacity:1" fill="#dadbdc" d="M 91.5,48.5 C 92.6857,49.7054 92.6857,51.0387 91.5,52.5C 91.4001,55.667 92.0668,58.667 93.5,61.5C 92.5754,62.5624 91.5754,62.5624 90.5,61.5C 89.5531,59.2655 88.8864,56.9322 88.5,54.5C 88.7092,53.0055 89.3759,51.8388 90.5,51C 90.2716,50.6012 89.9382,50.4346 89.5,50.5C 89.8333,49.5 90.5,48.8333 91.5,48.5 Z"/></g>
<g><path style="opacity:1" fill="#f3f5f5" d="M 123.5,51.5 C 126.08,54.7995 125.747,58.1329 122.5,61.5C 121.614,60.675 121.281,59.675 121.5,58.5C 122.015,56.1055 122.681,53.7722 123.5,51.5 Z"/></g>
<g><path style="opacity:0.985" fill="#fdd6d2" d="M 87.5,51.5 C 87.3367,53.8568 87.5034,56.1902 88,58.5C 88.3768,59.9423 89.2101,60.9423 90.5,61.5C 91.1834,63.1765 92.5168,63.8432 94.5,63.5C 95.2024,66.5778 96.2024,69.5778 97.5,72.5C 96.7142,74.0411 95.7142,75.3744 94.5,76.5C 93.0337,77.347 92.2004,78.6803 92,80.5C 90.3484,81.3994 88.8484,82.3994 87.5,83.5C 84.7594,83.7073 82.4261,84.7073 80.5,86.5C 78.4471,86.4021 76.7804,87.0687 75.5,88.5C 73.6096,88.2965 72.1096,88.9632 71,90.5C 69.5462,93.0711 68.3795,95.7378 67.5,98.5C 65.7147,103.404 63.3814,108.071 60.5,112.5C 58.087,113.68 57.087,115.68 57.5,118.5C 57.6716,119.492 57.3382,120.158 56.5,120.5C 52.2505,127.329 48.2505,134.329 44.5,141.5C 42.9735,142.492 42.3068,143.992 42.5,146C 42.3068,148.008 42.9735,149.508 44.5,150.5C 44.8102,152.144 45.8102,153.144 47.5,153.5C 49.7657,157.436 52.7657,160.769 56.5,163.5C 59.4357,168.105 63.1024,172.105 67.5,175.5C 68.8333,175.5 69.5,176.167 69.5,177.5C 70.412,179.595 71.5787,181.595 73,183.5C 74.3654,217.746 73.1987,251.746 69.5,285.5C 53.2842,281.639 39.7842,273.305 29,260.5C 2.40463,224.232 -2.9287,184.899 13,142.5C 30.6996,106.498 55.5329,76.1644 87.5,51.5 Z"/></g>
<g><path style="opacity:1" fill="#565b5d" d="M 101.5,53.5 C 103.465,53.9483 103.798,54.9483 102.5,56.5C 101.614,55.675 101.281,54.675 101.5,53.5 Z"/></g>
<g><path style="opacity:1" fill="#3f4f54" d="M 107.5,52.5 C 108.638,55.3035 108.805,58.3035 108,61.5C 106.365,62.8486 104.865,62.6819 103.5,61C 104.825,61.1484 105.992,60.9817 107,60.5C 107.497,57.854 107.664,55.1873 107.5,52.5 Z"/></g>
<g><path style="opacity:1" fill="#4d5457" d="M 109.5,53.5 C 111.465,53.9483 111.798,54.9483 110.5,56.5C 109.614,55.675 109.281,54.675 109.5,53.5 Z"/></g>
<g><path style="opacity:1" fill="#162930" d="M 165.5,54.5 C 167.235,57.8389 166.568,60.5056 163.5,62.5C 160.994,63.7496 158.327,64.4162 155.5,64.5C 155.5,61.1667 155.5,57.8333 155.5,54.5C 158.833,54.5 162.167,54.5 165.5,54.5 Z"/></g>
<g><path style="opacity:1" fill="#2b3b41" d="M 89.5,50.5 C 89.9382,50.4346 90.2716,50.6012 90.5,51C 89.3759,51.8388 88.7092,53.0055 88.5,54.5C 88.8864,56.9322 89.5531,59.2655 90.5,61.5C 89.2101,60.9423 88.3768,59.9423 88,58.5C 87.5034,56.1902 87.3367,53.8568 87.5,51.5C 87.8417,50.6618 88.5084,50.3284 89.5,50.5 Z"/></g>
<g><path style="opacity:1" fill="#ffd1cc" d="M 185.5,44.5 C 187.735,44.2053 189.735,44.5386 191.5,45.5C 190.167,45.5 188.833,45.5 187.5,45.5C 187.789,49.1064 187.456,52.6064 186.5,56C 192.277,56.7617 197.944,57.9284 203.5,59.5C 203.333,59.8333 203.167,60.1667 203,60.5C 194.624,58.674 186.124,58.174 177.5,59C 174.911,60.3141 172.244,60.9808 169.5,61C 174.361,57.7679 179.694,56.2679 185.5,56.5C 185.5,52.5 185.5,48.5 185.5,44.5 Z"/></g>
<g><path style="opacity:1" fill="#5c666b" d="M 91.5,52.5 C 92.1667,53.8333 92.8333,55.1667 93.5,56.5C 94.2186,58.7638 94.552,61.0971 94.5,63.5C 92.5168,63.8432 91.1834,63.1765 90.5,61.5C 91.5754,62.5624 92.5754,62.5624 93.5,61.5C 92.0668,58.667 91.4001,55.667 91.5,52.5 Z"/></g>
<g><path style="opacity:1" fill="#5e5f64" d="M 122.5,50.5 C 123.978,50.238 125.311,50.5713 126.5,51.5C 127.54,55.4745 126.707,59.1411 124,62.5C 122.644,63.3802 121.144,63.7135 119.5,63.5C 119.5,61.8333 119.5,60.1667 119.5,58.5C 120.167,58.5 120.833,58.5 121.5,58.5C 121.281,59.675 121.614,60.675 122.5,61.5C 125.747,58.1329 126.08,54.7995 123.5,51.5C 122.833,51.5 122.5,51.1667 122.5,50.5 Z"/></g>
<g><path style="opacity:1" fill="#3a4a50" d="M 101.5,64.5 C 104.605,65.4279 107.605,65.7612 110.5,65.5C 109,65.8333 107.5,66.1667 106,66.5C 104.014,66.4313 102.514,65.7647 101.5,64.5 Z"/></g>
<g><path style="opacity:1" fill="#3a4349" d="M 119.5,63.5 C 119.598,65.5529 118.931,67.2196 117.5,68.5C 117.402,66.4471 118.069,64.7804 119.5,63.5 Z"/></g>
<g><path style="opacity:1" fill="#fd7465" d="M 163.5,62.5 C 177.988,63.5357 191.988,67.0357 205.5,73C 199.197,71.9086 192.864,70.5753 186.5,69C 176.018,68.1047 165.684,67.2713 155.5,66.5C 155.5,66.1667 155.5,65.8333 155.5,65.5C 155.5,65.1667 155.5,64.8333 155.5,64.5C 158.327,64.4162 160.994,63.7496 163.5,62.5 Z"/></g>
<g><path style="opacity:1" fill="#ffdfda" d="M 154.5,8.5 C 154.17,27.674 154.503,46.674 155.5,65.5C 155.5,65.8333 155.5,66.1667 155.5,66.5C 154.167,67.5 154.167,68.5 155.5,69.5C 155.5,75.8333 155.5,82.1667 155.5,88.5C 154.504,102.99 154.171,117.657 154.5,132.5C 153.167,91.1667 153.167,49.8333 154.5,8.5 Z"/></g>
<g><path style="opacity:1" fill="#fd7566" d="M 155.5,69.5 C 162.509,70.1915 169.509,71.0248 176.5,72C 186.723,72.5137 193.89,77.347 198,86.5C 199.852,90.0767 202.518,91.0767 206,89.5C 206.797,85.8928 205.964,82.7261 203.5,80C 205.937,80.2035 208.271,81.0368 210.5,82.5C 210.08,85.1492 210.58,87.8159 212,90.5C 219.367,92.4669 221.701,89.8002 219,82.5C 210.401,75.3771 210.901,74.8771 220.5,81C 221.727,83.7359 222.727,86.5692 223.5,89.5C 221.565,90.0678 220.232,91.2345 219.5,93C 219.667,94.5 220.5,95.3333 222,95.5C 223.939,94.1986 225.106,94.8653 225.5,97.5C 216.996,99.8818 208.329,101.382 199.5,102C 198.167,102.667 198.167,103.333 199.5,104C 208.302,104.553 216.969,103.72 225.5,101.5C 228.011,103.158 230.178,102.825 232,100.5C 233.863,92.6591 233.197,84.9925 230,77.5C 229.184,76.1772 228.017,75.5106 226.5,75.5C 226.369,74.6236 226.702,73.9569 227.5,73.5C 231.822,75.5522 235.989,77.8855 240,80.5C 240.311,82.556 240.811,84.556 241.5,86.5C 240.758,87.2868 239.925,87.9535 239,88.5C 238.167,91.6667 239.333,92.8333 242.5,92C 243.099,90.3775 243.766,88.8775 244.5,87.5C 245.473,89.9479 245.806,92.6146 245.5,95.5C 242.102,95.1796 238.768,95.513 235.5,96.5C 235.709,97.086 236.043,97.586 236.5,98C 239.482,98.498 242.482,98.6646 245.5,98.5C 245.5,100.167 245.5,101.833 245.5,103.5C 230.11,105.398 214.776,107.732 199.5,110.5C 197.215,110.324 195.215,109.657 193.5,108.5C 194.036,101.561 193.036,94.8943 190.5,88.5C 185.926,77.8931 181.426,77.8931 177,88.5C 176.24,92.819 175.573,97.1523 175,101.5C 168.557,97.0324 162.057,92.6991 155.5,88.5C 155.5,82.1667 155.5,75.8333 155.5,69.5 Z"/></g>
<g><path style="opacity:1" fill="#ff6c5b" d="M 244.5,70.5 C 244.833,70.5 245.167,70.5 245.5,70.5C 245.5,73.1667 245.5,75.8333 245.5,78.5C 240.5,73.7522 234.5,71.0855 227.5,70.5C 228.167,70.1667 228.833,69.8333 229.5,69.5C 233.357,70.4226 237.191,71.4226 241,72.5C 242.699,72.6134 243.866,71.9468 244.5,70.5 Z"/></g>
<g><path style="opacity:1" fill="#f9f9f9" d="M 111.5,89.5 C 110.662,89.8417 110.328,90.5084 110.5,91.5C 109.416,93.3186 108.082,94.9853 106.5,96.5C 105.508,94.1928 104.175,92.1928 102.5,90.5C 101.62,87.7378 100.454,85.0711 99,82.5C 98.3333,79.5 98.3333,76.5 99,73.5C 103.694,79.6453 108.694,79.9787 114,74.5C 115.019,79.839 114.186,84.839 111.5,89.5 Z"/></g>
<g><path style="opacity:1" fill="#e3e8e9" d="M 102.5,90.5 C 102.631,91.2389 102.464,91.9056 102,92.5C 100.961,91.2899 99.7942,90.2899 98.5,89.5C 96.901,89.2322 95.5676,89.5655 94.5,90.5C 93.0695,90.4208 91.7362,90.7542 90.5,91.5C 89.7025,91.0431 89.3691,90.3764 89.5,89.5C 89.3284,88.5084 89.6618,87.8417 90.5,87.5C 91.1174,87.3893 91.6174,87.056 92,86.5C 92.5334,83.0712 93.3668,79.7379 94.5,76.5C 95.4959,76.5858 96.3292,76.2524 97,75.5C 96.6351,81.4141 98.4684,86.4141 102.5,90.5 Z"/></g>
<g><path style="opacity:1" fill="#3e4c52" d="M 94.5,63.5 C 96.2258,65.9422 97.7258,68.6089 99,71.5C 101.633,76.0667 105.467,77.5667 110.5,76C 113.067,73.6041 115.4,71.1041 117.5,68.5C 117.123,70.258 116.456,71.9246 115.5,73.5C 116.865,74.941 118.365,76.2744 120,77.5C 120.483,78.448 120.649,79.448 120.5,80.5C 117.183,74.8756 115.683,75.5423 116,82.5C 114.974,85.2387 113.474,87.572 111.5,89.5C 114.186,84.839 115.019,79.839 114,74.5C 108.694,79.9787 103.694,79.6453 99,73.5C 98.3333,76.5 98.3333,79.5 99,82.5C 100.454,85.0711 101.62,87.7378 102.5,90.5C 98.4684,86.4141 96.6351,81.4141 97,75.5C 96.3292,76.2524 95.4959,76.5858 94.5,76.5C 95.7142,75.3744 96.7142,74.0411 97.5,72.5C 96.2024,69.5778 95.2024,66.5778 94.5,63.5 Z"/></g>
<g><path style="opacity:1" fill="#e5ebec" d="M 120.5,80.5 C 120.462,83.8073 121.128,86.9739 122.5,90C 122.164,91.0299 121.497,91.5299 120.5,91.5C 120.027,90.0937 119.027,89.427 117.5,89.5C 116.833,88.1667 116.167,88.1667 115.5,89.5C 113.871,90.6253 112.371,91.9586 111,93.5C 110.536,92.9056 110.369,92.2389 110.5,91.5C 110.328,90.5084 110.662,89.8417 111.5,89.5C 113.474,87.572 114.974,85.2387 116,82.5C 115.683,75.5423 117.183,74.8756 120.5,80.5 Z"/></g>
<g><path style="opacity:1" fill="#16272e" d="M 226.5,75.5 C 228.844,78.0042 230.344,81.0042 231,84.5C 231.667,89.5 231.667,94.5 231,99.5C 230.333,100.167 229.667,100.833 229,101.5C 225.424,93.4416 223.59,85.1083 223.5,76.5C 224.417,75.8728 225.417,75.5394 226.5,75.5 Z"/></g>
<g><path style="opacity:1" fill="#3f484e" d="M 94.5,76.5 C 93.3668,79.7379 92.5334,83.0712 92,86.5C 91.6174,87.056 91.1174,87.3893 90.5,87.5C 91.2178,85.8632 91.3845,84.1966 91,82.5C 89.9887,83.3366 88.8221,83.67 87.5,83.5C 88.8484,82.3994 90.3484,81.3994 92,80.5C 92.2004,78.6803 93.0337,77.347 94.5,76.5 Z"/></g>
<g><path style="opacity:1" fill="#484548" d="M 120.5,80.5 C 126.538,81.6761 132.538,83.1761 138.5,85C 141.035,85.9282 142.035,87.7615 141.5,90.5C 140.508,90.6716 139.842,90.3382 139.5,89.5C 139.64,87.8762 138.973,86.7096 137.5,86C 132.833,84.8333 128.167,83.6667 123.5,82.5C 122.833,82.8333 122.167,83.1667 121.5,83.5C 123.281,86.779 123.947,90.1124 123.5,93.5C 122.261,93.0576 121.261,92.3909 120.5,91.5C 121.497,91.5299 122.164,91.0299 122.5,90C 121.128,86.9739 120.462,83.8073 120.5,80.5 Z"/></g>
<g><path style="opacity:1" fill="#fd7668" d="M 90.5,87.5 C 89.6618,87.8417 89.3284,88.5084 89.5,89.5C 87.0694,91.3296 87.236,92.3296 90,92.5C 91.876,92.4753 93.376,91.8086 94.5,90.5C 95.5676,89.5655 96.901,89.2322 98.5,89.5C 100.743,93.4154 103.743,96.7488 107.5,99.5C 110.594,96.4172 113.261,93.0839 115.5,89.5C 116.167,88.1667 116.833,88.1667 117.5,89.5C 117.973,90.9063 118.973,91.573 120.5,91.5C 121.261,92.3909 122.261,93.0576 123.5,93.5C 123.947,90.1124 123.281,86.779 121.5,83.5C 122.167,83.1667 122.833,82.8333 123.5,82.5C 128.167,83.6667 132.833,84.8333 137.5,86C 138.973,86.7096 139.64,87.8762 139.5,89.5C 136.41,105.21 134.743,121.21 134.5,137.5C 134.807,147.582 134.474,157.582 133.5,167.5C 115.278,163.841 96.9451,163.508 78.5,166.5C 80.5585,141.181 78.5585,116.181 72.5,91.5C 73.3398,90.265 74.3398,89.265 75.5,88.5C 77.5529,88.5979 79.2196,87.9313 80.5,86.5C 83.2406,86.2927 85.5739,85.2927 87.5,83.5C 88.8221,83.67 89.9887,83.3366 91,82.5C 91.3845,84.1966 91.2178,85.8632 90.5,87.5 Z"/></g>
<g><path style="opacity:1" fill="#344449" d="M 87.5,83.5 C 85.5739,85.2927 83.2406,86.2927 80.5,86.5C 82.4261,84.7073 84.7594,83.7073 87.5,83.5 Z"/></g>
<g><path style="opacity:1" fill="#eaeaeb" d="M 190.5,88.5 C 193.036,94.8943 194.036,101.561 193.5,108.5C 192.747,112.099 191.413,115.433 189.5,118.5C 184.175,117.842 181.175,114.842 180.5,109.5C 179.077,102.498 179.244,95.4976 181,88.5C 184.16,84.5808 187.327,84.5808 190.5,88.5 Z"/></g>
<g><path style="opacity:1" fill="#2d3439" d="M 80.5,86.5 C 79.2196,87.9313 77.5529,88.5979 75.5,88.5C 76.7804,87.0687 78.4471,86.4021 80.5,86.5 Z"/></g>
<g><path style="opacity:1" fill="#282f34" d="M 117.5,89.5 C 119.027,89.427 120.027,90.0937 120.5,91.5C 118.973,91.573 117.973,90.9063 117.5,89.5 Z"/></g>
<g><path style="opacity:1" fill="#334950" d="M 89.5,89.5 C 89.3691,90.3764 89.7025,91.0431 90.5,91.5C 91.7362,90.7542 93.0695,90.4208 94.5,90.5C 93.376,91.8086 91.876,92.4753 90,92.5C 87.236,92.3296 87.0694,91.3296 89.5,89.5 Z"/></g>
<g><path style="opacity:1" fill="#1e2e35" d="M 184.5,90.5 C 185.822,90.33 186.989,90.6634 188,91.5C 191.703,97.865 192.37,104.532 190,111.5C 188,114.167 186,114.167 184,111.5C 180.527,104.296 180.694,97.296 184.5,90.5 Z"/></g>
<g><path style="opacity:1" fill="#644243" d="M 139.5,89.5 C 139.842,90.3382 140.508,90.6716 141.5,90.5C 142.341,92.3792 142.675,94.3792 142.5,96.5C 141.819,94.8415 140.985,93.1749 140,91.5C 137.774,107.093 136.607,122.759 136.5,138.5C 135.833,138.167 135.167,137.833 134.5,137.5C 134.743,121.21 136.41,105.21 139.5,89.5 Z"/></g>
<g><path style="opacity:1" fill="#485257" d="M 98.5,89.5 C 99.7942,90.2899 100.961,91.2899 102,92.5C 102.464,91.9056 102.631,91.2389 102.5,90.5C 104.175,92.1928 105.508,94.1928 106.5,96.5C 108.082,94.9853 109.416,93.3186 110.5,91.5C 110.369,92.2389 110.536,92.9056 111,93.5C 112.371,91.9586 113.871,90.6253 115.5,89.5C 113.261,93.0839 110.594,96.4172 107.5,99.5C 103.743,96.7488 100.743,93.4154 98.5,89.5 Z"/></g>
<g><path style="opacity:1" fill="#fbb0a9" d="M 155.5,92.5 C 163.789,98.2823 171.955,104.282 180,110.5C 180.399,110.272 180.565,109.938 180.5,109.5C 181.175,114.842 184.175,117.842 189.5,118.5C 193.021,118.83 196.021,120.33 198.5,123C 200.034,123.923 201.701,124.423 203.5,124.5C 211.15,122.703 218.817,121.037 226.5,119.5C 226.833,120 227.167,120.5 227.5,121C 226.491,122.168 225.491,123.335 224.5,124.5C 224.855,125.522 225.522,126.189 226.5,126.5C 229.5,127.833 232.5,127.833 235.5,126.5C 237.223,127.605 238.223,129.272 238.5,131.5C 236.167,131.5 233.833,131.5 231.5,131.5C 206.167,131.5 180.833,131.5 155.5,131.5C 155.5,118.5 155.5,105.5 155.5,92.5 Z"/></g>
<g><path style="opacity:1" fill="#ffe9e7" d="M 204.5,96.5 C 205.5,96.5 206.5,96.5 207.5,96.5C 206.754,100.31 205.754,100.31 204.5,96.5 Z"/></g>
<g><path style="opacity:1" fill="#fa7668" d="M 56.5,142.5 C 53.5152,141.674 50.8485,140.341 48.5,138.5C 51.1667,132.5 53.8333,126.5 56.5,120.5C 57.3382,120.158 57.6716,119.492 57.5,118.5C 59.0075,116.819 60.0075,114.819 60.5,112.5C 63.3814,108.071 65.7147,103.404 67.5,98.5C 69.1361,97.2511 70.3028,95.5844 71,93.5C 73.4283,102.972 75.2616,112.638 76.5,122.5C 70.843,130.157 64.1764,136.824 56.5,142.5 Z"/></g>
<g><path style="opacity:1" fill="#15252c" d="M 190.5,88.5 C 187.327,84.5808 184.16,84.5808 181,88.5C 179.244,95.4976 179.077,102.498 180.5,109.5C 180.565,109.938 180.399,110.272 180,110.5C 171.955,104.282 163.789,98.2823 155.5,92.5C 155.5,91.1667 155.5,89.8333 155.5,88.5C 162.057,92.6991 168.557,97.0324 175,101.5C 175.573,97.1523 176.24,92.819 177,88.5C 181.426,77.8931 185.926,77.8931 190.5,88.5 Z"/></g>
<g><path style="opacity:1" fill="#fb7668" d="M 142.5,96.5 C 142.216,98.4147 142.549,100.081 143.5,101.5C 145.149,114.566 147.816,127.4 151.5,140C 150.429,140.852 149.429,141.685 148.5,142.5C 145.646,142.924 142.979,143.924 140.5,145.5C 139.817,145.137 139.15,144.804 138.5,144.5C 137.833,142.5 137.167,140.5 136.5,138.5C 136.607,122.759 137.774,107.093 140,91.5C 140.985,93.1749 141.819,94.8415 142.5,96.5 Z"/></g>
<g><path style="opacity:1" fill="#192d34" d="M 245.5,103.5 C 245.5,105.5 245.5,107.5 245.5,109.5C 245.833,110.167 246.167,110.833 246.5,111.5C 243.814,112.988 244.147,113.655 247.5,113.5C 240.345,114.329 233.011,114.829 225.5,115C 226.163,116.518 227.163,117.685 228.5,118.5C 228.5,118.833 228.5,119.167 228.5,119.5C 228.611,120.117 228.944,120.617 229.5,121C 232.482,121.498 235.482,121.665 238.5,121.5C 238.5,121.833 238.5,122.167 238.5,122.5C 237.167,122.5 235.833,122.5 234.5,122.5C 233.167,122.5 231.833,122.5 230.5,122.5C 230.5,123.833 230.5,125.167 230.5,126.5C 229.167,126.5 227.833,126.5 226.5,126.5C 225.522,126.189 224.855,125.522 224.5,124.5C 225.491,123.335 226.491,122.168 227.5,121C 227.167,120.5 226.833,120 226.5,119.5C 218.817,121.037 211.15,122.703 203.5,124.5C 201.701,124.423 200.034,123.923 198.5,123C 196.021,120.33 193.021,118.83 189.5,118.5C 191.413,115.433 192.747,112.099 193.5,108.5C 195.215,109.657 197.215,110.324 199.5,110.5C 214.776,107.732 230.11,105.398 245.5,103.5 Z"/></g>
<g><path style="opacity:1" fill="#484348" d="M 251.5,107.5 C 260.173,107.334 268.84,107.5 277.5,108C 279.141,109.129 280.141,110.629 280.5,112.5C 279.542,112.047 278.708,111.381 278,110.5C 278.019,112.107 278.185,113.774 278.5,115.5C 276.837,113.562 276.171,111.228 276.5,108.5C 268.16,108.334 259.827,108.5 251.5,109C 250.672,110.992 249.339,112.492 247.5,113.5C 247.672,112.508 247.338,111.842 246.5,111.5C 246.167,110.833 245.833,110.167 245.5,109.5C 246.492,109.672 247.158,109.338 247.5,108.5C 248.833,108.167 250.167,107.833 251.5,107.5 Z"/></g>
<g><path style="opacity:1" fill="#f6f8f8" d="M 246.5,111.5 C 247.338,111.842 247.672,112.508 247.5,113.5C 244.147,113.655 243.814,112.988 246.5,111.5 Z"/></g>
<g><path style="opacity:1" fill="#ecf1f2" d="M 280.5,112.5 C 280.414,113.496 280.748,114.329 281.5,115C 280.552,115.483 279.552,115.649 278.5,115.5C 278.185,113.774 278.019,112.107 278,110.5C 278.708,111.381 279.542,112.047 280.5,112.5 Z"/></g>
<g><path style="opacity:1" fill="#757174" d="M 60.5,112.5 C 60.0075,114.819 59.0075,116.819 57.5,118.5C 57.087,115.68 58.087,113.68 60.5,112.5 Z"/></g>
<g><path style="opacity:1" fill="#51383a" d="M 280.5,112.5 C 281.627,113.122 282.627,113.955 283.5,115C 288.823,115.499 294.156,115.666 299.5,115.5C 300.492,115.328 301.158,115.662 301.5,116.5C 293.648,116.825 285.982,116.492 278.5,115.5C 279.552,115.649 280.552,115.483 281.5,115C 280.748,114.329 280.414,113.496 280.5,112.5 Z"/></g>
<g><path style="opacity:1" fill="#797e81" d="M 252.5,118.5 C 244.486,118.568 236.486,118.901 228.5,119.5C 228.5,119.167 228.5,118.833 228.5,118.5C 234.658,117.603 240.991,116.936 247.5,116.5C 249.64,116.556 251.306,117.223 252.5,118.5 Z"/></g>
<g><path style="opacity:1" fill="#f77667" d="M 278.5,115.5 C 285.982,116.492 293.648,116.825 301.5,116.5C 302.291,118.309 302.291,120.309 301.5,122.5C 296.318,122.669 290.985,122.835 285.5,123C 284.584,123.278 283.918,123.778 283.5,124.5C 272.217,125.457 260.884,125.79 249.5,125.5C 249.5,124.833 249.5,124.167 249.5,123.5C 249.833,122.833 250.167,122.167 250.5,121.5C 259.167,121.083 267.834,120.583 276.5,120C 277.712,118.893 277.379,118.393 275.5,118.5C 275.5,118.167 275.5,117.833 275.5,117.5C 275.682,115.409 275.348,113.409 274.5,111.5C 267.01,110.181 259.677,110.181 252.5,111.5C 250.896,112.287 250.229,113.62 250.5,115.5C 251.5,115.5 252.5,115.5 253.5,115.5C 253.842,116.338 254.508,116.672 255.5,116.5C 255.5,117.167 255.833,117.5 256.5,117.5C 260.833,118.167 265.167,118.833 269.5,119.5C 264.405,119.779 259.405,119.445 254.5,118.5C 253.833,118.5 253.167,118.5 252.5,118.5C 251.306,117.223 249.64,116.556 247.5,116.5C 240.991,116.936 234.658,117.603 228.5,118.5C 227.163,117.685 226.163,116.518 225.5,115C 233.011,114.829 240.345,114.329 247.5,113.5C 249.339,112.492 250.672,110.992 251.5,109C 259.827,108.5 268.16,108.334 276.5,108.5C 276.171,111.228 276.837,113.562 278.5,115.5 Z"/></g>
<g><path style="opacity:1" fill="#9f3c37" d="M 256.5,117.5 C 262.5,117.5 268.5,117.5 274.5,117.5C 274.833,117.5 275.167,117.5 275.5,117.5C 275.5,117.833 275.5,118.167 275.5,118.5C 273.735,119.461 271.735,119.795 269.5,119.5C 265.167,118.833 260.833,118.167 256.5,117.5 Z"/></g>
<g><path style="opacity:1" fill="#4b767d" d="M 252.5,111.5 C 255.833,111.5 259.167,111.5 262.5,111.5C 261.699,113.042 261.366,114.708 261.5,116.5C 265.833,116.5 270.167,116.5 274.5,116.5C 274.5,116.833 274.5,117.167 274.5,117.5C 268.5,117.5 262.5,117.5 256.5,117.5C 255.833,117.5 255.5,117.167 255.5,116.5C 257.167,116.5 258.833,116.5 260.5,116.5C 260.5,115.167 260.5,113.833 260.5,112.5C 257.278,112.108 254.278,112.608 251.5,114C 252.416,114.278 253.082,114.778 253.5,115.5C 252.5,115.5 251.5,115.5 250.5,115.5C 250.229,113.62 250.896,112.287 252.5,111.5 Z"/></g>
<g><path style="opacity:1" fill="#e8eeef" d="M 262.5,111.5 C 266.226,111.177 269.893,111.511 273.5,112.5C 274.246,113.736 274.579,115.07 274.5,116.5C 270.167,116.5 265.833,116.5 261.5,116.5C 261.366,114.708 261.699,113.042 262.5,111.5 Z"/></g>
<g><path style="opacity:1" fill="#eaedee" d="M 255.5,116.5 C 254.508,116.672 253.842,116.338 253.5,115.5C 253.082,114.778 252.416,114.278 251.5,114C 254.278,112.608 257.278,112.108 260.5,112.5C 260.5,113.833 260.5,115.167 260.5,116.5C 258.833,116.5 257.167,116.5 255.5,116.5 Z"/></g>
<g><path style="opacity:1" fill="#4f3334" d="M 252.5,111.5 C 259.677,110.181 267.01,110.181 274.5,111.5C 275.348,113.409 275.682,115.409 275.5,117.5C 275.167,117.5 274.833,117.5 274.5,117.5C 274.5,117.167 274.5,116.833 274.5,116.5C 274.579,115.07 274.246,113.736 273.5,112.5C 269.893,111.511 266.226,111.177 262.5,111.5C 259.167,111.5 255.833,111.5 252.5,111.5 Z"/></g>
<g><path style="opacity:1" fill="#e4eced" d="M 252.5,118.5 C 253.167,118.5 253.833,118.5 254.5,118.5C 252.844,120.06 250.844,121.06 248.5,121.5C 245.167,121.5 241.833,121.5 238.5,121.5C 235.482,121.665 232.482,121.498 229.5,121C 228.944,120.617 228.611,120.117 228.5,119.5C 236.486,118.901 244.486,118.568 252.5,118.5 Z"/></g>
<g><path style="opacity:1" fill="#604142" d="M 254.5,118.5 C 259.405,119.445 264.405,119.779 269.5,119.5C 271.735,119.795 273.735,119.461 275.5,118.5C 277.379,118.393 277.712,118.893 276.5,120C 267.834,120.583 259.167,121.083 250.5,121.5C 249.833,121.5 249.167,121.5 248.5,121.5C 250.844,121.06 252.844,120.06 254.5,118.5 Z"/></g>
<g><path style="opacity:1" fill="#8c3b37" d="M 238.5,122.5 C 238.5,122.167 238.5,121.833 238.5,121.5C 241.833,121.5 245.167,121.5 248.5,121.5C 249.167,121.5 249.833,121.5 250.5,121.5C 250.167,122.167 249.833,122.833 249.5,123.5C 247.901,122.438 246.234,122.438 244.5,123.5C 242.735,122.539 240.735,122.205 238.5,122.5 Z"/></g>
<g><path style="opacity:1" fill="#f77969" d="M 234.5,122.5 C 235.833,122.5 237.167,122.5 238.5,122.5C 240.735,122.205 242.735,122.539 244.5,123.5C 241.426,123.873 238.426,124.539 235.5,125.5C 230.725,125.33 230.392,124.33 234.5,122.5 Z"/></g>
<g><path style="opacity:0.947" fill="#f9d5d1" d="M 303.5,120.5 C 312.332,132.446 322.332,143.446 333.5,153.5C 329.025,156.596 324.025,157.763 318.5,157C 317.352,155.351 316.019,153.851 314.5,152.5C 313.478,152.855 312.811,153.522 312.5,154.5C 311.764,156.229 310.43,157.229 308.5,157.5C 308.5,151.167 308.5,144.833 308.5,138.5C 307.167,138.5 305.833,138.5 304.5,138.5C 304.5,136.167 304.5,133.833 304.5,131.5C 300.958,131.813 297.625,131.479 294.5,130.5C 295.148,128.914 295.648,127.247 296,125.5C 298.481,127.314 301.315,127.98 304.5,127.5C 304.753,125.173 304.086,123.173 302.5,121.5C 302.624,120.893 302.957,120.56 303.5,120.5 Z"/></g>
<g><path style="opacity:1" fill="#8e6564" d="M 234.5,122.5 C 230.392,124.33 230.725,125.33 235.5,125.5C 235.5,125.833 235.5,126.167 235.5,126.5C 232.5,127.833 229.5,127.833 226.5,126.5C 227.833,126.5 229.167,126.5 230.5,126.5C 230.5,125.167 230.5,123.833 230.5,122.5C 231.833,122.5 233.167,122.5 234.5,122.5 Z"/></g>
<g><path style="opacity:1" fill="#fbd8d4" d="M 77.5,168.5 C 77.1077,170.179 76.6077,171.846 76,173.5C 74.3029,170.98 72.4695,168.647 70.5,166.5C 70.573,164.973 69.9063,163.973 68.5,163.5C 66.9125,159.317 64.5792,155.65 61.5,152.5C 60.9705,149.284 60.3038,146.117 59.5,143C 65.0146,137.318 70.6813,131.818 76.5,126.5C 77.8192,131.068 78.4859,135.735 78.5,140.5C 77.7229,149.818 77.3896,159.151 77.5,168.5 Z"/></g>
<g><path style="opacity:1" fill="#464246" d="M 75.5,88.5 C 74.3398,89.265 73.3398,90.265 72.5,91.5C 78.5585,116.181 80.5585,141.181 78.5,166.5C 78.6716,167.492 78.3382,168.158 77.5,168.5C 77.3896,159.151 77.7229,149.818 78.5,140.5C 78.4859,135.735 77.8192,131.068 76.5,126.5C 70.6813,131.818 65.0146,137.318 59.5,143C 60.3038,146.117 60.9705,149.284 61.5,152.5C 58.1415,150.513 54.4748,150.013 50.5,151C 49.0577,151.377 48.0577,152.21 47.5,153.5C 45.8102,153.144 44.8102,152.144 44.5,150.5C 45.1499,150.804 45.8165,151.137 46.5,151.5C 50.3845,148.636 54.5512,147.97 59,149.5C 59.4514,146.686 58.6181,144.353 56.5,142.5C 64.1764,136.824 70.843,130.157 76.5,122.5C 75.2616,112.638 73.4283,102.972 71,93.5C 70.3028,95.5844 69.1361,97.2511 67.5,98.5C 68.3795,95.7378 69.5462,93.0711 71,90.5C 72.1096,88.9632 73.6096,88.2965 75.5,88.5 Z"/></g>
<g><path style="opacity:1" fill="#253036" d="M 299.5,115.5 C 299.5,115.167 299.5,114.833 299.5,114.5C 303.738,114.72 305.072,116.72 303.5,120.5C 302.957,120.56 302.624,120.893 302.5,121.5C 304.086,123.173 304.753,125.173 304.5,127.5C 301.315,127.98 298.481,127.314 296,125.5C 295.648,127.247 295.148,128.914 294.5,130.5C 293.662,130.842 293.328,131.508 293.5,132.5C 275.5,132.5 257.5,132.5 239.5,132.5C 239.5,131.833 239.167,131.5 238.5,131.5C 238.223,129.272 237.223,127.605 235.5,126.5C 235.5,126.167 235.5,125.833 235.5,125.5C 238.426,124.539 241.426,123.873 244.5,123.5C 246.234,122.438 247.901,122.438 249.5,123.5C 249.5,124.167 249.5,124.833 249.5,125.5C 249.5,125.833 249.5,126.167 249.5,126.5C 248.661,127.641 247.994,128.974 247.5,130.5C 260.154,131.666 272.82,131.833 285.5,131C 284.944,130.617 284.611,130.117 284.5,129.5C 284.784,127.585 284.451,125.919 283.5,124.5C 283.918,123.778 284.584,123.278 285.5,123C 290.985,122.835 296.318,122.669 301.5,122.5C 302.291,120.309 302.291,118.309 301.5,116.5C 301.158,115.662 300.492,115.328 299.5,115.5 Z"/></g>
<g><path style="opacity:1" fill="#edd0cc" d="M 284.5,129.5 C 284.611,130.117 284.944,130.617 285.5,131C 272.82,131.833 260.154,131.666 247.5,130.5C 247.994,128.974 248.661,127.641 249.5,126.5C 260.748,126.821 271.915,126.487 283,125.5C 283.21,127.058 283.71,128.391 284.5,129.5 Z"/></g>
<g><path style="opacity:1" fill="#5d393a" d="M 283.5,124.5 C 284.451,125.919 284.784,127.585 284.5,129.5C 283.71,128.391 283.21,127.058 283,125.5C 271.915,126.487 260.748,126.821 249.5,126.5C 249.5,126.167 249.5,125.833 249.5,125.5C 260.884,125.79 272.217,125.457 283.5,124.5 Z"/></g>
<g><path style="opacity:1" fill="#dfe3e4" d="M 241.5,124.5 C 242.833,124.5 244.167,124.5 245.5,124.5C 245.66,126.199 245.494,127.866 245,129.5C 242.218,131.011 240.385,130.178 239.5,127C 240.056,125.989 240.722,125.156 241.5,124.5 Z"/></g>
<g><path style="opacity:1" fill="#dadedf" d="M 288.5,123.5 C 292.473,124.075 293.473,126.242 291.5,130C 286.382,129.824 285.382,127.658 288.5,123.5 Z"/></g>
<g><path style="opacity:1" fill="#fdebe9" d="M 155.5,88.5 C 155.5,89.8333 155.5,91.1667 155.5,92.5C 155.5,105.5 155.5,118.5 155.5,131.5C 180.833,131.5 206.167,131.5 231.5,131.5C 231.5,131.833 231.5,132.167 231.5,132.5C 205.736,133.827 180.069,133.827 154.5,132.5C 154.171,117.657 154.504,102.99 155.5,88.5 Z"/></g>
<g><path style="opacity:1" fill="#323237" d="M 56.5,120.5 C 53.8333,126.5 51.1667,132.5 48.5,138.5C 47.1667,139.5 45.8333,140.5 44.5,141.5C 48.2505,134.329 52.2505,127.329 56.5,120.5 Z"/></g>
<g><path style="opacity:1" fill="#414f55" d="M 294.5,130.5 C 297.625,131.479 300.958,131.813 304.5,131.5C 304.5,133.833 304.5,136.167 304.5,138.5C 305.833,138.5 307.167,138.5 308.5,138.5C 308.5,144.833 308.5,151.167 308.5,157.5C 308.167,157.5 307.833,157.5 307.5,157.5C 307.5,155.167 307.5,152.833 307.5,150.5C 307.5,146.833 307.5,143.167 307.5,139.5C 281.167,139.5 254.833,139.5 228.5,139.5C 228.5,140.833 228.5,142.167 228.5,143.5C 228.5,146.167 228.5,148.833 228.5,151.5C 228.132,154.533 228.798,157.2 230.5,159.5C 228.214,159.405 226.214,158.738 224.5,157.5C 226.453,151.926 227.12,145.926 226.5,139.5C 227.919,138.549 229.585,138.216 231.5,138.5C 231.5,136.5 231.5,134.5 231.5,132.5C 231.5,132.167 231.5,131.833 231.5,131.5C 233.833,131.5 236.167,131.5 238.5,131.5C 239.167,131.5 239.5,131.833 239.5,132.5C 237.167,132.5 234.833,132.5 232.5,132.5C 232.5,134.5 232.5,136.5 232.5,138.5C 256.167,138.5 279.833,138.5 303.5,138.5C 303.5,136.5 303.5,134.5 303.5,132.5C 300.167,132.5 296.833,132.5 293.5,132.5C 293.328,131.508 293.662,130.842 294.5,130.5 Z"/></g>
<g><path style="opacity:1" fill="#ebedee" d="M 239.5,132.5 C 257.5,132.5 275.5,132.5 293.5,132.5C 296.833,132.5 300.167,132.5 303.5,132.5C 303.5,134.5 303.5,136.5 303.5,138.5C 279.833,138.5 256.167,138.5 232.5,138.5C 232.5,136.5 232.5,134.5 232.5,132.5C 234.833,132.5 237.167,132.5 239.5,132.5 Z"/></g>
<g><path style="opacity:1" fill="#f4f6f7" d="M 48.5,138.5 C 50.8485,140.341 53.5152,141.674 56.5,142.5C 58.6181,144.353 59.4514,146.686 59,149.5C 54.5512,147.97 50.3845,148.636 46.5,151.5C 45.8165,151.137 45.1499,150.804 44.5,150.5C 43.1667,147.5 43.1667,144.5 44.5,141.5C 45.8333,140.5 47.1667,139.5 48.5,138.5 Z"/></g>
<g><path style="opacity:1" fill="#fefefe" d="M 307.5,150.5 C 306.532,148.393 306.198,146.059 306.5,143.5C 303.833,143.5 301.167,143.5 298.5,143.5C 298.5,145.833 298.5,148.167 298.5,150.5C 296.167,150.5 293.833,150.5 291.5,150.5C 291.5,148.167 291.5,145.833 291.5,143.5C 288.833,143.5 286.167,143.5 283.5,143.5C 283.5,145.833 283.5,148.167 283.5,150.5C 281.167,150.5 278.833,150.5 276.5,150.5C 276.5,148.167 276.5,145.833 276.5,143.5C 273.833,143.5 271.167,143.5 268.5,143.5C 268.5,145.833 268.5,148.167 268.5,150.5C 266.167,150.5 263.833,150.5 261.5,150.5C 261.5,148.167 261.5,145.833 261.5,143.5C 258.833,143.5 256.167,143.5 253.5,143.5C 253.5,145.833 253.5,148.167 253.5,150.5C 251.167,150.5 248.833,150.5 246.5,150.5C 246.5,148.167 246.5,145.833 246.5,143.5C 244.167,143.5 241.833,143.5 239.5,143.5C 239.5,145.833 239.5,148.167 239.5,150.5C 237.167,150.5 234.833,150.5 232.5,150.5C 232.5,148.167 232.5,145.833 232.5,143.5C 231.167,143.5 229.833,143.5 228.5,143.5C 228.5,142.167 228.5,140.833 228.5,139.5C 254.833,139.5 281.167,139.5 307.5,139.5C 307.5,143.167 307.5,146.833 307.5,150.5 Z"/></g>
<g><path style="opacity:1" fill="#fed8d4" d="M 152.5,139.5 C 177.196,140.825 201.863,140.825 226.5,139.5C 227.12,145.926 226.453,151.926 224.5,157.5C 221.781,156.087 218.781,155.42 215.5,155.5C 214.833,155.5 214.167,155.5 213.5,155.5C 210.36,154.359 207.027,154.192 203.5,155C 202.944,155.383 202.611,155.883 202.5,156.5C 201.163,157.315 200.163,158.482 199.5,160C 193.902,160.067 188.569,160.901 183.5,162.5C 179.965,162.337 178.965,163.67 180.5,166.5C 180.532,168.619 179.532,169.952 177.5,170.5C 170.202,163.703 163.035,156.703 156,149.5C 155.987,145.695 154.821,142.362 152.5,139.5 Z"/></g>
<g><path style="opacity:1" fill="#f7f9f9" d="M 148.5,142.5 C 151.567,142.016 153.567,143.182 154.5,146C 153.258,148.272 151.592,150.106 149.5,151.5C 147.255,152.635 144.922,153.135 142.5,153C 141.5,151.333 140.5,149.667 139.5,148C 142.564,146.141 145.564,144.308 148.5,142.5 Z"/></g>
<g><path style="opacity:1" fill="#5f3e40" d="M 110.5,142.5 C 111.239,142.369 111.906,142.536 112.5,143C 111.534,144.678 110.201,145.345 108.5,145C 109.381,144.292 110.047,143.458 110.5,142.5 Z"/></g>
<g><path style="opacity:1" fill="#3c4348" d="M 44.5,141.5 C 43.1667,144.5 43.1667,147.5 44.5,150.5C 42.9735,149.508 42.3068,148.008 42.5,146C 42.3068,143.992 42.9735,142.492 44.5,141.5 Z"/></g>
<g><path style="opacity:1" fill="#623f41" d="M 100.5,146.5 C 102.857,142.955 105.857,140.455 109.5,139C 106.899,142.112 103.899,144.612 100.5,146.5 Z"/></g>
<g><path style="opacity:1" fill="#3b3439" d="M 100.5,146.5 C 98.7977,149.395 96.4644,151.228 93.5,152C 95.4412,149.546 97.7746,147.713 100.5,146.5 Z"/></g>
<g><path style="opacity:1" fill="#373238" d="M 100.5,151.5 C 101.254,149.554 102.588,148.721 104.5,149C 103.529,150.481 102.196,151.315 100.5,151.5 Z"/></g>
<g><path style="opacity:1" fill="#3f4045" d="M 143.5,101.5 C 145.785,108.238 147.452,115.238 148.5,122.5C 149.83,128.145 151.163,133.812 152.5,139.5C 154.821,142.362 155.987,145.695 156,149.5C 163.035,156.703 170.202,163.703 177.5,170.5C 177.5,170.833 177.5,171.167 177.5,171.5C 169.255,164.76 161.422,157.427 154,149.5C 152.67,150.582 151.17,151.249 149.5,151.5C 151.592,150.106 153.258,148.272 154.5,146C 153.567,143.182 151.567,142.016 148.5,142.5C 149.429,141.685 150.429,140.852 151.5,140C 147.816,127.4 145.149,114.566 143.5,101.5 Z"/></g>
<g><path style="opacity:1" fill="#f5f6f7" d="M 177.5,171.5 C 180.402,172.578 183.402,173.244 186.5,173.5C 188.532,174.478 190.198,175.978 191.5,178C 190.906,178.464 190.239,178.631 189.5,178.5C 190.463,179.363 190.463,180.03 189.5,180.5C 187.689,179.261 185.689,178.594 183.5,178.5C 181.381,178.558 180.048,179.225 179.5,180.5C 177.704,178.1 175.37,176.433 172.5,175.5C 171.738,173.738 170.404,172.738 168.5,172.5C 167.738,170.738 166.404,169.738 164.5,169.5C 158.734,164.069 152.401,159.402 145.5,155.5C 146.833,154.167 148.167,152.833 149.5,151.5C 151.17,151.249 152.67,150.582 154,149.5C 161.422,157.427 169.255,164.76 177.5,171.5 Z"/></g>
<g><path style="opacity:1" fill="#f6f7f8" d="M 61.5,152.5 C 63.0875,156.683 65.4208,160.35 68.5,163.5C 68.427,165.027 69.0937,166.027 70.5,166.5C 71.894,173.065 75.894,176.565 82.5,177C 84.1667,178.167 85.8333,179.333 87.5,180.5C 85.4122,181.489 83.4122,181.156 81.5,179.5C 79.5293,181.808 77.5293,184.142 75.5,186.5C 74.7298,182.612 72.7298,179.612 69.5,177.5C 69.5,176.167 68.8333,175.5 67.5,175.5C 64.5137,170.848 60.8471,166.848 56.5,163.5C 54.2343,159.564 51.2343,156.231 47.5,153.5C 48.0577,152.21 49.0577,151.377 50.5,151C 54.4748,150.013 58.1415,150.513 61.5,152.5 Z"/></g>
<g><path style="opacity:1" fill="#d3d3d3" d="M 228.5,143.5 C 229.833,143.5 231.167,143.5 232.5,143.5C 232.5,145.833 232.5,148.167 232.5,150.5C 234.833,150.5 237.167,150.5 239.5,150.5C 239.5,148.167 239.5,145.833 239.5,143.5C 241.833,143.5 244.167,143.5 246.5,143.5C 246.5,145.833 246.5,148.167 246.5,150.5C 248.833,150.5 251.167,150.5 253.5,150.5C 253.5,148.167 253.5,145.833 253.5,143.5C 256.167,143.5 258.833,143.5 261.5,143.5C 261.5,145.833 261.5,148.167 261.5,150.5C 261.5,153.167 261.5,155.833 261.5,158.5C 261.5,160.833 261.5,163.167 261.5,165.5C 259.167,165.5 256.833,165.5 254.5,165.5C 254.5,168.167 254.5,170.833 254.5,173.5C 252.833,173.5 251.167,173.5 249.5,173.5C 249.5,172.5 249.5,171.5 249.5,170.5C 248.5,170.5 247.5,170.5 246.5,170.5C 246.5,168.833 246.5,167.167 246.5,165.5C 244.167,165.5 241.833,165.5 239.5,165.5C 239.5,163.167 239.5,160.833 239.5,158.5C 236.833,158.5 234.167,158.5 231.5,158.5C 231.5,156.167 231.5,153.833 231.5,151.5C 230.5,151.5 229.5,151.5 228.5,151.5C 228.5,148.833 228.5,146.167 228.5,143.5 Z"/></g>
<g><path style="opacity:1" fill="#c5c6c6" d="M 307.5,150.5 C 307.5,152.833 307.5,155.167 307.5,157.5C 300.82,157.388 294.153,157.054 287.5,156.5C 288.209,155.596 289.209,155.263 290.5,155.5C 290.5,154.167 290.5,152.833 290.5,151.5C 288.167,151.5 285.833,151.5 283.5,151.5C 283.5,153.833 283.5,156.167 283.5,158.5C 281.167,158.5 278.833,158.5 276.5,158.5C 276.5,156.167 276.5,153.833 276.5,151.5C 273.833,151.5 271.167,151.5 268.5,151.5C 268.5,153.833 268.5,156.167 268.5,158.5C 266.167,158.5 263.833,158.5 261.5,158.5C 261.5,155.833 261.5,153.167 261.5,150.5C 263.833,150.5 266.167,150.5 268.5,150.5C 268.5,148.167 268.5,145.833 268.5,143.5C 271.167,143.5 273.833,143.5 276.5,143.5C 276.5,145.833 276.5,148.167 276.5,150.5C 278.833,150.5 281.167,150.5 283.5,150.5C 283.5,148.167 283.5,145.833 283.5,143.5C 286.167,143.5 288.833,143.5 291.5,143.5C 291.5,145.833 291.5,148.167 291.5,150.5C 293.833,150.5 296.167,150.5 298.5,150.5C 298.5,148.167 298.5,145.833 298.5,143.5C 301.167,143.5 303.833,143.5 306.5,143.5C 306.198,146.059 306.532,148.393 307.5,150.5 Z"/></g>
<g><path style="opacity:0.997" fill="#fdd7d3" d="M 138.5,144.5 C 138.259,147.794 139.092,150.794 141,153.5C 142.11,155.037 143.61,155.703 145.5,155.5C 151.266,160.931 157.599,165.598 164.5,169.5C 165.262,171.262 166.596,172.262 168.5,172.5C 169.262,174.262 170.596,175.262 172.5,175.5C 173.66,177.203 172.993,177.869 170.5,177.5C 170.5,179.833 170.5,182.167 170.5,184.5C 169.167,184.5 167.833,184.5 166.5,184.5C 166.5,226.5 166.5,268.5 166.5,310.5C 159.831,304.501 152.498,299.501 144.5,295.5C 142.196,253.08 138.529,210.746 133.5,168.5C 135.141,167.129 136.141,165.296 136.5,163C 135.386,155.871 135.219,148.704 136,141.5C 136.377,142.942 137.21,143.942 138.5,144.5 Z"/></g>
<g><path style="opacity:1" fill="#fbfbfb" d="M 287.5,156.5 C 287.5,157.167 287.5,157.833 287.5,158.5C 286.167,158.5 284.833,158.5 283.5,158.5C 283.5,156.167 283.5,153.833 283.5,151.5C 285.833,151.5 288.167,151.5 290.5,151.5C 290.5,152.833 290.5,154.167 290.5,155.5C 289.209,155.263 288.209,155.596 287.5,156.5 Z"/></g>
<g><path style="opacity:1" fill="#fefefe" d="M 298.5,151.5 C 300.833,151.5 303.167,151.5 305.5,151.5C 305.286,153.144 305.62,154.644 306.5,156C 303.854,156.497 301.187,156.664 298.5,156.5C 298.5,154.833 298.5,153.167 298.5,151.5 Z"/></g>
<g><path style="opacity:1" fill="#323137" d="M 100.5,151.5 C 99.7377,153.262 98.4044,154.262 96.5,154.5C 97.2623,152.738 98.5956,151.738 100.5,151.5 Z"/></g>
<g><path style="opacity:1" fill="#4c5358" d="M 134.5,137.5 C 135.167,137.833 135.833,138.167 136.5,138.5C 137.167,140.5 137.833,142.5 138.5,144.5C 137.21,143.942 136.377,142.942 136,141.5C 135.219,148.704 135.386,155.871 136.5,163C 136.141,165.296 135.141,167.129 133.5,168.5C 133.5,168.167 133.5,167.833 133.5,167.5C 134.474,157.582 134.807,147.582 134.5,137.5 Z"/></g>
<g><path style="opacity:1" fill="#373b40" d="M 47.5,153.5 C 51.2343,156.231 54.2343,159.564 56.5,163.5C 52.7657,160.769 49.7657,157.436 47.5,153.5 Z"/></g>
<g><path style="opacity:1" fill="#3a4247" d="M 148.5,142.5 C 145.564,144.308 142.564,146.141 139.5,148C 140.5,149.667 141.5,151.333 142.5,153C 144.922,153.135 147.255,152.635 149.5,151.5C 148.167,152.833 146.833,154.167 145.5,155.5C 143.61,155.703 142.11,155.037 141,153.5C 139.092,150.794 138.259,147.794 138.5,144.5C 139.15,144.804 139.817,145.137 140.5,145.5C 142.979,143.924 145.646,142.924 148.5,142.5 Z"/></g>
<g><path style="opacity:1" fill="#3c3438" d="M 96.5,154.5 C 95.4154,156.587 93.7488,157.92 91.5,158.5C 92.5846,156.413 94.2512,155.08 96.5,154.5 Z"/></g>
<g><path style="opacity:1" fill="#363b40" d="M 145.5,155.5 C 152.401,159.402 158.734,164.069 164.5,169.5C 157.599,165.598 151.266,160.931 145.5,155.5 Z"/></g>
<g><path style="opacity:1" fill="#5a5e62" d="M 215.5,155.5 C 218.781,155.42 221.781,156.087 224.5,157.5C 221.219,157.58 218.219,156.913 215.5,155.5 Z"/></g>
<g><path style="opacity:1" fill="#343c41" d="M 61.5,152.5 C 64.5792,155.65 66.9125,159.317 68.5,163.5C 65.4208,160.35 63.0875,156.683 61.5,152.5 Z"/></g>
<g><path style="opacity:1" fill="#e3edef" d="M 206.5,157.5 C 212.125,158.493 217.792,159.16 223.5,159.5C 223.5,160.167 223.833,160.5 224.5,160.5C 218.322,161.817 211.988,161.817 205.5,160.5C 206.127,159.583 206.461,158.583 206.5,157.5 Z"/></g>
<g><path style="opacity:1" fill="#556267" d="M 206.5,157.5 C 207.274,156.853 208.274,156.52 209.5,156.5C 214.352,157.269 219.019,158.269 223.5,159.5C 217.792,159.16 212.125,158.493 206.5,157.5 Z"/></g>
<g><path style="opacity:1" fill="#383238" d="M 91.5,158.5 C 90.7377,160.262 89.4044,161.262 87.5,161.5C 88.2623,159.738 89.5956,158.738 91.5,158.5 Z"/></g>
<g><path style="opacity:1" fill="#f7f8f8" d="M 228.5,151.5 C 229.5,151.5 230.5,151.5 231.5,151.5C 231.5,153.833 231.5,156.167 231.5,158.5C 234.167,158.5 236.833,158.5 239.5,158.5C 239.5,160.833 239.5,163.167 239.5,165.5C 241.833,165.5 244.167,165.5 246.5,165.5C 246.5,167.167 246.5,168.833 246.5,170.5C 246.167,170.5 245.833,170.5 245.5,170.5C 245.167,169.5 244.5,168.833 243.5,168.5C 241.539,166.887 239.206,165.887 236.5,165.5C 235.5,162.5 233.5,160.5 230.5,159.5C 228.798,157.2 228.132,154.533 228.5,151.5 Z"/></g>
<g><path style="opacity:1" fill="#f17264" d="M 312.5,154.5 C 314.176,155.183 314.843,156.517 314.5,158.5C 318.833,158.5 323.167,158.5 327.5,158.5C 327.5,162.833 327.5,167.167 327.5,171.5C 321.833,171.5 316.167,171.5 310.5,171.5C 310.784,169.585 310.451,167.919 309.5,166.5C 309.5,165.833 309.167,165.5 308.5,165.5C 308.389,164.883 308.056,164.383 307.5,164C 305.19,163.503 302.857,163.337 300.5,163.5C 297.287,163.19 294.287,163.523 291.5,164.5C 290.839,165.718 290.172,167.051 289.5,168.5C 288.1,165.138 288.433,161.971 290.5,159C 297.5,158.667 304.5,158.333 311.5,158C 312.337,156.989 312.67,155.822 312.5,154.5 Z"/></g>
<g><path style="opacity:1" fill="#fa7567" d="M 345.5,160.5 C 347.317,161.219 347.984,162.219 347.5,163.5C 344.033,162.212 340.7,162.212 337.5,163.5C 336.094,163.973 335.427,164.973 335.5,166.5C 334.566,167.568 334.232,168.901 334.5,170.5C 332.5,170.5 330.5,170.5 328.5,170.5C 328.5,166.5 328.5,162.5 328.5,158.5C 334.31,158.314 339.977,158.98 345.5,160.5 Z"/></g>
<g><path style="opacity:1" fill="#3e5257" d="M 230.5,159.5 C 233.5,160.5 235.5,162.5 236.5,165.5C 234.167,163.833 232.167,161.833 230.5,159.5 Z"/></g>
<g><path style="opacity:1" fill="#4f6369" d="M 202.5,156.5 C 204.796,156.804 205.129,157.804 203.5,159.5C 203.167,160.167 202.833,160.833 202.5,161.5C 201.833,161.5 201.167,161.5 200.5,161.5C 194.811,161.532 189.145,161.866 183.5,162.5C 188.569,160.901 193.902,160.067 199.5,160C 200.163,158.482 201.163,157.315 202.5,156.5 Z"/></g>
<g><path style="opacity:1" fill="#403437" d="M 213.5,155.5 C 210.753,155.187 208.086,155.52 205.5,156.5C 205.624,157.107 205.957,157.44 206.5,157.5C 206.461,158.583 206.127,159.583 205.5,160.5C 211.988,161.817 218.322,161.817 224.5,160.5C 225.043,160.56 225.376,160.893 225.5,161.5C 223.257,162.474 220.924,162.808 218.5,162.5C 217.833,162.5 217.167,162.5 216.5,162.5C 212.5,162.5 208.5,162.5 204.5,162.5C 204.737,161.209 204.404,160.209 203.5,159.5C 205.129,157.804 204.796,156.804 202.5,156.5C 202.611,155.883 202.944,155.383 203.5,155C 207.027,154.192 210.36,154.359 213.5,155.5 Z"/></g>
<g><path style="opacity:1" fill="#e6675a" d="M 213.5,155.5 C 214.167,155.5 214.833,155.5 215.5,155.5C 218.219,156.913 221.219,157.58 224.5,157.5C 226.214,158.738 228.214,159.405 230.5,159.5C 232.167,161.833 234.167,163.833 236.5,165.5C 232.018,166.326 227.351,166.826 222.5,167C 221.62,168.356 221.286,169.856 221.5,171.5C 220.5,171.5 219.5,171.5 218.5,171.5C 218.5,168.5 218.5,165.5 218.5,162.5C 220.924,162.808 223.257,162.474 225.5,161.5C 225.376,160.893 225.043,160.56 224.5,160.5C 223.833,160.5 223.5,160.167 223.5,159.5C 219.019,158.269 214.352,157.269 209.5,156.5C 208.274,156.52 207.274,156.853 206.5,157.5C 205.957,157.44 205.624,157.107 205.5,156.5C 208.086,155.52 210.753,155.187 213.5,155.5 Z"/></g>
<g><path style="opacity:1" fill="#333137" d="M 87.5,161.5 C 86.7456,163.446 85.4122,164.279 83.5,164C 84.4709,162.519 85.8042,161.685 87.5,161.5 Z"/></g>
<g><path style="opacity:1" fill="#fe796a" d="M 203.5,159.5 C 204.404,160.209 204.737,161.209 204.5,162.5C 208.5,162.5 212.5,162.5 216.5,162.5C 216.5,165.5 216.5,168.5 216.5,171.5C 211.833,171.5 207.167,171.5 202.5,171.5C 202.5,168.167 202.5,164.833 202.5,161.5C 202.833,160.833 203.167,160.167 203.5,159.5 Z"/></g>
<g><path style="opacity:1" fill="#463e41" d="M 300.5,163.5 C 302.857,163.337 305.19,163.503 307.5,164C 308.056,164.383 308.389,164.883 308.5,165.5C 305.627,165.198 302.961,164.531 300.5,163.5 Z"/></g>
<g><path style="opacity:1" fill="#523c3f" d="M 323.5,162.5 C 325.337,162.639 325.67,163.306 324.5,164.5C 323.702,164.043 323.369,163.376 323.5,162.5 Z"/></g>
<g><path style="opacity:1" fill="#f9fbfb" d="M 337.5,163.5 C 344.927,163.709 352.094,165.042 359,167.5C 359.483,168.448 359.649,169.448 359.5,170.5C 351.833,170.5 344.167,170.5 336.5,170.5C 336.448,168.097 336.781,165.764 337.5,163.5 Z"/></g>
<g><path style="opacity:1" fill="#263238" d="M 68.5,163.5 C 69.9063,163.973 70.573,164.973 70.5,166.5C 69.0937,166.027 68.427,165.027 68.5,163.5 Z"/></g>
<g><path style="opacity:1" fill="#272d32" d="M 183.5,162.5 C 181.771,163.236 180.771,164.57 180.5,166.5C 178.965,163.67 179.965,162.337 183.5,162.5 Z"/></g>
<g><path style="opacity:1" fill="#f57567" d="M 200.5,161.5 C 200.5,164.833 200.5,168.167 200.5,171.5C 199.167,171.5 197.833,171.5 196.5,171.5C 192.309,164.875 187.976,164.875 183.5,171.5C 182.304,169.855 181.304,168.189 180.5,166.5C 180.771,164.57 181.771,163.236 183.5,162.5C 189.145,161.866 194.811,161.532 200.5,161.5 Z"/></g>
<g><path style="opacity:1" fill="#e0e8ea" d="M 300.5,163.5 C 302.961,164.531 305.627,165.198 308.5,165.5C 309.167,165.5 309.5,165.833 309.5,166.5C 309.5,167.833 309.5,169.167 309.5,170.5C 308.5,170.5 307.5,170.5 306.5,170.5C 305.733,169.828 305.066,168.995 304.5,168C 300.833,167.333 297.167,167.333 293.5,168C 292.934,168.995 292.267,169.828 291.5,170.5C 291.5,168.5 291.5,166.5 291.5,164.5C 294.287,163.523 297.287,163.19 300.5,163.5 Z"/></g>
<g><path style="opacity:0.953" fill="#1f282d" d="M 345.5,160.5 C 345.5,160.167 345.5,159.833 345.5,159.5C 347.544,160.031 349.211,161.198 350.5,163C 355.439,163.944 360.106,165.444 364.5,167.5C 364.5,168.833 364.5,170.167 364.5,171.5C 362.139,171.674 359.806,172.007 357.5,172.5C 355.167,172.5 352.833,172.5 350.5,172.5C 350.567,173.959 350.234,175.292 349.5,176.5C 346.167,177.833 342.833,177.833 339.5,176.5C 338.766,175.292 338.433,173.959 338.5,172.5C 338.5,172.167 338.5,171.833 338.5,171.5C 345.687,171.825 352.687,171.491 359.5,170.5C 359.649,169.448 359.483,168.448 359,167.5C 352.094,165.042 344.927,163.709 337.5,163.5C 340.7,162.212 344.033,162.212 347.5,163.5C 347.984,162.219 347.317,161.219 345.5,160.5 Z"/></g>
<g><path style="opacity:0.982" fill="#1a2d34" d="M 133.5,167.5 C 133.5,167.833 133.5,168.167 133.5,168.5C 138.529,210.746 142.196,253.08 144.5,295.5C 145.423,312.18 146.59,328.846 148,345.5C 151.397,347.558 153.063,350.558 153,354.5C 157.167,358 161.333,361.5 165.5,365C 164.304,365.654 164.304,366.154 165.5,366.5C 166.5,347.845 166.833,329.179 166.5,310.5C 166.833,310.5 167.167,310.5 167.5,310.5C 167.5,328.833 167.5,347.167 167.5,365.5C 167.5,365.833 167.5,366.167 167.5,366.5C 167.5,366.833 167.5,367.167 167.5,367.5C 167.5,367.833 167.5,368.167 167.5,368.5C 111.5,368.5 55.5,368.5 -0.5,368.5C -0.5,367.833 -0.5,367.167 -0.5,366.5C 15.5139,366.833 31.5139,366.499 47.5,365.5C 51.8257,361.343 56.3257,357.343 61,353.5C 61.0577,350.441 62.391,348.108 65,346.5C 67.0086,326.204 68.5086,305.871 69.5,285.5C 73.1987,251.746 74.3654,217.746 73,183.5C 71.5787,181.595 70.412,179.595 69.5,177.5C 72.7298,179.612 74.7298,182.612 75.5,186.5C 77.5293,184.142 79.5293,181.808 81.5,179.5C 83.4122,181.156 85.4122,181.489 87.5,180.5C 85.8333,179.333 84.1667,178.167 82.5,177C 75.894,176.565 71.894,173.065 70.5,166.5C 72.4695,168.647 74.3029,170.98 76,173.5C 76.6077,171.846 77.1077,170.179 77.5,168.5C 78.3382,168.158 78.6716,167.492 78.5,166.5C 96.9451,163.508 115.278,163.841 133.5,167.5 Z M 90.5,287.5 C 101.551,287.211 112.551,287.545 123.5,288.5C 128.758,314.454 133.758,340.454 138.5,366.5C 117.167,366.5 95.8333,366.5 74.5,366.5C 79.5768,340.116 84.9101,313.783 90.5,287.5 Z"/></g>
<g><path style="opacity:1" fill="#576b71" d="M 236.5,165.5 C 239.206,165.887 241.539,166.887 243.5,168.5C 236.856,167.557 230.189,167.391 223.5,168C 222.663,169.011 222.33,170.178 222.5,171.5C 223.5,171.5 224.5,171.5 225.5,171.5C 225.833,172.167 226.167,172.833 226.5,173.5C 216.5,173.5 206.5,173.5 196.5,173.5C 196.5,173.167 196.5,172.833 196.5,172.5C 205.017,172.826 213.35,172.493 221.5,171.5C 221.286,169.856 221.62,168.356 222.5,167C 227.351,166.826 232.018,166.326 236.5,165.5 Z"/></g>
<g><path style="opacity:1" fill="#f8f9f9" d="M 283.5,158.5 C 284.833,158.5 286.167,158.5 287.5,158.5C 288.043,158.56 288.376,158.893 288.5,159.5C 288.1,163.12 287.1,166.453 285.5,169.5C 284.833,169.5 284.5,169.833 284.5,170.5C 283.566,169.432 283.232,168.099 283.5,166.5C 281.167,166.5 278.833,166.5 276.5,166.5C 276.5,168.833 276.5,171.167 276.5,173.5C 279.279,173.721 281.946,173.388 284.5,172.5C 287.344,173.551 290.344,173.551 293.5,172.5C 293.433,173.959 293.766,175.292 294.5,176.5C 291.375,177.479 288.042,177.813 284.5,177.5C 284.5,179.833 284.5,182.167 284.5,184.5C 283.167,184.5 281.833,184.5 280.5,184.5C 281.103,189.619 280.436,194.285 278.5,198.5C 278.167,196.167 276.833,194.833 274.5,194.5C 274.389,193.883 274.056,193.383 273.5,193C 266.986,192.18 260.653,192.347 254.5,193.5C 252.418,193.472 250.584,194.139 249,195.5C 248.501,191.848 248.335,188.182 248.5,184.5C 247.167,184.5 245.833,184.5 244.5,184.5C 244.5,182.167 244.5,179.833 244.5,177.5C 241.833,177.5 239.167,177.5 236.5,177.5C 236.557,176.391 236.89,175.391 237.5,174.5C 241.702,174.817 245.702,174.483 249.5,173.5C 251.167,173.5 252.833,173.5 254.5,173.5C 254.5,170.833 254.5,168.167 254.5,165.5C 256.833,165.5 259.167,165.5 261.5,165.5C 261.5,163.167 261.5,160.833 261.5,158.5C 263.833,158.5 266.167,158.5 268.5,158.5C 268.5,156.167 268.5,153.833 268.5,151.5C 271.167,151.5 273.833,151.5 276.5,151.5C 276.5,153.833 276.5,156.167 276.5,158.5C 278.833,158.5 281.167,158.5 283.5,158.5 Z"/></g>
<g><path style="opacity:1" fill="#b9b9b9" d="M 269.5,158.5 C 271.5,158.5 273.5,158.5 275.5,158.5C 275.5,160.833 275.5,163.167 275.5,165.5C 273.5,165.5 271.5,165.5 269.5,165.5C 269.5,163.167 269.5,160.833 269.5,158.5 Z"/></g>
<g><path style="opacity:1" fill="#e5e8e9" d="M 243.5,168.5 C 244.038,170.117 244.371,171.784 244.5,173.5C 242.379,173.675 240.379,173.341 238.5,172.5C 238.586,171.504 238.252,170.671 237.5,170C 233.833,169.333 230.167,169.333 226.5,170C 225.944,170.383 225.611,170.883 225.5,171.5C 224.5,171.5 223.5,171.5 222.5,171.5C 222.33,170.178 222.663,169.011 223.5,168C 230.189,167.391 236.856,167.557 243.5,168.5 Z"/></g>
<g><path style="opacity:1" fill="#bcbcbc" d="M 261.5,166.5 C 263.833,166.5 266.167,166.5 268.5,166.5C 268.5,168.833 268.5,171.167 268.5,173.5C 266.167,173.5 263.833,173.5 261.5,173.5C 261.5,171.167 261.5,168.833 261.5,166.5 Z"/></g>
<g><path style="opacity:1" fill="#bfbebe" d="M 284.5,170.5 C 284.5,171.167 284.5,171.833 284.5,172.5C 281.946,173.388 279.279,173.721 276.5,173.5C 276.5,171.167 276.5,168.833 276.5,166.5C 278.833,166.5 281.167,166.5 283.5,166.5C 283.232,168.099 283.566,169.432 284.5,170.5 Z"/></g>
<g><path style="opacity:1" fill="#0f1c21" d="M 306.5,170.5 C 305.032,171.779 304.365,173.446 304.5,175.5C 304.5,175.833 304.5,176.167 304.5,176.5C 301.167,177.833 297.833,177.833 294.5,176.5C 293.766,175.292 293.433,173.959 293.5,172.5C 290.344,173.551 287.344,173.551 284.5,172.5C 284.5,171.833 284.5,171.167 284.5,170.5C 284.5,169.833 284.833,169.5 285.5,169.5C 288.097,169.721 288.097,170.221 285.5,171C 286.711,172.578 288.045,172.745 289.5,171.5C 288.544,169.3 289.21,168.967 291.5,170.5C 292.267,169.828 292.934,168.995 293.5,168C 297.167,167.333 300.833,167.333 304.5,168C 305.066,168.995 305.733,169.828 306.5,170.5 Z"/></g>
<g><path style="opacity:1" fill="#e9eaeb" d="M 102.5,167.5 C 105.167,167.5 107.833,167.5 110.5,167.5C 110.5,168.833 110.5,170.167 110.5,171.5C 107.833,171.5 105.167,171.5 102.5,171.5C 102.5,170.167 102.5,168.833 102.5,167.5 Z"/></g>
<g><path style="opacity:1" fill="#16242b" d="M 180.5,166.5 C 181.304,168.189 182.304,169.855 183.5,171.5C 187.976,164.875 192.309,164.875 196.5,171.5C 196.5,171.833 196.5,172.167 196.5,172.5C 196.5,172.833 196.5,173.167 196.5,173.5C 195.662,173.842 195.328,174.508 195.5,175.5C 194.662,175.842 194.328,176.508 194.5,177.5C 193.167,176.833 192.167,175.833 191.5,174.5C 193.71,173.545 194.043,172.045 192.5,170C 189.706,169.028 187.706,169.861 186.5,172.5C 186.5,172.833 186.5,173.167 186.5,173.5C 183.402,173.244 180.402,172.578 177.5,171.5C 177.5,171.167 177.5,170.833 177.5,170.5C 179.532,169.952 180.532,168.619 180.5,166.5 Z"/></g>
<g><path style="opacity:1" fill="#3c3f43" d="M 56.5,163.5 C 60.8471,166.848 64.5137,170.848 67.5,175.5C 63.1024,172.105 59.4357,168.105 56.5,163.5 Z"/></g>
<g><path style="opacity:1" fill="#e6e8e8" d="M 191.5,174.5 C 189.833,173.833 188.167,173.167 186.5,172.5C 187.706,169.861 189.706,169.028 192.5,170C 194.043,172.045 193.71,173.545 191.5,174.5 Z"/></g>
<g><path style="opacity:1" fill="#373235" d="M 312.5,154.5 C 312.67,155.822 312.337,156.989 311.5,158C 304.5,158.333 297.5,158.667 290.5,159C 288.433,161.971 288.1,165.138 289.5,168.5C 290.172,167.051 290.839,165.718 291.5,164.5C 291.5,166.5 291.5,168.5 291.5,170.5C 289.21,168.967 288.544,169.3 289.5,171.5C 288.045,172.745 286.711,172.578 285.5,171C 288.097,170.221 288.097,169.721 285.5,169.5C 287.1,166.453 288.1,163.12 288.5,159.5C 288.376,158.893 288.043,158.56 287.5,158.5C 287.5,157.833 287.5,157.167 287.5,156.5C 294.153,157.054 300.82,157.388 307.5,157.5C 307.833,157.5 308.167,157.5 308.5,157.5C 310.43,157.229 311.764,156.229 312.5,154.5 Z"/></g>
<g><path style="opacity:1" fill="#2e353a" d="M 164.5,169.5 C 166.404,169.738 167.738,170.738 168.5,172.5C 166.596,172.262 165.262,171.262 164.5,169.5 Z"/></g>
<g><path style="opacity:1" fill="#e0e3e3" d="M 297.5,169.5 C 302.466,169.929 303.466,172.096 300.5,176C 299.216,176.684 298.049,176.517 297,175.5C 296.322,173.402 296.489,171.402 297.5,169.5 Z"/></g>
<g><path style="opacity:1" fill="#8b3935" d="M 335.5,166.5 C 335.5,168.167 335.5,169.833 335.5,171.5C 332.941,171.802 330.607,171.468 328.5,170.5C 330.5,170.5 332.5,170.5 334.5,170.5C 334.232,168.901 334.566,167.568 335.5,166.5 Z"/></g>
<g><path style="opacity:1" fill="#76878c" d="M 337.5,163.5 C 336.781,165.764 336.448,168.097 336.5,170.5C 344.167,170.5 351.833,170.5 359.5,170.5C 352.687,171.491 345.687,171.825 338.5,171.5C 337.5,171.5 336.5,171.5 335.5,171.5C 335.5,169.833 335.5,168.167 335.5,166.5C 335.427,164.973 336.094,163.973 337.5,163.5 Z"/></g>
<g><path style="opacity:1" fill="#713939" d="M 200.5,161.5 C 201.167,161.5 201.833,161.5 202.5,161.5C 202.5,164.833 202.5,168.167 202.5,171.5C 207.167,171.5 211.833,171.5 216.5,171.5C 216.5,168.5 216.5,165.5 216.5,162.5C 217.167,162.5 217.833,162.5 218.5,162.5C 218.5,165.5 218.5,168.5 218.5,171.5C 219.5,171.5 220.5,171.5 221.5,171.5C 213.35,172.493 205.017,172.826 196.5,172.5C 196.5,172.167 196.5,171.833 196.5,171.5C 197.833,171.5 199.167,171.5 200.5,171.5C 200.5,168.167 200.5,164.833 200.5,161.5 Z"/></g>
<g><path style="opacity:1" fill="#081116" d="M 245.5,170.5 C 245.833,170.5 246.167,170.5 246.5,170.5C 247.5,170.5 248.5,170.5 249.5,170.5C 249.5,171.5 249.5,172.5 249.5,173.5C 248.167,173.5 246.833,173.5 245.5,173.5C 245.5,172.5 245.5,171.5 245.5,170.5 Z"/></g>
<g><path style="opacity:1" fill="#e5e7e8" d="M 341.5,172.5 C 343.5,172.5 345.5,172.5 347.5,172.5C 347.853,174.635 347.02,175.968 345,176.5C 342.926,175.928 341.76,174.595 341.5,172.5 Z"/></g>
<g><path style="opacity:1" fill="#2d353a" d="M 168.5,172.5 C 170.404,172.738 171.738,173.738 172.5,175.5C 170.596,175.262 169.262,174.262 168.5,172.5 Z"/></g>
<g><path style="opacity:1" fill="#505e63" d="M 243.5,168.5 C 244.5,168.833 245.167,169.5 245.5,170.5C 245.5,171.5 245.5,172.5 245.5,173.5C 246.833,173.5 248.167,173.5 249.5,173.5C 245.702,174.483 241.702,174.817 237.5,174.5C 237.833,173.833 238.167,173.167 238.5,172.5C 240.379,173.341 242.379,173.675 244.5,173.5C 244.371,171.784 244.038,170.117 243.5,168.5 Z"/></g>
<g><path style="opacity:1" fill="#eff0f0" d="M 304.5,176.5 C 304.5,176.167 304.5,175.833 304.5,175.5C 306.651,171.719 307.651,172.386 307.5,177.5C 306.209,177.737 305.209,177.404 304.5,176.5 Z"/></g>
<g><path style="opacity:0.976" fill="#fed7d3" d="M 357.5,172.5 C 404.488,207.768 410.988,249.434 377,297.5C 372.301,303.029 367.468,308.362 362.5,313.5C 362.832,270.33 362.499,227.33 361.5,184.5C 360.167,184.5 358.833,184.5 357.5,184.5C 357.5,182.167 357.5,179.833 357.5,177.5C 354.615,177.806 351.948,177.473 349.5,176.5C 350.234,175.292 350.567,173.959 350.5,172.5C 352.833,172.5 355.167,172.5 357.5,172.5 Z"/></g>
<g><path style="opacity:1" fill="#fce4df" d="M 196.5,173.5 C 206.5,173.5 216.5,173.5 226.5,173.5C 226.5,174.167 226.5,174.833 226.5,175.5C 226.672,176.492 226.338,177.158 225.5,177.5C 215.5,176.833 205.5,176.167 195.5,175.5C 195.328,174.508 195.662,173.842 196.5,173.5 Z"/></g>
<g><path style="opacity:1" fill="#0e1c22" d="M 238.5,172.5 C 238.167,173.167 237.833,173.833 237.5,174.5C 236.89,175.391 236.557,176.391 236.5,177.5C 235.209,177.263 234.209,177.596 233.5,178.5C 232.5,178.5 231.5,178.5 230.5,178.5C 229.074,177.659 227.74,176.659 226.5,175.5C 226.5,174.833 226.5,174.167 226.5,173.5C 226.167,172.833 225.833,172.167 225.5,171.5C 225.611,170.883 225.944,170.383 226.5,170C 230.167,169.333 233.833,169.333 237.5,170C 238.252,170.671 238.586,171.504 238.5,172.5 Z"/></g>
<g><path style="opacity:1" fill="#eaecec" d="M 229.5,170.5 C 231.5,170.5 233.5,170.5 235.5,170.5C 235.36,175.747 233.194,176.747 229,173.5C 228.53,172.423 228.697,171.423 229.5,170.5 Z"/></g>
<g><path style="opacity:1" fill="#fee2de" d="M 309.5,172.5 C 319.167,172.5 328.833,172.5 338.5,172.5C 338.433,173.959 338.766,175.292 339.5,176.5C 339.5,177.167 339.167,177.5 338.5,177.5C 329.014,176.506 319.348,176.173 309.5,176.5C 309.5,175.167 309.5,173.833 309.5,172.5 Z"/></g>
<g><path style="opacity:1" fill="#dcb0ad" d="M 195.5,175.5 C 205.5,176.167 215.5,176.833 225.5,177.5C 215.167,177.5 204.833,177.5 194.5,177.5C 194.328,176.508 194.662,175.842 195.5,175.5 Z"/></g>
<g><path style="opacity:1" fill="#ddb0ad" d="M 309.5,172.5 C 309.5,173.833 309.5,175.167 309.5,176.5C 319.348,176.173 329.014,176.506 338.5,177.5C 328.5,177.5 318.5,177.5 308.5,177.5C 308.216,175.585 308.549,173.919 309.5,172.5 Z"/></g>
<g><path style="opacity:1" fill="#37464b" d="M 226.5,175.5 C 227.74,176.659 229.074,177.659 230.5,178.5C 218.829,178.333 207.162,178.5 195.5,179C 197.688,180.848 197.688,182.348 195.5,183.5C 195.058,182.769 194.891,181.769 195,180.5C 194.25,179.874 193.416,179.374 192.5,179C 193.416,178.722 194.082,178.222 194.5,177.5C 204.833,177.5 215.167,177.5 225.5,177.5C 226.338,177.158 226.672,176.492 226.5,175.5 Z"/></g>
<g><path style="opacity:1" fill="#3b484d" d="M 333.5,153.5 C 336.5,153.5 339.5,153.5 342.5,153.5C 342.028,156.358 343.028,158.358 345.5,159.5C 345.5,159.833 345.5,160.167 345.5,160.5C 339.977,158.98 334.31,158.314 328.5,158.5C 328.5,162.5 328.5,166.5 328.5,170.5C 330.607,171.468 332.941,171.802 335.5,171.5C 336.5,171.5 337.5,171.5 338.5,171.5C 338.5,171.833 338.5,172.167 338.5,172.5C 328.833,172.5 319.167,172.5 309.5,172.5C 308.549,173.919 308.216,175.585 308.5,177.5C 318.5,177.5 328.5,177.5 338.5,177.5C 339.167,177.5 339.5,177.167 339.5,176.5C 342.833,177.833 346.167,177.833 349.5,176.5C 351.948,177.473 354.615,177.806 357.5,177.5C 357.5,179.833 357.5,182.167 357.5,184.5C 358.833,184.5 360.167,184.5 361.5,184.5C 361.5,185.167 361.167,185.5 360.5,185.5C 334.167,185.5 307.833,185.5 281.5,185.5C 281.5,187.167 281.5,188.833 281.5,190.5C 281.5,193.5 281.5,196.5 281.5,199.5C 284.228,199.171 286.562,199.837 288.5,201.5C 285.513,201.002 282.513,200.502 279.5,200C 278.944,199.617 278.611,199.117 278.5,198.5C 280.436,194.285 281.103,189.619 280.5,184.5C 281.833,184.5 283.167,184.5 284.5,184.5C 284.5,182.167 284.5,179.833 284.5,177.5C 288.042,177.813 291.375,177.479 294.5,176.5C 297.833,177.833 301.167,177.833 304.5,176.5C 305.209,177.404 306.209,177.737 307.5,177.5C 307.651,172.386 306.651,171.719 304.5,175.5C 304.365,173.446 305.032,171.779 306.5,170.5C 307.5,170.5 308.5,170.5 309.5,170.5C 309.5,169.167 309.5,167.833 309.5,166.5C 310.451,167.919 310.784,169.585 310.5,171.5C 316.167,171.5 321.833,171.5 327.5,171.5C 327.5,167.167 327.5,162.833 327.5,158.5C 323.167,158.5 318.833,158.5 314.5,158.5C 314.843,156.517 314.176,155.183 312.5,154.5C 312.811,153.522 313.478,152.855 314.5,152.5C 316.019,153.851 317.352,155.351 318.5,157C 324.025,157.763 329.025,156.596 333.5,153.5 Z"/></g>
<g><path style="opacity:1" fill="#e1e9ea" d="M 336.5,154.5 C 338.167,154.5 339.833,154.5 341.5,154.5C 341.5,155.5 341.5,156.5 341.5,157.5C 337.818,157.665 334.152,157.499 330.5,157C 332.723,156.434 334.723,155.6 336.5,154.5 Z"/></g>
<g><path style="opacity:1" fill="#fcfdfd" d="M 286.5,178.5 C 309.833,178.5 333.167,178.5 356.5,178.5C 356.5,180.167 356.5,181.833 356.5,183.5C 333.167,183.5 309.833,183.5 286.5,183.5C 286.5,181.833 286.5,180.167 286.5,178.5 Z"/></g>
<g><path style="opacity:1" fill="#c9cecf" d="M 286.5,178.5 C 286.5,180.167 286.5,181.833 286.5,183.5C 309.833,183.5 333.167,183.5 356.5,183.5C 333.006,184.498 309.339,184.831 285.5,184.5C 285.205,182.265 285.539,180.265 286.5,178.5 Z"/></g>
<g><path style="opacity:1" fill="#465055" d="M 186.5,172.5 C 188.167,173.167 189.833,173.833 191.5,174.5C 192.167,175.833 193.167,176.833 194.5,177.5C 194.082,178.222 193.416,178.722 192.5,179C 193.416,179.374 194.25,179.874 195,180.5C 194.891,181.769 195.058,182.769 195.5,183.5C 210.991,184.496 226.658,184.83 242.5,184.5C 242.5,182.5 242.5,180.5 242.5,178.5C 239.5,178.5 236.5,178.5 233.5,178.5C 234.209,177.596 235.209,177.263 236.5,177.5C 239.167,177.5 241.833,177.5 244.5,177.5C 244.5,179.833 244.5,182.167 244.5,184.5C 245.833,184.5 247.167,184.5 248.5,184.5C 248.335,188.182 248.501,191.848 249,195.5C 250.584,194.139 252.418,193.472 254.5,193.5C 249.721,195.428 245.388,198.095 241.5,201.5C 246.128,197.268 247.795,191.934 246.5,185.5C 220.167,185.5 193.833,185.5 167.5,185.5C 167.5,187.167 167.5,188.833 167.5,190.5C 167.5,230.5 167.5,270.5 167.5,310.5C 167.167,310.5 166.833,310.5 166.5,310.5C 166.5,268.5 166.5,226.5 166.5,184.5C 167.833,184.5 169.167,184.5 170.5,184.5C 170.5,182.167 170.5,179.833 170.5,177.5C 172.993,177.869 173.66,177.203 172.5,175.5C 175.37,176.433 177.704,178.1 179.5,180.5C 180.048,179.225 181.381,178.558 183.5,178.5C 185.689,178.594 187.689,179.261 189.5,180.5C 190.463,180.03 190.463,179.363 189.5,178.5C 190.239,178.631 190.906,178.464 191.5,178C 190.198,175.978 188.532,174.478 186.5,173.5C 186.5,173.167 186.5,172.833 186.5,172.5 Z"/></g>
<g><path style="opacity:1" fill="#f0f1f1" d="M 183.5,180.5 C 183.56,179.957 183.893,179.624 184.5,179.5C 187.531,181.016 190.531,182.516 193.5,184C 191.421,184.808 189.421,184.641 187.5,183.5C 186.533,182.016 185.2,181.016 183.5,180.5 Z"/></g>
<g><path style="opacity:1" fill="#f4f5f5" d="M 230.5,178.5 C 231.5,178.5 232.5,178.5 233.5,178.5C 236.5,178.5 239.5,178.5 242.5,178.5C 242.5,180.5 242.5,182.5 242.5,184.5C 226.658,184.83 210.991,184.496 195.5,183.5C 197.688,182.348 197.688,180.848 195.5,179C 207.162,178.5 218.829,178.333 230.5,178.5 Z"/></g>
<g><path style="opacity:1" fill="#f1f2f2" d="M 179.5,180.5 C 180.23,181.712 181.23,182.712 182.5,183.5C 179.232,184.487 175.898,184.82 172.5,184.5C 172.5,182.5 172.5,180.5 172.5,178.5C 175.108,178.4 177.442,179.067 179.5,180.5 Z"/></g>
<g><path style="opacity:1" fill="#2f3a3f" d="M 189.5,178.5 C 188.244,178.539 187.244,178.039 186.5,177C 187.998,176.415 188.998,176.915 189.5,178.5 Z"/></g>
<g><path style="opacity:1" fill="#414c52" d="M 254.5,193.5 C 260.653,192.347 266.986,192.18 273.5,193C 274.056,193.383 274.389,193.883 274.5,194.5C 267.891,193.577 261.224,193.244 254.5,193.5 Z"/></g>
<g><path style="opacity:1" fill="#2a4146" d="M 274.5,194.5 C 276.833,194.833 278.167,196.167 278.5,198.5C 276.833,197.5 275.5,196.167 274.5,194.5 Z"/></g>
<g><path style="opacity:1" fill="#d1d2d2" d="M 206.5,197.5 C 206.5,199.833 206.5,202.167 206.5,204.5C 204.167,204.5 201.833,204.5 199.5,204.5C 199.5,207.167 199.5,209.833 199.5,212.5C 201.833,212.5 204.167,212.5 206.5,212.5C 206.5,214.833 206.5,217.167 206.5,219.5C 203.833,219.5 201.167,219.5 198.5,219.5C 198.5,217.167 198.5,214.833 198.5,212.5C 196.167,212.5 193.833,212.5 191.5,212.5C 191.5,214.833 191.5,217.167 191.5,219.5C 189.167,219.5 186.833,219.5 184.5,219.5C 184.5,217.167 184.5,214.833 184.5,212.5C 182.167,212.5 179.833,212.5 177.5,212.5C 177.5,214.833 177.5,217.167 177.5,219.5C 174.833,219.5 172.167,219.5 169.5,219.5C 168.8,263.654 168.133,312.321 167.5,365.5C 167.5,347.167 167.5,328.833 167.5,310.5C 167.5,270.5 167.5,230.5 167.5,190.5C 169.344,192.279 170.01,194.612 169.5,197.5C 171.833,197.5 174.167,197.5 176.5,197.5C 176.5,194.833 176.5,192.167 176.5,189.5C 179.167,189.5 181.833,189.5 184.5,189.5C 184.5,192.167 184.5,194.833 184.5,197.5C 186.833,197.5 189.167,197.5 191.5,197.5C 191.5,194.833 191.5,192.167 191.5,189.5C 194.167,189.5 196.833,189.5 199.5,189.5C 199.5,192.167 199.5,194.833 199.5,197.5C 201.833,197.5 204.167,197.5 206.5,197.5 Z"/></g>
<g><path style="opacity:1" fill="#b3b6b6" d="M 281.5,190.5 C 282.833,190.5 284.167,190.5 285.5,190.5C 285.5,192.833 285.5,195.167 285.5,197.5C 287.833,197.5 290.167,197.5 292.5,197.5C 291.918,199.998 291.918,202.331 292.5,204.5C 291.128,203.488 289.795,202.488 288.5,201.5C 286.562,199.837 284.228,199.171 281.5,199.5C 281.5,196.5 281.5,193.5 281.5,190.5 Z"/></g>
<g><path style="opacity:1" fill="#fafbfb" d="M 292.5,197.5 C 294.833,197.5 297.167,197.5 299.5,197.5C 299.5,199.833 299.5,202.167 299.5,204.5C 297.708,204.366 296.042,204.699 294.5,205.5C 294.158,204.662 293.492,204.328 292.5,204.5C 291.918,202.331 291.918,199.998 292.5,197.5 Z"/></g>
<g><path style="opacity:1" fill="#cdcdcd" d="M 307.5,197.5 C 307.5,199.833 307.5,202.167 307.5,204.5C 305.167,204.5 302.833,204.5 300.5,204.5C 300.5,207.167 300.5,209.833 300.5,212.5C 302.833,212.5 305.167,212.5 307.5,212.5C 307.5,214.833 307.5,217.167 307.5,219.5C 305.5,219.5 303.5,219.5 301.5,219.5C 301.5,221.833 301.5,224.167 301.5,226.5C 300.532,224.393 300.198,222.059 300.5,219.5C 297.713,218.523 294.713,218.19 291.5,218.5C 293.386,215.901 296.052,214.901 299.5,215.5C 299.5,213.833 299.5,212.167 299.5,210.5C 296.745,210.037 295.078,208.37 294.5,205.5C 296.042,204.699 297.708,204.366 299.5,204.5C 299.5,202.167 299.5,199.833 299.5,197.5C 297.167,197.5 294.833,197.5 292.5,197.5C 292.5,194.833 292.5,192.167 292.5,189.5C 295.167,189.5 297.833,189.5 300.5,189.5C 300.5,192.167 300.5,194.833 300.5,197.5C 302.833,197.5 305.167,197.5 307.5,197.5 Z"/></g>
<g><path style="opacity:1" fill="#f27163" d="M 254.5,193.5 C 261.224,193.244 267.891,193.577 274.5,194.5C 275.5,196.167 276.833,197.5 278.5,198.5C 278.611,199.117 278.944,199.617 279.5,200C 282.513,200.502 285.513,201.002 288.5,201.5C 289.795,202.488 291.128,203.488 292.5,204.5C 294.031,205.925 293.698,206.591 291.5,206.5C 288.696,205.362 285.696,205.195 282.5,206C 280.859,207.129 279.859,208.629 279.5,210.5C 278.596,211.209 278.263,212.209 278.5,213.5C 273.167,213.5 267.833,213.5 262.5,213.5C 262.5,209.5 262.5,205.5 262.5,201.5C 267.214,201.827 271.88,201.493 276.5,200.5C 276.376,199.893 276.043,199.56 275.5,199.5C 275.5,197.5 274.5,196.5 272.5,196.5C 269.375,195.521 266.042,195.187 262.5,195.5C 261.5,195.5 260.5,195.5 259.5,195.5C 255.38,195.091 252.046,196.424 249.5,199.5C 249.709,200.086 250.043,200.586 250.5,201C 253.482,201.498 256.482,201.665 259.5,201.5C 260.483,205.298 260.817,209.298 260.5,213.5C 258.114,213.741 256.114,213.075 254.5,211.5C 254.672,210.508 254.338,209.842 253.5,209.5C 253.5,207.5 252.5,206.5 250.5,206.5C 247.757,203.941 245.09,203.941 242.5,206.5C 240.5,206.5 239.5,207.5 239.5,209.5C 237.804,211.129 236.804,210.796 236.5,208.5C 236.328,207.508 236.662,206.842 237.5,206.5C 239.587,205.415 240.92,203.749 241.5,201.5C 245.388,198.095 249.721,195.428 254.5,193.5 Z"/></g>
<g><path style="opacity:1" fill="#39626a" d="M 275.5,199.5 C 276.043,199.56 276.376,199.893 276.5,200.5C 271.88,201.493 267.214,201.827 262.5,201.5C 262.5,201.167 262.5,200.833 262.5,200.5C 262.833,200.5 263.167,200.5 263.5,200.5C 267.702,200.817 271.702,200.483 275.5,199.5 Z"/></g>
<g><path style="opacity:1" fill="#3d6168" d="M 259.5,195.5 C 259.5,195.833 259.5,196.167 259.5,196.5C 256.314,196.337 253.647,197.337 251.5,199.5C 254.086,200.48 256.753,200.813 259.5,200.5C 259.5,200.833 259.5,201.167 259.5,201.5C 256.482,201.665 253.482,201.498 250.5,201C 250.043,200.586 249.709,200.086 249.5,199.5C 252.046,196.424 255.38,195.091 259.5,195.5 Z"/></g>
<g><path style="opacity:1" fill="#829ba0" d="M 262.5,195.5 C 266.042,195.187 269.375,195.521 272.5,196.5C 269.5,196.5 266.5,196.5 263.5,196.5C 263.5,197.833 263.5,199.167 263.5,200.5C 263.167,200.5 262.833,200.5 262.5,200.5C 262.5,198.833 262.5,197.167 262.5,195.5 Z"/></g>
<g><path style="opacity:1" fill="#26363b" d="M 272.5,196.5 C 274.5,196.5 275.5,197.5 275.5,199.5C 274.167,198.833 273.167,197.833 272.5,196.5 Z"/></g>
<g><path style="opacity:1" fill="#fdfefe" d="M 272.5,196.5 C 273.167,197.833 274.167,198.833 275.5,199.5C 271.702,200.483 267.702,200.817 263.5,200.5C 263.5,199.167 263.5,197.833 263.5,196.5C 266.5,196.5 269.5,196.5 272.5,196.5 Z"/></g>
<g><path style="opacity:1" fill="#fafcfd" d="M 259.5,196.5 C 259.5,197.833 259.5,199.167 259.5,200.5C 256.753,200.813 254.086,200.48 251.5,199.5C 253.647,197.337 256.314,196.337 259.5,196.5 Z"/></g>
<g><path style="opacity:1" fill="#422f31" d="M 241.5,201.5 C 240.92,203.749 239.587,205.415 237.5,206.5C 238.08,204.251 239.413,202.585 241.5,201.5 Z"/></g>
<g><path style="opacity:1" fill="#6b767a" d="M 250.5,206.5 C 247.833,206.5 245.167,206.5 242.5,206.5C 245.09,203.941 247.757,203.941 250.5,206.5 Z"/></g>
<g><path style="opacity:1" fill="#eef1f2" d="M 242.5,206.5 C 245.167,206.5 247.833,206.5 250.5,206.5C 251.167,207.833 252.167,208.833 253.5,209.5C 253.657,210.873 253.49,212.207 253,213.5C 251.55,208.692 248.384,206.859 243.5,208C 241.578,209.42 240.245,211.253 239.5,213.5C 238.708,212.3 238.708,210.967 239.5,209.5C 240.833,208.833 241.833,207.833 242.5,206.5 Z"/></g>
<g><path style="opacity:1" fill="#2a3338" d="M 250.5,206.5 C 252.5,206.5 253.5,207.5 253.5,209.5C 252.167,208.833 251.167,207.833 250.5,206.5 Z"/></g>
<g><path style="opacity:1" fill="#3d5a60" d="M 291.5,206.5 C 286.633,205.589 282.633,206.922 279.5,210.5C 279.859,208.629 280.859,207.129 282.5,206C 285.696,205.195 288.696,205.362 291.5,206.5 Z"/></g>
<g><path style="opacity:1" fill="#e4eced" d="M 291.5,206.5 C 292.476,207.815 293.476,209.148 294.5,210.5C 294.167,210.833 293.833,211.167 293.5,211.5C 289.978,206.757 286.145,206.424 282,210.5C 281.517,211.448 281.351,212.448 281.5,213.5C 279.952,213.179 279.285,212.179 279.5,210.5C 282.633,206.922 286.633,205.589 291.5,206.5 Z"/></g>
<g><path style="opacity:1" fill="#234148" d="M 242.5,206.5 C 241.833,207.833 240.833,208.833 239.5,209.5C 239.5,207.5 240.5,206.5 242.5,206.5 Z"/></g>
<g><path style="opacity:1" fill="#fefefe" d="M 241.5,201.5 C 239.413,202.585 238.08,204.251 237.5,206.5C 236.662,206.842 236.328,207.508 236.5,208.5C 235.778,209.551 234.778,210.218 233.5,210.5C 232.221,211.968 230.554,212.635 228.5,212.5C 228.182,217.032 228.515,221.366 229.5,225.5C 227.833,226.167 226.167,226.833 224.5,227.5C 223.501,273.664 223.168,319.997 223.5,366.5C 204.833,366.5 186.167,366.5 167.5,366.5C 167.5,366.167 167.5,365.833 167.5,365.5C 168.133,312.321 168.8,263.654 169.5,219.5C 172.167,219.5 174.833,219.5 177.5,219.5C 177.5,217.167 177.5,214.833 177.5,212.5C 179.833,212.5 182.167,212.5 184.5,212.5C 184.5,214.833 184.5,217.167 184.5,219.5C 186.833,219.5 189.167,219.5 191.5,219.5C 191.5,217.167 191.5,214.833 191.5,212.5C 193.833,212.5 196.167,212.5 198.5,212.5C 198.5,214.833 198.5,217.167 198.5,219.5C 201.167,219.5 203.833,219.5 206.5,219.5C 206.5,217.167 206.5,214.833 206.5,212.5C 204.167,212.5 201.833,212.5 199.5,212.5C 199.5,209.833 199.5,207.167 199.5,204.5C 201.833,204.5 204.167,204.5 206.5,204.5C 206.5,202.167 206.5,199.833 206.5,197.5C 204.167,197.5 201.833,197.5 199.5,197.5C 199.5,194.833 199.5,192.167 199.5,189.5C 196.833,189.5 194.167,189.5 191.5,189.5C 191.5,192.167 191.5,194.833 191.5,197.5C 189.167,197.5 186.833,197.5 184.5,197.5C 184.5,194.833 184.5,192.167 184.5,189.5C 181.833,189.5 179.167,189.5 176.5,189.5C 176.5,192.167 176.5,194.833 176.5,197.5C 174.167,197.5 171.833,197.5 169.5,197.5C 170.01,194.612 169.344,192.279 167.5,190.5C 167.5,188.833 167.5,187.167 167.5,185.5C 193.833,185.5 220.167,185.5 246.5,185.5C 247.795,191.934 246.128,197.268 241.5,201.5 Z"/></g>
<g><path style="opacity:1" fill="#bdbdbd" d="M 206.5,212.5 C 206.5,210.167 206.5,207.833 206.5,205.5C 208.833,205.5 211.167,205.5 213.5,205.5C 213.5,207.833 213.5,210.167 213.5,212.5C 211.167,212.5 208.833,212.5 206.5,212.5 Z"/></g>
<g><path style="opacity:1" fill="#d0d0d0" d="M 221.5,197.5 C 223.833,197.5 226.167,197.5 228.5,197.5C 231.167,197.5 233.833,197.5 236.5,197.5C 236.5,200.167 236.5,202.833 236.5,205.5C 233.833,205.5 231.167,205.5 228.5,205.5C 228.5,207.833 228.5,210.167 228.5,212.5C 226.167,212.5 223.833,212.5 221.5,212.5C 221.5,210.167 221.5,207.833 221.5,205.5C 219.167,205.5 216.833,205.5 214.5,205.5C 214.5,202.833 214.5,200.167 214.5,197.5C 216.833,197.5 219.167,197.5 221.5,197.5 Z"/></g>
<g><path style="opacity:1" fill="#bdbdbd" d="M 236.5,197.5 C 236.5,195.167 236.5,192.833 236.5,190.5C 238.833,190.5 241.167,190.5 243.5,190.5C 243.5,192.833 243.5,195.167 243.5,197.5C 241.167,197.5 238.833,197.5 236.5,197.5 Z"/></g>
<g><path style="opacity:1" fill="#bcbcbc" d="M 228.5,197.5 C 226.167,197.5 223.833,197.5 221.5,197.5C 221.5,195.167 221.5,192.833 221.5,190.5C 223.833,190.5 226.167,190.5 228.5,190.5C 228.5,192.833 228.5,195.167 228.5,197.5 Z"/></g>
<g><path style="opacity:1" fill="#bdbdbd" d="M 206.5,197.5 C 206.5,195.167 206.5,192.833 206.5,190.5C 208.833,190.5 211.167,190.5 213.5,190.5C 213.5,192.833 213.5,195.167 213.5,197.5C 211.167,197.5 208.833,197.5 206.5,197.5 Z"/></g>
<g><path style="opacity:1" fill="#bcbcbc" d="M 221.5,212.5 C 221.5,214.833 221.5,217.167 221.5,219.5C 219.167,219.5 216.833,219.5 214.5,219.5C 214.5,217.167 214.5,214.833 214.5,212.5C 216.833,212.5 219.167,212.5 221.5,212.5 Z"/></g>
<g><path style="opacity:1" fill="#fefefe" d="M 360.5,185.5 C 360.5,245.833 360.5,306.167 360.5,366.5C 342.5,366.5 324.5,366.5 306.5,366.5C 306.667,320.165 306.5,273.832 306,227.5C 304.644,226.62 303.144,226.286 301.5,226.5C 301.5,224.167 301.5,221.833 301.5,219.5C 303.5,219.5 305.5,219.5 307.5,219.5C 307.5,217.167 307.5,214.833 307.5,212.5C 305.167,212.5 302.833,212.5 300.5,212.5C 300.5,209.833 300.5,207.167 300.5,204.5C 302.833,204.5 305.167,204.5 307.5,204.5C 307.5,202.167 307.5,199.833 307.5,197.5C 305.167,197.5 302.833,197.5 300.5,197.5C 300.5,194.833 300.5,192.167 300.5,189.5C 297.833,189.5 295.167,189.5 292.5,189.5C 292.5,192.167 292.5,194.833 292.5,197.5C 290.167,197.5 287.833,197.5 285.5,197.5C 285.5,195.167 285.5,192.833 285.5,190.5C 284.167,190.5 282.833,190.5 281.5,190.5C 281.5,188.833 281.5,187.167 281.5,185.5C 307.833,185.5 334.167,185.5 360.5,185.5 Z"/></g>
<g><path style="opacity:1" fill="#bcbcbc" d="M 307.5,212.5 C 307.5,210.167 307.5,207.833 307.5,205.5C 309.833,205.5 312.167,205.5 314.5,205.5C 314.5,207.833 314.5,210.167 314.5,212.5C 312.167,212.5 309.833,212.5 307.5,212.5 Z"/></g>
<g><path style="opacity:1" fill="#bdbdbd" d="M 329.5,212.5 C 327.167,212.5 324.833,212.5 322.5,212.5C 322.5,210.167 322.5,207.833 322.5,205.5C 324.833,205.5 327.167,205.5 329.5,205.5C 329.5,207.833 329.5,210.167 329.5,212.5 Z"/></g>
<g><path style="opacity:1" fill="#cdcdcd" d="M 344.5,197.5 C 346.833,197.5 349.167,197.5 351.5,197.5C 351.5,195.167 351.5,192.833 351.5,190.5C 354.167,190.5 356.833,190.5 359.5,190.5C 359.5,192.833 359.5,195.167 359.5,197.5C 357.167,197.5 354.833,197.5 352.5,197.5C 350.762,203.927 353.095,206.594 359.5,205.5C 359.5,207.833 359.5,210.167 359.5,212.5C 357.167,212.5 354.833,212.5 352.5,212.5C 352.5,215.167 352.5,217.833 352.5,220.5C 349.833,220.5 347.167,220.5 344.5,220.5C 344.5,217.833 344.5,215.167 344.5,212.5C 342.167,212.5 339.833,212.5 337.5,212.5C 337.5,209.833 337.5,207.167 337.5,204.5C 339.833,204.5 342.167,204.5 344.5,204.5C 344.5,202.167 344.5,199.833 344.5,197.5 Z"/></g>
<g><path style="opacity:1" fill="#b8b8b8" d="M 330.5,197.5 C 332.5,197.5 334.5,197.5 336.5,197.5C 336.5,199.833 336.5,202.167 336.5,204.5C 334.5,204.5 332.5,204.5 330.5,204.5C 330.5,202.167 330.5,199.833 330.5,197.5 Z"/></g>
<g><path style="opacity:1" fill="#b7b7b7" d="M 315.5,197.5 C 317.5,197.5 319.5,197.5 321.5,197.5C 321.5,199.833 321.5,202.167 321.5,204.5C 319.5,204.5 317.5,204.5 315.5,204.5C 315.5,202.167 315.5,199.833 315.5,197.5 Z"/></g>
<g><path style="opacity:1" fill="#bcbcbc" d="M 307.5,197.5 C 307.5,195.167 307.5,192.833 307.5,190.5C 309.833,190.5 312.167,190.5 314.5,190.5C 314.5,192.833 314.5,195.167 314.5,197.5C 312.167,197.5 309.833,197.5 307.5,197.5 Z"/></g>
<g><path style="opacity:1" fill="#bdbdbd" d="M 344.5,197.5 C 342.167,197.5 339.833,197.5 337.5,197.5C 337.5,195.167 337.5,192.833 337.5,190.5C 339.833,190.5 342.167,190.5 344.5,190.5C 344.5,192.833 344.5,195.167 344.5,197.5 Z"/></g>
<g><path style="opacity:1" fill="#bdbdbd" d="M 322.5,190.5 C 324.833,190.5 327.167,190.5 329.5,190.5C 329.5,192.833 329.5,195.167 329.5,197.5C 327.167,197.5 324.833,197.5 322.5,197.5C 322.5,195.167 322.5,192.833 322.5,190.5 Z"/></g>
<g><path style="opacity:1" fill="#bcbcbc" d="M 329.5,212.5 C 331.833,212.5 334.167,212.5 336.5,212.5C 336.5,214.833 336.5,217.167 336.5,219.5C 334.167,219.5 331.833,219.5 329.5,219.5C 329.5,217.167 329.5,214.833 329.5,212.5 Z"/></g>
<g><path style="opacity:1" fill="#4c3638" d="M 259.5,195.5 C 260.5,195.5 261.5,195.5 262.5,195.5C 262.5,197.167 262.5,198.833 262.5,200.5C 262.5,200.833 262.5,201.167 262.5,201.5C 262.5,205.5 262.5,209.5 262.5,213.5C 267.833,213.5 273.167,213.5 278.5,213.5C 278.263,212.209 278.596,211.209 279.5,210.5C 279.285,212.179 279.952,213.179 281.5,213.5C 281.5,214.167 281.167,214.5 280.5,214.5C 271.833,214.5 263.167,214.5 254.5,214.5C 254.5,213.5 254.5,212.5 254.5,211.5C 256.114,213.075 258.114,213.741 260.5,213.5C 260.817,209.298 260.483,205.298 259.5,201.5C 259.5,201.167 259.5,200.833 259.5,200.5C 259.5,199.167 259.5,197.833 259.5,196.5C 259.5,196.167 259.5,195.833 259.5,195.5 Z"/></g>
<g><path style="opacity:1" fill="#cccdcd" d="M 233.5,210.5 C 233.5,211.833 233.5,213.167 233.5,214.5C 236.948,213.901 239.614,214.901 241.5,217.5C 241.5,217.833 241.5,218.167 241.5,218.5C 237.5,218.5 233.5,218.5 229.5,218.5C 229.5,220.833 229.5,223.167 229.5,225.5C 228.515,221.366 228.182,217.032 228.5,212.5C 230.554,212.635 232.221,211.968 233.5,210.5 Z"/></g>
<g><path style="opacity:1" fill="#18252a" d="M 253.5,209.5 C 254.338,209.842 254.672,210.508 254.5,211.5C 254.5,212.5 254.5,213.5 254.5,214.5C 252.29,214.894 250.957,216.227 250.5,218.5C 247.346,219.967 244.346,219.634 241.5,217.5C 239.614,214.901 236.948,213.901 233.5,214.5C 233.5,213.167 233.5,211.833 233.5,210.5C 234.778,210.218 235.778,209.551 236.5,208.5C 236.804,210.796 237.804,211.129 239.5,209.5C 238.708,210.967 238.708,212.3 239.5,213.5C 240.245,211.253 241.578,209.42 243.5,208C 248.384,206.859 251.55,208.692 253,213.5C 253.49,212.207 253.657,210.873 253.5,209.5 Z"/></g>
<g><path style="opacity:1" fill="#f1f2f3" d="M 244.5,210.5 C 248.692,210.403 250.025,212.236 248.5,216C 243.728,216.81 242.395,214.977 244.5,210.5 Z"/></g>
<g><path style="opacity:1" fill="#f0f5f6" d="M 254.5,214.5 C 263.167,214.5 271.833,214.5 280.5,214.5C 280.5,215.167 280.5,215.833 280.5,216.5C 271.225,218.473 261.558,219.14 251.5,218.5C 251.167,218.5 250.833,218.5 250.5,218.5C 250.957,216.227 252.29,214.894 254.5,214.5 Z"/></g>
<g><path style="opacity:1" fill="#1c282e" d="M 292.5,204.5 C 293.492,204.328 294.158,204.662 294.5,205.5C 295.078,208.37 296.745,210.037 299.5,210.5C 299.5,212.167 299.5,213.833 299.5,215.5C 296.052,214.901 293.386,215.901 291.5,218.5C 288.346,219.967 285.346,219.634 282.5,217.5C 282.158,216.662 281.492,216.328 280.5,216.5C 280.5,215.833 280.5,215.167 280.5,214.5C 281.167,214.5 281.5,214.167 281.5,213.5C 281.351,212.448 281.517,211.448 282,210.5C 286.145,206.424 289.978,206.757 293.5,211.5C 293.833,211.167 294.167,210.833 294.5,210.5C 293.476,209.148 292.476,207.815 291.5,206.5C 293.698,206.591 294.031,205.925 292.5,204.5 Z"/></g>
<g><path style="opacity:1" fill="#edefef" d="M 285.5,210.5 C 290.159,210.015 291.492,211.848 289.5,216C 284.728,216.81 283.395,214.977 285.5,210.5 Z"/></g>
<g><path style="opacity:1" fill="#526065" d="M 280.5,216.5 C 281.492,216.328 282.158,216.662 282.5,217.5C 277.412,218.782 272.079,219.449 266.5,219.5C 261.322,219.499 256.322,219.166 251.5,218.5C 261.558,219.14 271.225,218.473 280.5,216.5 Z"/></g>
<g><path style="opacity:1" fill="#b7b7b7" d="M 315.5,212.5 C 317.5,212.5 319.5,212.5 321.5,212.5C 321.5,214.833 321.5,217.167 321.5,219.5C 319.5,219.5 317.5,219.5 315.5,219.5C 315.5,217.167 315.5,214.833 315.5,212.5 Z"/></g>
<g><path style="opacity:0.984" fill="#fad5d1" d="M 123.5,288.5 C 112.551,287.545 101.551,287.211 90.5,287.5C 95.5758,261.788 100.909,236.121 106.5,210.5C 112.936,236.347 118.602,262.347 123.5,288.5 Z"/></g>
<g><path style="opacity:1" fill="#838d90" d="M 241.5,217.5 C 244.346,219.634 247.346,219.967 250.5,218.5C 250.833,218.5 251.167,218.5 251.5,218.5C 256.322,219.166 261.322,219.499 266.5,219.5C 272.079,219.449 277.412,218.782 282.5,217.5C 285.346,219.634 288.346,219.967 291.5,218.5C 294.713,218.19 297.713,218.523 300.5,219.5C 299.833,219.5 299.5,219.833 299.5,220.5C 276.5,220.5 253.5,220.5 230.5,220.5C 234.167,219.833 237.833,219.167 241.5,218.5C 241.5,218.167 241.5,217.833 241.5,217.5 Z"/></g>
<g><path style="opacity:1" fill="#9aa3a5" d="M 224.5,227.5 C 224.5,274.167 224.5,320.833 224.5,367.5C 205.5,367.5 186.5,367.5 167.5,367.5C 167.5,367.167 167.5,366.833 167.5,366.5C 186.167,366.5 204.833,366.5 223.5,366.5C 223.168,319.997 223.501,273.664 224.5,227.5 Z"/></g>
<g><path style="opacity:1" fill="#5f6d72" d="M 241.5,218.5 C 237.833,219.167 234.167,219.833 230.5,220.5C 230.5,222.5 230.5,224.5 230.5,226.5C 253.5,226.5 276.5,226.5 299.5,226.5C 299.5,224.5 299.5,222.5 299.5,220.5C 299.5,219.833 299.833,219.5 300.5,219.5C 300.198,222.059 300.532,224.393 301.5,226.5C 303.144,226.286 304.644,226.62 306,227.5C 306.5,273.832 306.667,320.165 306.5,366.5C 306.5,366.833 306.5,367.167 306.5,367.5C 279.167,367.5 251.833,367.5 224.5,367.5C 224.5,320.833 224.5,274.167 224.5,227.5C 226.167,226.833 227.833,226.167 229.5,225.5C 229.5,223.167 229.5,220.833 229.5,218.5C 233.5,218.5 237.5,218.5 241.5,218.5 Z"/></g>
<g><path style="opacity:1" fill="#fefefe" d="M 225.5,253.5 C 226.5,253.5 227.5,253.5 228.5,253.5C 228.5,256.167 228.5,258.833 228.5,261.5C 231.167,261.5 233.833,261.5 236.5,261.5C 236.5,258.833 236.5,256.167 236.5,253.5C 238.833,253.5 241.167,253.5 243.5,253.5C 243.5,256.167 243.5,258.833 243.5,261.5C 246.167,261.5 248.833,261.5 251.5,261.5C 251.5,258.833 251.5,256.167 251.5,253.5C 253.833,253.5 256.167,253.5 258.5,253.5C 258.5,255.833 258.5,258.167 258.5,260.5C 260.833,260.5 263.167,260.5 265.5,260.5C 265.5,258.167 265.5,255.833 265.5,253.5C 268.167,253.5 270.833,253.5 273.5,253.5C 273.5,255.833 273.5,258.167 273.5,260.5C 275.833,260.5 278.167,260.5 280.5,260.5C 280.5,258.167 280.5,255.833 280.5,253.5C 282.833,253.5 285.167,253.5 287.5,253.5C 287.5,255.833 287.5,258.167 287.5,260.5C 290.167,260.5 292.833,260.5 295.5,260.5C 295.5,258.167 295.5,255.833 295.5,253.5C 297.833,253.5 300.167,253.5 302.5,253.5C 301.964,256.698 302.631,259.365 304.5,261.5C 304.5,296.5 304.5,331.5 304.5,366.5C 278.167,366.5 251.833,366.5 225.5,366.5C 225.5,328.833 225.5,291.167 225.5,253.5 Z"/></g>
<g><path style="opacity:1" fill="#d4d4d4" d="M 304.5,238.5 C 304.5,246.167 304.5,253.833 304.5,261.5C 302.631,259.365 301.964,256.698 302.5,253.5C 300.167,253.5 297.833,253.5 295.5,253.5C 295.5,255.833 295.5,258.167 295.5,260.5C 292.833,260.5 290.167,260.5 287.5,260.5C 287.5,258.167 287.5,255.833 287.5,253.5C 285.167,253.5 282.833,253.5 280.5,253.5C 280.5,255.833 280.5,258.167 280.5,260.5C 278.167,260.5 275.833,260.5 273.5,260.5C 273.5,258.167 273.5,255.833 273.5,253.5C 270.833,253.5 268.167,253.5 265.5,253.5C 265.5,255.833 265.5,258.167 265.5,260.5C 263.167,260.5 260.833,260.5 258.5,260.5C 258.5,258.167 258.5,255.833 258.5,253.5C 256.167,253.5 253.833,253.5 251.5,253.5C 251.5,256.167 251.5,258.833 251.5,261.5C 248.833,261.5 246.167,261.5 243.5,261.5C 243.5,258.833 243.5,256.167 243.5,253.5C 245.833,253.5 248.167,253.5 250.5,253.5C 250.5,250.833 250.5,248.167 250.5,245.5C 248.167,245.5 245.833,245.5 243.5,245.5C 243.5,243.167 243.5,240.833 243.5,238.5C 245.833,238.5 248.167,238.5 250.5,238.5C 250.5,236.167 250.5,233.833 250.5,231.5C 253.167,231.5 255.833,231.5 258.5,231.5C 258.5,233.833 258.5,236.167 258.5,238.5C 260.833,238.5 263.167,238.5 265.5,238.5C 265.5,235.833 265.5,233.167 265.5,230.5C 268.167,230.5 270.833,230.5 273.5,230.5C 273.5,233.167 273.5,235.833 273.5,238.5C 275.833,238.5 278.167,238.5 280.5,238.5C 280.5,235.833 280.5,233.167 280.5,230.5C 283.167,230.5 285.833,230.5 288.5,230.5C 288.5,233.167 288.5,235.833 288.5,238.5C 290.833,238.5 293.167,238.5 295.5,238.5C 295.5,236.167 295.5,233.833 295.5,231.5C 298.167,231.5 300.833,231.5 303.5,231.5C 303.198,234.059 303.532,236.393 304.5,238.5 Z"/></g>
<g><path style="opacity:1" fill="#cecece" d="M 225.5,231.5 C 226.833,231.5 228.167,231.5 229.5,231.5C 229.5,233.833 229.5,236.167 229.5,238.5C 231.5,238.5 233.5,238.5 235.5,238.5C 235.5,240.833 235.5,243.167 235.5,245.5C 233.5,245.5 231.5,245.5 229.5,245.5C 229.5,248.167 229.5,250.833 229.5,253.5C 231.833,253.5 234.167,253.5 236.5,253.5C 236.5,256.167 236.5,258.833 236.5,261.5C 233.833,261.5 231.167,261.5 228.5,261.5C 228.5,258.833 228.5,256.167 228.5,253.5C 227.5,253.5 226.5,253.5 225.5,253.5C 225.5,246.167 225.5,238.833 225.5,231.5 Z"/></g>
<g><path style="opacity:1" fill="#fafafa" d="M 304.5,238.5 C 303.532,236.393 303.198,234.059 303.5,231.5C 300.833,231.5 298.167,231.5 295.5,231.5C 295.5,233.833 295.5,236.167 295.5,238.5C 293.167,238.5 290.833,238.5 288.5,238.5C 288.5,235.833 288.5,233.167 288.5,230.5C 285.833,230.5 283.167,230.5 280.5,230.5C 280.5,233.167 280.5,235.833 280.5,238.5C 278.167,238.5 275.833,238.5 273.5,238.5C 273.5,235.833 273.5,233.167 273.5,230.5C 270.833,230.5 268.167,230.5 265.5,230.5C 265.5,233.167 265.5,235.833 265.5,238.5C 263.167,238.5 260.833,238.5 258.5,238.5C 258.5,236.167 258.5,233.833 258.5,231.5C 255.833,231.5 253.167,231.5 250.5,231.5C 250.5,233.833 250.5,236.167 250.5,238.5C 248.167,238.5 245.833,238.5 243.5,238.5C 243.5,240.833 243.5,243.167 243.5,245.5C 245.833,245.5 248.167,245.5 250.5,245.5C 250.5,248.167 250.5,250.833 250.5,253.5C 248.167,253.5 245.833,253.5 243.5,253.5C 243.5,251.167 243.5,248.833 243.5,246.5C 241.167,246.5 238.833,246.5 236.5,246.5C 236.5,248.833 236.5,251.167 236.5,253.5C 234.167,253.5 231.833,253.5 229.5,253.5C 229.5,250.833 229.5,248.167 229.5,245.5C 231.5,245.5 233.5,245.5 235.5,245.5C 235.5,243.167 235.5,240.833 235.5,238.5C 233.5,238.5 231.5,238.5 229.5,238.5C 229.5,236.167 229.5,233.833 229.5,231.5C 228.167,231.5 226.833,231.5 225.5,231.5C 225.5,230.5 225.5,229.5 225.5,228.5C 251.833,228.5 278.167,228.5 304.5,228.5C 304.5,231.833 304.5,235.167 304.5,238.5 Z"/></g>
<g><path style="opacity:1" fill="#bdbdbd" d="M 243.5,253.5 C 241.167,253.5 238.833,253.5 236.5,253.5C 236.5,251.167 236.5,248.833 236.5,246.5C 238.833,246.5 241.167,246.5 243.5,246.5C 243.5,248.833 243.5,251.167 243.5,253.5 Z"/></g>
<g><path style="opacity:1" fill="#bdbdbd" d="M 243.5,238.5 C 241.167,238.5 238.833,238.5 236.5,238.5C 236.5,236.167 236.5,233.833 236.5,231.5C 238.833,231.5 241.167,231.5 243.5,231.5C 243.5,233.833 243.5,236.167 243.5,238.5 Z"/></g>
<g><path style="opacity:1" fill="#fefefe" d="M 230.5,220.5 C 253.5,220.5 276.5,220.5 299.5,220.5C 299.5,222.5 299.5,224.5 299.5,226.5C 276.5,226.5 253.5,226.5 230.5,226.5C 230.5,224.5 230.5,222.5 230.5,220.5 Z"/></g>
<g><path style="opacity:1" fill="#fb7768" d="M 61.5,354.5 C 65.2538,355.541 68.9205,356.875 72.5,358.5C 73.4656,360.396 73.7989,362.396 73.5,364.5C 66.1365,364.831 58.8032,364.497 51.5,363.5C 54.879,360.449 58.2123,357.449 61.5,354.5 Z"/></g>
<g><path style="opacity:1" fill="#fb7668" d="M 149.5,354.5 C 154.028,356.681 158.028,359.681 161.5,363.5C 154.197,364.497 146.863,364.831 139.5,364.5C 139.201,362.396 139.534,360.396 140.5,358.5C 143.708,357.391 146.708,356.058 149.5,354.5 Z"/></g>
<g><path style="opacity:1" fill="#bbc6c8" d="M 49.5,365.5 C 57.1955,365.169 64.8622,365.503 72.5,366.5C 68.6667,366.833 64.8333,367.167 61,367.5C 56.771,367.49 52.9377,366.823 49.5,365.5 Z"/></g>
<g><path style="opacity:1" fill="#bbc6c8" d="M 140.5,365.5 C 148.196,365.169 155.862,365.503 163.5,366.5C 159.667,366.833 155.833,367.167 152,367.5C 147.771,367.49 143.938,366.823 140.5,365.5 Z"/></g>
<g><path style="opacity:1" fill="#7a7f83" d="M 361.5,184.5 C 362.499,227.33 362.832,270.33 362.5,313.5C 361.503,331.326 361.17,349.326 361.5,367.5C 343.167,367.5 324.833,367.5 306.5,367.5C 306.5,367.167 306.5,366.833 306.5,366.5C 324.5,366.5 342.5,366.5 360.5,366.5C 360.5,306.167 360.5,245.833 360.5,185.5C 361.167,185.5 361.5,185.167 361.5,184.5 Z"/></g>
<g><path style="opacity:0.695" fill="#0f1a20" d="M 362.5,313.5 C 362.5,331.167 362.5,348.833 362.5,366.5C 374.833,366.5 387.167,366.5 399.5,366.5C 399.5,367.167 399.5,367.833 399.5,368.5C 322.167,368.5 244.833,368.5 167.5,368.5C 167.5,368.167 167.5,367.833 167.5,367.5C 186.5,367.5 205.5,367.5 224.5,367.5C 251.833,367.5 279.167,367.5 306.5,367.5C 324.833,367.5 343.167,367.5 361.5,367.5C 361.17,349.326 361.503,331.326 362.5,313.5 Z"/></g>
</svg>
