<?xml version="1.0" encoding="UTF-8"?>
<!DOCTYPE svg PUBLIC "-//W3C//DTD SVG 1.1//EN" "http://www.w3.org/Graphics/SVG/1.1/DTD/svg11.dtd">
<svg xmlns="http://www.w3.org/2000/svg" version="1.1" width="50px" height="36px" style="shape-rendering:geometricPrecision; text-rendering:geometricPrecision; image-rendering:optimizeQuality; fill-rule:evenodd; clip-rule:evenodd" xmlns:xlink="http://www.w3.org/1999/xlink">
<g><path style="opacity:0.863" fill="#004761" d="M 6.5,-0.5 C 8.16667,-0.5 9.83333,-0.5 11.5,-0.5C 11.9256,1.28488 13.0922,2.28488 15,2.5C 19.3989,0.905141 23.5656,1.23847 27.5,3.5C 30.5027,2.9149 33.5027,2.24824 36.5,1.5C 36.8627,0.816537 37.1961,0.14987 37.5,-0.5C 39.1667,-0.5 40.8333,-0.5 42.5,-0.5C 44.4821,2.81035 46.8154,5.81035 49.5,8.5C 49.5,9.83333 49.5,11.1667 49.5,12.5C 46.6336,15.5211 43.3003,18.0211 39.5,20C 41.4279,24.2704 40.2613,25.7704 36,24.5C 35.6437,27.7288 33.8103,29.2288 30.5,29C 31.4581,30.1475 31.1247,31.1475 29.5,32C 28.552,32.4828 27.552,32.6495 26.5,32.5C 26.5,33.5 26.5,34.5 26.5,35.5C 25.1667,35.5 23.8333,35.5 22.5,35.5C 21.3656,33.2187 20.0322,33.2187 18.5,35.5C 18.1667,35.5 17.8333,35.5 17.5,35.5C 16.4955,34.3172 15.6622,32.9839 15,31.5C 14.2588,32.6405 13.4255,32.6405 12.5,31.5C 11.7189,30.2713 11.2189,28.938 11,27.5C 9.75673,28.3363 8.59006,28.003 7.5,26.5C 6.20859,25.4728 6.20859,24.4728 7.5,23.5C 8.90632,23.0269 9.57298,22.0269 9.5,20.5C 8.16667,21.1667 7.16667,22.1667 6.5,23.5C 1.53517,22.3925 1.20184,20.2258 5.5,17C 3.6229,15.2832 1.6229,13.7832 -0.5,12.5C -0.5,11.1667 -0.5,9.83333 -0.5,8.5C 2.18455,5.81035 4.51789,2.81035 6.5,-0.5 Z"/></g>
<g><path style="opacity:0.059" fill="#004f5b" d="M 9.5,20.5 C 9.57298,22.0269 8.90632,23.0269 7.5,23.5C 7.16667,23.5 6.83333,23.5 6.5,23.5C 7.16667,22.1667 8.16667,21.1667 9.5,20.5 Z"/></g>
</svg>
