<?xml version="1.0" encoding="UTF-8"?>
<!DOCTYPE svg PUBLIC "-//W3C//DTD SVG 1.1//EN" "http://www.w3.org/Graphics/SVG/1.1/DTD/svg11.dtd">
<svg xmlns="http://www.w3.org/2000/svg" version="1.1" width="349px" height="144px" style="shape-rendering:geometricPrecision; text-rendering:geometricPrecision; image-rendering:optimizeQuality; fill-rule:evenodd; clip-rule:evenodd" xmlns:xlink="http://www.w3.org/1999/xlink">
<g><path style="opacity:0.945" fill="#2e1d1b" d="M 260.5,24.5 C 263.248,24.4017 263.914,25.4017 262.5,27.5C 260.585,27.7845 258.919,27.4511 257.5,26.5C 259.027,26.573 260.027,25.9063 260.5,24.5 Z"/></g>
<g><path style="opacity:0.125" fill="#ccbdb8" d="M 186.5,26.5 C 182.057,27.8015 177.391,28.4681 172.5,28.5C 176.9,26.8958 181.566,26.2291 186.5,26.5 Z"/></g>
<g><path style="opacity:0.271" fill="#b39995" d="M 260.5,24.5 C 260.027,25.9063 259.027,26.573 257.5,26.5C 256.833,26.8333 256.167,27.1667 255.5,27.5C 253.833,27.5 252.167,27.5 250.5,27.5C 230.007,26.5028 209.34,26.1695 188.5,26.5C 210.373,25.173 232.373,25.173 254.5,26.5C 256.323,25.2528 258.323,24.5861 260.5,24.5 Z"/></g>
<g><path style="opacity:1" fill="#741612" d="M 257.5,26.5 C 258.919,27.4511 260.585,27.7845 262.5,27.5C 263.492,27.3284 264.158,27.6618 264.5,28.5C 261.287,28.81 258.287,28.4767 255.5,27.5C 256.167,27.1667 256.833,26.8333 257.5,26.5 Z"/></g>
<g><path style="opacity:0.071" fill="#d0c4be" d="M 271.5,28.5 C 269.167,28.5 266.833,28.5 264.5,28.5C 264.158,27.6618 263.492,27.3284 262.5,27.5C 263.914,25.4017 263.248,24.4017 260.5,24.5C 262.6,22.7273 264.934,22.394 267.5,23.5C 266.5,24.3333 265.5,25.1667 264.5,26C 266.833,27.043 269.166,27.8763 271.5,28.5 Z"/></g>
<g><path style="opacity:1" fill="#e42121" d="M 250.5,27.5 C 252.167,27.5 253.833,27.5 255.5,27.5C 258.287,28.4767 261.287,28.81 264.5,28.5C 267.962,29.4816 271.629,29.815 275.5,29.5C 275.5,29.8333 275.5,30.1667 275.5,30.5C 271.818,30.3347 268.152,30.5014 264.5,31C 267.028,31.6689 267.028,32.5022 264.5,33.5C 263.738,32.3717 263.071,31.2051 262.5,30C 259.961,29.2042 257.628,29.3709 255.5,30.5C 250.231,29.3508 244.898,28.5175 239.5,28C 243.152,27.5014 246.818,27.3347 250.5,27.5 Z"/></g>
<g><path style="opacity:0.353" fill="#a78783" d="M 295.5,31.5 C 290.944,29.5583 285.944,28.8917 280.5,29.5C 278.833,29.5 277.167,29.5 275.5,29.5C 271.629,29.815 267.962,29.4816 264.5,28.5C 266.833,28.5 269.167,28.5 271.5,28.5C 279.354,27.8267 287.354,27.6601 295.5,28C 296.791,29.2917 296.791,30.4583 295.5,31.5 Z"/></g>
<g><path style="opacity:1" fill="#c71a18" d="M 280.5,29.5 C 285.944,28.8917 290.944,29.5583 295.5,31.5C 291.926,31.6911 288.593,32.6911 285.5,34.5C 286.612,35.2652 287.279,36.2652 287.5,37.5C 285.167,36.1667 282.833,34.8333 280.5,33.5C 278.517,33.8432 277.183,33.1765 276.5,31.5C 278.194,32.686 279.861,32.5193 281.5,31C 280.944,30.6174 280.611,30.1174 280.5,29.5 Z"/></g>
<g><path style="opacity:0.184" fill="#c3afaa" d="M 172.5,28.5 C 169.45,30.1007 166.116,31.1007 162.5,31.5C 165.452,29.5902 168.786,28.5902 172.5,28.5 Z"/></g>
<g><path style="opacity:1" fill="#6b110c" d="M 275.5,29.5 C 277.167,29.5 278.833,29.5 280.5,29.5C 280.611,30.1174 280.944,30.6174 281.5,31C 279.861,32.5193 278.194,32.686 276.5,31.5C 275.833,31.5 275.5,31.1667 275.5,30.5C 275.5,30.1667 275.5,29.8333 275.5,29.5 Z"/></g>
<g><path style="opacity:1" fill="#a91917" d="M 186.5,26.5 C 187.167,26.5 187.833,26.5 188.5,26.5C 209.34,26.1695 230.007,26.5028 250.5,27.5C 246.818,27.3347 243.152,27.5014 239.5,28C 244.898,28.5175 250.231,29.3508 255.5,30.5C 262.584,35.9585 269.251,41.9585 275.5,48.5C 276.989,50.6451 277.989,52.9785 278.5,55.5C 274.606,50.0982 270.106,45.0982 265,40.5C 264.805,41.8193 264.972,43.1526 265.5,44.5C 265.167,44.5 264.833,44.5 264.5,44.5C 263.473,42.816 262.473,41.1494 261.5,39.5C 258.6,36.2145 254.933,34.2145 250.5,33.5C 249.737,32.7321 248.737,32.2321 247.5,32C 235.838,31.5001 224.171,31.3335 212.5,31.5C 222.992,30.6696 233.659,30.1696 244.5,30C 236.865,29.0487 229.198,28.5487 221.5,28.5C 208.162,29.6168 194.828,29.7835 181.5,29C 188.68,29.5728 195.68,30.4061 202.5,31.5C 196.158,31.3338 189.825,31.5005 183.5,32C 181.618,32.1981 179.952,32.6981 178.5,33.5C 172.124,34.1862 166.124,35.8529 160.5,38.5C 152.666,42.9159 144.999,47.5826 137.5,52.5C 137.082,51.7784 136.416,51.2784 135.5,51C 137.927,49.4455 137.927,48.2789 135.5,47.5C 135.5,47.1667 135.5,46.8333 135.5,46.5C 137.027,46.573 138.027,45.9063 138.5,44.5C 140.027,44.573 141.027,43.9063 141.5,42.5C 145.173,40.9998 148.506,38.9998 151.5,36.5C 155.852,36.1543 159.519,34.4876 162.5,31.5C 166.116,31.1007 169.45,30.1007 172.5,28.5C 177.391,28.4681 182.057,27.8015 186.5,26.5 Z"/></g>
<g><path style="opacity:1" fill="#eb1d1b" d="M 212.5,31.5 C 212.167,31.5 211.833,31.5 211.5,31.5C 208.833,31.5 206.167,31.5 203.5,31.5C 203.167,31.5 202.833,31.5 202.5,31.5C 195.68,30.4061 188.68,29.5728 181.5,29C 194.828,29.7835 208.162,29.6168 221.5,28.5C 229.198,28.5487 236.865,29.0487 244.5,30C 233.659,30.1696 222.992,30.6696 212.5,31.5 Z"/></g>
<g><path style="opacity:0.698" fill="#9f6a62" d="M 162.5,31.5 C 159.519,34.4876 155.852,36.1543 151.5,36.5C 154.72,34.0599 158.387,32.3933 162.5,31.5 Z"/></g>
<g><path style="opacity:0.4" fill="#95625a" d="M 295.5,31.5 C 293.534,32.8344 291.534,34.1678 289.5,35.5C 290.826,36.6422 291.826,37.9755 292.5,39.5C 290.678,39.1692 289.011,38.5025 287.5,37.5C 287.279,36.2652 286.612,35.2652 285.5,34.5C 288.593,32.6911 291.926,31.6911 295.5,31.5 Z"/></g>
<g><path style="opacity:0.145" fill="#b79e99" d="M 151.5,36.5 C 148.506,38.9998 145.173,40.9998 141.5,42.5C 144.161,39.4977 147.495,37.4977 151.5,36.5 Z"/></g>
<g><path style="opacity:1" fill="#2f2f30" d="M 203.5,31.5 C 206.167,31.5 208.833,31.5 211.5,31.5C 211.5,32.5 211.5,33.5 211.5,34.5C 210.506,44.9869 210.172,55.6536 210.5,66.5C 208.585,66.2155 206.919,66.5489 205.5,67.5C 203.167,67.5 200.833,67.5 198.5,67.5C 200.33,55.5259 201.997,43.5259 203.5,31.5 Z"/></g>
<g><path style="opacity:1" fill="#1a1717" d="M 250.5,33.5 C 254.933,34.2145 258.6,36.2145 261.5,39.5C 258.876,38.3613 256.21,38.3613 253.5,39.5C 251.631,38.9324 249.797,38.2657 248,37.5C 246.596,37.5093 245.43,38.0093 244.5,39C 248.27,39.8678 251.936,41.0345 255.5,42.5C 251.924,44.9783 248.757,44.9783 246,42.5C 243.876,43.2272 241.709,43.8938 239.5,44.5C 234.22,43.3822 228.887,43.2155 223.5,44C 219.767,44.0655 216.267,44.8989 213,46.5C 212.228,42.1103 212.394,37.777 213.5,33.5C 225.846,32.2482 238.179,32.2482 250.5,33.5 Z"/></g>
<g><path style="opacity:0.204" fill="#bea8a4" d="M 293.5,39.5 C 295.167,40.5 296.5,41.8333 297.5,43.5C 295.167,43.1667 293.833,41.8333 293.5,39.5 Z"/></g>
<g><path style="opacity:1" fill="#b22520" d="M 280.5,33.5 C 282.833,34.8333 285.167,36.1667 287.5,37.5C 289.011,38.5025 290.678,39.1692 292.5,39.5C 292.833,39.5 293.167,39.5 293.5,39.5C 293.833,41.8333 295.167,43.1667 297.5,43.5C 299.167,44.5 300.5,45.8333 301.5,47.5C 299.302,46.9856 297.302,45.9856 295.5,44.5C 294.583,45.1272 293.583,45.4606 292.5,45.5C 291.653,44.0337 290.32,43.2004 288.5,43C 286.036,39.6989 283.369,36.5322 280.5,33.5 Z"/></g>
<g><path style="opacity:1" fill="#181717" d="M 160.5,38.5 C 166.124,35.8529 172.124,34.1862 178.5,33.5C 186.15,32.8567 193.817,32.5234 201.5,32.5C 201.859,34.7659 201.192,36.5993 199.5,38C 200.467,41.4423 200.467,44.609 199.5,47.5C 195.56,46.346 191.06,46.6793 186,48.5C 177.705,48.2256 169.538,48.2256 161.5,48.5C 157.936,49.0471 154.436,49.7137 151,50.5C 149.733,49.0903 149.733,47.4236 151,45.5C 152.787,44.6569 154.62,44.4902 156.5,45C 157.634,43.984 157.301,43.3173 155.5,43C 157.24,41.483 158.906,39.983 160.5,38.5 Z"/></g>
<g><path style="opacity:1" fill="#100e0d" d="M 211.5,31.5 C 211.833,31.5 212.167,31.5 212.5,31.5C 224.171,31.3335 235.838,31.5001 247.5,32C 248.737,32.2321 249.737,32.7321 250.5,33.5C 238.179,32.2482 225.846,32.2482 213.5,33.5C 212.394,37.777 212.228,42.1103 213,46.5C 216.267,44.8989 219.767,44.0655 223.5,44C 228.887,43.2155 234.22,43.3822 239.5,44.5C 241.709,43.8938 243.876,43.2272 246,42.5C 248.757,44.9783 251.924,44.9783 255.5,42.5C 251.936,41.0345 248.27,39.8678 244.5,39C 245.43,38.0093 246.596,37.5093 248,37.5C 249.797,38.2657 251.631,38.9324 253.5,39.5C 256.21,38.3613 258.876,38.3613 261.5,39.5C 262.473,41.1494 263.473,42.816 264.5,44.5C 264.5,50.8333 264.5,57.1667 264.5,63.5C 264.167,64.5 263.5,65.1667 262.5,65.5C 261.833,65.5 261.167,65.5 260.5,65.5C 257.833,65.5 255.167,65.5 252.5,65.5C 252.611,64.8826 252.944,64.3826 253.5,64C 256.482,63.502 259.482,63.3354 262.5,63.5C 262.183,59.0727 262.183,54.7393 262.5,50.5C 261.28,48.5044 259.614,47.6711 257.5,48C 260.167,49.6667 260.167,51.3333 257.5,53C 258.328,53.9147 259.328,54.5814 260.5,55C 259.073,56.7469 257.573,57.9135 256,58.5C 255.517,57.552 255.351,56.552 255.5,55.5C 249.555,56.2903 244.388,56.2903 240,55.5C 238.82,56.6841 237.32,57.3507 235.5,57.5C 229.271,58.6755 223.105,58.6755 217,57.5C 215.89,59.0368 214.39,59.7035 212.5,59.5C 211.465,53.8795 211.132,45.5462 211.5,34.5C 211.5,33.5 211.5,32.5 211.5,31.5 Z"/></g>
<g><path style="opacity:0.271" fill="#c5b2ae" d="M 141.5,42.5 C 141.027,43.9063 140.027,44.573 138.5,44.5C 138.973,43.0937 139.973,42.427 141.5,42.5 Z"/></g>
<g><path style="opacity:0.271" fill="#bfa8a4" d="M 138.5,44.5 C 138.027,45.9063 137.027,46.573 135.5,46.5C 135.973,45.0937 136.973,44.427 138.5,44.5 Z"/></g>
<g><path style="opacity:1" fill="#0f0d0c" d="M 202.5,31.5 C 202.833,31.5 203.167,31.5 203.5,31.5C 201.997,43.5259 200.33,55.5259 198.5,67.5C 198.167,67.5 197.833,67.5 197.5,67.5C 197.822,63.253 196.989,59.253 195,55.5C 194.717,58.7423 193.883,59.0756 192.5,56.5C 192.511,57.4415 192.011,58.1081 191,58.5C 187.494,56.9046 184.328,57.5713 181.5,60.5C 180.252,59.9598 179.085,59.2931 178,58.5C 171.807,59.446 165.474,59.446 159,58.5C 158.333,59.1667 157.667,59.8333 157,60.5C 154.306,59.2442 151.306,59.2442 148,60.5C 143.798,60.2829 139.798,59.2829 136,57.5C 131.532,59.7689 129.699,63.4356 130.5,68.5C 131.93,68.4208 133.264,68.7542 134.5,69.5C 135.192,68.9747 135.692,68.3081 136,67.5C 138.277,68.1172 140.444,68.7839 142.5,69.5C 142.5,69.8333 142.5,70.1667 142.5,70.5C 138.167,70.5 133.833,70.5 129.5,70.5C 129.047,69.5416 128.381,68.7083 127.5,68C 128.5,65.6667 129.5,63.3333 130.5,61C 128.811,61.1343 127.144,61.6343 125.5,62.5C 129.183,58.8197 133.183,55.4864 137.5,52.5C 144.999,47.5826 152.666,42.9159 160.5,38.5C 158.906,39.983 157.24,41.483 155.5,43C 157.301,43.3173 157.634,43.984 156.5,45C 154.62,44.4902 152.787,44.6569 151,45.5C 149.733,47.4236 149.733,49.0903 151,50.5C 154.436,49.7137 157.936,49.0471 161.5,48.5C 169.538,48.2256 177.705,48.2256 186,48.5C 191.06,46.6793 195.56,46.346 199.5,47.5C 200.467,44.609 200.467,41.4423 199.5,38C 201.192,36.5993 201.859,34.7659 201.5,32.5C 193.817,32.5234 186.15,32.8567 178.5,33.5C 179.952,32.6981 181.618,32.1981 183.5,32C 189.825,31.5005 196.158,31.3338 202.5,31.5 Z"/></g>
<g><path style="opacity:0.204" fill="#bb9f9b" d="M 135.5,46.5 C 135.5,46.8333 135.5,47.1667 135.5,47.5C 134.609,48.1098 133.609,48.4431 132.5,48.5C 132.973,47.0937 133.973,46.427 135.5,46.5 Z"/></g>
<g><path style="opacity:1" fill="#fd8e89" d="M 292.5,45.5 C 293.73,47.2972 294.396,49.2972 294.5,51.5C 292.825,53.002 290.992,54.3353 289,55.5C 288.51,56.7932 288.343,58.1266 288.5,59.5C 291.652,60.0414 294.152,59.0414 296,56.5C 296.692,57.0253 297.192,57.6919 297.5,58.5C 295.833,59.5 294.5,60.8333 293.5,62.5C 291.647,63.7596 289.814,63.7596 288,62.5C 285.571,56.6303 286.071,51.1303 289.5,46C 290.448,45.5172 291.448,45.3505 292.5,45.5 Z"/></g>
<g><path style="opacity:0.204" fill="#ad8b86" d="M 132.5,48.5 C 131.738,50.2624 130.404,51.2624 128.5,51.5C 129.262,49.7376 130.596,48.7376 132.5,48.5 Z"/></g>
<g><path style="opacity:1" fill="#35312f" d="M 264.5,44.5 C 264.833,44.5 265.167,44.5 265.5,44.5C 270.494,49.8068 273.161,56.1401 273.5,63.5C 270.5,63.5 267.5,63.5 264.5,63.5C 264.5,57.1667 264.5,50.8333 264.5,44.5 Z"/></g>
<g><path style="opacity:0.271" fill="#ba9892" d="M 301.5,47.5 C 305.855,49.8548 309.188,53.1881 311.5,57.5C 307.451,54.7849 304.118,51.4515 301.5,47.5 Z"/></g>
<g><path style="opacity:1" fill="#ea968f" d="M 286.5,65.5 C 286.5,67.5 285.5,68.5 283.5,68.5C 282.833,65.8333 282.167,63.1667 281.5,60.5C 281.573,58.9731 280.906,57.9731 279.5,57.5C 279.167,56.8333 278.833,56.1667 278.5,55.5C 277.989,52.9785 276.989,50.6451 275.5,48.5C 275.5,47.5 275.5,46.5 275.5,45.5C 276.5,45.5 277.5,45.5 278.5,45.5C 279.224,48.8426 280.057,52.176 281,55.5C 283.657,58.4889 285.491,61.8222 286.5,65.5 Z"/></g>
<g><path style="opacity:1" fill="#eb2021" d="M 278.5,55.5 C 278.833,56.1667 279.167,56.8333 279.5,57.5C 278.432,58.4345 277.099,58.7678 275.5,58.5C 275.823,62.226 275.489,65.8927 274.5,69.5C 273.534,67.604 273.201,65.604 273.5,63.5C 273.161,56.1401 270.494,49.8068 265.5,44.5C 264.972,43.1526 264.805,41.8193 265,40.5C 270.106,45.0982 274.606,50.0982 278.5,55.5 Z"/></g>
<g><path style="opacity:0.612" fill="#94615b" d="M 128.5,51.5 C 127.155,53.8363 125.155,55.503 122.5,56.5C 121.833,56.5 121.167,56.5 120.5,56.5C 122.822,54.336 125.489,52.6693 128.5,51.5 Z"/></g>
<g><path style="opacity:0.204" fill="#b89a96" d="M 120.5,56.5 C 120.027,57.9063 119.027,58.573 117.5,58.5C 117.973,57.0937 118.973,56.427 120.5,56.5 Z"/></g>
<g><path style="opacity:1" fill="#1e201f" d="M 211.5,34.5 C 211.132,45.5462 211.465,53.8795 212.5,59.5C 214.39,59.7035 215.89,59.0368 217,57.5C 223.105,58.6755 229.271,58.6755 235.5,57.5C 237.32,57.3507 238.82,56.6841 240,55.5C 244.388,56.2903 249.555,56.2903 255.5,55.5C 255.351,56.552 255.517,57.552 256,58.5C 257.573,57.9135 259.073,56.7469 260.5,55C 259.328,54.5814 258.328,53.9147 257.5,53C 260.167,51.3333 260.167,49.6667 257.5,48C 259.614,47.6711 261.28,48.5044 262.5,50.5C 262.183,54.7393 262.183,59.0727 262.5,63.5C 259.482,63.3354 256.482,63.502 253.5,64C 252.944,64.3826 252.611,64.8826 252.5,65.5C 248.167,65.5 243.833,65.5 239.5,65.5C 229.825,65.6378 220.158,65.9711 210.5,66.5C 210.172,55.6536 210.506,44.9869 211.5,34.5 Z"/></g>
<g><path style="opacity:0.204" fill="#b89a96" d="M 117.5,58.5 C 117.167,59.1667 116.833,59.8333 116.5,60.5C 115.833,60.5 115.167,60.5 114.5,60.5C 114.973,59.0937 115.973,58.427 117.5,58.5 Z"/></g>
<g><path style="opacity:0.204" fill="#b89a96" d="M 114.5,60.5 C 114.027,61.9063 113.027,62.573 111.5,62.5C 111.973,61.0937 112.973,60.427 114.5,60.5 Z"/></g>
<g><path style="opacity:1" fill="#cd2226" d="M 112.5,67.5 C 113.993,64.409 113.327,63.909 110.5,66C 103.488,66.4341 96.4883,66.9341 89.5,67.5C 89.5,67.1667 89.5,66.8333 89.5,66.5C 95.1181,65.7582 100.785,65.2582 106.5,65C 108.653,64.9005 110.319,64.0672 111.5,62.5C 113.027,62.573 114.027,61.9063 114.5,60.5C 115.167,60.5 115.833,60.5 116.5,60.5C 117.767,59.913 118.767,59.913 119.5,60.5C 117.479,63.1878 115.146,65.5211 112.5,67.5 Z"/></g>
<g><path style="opacity:0.996" fill="#864c46" d="M 311.5,57.5 C 314.243,59.2393 316.243,61.5726 317.5,64.5C 315.304,62.4554 312.97,62.1221 310.5,63.5C 309.957,63.44 309.624,63.1067 309.5,62.5C 310.729,61.7189 312.062,61.2189 313.5,61C 312.177,60.1841 311.511,59.0174 311.5,57.5 Z"/></g>
<g><path style="opacity:1" fill="#202221" d="M 197.5,67.5 C 179.162,68.1112 160.829,68.7779 142.5,69.5C 140.444,68.7839 138.277,68.1172 136,67.5C 135.692,68.3081 135.192,68.9747 134.5,69.5C 133.264,68.7542 131.93,68.4208 130.5,68.5C 129.699,63.4356 131.532,59.7689 136,57.5C 139.798,59.2829 143.798,60.2829 148,60.5C 151.306,59.2442 154.306,59.2442 157,60.5C 157.667,59.8333 158.333,59.1667 159,58.5C 165.474,59.446 171.807,59.446 178,58.5C 179.085,59.2931 180.252,59.9598 181.5,60.5C 184.328,57.5713 187.494,56.9046 191,58.5C 192.011,58.1081 192.511,57.4415 192.5,56.5C 193.883,59.0756 194.717,58.7423 195,55.5C 196.989,59.253 197.822,63.253 197.5,67.5 Z"/></g>
<g><path style="opacity:1" fill="#2d2f2d" d="M 129.5,70.5 C 126.813,70.6641 124.146,70.4974 121.5,70C 121.034,68.7012 121.034,67.2012 121.5,65.5C 122.436,64.0256 123.77,63.0256 125.5,62.5C 127.144,61.6343 128.811,61.1343 130.5,61C 129.5,63.3333 128.5,65.6667 127.5,68C 128.381,68.7083 129.047,69.5416 129.5,70.5 Z"/></g>
<g><path style="opacity:1" fill="#f91f1d" d="M 275.5,30.5 C 275.5,31.1667 275.833,31.5 276.5,31.5C 277.183,33.1765 278.517,33.8432 280.5,33.5C 283.369,36.5322 286.036,39.6989 288.5,43C 290.32,43.2004 291.653,44.0337 292.5,45.5C 291.448,45.3505 290.448,45.5172 289.5,46C 286.071,51.1303 285.571,56.6303 288,62.5C 289.814,63.7596 291.647,63.7596 293.5,62.5C 294.5,60.8333 295.833,59.5 297.5,58.5C 297.192,57.6919 296.692,57.0253 296,56.5C 294.152,59.0414 291.652,60.0414 288.5,59.5C 288.343,58.1266 288.51,56.7932 289,55.5C 290.992,54.3353 292.825,53.002 294.5,51.5C 295.268,50.7375 295.768,49.7375 296,48.5C 303.04,54.195 308.54,61.0283 312.5,69C 311.513,71.9941 310.18,72.1608 308.5,69.5C 306.142,70.1539 304.475,71.4872 303.5,73.5C 298.154,73.8552 292.487,74.1885 286.5,74.5C 287.775,71.3962 287.775,68.3962 286.5,65.5C 285.491,61.8222 283.657,58.4889 281,55.5C 280.057,52.176 279.224,48.8426 278.5,45.5C 277.5,45.5 276.5,45.5 275.5,45.5C 275.5,46.5 275.5,47.5 275.5,48.5C 269.251,41.9585 262.584,35.9585 255.5,30.5C 257.628,29.3709 259.961,29.2042 262.5,30C 263.071,31.2051 263.738,32.3717 264.5,33.5C 267.028,32.5022 267.028,31.6689 264.5,31C 268.152,30.5014 271.818,30.3347 275.5,30.5 Z"/></g>
<g><path style="opacity:0.996" fill="#441110" d="M 310.5,63.5 C 312.97,62.1221 315.304,62.4554 317.5,64.5C 318.167,64.5 318.5,64.8333 318.5,65.5C 319.825,68.0962 318.825,69.4296 315.5,69.5C 314.299,67.0905 312.633,65.0905 310.5,63.5 Z"/></g>
<g><path style="opacity:0.125" fill="#c5b0ab" d="M 111.5,62.5 C 110.319,64.0672 108.653,64.9005 106.5,65C 100.785,65.2582 95.1181,65.7582 89.5,66.5C 86.1667,66.5 82.8333,66.5 79.5,66.5C 90.0829,65.3881 100.75,64.0547 111.5,62.5 Z"/></g>
<g><path style="opacity:1" fill="#4a0303" d="M 239.5,65.5 C 239.5,65.8333 239.5,66.1667 239.5,66.5C 228.169,66.9072 216.836,67.2406 205.5,67.5C 206.919,66.5489 208.585,66.2155 210.5,66.5C 220.158,65.9711 229.825,65.6378 239.5,65.5 Z"/></g>
<g><path style="opacity:0.765" fill="#99554d" d="M 79.5,66.5 C 82.8333,66.5 86.1667,66.5 89.5,66.5C 89.5,66.8333 89.5,67.1667 89.5,67.5C 83.0723,67.4427 76.739,68.1093 70.5,69.5C 68.5,69.5 66.5,69.5 64.5,69.5C 64.5,69.1667 64.5,68.8333 64.5,68.5C 69.4364,67.4616 74.4364,66.7949 79.5,66.5 Z"/></g>
<g><path style="opacity:1" fill="#d52425" d="M 135.5,47.5 C 137.927,48.2789 137.927,49.4455 135.5,51C 136.416,51.2784 137.082,51.7784 137.5,52.5C 133.183,55.4864 129.183,58.8197 125.5,62.5C 123.77,63.0256 122.436,64.0256 121.5,65.5C 119.72,66.9899 119.054,68.9899 119.5,71.5C 127.352,71.8254 135.018,71.492 142.5,70.5C 153.489,69.8815 164.489,69.5482 175.5,69.5C 156.706,71.6928 137.706,72.5261 118.5,72C 117.427,70.7496 117.427,69.4162 118.5,68C 118.164,66.9701 117.497,66.4701 116.5,66.5C 121.583,62.1117 126.916,57.945 132.5,54C 128.854,55.2548 125.354,57.0882 122,59.5C 121.5,59.3333 121,59.1667 120.5,59C 121.381,58.2917 122.047,57.4584 122.5,56.5C 125.155,55.503 127.155,53.8363 128.5,51.5C 130.404,51.2624 131.738,50.2624 132.5,48.5C 133.609,48.4431 134.609,48.1098 135.5,47.5 Z"/></g>
<g><path style="opacity:1" fill="#2d0802" d="M 197.5,67.5 C 194.5,68.1667 191.5,68.8333 188.5,69.5C 184.167,69.5 179.833,69.5 175.5,69.5C 164.489,69.5482 153.489,69.8815 142.5,70.5C 142.5,70.1667 142.5,69.8333 142.5,69.5C 160.829,68.7779 179.162,68.1112 197.5,67.5 Z"/></g>
<g><path style="opacity:1" fill="#e74441" d="M 279.5,57.5 C 280.906,57.9731 281.573,58.9731 281.5,60.5C 279.577,64.0293 278.911,68.0293 279.5,72.5C 278.834,68.3155 278.167,63.9822 277.5,59.5C 276.833,63.5 276.167,67.5 275.5,71.5C 273.291,70.08 271.291,68.4133 269.5,66.5C 266.236,72.0272 263.903,71.6938 262.5,65.5C 263.5,65.1667 264.167,64.5 264.5,63.5C 267.5,63.5 270.5,63.5 273.5,63.5C 273.201,65.604 273.534,67.604 274.5,69.5C 275.489,65.8927 275.823,62.226 275.5,58.5C 277.099,58.7678 278.432,58.4345 279.5,57.5 Z"/></g>
<g><path style="opacity:1" fill="#824d44" d="M 318.5,65.5 C 321.496,68.4974 323.163,72.164 323.5,76.5C 322.778,76.0825 322.278,75.4158 322,74.5C 321.601,74.7284 321.435,75.0618 321.5,75.5C 320.115,73.1165 318.115,71.4499 315.5,70.5C 315.5,70.1667 315.5,69.8333 315.5,69.5C 318.825,69.4296 319.825,68.0962 318.5,65.5 Z"/></g>
<g><path style="opacity:0.204" fill="#bda7a2" d="M 64.5,68.5 C 64.5,68.8333 64.5,69.1667 64.5,69.5C 61.5448,70.1587 58.5448,70.4921 55.5,70.5C 58.2727,69.3428 61.2727,68.6761 64.5,68.5 Z"/></g>
<g><path style="opacity:0.906" fill="#c24f43" d="M 64.5,69.5 C 66.5,69.5 68.5,69.5 70.5,69.5C 64.0801,71.2837 57.4135,72.2837 50.5,72.5C 48.8333,72.5 47.1667,72.5 45.5,72.5C 48.5885,71.2154 51.9219,70.5488 55.5,70.5C 58.5448,70.4921 61.5448,70.1587 64.5,69.5 Z"/></g>
<g><path style="opacity:1" fill="#f61716" d="M 239.5,66.5 C 246.167,66.5 252.833,66.5 259.5,66.5C 259.286,68.1439 259.62,69.6439 260.5,71C 259.423,71.4696 258.423,71.3029 257.5,70.5C 254.852,70.7385 253.018,72.0718 252,74.5C 251.934,78.2514 251.101,81.7514 249.5,85C 250.737,88.0983 251.237,91.265 251,94.5C 249.316,92.6487 247.483,90.982 245.5,89.5C 244.534,91.396 244.201,93.396 244.5,95.5C 242.857,95.5198 241.524,94.8532 240.5,93.5C 239.817,93.8627 239.15,94.1961 238.5,94.5C 238.5,94.8333 238.5,95.1667 238.5,95.5C 226.833,96.1459 215.166,96.8125 203.5,97.5C 203.167,95.1667 202.833,92.8333 202.5,90.5C 203.034,82.7625 204.034,75.0958 205.5,67.5C 216.836,67.2406 228.169,66.9072 239.5,66.5 Z"/></g>
<g><path style="opacity:1" fill="#db2e2e" d="M 239.5,66.5 C 239.5,66.1667 239.5,65.8333 239.5,65.5C 243.833,65.5 248.167,65.5 252.5,65.5C 255.167,65.5 257.833,65.5 260.5,65.5C 260.833,68.1667 261.167,70.8333 261.5,73.5C 260.167,73.5 258.833,73.5 257.5,73.5C 257.5,72.5 257.5,71.5 257.5,70.5C 258.423,71.3029 259.423,71.4696 260.5,71C 259.62,69.6439 259.286,68.1439 259.5,66.5C 252.833,66.5 246.167,66.5 239.5,66.5 Z"/></g>
<g><path style="opacity:1" fill="#2e0b05" d="M 121.5,65.5 C 121.034,67.2012 121.034,68.7012 121.5,70C 124.146,70.4974 126.813,70.6641 129.5,70.5C 133.833,70.5 138.167,70.5 142.5,70.5C 135.018,71.492 127.352,71.8254 119.5,71.5C 119.054,68.9899 119.72,66.9899 121.5,65.5 Z"/></g>
<g><path style="opacity:1" fill="#f71818" d="M 116.5,66.5 C 117.497,66.4701 118.164,66.9701 118.5,68C 117.427,69.4162 117.427,70.7496 118.5,72C 137.706,72.5261 156.706,71.6928 175.5,69.5C 179.833,69.5 184.167,69.5 188.5,69.5C 193.527,69.4971 198.527,69.1637 203.5,68.5C 202.494,75.9713 201.494,83.3046 200.5,90.5C 200.665,87.1501 200.498,83.8168 200,80.5C 199.5,81.6667 198.667,82.5 197.5,83C 198.524,84.3671 198.024,85.2005 196,85.5C 193.418,84.5105 190.918,84.8439 188.5,86.5C 187.176,84.8953 184.843,84.2286 181.5,84.5C 181.571,81.9759 180.571,79.9759 178.5,78.5C 179.728,76.679 181.394,75.679 183.5,75.5C 183.611,74.8826 183.944,74.3826 184.5,74C 182.167,73.3333 179.833,73.3333 177.5,74C 176.167,74.6667 176.167,75.3333 177.5,76C 176.069,76.4652 174.903,77.2986 174,78.5C 170.333,77.8333 166.667,77.1667 163,76.5C 156.555,77.149 150.055,77.8157 143.5,78.5C 143.709,79.086 144.043,79.586 144.5,80C 148.34,80.4057 152.173,80.239 156,79.5C 157.5,79.6667 159,79.8333 160.5,80C 160.167,80.3333 159.833,80.6667 159.5,81C 143.83,81.4793 128.163,81.9793 112.5,82.5C 112.5,88.1667 112.5,93.8333 112.5,99.5C 110.898,89.1993 111.398,78.866 114,68.5C 114.708,67.6195 115.542,66.9528 116.5,66.5 Z"/></g>
<g><path style="opacity:1" fill="#f9988e" d="M 279.5,72.5 C 279.5,74.5 279.5,76.5 279.5,78.5C 279.5,80.8333 279.5,83.1667 279.5,85.5C 279.158,86.3382 278.492,86.6716 277.5,86.5C 277.5,82.8333 277.5,79.1667 277.5,75.5C 274.857,74.2073 272.19,72.874 269.5,71.5C 267.962,71.4534 266.962,72.1201 266.5,73.5C 266.167,73.5 265.833,73.5 265.5,73.5C 264.368,72.6457 263.035,72.6457 261.5,73.5C 261.167,70.8333 260.833,68.1667 260.5,65.5C 261.167,65.5 261.833,65.5 262.5,65.5C 263.903,71.6938 266.236,72.0272 269.5,66.5C 271.291,68.4133 273.291,70.08 275.5,71.5C 276.167,67.5 276.833,63.5 277.5,59.5C 278.167,63.9822 278.834,68.3155 279.5,72.5 Z"/></g>
<g><path style="opacity:1" fill="#f31e1f" d="M 281.5,60.5 C 282.167,63.1667 282.833,65.8333 283.5,68.5C 285.113,69.8381 285.613,71.5048 285,73.5C 283.667,75.5 282.333,77.5 281,79.5C 280.617,78.944 280.117,78.6107 279.5,78.5C 279.5,76.5 279.5,74.5 279.5,72.5C 278.911,68.0293 279.577,64.0293 281.5,60.5 Z"/></g>
<g><path style="opacity:1" fill="#df2123" d="M 301.5,47.5 C 304.118,51.4515 307.451,54.7849 311.5,57.5C 311.511,59.0174 312.177,60.1841 313.5,61C 312.062,61.2189 310.729,61.7189 309.5,62.5C 309.624,63.1067 309.957,63.44 310.5,63.5C 312.633,65.0905 314.299,67.0905 315.5,69.5C 315.5,69.8333 315.5,70.1667 315.5,70.5C 316.925,71.922 317.925,73.5887 318.5,75.5C 317.711,75.2172 317.044,74.7172 316.5,74C 312.179,73.501 307.846,73.3343 303.5,73.5C 304.475,71.4872 306.142,70.1539 308.5,69.5C 310.18,72.1608 311.513,71.9941 312.5,69C 308.54,61.0283 303.04,54.195 296,48.5C 295.768,49.7375 295.268,50.7375 294.5,51.5C 294.396,49.2972 293.73,47.2972 292.5,45.5C 293.583,45.4606 294.583,45.1272 295.5,44.5C 297.302,45.9856 299.302,46.9856 301.5,47.5 Z"/></g>
<g><path style="opacity:0.878" fill="#b2483c" d="M 45.5,72.5 C 47.1667,72.5 48.8333,72.5 50.5,72.5C 47.4954,74.2766 44.1621,75.2766 40.5,75.5C 40.8333,74.8333 41.1667,74.1667 41.5,73.5C 42.5676,72.5655 43.901,72.2322 45.5,72.5 Z"/></g>
<g><path style="opacity:1" fill="#332d27" d="M 265.5,73.5 C 265.833,73.5 266.167,73.5 266.5,73.5C 269.195,73.5627 270.195,74.5627 269.5,76.5C 268.5,76.5 267.5,76.5 266.5,76.5C 265.89,75.609 265.557,74.609 265.5,73.5 Z"/></g>
<g><path style="opacity:1" fill="#f51111" d="M 112.5,67.5 C 110.82,74.0972 109.82,80.9305 109.5,88C 110.43,99.2848 112.096,110.451 114.5,121.5C 111.167,121.5 107.833,121.5 104.5,121.5C 104.167,121.5 103.833,121.5 103.5,121.5C 103.515,114.11 100.849,108.11 95.5,103.5C 94.5977,101.659 93.2644,100.326 91.5,99.5C 89.2597,97.0343 86.593,95.0343 83.5,93.5C 83.1667,92.8333 82.8333,92.1667 82.5,91.5C 82.9925,89.1815 83.9925,87.1815 85.5,85.5C 90.2203,85.7746 90.5537,84.9412 86.5,83C 87.731,81.8173 87.731,80.6507 86.5,79.5C 85.1667,82.1667 83.8333,82.1667 82.5,79.5C 81.9041,80.7161 81.7374,82.0494 82,83.5C 81.586,83.0426 81.086,82.7093 80.5,82.5C 77.667,83.9332 74.667,84.5999 71.5,84.5C 70.4324,83.5655 69.099,83.2322 67.5,83.5C 66.1667,83.5 64.8333,83.5 63.5,83.5C 63.634,85.2915 63.3007,86.9582 62.5,88.5C 61.197,90.1423 59.8637,91.8089 58.5,93.5C 57.3951,94.6005 56.0618,95.2671 54.5,95.5C 52.4176,95.472 50.5843,96.1387 49,97.5C 48.0347,95.7397 46.868,95.4063 45.5,96.5C 46.5,97.3333 47.5,98.1667 48.5,99C 47.6634,100.011 47.33,101.178 47.5,102.5C 46.8333,102.5 46.5,102.833 46.5,103.5C 44.0559,107.163 42.3892,111.163 41.5,115.5C 39.8643,119.21 39.1977,123.21 39.5,127.5C 39.5,127.833 39.5,128.167 39.5,128.5C 34.7971,128.563 30.1304,128.229 25.5,127.5C 23.1033,125.805 20.4366,124.472 17.5,123.5C 17.5,122.833 17.5,122.167 17.5,121.5C 18.2299,120.288 19.2299,119.288 20.5,118.5C 19.675,117.614 18.675,117.281 17.5,117.5C 18.7804,116.069 20.4471,115.402 22.5,115.5C 23.9086,114.195 23.7419,116.528 22,122.5C 22.414,122.043 22.914,121.709 23.5,121.5C 26.4466,122.423 29.4466,123.089 32.5,123.5C 32.4836,127.274 34.1503,128.274 37.5,126.5C 38.2218,122.153 38.8885,117.82 39.5,113.5C 38.624,112.749 37.624,112.249 36.5,112C 37.6537,111.086 37.487,110.253 36,109.5C 34.9148,110.293 33.7481,110.96 32.5,111.5C 31.2888,110.61 29.9555,110.61 28.5,111.5C 25.633,110.226 22.633,109.393 19.5,109C 18.944,108.617 18.6107,108.117 18.5,107.5C 24.4423,109.029 28.7756,107.029 31.5,101.5C 26.6042,99.5539 21.2709,98.8872 15.5,99.5C 15.5,98.5 15.5,97.5 15.5,96.5C 21.69,96.8229 27.69,96.4896 33.5,95.5C 34.8333,95.5 36.1667,95.5 37.5,95.5C 37.5,94.5 37.5,93.5 37.5,92.5C 37.5,91.5 37.5,90.5 37.5,89.5C 37.5,88.8333 37.5,88.1667 37.5,87.5C 32.2514,87.1413 27.2514,86.1413 22.5,84.5C 25.0892,83.5806 27.0892,81.914 28.5,79.5C 32.2768,77.5744 36.2768,76.241 40.5,75.5C 44.1621,75.2766 47.4954,74.2766 50.5,72.5C 57.4135,72.2837 64.0801,71.2837 70.5,69.5C 76.739,68.1093 83.0723,67.4427 89.5,67.5C 96.4883,66.9341 103.488,66.4341 110.5,66C 113.327,63.909 113.993,64.409 112.5,67.5 Z"/></g>
<g><path style="opacity:1" fill="#847d7a" d="M 265.5,73.5 C 265.557,74.609 265.89,75.609 266.5,76.5C 264.118,75.4537 261.785,75.4537 259.5,76.5C 259.158,75.6618 258.492,75.3284 257.5,75.5C 257.5,74.8333 257.5,74.1667 257.5,73.5C 258.833,73.5 260.167,73.5 261.5,73.5C 263.035,72.6457 264.368,72.6457 265.5,73.5 Z"/></g>
<g><path style="opacity:1" fill="#a6221d" d="M 286.5,65.5 C 287.775,68.3962 287.775,71.3962 286.5,74.5C 285.662,74.8417 285.328,75.5084 285.5,76.5C 282.744,79.0177 280.744,82.0177 279.5,85.5C 279.5,83.1667 279.5,80.8333 279.5,78.5C 280.117,78.6107 280.617,78.944 281,79.5C 282.333,77.5 283.667,75.5 285,73.5C 285.613,71.5048 285.113,69.8381 283.5,68.5C 285.5,68.5 286.5,67.5 286.5,65.5 Z"/></g>
<g><path style="opacity:1" fill="#6f110d" d="M 315.5,70.5 C 318.115,71.4499 320.115,73.1165 321.5,75.5C 320.766,76.7079 320.433,78.0413 320.5,79.5C 319.833,78.1667 319.167,76.8333 318.5,75.5C 317.925,73.5887 316.925,71.922 315.5,70.5 Z"/></g>
<g><path style="opacity:1" fill="#7f1e1d" d="M 194.5,75.5 C 195.5,75.5 196.5,75.5 197.5,75.5C 197.5,76.8333 197.5,78.1667 197.5,79.5C 196.833,79.5 196.167,79.5 195.5,79.5C 196.471,78.0379 196.138,76.7046 194.5,75.5 Z"/></g>
<g><path style="opacity:1" fill="#6e1918" d="M 257.5,75.5 C 258.492,75.3284 259.158,75.6618 259.5,76.5C 259.5,76.8333 259.5,77.1667 259.5,77.5C 258.022,77.762 256.689,77.4287 255.5,76.5C 255.957,75.7025 256.624,75.3691 257.5,75.5 Z"/></g>
<g><path style="opacity:0.4" fill="#9e766f" d="M 41.5,73.5 C 41.1667,74.1667 40.8333,74.8333 40.5,75.5C 36.2768,76.241 32.2768,77.5744 28.5,79.5C 27.8333,79.5 27.1667,79.5 26.5,79.5C 30.9228,76.3523 35.9228,74.3523 41.5,73.5 Z"/></g>
<g><path style="opacity:1" fill="#353430" d="M 186.5,75.5 C 189.167,75.5 191.833,75.5 194.5,75.5C 196.138,76.7046 196.471,78.0379 195.5,79.5C 191.833,79.5 188.167,79.5 184.5,79.5C 184.527,77.8007 185.194,76.4674 186.5,75.5 Z"/></g>
<g><path style="opacity:1" fill="#c22222" d="M 257.5,73.5 C 257.5,74.1667 257.5,74.8333 257.5,75.5C 256.624,75.3691 255.957,75.7025 255.5,76.5C 256.689,77.4287 258.022,77.762 259.5,77.5C 263.765,77.3567 266.431,79.3567 267.5,83.5C 265.926,83.0629 264.759,82.0629 264,80.5C 263.601,80.7284 263.435,81.0618 263.5,81.5C 260.754,79.8736 257.754,79.2069 254.5,79.5C 254.34,77.8008 254.506,76.1341 255,74.5C 255.671,73.7476 256.504,73.4142 257.5,73.5 Z"/></g>
<g><path style="opacity:0.996" fill="#3d0f0d" d="M 323.5,76.5 C 323.5,76.8333 323.5,77.1667 323.5,77.5C 323.5,79.1667 323.5,80.8333 323.5,82.5C 322.833,82.5 322.167,82.5 321.5,82.5C 321.737,81.209 321.404,80.209 320.5,79.5C 320.433,78.0413 320.766,76.7079 321.5,75.5C 321.435,75.0618 321.601,74.7284 322,74.5C 322.278,75.4158 322.778,76.0825 323.5,76.5 Z"/></g>
<g><path style="opacity:1" fill="#fc0202" d="M 238.5,94.5 C 227.872,95.4296 217.205,95.763 206.5,95.5C 206.307,91.551 205.807,91.551 205,95.5C 204.833,93.1667 204.667,90.8333 204.5,88.5C 204.633,84.9783 204.966,81.8116 205.5,79C 217.386,79.8081 229.052,79.6415 240.5,78.5C 238.614,81.3488 237.947,84.3488 238.5,87.5C 235.886,87.2771 234.219,88.4438 233.5,91C 237.078,90.7907 239.078,90.1241 239.5,89C 240.517,90.0495 240.684,91.2161 240,92.5C 239.282,91.5494 238.449,91.3828 237.5,92C 238.252,92.6708 238.586,93.5041 238.5,94.5 Z"/></g>
<g><path style="opacity:1" fill="#f80304" d="M 303.5,73.5 C 307.846,73.3343 312.179,73.501 316.5,74C 317.044,74.7172 317.711,75.2172 318.5,75.5C 319.167,76.8333 319.833,78.1667 320.5,79.5C 321.404,80.209 321.737,81.209 321.5,82.5C 322.324,85.7644 322.658,89.0977 322.5,92.5C 319.807,92.5715 317.14,92.9049 314.5,93.5C 312.886,93.1971 311.552,92.5305 310.5,91.5C 308.111,90.9463 306.445,89.4463 305.5,87C 298.439,86.8435 291.439,86.6768 284.5,86.5C 283.643,85.2643 282.977,83.931 282.5,82.5C 284.038,80.7567 285.038,78.7567 285.5,76.5C 285.328,75.5084 285.662,74.8417 286.5,74.5C 292.487,74.1885 298.154,73.8552 303.5,73.5 Z"/></g>
<g><path style="opacity:1" fill="#af140d" d="M 183.5,75.5 C 184.5,75.5 185.5,75.5 186.5,75.5C 185.194,76.4674 184.527,77.8007 184.5,79.5C 188.167,79.5 191.833,79.5 195.5,79.5C 196.167,79.5 196.833,79.5 197.5,79.5C 195.639,82.1233 192.972,83.4567 189.5,83.5C 188.062,83.2811 186.729,82.7811 185.5,82C 186.167,81.6667 186.833,81.3333 187.5,81C 185.527,80.5045 183.527,80.3379 181.5,80.5C 181.392,78.4862 182.058,76.8195 183.5,75.5 Z"/></g>
<g><path style="opacity:1" fill="#ec8c85" d="M 266.5,76.5 C 267.5,76.5 268.5,76.5 269.5,76.5C 268.433,78.8795 269.433,79.8795 272.5,79.5C 272.567,80.9587 272.234,82.2921 271.5,83.5C 270.167,83.5 268.833,83.5 267.5,83.5C 266.431,79.3567 263.765,77.3567 259.5,77.5C 259.5,77.1667 259.5,76.8333 259.5,76.5C 261.785,75.4537 264.118,75.4537 266.5,76.5 Z"/></g>
<g><path style="opacity:0.145" fill="#b89b95" d="M 323.5,77.5 C 324.207,83.0655 324.874,88.7322 325.5,94.5C 324.833,94.5 324.167,94.5 323.5,94.5C 323.5,90.5 323.5,86.5 323.5,82.5C 323.5,80.8333 323.5,79.1667 323.5,77.5 Z"/></g>
<g><path style="opacity:0.353" fill="#b79f9b" d="M 26.5,79.5 C 25.1667,81.1667 23.8333,82.8333 22.5,84.5C 21.1667,85.1667 20.1667,86.1667 19.5,87.5C 18.8333,88.8333 17.8333,89.8333 16.5,90.5C 18.4416,85.5588 21.7749,81.8922 26.5,79.5 Z"/></g>
<g><path style="opacity:0.878" fill="#a31f1f" d="M 26.5,79.5 C 27.1667,79.5 27.8333,79.5 28.5,79.5C 27.0892,81.914 25.0892,83.5806 22.5,84.5C 23.8333,82.8333 25.1667,81.1667 26.5,79.5 Z"/></g>
<g><path style="opacity:1" fill="#e32724" d="M 85.5,85.5 C 85.2942,83.4508 84.4609,83.1175 83,84.5C 81.6077,86.9406 81.441,89.274 82.5,91.5C 82.8333,92.1667 83.1667,92.8333 83.5,93.5C 82.8333,93.5 82.1667,93.5 81.5,93.5C 80.8333,93.5 80.1667,93.5 79.5,93.5C 78.8818,91.5766 79.2151,89.5766 80.5,87.5C 79.277,86.3861 77.9437,86.2195 76.5,87C 74.1241,91.4471 73.4574,91.4471 74.5,87C 73.9056,86.5357 73.2389,86.369 72.5,86.5C 72.1667,85.8333 71.8333,85.1667 71.5,84.5C 74.667,84.5999 77.667,83.9332 80.5,82.5C 81.086,82.7093 81.586,83.0426 82,83.5C 81.7374,82.0494 81.9041,80.7161 82.5,79.5C 83.8333,82.1667 85.1667,82.1667 86.5,79.5C 87.731,80.6507 87.731,81.8173 86.5,83C 90.5537,84.9412 90.2203,85.7746 85.5,85.5 Z"/></g>
<g><path style="opacity:1" fill="#fb968f" d="M 67.5,83.5 C 66.2595,85.9454 64.7595,88.2788 63,90.5C 62.5357,89.9056 62.369,89.2389 62.5,88.5C 63.3007,86.9582 63.634,85.2915 63.5,83.5C 64.8333,83.5 66.1667,83.5 67.5,83.5 Z"/></g>
<g><path style="opacity:1" fill="#fa726a" d="M 85.5,85.5 C 83.9925,87.1815 82.9925,89.1815 82.5,91.5C 81.441,89.274 81.6077,86.9406 83,84.5C 84.4609,83.1175 85.2942,83.4508 85.5,85.5 Z"/></g>
<g><path style="opacity:1" fill="#f68983" d="M 257.5,70.5 C 257.5,71.5 257.5,72.5 257.5,73.5C 256.504,73.4142 255.671,73.7476 255,74.5C 254.506,76.1341 254.34,77.8008 254.5,79.5C 257.754,79.2069 260.754,79.8736 263.5,81.5C 263.965,85.7924 263.132,89.7924 261,93.5C 259.817,94.731 258.651,94.731 257.5,93.5C 260.917,91.0305 262.25,87.6971 261.5,83.5C 258.5,83.5 255.5,83.5 252.5,83.5C 252.851,87.6836 253.518,91.6836 254.5,95.5C 255.5,98.5 254.5,99.5 251.5,98.5C 247.879,94.3751 246.546,95.3751 247.5,101.5C 247.5,101.833 247.5,102.167 247.5,102.5C 247.131,106.013 245.798,106.347 243.5,103.5C 242.774,100.712 241.107,98.7122 238.5,97.5C 238.5,96.8333 238.5,96.1667 238.5,95.5C 238.5,95.1667 238.5,94.8333 238.5,94.5C 239.15,94.1961 239.817,93.8627 240.5,93.5C 241.524,94.8532 242.857,95.5198 244.5,95.5C 244.201,93.396 244.534,91.396 245.5,89.5C 247.483,90.982 249.316,92.6487 251,94.5C 251.237,91.265 250.737,88.0983 249.5,85C 251.101,81.7514 251.934,78.2514 252,74.5C 253.018,72.0718 254.852,70.7385 257.5,70.5 Z"/></g>
<g><path style="opacity:1" fill="#910a09" d="M 22.5,84.5 C 27.2514,86.1413 32.2514,87.1413 37.5,87.5C 32.1667,87.5 26.8333,87.5 21.5,87.5C 20.8333,87.5 20.1667,87.5 19.5,87.5C 20.1667,86.1667 21.1667,85.1667 22.5,84.5 Z"/></g>
<g><path style="opacity:1" fill="#5f5956" d="M 21.5,87.5 C 26.8333,87.5 32.1667,87.5 37.5,87.5C 37.5,88.1667 37.5,88.8333 37.5,89.5C 31.8084,87.6917 26.6418,88.6917 22,92.5C 21.6667,92.1667 21.3333,91.8333 21,91.5C 20.6258,92.4162 20.1258,93.2496 19.5,94C 25.7845,95.0499 31.7845,94.5499 37.5,92.5C 37.5,93.5 37.5,94.5 37.5,95.5C 36.1667,95.5 34.8333,95.5 33.5,95.5C 27.8333,95.5 22.1667,95.5 16.5,95.5C 18.14,92.8508 19.8067,90.1841 21.5,87.5 Z"/></g>
<g><path style="opacity:0.996" fill="#d33937" d="M 67.5,83.5 C 69.099,83.2322 70.4324,83.5655 71.5,84.5C 71.8333,85.1667 72.1667,85.8333 72.5,86.5C 70.822,87.7471 69.4887,89.4138 68.5,91.5C 68.1203,89.9793 67.9536,88.3126 68,86.5C 66.7978,88.6775 66.2978,91.0108 66.5,93.5C 64.1667,93.5 61.8333,93.5 59.5,93.5C 59.1667,93.5 58.8333,93.5 58.5,93.5C 59.8637,91.8089 61.197,90.1423 62.5,88.5C 62.369,89.2389 62.5357,89.9056 63,90.5C 64.7595,88.2788 66.2595,85.9454 67.5,83.5 Z"/></g>
<g><path style="opacity:1" fill="#361d1c" d="M 19.5,87.5 C 20.1667,87.5 20.8333,87.5 21.5,87.5C 19.8067,90.1841 18.14,92.8508 16.5,95.5C 15.8333,95.5 15.1667,95.5 14.5,95.5C 15.4408,93.9505 16.1075,92.2838 16.5,90.5C 17.8333,89.8333 18.8333,88.8333 19.5,87.5 Z"/></g>
<g><path style="opacity:1" fill="#7b817f" d="M 37.5,89.5 C 37.5,90.5 37.5,91.5 37.5,92.5C 31.7845,94.5499 25.7845,95.0499 19.5,94C 20.1258,93.2496 20.6258,92.4162 21,91.5C 21.3333,91.8333 21.6667,92.1667 22,92.5C 26.6418,88.6917 31.8084,87.6917 37.5,89.5 Z"/></g>
<g><path style="opacity:1" fill="#df6f69" d="M 72.5,86.5 C 73.2389,86.369 73.9056,86.5357 74.5,87C 73.4574,91.4471 74.1241,91.4471 76.5,87C 77.9437,86.2195 79.277,86.3861 80.5,87.5C 79.2151,89.5766 78.8818,91.5766 79.5,93.5C 78.1667,93.5 76.8333,93.5 75.5,93.5C 72.8103,93.3387 69.8103,93.3387 66.5,93.5C 66.2978,91.0108 66.7978,88.6775 68,86.5C 67.9536,88.3126 68.1203,89.9793 68.5,91.5C 69.4887,89.4138 70.822,87.7471 72.5,86.5 Z"/></g>
<g><path style="opacity:0.125" fill="#d0c4bf" d="M 16.5,90.5 C 16.1075,92.2838 15.4408,93.9505 14.5,95.5C 14.5,96.1667 14.1667,96.5 13.5,96.5C 13.461,93.911 14.461,91.911 16.5,90.5 Z"/></g>
<g><path style="opacity:1" fill="#d81b18" d="M 277.5,86.5 C 275.919,88.1417 275.253,90.1417 275.5,92.5C 277.661,92.5094 278.994,93.1761 279.5,94.5C 280.849,94.1543 282.183,93.821 283.5,93.5C 283.167,94.5 282.5,95.1667 281.5,95.5C 278.99,95.0535 276.99,95.7202 275.5,97.5C 272.926,98.4639 270.593,99.7972 268.5,101.5C 268.573,99.9731 267.906,98.9731 266.5,98.5C 268.552,96.122 270.552,93.7887 272.5,91.5C 272.685,89.8042 273.519,88.4709 275,87.5C 275.825,83.7887 275.659,80.122 274.5,76.5C 272.483,77.4447 272.15,78.9447 273.5,81C 273.316,82.3756 272.649,83.2089 271.5,83.5C 272.234,82.2921 272.567,80.9587 272.5,79.5C 269.433,79.8795 268.433,78.8795 269.5,76.5C 270.195,74.5627 269.195,73.5627 266.5,73.5C 266.962,72.1201 267.962,71.4534 269.5,71.5C 272.19,72.874 274.857,74.2073 277.5,75.5C 277.5,79.1667 277.5,82.8333 277.5,86.5 Z"/></g>
<g><path style="opacity:1" fill="#eb0c0c" d="M 285.5,76.5 C 285.038,78.7567 284.038,80.7567 282.5,82.5C 282.977,83.931 283.643,85.2643 284.5,86.5C 291.439,86.6768 298.439,86.8435 305.5,87C 306.445,89.4463 308.111,90.9463 310.5,91.5C 308.272,91.9702 306.939,92.9702 306.5,94.5C 303.45,94.0305 303.117,93.1971 305.5,92C 304.975,91.3076 304.308,90.8076 303.5,90.5C 297.531,92.0815 291.531,93.0815 285.5,93.5C 284.833,93.5 284.167,93.5 283.5,93.5C 282.183,93.821 280.849,94.1543 279.5,94.5C 278.994,93.1761 277.661,92.5094 275.5,92.5C 275.253,90.1417 275.919,88.1417 277.5,86.5C 278.492,86.6716 279.158,86.3382 279.5,85.5C 280.744,82.0177 282.744,79.0177 285.5,76.5 Z"/></g>
<g><path style="opacity:1" fill="#c11a15" d="M 321.5,82.5 C 322.167,82.5 322.833,82.5 323.5,82.5C 323.5,86.5 323.5,90.5 323.5,94.5C 319.466,94.5045 315.466,94.8379 311.5,95.5C 311.5,96.5 311.5,97.5 311.5,98.5C 311.167,98.5 310.833,98.5 310.5,98.5C 309.942,97.2101 308.942,96.3768 307.5,96C 303.311,94.3691 298.978,93.5357 294.5,93.5C 291.5,93.5 288.5,93.5 285.5,93.5C 291.531,93.0815 297.531,92.0815 303.5,90.5C 304.308,90.8076 304.975,91.3076 305.5,92C 303.117,93.1971 303.45,94.0305 306.5,94.5C 306.939,92.9702 308.272,91.9702 310.5,91.5C 311.552,92.5305 312.886,93.1971 314.5,93.5C 317.14,92.9049 319.807,92.5715 322.5,92.5C 322.658,89.0977 322.324,85.7644 321.5,82.5 Z"/></g>
<g><path style="opacity:1" fill="#7b1514" d="M 14.5,95.5 C 15.1667,95.5 15.8333,95.5 16.5,95.5C 22.1667,95.5 27.8333,95.5 33.5,95.5C 27.69,96.4896 21.69,96.8229 15.5,96.5C 15.5,97.5 15.5,98.5 15.5,99.5C 14.8333,99.1667 14.1667,98.8333 13.5,98.5C 13.5,97.8333 13.5,97.1667 13.5,96.5C 14.1667,96.5 14.5,96.1667 14.5,95.5 Z"/></g>
<g><path style="opacity:1" fill="#151313" d="M 75.5,93.5 C 76.8333,93.5 78.1667,93.5 79.5,93.5C 80.1667,93.5 80.8333,93.5 81.5,93.5C 83.4602,95.1563 85.4602,96.823 87.5,98.5C 84.4822,100.4 81.1488,101.733 77.5,102.5C 76.5084,102.672 75.8417,102.338 75.5,101.5C 75.5,98.8333 75.5,96.1667 75.5,93.5 Z"/></g>
<g><path style="opacity:1" fill="#6f433e" d="M 81.5,93.5 C 82.1667,93.5 82.8333,93.5 83.5,93.5C 86.593,95.0343 89.2597,97.0343 91.5,99.5C 90.2921,98.7659 88.9587,98.4326 87.5,98.5C 85.4602,96.823 83.4602,95.1563 81.5,93.5 Z"/></g>
<g><path style="opacity:1" fill="#970001" d="M 272.5,91.5 C 270.552,93.7887 268.552,96.122 266.5,98.5C 262.731,101.934 259.731,105.934 257.5,110.5C 259.968,102.046 264.968,95.7127 272.5,91.5 Z"/></g>
<g><path style="opacity:1" fill="#d1d0d0" d="M 285.5,93.5 C 288.5,93.5 291.5,93.5 294.5,93.5C 294.5,96.5 294.5,99.5 294.5,102.5C 290.665,103.004 290.665,104.004 294.5,105.5C 294.291,106.086 293.957,106.586 293.5,107C 289.952,107.441 286.952,108.941 284.5,111.5C 283.808,110.975 283.308,110.308 283,109.5C 281.989,110.337 280.822,110.67 279.5,110.5C 277.139,110.326 274.806,109.993 272.5,109.5C 271.359,108.661 270.026,107.994 268.5,107.5C 267.614,106.675 267.281,105.675 267.5,104.5C 270.018,102.586 272.685,102.753 275.5,105C 277.5,105.667 279.5,105.667 281.5,105C 278.167,103.667 274.833,102.333 271.5,101C 272.448,100.517 273.448,100.351 274.5,100.5C 277.699,101.899 281.032,102.899 284.5,103.5C 285.765,104.479 287.099,105.479 288.5,106.5C 289.429,105.311 289.762,103.978 289.5,102.5C 288.5,102.5 287.5,102.5 286.5,102.5C 286.768,100.901 286.434,99.5676 285.5,98.5C 285.5,96.8333 285.5,95.1667 285.5,93.5 Z"/></g>
<g><path style="opacity:1" fill="#932721" d="M 54.5,95.5 C 53.493,97.522 51.8263,98.8553 49.5,99.5C 48.8728,100.417 48.5394,101.417 48.5,102.5C 48.1667,102.5 47.8333,102.5 47.5,102.5C 47.33,101.178 47.6634,100.011 48.5,99C 47.5,98.1667 46.5,97.3333 45.5,96.5C 46.868,95.4063 48.0347,95.7397 49,97.5C 50.5843,96.1387 52.4176,95.472 54.5,95.5 Z"/></g>
<g><path style="opacity:1" fill="#9d0404" d="M 197.5,67.5 C 197.833,67.5 198.167,67.5 198.5,67.5C 200.833,67.5 203.167,67.5 205.5,67.5C 204.034,75.0958 203.034,82.7625 202.5,90.5C 202.833,92.8333 203.167,95.1667 203.5,97.5C 215.166,96.8125 226.833,96.1459 238.5,95.5C 238.5,96.1667 238.5,96.8333 238.5,97.5C 236.833,97.5 235.167,97.5 233.5,97.5C 223.258,97.8529 213.092,98.5196 203,99.5C 202.833,99.8333 202.667,100.167 202.5,100.5C 212.144,101.498 221.81,101.832 231.5,101.5C 231.167,102.5 230.5,103.167 229.5,103.5C 220.167,103.5 210.833,103.5 201.5,103.5C 201.833,108.833 202.167,114.167 202.5,119.5C 208.167,119.5 213.833,119.5 219.5,119.5C 186.338,120.609 153.004,121.275 119.5,121.5C 146.655,120.109 173.988,119.442 201.5,119.5C 200.902,114.187 200.569,108.854 200.5,103.5C 192.167,103.5 183.833,103.5 175.5,103.5C 175.5,103.167 175.5,102.833 175.5,102.5C 183.5,102.5 191.5,102.5 199.5,102.5C 199.5,101.167 199.5,99.8333 199.5,98.5C 186.16,98.6114 172.827,98.9447 159.5,99.5C 145.828,99.6391 132.161,99.9725 118.5,100.5C 118.657,104.273 120.324,105.273 123.5,103.5C 130.167,103.5 136.833,103.5 143.5,103.5C 143.5,103.833 143.5,104.167 143.5,104.5C 134.818,104.521 126.152,104.854 117.5,105.5C 117.5,103.167 117.5,100.833 117.5,98.5C 145.167,98.1825 172.834,97.8492 200.5,97.5C 200.5,95.1667 200.5,92.8333 200.5,90.5C 201.494,83.3046 202.494,75.9713 203.5,68.5C 198.527,69.1637 193.527,69.4971 188.5,69.5C 191.5,68.8333 194.5,68.1667 197.5,67.5 Z"/></g>
<g><path style="opacity:1" fill="#672421" d="M 281.5,95.5 C 279.412,96.2008 277.412,97.2008 275.5,98.5C 275.5,98.1667 275.5,97.8333 275.5,97.5C 276.99,95.7202 278.99,95.0535 281.5,95.5 Z"/></g>
<g><path style="opacity:1" fill="#5b4341" d="M 294.5,93.5 C 298.978,93.5357 303.311,94.3691 307.5,96C 308.942,96.3768 309.942,97.2101 310.5,98.5C 308.833,99.1667 307.167,99.8333 305.5,100.5C 305.67,99.1779 305.337,98.0113 304.5,97C 301.647,95.5699 298.647,94.7366 295.5,94.5C 295.5,97.5 295.5,100.5 295.5,103.5C 294.833,103.5 294.5,103.167 294.5,102.5C 294.5,99.5 294.5,96.5 294.5,93.5 Z"/></g>
<g><path style="opacity:1" fill="#e3403e" d="M 233.5,97.5 C 235.167,97.5 236.833,97.5 238.5,97.5C 241.107,98.7122 242.774,100.712 243.5,103.5C 241.94,105.156 240.94,107.156 240.5,109.5C 240.789,106.351 240.289,103.351 239,100.5C 237.444,98.3652 235.611,98.0319 233.5,99.5C 233.5,98.8333 233.5,98.1667 233.5,97.5 Z"/></g>
<g><path style="opacity:1" fill="#131212" d="M 305.5,100.5 C 302.426,101.302 299.426,102.302 296.5,103.5C 296.167,103.5 295.833,103.5 295.5,103.5C 295.5,100.5 295.5,97.5 295.5,94.5C 298.647,94.7366 301.647,95.5699 304.5,97C 305.337,98.0113 305.67,99.1779 305.5,100.5 Z"/></g>
<g><path style="opacity:1" fill="#191a19" d="M 59.5,93.5 C 61.8333,93.5 64.1667,93.5 66.5,93.5C 66.5,95.1667 66.5,96.8333 66.5,98.5C 66.8841,100.665 66.2174,102.332 64.5,103.5C 61.0176,102.257 57.6843,100.757 54.5,99C 56.3734,97.2962 58.0401,95.4628 59.5,93.5 Z"/></g>
<g><path style="opacity:1" fill="#f79a94" d="M 240.5,109.5 C 239.833,110.167 239.167,110.833 238.5,111.5C 238.802,108.941 238.468,106.607 237.5,104.5C 237.5,104.167 237.5,103.833 237.5,103.5C 236.552,102.022 235.219,101.022 233.5,100.5C 233.5,100.167 233.5,99.8333 233.5,99.5C 235.611,98.0319 237.444,98.3652 239,100.5C 240.289,103.351 240.789,106.351 240.5,109.5 Z"/></g>
<g><path style="opacity:1" fill="#e51b19" d="M 251.5,98.5 C 251.5,99.5 251.5,100.5 251.5,101.5C 250.167,101.5 248.833,101.5 247.5,101.5C 246.546,95.3751 247.879,94.3751 251.5,98.5 Z"/></g>
<g><path style="opacity:1" fill="#3f403e" d="M 327.5,96.5 C 328.756,98.7257 328.756,101.059 327.5,103.5C 327.167,103.5 326.833,103.5 326.5,103.5C 325.167,103.5 323.833,103.5 322.5,103.5C 321.833,103.5 321.5,103.167 321.5,102.5C 321.5,100.833 321.5,99.1667 321.5,97.5C 323.735,97.7947 325.735,97.4614 327.5,96.5 Z"/></g>
<g><path style="opacity:0.996" fill="#3a0a09" d="M 15.5,99.5 C 21.2709,98.8872 26.6042,99.5539 31.5,101.5C 30.391,101.557 29.391,101.89 28.5,102.5C 24.427,100.865 20.0937,99.8651 15.5,99.5 Z"/></g>
<g><path style="opacity:1" fill="#989392" d="M 58.5,93.5 C 58.8333,93.5 59.1667,93.5 59.5,93.5C 58.0401,95.4628 56.3734,97.2962 54.5,99C 57.6843,100.757 61.0176,102.257 64.5,103.5C 66.2174,102.332 66.8841,100.665 66.5,98.5C 67.3124,100.776 68.6458,102.776 70.5,104.5C 69.2178,107.133 67.8844,107.133 66.5,104.5C 65.5,105.167 64.5,105.833 63.5,106.5C 58.7049,104.407 53.7049,103.074 48.5,102.5C 48.5394,101.417 48.8728,100.417 49.5,99.5C 51.8263,98.8553 53.493,97.522 54.5,95.5C 56.0618,95.2671 57.3951,94.6005 58.5,93.5 Z"/></g>
<g><path style="opacity:1" fill="#e22827" d="M 159.5,99.5 C 150.172,100.4 140.672,101.067 131,101.5C 128.071,101.525 125.571,102.191 123.5,103.5C 120.324,105.273 118.657,104.273 118.5,100.5C 132.161,99.9725 145.828,99.6391 159.5,99.5 Z"/></g>
<g><path style="opacity:1" fill="#ea1211" d="M 175.5,102.5 C 164.654,102.172 153.987,102.506 143.5,103.5C 136.833,103.5 130.167,103.5 123.5,103.5C 125.571,102.191 128.071,101.525 131,101.5C 140.672,101.067 150.172,100.4 159.5,99.5C 172.827,98.9447 186.16,98.6114 199.5,98.5C 199.5,99.8333 199.5,101.167 199.5,102.5C 191.5,102.5 183.5,102.5 175.5,102.5 Z"/></g>
<g><path style="opacity:1" fill="#ee1313" d="M 233.5,97.5 C 233.5,98.1667 233.5,98.8333 233.5,99.5C 233.5,99.8333 233.5,100.167 233.5,100.5C 232.508,100.328 231.842,100.662 231.5,101.5C 221.81,101.832 212.144,101.498 202.5,100.5C 202.667,100.167 202.833,99.8333 203,99.5C 213.092,98.5196 223.258,97.8529 233.5,97.5 Z"/></g>
<g><path style="opacity:1" fill="#a21711" d="M 254.5,95.5 C 257.265,98.2562 256.599,100.423 252.5,102C 250.866,102.494 249.199,102.66 247.5,102.5C 247.5,102.167 247.5,101.833 247.5,101.5C 248.833,101.5 250.167,101.5 251.5,101.5C 251.5,100.5 251.5,99.5 251.5,98.5C 254.5,99.5 255.5,98.5 254.5,95.5 Z"/></g>
<g><path style="opacity:1" fill="#1a1a19" d="M 283.5,93.5 C 284.167,93.5 284.833,93.5 285.5,93.5C 285.5,95.1667 285.5,96.8333 285.5,98.5C 285.784,100.415 285.451,102.081 284.5,103.5C 281.032,102.899 277.699,101.899 274.5,100.5C 274.328,99.5084 274.662,98.8417 275.5,98.5C 277.412,97.2008 279.412,96.2008 281.5,95.5C 282.5,95.1667 283.167,94.5 283.5,93.5 Z"/></g>
<g><path style="opacity:1" fill="#cccccc" d="M 310.5,98.5 C 310.833,98.5 311.167,98.5 311.5,98.5C 313.06,100.954 314.06,103.62 314.5,106.5C 314.5,107.167 314.167,107.5 313.5,107.5C 310.99,107.927 308.657,108.593 306.5,109.5C 305.5,109.5 304.5,109.5 303.5,109.5C 302.761,109.631 302.094,109.464 301.5,109C 303.5,108.333 305.5,107.667 307.5,107C 304.344,106.397 301.344,106.897 298.5,108.5C 297.438,106.978 296.771,105.312 296.5,103.5C 299.426,102.302 302.426,101.302 305.5,100.5C 307.167,99.8333 308.833,99.1667 310.5,98.5 Z"/></g>
<g><path style="opacity:1" fill="#801611" d="M 323.5,94.5 C 324.167,94.5 324.833,94.5 325.5,94.5C 326.5,94.8333 327.167,95.5 327.5,96.5C 325.735,97.4614 323.735,97.7947 321.5,97.5C 321.5,99.1667 321.5,100.833 321.5,102.5C 320.539,100.735 320.205,98.7354 320.5,96.5C 321.873,96.6567 323.207,96.49 324.5,96C 323.944,95.6174 323.611,95.1174 323.5,94.5 Z"/></g>
<g><path style="opacity:1" fill="#ee0f0f" d="M 323.5,94.5 C 323.611,95.1174 323.944,95.6174 324.5,96C 323.207,96.49 321.873,96.6567 320.5,96.5C 320.205,98.7354 320.539,100.735 321.5,102.5C 321.5,103.167 321.833,103.5 322.5,103.5C 323.209,104.404 324.209,104.737 325.5,104.5C 325.665,108.182 325.499,111.848 325,115.5C 324.722,116.416 324.222,117.082 323.5,117.5C 321.5,117.5 319.5,117.5 317.5,117.5C 318.366,110.945 317.033,104.945 313.5,99.5C 313.043,98.7025 312.376,98.3691 311.5,98.5C 311.5,97.5 311.5,96.5 311.5,95.5C 315.466,94.8379 319.466,94.5045 323.5,94.5 Z"/></g>
<g><path style="opacity:1" fill="#2e302d" d="M 13.5,98.5 C 14.1667,98.8333 14.8333,99.1667 15.5,99.5C 20.0937,99.8651 24.427,100.865 28.5,102.5C 27.3065,103.272 26.3065,104.272 25.5,105.5C 21.4517,105.605 17.4517,105.272 13.5,104.5C 13.5,102.5 13.5,100.5 13.5,98.5 Z"/></g>
<g><path style="opacity:1" fill="#b60201" d="M 175.5,102.5 C 175.5,102.833 175.5,103.167 175.5,103.5C 164.852,104.277 154.185,104.61 143.5,104.5C 143.5,104.167 143.5,103.833 143.5,103.5C 153.987,102.506 164.654,102.172 175.5,102.5 Z"/></g>
<g><path style="opacity:1" fill="#e60f10" d="M 266.5,98.5 C 267.906,98.9731 268.573,99.9731 268.5,101.5C 267.89,102.391 267.557,103.391 267.5,104.5C 265.896,105.287 265.229,106.62 265.5,108.5C 264.026,109.436 263.026,110.77 262.5,112.5C 261.749,115.246 260.749,117.913 259.5,120.5C 257.801,120.66 256.134,120.494 254.5,120C 256.404,117.123 257.404,113.956 257.5,110.5C 259.731,105.934 262.731,101.934 266.5,98.5 Z"/></g>
<g><path style="opacity:1" fill="#948785" d="M 275.5,97.5 C 275.5,97.8333 275.5,98.1667 275.5,98.5C 274.662,98.8417 274.328,99.5084 274.5,100.5C 273.448,100.351 272.448,100.517 271.5,101C 274.833,102.333 278.167,103.667 281.5,105C 279.5,105.667 277.5,105.667 275.5,105C 272.685,102.753 270.018,102.586 267.5,104.5C 267.557,103.391 267.89,102.391 268.5,101.5C 270.593,99.7972 272.926,98.4639 275.5,97.5 Z"/></g>
<g><path style="opacity:1" fill="#787675" d="M 285.5,98.5 C 286.434,99.5676 286.768,100.901 286.5,102.5C 287.5,102.5 288.5,102.5 289.5,102.5C 289.762,103.978 289.429,105.311 288.5,106.5C 287.099,105.479 285.765,104.479 284.5,103.5C 285.451,102.081 285.784,100.415 285.5,98.5 Z"/></g>
<g><path style="opacity:0.145" fill="#c1a8a2" d="M 13.5,96.5 C 13.5,97.1667 13.5,97.8333 13.5,98.5C 13.5,100.5 13.5,102.5 13.5,104.5C 13.5,105.5 13.5,106.5 13.5,107.5C 14.0508,110.807 14.3841,114.14 14.5,117.5C 14.5,118.167 14.5,118.833 14.5,119.5C 13.0722,114.912 12.4055,110.079 12.5,105C 12.5022,101.979 12.8356,99.1459 13.5,96.5 Z"/></g>
<g><path style="opacity:1" fill="#f40505" d="M 183.5,75.5 C 181.394,75.679 179.728,76.679 178.5,78.5C 180.571,79.9759 181.571,81.9759 181.5,84.5C 184.843,84.2286 187.176,84.8953 188.5,86.5C 190.918,84.8439 193.418,84.5105 196,85.5C 198.024,85.2005 198.524,84.3671 197.5,83C 198.667,82.5 199.5,81.6667 200,80.5C 200.498,83.8168 200.665,87.1501 200.5,90.5C 200.5,92.8333 200.5,95.1667 200.5,97.5C 172.834,97.8492 145.167,98.1825 117.5,98.5C 117.5,100.833 117.5,103.167 117.5,105.5C 126.152,104.854 134.818,104.521 143.5,104.5C 154.185,104.61 164.852,104.277 175.5,103.5C 183.833,103.5 192.167,103.5 200.5,103.5C 200.569,108.854 200.902,114.187 201.5,119.5C 173.988,119.442 146.655,120.109 119.5,121.5C 118.5,121.5 117.5,121.5 116.5,121.5C 115.488,114.116 114.155,106.783 112.5,99.5C 112.5,93.8333 112.5,88.1667 112.5,82.5C 128.163,81.9793 143.83,81.4793 159.5,81C 159.833,80.6667 160.167,80.3333 160.5,80C 159,79.8333 157.5,79.6667 156,79.5C 152.173,80.239 148.34,80.4057 144.5,80C 144.043,79.586 143.709,79.086 143.5,78.5C 150.055,77.8157 156.555,77.149 163,76.5C 166.667,77.1667 170.333,77.8333 174,78.5C 174.903,77.2986 176.069,76.4652 177.5,76C 176.167,75.3333 176.167,74.6667 177.5,74C 179.833,73.3333 182.167,73.3333 184.5,74C 183.944,74.3826 183.611,74.8826 183.5,75.5 Z"/></g>
<g><path style="opacity:1" fill="#670c08" d="M 13.5,104.5 C 17.4517,105.272 21.4517,105.605 25.5,105.5C 21.6047,106.225 17.6047,106.891 13.5,107.5C 13.5,106.5 13.5,105.5 13.5,104.5 Z"/></g>
<g><path style="opacity:1" fill="#d2d1d2" d="M 75.5,93.5 C 75.5,96.1667 75.5,98.8333 75.5,101.5C 74.0689,101.119 73.2355,100.119 73,98.5C 72.5983,99.8721 72.0983,101.205 71.5,102.5C 72.9079,103.243 74.2412,104.077 75.5,105C 74.6634,106.011 74.33,107.178 74.5,108.5C 73.8444,107.722 73.0111,107.056 72,106.5C 69.671,107.826 67.3376,109.16 65,110.5C 64.0508,107.8 62.2175,106.967 59.5,108C 62.0972,108.779 62.0972,109.279 59.5,109.5C 57.0504,109.702 54.717,109.369 52.5,108.5C 51.791,107.596 50.791,107.263 49.5,107.5C 48.032,106.221 47.3653,104.554 47.5,102.5C 47.8333,102.5 48.1667,102.5 48.5,102.5C 53.7049,103.074 58.7049,104.407 63.5,106.5C 64.5,105.833 65.5,105.167 66.5,104.5C 67.8844,107.133 69.2178,107.133 70.5,104.5C 68.6458,102.776 67.3124,100.776 66.5,98.5C 66.5,96.8333 66.5,95.1667 66.5,93.5C 69.8103,93.3387 72.8103,93.3387 75.5,93.5 Z"/></g>
<g><path style="opacity:1" fill="#a60807" d="M 116.5,66.5 C 115.542,66.9528 114.708,67.6195 114,68.5C 111.398,78.866 110.898,89.1993 112.5,99.5C 114.155,106.783 115.488,114.116 116.5,121.5C 115.833,121.5 115.167,121.5 114.5,121.5C 112.096,110.451 110.43,99.2848 109.5,88C 109.82,80.9305 110.82,74.0972 112.5,67.5C 115.146,65.5211 117.479,63.1878 119.5,60.5C 118.767,59.913 117.767,59.913 116.5,60.5C 116.833,59.8333 117.167,59.1667 117.5,58.5C 119.027,58.573 120.027,57.9063 120.5,56.5C 121.167,56.5 121.833,56.5 122.5,56.5C 122.047,57.4584 121.381,58.2917 120.5,59C 121,59.1667 121.5,59.3333 122,59.5C 125.354,57.0882 128.854,55.2548 132.5,54C 126.916,57.945 121.583,62.1117 116.5,66.5 Z"/></g>
<g><path style="opacity:1" fill="#ec1611" d="M 237.5,103.5 C 237.5,103.833 237.5,104.167 237.5,104.5C 237.5,106.833 237.5,109.167 237.5,111.5C 235.856,111.286 234.356,111.62 233,112.5C 228.751,106.708 230.251,103.708 237.5,103.5 Z"/></g>
<g><path style="opacity:1" fill="#9c9c9c" d="M 75.5,101.5 C 75.8417,102.338 76.5084,102.672 77.5,102.5C 77.5774,103.75 78.244,104.583 79.5,105C 78.5494,105.718 78.3828,106.551 79,107.5C 91.2325,104.944 91.3992,105.444 79.5,109C 80.0944,109.464 80.7611,109.631 81.5,109.5C 80.4489,110.222 79.7822,111.222 79.5,112.5C 79.0667,109.741 77.4,108.408 74.5,108.5C 74.33,107.178 74.6634,106.011 75.5,105C 74.2412,104.077 72.9079,103.243 71.5,102.5C 72.0983,101.205 72.5983,99.8721 73,98.5C 73.2355,100.119 74.0689,101.119 75.5,101.5 Z"/></g>
<g><path style="opacity:1" fill="#d7d8d8" d="M 87.5,98.5 C 88.9587,98.4326 90.2921,98.7659 91.5,99.5C 93.2644,100.326 94.5977,101.659 95.5,103.5C 95.5,104.167 95.5,104.833 95.5,105.5C 94.5,106.167 93.5,106.833 92.5,107.5C 91.209,107.263 90.209,107.596 89.5,108.5C 86.7938,108.575 84.1272,108.908 81.5,109.5C 80.7611,109.631 80.0944,109.464 79.5,109C 91.3992,105.444 91.2325,104.944 79,107.5C 78.3828,106.551 78.5494,105.718 79.5,105C 78.244,104.583 77.5774,103.75 77.5,102.5C 81.1488,101.733 84.4822,100.4 87.5,98.5 Z"/></g>
<g><path style="opacity:0.616" fill="#793c34" d="M 322.5,103.5 C 323.833,103.5 325.167,103.5 326.5,103.5C 326.5,106.833 326.5,110.167 326.5,113.5C 326.354,117.387 325.687,121.054 324.5,124.5C 324.5,123.833 324.5,123.167 324.5,122.5C 324.5,121.833 324.167,121.5 323.5,121.5C 323.5,120.833 323.5,120.167 323.5,119.5C 323.5,118.833 323.5,118.167 323.5,117.5C 324.222,117.082 324.722,116.416 325,115.5C 325.499,111.848 325.665,108.182 325.5,104.5C 324.209,104.737 323.209,104.404 322.5,103.5 Z"/></g>
<g><path style="opacity:1" fill="#f80203" d="M 18.5,107.5 C 18.6107,108.117 18.944,108.617 19.5,109C 22.633,109.393 25.633,110.226 28.5,111.5C 29.9555,110.61 31.2888,110.61 32.5,111.5C 33.7481,110.96 34.9148,110.293 36,109.5C 37.487,110.253 37.6537,111.086 36.5,112C 37.624,112.249 38.624,112.749 39.5,113.5C 38.8885,117.82 38.2218,122.153 37.5,126.5C 34.1503,128.274 32.4836,127.274 32.5,123.5C 29.4466,123.089 26.4466,122.423 23.5,121.5C 22.914,121.709 22.414,122.043 22,122.5C 23.7419,116.528 23.9086,114.195 22.5,115.5C 20.4471,115.402 18.7804,116.069 17.5,117.5C 16.859,115.505 15.859,113.005 14.5,110C 15.4709,108.519 16.8042,107.685 18.5,107.5 Z"/></g>
<g><path style="opacity:1" fill="#404442" d="M 313.5,107.5 C 313.632,110.57 313.299,113.57 312.5,116.5C 312.167,117.167 311.833,117.833 311.5,118.5C 310.833,116.833 310.167,115.167 309.5,113.5C 309.5,112.167 309.5,110.833 309.5,109.5C 308.5,109.5 307.5,109.5 306.5,109.5C 308.657,108.593 310.99,107.927 313.5,107.5 Z"/></g>
<g><path style="opacity:0.125" fill="#c3b1ac" d="M 326.5,103.5 C 326.833,103.5 327.167,103.5 327.5,103.5C 328.043,103.56 328.376,103.893 328.5,104.5C 327.911,107.64 327.244,110.64 326.5,113.5C 326.5,110.167 326.5,106.833 326.5,103.5 Z"/></g>
<g><path style="opacity:1" fill="#867f7d" d="M 314.5,106.5 C 315.809,107.624 316.475,109.124 316.5,111C 315.923,113.137 315.59,115.304 315.5,117.5C 314.833,118.167 314.167,118.833 313.5,119.5C 313.737,118.209 313.404,117.209 312.5,116.5C 313.299,113.57 313.632,110.57 313.5,107.5C 314.167,107.5 314.5,107.167 314.5,106.5 Z"/></g>
<g><path style="opacity:1" fill="#cc1416" d="M 31.5,101.5 C 28.7756,107.029 24.4423,109.029 18.5,107.5C 16.8042,107.685 15.4709,108.519 14.5,110C 15.859,113.005 16.859,115.505 17.5,117.5C 18.675,117.281 19.675,117.614 20.5,118.5C 19.2299,119.288 18.2299,120.288 17.5,121.5C 16.0221,120.552 15.0221,119.219 14.5,117.5C 14.3841,114.14 14.0508,110.807 13.5,107.5C 17.6047,106.891 21.6047,106.225 25.5,105.5C 26.3065,104.272 27.3065,103.272 28.5,102.5C 29.391,101.89 30.391,101.557 31.5,101.5 Z"/></g>
<g><path style="opacity:1" fill="#444444" d="M 89.5,108.5 C 90.209,107.596 91.209,107.263 92.5,107.5C 93.6491,107.791 94.3158,108.624 94.5,110C 93.646,114.065 92.3127,117.898 90.5,121.5C 88.8041,123.129 87.8041,122.796 87.5,120.5C 91.1031,118.307 92.1031,115.307 90.5,111.5C 90.7373,110.209 90.404,109.209 89.5,108.5 Z"/></g>
<g><path style="opacity:1" fill="#ef100e" d="M 272.5,91.5 C 264.968,95.7127 259.968,102.046 257.5,110.5C 256.188,113.615 254.522,116.615 252.5,119.5C 245.5,119.5 238.5,119.5 231.5,119.5C 234.188,117.145 236.522,114.478 238.5,111.5C 239.167,110.833 239.833,110.167 240.5,109.5C 240.94,107.156 241.94,105.156 243.5,103.5C 245.798,106.347 247.131,106.013 247.5,102.5C 249.199,102.66 250.866,102.494 252.5,102C 256.599,100.423 257.265,98.2562 254.5,95.5C 253.518,91.6836 252.851,87.6836 252.5,83.5C 255.5,83.5 258.5,83.5 261.5,83.5C 262.25,87.6971 260.917,91.0305 257.5,93.5C 258.651,94.731 259.817,94.731 261,93.5C 263.132,89.7924 263.965,85.7924 263.5,81.5C 263.435,81.0618 263.601,80.7284 264,80.5C 264.759,82.0629 265.926,83.0629 267.5,83.5C 268.833,83.5 270.167,83.5 271.5,83.5C 272.649,83.2089 273.316,82.3756 273.5,81C 272.15,78.9447 272.483,77.4447 274.5,76.5C 275.659,80.122 275.825,83.7887 275,87.5C 273.519,88.4709 272.685,89.8042 272.5,91.5 Z"/></g>
<g><path style="opacity:1" fill="#1a1919" d="M 272.5,109.5 C 274.806,109.993 277.139,110.326 279.5,110.5C 280.398,111.158 281.398,111.824 282.5,112.5C 280.525,115.805 278.191,118.805 275.5,121.5C 271.737,118.112 270.737,114.112 272.5,109.5 Z"/></g>
<g><path style="opacity:1" fill="#666565" d="M 267.5,104.5 C 267.281,105.675 267.614,106.675 268.5,107.5C 270.026,107.994 271.359,108.661 272.5,109.5C 270.737,114.112 271.737,118.112 275.5,121.5C 274.878,122.627 274.045,123.627 273,124.5C 271.426,123.016 270.093,121.349 269,119.5C 268.601,119.728 268.435,120.062 268.5,120.5C 267.12,120.038 266.453,119.038 266.5,117.5C 265.698,114.551 265.364,111.551 265.5,108.5C 265.229,106.62 265.896,105.287 267.5,104.5 Z"/></g>
<g><path style="opacity:1" fill="#9d1311" d="M 311.5,98.5 C 312.376,98.3691 313.043,98.7025 313.5,99.5C 317.033,104.945 318.366,110.945 317.5,117.5C 319.5,117.5 321.5,117.5 323.5,117.5C 323.5,118.167 323.5,118.833 323.5,119.5C 321.473,119.338 319.473,119.505 317.5,120C 316.663,121.011 316.33,122.178 316.5,123.5C 319.211,123.815 321.544,123.148 323.5,121.5C 324.167,121.5 324.5,121.833 324.5,122.5C 321.855,124.242 318.855,124.909 315.5,124.5C 315.5,122.167 315.5,119.833 315.5,117.5C 315.59,115.304 315.923,113.137 316.5,111C 316.475,109.124 315.809,107.624 314.5,106.5C 314.06,103.62 313.06,100.954 311.5,98.5 Z"/></g>
<g><path style="opacity:1" fill="#ed110e" d="M 229.5,103.5 C 228.202,107.642 228.202,111.809 229.5,116C 229.613,117.699 228.947,118.866 227.5,119.5C 225.833,119.5 224.167,119.5 222.5,119.5C 220.095,115.559 218.761,111.225 218.5,106.5C 217.5,106.5 216.5,106.5 215.5,106.5C 216.365,110.956 217.699,115.29 219.5,119.5C 213.833,119.5 208.167,119.5 202.5,119.5C 202.167,114.167 201.833,108.833 201.5,103.5C 210.833,103.5 220.167,103.5 229.5,103.5 Z"/></g>
<g><path style="opacity:1" fill="#181818" d="M 303.5,109.5 C 304.5,109.5 305.5,109.5 306.5,109.5C 307.5,109.5 308.5,109.5 309.5,109.5C 309.5,110.833 309.5,112.167 309.5,113.5C 309.275,116.546 307.942,118.879 305.5,120.5C 302.806,118.473 300.473,116.139 298.5,113.5C 299.591,111.466 301.257,110.132 303.5,109.5 Z"/></g>
<g><path style="opacity:1" fill="#a7a8a8" d="M 95.5,105.5 C 97.2605,111.283 96.2605,116.616 92.5,121.5C 92.0623,120.494 91.3957,120.494 90.5,121.5C 92.3127,117.898 93.646,114.065 94.5,110C 94.3158,108.624 93.6491,107.791 92.5,107.5C 93.5,106.833 94.5,106.167 95.5,105.5 Z"/></g>
<g><path style="opacity:1" fill="#d7d6d7" d="M 298.5,113.5 C 300.473,116.139 302.806,118.473 305.5,120.5C 306.584,124.082 308.417,124.416 311,121.5C 311.483,120.552 311.649,119.552 311.5,118.5C 311.833,117.833 312.167,117.167 312.5,116.5C 313.404,117.209 313.737,118.209 313.5,119.5C 312.214,122.117 310.547,124.45 308.5,126.5C 304.898,122.395 301.065,118.395 297,114.5C 297.044,116.279 297.711,117.945 299,119.5C 302.058,122.056 304.558,125.056 306.5,128.5C 305.395,129.6 304.062,130.267 302.5,130.5C 301.778,129.449 300.778,128.782 299.5,128.5C 299.167,127.5 298.5,126.833 297.5,126.5C 295.566,123.227 293.232,120.227 290.5,117.5C 288.016,119.8 286.016,122.467 284.5,125.5C 283.833,126.167 283.167,126.833 282.5,127.5C 281.603,126.402 280.77,126.402 280,127.5C 279.508,126.451 279.674,125.451 280.5,124.5C 279.975,123.808 279.308,123.308 278.5,123C 281.188,120.17 283.188,117.004 284.5,113.5C 286.124,113.64 287.29,112.973 288,111.5C 288.725,112.059 289.558,112.392 290.5,112.5C 293.948,108.221 296.615,108.554 298.5,113.5 Z"/></g>
<g><path style="opacity:1" fill="#a9a9a9" d="M 294.5,102.5 C 294.5,103.167 294.833,103.5 295.5,103.5C 295.833,103.5 296.167,103.5 296.5,103.5C 296.771,105.312 297.438,106.978 298.5,108.5C 301.344,106.897 304.344,106.397 307.5,107C 305.5,107.667 303.5,108.333 301.5,109C 302.094,109.464 302.761,109.631 303.5,109.5C 301.257,110.132 299.591,111.466 298.5,113.5C 296.615,108.554 293.948,108.221 290.5,112.5C 289.558,112.392 288.725,112.059 288,111.5C 287.29,112.973 286.124,113.64 284.5,113.5C 283.188,117.004 281.188,120.17 278.5,123C 279.308,123.308 279.975,123.808 280.5,124.5C 279.674,125.451 279.508,126.451 280,127.5C 280.77,126.402 281.603,126.402 282.5,127.5C 281.15,128.824 281.317,129.824 283,130.5C 287.826,131.804 292.659,131.804 297.5,130.5C 298.713,130.253 299.38,129.586 299.5,128.5C 300.778,128.782 301.778,129.449 302.5,130.5C 291.897,135.334 281.897,134.168 272.5,127C 270.266,125.362 268.933,123.195 268.5,120.5C 268.435,120.062 268.601,119.728 269,119.5C 270.093,121.349 271.426,123.016 273,124.5C 274.045,123.627 274.878,122.627 275.5,121.5C 278.191,118.805 280.525,115.805 282.5,112.5C 281.398,111.824 280.398,111.158 279.5,110.5C 280.822,110.67 281.989,110.337 283,109.5C 283.308,110.308 283.808,110.975 284.5,111.5C 286.952,108.941 289.952,107.441 293.5,107C 293.957,106.586 294.291,106.086 294.5,105.5C 290.665,104.004 290.665,103.004 294.5,102.5 Z"/></g>
<g><path style="opacity:1" fill="#878887" d="M 309.5,113.5 C 310.167,115.167 310.833,116.833 311.5,118.5C 311.649,119.552 311.483,120.552 311,121.5C 308.417,124.416 306.584,124.082 305.5,120.5C 307.942,118.879 309.275,116.546 309.5,113.5 Z"/></g>
<g><path style="opacity:1" fill="#ef837b" d="M 233.5,100.5 C 235.219,101.022 236.552,102.022 237.5,103.5C 230.251,103.708 228.751,106.708 233,112.5C 234.356,111.62 235.856,111.286 237.5,111.5C 237.5,109.167 237.5,106.833 237.5,104.5C 238.468,106.607 238.802,108.941 238.5,111.5C 236.522,114.478 234.188,117.145 231.5,119.5C 230.833,120.167 230.167,120.833 229.5,121.5C 228.167,122.833 226.833,124.167 225.5,125.5C 225.167,126.167 224.833,126.833 224.5,127.5C 223.5,127.5 222.5,127.5 221.5,127.5C 221.5,126.833 221.5,126.167 221.5,125.5C 221.737,124.209 221.404,123.209 220.5,122.5C 220.737,121.209 220.404,120.209 219.5,119.5C 217.699,115.29 216.365,110.956 215.5,106.5C 216.5,106.5 217.5,106.5 218.5,106.5C 218.761,111.225 220.095,115.559 222.5,119.5C 224.038,122.048 225.704,122.048 227.5,119.5C 228.947,118.866 229.613,117.699 229.5,116C 228.202,111.809 228.202,107.642 229.5,103.5C 230.5,103.167 231.167,102.5 231.5,101.5C 231.842,100.662 232.508,100.328 233.5,100.5 Z"/></g>
<g><path style="opacity:1" fill="#ee1116" d="M 323.5,119.5 C 323.5,120.167 323.5,120.833 323.5,121.5C 321.544,123.148 319.211,123.815 316.5,123.5C 316.33,122.178 316.663,121.011 317.5,120C 319.473,119.505 321.473,119.338 323.5,119.5 Z"/></g>
<g><path style="opacity:0.593" fill="#050403" d="M 46.5,103.5 C 44.6222,116.901 49.9555,126.401 62.5,132C 69.6963,134.09 76.6963,133.59 83.5,130.5C 88.6034,131.331 93.9367,131.497 99.5,131C 100.373,129.955 101.373,129.122 102.5,128.5C 102.5,129.5 102.5,130.5 102.5,131.5C 103.5,131.5 104.5,131.5 105.5,131.5C 107.5,131.5 109.5,131.5 111.5,131.5C 143.338,131.832 175.004,131.498 206.5,130.5C 206.833,130.5 207.167,130.5 207.5,130.5C 221.5,130.5 235.5,130.5 249.5,130.5C 250.167,130.5 250.833,130.5 251.5,130.5C 257.642,133.231 260.309,131.231 259.5,124.5C 261.692,120.902 262.692,116.902 262.5,112.5C 263.026,110.77 264.026,109.436 265.5,108.5C 265.364,111.551 265.698,114.551 266.5,117.5C 266.453,119.038 267.12,120.038 268.5,120.5C 268.933,123.195 270.266,125.362 272.5,127C 281.897,134.168 291.897,135.334 302.5,130.5C 304.062,130.267 305.395,129.6 306.5,128.5C 307.5,128.167 308.167,127.5 308.5,126.5C 310.547,124.45 312.214,122.117 313.5,119.5C 314.167,118.833 314.833,118.167 315.5,117.5C 315.5,119.833 315.5,122.167 315.5,124.5C 318.855,124.909 321.855,124.242 324.5,122.5C 324.5,123.167 324.5,123.833 324.5,124.5C 321.489,131.538 316.156,136.038 308.5,138C 301.99,140.102 295.323,141.435 288.5,142C 278.658,142.17 268.991,142.67 259.5,143.5C 259.167,143.5 258.833,143.5 258.5,143.5C 258.167,142.167 257.833,142.167 257.5,143.5C 257.167,143.5 256.833,143.5 256.5,143.5C 255.833,142.167 255.167,142.167 254.5,143.5C 191.833,143.5 129.167,143.5 66.5,143.5C 66.1667,142.167 65.8333,142.167 65.5,143.5C 65.1667,143.5 64.8333,143.5 64.5,143.5C 60.4345,142.807 56.2679,142.14 52,141.5C 46.3611,141.797 40.3611,142.13 34,142.5C 28.7245,141.298 23.8912,139.131 19.5,136C 19.799,134.68 19.9657,133.18 20,131.5C 22.012,130.434 22.512,129.1 21.5,127.5C 22.8333,127.5 24.1667,127.5 25.5,127.5C 27.8066,129.047 30.4733,129.713 33.5,129.5C 35.6965,129.495 37.6965,129.162 39.5,128.5C 39.5,128.167 39.5,127.833 39.5,127.5C 41.1357,123.79 41.8023,119.79 41.5,115.5C 42.3892,111.163 44.0559,107.163 46.5,103.5 Z"/></g>
<g><path style="opacity:1" fill="#deddde" d="M 74.5,108.5 C 77.4,108.408 79.0667,109.741 79.5,112.5C 81.5293,114.858 83.5293,117.192 85.5,119.5C 85.8417,120.338 86.5084,120.672 87.5,120.5C 87.8041,122.796 88.8041,123.129 90.5,121.5C 91.3957,120.494 92.0623,120.494 92.5,121.5C 91.9744,123.23 90.9744,124.564 89.5,125.5C 85.2087,121.875 81.2087,117.875 77.5,113.5C 76.5923,114.79 76.759,116.123 78,117.5C 81.1463,120.96 84.3129,124.293 87.5,127.5C 86.4863,128.674 85.153,129.34 83.5,129.5C 82.2223,129.218 81.2223,128.551 80.5,127.5C 79.8333,127.167 79.1667,126.833 78.5,126.5C 76.6889,123.556 74.8556,120.556 73,117.5C 71.8545,116.316 70.6879,116.316 69.5,117.5C 68.4168,117.539 67.4168,117.873 66.5,118.5C 60.211,129.199 59.0443,128.866 63,117.5C 64.5615,115.027 66.5615,113.027 69,111.5C 71.0344,112.862 73.2011,113.862 75.5,114.5C 75.6399,112.876 74.9733,111.71 73.5,111C 74.2524,110.329 74.5858,109.496 74.5,108.5 Z"/></g>
<g><path style="opacity:1" fill="#b00e0d" d="M 257.5,110.5 C 257.404,113.956 256.404,117.123 254.5,120C 256.134,120.494 257.801,120.66 259.5,120.5C 259.5,121.833 259.5,123.167 259.5,124.5C 260.309,131.231 257.642,133.231 251.5,130.5C 257.502,131.196 259.835,128.529 258.5,122.5C 256.265,122.795 254.265,122.461 252.5,121.5C 253.506,121.062 253.506,120.396 252.5,119.5C 254.522,116.615 256.188,113.615 257.5,110.5 Z"/></g>
<g><path style="opacity:1" fill="#4d0404" d="M 262.5,112.5 C 262.692,116.902 261.692,120.902 259.5,124.5C 259.5,123.167 259.5,121.833 259.5,120.5C 260.749,117.913 261.749,115.246 262.5,112.5 Z"/></g>
<g><path style="opacity:1" fill="#6d0405" d="M 231.5,119.5 C 238.5,119.5 245.5,119.5 252.5,119.5C 253.506,120.396 253.506,121.062 252.5,121.5C 244.833,121.5 237.167,121.5 229.5,121.5C 230.167,120.833 230.833,120.167 231.5,119.5 Z"/></g>
<g><path style="opacity:1" fill="#8f0102" d="M 219.5,119.5 C 220.404,120.209 220.737,121.209 220.5,122.5C 181.761,122.173 143.094,122.506 104.5,123.5C 104.5,122.833 104.5,122.167 104.5,121.5C 107.833,121.5 111.167,121.5 114.5,121.5C 115.167,121.5 115.833,121.5 116.5,121.5C 117.5,121.5 118.5,121.5 119.5,121.5C 153.004,121.275 186.338,120.609 219.5,119.5 Z"/></g>
<g><path style="opacity:1" fill="#9d9d9d" d="M 89.5,125.5 C 89.1667,126.5 88.5,127.167 87.5,127.5C 84.3129,124.293 81.1463,120.96 78,117.5C 76.759,116.123 76.5923,114.79 77.5,113.5C 81.2087,117.875 85.2087,121.875 89.5,125.5 Z"/></g>
<g><path style="opacity:1" fill="#181717" d="M 78.5,126.5 C 73.6612,128.144 68.9946,127.81 64.5,125.5C 66.1933,122.816 67.86,120.149 69.5,117.5C 70.6879,116.316 71.8545,116.316 73,117.5C 74.8556,120.556 76.6889,123.556 78.5,126.5 Z"/></g>
<g><path style="opacity:1" fill="#7d201c" d="M 222.5,119.5 C 224.167,119.5 225.833,119.5 227.5,119.5C 225.704,122.048 224.038,122.048 222.5,119.5 Z"/></g>
<g><path style="opacity:1" fill="#171616" d="M 297.5,126.5 C 296.081,127.451 294.415,127.784 292.5,127.5C 289.302,128.036 286.635,127.369 284.5,125.5C 286.016,122.467 288.016,119.8 290.5,117.5C 293.232,120.227 295.566,123.227 297.5,126.5 Z"/></g>
<g><path style="opacity:1" fill="#8e8f8f" d="M 90.5,111.5 C 92.1031,115.307 91.1031,118.307 87.5,120.5C 86.5084,120.672 85.8417,120.338 85.5,119.5C 88.1399,117.577 89.8065,114.91 90.5,111.5 Z"/></g>
<g><path style="opacity:1" fill="#121212" d="M 89.5,108.5 C 90.404,109.209 90.7373,110.209 90.5,111.5C 89.8065,114.91 88.1399,117.577 85.5,119.5C 83.5293,117.192 81.5293,114.858 79.5,112.5C 79.7822,111.222 80.4489,110.222 81.5,109.5C 84.1272,108.908 86.7938,108.575 89.5,108.5 Z"/></g>
<g><path style="opacity:0.125" fill="#4f3d3b" d="M 14.5,117.5 C 15.0221,119.219 16.0221,120.552 17.5,121.5C 17.5,122.167 17.5,122.833 17.5,123.5C 18.8333,124.833 20.1667,126.167 21.5,127.5C 17.0409,126.707 14.7076,124.04 14.5,119.5C 14.5,118.833 14.5,118.167 14.5,117.5 Z"/></g>
<g><path style="opacity:1" fill="#750303" d="M 41.5,115.5 C 41.8023,119.79 41.1357,123.79 39.5,127.5C 39.1977,123.21 39.8643,119.21 41.5,115.5 Z"/></g>
<g><path style="opacity:1" fill="#919191" d="M 308.5,126.5 C 308.167,127.5 307.5,128.167 306.5,128.5C 304.558,125.056 302.058,122.056 299,119.5C 297.711,117.945 297.044,116.279 297,114.5C 301.065,118.395 304.898,122.395 308.5,126.5 Z"/></g>
<g><path style="opacity:0.996" fill="#b42827" d="M 17.5,123.5 C 20.4366,124.472 23.1033,125.805 25.5,127.5C 24.1667,127.5 22.8333,127.5 21.5,127.5C 20.1667,126.167 18.8333,124.833 17.5,123.5 Z"/></g>
<g><path style="opacity:1" fill="#ed110e" d="M 220.5,122.5 C 221.404,123.209 221.737,124.209 221.5,125.5C 185.5,125.5 149.5,125.5 113.5,125.5C 113.747,127.858 113.081,129.858 111.5,131.5C 109.5,131.5 107.5,131.5 105.5,131.5C 104.612,128.946 104.279,126.279 104.5,123.5C 143.094,122.506 181.761,122.173 220.5,122.5 Z"/></g>
<g><path style="opacity:1" fill="#f00a09" d="M 229.5,121.5 C 237.167,121.5 244.833,121.5 252.5,121.5C 254.265,122.461 256.265,122.795 258.5,122.5C 259.835,128.529 257.502,131.196 251.5,130.5C 250.833,130.5 250.167,130.5 249.5,130.5C 241.873,127.598 233.873,125.931 225.5,125.5C 226.833,124.167 228.167,122.833 229.5,121.5 Z"/></g>
<g><path style="opacity:1" fill="#600304" d="M 103.5,121.5 C 103.833,121.5 104.167,121.5 104.5,121.5C 104.5,122.167 104.5,122.833 104.5,123.5C 104.279,126.279 104.612,128.946 105.5,131.5C 104.5,131.5 103.5,131.5 102.5,131.5C 102.5,130.5 102.5,129.5 102.5,128.5C 103.369,126.283 103.702,123.95 103.5,121.5 Z"/></g>
<g><path style="opacity:1" fill="#aeaeaf" d="M 47.5,102.5 C 47.3653,104.554 48.032,106.221 49.5,107.5C 48.7611,107.369 48.0944,107.536 47.5,108C 48.1162,111.863 48.9495,115.696 50,119.5C 51.7903,124.181 53.957,124.514 56.5,120.5C 58.4611,118.037 60.6278,115.703 63,113.5C 63.4828,112.552 63.6495,111.552 63.5,110.5C 61.901,110.768 60.5676,110.434 59.5,109.5C 62.0972,109.279 62.0972,108.779 59.5,108C 62.2175,106.967 64.0508,107.8 65,110.5C 67.3376,109.16 69.671,107.826 72,106.5C 73.0111,107.056 73.8444,107.722 74.5,108.5C 74.5858,109.496 74.2524,110.329 73.5,111C 74.9733,111.71 75.6399,112.876 75.5,114.5C 73.2011,113.862 71.0344,112.862 69,111.5C 66.5615,113.027 64.5615,115.027 63,117.5C 59.0443,128.866 60.211,129.199 66.5,118.5C 67.4168,117.873 68.4168,117.539 69.5,117.5C 67.86,120.149 66.1933,122.816 64.5,125.5C 68.9946,127.81 73.6612,128.144 78.5,126.5C 78.3893,127.117 78.056,127.617 77.5,128C 72.778,128.777 68.1113,128.61 63.5,127.5C 62.2888,128.274 62.2888,129.107 63.5,130C 67.5,130.667 71.5,130.667 75.5,130C 77.744,129.95 79.4107,129.117 80.5,127.5C 81.2223,128.551 82.2223,129.218 83.5,129.5C 83.5,129.833 83.5,130.167 83.5,130.5C 76.6963,133.59 69.6963,134.09 62.5,132C 49.9555,126.401 44.6222,116.901 46.5,103.5C 46.5,102.833 46.8333,102.5 47.5,102.5 Z"/></g>
<g><path style="opacity:1" fill="#535454" d="M 49.5,107.5 C 50.791,107.263 51.791,107.596 52.5,108.5C 51.1924,113.245 52.5257,117.245 56.5,120.5C 53.957,124.514 51.7903,124.181 50,119.5C 48.9495,115.696 48.1162,111.863 47.5,108C 48.0944,107.536 48.7611,107.369 49.5,107.5 Z"/></g>
<g><path style="opacity:1" fill="#1b1a1a" d="M 52.5,108.5 C 54.717,109.369 57.0504,109.702 59.5,109.5C 60.5676,110.434 61.901,110.768 63.5,110.5C 63.6495,111.552 63.4828,112.552 63,113.5C 60.6278,115.703 58.4611,118.037 56.5,120.5C 52.5257,117.245 51.1924,113.245 52.5,108.5 Z"/></g>
<g><path style="opacity:1" fill="#191717" d="M 95.5,103.5 C 100.849,108.11 103.515,114.11 103.5,121.5C 103.702,123.95 103.369,126.283 102.5,128.5C 101.373,129.122 100.373,129.955 99.5,131C 93.9367,131.497 88.6034,131.331 83.5,130.5C 83.5,130.167 83.5,129.833 83.5,129.5C 85.153,129.34 86.4863,128.674 87.5,127.5C 88.5,127.167 89.1667,126.5 89.5,125.5C 90.9744,124.564 91.9744,123.23 92.5,121.5C 96.2605,116.616 97.2605,111.283 95.5,105.5C 95.5,104.833 95.5,104.167 95.5,103.5 Z"/></g>
<g><path style="opacity:1" fill="#a00a0c" d="M 221.5,125.5 C 221.5,126.167 221.5,126.833 221.5,127.5C 187.493,127.167 153.493,127.5 119.5,128.5C 120.025,129.192 120.692,129.692 121.5,130C 149.831,130.5 178.165,130.667 206.5,130.5C 175.004,131.498 143.338,131.832 111.5,131.5C 113.081,129.858 113.747,127.858 113.5,125.5C 149.5,125.5 185.5,125.5 221.5,125.5 Z"/></g>
<g><path style="opacity:1" fill="#da0808" d="M 221.5,127.5 C 222.5,127.5 223.5,127.5 224.5,127.5C 229.58,127.25 234.58,127.75 239.5,129C 228.659,129.17 217.992,129.67 207.5,130.5C 207.167,130.5 206.833,130.5 206.5,130.5C 178.165,130.667 149.831,130.5 121.5,130C 120.692,129.692 120.025,129.192 119.5,128.5C 153.493,127.5 187.493,127.167 221.5,127.5 Z"/></g>
<g><path style="opacity:1" fill="#8c110e" d="M 225.5,125.5 C 233.873,125.931 241.873,127.598 249.5,130.5C 235.5,130.5 221.5,130.5 207.5,130.5C 217.992,129.67 228.659,129.17 239.5,129C 234.58,127.75 229.58,127.25 224.5,127.5C 224.833,126.833 225.167,126.167 225.5,125.5 Z"/></g>
<g><path style="opacity:0.776" fill="#8e191a" d="M 25.5,127.5 C 30.1304,128.229 34.7971,128.563 39.5,128.5C 37.6965,129.162 35.6965,129.495 33.5,129.5C 30.4733,129.713 27.8066,129.047 25.5,127.5 Z"/></g>
<g><path style="opacity:1" fill="#848585" d="M 297.5,126.5 C 298.5,126.833 299.167,127.5 299.5,128.5C 295.192,129.368 290.859,129.534 286.5,129C 288.708,128.809 290.708,128.309 292.5,127.5C 294.415,127.784 296.081,127.451 297.5,126.5 Z"/></g>
<g><path style="opacity:1" fill="#474748" d="M 78.5,126.5 C 79.1667,126.833 79.8333,127.167 80.5,127.5C 79.4107,129.117 77.744,129.95 75.5,130C 71.5,130.667 67.5,130.667 63.5,130C 62.2888,129.107 62.2888,128.274 63.5,127.5C 68.1113,128.61 72.778,128.777 77.5,128C 78.056,127.617 78.3893,127.117 78.5,126.5 Z"/></g>
<g><path style="opacity:1" fill="#494949" d="M 284.5,125.5 C 286.635,127.369 289.302,128.036 292.5,127.5C 290.708,128.309 288.708,128.809 286.5,129C 290.859,129.534 295.192,129.368 299.5,128.5C 299.38,129.586 298.713,130.253 297.5,130.5C 292.659,131.804 287.826,131.804 283,130.5C 281.317,129.824 281.15,128.824 282.5,127.5C 283.167,126.833 283.833,126.167 284.5,125.5 Z"/></g>
</svg>
