<?xml version="1.0" encoding="UTF-8"?>
<!DOCTYPE svg PUBLIC "-//W3C//DTD SVG 1.1//EN" "http://www.w3.org/Graphics/SVG/1.1/DTD/svg11.dtd">
<svg xmlns="http://www.w3.org/2000/svg" version="1.1" width="50px" height="50px" style="shape-rendering:geometricPrecision; text-rendering:geometricPrecision; image-rendering:optimizeQuality; fill-rule:evenodd; clip-rule:evenodd" xmlns:xlink="http://www.w3.org/1999/xlink">
<g><path style="opacity:0.777" fill="#fb7368" d="M -0.5,1.5 C 7.59169,-0.727591 11.5917,2.27241 11.5,10.5C 24.2164,10.2051 36.883,10.5385 49.5,11.5C 49.5,14.1667 49.5,16.8333 49.5,19.5C 48.3948,24.1495 46.7281,28.6495 44.5,33C 33.6751,33.023 23.0084,33.6897 12.5,35C 23.337,36.4758 34.337,36.9758 45.5,36.5C 45.464,40.5693 44.1307,44.0693 41.5,47C 36.3548,48.0297 33.6881,45.8631 33.5,40.5C 31.1667,40.5 28.8333,40.5 26.5,40.5C 26.3119,45.8631 23.6452,48.0297 18.5,47C 16.3722,45.3331 15.0389,43.1664 14.5,40.5C 6.92079,37.2696 6.58746,33.4362 13.5,29C 10.7954,21.6862 8.62877,14.1862 7,6.5C 4.6194,5.565 2.1194,5.23166 -0.5,5.5C -0.5,4.16667 -0.5,2.83333 -0.5,1.5 Z M 13.5,14.5 C 15.1667,14.5 16.8333,14.5 18.5,14.5C 18.8333,16.5 19.1667,18.5 19.5,20.5C 17.8333,20.5 16.1667,20.5 14.5,20.5C 14.1667,18.5 13.8333,16.5 13.5,14.5 Z M 22.5,14.5 C 24.5,14.5 26.5,14.5 28.5,14.5C 28.5,16.5 28.5,18.5 28.5,20.5C 26.8333,20.5 25.1667,20.5 23.5,20.5C 23.1667,18.5 22.8333,16.5 22.5,14.5 Z M 31.5,15.5 C 33.2646,14.5386 35.2646,14.2053 37.5,14.5C 37.1667,16.5 36.8333,18.5 36.5,20.5C 34.8008,20.6602 33.1341,20.4935 31.5,20C 32.8009,18.3845 32.8009,16.8845 31.5,15.5 Z M 41.5,14.5 C 42.8333,14.5 44.1667,14.5 45.5,14.5C 46.1518,18.5601 44.4851,20.5601 40.5,20.5C 40.8333,18.5 41.1667,16.5 41.5,14.5 Z M 15.5,25.5 C 16.9187,24.5489 18.5853,24.2155 20.5,24.5C 20.5,26.1667 20.5,27.8333 20.5,29.5C 19.1667,29.5 17.8333,29.5 16.5,29.5C 16.7678,27.901 16.4345,26.5676 15.5,25.5 Z M 23.5,25.5 C 24.9187,24.5489 26.5853,24.2155 28.5,24.5C 28.5,26.1667 28.5,27.8333 28.5,29.5C 27.1667,29.5 25.8333,29.5 24.5,29.5C 24.7678,27.901 24.4345,26.5676 23.5,25.5 Z M 31.5,25.5 C 32.9464,24.3871 34.6131,24.2204 36.5,25C 35.6198,26.3561 35.2865,27.8561 35.5,29.5C 34.1266,29.6567 32.7932,29.49 31.5,29C 32.7911,27.7083 32.7911,26.5417 31.5,25.5 Z M 39.5,24.5 C 40.8333,24.5 42.1667,24.5 43.5,24.5C 43.8034,27.5876 42.4701,29.2542 39.5,29.5C 39.5,27.8333 39.5,26.1667 39.5,24.5 Z M 19.5,40.5 C 21.3547,40.272 22.1881,40.9387 22,42.5C 19.3655,43.6922 18.5322,43.0256 19.5,40.5 Z M 37.5,40.5 C 41.1611,40.4257 41.8277,41.4257 39.5,43.5C 38.0815,42.9953 37.4148,41.9953 37.5,40.5 Z"/></g>
</svg>
