<?xml version="1.0" encoding="UTF-8"?>
<!DOCTYPE svg PUBLIC "-//W3C//DTD SVG 1.1//EN" "http://www.w3.org/Graphics/SVG/1.1/DTD/svg11.dtd">
<svg xmlns="http://www.w3.org/2000/svg" version="1.1" width="365px" height="266px" style="shape-rendering:geometricPrecision; text-rendering:geometricPrecision; image-rendering:optimizeQuality; fill-rule:evenodd; clip-rule:evenodd" xmlns:xlink="http://www.w3.org/1999/xlink">
<g><path style="opacity:1" fill="#fb7468" d="M 328.5,7.5 C 348.377,5.6763 357.543,14.6763 356,34.5C 355.275,36.9494 354.275,39.2827 353,41.5C 283.139,111.694 212.973,181.528 142.5,251C 134.165,254.626 126.165,253.959 118.5,249C 85.3333,215.833 52.1667,182.667 19,149.5C 12.1045,138.071 13.2712,127.571 22.5,118C 30.1654,113.041 38.1654,112.374 46.5,116C 75.3055,143.805 103.805,171.972 132,200.5C 194.833,137.667 257.667,74.8333 320.5,12C 323.099,10.205 325.766,8.70496 328.5,7.5 Z"/></g>
</svg>
