<?xml version="1.0" encoding="UTF-8"?>
<!DOCTYPE svg PUBLIC "-//W3C//DTD SVG 1.1//EN" "http://www.w3.org/Graphics/SVG/1.1/DTD/svg11.dtd">
<svg xmlns="http://www.w3.org/2000/svg" version="1.1" width="30px" height="30px" style="shape-rendering:geometricPrecision; text-rendering:geometricPrecision; image-rendering:optimizeQuality; fill-rule:evenodd; clip-rule:evenodd" xmlns:xlink="http://www.w3.org/1999/xlink">
<g><path style="opacity:0.88" fill="#fb7368" d="M 7.5,-0.5 C 9.16667,-0.5 10.8333,-0.5 12.5,-0.5C 12.8333,0.833333 13.1667,0.833333 13.5,-0.5C 14.8333,-0.5 16.1667,-0.5 17.5,-0.5C 17.8333,0.833333 18.1667,0.833333 18.5,-0.5C 19.5,-0.5 20.5,-0.5 21.5,-0.5C 21.7035,1.39037 21.0368,2.89037 19.5,4C 22.2494,5.34622 22.5828,6.67955 20.5,8C 25.6166,12.3912 27.7833,17.8912 27,24.5C 25.2703,26.4019 23.437,28.0686 21.5,29.5C 16.8333,29.5 12.1667,29.5 7.5,29.5C 0.400464,24.641 -0.432869,18.641 5,11.5C 7.49687,10.1123 8.3302,8.27898 7.5,6C 7.90536,5.05456 8.57203,4.38789 9.5,4C 8.41782,2.67028 7.75115,1.17028 7.5,-0.5 Z M 16.5,22.5 C 16.719,21.325 16.3857,20.325 15.5,19.5C 10.3926,17.267 10.2259,14.6004 15,11.5C 18.5684,15.034 18.0684,16.034 13.5,14.5C 13.281,15.675 13.6143,16.675 14.5,17.5C 16.2303,18.0256 17.5637,19.0256 18.5,20.5C 18.1445,21.5223 17.4778,22.189 16.5,22.5 Z M 16.5,22.5 C 16.0133,23.4734 15.5133,24.4734 15,25.5C 14.1004,24.2298 12.9337,23.2298 11.5,22.5C 12.8875,22.1928 14.5542,22.1928 16.5,22.5 Z"/></g>
</svg>
