<?xml version="1.0" encoding="UTF-8"?>
<!DOCTYPE svg PUBLIC "-//W3C//DTD SVG 1.1//EN" "http://www.w3.org/Graphics/SVG/1.1/DTD/svg11.dtd">
<svg xmlns="http://www.w3.org/2000/svg" version="1.1" width="75px" height="75px" style="shape-rendering:geometricPrecision; text-rendering:geometricPrecision; image-rendering:optimizeQuality; fill-rule:evenodd; clip-rule:evenodd" xmlns:xlink="http://www.w3.org/1999/xlink">
<g><path style="opacity:0.715" fill="#fe7568" d="M 12.5,-0.5 C 25.5,-0.5 38.5,-0.5 51.5,-0.5C 52.1032,7.14263 52.7699,14.8093 53.5,22.5C 66.4146,30.9913 69.4146,42.158 62.5,56C 66.6678,59.3362 70.6678,62.8362 74.5,66.5C 74.5,68.5 74.5,70.5 74.5,72.5C 73.5,72.8333 72.8333,73.5 72.5,74.5C 70.5,74.5 68.5,74.5 66.5,74.5C 62.8362,70.6678 59.3362,66.6678 56,62.5C 47.933,67.5946 39.7664,67.7613 31.5,63C 20.7876,62.7878 10.1209,62.2878 -0.5,61.5C -0.5,45.1667 -0.5,28.8333 -0.5,12.5C 4.16667,8.5 8.5,4.16667 12.5,-0.5 Z M 16.5,2.5 C 27.1667,2.5 37.8333,2.5 48.5,2.5C 48.5,8.5 48.5,14.5 48.5,20.5C 26.7103,20.4057 17.877,31.0723 22,52.5C 23.1667,54.3333 24.3333,56.1667 25.5,58C 17.8406,58.4997 10.1739,58.6664 2.5,58.5C 2.5,44.5 2.5,30.5 2.5,16.5C 14.5,19.1667 19.1667,14.5 16.5,2.5 Z M 11.5,5.5 C 12.4682,7.60737 12.8016,9.9407 12.5,12.5C 10.1432,12.6633 7.80982,12.4966 5.5,12C 7.70587,9.9633 9.70587,7.79663 11.5,5.5 Z M 56.5,56.5 C 58.9799,52.5303 60.6465,48.1969 61.5,43.5C 59.3976,29.613 51.3976,23.7796 37.5,26C 35.1136,27.1932 32.7802,28.3599 30.5,29.5C 40.439,21.1711 49.939,21.8377 59,31.5C 64.3545,40.6257 63.5212,48.959 56.5,56.5 Z M 33.5,33.5 C 39.2351,27.4665 45.5684,26.9665 52.5,32C 58.0769,37.8537 58.9102,44.3537 55,51.5C 47.6217,59.0618 39.955,59.3951 32,52.5C 26.9665,45.5684 27.4665,39.2351 33.5,33.5 Z M 29.5,30.5 C 23.391,40.4722 24.391,49.6389 32.5,58C 35.9143,59.9373 39.581,61.104 43.5,61.5C 48.1969,60.6465 52.5303,58.9799 56.5,56.5C 51.7758,62.0164 45.7758,63.8497 38.5,62C 26.2616,57.6286 21.7616,49.1286 25,36.5C 25.7918,33.8936 27.2918,31.8936 29.5,30.5 Z M 64.5,62.5 C 66.7966,64.2941 68.9633,66.2941 71,68.5C 71.5,70.6667 70.6667,71.5 68.5,71C 66.5,69 64.5,67 62.5,65C 63.3805,64.2917 64.0472,63.4584 64.5,62.5 Z"/></g>
<g><path style="opacity:0.612" fill="#fe7568" d="M 20.5,8.5 C 28.5069,8.33362 36.5069,8.50029 44.5,9C 46.4812,9.60541 46.8146,10.6054 45.5,12C 36.8333,12.6667 28.1667,12.6667 19.5,12C 19.1667,11.6667 18.8333,11.3333 18.5,11C 19.3805,10.2917 20.0472,9.45837 20.5,8.5 Z"/></g>
<g><path style="opacity:0.791" fill="#fe7568" d="M 19.5,15.5 C 28.5246,15.1685 37.5246,15.5018 46.5,16.5C 46.2907,17.086 45.9574,17.586 45.5,18C 36.8333,18.6667 28.1667,18.6667 19.5,18C 18.4019,17.2303 18.4019,16.397 19.5,15.5 Z"/></g>
<g><path style="opacity:0.608" fill="#fe7568" d="M 5.5,21.5 C 12.175,21.3337 18.8417,21.5004 25.5,22C 26.8146,23.3946 26.4812,24.3946 24.5,25C 18.5,25.6667 12.5,25.6667 6.5,25C 5.66337,23.9887 5.33003,22.8221 5.5,21.5 Z"/></g>
<g><path style="opacity:0.693" fill="#fe7568" d="M 56.5,56.5 C 52.5303,58.9799 48.1969,60.6465 43.5,61.5C 39.581,61.104 35.9143,59.9373 32.5,58C 24.391,49.6389 23.391,40.4722 29.5,30.5C 30.1667,30.5 30.5,30.1667 30.5,29.5C 32.7802,28.3599 35.1136,27.1932 37.5,26C 51.3976,23.7796 59.3976,29.613 61.5,43.5C 60.6465,48.1969 58.9799,52.5303 56.5,56.5 Z M 33.5,33.5 C 27.4665,39.2351 26.9665,45.5684 32,52.5C 39.955,59.3951 47.6217,59.0618 55,51.5C 58.9102,44.3537 58.0769,37.8537 52.5,32C 45.5684,26.9665 39.2351,27.4665 33.5,33.5 Z"/></g>
<g><path style="opacity:0.582" fill="#fe7568" d="M 5.5,27.5 C 10.5111,27.3341 15.5111,27.5007 20.5,28C 21.8333,29 21.8333,30 20.5,31C 15.5111,31.4993 10.5111,31.6659 5.5,31.5C 5.5,30.1667 5.5,28.8333 5.5,27.5 Z"/></g>
<g><path style="opacity:0.657" fill="#fe7568" d="M 33.5,33.5 C 35.2554,32.9278 36.9221,32.0945 38.5,31C 40.4727,30.5045 42.4727,30.3379 44.5,30.5C 44.5,31.5 44.5,32.5 44.5,33.5C 40.8701,33.7646 37.7034,35.0979 35,37.5C 33.8118,36.4366 33.3118,35.1033 33.5,33.5 Z"/></g>
<g><path style="opacity:0.603" fill="#fe7568" d="M 6.5,33.5 C 10.1817,33.3347 13.8484,33.5014 17.5,34C 18.3366,35.0113 18.67,36.1779 18.5,37.5C 14.1667,37.5 9.83333,37.5 5.5,37.5C 5.43255,36.0413 5.76589,34.7079 6.5,33.5 Z"/></g>
<g><path style="opacity:0.738" fill="#fe7568" d="M 5.5,40.5 C 9.5,40.5 13.5,40.5 17.5,40.5C 17.5,41.5 17.5,42.5 17.5,43.5C 13.5,43.5 9.5,43.5 5.5,43.5C 5.5,42.5 5.5,41.5 5.5,40.5 Z"/></g>
<g><path style="opacity:0.747" fill="#fe7568" d="M 5.5,46.5 C 9.5,46.5 13.5,46.5 17.5,46.5C 17.5,47.5 17.5,48.5 17.5,49.5C 13.5,49.5 9.5,49.5 5.5,49.5C 5.5,48.5 5.5,47.5 5.5,46.5 Z"/></g>
<g><path style="opacity:0.593" fill="#fe7568" d="M 5.5,52.5 C 9.83333,52.5 14.1667,52.5 18.5,52.5C 18.67,53.8221 18.3366,54.9887 17.5,56C 13.8333,56.6667 10.1667,56.6667 6.5,56C 5.66337,54.9887 5.33003,53.8221 5.5,52.5 Z"/></g>
</svg>
