<?xml version="1.0" encoding="UTF-8"?>
<!DOCTYPE svg PUBLIC "-//W3C//DTD SVG 1.1//EN" "http://www.w3.org/Graphics/SVG/1.1/DTD/svg11.dtd">
<svg xmlns="http://www.w3.org/2000/svg" version="1.1" width="512px" height="512px" style="shape-rendering:geometricPrecision; text-rendering:geometricPrecision; image-rendering:optimizeQuality; fill-rule:evenodd; clip-rule:evenodd" xmlns:xlink="http://www.w3.org/1999/xlink">
<g><path style="opacity:0.962" fill="#fcfcfc" d="M 497.5,16.5 C 501.149,21.6167 502.315,27.2834 501,33.5C 435.362,186.435 370.029,339.435 305,492.5C 298.296,501.438 289.796,503.771 279.5,499.5C 274.434,496.93 270.934,492.93 269,487.5C 248.392,427.176 227.892,366.842 207.5,306.5C 207.863,304.089 206.863,302.589 204.5,302C 142.466,280.933 80.4661,259.766 18.5,238.5C 11.025,234.89 7.69171,228.89 8.5,220.5C 8.48168,217.076 8.98168,213.743 10,210.5C 12.1667,208.333 14.3333,206.167 16.5,204C 81.6012,175.449 146.935,147.449 212.5,120C 218.87,118.022 223.537,119.855 226.5,125.5C 226.699,128.941 226.199,132.274 225,135.5C 222.079,137.712 218.912,139.545 215.5,141C 152.829,166.834 90.4955,193.501 28.5,221C 32.7155,222.684 37.0488,223.851 41.5,224.5C 98.2256,244.243 155.059,263.909 212,283.5C 287.341,206.993 363.174,130.993 439.5,55.5C 444.965,50.5364 450.298,45.3697 455.5,40C 454.5,39.3333 453.5,39.3333 452.5,40C 399.791,62.2849 347.125,84.4516 294.5,106.5C 286.756,103.007 284.589,97.3399 288,89.5C 289.731,87.3834 291.898,85.8834 294.5,85C 354.282,59.9423 413.949,34.609 473.5,9C 481.479,7.34355 488.812,8.67689 495.5,13C 496.305,14.1127 496.972,15.2794 497.5,16.5 Z M 459.5,78.5 C 404.012,210.133 348.012,341.466 291.5,472.5C 272.269,416.308 252.936,360.141 233.5,304C 304.888,232.946 375.888,161.612 446.5,90C 451.002,86.3301 455.335,82.4968 459.5,78.5 Z"/></g>
<g><path style="opacity:0.729" fill="#060606" d="M 497.5,16.5 C 502.332,18.7781 505.832,22.4447 508,27.5C 508.667,31.8333 508.667,36.1667 508,40.5C 443,193.167 378,345.833 313,498.5C 310.079,502.092 306.579,504.925 302.5,507C 292.965,509.641 285.299,507.141 279.5,499.5C 289.796,503.771 298.296,501.438 305,492.5C 370.029,339.435 435.362,186.435 501,33.5C 502.315,27.2834 501.149,21.6167 497.5,16.5 Z"/></g>
<g><path style="opacity:0.729" fill="#070707" d="M 439.5,55.5 C 395.188,74.3209 350.855,93.1543 306.5,112C 301.127,113.147 297.127,111.313 294.5,106.5C 347.125,84.4516 399.791,62.2849 452.5,40C 453.5,39.3333 454.5,39.3333 455.5,40C 450.298,45.3697 444.965,50.5364 439.5,55.5 Z"/></g>
<g><path style="opacity:0.72" fill="#010101" d="M 460.5,77.5 C 459.833,77.5 459.5,77.8333 459.5,78.5C 455.335,82.4968 451.002,86.3301 446.5,90C 375.888,161.612 304.888,232.946 233.5,304C 252.936,360.141 272.269,416.308 291.5,472.5C 290.711,482.704 288.877,483.371 286,474.5C 266.54,416.452 246.873,358.452 227,300.5C 226.333,299.167 226.333,297.833 227,296.5C 308.347,214.651 389.847,133.651 471.5,53.5C 467.441,61.3556 463.774,69.3556 460.5,77.5 Z"/></g>
<g><path style="opacity:0.91" fill="#fafafa" d="M 266.5,109.5 C 267.25,118.378 263.25,122.712 254.5,122.5C 246.446,119.567 244.446,114.234 248.5,106.5C 255.683,100.586 261.683,101.586 266.5,109.5 Z"/></g>
<g><path style="opacity:0.695" fill="#020202" d="M 266.5,109.5 C 269.675,109.84 271.841,111.507 273,114.5C 274.88,122.746 271.714,127.746 263.5,129.5C 259.086,128.813 256.086,126.48 254.5,122.5C 263.25,122.712 267.25,118.378 266.5,109.5 Z"/></g>
<g><path style="opacity:0.728" fill="#060606" d="M 226.5,125.5 C 234.893,129.317 236.559,135.151 231.5,143C 168.261,170.466 104.927,197.633 41.5,224.5C 37.0488,223.851 32.7155,222.684 28.5,221C 90.4955,193.501 152.829,166.834 215.5,141C 218.912,139.545 222.079,137.712 225,135.5C 226.199,132.274 226.699,128.941 226.5,125.5 Z"/></g>
<g><path style="opacity:0.632" fill="#060606" d="M 18.5,238.5 C 80.4661,259.766 142.466,280.933 204.5,302C 206.863,302.589 207.863,304.089 207.5,306.5C 145.532,286.233 83.8657,265.066 22.5,243C 20.9586,241.629 19.6253,240.129 18.5,238.5 Z"/></g>
</svg>
