<?xml version="1.0" encoding="UTF-8"?>
<!DOCTYPE svg PUBLIC "-//W3C//DTD SVG 1.1//EN" "http://www.w3.org/Graphics/SVG/1.1/DTD/svg11.dtd">
<svg xmlns="http://www.w3.org/2000/svg" version="1.1" width="512px" height="512px" style="shape-rendering:geometricPrecision; text-rendering:geometricPrecision; image-rendering:optimizeQuality; fill-rule:evenodd; clip-rule:evenodd" xmlns:xlink="http://www.w3.org/1999/xlink">
<g><path style="opacity:0.997" fill="#fe4b25" d="M 233.5,-0.5 C 240.833,-0.5 248.167,-0.5 255.5,-0.5C 255.5,33.1667 255.5,66.8333 255.5,100.5C 196.906,102.449 152.239,128.116 121.5,177.5C 91.9269,161.261 62.5935,144.595 33.5,127.5C 78.9575,52.1019 145.624,9.43526 233.5,-0.5 Z"/></g>
<g><path style="opacity:1" fill="#d93f21" d="M 255.5,-0.5 C 262.833,-0.5 270.167,-0.5 277.5,-0.5C 331.17,5.00464 378.837,24.838 420.5,59C 429.635,65.7372 431.802,74.2372 427,84.5C 409.5,102 392,119.5 374.5,137C 368.981,139.835 363.314,140.169 357.5,138C 328.084,113.358 294.084,100.858 255.5,100.5C 255.5,66.8333 255.5,33.1667 255.5,-0.5 Z"/></g>
<g><path style="opacity:0.991" fill="#fed400" d="M 33.5,127.5 C 62.5935,144.595 91.9269,161.261 121.5,177.5C 99.9412,215.301 94.7746,255.301 106,297.5C 109.822,310.138 114.989,322.138 121.5,333.5C 92.194,350.155 62.8607,366.821 33.5,383.5C 14.4397,350.574 3.10637,315.241 -0.5,277.5C -0.5,262.833 -0.5,248.167 -0.5,233.5C 3.10589,195.762 14.4392,160.428 33.5,127.5 Z"/></g>
<g><path style="opacity:0.991" fill="#167ee5" d="M 511.5,237.5 C 511.5,251.5 511.5,265.5 511.5,279.5C 501.418,366.852 458.751,432.852 383.5,477.5C 366.845,448.194 350.179,418.861 333.5,389.5C 364.53,371.137 386.53,345.137 399.5,311.5C 359.165,311.667 318.832,311.5 278.5,311C 272.64,309.141 268.807,305.307 267,299.5C 266.333,273.833 266.333,248.167 267,222.5C 268.908,216.26 273.075,212.427 279.5,211C 351.833,210.333 424.167,210.333 496.5,211C 500.813,212.306 504.313,214.806 507,218.5C 508.939,224.85 510.439,231.183 511.5,237.5 Z"/></g>
<g><path style="opacity:0.992" fill="#12b346" d="M 121.5,333.5 C 152.988,384.554 198.988,410.22 259.5,410.5C 258.432,411.434 257.099,411.768 255.5,411.5C 255.5,444.833 255.5,478.167 255.5,511.5C 248.167,511.5 240.833,511.5 233.5,511.5C 145.622,501.562 78.9558,458.896 33.5,383.5C 62.8607,366.821 92.194,350.155 121.5,333.5 Z"/></g>
<g><path style="opacity:1" fill="#0f993e" d="M 333.5,389.5 C 350.179,418.861 366.845,448.194 383.5,477.5C 350.645,496.547 315.312,507.881 277.5,511.5C 270.167,511.5 262.833,511.5 255.5,511.5C 255.5,478.167 255.5,444.833 255.5,411.5C 257.099,411.768 258.432,411.434 259.5,410.5C 286.06,409.978 310.727,402.978 333.5,389.5 Z"/></g>
</svg>
