<?xml version="1.0" encoding="UTF-8"?>
<!DOCTYPE svg PUBLIC "-//W3C//DTD SVG 1.1//EN" "http://www.w3.org/Graphics/SVG/1.1/DTD/svg11.dtd">
<svg xmlns="http://www.w3.org/2000/svg" version="1.1" width="512px" height="512px" style="shape-rendering:geometricPrecision; text-rendering:geometricPrecision; image-rendering:optimizeQuality; fill-rule:evenodd; clip-rule:evenodd" xmlns:xlink="http://www.w3.org/1999/xlink">
<g><path style="opacity:0.967" fill="#fe7568" d="M 277.5,40.5 C 295.836,40.3334 314.17,40.5001 332.5,41C 339.971,41.1489 345.138,44.6489 348,51.5C 348.866,71.526 348.533,91.526 347,111.5C 342.067,122.041 334.234,124.874 323.5,120C 317.234,113.883 314.734,106.383 316,97.5C 249.216,160.21 169.882,196.21 78,205.5C 68.1181,204.786 62.6181,199.453 61.5,189.5C 61.9782,183.711 64.6449,179.211 69.5,176C 107.171,171.082 143.837,162.082 179.5,149C 223.333,130.468 262.333,104.801 296.5,72C 290.833,71.6667 285.167,71.3333 279.5,71C 268.093,66.1206 264.926,57.954 270,46.5C 272.114,43.8792 274.614,41.8792 277.5,40.5 Z"/></g>
<g><path style="opacity:0.983" fill="#fe7568" d="M 392.5,138.5 C 415.836,138.333 439.169,138.5 462.5,139C 468.627,139.641 472.794,142.808 475,148.5C 476.49,235.456 476.99,322.456 476.5,409.5C 444.167,409.5 411.833,409.5 379.5,409.5C 379.333,323.166 379.5,236.833 380,150.5C 382.12,144.211 386.286,140.211 392.5,138.5 Z"/></g>
<g><path style="opacity:0.983" fill="#fe7568" d="M 275.5,188.5 C 300.502,188.333 325.502,188.5 350.5,189C 354.612,190.779 357.778,193.612 360,197.5C 361.49,268.109 361.99,338.775 361.5,409.5C 329.167,409.5 296.833,409.5 264.5,409.5C 264.333,339.833 264.5,270.166 265,200.5C 266.594,194.745 270.094,190.745 275.5,188.5 Z"/></g>
<g><path style="opacity:0.983" fill="#fe7568" d="M 160.5,246.5 C 185.502,246.333 210.502,246.5 235.5,247C 241.41,248.579 244.91,252.412 246,258.5C 246.5,308.832 246.667,359.166 246.5,409.5C 214.167,409.5 181.833,409.5 149.5,409.5C 149.333,359.166 149.5,308.832 150,258.5C 151.621,252.72 155.121,248.72 160.5,246.5 Z"/></g>
<g><path style="opacity:0.975" fill="#fe7568" d="M 49.5,303.5 C 71.8358,303.333 94.1692,303.5 116.5,304C 124.01,304.515 128.844,308.348 131,315.5C 131.5,346.832 131.667,378.165 131.5,409.5C 99.1667,409.5 66.8333,409.5 34.5,409.5C 34.3334,378.832 34.5,348.165 35,317.5C 36.5719,309.322 41.4052,304.655 49.5,303.5 Z"/></g>
<g><path style="opacity:0.953" fill="#fe7568" d="M 511.5,449.5 C 511.5,452.833 511.5,456.167 511.5,459.5C 509.165,465.323 504.831,468.823 498.5,470C 336.5,470.667 174.5,470.667 12.5,470C 6.16855,468.823 1.83522,465.323 -0.5,459.5C -0.5,456.167 -0.5,452.833 -0.5,449.5C 1.83522,443.677 6.16855,440.177 12.5,439C 174.5,438.333 336.5,438.333 498.5,439C 504.831,440.177 509.165,443.677 511.5,449.5 Z"/></g>
</svg>
