<?xml version="1.0" encoding="UTF-8"?>
<!DOCTYPE svg PUBLIC "-//W3C//DTD SVG 1.1//EN" "http://www.w3.org/Graphics/SVG/1.1/DTD/svg11.dtd">
<svg xmlns="http://www.w3.org/2000/svg" version="1.1" width="350px" height="316px" style="shape-rendering:geometricPrecision; text-rendering:geometricPrecision; image-rendering:optimizeQuality; fill-rule:evenodd; clip-rule:evenodd" xmlns:xlink="http://www.w3.org/1999/xlink">
<g><path style="opacity:0.908" fill="#004563" d="M 125.5,-0.5 C 130.833,-0.5 136.167,-0.5 141.5,-0.5C 148.045,2.21793 152.378,7.05127 154.5,14C 156.5,14.6667 158.5,14.6667 160.5,14C 162.595,7.07601 166.928,2.24268 173.5,-0.5C 178.833,-0.5 184.167,-0.5 189.5,-0.5C 196.045,2.21793 200.378,7.05127 202.5,14C 228.833,14.6667 255.167,14.6667 281.5,14C 283.226,9.94288 286.226,7.27622 290.5,6C 299.5,5.33333 308.5,5.33333 317.5,6C 322.235,7.06805 325.402,9.90139 327,14.5C 327.667,25.5 327.667,36.5 327,47.5C 325.62,52.892 322.62,57.2253 318,60.5C 317.5,75.8297 317.333,91.163 317.5,106.5C 324.574,106.161 331.574,106.661 338.5,108C 343.774,110.437 347.44,114.271 349.5,119.5C 349.5,125.833 349.5,132.167 349.5,138.5C 347.074,142.762 343.74,146.262 339.5,149C 332.254,150.391 324.921,150.891 317.5,150.5C 317.5,152.167 317.5,153.833 317.5,155.5C 324.574,155.161 331.574,155.661 338.5,157C 343.774,159.437 347.44,163.271 349.5,168.5C 349.5,174.833 349.5,181.167 349.5,187.5C 347.074,191.762 343.74,195.262 339.5,198C 332.254,199.391 324.921,199.891 317.5,199.5C 317.5,201.167 317.5,202.833 317.5,204.5C 324.589,204.116 331.589,204.616 338.5,206C 343.774,208.437 347.44,212.271 349.5,217.5C 349.5,223.833 349.5,230.167 349.5,236.5C 347.074,240.762 343.74,244.262 339.5,247C 332.254,248.391 324.921,248.891 317.5,248.5C 317.5,250.167 317.5,251.833 317.5,253.5C 324.574,253.161 331.574,253.661 338.5,255C 343.774,257.437 347.44,261.271 349.5,266.5C 349.5,272.833 349.5,279.167 349.5,285.5C 347.074,289.762 343.74,293.262 339.5,296C 332.254,297.391 324.921,297.891 317.5,297.5C 317.666,302.844 317.499,308.177 317,313.5C 316.283,314.044 315.783,314.711 315.5,315.5C 307.833,315.5 300.167,315.5 292.5,315.5C 292.217,314.711 291.717,314.044 291,313.5C 290.501,308.177 290.334,302.844 290.5,297.5C 287.167,297.5 283.833,297.5 280.5,297.5C 282.049,305.211 279.716,311.211 273.5,315.5C 265.167,315.5 256.833,315.5 248.5,315.5C 246.204,313.599 244.371,311.266 243,308.5C 242.667,301.167 242.333,293.833 242,286.5C 197,287.833 152,287.833 107,286.5C 106.667,293.833 106.333,301.167 106,308.5C 104.629,311.266 102.796,313.599 100.5,315.5C 92.1667,315.5 83.8333,315.5 75.5,315.5C 69.2839,311.211 66.9506,305.211 68.5,297.5C 65.1667,297.5 61.8333,297.5 58.5,297.5C 58.666,302.844 58.4994,308.177 58,313.5C 57.2828,314.044 56.7828,314.711 56.5,315.5C 48.8333,315.5 41.1667,315.5 33.5,315.5C 33.2172,314.711 32.7172,314.044 32,313.5C 31.5006,308.177 31.334,302.844 31.5,297.5C 24.0791,297.891 16.7458,297.391 9.5,296C 5.25954,293.262 1.9262,289.762 -0.5,285.5C -0.5,279.167 -0.5,272.833 -0.5,266.5C 1.55952,261.271 5.22618,257.437 10.5,255C 17.4264,253.661 24.4264,253.161 31.5,253.5C 31.5,251.833 31.5,250.167 31.5,248.5C 24.0791,248.891 16.7458,248.391 9.5,247C 5.25954,244.262 1.9262,240.762 -0.5,236.5C -0.5,230.167 -0.5,223.833 -0.5,217.5C 1.55952,212.271 5.22618,208.437 10.5,206C 17.4112,204.616 24.4112,204.116 31.5,204.5C 31.5,202.833 31.5,201.167 31.5,199.5C 24.0791,199.891 16.7458,199.391 9.5,198C 5.25954,195.262 1.9262,191.762 -0.5,187.5C -0.5,181.167 -0.5,174.833 -0.5,168.5C 1.55952,163.271 5.22618,159.437 10.5,157C 17.4264,155.661 24.4264,155.161 31.5,155.5C 31.5,153.833 31.5,152.167 31.5,150.5C 24.0791,150.891 16.7458,150.391 9.5,149C 5.25954,146.262 1.9262,142.762 -0.5,138.5C -0.5,132.167 -0.5,125.833 -0.5,119.5C 1.55952,114.271 5.22618,110.437 10.5,108C 17.4264,106.661 24.4264,106.161 31.5,106.5C 31.3343,102.154 31.501,97.8206 32,93.5C 35.2488,89.6327 38.5821,89.6327 42,93.5C 42.499,97.8206 42.6657,102.154 42.5,106.5C 44.1667,106.5 45.8333,106.5 47.5,106.5C 47.5,91.8333 47.5,77.1667 47.5,62.5C 45.8333,62.5 44.1667,62.5 42.5,62.5C 42.9038,68.2896 42.4038,73.9562 41,79.5C 37.7291,82.1972 34.7291,81.8639 32,78.5C 31.6667,72.5 31.3333,66.5 31,60.5C 26.3796,57.2253 23.3796,52.892 22,47.5C 21.3333,36.5 21.3333,25.5 22,14.5C 23.5981,9.90139 26.7647,7.06805 31.5,6C 40.5,5.33333 49.5,5.33333 58.5,6C 62.7741,7.27622 65.7741,9.94288 67.5,14C 82.5,14.6667 97.5,14.6667 112.5,14C 114.622,7.05127 118.955,2.21793 125.5,-0.5 Z M 128.5,10.5 C 131.85,10.335 135.183,10.5017 138.5,11C 140.116,11.6152 141.449,12.6152 142.5,14C 136.5,14.6667 130.5,14.6667 124.5,14C 125.731,12.5952 127.064,11.4286 128.5,10.5 Z M 176.5,10.5 C 179.85,10.335 183.183,10.5017 186.5,11C 188.116,11.6152 189.449,12.6152 190.5,14C 184.5,14.6667 178.5,14.6667 172.5,14C 173.731,12.5952 175.064,11.4286 176.5,10.5 Z M 33.5,17.5 C 41.1667,17.5 48.8333,17.5 56.5,17.5C 56.6665,27.5056 56.4998,37.5056 56,47.5C 53.0324,50.6017 49.3657,51.9351 45,51.5C 40.6343,51.9351 36.9676,50.6017 34,47.5C 32.2451,37.4842 32.0784,27.4842 33.5,17.5 Z M 292.5,17.5 C 300.42,17.185 308.253,17.5183 316,18.5C 316.891,28.2278 316.557,37.8945 315,47.5C 314.167,48.3333 313.333,49.1667 312.5,50C 307.924,51.4764 303.257,51.8098 298.5,51C 296.152,50.6541 294.319,49.4875 293,47.5C 292.5,37.5056 292.334,27.5056 292.5,17.5 Z M 68.5,25.5 C 93.5,25.5 118.5,25.5 143.5,25.5C 143.5,27.5 143.5,29.5 143.5,31.5C 118.5,31.5 93.5,31.5 68.5,31.5C 68.5,29.5 68.5,27.5 68.5,25.5 Z M 154.5,25.5 C 156.5,25.5 158.5,25.5 160.5,25.5C 160.5,27.5 160.5,29.5 160.5,31.5C 158.5,31.5 156.5,31.5 154.5,31.5C 154.5,29.5 154.5,27.5 154.5,25.5 Z M 171.5,25.5 C 207.833,25.5 244.167,25.5 280.5,25.5C 280.5,27.5 280.5,29.5 280.5,31.5C 273.159,31.3337 265.826,31.5003 258.5,32C 252.266,35.2372 251.933,38.9039 257.5,43C 265.159,43.4997 272.826,43.6664 280.5,43.5C 281.052,50.6027 284.219,56.2694 290,60.5C 290.5,75.8297 290.667,91.163 290.5,106.5C 263.971,103.243 253.805,114.576 260,140.5C 262.641,145.144 266.475,148.311 271.5,150C 277.825,150.5 284.158,150.666 290.5,150.5C 290.5,152.167 290.5,153.833 290.5,155.5C 284.824,155.334 279.157,155.501 273.5,156C 263.274,158.936 258.274,165.769 258.5,176.5C 254.973,177.26 251.64,178.594 248.5,180.5C 244.244,172.246 240.077,163.912 236,155.5C 233.635,152.131 230.468,149.964 226.5,149C 201.5,148.333 176.5,148.333 151.5,149C 147.143,153.551 147.81,157.218 153.5,160C 177.5,160.333 201.5,160.667 225.5,161C 226.87,162.441 227.87,164.108 228.5,166C 192.5,166.667 156.5,166.667 120.5,166C 121.13,164.108 122.13,162.441 123.5,161C 127.918,160.792 132.251,160.126 136.5,159C 140.378,155.89 140.378,152.723 136.5,149.5C 127.338,146.69 119.504,148.69 113,155.5C 108.923,163.912 104.756,172.246 100.5,180.5C 97.36,178.594 94.0266,177.26 90.5,176.5C 90.7264,165.769 85.7264,158.936 75.5,156C 69.8431,155.501 64.1764,155.334 58.5,155.5C 58.5,153.833 58.5,152.167 58.5,150.5C 83.1509,154.348 93.6509,144.015 90,119.5C 87.6229,112.455 82.7896,108.288 75.5,107C 69.8431,106.501 64.1764,106.334 58.5,106.5C 58.3334,91.163 58.5001,75.8297 59,60.5C 64.781,56.2694 67.9477,50.6027 68.5,43.5C 93.5,43.5 118.5,43.5 143.5,43.5C 143.5,45.1667 143.5,46.8333 143.5,48.5C 126.235,48.2567 120.402,56.2567 126,72.5C 128.739,76.6192 132.573,78.7859 137.5,79C 149.667,79.1667 161.833,79.3333 174,79.5C 187.877,79.6209 201.711,79.1209 215.5,78C 226.191,71.9879 228.191,63.8212 221.5,53.5C 219.507,51.5014 217.173,50.0014 214.5,49C 200.171,48.5001 185.837,48.3334 171.5,48.5C 171.5,46.8333 171.5,45.1667 171.5,43.5C 194.502,43.6666 217.502,43.5 240.5,43C 245.975,38.9928 245.642,35.3261 239.5,32C 216.836,31.5 194.169,31.3334 171.5,31.5C 171.5,29.5 171.5,27.5 171.5,25.5 Z M 154.5,43.5 C 156.5,43.5 158.5,43.5 160.5,43.5C 160.5,45.1667 160.5,46.8333 160.5,48.5C 158.5,48.5 156.5,48.5 154.5,48.5C 154.5,46.8333 154.5,45.1667 154.5,43.5 Z M 138.5,59.5 C 162.502,59.3334 186.502,59.5 210.5,60C 213.946,61.8964 214.28,64.2297 211.5,67C 186.5,67.6667 161.5,67.6667 136.5,67C 133.518,63.425 134.184,60.925 138.5,59.5 Z M 301.5,62.5 C 303.167,62.5 304.833,62.5 306.5,62.5C 306.5,77.1667 306.5,91.8333 306.5,106.5C 304.833,106.5 303.167,106.5 301.5,106.5C 301.5,91.8333 301.5,77.1667 301.5,62.5 Z M 14.5,118.5 C 34.8361,118.333 55.1694,118.5 75.5,119C 77,119.833 78.1667,121 79,122.5C 79.6667,126.5 79.6667,130.5 79,134.5C 78.065,137.102 76.2317,138.602 73.5,139C 54.5,139.667 35.5,139.667 16.5,139C 13.7683,138.602 11.935,137.102 11,134.5C 10.3333,130.5 10.3333,126.5 11,122.5C 11.6897,120.65 12.8564,119.316 14.5,118.5 Z M 273.5,118.5 C 293.836,118.333 314.169,118.5 334.5,119C 336.333,119.5 337.5,120.667 338,122.5C 338.667,126.5 338.667,130.5 338,134.5C 337.065,137.102 335.232,138.602 332.5,139C 313.5,139.667 294.5,139.667 275.5,139C 272.768,138.602 270.935,137.102 270,134.5C 269.333,130.5 269.333,126.5 270,122.5C 271.032,120.973 272.199,119.64 273.5,118.5 Z M 42.5,150.5 C 44.1667,150.5 45.8333,150.5 47.5,150.5C 47.5,152.167 47.5,153.833 47.5,155.5C 45.8333,155.5 44.1667,155.5 42.5,155.5C 42.5,153.833 42.5,152.167 42.5,150.5 Z M 301.5,150.5 C 303.167,150.5 304.833,150.5 306.5,150.5C 306.5,152.167 306.5,153.833 306.5,155.5C 304.833,155.5 303.167,155.5 301.5,155.5C 301.5,153.833 301.5,152.167 301.5,150.5 Z M 14.5,167.5 C 34.8361,167.333 55.1694,167.5 75.5,168C 78.8381,169.851 80.1715,172.685 79.5,176.5C 68.2189,173.163 62.2189,177.163 61.5,188.5C 45.4293,188.954 29.4293,188.454 13.5,187C 11.0593,184.347 10.0593,181.18 10.5,177.5C 9.76699,173.177 11.1003,169.844 14.5,167.5 Z M 273.5,167.5 C 293.836,167.333 314.169,167.5 334.5,168C 335.416,168.374 336.25,168.874 337,169.5C 338.545,174.047 338.879,178.713 338,183.5C 337.535,184.931 336.701,186.097 335.5,187C 319.571,188.454 303.571,188.954 287.5,188.5C 286.781,177.163 280.781,173.163 269.5,176.5C 269.054,172.64 270.387,169.64 273.5,167.5 Z M 114.5,178.5 C 154.506,178.167 194.506,178.5 234.5,179.5C 238.933,188.307 243.266,197.141 247.5,206C 198.833,206.667 150.167,206.667 101.5,206C 105.973,196.887 110.307,187.721 114.5,178.5 Z M 72.5,188.5 C 77.9846,187.348 83.6513,187.182 89.5,188C 91.6175,188.26 93.2842,189.26 94.5,191C 87.8333,191.667 81.1667,191.667 74.5,191C 73.9341,190.005 73.2674,189.172 72.5,188.5 Z M 259.5,187.5 C 265.176,187.334 270.843,187.501 276.5,188C 275.833,189 275.167,190 274.5,191C 267.833,191.667 261.167,191.667 254.5,191C 255.955,189.374 257.622,188.208 259.5,187.5 Z M 42.5,199.5 C 44.1667,199.5 45.8333,199.5 47.5,199.5C 47.5,201.167 47.5,202.833 47.5,204.5C 45.8333,204.5 44.1667,204.5 42.5,204.5C 42.5,202.833 42.5,201.167 42.5,199.5 Z M 58.5,199.5 C 68.9314,202.081 79.5981,203.581 90.5,204C 86.0819,207.624 81.4152,207.958 76.5,205C 70.5092,204.501 64.5092,204.334 58.5,204.5C 58.5,202.833 58.5,201.167 58.5,199.5 Z M 281.5,199.5 C 284.5,199.5 287.5,199.5 290.5,199.5C 290.5,201.167 290.5,202.833 290.5,204.5C 284.491,204.334 278.491,204.501 272.5,205C 267.585,207.958 262.918,207.624 258.5,204C 263.167,203.667 267.833,203.333 272.5,203C 276.005,202.881 279.005,201.714 281.5,199.5 Z M 301.5,199.5 C 303.167,199.5 304.833,199.5 306.5,199.5C 306.5,201.167 306.5,202.833 306.5,204.5C 304.833,204.5 303.167,204.5 301.5,204.5C 301.5,202.833 301.5,201.167 301.5,199.5 Z M 14.5,216.5 C 32.8454,216.167 51.1788,216.5 69.5,217.5C 67.8327,222.361 65.3327,226.694 62,230.5C 61.5034,232.81 61.3367,235.143 61.5,237.5C 45.4293,237.954 29.4293,237.454 13.5,236C 11.0593,233.347 10.0593,230.18 10.5,226.5C 9.76699,222.177 11.1003,218.844 14.5,216.5 Z M 279.5,216.5 C 297.836,216.333 316.17,216.5 334.5,217C 336.333,217.5 337.5,218.667 338,220.5C 338.667,224.5 338.667,228.5 338,232.5C 337.535,233.931 336.701,235.097 335.5,236C 319.571,237.454 303.571,237.954 287.5,237.5C 288.397,232.563 286.897,228.563 283,225.5C 281.82,222.479 280.654,219.479 279.5,216.5 Z M 87.5,217.5 C 145.501,217.333 203.501,217.5 261.5,218C 265.266,218.751 268.266,220.751 270.5,224C 206.5,224.667 142.5,224.667 78.5,224C 80.8959,220.738 83.8959,218.571 87.5,217.5 Z M 72.5,236.5 C 86.9942,235.339 101.661,235.172 116.5,236C 117.242,243.152 120.908,248.152 127.5,251C 158.833,251.667 190.167,251.667 221.5,251C 228.49,248.186 231.823,243.019 231.5,235.5C 246.504,235.333 261.504,235.5 276.5,236C 275.167,237.333 275.167,238.667 276.5,240C 267.833,240.333 259.167,240.667 250.5,241C 248.714,241.785 247.214,242.951 246,244.5C 244.437,249.718 244.104,255.051 245,260.5C 246.251,263.381 248.417,265.214 251.5,266C 259.833,266.333 268.167,266.667 276.5,267C 275.833,269.667 275.167,272.333 274.5,275C 260.167,275.667 245.833,275.667 231.5,275C 233.35,268.092 231.017,263.092 224.5,260C 191.167,259.333 157.833,259.333 124.5,260C 117.983,263.092 115.65,268.092 117.5,275C 103.167,275.667 88.8333,275.667 74.5,275C 73.8333,272.333 73.1667,269.667 72.5,267C 80.8333,266.667 89.1667,266.333 97.5,266C 103.319,263.868 105.652,259.701 104.5,253.5C 105.244,248.879 103.91,245.046 100.5,242C 91.2669,240.72 81.9336,240.053 72.5,240C 73.7911,238.708 73.7911,237.542 72.5,236.5 Z M 128.5,235.5 C 159.167,235.5 189.833,235.5 220.5,235.5C 220.863,237.911 219.863,239.411 217.5,240C 188.833,240.667 160.167,240.667 131.5,240C 129.137,239.411 128.137,237.911 128.5,235.5 Z M 42.5,248.5 C 44.1667,248.5 45.8333,248.5 47.5,248.5C 47.5,250.167 47.5,251.833 47.5,253.5C 45.8333,253.5 44.1667,253.5 42.5,253.5C 42.5,251.833 42.5,250.167 42.5,248.5 Z M 58.5,248.5 C 59.5,248.5 60.5,248.5 61.5,248.5C 61.5,250.167 61.5,251.833 61.5,253.5C 60.5,253.5 59.5,253.5 58.5,253.5C 58.5,251.833 58.5,250.167 58.5,248.5 Z M 287.5,248.5 C 288.5,248.5 289.5,248.5 290.5,248.5C 290.5,250.167 290.5,251.833 290.5,253.5C 289.5,253.5 288.5,253.5 287.5,253.5C 287.5,251.833 287.5,250.167 287.5,248.5 Z M 301.5,248.5 C 303.167,248.5 304.833,248.5 306.5,248.5C 306.5,250.167 306.5,251.833 306.5,253.5C 304.833,253.5 303.167,253.5 301.5,253.5C 301.5,251.833 301.5,250.167 301.5,248.5 Z M 72.5,252.5 C 79.3134,251.509 86.3134,251.175 93.5,251.5C 93.5,252.5 93.5,253.5 93.5,254.5C 86.4921,254.666 79.4921,254.5 72.5,254C 73.7383,253.31 73.7383,252.81 72.5,252.5 Z M 255.5,251.5 C 262.508,251.334 269.508,251.5 276.5,252C 275.167,252.667 275.167,253.333 276.5,254C 269.508,254.5 262.508,254.666 255.5,254.5C 255.5,253.5 255.5,252.5 255.5,251.5 Z M 14.5,265.5 C 30.1667,265.5 45.8333,265.5 61.5,265.5C 59.9098,273.632 62.2432,280.299 68.5,285.5C 59.8333,285.833 51.1667,286.167 42.5,286.5C 32.7631,286.628 23.0964,286.128 13.5,285C 11.0593,282.347 10.0593,279.18 10.5,275.5C 9.76699,271.177 11.1003,267.844 14.5,265.5 Z M 287.5,265.5 C 303.17,265.333 318.837,265.5 334.5,266C 336.333,266.5 337.5,267.667 338,269.5C 338.667,273.5 338.667,277.5 338,281.5C 337.065,284.102 335.232,285.602 332.5,286C 315.157,286.833 297.824,286.666 280.5,285.5C 286.757,280.299 289.09,273.632 287.5,265.5 Z M 128.5,270.5 C 159.167,270.5 189.833,270.5 220.5,270.5C 220.5,272.167 220.5,273.833 220.5,275.5C 189.833,275.5 159.167,275.5 128.5,275.5C 128.5,273.833 128.5,272.167 128.5,270.5 Z M 94.5,286.5 C 95.4896,292.31 95.8229,298.31 95.5,304.5C 90.1563,304.666 84.8229,304.499 79.5,304C 80.8333,298.667 80.8333,293.333 79.5,288C 84.6835,287.826 89.6835,287.326 94.5,286.5 Z M 253.5,286.5 C 258.752,287.285 264.085,287.785 269.5,288C 268.167,293.333 268.167,298.667 269.5,304C 264.177,304.499 258.844,304.666 253.5,304.5C 253.5,298.5 253.5,292.5 253.5,286.5 Z M 42.5,297.5 C 44.1667,297.5 45.8333,297.5 47.5,297.5C 47.5,299.833 47.5,302.167 47.5,304.5C 45.8333,304.5 44.1667,304.5 42.5,304.5C 42.5,302.167 42.5,299.833 42.5,297.5 Z M 301.5,297.5 C 303.167,297.5 304.833,297.5 306.5,297.5C 306.5,299.833 306.5,302.167 306.5,304.5C 304.833,304.5 303.167,304.5 301.5,304.5C 301.5,302.167 301.5,299.833 301.5,297.5 Z"/></g>
<g><path style="opacity:0.859" fill="#004563" d="M 152.5,82.5 C 158.356,82.854 160.523,85.854 159,91.5C 155.5,95 152,98.5 148.5,102C 142.166,103.329 139.332,100.829 140,94.5C 144.062,90.2688 148.229,86.2688 152.5,82.5 Z"/></g>
<g><path style="opacity:0.833" fill="#004563" d="M 172.5,82.5 C 176.637,82.4819 179.137,84.4819 180,88.5C 180.826,93.5893 180.492,98.5893 179,103.5C 175.751,107.367 172.418,107.367 169,103.5C 168.333,97.8333 168.333,92.1667 169,86.5C 169.69,84.6498 170.856,83.3164 172.5,82.5 Z"/></g>
<g><path style="opacity:0.859" fill="#004563" d="M 193.5,82.5 C 195.308,82.4914 196.975,82.9914 198.5,84C 202,87.5 205.5,91 209,94.5C 209.668,100.829 206.834,103.329 200.5,102C 197,98.5 193.5,95 190,91.5C 188.665,87.3919 189.832,84.3919 193.5,82.5 Z"/></g>
<g><path style="opacity:0.819" fill="#004563" d="M 134.5,100.5 C 140.303,100.81 142.47,103.81 141,109.5C 135.749,116.523 131.582,116.023 128.5,108C 129.582,104.753 131.582,102.253 134.5,100.5 Z"/></g>
<g><path style="opacity:0.819" fill="#004563" d="M 210.5,100.5 C 217.707,101.019 220.707,104.685 219.5,111.5C 215.251,115.062 211.418,114.395 208,109.5C 206.927,105.9 207.76,102.9 210.5,100.5 Z"/></g>
<g><path style="opacity:0.824" fill="#004563" d="M 173.5,107.5 C 179.51,109.504 181.343,113.504 179,119.5C 176.315,123.019 173.315,123.352 170,120.5C 167.186,114.938 168.352,110.605 173.5,107.5 Z"/></g>
</svg>
