<?xml version="1.0" encoding="UTF-8"?>
<!DOCTYPE svg PUBLIC "-//W3C//DTD SVG 1.1//EN" "http://www.w3.org/Graphics/SVG/1.1/DTD/svg11.dtd">
<svg xmlns="http://www.w3.org/2000/svg" version="1.1" width="700px" height="700px" style="shape-rendering:geometricPrecision; text-rendering:geometricPrecision; image-rendering:optimizeQuality; fill-rule:evenodd; clip-rule:evenodd" xmlns:xlink="http://www.w3.org/1999/xlink">
<g><path style="opacity:0.966" fill="#fb7468" d="M 144.5,51.5 C 161.44,49.0464 172.94,55.713 179,71.5C 181.945,88.4526 175.445,99.9526 159.5,106C 142.547,108.945 131.047,102.445 125,86.5C 122.182,69.4574 128.682,57.7908 144.5,51.5 Z"/></g>
<g><path style="opacity:0.953" fill="#fb7468" d="M 337.5,93.5 C 375.638,90.4765 402.804,106.143 419,140.5C 420.202,143.774 421.202,147.107 422,150.5C 422.75,151.126 423.584,151.626 424.5,152C 450.673,157.71 476.673,164.043 502.5,171C 505.018,172.87 506.352,175.37 506.5,178.5C 504.654,187.548 502.654,196.548 500.5,205.5C 505.844,205.334 511.177,205.501 516.5,206C 518.848,206.346 520.681,207.513 522,209.5C 531,224.5 540,239.5 549,254.5C 555.765,370.126 561.431,485.793 566,601.5C 564.833,602.667 563.667,603.833 562.5,605C 420.5,605.667 278.5,605.667 136.5,605C 135.333,603.833 134.167,602.667 133,601.5C 137.569,485.793 143.235,370.126 150,254.5C 159.458,238.415 169.291,222.582 179.5,207C 183.142,206.086 186.808,205.252 190.5,204.5C 187.197,183.607 185.03,162.607 184,141.5C 185.227,139.274 187.061,137.774 189.5,137C 222.491,132.927 255.491,128.927 288.5,125C 300.64,107.933 316.973,97.4328 337.5,93.5 Z M 341.5,111.5 C 369.161,109.827 389.161,121.327 401.5,146C 394.025,144.76 386.525,143.26 379,141.5C 374.225,141.613 371.225,143.947 370,148.5C 367.442,160.735 364.276,172.735 360.5,184.5C 358.5,185.167 356.5,185.833 354.5,186.5C 351.514,165.116 348.347,143.782 345,122.5C 342.694,120.112 339.861,119.112 336.5,119.5C 330.489,120.336 324.489,120.836 318.5,121C 325.747,116.536 333.414,113.37 341.5,111.5 Z M 327.5,138.5 C 329.117,139.589 329.95,141.256 330,143.5C 332.111,159.162 333.777,174.828 335,190.5C 307.586,197.562 280.086,204.395 252.5,211C 249.161,212.886 247.827,215.719 248.5,219.5C 250.501,229.504 252.501,239.504 254.5,249.5C 240.833,249.5 227.167,249.5 213.5,249.5C 210.161,217.457 206.495,185.457 202.5,153.5C 244.366,148.998 286.032,143.998 327.5,138.5 Z M 385.5,161.5 C 418.681,169.42 451.848,177.42 485,185.5C 485.667,187.167 485.667,188.833 485,190.5C 480.306,210.139 475.806,229.806 471.5,249.5C 454.833,249.5 438.167,249.5 421.5,249.5C 416.475,226.401 410.975,203.401 405,180.5C 402.868,177.684 400.035,176.351 396.5,176.5C 391.462,177.515 386.462,178.348 381.5,179C 383.222,173.276 384.556,167.442 385.5,161.5 Z M 388.5,196.5 C 389.931,196.881 390.764,197.881 391,199.5C 395.153,216.11 398.986,232.777 402.5,249.5C 359.5,249.5 316.5,249.5 273.5,249.5C 272.15,241.433 270.483,233.433 268.5,225.5C 308.757,216.435 348.757,206.768 388.5,196.5 Z M 189.5,224.5 C 190.5,224.5 191.5,224.5 192.5,224.5C 193.419,232.849 194.419,241.182 195.5,249.5C 188.8,249.83 182.134,249.497 175.5,248.5C 180.178,240.472 184.845,232.472 189.5,224.5 Z M 495.5,224.5 C 500.179,224.334 504.845,224.501 509.5,225C 514.293,232.751 518.959,240.584 523.5,248.5C 512.52,249.499 501.52,249.832 490.5,249.5C 492.295,241.194 493.961,232.86 495.5,224.5 Z M 167.5,267.5 C 288.833,267.5 410.167,267.5 531.5,267.5C 536.993,373.866 542.66,480.199 548.5,586.5C 415.833,587.833 283.167,587.833 150.5,586.5C 156.34,480.199 162.007,373.866 167.5,267.5 Z M 281.5,302.5 C 289.658,301.823 293.158,305.49 292,313.5C 286.95,308.208 281.95,308.208 277,313.5C 275.776,308.626 277.276,304.959 281.5,302.5 Z M 411.5,302.5 C 419.658,301.823 423.158,305.49 422,313.5C 417.331,308.675 412.331,308.342 407,312.5C 406.077,308.017 407.577,304.683 411.5,302.5 Z"/></g>
<g><path style="opacity:0.953" fill="#fb7468" d="M 76.5,105.5 C 96.9814,103.814 106.148,113.148 104,133.5C 96.4419,148.072 85.2752,151.572 70.5,144C 61.6263,135.002 60.1263,124.836 66,113.5C 68.94,109.963 72.44,107.297 76.5,105.5 Z"/></g>
<g><path style="opacity:0.932" fill="#fb7468" d="M 105.5,184.5 C 119.987,182.82 126.154,189.153 124,203.5C 120.016,211.042 113.849,213.542 105.5,211C 97.9581,207.016 95.4581,200.849 98,192.5C 99.6904,188.979 102.19,186.312 105.5,184.5 Z"/></g>
<g><path style="opacity:0.943" fill="#fb7468" d="M 282.5,283.5 C 305.052,285.922 313.885,298.255 309,320.5C 306,327.5 301,332.5 294,335.5C 293.333,348.167 293.333,360.833 294,373.5C 301.71,407.864 323.21,424.031 358.5,422C 385.227,416.045 400.727,399.545 405,372.5C 405.667,360.167 405.667,347.833 405,335.5C 387.885,325.811 383.885,312.145 393,294.5C 407.358,280.042 421.692,280.042 436,294.5C 444.096,308.426 442.263,320.926 430.5,332C 428.532,333.544 426.365,334.711 424,335.5C 423.667,349.5 423.333,363.5 423,377.5C 414.525,417.136 390.025,438.47 349.5,441.5C 318.755,439.889 296.255,425.556 282,398.5C 279.934,393.637 278.268,388.637 277,383.5C 275.763,367.539 275.096,351.539 275,335.5C 259.679,327.883 254.679,315.883 260,299.5C 264.914,290.312 272.414,284.979 282.5,283.5 Z M 281.5,302.5 C 277.276,304.959 275.776,308.626 277,313.5C 281.95,308.208 286.95,308.208 292,313.5C 293.158,305.49 289.658,301.823 281.5,302.5 Z M 411.5,302.5 C 407.577,304.683 406.077,308.017 407,312.5C 412.331,308.342 417.331,308.675 422,313.5C 423.158,305.49 419.658,301.823 411.5,302.5 Z"/></g>
<g><path style="opacity:0.926" fill="#fb7468" d="M 610.5,512.5 C 625.653,510.818 632.153,517.485 630,532.5C 625.605,540.103 619.105,542.603 610.5,540C 602.897,535.605 600.397,529.105 603,520.5C 605.028,517.308 607.528,514.641 610.5,512.5 Z"/></g>
<g><path style="opacity:0.955" fill="#fb7468" d="M 637.5,579.5 C 654.768,577.125 664.435,584.458 666.5,601.5C 666.167,615.833 658.833,623.167 644.5,623.5C 630.167,623.167 622.833,615.833 622.5,601.5C 622.824,590.863 627.824,583.53 637.5,579.5 Z"/></g>
<g><path style="opacity:0.965" fill="#fb7468" d="M 565.5,623.5 C 591.312,621.812 603.146,633.812 601,659.5C 598.167,670.333 591.333,677.167 580.5,680C 554.667,682.167 542.833,670.333 545,644.5C 548.016,633.652 554.849,626.652 565.5,623.5 Z"/></g>
</svg>
