<?xml version="1.0" encoding="UTF-8"?>
<!DOCTYPE svg PUBLIC "-//W3C//DTD SVG 1.1//EN" "http://www.w3.org/Graphics/SVG/1.1/DTD/svg11.dtd">
<svg xmlns="http://www.w3.org/2000/svg" version="1.1" width="512px" height="512px" style="shape-rendering:geometricPrecision; text-rendering:geometricPrecision; image-rendering:optimizeQuality; fill-rule:evenodd; clip-rule:evenodd" xmlns:xlink="http://www.w3.org/1999/xlink">
<g><path style="opacity:0.962" fill="#fb7468" d="M 26.5,-0.5 C 30.1667,-0.5 33.8333,-0.5 37.5,-0.5C 61.9615,10.2239 86.6282,20.7239 111.5,31C 118.667,32.8119 122.833,37.3119 124,44.5C 124.5,61.8301 124.667,79.1635 124.5,96.5C 244.562,112.485 364.562,128.985 484.5,146C 488.667,147.5 491.5,150.333 493,154.5C 493.667,199.167 493.667,243.833 493,288.5C 486.006,317.827 467.506,333.994 437.5,337C 342.167,337.667 246.833,337.667 151.5,337C 142.366,336.673 133.699,334.507 125.5,330.5C 124.063,346.21 124.23,361.877 126,377.5C 129.984,386.151 136.484,391.985 145.5,395C 240.465,396.321 335.465,396.988 430.5,397C 458.232,402.732 474.398,419.565 479,447.5C 479.797,480.846 464.297,502.18 432.5,511.5C 425.167,511.5 417.833,511.5 410.5,511.5C 373.998,500.113 359.165,475.446 366,437.5C 367.402,433.793 368.902,430.126 370.5,426.5C 328.833,425.167 287.167,425.167 245.5,426.5C 258.492,454.708 253.492,479.208 230.5,500C 222.834,505.503 214.501,509.336 205.5,511.5C 198.5,511.5 191.5,511.5 184.5,511.5C 150.455,501.797 134.955,479.13 138,443.5C 139.474,437.244 141.641,431.244 144.5,425.5C 119.092,419.926 102.925,404.592 96,379.5C 94.6793,271.863 94.0126,164.196 94,56.5C 70.5734,46.2044 47.0734,36.0377 23.5,26C 16.9913,19.788 15.8246,12.6213 20,4.5C 21.9651,2.44965 24.1318,0.782988 26.5,-0.5 Z M 124.5,125.5 C 237.798,141.329 351.131,156.996 464.5,172.5C 464.667,209.502 464.5,246.502 464,283.5C 460.906,295.594 453.406,303.427 441.5,307C 343.5,307.667 245.5,307.667 147.5,307C 135.768,304.268 128.268,297.101 125,285.5C 124.5,232.168 124.333,178.834 124.5,125.5 Z M 191.5,425.5 C 210.18,426.013 220.846,435.513 223.5,454C 220.12,475.391 207.786,484.391 186.5,481C 166.865,471.43 162.032,456.93 172,437.5C 177.303,431.279 183.803,427.279 191.5,425.5 Z M 417.5,425.5 C 442.619,427.143 452.786,440.143 448,464.5C 438.426,482.02 424.593,486.52 406.5,478C 392.618,467.269 389.784,454.102 398,438.5C 402.799,431.524 409.299,427.19 417.5,425.5 Z"/></g>
</svg>
