<?xml version="1.0" encoding="UTF-8"?>
<!DOCTYPE svg PUBLIC "-//W3C//DTD SVG 1.1//EN" "http://www.w3.org/Graphics/SVG/1.1/DTD/svg11.dtd">
<svg xmlns="http://www.w3.org/2000/svg" version="1.1" width="667px" height="667px" style="shape-rendering:geometricPrecision; text-rendering:geometricPrecision; image-rendering:optimizeQuality; fill-rule:evenodd; clip-rule:evenodd" xmlns:xlink="http://www.w3.org/1999/xlink">
<g><path style="opacity:0.96" fill="#fb7468" d="M 381.5,11.5 C 450.58,9.08214 493.414,41.4155 510,108.5C 513.066,123.359 515.066,138.359 516,153.5C 611.638,185.032 657.638,251.365 654,352.5C 643.978,421.098 607.811,470.265 545.5,500C 515.344,512.637 484.011,517.137 451.5,513.5C 449.971,513.529 448.804,514.196 448,515.5C 442.453,544.784 437.119,574.117 432,603.5C 427.889,618.138 418.389,623.971 403.5,621C 401.754,620.529 400.087,619.862 398.5,619C 393.667,614.833 388.833,610.667 384,606.5C 375.599,612.292 367.433,618.458 359.5,625C 317.937,654.205 272.937,661.205 224.5,646C 186.294,627.103 163.127,596.603 155,554.5C 152.558,539.845 150.558,525.179 149,510.5C 76.5388,488.707 31.5388,441.04 14,367.5C 3.34339,298.464 23.5101,240.297 74.5,193C 114.945,159.801 161.279,145.968 213.5,151.5C 215.107,151.363 216.441,150.696 217.5,149.5C 223.24,121.297 228.407,92.9636 233,64.5C 238.403,44.2169 250.57,38.7169 269.5,48C 273.093,52.2658 277.259,55.7658 282,58.5C 292.728,50.5497 303.561,42.7164 314.5,35C 335.235,22.2567 357.569,14.4234 381.5,11.5 Z M 383.5,33.5 C 433.223,31.0944 466.723,53.0944 484,99.5C 489.206,116.11 492.039,133.11 492.5,150.5C 478.818,149.504 465.151,149.171 451.5,149.5C 450.593,131.539 446.093,114.539 438,98.5C 424.87,79.3656 406.703,71.8656 383.5,76C 360.195,81.0674 340.362,92.234 324,109.5C 318.194,120.792 319.86,130.792 329,139.5C 329.483,140.448 329.649,141.448 329.5,142.5C 299.852,147.608 270.186,152.608 240.5,157.5C 244.909,127.379 250.076,97.379 256,67.5C 260.467,70.9651 264.633,74.7984 268.5,79C 278.574,85.0733 288.24,84.4066 297.5,77C 308.784,67.0267 320.784,58.0267 333.5,50C 349.202,41.1544 365.869,35.6544 383.5,33.5 Z M 391.5,97.5 C 402.567,96.7868 411.4,100.787 418,109.5C 425.526,123.839 428.692,139.006 427.5,155C 390.125,165.258 358.625,184.758 333,213.5C 318.637,198.126 302.803,184.626 285.5,173C 302.167,170 318.833,167 335.5,164C 351.267,159.641 357.1,149.474 353,133.5C 351.093,129.59 348.427,126.256 345,123.5C 344.333,122.833 344.333,122.167 345,121.5C 358.18,108.777 373.68,100.777 391.5,97.5 Z M 179.5,172.5 C 193.584,172.04 207.584,172.873 221.5,175C 259.836,182.253 291.669,200.753 317,230.5C 317.167,231.5 317.333,232.5 317.5,233.5C 311.127,245.078 305.127,256.912 299.5,269C 281.822,266.807 264.155,264.141 246.5,261C 244,259.833 242.167,258 241,255.5C 233.196,237.892 224.862,220.559 216,203.5C 204.297,191.308 191.13,189.474 176.5,198C 173.628,200.537 171.128,203.37 169,206.5C 161.393,222.046 154.06,237.713 147,253.5C 145.402,258.099 142.235,260.932 137.5,262C 120.109,264.294 102.775,266.961 85.5,270C 69.1463,276.081 62.313,287.914 65,305.5C 65.8035,308.244 66.8035,310.911 68,313.5C 80.9368,328.439 94.6035,342.772 109,356.5C 111.298,360.218 111.965,364.218 111,368.5C 106.925,388.019 104.259,407.686 103,427.5C 105.654,438.82 112.488,446.32 123.5,450C 129.569,450.804 135.569,450.471 141.5,449C 155.753,441.735 169.753,434.068 183.5,426C 190.167,421.333 196.833,421.333 203.5,426C 217.247,434.068 231.247,441.735 245.5,449C 263.041,453.718 275.541,447.885 283,431.5C 283.859,428.052 284.359,424.552 284.5,421C 282.046,403.442 279.213,385.942 276,368.5C 275.333,365.5 275.333,362.5 276,359.5C 279.966,354.533 284.299,349.866 289,345.5C 291.551,368.365 297.551,390.365 307,411.5C 310.081,417.331 313.415,422.998 317,428.5C 317.706,430.971 317.373,433.305 316,435.5C 269.143,486.847 211.977,503.347 144.5,485C 90.5791,466.079 55.4124,429.246 39,374.5C 24.0339,308.819 41.5339,253.652 91.5,209C 117.296,188.268 146.629,176.101 179.5,172.5 Z M 457.5,172.5 C 527.674,170.158 580.174,199.158 615,259.5C 643.58,322.284 636.913,380.95 595,435.5C 547.249,487.413 489.416,503.58 421.5,484C 372.091,466.258 338.258,432.758 320,383.5C 300.912,315.672 317.079,257.839 368.5,210C 394.536,188.823 424.203,176.323 457.5,172.5 Z M 191.5,215.5 C 193.936,215.317 196.103,215.984 198,217.5C 206.273,234.379 214.273,251.379 222,268.5C 226.37,275.526 232.536,280.36 240.5,283C 257.478,285.774 274.478,288.441 291.5,291C 292,291.5 292.5,292 293,292.5C 293.074,299.874 291.407,306.874 288,313.5C 279.054,322.446 270.054,331.446 261,340.5C 254.495,348.35 251.828,357.35 253,367.5C 256.653,386.409 259.319,405.409 261,424.5C 259.587,426.414 257.753,427.747 255.5,428.5C 238.5,419.333 221.5,410.167 204.5,401C 197.167,399 189.833,399 182.5,401C 165.5,410.167 148.5,419.333 131.5,428.5C 127.305,427.149 125.305,424.315 125.5,420C 128.279,402.159 131.112,384.326 134,366.5C 135.349,356.559 132.682,347.892 126,340.5C 112.97,327.804 100.304,314.804 88,301.5C 86.5418,297.219 87.7084,294.053 91.5,292C 108.444,289.009 125.444,286.343 142.5,284C 152.479,282.343 159.979,277.176 165,268.5C 172.842,250.149 181.675,232.483 191.5,215.5 Z M 456.5,239.5 C 457.833,239.5 459.167,239.5 460.5,239.5C 460.5,265.833 460.5,292.167 460.5,318.5C 447.194,315.367 438.027,307.367 433,294.5C 426.062,269.722 433.895,251.389 456.5,239.5 Z M 483.5,346.5 C 497.54,350.034 507.04,358.701 512,372.5C 517.697,394.081 511.197,410.915 492.5,423C 489.688,424.549 486.688,425.382 483.5,425.5C 483.5,399.167 483.5,372.833 483.5,346.5 Z M 331.5,451.5 C 340.609,459.438 349.609,467.604 358.5,476C 365.833,481.333 373.167,486.667 380.5,492C 364.6,495.38 348.6,498.38 332.5,501C 315.249,504.342 308.749,514.509 313,531.5C 314.933,535.698 317.599,539.365 321,542.5C 308.101,557.202 291.601,565.535 271.5,567.5C 257.043,567.208 247.543,560.208 243,546.5C 239.139,534.626 237.305,522.626 237.5,510.5C 266.495,502.171 292.495,488.338 315.5,469C 321.409,463.596 326.742,457.763 331.5,451.5 Z M 422.5,507.5 C 423.5,507.5 424.5,507.5 425.5,507.5C 420.745,538.37 415.245,569.037 409,599.5C 405.201,594.699 401.034,590.199 396.5,586C 386.154,580.637 376.488,581.637 367.5,589C 346.478,609.682 321.478,623.349 292.5,630C 235.594,637.974 198.094,614.808 180,560.5C 175.638,545.681 173.472,530.681 173.5,515.5C 180.147,514.523 186.813,514.523 193.5,515.5C 199.76,515.22 205.926,514.553 212,513.5C 212.414,513.957 212.914,514.291 213.5,514.5C 215.009,526.215 217.176,537.881 220,549.5C 231.169,583.509 254.336,596.343 289.5,588C 309.926,581.871 327.426,571.038 342,555.5C 347.522,543.419 345.355,532.919 335.5,524C 364.612,518.41 393.612,512.91 422.5,507.5 Z"/></g>
<g><path style="opacity:0.958" fill="#fb7468" d="M 469.5,192.5 C 480.678,192.854 485.178,198.521 483,209.5C 484.122,211.624 485.622,213.457 487.5,215C 510.374,221.676 525.874,236.176 534,258.5C 536.73,267.441 537.064,276.441 535,285.5C 528.242,292.126 521.909,291.793 516,284.5C 515.55,266.088 507.717,251.922 492.5,242C 489.794,240.092 486.794,239.259 483.5,239.5C 483.333,266.502 483.5,293.502 484,320.5C 492.32,323.943 500.487,327.777 508.5,332C 530.663,348.182 539.83,370.015 536,397.5C 531.933,417.455 521.1,432.621 503.5,443C 497.816,446.061 491.816,448.228 485.5,449.5C 484.159,455.802 482.659,462.136 481,468.5C 474.636,474.091 468.636,473.757 463,467.5C 461.796,463.284 461.13,458.951 461,454.5C 460.215,452.714 459.049,451.214 457.5,450C 435.359,443.521 419.859,429.688 411,408.5C 407.125,398.512 406.791,388.512 410,378.5C 416.277,373.064 422.277,373.397 428,379.5C 429.142,390.071 432.142,400.071 437,409.5C 442.829,417.838 450.663,423.171 460.5,425.5C 460.667,398.165 460.5,370.831 460,343.5C 417.448,329.406 401.115,300.406 411,256.5C 420.161,234.511 436.328,220.511 459.5,214.5C 460.244,209.479 461.077,204.479 462,199.5C 463.211,195.666 465.711,193.333 469.5,192.5 Z M 456.5,239.5 C 433.895,251.389 426.062,269.722 433,294.5C 438.027,307.367 447.194,315.367 460.5,318.5C 460.5,292.167 460.5,265.833 460.5,239.5C 459.167,239.5 457.833,239.5 456.5,239.5 Z M 483.5,346.5 C 483.5,372.833 483.5,399.167 483.5,425.5C 486.688,425.382 489.688,424.549 492.5,423C 511.197,410.915 517.697,394.081 512,372.5C 507.04,358.701 497.54,350.034 483.5,346.5 Z"/></g>
</svg>
