<?xml version="1.0" encoding="UTF-8"?>
<!DOCTYPE svg PUBLIC "-//W3C//DTD SVG 1.1//EN" "http://www.w3.org/Graphics/SVG/1.1/DTD/svg11.dtd">
<svg xmlns="http://www.w3.org/2000/svg" version="1.1" width="46px" height="50px" style="shape-rendering:geometricPrecision; text-rendering:geometricPrecision; image-rendering:optimizeQuality; fill-rule:evenodd; clip-rule:evenodd" xmlns:xlink="http://www.w3.org/1999/xlink">
<g><path style="opacity:0.59" fill="#fe7568" d="M 15.5,-0.5 C 19.1667,-0.5 22.8333,-0.5 26.5,-0.5C 29.1393,1.30904 31.3059,3.64238 33,6.5C 34.0694,14.839 35.9027,22.839 38.5,30.5C 40.4086,31.3482 42.4086,31.6816 44.5,31.5C 45.8642,38.7413 43.8642,44.7413 38.5,49.5C 27.5,49.5 16.5,49.5 5.5,49.5C 4.52684,39.9162 4.1935,30.2496 4.5,20.5C 5.5,20.5 6.5,20.5 7.5,20.5C 5.49281,11.5433 8.15947,4.5433 15.5,-0.5 Z M 17.5,1.5 C 29.7519,1.94089 34.2519,8.27422 31,20.5C 31.0446,15.5701 30.0446,10.9034 28,6.5C 22.7186,2.30097 17.7186,2.6343 13,7.5C 11.958,11.7594 11.1246,16.0928 10.5,20.5C 10.1667,20.3333 9.83333,20.1667 9.5,20C 10.3002,15.92 10.8002,11.7533 11,7.5C 12.4936,4.68648 14.6603,2.68648 17.5,1.5 Z M 19.5,5.5 C 22.617,5.64226 25.117,6.9756 27,9.5C 27.4986,13.1516 27.6653,16.8183 27.5,20.5C 23.1667,20.5 18.8333,20.5 14.5,20.5C 14.3347,16.8183 14.5014,13.1516 15,9.5C 16.2499,7.8065 17.7499,6.47317 19.5,5.5 Z M 6.5,23.5 C 15.8333,23.5 25.1667,23.5 34.5,23.5C 35.7297,29.4852 33.3964,32.1518 27.5,31.5C 27.335,34.8499 27.5017,38.1832 28,41.5C 28.2735,43.3289 29.1068,44.8289 30.5,46C 22.5069,46.4997 14.5069,46.6664 6.5,46.5C 6.5,38.8333 6.5,31.1667 6.5,23.5 Z M 19.5,30.5 C 20.5,30.5 21.5,30.5 22.5,30.5C 21.477,33.3925 21.477,36.2258 22.5,39C 21.5,39.6667 20.5,39.6667 19.5,39C 20.3999,35.9058 20.3999,33.0724 19.5,30.5 Z M 41.5,37.5 C 41.1575,35.7748 40.1575,35.2748 38.5,36C 36.9825,37.6851 35.3159,39.1851 33.5,40.5C 31.2143,40.04 29.881,38.7067 29.5,36.5C 31.2617,34.3946 33.4284,32.728 36,31.5C 37.5522,32.9661 39.3855,33.9661 41.5,34.5C 42.7759,35.6136 42.7759,36.6136 41.5,37.5 Z M 41.5,37.5 C 42.117,43.1724 39.7837,46.3391 34.5,47C 32.8588,45.871 31.8588,44.371 31.5,42.5C 32.7382,43.4124 34.0715,43.5791 35.5,43C 37.3702,40.9604 39.3702,39.1271 41.5,37.5 Z"/></g>
<g><path style="opacity:0.56" fill="#fe7568" d="M 19.5,27.5 C 22.6686,27.6617 24.6686,29.3284 25.5,32.5C 24.7565,35.443 24.2565,38.443 24,41.5C 23.586,41.9574 23.086,42.2907 22.5,42.5C 21.0333,42.277 19.5333,41.9437 18,41.5C 17.5931,38.318 17.0931,35.1514 16.5,32C 16.5572,29.7911 17.5572,28.2911 19.5,27.5 Z M 19.5,30.5 C 20.3999,33.0724 20.3999,35.9058 19.5,39C 20.5,39.6667 21.5,39.6667 22.5,39C 21.477,36.2258 21.477,33.3925 22.5,30.5C 21.5,30.5 20.5,30.5 19.5,30.5 Z"/></g>
</svg>
