<?xml version="1.0" encoding="UTF-8"?>
<!DOCTYPE svg PUBLIC "-//W3C//DTD SVG 1.1//EN" "http://www.w3.org/Graphics/SVG/1.1/DTD/svg11.dtd">
<svg xmlns="http://www.w3.org/2000/svg" version="1.1" width="512px" height="512px" style="shape-rendering:geometricPrecision; text-rendering:geometricPrecision; image-rendering:optimizeQuality; fill-rule:evenodd; clip-rule:evenodd" xmlns:xlink="http://www.w3.org/1999/xlink">
<g><path style="opacity:0.984" fill="#fb7468" d="M 511.5,110.5 C 511.5,207.167 511.5,303.833 511.5,400.5C 506.348,418.484 494.682,429.984 476.5,435C 329.167,435.667 181.833,435.667 34.5,435C 16.3096,429.975 4.64294,418.475 -0.5,400.5C -0.5,303.833 -0.5,207.167 -0.5,110.5C 4.65165,92.5157 16.3183,81.0157 34.5,76C 181.833,75.3333 329.167,75.3333 476.5,76C 494.682,81.0157 506.348,92.5157 511.5,110.5 Z M 52.5,106.5 C 187.666,105.334 322.999,105.167 458.5,106C 393.833,170.667 329.167,235.333 264.5,300C 258.5,303.333 252.5,303.333 246.5,300C 181.965,235.299 117.299,170.799 52.5,106.5 Z M 29.5,127.5 C 72.479,169.812 115.146,212.479 157.5,255.5C 115.18,298.32 72.6804,340.986 30,383.5C 29.5,298.167 29.3333,212.834 29.5,127.5 Z M 480.5,127.5 C 481.666,212.666 481.832,297.999 481,383.5C 438.32,340.986 395.82,298.32 353.5,255.5C 395.854,212.812 438.188,170.146 480.5,127.5 Z M 179.5,277.5 C 194.967,293.8 210.967,309.633 227.5,325C 246.167,336.333 264.833,336.333 283.5,325C 300,309.833 315.833,294 331,277.5C 373.5,320 416,362.5 458.5,405C 323.167,405.667 187.833,405.667 52.5,405C 95.0347,362.632 137.368,320.132 179.5,277.5 Z"/></g>
</svg>
