<?xml version="1.0" encoding="UTF-8"?>
<!DOCTYPE svg PUBLIC "-//W3C//DTD SVG 1.1//EN" "http://www.w3.org/Graphics/SVG/1.1/DTD/svg11.dtd">
<svg xmlns="http://www.w3.org/2000/svg" version="1.1" width="512px" height="512px" style="shape-rendering:geometricPrecision; text-rendering:geometricPrecision; image-rendering:optimizeQuality; fill-rule:evenodd; clip-rule:evenodd" xmlns:xlink="http://www.w3.org/1999/xlink">
<g><path style="opacity:0.964" fill="#004762" d="M 344.5,10.5 C 382.925,9.58955 404.258,28.2562 408.5,66.5C 408.446,80.7653 403.78,93.2653 394.5,104C 429.832,104.5 465.165,104.667 500.5,104.5C 500.5,149.833 500.5,195.167 500.5,240.5C 490.833,240.5 481.167,240.5 471.5,240.5C 471.5,327.167 471.5,413.833 471.5,500.5C 327.5,500.5 183.5,500.5 39.5,500.5C 39.5,413.833 39.5,327.167 39.5,240.5C 29.8333,240.5 20.1667,240.5 10.5,240.5C 10.5,195.167 10.5,149.833 10.5,104.5C 45.5016,104.667 80.5016,104.5 115.5,104C 98.0391,79.3709 98.2058,54.8709 116,30.5C 129.527,15.4341 146.361,9.26746 166.5,12C 202.032,24.3444 231.532,45.1777 255,74.5C 278.908,44.7405 308.741,23.4072 344.5,10.5 Z M 157.5,31.5 C 166.445,32.9828 174.778,36.1495 182.5,41C 202.653,52.4701 220.486,66.9701 236,84.5C 239.728,88.9513 242.062,93.9513 243,99.5C 241.421,101.041 239.587,102.208 237.5,103C 208.833,103.667 180.167,103.667 151.5,103C 134.841,97.3916 125.841,85.7249 124.5,68C 126.345,47.3309 137.345,35.1642 157.5,31.5 Z M 351.5,31.5 C 377.844,35.6883 389.011,51.0217 385,77.5C 381.167,90.6667 372.667,99.1667 359.5,103C 330.833,103.667 302.167,103.667 273.5,103C 269.741,102.256 267.908,100.089 268,96.5C 273.303,86.5243 280.137,77.6909 288.5,70C 301.325,58.8407 314.991,48.8407 329.5,40C 336.618,36.2449 343.951,33.4115 351.5,31.5 Z M 31.5,126.5 C 85.1667,126.5 138.833,126.5 192.5,126.5C 192.5,157.5 192.5,188.5 192.5,219.5C 138.833,219.5 85.1667,219.5 31.5,219.5C 31.5,188.5 31.5,157.5 31.5,126.5 Z M 214.5,126.5 C 241.833,126.5 269.167,126.5 296.5,126.5C 296.5,244.167 296.5,361.833 296.5,479.5C 269.167,479.5 241.833,479.5 214.5,479.5C 214.5,361.833 214.5,244.167 214.5,126.5 Z M 318.5,126.5 C 372.167,126.5 425.833,126.5 479.5,126.5C 479.5,157.5 479.5,188.5 479.5,219.5C 425.833,219.5 372.167,219.5 318.5,219.5C 318.5,188.5 318.5,157.5 318.5,126.5 Z M 60.5,240.5 C 104.5,240.5 148.5,240.5 192.5,240.5C 192.5,320.167 192.5,399.833 192.5,479.5C 148.5,479.5 104.5,479.5 60.5,479.5C 60.5,399.833 60.5,320.167 60.5,240.5 Z M 318.5,240.5 C 362.167,240.5 405.833,240.5 449.5,240.5C 449.5,320.167 449.5,399.833 449.5,479.5C 405.833,479.5 362.167,479.5 318.5,479.5C 318.5,399.833 318.5,320.167 318.5,240.5 Z"/></g>
</svg>
