<?xml version="1.0" encoding="UTF-8"?>
<!DOCTYPE svg PUBLIC "-//W3C//DTD SVG 1.1//EN" "http://www.w3.org/Graphics/SVG/1.1/DTD/svg11.dtd">
<svg xmlns="http://www.w3.org/2000/svg" version="1.1" width="512px" height="512px" style="shape-rendering:geometricPrecision; text-rendering:geometricPrecision; image-rendering:optimizeQuality; fill-rule:evenodd; clip-rule:evenodd" xmlns:xlink="http://www.w3.org/1999/xlink">
<g><path style="opacity:0.969" fill="#fb7468" d="M 511.5,234.5 C 511.5,248.5 511.5,262.5 511.5,276.5C 499.4,364.093 452.733,425.26 371.5,460C 350.547,467.988 328.88,472.655 306.5,474C 208.833,474.667 111.167,474.667 13.5,474C 0.211587,467.688 -2.62175,458.188 5,445.5C 7.25131,443.623 9.75131,442.123 12.5,441C 66.8333,440.667 121.167,440.333 175.5,440C 164.31,433.147 153.976,425.147 144.5,416C 118.167,415.667 91.8333,415.333 65.5,415C 54.6431,412.459 49.8098,405.626 51,394.5C 52.0174,389.288 54.8508,385.455 59.5,383C 77.4442,381.873 95.4442,381.039 113.5,380.5C 70.9261,315.566 63.0928,246.566 90,173.5C 94.1,164.133 98.6,154.967 103.5,146C 73.1667,145.667 42.8333,145.333 12.5,145C 6.47697,143.466 2.14364,139.966 -0.5,134.5C -0.5,130.5 -0.5,126.5 -0.5,122.5C 1.97883,117.857 5.64549,114.357 10.5,112C 49.8333,111.667 89.1667,111.333 128.5,111C 135.833,103.667 143.167,96.3333 150.5,89C 158.554,82.6125 166.888,76.6125 175.5,71C 144.772,70.9773 114.106,70.3107 83.5,69C 75.8073,64.2703 72.974,57.437 75,48.5C 76.9081,42.2602 81.0747,38.4269 87.5,37C 160.5,36.3333 233.5,36.3333 306.5,37C 380.879,43.415 438.379,77.5816 479,139.5C 496.938,168.817 507.772,200.484 511.5,234.5 Z M 288.5,70.5 C 361.824,72.2266 417.324,104.227 455,166.5C 481.562,218.152 484.562,271.152 464,325.5C 438.059,384.102 393.892,420.935 331.5,436C 265.039,448.268 207.872,430.768 160,383.5C 107.882,324.386 95.5485,257.72 123,183.5C 156.3,113.925 211.467,76.258 288.5,70.5 Z M 272.5,155.5 C 273.833,155.5 275.167,155.5 276.5,155.5C 276.833,170.182 276.499,184.848 275.5,199.5C 262.912,203.934 252.412,211.267 244,221.5C 230.314,217.208 216.814,212.542 203.5,207.5C 219.082,180.242 242.082,162.909 272.5,155.5 Z M 310.5,155.5 C 342.651,161.665 366.651,178.998 382.5,207.5C 368.873,213.321 354.873,217.821 340.5,221C 332.973,210.977 323.306,203.81 311.5,199.5C 310.501,184.848 310.167,170.182 310.5,155.5 Z M 286.5,231.5 C 307.314,230.15 317.48,239.816 317,260.5C 310.037,278.716 297.537,283.883 279.5,276C 264.833,262.333 264.833,248.667 279.5,235C 281.925,233.787 284.259,232.621 286.5,231.5 Z M 192.5,241.5 C 206.332,245.221 219.998,249.555 233.5,254.5C 234.377,267.968 238.71,280.135 246.5,291C 237.61,302.382 228.943,313.882 220.5,325.5C 204.079,309.32 194.579,289.654 192,266.5C 191.26,258.132 191.426,249.798 192.5,241.5 Z M 390.5,241.5 C 391.822,241.33 392.989,241.663 394,242.5C 397.435,274.861 388.102,302.861 366,326.5C 357.485,314.656 348.985,302.823 340.5,291C 347.785,279.978 351.785,267.812 352.5,254.5C 365.275,250.131 377.942,245.798 390.5,241.5 Z M 273.5,311.5 C 279.947,312.754 286.447,313.754 293,314.5C 299.549,313.588 306.049,312.755 312.5,312C 321.201,323.235 329.534,334.735 337.5,346.5C 308.524,360.723 279.358,361.056 250,347.5C 248.743,347.15 248.409,346.483 249,345.5C 256.998,334.009 265.164,322.676 273.5,311.5 Z"/></g>
<g><path style="opacity:0.97" fill="#fb7468" d="M 283.5,119.5 C 333.663,117.917 373.83,136.917 404,176.5C 434.597,224.122 436.93,273.122 411,323.5C 373.539,380.461 321.373,401.294 254.5,386C 199.239,367.318 167.072,329.151 158,271.5C 153.815,212.032 176.982,166.865 227.5,136C 245.196,126.748 263.863,121.248 283.5,119.5 Z M 272.5,155.5 C 242.082,162.909 219.082,180.242 203.5,207.5C 216.814,212.542 230.314,217.208 244,221.5C 252.412,211.267 262.912,203.934 275.5,199.5C 276.499,184.848 276.833,170.182 276.5,155.5C 275.167,155.5 273.833,155.5 272.5,155.5 Z M 310.5,155.5 C 310.167,170.182 310.501,184.848 311.5,199.5C 323.306,203.81 332.973,210.977 340.5,221C 354.873,217.821 368.873,213.321 382.5,207.5C 366.651,178.998 342.651,161.665 310.5,155.5 Z M 286.5,231.5 C 284.259,232.621 281.925,233.787 279.5,235C 264.833,248.667 264.833,262.333 279.5,276C 297.537,283.883 310.037,278.716 317,260.5C 317.48,239.816 307.314,230.15 286.5,231.5 Z M 192.5,241.5 C 191.426,249.798 191.26,258.132 192,266.5C 194.579,289.654 204.079,309.32 220.5,325.5C 228.943,313.882 237.61,302.382 246.5,291C 238.71,280.135 234.377,267.968 233.5,254.5C 219.998,249.555 206.332,245.221 192.5,241.5 Z M 390.5,241.5 C 377.942,245.798 365.275,250.131 352.5,254.5C 351.785,267.812 347.785,279.978 340.5,291C 348.985,302.823 357.485,314.656 366,326.5C 388.102,302.861 397.435,274.861 394,242.5C 392.989,241.663 391.822,241.33 390.5,241.5 Z M 273.5,311.5 C 265.164,322.676 256.998,334.009 249,345.5C 248.409,346.483 248.743,347.15 250,347.5C 279.358,361.056 308.524,360.723 337.5,346.5C 329.534,334.735 321.201,323.235 312.5,312C 306.049,312.755 299.549,313.588 293,314.5C 286.447,313.754 279.947,312.754 273.5,311.5 Z"/></g>
</svg>
