<?xml version="1.0" encoding="UTF-8"?>
<!DOCTYPE svg PUBLIC "-//W3C//DTD SVG 1.1//EN" "http://www.w3.org/Graphics/SVG/1.1/DTD/svg11.dtd">
<svg xmlns="http://www.w3.org/2000/svg" version="1.1" width="75px" height="86px" style="shape-rendering:geometricPrecision; text-rendering:geometricPrecision; image-rendering:optimizeQuality; fill-rule:evenodd; clip-rule:evenodd" xmlns:xlink="http://www.w3.org/1999/xlink">
<g><path style="opacity:0.76" fill="#fe7568" d="M 34.5,-0.5 C 36.1667,-0.5 37.8333,-0.5 39.5,-0.5C 50.9652,6.73696 62.6319,13.737 74.5,20.5C 74.5,35.1667 74.5,49.8333 74.5,64.5C 62.6319,71.263 50.9652,78.263 39.5,85.5C 37.8333,85.5 36.1667,85.5 34.5,85.5C 23.0348,78.263 11.3681,71.263 -0.5,64.5C -0.5,49.8333 -0.5,35.1667 -0.5,20.5C 11.3681,13.737 23.0348,6.73696 34.5,-0.5 Z M 35.5,3.5 C 47.216,8.85992 58.5494,15.0266 69.5,22C 66.5875,23.3726 63.7542,24.8726 61,26.5C 50.248,20.2068 39.4146,14.0402 28.5,8C 30.8981,6.47576 33.2314,4.97576 35.5,3.5 Z M 23.5,10.5 C 26.6907,11.0922 29.6907,12.2589 32.5,14C 40.6313,18.6346 48.6313,23.468 56.5,28.5C 54.2581,30.5388 51.7581,32.2054 49,33.5C 38.248,27.2068 27.4146,21.0402 16.5,15C 18.8981,13.4758 21.2314,11.9758 23.5,10.5 Z M 12.5,16.5 C 23.1494,22.806 33.8161,29.1394 44.5,35.5C 42.2581,37.5388 39.7581,39.2054 37,40.5C 26.248,34.2068 15.4146,28.0402 4.5,22C 7.40676,20.3909 10.0734,18.5576 12.5,16.5 Z M 2.5,24.5 C 13.2237,30.9479 24.057,37.2812 35,43.5C 35.8326,55.8468 35.6659,68.1802 34.5,80.5C 24.0029,74.7525 13.6696,68.7525 3.5,62.5C 2.50092,49.8508 2.16759,37.1842 2.5,24.5 Z M 70.5,24.5 C 71.825,37.0062 71.825,49.6729 70.5,62.5C 60.3304,68.7525 49.9971,74.7525 39.5,80.5C 38.3341,68.1802 38.1674,55.8468 39,43.5C 41.8349,42.0836 44.5015,40.417 47,38.5C 47.3333,44.1667 47.6667,49.8333 48,55.5C 48.414,55.9574 48.914,56.2907 49.5,56.5C 51.6499,54.8509 53.6499,53.0176 55.5,51C 58.1194,51.0833 60.786,51.25 63.5,51.5C 63.3337,44.1591 63.5003,36.8258 64,29.5C 66.3256,27.9343 68.4922,26.2676 70.5,24.5 Z M 58.5,31.5 C 59.6507,36.6503 59.8174,41.9836 59,47.5C 56.1192,45.9717 53.7859,46.6384 52,49.5C 51.1717,44.798 51.3384,40.1313 52.5,35.5C 54.9106,34.6389 56.9106,33.3056 58.5,31.5 Z"/></g>
<g><path style="opacity:0.674" fill="#fe7568" d="M 17.5,63.5 C 22.7266,64.8622 27.5599,67.1956 32,70.5C 32.6013,71.9653 32.1013,72.9653 30.5,73.5C 26.6262,71.1324 22.6262,68.9657 18.5,67C 17.6634,65.9887 17.33,64.8221 17.5,63.5 Z"/></g>
</svg>
