<?xml version="1.0" encoding="UTF-8"?>
<!DOCTYPE svg PUBLIC "-//W3C//DTD SVG 1.1//EN" "http://www.w3.org/Graphics/SVG/1.1/DTD/svg11.dtd">
<svg xmlns="http://www.w3.org/2000/svg" version="1.1" width="512px" height="512px" style="shape-rendering:geometricPrecision; text-rendering:geometricPrecision; image-rendering:optimizeQuality; fill-rule:evenodd; clip-rule:evenodd" xmlns:xlink="http://www.w3.org/1999/xlink">
<g><path style="opacity:0.976" fill="#004762" d="M 511.5,59.5 C 511.5,147.833 511.5,236.167 511.5,324.5C 505.823,346.207 491.823,359.041 469.5,363C 355.5,363.667 241.5,363.667 127.5,363C 106.356,359.523 92.1898,347.69 85,327.5C 84.3333,238.833 84.3333,150.167 85,61.5C 88.6686,42.1634 99.8353,29.3301 118.5,23C 236.79,21.3411 355.124,21.0077 473.5,22C 493.348,27.3488 506.015,39.8488 511.5,59.5 Z M 132.5,53.5 C 242.834,53.3333 353.167,53.5 463.5,54C 472.667,55.1667 477.833,60.3333 479,69.5C 479.667,125.5 479.667,181.5 479,237.5C 454.667,208.833 430.333,180.167 406,151.5C 390.428,132.781 371.928,129.281 350.5,141C 321.248,174.247 292.748,208.081 265,242.5C 254.471,231.637 243.637,221.137 232.5,211C 216.702,203.209 201.702,204.542 187.5,215C 164.333,238.167 141.167,261.333 118,284.5C 117.333,211.5 117.333,138.5 118,65.5C 120.319,58.3387 125.153,54.3387 132.5,53.5 Z M 187.5,118.5 C 197.492,117.327 201.992,121.66 201,131.5C 194.667,140.833 188.333,140.833 182,131.5C 180.571,125.7 182.404,121.367 187.5,118.5 Z M 370.5,167.5 C 374.664,167.143 377.831,168.81 380,172.5C 412.625,211.461 445.625,250.127 479,288.5C 479.667,297.167 479.667,305.833 479,314.5C 478.172,322.331 474.005,327.498 466.5,330C 354.167,330.667 241.833,330.667 129.5,330C 127.131,329.464 125.131,328.297 123.5,326.5C 151.986,297.514 180.653,268.68 209.5,240C 210.609,239.362 211.775,238.862 213,238.5C 227.459,251.958 241.626,265.792 255.5,280C 262.5,284.667 269.5,284.667 276.5,280C 308.045,242.627 339.378,205.127 370.5,167.5 Z"/></g>
<g><path style="opacity:0.966" fill="#004762" d="M 181.5,85.5 C 209.105,82.3656 226.605,94.0323 234,120.5C 236.475,145.342 225.975,161.842 202.5,170C 176.981,174.326 159.481,164.493 150,140.5C 145.025,113.1 155.525,94.7666 181.5,85.5 Z M 187.5,118.5 C 182.404,121.367 180.571,125.7 182,131.5C 188.333,140.833 194.667,140.833 201,131.5C 201.992,121.66 197.492,117.327 187.5,118.5 Z"/></g>
<g><path style="opacity:0.964" fill="#004762" d="M -0.5,364.5 C -0.5,357.833 -0.5,351.167 -0.5,344.5C 12.3898,296.307 25.2231,247.974 38,199.5C 42.1006,192.242 48.2672,189.408 56.5,191C 64.3715,193.388 68.7049,198.721 69.5,207C 57.5699,254.22 45.4032,301.387 33,348.5C 31.0516,355.865 32.8849,362.032 38.5,367C 151.228,398.408 264.228,428.908 377.5,458.5C 383.737,458.094 388.237,455.094 391,449.5C 395.156,433.876 399.156,418.209 403,402.5C 407.918,389.465 416.751,385.965 429.5,392C 433.826,395.638 435.826,400.305 435.5,406C 432.222,422.612 428.389,439.112 424,455.5C 415.372,480.401 397.872,492.234 371.5,491C 257.715,461.137 144.049,430.804 30.5,400C 14.2483,393.254 3.91496,381.42 -0.5,364.5 Z"/></g>
</svg>
