<?xml version="1.0" encoding="UTF-8"?>
<!DOCTYPE svg PUBLIC "-//W3C//DTD SVG 1.1//EN" "http://www.w3.org/Graphics/SVG/1.1/DTD/svg11.dtd">
<svg xmlns="http://www.w3.org/2000/svg" version="1.1" width="512px" height="512px" style="shape-rendering:geometricPrecision; text-rendering:geometricPrecision; image-rendering:optimizeQuality; fill-rule:evenodd; clip-rule:evenodd" xmlns:xlink="http://www.w3.org/1999/xlink">
<g><path style="opacity:0.953" fill="#fe7568" d="M -0.5,295.5 C -0.5,224.5 -0.5,153.5 -0.5,82.5C 5.4237,58.7448 20.4237,44.2448 44.5,39C 126.5,38.3333 208.5,38.3333 290.5,39C 314.048,44.027 328.882,58.1937 335,81.5C 336.46,146.814 336.96,212.147 336.5,277.5C 352.17,277.333 367.837,277.5 383.5,278C 391.668,281.189 393.835,286.689 390,294.5C 388.786,296.049 387.286,297.215 385.5,298C 368.5,298.333 351.5,298.667 334.5,299C 332.299,305.403 329.299,311.403 325.5,317C 360.5,317.333 395.5,317.667 430.5,318C 437.811,321.763 439.645,327.263 436,334.5C 434.786,336.049 433.286,337.215 431.5,338C 384.835,338.5 338.168,338.667 291.5,338.5C 288.696,357.962 279.03,372.962 262.5,383.5C 266.155,397.118 269.655,410.785 273,424.5C 275.618,433.439 272.451,438.939 263.5,441C 222.458,451.177 181.458,461.511 140.5,472C 134.555,473.468 130.055,471.635 127,466.5C 123.165,451.828 119.332,437.161 115.5,422.5C 91.6111,422.117 74.1111,411.117 63,389.5C 58.1872,372.915 53.6872,356.248 49.5,339.5C 23.6774,334.999 7.01078,320.332 -0.5,295.5 Z M 48.5,59.5 C 127.834,59.3333 207.167,59.5 286.5,60C 300.779,62.9442 309.945,71.4442 314,85.5C 314.667,154.167 314.667,222.833 314,291.5C 310.643,304.022 302.81,312.022 290.5,315.5C 281.808,278.399 272.641,241.399 263,204.5C 256.253,185.205 242.753,177.372 222.5,181C 219.136,182.099 215.97,183.599 213,185.5C 208.024,167.597 203.357,149.597 199,131.5C 193.939,116.792 183.606,108.792 168,107.5C 161.176,108.055 154.676,109.722 148.5,112.5C 145.451,100.95 138.118,93.4496 126.5,90C 105.591,86.7058 92.0906,95.2058 86,115.5C 85.4361,120.194 85.6027,124.86 86.5,129.5C 64.3266,129.338 52.3266,140.338 50.5,162.5C 38.3951,161.141 28.5618,165.141 21,174.5C 20.3333,144.833 20.3333,115.167 21,85.5C 25.2307,71.4315 34.3974,62.7648 48.5,59.5 Z M 113.5,110.5 C 121.194,109.261 126.361,112.261 129,119.5C 140.024,163.597 151.357,207.597 163,251.5C 169,258.167 175,258.167 181,251.5C 181.808,249.577 182.308,247.577 182.5,245.5C 173.989,210.458 165.323,175.458 156.5,140.5C 157.777,131.727 162.777,128.227 171.5,130C 173.624,131.122 175.457,132.622 177,134.5C 191.132,187.36 204.799,240.36 218,293.5C 221.196,300.344 226.362,302.51 233.5,300C 237.037,297.592 238.704,294.259 238.5,290C 232.327,263.974 225.994,237.974 219.5,212C 221.59,203.616 226.923,200.283 235.5,202C 238.333,203.5 240.5,205.667 242,208.5C 252.783,248.964 262.616,289.631 271.5,330.5C 270.121,349.055 260.787,361.889 243.5,369C 240.123,372.133 238.956,375.966 240,380.5C 243.505,394.519 247.005,408.519 250.5,422.5C 215.234,431.539 179.9,440.039 144.5,448C 140.726,433.072 136.559,418.239 132,403.5C 130.681,401.513 128.848,400.346 126.5,400C 122.008,399.782 117.508,399.949 113,400.5C 98.2689,399.969 87.9356,392.969 82,379.5C 66.0279,317.945 50.5279,256.278 35.5,194.5C 36.5977,186.235 41.2644,182.735 49.5,184C 54.3243,185.781 57.1577,189.281 58,194.5C 64.3547,220.585 71.0213,246.585 78,272.5C 82.2485,277.596 87.4151,278.763 93.5,276C 97.3049,271.909 98.4716,267.076 97,261.5C 88.57,228.279 80.07,195.112 71.5,162C 73.5441,152.262 79.2107,148.928 88.5,152C 91.2948,153.774 93.1281,156.274 94,159.5C 102.511,193.209 111.177,226.876 120,260.5C 124.92,268.064 130.92,269.064 138,263.5C 139.03,261.412 139.863,259.245 140.5,257C 129.402,211.775 118.069,166.608 106.5,121.5C 107.099,116.615 109.432,112.948 113.5,110.5 Z M 20.5,226.5 C 28.452,255.636 36.1186,284.969 43.5,314.5C 43,314.833 42.5,315.167 42,315.5C 31.0844,310.918 24.0844,302.918 21,291.5C 20.5,269.836 20.3334,248.169 20.5,226.5 Z"/></g>
<g><path style="opacity:0.951" fill="#fe7568" d="M 406.5,38.5 C 411.74,37.5384 415.907,39.2051 419,43.5C 422.61,61.5552 433.443,72.3885 451.5,76C 458.156,82.0468 458.156,88.0468 451.5,94C 439.657,96.3278 430.49,102.494 424,112.5C 422.131,118.004 419.964,123.338 417.5,128.5C 412.299,132.466 407.132,132.466 402,128.5C 397.5,109.333 385.667,97.5 366.5,93C 362.5,87.6667 362.5,82.3333 366.5,77C 385.667,72.5 397.5,60.6667 402,41.5C 403.652,40.6006 405.152,39.6006 406.5,38.5 Z M 409.5,74.5 C 412.639,78.4702 416.305,81.9702 420.5,85C 416.333,87.8333 412.833,91.3333 410,95.5C 406.833,91.6667 403.333,88.1667 399.5,85C 403.631,82.2213 406.964,78.7213 409.5,74.5 Z"/></g>
<g><path style="opacity:0.952" fill="#fe7568" d="M 511.5,219.5 C 511.5,222.5 511.5,225.5 511.5,228.5C 510.404,230.103 509.07,231.603 507.5,233C 483.676,238.158 469.176,252.658 464,276.5C 458.333,281.833 452.667,281.833 447,276.5C 441.527,252.36 426.693,237.527 402.5,232C 398.534,226.868 398.534,221.701 402.5,216.5C 408.728,213.854 415.061,211.354 421.5,209C 435.043,200.432 443.543,188.265 447,172.5C 452.344,166.495 458.01,166.161 464,171.5C 469.5,195.667 484.333,210.5 508.5,216C 509.636,217.145 510.636,218.312 511.5,219.5 Z M 454.5,206.5 C 460.591,212.417 466.924,218.251 473.5,224C 466.99,229.344 460.99,235.177 455.5,241.5C 452.342,238.172 449.342,234.672 446.5,231C 443.5,228.667 440.5,226.333 437.5,224C 444.734,219.6 450.401,213.767 454.5,206.5 Z"/></g>
<g><path style="opacity:0.897" fill="#fe7568" d="M 451.5,318.5 C 462.431,317.601 466.931,322.601 465,333.5C 459.879,340.405 454.046,341.072 447.5,335.5C 443.902,328.525 445.235,322.859 451.5,318.5 Z"/></g>
</svg>
