<?xml version="1.0" encoding="UTF-8"?>
<!DOCTYPE svg PUBLIC "-//W3C//DTD SVG 1.1//EN" "http://www.w3.org/Graphics/SVG/1.1/DTD/svg11.dtd">
<svg xmlns="http://www.w3.org/2000/svg" version="1.1" width="75px" height="75px" style="shape-rendering:geometricPrecision; text-rendering:geometricPrecision; image-rendering:optimizeQuality; fill-rule:evenodd; clip-rule:evenodd" xmlns:xlink="http://www.w3.org/1999/xlink">
<g><path style="opacity:0.763" fill="#fe7568" d="M -0.5,45.5 C -0.5,33.5 -0.5,21.5 -0.5,9.5C 0.745833,7.09854 2.74583,5.59854 5.5,5C 18.9031,4.05601 32.2364,4.38935 45.5,6C 47.4875,7.31892 48.6541,9.15226 49,11.5C 49.4998,20.8274 49.6665,30.1607 49.5,39.5C 51.8568,39.3367 54.1902,39.5034 56.5,40C 57.3366,41.0113 57.67,42.1779 57.5,43.5C 54.4281,43.1826 51.4281,43.5159 48.5,44.5C 53.8527,45.211 59.1861,45.8776 64.5,46.5C 67.0473,45.0198 68.214,45.6865 68,48.5C 59.7424,49.02 51.2424,49.6867 42.5,50.5C 41.5589,52.7721 40.2255,54.7721 38.5,56.5C 39.7764,59.0337 40.1097,61.5337 39.5,64C 32.3295,66.4254 25.1629,67.9254 18,68.5C 17.023,66.26 16.523,63.9267 16.5,61.5C 14.3453,61.628 12.3453,61.128 10.5,60C 8.48851,57.1231 7.15518,53.9564 6.5,50.5C 3.96126,49.0692 1.62793,47.4025 -0.5,45.5 Z M 5.5,8.5 C 17.8378,8.33346 30.1712,8.50012 42.5,9C 43.3333,9.83333 44.1667,10.6667 45,11.5C 45.6667,21.8333 45.6667,32.1667 45,42.5C 44.5814,43.6721 43.9147,44.6721 43,45.5C 41.1678,39.5057 39.3344,33.5057 37.5,27.5C 35.5485,25.467 33.3818,25.1337 31,26.5C 30.3667,22.7909 29.2001,19.2909 27.5,16C 25.7306,14.9806 24.0639,14.814 22.5,15.5C 19.8066,12.5238 16.64,11.8571 13,13.5C 11.9914,15.0249 11.4914,16.6916 11.5,18.5C 10.448,18.3505 9.44802,18.5172 8.5,19C 7.33333,21.5 5.5,23.3333 3,24.5C 1.75123,18.718 2.58456,13.3846 5.5,8.5 Z M 15.5,16.5 C 16.4959,16.4142 17.3292,16.7476 18,17.5C 19.8226,23.7901 21.4892,30.1235 23,36.5C 24.0113,37.3366 25.1779,37.67 26.5,37.5C 25.8721,31.4898 24.5388,25.6565 22.5,20C 23,19.5 23.5,19 24,18.5C 26.9428,26.2621 29.2762,34.2621 31,42.5C 31.8525,44.1247 32.8525,44.4581 34,43.5C 34.4801,39.4064 33.9801,35.4064 32.5,31.5C 33.1689,28.9722 34.0022,28.9722 35,31.5C 37.1367,37.6978 38.1367,44.0311 38,50.5C 34.3079,53.4535 33.4746,57.1202 35.5,61.5C 30.5322,62.6586 25.5322,63.6586 20.5,64.5C 20.9952,59.3094 18.6619,56.8094 13.5,57C 9.50209,47.1754 7.00209,37.0088 6,26.5C 8.41899,30.8328 9.91899,35.4994 10.5,40.5C 12.3464,40.7778 13.6798,40.1112 14.5,38.5C 12.496,33.1906 11.496,27.8573 11.5,22.5C 12.086,22.7093 12.586,23.0426 13,23.5C 14.1775,28.5435 15.5108,33.5435 17,38.5C 19.125,39.8515 20.2917,39.1848 20.5,36.5C 18.8288,29.8151 17.1621,23.1484 15.5,16.5 Z M 2.5,36.5 C 3.71798,38.8281 4.71798,41.3281 5.5,44C 5.16667,44.1667 4.83333,44.3333 4.5,44.5C 2.94622,42.0671 2.27955,39.4005 2.5,36.5 Z"/></g>
<g><path style="opacity:0.758" fill="#fe7568" d="M 58.5,4.5 C 59.2389,4.36899 59.9056,4.53566 60.5,5C 62.1492,7.64809 64.1492,9.98142 66.5,12C 64.024,14.3113 61.6907,16.8113 59.5,19.5C 57.6946,16.5272 55.3612,14.0272 52.5,12C 55.4184,10.2469 57.4184,7.74685 58.5,4.5 Z"/></g>
<g><path style="opacity:0.756" fill="#fe7568" d="M 74.5,30.5 C 74.5,31.8333 74.5,33.1667 74.5,34.5C 73.448,34.3505 72.448,34.5172 71.5,35C 69.6657,37.2033 67.8323,39.3699 66,41.5C 64.7485,39.9991 63.7485,38.3325 63,36.5C 56.078,34.2035 55.9114,31.7035 62.5,29C 63.4786,26.8627 64.8119,25.0294 66.5,23.5C 67.9197,25.2202 69.253,27.0535 70.5,29C 71.745,29.7914 73.0783,30.2914 74.5,30.5 Z M 65.5,30.5 C 67.332,31.1405 67.6653,32.1405 66.5,33.5C 64.4807,32.8671 64.1474,31.8671 65.5,30.5 Z"/></g>
</svg>
