<?xml version="1.0" encoding="UTF-8"?>
<!DOCTYPE svg PUBLIC "-//W3C//DTD SVG 1.1//EN" "http://www.w3.org/Graphics/SVG/1.1/DTD/svg11.dtd">
<svg xmlns="http://www.w3.org/2000/svg" version="1.1" width="500px" height="424px" style="shape-rendering:geometricPrecision; text-rendering:geometricPrecision; image-rendering:optimizeQuality; fill-rule:evenodd; clip-rule:evenodd" xmlns:xlink="http://www.w3.org/1999/xlink">
<g><path style="opacity:0.6" fill="#014762" d="M 363.5,-0.5 C 374.167,-0.5 384.833,-0.5 395.5,-0.5C 438.828,7.10525 468.662,31.4386 485,72.5C 495.383,102.413 498.383,133.079 494,164.5C 485.553,217.06 463.053,262.393 426.5,300.5C 425.833,300.5 425.5,300.833 425.5,301.5C 378.833,301.5 332.167,301.5 285.5,301.5C 285.5,302.5 285.5,303.5 285.5,304.5C 283.5,308.5 281.5,312.5 279.5,316.5C 263.193,292.573 247.359,268.239 232,243.5C 227.814,238.326 222.647,234.492 216.5,232C 207.645,229.462 198.645,227.629 189.5,226.5C 189.5,219.833 189.5,213.167 189.5,206.5C 188.962,204.883 188.629,203.216 188.5,201.5C 201.364,199.468 209.197,192.134 212,179.5C 212.197,171.089 212.697,162.755 213.5,154.5C 213.5,153.833 213.5,153.167 213.5,152.5C 214.167,152.5 214.5,152.167 214.5,151.5C 216.504,150.327 218.004,148.66 219,146.5C 220.29,142.27 220.79,137.936 220.5,133.5C 218.167,133.5 215.833,133.5 213.5,133.5C 213.319,126.309 212.652,119.309 211.5,112.5C 214.463,110.539 217.129,108.206 219.5,105.5C 220.167,105.5 220.5,105.167 220.5,104.5C 223.778,103.191 226.778,101.358 229.5,99C 243.828,85.3475 256.661,70.5141 268,54.5C 293.423,24.8839 325.256,6.55054 363.5,-0.5 Z"/></g>
<g><path style="opacity:0.987" fill="#1a2d34" d="M 220.5,104.5 C 219.833,104.5 219.5,104.833 219.5,105.5C 217.129,108.206 214.463,110.539 211.5,112.5C 204.87,113.546 198.203,113.713 191.5,113C 183.46,109.209 175.127,106.209 166.5,104C 162.833,103.333 159.167,103.333 155.5,104C 153.521,108.273 151.355,112.44 149,116.5C 147.019,118.657 144.686,120.324 142,121.5C 141.767,125.585 141.267,129.585 140.5,133.5C 140.5,134.167 140.5,134.833 140.5,135.5C 140.005,138.343 138.505,140.676 136,142.5C 135.764,140.236 135.264,138.069 134.5,136C 131.518,135.502 128.518,135.335 125.5,135.5C 128.583,126.852 126.25,120.185 118.5,115.5C 116.14,113.089 115.14,110.089 115.5,106.5C 115.338,100.147 118.171,95.8133 124,93.5C 127.461,92.7819 130.961,92.2819 134.5,92C 132.105,91.3187 129.772,90.4853 127.5,89.5C 130.787,88.0584 133.62,88.7251 136,91.5C 135.328,87.8621 135.495,84.1955 136.5,80.5C 137.167,83.5 137.833,86.5 138.5,89.5C 140.79,86.5064 142.624,83.173 144,79.5C 147.283,76.6829 151.117,75.3495 155.5,75.5C 162.146,76.6178 168.813,77.1178 175.5,77C 181.244,73.7955 187.244,71.1289 193.5,69C 207.478,67.5712 216.978,73.4045 222,86.5C 222.899,92.6471 222.399,98.6471 220.5,104.5 Z"/></g>
<g><path style="opacity:1" fill="#c64e46" d="M 362.5,111.5 C 361.218,114.731 361.218,118.064 362.5,121.5C 349.982,125.423 337.648,129.923 325.5,135C 324,136.5 322.5,138 321,139.5C 315.891,168.929 323.391,194.429 343.5,216C 349.02,220.593 355.02,224.426 361.5,227.5C 361.818,232.032 361.485,236.366 360.5,240.5C 331.481,226.162 314.981,202.829 311,170.5C 310.333,157.167 310.333,143.833 311,130.5C 311.833,129.667 312.667,128.833 313.5,128C 328.344,121.94 343.344,116.274 358.5,111C 360.066,110.235 361.399,110.402 362.5,111.5 Z"/></g>
<g><path style="opacity:1" fill="#a9413a" d="M 362.5,111.5 C 378.527,115.925 394.194,121.425 409.5,128C 410.701,128.903 411.535,130.069 412,131.5C 416.294,159.068 411.961,185.068 399,209.5C 390.293,223.542 378.459,234.042 363.5,241C 362.251,241.74 361.251,241.573 360.5,240.5C 361.485,236.366 361.818,232.032 361.5,227.5C 382.72,217.76 395.887,201.427 401,178.5C 403.343,166.264 404.01,153.931 403,141.5C 402.028,139.695 400.861,138.028 399.5,136.5C 387.412,130.915 375.079,125.915 362.5,121.5C 361.218,118.064 361.218,114.731 362.5,111.5 Z"/></g>
<g><path style="opacity:0.596" fill="#004762" d="M 118.5,115.5 C 126.25,120.185 128.583,126.852 125.5,135.5C 123.051,138.736 121.385,142.403 120.5,146.5C 121.993,154.761 126.993,158.428 135.5,157.5C 135.56,180.034 135.56,202.367 135.5,224.5C 114.322,223.792 94.9885,229.292 77.5,241C 75,243.5 72.5,246 70,248.5C 62.7258,262.058 55.2258,275.391 47.5,288.5C 39.0931,279.595 30.5931,270.928 22,262.5C 18.3668,256.608 15.7002,250.275 14,243.5C 6.60458,203.596 17.7712,169.762 47.5,142C 68.437,125.745 92.1037,116.911 118.5,115.5 Z"/></g>
<g><path style="opacity:1" fill="#fe7468" d="M 362.5,121.5 C 375.079,125.915 387.412,130.915 399.5,136.5C 400.861,138.028 402.028,139.695 403,141.5C 404.01,153.931 403.343,166.264 401,178.5C 395.887,201.427 382.72,217.76 361.5,227.5C 355.02,224.426 349.02,220.593 343.5,216C 323.391,194.429 315.891,168.929 321,139.5C 322.5,138 324,136.5 325.5,135C 337.648,129.923 349.982,125.423 362.5,121.5 Z"/></g>
<g><path style="opacity:1" fill="#bb8b77" d="M 140.5,133.5 C 147.167,133.5 153.833,133.5 160.5,133.5C 160.323,137.234 160.656,140.901 161.5,144.5C 161.167,144.5 160.833,144.5 160.5,144.5C 159.523,141.713 159.19,138.713 159.5,135.5C 153.167,135.5 146.833,135.5 140.5,135.5C 140.5,134.833 140.5,134.167 140.5,133.5 Z"/></g>
<g><path style="opacity:1" fill="#ede8e7" d="M 213.5,133.5 C 215.833,133.5 218.167,133.5 220.5,133.5C 220.79,137.936 220.29,142.27 219,146.5C 218.004,148.66 216.504,150.327 214.5,151.5C 213.51,145.69 213.177,139.69 213.5,133.5 Z"/></g>
<g><path style="opacity:1" fill="#fdbe9c" d="M 211.5,112.5 C 212.652,119.309 213.319,126.309 213.5,133.5C 213.177,139.69 213.51,145.69 214.5,151.5C 214.5,152.167 214.167,152.5 213.5,152.5C 205.372,154.852 199.538,152.186 196,144.5C 196.072,148.936 198.239,152.102 202.5,154C 206.152,154.499 209.818,154.665 213.5,154.5C 212.697,162.755 212.197,171.089 212,179.5C 209.197,192.134 201.364,199.468 188.5,201.5C 179.109,200.981 170.609,197.981 163,192.5C 165.019,198.52 169.186,202.687 175.5,205C 180.066,206.309 184.733,206.809 189.5,206.5C 189.5,213.167 189.5,219.833 189.5,226.5C 187.632,249.518 175.299,258.684 152.5,254C 140.508,247.853 134.841,238.02 135.5,224.5C 135.56,202.367 135.56,180.034 135.5,157.5C 126.993,158.428 121.993,154.761 120.5,146.5C 121.385,142.403 123.051,138.736 125.5,135.5C 128.518,135.335 131.518,135.502 134.5,136C 135.264,138.069 135.764,140.236 136,142.5C 138.505,140.676 140.005,138.343 140.5,135.5C 146.833,135.5 153.167,135.5 159.5,135.5C 159.19,138.713 159.523,141.713 160.5,144.5C 165.007,154.754 172.007,156.921 181.5,151C 177.356,152.346 173.022,152.679 168.5,152C 165.283,150.285 162.95,147.785 161.5,144.5C 160.656,140.901 160.323,137.234 160.5,133.5C 153.833,133.5 147.167,133.5 140.5,133.5C 141.267,129.585 141.767,125.585 142,121.5C 144.686,120.324 147.019,118.657 149,116.5C 151.355,112.44 153.521,108.273 155.5,104C 159.167,103.333 162.833,103.333 166.5,104C 175.127,106.209 183.46,109.209 191.5,113C 198.203,113.713 204.87,113.546 211.5,112.5 Z"/></g>
<g><path style="opacity:1" fill="#1a1f28" d="M 202.5,135.5 C 205.722,135.108 208.722,135.608 211.5,137C 208.482,136.435 205.482,136.602 202.5,137.5C 201.537,137.03 201.537,136.363 202.5,135.5 Z"/></g>
<g><path style="opacity:1" fill="#917265" d="M 175.5,133.5 C 181.424,132.245 187.424,132.578 193.5,134.5C 191.257,135.474 188.924,135.808 186.5,135.5C 186.837,139.308 186.337,142.974 185,146.5C 185.291,142.226 185.457,137.893 185.5,133.5C 182.167,133.5 178.833,133.5 175.5,133.5 Z"/></g>
<g><path style="opacity:1" fill="#2a3339" d="M 198.5,129.5 C 202.703,129.076 206.703,129.576 210.5,131C 206.85,130.262 203.183,130.428 199.5,131.5C 198.702,131.043 198.369,130.376 198.5,129.5 Z"/></g>
<g><path style="opacity:1" fill="#1d2931" d="M 171.5,135.5 C 174.226,135.264 176.559,136.097 178.5,138C 177.833,138.333 177.167,138.667 176.5,139C 179.534,143.637 178.367,145.137 173,143.5C 172.32,141.024 173.153,139.191 175.5,138C 173.102,137.626 170.769,137.626 168.5,138C 169.571,137.148 170.571,136.315 171.5,135.5 Z"/></g>
<g><path style="opacity:1" fill="#222830" d="M 206.5,139.5 C 211.587,139.284 212.587,141.118 209.5,145C 205.537,145.118 204.537,143.284 206.5,139.5 Z"/></g>
<g><path style="opacity:1" fill="#1b252d" d="M 196.5,164.5 C 195.833,164.5 195.5,164.167 195.5,163.5C 196.097,163.265 196.43,162.765 196.5,162C 194.078,154.465 191.912,146.965 190,139.5C 192.717,145.646 195.05,151.979 197,158.5C 197.789,160.712 197.622,162.712 196.5,164.5 Z"/></g>
<g><path style="opacity:1" fill="#876d61" d="M 213.5,152.5 C 213.5,153.167 213.5,153.833 213.5,154.5C 209.818,154.665 206.152,154.499 202.5,154C 198.239,152.102 196.072,148.936 196,144.5C 199.538,152.186 205.372,154.852 213.5,152.5 Z"/></g>
<g><path style="opacity:1" fill="#ffb2ab" d="M 328.5,137.5 C 329.239,137.369 329.906,137.536 330.5,138C 329.299,138.903 328.465,140.069 328,141.5C 327.667,147.167 327.333,152.833 327,158.5C 324.692,151.206 325.192,144.206 328.5,137.5 Z"/></g>
<g><path style="opacity:1" fill="#826a5f" d="M 160.5,144.5 C 160.833,144.5 161.167,144.5 161.5,144.5C 162.95,147.785 165.283,150.285 168.5,152C 173.022,152.679 177.356,152.346 181.5,151C 172.007,156.921 165.007,154.754 160.5,144.5 Z"/></g>
<g><path style="opacity:1" fill="#ffbab5" d="M 358.5,145.5 C 368.705,145.371 373.372,150.371 372.5,160.5C 374.903,160.393 376.736,161.393 378,163.5C 378.667,171.833 378.667,180.167 378,188.5C 376.833,189.667 375.667,190.833 374.5,192C 366.167,192.667 357.833,192.667 349.5,192C 348.5,191.167 347.5,190.333 346.5,189.5C 345.363,180.882 345.196,172.215 346,163.5C 349.573,160.38 351.573,156.38 352,151.5C 354.063,149.266 356.229,147.266 358.5,145.5 Z"/></g>
<g><path style="opacity:1" fill="#ff776b" d="M 358.5,148.5 C 366.883,148.216 370.883,152.216 370.5,160.5C 364.5,160.5 358.5,160.5 352.5,160.5C 352.315,155.366 354.315,151.366 358.5,148.5 Z"/></g>
<g><path style="opacity:1" fill="#7b655c" d="M 195.5,163.5 C 195.5,164.167 195.833,164.5 196.5,164.5C 194.636,165.793 192.636,165.793 190.5,164.5C 192.045,163.548 193.712,163.215 195.5,163.5 Z"/></g>
<g><path style="opacity:1" fill="#fff9f5" d="M 179.5,167.5 C 184.278,169.759 189.278,171.426 194.5,172.5C 189.387,176.758 184.554,176.425 180,171.5C 179.51,170.207 179.343,168.873 179.5,167.5 Z"/></g>
<g><path style="opacity:1" fill="#ff7467" d="M 359.5,171.5 C 364.996,171.457 366.329,173.623 363.5,178C 363.735,178.873 364.069,179.707 364.5,180.5C 362.955,181.452 361.288,181.785 359.5,181.5C 358.788,178.075 358.788,174.742 359.5,171.5 Z"/></g>
<g><path style="opacity:1" fill="#ff986a" d="M 188.5,201.5 C 188.629,203.216 188.962,204.883 189.5,206.5C 184.733,206.809 180.066,206.309 175.5,205C 169.186,202.687 165.019,198.52 163,192.5C 170.609,197.981 179.109,200.981 188.5,201.5 Z"/></g>
<g><path style="opacity:0.998" fill="#fe7468" d="M 135.5,224.5 C 134.841,238.02 140.508,247.853 152.5,254C 175.299,258.684 187.632,249.518 189.5,226.5C 198.645,227.629 207.645,229.462 216.5,232C 222.647,234.492 227.814,238.326 232,243.5C 247.359,268.239 263.193,292.573 279.5,316.5C 272.391,335.187 264.724,353.521 256.5,371.5C 252.805,366.455 249.472,361.122 246.5,355.5C 245.525,353.205 244.192,351.205 242.5,349.5C 240.253,320.222 238.42,290.888 237,261.5C 237.019,287.86 238.019,314.193 240,340.5C 240.354,345.389 241.187,350.056 242.5,354.5C 242.5,354.833 242.5,355.167 242.5,355.5C 244.21,369.397 245.21,383.397 245.5,397.5C 244.453,404.434 242.119,410.934 238.5,417C 210.169,417.5 181.835,417.667 153.5,417.5C 153.5,419.167 153.5,420.833 153.5,422.5C 143.319,422.173 133.319,422.506 123.5,423.5C 119.833,423.5 116.167,423.5 112.5,423.5C 112.5,422.833 112.5,422.167 112.5,421.5C 86.3365,420.668 60.0032,420.168 33.5,420C 19.8984,416.614 10.3984,408.448 5,395.5C 1.66667,386.167 1.66667,376.833 5,367.5C 18.6865,340.786 32.8532,314.453 47.5,288.5C 55.2258,275.391 62.7258,262.058 70,248.5C 72.5,246 75,243.5 77.5,241C 94.9885,229.292 114.322,223.792 135.5,224.5 Z M 89.5,334.5 C 92.793,344.995 95.793,355.662 98.5,366.5C 90.1667,366.5 81.8333,366.5 73.5,366.5C 75.3582,364.117 76.6916,361.45 77.5,358.5C 82.5405,351.086 86.5405,343.086 89.5,334.5 Z"/></g>
<g><path style="opacity:1" fill="#834848" d="M 98.5,253.5 C 96.2435,252.438 95.0768,250.772 95,248.5C 96.8022,249.789 97.9688,251.456 98.5,253.5 Z"/></g>
<g><path style="opacity:1" fill="#9a5450" d="M 98.5,253.5 C 101.521,256.206 103.521,259.539 104.5,263.5C 101.497,260.837 99.4968,257.503 98.5,253.5 Z"/></g>
<g><path style="opacity:1" fill="#fbb2ac" d="M 199.5,255.5 C 205.509,255.334 211.509,255.501 217.5,256C 210.177,256.777 202.843,257.444 195.5,258C 198.167,260.667 200.833,263.333 203.5,266C 199.539,264.23 196.206,261.396 193.5,257.5C 195.631,256.831 197.631,256.165 199.5,255.5 Z"/></g>
<g><path style="opacity:1" fill="#ffbe9b" d="M 328.5,234.5 C 331.39,235.899 332.89,238.232 333,241.5C 333.499,247.491 333.666,253.491 333.5,259.5C 334.552,259.649 335.552,259.483 336.5,259C 338.741,255.204 342.074,252.871 346.5,252C 351.618,251.112 356.618,251.445 361.5,253C 362.061,254.566 361.394,255.899 359.5,257C 354.5,258 349.5,259 344.5,260C 342.549,261.734 341.549,263.901 341.5,266.5C 344.785,265.598 348.119,264.598 351.5,263.5C 356.84,264.286 361.34,266.619 365,270.5C 365.923,278.106 363.09,280.439 356.5,277.5C 355.007,285.14 353.673,292.807 352.5,300.5C 341.5,300.5 330.5,300.5 319.5,300.5C 321.998,279.183 324.498,257.849 327,236.5C 327.717,235.956 328.217,235.289 328.5,234.5 Z"/></g>
<g><path style="opacity:1" fill="#ff9e72" d="M 340.5,268.5 C 343.68,268.176 344.847,269.51 344,272.5C 341.312,276.869 337.812,280.036 333.5,282C 336.333,279.167 339.167,276.333 342,273.5C 342.749,272.365 342.583,271.365 341.5,270.5C 335.78,274.196 329.78,277.03 323.5,279C 329.566,275.976 335.232,272.476 340.5,268.5 Z"/></g>
<g><path style="opacity:1" fill="#fe9f98" d="M 205.5,269.5 C 207.664,268.882 209.33,269.882 210.5,272.5C 202.264,274.402 193.93,274.902 185.5,274C 192.81,273.03 200.143,272.197 207.5,271.5C 207.145,270.478 206.478,269.811 205.5,269.5 Z"/></g>
<g><path style="opacity:1" fill="#f6beba" d="M 135.5,274.5 C 132.725,277.605 129.392,279.938 125.5,281.5C 128.275,278.395 131.608,276.062 135.5,274.5 Z"/></g>
<g><path style="opacity:1" fill="#fea7a1" d="M 125.5,281.5 C 123.283,284.735 121.949,284.735 121.5,281.5C 122.259,274.42 123.426,267.42 125,260.5C 125.305,266.543 124.805,272.543 123.5,278.5C 123.64,280.03 124.307,281.03 125.5,281.5 Z"/></g>
<g><path style="opacity:1" fill="#9c504e" d="M 104.5,263.5 C 107.147,268.202 108.48,273.368 108.5,279C 107.914,287.685 106.414,296.185 104,304.5C 105.152,296.252 105.986,287.918 106.5,279.5C 106.569,274.056 105.903,268.723 104.5,263.5 Z"/></g>
<g><path style="opacity:1" fill="#fdaba4" d="M 171.5,282.5 C 173.384,282.712 174.717,283.712 175.5,285.5C 175.154,286.696 174.654,286.696 174,285.5C 173,292.5 172,299.5 171,306.5C 167.318,302.985 163.818,299.318 160.5,295.5C 163.822,297.264 166.989,299.93 170,303.5C 170.997,296.533 171.497,289.533 171.5,282.5 Z"/></g>
<g><path style="opacity:1" fill="#fdaba5" d="M 177.5,288.5 C 181.045,290.857 183.545,293.857 185,297.5C 181.888,294.899 179.388,291.899 177.5,288.5 Z"/></g>
<g><path style="opacity:1" fill="#fe9d95" d="M 135.5,274.5 C 139.125,269.389 140.792,269.722 140.5,275.5C 140.027,282.315 138.861,288.981 137,295.5C 136.94,288.08 137.774,280.747 139.5,273.5C 139.333,273.167 139.167,272.833 139,272.5C 138.184,273.823 137.017,274.489 135.5,274.5 Z"/></g>
<g><path style="opacity:1" fill="#fcb1ab" d="M 67.5,291.5 C 68.0431,291.56 68.3764,291.893 68.5,292.5C 67.2526,294.497 66.4192,296.497 66,298.5C 72.369,296.324 78.869,295.657 85.5,296.5C 83.2039,301.702 82.3706,301.702 83,296.5C 76.6097,298.539 70.1097,299.206 63.5,298.5C 64.8611,296.15 66.1944,293.816 67.5,291.5 Z"/></g>
<g><path style="opacity:0.997" fill="#1a2d34" d="M 426.5,300.5 C 437.52,300.168 448.52,300.501 459.5,301.5C 442.305,341.085 425.305,380.751 408.5,420.5C 438.826,421.5 469.159,421.833 499.5,421.5C 499.5,422.167 499.5,422.833 499.5,423.5C 374.167,423.5 248.833,423.5 123.5,423.5C 133.319,422.506 143.319,422.173 153.5,422.5C 153.5,420.833 153.5,419.167 153.5,417.5C 181.835,417.667 210.169,417.5 238.5,417C 242.119,410.934 244.453,404.434 245.5,397.5C 249.679,389.132 253.345,380.466 256.5,371.5C 264.724,353.521 272.391,335.187 279.5,316.5C 281.5,312.5 283.5,308.5 285.5,304.5C 332.119,302.843 378.785,301.843 425.5,301.5C 425.5,300.833 425.833,300.5 426.5,300.5 Z"/></g>
<g><path style="opacity:1" fill="#001019" d="M 425.5,301.5 C 378.785,301.843 332.119,302.843 285.5,304.5C 285.5,303.5 285.5,302.5 285.5,301.5C 332.167,301.5 378.833,301.5 425.5,301.5 Z"/></g>
<g><path style="opacity:1" fill="#a05350" d="M 242.5,349.5 C 242.5,351.167 242.5,352.833 242.5,354.5C 241.187,350.056 240.354,345.389 240,340.5C 238.019,314.193 237.019,287.86 237,261.5C 238.42,290.888 240.253,320.222 242.5,349.5 Z"/></g>
<g><path style="opacity:1" fill="#fcb0ab" d="M 246.5,319.5 C 249.563,313.048 253.397,307.048 258,301.5C 258.667,302.167 258.667,302.833 258,303.5C 254.39,309.077 250.557,314.41 246.5,319.5 Z"/></g>
<g><path style="opacity:1" fill="#fcaca5" d="M 137.5,314.5 C 141.182,314.335 144.848,314.501 148.5,315C 141.244,316.253 133.911,317.253 126.5,318C 131.349,322.681 136.015,327.515 140.5,332.5C 134.863,333.663 129.196,333.83 123.5,333C 128.167,332.333 132.833,331.667 137.5,331C 132.833,326.333 128.167,321.667 123.5,317C 128.239,315.949 132.906,315.115 137.5,314.5 Z"/></g>
<g><path style="opacity:1" fill="#fcafa9" d="M 223.5,321.5 C 223.631,320.761 223.464,320.094 223,319.5C 216.703,320.829 210.37,322.162 204,323.5C 203.5,323.167 203,322.833 202.5,322.5C 206.47,316.031 210.637,309.698 215,303.5C 212.456,309.728 208.956,315.562 204.5,321C 210.272,320.345 216.106,319.512 222,318.5C 225.733,318.613 226.233,319.613 223.5,321.5 Z"/></g>
<g><path style="opacity:1" fill="#fcafa9" d="M 246.5,319.5 C 246.369,320.239 246.536,320.906 247,321.5C 253.795,319.448 260.628,318.448 267.5,318.5C 263.248,325.339 258.748,332.006 254,338.5C 257.134,332.1 260.967,325.934 265.5,320C 259.538,320.494 253.538,321.328 247.5,322.5C 243.93,322.245 243.597,321.245 246.5,319.5 Z"/></g>
<g><path style="opacity:1" fill="#fbb2ad" d="M 223.5,321.5 C 220.979,326.866 217.812,331.866 214,336.5C 216.12,330.948 219.286,325.948 223.5,321.5 Z"/></g>
<g><path style="opacity:1" fill="#fca9a3" d="M 53.5,333.5 C 55.924,333.192 58.2573,333.526 60.5,334.5C 53.1947,335.553 45.8614,336.387 38.5,337C 43.3485,341.681 48.0152,346.515 52.5,351.5C 44.2207,353.047 35.8873,353.547 27.5,353C 34.8165,351.956 42.1498,350.956 49.5,350C 44.8333,345.333 40.1667,340.667 35.5,336C 41.573,334.92 47.573,334.087 53.5,333.5 Z"/></g>
<g><path style="opacity:0.249" fill="#1b2831" d="M 89.5,334.5 C 86.5405,343.086 82.5405,351.086 77.5,358.5C 80.9922,350.182 84.9922,342.182 89.5,334.5 Z"/></g>
<g><path style="opacity:1" fill="#fcb0aa" d="M 172.5,340.5 C 173.043,340.56 173.376,340.893 173.5,341.5C 172.365,343.799 171.032,345.966 169.5,348C 175.878,347.827 182.211,346.994 188.5,345.5C 190.812,346.687 190.646,348.02 188,349.5C 187.612,348.572 186.945,347.905 186,347.5C 179.558,349.073 173.058,349.906 166.5,350C 168.636,346.89 170.636,343.723 172.5,340.5 Z"/></g>
<g><path style="opacity:1" fill="#f3f5f4" d="M 242.5,349.5 C 244.192,351.205 245.525,353.205 246.5,355.5C 245.167,355.5 243.833,355.5 242.5,355.5C 242.5,355.167 242.5,354.833 242.5,354.5C 242.5,352.833 242.5,351.167 242.5,349.5 Z"/></g>
<g><path style="opacity:1" fill="#724545" d="M 62.5,357.5 C 62.56,356.957 62.8933,356.624 63.5,356.5C 68.6185,361.111 68.2851,361.444 62.5,357.5 Z"/></g>
<g><path style="opacity:1" fill="#f1f2f3" d="M 348.5,356.5 C 355.202,356.033 358.535,359.2 358.5,366C 358.569,372.718 355.403,376.884 349,378.5C 343.37,377.589 340.87,374.256 341.5,368.5C 341.776,363.28 344.109,359.28 348.5,356.5 Z"/></g>
<g><path style="opacity:1" fill="#8e4d4b" d="M 73.5,366.5 C 81.8333,366.5 90.1667,366.5 98.5,366.5C 121.836,366.333 145.169,366.5 168.5,367C 168.833,367.333 169.167,367.667 169.5,368C 168.362,373.401 167.696,378.901 167.5,384.5C 167.068,385.71 166.401,386.71 165.5,387.5C 166.24,380.842 166.906,374.175 167.5,367.5C 135.426,367.833 104.093,367.499 73.5,366.5 Z"/></g>
<g><path style="opacity:1" fill="#febe9c" d="M 165.5,387.5 C 166.401,386.71 167.068,385.71 167.5,384.5C 175.236,382.645 182.902,380.478 190.5,378C 194.122,376.894 197.789,376.561 201.5,377C 214.299,381.559 225.632,388.392 235.5,397.5C 234.473,399.024 232.973,399.691 231,399.5C 227.927,399.477 225.26,398.477 223,396.5C 223.184,399.876 222.017,402.543 219.5,404.5C 221.728,410.422 219.895,412.755 214,411.5C 212.291,408.582 210.458,405.748 208.5,403C 203.467,402.171 198.467,402.338 193.5,403.5C 191.024,407.81 187.69,411.31 183.5,414C 176.842,414.5 170.175,414.666 163.5,414.5C 163.704,405.462 164.371,396.462 165.5,387.5 Z"/></g>
<g><path style="opacity:1" fill="#fab7b2" d="M 40.5,381.5 C 42.7565,382.562 43.9232,384.228 44,386.5C 42.6914,384.109 41.6914,384.109 41,386.5C 40.4812,392.678 39.3146,398.678 37.5,404.5C 35.5247,403.725 34.6913,402.391 35,400.5C 35.6667,401.167 36.3333,401.833 37,402.5C 38.0296,395.456 39.1963,388.456 40.5,381.5 Z"/></g>
<g><path style="opacity:1" fill="#fab2ac" d="M 85.5,385.5 C 92.175,385.334 98.8417,385.5 105.5,386C 99.1366,386.391 92.8033,387.058 86.5,388C 88.8333,390.333 91.1667,392.667 93.5,395C 90.224,393.763 87.3906,391.597 85,388.5C 84.5304,387.423 84.6971,386.423 85.5,385.5 Z"/></g>
<g><path style="opacity:1" fill="#f9b8b3" d="M 139.5,386.5 C 142.073,387.879 143.573,389.879 144,392.5C 141.873,390.886 140.373,388.886 139.5,386.5 Z"/></g>
<g><path style="opacity:1" fill="#fbb3ad" d="M 130.5,401.5 C 127.927,400.121 126.427,398.121 126,395.5C 128.127,397.114 129.627,399.114 130.5,401.5 Z"/></g>
<g><path style="opacity:1" fill="#fda69f" d="M 95.5,398.5 C 95.8966,397.475 96.5632,397.308 97.5,398C 98.7159,399.594 100.049,401.094 101.5,402.5C 92.8966,404.174 84.2299,404.674 75.5,404C 83.0232,402.863 90.6899,402.03 98.5,401.5C 97.8118,400.145 96.8118,399.145 95.5,398.5 Z"/></g>
<g><path style="opacity:1" fill="#fcb0ab" d="M 139.5,386.5 C 137.893,393.356 136.393,400.356 135,407.5C 132.873,405.886 131.373,403.886 130.5,401.5C 131.794,402.29 132.961,403.29 134,404.5C 134.847,397.711 136.18,391.045 138,384.5C 138.717,385.044 139.217,385.711 139.5,386.5 Z"/></g>
<g><path style="opacity:0.288" fill="#0e2a32" d="M -0.5,421.5 C 37.1667,421.5 74.8333,421.5 112.5,421.5C 112.5,422.167 112.5,422.833 112.5,423.5C 74.8333,423.5 37.1667,423.5 -0.5,423.5C -0.5,422.833 -0.5,422.167 -0.5,421.5 Z"/></g>
</svg>
