<?xml version="1.0" encoding="UTF-8"?>
<!DOCTYPE svg PUBLIC "-//W3C//DTD SVG 1.1//EN" "http://www.w3.org/Graphics/SVG/1.1/DTD/svg11.dtd">
<svg xmlns="http://www.w3.org/2000/svg" version="1.1" width="75px" height="75px" style="shape-rendering:geometricPrecision; text-rendering:geometricPrecision; image-rendering:optimizeQuality; fill-rule:evenodd; clip-rule:evenodd" xmlns:xlink="http://www.w3.org/1999/xlink">
<g><path style="opacity:0.709" fill="#fe7568" d="M 11.5,0.5 C 28.5,0.5 45.5,0.5 62.5,0.5C 62.6659,5.51108 62.4993,10.5111 62,15.5C 59.595,16.2744 57.095,16.7744 54.5,17C 58.8333,17.3333 63.1667,17.6667 67.5,18C 68.9817,20.5918 68.6483,22.9251 66.5,25C 69.0402,27.2047 71.2068,29.7047 73,32.5C 74.0724,37.7779 72.0724,41.4445 67,43.5C 66.5003,50.8258 66.3337,58.1591 66.5,65.5C 68.1439,65.2865 69.6439,65.6198 71,66.5C 71.7581,68.7695 71.5914,70.9361 70.5,73C 48.1667,73.6667 25.8333,73.6667 3.5,73C 2.40857,70.9361 2.2419,68.7695 3,66.5C 4.35613,65.6198 5.85613,65.2865 7.5,65.5C 7.66632,58.1591 7.49966,50.8258 7,43.5C 1.92755,41.4445 -0.0724475,37.7779 1,32.5C 2.79315,29.7047 4.95982,27.2047 7.5,25C 5.35166,22.9251 5.01832,20.5918 6.5,18C 10.8333,17.6667 15.1667,17.3333 19.5,17C 16.905,16.7744 14.405,16.2744 12,15.5C 11.5007,10.5111 11.3341,5.51108 11.5,0.5 Z M 14.5,4.5 C 29.5,4.5 44.5,4.5 59.5,4.5C 59.5,7.16667 59.5,9.83333 59.5,12.5C 44.5,12.5 29.5,12.5 14.5,12.5C 14.5,9.83333 14.5,7.16667 14.5,4.5 Z M 8.5,21.5 C 27.3289,20.3377 46.3289,20.1711 65.5,21C 56.1556,22.1559 46.6556,22.6559 37,22.5C 27.4253,22.4876 17.9253,22.1543 8.5,21.5 Z M 11.5,25.5 C 18.3521,24.181 19.6855,25.8476 15.5,30.5C 12.5541,31.6548 9.55413,31.8214 6.5,31C 8.37342,29.2962 10.0401,27.4628 11.5,25.5 Z M 22.5,25.5 C 25.1873,25.3359 27.854,25.5026 30.5,26C 29.7734,27.3988 29.2734,28.8988 29,30.5C 25.9269,31.6168 22.7603,31.7835 19.5,31C 20.6394,29.2196 21.6394,27.3863 22.5,25.5 Z M 34.5,25.5 C 38.7806,24.4832 41.114,26.1499 41.5,30.5C 38.5,31.8333 35.5,31.8333 32.5,30.5C 33.1744,28.8045 33.8411,27.1379 34.5,25.5 Z M 43.5,26.5 C 48.739,24.1158 52.4057,25.6158 54.5,31C 51.5,31.6667 48.5,31.6667 45.5,31C 44.9011,29.3775 44.2344,27.8775 43.5,26.5 Z M 55.5,26.5 C 57.6282,25.3709 59.9615,25.2042 62.5,26C 69.0121,31.4879 67.6788,32.9879 58.5,30.5C 57.4793,29.0986 56.4793,27.7653 55.5,26.5 Z M 3.5,36.5 C 6.68684,35.1944 10.0202,35.1944 13.5,36.5C 10.2584,40.3962 6.92504,40.3962 3.5,36.5 Z M 17.5,36.5 C 20.6868,35.1944 24.0202,35.1944 27.5,36.5C 24.2113,40.381 20.8779,40.381 17.5,36.5 Z M 31.5,36.5 C 34.6868,35.1944 38.0202,35.1944 41.5,36.5C 38.2584,40.3962 34.925,40.3962 31.5,36.5 Z M 46.5,35.5 C 49.8499,35.335 53.1832,35.5017 56.5,36C 52.6338,40.8415 49.3005,40.6748 46.5,35.5 Z M 60.5,35.5 C 63.5719,35.1826 66.5719,35.5159 69.5,36.5C 67.9124,39.2571 65.579,40.0904 62.5,39C 61.1772,38.1841 60.5106,37.0174 60.5,35.5 Z M 43.5,39.5 C 49.4642,43.4605 48.1309,44.6271 39.5,43C 41.5444,42.5017 42.8777,41.335 43.5,39.5 Z M 14.5,40.5 C 21.8623,42.1862 22.029,43.5195 15,44.5C 14.5004,51.4921 14.3337,58.4921 14.5,65.5C 13.1667,65.5 11.8333,65.5 10.5,65.5C 10.3337,58.1591 10.5003,50.8258 11,43.5C 12.5185,42.8366 13.6851,41.8366 14.5,40.5 Z M 28.5,40.5 C 31.09,41.1283 33.4234,42.295 35.5,44C 34.5236,50.0758 34.1903,56.2424 34.5,62.5C 43.8333,62.5 53.1667,62.5 62.5,62.5C 62.8293,56.4632 62.4959,50.4632 61.5,44.5C 58.8908,43.7695 56.2241,43.2695 53.5,43C 55.0806,42.2935 56.5806,41.4601 58,40.5C 59.6667,41.5 61.3333,42.5 63,43.5C 63.4997,50.8258 63.6663,58.1591 63.5,65.5C 52.8333,65.5 42.1667,65.5 31.5,65.5C 31.8303,58.4684 31.497,51.4684 30.5,44.5C 28.8849,43.846 27.2182,43.346 25.5,43C 26.9423,42.6232 27.9423,41.7899 28.5,40.5 Z M 17.5,47.5 C 21.1667,47.5 24.8333,47.5 28.5,47.5C 28.5,53.5 28.5,59.5 28.5,65.5C 24.8333,65.5 21.1667,65.5 17.5,65.5C 17.5,59.5 17.5,53.5 17.5,47.5 Z M 37.5,47.5 C 44.5,47.5 51.5,47.5 58.5,47.5C 58.5,51.5 58.5,55.5 58.5,59.5C 51.5,59.5 44.5,59.5 37.5,59.5C 37.5,55.5 37.5,51.5 37.5,47.5 Z"/></g>
</svg>
