<?xml version="1.0" encoding="UTF-8"?>
<!DOCTYPE svg PUBLIC "-//W3C//DTD SVG 1.1//EN" "http://www.w3.org/Graphics/SVG/1.1/DTD/svg11.dtd">
<svg xmlns="http://www.w3.org/2000/svg" version="1.1" width="512px" height="512px" style="shape-rendering:geometricPrecision; text-rendering:geometricPrecision; image-rendering:optimizeQuality; fill-rule:evenodd; clip-rule:evenodd" xmlns:xlink="http://www.w3.org/1999/xlink">
<g><path style="opacity:0.952" fill="#fe7568" d="M 89.5,9.5 C 200.167,9.33333 310.834,9.5 421.5,10C 423.726,11.2273 425.226,13.0607 426,15.5C 426.667,45.5 426.667,75.5 426,105.5C 425.167,107.667 423.667,109.167 421.5,110C 405.17,110.5 388.837,110.667 372.5,110.5C 372.5,114.833 372.5,119.167 372.5,123.5C 398.502,123.333 424.502,123.5 450.5,124C 465.782,130.732 471.282,142.232 467,158.5C 464.223,164.943 459.723,169.777 453.5,173C 470.748,191.577 487.248,210.744 503,230.5C 504.921,258.525 493.421,278.691 468.5,291C 464.278,292.638 459.945,293.805 455.5,294.5C 455.5,347.167 455.5,399.833 455.5,452.5C 463.507,452.334 471.507,452.5 479.5,453C 481.939,453.774 483.773,455.274 485,457.5C 485.667,470.167 485.667,482.833 485,495.5C 483.833,498 482,499.833 479.5,501C 330.167,501.667 180.833,501.667 31.5,501C 29.3333,500.167 27.8333,498.667 27,496.5C 26.3333,483.5 26.3333,470.5 27,457.5C 27.935,454.898 29.7683,453.398 32.5,453C 40.1594,452.5 47.8261,452.334 55.5,452.5C 55.5,399.833 55.5,347.167 55.5,294.5C 24.8434,287.669 8.84344,268.503 7.5,237C 7.52288,234.075 8.02288,231.241 9,228.5C 24.8131,209.719 40.9797,191.219 57.5,173C 41.7976,163.209 38.2976,150.042 47,133.5C 50.5709,128.969 55.0709,125.802 60.5,124C 86.4979,123.5 112.498,123.333 138.5,123.5C 138.5,119.167 138.5,114.833 138.5,110.5C 122.163,110.667 105.83,110.5 89.5,110C 87.714,109.215 86.214,108.049 85,106.5C 83.357,76.5613 83.0237,46.5613 84,16.5C 84.9383,13.4025 86.7716,11.0691 89.5,9.5 Z M 101.5,27.5 C 204.5,27.5 307.5,27.5 410.5,27.5C 410.5,49.5 410.5,71.5 410.5,93.5C 307.5,93.5 204.5,93.5 101.5,93.5C 101.5,71.5 101.5,49.5 101.5,27.5 Z M 183.5,110.5 C 231.5,110.5 279.5,110.5 327.5,110.5C 327.5,114.833 327.5,119.167 327.5,123.5C 279.5,123.5 231.5,123.5 183.5,123.5C 183.5,119.167 183.5,114.833 183.5,110.5 Z M 155.5,111.5 C 159.5,111.5 163.5,111.5 167.5,111.5C 167.5,115.5 167.5,119.5 167.5,123.5C 163.5,123.5 159.5,123.5 155.5,123.5C 155.5,119.5 155.5,115.5 155.5,111.5 Z M 343.5,111.5 C 347.5,111.5 351.5,111.5 355.5,111.5C 355.5,115.5 355.5,119.5 355.5,123.5C 351.5,123.5 347.5,123.5 343.5,123.5C 343.5,119.5 343.5,115.5 343.5,111.5 Z M 68.5,139.5 C 193.167,139.333 317.834,139.5 442.5,140C 450.37,141.685 452.537,146.185 449,153.5C 448.097,154.701 446.931,155.535 445.5,156C 318.833,156.667 192.167,156.667 65.5,156C 60.9315,153.459 59.4315,149.625 61,144.5C 62.9133,141.72 65.4133,140.053 68.5,139.5 Z M 77.5,175.5 C 96.5117,175.167 115.512,175.5 134.5,176.5C 125.333,192.167 116.167,207.833 107,223.5C 83.5726,224.66 60.0726,224.827 36.5,224C 50.5309,208.081 64.1975,191.914 77.5,175.5 Z M 155.5,175.5 C 175.178,175.167 194.845,175.5 214.5,176.5C 209.906,192.379 205.24,208.212 200.5,224C 176.16,224.833 151.826,224.666 127.5,223.5C 136.845,207.472 146.178,191.472 155.5,175.5 Z M 234.5,175.5 C 248.837,175.333 263.171,175.5 277.5,176C 282.67,192.011 287.337,208.178 291.5,224.5C 267.491,224.833 243.491,224.5 219.5,223.5C 224.51,207.472 229.51,191.472 234.5,175.5 Z M 296.5,175.5 C 316.169,175.333 335.836,175.5 355.5,176C 364.959,191.751 374.293,207.584 383.5,223.5C 359.174,224.666 334.84,224.833 310.5,224C 305.602,207.911 300.936,191.744 296.5,175.5 Z M 376.5,175.5 C 395.17,175.333 413.836,175.5 432.5,176C 446.5,192 460.5,208 474.5,224C 451.167,224.667 427.833,224.667 404.5,224C 394.764,208.024 385.431,191.857 376.5,175.5 Z M 24.5,242.5 C 49.9946,241.502 75.6612,241.169 101.5,241.5C 98.86,263.858 86.1933,275.858 63.5,277.5C 41.9321,275.261 28.9321,263.594 24.5,242.5 Z M 119.5,241.5 C 145.167,241.5 170.833,241.5 196.5,241.5C 193.221,263.609 180.388,275.609 158,277.5C 135.612,275.609 122.779,263.609 119.5,241.5 Z M 216.5,241.5 C 242.509,241.167 268.509,241.5 294.5,242.5C 290.294,264.198 277.128,275.865 255,277.5C 232.631,275.629 219.798,263.629 216.5,241.5 Z M 312.5,242.5 C 338.336,241.171 364.336,241.171 390.5,242.5C 384.42,268.547 368.087,279.714 341.5,276C 325.159,270.5 315.493,259.333 312.5,242.5 Z M 408.5,241.5 C 434.167,241.5 459.833,241.5 485.5,241.5C 482.145,263.852 469.145,275.852 446.5,277.5C 424.396,275.395 411.729,263.395 408.5,241.5 Z M 205.5,268.5 C 227.172,295.75 253.839,301.917 285.5,287C 293,282.167 299.167,276 304,268.5C 321.626,292.819 344.793,300.319 373.5,291C 384.083,286.582 392.75,279.749 399.5,270.5C 409.17,283.839 422.17,291.839 438.5,294.5C 438.5,347.167 438.5,399.833 438.5,452.5C 363.833,452.5 289.167,452.5 214.5,452.5C 214.985,404.773 214.485,357.107 213,309.5C 212.097,308.299 210.931,307.465 209.5,307C 175.5,306.333 141.5,306.333 107.5,307C 105.714,307.785 104.214,308.951 103,310.5C 102.5,357.832 102.333,405.165 102.5,452.5C 92.5,452.5 82.5,452.5 72.5,452.5C 72.5,399.833 72.5,347.167 72.5,294.5C 88.7765,291.949 101.61,283.949 111,270.5C 125.7,290.095 145.2,297.928 169.5,294C 185.295,290.684 197.295,282.184 205.5,268.5 Z M 119.5,323.5 C 145.5,323.5 171.5,323.5 197.5,323.5C 197.5,366.5 197.5,409.5 197.5,452.5C 171.5,452.5 145.5,452.5 119.5,452.5C 119.5,409.5 119.5,366.5 119.5,323.5 Z M 257.5,323.5 C 307.833,323.5 358.167,323.5 408.5,323.5C 408.5,352.833 408.5,382.167 408.5,411.5C 358.167,411.5 307.833,411.5 257.5,411.5C 257.5,382.167 257.5,352.833 257.5,323.5 Z M 43.5,469.5 C 184.833,469.5 326.167,469.5 467.5,469.5C 467.5,474.167 467.5,478.833 467.5,483.5C 326.167,483.5 184.833,483.5 43.5,483.5C 43.5,478.833 43.5,474.167 43.5,469.5 Z"/></g>
<g><path style="opacity:0.941" fill="#fe7568" d="M 245.5,306.5 C 304.917,306.008 364.25,306.508 423.5,308C 424.893,309.171 425.727,310.671 426,312.5C 426.981,350.227 426.648,387.893 425,425.5C 424.097,426.701 422.931,427.535 421.5,428C 362.084,428.992 302.751,428.659 243.5,427C 242.107,425.829 241.273,424.329 241,422.5C 240.333,385.833 240.333,349.167 241,312.5C 241.599,309.746 243.099,307.746 245.5,306.5 Z M 257.5,323.5 C 257.5,352.833 257.5,382.167 257.5,411.5C 307.833,411.5 358.167,411.5 408.5,411.5C 408.5,382.167 408.5,352.833 408.5,323.5C 358.167,323.5 307.833,323.5 257.5,323.5 Z"/></g>
</svg>
