<?xml version="1.0" encoding="UTF-8"?>
<!DOCTYPE svg PUBLIC "-//W3C//DTD SVG 1.1//EN" "http://www.w3.org/Graphics/SVG/1.1/DTD/svg11.dtd">
<svg xmlns="http://www.w3.org/2000/svg" version="1.1" width="512px" height="512px" style="shape-rendering:geometricPrecision; text-rendering:geometricPrecision; image-rendering:optimizeQuality; fill-rule:evenodd; clip-rule:evenodd" xmlns:xlink="http://www.w3.org/1999/xlink">
<g><path style="opacity:0.978" fill="#ff766a" d="M 302.5,62.5 C 304.43,66.1002 307.097,69.1002 310.5,71.5C 323.898,88.6249 333.898,107.625 340.5,128.5C 340.41,131.152 341.076,133.485 342.5,135.5C 354.916,188.25 345.583,236.75 314.5,281C 315.65,283.316 317.317,285.15 319.5,286.5C 328.242,296.746 337.575,306.579 347.5,316C 348.437,316.692 349.103,316.525 349.5,315.5C 367.057,313.128 381.39,318.795 392.5,332.5C 424.783,366.451 457.783,399.784 491.5,432.5C 505.644,452.368 504.644,471.535 488.5,490C 469.528,505.128 450.528,505.294 431.5,490.5C 398.833,456.83 365.833,424.163 332.5,392.5C 318.795,381.39 313.128,367.057 315.5,349.5C 316.525,349.103 316.692,348.437 316,347.5C 306.579,337.575 296.746,328.242 286.5,319.5C 285.001,316.468 282.668,314.968 279.5,315C 242.958,340.97 202.292,351.637 157.5,347C 149.945,346.376 142.612,344.876 135.5,342.5C 133.485,341.076 131.152,340.41 128.5,340.5C 107.625,333.898 88.6249,323.898 71.5,310.5C 69.1002,307.097 66.1002,304.43 62.5,302.5C 40.7093,281.947 25.2093,257.281 16,228.5C -3.17086,149.329 19.6625,85.4955 84.5,37C 103.124,25.3545 123.124,17.0211 144.5,12C 206.233,1.30285 258.9,18.1362 302.5,62.5 Z M 281.5,65.5 C 281.833,66.5 282.5,67.1667 283.5,67.5C 284.833,69.5 286.5,71.1667 288.5,72.5C 330.169,118.323 341.669,170.99 323,230.5C 302.818,281.35 266.318,313.85 213.5,328C 160.655,338.71 114.321,326.21 74.5,290.5C 72.5,287.833 70.1667,285.5 67.5,283.5C 67.1667,282.5 66.5,281.833 65.5,281.5C 29.9818,233.373 22.4818,181.04 43,124.5C 68.7094,70.0467 111.543,39.2134 171.5,32C 202.697,29.8 232.031,36.1334 259.5,51C 267.004,55.6888 274.338,60.5222 281.5,65.5 Z M 258.5,90.5 C 260.833,93.5 263.5,96.1667 266.5,98.5C 301.518,140.811 307.018,186.811 283,236.5C 262.989,270.941 233.156,291.108 193.5,297C 157.302,300.544 125.635,290.377 98.5,266.5C 96.1667,263.5 93.5,260.833 90.5,258.5C 57.015,210.088 56.515,161.422 89,112.5C 124.176,70.3256 168.342,56.4922 221.5,71C 228.404,73.4514 235.07,76.4514 241.5,80C 247.069,83.7518 252.736,87.2518 258.5,90.5 Z M 308.5,300.5 C 309.5,301.167 310.5,301.833 311.5,302.5C 313.9,305.903 316.9,308.57 320.5,310.5C 324.519,314.521 328.186,318.854 331.5,323.5C 328.73,325.561 326.396,328.061 324.5,331C 322.369,330.602 320.369,329.602 318.5,328C 315.631,324.962 312.631,322.129 309.5,319.5C 307.906,316.236 305.573,313.569 302.5,311.5C 301.833,310.5 301.167,309.5 300.5,308.5C 302.833,305.5 305.5,302.833 308.5,300.5 Z M 372.5,338.5 C 361.5,350.167 350.167,361.5 338.5,372.5C 334.73,356.207 340.397,344.707 355.5,338C 361.204,337.313 366.87,337.479 372.5,338.5 Z M 391.5,355.5 C 393.167,357.833 395.167,359.833 397.5,361.5C 400.5,365.167 403.833,368.5 407.5,371.5C 412.5,377.167 417.833,382.5 423.5,387.5C 426.167,390.833 429.167,393.833 432.5,396.5C 437.5,402.167 442.833,407.5 448.5,412.5C 451.167,415.833 454.167,418.833 457.5,421.5C 462.167,426.833 467.167,431.833 472.5,436.5C 485.163,447.154 487.663,459.821 480,474.5C 472.054,483.815 462.22,486.648 450.5,483C 445.447,480.775 441.114,477.608 437.5,473.5C 432.5,467.833 427.167,462.5 421.5,457.5C 418.833,454.167 415.833,451.167 412.5,448.5C 407.5,442.833 402.167,437.5 396.5,432.5C 394.167,429.5 391.5,426.833 388.5,424.5C 383.5,418.833 378.167,413.5 372.5,408.5C 369.167,404.5 365.5,400.833 361.5,397.5C 359.833,395.167 357.833,393.167 355.5,391.5C 366.244,379.253 377.577,367.42 389.5,356C 390.094,355.536 390.761,355.369 391.5,355.5 Z"/></g>
<g><path style="opacity:1" fill="#ffd2ce" d="M 195.5,26.5 C 182.149,26.3339 168.815,26.6673 155.5,27.5C 162.934,25.9489 170.6,25.2822 178.5,25.5C 184.343,25.5005 190.01,25.8339 195.5,26.5 Z"/></g>
<g><path style="opacity:0.869" fill="#fffafa" d="M 195.5,26.5 C 228.506,30.3433 257.173,43.3433 281.5,65.5C 274.338,60.5222 267.004,55.6888 259.5,51C 232.031,36.1334 202.697,29.8 171.5,32C 111.543,39.2134 68.7094,70.0467 43,124.5C 22.4818,181.04 29.9818,233.373 65.5,281.5C 35.1271,247.405 21.9604,207.405 26,161.5C 36.5361,97.2247 72.3695,54.058 133.5,32C 140.717,29.8618 148.05,28.3618 155.5,27.5C 168.815,26.6673 182.149,26.3339 195.5,26.5 Z"/></g>
<g><path style="opacity:0.971" fill="#ff766a" d="M 279.5,87.5 C 294.416,104.992 304.916,124.992 311,147.5C 312.376,152.755 313.209,158.088 313.5,163.5C 313.721,175.193 313.388,186.86 312.5,198.5C 302.67,252.498 272.003,288.998 220.5,308C 171.273,322.525 127.273,313.025 88.5,279.5C 87.4154,277.413 85.7488,276.08 83.5,275.5C 49.3277,240.18 36.8277,198.18 46,149.5C 60.5,95 95,60.5 149.5,46C 200.496,36.5009 243.829,50.3342 279.5,87.5 Z M 258.5,90.5 C 260.833,93.5 263.5,96.1667 266.5,98.5C 301.518,140.811 307.018,186.811 283,236.5C 262.989,270.941 233.156,291.108 193.5,297C 157.302,300.544 125.635,290.377 98.5,266.5C 96.1667,263.5 93.5,260.833 90.5,258.5C 57.015,210.088 56.515,161.422 89,112.5C 124.176,70.3256 168.342,56.4922 221.5,71C 228.404,73.4514 235.07,76.4514 241.5,80C 247.069,83.7518 252.736,87.2518 258.5,90.5 Z"/></g>
<g><path style="opacity:0.89" fill="#fffafa" d="M 258.5,90.5 C 252.736,87.2518 247.069,83.7518 241.5,80C 235.07,76.4514 228.404,73.4514 221.5,71C 168.342,56.4922 124.176,70.3256 89,112.5C 56.515,161.422 57.015,210.088 90.5,258.5C 65.6634,230.189 55.8301,197.189 61,159.5C 72.0504,108.233 102.884,75.7333 153.5,62C 183.312,56.6017 211.645,60.935 238.5,75C 245.638,79.648 252.305,84.8147 258.5,90.5 Z"/></g>
<g><path style="opacity:0.925" fill="#ffd7d3" d="M 302.5,62.5 C 305.903,64.8998 308.57,67.8998 310.5,71.5C 307.097,69.1002 304.43,66.1002 302.5,62.5 Z"/></g>
<g><path style="opacity:0.953" fill="#ffd3ce" d="M 283.5,67.5 C 286.167,68.1667 287.833,69.8333 288.5,72.5C 286.5,71.1667 284.833,69.5 283.5,67.5 Z"/></g>
<g><path style="opacity:0.965" fill="#ff766a" d="M 186.5,82.5 C 187.424,86.8843 186.091,90.2176 182.5,92.5C 177.662,92.9114 172.995,93.5781 168.5,94.5C 165.287,94.19 162.287,94.5233 159.5,95.5C 151.55,89.9453 151.55,84.4453 159.5,79C 165.835,78.0393 172.169,77.206 178.5,76.5C 182.387,77.0873 185.054,79.0873 186.5,82.5 Z"/></g>
<g><path style="opacity:0.856" fill="#fff9f9" d="M 310.5,71.5 C 324.698,86.573 335.531,103.906 343,123.5C 363.357,181.829 355.857,236.162 320.5,286.5C 320.167,286.5 319.833,286.5 319.5,286.5C 317.317,285.15 315.65,283.316 314.5,281C 345.583,236.75 354.916,188.25 342.5,135.5C 342.59,132.848 341.924,130.515 340.5,128.5C 333.898,107.625 323.898,88.6249 310.5,71.5 Z"/></g>
<g><path style="opacity:0.862" fill="#fffcfc" d="M 186.5,82.5 C 192.407,85.2235 193.907,89.5568 191,95.5C 190.097,96.7014 188.931,97.5348 187.5,98C 179.584,99.6597 171.584,100.326 163.5,100C 161.959,98.6288 160.625,97.1288 159.5,95.5C 162.287,94.5233 165.287,94.19 168.5,94.5C 172.182,94.6653 175.848,94.4986 179.5,94C 180.737,93.7679 181.737,93.2679 182.5,92.5C 186.091,90.2176 187.424,86.8843 186.5,82.5 Z"/></g>
<g><path style="opacity:1" fill="#ffc3bc" d="M 258.5,90.5 C 262.167,92.1667 264.833,94.8333 266.5,98.5C 263.5,96.1667 260.833,93.5 258.5,90.5 Z"/></g>
<g><path style="opacity:0.969" fill="#ff766a" d="M 135.5,97.5 C 135.663,99.8568 135.497,102.19 135,104.5C 93.4394,134.845 83.1061,173.512 104,220.5C 106.28,224.447 108.947,228.113 112,231.5C 116.907,241.026 114.074,246.026 103.5,246.5C 92.4359,235.724 84.9359,222.724 81,207.5C 70.0923,159.877 84.259,121.711 123.5,93C 129.023,90.672 133.023,92.172 135.5,97.5 Z"/></g>
<g><path style="opacity:1" fill="#ffd0cc" d="M 182.5,92.5 C 181.737,93.2679 180.737,93.7679 179.5,94C 175.848,94.4986 172.182,94.6653 168.5,94.5C 172.995,93.5781 177.662,92.9114 182.5,92.5 Z"/></g>
<g><path style="opacity:0.871" fill="#fffaf9" d="M 135.5,97.5 C 141.405,100.187 142.905,104.52 140,110.5C 99.5595,140.831 89.5595,179.164 110,225.5C 112.26,230.356 115.26,234.689 119,238.5C 121.806,245.754 119.472,250.421 112,252.5C 108.185,251.847 105.352,249.847 103.5,246.5C 114.074,246.026 116.907,241.026 112,231.5C 108.947,228.113 106.28,224.447 104,220.5C 83.1061,173.512 93.4394,134.845 135,104.5C 135.497,102.19 135.663,99.8568 135.5,97.5 Z"/></g>
<g><path style="opacity:0.884" fill="#fffbfb" d="M 279.5,87.5 C 313.506,122.486 326.006,164.153 317,212.5C 302.833,268 268,302.833 212.5,317C 164.15,326.005 122.483,313.505 87.5,279.5C 87.8333,279.5 88.1667,279.5 88.5,279.5C 127.273,313.025 171.273,322.525 220.5,308C 272.003,288.998 302.67,252.498 312.5,198.5C 313.29,197.391 313.79,196.058 314,194.5C 314.825,183.992 314.659,173.658 313.5,163.5C 313.209,158.088 312.376,152.755 311,147.5C 304.916,124.992 294.416,104.992 279.5,87.5 Z"/></g>
<g><path style="opacity:1" fill="#ffa299" d="M 340.5,128.5 C 341.924,130.515 342.59,132.848 342.5,135.5C 341.076,133.485 340.41,131.152 340.5,128.5 Z"/></g>
<g><path style="opacity:1" fill="#ffa69f" d="M 313.5,163.5 C 314.659,173.658 314.825,183.992 314,194.5C 313.79,196.058 313.29,197.391 312.5,198.5C 313.388,186.86 313.721,175.193 313.5,163.5 Z"/></g>
<g><path style="opacity:1" fill="#ffbfb8" d="M 90.5,258.5 C 93.5,260.833 96.1667,263.5 98.5,266.5C 94.8333,264.833 92.1667,262.167 90.5,258.5 Z"/></g>
<g><path style="opacity:0.902" fill="#ffa49c" d="M 83.5,275.5 C 85.7488,276.08 87.4154,277.413 88.5,279.5C 88.1667,279.5 87.8333,279.5 87.5,279.5C 85.8333,278.5 84.5,277.167 83.5,275.5 Z"/></g>
<g><path style="opacity:0.401" fill="#ffb7b0" d="M 67.5,283.5 C 70.1667,285.5 72.5,287.833 74.5,290.5C 71.1667,289.167 68.8333,286.833 67.5,283.5 Z"/></g>
<g><path style="opacity:0.969" fill="#ff9f97" d="M 319.5,286.5 C 319.833,286.5 320.167,286.5 320.5,286.5C 329.833,296.5 339.5,306.167 349.5,315.5C 349.103,316.525 348.437,316.692 347.5,316C 337.575,306.579 328.242,296.746 319.5,286.5 Z"/></g>
<g><path style="opacity:0.886" fill="#fff8f7" d="M 308.5,300.5 C 305.5,302.833 302.833,305.5 300.5,308.5C 296.677,308.182 294.843,306.182 295,302.5C 297.714,299.449 300.714,296.782 304,294.5C 306.859,295.52 308.359,297.52 308.5,300.5 Z"/></g>
<g><path style="opacity:0.925" fill="#ffd7d3" d="M 62.5,302.5 C 66.1002,304.43 69.1002,307.097 71.5,310.5C 67.8998,308.57 64.8998,305.903 62.5,302.5 Z"/></g>
<g><path style="opacity:0.757" fill="#ffcbc6" d="M 311.5,302.5 C 315.1,304.43 318.1,307.097 320.5,310.5C 316.9,308.57 313.9,305.903 311.5,302.5 Z"/></g>
<g><path style="opacity:0.757" fill="#ffcac5" d="M 302.5,311.5 C 305.573,313.569 307.906,316.236 309.5,319.5C 306.427,317.431 304.094,314.764 302.5,311.5 Z"/></g>
<g><path style="opacity:0.856" fill="#fff9f9" d="M 71.5,310.5 C 88.6249,323.898 107.625,333.898 128.5,340.5C 130.515,341.924 132.848,342.59 135.5,342.5C 142.612,344.876 149.945,346.376 157.5,347C 202.292,351.637 242.958,340.97 279.5,315C 282.668,314.968 285.001,316.468 286.5,319.5C 286.5,319.833 286.5,320.167 286.5,320.5C 224.36,362.562 160.36,365.395 94.5,329C 86.3562,323.349 78.6896,317.182 71.5,310.5 Z"/></g>
<g><path style="opacity:0.969" fill="#ff9f97" d="M 286.5,320.5 C 286.5,320.167 286.5,319.833 286.5,319.5C 296.746,328.242 306.579,337.575 316,347.5C 316.692,348.437 316.525,349.103 315.5,349.5C 306.167,339.5 296.5,329.833 286.5,320.5 Z"/></g>
<g><path style="opacity:0.905" fill="#fffafa" d="M 372.5,338.5 C 366.87,337.479 361.204,337.313 355.5,338C 340.397,344.707 334.73,356.207 338.5,372.5C 338.44,373.043 338.107,373.376 337.5,373.5C 328.235,359.604 329.901,347.104 342.5,336C 353.638,329.559 364.304,330.225 374.5,338C 373.906,338.464 373.239,338.631 372.5,338.5 Z"/></g>
<g><path style="opacity:0.922" fill="#ffa69e" d="M 392.5,332.5 C 425.833,365.167 458.833,398.167 491.5,431.5C 491.5,431.833 491.5,432.167 491.5,432.5C 457.783,399.784 424.783,366.451 392.5,332.5 Z"/></g>
<g><path style="opacity:1" fill="#ffa299" d="M 128.5,340.5 C 131.152,340.41 133.485,341.076 135.5,342.5C 132.848,342.59 130.515,341.924 128.5,340.5 Z"/></g>
<g><path style="opacity:0.921" fill="#fffaf9" d="M 391.5,355.5 C 390.761,355.369 390.094,355.536 389.5,356C 377.577,367.42 366.244,379.253 355.5,391.5C 352.565,389.766 350.732,387.433 350,384.5C 361.5,373 373,361.5 384.5,350C 387.433,350.732 389.766,352.565 391.5,355.5 Z"/></g>
<g><path style="opacity:0.039" fill="#ff958b" d="M 397.5,361.5 C 401.771,364.101 405.437,367.434 408.5,371.5C 408.167,371.5 407.833,371.5 407.5,371.5C 403.833,368.5 400.5,365.167 397.5,361.5 Z"/></g>
<g><path style="opacity:0.851" fill="#ffbab3" d="M 407.5,371.5 C 407.833,371.5 408.167,371.5 408.5,371.5C 414.524,376.502 419.524,381.835 423.5,387.5C 417.833,382.5 412.5,377.167 407.5,371.5 Z"/></g>
<g><path style="opacity:0.184" fill="#ffa69e" d="M 431.5,490.5 C 431.167,490.5 430.833,490.5 430.5,490.5C 397.5,458.167 364.833,425.5 332.5,392.5C 365.833,424.163 398.833,456.83 431.5,490.5 Z"/></g>
<g><path style="opacity:0.851" fill="#ffbcb5" d="M 432.5,396.5 C 438.576,401.069 444.242,406.236 449.5,412C 449.272,412.399 448.938,412.565 448.5,412.5C 442.833,407.5 437.5,402.167 432.5,396.5 Z"/></g>
<g><path style="opacity:0.039" fill="#ff958b" d="M 361.5,397.5 C 365.5,400.833 369.167,404.5 372.5,408.5C 372.5,408.833 372.5,409.167 372.5,409.5C 368.102,406.105 364.436,402.105 361.5,397.5 Z"/></g>
<g><path style="opacity:0.851" fill="#ffbeb7" d="M 372.5,408.5 C 378.167,413.5 383.5,418.833 388.5,424.5C 382.835,420.524 377.502,415.524 372.5,409.5C 372.5,409.167 372.5,408.833 372.5,408.5 Z"/></g>
<g><path style="opacity:0.851" fill="#ffbbb4" d="M 457.5,421.5 C 463.242,425.735 468.575,430.568 473.5,436C 473.272,436.399 472.938,436.565 472.5,436.5C 467.167,431.833 462.167,426.833 457.5,421.5 Z"/></g>
<g><path style="opacity:0.851" fill="#ffbcb5" d="M 396.5,432.5 C 402.167,437.5 407.5,442.833 412.5,448.5C 412.565,448.938 412.399,449.272 412,449.5C 406.236,444.242 401.069,438.576 396.5,432.5 Z"/></g>
<g><path style="opacity:0.878" fill="#fffbfa" d="M 491.5,431.5 C 506.596,445.218 510.763,461.884 504,481.5C 493.348,502.074 476.515,510.241 453.5,506C 444.107,503.31 436.441,498.143 430.5,490.5C 430.833,490.5 431.167,490.5 431.5,490.5C 450.528,505.294 469.528,505.128 488.5,490C 504.644,471.535 505.644,452.368 491.5,432.5C 491.5,432.167 491.5,431.833 491.5,431.5 Z"/></g>
<g><path style="opacity:0.851" fill="#ffbcb5" d="M 421.5,457.5 C 427.167,462.5 432.5,467.833 437.5,473.5C 437.565,473.938 437.399,474.272 437,474.5C 431.236,469.242 426.069,463.576 421.5,457.5 Z"/></g>
</svg>
