<?xml version="1.0" encoding="UTF-8"?>
<!DOCTYPE svg PUBLIC "-//W3C//DTD SVG 1.1//EN" "http://www.w3.org/Graphics/SVG/1.1/DTD/svg11.dtd">
<svg xmlns="http://www.w3.org/2000/svg" version="1.1" width="75px" height="75px" style="shape-rendering:geometricPrecision; text-rendering:geometricPrecision; image-rendering:optimizeQuality; fill-rule:evenodd; clip-rule:evenodd" xmlns:xlink="http://www.w3.org/1999/xlink">
<g><path style="opacity:0.869" fill="#fe7568" d="M 13.5,11.5 C 15.1667,11.5 16.8333,11.5 18.5,11.5C 18.6665,21.5056 18.4998,31.5056 18,41.5C 15.0705,45.3474 13.0705,44.6807 12,39.5C 11.6652,42.1801 12.4986,44.5134 14.5,46.5C 15.8139,45.6872 16.9805,44.6872 18,43.5C 18.6667,48.1667 18.6667,52.8333 18,57.5C 12.9968,59.6677 7.83017,61.3344 2.5,62.5C 2.33341,46.4965 2.50007,30.4965 3,14.5C 6.61003,13.5522 10.11,12.5522 13.5,11.5 Z M 7.5,22.5 C 9.29548,19.5088 11.4621,19.1754 14,21.5C 14.4694,26.4391 13.4694,31.1058 11,35.5C 8.01516,31.4209 6.8485,27.0876 7.5,22.5 Z"/></g>
<g><path style="opacity:0.878" fill="#fe7568" d="M 28.5,29.5 C 27.8333,29.5 27.5,29.8333 27.5,30.5C 25.7376,31.2623 24.7376,32.5956 24.5,34.5C 23.8333,34.5 23.5,34.8333 23.5,35.5C 22.5416,35.9528 21.7083,36.6195 21,37.5C 20.5002,28.8397 20.3336,20.1731 20.5,11.5C 25.5431,12.0083 30.5431,12.8416 35.5,14C 36.4601,17.73 36.7935,21.5633 36.5,25.5C 34.146,25.838 31.8127,26.338 29.5,27C 28.7476,27.6708 28.4142,28.5041 28.5,29.5 Z"/></g>
<g><path style="opacity:0.863" fill="#fe7568" d="M 48.5,11.5 C 50.1667,11.5 51.8333,11.5 53.5,11.5C 53.5,23.1667 53.5,34.8333 53.5,46.5C 52.5,46.5 51.5,46.5 50.5,46.5C 49.0669,38.8341 47.5669,31.1675 46,23.5C 43.4622,22.6008 40.9622,22.9342 38.5,24.5C 37.2086,20.9553 37.2086,17.4553 38.5,14C 42.0382,13.4652 45.3716,12.6319 48.5,11.5 Z"/></g>
<g><path style="opacity:0.853" fill="#fe7568" d="M 55.5,11.5 C 60.8033,11.9275 65.9699,12.9275 71,14.5C 71.4999,30.4965 71.6666,46.4965 71.5,62.5C 66.1698,61.3344 61.0032,59.6677 56,57.5C 55.1816,54.7728 55.3483,52.1062 56.5,49.5C 58.323,50.7472 60.323,51.4139 62.5,51.5C 63.1667,44.5048 63.3334,37.5048 63,30.5C 61.9882,36.7959 61.4882,43.1292 61.5,49.5C 59.5,49.1667 57.5,48.8333 55.5,48.5C 55.5,36.1667 55.5,23.8333 55.5,11.5 Z M 61.5,24.5 C 59.9719,24.4827 59.4719,23.816 60,22.5C 60.7172,23.0442 61.2172,23.7109 61.5,24.5 Z M 65.5,27.5 C 64.5041,27.5858 63.6708,27.2524 63,26.5C 62.1627,28.0074 60.9961,28.5074 59.5,28C 60.8228,27.1841 61.4894,26.0174 61.5,24.5C 63.2259,24.1854 64.8925,24.0187 66.5,24C 65.6634,25.0113 65.33,26.1779 65.5,27.5 Z M 66.5,46.5 C 68.337,46.6395 68.6704,47.3061 67.5,48.5C 66.7025,48.0431 66.3691,47.3764 66.5,46.5 Z"/></g>
<g><path style="opacity:0.658" fill="#fe7568" d="M 7.5,22.5 C 11.9771,20.3948 13.8104,21.7282 13,26.5C 12.6397,28.4211 11.8064,30.0878 10.5,31.5C 8.89857,28.6957 7.89857,25.6957 7.5,22.5 Z"/></g>
<g><path style="opacity:0.879" fill="#fe7568" d="M 40.5,24.5 C 42.1439,24.2865 43.6439,24.6198 45,25.5C 46.3333,32.1667 47.6667,38.8333 49,45.5C 49.9906,46.9389 51.324,47.9389 53,48.5C 53.7835,51.7603 53.6168,54.9269 52.5,58C 47.5713,59.8102 42.5713,61.3102 37.5,62.5C 37.5,50.1667 37.5,37.8333 37.5,25.5C 38.791,25.7373 39.791,25.404 40.5,24.5 Z M 40.5,39.5 C 42.337,39.6395 42.6704,40.3061 41.5,41.5C 40.7025,41.0431 40.3691,40.3764 40.5,39.5 Z"/></g>
<g><path style="opacity:0.892" fill="#fe7568" d="M 23.5,35.5 C 24.1667,35.5 24.5,35.1667 24.5,34.5C 26.2624,33.7377 27.2624,32.4044 27.5,30.5C 28.1667,30.5 28.5,30.1667 28.5,29.5C 30.5796,28.0541 32.9129,27.0541 35.5,26.5C 36.499,38.4815 36.8323,50.4815 36.5,62.5C 31.1698,61.3344 26.0032,59.6677 21,57.5C 20.3333,51.5 20.3333,45.5 21,39.5C 22.4813,38.5291 23.3146,37.1958 23.5,35.5 Z"/></g>
</svg>
