<?xml version="1.0" encoding="UTF-8"?>
<!DOCTYPE svg PUBLIC "-//W3C//DTD SVG 1.1//EN" "http://www.w3.org/Graphics/SVG/1.1/DTD/svg11.dtd">
<svg xmlns="http://www.w3.org/2000/svg" version="1.1" width="392px" height="205px" style="shape-rendering:geometricPrecision; text-rendering:geometricPrecision; image-rendering:optimizeQuality; fill-rule:evenodd; clip-rule:evenodd" xmlns:xlink="http://www.w3.org/1999/xlink">
<g><path style="opacity:1" fill="#cc0502" d="M 194.5,29.5 C 191.856,32.4802 189.189,35.4802 186.5,38.5C 187.242,39.2868 188.075,39.9535 189,40.5C 193.541,40.3931 198.707,40.2264 204.5,40C 207.739,43.0015 210.072,46.5015 211.5,50.5C 200.147,50.1678 188.814,50.5012 177.5,51.5C 175.465,53.938 173.799,56.6047 172.5,59.5C 187.489,60.3328 202.489,60.8328 217.5,61C 219.652,63.4239 220.985,66.2573 221.5,69.5C 203.843,70.333 186.176,70.833 168.5,71C 166.777,73.9435 165.777,77.1102 165.5,80.5C 161.5,80.5 157.5,80.5 153.5,80.5C 153.5,81.5 153.5,82.5 153.5,83.5C 152.504,83.4142 151.671,83.7476 151,84.5C 149.182,93.096 148.016,101.763 147.5,110.5C 144.904,106.346 141.237,103.346 136.5,101.5C 135.614,100.675 135.281,99.675 135.5,98.5C 138.448,98.2229 141.281,98.5562 144,99.5C 144.483,98.552 144.649,97.552 144.5,96.5C 145.675,96.719 146.675,96.3857 147.5,95.5C 151.648,87.9563 149.315,84.6229 140.5,85.5C 133.377,86.0723 127.711,89.0723 123.5,94.5C 122.833,94.8333 122.167,95.1667 121.5,95.5C 121.022,93.0829 120.022,90.9162 118.5,89C 111.057,84.7584 103.391,84.425 95.5,88C 94.9341,88.9947 94.2674,89.828 93.5,90.5C 91.6509,93.3241 90.3175,96.4908 89.5,100C 93.2811,99.6041 97.1144,99.1041 101,98.5C 102.5,98.6667 104,98.8333 105.5,99C 106.756,99.4169 107.423,100.25 107.5,101.5C 100.062,101.299 94.062,103.965 89.5,109.5C 88.5,110.167 87.5,110.833 86.5,111.5C 88.2103,100.431 90.2103,89.431 92.5,78.5C 86.5368,77.5041 80.5368,77.1707 74.5,77.5C 74.5,78.5 74.5,79.5 74.5,80.5C 73.5,80.5 72.5,80.5 71.5,80.5C 71.5,82.1667 71.5,83.8333 71.5,85.5C 69.1324,87.9557 68.1324,90.9557 68.5,94.5C 67.7281,95.6935 66.7281,96.6935 65.5,97.5C 65.6662,91.1579 65.4995,84.8246 65,78.5C 59.9283,77.5286 54.7616,77.1953 49.5,77.5C 49.7373,78.791 49.404,79.791 48.5,80.5C 47.0689,80.8807 46.2355,81.8807 46,83.5C 42.9532,99.0946 40.4532,114.761 38.5,130.5C 42.3293,131.069 45.6627,130.402 48.5,128.5C 49.5,128.5 50.5,128.5 51.5,128.5C 52.5066,122.382 53.5066,116.382 54.5,110.5C 54.9538,117.159 55.2871,123.826 55.5,130.5C 58.3878,131.01 60.7211,130.344 62.5,128.5C 63.675,128.719 64.675,128.386 65.5,127.5C 67.8129,120.579 70.4796,113.912 73.5,107.5C 72.3951,115.076 71.0617,122.576 69.5,130C 71.3333,130.167 73.1667,130.333 75,130.5C 77.2953,130.453 79.1286,129.787 80.5,128.5C 81.5,128.5 82.5,128.5 83.5,128.5C 83.8333,126.5 84.1667,124.5 84.5,122.5C 88.1132,131.867 94.1132,133.867 102.5,128.5C 104.655,129.537 106.988,130.203 109.5,130.5C 111.64,130.444 113.306,129.777 114.5,128.5C 115.5,128.5 116.5,128.5 117.5,128.5C 117.791,129.649 118.624,130.316 120,130.5C 128.047,132.663 135.214,131.33 141.5,126.5C 142.694,125.728 143.694,124.728 144.5,123.5C 146.624,130.399 151.291,132.899 158.5,131C 160.119,130.764 161.119,129.931 161.5,128.5C 164.32,127.535 165.653,125.535 165.5,122.5C 172.925,131.591 182.259,133.924 193.5,129.5C 194.298,129.043 194.631,128.376 194.5,127.5C 195.75,127.423 196.583,126.756 197,125.5C 197.339,122.964 197.839,120.464 198.5,118C 198.167,117.5 197.833,117 197.5,116.5C 191.846,119.846 186.18,120.012 180.5,117C 179.177,116.184 178.511,115.017 178.5,113.5C 184.5,113.5 190.5,113.5 196.5,113.5C 196.5,112.5 196.5,111.5 196.5,110.5C 197.5,110.5 198.5,110.5 199.5,110.5C 199.263,109.209 199.596,108.209 200.5,107.5C 199.919,115.229 198.919,122.896 197.5,130.5C 201.649,131.08 205.316,130.414 208.5,128.5C 209.5,128.5 210.5,128.5 211.5,128.5C 212.234,120.763 213.401,113.096 215,105.5C 216.012,101.992 218.178,99.6582 221.5,98.5C 219.506,107.59 220.506,116.257 224.5,124.5C 223.691,126.292 223.191,128.292 223,130.5C 222.632,131.91 221.799,132.91 220.5,133.5C 203.29,133.045 186.124,132.712 169,132.5C 169.677,136.071 170.51,139.738 171.5,143.5C 186.848,143.167 202.181,143.501 217.5,144.5C 215.737,147.305 214.07,150.138 212.5,153C 200.833,153.333 189.167,153.667 177.5,154C 179.833,157 182.167,160 184.5,163C 191.167,163.333 197.833,163.667 204.5,164C 201.637,168.028 198.304,171.528 194.5,174.5C 162.984,200.747 127.984,206.247 89.5,191C 52.8598,172.738 33.8598,143.071 32.5,102C 33.4115,61.18 52.0781,31.5133 88.5,13C 120.539,-0.741283 151.872,1.59205 182.5,20C 186.751,22.9454 190.751,26.112 194.5,29.5 Z"/></g>
<g><path style="opacity:1" fill="#fd9904" d="M 194.5,174.5 C 198.304,171.528 201.637,168.028 204.5,164C 197.833,163.667 191.167,163.333 184.5,163C 182.167,160 179.833,157 177.5,154C 189.167,153.667 200.833,153.333 212.5,153C 214.07,150.138 215.737,147.305 217.5,144.5C 202.181,143.501 186.848,143.167 171.5,143.5C 170.51,139.738 169.677,136.071 169,132.5C 186.124,132.712 203.29,133.045 220.5,133.5C 221.799,132.91 222.632,131.91 223,130.5C 223.191,128.292 223.691,126.292 224.5,124.5C 231.946,132.073 240.279,133.406 249.5,128.5C 250.694,127.728 251.694,126.728 252.5,125.5C 255.089,131.063 259.422,132.896 265.5,131C 267.119,130.764 268.119,129.931 268.5,128.5C 268.833,128.5 269.167,128.5 269.5,128.5C 271.655,129.537 273.988,130.203 276.5,130.5C 278.64,130.444 280.306,129.777 281.5,128.5C 282.9,127.9 283.9,126.9 284.5,125.5C 284.5,127.167 284.5,128.833 284.5,130.5C 288.167,130.5 291.833,130.5 295.5,130.5C 296.467,129.194 297.801,128.527 299.5,128.5C 299.215,119.97 300.382,111.637 303,103.5C 304.724,101.604 306.557,99.9378 308.5,98.5C 307.489,100.372 306.655,102.372 306,104.5C 305.08,111.276 305.414,117.943 307,124.5C 310.323,130.908 315.489,133.075 322.5,131C 323.381,130.292 324.047,129.458 324.5,128.5C 324.833,128.5 325.167,128.5 325.5,128.5C 327.384,129.675 329.551,130.342 332,130.5C 334.295,130.453 336.129,129.787 337.5,128.5C 338.5,128.5 339.5,128.5 340.5,128.5C 343.344,111.572 345.677,94.5715 347.5,77.5C 344.15,77.335 340.817,77.5017 337.5,78C 336.748,78.6708 336.414,79.5041 336.5,80.5C 335.504,80.4142 334.671,80.7476 334,81.5C 333.56,83.8659 333.06,86.1992 332.5,88.5C 323.671,85.3257 316.671,87.659 311.5,95.5C 310.833,95.8333 310.167,96.1667 309.5,96.5C 310.65,93.5727 311.65,90.5727 312.5,87.5C 308.832,86.5925 305.998,87.9258 304,91.5C 303.506,89.8659 303.34,88.1992 303.5,86.5C 300.167,86.5 296.833,86.5 293.5,86.5C 293.5,87.5 293.5,88.5 293.5,89.5C 292.5,89.5 291.5,89.5 290.5,89.5C 290.451,93.0781 289.785,96.4115 288.5,99.5C 288.742,91.9012 285.075,87.4012 277.5,86C 271.895,85.049 266.562,85.8823 261.5,88.5C 260.702,88.9569 260.369,89.6236 260.5,90.5C 259.85,90.8039 259.183,91.1373 258.5,91.5C 257.511,94.4377 256.844,97.4377 256.5,100.5C 261.704,98.7464 267.037,98.2464 272.5,99C 273.381,99.7083 274.047,100.542 274.5,101.5C 267.315,101.103 261.315,103.436 256.5,108.5C 254.103,110.662 252.436,113.329 251.5,116.5C 247.099,117.902 242.765,117.735 238.5,116C 237.789,114.745 236.956,113.579 236,112.5C 235.333,107.5 235.333,102.5 236,97.5C 237.242,95.1407 238.742,93.1407 240.5,91.5C 245.078,90.4459 249.578,90.7792 254,92.5C 254.513,91.4734 255.013,90.4734 255.5,89.5C 256.117,89.6107 256.617,89.944 257,90.5C 258.827,86.7349 259.327,82.9015 258.5,79C 247.09,74.0191 237.423,76.1858 229.5,85.5C 228.5,86.1667 227.5,86.8333 226.5,87.5C 226.5,86.8333 226.167,86.5 225.5,86.5C 226.077,83.4503 224.91,81.4503 222,80.5C 203.216,81.5976 184.382,81.5976 165.5,80.5C 165.777,77.1102 166.777,73.9435 168.5,71C 186.176,70.833 203.843,70.333 221.5,69.5C 220.985,66.2573 219.652,63.4239 217.5,61C 202.489,60.8328 187.489,60.3328 172.5,59.5C 173.799,56.6047 175.465,53.938 177.5,51.5C 188.814,50.5012 200.147,50.1678 211.5,50.5C 210.072,46.5015 207.739,43.0015 204.5,40C 198.707,40.2264 193.541,40.3931 189,40.5C 188.075,39.9535 187.242,39.2868 186.5,38.5C 189.189,35.4802 191.856,32.4802 194.5,29.5C 237.992,-4.91264 281.659,-5.07931 325.5,29C 354.999,58.2089 364.166,93.0423 353,133.5C 336.017,175.8 304.684,197.8 259,199.5C 234.537,198.507 213.037,190.174 194.5,174.5 Z"/></g>
<g><path style="opacity:1" fill="#fcfbfc" d="M 255.5,89.5 C 251.315,87.4396 246.982,87.2729 242.5,89C 241.619,89.7083 240.953,90.5416 240.5,91.5C 238.742,93.1407 237.242,95.1407 236,97.5C 235.333,102.5 235.333,107.5 236,112.5C 236.956,113.579 237.789,114.745 238.5,116C 242.765,117.735 247.099,117.902 251.5,116.5C 252.117,116.389 252.617,116.056 253,115.5C 253.543,118.868 253.376,122.201 252.5,125.5C 251.694,126.728 250.694,127.728 249.5,128.5C 236.066,130.769 227.566,125.436 224,112.5C 223.833,110.167 223.667,107.833 223.5,105.5C 223.894,100.048 224.894,94.715 226.5,89.5C 228.262,88.7377 229.262,87.4044 229.5,85.5C 237.423,76.1858 247.09,74.0191 258.5,79C 259.327,82.9015 258.827,86.7349 257,90.5C 256.617,89.944 256.117,89.6107 255.5,89.5 Z"/></g>
<g><path style="opacity:1" fill="#faf9f9" d="M 65.5,97.5 C 65.3367,99.8568 65.5034,102.19 66,104.5C 68.0063,101.464 68.8396,98.1309 68.5,94.5C 71.075,92.1547 72.075,89.1547 71.5,85.5C 72.8897,84.1007 73.8897,82.4341 74.5,80.5C 74.5,79.5 74.5,78.5 74.5,77.5C 80.5368,77.1707 86.5368,77.5041 92.5,78.5C 90.2103,89.431 88.2103,100.431 86.5,111.5C 86.3089,115.262 85.6422,118.929 84.5,122.5C 84.1667,124.5 83.8333,126.5 83.5,128.5C 82.5,128.5 81.5,128.5 80.5,128.5C 77.7531,128.813 75.0865,128.48 72.5,127.5C 74.0024,118.155 75.669,108.822 77.5,99.5C 77.5972,97.7167 77.2639,97.0501 76.5,97.5C 74.9963,100.687 73.9963,104.021 73.5,107.5C 70.4796,113.912 67.8129,120.579 65.5,127.5C 64.675,128.386 63.675,128.719 62.5,128.5C 61.1667,128.5 59.8333,128.5 58.5,128.5C 57.907,117.176 57.407,105.842 57,94.5C 56.2727,99.8632 55.4393,105.197 54.5,110.5C 53.5066,116.382 52.5066,122.382 51.5,128.5C 50.5,128.5 49.5,128.5 48.5,128.5C 46.1667,128.5 43.8333,128.5 41.5,128.5C 43.504,112.471 45.8374,96.4708 48.5,80.5C 49.404,79.791 49.7373,78.791 49.5,77.5C 54.7616,77.1953 59.9283,77.5286 65,78.5C 65.4995,84.8246 65.6662,91.1579 65.5,97.5 Z"/></g>
<g><path style="opacity:1" fill="#fcfbfb" d="M 337.5,128.5 C 334.833,128.5 332.167,128.5 329.5,128.5C 329.071,125.253 327.738,125.253 325.5,128.5C 325.167,128.5 324.833,128.5 324.5,128.5C 316.754,129.917 311.587,126.917 309,119.5C 307.788,111.224 308.621,103.224 311.5,95.5C 316.671,87.659 323.671,85.3257 332.5,88.5C 333.122,89.6266 333.955,90.6266 335,91.5C 335.548,87.8296 336.048,84.1629 336.5,80.5C 336.414,79.5041 336.748,78.6708 337.5,78C 340.817,77.5017 344.15,77.335 347.5,77.5C 345.677,94.5715 343.344,111.572 340.5,128.5C 339.5,128.5 338.5,128.5 337.5,128.5 Z"/></g>
<g><path style="opacity:1" fill="#140c66" d="M 74.5,80.5 C 73.8897,82.4341 72.8897,84.1007 71.5,85.5C 71.5,83.8333 71.5,82.1667 71.5,80.5C 72.5,80.5 73.5,80.5 74.5,80.5 Z"/></g>
<g><path style="opacity:1" fill="#250a62" d="M 336.5,80.5 C 336.048,84.1629 335.548,87.8296 335,91.5C 333.955,90.6266 333.122,89.6266 332.5,88.5C 333.06,86.1992 333.56,83.8659 334,81.5C 334.671,80.7476 335.504,80.4142 336.5,80.5 Z"/></g>
<g><path style="opacity:1" fill="#cb1707" d="M 165.5,80.5 C 184.382,81.5976 203.216,81.5976 222,80.5C 224.91,81.4503 226.077,83.4503 225.5,86.5C 221.804,86.6948 218.971,88.3615 217,91.5C 216.506,89.8659 216.34,88.1992 216.5,86.5C 213.15,86.335 209.817,86.5017 206.5,87C 205.748,87.6708 205.414,88.5041 205.5,89.5C 204.25,89.5774 203.417,90.244 203,91.5C 202.751,97.0645 201.918,102.398 200.5,107.5C 203.518,94.7775 198.685,87.4442 186,85.5C 180.107,86.8599 175.273,89.8599 171.5,94.5C 170.094,94.9731 169.427,95.9731 169.5,97.5C 169.167,97.5 168.833,97.5 168.5,97.5C 168.249,94.091 168.583,90.7577 169.5,87.5C 167.955,86.5481 166.288,86.2148 164.5,86.5C 164.517,84.4352 164.85,82.4352 165.5,80.5 Z"/></g>
<g><path style="opacity:1" fill="#0c0661" d="M 153.5,83.5 C 151.577,94.4761 149.744,105.476 148,116.5C 147.505,114.527 147.338,112.527 147.5,110.5C 148.016,101.763 149.182,93.096 151,84.5C 151.671,83.7476 152.504,83.4142 153.5,83.5 Z"/></g>
<g><path style="opacity:1" fill="#fbf9fa" d="M 121.5,95.5 C 121.605,99.5483 121.272,103.548 120.5,107.5C 120.313,111.913 119.646,116.246 118.5,120.5C 117.908,123.127 117.575,125.794 117.5,128.5C 116.5,128.5 115.5,128.5 114.5,128.5C 112.473,128.662 110.473,128.495 108.5,128C 108.018,126.992 107.852,125.825 108,124.5C 105.985,125.697 104.151,127.03 102.5,128.5C 89.3551,128.516 85.0218,122.182 89.5,109.5C 94.062,103.965 100.062,101.299 107.5,101.5C 108.5,101.5 109.5,101.5 110.5,101.5C 110.982,97.4785 109.148,95.4785 105,95.5C 100.837,96.8951 96.6706,97.2284 92.5,96.5C 93.3482,94.5914 93.6816,92.5914 93.5,90.5C 94.2674,89.828 94.9341,88.9947 95.5,88C 103.391,84.425 111.057,84.7584 118.5,89C 120.022,90.9162 121.022,93.0829 121.5,95.5 Z"/></g>
<g><path style="opacity:1" fill="#fbf9f9" d="M 165.5,80.5 C 164.85,82.4352 164.517,84.4352 164.5,86.5C 166.288,86.2148 167.955,86.5481 169.5,87.5C 168.583,90.7577 168.249,94.091 168.5,97.5C 167.5,97.5 166.5,97.5 165.5,97.5C 164.5,97.5 163.5,97.5 162.5,97.5C 162.5,98.5 162.5,99.5 162.5,100.5C 160.287,105.923 159.62,111.589 160.5,117.5C 162.199,118.815 163.865,118.815 165.5,117.5C 165.5,119.167 165.5,120.833 165.5,122.5C 165.653,125.535 164.32,127.535 161.5,128.5C 154.162,130.322 149.329,127.656 147,120.5C 146.302,121.691 145.469,122.691 144.5,123.5C 143.694,124.728 142.694,125.728 141.5,126.5C 135.346,128.478 129.013,128.978 122.5,128C 120.709,125.894 120.042,123.394 120.5,120.5C 120.461,119.244 120.961,118.244 122,117.5C 125.842,119.414 129.675,119.747 133.5,118.5C 135.121,118.213 136.121,117.213 136.5,115.5C 134.248,113.084 131.581,111.251 128.5,110C 123.952,105.868 122.285,100.701 123.5,94.5C 127.711,89.0723 133.377,86.0723 140.5,85.5C 149.315,84.6229 151.648,87.9563 147.5,95.5C 146.675,96.3857 145.675,96.719 144.5,96.5C 140.82,94.8391 137.82,95.5058 135.5,98.5C 135.281,99.675 135.614,100.675 136.5,101.5C 141.237,103.346 144.904,106.346 147.5,110.5C 147.338,112.527 147.505,114.527 148,116.5C 149.744,105.476 151.577,94.4761 153.5,83.5C 153.5,82.5 153.5,81.5 153.5,80.5C 157.5,80.5 161.5,80.5 165.5,80.5 Z"/></g>
<g><path style="opacity:1" fill="#fcfafb" d="M 200.5,107.5 C 199.596,108.209 199.263,109.209 199.5,110.5C 198.5,110.5 197.5,110.5 196.5,110.5C 190.5,110.5 184.5,110.5 178.5,110.5C 178.5,111.5 178.5,112.5 178.5,113.5C 178.511,115.017 179.177,116.184 180.5,117C 186.18,120.012 191.846,119.846 197.5,116.5C 197.833,117 198.167,117.5 198.5,118C 197.839,120.464 197.339,122.964 197,125.5C 196.583,126.756 195.75,127.423 194.5,127.5C 171.274,130.489 162.94,120.489 169.5,97.5C 170.906,97.0269 171.573,96.0269 171.5,94.5C 175.273,89.8599 180.107,86.8599 186,85.5C 198.685,87.4442 203.518,94.7775 200.5,107.5 Z"/></g>
<g><path style="opacity:1" fill="#fbf9f9" d="M 225.5,86.5 C 226.167,86.5 226.5,86.8333 226.5,87.5C 226.5,87.8333 226.5,88.1667 226.5,88.5C 224.952,88.8212 224.285,89.8212 224.5,91.5C 223.651,93.8876 222.651,96.2209 221.5,98.5C 218.178,99.6582 216.012,101.992 215,105.5C 213.401,113.096 212.234,120.763 211.5,128.5C 210.5,128.5 209.5,128.5 208.5,128.5C 205.833,128.5 203.167,128.5 200.5,128.5C 201.987,115.475 203.654,102.475 205.5,89.5C 205.414,88.5041 205.748,87.6708 206.5,87C 209.817,86.5017 213.15,86.335 216.5,86.5C 216.34,88.1992 216.506,89.8659 217,91.5C 218.971,88.3615 221.804,86.6948 225.5,86.5 Z"/></g>
<g><path style="opacity:1" fill="#fdf9f7" d="M 288.5,99.5 C 288.084,108.346 286.751,117.012 284.5,125.5C 283.9,126.9 282.9,127.9 281.5,128.5C 279.167,128.5 276.833,128.5 274.5,128.5C 274.719,127.325 274.386,126.325 273.5,125.5C 272.099,126.521 270.765,127.521 269.5,128.5C 269.167,128.5 268.833,128.5 268.5,128.5C 260.049,129.213 255.383,125.379 254.5,117C 254.481,113.976 255.147,111.142 256.5,108.5C 261.315,103.436 267.315,101.103 274.5,101.5C 275.5,101.5 276.5,101.5 277.5,101.5C 277.825,97.3498 275.825,95.3498 271.5,95.5C 267.527,96.3844 263.527,97.051 259.5,97.5C 259.993,95.1944 260.326,92.861 260.5,90.5C 260.369,89.6236 260.702,88.9569 261.5,88.5C 266.562,85.8823 271.895,85.049 277.5,86C 285.075,87.4012 288.742,91.9012 288.5,99.5 Z"/></g>
<g><path style="opacity:1" fill="#f8f6f8" d="M 309.5,96.5 C 309.672,97.4916 309.338,98.1583 308.5,98.5C 306.557,99.9378 304.724,101.604 303,103.5C 300.382,111.637 299.215,119.97 299.5,128.5C 297.801,128.527 296.467,129.194 295.5,130.5C 293.365,128.631 290.698,127.964 287.5,128.5C 289.142,115.429 291.142,102.429 293.5,89.5C 293.5,88.5 293.5,87.5 293.5,86.5C 296.833,86.5 300.167,86.5 303.5,86.5C 303.34,88.1992 303.506,89.8659 304,91.5C 305.998,87.9258 308.832,86.5925 312.5,87.5C 311.65,90.5727 310.65,93.5727 309.5,96.5 Z"/></g>
<g><path style="opacity:1" fill="#461560" d="M 229.5,85.5 C 229.262,87.4044 228.262,88.7377 226.5,89.5C 226.5,89.1667 226.5,88.8333 226.5,88.5C 226.5,88.1667 226.5,87.8333 226.5,87.5C 227.5,86.8333 228.5,86.1667 229.5,85.5 Z"/></g>
<g><path style="opacity:1" fill="#100966" d="M 71.5,85.5 C 72.075,89.1547 71.075,92.1547 68.5,94.5C 68.1324,90.9557 69.1324,87.9557 71.5,85.5 Z"/></g>
<g><path style="opacity:1" fill="#c12c25" d="M 226.5,88.5 C 226.5,88.8333 226.5,89.1667 226.5,89.5C 225.833,90.1667 225.167,90.8333 224.5,91.5C 224.285,89.8212 224.952,88.8212 226.5,88.5 Z"/></g>
<g><path style="opacity:1" fill="#210b66" d="M 255.5,89.5 C 255.013,90.4734 254.513,91.4734 254,92.5C 249.578,90.7792 245.078,90.4459 240.5,91.5C 240.953,90.5416 241.619,89.7083 242.5,89C 246.982,87.2729 251.315,87.4396 255.5,89.5 Z"/></g>
<g><path style="opacity:1" fill="#0b0560" d="M 48.5,80.5 C 45.8374,96.4708 43.504,112.471 41.5,128.5C 43.8333,128.5 46.1667,128.5 48.5,128.5C 45.6627,130.402 42.3293,131.069 38.5,130.5C 40.4532,114.761 42.9532,99.0946 46,83.5C 46.2355,81.8807 47.0689,80.8807 48.5,80.5 Z"/></g>
<g><path style="opacity:1" fill="#060360" d="M 171.5,94.5 C 171.573,96.0269 170.906,97.0269 169.5,97.5C 169.427,95.9731 170.094,94.9731 171.5,94.5 Z"/></g>
<g><path style="opacity:1" fill="#140c68" d="M 93.5,90.5 C 93.6816,92.5914 93.3482,94.5914 92.5,96.5C 96.6706,97.2284 100.837,96.8951 105,95.5C 109.148,95.4785 110.982,97.4785 110.5,101.5C 109.5,101.5 108.5,101.5 107.5,101.5C 107.423,100.25 106.756,99.4169 105.5,99C 104,98.8333 102.5,98.6667 101,98.5C 97.1144,99.1041 93.2811,99.6041 89.5,100C 90.3175,96.4908 91.6509,93.3241 93.5,90.5 Z"/></g>
<g><path style="opacity:1" fill="#1c1365" d="M 144.5,96.5 C 144.649,97.552 144.483,98.552 144,99.5C 141.281,98.5562 138.448,98.2229 135.5,98.5C 137.82,95.5058 140.82,94.8391 144.5,96.5 Z"/></g>
<g><path style="opacity:1" fill="#150c67" d="M 187.5,102.5 C 186.264,99.3787 183.931,98.0454 180.5,98.5C 186.067,93.6929 189.4,95.0262 190.5,102.5C 189.5,102.5 188.5,102.5 187.5,102.5 Z"/></g>
<g><path style="opacity:1" fill="#190e69" d="M 260.5,90.5 C 260.326,92.861 259.993,95.1944 259.5,97.5C 263.527,97.051 267.527,96.3844 271.5,95.5C 275.825,95.3498 277.825,97.3498 277.5,101.5C 276.5,101.5 275.5,101.5 274.5,101.5C 274.047,100.542 273.381,99.7083 272.5,99C 267.037,98.2464 261.704,98.7464 256.5,100.5C 256.844,97.4377 257.511,94.4377 258.5,91.5C 259.183,91.1373 259.85,90.8039 260.5,90.5 Z"/></g>
<g><path style="opacity:1" fill="#060360" d="M 165.5,97.5 C 165.5,99.5 164.5,100.5 162.5,100.5C 162.5,99.5 162.5,98.5 162.5,97.5C 163.5,97.5 164.5,97.5 165.5,97.5 Z"/></g>
<g><path style="opacity:1" fill="#0b0664" d="M 327.5,116.5 C 330.441,110.761 330.108,105.261 326.5,100C 325.552,99.5172 324.552,99.3505 323.5,99.5C 326.461,96.7957 329.294,97.129 332,100.5C 332.667,103.833 332.667,107.167 332,110.5C 331.376,113.274 329.876,115.274 327.5,116.5 Z"/></g>
<g><path style="opacity:1" fill="#230d5d" d="M 68.5,94.5 C 68.8396,98.1309 68.0063,101.464 66,104.5C 65.5034,102.19 65.3367,99.8568 65.5,97.5C 66.7281,96.6935 67.7281,95.6935 68.5,94.5 Z"/></g>
<g><path style="opacity:1" fill="#160763" d="M 226.5,89.5 C 224.894,94.715 223.894,100.048 223.5,105.5C 223.667,107.833 223.833,110.167 224,112.5C 227.566,125.436 236.066,130.769 249.5,128.5C 240.279,133.406 231.946,132.073 224.5,124.5C 220.506,116.257 219.506,107.59 221.5,98.5C 222.651,96.2209 223.651,93.8876 224.5,91.5C 225.167,90.8333 225.833,90.1667 226.5,89.5 Z"/></g>
<g><path style="opacity:1" fill="#cb1a0f" d="M 165.5,97.5 C 166.5,97.5 167.5,97.5 168.5,97.5C 165.535,103.889 164.535,110.555 165.5,117.5C 163.865,118.815 162.199,118.815 160.5,117.5C 159.62,111.589 160.287,105.923 162.5,100.5C 164.5,100.5 165.5,99.5 165.5,97.5 Z"/></g>
<g><path style="opacity:1" fill="#c70f09" d="M 180.5,98.5 C 183.931,98.0454 186.264,99.3787 187.5,102.5C 184.753,102.813 182.086,102.48 179.5,101.5C 180.127,100.583 180.461,99.5832 180.5,98.5 Z"/></g>
<g><path style="opacity:1" fill="#0e0761" d="M 205.5,89.5 C 203.654,102.475 201.987,115.475 200.5,128.5C 203.167,128.5 205.833,128.5 208.5,128.5C 205.316,130.414 201.649,131.08 197.5,130.5C 198.919,122.896 199.919,115.229 200.5,107.5C 201.918,102.398 202.751,97.0645 203,91.5C 203.417,90.244 204.25,89.5774 205.5,89.5 Z"/></g>
<g><path style="opacity:1" fill="#fb990d" d="M 323.5,99.5 C 324.552,99.3505 325.552,99.5172 326.5,100C 330.108,105.261 330.441,110.761 327.5,116.5C 323.814,119.086 321.314,118.086 320,113.5C 319.482,109.449 319.816,105.449 321,101.5C 321.708,100.619 322.542,99.9528 323.5,99.5 Z"/></g>
<g><path style="opacity:1" fill="#100762" d="M 123.5,94.5 C 122.285,100.701 123.952,105.868 128.5,110C 131.581,111.251 134.248,113.084 136.5,115.5C 136.121,117.213 135.121,118.213 133.5,118.5C 128.91,115.053 124.577,111.386 120.5,107.5C 121.272,103.548 121.605,99.5483 121.5,95.5C 122.167,95.1667 122.833,94.8333 123.5,94.5 Z"/></g>
<g><path style="opacity:1" fill="#180763" d="M 311.5,95.5 C 308.621,103.224 307.788,111.224 309,119.5C 311.587,126.917 316.754,129.917 324.5,128.5C 324.047,129.458 323.381,130.292 322.5,131C 315.489,133.075 310.323,130.908 307,124.5C 305.414,117.943 305.08,111.276 306,104.5C 306.655,102.372 307.489,100.372 308.5,98.5C 309.338,98.1583 309.672,97.4916 309.5,96.5C 310.167,96.1667 310.833,95.8333 311.5,95.5 Z"/></g>
<g><path style="opacity:1" fill="#150c63" d="M 62.5,128.5 C 60.7211,130.344 58.3878,131.01 55.5,130.5C 55.2871,123.826 54.9538,117.159 54.5,110.5C 55.4393,105.197 56.2727,99.8632 57,94.5C 57.407,105.842 57.907,117.176 58.5,128.5C 59.8333,128.5 61.1667,128.5 62.5,128.5 Z"/></g>
<g><path style="opacity:1" fill="#18025d" d="M 293.5,89.5 C 291.142,102.429 289.142,115.429 287.5,128.5C 290.698,127.964 293.365,128.631 295.5,130.5C 291.833,130.5 288.167,130.5 284.5,130.5C 284.5,128.833 284.5,127.167 284.5,125.5C 286.751,117.012 288.084,108.346 288.5,99.5C 289.785,96.4115 290.451,93.0781 290.5,89.5C 291.5,89.5 292.5,89.5 293.5,89.5 Z"/></g>
<g><path style="opacity:1" fill="#311165" d="M 104.5,118.5 C 105.341,116.621 105.675,114.621 105.5,112.5C 103.139,112.674 100.806,113.007 98.5,113.5C 99.0577,112.21 100.058,111.377 101.5,111C 104.146,110.503 106.813,110.336 109.5,110.5C 109.321,114.209 107.654,116.876 104.5,118.5 Z"/></g>
<g><path style="opacity:1" fill="#cb160c" d="M 120.5,107.5 C 124.577,111.386 128.91,115.053 133.5,118.5C 129.675,119.747 125.842,119.414 122,117.5C 120.961,118.244 120.461,119.244 120.5,120.5C 119.833,120.5 119.167,120.5 118.5,120.5C 119.646,116.246 120.313,111.913 120.5,107.5 Z"/></g>
<g><path style="opacity:1" fill="#0a0563" d="M 271.5,118.5 C 272.15,116.565 272.483,114.565 272.5,112.5C 270.097,112.448 267.764,112.781 265.5,113.5C 265.953,112.542 266.619,111.708 267.5,111C 270.146,110.503 272.813,110.336 275.5,110.5C 275.482,113.921 274.149,116.588 271.5,118.5 Z"/></g>
<g><path style="opacity:1" fill="#231971" d="M 196.5,110.5 C 196.5,111.5 196.5,112.5 196.5,113.5C 190.5,113.5 184.5,113.5 178.5,113.5C 178.5,112.5 178.5,111.5 178.5,110.5C 184.5,110.5 190.5,110.5 196.5,110.5 Z"/></g>
<g><path style="opacity:1" fill="#120961" d="M 80.5,128.5 C 79.1286,129.787 77.2953,130.453 75,130.5C 73.1667,130.333 71.3333,130.167 69.5,130C 71.0617,122.576 72.3951,115.076 73.5,107.5C 73.9963,104.021 74.9963,100.687 76.5,97.5C 77.2639,97.0501 77.5972,97.7167 77.5,99.5C 75.669,108.822 74.0024,118.155 72.5,127.5C 75.0865,128.48 77.7531,128.813 80.5,128.5 Z"/></g>
<g><path style="opacity:1" fill="#c70907" d="M 104.5,118.5 C 100.076,120.222 98.0762,118.555 98.5,113.5C 100.806,113.007 103.139,112.674 105.5,112.5C 105.675,114.621 105.341,116.621 104.5,118.5 Z"/></g>
<g><path style="opacity:1" fill="#f8930b" d="M 271.5,118.5 C 266.673,120.69 264.673,119.023 265.5,113.5C 267.764,112.781 270.097,112.448 272.5,112.5C 272.483,114.565 272.15,116.565 271.5,118.5 Z"/></g>
<g><path style="opacity:1" fill="#100561" d="M 168.5,97.5 C 168.833,97.5 169.167,97.5 169.5,97.5C 162.94,120.489 171.274,130.489 194.5,127.5C 194.631,128.376 194.298,129.043 193.5,129.5C 182.259,133.924 172.925,131.591 165.5,122.5C 165.5,120.833 165.5,119.167 165.5,117.5C 164.535,110.555 165.535,103.889 168.5,97.5 Z"/></g>
<g><path style="opacity:1" fill="#fed1a5" d="M 345.5,121.5 C 347.288,121.215 348.955,121.548 350.5,122.5C 349.559,122.489 348.892,122.989 348.5,124C 349.022,124.95 349.689,125.784 350.5,126.5C 345.481,128.117 343.814,126.451 345.5,121.5 Z"/></g>
<g><path style="opacity:1" fill="#0f0763" d="M 89.5,109.5 C 85.0218,122.182 89.3551,128.516 102.5,128.5C 94.1132,133.867 88.1132,131.867 84.5,122.5C 85.6422,118.929 86.3089,115.262 86.5,111.5C 87.5,110.833 88.5,110.167 89.5,109.5 Z"/></g>
<g><path style="opacity:1" fill="#080463" d="M 161.5,128.5 C 161.119,129.931 160.119,130.764 158.5,131C 151.291,132.899 146.624,130.399 144.5,123.5C 145.469,122.691 146.302,121.691 147,120.5C 149.329,127.656 154.162,130.322 161.5,128.5 Z"/></g>
<g><path style="opacity:1" fill="#140966" d="M 118.5,120.5 C 119.167,120.5 119.833,120.5 120.5,120.5C 120.042,123.394 120.709,125.894 122.5,128C 129.013,128.978 135.346,128.478 141.5,126.5C 135.214,131.33 128.047,132.663 120,130.5C 118.624,130.316 117.791,129.649 117.5,128.5C 117.575,125.794 117.908,123.127 118.5,120.5 Z"/></g>
<g><path style="opacity:1" fill="#2c0d68" d="M 114.5,128.5 C 113.306,129.777 111.64,130.444 109.5,130.5C 106.988,130.203 104.655,129.537 102.5,128.5C 104.151,127.03 105.985,125.697 108,124.5C 107.852,125.825 108.018,126.992 108.5,128C 110.473,128.495 112.473,128.662 114.5,128.5 Z"/></g>
<g><path style="opacity:1" fill="#1c0763" d="M 256.5,108.5 C 255.147,111.142 254.481,113.976 254.5,117C 255.383,125.379 260.049,129.213 268.5,128.5C 268.119,129.931 267.119,130.764 265.5,131C 259.422,132.896 255.089,131.063 252.5,125.5C 253.376,122.201 253.543,118.868 253,115.5C 252.617,116.056 252.117,116.389 251.5,116.5C 252.436,113.329 254.103,110.662 256.5,108.5 Z"/></g>
<g><path style="opacity:1" fill="#1d0263" d="M 281.5,128.5 C 280.306,129.777 278.64,130.444 276.5,130.5C 273.988,130.203 271.655,129.537 269.5,128.5C 270.765,127.521 272.099,126.521 273.5,125.5C 274.386,126.325 274.719,127.325 274.5,128.5C 276.833,128.5 279.167,128.5 281.5,128.5 Z"/></g>
<g><path style="opacity:1" fill="#0b076a" d="M 337.5,128.5 C 336.129,129.787 334.295,130.453 332,130.5C 329.551,130.342 327.384,129.675 325.5,128.5C 327.738,125.253 329.071,125.253 329.5,128.5C 332.167,128.5 334.833,128.5 337.5,128.5 Z"/></g>
<g><path style="opacity:1" fill="#feb257" d="M 346.5,158.5 C 345.351,158.209 344.684,157.376 344.5,156C 344.667,155.167 344.833,154.333 345,153.5C 346.699,152.594 348.533,152.261 350.5,152.5C 350.649,153.552 350.483,154.552 350,155.5C 347.871,154.137 347.371,154.471 348.5,156.5C 347.757,157.182 347.091,157.849 346.5,158.5 Z"/></g>
<g><path style="opacity:0.757" fill="#fc9900" d="M 349.5,157.5 C 350.833,158.167 350.833,158.167 349.5,157.5 Z"/></g>
<g><path style="opacity:0.165" fill="#f8bf7c" d="M 346.5,158.5 C 347.833,159.167 347.833,159.167 346.5,158.5 Z"/></g>
</svg>
