<?xml version="1.0" encoding="UTF-8"?>
<!DOCTYPE svg PUBLIC "-//W3C//DTD SVG 1.1//EN" "http://www.w3.org/Graphics/SVG/1.1/DTD/svg11.dtd">
<svg xmlns="http://www.w3.org/2000/svg" version="1.1" width="57px" height="36px" style="shape-rendering:geometricPrecision; text-rendering:geometricPrecision; image-rendering:optimizeQuality; fill-rule:evenodd; clip-rule:evenodd" xmlns:xlink="http://www.w3.org/1999/xlink">
<g><path style="opacity:0.999" fill="#ff9d0e" d="M 35.5,-0.5 C 38.1667,-0.5 40.8333,-0.5 43.5,-0.5C 48.8046,1.99031 53.1379,5.65698 56.5,10.5C 56.5,15.1667 56.5,19.8333 56.5,24.5C 56.1667,24.5 55.8333,24.5 55.5,24.5C 55.5,23.1667 54.8333,22.5 53.5,22.5C 53.8756,19.3733 53.8756,16.3733 53.5,13.5C 52.5,14 51.5,14.5 50.5,15C 46.7228,15.0832 43.0562,15.2499 39.5,15.5C 39.38,14.4138 38.7133,13.7472 37.5,13.5C 36.1508,13.8457 34.8175,14.179 33.5,14.5C 30.3586,13.6787 27.0252,13.1787 23.5,13C 34.5767,12.3544 34.91,11.1878 24.5,9.5C 26.5,8.83333 28.5,8.16667 30.5,7.5C 29.624,6.74917 28.624,6.24917 27.5,6C 28.2524,5.32924 28.5858,4.4959 28.5,3.5C 30.738,1.8845 33.0713,0.551166 35.5,-0.5 Z"/></g>
<g><path style="opacity:0.996" fill="#ee0503" d="M 13.5,-0.5 C 15.8333,-0.5 18.1667,-0.5 20.5,-0.5C 21.6715,0.344644 23.0048,1.01131 24.5,1.5C 24.5106,3.01739 25.1772,4.18405 26.5,5C 24.113,6.54659 22.7796,8.71325 22.5,11.5C 20.095,11.8664 17.7617,12.5331 15.5,13.5C 13.8953,12.5697 12.3953,12.5697 11,13.5C 9.99144,12.3418 8.65811,11.6752 7,11.5C 5.31887,11.6083 4.1522,12.2749 3.5,13.5C 1.30717,15.5223 0.307166,18.1889 0.5,21.5C 0.166667,21.5 -0.166667,21.5 -0.5,21.5C -0.5,17.8333 -0.5,14.1667 -0.5,10.5C 3.04733,5.2724 7.71399,1.60573 13.5,-0.5 Z"/></g>
<g><path style="opacity:1" fill="#ed210b" d="M 24.5,1.5 C 25.6049,2.60048 26.9382,3.26714 28.5,3.5C 28.5858,4.4959 28.2524,5.32924 27.5,6C 28.624,6.24917 29.624,6.74917 30.5,7.5C 28.5,8.16667 26.5,8.83333 24.5,9.5C 34.91,11.1878 34.5767,12.3544 23.5,13C 27.0252,13.1787 30.3586,13.6787 33.5,14.5C 31.036,16.3914 28.7026,16.3914 26.5,14.5C 25.4822,15.1925 24.4822,15.8592 23.5,16.5C 23.1627,13.6643 21.8293,12.9976 19.5,14.5C 16.4942,15.041 13.4942,15.3743 10.5,15.5C 8.87985,12.9422 7.37985,12.9422 6,15.5C 5.58309,14.244 4.74975,13.5774 3.5,13.5C 4.1522,12.2749 5.31887,11.6083 7,11.5C 8.65811,11.6752 9.99144,12.3418 11,13.5C 12.3953,12.5697 13.8953,12.5697 15.5,13.5C 17.7617,12.5331 20.095,11.8664 22.5,11.5C 22.7796,8.71325 24.113,6.54659 26.5,5C 25.1772,4.18405 24.5106,3.01739 24.5,1.5 Z"/></g>
<g><path style="opacity:1" fill="#e0d4d6" d="M 39.5,15.5 C 43.0562,15.2499 46.7228,15.0832 50.5,15C 51.5,14.5 52.5,14 53.5,13.5C 53.8756,16.3733 53.8756,19.3733 53.5,22.5C 50.4532,23.1446 48.2865,22.1446 47,19.5C 46.5172,20.448 46.3505,21.448 46.5,22.5C 43.1667,22.5 39.8333,22.5 36.5,22.5C 34.4637,21.3738 33.1303,19.7071 32.5,17.5C 31.8333,18.8333 31.1667,20.1667 30.5,21.5C 29.8423,20.6016 29.1757,19.6016 28.5,18.5C 24.6137,19.5881 24.6137,20.4215 28.5,21C 26.3258,21.8769 24.6591,21.3769 23.5,19.5C 23.5,18.5 23.5,17.5 23.5,16.5C 24.4822,15.8592 25.4822,15.1925 26.5,14.5C 28.7026,16.3914 31.036,16.3914 33.5,14.5C 34.8175,14.179 36.1508,13.8457 37.5,13.5C 38.7133,13.7472 39.38,14.4138 39.5,15.5 Z"/></g>
<g><path style="opacity:1" fill="#d38d93" d="M 23.5,16.5 C 23.5,17.5 23.5,18.5 23.5,19.5C 22.8333,19.5 22.5,19.8333 22.5,20.5C 21.71,19.3915 21.21,18.0581 21,16.5C 20.1667,19 19,19.1667 17.5,17C 18.756,16.5831 19.4226,15.7498 19.5,14.5C 21.8293,12.9976 23.1627,13.6643 23.5,16.5 Z"/></g>
<g><path style="opacity:1" fill="#d4c0cc" d="M 3.5,13.5 C 4.74975,13.5774 5.58309,14.244 6,15.5C 7.37985,12.9422 8.87985,12.9422 10.5,15.5C 13.4942,15.3743 16.4942,15.041 19.5,14.5C 19.4226,15.7498 18.756,16.5831 17.5,17C 19,19.1667 20.1667,19 21,16.5C 21.21,18.0581 21.71,19.3915 22.5,20.5C 22.5,20.8333 22.5,21.1667 22.5,21.5C 14.2505,22.2629 6.91719,22.2629 0.5,21.5C 0.307166,18.1889 1.30717,15.5223 3.5,13.5 Z"/></g>
<g><path style="opacity:1" fill="#e88927" d="M 39.5,15.5 C 40.2625,16.2679 41.2625,16.7679 42.5,17C 40.2429,18.4498 37.9095,19.6165 35.5,20.5C 35.5,18.8333 35.5,17.1667 35.5,15.5C 36.8333,15.5 38.1667,15.5 39.5,15.5 Z"/></g>
<g><path style="opacity:1" fill="#63597c" d="M 32.5,17.5 C 33.1303,19.7071 34.4637,21.3738 36.5,22.5C 35.5,22.5 34.5,22.5 33.5,22.5C 32.6993,20.9582 32.366,19.2915 32.5,17.5 Z"/></g>
<g><path style="opacity:1" fill="#84608b" d="M 30.5,21.5 C 27.9387,22.7671 25.272,22.7671 22.5,21.5C 22.5,21.1667 22.5,20.8333 22.5,20.5C 22.5,19.8333 22.8333,19.5 23.5,19.5C 24.6591,21.3769 26.3258,21.8769 28.5,21C 24.6137,20.4215 24.6137,19.5881 28.5,18.5C 29.1757,19.6016 29.8423,20.6016 30.5,21.5 Z"/></g>
<g><path style="opacity:0.992" fill="#ec0f05" d="M 32.5,17.5 C 32.366,19.2915 32.6993,20.9582 33.5,22.5C 30.2527,23.2515 26.9194,23.7515 23.5,24C 26.2263,24.1816 28.8929,24.6816 31.5,25.5C 29.5767,26.3078 27.5767,26.8078 25.5,27C 26.6226,28.0437 27.9559,28.7104 29.5,29C 28.7476,29.6708 28.4142,30.5041 28.5,31.5C 25.9684,32.5957 23.6351,33.9291 21.5,35.5C 18.1667,35.5 14.8333,35.5 11.5,35.5C 9.23138,34.0242 6.89805,32.5242 4.5,31C 2.96973,28.648 1.30307,26.4813 -0.5,24.5C -0.5,23.5 -0.5,22.5 -0.5,21.5C -0.166667,21.5 0.166667,21.5 0.5,21.5C 6.91719,22.2629 14.2505,22.2629 22.5,21.5C 25.272,22.7671 27.9387,22.7671 30.5,21.5C 31.1667,20.1667 31.8333,18.8333 32.5,17.5 Z"/></g>
<g><path style="opacity:0.992" fill="#fc9a06" d="M 53.5,22.5 C 54.8333,22.5 55.5,23.1667 55.5,24.5C 55.3284,25.4916 55.6618,26.1583 56.5,26.5C 56.5,27.1667 56.5,27.8333 56.5,28.5C 55.8501,28.1961 55.1835,27.8627 54.5,27.5C 51.5011,30.6558 48.1678,33.3225 44.5,35.5C 41.1667,35.5 37.8333,35.5 34.5,35.5C 32.5368,34.1798 30.5368,32.8465 28.5,31.5C 28.4142,30.5041 28.7476,29.6708 29.5,29C 27.9559,28.7104 26.6226,28.0437 25.5,27C 27.5767,26.8078 29.5767,26.3078 31.5,25.5C 28.8929,24.6816 26.2263,24.1816 23.5,24C 26.9194,23.7515 30.2527,23.2515 33.5,22.5C 34.5,22.5 35.5,22.5 36.5,22.5C 39.8333,22.5 43.1667,22.5 46.5,22.5C 46.3505,21.448 46.5172,20.448 47,19.5C 48.2865,22.1446 50.4532,23.1446 53.5,22.5 Z"/></g>
</svg>
