<?xml version="1.0" encoding="UTF-8"?>
<!DOCTYPE svg PUBLIC "-//W3C//DTD SVG 1.1//EN" "http://www.w3.org/Graphics/SVG/1.1/DTD/svg11.dtd">
<svg xmlns="http://www.w3.org/2000/svg" version="1.1" width="512px" height="512px" style="shape-rendering:geometricPrecision; text-rendering:geometricPrecision; image-rendering:optimizeQuality; fill-rule:evenodd; clip-rule:evenodd" xmlns:xlink="http://www.w3.org/1999/xlink">
<g><path style="opacity:0.982" fill="#020202" d="M 511.5,154.5 C 511.5,160.167 511.5,165.833 511.5,171.5C 509.834,176.3 507.667,180.966 505,185.5C 492.288,202.423 479.455,219.257 466.5,236C 463.076,237.658 459.742,237.325 456.5,235C 452.985,231.318 449.318,227.818 445.5,224.5C 442.833,226.5 440.5,228.833 438.5,231.5C 468.727,262.918 474.227,298.251 455,337.5C 452.17,343.502 447.67,345.502 441.5,343.5C 438.857,340.66 438.024,337.327 439,333.5C 450.047,316.262 453.38,297.596 449,277.5C 445.001,263.998 437.835,252.498 427.5,243C 426.833,242.333 426.167,242.333 425.5,243C 422.167,246.333 418.833,249.667 415.5,253C 435.593,270.75 440.76,292.25 431,317.5C 424.973,329.027 416.14,337.694 404.5,343.5C 403.211,349.275 401.545,354.941 399.5,360.5C 407.452,359.372 414.785,356.206 421.5,351C 423.5,350.333 425.5,350.333 427.5,351C 429.078,352.094 430.745,352.928 432.5,353.5C 433.686,356.512 433.52,359.512 432,362.5C 418.924,372.528 404.091,378.028 387.5,379C 379.215,387.309 369.215,392.142 357.5,393.5C 357.667,414.836 357.5,436.169 357,457.5C 352.064,471.719 342.23,477.219 327.5,474C 321.225,471.391 316.558,467.058 313.5,461C 310.167,460.333 306.833,460.333 303.5,461C 294.853,475.049 283.187,478.382 268.5,471C 265.073,468.244 262.407,464.91 260.5,461C 257.167,460.333 253.833,460.333 250.5,461C 241.947,475.258 230.28,478.592 215.5,471C 212.112,468.214 209.446,464.881 207.5,461C 204.167,460.333 200.833,460.333 197.5,461C 189.803,474.668 178.803,478.335 164.5,472C 158.933,468.713 155.433,463.879 154,457.5C 153.832,446.818 153.332,436.151 152.5,425.5C 130.907,416.242 117.24,400.242 111.5,377.5C 73.4794,367.151 51.3127,342.485 45,303.5C 42.9822,275.542 51.9822,251.875 72,232.5C 70.9099,229.215 68.7432,226.548 65.5,224.5C 61.6819,227.818 58.0152,231.318 54.5,235C 51.2577,237.325 47.9243,237.658 44.5,236C 31.5454,219.257 18.712,202.423 6,185.5C 3.33271,180.966 1.16604,176.3 -0.5,171.5C -0.5,165.833 -0.5,160.167 -0.5,154.5C 1.42148,149.324 3.92148,144.324 7,139.5C 26.5,120 46,100.5 65.5,81C 68.8881,80.3412 72.2214,80.5078 75.5,81.5C 77.8074,85.0657 77.9741,88.7323 76,92.5C 64.9646,103.368 54.1312,114.368 43.5,125.5C 34.1719,133.995 25.3386,142.995 17,152.5C 13.5463,160.308 13.8796,167.975 18,175.5C 22.3333,181.167 26.6667,186.833 31,192.5C 41.7021,181.965 52.2021,171.298 62.5,160.5C 93.632,129.868 124.632,99.0348 155.5,68C 149.833,63.6667 144.167,59.3333 138.5,55C 129.577,50.0283 120.91,50.3617 112.5,56C 106.833,61.6667 101.167,67.3333 95.5,73C 94.1268,73.8749 92.6268,74.3749 91,74.5C 88.9135,73.5819 86.7468,72.9153 84.5,72.5C 83.0111,68.7567 83.1777,65.09 85,61.5C 91.5307,54.6349 98.364,48.1349 105.5,42C 117.065,35.2503 129.065,34.2503 141.5,39C 160.421,52.3774 179.255,65.8774 198,79.5C 201.333,83.5 201.333,87.5 198,91.5C 194.667,94.8333 191.333,98.1667 188,101.5C 187.333,102.167 187.333,102.833 188,103.5C 204.5,120 221,136.5 237.5,153C 249.5,153.667 261.5,153.667 273.5,153C 290,136.5 306.5,120 323,103.5C 323.667,102.833 323.667,102.167 323,101.5C 318.251,97.4221 314.251,92.7554 311,87.5C 310.494,84.3261 311.328,81.4927 313.5,79C 330.833,66.3333 348.167,53.6667 365.5,41C 380.387,33.5052 394.72,34.5052 408.5,44C 440.333,75.8333 472.167,107.667 504,139.5C 507.079,144.324 509.579,149.324 511.5,154.5 Z M 105.5,264.5 C 110.164,268.331 114.33,272.664 118,277.5C 122.167,290.669 126.334,303.836 130.5,317C 127.724,321.127 124.89,325.293 122,329.5C 121.196,330.804 120.029,331.471 118.5,331.5C 95.4234,322.348 86.9234,305.681 93,281.5C 95.9041,274.783 100.071,269.116 105.5,264.5 Z M 404.5,264.5 C 418.132,274.889 422.966,288.556 419,305.5C 416.273,314.283 411.106,321.283 403.5,326.5C 400.146,315.456 394.479,305.79 386.5,297.5C 388.7,290.066 391.2,282.733 394,275.5C 397.704,271.964 401.204,268.298 404.5,264.5 Z"/></g>
<g><path style="opacity:1" fill="#d74952" d="M 62.5,160.5 C 57.6869,154.235 52.8536,147.902 48,141.5C 45.5362,136.295 44.0362,130.962 43.5,125.5C 54.1312,114.368 64.9646,103.368 76,92.5C 77.9741,88.7323 77.8074,85.0657 75.5,81.5C 78.8333,78.8333 81.8333,75.8333 84.5,72.5C 86.7468,72.9153 88.9135,73.5819 91,74.5C 92.6268,74.3749 94.1268,73.8749 95.5,73C 101.167,67.3333 106.833,61.6667 112.5,56C 120.91,50.3617 129.577,50.0283 138.5,55C 144.167,59.3333 149.833,63.6667 155.5,68C 124.632,99.0348 93.632,129.868 62.5,160.5 Z"/></g>
<g><path style="opacity:1" fill="#bf232f" d="M 422.5,80.5 C 416.811,80.6735 411.477,82.1735 406.5,85C 400.098,89.8536 393.765,94.6869 387.5,99.5C 376.702,89.2021 366.035,78.7021 355.5,68C 362.643,61.9273 370.31,56.5939 378.5,52C 384.394,50.9625 390.061,51.6292 395.5,54C 405.005,62.3386 414.005,71.1719 422.5,80.5 Z"/></g>
<g><path style="opacity:1" fill="#d44851" d="M 80.5,186.5 C 77.8827,181.886 74.8827,177.553 71.5,173.5C 103.479,141.188 135.479,108.854 167.5,76.5C 171.527,79.6937 175.694,82.6937 180,85.5C 180.667,86.1667 180.667,86.8333 180,87.5C 146.965,120.701 113.799,153.701 80.5,186.5 Z"/></g>
<g><path style="opacity:1" fill="#bd232e" d="M 374.5,108.5 C 370.183,111.486 366.183,114.82 362.5,118.5C 351.868,108.369 341.368,98.0355 331,87.5C 330.383,86.5509 330.549,85.7175 331.5,85C 335.11,83.056 338.443,80.7226 341.5,78C 342.5,77.3333 343.5,77.3333 344.5,78C 354.702,88.0349 364.702,98.2016 374.5,108.5 Z"/></g>
<g><path style="opacity:1" fill="#d74852" d="M 422.5,80.5 C 446.827,103.993 470.66,127.993 494,152.5C 497.333,159.5 497.333,166.5 494,173.5C 489.577,180.011 484.911,186.345 480,192.5C 448.965,161.632 418.132,130.632 387.5,99.5C 393.765,94.6869 400.098,89.8536 406.5,85C 411.477,82.1735 416.811,80.6735 422.5,80.5 Z"/></g>
<g><path style="opacity:1" fill="#d44851" d="M 374.5,108.5 C 406.465,139.965 438.299,171.632 470,203.5C 468.373,208.687 465.539,213.354 461.5,217.5C 428.146,184.812 395.146,151.812 362.5,118.5C 366.183,114.82 370.183,111.486 374.5,108.5 Z"/></g>
<g><path style="opacity:1" fill="#c8c8c8" d="M 141.5,242.5 C 135.892,238.561 130.892,233.894 126.5,228.5C 142.096,224.306 148.263,214.306 145,198.5C 143.92,196.004 142.586,193.67 141,191.5C 133.652,184.319 126.485,176.986 119.5,169.5C 123.318,165.182 127.318,161.015 131.5,157C 132.5,156.333 133.5,156.333 134.5,157C 142.167,164.667 149.833,172.333 157.5,180C 168.64,185.516 178.474,183.683 187,174.5C 192.501,166.342 192.834,158.008 188,149.5C 180.35,141.016 172.516,132.682 164.5,124.5C 167.867,119.946 171.867,116.446 176.5,114C 192.167,129.667 207.833,145.333 223.5,161C 196.299,188.368 168.965,215.535 141.5,242.5 Z"/></g>
<g><path style="opacity:1" fill="#a7a7a7" d="M 319.5,163.5 C 314.106,167.892 309.439,172.892 305.5,178.5C 299.369,172.87 293.369,167.036 287.5,161C 303.347,144.986 319.347,129.153 335.5,113.5C 339.5,116.833 343.167,120.5 346.5,124.5C 339.515,131.986 332.348,139.319 325,146.5C 321.062,151.482 319.228,157.149 319.5,163.5 Z"/></g>
<g><path style="opacity:1" fill="#bf232f" d="M 43.5,125.5 C 44.0362,130.962 45.5362,136.295 48,141.5C 52.8536,147.902 57.6869,154.235 62.5,160.5C 52.2021,171.298 41.7021,181.965 31,192.5C 26.6667,186.833 22.3333,181.167 18,175.5C 13.8796,167.975 13.5463,160.308 17,152.5C 25.3386,142.995 34.1719,133.995 43.5,125.5 Z"/></g>
<g><path style="opacity:1" fill="#7d7d7d" d="M 356.5,135.5 C 360.57,138.06 364.236,141.227 367.5,145C 360.167,152.333 352.833,159.667 345.5,167C 337.891,169.398 334.391,166.565 335,158.5C 342.005,150.662 349.172,142.996 356.5,135.5 Z"/></g>
<g><path style="opacity:1" fill="#7d7d7d" d="M 152.5,135.5 C 161.107,142.273 168.94,149.939 176,158.5C 176.609,166.565 173.109,169.398 165.5,167C 158.167,159.667 150.833,152.333 143.5,145C 146.704,141.964 149.704,138.797 152.5,135.5 Z"/></g>
<g><path style="opacity:1" fill="#c8c8c8" d="M 305.5,178.5 C 309.439,172.892 314.106,167.892 319.5,163.5C 322.137,175.636 329.637,182.303 342,183.5C 346.037,183.068 349.87,181.902 353.5,180C 361.984,172.35 370.318,164.516 378.5,156.5C 383.715,160.53 387.881,165.197 391,170.5C 384,177.5 377,184.5 370,191.5C 360.535,207.774 364.368,219.941 381.5,228C 387.557,229.162 393.223,228.162 398.5,225C 406.984,217.35 415.318,209.516 423.5,201.5C 428.054,204.867 431.554,208.867 434,213.5C 418.626,229.208 402.959,244.542 387,259.5C 359.339,233.006 332.172,206.006 305.5,178.5 Z"/></g>
<g><path style="opacity:1" fill="#dfdcdf" d="M 236.5,168.5 C 249.171,168.333 261.838,168.5 274.5,169C 308.667,203.167 342.833,237.333 377,271.5C 376.654,277.722 375.154,283.722 372.5,289.5C 340.694,266.86 309.027,244.027 277.5,221C 258.171,211.677 240.505,214.011 224.5,228C 198.291,254.71 171.624,280.877 144.5,306.5C 140.718,296.657 137.218,286.657 134,276.5C 133.333,274.833 133.333,273.167 134,271.5C 168.368,237.299 202.535,202.965 236.5,168.5 Z"/></g>
<g><path style="opacity:1" fill="#bd232e" d="M 71.5,173.5 C 74.8827,177.553 77.8827,181.886 80.5,186.5C 70.521,197.146 60.1877,207.479 49.5,217.5C 47.144,214.978 44.9773,212.312 43,209.5C 41.2491,207.788 40.5825,205.788 41,203.5C 51.0349,193.298 61.2016,183.298 71.5,173.5 Z"/></g>
<g><path style="opacity:1" fill="#7f7f7f" d="M 107.5,180.5 C 115.492,187.992 123.325,195.658 131,203.5C 131.833,210.667 128.667,213.833 121.5,213C 113.833,205.333 106.167,197.667 98.5,190C 101.704,186.964 104.704,183.797 107.5,180.5 Z"/></g>
<g><path style="opacity:1" fill="#7c7c7c" d="M 401.5,180.5 C 405.57,183.06 409.236,186.227 412.5,190C 404.833,197.667 397.167,205.333 389.5,213C 382.333,213.833 379.167,210.667 380,203.5C 387.005,195.662 394.172,187.996 401.5,180.5 Z"/></g>
<g><path style="opacity:1" fill="#a6a6a6" d="M 126.5,228.5 C 130.892,233.894 135.892,238.561 141.5,242.5C 136.37,248.131 131.036,253.631 125.5,259C 124.5,259.667 123.5,259.667 122.5,259C 106.986,243.653 91.6526,228.153 76.5,212.5C 79.8333,208.5 83.5,204.833 87.5,201.5C 95.6824,209.516 104.016,217.35 112.5,225C 116.785,227.706 121.452,228.873 126.5,228.5 Z"/></g>
<g><path style="opacity:1" fill="#808080" d="M 247.5,230.5 C 263.885,228.107 275.385,234.44 282,249.5C 284.933,270.55 275.933,282.217 255,284.5C 234.606,281.75 225.939,270.083 229,249.5C 232.713,240.622 238.88,234.289 247.5,230.5 Z"/></g>
<g><path style="opacity:0.996" fill="#c7c7c7" d="M 441.5,343.5 C 438.5,346.833 435.5,350.167 432.5,353.5C 430.745,352.928 429.078,352.094 427.5,351C 425.5,350.333 423.5,350.333 421.5,351C 414.785,356.206 407.452,359.372 399.5,360.5C 401.545,354.941 403.211,349.275 404.5,343.5C 416.14,337.694 424.973,329.027 431,317.5C 440.76,292.25 435.593,270.75 415.5,253C 418.833,249.667 422.167,246.333 425.5,243C 426.167,242.333 426.833,242.333 427.5,243C 437.835,252.498 445.001,263.998 449,277.5C 453.38,297.596 450.047,316.262 439,333.5C 438.024,337.327 438.857,340.66 441.5,343.5 Z"/></g>
<g><path style="opacity:1" fill="#c7c7c7" d="M 85.5,243.5 C 88.9641,246.462 92.2975,249.629 95.5,253C 75.0444,270.66 69.8777,292.16 80,317.5C 87.625,331.958 99.125,341.958 114.5,347.5C 113.241,352.24 111.908,356.907 110.5,361.5C 100.526,358.521 91.8596,353.521 84.5,346.5C 65.2377,322.937 60.4043,296.603 70,267.5C 73.848,258.518 79.0146,250.518 85.5,243.5 Z"/></g>
<g><path style="opacity:1" fill="#a4a4a4" d="M 85.5,243.5 C 79.0146,250.518 73.848,258.518 70,267.5C 60.4043,296.603 65.2377,322.937 84.5,346.5C 71.8545,336.239 64.0211,322.906 61,306.5C 57.3967,281.305 64.8967,260.138 83.5,243C 84.4368,242.308 85.1034,242.475 85.5,243.5 Z"/></g>
<g><path style="opacity:1" fill="#dfdcdf" d="M 297.5,254.5 C 311.954,264.447 326.287,274.614 340.5,285C 330.579,287.461 321.579,291.794 313.5,298C 289.305,322.528 264.805,346.695 240,370.5C 240.185,342.689 228.351,321.856 204.5,308C 193.995,303.366 182.995,301.032 171.5,301C 185.638,287.863 199.471,274.363 213,260.5C 215.982,280.481 227.149,293.314 246.5,299C 272.253,301.881 289.087,291.047 297,266.5C 297.499,262.514 297.666,258.514 297.5,254.5 Z"/></g>
<g><path style="opacity:1" fill="#7f7f7f" d="M 343.5,299.5 C 375.191,300.021 390.024,316.021 388,347.5C 380.825,370.989 364.992,381.155 340.5,378C 317.291,370.097 307.457,353.93 311,329.5C 316.488,313.678 327.321,303.678 343.5,299.5 Z"/></g>
<g><path style="opacity:1" fill="#7f7f7f" d="M 165.5,316.5 C 193.884,314.092 213.051,326.092 223,352.5C 227.417,376.264 219.584,394.764 199.5,408C 175.544,418.931 154.711,414.764 137,395.5C 124.705,377.994 123.371,359.661 133,340.5C 140.899,328.423 151.732,320.423 165.5,316.5 Z"/></g>
<g><path style="opacity:1" fill="#030303" d="M 344.5,316.5 C 362.674,315.845 371.841,324.511 372,342.5C 365.886,360.638 354.053,365.805 336.5,358C 327.179,349.405 325.012,339.239 330,327.5C 333.857,322.468 338.69,318.801 344.5,316.5 Z"/></g>
<g><path style="opacity:1" fill="#d6d3d6" d="M 346.5,331.5 C 353.831,331 357.331,334.333 357,341.5C 354.565,346.224 350.731,347.724 345.5,346C 340.147,340.871 340.48,336.038 346.5,331.5 Z"/></g>
<g><path style="opacity:1" fill="#dddbdd" d="M 294.5,337.5 C 294.787,353.178 300.454,366.678 311.5,378C 292.167,378.667 272.833,378.667 253.5,378C 267.062,364.271 280.728,350.771 294.5,337.5 Z"/></g>
<g><path style="opacity:1" fill="#020202" d="M 169.5,342.5 C 191.718,342.211 200.552,352.877 196,374.5C 189.384,386.29 179.551,390.123 166.5,386C 155.192,379.774 151.026,370.274 154,357.5C 157.081,350.251 162.247,345.251 169.5,342.5 Z"/></g>
<g><path style="opacity:1" fill="#d5d2d5" d="M 172.5,357.5 C 180.164,356.666 183.664,360 183,367.5C 179.108,373.259 174.441,373.926 169,369.5C 166.458,364.361 167.624,360.361 172.5,357.5 Z"/></g>
<g><path style="opacity:1" fill="#a8a8a8" d="M 251.5,393.5 C 254.167,393.5 256.833,393.5 259.5,393.5C 259.5,410.5 259.5,427.5 259.5,444.5C 256.833,444.5 254.167,444.5 251.5,444.5C 251.5,427.5 251.5,410.5 251.5,393.5 Z"/></g>
<g><path style="opacity:1" fill="#c9c9c9" d="M 274.5,394.5 C 279.167,394.5 283.833,394.5 288.5,394.5C 288.5,414.5 288.5,434.5 288.5,454.5C 286.641,458.926 283.308,460.426 278.5,459C 276.951,457.786 275.785,456.286 275,454.5C 274.5,434.503 274.333,414.503 274.5,394.5 Z"/></g>
<g><path style="opacity:1" fill="#929292" d="M 274.5,394.5 C 279.305,393.513 284.305,393.179 289.5,393.5C 289.83,414.007 289.497,434.34 288.5,454.5C 288.5,434.5 288.5,414.5 288.5,394.5C 283.833,394.5 279.167,394.5 274.5,394.5 Z"/></g>
<g><path style="opacity:1" fill="#a6a6a6" d="M 304.5,393.5 C 307.167,393.5 309.833,393.5 312.5,393.5C 312.5,410.5 312.5,427.5 312.5,444.5C 309.833,444.5 307.167,444.5 304.5,444.5C 304.5,427.5 304.5,410.5 304.5,393.5 Z"/></g>
<g><path style="opacity:1" fill="#cacaca" d="M 327.5,394.5 C 332.167,394.5 336.833,394.5 341.5,394.5C 341.5,414.5 341.5,434.5 341.5,454.5C 337.549,460.681 333.049,461.014 328,455.5C 327.5,435.169 327.333,414.836 327.5,394.5 Z"/></g>
<g><path style="opacity:1" fill="#707070" d="M 327.5,394.5 C 332.305,393.513 337.305,393.179 342.5,393.5C 342.83,414.007 342.497,434.34 341.5,454.5C 341.5,434.5 341.5,414.5 341.5,394.5C 336.833,394.5 332.167,394.5 327.5,394.5 Z"/></g>
<g><path style="opacity:1" fill="#c6c6c6" d="M 235.5,395.5 C 236.662,414.996 236.829,434.662 236,454.5C 233.774,458.861 230.274,460.361 225.5,459C 223.951,457.786 222.785,456.286 222,454.5C 221.167,439.156 221.334,423.822 222.5,408.5C 227.188,404.479 231.521,400.146 235.5,395.5 Z"/></g>
<g><path style="opacity:1" fill="#a7a7a7" d="M 204.5,421.5 C 206.465,428.76 207.132,436.427 206.5,444.5C 203.833,444.5 201.167,444.5 198.5,444.5C 198.17,437.8 198.503,431.134 199.5,424.5C 201.396,423.725 203.063,422.725 204.5,421.5 Z"/></g>
<g><path style="opacity:1" fill="#6a6a6a" d="M 180.5,428.5 C 177.038,429.482 173.371,429.815 169.5,429.5C 169.5,437.833 169.5,446.167 169.5,454.5C 168.507,446.016 168.174,437.349 168.5,428.5C 172.5,428.5 176.5,428.5 180.5,428.5 Z"/></g>
<g><path style="opacity:1" fill="#c9c9c9" d="M 180.5,428.5 C 181.5,428.5 182.5,428.5 183.5,428.5C 183.666,437.506 183.5,446.506 183,455.5C 179.93,459.707 176.097,460.54 171.5,458C 170.177,457.184 169.511,456.017 169.5,454.5C 169.5,446.167 169.5,437.833 169.5,429.5C 173.371,429.815 177.038,429.482 180.5,428.5 Z"/></g>
</svg>
