<?xml version="1.0" encoding="UTF-8"?>
<!DOCTYPE svg PUBLIC "-//W3C//DTD SVG 1.1//EN" "http://www.w3.org/Graphics/SVG/1.1/DTD/svg11.dtd">
<svg xmlns="http://www.w3.org/2000/svg" version="1.1" width="1842px" height="1076px" style="shape-rendering:geometricPrecision; text-rendering:geometricPrecision; image-rendering:optimizeQuality; fill-rule:evenodd; clip-rule:evenodd" xmlns:xlink="http://www.w3.org/1999/xlink">
<g><path style="opacity:1" fill="#7a758c" d="M 1217.5,26.5 C 1220.15,26.4095 1222.49,27.0762 1224.5,28.5C 1221.85,28.5905 1219.51,27.9238 1217.5,26.5 Z"/></g>
<g><path style="opacity:1" fill="#504b6a" d="M 1203.5,26.5 C 1198.03,28.88 1192.36,30.88 1186.5,32.5C 1191.67,29.3317 1197.33,27.3317 1203.5,26.5 Z"/></g>
<g><path style="opacity:1" fill="#030d3e" d="M 1217.5,26.5 C 1219.51,27.9238 1221.85,28.5905 1224.5,28.5C 1233.11,30.7798 1240.11,35.4465 1245.5,42.5C 1245.43,44.0269 1246.09,45.0269 1247.5,45.5C 1254.18,52.514 1258.51,60.8473 1260.5,70.5C 1260.41,73.1522 1261.08,75.4855 1262.5,77.5C 1262.5,80.5 1262.5,83.5 1262.5,86.5C 1266.95,85.8509 1271.28,84.6842 1275.5,83C 1282.16,82.5004 1288.83,82.3337 1295.5,82.5C 1296.92,84.5449 1298.92,85.5449 1301.5,85.5C 1301.24,86.9778 1301.57,88.3112 1302.5,89.5C 1304.4,89.0283 1306.4,89.0283 1308.5,89.5C 1308.83,89.5 1309.17,89.5 1309.5,89.5C 1310.42,92.0892 1312.09,94.0892 1314.5,95.5C 1317.78,98.3884 1319.78,102.055 1320.5,106.5C 1320.41,109.152 1321.08,111.485 1322.5,113.5C 1324.04,118.065 1324.71,122.898 1324.5,128C 1324.47,131.915 1324.13,135.749 1323.5,139.5C 1322.09,142.219 1321.42,145.219 1321.5,148.5C 1320.37,153.882 1319.04,159.216 1317.5,164.5C 1318.79,164.263 1319.79,164.596 1320.5,165.5C 1323.96,169.397 1328.29,171.397 1333.5,171.5C 1334.51,173.522 1336.17,174.855 1338.5,175.5C 1338.29,176.086 1337.96,176.586 1337.5,177C 1340.17,177.567 1342.83,178.067 1345.5,178.5C 1354.35,183.68 1362.02,190.347 1368.5,198.5C 1373.28,192.545 1378.28,186.711 1383.5,181C 1384.75,180.26 1385.75,180.427 1386.5,181.5C 1384.46,189.415 1382.8,197.415 1381.5,205.5C 1381.84,206.338 1382.51,206.672 1383.5,206.5C 1386.11,205.864 1388.61,205.864 1391,206.5C 1391.61,203.968 1393.11,203.135 1395.5,204C 1394.14,205.204 1393.14,206.704 1392.5,208.5C 1391.91,208.291 1391.41,207.957 1391,207.5C 1389.46,209.233 1387.96,210.9 1386.5,212.5C 1385.83,211.5 1385.17,210.5 1384.5,209.5C 1384.43,211.79 1384.09,214.123 1383.5,216.5C 1383.44,218.721 1384.11,219.054 1385.5,217.5C 1387.17,219.833 1389.17,221.833 1391.5,223.5C 1393.17,224.5 1394.5,225.833 1395.5,227.5C 1395.74,229.404 1396.74,230.738 1398.5,231.5C 1400.9,233.296 1402.57,235.63 1403.5,238.5C 1404.67,240.844 1404.67,243.177 1403.5,245.5C 1404.72,246.096 1406.05,246.263 1407.5,246C 1406.05,247.117 1404.38,247.784 1402.5,248C 1404.05,251.951 1406.72,253.617 1410.5,253C 1411.05,254.878 1412.05,256.378 1413.5,257.5C 1415.28,260.505 1416.28,263.838 1416.5,267.5C 1417.28,278.148 1417.61,288.815 1417.5,299.5C 1417.79,301.735 1417.46,303.735 1416.5,305.5C 1415.88,305.389 1415.38,305.056 1415,304.5C 1414.71,306.891 1414.21,309.224 1413.5,311.5C 1412.68,312.386 1411.68,312.719 1410.5,312.5C 1408.94,310.386 1409.11,311.719 1411,316.5C 1411.33,315.5 1411.67,314.5 1412,313.5C 1412.5,315.473 1412.66,317.473 1412.5,319.5C 1411.25,319.577 1410.42,320.244 1410,321.5C 1409.5,323.473 1409.34,325.473 1409.5,327.5C 1407.95,332.93 1405.62,337.93 1402.5,342.5C 1401.31,343.684 1400.15,343.684 1399,342.5C 1397.32,343.682 1397.49,344.848 1399.5,346C 1398.21,346.702 1396.87,347.369 1395.5,348C 1396.82,348.816 1397.49,349.983 1397.5,351.5C 1396.5,351.5 1395.5,351.5 1394.5,351.5C 1394.5,352.833 1394.5,354.167 1394.5,355.5C 1392.69,355.491 1391.02,355.991 1389.5,357C 1390.58,358.726 1390.74,360.559 1390,362.5C 1388.64,361.742 1387.47,362.242 1386.5,364C 1387.38,365.356 1387.71,366.856 1387.5,368.5C 1386.02,368.238 1384.69,368.571 1383.5,369.5C 1384.55,371.102 1383.88,371.935 1381.5,372C 1380.8,372.964 1380.8,374.798 1381.5,377.5C 1377.56,384.77 1373.22,391.77 1368.5,398.5C 1364.7,403.136 1360.36,407.303 1355.5,411C 1349.65,414.87 1344.98,413.703 1341.5,407.5C 1338.11,411.898 1334.11,415.564 1329.5,418.5C 1325.19,419.65 1320.86,419.65 1316.5,418.5C 1311.51,414.341 1307.01,409.675 1303,404.5C 1290.27,410.449 1279.61,408.116 1271,397.5C 1262.94,379.048 1259.44,359.715 1260.5,339.5C 1261.17,335.167 1261.83,330.833 1262.5,326.5C 1279.81,336.469 1294.64,333.469 1307,317.5C 1316.4,297.376 1311.57,281.876 1292.5,271C 1270.79,265.107 1256.62,272.94 1250,294.5C 1245.5,285.904 1245.5,277.237 1250,268.5C 1252.64,264.361 1255.47,260.361 1258.5,256.5C 1239.07,252.029 1220.74,245.029 1203.5,235.5C 1201.57,234.89 1199.9,233.89 1198.5,232.5C 1198.03,231.094 1197.03,230.427 1195.5,230.5C 1195.03,229.094 1194.03,228.427 1192.5,228.5C 1190.97,228.573 1189.97,227.906 1189.5,226.5C 1189.03,225.094 1188.03,224.427 1186.5,224.5C 1181.59,221.926 1177.26,218.592 1173.5,214.5C 1172.74,212.738 1171.4,211.738 1169.5,211.5C 1163.8,207.502 1158.8,202.835 1154.5,197.5C 1153.96,195.033 1153.46,192.7 1153,190.5C 1150.24,190.042 1148.58,188.042 1148,184.5C 1147.33,183.748 1146.5,183.414 1145.5,183.5C 1144.66,183.158 1144.33,182.492 1144.5,181.5C 1144.5,179.167 1144.5,176.833 1144.5,174.5C 1143.5,174.5 1142.5,174.5 1141.5,174.5C 1142.02,170.572 1141.02,167.239 1138.5,164.5C 1137.21,161.321 1136.54,157.988 1136.5,154.5C 1136.22,146.83 1135.89,139.164 1135.5,131.5C 1136.32,127.353 1136.82,123.019 1137,118.5C 1140.45,112.908 1141.61,106.908 1140.5,100.5C 1141.58,96.9155 1142.25,93.2488 1142.5,89.5C 1144.21,83.0057 1146.88,77.0057 1150.5,71.5C 1152.93,69.954 1154.26,67.6207 1154.5,64.5C 1162.17,50.8333 1172.83,40.1667 1186.5,32.5C 1192.36,30.88 1198.03,28.88 1203.5,26.5C 1208.27,25.2027 1212.93,25.2027 1217.5,26.5 Z"/></g>
<g><path style="opacity:1" fill="#7f7f8f" d="M 1245.5,42.5 C 1246.91,42.9731 1247.57,43.9731 1247.5,45.5C 1246.09,45.0269 1245.43,44.0269 1245.5,42.5 Z"/></g>
<g><path style="opacity:1" fill="#5e5a78" d="M 1154.5,64.5 C 1154.26,67.6207 1152.93,69.954 1150.5,71.5C 1151.08,68.6689 1152.41,66.3356 1154.5,64.5 Z"/></g>
<g><path style="opacity:1" fill="#6a677f" d="M 1260.5,70.5 C 1261.92,72.5145 1262.59,74.8478 1262.5,77.5C 1261.08,75.4855 1260.41,73.1522 1260.5,70.5 Z"/></g>
<g><path style="opacity:1" fill="#756e88" d="M 1262.5,77.5 C 1263.38,80.0232 1264.22,82.6898 1265,85.5C 1274.94,80.583 1285.11,79.583 1295.5,82.5C 1288.83,82.3337 1282.16,82.5004 1275.5,83C 1271.28,84.6842 1266.95,85.8509 1262.5,86.5C 1262.5,83.5 1262.5,80.5 1262.5,77.5 Z"/></g>
<g><path style="opacity:1" fill="#353359" d="M 1295.5,82.5 C 1300.88,83.0233 1305.22,85.3566 1308.5,89.5C 1306.4,89.0283 1304.4,89.0283 1302.5,89.5C 1301.57,88.3112 1301.24,86.9778 1301.5,85.5C 1298.92,85.5449 1296.92,84.5449 1295.5,82.5 Z"/></g>
<g><path style="opacity:1" fill="#8e899c" d="M 1309.5,89.5 C 1311.91,90.9108 1313.58,92.9108 1314.5,95.5C 1312.09,94.0892 1310.42,92.0892 1309.5,89.5 Z"/></g>
<g><path style="opacity:1" fill="#807b93" d="M 1142.5,89.5 C 1142.25,93.2488 1141.58,96.9155 1140.5,100.5C 1140.17,100.5 1139.83,100.5 1139.5,100.5C 1139.93,96.5732 1140.93,92.9065 1142.5,89.5 Z"/></g>
<g><path style="opacity:1" fill="#014762" d="M 827.5,181.5 C 696.168,174.207 564.668,171.207 433,172.5C 395.833,172.667 358.667,172.833 321.5,173C 263.174,175.049 204.841,176.882 146.5,178.5C 146.5,181.167 146.5,183.833 146.5,186.5C 145.686,184.369 145.186,182.036 145,179.5C 143.911,160.842 143.578,142.175 144,123.5C 145.693,121.396 147.86,119.896 150.5,119C 148.618,118.802 146.952,118.302 145.5,117.5C 169.37,114.548 193.204,111.548 217,108.5C 390.805,96.502 564.638,96.502 738.5,108.5C 756.232,110.39 773.899,112.89 791.5,116C 798.086,117.229 804.419,119.229 810.5,122C 817.173,141.521 822.839,161.355 827.5,181.5 Z"/></g>
<g><path style="opacity:1" fill="#66617d" d="M 1320.5,106.5 C 1321.92,108.515 1322.59,110.848 1322.5,113.5C 1321.08,111.485 1320.41,109.152 1320.5,106.5 Z"/></g>
<g><path style="opacity:1" fill="#282650" d="M 1139.5,100.5 C 1139.83,100.5 1140.17,100.5 1140.5,100.5C 1141.61,106.908 1140.45,112.908 1137,118.5C 1136.82,123.019 1136.32,127.353 1135.5,131.5C 1135.5,129.167 1135.5,126.833 1135.5,124.5C 1135.7,116.191 1137.03,108.191 1139.5,100.5 Z"/></g>
<g><path style="opacity:1" fill="#023862" d="M 145.5,117.5 C 146.952,118.302 148.618,118.802 150.5,119C 147.86,119.896 145.693,121.396 144,123.5C 143.578,142.175 143.911,160.842 145,179.5C 145.186,182.036 145.686,184.369 146.5,186.5C 154.125,283.628 171.791,378.961 199.5,472.5C 199.457,475.91 199.957,479.243 201,482.5C 206.264,499.626 211.931,516.626 218,533.5C 219.836,536.17 222.336,537.837 225.5,538.5C 224.551,539.152 223.385,539.486 222,539.5C 205.318,537.858 188.818,535.192 172.5,531.5C 170.537,530.04 168.704,528.373 167,526.5C 129.593,420.204 106.427,310.87 97.5,198.5C 97.3072,183.989 96.6406,169.655 95.5,155.5C 94.3434,147.344 94.1768,139.01 95,130.5C 95.3076,129.692 95.8076,129.025 96.5,128.5C 112.33,122.667 128.663,119 145.5,117.5 Z"/></g>
<g><path style="opacity:1" fill="#003662" d="M 704.5,130.5 C 717.432,129.927 722.599,135.927 720,148.5C 715.238,155.799 709.071,157.299 701.5,153C 694.105,144.325 695.105,136.825 704.5,130.5 Z"/></g>
<g><path style="opacity:1" fill="#578ac7" d="M 744.5,129.5 C 759.958,127.786 766.124,134.453 763,149.5C 758.797,156.007 752.964,158.174 745.5,156C 733.936,147.49 733.602,138.657 744.5,129.5 Z"/></g>
<g><path style="opacity:0.51" fill="#9e94a6" d="M 1135.5,124.5 C 1135.5,126.833 1135.5,129.167 1135.5,131.5C 1135.89,139.164 1136.22,146.83 1136.5,154.5C 1135.08,148.392 1134.41,142.059 1134.5,135.5C 1134.5,131.651 1134.83,127.984 1135.5,124.5 Z"/></g>
<g><path style="opacity:0.51" fill="#958ea4" d="M 1323.5,139.5 C 1323.58,142.781 1322.91,145.781 1321.5,148.5C 1321.42,145.219 1322.09,142.219 1323.5,139.5 Z"/></g>
<g><path style="opacity:1" fill="#4b4668" d="M 1138.5,164.5 C 1141.02,167.239 1142.02,170.572 1141.5,174.5C 1139.9,171.45 1138.9,168.116 1138.5,164.5 Z"/></g>
<g><path style="opacity:1" fill="#4e486b" d="M 1320.5,165.5 C 1325.25,166.71 1329.58,168.71 1333.5,171.5C 1328.29,171.397 1323.96,169.397 1320.5,165.5 Z"/></g>
<g><path style="opacity:0.627" fill="#38647b" d="M 95.5,155.5 C 96.6406,169.655 97.3072,183.989 97.5,198.5C 95.9505,184.641 95.2838,170.307 95.5,155.5 Z"/></g>
<g><path style="opacity:1" fill="#feebd5" d="M 827.5,181.5 C 848.882,261.956 865.549,342.956 877.5,424.5C 876.226,426.993 876.56,429.326 878.5,431.5C 878.069,432.293 877.735,433.127 877.5,434C 879.715,448.099 881.381,462.266 882.5,476.5C 878.05,478.138 873.383,478.971 868.5,479C 686.201,485.919 503.867,486.919 321.5,482C 281.148,480.525 240.815,478.692 200.5,476.5C 200.768,474.901 200.434,473.568 199.5,472.5C 171.791,378.961 154.125,283.628 146.5,186.5C 146.5,183.833 146.5,181.167 146.5,178.5C 204.841,176.882 263.174,175.049 321.5,173C 358.667,172.833 395.833,172.667 433,172.5C 564.668,171.207 696.168,174.207 827.5,181.5 Z"/></g>
<g><path style="opacity:1" fill="#474167" d="M 1141.5,174.5 C 1142.5,174.5 1143.5,174.5 1144.5,174.5C 1144.5,176.833 1144.5,179.167 1144.5,181.5C 1142.71,179.574 1141.71,177.241 1141.5,174.5 Z"/></g>
<g><path style="opacity:1" fill="#474367" d="M 1333.5,171.5 C 1338.02,173.043 1342.02,175.377 1345.5,178.5C 1342.83,178.067 1340.17,177.567 1337.5,177C 1337.96,176.586 1338.29,176.086 1338.5,175.5C 1336.17,174.855 1334.51,173.522 1333.5,171.5 Z"/></g>
<g><path style="opacity:1" fill="#3c3960" d="M 1145.5,183.5 C 1146.5,183.414 1147.33,183.748 1148,184.5C 1148.58,188.042 1150.24,190.042 1153,190.5C 1153.46,192.7 1153.96,195.033 1154.5,197.5C 1150.51,193.521 1147.51,188.855 1145.5,183.5 Z"/></g>
<g><path style="opacity:1" fill="#4b4669" d="M 1386.5,181.5 C 1386.96,189.819 1385.3,197.819 1381.5,205.5C 1382.8,197.415 1384.46,189.415 1386.5,181.5 Z"/></g>
<g><path style="opacity:1" fill="#454066" d="M 1385.5,216.5 C 1385.5,216.833 1385.5,217.167 1385.5,217.5C 1384.11,219.054 1383.44,218.721 1383.5,216.5C 1384.09,214.123 1384.43,211.79 1384.5,209.5C 1385.17,210.5 1385.83,211.5 1386.5,212.5C 1387.96,210.9 1389.46,209.233 1391,207.5C 1391.41,207.957 1391.91,208.291 1392.5,208.5C 1393.14,206.704 1394.14,205.204 1395.5,204C 1393.11,203.135 1391.61,203.968 1391,206.5C 1388.61,205.864 1386.11,205.864 1383.5,206.5C 1387.92,203.968 1392.76,202.302 1398,201.5C 1400.87,202.414 1401.04,203.914 1398.5,206C 1394.34,209.247 1390.01,212.247 1385.5,215C 1384.26,215.69 1384.26,216.19 1385.5,216.5 Z"/></g>
<g><path style="opacity:1" fill="#7f7a93" d="M 1169.5,211.5 C 1171.4,211.738 1172.74,212.738 1173.5,214.5C 1171.6,214.262 1170.26,213.262 1169.5,211.5 Z"/></g>
<g><path style="opacity:1" fill="#5e8fca" d="M 307.5,210.5 C 326.678,208.326 339.178,216.326 345,234.5C 346.981,245.752 343.814,255.252 335.5,263C 317.883,274.878 302.383,272.711 289,256.5C 279.655,234.67 285.822,219.337 307.5,210.5 Z"/></g>
<g><path style="opacity:1" fill="#9692a5" d="M 1385.5,216.5 C 1388.24,218.239 1390.24,220.573 1391.5,223.5C 1389.17,221.833 1387.17,219.833 1385.5,217.5C 1385.5,217.167 1385.5,216.833 1385.5,216.5 Z"/></g>
<g><path style="opacity:1" fill="#fdebd5" d="M 309.5,214.5 C 326.071,213.268 336.238,220.601 340,236.5C 339.12,260.361 326.953,269.528 303.5,264C 290.566,255.804 286.399,244.304 291,229.5C 295.423,222.223 301.59,217.223 309.5,214.5 Z"/></g>
<g><path style="opacity:1" fill="#631b1a" d="M 712.5,218.5 C 712.5,219.5 712.5,220.5 712.5,221.5C 603.833,221.5 495.167,221.5 386.5,221.5C 386.5,220.5 386.5,219.5 386.5,218.5C 495.167,217.167 603.833,217.167 712.5,218.5 Z"/></g>
<g><path style="opacity:1" fill="#671723" d="M 712.5,218.5 C 713.833,219.833 713.833,221.167 712.5,222.5C 603.665,222.833 494.999,222.499 386.5,221.5C 495.167,221.5 603.833,221.5 712.5,221.5C 712.5,220.5 712.5,219.5 712.5,218.5 Z"/></g>
<g><path style="opacity:1" fill="#e3bead" d="M 386.5,218.5 C 386.5,219.5 386.5,220.5 386.5,221.5C 494.999,222.499 603.665,222.833 712.5,222.5C 603.668,223.499 494.668,223.833 385.5,223.5C 385.216,221.585 385.549,219.919 386.5,218.5 Z"/></g>
<g><path style="opacity:1" fill="#7d7790" d="M 1186.5,224.5 C 1188.03,224.427 1189.03,225.094 1189.5,226.5C 1187.97,226.573 1186.97,225.906 1186.5,224.5 Z"/></g>
<g><path style="opacity:1" fill="#7d7891" d="M 1395.5,227.5 C 1397.26,228.262 1398.26,229.596 1398.5,231.5C 1396.74,230.738 1395.74,229.404 1395.5,227.5 Z"/></g>
<g><path style="opacity:1" fill="#78768e" d="M 1192.5,228.5 C 1194.03,228.427 1195.03,229.094 1195.5,230.5C 1193.97,230.573 1192.97,229.906 1192.5,228.5 Z"/></g>
<g><path style="opacity:0.949" fill="#878199" d="M 1195.5,230.5 C 1197.03,230.427 1198.03,231.094 1198.5,232.5C 1196.97,232.573 1195.97,231.906 1195.5,230.5 Z"/></g>
<g><path style="opacity:1" fill="#f5d2c5" d="M 715.5,239.5 C 715.5,238.167 715.5,236.833 715.5,235.5C 606.833,235.5 498.167,235.5 389.5,235.5C 498.373,234.831 607.373,234.165 716.5,233.5C 717.308,233.808 717.975,234.308 718.5,235C 717.103,236.31 716.103,237.81 715.5,239.5 Z"/></g>
<g><path style="opacity:1" fill="#61181c" d="M 389.5,235.5 C 498.167,235.5 606.833,235.5 715.5,235.5C 715.5,236.833 715.5,238.167 715.5,239.5C 607.001,240.666 498.334,240.833 389.5,240C 388.272,238.51 388.272,237.01 389.5,235.5 Z"/></g>
<g><path style="opacity:1" fill="#fd8286" d="M 1203.5,235.5 C 1220.74,245.029 1239.07,252.029 1258.5,256.5C 1255.47,260.361 1252.64,264.361 1250,268.5C 1245.5,277.237 1245.5,285.904 1250,294.5C 1256.62,272.94 1270.79,265.107 1292.5,271C 1311.57,281.876 1316.4,297.376 1307,317.5C 1294.64,333.469 1279.81,336.469 1262.5,326.5C 1262.44,325.957 1262.11,325.624 1261.5,325.5C 1260.51,330.12 1260.17,334.786 1260.5,339.5C 1259.44,359.715 1262.94,379.048 1271,397.5C 1279.61,408.116 1290.27,410.449 1303,404.5C 1307.01,409.675 1311.51,414.341 1316.5,418.5C 1302.86,417.593 1289.19,417.26 1275.5,417.5C 1275.83,412.786 1275.49,408.12 1274.5,403.5C 1269.29,404.962 1263.95,405.629 1258.5,405.5C 1247.45,404.962 1236.45,403.962 1225.5,402.5C 1198.38,393.379 1182.38,374.713 1177.5,346.5C 1176.84,335.18 1176.34,323.847 1176,312.5C 1171.58,310.86 1167.08,309.527 1162.5,308.5C 1157.69,306.524 1156.52,303.191 1159,298.5C 1177.23,279.792 1192.06,258.792 1203.5,235.5 Z"/></g>
<g><path style="opacity:1" fill="#262651" d="M 1403.5,238.5 C 1408.64,243.781 1411.98,250.115 1413.5,257.5C 1412.05,256.378 1411.05,254.878 1410.5,253C 1406.72,253.617 1404.05,251.951 1402.5,248C 1404.38,247.784 1406.05,247.117 1407.5,246C 1406.05,246.263 1404.72,246.096 1403.5,245.5C 1404.67,243.177 1404.67,240.844 1403.5,238.5 Z"/></g>
<g><path style="opacity:1" fill="#d9a79b" d="M 717.5,253.5 C 609.166,253.333 500.833,253.5 392.5,254C 391.748,254.671 391.414,255.504 391.5,256.5C 390.209,255.458 390.209,254.292 391.5,253C 500.334,252.167 609.001,252.334 717.5,253.5 Z"/></g>
<g><path style="opacity:1" fill="#52020a" d="M 717.5,253.5 C 718.234,254.708 718.567,256.041 718.5,257.5C 609.332,257.833 500.332,257.499 391.5,256.5C 391.414,255.504 391.748,254.671 392.5,254C 500.833,253.5 609.166,253.333 717.5,253.5 Z"/></g>
<g><path style="opacity:1" fill="#52030c" d="M 1212.5,274.5 C 1218.64,275.026 1219.98,277.86 1216.5,283C 1211.5,284.33 1209.34,282.496 1210,277.5C 1210.7,276.309 1211.53,275.309 1212.5,274.5 Z"/></g>
<g><path style="opacity:1" fill="#706783" d="M 1416.5,267.5 C 1419.86,278.094 1420.19,288.76 1417.5,299.5C 1417.61,288.815 1417.28,278.148 1416.5,267.5 Z"/></g>
<g><path style="opacity:1" fill="#580511" d="M 1277.5,279.5 C 1282.18,279.334 1286.85,279.501 1291.5,280C 1296.88,284.422 1297.88,289.755 1294.5,296C 1300.04,303.252 1299.7,310.252 1293.5,317C 1285.11,321.682 1276.78,321.515 1268.5,316.5C 1267.57,315.311 1267.24,313.978 1267.5,312.5C 1270.65,312.737 1273.65,313.57 1276.5,315C 1281.26,315.81 1285.92,315.476 1290.5,314C 1294.81,310.139 1295.48,305.806 1292.5,301C 1289.51,301.305 1286.51,301.972 1283.5,303C 1278.67,303.884 1274.01,303.384 1269.5,301.5C 1266.54,298.144 1266.88,295.311 1270.5,293C 1276.79,292.125 1282.95,292.625 1289,294.5C 1293.48,291.403 1293.64,287.903 1289.5,284C 1283.67,283.124 1278.01,283.624 1272.5,285.5C 1272.5,284.167 1272.5,282.833 1272.5,281.5C 1274.55,281.598 1276.22,280.931 1277.5,279.5 Z"/></g>
<g><path style="opacity:1" fill="#f4787f" d="M 1272.5,296.5 C 1276.97,296.133 1281.3,296.633 1285.5,298C 1283.33,298.167 1281.17,298.333 1279,298.5C 1276.39,298.467 1274.22,297.8 1272.5,296.5 Z"/></g>
<g><path style="opacity:1" fill="#5e8fc9" d="M 319.5,298.5 C 345.545,296.718 358.378,308.718 358,334.5C 350.411,355.377 335.911,362.544 314.5,356C 299.548,346.145 294.714,332.645 300,315.5C 304.577,307.409 311.077,301.743 319.5,298.5 Z"/></g>
<g><path style="opacity:1" fill="#5d1517" d="M 722.5,305.5 C 722.5,306.5 722.5,307.5 722.5,308.5C 613.833,308.5 505.167,308.5 396.5,308.5C 396.33,307.178 396.663,306.011 397.5,305C 506.001,304.167 614.334,304.334 722.5,305.5 Z"/></g>
<g><path style="opacity:1" fill="#661618" d="M 722.5,305.5 C 723.434,306.568 723.768,307.901 723.5,309.5C 614.332,309.833 505.332,309.499 396.5,308.5C 505.167,308.5 613.833,308.5 722.5,308.5C 722.5,307.5 722.5,306.5 722.5,305.5 Z"/></g>
<g><path style="opacity:1" fill="#fde9d4" d="M 321.5,302.5 C 336.653,301.158 347.153,307.491 353,321.5C 354.479,344.021 343.979,354.521 321.5,353C 306.665,348.215 300.498,338.048 303,322.5C 306.229,313.105 312.395,306.438 321.5,302.5 Z"/></g>
<g><path style="opacity:1" fill="#38355d" d="M 1416.5,305.5 C 1415.77,310.438 1414.44,315.105 1412.5,319.5C 1412.66,317.473 1412.5,315.473 1412,313.5C 1411.67,314.5 1411.33,315.5 1411,316.5C 1409.11,311.719 1408.94,310.386 1410.5,312.5C 1411.68,312.719 1412.68,312.386 1413.5,311.5C 1414.21,309.224 1414.71,306.891 1415,304.5C 1415.38,305.056 1415.88,305.389 1416.5,305.5 Z"/></g>
<g><path style="opacity:1" fill="#565174" d="M 1412.5,319.5 C 1412.27,322.542 1411.27,325.208 1409.5,327.5C 1409.34,325.473 1409.5,323.473 1410,321.5C 1410.42,320.244 1411.25,319.577 1412.5,319.5 Z"/></g>
<g><path style="opacity:0.906" fill="#ffa1a8" d="M 1162.5,308.5 C 1167.08,309.527 1171.58,310.86 1176,312.5C 1176.34,323.847 1176.84,335.18 1177.5,346.5C 1175.94,339.725 1174.94,332.725 1174.5,325.5C 1175.44,321.524 1175.61,317.524 1175,313.5C 1170.56,312.303 1166.4,310.637 1162.5,308.5 Z"/></g>
<g><path style="opacity:1" fill="#530811" d="M 725.5,326.5 C 617.122,327.163 508.956,326.497 401,324.5C 399.893,325.712 399.393,325.379 399.5,323.5C 507.999,322.501 616.665,322.167 725.5,322.5C 725.5,323.833 725.5,325.167 725.5,326.5 Z"/></g>
<g><path style="opacity:1" fill="#7b2c34" d="M 399.5,323.5 C 399.393,325.379 399.893,325.712 401,324.5C 508.956,326.497 617.122,327.163 725.5,326.5C 617.001,327.666 508.334,327.833 399.5,327C 398.209,325.708 398.209,324.542 399.5,323.5 Z"/></g>
<g><path style="opacity:1" fill="#824863" d="M 1262.5,326.5 C 1261.83,330.833 1261.17,335.167 1260.5,339.5C 1260.17,334.786 1260.51,330.12 1261.5,325.5C 1262.11,325.624 1262.44,325.957 1262.5,326.5 Z"/></g>
<g><path style="opacity:1" fill="#ff5f5c" d="M 309.5,312.5 C 310.873,312.343 312.207,312.51 313.5,313C 317.72,317.723 322.387,321.89 327.5,325.5C 331.318,322.182 334.985,318.682 338.5,315C 339.793,314.51 341.127,314.343 342.5,314.5C 342.657,315.873 342.49,317.207 342,318.5C 338.434,322.066 334.934,325.566 331.5,329C 335.321,334.154 339.821,338.654 345,342.5C 345.833,345.667 344.667,346.833 341.5,346C 336.928,341.474 332.095,337.307 327,333.5C 323.547,335.95 320.38,338.783 317.5,342C 316.207,342.49 314.873,342.657 313.5,342.5C 313.343,341.127 313.51,339.793 314,338.5C 317.217,335.62 320.05,332.453 322.5,329C 318.346,324.846 314.179,320.679 310,316.5C 309.51,315.207 309.343,313.873 309.5,312.5 Z"/></g>
<g><path style="opacity:1" fill="#701820" d="M 727.5,341.5 C 619.167,341.5 510.833,341.5 402.5,341.5C 402.5,342.5 402.5,343.5 402.5,344.5C 401.566,343.432 401.232,342.099 401.5,340.5C 510.335,340.167 619.001,340.501 727.5,341.5 Z"/></g>
<g><path style="opacity:1" fill="#621a1c" d="M 727.5,341.5 C 728.791,342.542 728.791,343.708 727.5,345C 618.999,345.833 510.666,345.666 402.5,344.5C 402.5,343.5 402.5,342.5 402.5,341.5C 510.833,341.5 619.167,341.5 727.5,341.5 Z"/></g>
<g><path style="opacity:1" fill="#403e62" d="M 1402.5,342.5 C 1401.59,345.992 1399.92,348.992 1397.5,351.5C 1397.49,349.983 1396.82,348.816 1395.5,348C 1396.87,347.369 1398.21,346.702 1399.5,346C 1397.49,344.848 1397.32,343.682 1399,342.5C 1400.15,343.684 1401.31,343.684 1402.5,342.5 Z"/></g>
<g><path style="opacity:1" fill="#423e64" d="M 1397.5,351.5 C 1394.92,357.668 1391.59,363.335 1387.5,368.5C 1387.71,366.856 1387.38,365.356 1386.5,364C 1387.47,362.242 1388.64,361.742 1390,362.5C 1390.74,360.559 1390.58,358.726 1389.5,357C 1391.02,355.991 1392.69,355.491 1394.5,355.5C 1394.5,354.167 1394.5,352.833 1394.5,351.5C 1395.5,351.5 1396.5,351.5 1397.5,351.5 Z"/></g>
<g><path style="opacity:1" fill="#443f67" d="M 1387.5,368.5 C 1385.73,371.709 1383.73,374.709 1381.5,377.5C 1380.8,374.798 1380.8,372.964 1381.5,372C 1383.88,371.935 1384.55,371.102 1383.5,369.5C 1384.69,368.571 1386.02,368.238 1387.5,368.5 Z"/></g>
<g><path style="opacity:1" fill="#702222" d="M 407.5,391.5 C 515.834,391.333 624.167,391.5 732.5,392C 733.38,393.356 733.714,394.856 733.5,396.5C 624.5,396.5 515.5,396.5 406.5,396.5C 406.366,394.708 406.699,393.042 407.5,391.5 Z"/></g>
<g><path style="opacity:1" fill="#480005" d="M 409.5,393.5 C 516.974,393.002 624.307,393.502 731.5,395C 677.833,395.167 624.167,395.333 570.5,395.5C 516.496,395.5 462.829,394.833 409.5,393.5 Z"/></g>
<g><path style="opacity:1" fill="#fa636e" d="M 1225.5,402.5 C 1236.45,403.962 1247.45,404.962 1258.5,405.5C 1263.95,405.629 1269.29,404.962 1274.5,403.5C 1275.49,408.12 1275.83,412.786 1275.5,417.5C 1256.94,418.914 1238.61,421.914 1220.5,426.5C 1222.17,418.496 1223.83,410.496 1225.5,402.5 Z"/></g>
<g><path style="opacity:1" fill="#fc8489" d="M 1368.5,398.5 C 1369.36,408.139 1369.69,417.806 1369.5,427.5C 1356.05,424.487 1342.71,421.487 1329.5,418.5C 1334.11,415.564 1338.11,411.898 1341.5,407.5C 1344.98,413.703 1349.65,414.87 1355.5,411C 1360.36,407.303 1364.7,403.136 1368.5,398.5 Z"/></g>
<g><path style="opacity:1" fill="#5a0f16" d="M 409.5,409.5 C 518.167,409.5 626.833,409.5 735.5,409.5C 735.5,411.167 735.5,412.833 735.5,414.5C 626.833,414.5 518.167,414.5 409.5,414.5C 409.5,412.833 409.5,411.167 409.5,409.5 Z"/></g>
<g><path style="opacity:1" fill="#014762" d="M 1275.5,417.5 C 1289.19,417.26 1302.86,417.593 1316.5,418.5C 1320.86,419.65 1325.19,419.65 1329.5,418.5C 1342.71,421.487 1356.05,424.487 1369.5,427.5C 1388.46,433.646 1406.13,442.479 1422.5,454C 1427.04,458.703 1431.7,463.203 1436.5,467.5C 1435.55,468.152 1434.38,468.486 1433,468.5C 1338.81,455.043 1244.64,455.376 1150.5,469.5C 1149.27,469.48 1148.27,469.147 1147.5,468.5C 1159.78,454.077 1174.78,443.244 1192.5,436C 1201.63,432.217 1210.97,429.05 1220.5,426.5C 1238.61,421.914 1256.94,418.914 1275.5,417.5 Z"/></g>
<g><path style="opacity:1" fill="#621519" d="M 411.5,427.5 C 520.167,427.333 628.834,427.5 737.5,428C 738.833,429.333 738.833,430.667 737.5,432C 629.167,432.667 520.833,432.667 412.5,432C 411.62,430.644 411.286,429.144 411.5,427.5 Z"/></g>
<g><path style="opacity:1" fill="#5e8fca" d="M 335.5,386.5 C 353.382,385.015 365.216,392.682 371,409.5C 372.361,434.473 360.527,446.64 335.5,446C 317.601,441.071 309.434,429.238 311,410.5C 314.511,397.486 322.678,389.486 335.5,386.5 Z"/></g>
<g><path style="opacity:1" fill="#fdebd5" d="M 335.5,390.5 C 359.333,390.493 369.167,402.16 365,425.5C 356.243,441.863 343.41,446.03 326.5,438C 314.917,428.092 312.417,416.259 319,402.5C 323.303,396.675 328.803,392.675 335.5,390.5 Z"/></g>
<g><path style="opacity:1" fill="#4279bf" d="M 1436.5,467.5 C 1437.17,467.833 1437.83,468.167 1438.5,468.5C 1438.78,470.346 1438.11,471.68 1436.5,472.5C 1407.74,467.281 1378.74,464.114 1349.5,463C 1281.22,460.418 1213.22,463.585 1145.5,472.5C 1145.5,471.5 1145.5,470.5 1145.5,469.5C 1145.84,468.662 1146.51,468.328 1147.5,468.5C 1148.27,469.147 1149.27,469.48 1150.5,469.5C 1244.64,455.376 1338.81,455.043 1433,468.5C 1434.38,468.486 1435.55,468.152 1436.5,467.5 Z"/></g>
<g><path style="opacity:1" fill="#004762" d="M 1438.5,468.5 C 1440.12,470.436 1442.28,471.436 1445,471.5C 1495.08,475.559 1542.58,488.726 1587.5,511C 1613.78,525.975 1638.11,543.641 1660.5,564C 1687.93,589.749 1712.76,617.583 1735,647.5C 1739.61,652.705 1741.27,658.705 1740,665.5C 1737.65,673.198 1734.48,680.532 1730.5,687.5C 1721.85,701.558 1711.19,714.058 1698.5,725C 1682.02,739.976 1664.02,752.81 1644.5,763.5C 1644.01,764.446 1643.68,765.446 1643.5,766.5C 1662.57,832.863 1681.73,899.196 1701,965.5C 1705.03,979.405 1708.53,993.405 1711.5,1007.5C 1700.56,1015.66 1688.23,1020.82 1674.5,1023C 1633.19,1030.92 1591.52,1035.92 1549.5,1038C 1452.83,1043.99 1356.17,1043.99 1259.5,1038C 1217.8,1036 1176.46,1031 1135.5,1023C 1124.34,1020.73 1113.68,1017.06 1103.5,1012C 1102,1010.5 1100.5,1009 1099,1007.5C 1096.73,992.117 1094.23,976.784 1091.5,961.5C 1089.65,951.531 1087.98,941.531 1086.5,931.5C 1086.37,929.784 1086.04,928.117 1085.5,926.5C 1079.83,891.835 1074.17,857.168 1068.5,822.5C 1067.59,814.394 1066.26,806.394 1064.5,798.5C 1062.48,783.018 1059.81,767.685 1056.5,752.5C 1072.71,736.612 1088.21,719.945 1103,702.5C 1111.13,691.748 1118.63,680.581 1125.5,669C 1125.17,668.5 1124.83,668 1124.5,667.5C 1105.27,697.915 1082.11,725.248 1055,749.5C 1054.52,750.448 1054.35,751.448 1054.5,752.5C 1052.37,755.712 1050.04,758.712 1047.5,761.5C 1040.16,768.835 1032.82,776.169 1025.5,783.5C 1022.4,785.312 1019.06,786.312 1015.5,786.5C 1010.83,786.5 1006.17,786.5 1001.5,786.5C 1000.04,786.567 998.708,786.234 997.5,785.5C 985.652,783.718 974.319,780.218 963.5,775C 920.785,754.775 885.118,725.942 856.5,688.5C 854.027,683.553 851.527,678.553 849,673.5C 846.088,666.096 846.088,658.762 849,651.5C 853.052,646.288 856.885,640.955 860.5,635.5C 863.156,632.206 865.822,628.873 868.5,625.5C 888.757,600.242 911.09,576.909 935.5,555.5C 939.817,552.514 943.817,549.18 947.5,545.5C 962.522,534.328 977.855,523.661 993.5,513.5C 1039.59,491.304 1088.26,477.47 1139.5,472C 1141.66,471.415 1143.66,470.582 1145.5,469.5C 1145.5,470.5 1145.5,471.5 1145.5,472.5C 1213.22,463.585 1281.22,460.418 1349.5,463C 1378.74,464.114 1407.74,467.281 1436.5,472.5C 1438.11,471.68 1438.78,470.346 1438.5,468.5 Z"/></g>
<g><path style="opacity:1" fill="#014762" d="M 199.5,472.5 C 200.434,473.568 200.768,474.901 200.5,476.5C 240.815,478.692 281.148,480.525 321.5,482C 503.867,486.919 686.201,485.919 868.5,479C 873.383,478.971 878.05,478.138 882.5,476.5C 884.05,489.101 885.05,501.768 885.5,514.5C 885.666,520.842 885.5,527.175 885,533.5C 884.167,534.333 883.333,535.167 882.5,536C 872.83,538.935 863.163,541.435 853.5,543.5C 849.439,544.006 845.439,544.673 841.5,545.5C 841.083,544.876 840.416,544.543 839.5,544.5C 821.376,546.684 803.376,548.684 785.5,550.5C 781.481,550.646 777.481,550.979 773.5,551.5C 773.083,550.876 772.416,550.543 771.5,550.5C 757.337,551.225 743.337,552.225 729.5,553.5C 726.167,553.833 722.833,554.167 719.5,554.5C 717.359,553.837 715.025,553.503 712.5,553.5C 699.129,554.042 685.796,554.709 672.5,555.5C 672.167,556.333 671.833,557.167 671.5,558C 676.086,576.827 680.086,595.661 683.5,614.5C 684.383,619.132 685.05,623.798 685.5,628.5C 687.018,642.293 688.018,656.127 688.5,670C 688.504,678.202 688.004,686.368 687,694.5C 686.562,697.376 685.562,700.043 684,702.5C 674.093,710.867 662.593,715.7 649.5,717C 631.794,719.907 614.127,722.074 596.5,723.5C 591.833,723.5 587.167,723.5 582.5,723.5C 525.167,723.5 467.833,723.5 410.5,723.5C 406.167,723.5 401.833,723.5 397.5,723.5C 395.901,723.768 394.568,723.434 393.5,722.5C 441.633,725.125 489.3,721.958 536.5,713C 542.416,711.584 548.082,709.584 553.5,707C 542.655,688.808 533.822,669.641 527,649.5C 517.167,619.666 509.167,589.333 503,558.5C 490.883,557.804 478.716,557.137 466.5,556.5C 465.558,556.608 464.725,556.941 464,557.5C 463.506,559.134 463.34,560.801 463.5,562.5C 462.539,560.735 462.205,558.735 462.5,556.5C 440.529,555.329 418.529,554.662 396.5,554.5C 392.167,554.5 387.833,554.5 383.5,554.5C 381.708,553.691 379.708,553.191 377.5,553C 360.817,552.416 344.15,551.582 327.5,550.5C 323.167,550.5 318.833,550.5 314.5,550.5C 284.822,547.452 255.155,543.452 225.5,538.5C 222.336,537.837 219.836,536.17 218,533.5C 211.931,516.626 206.264,499.626 201,482.5C 199.957,479.243 199.457,475.91 199.5,472.5 Z"/></g>
<g><path style="opacity:1" fill="#003662" d="M 570.5,504.5 C 585.639,506.484 592.472,515.151 591,530.5C 584.522,545.529 575.522,547.195 564,535.5C 556.878,523.008 559.045,512.675 570.5,504.5 Z"/></g>
<g><path style="opacity:1" fill="#fec1b6" d="M 993.5,513.5 C 977.855,523.661 962.522,534.328 947.5,545.5C 947.703,535.134 948.37,524.801 949.5,514.5C 945.327,513.956 941.494,514.623 938,516.5C 935.92,529.411 935.087,542.411 935.5,555.5C 911.09,576.909 888.757,600.242 868.5,625.5C 859.466,609.566 853.299,592.566 850,574.5C 848.664,563.832 849.831,553.498 853.5,543.5C 863.163,541.435 872.83,538.935 882.5,536C 883.333,535.167 884.167,534.333 885,533.5C 885.5,527.175 885.666,520.842 885.5,514.5C 921.496,513.833 957.496,513.5 993.5,513.5 Z"/></g>
<g><path style="opacity:1" fill="#e78375" d="M 947.5,545.5 C 943.817,549.18 939.817,552.514 935.5,555.5C 935.087,542.411 935.92,529.411 938,516.5C 941.494,514.623 945.327,513.956 949.5,514.5C 948.37,524.801 947.703,535.134 947.5,545.5 Z"/></g>
<g><path style="opacity:1" fill="#fec1b6" d="M 172.5,531.5 C 188.818,535.192 205.318,537.858 222,539.5C 223.385,539.486 224.551,539.152 225.5,538.5C 255.155,543.452 284.822,547.452 314.5,550.5C 304.617,573.924 290.951,594.924 273.5,613.5C 263.651,623.183 253.651,632.683 243.5,642C 218.167,661.333 192.833,680.667 167.5,700C 157.542,709.456 148.875,719.956 141.5,731.5C 128.362,707.896 114.196,684.896 99,662.5C 97.6966,660.06 96.53,657.56 95.5,655C 101.32,647.845 107.153,640.678 113,633.5C 118.735,625.654 123.735,617.321 128,608.5C 138.419,584.39 148.919,560.39 159.5,536.5C 158.675,535.614 157.675,535.281 156.5,535.5C 161.651,533.879 166.984,532.546 172.5,531.5 Z"/></g>
<g><path style="opacity:0.998" fill="#fec2b7" d="M 151.5,536.5 C 149.709,537.391 147.876,538.391 146,539.5C 135.511,564.816 124.178,589.816 112,614.5C 105.787,625.581 98.1206,635.581 89,644.5C 79.5074,629.548 73.8408,613.215 72,595.5C 71.1841,596.823 70.0174,597.489 68.5,597.5C 69.4577,596.038 70.6244,594.705 72,593.5C 74.476,579.042 81.6426,567.542 93.5,559C 111.404,547.884 130.738,540.384 151.5,536.5 Z"/></g>
<g><path style="opacity:1" fill="#fec1b6" d="M 841.5,545.5 C 839.987,547.516 839.153,549.849 839,552.5C 836.918,569.688 838.918,586.354 845,602.5C 849.528,613.975 854.694,624.975 860.5,635.5C 856.885,640.955 853.052,646.288 849,651.5C 846.088,658.762 846.088,666.096 849,673.5C 851.527,678.553 854.027,683.553 856.5,688.5C 850.371,698.426 845.037,708.759 840.5,719.5C 835.906,704.282 829.073,689.948 820,676.5C 804.718,659.61 792.718,640.61 784,619.5C 779.022,596.365 779.522,573.365 785.5,550.5C 803.376,548.684 821.376,546.684 839.5,544.5C 840.416,544.543 841.083,544.876 841.5,545.5 Z"/></g>
<g><path style="opacity:1" fill="#e88375" d="M 853.5,543.5 C 849.831,553.498 848.664,563.832 850,574.5C 853.299,592.566 859.466,609.566 868.5,625.5C 865.822,628.873 863.156,632.206 860.5,635.5C 854.694,624.975 849.528,613.975 845,602.5C 838.918,586.354 836.918,569.688 839,552.5C 839.153,549.849 839.987,547.516 841.5,545.5C 845.439,544.673 849.439,544.006 853.5,543.5 Z"/></g>
<g><path style="opacity:1" fill="#fec1b6" d="M 327.5,550.5 C 344.15,551.582 360.817,552.416 377.5,553C 379.708,553.191 381.708,553.691 383.5,554.5C 379.427,570.365 375.927,586.365 373,602.5C 370.622,628.612 372.788,654.279 379.5,679.5C 358.65,681.191 337.984,684.357 317.5,689C 311.884,690.758 306.551,693.092 301.5,696C 298.063,702.146 299.73,706.479 306.5,709C 322.983,714.964 339.983,718.63 357.5,720C 369.466,721.386 381.466,722.219 393.5,722.5C 394.568,723.434 395.901,723.768 397.5,723.5C 399.56,727.73 401.394,732.064 403,736.5C 416.198,759.564 428.864,782.897 441,806.5C 449.653,825.791 456.319,845.791 461,866.5C 463.87,880.103 464.203,893.77 462,907.5C 460.335,914.489 458.835,921.489 457.5,928.5C 448.824,927.832 440.158,926.999 431.5,926C 392.426,921.304 354.426,912.304 317.5,899C 312.5,896.5 307.5,894 302.5,891.5C 301.338,886.533 301.171,881.533 302,876.5C 303.332,868.505 304.665,860.505 306,852.5C 311,839.167 316,825.833 321,812.5C 326.863,795.19 325.529,778.523 317,762.5C 302.876,744.341 286.043,741.508 266.5,754C 257.192,761.447 251.025,770.947 248,782.5C 245.445,804.462 243.112,826.462 241,848.5C 240.882,850.573 239.882,851.907 238,852.5C 232.202,848.045 226.368,843.545 220.5,839C 192.247,811.702 168.414,780.869 149,746.5C 148.333,745.167 148.333,743.833 149,742.5C 151.333,738.5 153.667,734.5 156,730.5C 166.167,717.667 177.667,706.167 190.5,696C 209.605,682.267 228.605,668.267 247.5,654C 277.907,629.61 302.407,600.443 321,566.5C 323.997,561.506 326.164,556.172 327.5,550.5 Z"/></g>
<g><path style="opacity:1" fill="#fec1b6" d="M 773.5,551.5 C 767.113,575.658 766.946,599.992 773,624.5C 776,631.5 779,638.5 782,645.5C 790.555,657.737 799.555,669.737 809,681.5C 822.979,700.14 829.479,721.14 828.5,744.5C 813.136,780.575 801.802,817.908 794.5,856.5C 793.835,853.686 793.502,850.686 793.5,847.5C 796.554,825.883 797.054,804.216 795,782.5C 792.911,756.807 781.411,736.64 760.5,722C 726.513,709.209 699.013,717.709 678,747.5C 664.561,771.992 661.894,797.659 670,824.5C 674.702,841.241 681.369,857.241 690,872.5C 699.346,887.2 708.679,901.866 718,916.5C 720.807,921.776 723.307,927.109 725.5,932.5C 699.165,932.667 672.831,932.5 646.5,932C 633,918.5 619.5,905 606,891.5C 572.348,847.248 565.015,798.915 584,746.5C 587.675,738.477 591.842,730.811 596.5,723.5C 614.127,722.074 631.794,719.907 649.5,717C 662.593,715.7 674.093,710.867 684,702.5C 685.562,700.043 686.562,697.376 687,694.5C 688.004,686.368 688.504,678.202 688.5,670C 688.018,656.127 687.018,642.293 685.5,628.5C 706.733,607.751 722.066,583.251 731.5,555C 731.164,553.97 730.497,553.47 729.5,553.5C 743.337,552.225 757.337,551.225 771.5,550.5C 772.416,550.543 773.083,550.876 773.5,551.5 Z"/></g>
<g><path style="opacity:1" fill="#fbc0b5" d="M 719.5,554.5 C 711.169,576.802 699.169,596.802 683.5,614.5C 680.086,595.661 676.086,576.827 671.5,558C 671.833,557.167 672.167,556.333 672.5,555.5C 685.796,554.709 699.129,554.042 712.5,553.5C 715.025,553.503 717.359,553.837 719.5,554.5 Z"/></g>
<g><path style="opacity:1" fill="#fec1b6" d="M 396.5,554.5 C 418.529,554.662 440.529,555.329 462.5,556.5C 462.205,558.735 462.539,560.735 463.5,562.5C 470.721,603.161 482.387,642.494 498.5,680.5C 497.833,680.833 497.167,681.167 496.5,681.5C 461.528,678.423 426.528,677.756 391.5,679.5C 383.177,652.29 381.343,624.623 386,596.5C 389.489,582.542 392.989,568.542 396.5,554.5 Z"/></g>
<g><path style="opacity:1" fill="#033762" d="M 393.5,722.5 C 381.466,722.219 369.466,721.386 357.5,720C 339.983,718.63 322.983,714.964 306.5,709C 299.73,706.479 298.063,702.146 301.5,696C 306.551,693.092 311.884,690.758 317.5,689C 337.984,684.357 358.65,681.191 379.5,679.5C 383.5,679.5 387.5,679.5 391.5,679.5C 426.528,677.756 461.528,678.423 496.5,681.5C 497.167,681.167 497.833,680.833 498.5,680.5C 482.387,642.494 470.721,603.161 463.5,562.5C 463.34,560.801 463.506,559.134 464,557.5C 464.725,556.941 465.558,556.608 466.5,556.5C 478.716,557.137 490.883,557.804 503,558.5C 509.167,589.333 517.167,619.666 527,649.5C 533.822,669.641 542.655,688.808 553.5,707C 548.082,709.584 542.416,711.584 536.5,713C 489.3,721.958 441.633,725.125 393.5,722.5 Z"/></g>
<g><path style="opacity:1" fill="#e78274" d="M 729.5,553.5 C 730.497,553.47 731.164,553.97 731.5,555C 722.066,583.251 706.733,607.751 685.5,628.5C 685.05,623.798 684.383,619.132 683.5,614.5C 699.169,596.802 711.169,576.802 719.5,554.5C 722.833,554.167 726.167,553.833 729.5,553.5 Z"/></g>
<g><path style="opacity:1" fill="#e88275" d="M 383.5,554.5 C 387.833,554.5 392.167,554.5 396.5,554.5C 392.989,568.542 389.489,582.542 386,596.5C 381.343,624.623 383.177,652.29 391.5,679.5C 387.5,679.5 383.5,679.5 379.5,679.5C 372.788,654.279 370.622,628.612 373,602.5C 375.927,586.365 379.427,570.365 383.5,554.5 Z"/></g>
<g><path style="opacity:1" fill="#e78274" d="M 156.5,535.5 C 157.675,535.281 158.675,535.614 159.5,536.5C 148.919,560.39 138.419,584.39 128,608.5C 123.735,617.321 118.735,625.654 113,633.5C 107.153,640.678 101.32,647.845 95.5,655C 96.53,657.56 97.6966,660.06 99,662.5C 114.196,684.896 128.362,707.896 141.5,731.5C 148.875,719.956 157.542,709.456 167.5,700C 192.833,680.667 218.167,661.333 243.5,642C 253.651,632.683 263.651,623.183 273.5,613.5C 290.951,594.924 304.617,573.924 314.5,550.5C 318.833,550.5 323.167,550.5 327.5,550.5C 326.164,556.172 323.997,561.506 321,566.5C 302.407,600.443 277.907,629.61 247.5,654C 228.605,668.267 209.605,682.267 190.5,696C 177.667,706.167 166.167,717.667 156,730.5C 153.667,734.5 151.333,738.5 149,742.5C 148.333,743.833 148.333,745.167 149,746.5C 168.414,780.869 192.247,811.702 220.5,839C 226.368,843.545 232.202,848.045 238,852.5C 239.882,851.907 240.882,850.573 241,848.5C 243.112,826.462 245.445,804.462 248,782.5C 251.025,770.947 257.192,761.447 266.5,754C 286.043,741.508 302.876,744.341 317,762.5C 325.529,778.523 326.863,795.19 321,812.5C 316,825.833 311,839.167 306,852.5C 304.665,860.505 303.332,868.505 302,876.5C 301.171,881.533 301.338,886.533 302.5,891.5C 307.5,894 312.5,896.5 317.5,899C 354.426,912.304 392.426,921.304 431.5,926C 440.158,926.999 448.824,927.832 457.5,928.5C 458.835,921.489 460.335,914.489 462,907.5C 464.203,893.77 463.87,880.103 461,866.5C 456.319,845.791 449.653,825.791 441,806.5C 428.864,782.897 416.198,759.564 403,736.5C 401.394,732.064 399.56,727.73 397.5,723.5C 401.833,723.5 406.167,723.5 410.5,723.5C 424.306,749.775 438.139,776.108 452,802.5C 458.203,816.915 463.87,831.581 469,846.5C 475.732,874.06 476.232,901.727 470.5,929.5C 487.12,931.09 503.787,931.757 520.5,931.5C 523.031,912.974 533.364,901.974 551.5,898.5C 560.149,899.775 567.816,903.275 574.5,909C 581.269,916.434 587.269,924.434 592.5,933C 605.167,933.667 617.833,933.667 630.5,933C 614.649,918.342 600.149,902.509 587,885.5C 564.953,850.584 557.286,812.584 564,771.5C 567.908,754.608 574.074,738.608 582.5,723.5C 587.167,723.5 591.833,723.5 596.5,723.5C 591.842,730.811 587.675,738.477 584,746.5C 565.015,798.915 572.348,847.248 606,891.5C 619.5,905 633,918.5 646.5,932C 672.831,932.5 699.165,932.667 725.5,932.5C 723.307,927.109 720.807,921.776 718,916.5C 708.679,901.866 699.346,887.2 690,872.5C 681.369,857.241 674.702,841.241 670,824.5C 661.894,797.659 664.561,771.992 678,747.5C 699.013,717.709 726.513,709.209 760.5,722C 781.411,736.64 792.911,756.807 795,782.5C 797.054,804.216 796.554,825.883 793.5,847.5C 793.502,850.686 793.835,853.686 794.5,856.5C 792.715,871.333 790.715,886 788.5,900.5C 786.182,893.348 784.349,886.015 783,878.5C 782.768,848.143 783.101,817.81 784,787.5C 782.836,766.01 774.336,748.177 758.5,734C 740.611,723.723 722.944,724.056 705.5,735C 682.508,753.135 673.008,776.968 677,806.5C 680.037,823.247 685.371,839.247 693,854.5C 703.562,873.708 714.895,892.374 727,910.5C 731.059,917.285 734.559,924.285 737.5,931.5C 754.167,931.5 770.833,931.5 787.5,931.5C 787.207,940.611 788.041,949.611 790,958.5C 791.067,959.191 792.234,959.691 793.5,960C 792.594,961.699 792.261,963.533 792.5,965.5C 791.609,963.709 790.609,961.876 789.5,960C 747.172,960.367 704.839,961.033 662.5,962C 615.833,962.667 569.167,962.667 522.5,962C 460.925,961.973 400.258,954.64 340.5,940C 258.602,918.075 194.768,871.575 149,800.5C 136.166,779.659 124.166,758.325 113,736.5C 102.395,718.899 91.395,701.566 80,684.5C 71.4356,671.038 64.7689,656.705 60,641.5C 55.0847,625.246 57.918,610.579 68.5,597.5C 70.0174,597.489 71.1841,596.823 72,595.5C 73.8408,613.215 79.5074,629.548 89,644.5C 98.1206,635.581 105.787,625.581 112,614.5C 124.178,589.816 135.511,564.816 146,539.5C 147.876,538.391 149.709,537.391 151.5,536.5C 152.919,535.549 154.585,535.216 156.5,535.5 Z"/></g>
<g><path style="opacity:1" fill="#4079bf" d="M 1594.5,601.5 C 1595.38,601.369 1596.04,601.702 1596.5,602.5C 1621.04,652.998 1636.7,705.998 1643.5,761.5C 1642.91,761.291 1642.41,760.957 1642,760.5C 1633.99,706.468 1618.32,654.801 1595,605.5C 1594.51,604.207 1594.34,602.873 1594.5,601.5 Z"/></g>
<g><path style="opacity:1" fill="#e88375" d="M 785.5,550.5 C 779.522,573.365 779.022,596.365 784,619.5C 792.718,640.61 804.718,659.61 820,676.5C 829.073,689.948 835.906,704.282 840.5,719.5C 835.457,727.358 831.457,735.691 828.5,744.5C 829.479,721.14 822.979,700.14 809,681.5C 799.555,669.737 790.555,657.737 782,645.5C 779,638.5 776,631.5 773,624.5C 766.946,599.992 767.113,575.658 773.5,551.5C 777.481,550.979 781.481,550.646 785.5,550.5 Z"/></g>
<g><path style="opacity:1" fill="#fe8387" d="M 856.5,688.5 C 885.118,725.942 920.785,754.775 963.5,775C 974.319,780.218 985.652,783.718 997.5,785.5C 989.358,800.446 981.191,815.446 973,830.5C 970.192,837.104 967.692,843.771 965.5,850.5C 981.925,847.115 998.258,843.281 1014.5,839C 1018.34,837.639 1022.01,836.139 1025.5,834.5C 1028.87,834.326 1032.21,833.826 1035.5,833C 1036.06,832.617 1036.39,832.117 1036.5,831.5C 1047.4,829.313 1058.06,826.313 1068.5,822.5C 1074.17,857.168 1079.83,891.835 1085.5,926.5C 1082.86,927.448 1080.19,928.448 1077.5,929.5C 1073.42,933.878 1068.42,936.711 1062.5,938C 1059.17,940.333 1055.83,942.667 1052.5,945C 1050.5,945.333 1048.5,945.667 1046.5,946C 1043.17,948.333 1039.83,950.667 1036.5,953C 1034.5,953.333 1032.5,953.667 1030.5,954C 1027.14,956.893 1023.48,959.06 1019.5,960.5C 977.908,979.976 934.575,994.81 889.5,1005C 867.733,1011.93 846.4,1010.93 825.5,1002C 810.426,993.431 799.426,981.264 792.5,965.5C 792.261,963.533 792.594,961.699 793.5,960C 792.234,959.691 791.067,959.191 790,958.5C 788.041,949.611 787.207,940.611 787.5,931.5C 787.366,921.264 787.699,910.931 788.5,900.5C 790.715,886 792.715,871.333 794.5,856.5C 801.802,817.908 813.136,780.575 828.5,744.5C 831.457,735.691 835.457,727.358 840.5,719.5C 845.037,708.759 850.371,698.426 856.5,688.5 Z"/></g>
<g><path style="opacity:1" fill="#ff8387" d="M 1730.5,687.5 C 1775.71,764.822 1799.04,848.322 1800.5,938C 1797.93,974.889 1778.93,998.222 1743.5,1008C 1732.78,1010.05 1722.12,1009.88 1711.5,1007.5C 1708.53,993.405 1705.03,979.405 1701,965.5C 1681.73,899.196 1662.57,832.863 1643.5,766.5C 1643.68,765.446 1644.01,764.446 1644.5,763.5C 1664.02,752.81 1682.02,739.976 1698.5,725C 1711.19,714.058 1721.85,701.558 1730.5,687.5 Z"/></g>
<g><path style="opacity:1" fill="#fec1b6" d="M 410.5,723.5 C 467.833,723.5 525.167,723.5 582.5,723.5C 574.074,738.608 567.908,754.608 564,771.5C 557.286,812.584 564.953,850.584 587,885.5C 600.149,902.509 614.649,918.342 630.5,933C 617.833,933.667 605.167,933.667 592.5,933C 587.269,924.434 581.269,916.434 574.5,909C 567.816,903.275 560.149,899.775 551.5,898.5C 533.364,901.974 523.031,912.974 520.5,931.5C 503.787,931.757 487.12,931.09 470.5,929.5C 476.232,901.727 475.732,874.06 469,846.5C 463.87,831.581 458.203,816.915 452,802.5C 438.139,776.108 424.306,749.775 410.5,723.5 Z"/></g>
<g><path style="opacity:1" fill="#fec1b6" d="M 788.5,900.5 C 787.699,910.931 787.366,921.264 787.5,931.5C 770.833,931.5 754.167,931.5 737.5,931.5C 734.559,924.285 731.059,917.285 727,910.5C 714.895,892.374 703.562,873.708 693,854.5C 685.371,839.247 680.037,823.247 677,806.5C 673.008,776.968 682.508,753.135 705.5,735C 722.944,724.056 740.611,723.723 758.5,734C 774.336,748.177 782.836,766.01 784,787.5C 783.101,817.81 782.768,848.143 783,878.5C 784.349,886.015 786.182,893.348 788.5,900.5 Z"/></g>
<g><path style="opacity:1" fill="#4179c0" d="M 1056.5,752.5 C 1055.83,752.5 1055.17,752.5 1054.5,752.5C 1054.35,751.448 1054.52,750.448 1055,749.5C 1082.11,725.248 1105.27,697.915 1124.5,667.5C 1124.83,668 1125.17,668.5 1125.5,669C 1118.63,680.581 1111.13,691.748 1103,702.5C 1088.21,719.945 1072.71,736.612 1056.5,752.5 Z"/></g>
<g><path style="opacity:1" fill="#e88476" d="M 1054.5,752.5 C 1055.17,752.5 1055.83,752.5 1056.5,752.5C 1059.81,767.685 1062.48,783.018 1064.5,798.5C 1058.59,786.344 1052.92,774.011 1047.5,761.5C 1050.04,758.712 1052.37,755.712 1054.5,752.5 Z"/></g>
<g><path style="opacity:1" fill="#fec1b6" d="M 281.5,758.5 C 286.179,758.334 290.845,758.501 295.5,759C 307.386,765.761 313.052,776.094 312.5,790C 312.287,798.397 310.787,806.564 308,814.5C 297.604,837.081 291.104,860.748 288.5,885.5C 274.088,878.641 260.755,870.308 248.5,860.5C 251.098,854.45 252.931,848.117 254,841.5C 255.623,824.527 256.957,807.527 258,790.5C 260.768,775.927 268.602,765.26 281.5,758.5 Z"/></g>
<g><path style="opacity:1" fill="#fec1b6" d="M 1047.5,761.5 C 1052.92,774.011 1058.59,786.344 1064.5,798.5C 1066.26,806.394 1067.59,814.394 1068.5,822.5C 1058.06,826.313 1047.4,829.313 1036.5,831.5C 1030.8,815.769 1023.8,800.769 1015.5,786.5C 1019.06,786.312 1022.4,785.312 1025.5,783.5C 1032.82,776.169 1040.16,768.835 1047.5,761.5 Z"/></g>
<g><path style="opacity:1" fill="#ffc1b6" d="M 997.5,785.5 C 998.708,786.234 1000.04,786.567 1001.5,786.5C 1010.58,801.997 1018.58,817.997 1025.5,834.5C 1022.01,836.139 1018.34,837.639 1014.5,839C 998.258,843.281 981.925,847.115 965.5,850.5C 967.692,843.771 970.192,837.104 973,830.5C 981.191,815.446 989.358,800.446 997.5,785.5 Z"/></g>
<g><path style="opacity:1" fill="#e88375" d="M 1001.5,786.5 C 1006.17,786.5 1010.83,786.5 1015.5,786.5C 1023.8,800.769 1030.8,815.769 1036.5,831.5C 1036.39,832.117 1036.06,832.617 1035.5,833C 1032.21,833.826 1028.87,834.326 1025.5,834.5C 1018.58,817.997 1010.58,801.997 1001.5,786.5 Z"/></g>
<g><path style="opacity:1" fill="#fec0b5" d="M 547.5,910.5 C 561.682,912.001 571.682,919.334 577.5,932.5C 562.181,933.499 546.848,933.833 531.5,933.5C 532.564,928.261 534.397,923.261 537,918.5C 540.4,915.586 543.9,912.92 547.5,910.5 Z"/></g>
<g><path style="opacity:1" fill="#feb8ad" d="M 1085.5,926.5 C 1086.04,928.117 1086.37,929.784 1086.5,931.5C 1082.99,932.055 1079.99,931.388 1077.5,929.5C 1080.19,928.448 1082.86,927.448 1085.5,926.5 Z"/></g>
<g><path style="opacity:1" fill="#e88376" d="M 1077.5,929.5 C 1079.99,931.388 1082.99,932.055 1086.5,931.5C 1087.98,941.531 1089.65,951.531 1091.5,961.5C 1070.39,960.817 1049.22,960.15 1028,959.5C 1025.21,960.216 1022.37,960.549 1019.5,960.5C 1023.48,959.06 1027.14,956.893 1030.5,954C 1032.5,953.667 1034.5,953.333 1036.5,953C 1039.83,950.667 1043.17,948.333 1046.5,946C 1048.5,945.667 1050.5,945.333 1052.5,945C 1055.83,942.667 1059.17,940.333 1062.5,938C 1068.42,936.711 1073.42,933.878 1077.5,929.5 Z"/></g>
</svg>
