<?xml version="1.0" encoding="UTF-8"?>
<!DOCTYPE svg PUBLIC "-//W3C//DTD SVG 1.1//EN" "http://www.w3.org/Graphics/SVG/1.1/DTD/svg11.dtd">
<svg xmlns="http://www.w3.org/2000/svg" version="1.1" width="512px" height="512px" style="shape-rendering:geometricPrecision; text-rendering:geometricPrecision; image-rendering:optimizeQuality; fill-rule:evenodd; clip-rule:evenodd" xmlns:xlink="http://www.w3.org/1999/xlink">
<g><path style="opacity:0.977" fill="#003144" d="M 233.5,31.5 C 239.402,30.962 245.068,31.7953 250.5,34C 314.761,60.4661 378.761,87.4661 442.5,115C 443.787,116.41 444.954,117.91 446,119.5C 447.655,177.442 447.988,235.442 447,293.5C 442.527,302.482 435.36,305.649 425.5,303C 421,301.167 417.833,298 416,293.5C 415.833,246.496 415.333,199.496 414.5,152.5C 361.833,174.5 309.167,196.5 256.5,218.5C 255.167,291.167 255.167,363.833 256.5,436.5C 268.99,430.422 281.323,424.089 293.5,417.5C 279.233,373.055 289.899,335.888 325.5,306C 344.522,291.91 365.855,285.91 389.5,288C 398.482,292.473 401.649,299.64 399,309.5C 397.167,314 394,317.167 389.5,319C 348.031,320.974 324.697,342.474 319.5,383.5C 321.967,414.617 337.967,435.117 367.5,445C 401.335,451.166 426.168,438.999 442,408.5C 445.504,398.472 447.504,388.138 448,377.5C 450.807,370.513 455.973,367.18 463.5,367.5C 475.769,368.448 481.102,375.115 479.5,387.5C 476.809,426.728 457.809,454.894 422.5,472C 379.349,487.839 341.849,479.339 310,446.5C 288.578,457.461 267.078,468.295 245.5,479C 241.5,479.667 237.5,479.667 233.5,479C 168.167,446.333 102.833,413.667 37.5,381C 34.8941,379.062 33.0608,376.562 32,373.5C 31.0082,288.777 31.3415,204.11 33,119.5C 34.9069,115.961 37.7403,113.461 41.5,112C 105.722,85.4339 169.722,58.6006 233.5,31.5 Z M 238.5,65.5 C 288.314,85.7726 337.981,106.439 387.5,127.5C 338.258,148.359 288.924,169.026 239.5,189.5C 190.076,169.026 140.742,148.359 91.5,127.5C 140.591,106.811 189.591,86.1439 238.5,65.5 Z M 63.5,152.5 C 116.593,174.211 169.593,196.211 222.5,218.5C 223.833,291.167 223.833,363.833 222.5,436.5C 169.833,410.167 117.167,383.833 64.5,357.5C 63.5,289.17 63.1667,220.837 63.5,152.5 Z"/></g>
<g><path style="opacity:0.96" fill="#003144" d="M 441.5,319.5 C 460.778,318.61 467.278,327.276 461,345.5C 438.5,368 416,390.5 393.5,413C 386.833,416.333 380.167,416.333 373.5,413C 361.667,401.167 349.833,389.333 338,377.5C 334.667,370.833 334.667,364.167 338,357.5C 344.945,350.931 352.778,349.764 361.5,354C 368.5,361 375.5,368 382.5,375C 383.167,375.667 383.833,375.667 384.5,375C 403.091,355.907 422.091,337.407 441.5,319.5 Z"/></g>
</svg>
