<?xml version="1.0" encoding="UTF-8"?>
<!DOCTYPE svg PUBLIC "-//W3C//DTD SVG 1.1//EN" "http://www.w3.org/Graphics/SVG/1.1/DTD/svg11.dtd">
<svg xmlns="http://www.w3.org/2000/svg" version="1.1" width="150px" height="150px" style="shape-rendering:geometricPrecision; text-rendering:geometricPrecision; image-rendering:optimizeQuality; fill-rule:evenodd; clip-rule:evenodd" xmlns:xlink="http://www.w3.org/1999/xlink">
<g><path style="opacity:0.852" fill="#121112" d="M 124.5,2.5 C 124.167,3.5 123.5,4.16667 122.5,4.5C 99.6829,3.21479 77.0162,3.21479 54.5,4.5C 53.8333,4.5 53.1667,4.5 52.5,4.5C 51.9569,4.44001 51.6236,4.10667 51.5,3.5C 52.6016,2.82434 53.6016,2.15767 54.5,1.5C 76.3295,0.337136 98.3295,0.17047 120.5,1C 122.058,1.21003 123.391,1.71003 124.5,2.5 Z"/></g>
<g><path style="opacity:1" fill="#8d8c91" d="M 112.5,5.5 C 116.634,4.94295 120.301,5.94295 123.5,8.5C 123.833,7.83333 124.167,7.16667 124.5,6.5C 125.754,9.61923 127.754,12.1192 130.5,14C 129.051,15.117 127.384,15.7837 125.5,16C 127.254,18.8274 129.088,18.9941 131,16.5C 133.055,17.672 133.722,19.3386 133,21.5C 132.617,20.944 132.117,20.6107 131.5,20.5C 130.399,19.4017 129.066,19.235 127.5,20C 126.167,21 126.167,22 127.5,23C 125.892,23.4687 124.225,24.1354 122.5,25C 123.308,25.3076 123.975,25.8076 124.5,26.5C 120.82,28.3825 116.987,28.3825 113,26.5C 112.708,28.9516 112.541,31.4516 112.5,34C 114.728,37.6678 114.228,41.1678 111,44.5C 109.609,42.2849 107.943,42.2849 106,44.5C 105.517,43.552 105.351,42.552 105.5,41.5C 106.552,41.6495 107.552,41.4828 108.5,41C 106.776,40.5518 106.109,39.7185 106.5,38.5C 105.636,40.1965 104.303,41.3632 102.5,42C 105.167,44.2403 104.667,45.7403 101,46.5C 99.984,45.3659 99.3173,45.6992 99,47.5C 97.8173,46.269 96.6507,46.269 95.5,47.5C 96.9023,48.8425 96.5689,49.6758 94.5,50C 96.724,52.1486 98.224,51.6486 99,48.5C 99.9025,49.7014 101.069,50.5348 102.5,51C 101.833,51.6667 101.167,52.3333 100.5,53C 102.579,53.8077 104.579,53.641 106.5,52.5C 105.833,51.8333 105.167,51.1667 104.5,50.5C 106.959,49.209 108.459,47.209 109,44.5C 110.945,45.8633 113.112,46.6966 115.5,47C 111.804,49.414 112.304,49.914 117,48.5C 119.831,48.9583 122.164,50.2916 124,52.5C 124.718,51.5494 125.551,51.3828 126.5,52C 124.076,53.6134 121.743,54.9467 119.5,56C 122.478,55.4106 125.478,55.7439 128.5,57C 126.522,59.0149 124.688,58.8483 123,56.5C 122.5,57.5 122,58.5 121.5,59.5C 124.203,59.2597 126.87,59.7597 129.5,61C 127.02,62.9104 125.353,65.4104 124.5,68.5C 125.381,69.9705 126.714,70.8038 128.5,71C 125.288,72.7091 125.122,74.2091 128,75.5C 128.333,75.1667 128.667,74.8333 129,74.5C 129.37,76.6638 130.204,78.6638 131.5,80.5C 129.326,81.8932 127.493,81.5598 126,79.5C 125.316,80.7839 125.483,81.9505 126.5,83C 124.393,84.2635 123.393,86.0968 123.5,88.5C 122.765,80.6406 119.931,73.3072 115,66.5C 108.381,60.0671 100.548,56.4004 91.5,55.5C 95.449,55.3068 95.449,54.8068 91.5,54C 94.5892,50.7189 93.9225,48.3855 89.5,47C 90.6853,45.647 92.0186,44.4803 93.5,43.5C 91.6706,41.8442 90.3372,39.8442 89.5,37.5C 91.7837,36.4182 92.9504,34.7516 93,32.5C 89.7927,35.1502 89.2927,34.9835 91.5,32C 90.6721,31.0853 89.6721,30.4186 88.5,30C 89.8333,29 89.8333,28 88.5,27C 89.9308,26.5348 91.0975,25.7014 92,24.5C 92.6891,25.3567 93.5224,26.0233 94.5,26.5C 96.3279,25.2048 98.3279,24.2048 100.5,23.5C 99.1667,22.8333 97.8333,22.1667 96.5,21.5C 96.8333,20.8333 97.1667,20.1667 97.5,19.5C 95.3451,18.5896 93.3451,17.4229 91.5,16C 95.3605,15.4309 95.3605,14.5976 91.5,13.5C 93.8982,12.2717 95.7316,12.9384 97,15.5C 98.3974,12.6928 100.231,12.1928 102.5,14C 100.119,15.2465 100.453,15.5798 103.5,15C 105.891,13.6914 105.891,12.6914 103.5,12C 104,11.5 104.5,11 105,10.5C 106.183,11.731 107.349,11.731 108.5,10.5C 109.866,8.77312 111.2,7.10646 112.5,5.5 Z"/></g>
<g><path style="opacity:1" fill="#252525" d="M 54.5,1.5 C 53.6016,2.15767 52.6016,2.82434 51.5,3.5C 51.6236,4.10667 51.9569,4.44001 52.5,4.5C 40.6738,6.65686 33.3404,13.6569 30.5,25.5C 29.8826,25.3893 29.3826,25.056 29,24.5C 28.7216,25.4158 28.2216,26.0825 27.5,26.5C 30.3723,11.63 39.3723,3.29668 54.5,1.5 Z"/></g>
<g><path style="opacity:1" fill="#313131" d="M 11.5,10.5 C 17.873,10.3677 20.373,13.3677 19,19.5C 14.5216,23.731 10.5216,23.3977 7,18.5C 6.53253,14.7853 8.03253,12.1186 11.5,10.5 Z"/></g>
<g><path style="opacity:1" fill="#908f94" d="M 63.5,4.5 C 80.0085,4.17023 96.3419,4.50356 112.5,5.5C 111.2,7.10646 109.866,8.77312 108.5,10.5C 107.349,11.731 106.183,11.731 105,10.5C 104.5,11 104,11.5 103.5,12C 105.891,12.6914 105.891,13.6914 103.5,15C 100.453,15.5798 100.119,15.2465 102.5,14C 100.231,12.1928 98.3974,12.6928 97,15.5C 95.7316,12.9384 93.8982,12.2717 91.5,13.5C 95.3605,14.5976 95.3605,15.4309 91.5,16C 93.3451,17.4229 95.3451,18.5896 97.5,19.5C 97.1667,20.1667 96.8333,20.8333 96.5,21.5C 97.8333,22.1667 99.1667,22.8333 100.5,23.5C 98.3279,24.2048 96.3279,25.2048 94.5,26.5C 93.5224,26.0233 92.6891,25.3567 92,24.5C 91.0975,25.7014 89.9308,26.5348 88.5,27C 89.8333,28 89.8333,29 88.5,30C 89.6721,30.4186 90.6721,31.0853 91.5,32C 89.2927,34.9835 89.7927,35.1502 93,32.5C 92.9504,34.7516 91.7837,36.4182 89.5,37.5C 90.3372,39.8442 91.6706,41.8442 93.5,43.5C 92.0186,44.4803 90.6853,45.647 89.5,47C 93.9225,48.3855 94.5892,50.7189 91.5,54C 95.449,54.8068 95.449,55.3068 91.5,55.5C 88.8333,55.5 86.1667,55.5 83.5,55.5C 82.8836,53.5829 81.5503,52.4162 79.5,52C 81.7871,50.5728 82.1205,48.7394 80.5,46.5C 81.7366,45.7193 82.7366,44.7193 83.5,43.5C 82.6086,42.4104 81.6086,42.4104 80.5,43.5C 78.9539,42.316 77.2873,41.316 75.5,40.5C 76.4709,39.0379 76.1376,37.7046 74.5,36.5C 75.1279,34.7419 76.1279,33.2419 77.5,32C 73.9297,31.4107 73.5964,30.0774 76.5,28C 76.0245,26.2367 75.3578,24.57 74.5,23C 78.2126,21.8372 78.2126,20.3372 74.5,18.5C 75.8955,17.784 77.5622,17.6173 79.5,18C 76.8693,16.3091 77.2027,15.1424 80.5,14.5C 79.2402,13.6184 78.0736,12.6184 77,11.5C 75.6631,13.0037 73.9964,14.0037 72,14.5C 70.7964,13.5294 70.2964,12.5294 70.5,11.5C 69.5,14.1667 68.5,14.1667 67.5,11.5C 68.1667,10.8333 68.8333,10.1667 69.5,9.5C 68.1667,8.83333 66.8333,8.16667 65.5,7.5C 65.7093,6.91395 66.0426,6.41395 66.5,6C 65.2625,5.76791 64.2625,5.26791 63.5,4.5 Z"/></g>
<g><path style="opacity:1" fill="#454545" d="M 10.5,24.5 C 12.2884,23.3775 14.2884,23.2109 16.5,24C 17.756,24.4169 18.4226,25.2502 18.5,26.5C 15.7626,25.9173 13.0959,26.5839 10.5,28.5C 9.83333,28.3333 9.16667,28.1667 8.5,28C 9.55054,26.6152 10.8839,25.6152 12.5,25C 11.9056,24.5357 11.2389,24.369 10.5,24.5 Z"/></g>
<g><path style="opacity:1" fill="#8b8a8f" d="M 52.5,4.5 C 53.1667,4.5 53.8333,4.5 54.5,4.5C 57.5,4.5 60.5,4.5 63.5,4.5C 64.2625,5.26791 65.2625,5.76791 66.5,6C 66.0426,6.41395 65.7093,6.91395 65.5,7.5C 66.8333,8.16667 68.1667,8.83333 69.5,9.5C 68.8333,10.1667 68.1667,10.8333 67.5,11.5C 68.5,14.1667 69.5,14.1667 70.5,11.5C 70.2964,12.5294 70.7964,13.5294 72,14.5C 73.9964,14.0037 75.6631,13.0037 77,11.5C 78.0736,12.6184 79.2402,13.6184 80.5,14.5C 77.2027,15.1424 76.8693,16.3091 79.5,18C 77.5622,17.6173 75.8955,17.784 74.5,18.5C 78.2126,20.3372 78.2126,21.8372 74.5,23C 75.3578,24.57 76.0245,26.2367 76.5,28C 73.5964,30.0774 73.9297,31.4107 77.5,32C 76.1279,33.2419 75.1279,34.7419 74.5,36.5C 76.1376,37.7046 76.4709,39.0379 75.5,40.5C 77.2873,41.316 78.9539,42.316 80.5,43.5C 81.6086,42.4104 82.6086,42.4104 83.5,43.5C 82.7366,44.7193 81.7366,45.7193 80.5,46.5C 82.1205,48.7394 81.7871,50.5728 79.5,52C 81.5503,52.4162 82.8836,53.5829 83.5,55.5C 65.5,55.5 47.5,55.5 29.5,55.5C 29.5,50.1667 29.5,44.8333 29.5,39.5C 29.2834,34.7697 29.6167,30.1031 30.5,25.5C 33.3404,13.6569 40.6738,6.65686 52.5,4.5 Z"/></g>
<g><path style="opacity:0.573" fill="#686869" d="M 145.5,19.5 C 146.924,21.5145 147.59,23.8478 147.5,26.5C 146.076,24.4855 145.41,22.1522 145.5,19.5 Z"/></g>
<g><path style="opacity:1" fill="#282828" d="M 10.5,24.5 C 11.2389,24.369 11.9056,24.5357 12.5,25C 10.8839,25.6152 9.55054,26.6152 8.5,28C 9.16667,28.1667 9.83333,28.3333 10.5,28.5C 13.0959,26.5839 15.7626,25.9173 18.5,26.5C 20.3581,31.4241 18.5248,34.4241 13,35.5C 7.17762,34.0552 5.51095,30.7219 8,25.5C 8.67076,24.7476 9.5041,24.4142 10.5,24.5 Z"/></g>
<g><path style="opacity:1" fill="#86858a" d="M 54.5,4.5 C 77.0162,3.21479 99.6829,3.21479 122.5,4.5C 137.323,7.75997 144.823,17.0933 145,32.5C 145.825,43.3414 145.659,54.008 144.5,64.5C 144.665,61.1501 144.498,57.8168 144,54.5C 142.245,59.6314 141.079,64.9647 140.5,70.5C 139.5,71.8333 138.5,71.8333 137.5,70.5C 136.833,71.1667 136.167,71.8333 135.5,72.5C 135.781,68.3594 135.781,64.526 135.5,61C 134.003,59.1294 132.003,58.1294 129.5,58C 131.825,56.1188 131.825,54.4522 129.5,53C 133.595,46.6352 133.095,46.1352 128,51.5C 127.735,49.8374 128.235,48.3374 129.5,47C 128.424,45.2739 128.257,43.4406 129,41.5C 129.71,40.0267 130.876,39.3601 132.5,39.5C 132.323,37.0194 133.323,35.1861 135.5,34C 134.327,30.8897 134.827,30.723 137,33.5C 137.167,33.1667 137.333,32.8333 137.5,32.5C 134.91,31.0732 133.244,28.9065 132.5,26C 131.552,25.5172 130.552,25.3505 129.5,25.5C 129.077,23.2188 129.744,21.5521 131.5,20.5C 132.117,20.6107 132.617,20.944 133,21.5C 133.722,19.3386 133.055,17.672 131,16.5C 129.088,18.9941 127.254,18.8274 125.5,16C 127.384,15.7837 129.051,15.117 130.5,14C 127.754,12.1192 125.754,9.61923 124.5,6.5C 124.167,7.16667 123.833,7.83333 123.5,8.5C 120.301,5.94295 116.634,4.94295 112.5,5.5C 96.3419,4.50356 80.0085,4.17023 63.5,4.5C 60.5,4.5 57.5,4.5 54.5,4.5 Z"/></g>
<g><path style="opacity:0.576" fill="#7c7c7c" d="M 147.5,28.5 C 148.167,30.1667 148.833,31.8333 149.5,33.5C 149.5,35.8333 149.5,38.1667 149.5,40.5C 148.833,40.1667 148.167,39.8333 147.5,39.5C 147.5,35.8333 147.5,32.1667 147.5,28.5 Z"/></g>
<g><path style="opacity:0.982" fill="#585858" d="M 27.5,26.5 C 27.5,36.8333 27.5,47.1667 27.5,57.5C 26.1667,57.5 24.8333,57.5 23.5,57.5C 24.209,56.596 25.209,56.2627 26.5,56.5C 25.5149,46.3356 25.8482,36.3356 27.5,26.5 Z"/></g>
<g><path style="opacity:0.834" fill="#4a4a4b" d="M 147.5,39.5 C 148.167,39.8333 148.833,40.1667 149.5,40.5C 149.5,40.8333 149.5,41.1667 149.5,41.5C 148.833,45.8333 148.167,50.1667 147.5,54.5C 147.5,49.5 147.5,44.5 147.5,39.5 Z"/></g>
<g><path style="opacity:0.639" fill="#787879" d="M 149.5,41.5 C 149.5,47.8333 149.5,54.1667 149.5,60.5C 148.833,62.5 148.167,64.5 147.5,66.5C 147.5,62.5 147.5,58.5 147.5,54.5C 148.167,50.1667 148.833,45.8333 149.5,41.5 Z"/></g>
<g><path style="opacity:1" fill="#444348" d="M 29.5,39.5 C 29.5,44.8333 29.5,50.1667 29.5,55.5C 47.5,55.5 65.5,55.5 83.5,55.5C 86.1667,55.5 88.8333,55.5 91.5,55.5C 100.548,56.4004 108.381,60.0671 115,66.5C 119.931,73.3072 122.765,80.6406 123.5,88.5C 123.833,88.5 124.167,88.5 124.5,88.5C 123.081,89.4511 121.415,89.7845 119.5,89.5C 119.682,72.1945 111.349,62.0279 94.5,59C 72.8359,58.5 51.1692,58.3334 29.5,58.5C 28.2299,52.0371 28.2299,45.7038 29.5,39.5 Z"/></g>
<g><path style="opacity:1" fill="#1e1e1f" d="M 124.5,2.5 C 134.788,4.13953 141.788,9.80619 145.5,19.5C 145.41,22.1522 146.076,24.4855 147.5,26.5C 147.5,27.1667 147.5,27.8333 147.5,28.5C 147.5,32.1667 147.5,35.8333 147.5,39.5C 147.5,44.5 147.5,49.5 147.5,54.5C 147.5,58.5 147.5,62.5 147.5,66.5C 145.307,81.027 136.974,89.6937 122.5,92.5C 122.918,91.7784 123.584,91.2784 124.5,91C 122.866,90.5065 121.199,90.3398 119.5,90.5C 119.5,90.1667 119.5,89.8333 119.5,89.5C 121.415,89.7845 123.081,89.4511 124.5,88.5C 137.26,85.6771 143.927,77.6771 144.5,64.5C 145.659,54.008 145.825,43.3414 145,32.5C 144.823,17.0933 137.323,7.75997 122.5,4.5C 123.5,4.16667 124.167,3.5 124.5,2.5 Z"/></g>
<g><path style="opacity:1" fill="#8d8b91" d="M 29.5,58.5 C 51.1692,58.3334 72.8359,58.5 94.5,59C 111.349,62.0279 119.682,72.1945 119.5,89.5C 119.5,89.8333 119.5,90.1667 119.5,90.5C 95.7679,90.9699 72.1012,90.4699 48.5,89C 35.2302,83.3175 28.8969,73.1508 29.5,58.5 Z"/></g>
<g><path style="opacity:1" fill="#8b898e" d="M 131.5,20.5 C 129.744,21.5521 129.077,23.2188 129.5,25.5C 130.552,25.3505 131.552,25.5172 132.5,26C 133.244,28.9065 134.91,31.0732 137.5,32.5C 137.333,32.8333 137.167,33.1667 137,33.5C 134.827,30.723 134.327,30.8897 135.5,34C 133.323,35.1861 132.323,37.0194 132.5,39.5C 130.876,39.3601 129.71,40.0267 129,41.5C 128.257,43.4406 128.424,45.2739 129.5,47C 128.235,48.3374 127.735,49.8374 128,51.5C 133.095,46.1352 133.595,46.6352 129.5,53C 131.825,54.4522 131.825,56.1188 129.5,58C 132.003,58.1294 134.003,59.1294 135.5,61C 135.781,64.526 135.781,68.3594 135.5,72.5C 136.167,71.8333 136.833,71.1667 137.5,70.5C 138.5,71.8333 139.5,71.8333 140.5,70.5C 141.079,64.9647 142.245,59.6314 144,54.5C 144.498,57.8168 144.665,61.1501 144.5,64.5C 143.927,77.6771 137.26,85.6771 124.5,88.5C 124.167,88.5 123.833,88.5 123.5,88.5C 123.393,86.0968 124.393,84.2635 126.5,83C 125.483,81.9505 125.316,80.7839 126,79.5C 127.493,81.5598 129.326,81.8932 131.5,80.5C 130.204,78.6638 129.37,76.6638 129,74.5C 128.667,74.8333 128.333,75.1667 128,75.5C 125.122,74.2091 125.288,72.7091 128.5,71C 126.714,70.8038 125.381,69.9705 124.5,68.5C 125.353,65.4104 127.02,62.9104 129.5,61C 126.87,59.7597 124.203,59.2597 121.5,59.5C 122,58.5 122.5,57.5 123,56.5C 124.688,58.8483 126.522,59.0149 128.5,57C 125.478,55.7439 122.478,55.4106 119.5,56C 121.743,54.9467 124.076,53.6134 126.5,52C 125.551,51.3828 124.718,51.5494 124,52.5C 122.164,50.2916 119.831,48.9583 117,48.5C 112.304,49.914 111.804,49.414 115.5,47C 113.112,46.6966 110.945,45.8633 109,44.5C 108.459,47.209 106.959,49.209 104.5,50.5C 105.167,51.1667 105.833,51.8333 106.5,52.5C 104.579,53.641 102.579,53.8077 100.5,53C 101.167,52.3333 101.833,51.6667 102.5,51C 101.069,50.5348 99.9025,49.7014 99,48.5C 98.224,51.6486 96.724,52.1486 94.5,50C 96.5689,49.6758 96.9023,48.8425 95.5,47.5C 96.6507,46.269 97.8173,46.269 99,47.5C 99.3173,45.6992 99.984,45.3659 101,46.5C 104.667,45.7403 105.167,44.2403 102.5,42C 104.303,41.3632 105.636,40.1965 106.5,38.5C 106.109,39.7185 106.776,40.5518 108.5,41C 107.552,41.4828 106.552,41.6495 105.5,41.5C 105.351,42.552 105.517,43.552 106,44.5C 107.943,42.2849 109.609,42.2849 111,44.5C 114.228,41.1678 114.728,37.6678 112.5,34C 112.541,31.4516 112.708,28.9516 113,26.5C 116.987,28.3825 120.82,28.3825 124.5,26.5C 123.975,25.8076 123.308,25.3076 122.5,25C 124.225,24.1354 125.892,23.4687 127.5,23C 126.167,22 126.167,21 127.5,20C 129.066,19.235 130.399,19.4017 131.5,20.5 Z"/></g>
<g><path style="opacity:1" fill="#131214" d="M 30.5,25.5 C 29.6167,30.1031 29.2834,34.7697 29.5,39.5C 28.2299,45.7038 28.2299,52.0371 29.5,58.5C 28.8969,73.1508 35.2302,83.3175 48.5,89C 72.1012,90.4699 95.7679,90.9699 119.5,90.5C 121.199,90.3398 122.866,90.5065 124.5,91C 123.584,91.2784 122.918,91.7784 122.5,92.5C 121.702,102.344 121.036,112.344 120.5,122.5C 119.833,122.5 119.167,122.5 118.5,122.5C 118.927,118.176 119.261,113.842 119.5,109.5C 120.489,104.025 120.822,98.358 120.5,92.5C 115.968,92.1818 111.634,92.5151 107.5,93.5C 95.1667,93.5 82.8333,93.5 70.5,93.5C 63.8039,93.609 57.1373,93.2757 50.5,92.5C 37.6975,89.0261 30.0308,80.6927 27.5,67.5C 27.5,64.8333 27.5,62.1667 27.5,59.5C 26.1667,59.5 24.8333,59.5 23.5,59.5C 22.7611,59.631 22.0944,59.4643 21.5,59C 22.4158,58.7216 23.0825,58.2216 23.5,57.5C 24.8333,57.5 26.1667,57.5 27.5,57.5C 27.5,47.1667 27.5,36.8333 27.5,26.5C 28.2216,26.0825 28.7216,25.4158 29,24.5C 29.3826,25.056 29.8826,25.3893 30.5,25.5 Z"/></g>
<g><path style="opacity:1" fill="#88868d" d="M 23.5,59.5 C 24.8333,59.5 26.1667,59.5 27.5,59.5C 27.5,62.1667 27.5,64.8333 27.5,67.5C 26.8347,65.3021 26.1681,62.9688 25.5,60.5C 23.5466,61.7607 21.5466,62.9274 19.5,64C 19.8333,64.3333 20.1667,64.6667 20.5,65C 19.0611,65.9906 18.0611,67.324 17.5,69C 18.6872,70.0195 19.6872,71.1861 20.5,72.5C 20.0623,73.5063 19.3957,73.5063 18.5,72.5C 16.0711,73.8551 14.7377,75.5217 14.5,77.5C 15.6888,78.4287 17.0222,78.762 18.5,78.5C 18.6715,80.4918 18.0049,82.1585 16.5,83.5C 17.9108,85.0175 17.7441,86.3508 16,87.5C 15.237,84.9365 14.737,84.9365 14.5,87.5C 15.963,90.4079 18.1297,91.0746 21,89.5C 23.6436,92.3383 23.8102,95.1717 21.5,98C 23.7671,99.0812 23.9338,100.581 22,102.5C 20.9887,101.663 19.8221,101.33 18.5,101.5C 18.6495,100.448 18.4828,99.448 18,98.5C 16.1797,99.9019 14.3463,101.235 12.5,102.5C 14.0982,102.61 15.7648,102.943 17.5,103.5C 18.3857,104.325 18.719,105.325 18.5,106.5C 16.712,106.215 15.0453,106.548 13.5,107.5C 14.9337,108.23 16.1004,109.23 17,110.5C 17.3333,109.833 17.6667,109.167 18,108.5C 19.8402,109.833 20.3402,109.666 19.5,108C 20,107.5 20.5,107 21,106.5C 23.0338,107.743 23.8671,109.243 23.5,111C 22.2068,111.49 20.8734,111.657 19.5,111.5C 19.741,114.999 18.9076,115.332 17,112.5C 16.6411,115.544 15.9745,115.878 15,113.5C 13.2559,114.649 13.0892,115.983 14.5,117.5C 11.8125,122.009 12.8125,122.676 17.5,119.5C 18.3857,120.325 18.719,121.325 18.5,122.5C 17.1266,122.343 15.7932,122.51 14.5,123C 15.6956,123.654 15.6956,124.154 14.5,124.5C 11.9968,123.45 10.4968,124.45 10,127.5C 8.28663,126.122 6.9533,124.455 6,122.5C 5.53566,123.094 5.36899,123.761 5.5,124.5C 3.99384,116.555 3.32717,108.388 3.5,100C 1.98206,88.6571 4.14873,78.1571 10,68.5C 13.8258,64.3476 18.3258,61.3476 23.5,59.5 Z"/></g>
<g><path style="opacity:1" fill="#28282a" d="M 107.5,93.5 C 111.634,92.5151 115.968,92.1818 120.5,92.5C 120.822,98.358 120.489,104.025 119.5,109.5C 119.5,104.167 119.5,98.8333 119.5,93.5C 115.5,93.5 111.5,93.5 107.5,93.5 Z"/></g>
<g><path style="opacity:1" fill="#8c8b8e" d="M 70.5,93.5 C 82.8333,93.5 95.1667,93.5 107.5,93.5C 111.5,93.5 115.5,93.5 119.5,93.5C 119.5,98.8333 119.5,104.167 119.5,109.5C 119.261,113.842 118.927,118.176 118.5,122.5C 117.631,126.759 115.964,130.759 113.5,134.5C 112.17,133.168 110.503,132.335 108.5,132C 110.167,131.667 111.833,131.333 113.5,131C 112.663,129.989 112.33,128.822 112.5,127.5C 110.284,127.725 108.617,126.892 107.5,125C 108.766,124.691 109.933,124.191 111,123.5C 112.049,125.107 113.549,125.773 115.5,125.5C 115.916,122.594 116.582,119.761 117.5,117C 117.625,109.509 117.291,102.009 116.5,94.5C 112.818,93.7253 110.318,95.0586 109,98.5C 106.2,97.5574 103.366,97.7241 100.5,99C 103.911,100.748 104.578,102.915 102.5,105.5C 104.991,106.541 104.991,107.374 102.5,108C 104.167,110.333 105.833,112.667 107.5,115C 106.241,115.923 104.908,116.757 103.5,117.5C 104.255,120.219 103.589,122.719 101.5,125C 101.833,125.333 102.167,125.667 102.5,126C 100.112,126.303 97.9449,127.137 96,128.5C 95.1247,126.487 93.7913,126.487 92,128.5C 91.196,127.196 90.0293,126.529 88.5,126.5C 84.5474,127.362 80.5474,127.695 76.5,127.5C 75.5222,127.189 74.8555,126.522 74.5,125.5C 75.0471,122.073 75.3804,118.739 75.5,115.5C 71.551,115.307 71.551,114.807 75.5,114C 74.8784,110.613 74.5451,106.946 74.5,103C 75.0441,100.6 75.7108,98.267 76.5,96C 84.5,95.6667 92.5,95.3333 100.5,95C 90.3249,94.8302 80.3249,94.3302 70.5,93.5 Z"/></g>
<g><path style="opacity:1" fill="#8d8b90" d="M 27.5,67.5 C 30.0308,80.6927 37.6975,89.0261 50.5,92.5C 50.0618,92.4346 49.7284,92.6012 49.5,93C 51.229,94.7889 51.8957,96.9556 51.5,99.5C 54.7935,99.259 57.7935,100.092 60.5,102C 57.0458,102.293 56.7124,103.626 59.5,106C 56.9041,107.588 54.5708,109.588 52.5,112C 54.9962,113.08 57.3295,114.414 59.5,116C 57.6063,117.079 57.273,118.413 58.5,120C 57.2624,119.923 56.2624,120.089 55.5,120.5C 57.1667,121.167 58.8333,121.833 60.5,122.5C 59.133,122.504 57.633,123.17 56,124.5C 55.6924,123.692 55.1924,123.025 54.5,122.5C 54.4361,123.365 54.1027,124.365 53.5,125.5C 55.2592,126.754 56.7592,126.421 58,124.5C 59.3204,124.799 60.8204,124.966 62.5,125C 60.4311,125.324 60.0977,126.158 61.5,127.5C 60.3112,128.429 58.9778,128.762 57.5,128.5C 57.3601,130.124 58.0267,131.29 59.5,132C 57.2849,133.943 57.2849,135.609 59.5,137C 57.8917,137.469 56.2251,138.135 54.5,139C 55.5,139.833 56.5,140.667 57.5,141.5C 53.4831,142.711 49.1498,143.711 44.5,144.5C 36.7299,144.805 29.0632,144.138 21.5,142.5C 12.3178,139.981 6.98451,133.981 5.5,124.5C 5.36899,123.761 5.53566,123.094 6,122.5C 6.9533,124.455 8.28663,126.122 10,127.5C 10.4968,124.45 11.9968,123.45 14.5,124.5C 15.6956,124.154 15.6956,123.654 14.5,123C 15.7932,122.51 17.1266,122.343 18.5,122.5C 18.719,121.325 18.3857,120.325 17.5,119.5C 12.8125,122.676 11.8125,122.009 14.5,117.5C 13.0892,115.983 13.2559,114.649 15,113.5C 15.9745,115.878 16.6411,115.544 17,112.5C 18.9076,115.332 19.741,114.999 19.5,111.5C 20.8734,111.657 22.2068,111.49 23.5,111C 23.8671,109.243 23.0338,107.743 21,106.5C 20.5,107 20,107.5 19.5,108C 20.3402,109.666 19.8402,109.833 18,108.5C 17.6667,109.167 17.3333,109.833 17,110.5C 16.1004,109.23 14.9337,108.23 13.5,107.5C 15.0453,106.548 16.712,106.215 18.5,106.5C 18.719,105.325 18.3857,104.325 17.5,103.5C 15.7648,102.943 14.0982,102.61 12.5,102.5C 14.3463,101.235 16.1797,99.9019 18,98.5C 18.4828,99.448 18.6495,100.448 18.5,101.5C 19.8221,101.33 20.9887,101.663 22,102.5C 23.9338,100.581 23.7671,99.0812 21.5,98C 23.8102,95.1717 23.6436,92.3383 21,89.5C 18.1297,91.0746 15.963,90.4079 14.5,87.5C 14.737,84.9365 15.237,84.9365 16,87.5C 17.7441,86.3508 17.9108,85.0175 16.5,83.5C 18.0049,82.1585 18.6715,80.4918 18.5,78.5C 17.0222,78.762 15.6888,78.4287 14.5,77.5C 14.7377,75.5217 16.0711,73.8551 18.5,72.5C 19.3957,73.5063 20.0623,73.5063 20.5,72.5C 19.6872,71.1861 18.6872,70.0195 17.5,69C 18.0611,67.324 19.0611,65.9906 20.5,65C 20.1667,64.6667 19.8333,64.3333 19.5,64C 21.5466,62.9274 23.5466,61.7607 25.5,60.5C 26.1681,62.9688 26.8347,65.3021 27.5,67.5 Z"/></g>
<g><path style="opacity:0.627" fill="#666666" d="M 1.5,81.5 C 1.82826,93.3453 1.49493,105.012 0.5,116.5C 0.166667,116.5 -0.166667,116.5 -0.5,116.5C -0.5,106.5 -0.5,96.5 -0.5,86.5C 0.166667,84.8333 0.833333,83.1667 1.5,81.5 Z"/></g>
<g><path style="opacity:1" fill="#333333" d="M 130.5,109.5 C 137.016,110.222 139.183,113.555 137,119.5C 131.596,122.953 127.429,121.953 124.5,116.5C 125.098,115.205 125.598,113.872 126,112.5C 127.652,111.601 129.152,110.601 130.5,109.5 Z"/></g>
<g><path style="opacity:0.922" fill="#4a4a4b" d="M 122.5,92.5 C 122.299,95.7281 122.633,98.8948 123.5,102C 123.035,110.371 122.035,118.538 120.5,126.5C 120.5,125.167 120.5,123.833 120.5,122.5C 121.036,112.344 121.702,102.344 122.5,92.5 Z"/></g>
<g><path style="opacity:1" fill="#222223" d="M 23.5,57.5 C 23.0825,58.2216 22.4158,58.7216 21.5,59C 22.0944,59.4643 22.7611,59.631 23.5,59.5C 18.3258,61.3476 13.8258,64.3476 10,68.5C 4.14873,78.1571 1.98206,88.6571 3.5,100C 3.32717,108.388 3.99384,116.555 5.5,124.5C 6.98451,133.981 12.3178,139.981 21.5,142.5C 22.6715,143.345 24.0048,144.011 25.5,144.5C 26.0998,145.9 27.0998,146.9 28.5,147.5C 10.7818,144.78 1.44844,134.447 0.5,116.5C 1.49493,105.012 1.82826,93.3453 1.5,81.5C 3.65004,68.6856 10.9834,60.6856 23.5,57.5 Z"/></g>
<g><path style="opacity:1" fill="#908f94" d="M 50.5,92.5 C 57.1373,93.2757 63.8039,93.609 70.5,93.5C 80.3249,94.3302 90.3249,94.8302 100.5,95C 92.5,95.3333 84.5,95.6667 76.5,96C 75.7108,98.267 75.0441,100.6 74.5,103C 74.5451,106.946 74.8784,110.613 75.5,114C 71.551,114.807 71.551,115.307 75.5,115.5C 75.3804,118.739 75.0471,122.073 74.5,125.5C 74.8555,126.522 75.5222,127.189 76.5,127.5C 76.6309,128.376 76.2975,129.043 75.5,129.5C 74.7193,128.263 73.7193,127.263 72.5,126.5C 72.1667,126.833 71.8333,127.167 71.5,127.5C 72.1667,128.167 72.8333,128.833 73.5,129.5C 71.1018,130.728 69.2684,130.062 68,127.5C 66.75,130.171 64.9167,132.337 62.5,134C 64.0745,134.336 65.4078,135.169 66.5,136.5C 68.4531,135.976 70.1198,134.976 71.5,133.5C 72.4776,133.977 73.3109,134.643 74,135.5C 74.7253,133.842 75.892,133.342 77.5,134C 76.8333,134.333 76.1667,134.667 75.5,135C 77.5219,137.184 79.8553,139.017 82.5,140.5C 84.4154,139.265 85.4154,137.932 85.5,136.5C 86.2868,137.242 86.9535,138.075 87.5,139C 85.8078,140.401 85.1412,142.234 85.5,144.5C 71.8333,144.5 58.1667,144.5 44.5,144.5C 49.1498,143.711 53.4831,142.711 57.5,141.5C 56.5,140.667 55.5,139.833 54.5,139C 56.2251,138.135 57.8917,137.469 59.5,137C 57.2849,135.609 57.2849,133.943 59.5,132C 58.0267,131.29 57.3601,130.124 57.5,128.5C 58.9778,128.762 60.3112,128.429 61.5,127.5C 60.0977,126.158 60.4311,125.324 62.5,125C 60.8204,124.966 59.3204,124.799 58,124.5C 56.7592,126.421 55.2592,126.754 53.5,125.5C 54.1027,124.365 54.4361,123.365 54.5,122.5C 55.1924,123.025 55.6924,123.692 56,124.5C 57.633,123.17 59.133,122.504 60.5,122.5C 58.8333,121.833 57.1667,121.167 55.5,120.5C 56.2624,120.089 57.2624,119.923 58.5,120C 57.273,118.413 57.6063,117.079 59.5,116C 57.3295,114.414 54.9962,113.08 52.5,112C 54.5708,109.588 56.9041,107.588 59.5,106C 56.7124,103.626 57.0458,102.293 60.5,102C 57.7935,100.092 54.7935,99.259 51.5,99.5C 51.8957,96.9556 51.229,94.7889 49.5,93C 49.7284,92.6012 50.0618,92.4346 50.5,92.5 Z"/></g>
<g><path style="opacity:1" fill="#252527" d="M 118.5,122.5 C 119.167,122.5 119.833,122.5 120.5,122.5C 120.5,123.833 120.5,125.167 120.5,126.5C 116.654,139.337 107.987,146.337 94.5,147.5C 95.2625,146.732 96.2625,146.232 97.5,146C 95.8659,145.506 94.1992,145.34 92.5,145.5C 92.5,145.167 92.5,144.833 92.5,144.5C 100.985,144.089 107.985,140.756 113.5,134.5C 115.964,130.759 117.631,126.759 118.5,122.5 Z"/></g>
<g><path style="opacity:1" fill="#444446" d="M 136.5,124.5 C 135.778,124.918 135.278,125.584 135,126.5C 132.834,125.224 130.834,125.557 129,127.5C 127.989,126.944 127.156,126.278 126.5,125.5C 129.552,122.021 132.886,121.687 136.5,124.5 Z"/></g>
<g><path style="opacity:1" fill="#8c8a90" d="M 113.5,134.5 C 107.985,140.756 100.985,144.089 92.5,144.5C 90.1667,144.5 87.8333,144.5 85.5,144.5C 85.1412,142.234 85.8078,140.401 87.5,139C 86.9535,138.075 86.2868,137.242 85.5,136.5C 85.4154,137.932 84.4154,139.265 82.5,140.5C 79.8553,139.017 77.5219,137.184 75.5,135C 76.1667,134.667 76.8333,134.333 77.5,134C 75.892,133.342 74.7253,133.842 74,135.5C 73.3109,134.643 72.4776,133.977 71.5,133.5C 70.1198,134.976 68.4531,135.976 66.5,136.5C 65.4078,135.169 64.0745,134.336 62.5,134C 64.9167,132.337 66.75,130.171 68,127.5C 69.2684,130.062 71.1018,130.728 73.5,129.5C 72.8333,128.833 72.1667,128.167 71.5,127.5C 71.8333,127.167 72.1667,126.833 72.5,126.5C 73.7193,127.263 74.7193,128.263 75.5,129.5C 76.2975,129.043 76.6309,128.376 76.5,127.5C 80.5474,127.695 84.5474,127.362 88.5,126.5C 90.0293,126.529 91.196,127.196 92,128.5C 93.7913,126.487 95.1247,126.487 96,128.5C 97.9449,127.137 100.112,126.303 102.5,126C 102.167,125.667 101.833,125.333 101.5,125C 103.589,122.719 104.255,120.219 103.5,117.5C 104.908,116.757 106.241,115.923 107.5,115C 105.833,112.667 104.167,110.333 102.5,108C 104.991,107.374 104.991,106.541 102.5,105.5C 104.578,102.915 103.911,100.748 100.5,99C 103.366,97.7241 106.2,97.5574 109,98.5C 110.318,95.0586 112.818,93.7253 116.5,94.5C 117.291,102.009 117.625,109.509 117.5,117C 116.582,119.761 115.916,122.594 115.5,125.5C 113.549,125.773 112.049,125.107 111,123.5C 109.933,124.191 108.766,124.691 107.5,125C 108.617,126.892 110.284,127.725 112.5,127.5C 112.33,128.822 112.663,129.989 113.5,131C 111.833,131.333 110.167,131.667 108.5,132C 110.503,132.335 112.17,133.168 113.5,134.5 Z"/></g>
<g><path style="opacity:0.973" fill="#525252" d="M 126.5,125.5 C 126.5,127.5 126.5,129.5 126.5,131.5C 123.833,129.5 123.833,127.5 126.5,125.5 Z"/></g>
<g><path style="opacity:1" fill="#131214" d="M 136.5,124.5 C 137.338,124.842 137.672,125.508 137.5,126.5C 137.649,127.552 137.483,128.552 137,129.5C 135.933,127.717 134.433,127.217 132.5,128C 130.76,129.517 129.094,131.017 127.5,132.5C 126.833,132.5 126.5,132.167 126.5,131.5C 126.5,129.5 126.5,127.5 126.5,125.5C 127.156,126.278 127.989,126.944 129,127.5C 130.834,125.557 132.834,125.224 135,126.5C 135.278,125.584 135.778,124.918 136.5,124.5 Z"/></g>
<g><path style="opacity:0.967" fill="#404041" d="M 137.5,126.5 C 138.598,127.601 138.765,128.934 138,130.5C 134.971,134.809 131.471,135.475 127.5,132.5C 129.094,131.017 130.76,129.517 132.5,128C 134.433,127.217 135.933,127.717 137,129.5C 137.483,128.552 137.649,127.552 137.5,126.5 Z"/></g>
<g><path style="opacity:1" fill="#69696e" d="M 21.5,142.5 C 29.0632,144.138 36.7299,144.805 44.5,144.5C 58.1667,144.5 71.8333,144.5 85.5,144.5C 87.8333,144.5 90.1667,144.5 92.5,144.5C 92.5,144.833 92.5,145.167 92.5,145.5C 70.1337,145.802 47.8004,145.468 25.5,144.5C 24.0048,144.011 22.6715,143.345 21.5,142.5 Z"/></g>
<g><path style="opacity:0.918" fill="#0f0f12" d="M 25.5,144.5 C 47.8004,145.468 70.1337,145.802 92.5,145.5C 94.1992,145.34 95.8659,145.506 97.5,146C 96.2625,146.232 95.2625,146.732 94.5,147.5C 72.5,148.833 50.5,148.833 28.5,147.5C 27.0998,146.9 26.0998,145.9 25.5,144.5 Z"/></g>
</svg>
