<?xml version="1.0" encoding="UTF-8"?>
<!DOCTYPE svg PUBLIC "-//W3C//DTD SVG 1.1//EN" "http://www.w3.org/Graphics/SVG/1.1/DTD/svg11.dtd">
<svg xmlns="http://www.w3.org/2000/svg" version="1.1" width="75px" height="75px" style="shape-rendering:geometricPrecision; text-rendering:geometricPrecision; image-rendering:optimizeQuality; fill-rule:evenodd; clip-rule:evenodd" xmlns:xlink="http://www.w3.org/1999/xlink">
<g><path style="opacity:1" fill="#000000" d="M 74.5,35.5 C 74.5,36.5 74.5,37.5 74.5,38.5C 64.8485,49.1507 54.5151,59.1507 43.5,68.5C 40.1667,67.1667 37.8333,64.8333 36.5,61.5C 41.6142,54.8833 47.2808,48.7166 53.5,43C 36.1667,42.6667 18.8333,42.3333 1.5,42C 0.955796,41.2828 0.28913,40.7828 -0.5,40.5C -0.5,38.1667 -0.5,35.8333 -0.5,33.5C 0.28913,33.2172 0.955796,32.7172 1.5,32C 18.8333,31.6667 36.1667,31.3333 53.5,31C 47.2808,25.2834 41.6142,19.1167 36.5,12.5C 38.2446,7.17615 41.578,5.34281 46.5,7C 56.0629,16.3951 65.3962,25.8951 74.5,35.5 Z"/></g>
</svg>
