<?xml version="1.0" encoding="UTF-8"?>
<!DOCTYPE svg PUBLIC "-//W3C//DTD SVG 1.1//EN" "http://www.w3.org/Graphics/SVG/1.1/DTD/svg11.dtd">
<svg xmlns="http://www.w3.org/2000/svg" version="1.1" width="512px" height="512px" style="shape-rendering:geometricPrecision; text-rendering:geometricPrecision; image-rendering:optimizeQuality; fill-rule:evenodd; clip-rule:evenodd" xmlns:xlink="http://www.w3.org/1999/xlink">
<g><path style="opacity:0.99" fill="#010101" d="M 511.5,73.5 C 511.5,102.833 511.5,132.167 511.5,161.5C 508.698,171.332 503.365,179.665 495.5,186.5C 503.296,193.288 508.629,201.622 511.5,211.5C 511.5,240.833 511.5,270.167 511.5,299.5C 508.479,309.183 503.146,317.516 495.5,324.5C 503.361,330.91 508.695,338.91 511.5,348.5C 511.5,378.167 511.5,407.833 511.5,437.5C 506.572,454.259 495.572,464.759 478.5,469C 384.316,469.827 290.149,469.661 196,468.5C 124.618,475.301 68.2848,449.634 27,391.5C 12.3544,368.056 3.1877,342.723 -0.5,315.5C -0.5,302.833 -0.5,290.167 -0.5,277.5C 7.38271,220.541 35.716,177.041 84.5,147C 88.4096,145.959 91.4096,147.125 93.5,150.5C 94.8853,153.546 94.7186,156.546 93,159.5C 39.7296,193.363 13.7296,242.03 15,305.5C 19.565,361.163 45.3983,403.663 92.5,433C 97.7653,435.801 103.099,438.301 108.5,440.5C 136.059,453.573 165.059,457.739 195.5,453C 259.889,441.281 302.722,404.447 324,342.5C 340.771,277.829 324.938,222.663 276.5,177C 268.166,169.835 259.166,163.668 249.5,158.5C 207.817,136.052 164.484,132.385 119.5,147.5C 116.308,146.634 113.641,144.968 111.5,142.5C 110.641,137.72 112.308,134.22 116.5,132C 132.066,126.684 148.066,123.85 164.5,123.5C 164.333,108.163 164.5,92.8297 165,77.5C 168.599,56.2345 181.099,44.0679 202.5,41C 293.167,40.3333 383.833,40.3333 474.5,41C 493.597,44.2708 505.931,55.1041 511.5,73.5 Z"/></g>
<g><path style="opacity:1" fill="#7b8690" d="M 199.5,56.5 C 209.506,56.3335 219.506,56.5002 229.5,57C 221.833,64.6667 214.167,72.3333 206.5,80C 197.84,80.4998 189.173,80.6664 180.5,80.5C 182.077,68.6556 188.41,60.6556 199.5,56.5 Z"/></g>
<g><path style="opacity:1" fill="#7d8891" d="M 250.5,56.5 C 257.841,56.3337 265.174,56.5003 272.5,57C 264.985,64.3477 257.652,71.8477 250.5,79.5C 242.855,80.6648 235.188,80.8315 227.5,80C 235.369,72.2983 243.036,64.4649 250.5,56.5 Z"/></g>
<g><path style="opacity:1" fill="#7d8892" d="M 294.5,56.5 C 301.841,56.3337 309.174,56.5003 316.5,57C 308.833,64.6667 301.167,72.3333 293.5,80C 286.144,80.8313 278.811,80.6646 271.5,79.5C 279.521,72.1457 287.188,64.479 294.5,56.5 Z"/></g>
<g><path style="opacity:1" fill="#7b868f" d="M 337.5,56.5 C 345.174,56.3336 352.841,56.5003 360.5,57C 352.833,64.6667 345.167,72.3333 337.5,80C 330.144,80.8313 322.811,80.6646 315.5,79.5C 323.136,72.1953 330.47,64.5286 337.5,56.5 Z"/></g>
<g><path style="opacity:1" fill="#7b858f" d="M 381.5,56.5 C 389.174,56.3336 396.841,56.5003 404.5,57C 396.833,64.6667 389.167,72.3333 381.5,80C 374.144,80.8313 366.811,80.6646 359.5,79.5C 366.855,71.8128 374.188,64.1461 381.5,56.5 Z"/></g>
<g><path style="opacity:1" fill="#7b858f" d="M 425.5,56.5 C 433.174,56.3336 440.841,56.5003 448.5,57C 440.833,64.6667 433.167,72.3333 425.5,80C 417.833,80.6667 410.167,80.6667 402.5,80C 410.369,72.2983 418.036,64.4649 425.5,56.5 Z"/></g>
<g><path style="opacity:1" fill="#5d6a74" d="M 495.5,76.5 C 495.5,77.5 495.5,78.5 495.5,79.5C 485.167,79.5 474.833,79.5 464.5,79.5C 464.821,73.9738 464.488,68.6405 463.5,63.5C 467.021,56.5385 472.354,54.7052 479.5,58C 487.917,61.5786 493.251,67.7453 495.5,76.5 Z"/></g>
<g><path style="opacity:1" fill="#7c8791" d="M 463.5,63.5 C 464.488,68.6405 464.821,73.9738 464.5,79.5C 458.833,79.5 453.167,79.5 447.5,79.5C 452.5,73.8333 457.833,68.5 463.5,63.5 Z"/></g>
<g><path style="opacity:1" fill="#3c4449" d="M 495.5,76.5 C 496.434,77.5676 496.768,78.901 496.5,80.5C 479.422,80.8324 463.089,80.4991 447.5,79.5C 453.167,79.5 458.833,79.5 464.5,79.5C 474.833,79.5 485.167,79.5 495.5,79.5C 495.5,78.5 495.5,77.5 495.5,76.5 Z"/></g>
<g><path style="opacity:1" fill="#7f8a94" d="M 180.5,95.5 C 275.167,95.5 369.833,95.5 464.5,95.5C 464.5,100.167 464.5,104.833 464.5,109.5C 369.833,109.5 275.167,109.5 180.5,109.5C 180.5,104.833 180.5,100.167 180.5,95.5 Z"/></g>
<g><path style="opacity:1" fill="#505b63" d="M 180.5,95.5 C 285.665,94.5005 390.999,94.1672 496.5,94.5C 496.5,99.5 496.5,104.5 496.5,109.5C 485.833,109.5 475.167,109.5 464.5,109.5C 464.5,104.833 464.5,100.167 464.5,95.5C 369.833,95.5 275.167,95.5 180.5,95.5 Z"/></g>
<g><path style="opacity:1" fill="#494f55" d="M 180.5,95.5 C 180.5,100.167 180.5,104.833 180.5,109.5C 275.167,109.5 369.833,109.5 464.5,109.5C 475.167,109.5 485.833,109.5 496.5,109.5C 391.001,110.499 285.335,110.833 179.5,110.5C 179.179,105.305 179.513,100.305 180.5,95.5 Z"/></g>
<g><path style="opacity:1" fill="#31363a" d="M 496.5,125.5 C 485.5,125.5 474.5,125.5 463.5,125.5C 376.665,125.167 289.998,125.501 203.5,126.5C 201.692,126.509 200.025,126.009 198.5,125C 298.001,124.168 397.334,124.334 496.5,125.5 Z"/></g>
<g><path style="opacity:1" fill="#7f8a94" d="M 203.5,126.5 C 289.998,125.501 376.665,125.167 463.5,125.5C 463.5,130.167 463.5,134.833 463.5,139.5C 391.167,139.5 318.833,139.5 246.5,139.5C 232.701,133.466 218.368,129.133 203.5,126.5 Z"/></g>
<g><path style="opacity:1" fill="#59646d" d="M 463.5,125.5 C 474.5,125.5 485.5,125.5 496.5,125.5C 496.5,130.5 496.5,135.5 496.5,140.5C 412.998,140.833 329.665,140.499 246.5,139.5C 318.833,139.5 391.167,139.5 463.5,139.5C 463.5,134.833 463.5,130.167 463.5,125.5 Z"/></g>
<g><path style="opacity:1" fill="#7e8892" d="M 249.5,158.5 C 262.862,171.878 273.528,187.211 281.5,204.5C 278.036,201.538 274.703,198.371 271.5,195C 263.225,192.943 259.725,196.11 261,204.5C 280.275,224.048 292.442,247.381 297.5,274.5C 297.917,326.124 278.75,368.79 240,402.5C 239.536,403.094 239.369,403.761 239.5,404.5C 217.971,417.218 194.637,423.718 169.5,424C 165.057,427.602 164.391,431.769 167.5,436.5C 167.586,437.496 167.252,438.329 166.5,439C 147.227,442.831 127.894,443.331 108.5,440.5C 103.099,438.301 97.7653,435.801 92.5,433C 45.3983,403.663 19.565,361.163 15,305.5C 13.7296,242.03 39.7296,193.363 93,159.5C 94.7186,156.546 94.8853,153.546 93.5,150.5C 99.2598,147.287 105.26,144.62 111.5,142.5C 113.641,144.968 116.308,146.634 119.5,147.5C 164.484,132.385 207.817,136.052 249.5,158.5 Z"/></g>
<g><path style="opacity:1" fill="#282c30" d="M 495.5,158.5 C 495.5,157.5 495.5,156.5 495.5,155.5C 479.325,155.17 463.325,155.504 447.5,156.5C 446.957,156.44 446.624,156.107 446.5,155.5C 463.153,154.501 479.82,154.167 496.5,154.5C 496.768,156.099 496.434,157.432 495.5,158.5 Z"/></g>
<g><path style="opacity:1" fill="#020303" d="M 157.5,154.5 C 163.176,154.334 168.843,154.501 174.5,155C 181.112,158.063 182.112,162.396 177.5,168C 119.184,170.216 78.0176,197.716 54,250.5C 39.3627,291.614 43.696,330.614 67,367.5C 72.2916,374.46 77.9583,381.127 84,387.5C 86.0229,395.126 83.1895,398.959 75.5,399C 52.3586,377.896 38.192,351.73 33,320.5C 25.0904,257.494 47.5904,208.661 100.5,174C 118.362,163.769 137.362,157.269 157.5,154.5 Z"/></g>
<g><path style="opacity:1" fill="#7d8892" d="M 304.5,166.5 C 298.833,166.5 293.167,166.5 287.5,166.5C 282.993,162.832 278.327,159.332 273.5,156C 280.5,155.333 287.5,155.333 294.5,156C 298.037,159.369 301.371,162.869 304.5,166.5 Z"/></g>
<g><path style="opacity:1" fill="#7d8791" d="M 347.5,165.5 C 340.687,166.491 333.687,166.825 326.5,166.5C 322.702,163.204 319.036,159.704 315.5,156C 323.167,155.333 330.833,155.333 338.5,156C 341.704,159.036 344.704,162.203 347.5,165.5 Z"/></g>
<g><path style="opacity:1" fill="#7d8791" d="M 391.5,165.5 C 384.687,166.491 377.687,166.825 370.5,166.5C 366.702,163.204 363.036,159.704 359.5,156C 367.167,155.333 374.833,155.333 382.5,156C 385.704,159.036 388.704,162.203 391.5,165.5 Z"/></g>
<g><path style="opacity:1" fill="#7d8791" d="M 434.5,164.5 C 428.25,166.459 421.584,167.126 414.5,166.5C 410.702,163.204 407.036,159.704 403.5,156C 411.167,155.333 418.833,155.333 426.5,156C 429.371,158.703 432.038,161.536 434.5,164.5 Z"/></g>
<g><path style="opacity:1" fill="#5e6b75" d="M 447.5,156.5 C 463.325,155.504 479.325,155.17 495.5,155.5C 495.5,156.5 495.5,157.5 495.5,158.5C 491.78,171.733 483.113,178.233 469.5,178C 462.298,170.631 454.965,163.464 447.5,156.5 Z"/></g>
<g><path style="opacity:1" fill="#5c6973" d="M 249.5,158.5 C 259.166,163.668 268.166,169.835 276.5,177C 324.938,222.663 340.771,277.829 324,342.5C 302.722,404.447 259.889,441.281 195.5,453C 165.059,457.739 136.059,453.573 108.5,440.5C 127.894,443.331 147.227,442.831 166.5,439C 167.252,438.329 167.586,437.496 167.5,436.5C 197.763,439.1 225.763,431.933 251.5,415C 303.827,375.796 323.327,323.963 310,259.5C 304.137,239.101 294.637,220.768 281.5,204.5C 273.528,187.211 262.862,171.878 249.5,158.5 Z"/></g>
<g><path style="opacity:1" fill="#5c6872" d="M 287.5,166.5 C 293.167,166.5 298.833,166.5 304.5,166.5C 308.631,170.13 312.631,173.963 316.5,178C 310.5,178.667 304.5,178.667 298.5,178C 294.63,174.298 290.963,170.464 287.5,166.5 Z"/></g>
<g><path style="opacity:1" fill="#5c6872" d="M 347.5,165.5 C 351.964,169.463 356.298,173.63 360.5,178C 352.833,178.667 345.167,178.667 337.5,178C 333.63,174.298 329.963,170.464 326.5,166.5C 333.687,166.825 340.687,166.491 347.5,165.5 Z"/></g>
<g><path style="opacity:1" fill="#5c6872" d="M 391.5,165.5 C 395.964,169.463 400.298,173.63 404.5,178C 396.833,178.667 389.167,178.667 381.5,178C 377.63,174.298 373.963,170.464 370.5,166.5C 377.687,166.825 384.687,166.491 391.5,165.5 Z"/></g>
<g><path style="opacity:1" fill="#5b6872" d="M 434.5,164.5 C 439.146,168.479 443.479,172.812 447.5,177.5C 440.189,178.665 432.856,178.831 425.5,178C 421.63,174.298 417.963,170.464 414.5,166.5C 421.584,167.126 428.25,166.459 434.5,164.5 Z"/></g>
<g><path style="opacity:1" fill="#040404" d="M 257.5,362.5 C 254.856,360.484 254.023,357.817 255,354.5C 281.985,310.535 279.318,268.535 247,228.5C 237.743,219.069 227.243,211.402 215.5,205.5C 166.195,186.257 124.695,196.923 91,237.5C 67.7747,273.92 66.4413,311.253 87,349.5C 96.7768,364.111 109.277,375.778 124.5,384.5C 143.698,395.438 164.365,399.271 186.5,396C 204.332,393.615 220.332,386.948 234.5,376C 237.993,375.131 240.993,375.964 243.5,378.5C 244.984,381.584 244.818,384.584 243,387.5C 222.645,403.841 199.312,411.841 173,411.5C 133.963,410.981 102.63,395.315 79,364.5C 57.9935,333.128 52.3268,299.128 62,262.5C 78.5019,216.335 111.002,189.501 159.5,182C 212.574,178.613 251.741,200.113 277,246.5C 293.995,285.875 291.328,323.875 269,360.5C 265.652,364.739 261.819,365.406 257.5,362.5 Z"/></g>
<g><path style="opacity:1" fill="#43494e" d="M 338.5,194.5 C 329.983,194.174 321.65,194.507 313.5,195.5C 312.957,195.44 312.624,195.107 312.5,194.5C 321.325,193.179 329.991,193.179 338.5,194.5 Z"/></g>
<g><path style="opacity:1" fill="#41474c" d="M 382.5,194.5 C 374.981,194.175 367.648,194.508 360.5,195.5C 359.957,195.44 359.624,195.107 359.5,194.5C 367.323,193.18 374.99,193.18 382.5,194.5 Z"/></g>
<g><path style="opacity:1" fill="#43494e" d="M 425.5,194.5 C 418.313,194.175 411.313,194.509 404.5,195.5C 403.957,195.44 403.624,195.107 403.5,194.5C 410.99,193.181 418.323,193.181 425.5,194.5 Z"/></g>
<g><path style="opacity:1" fill="#020202" d="M 281.5,204.5 C 294.637,220.768 304.137,239.101 310,259.5C 323.327,323.963 303.827,375.796 251.5,415C 225.763,431.933 197.763,439.1 167.5,436.5C 164.391,431.769 165.057,427.602 169.5,424C 194.637,423.718 217.971,417.218 239.5,404.5C 285.525,373.114 304.858,329.78 297.5,274.5C 292.442,247.381 280.275,224.048 261,204.5C 259.725,196.11 263.225,192.943 271.5,195C 274.703,198.371 278.036,201.538 281.5,204.5 Z"/></g>
<g><path style="opacity:1" fill="#7f8a94" d="M 338.5,194.5 C 345.631,202.132 352.964,209.632 360.5,217C 349.167,217.667 337.833,217.667 326.5,217C 322.532,209.556 318.199,202.39 313.5,195.5C 321.65,194.507 329.983,194.174 338.5,194.5 Z"/></g>
<g><path style="opacity:1" fill="#7f8a94" d="M 360.5,195.5 C 367.648,194.508 374.981,194.175 382.5,194.5C 389.631,202.132 396.964,209.632 404.5,217C 397.167,217.667 389.833,217.667 382.5,217C 375.298,209.631 367.965,202.464 360.5,195.5 Z"/></g>
<g><path style="opacity:1" fill="#7f8a94" d="M 404.5,195.5 C 411.313,194.509 418.313,194.175 425.5,194.5C 433.298,201.798 440.965,209.298 448.5,217C 441.167,217.667 433.833,217.667 426.5,217C 419.298,209.631 411.965,202.464 404.5,195.5 Z"/></g>
<g><path style="opacity:1" fill="#79848d" d="M 463.5,210.5 C 458.167,205.833 453.167,200.833 448.5,195.5C 453.316,194.35 458.316,194.184 463.5,195C 464.824,200.266 464.824,205.433 463.5,210.5 Z"/></g>
<g><path style="opacity:1" fill="#5b6872" d="M 463.5,210.5 C 464.824,205.433 464.824,200.266 463.5,195C 458.316,194.184 453.316,194.35 448.5,195.5C 447.957,195.44 447.624,195.107 447.5,194.5C 458.618,192.885 469.618,193.385 480.5,196C 489.626,200.292 494.626,207.458 495.5,217.5C 486.827,217.666 478.16,217.5 469.5,217C 467.294,214.963 465.294,212.797 463.5,210.5 Z"/></g>
<g><path style="opacity:1" fill="#f1f4f4" d="M 215.5,205.5 C 218.084,209.933 220.918,214.266 224,218.5C 224.74,219.749 224.573,220.749 223.5,221.5C 212.387,214.183 200.221,209.516 187,207.5C 183.332,207 180.666,208.334 179,211.5C 178.833,219.167 178.667,226.833 178.5,234.5C 178.377,243.239 178.877,251.905 180,260.5C 184.707,269.77 192.207,273.604 202.5,272C 213.989,266.09 225.322,259.923 236.5,253.5C 237.931,253.881 238.764,254.881 239,256.5C 239.497,259.146 239.664,261.813 239.5,264.5C 229.363,270.069 219.363,275.903 209.5,282C 202.14,290.774 201.64,299.941 208,309.5C 215.146,314.315 222.313,318.982 229.5,323.5C 228.59,326.992 226.924,329.992 224.5,332.5C 218.861,329.345 213.194,326.179 207.5,323C 192.705,317.731 183.039,322.564 178.5,337.5C 177.833,350.006 177.167,362.673 176.5,375.5C 173.686,377.105 170.686,378.105 167.5,378.5C 167.951,363.428 167.451,348.428 166,333.5C 161.193,323.68 153.36,319.513 142.5,321C 129.37,328.066 116.37,335.399 103.5,343C 99.7596,346.694 99.5929,350.527 103,354.5C 114.296,367.635 128.129,376.968 144.5,382.5C 144.389,383.117 144.056,383.617 143.5,384C 137.175,384.5 130.842,384.666 124.5,384.5C 109.277,375.778 96.7768,364.111 87,349.5C 66.4413,311.253 67.7747,273.92 91,237.5C 124.695,196.923 166.195,186.257 215.5,205.5 Z"/></g>
<g><path style="opacity:1" fill="#e0e4e9" d="M 215.5,205.5 C 227.243,211.402 237.743,219.069 247,228.5C 279.318,268.535 281.985,310.535 255,354.5C 254.023,357.817 254.856,360.484 257.5,362.5C 253.916,368.753 249.249,374.086 243.5,378.5C 240.993,375.964 237.993,375.131 234.5,376C 220.332,386.948 204.332,393.615 186.5,396C 164.365,399.271 143.698,395.438 124.5,384.5C 130.842,384.666 137.175,384.5 143.5,384C 144.056,383.617 144.389,383.117 144.5,382.5C 150.56,385.158 156.893,385.992 163.5,385C 165.734,383.362 167.067,381.195 167.5,378.5C 170.686,378.105 173.686,377.105 176.5,375.5C 177.167,362.673 177.833,350.006 178.5,337.5C 178.333,352.17 178.5,366.837 179,381.5C 180.135,384.859 182.468,386.192 186,385.5C 209.179,382.082 228.179,371.415 243,353.5C 244.422,350.97 244.755,348.303 244,345.5C 237.865,340.523 231.365,336.19 224.5,332.5C 226.924,329.992 228.59,326.992 229.5,323.5C 235.435,326.136 241.102,329.302 246.5,333C 250.898,334.378 254.398,333.212 257,329.5C 264.29,307.481 264.29,285.481 257,263.5C 255.257,261.129 252.923,259.795 250,259.5C 246.152,260.508 242.652,262.175 239.5,264.5C 239.664,261.813 239.497,259.146 239,256.5C 238.764,254.881 237.931,253.881 236.5,253.5C 239.386,252.121 241.886,250.121 244,247.5C 244.667,245.5 244.667,243.5 244,241.5C 237.934,233.932 231.1,227.266 223.5,221.5C 224.573,220.749 224.74,219.749 224,218.5C 220.918,214.266 218.084,209.933 215.5,205.5 Z"/></g>
<g><path style="opacity:1" fill="#050505" d="M 154.5,207.5 C 157.518,207.335 160.518,207.502 163.5,208C 165.049,209.214 166.215,210.714 167,212.5C 167.667,227.167 167.667,241.833 167,256.5C 162.22,269.64 153.053,274.474 139.5,271C 126.751,263.877 114.251,256.377 102,248.5C 100.627,246.305 100.294,243.971 101,241.5C 114.951,223.948 132.784,212.614 154.5,207.5 Z"/></g>
<g><path style="opacity:1" fill="#030303" d="M 223.5,221.5 C 231.1,227.266 237.934,233.932 244,241.5C 244.667,243.5 244.667,245.5 244,247.5C 241.886,250.121 239.386,252.121 236.5,253.5C 225.322,259.923 213.989,266.09 202.5,272C 192.207,273.604 184.707,269.77 180,260.5C 178.877,251.905 178.377,243.239 178.5,234.5C 178.667,226.833 178.833,219.167 179,211.5C 180.666,208.334 183.332,207 187,207.5C 200.221,209.516 212.387,214.183 223.5,221.5 Z"/></g>
<g><path style="opacity:1" fill="#5b6771" d="M 148.5,224.5 C 149.833,224.5 151.167,224.5 152.5,224.5C 152.666,234.506 152.5,244.506 152,254.5C 150.883,256.124 149.383,257.124 147.5,257.5C 138.268,252.939 129.268,247.939 120.5,242.5C 128.569,234.469 137.903,228.469 148.5,224.5 Z"/></g>
<g><path style="opacity:1" fill="#5c6973" d="M 193.5,224.5 C 205.826,227.179 216.16,233.179 224.5,242.5C 216.666,247.585 208.666,252.418 200.5,257C 197.975,257.896 195.808,257.396 194,255.5C 193.5,245.172 193.334,234.839 193.5,224.5 Z"/></g>
<g><path style="opacity:1" fill="#7f8a94" d="M 464.5,247.5 C 445.497,247.333 426.497,247.5 407.5,248C 400.695,253.442 401.029,258.275 408.5,262.5C 426.659,263.497 444.992,263.83 463.5,263.5C 463.5,268.167 463.5,272.833 463.5,277.5C 423.833,277.5 384.167,277.5 344.5,277.5C 344.57,272.391 343.903,267.391 342.5,262.5C 354.505,262.667 366.505,262.5 378.5,262C 382.124,259.839 383.291,256.672 382,252.5C 381.167,250.333 379.667,248.833 377.5,248C 364.504,247.5 351.504,247.333 338.5,247.5C 337.567,243.035 336.234,238.702 334.5,234.5C 377.663,233.501 420.997,233.168 464.5,233.5C 464.5,238.167 464.5,242.833 464.5,247.5 Z"/></g>
<g><path style="opacity:1" fill="#5d6872" d="M 464.5,247.5 C 464.5,242.833 464.5,238.167 464.5,233.5C 420.997,233.168 377.663,233.501 334.5,234.5C 333.957,234.44 333.624,234.107 333.5,233.5C 387.829,232.5 442.163,232.167 496.5,232.5C 496.5,237.5 496.5,242.5 496.5,247.5C 485.833,247.5 475.167,247.5 464.5,247.5 Z"/></g>
<g><path style="opacity:1" fill="#030303" d="M 92.5,259.5 C 97.1923,259.841 101.526,261.341 105.5,264C 115.167,269.667 124.833,275.333 134.5,281C 141.033,286.795 143.2,293.961 141,302.5C 139.698,306.274 137.531,309.441 134.5,312C 121.77,320.086 108.603,327.253 95,333.5C 90.4016,332.902 87.7349,330.235 87,325.5C 80.4282,304.231 81.0949,283.231 89,262.5C 90.1451,261.364 91.3117,260.364 92.5,259.5 Z"/></g>
<g><path style="opacity:1" fill="#030303" d="M 229.5,323.5 C 222.313,318.982 215.146,314.315 208,309.5C 201.64,299.941 202.14,290.774 209.5,282C 219.363,275.903 229.363,270.069 239.5,264.5C 242.652,262.175 246.152,260.508 250,259.5C 252.923,259.795 255.257,261.129 257,263.5C 264.29,285.481 264.29,307.481 257,329.5C 254.398,333.212 250.898,334.378 246.5,333C 241.102,329.302 235.435,326.136 229.5,323.5 Z"/></g>
<g><path style="opacity:1" fill="#5d6973" d="M 408.5,262.5 C 437.833,262.5 467.167,262.5 496.5,262.5C 496.5,267.5 496.5,272.5 496.5,277.5C 485.5,277.5 474.5,277.5 463.5,277.5C 463.5,272.833 463.5,268.167 463.5,263.5C 444.992,263.83 426.659,263.497 408.5,262.5 Z"/></g>
<g><path style="opacity:1" fill="#050505" d="M 167.5,275.5 C 185.331,275.163 193.831,283.83 193,301.5C 188.796,313.687 180.296,318.854 167.5,317C 155.844,312.532 150.677,304.032 152,291.5C 154.685,283.65 159.852,278.316 167.5,275.5 Z"/></g>
<g><path style="opacity:1" fill="#5c6872" d="M 99.5,278.5 C 108.522,283.096 117.355,288.096 126,293.5C 126.758,295.769 126.591,297.936 125.5,300C 117.167,304.833 108.833,309.667 100.5,314.5C 99.914,314.291 99.414,313.957 99,313.5C 96.8827,301.729 97.0494,290.063 99.5,278.5 Z"/></g>
<g><path style="opacity:1" fill="#5b6872" d="M 244.5,278.5 C 246.045,279.23 246.878,280.563 247,282.5C 248.908,293.194 248.742,303.861 246.5,314.5C 237.612,310.387 228.945,305.72 220.5,300.5C 217.665,297.329 217.998,294.496 221.5,292C 229.23,287.474 236.896,282.974 244.5,278.5 Z"/></g>
<g><path style="opacity:1" fill="#5c6973" d="M 297.5,274.5 C 304.858,329.78 285.525,373.114 239.5,404.5C 239.369,403.761 239.536,403.094 240,402.5C 278.75,368.79 297.917,326.124 297.5,274.5 Z"/></g>
<g><path style="opacity:1" fill="#6875c5" d="M 170.5,290.5 C 178.957,291.437 180.624,295.27 175.5,302C 169.199,303.281 166.365,300.781 167,294.5C 167.69,292.65 168.856,291.316 170.5,290.5 Z"/></g>
<g><path style="opacity:1" fill="#76818a" d="M 345.5,292.5 C 350.844,292.334 356.177,292.501 361.5,293C 356.333,298.167 351.167,303.333 346,308.5C 345.501,303.177 345.334,297.844 345.5,292.5 Z"/></g>
<g><path style="opacity:1" fill="#79848d" d="M 393.5,304.5 C 386.313,304.825 379.313,304.491 372.5,303.5C 375.629,299.869 378.963,296.369 382.5,293C 390.167,292.333 397.833,292.333 405.5,293C 401.631,297.037 397.631,300.87 393.5,304.5 Z"/></g>
<g><path style="opacity:1" fill="#79848d" d="M 438.5,303.5 C 431.018,304.702 423.684,304.702 416.5,303.5C 419.629,299.869 422.963,296.369 426.5,293C 434.167,292.333 441.833,292.333 449.5,293C 445.964,296.704 442.298,300.204 438.5,303.5 Z"/></g>
<g><path style="opacity:1" fill="#5c6972" d="M 470.5,292.5 C 479.167,292.5 487.833,292.5 496.5,292.5C 492.347,311.099 480.681,319.099 461.5,316.5C 456.833,316.333 452.167,316.167 447.5,316C 455.369,308.298 463.036,300.465 470.5,292.5 Z"/></g>
<g><path style="opacity:1" fill="#5b6872" d="M 372.5,303.5 C 379.313,304.491 386.313,304.825 393.5,304.5C 390.037,308.464 386.37,312.298 382.5,316C 374.833,316.667 367.167,316.667 359.5,316C 363.702,311.63 368.036,307.463 372.5,303.5 Z"/></g>
<g><path style="opacity:1" fill="#5b6872" d="M 416.5,303.5 C 423.684,304.702 431.018,304.702 438.5,303.5C 434.704,307.798 430.704,311.964 426.5,316C 418.833,316.667 411.167,316.667 403.5,316C 407.702,311.63 412.036,307.463 416.5,303.5 Z"/></g>
<g><path style="opacity:1" fill="#050505" d="M 167.5,378.5 C 167.067,381.195 165.734,383.362 163.5,385C 156.893,385.992 150.56,385.158 144.5,382.5C 128.129,376.968 114.296,367.635 103,354.5C 99.5929,350.527 99.7596,346.694 103.5,343C 116.37,335.399 129.37,328.066 142.5,321C 153.36,319.513 161.193,323.68 166,333.5C 167.451,348.428 167.951,363.428 167.5,378.5 Z"/></g>
<g><path style="opacity:1" fill="#030303" d="M 224.5,332.5 C 231.365,336.19 237.865,340.523 244,345.5C 244.755,348.303 244.422,350.97 243,353.5C 228.179,371.415 209.179,382.082 186,385.5C 182.468,386.192 180.135,384.859 179,381.5C 178.5,366.837 178.333,352.17 178.5,337.5C 183.039,322.564 192.705,317.731 207.5,323C 213.194,326.179 218.861,329.345 224.5,332.5 Z"/></g>
<g><path style="opacity:1" fill="#78838c" d="M 342.5,331.5 C 348.842,331.334 355.175,331.5 361.5,332C 353.625,340.21 345.458,348.044 337,355.5C 336.5,355.167 336,354.833 335.5,354.5C 338.304,346.943 340.638,339.276 342.5,331.5 Z"/></g>
<g><path style="opacity:1" fill="#7c8690" d="M 382.5,331.5 C 389.863,331.169 397.197,331.503 404.5,332.5C 397.348,340.152 390.015,347.652 382.5,355C 374.833,355.667 367.167,355.667 359.5,355C 367.369,347.298 375.036,339.465 382.5,331.5 Z"/></g>
<g><path style="opacity:1" fill="#7f8a93" d="M 426.5,331.5 C 433.841,331.334 441.174,331.5 448.5,332C 440.833,339.667 433.167,347.333 425.5,355C 418.167,355.667 410.833,355.667 403.5,355C 411.369,347.298 419.036,339.465 426.5,331.5 Z"/></g>
<g><path style="opacity:1" fill="#5c6973" d="M 464.5,355.5 C 464.822,349.642 464.489,343.975 463.5,338.5C 466.178,335.989 469.012,333.656 472,331.5C 485.995,333.662 494.161,341.662 496.5,355.5C 485.833,355.5 475.167,355.5 464.5,355.5 Z"/></g>
<g><path style="opacity:1" fill="#5b6771" d="M 145.5,335.5 C 148.325,335.081 150.491,336.081 152,338.5C 152.832,348.849 152.666,359.183 151.5,369.5C 139.908,365.374 129.575,359.207 120.5,351C 128.897,345.808 137.231,340.642 145.5,335.5 Z"/></g>
<g><path style="opacity:1" fill="#5c6973" d="M 196.5,335.5 C 206.373,339.437 215.706,344.437 224.5,350.5C 216.16,359.821 205.826,365.821 193.5,368.5C 193.334,358.161 193.5,347.828 194,337.5C 194.995,336.934 195.828,336.267 196.5,335.5 Z"/></g>
<g><path style="opacity:1" fill="#7e8993" d="M 463.5,338.5 C 464.489,343.975 464.822,349.642 464.5,355.5C 458.824,355.666 453.157,355.499 447.5,355C 453.036,349.631 458.37,344.131 463.5,338.5 Z"/></g>
<g><path style="opacity:1" fill="#7f8a94" d="M 328.5,371.5 C 373.5,371.5 418.5,371.5 463.5,371.5C 463.5,376.167 463.5,380.833 463.5,385.5C 416.165,385.667 368.832,385.5 321.5,385C 323.974,380.552 326.307,376.052 328.5,371.5 Z"/></g>
<g><path style="opacity:1" fill="#606c76" d="M 328.5,371.5 C 384.331,370.501 440.331,370.168 496.5,370.5C 496.5,375.5 496.5,380.5 496.5,385.5C 485.5,385.5 474.5,385.5 463.5,385.5C 463.5,380.833 463.5,376.167 463.5,371.5C 418.5,371.5 373.5,371.5 328.5,371.5 Z"/></g>
<g><path style="opacity:1" fill="#7f8a94" d="M 310.5,401.5 C 361.5,401.5 412.5,401.5 463.5,401.5C 463.5,406.167 463.5,410.833 463.5,415.5C 408.499,415.667 353.499,415.5 298.5,415C 303.104,410.898 307.104,406.398 310.5,401.5 Z"/></g>
<g><path style="opacity:1" fill="#606c76" d="M 310.5,401.5 C 372.331,400.501 434.331,400.168 496.5,400.5C 496.5,405.5 496.5,410.5 496.5,415.5C 485.5,415.5 474.5,415.5 463.5,415.5C 463.5,410.833 463.5,406.167 463.5,401.5C 412.5,401.5 361.5,401.5 310.5,401.5 Z"/></g>
<g><path style="opacity:1" fill="#7b868f" d="M 303.5,440.5 C 296.687,441.491 289.687,441.825 282.5,441.5C 280.188,439.854 278.188,437.854 276.5,435.5C 279.193,431.326 283.027,429.66 288,430.5C 290.167,430.667 292.333,430.833 294.5,431C 297.704,434.036 300.704,437.203 303.5,440.5 Z"/></g>
<g><path style="opacity:1" fill="#7e8993" d="M 347.5,441.5 C 340.5,441.5 333.5,441.5 326.5,441.5C 322.702,438.204 319.036,434.704 315.5,431C 322.833,430.333 330.167,430.333 337.5,431C 341.037,434.369 344.371,437.869 347.5,441.5 Z"/></g>
<g><path style="opacity:1" fill="#7e8992" d="M 391.5,441.5 C 384.5,441.5 377.5,441.5 370.5,441.5C 366.702,438.204 363.036,434.704 359.5,431C 366.833,430.333 374.167,430.333 381.5,431C 385.037,434.369 388.371,437.869 391.5,441.5 Z"/></g>
<g><path style="opacity:1" fill="#7b868f" d="M 434.5,440.5 C 427.687,441.491 420.687,441.825 413.5,441.5C 409.702,438.204 406.036,434.704 402.5,431C 410.167,430.333 417.833,430.333 425.5,431C 428.704,434.036 431.704,437.203 434.5,440.5 Z"/></g>
<g><path style="opacity:1" fill="#5c6972" d="M 446.5,431.5 C 462.992,430.503 479.658,430.17 496.5,430.5C 493.828,445.676 484.828,453.509 469.5,454C 461.965,446.298 454.298,438.798 446.5,431.5 Z"/></g>
<g><path style="opacity:1" fill="#5b6771" d="M 434.5,440.5 C 439.298,444.797 443.965,449.297 448.5,454C 440.833,454.667 433.167,454.667 425.5,454C 421.296,449.964 417.296,445.798 413.5,441.5C 420.687,441.825 427.687,441.491 434.5,440.5 Z"/></g>
<g><path style="opacity:1" fill="#5b6771" d="M 303.5,440.5 C 308.146,444.479 312.479,448.812 316.5,453.5C 309.189,454.665 301.856,454.831 294.5,454C 290.296,449.964 286.296,445.798 282.5,441.5C 289.687,441.825 296.687,441.491 303.5,440.5 Z"/></g>
<g><path style="opacity:1" fill="#5d6a73" d="M 326.5,441.5 C 333.5,441.5 340.5,441.5 347.5,441.5C 351.964,445.463 356.298,449.63 360.5,454C 353.167,454.667 345.833,454.667 338.5,454C 334.296,449.964 330.296,445.798 326.5,441.5 Z"/></g>
<g><path style="opacity:1" fill="#5d6973" d="M 370.5,441.5 C 377.5,441.5 384.5,441.5 391.5,441.5C 395.964,445.463 400.298,449.63 404.5,454C 396.812,454.831 389.145,454.665 381.5,453.5C 377.811,449.48 374.145,445.48 370.5,441.5 Z"/></g>
<g><path style="opacity:1" fill="#57636c" d="M 261.5,444.5 C 266.15,446.629 270.15,449.795 273.5,454C 263.833,454.667 254.167,454.667 244.5,454C 250.552,451.313 256.219,448.146 261.5,444.5 Z"/></g>
</svg>
