<?xml version="1.0" encoding="UTF-8"?>
<!DOCTYPE svg PUBLIC "-//W3C//DTD SVG 1.1//EN" "http://www.w3.org/Graphics/SVG/1.1/DTD/svg11.dtd">
<svg xmlns="http://www.w3.org/2000/svg" version="1.1" width="50px" height="50px" style="shape-rendering:geometricPrecision; text-rendering:geometricPrecision; image-rendering:optimizeQuality; fill-rule:evenodd; clip-rule:evenodd" xmlns:xlink="http://www.w3.org/1999/xlink">
<g><path style="opacity:0.812" fill="#fb7468" d="M 49.5,11.5 C 49.5,15.5 49.5,19.5 49.5,23.5C 42.4786,32.8545 34.1453,40.8545 24.5,47.5C 14.8547,40.8545 6.52137,32.8545 -0.5,23.5C -0.5,19.8333 -0.5,16.1667 -0.5,12.5C 4.94222,1.96066 13.2756,-1.03934 24.5,3.5C 35.3211,-1.00284 43.6544,1.66382 49.5,11.5 Z M 11.5,6.5 C 16.2467,5.96275 20.5801,6.96275 24.5,9.5C 38.1143,3.28931 44.6143,7.62265 44,22.5C 38.3145,29.6857 31.8145,36.0191 24.5,41.5C 18.8165,35.9823 12.9832,30.649 7,25.5C 2.59757,17.6438 4.09757,11.3104 11.5,6.5 Z"/></g>
<g><path style="opacity:0.78" fill="#fb7468" d="M 19.5,13.5 C 21.0174,13.5106 22.1841,14.1772 23,15.5C 24.0804,17.9962 25.4138,20.3295 27,22.5C 29.6333,17.9333 33.4667,16.4333 38.5,18C 39.7472,19.4936 39.7472,20.9936 38.5,22.5C 36.556,23.1892 34.556,23.6892 32.5,24C 30.6499,26.0176 28.6499,27.8509 26.5,29.5C 24.1045,27.0562 21.9378,24.3895 20,21.5C 16.7263,26.2671 13.2263,26.6005 9.5,22.5C 10.7255,20.1728 12.7255,19.0061 15.5,19C 16.6647,17.0083 17.998,15.175 19.5,13.5 Z"/></g>
</svg>
