<?xml version="1.0" encoding="UTF-8"?>
<!DOCTYPE svg PUBLIC "-//W3C//DTD SVG 1.1//EN" "http://www.w3.org/Graphics/SVG/1.1/DTD/svg11.dtd">
<svg xmlns="http://www.w3.org/2000/svg" version="1.1" width="250px" height="221px" style="shape-rendering:geometricPrecision; text-rendering:geometricPrecision; image-rendering:optimizeQuality; fill-rule:evenodd; clip-rule:evenodd" xmlns:xlink="http://www.w3.org/1999/xlink">
<g><path style="opacity:1" fill="#024762" d="M 45.5,7.5 C 45.9731,8.90632 46.9731,9.57298 48.5,9.5C 73.4994,22.9973 98.166,36.9973 122.5,51.5C 124.052,54.1119 126.386,55.4452 129.5,55.5C 139.536,61.5146 149.536,67.5146 159.5,73.5C 161.181,75.0075 163.181,76.0075 165.5,76.5C 178.841,84.1701 192.175,91.8367 205.5,99.5C 207.629,101.95 210.296,103.617 213.5,104.5C 214.492,104.328 215.158,104.662 215.5,105.5C 215.611,106.117 215.944,106.617 216.5,107C 214.937,107.759 213.937,108.926 213.5,110.5C 212.508,110.328 211.842,110.662 211.5,111.5C 156.063,143.055 100.73,174.888 45.5,207C 42.035,208.322 38.7017,209.822 35.5,211.5C 35.5,143.833 35.5,76.1667 35.5,8.5C 35.5,6.5 35.5,4.5 35.5,2.5C 39.4201,3.12663 42.7534,4.7933 45.5,7.5 Z"/></g>
<g><path style="opacity:0.043" fill="#9dbec5" d="M 45.5,7.5 C 47.0269,7.42702 48.0269,8.09368 48.5,9.5C 46.9731,9.57298 45.9731,8.90632 45.5,7.5 Z"/></g>
<g><path style="opacity:0.455" fill="#f3a5a0" d="M 32.5,8.5 C 32.5,8.83333 32.5,9.16667 32.5,9.5C 32.1667,78.8365 32.5,148.17 33.5,217.5C 44.1265,210.742 55.1265,204.742 66.5,199.5C 58.0071,205.137 49.3404,210.637 40.5,216C 37.7935,217.908 34.7935,218.741 31.5,218.5C 31.1675,148.331 31.5008,78.3313 32.5,8.5 Z"/></g>
<g><path style="opacity:1" fill="#e06e68" d="M 32.5,9.5 C 32.5,9.16667 32.5,8.83333 32.5,8.5C 33.5,8.5 34.5,8.5 35.5,8.5C 35.5,76.1667 35.5,143.833 35.5,211.5C 35.1658,143.994 34.1658,76.6605 32.5,9.5 Z"/></g>
<g><path style="opacity:0.047" fill="#8fb4bc" d="M 122.5,51.5 C 125.004,52.5839 127.337,53.9172 129.5,55.5C 126.386,55.4452 124.052,54.1119 122.5,51.5 Z"/></g>
<g><path style="opacity:0.38" fill="#7ca5af" d="M 159.5,73.5 C 162.089,73.461 164.089,74.461 165.5,76.5C 163.181,76.0075 161.181,75.0075 159.5,73.5 Z"/></g>
<g><path style="opacity:0.573" fill="#6b9ba7" d="M 205.5,99.5 C 208.704,100.383 211.371,102.05 213.5,104.5C 210.296,103.617 207.629,101.95 205.5,99.5 Z"/></g>
<g><path style="opacity:0.314" fill="#6d9da9" d="M 215.5,105.5 C 216.497,105.47 217.164,105.97 217.5,107C 216.929,108.599 215.929,109.766 214.5,110.5C 214.167,110.5 213.833,110.5 213.5,110.5C 213.937,108.926 214.937,107.759 216.5,107C 215.944,106.617 215.611,106.117 215.5,105.5 Z"/></g>
<g><path style="opacity:0.004" fill="#f4a8a3" d="M 211.5,111.5 C 211.842,110.662 212.508,110.328 213.5,110.5C 213.833,110.5 214.167,110.5 214.5,110.5C 215.275,114.182 213.941,116.682 210.5,118C 180.928,134.568 151.595,151.568 122.5,169C 118.183,170.937 113.85,172.77 109.5,174.5C 140.247,155.616 171.581,137.45 203.5,120C 206.58,117.71 209.747,115.543 213,113.5C 213.528,112.184 213.028,111.517 211.5,111.5 Z"/></g>
<g><path style="opacity:0.999" fill="#f8756a" d="M 32.5,9.5 C 34.1658,76.6605 35.1658,143.994 35.5,211.5C 38.7017,209.822 42.035,208.322 45.5,207C 100.73,174.888 156.063,143.055 211.5,111.5C 213.028,111.517 213.528,112.184 213,113.5C 209.747,115.543 206.58,117.71 203.5,120C 171.581,137.45 140.247,155.616 109.5,174.5C 94.3844,181.644 80.0511,189.977 66.5,199.5C 55.1265,204.742 44.1265,210.742 33.5,217.5C 32.5,148.17 32.1667,78.8365 32.5,9.5 Z"/></g>
<g><path style="opacity:0.075" fill="#f3a6a2" d="M 109.5,174.5 C 95.9617,184.106 81.6284,192.439 66.5,199.5C 80.0511,189.977 94.3844,181.644 109.5,174.5 Z"/></g>
</svg>
