<?xml version="1.0" encoding="UTF-8"?>
<!DOCTYPE svg PUBLIC "-//W3C//DTD SVG 1.1//EN" "http://www.w3.org/Graphics/SVG/1.1/DTD/svg11.dtd">
<svg xmlns="http://www.w3.org/2000/svg" version="1.1" width="250px" height="221px" style="shape-rendering:geometricPrecision; text-rendering:geometricPrecision; image-rendering:optimizeQuality; fill-rule:evenodd; clip-rule:evenodd" xmlns:xlink="http://www.w3.org/1999/xlink">
<g><path style="opacity:1" fill="#014762" d="M 213.5,8.5 C 213.5,76.1667 213.5,143.833 213.5,211.5C 209.71,210.105 206.043,208.438 202.5,206.5C 146.972,174.237 91.3056,142.237 35.5,110.5C 35.0629,108.926 34.0629,107.759 32.5,107C 33.056,106.617 33.3893,106.117 33.5,105.5C 34.8993,104.11 36.5659,103.11 38.5,102.5C 40.674,102.25 42.3406,101.25 43.5,99.5C 56.8254,91.8367 70.1588,84.1701 83.5,76.5C 85.8185,76.0075 87.8185,75.0075 89.5,73.5C 99.4643,67.5146 109.464,61.5146 119.5,55.5C 123.291,54.9971 126.291,53.3304 128.5,50.5C 152.167,36.3308 176.167,22.6641 200.5,9.5C 204.552,8.48346 207.885,6.48346 210.5,3.5C 211.209,2.59603 212.209,2.26269 213.5,2.5C 213.5,4.5 213.5,6.5 213.5,8.5 Z"/></g>
<g><path style="opacity:0.376" fill="#6392a0" d="M 210.5,3.5 C 207.885,6.48346 204.552,8.48346 200.5,9.5C 203.494,7.00025 206.827,5.00025 210.5,3.5 Z"/></g>
<g><path style="opacity:1" fill="#fc7468" d="M 216.5,9.5 C 216.833,78.8365 216.5,148.17 215.5,217.5C 210.271,214.726 205.271,211.726 200.5,208.5C 200.833,207.5 201.5,206.833 202.5,206.5C 206.043,208.438 209.71,210.105 213.5,211.5C 213.834,143.994 214.834,76.6605 216.5,9.5 Z"/></g>
<g><path style="opacity:1" fill="#e06e68" d="M 213.5,8.5 C 214.5,8.5 215.5,8.5 216.5,8.5C 216.5,8.83333 216.5,9.16667 216.5,9.5C 214.834,76.6605 213.834,143.994 213.5,211.5C 213.5,143.833 213.5,76.1667 213.5,8.5 Z"/></g>
<g><path style="opacity:0.455" fill="#f3a5a0" d="M 216.5,8.5 C 217.499,78.3313 217.833,148.331 217.5,218.5C 214.206,218.741 211.206,217.908 208.5,216C 199.66,210.637 190.993,205.137 182.5,199.5C 188.5,202.5 194.5,205.5 200.5,208.5C 205.271,211.726 210.271,214.726 215.5,217.5C 216.5,148.17 216.833,78.8365 216.5,9.5C 216.5,9.16667 216.5,8.83333 216.5,8.5 Z"/></g>
<g><path style="opacity:0.898" fill="#82a4af" d="M 128.5,50.5 C 126.291,53.3304 123.291,54.9971 119.5,55.5C 122.24,53.4405 125.24,51.7738 128.5,50.5 Z"/></g>
<g><path style="opacity:0.38" fill="#7ba4af" d="M 89.5,73.5 C 87.8185,75.0075 85.8185,76.0075 83.5,76.5C 84.911,74.461 86.911,73.461 89.5,73.5 Z"/></g>
<g><path style="opacity:0.086" fill="#9dbcc3" d="M 43.5,99.5 C 42.3406,101.25 40.674,102.25 38.5,102.5C 39.6594,100.75 41.326,99.7497 43.5,99.5 Z"/></g>
<g><path style="opacity:0.314" fill="#699ba7" d="M 33.5,105.5 C 33.3893,106.117 33.056,106.617 32.5,107C 34.0629,107.759 35.0629,108.926 35.5,110.5C 35.1667,110.5 34.8333,110.5 34.5,110.5C 33.0707,109.766 32.0707,108.599 31.5,107C 31.8361,105.97 32.5028,105.47 33.5,105.5 Z"/></g>
<g><path style="opacity:0.024" fill="#f4a7a2" d="M 34.5,114.5 C 36.9237,115.03 39.257,115.864 41.5,117C 48.6745,121.363 55.6745,125.863 62.5,130.5C 56.1887,127.344 49.8553,124.178 43.5,121C 40.079,119.301 37.079,117.135 34.5,114.5 Z"/></g>
<g><path style="opacity:0.999" fill="#f6766b" d="M 34.5,110.5 C 34.8333,110.5 35.1667,110.5 35.5,110.5C 91.3056,142.237 146.972,174.237 202.5,206.5C 201.5,206.833 200.833,207.5 200.5,208.5C 194.5,205.5 188.5,202.5 182.5,199.5C 168.929,189.945 154.595,181.612 139.5,174.5C 138.508,174.672 137.842,174.338 137.5,173.5C 130.608,167.974 122.941,163.641 114.5,160.5C 97.8282,149.493 80.4948,139.493 62.5,130.5C 55.6745,125.863 48.6745,121.363 41.5,117C 39.257,115.864 36.9237,115.03 34.5,114.5C 34.5,113.167 34.5,111.833 34.5,110.5 Z"/></g>
<g><path style="opacity:0.118" fill="#f5a8a4" d="M 62.5,130.5 C 80.4948,139.493 97.8282,149.493 114.5,160.5C 96.5052,151.507 79.1718,141.507 62.5,130.5 Z"/></g>
<g><path style="opacity:0.043" fill="#f5aaa5" d="M 114.5,160.5 C 122.941,163.641 130.608,167.974 137.5,173.5C 129.046,170.443 121.38,166.11 114.5,160.5 Z"/></g>
<g><path style="opacity:0.187" fill="#f3a5a0" d="M 139.5,174.5 C 154.595,181.612 168.929,189.945 182.5,199.5C 167.372,192.439 153.038,184.106 139.5,174.5 Z"/></g>
</svg>
