<?xml version="1.0" encoding="UTF-8"?>
<!DOCTYPE svg PUBLIC "-//W3C//DTD SVG 1.1//EN" "http://www.w3.org/Graphics/SVG/1.1/DTD/svg11.dtd">
<svg xmlns="http://www.w3.org/2000/svg" version="1.1" width="340px" height="373px" style="shape-rendering:geometricPrecision; text-rendering:geometricPrecision; image-rendering:optimizeQuality; fill-rule:evenodd; clip-rule:evenodd" xmlns:xlink="http://www.w3.org/1999/xlink">
<g><path style="opacity:0.998" fill="#919191" d="M 30.5,1.5 C 124.025,0.17772 217.359,0.17772 310.5,1.5C 310.5,1.83333 310.5,2.16667 310.5,2.5C 309.883,2.61071 309.383,2.94404 309,3.5C 216.23,2.79927 123.397,2.1326 30.5,1.5 Z"/></g>
<g><path style="opacity:1" fill="#676767" d="M 30.5,1.5 C 123.397,2.1326 216.23,2.79927 309,3.5C 309.383,2.94404 309.883,2.61071 310.5,2.5C 310.5,3.83333 310.5,5.16667 310.5,6.5C 309.167,6.5 307.833,6.5 306.5,6.5C 214.167,6.5 121.833,6.5 29.5,6.5C 29.5,5.16667 29.5,3.83333 29.5,2.5C 29.5,1.83333 29.8333,1.5 30.5,1.5 Z"/></g>
<g><path style="opacity:1" fill="#afafaf" d="M 29.5,2.5 C 29.5,3.83333 29.5,5.16667 29.5,6.5C 121.833,6.5 214.167,6.5 306.5,6.5C 274.336,7.33244 242.003,7.83244 209.5,8C 205.569,8.99611 201.569,9.49611 197.5,9.5C 188.835,8.96308 180.169,8.46308 171.5,8C 125.835,7.50001 80.1679,7.33334 34.5,7.5C 32.5,7.5 30.5,7.5 28.5,7.5C 28.2155,5.58533 28.5489,3.91866 29.5,2.5 Z"/></g>
<g><path style="opacity:1" fill="#b8b8b8" d="M 310.5,1.5 C 311.468,3.60737 311.802,5.9407 311.5,8.5C 310.167,9.16667 308.833,9.83333 307.5,10.5C 306.778,10.0825 306.278,9.4158 306,8.5C 289.641,9.64332 273.308,10.9766 257,12.5C 253.564,11.7137 250.064,11.0471 246.5,10.5C 239.769,12.0264 232.936,12.693 226,12.5C 220.656,12.4476 215.489,11.7809 210.5,10.5C 203.528,11.0036 196.361,11.6702 189,12.5C 165.288,11.7343 141.455,11.7343 117.5,12.5C 115.036,12.4101 112.87,11.7435 111,10.5C 105.327,12.0495 99.4934,12.7162 93.5,12.5C 89.1667,12.3333 84.8333,12.1667 80.5,12C 83.1667,11.6667 85.8333,11.3333 88.5,11C 70.5031,10.5001 52.5031,10.3334 34.5,10.5C 34.5,9.5 34.5,8.5 34.5,7.5C 80.1679,7.33334 125.835,7.50001 171.5,8C 180.169,8.46308 188.835,8.96308 197.5,9.5C 201.569,9.49611 205.569,8.99611 209.5,8C 242.003,7.83244 274.336,7.33244 306.5,6.5C 307.833,6.5 309.167,6.5 310.5,6.5C 310.5,5.16667 310.5,3.83333 310.5,2.5C 310.5,2.16667 310.5,1.83333 310.5,1.5 Z"/></g>
<g><path style="opacity:1" fill="#c1c1c1" d="M 28.5,7.5 C 30.5,7.5 32.5,7.5 34.5,7.5C 34.5,8.5 34.5,9.5 34.5,10.5C 52.5031,10.3334 70.5031,10.5001 88.5,11C 85.8333,11.3333 83.1667,11.6667 80.5,12C 84.8333,12.1667 89.1667,12.3333 93.5,12.5C 99.4934,12.7162 105.327,12.0495 111,10.5C 112.87,11.7435 115.036,12.4101 117.5,12.5C 141.455,11.7343 165.288,11.7343 189,12.5C 196.361,11.6702 203.528,11.0036 210.5,10.5C 215.489,11.7809 220.656,12.4476 226,12.5C 232.936,12.693 239.769,12.0264 246.5,10.5C 250.064,11.0471 253.564,11.7137 257,12.5C 273.308,10.9766 289.641,9.64332 306,8.5C 306.278,9.4158 306.778,10.0825 307.5,10.5C 306.737,11.2679 305.737,11.7679 304.5,12C 300.167,12.3333 295.833,12.6667 291.5,13C 245.833,13.3333 200.167,13.6667 154.5,14C 153.244,14.4169 152.577,15.2502 152.5,16.5C 114.903,15.172 77.2362,14.172 39.5,13.5C 37.3035,13.5046 35.3035,13.838 33.5,14.5C 29.9074,13.5702 28.2407,11.2368 28.5,7.5 Z"/></g>
<g><path style="opacity:0.939" fill="#cbcbcb" d="M 311.5,8.5 C 310.89,13.004 308.223,15.504 303.5,16C 266.507,17.0132 229.507,17.6799 192.5,18C 185.924,21.6565 183.591,27.1565 185.5,34.5C 184.911,38.4612 183.578,42.1278 181.5,45.5C 180.669,61.3281 180.169,77.3281 180,93.5C 179.826,76.5928 179.326,59.7595 178.5,43C 181.913,40.801 183.247,37.6343 182.5,33.5C 183.067,29.5087 181.9,26.1754 179,23.5C 178.536,24.0944 178.369,24.7611 178.5,25.5C 177.5,24.8333 176.5,24.1667 175.5,23.5C 172.064,22.2185 168.731,22.2185 165.5,23.5C 159.973,25.2209 158.14,28.8876 160,34.5C 160.2,36.3197 161.034,37.653 162.5,38.5C 163.527,40.1942 164.861,41.5275 166.5,42.5C 164.621,42.3932 164.288,42.8932 165.5,44C 171.67,46.2575 171.003,46.9242 163.5,46C 162.956,45.2828 162.289,44.7828 161.5,44.5C 159.066,43.2287 157.566,41.2287 157,38.5C 156.55,34.8125 156.717,31.1458 157.5,27.5C 159.266,25.2294 161.266,23.0627 163.5,21C 161.516,19.1902 159.349,19.0235 157,20.5C 155.649,18.9818 154.149,17.6485 152.5,16.5C 152.577,15.2502 153.244,14.4169 154.5,14C 200.167,13.6667 245.833,13.3333 291.5,13C 295.833,12.6667 300.167,12.3333 304.5,12C 305.737,11.7679 306.737,11.2679 307.5,10.5C 308.833,9.83333 310.167,9.16667 311.5,8.5 Z"/></g>
<g><path style="opacity:1" fill="#b7b7b7" d="M 152.5,16.5 C 154.149,17.6485 155.649,18.9818 157,20.5C 159.349,19.0235 161.516,19.1902 163.5,21C 161.266,23.0627 159.266,25.2294 157.5,27.5C 156.394,22.5598 153.394,19.3932 148.5,18C 111.163,17.5522 73.8293,16.8855 36.5,16C 35.2625,15.7679 34.2625,15.2679 33.5,14.5C 35.3035,13.838 37.3035,13.5046 39.5,13.5C 77.2362,14.172 114.903,15.172 152.5,16.5 Z"/></g>
<g><path style="opacity:1" fill="#7c7c7c" d="M 175.5,23.5 C 176.125,27.9696 175.792,32.4696 174.5,37C 174.245,38.3261 173.578,39.3261 172.5,40C 173.252,40.6708 173.586,41.5041 173.5,42.5C 171.167,42.5 168.833,42.5 166.5,42.5C 164.861,41.5275 163.527,40.1942 162.5,38.5C 163.006,35.9453 162.672,33.2786 161.5,30.5C 163.098,28.3021 164.431,25.9687 165.5,23.5C 168.731,22.2185 172.064,22.2185 175.5,23.5 Z"/></g>
<g><path style="opacity:1" fill="#919191" d="M 175.5,23.5 C 176.5,24.1667 177.5,24.8333 178.5,25.5C 182.357,32.839 180.69,38.5057 173.5,42.5C 173.586,41.5041 173.252,40.6708 172.5,40C 173.578,39.3261 174.245,38.3261 174.5,37C 175.792,32.4696 176.125,27.9696 175.5,23.5 Z"/></g>
<g><path style="opacity:1" fill="#979797" d="M 165.5,23.5 C 164.431,25.9687 163.098,28.3021 161.5,30.5C 162.672,33.2786 163.006,35.9453 162.5,38.5C 161.034,37.653 160.2,36.3197 160,34.5C 158.14,28.8876 159.973,25.2209 165.5,23.5 Z"/></g>
<g><path style="opacity:0.935" fill="#dbdbdb" d="M 181.5,45.5 C 180.767,113.209 181.767,180.875 184.5,248.5C 183.833,248.5 183.5,248.167 183.5,247.5C 179.762,240.468 174.096,237.468 166.5,238.5C 165.167,238.5 164.5,239.167 164.5,240.5C 161.885,241.45 159.885,243.117 158.5,245.5C 160.994,178.695 161.994,111.695 161.5,44.5C 162.289,44.7828 162.956,45.2828 163.5,46C 171.003,46.9242 171.67,46.2575 165.5,44C 164.288,42.8932 164.621,42.3932 166.5,42.5C 168.833,42.5 171.167,42.5 173.5,42.5C 180.69,38.5057 182.357,32.839 178.5,25.5C 178.369,24.7611 178.536,24.0944 179,23.5C 181.9,26.1754 183.067,29.5087 182.5,33.5C 183.247,37.6343 181.913,40.801 178.5,43C 179.326,59.7595 179.826,76.5928 180,93.5C 180.169,77.3281 180.669,61.3281 181.5,45.5 Z"/></g>
<g><path style="opacity:1" fill="#e9e9e9" d="M 174.5,45.5 C 175.833,45.5 177.167,45.5 178.5,45.5C 178.977,110.211 179.643,174.877 180.5,239.5C 179.156,238.016 176.822,237.182 173.5,237C 172.809,235.933 172.309,234.766 172,233.5C 171.845,184.426 171.679,135.426 171.5,86.5C 172.315,73.5453 172.815,60.5453 173,47.5C 173.717,46.9558 174.217,46.2891 174.5,45.5 Z"/></g>
<g><path style="opacity:1" fill="#909090" d="M 166.5,238.5 C 174.096,237.468 179.762,240.468 183.5,247.5C 182.542,247.047 181.708,246.381 181,245.5C 180.355,246.646 179.522,247.646 178.5,248.5C 179.979,261.574 180.813,274.574 181,287.5C 180.25,288.126 179.416,288.626 178.5,289C 180.091,291.386 181.091,294.053 181.5,297C 181.773,301.55 181.44,306.217 180.5,311C 180.577,315.843 181.744,320.343 184,324.5C 184.5,304.503 184.667,284.503 184.5,264.5C 185.815,295.996 186.315,327.662 186,359.5C 184.562,365.419 181.062,369.419 175.5,371.5C 175.611,370.883 175.944,370.383 176.5,370C 174.563,369.878 173.23,369.045 172.5,367.5C 175.018,366.076 177.351,364.409 179.5,362.5C 180.873,362.657 182.207,362.49 183.5,362C 183,361.5 182.5,361 182,360.5C 182.776,353.778 180.776,348.112 176,343.5C 175.667,341.833 175.333,340.167 175,338.5C 173.872,310.18 173.205,281.846 173,253.5C 172.534,248.891 171.7,244.391 170.5,240C 170.833,239.667 171.167,239.333 171.5,239C 169.866,238.506 168.199,238.34 166.5,238.5 Z"/></g>
<g><path style="opacity:1" fill="#868686" d="M 183.5,247.5 C 183.5,248.167 183.833,248.5 184.5,248.5C 184.5,253.833 184.5,259.167 184.5,264.5C 184.667,284.503 184.5,304.503 184,324.5C 181.744,320.343 180.577,315.843 180.5,311C 181.44,306.217 181.773,301.55 181.5,297C 181.091,294.053 180.091,291.386 178.5,289C 179.416,288.626 180.25,288.126 181,287.5C 180.813,274.574 179.979,261.574 178.5,248.5C 179.522,247.646 180.355,246.646 181,245.5C 181.708,246.381 182.542,247.047 183.5,247.5 Z"/></g>
<g><path style="opacity:1" fill="#7e7e7e" d="M 166.5,238.5 C 168.199,238.34 169.866,238.506 171.5,239C 171.167,239.333 170.833,239.667 170.5,240C 171.7,244.391 172.534,248.891 173,253.5C 173.205,281.846 173.872,310.18 175,338.5C 175.333,340.167 175.667,341.833 176,343.5C 180.776,348.112 182.776,353.778 182,360.5C 182.5,361 183,361.5 183.5,362C 182.207,362.49 180.873,362.657 179.5,362.5C 181.206,358.475 180.706,354.808 178,351.5C 177.814,354.036 177.314,356.369 176.5,358.5C 177.426,354.07 176.093,350.737 172.5,348.5C 173.552,348.649 174.552,348.483 175.5,348C 174.109,346.98 172.609,346.147 171,345.5C 171.094,311.459 170.928,277.459 170.5,243.5C 169.167,243.5 167.833,243.5 166.5,243.5C 166.773,271.911 166.773,300.411 166.5,329C 166.631,333.649 165.964,338.149 164.5,342.5C 164.599,344.799 165.266,346.799 166.5,348.5C 162.624,353.074 162.624,357.574 166.5,362C 168.134,362.494 169.801,362.66 171.5,362.5C 170.082,364.308 168.082,364.975 165.5,364.5C 165.5,365.5 165.5,366.5 165.5,367.5C 167.833,367.5 170.167,367.5 172.5,367.5C 173.23,369.045 174.563,369.878 176.5,370C 175.944,370.383 175.611,370.883 175.5,371.5C 174.833,371.5 174.5,371.833 174.5,372.5C 171.167,372.5 167.833,372.5 164.5,372.5C 159.847,370.199 156.847,366.532 155.5,361.5C 157.198,355.423 158.531,349.256 159.5,343C 157.35,340.532 157.516,338.699 160,337.5C 160.695,333.37 160.195,329.37 158.5,325.5C 158.667,324.5 158.833,323.5 159,322.5C 159.333,323.833 159.667,325.167 160,326.5C 160.781,315.812 161.781,305.145 163,294.5C 163.812,287.253 163.646,280.086 162.5,273C 163.457,262.076 164.124,251.243 164.5,240.5C 164.5,239.167 165.167,238.5 166.5,238.5 Z"/></g>
<g><path style="opacity:0.388" fill="#b5b6b5" d="M 158.5,245.5 C 158.631,257.032 157.964,268.366 156.5,279.5C 156.369,267.968 157.036,256.634 158.5,245.5 Z"/></g>
<g><path style="opacity:1" fill="#8c8d8c" d="M 164.5,240.5 C 164.124,251.243 163.457,262.076 162.5,273C 163.646,280.086 163.812,287.253 163,294.5C 161.781,305.145 160.781,315.812 160,326.5C 159.667,325.167 159.333,323.833 159,322.5C 158.833,323.5 158.667,324.5 158.5,325.5C 160.195,329.37 160.695,333.37 160,337.5C 157.516,338.699 157.35,340.532 159.5,343C 158.531,349.256 157.198,355.423 155.5,361.5C 154.578,334.318 154.911,306.985 156.5,279.5C 157.964,268.366 158.631,257.032 158.5,245.5C 159.885,243.117 161.885,241.45 164.5,240.5 Z"/></g>
<g><path style="opacity:1" fill="#727372" d="M 172.5,348.5 C 170.5,348.5 168.5,348.5 166.5,348.5C 165.266,346.799 164.599,344.799 164.5,342.5C 165.964,338.149 166.631,333.649 166.5,329C 166.773,300.411 166.773,271.911 166.5,243.5C 167.833,243.5 169.167,243.5 170.5,243.5C 170.928,277.459 171.094,311.459 171,345.5C 172.609,346.147 174.109,346.98 175.5,348C 174.552,348.483 173.552,348.649 172.5,348.5 Z"/></g>
<g><path style="opacity:1" fill="#f5f5f5" d="M 166.5,348.5 C 168.5,348.5 170.5,348.5 172.5,348.5C 176.093,350.737 177.426,354.07 176.5,358.5C 175.415,360.587 173.749,361.92 171.5,362.5C 169.801,362.66 168.134,362.494 166.5,362C 162.624,357.574 162.624,353.074 166.5,348.5 Z"/></g>
<g><path style="opacity:1" fill="#686868" d="M 179.5,362.5 C 177.351,364.409 175.018,366.076 172.5,367.5C 170.167,367.5 167.833,367.5 165.5,367.5C 165.5,366.5 165.5,365.5 165.5,364.5C 168.082,364.975 170.082,364.308 171.5,362.5C 173.749,361.92 175.415,360.587 176.5,358.5C 177.314,356.369 177.814,354.036 178,351.5C 180.706,354.808 181.206,358.475 179.5,362.5 Z"/></g>
</svg>
