<?xml version="1.0" encoding="UTF-8"?>
<!DOCTYPE svg PUBLIC "-//W3C//DTD SVG 1.1//EN" "http://www.w3.org/Graphics/SVG/1.1/DTD/svg11.dtd">
<svg xmlns="http://www.w3.org/2000/svg" version="1.1" width="512px" height="512px" style="shape-rendering:geometricPrecision; text-rendering:geometricPrecision; image-rendering:optimizeQuality; fill-rule:evenodd; clip-rule:evenodd" xmlns:xlink="http://www.w3.org/1999/xlink">
<g><path style="opacity:0.991" fill="#fb7468" d="M 511.5,96.5 C 511.5,97.1667 511.5,97.8333 511.5,98.5C 496.941,118.561 479.775,136.227 460,151.5C 460.526,253.721 422.026,337.554 344.5,403C 277.225,452.654 201.891,471.987 118.5,461C 75.7108,454.685 36.0441,440.185 -0.5,417.5C -0.5,416.833 -0.5,416.167 -0.5,415.5C 55.9977,421.72 106.998,407.887 152.5,374C 110.62,370.073 80.1199,349.573 61,312.5C 59.1927,308.244 57.6927,303.911 56.5,299.5C 71.2739,302.233 85.9405,301.733 100.5,298C 54.0455,284.266 27.2121,253.432 20,205.5C 19.1735,201.459 19.3401,197.459 20.5,193.5C 34.5582,201.263 49.5582,205.43 65.5,206C 26.5386,175.787 13.0386,136.62 25,88.5C 27.2137,80.9066 30.3803,73.7399 34.5,67C 35.1667,66.3333 35.8333,66.3333 36.5,67C 92.0689,133.62 163.402,169.786 250.5,175.5C 243.096,127.158 259.429,89.3245 299.5,62C 335.829,42.667 372.162,42.667 408.5,62C 416.582,67.4111 424.082,73.5777 431,80.5C 454.414,75.3632 476.414,66.6965 497,54.5C 490.225,78.9677 476.058,98.1344 454.5,112C 474.162,109.5 493.162,104.333 511.5,96.5 Z"/></g>
</svg>
