<?xml version="1.0" encoding="UTF-8"?>
<!DOCTYPE svg PUBLIC "-//W3C//DTD SVG 1.1//EN" "http://www.w3.org/Graphics/SVG/1.1/DTD/svg11.dtd">
<svg xmlns="http://www.w3.org/2000/svg" version="1.1" width="666px" height="375px" style="shape-rendering:geometricPrecision; text-rendering:geometricPrecision; image-rendering:optimizeQuality; fill-rule:evenodd; clip-rule:evenodd" xmlns:xlink="http://www.w3.org/1999/xlink">
<g><path style="opacity:0.573" fill="#b0c1d9" d="M 411.5,112.5 C 403.483,112.501 395.483,112.834 387.5,113.5C 395.445,111.444 403.445,111.111 411.5,112.5 Z"/></g>
<g><path style="opacity:0.365" fill="#9eb2cf" d="M 411.5,112.5 C 417.142,112.496 422.475,113.496 427.5,115.5C 421.924,115.129 416.591,114.129 411.5,112.5 Z"/></g>
<g><path style="opacity:0.31" fill="#aeb3cb" d="M 174.5,116.5 C 151.199,115.53 127.866,115.197 104.5,115.5C 104.5,116.833 104.5,118.167 104.5,119.5C 110.225,120.258 115.559,121.925 120.5,124.5C 118.799,124.034 117.299,124.034 116,124.5C 112.114,122.32 107.947,120.986 103.5,120.5C 103.5,118.5 103.5,116.5 103.5,114.5C 124.219,114.517 144.719,114.184 165,113.5C 168.42,113.998 171.587,114.998 174.5,116.5 Z"/></g>
<g><path style="opacity:0.275" fill="#acb9d3" d="M 276.5,118.5 C 276.5,117.5 276.5,116.5 276.5,115.5C 263.421,115.186 250.421,115.52 237.5,116.5C 250.458,114.519 263.791,113.852 277.5,114.5C 277.768,116.099 277.434,117.432 276.5,118.5 Z"/></g>
<g><path style="opacity:0.31" fill="#aabbd5" d="M 329.5,121.5 C 329.5,119.5 329.5,117.5 329.5,115.5C 317.087,115.187 304.753,115.521 292.5,116.5C 304.789,114.52 317.456,113.853 330.5,114.5C 330.802,117.059 330.468,119.393 329.5,121.5 Z"/></g>
<g><path style="opacity:0.533" fill="#9aabc8" d="M 386.5,113.5 C 383.093,115.074 379.427,116.074 375.5,116.5C 378.799,114.517 382.466,113.517 386.5,113.5 Z"/></g>
<g><path style="opacity:0.278" fill="#a6bfda" d="M 532.5,116.5 C 519.216,115.221 505.882,115.221 492.5,116.5C 492.918,115.778 493.584,115.278 494.5,115C 503.411,114.819 512.245,114.319 521,113.5C 525.214,113.827 529.048,114.827 532.5,116.5 Z"/></g>
<g><path style="opacity:1" fill="#153d87" d="M 411.5,112.5 C 416.591,114.129 421.924,115.129 427.5,115.5C 429.515,116.924 431.848,117.59 434.5,117.5C 436.202,119.8 436.868,122.467 436.5,125.5C 436.58,128.781 435.913,131.781 434.5,134.5C 432.825,137.507 432.159,140.84 432.5,144.5C 431.768,145.808 430.934,147.142 430,148.5C 428.644,147.62 427.144,147.286 425.5,147.5C 422.619,145.32 419.286,144.32 415.5,144.5C 412.763,144.599 410.096,144.265 407.5,143.5C 402.684,142.35 397.684,142.184 392.5,143C 390.148,143.24 388.148,144.073 386.5,145.5C 384.396,145.201 382.396,145.534 380.5,146.5C 380.709,147.086 381.043,147.586 381.5,148C 380.376,148.249 379.376,148.749 378.5,149.5C 378.393,152.192 378.726,154.859 379.5,157.5C 380.338,157.842 380.672,158.508 380.5,159.5C 380.833,161.833 382.167,163.167 384.5,163.5C 385.035,165.446 386.368,166.446 388.5,166.5C 389.514,167.674 390.847,168.34 392.5,168.5C 393.492,168.328 394.158,168.662 394.5,169.5C 394.973,170.906 395.973,171.573 397.5,171.5C 399.153,171.66 400.486,172.326 401.5,173.5C 398.193,174.051 394.86,174.384 391.5,174.5C 391.666,184.506 391.5,194.506 391,204.5C 389.869,203.396 389.035,203.729 388.5,205.5C 388.953,207.565 389.953,209.232 391.5,210.5C 392.386,209.675 392.719,208.675 392.5,207.5C 393.675,207.281 394.675,207.614 395.5,208.5C 395.372,211.266 394.706,214.1 393.5,217C 393.986,219.422 394.319,221.589 394.5,223.5C 393.3,224.292 391.967,224.292 390.5,223.5C 390.5,222.833 390.5,222.167 390.5,221.5C 390.833,219.5 391.167,217.5 391.5,215.5C 391.771,213.62 391.104,212.287 389.5,211.5C 389.167,210.833 388.833,210.167 388.5,209.5C 388.5,207.5 387.5,206.5 385.5,206.5C 385.027,205.094 384.027,204.427 382.5,204.5C 380.847,204.34 379.514,203.674 378.5,202.5C 378.027,201.094 377.027,200.427 375.5,200.5C 374.209,200.737 373.209,200.404 372.5,199.5C 372.027,198.094 371.027,197.427 369.5,197.5C 367.181,197.008 365.181,196.008 363.5,194.5C 363.027,193.094 362.027,192.427 360.5,192.5C 359.738,190.738 358.404,189.738 356.5,189.5C 356.167,188.833 355.833,188.167 355.5,187.5C 355.461,186.244 355.961,185.244 357,184.5C 357.19,169.635 357.69,154.801 358.5,140C 356.834,137.204 357.167,134.704 359.5,132.5C 358.5,131.167 357.5,131.167 356.5,132.5C 356.02,134.949 355.02,137.115 353.5,139C 351.681,139.783 350.348,139.283 349.5,137.5C 352.361,134.943 354.694,131.943 356.5,128.5C 358.527,125.806 360.861,123.473 363.5,121.5C 364.514,120.326 365.847,119.66 367.5,119.5C 370.649,119.585 373.316,118.585 375.5,116.5C 379.427,116.074 383.093,115.074 386.5,113.5C 386.833,113.5 387.167,113.5 387.5,113.5C 395.483,112.834 403.483,112.501 411.5,112.5 Z"/></g>
<g><path style="opacity:0.02" fill="#bccde2" d="M 427.5,115.5 C 430.152,115.41 432.485,116.076 434.5,117.5C 431.848,117.59 429.515,116.924 427.5,115.5 Z"/></g>
<g><path style="opacity:1" fill="#242665" d="M 174.5,116.5 C 176.153,116.66 177.486,117.326 178.5,118.5C 179.08,120.749 180.413,122.415 182.5,123.5C 182.631,124.239 182.464,124.906 182,125.5C 178.148,119.491 172.648,116.491 165.5,116.5C 165.667,135.503 165.5,154.503 165,173.5C 163.474,174.545 162.641,176.045 162.5,178C 163.009,179.777 163.009,181.277 162.5,182.5C 162.409,178.024 160.409,175.024 156.5,173.5C 156.253,170.146 155.253,167.146 153.5,164.5C 152.366,161.63 151.7,158.63 151.5,155.5C 151.102,151.239 150.102,147.239 148.5,143.5C 147.264,141.351 146.264,139.018 145.5,136.5C 145.5,134.5 144.5,133.5 142.5,133.5C 142.027,132.094 141.027,131.427 139.5,131.5C 136.082,130.361 132.749,129.028 129.5,127.5C 127.383,125.345 124.716,124.345 121.5,124.5C 121.167,124.5 120.833,124.5 120.5,124.5C 115.559,121.925 110.225,120.258 104.5,119.5C 104.5,118.167 104.5,116.833 104.5,115.5C 127.866,115.197 151.199,115.53 174.5,116.5 Z"/></g>
<g><path style="opacity:1" fill="#1f2768" d="M 182.5,123.5 C 183.338,123.842 183.672,124.508 183.5,125.5C 184.132,129.702 185.132,133.702 186.5,137.5C 187.219,139.764 187.552,142.097 187.5,144.5C 187.5,145.5 187.5,146.5 187.5,147.5C 186.21,146.942 185.377,145.942 185,144.5C 184.567,136.914 183.734,136.747 182.5,144C 183.03,146.207 184.03,148.207 185.5,150C 184.31,153.249 184.643,156.416 186.5,159.5C 185.976,161.383 185.309,163.216 184.5,165C 186.475,195.381 187.142,225.881 186.5,256.5C 197.231,257.554 207.898,257.554 218.5,256.5C 218.672,257.492 218.338,258.158 217.5,258.5C 204.5,258.5 191.5,258.5 178.5,258.5C 178.253,255.146 177.253,252.146 175.5,249.5C 174.699,247.958 174.366,246.292 174.5,244.5C 174.829,241.772 174.163,239.438 172.5,237.5C 172.829,234.772 172.163,232.438 170.5,230.5C 169.422,227.598 168.756,224.598 168.5,221.5C 168.37,217.475 167.37,213.809 165.5,210.5C 165.5,210.167 165.5,209.833 165.5,209.5C 164.411,201.8 162.411,194.467 159.5,187.5C 158.699,185.958 158.366,184.292 158.5,182.5C 158.829,179.772 158.163,177.438 156.5,175.5C 156.5,174.833 156.5,174.167 156.5,173.5C 160.409,175.024 162.409,178.024 162.5,182.5C 163.009,181.277 163.009,179.777 162.5,178C 162.641,176.045 163.474,174.545 165,173.5C 165.5,154.503 165.667,135.503 165.5,116.5C 172.648,116.491 178.148,119.491 182,125.5C 182.464,124.906 182.631,124.239 182.5,123.5 Z"/></g>
<g><path style="opacity:1" fill="#1d2f72" d="M 276.5,118.5 C 276.672,119.492 276.338,120.158 275.5,120.5C 274.069,121.78 273.402,123.447 273.5,125.5C 273.672,126.492 273.338,127.158 272.5,127.5C 271.069,128.78 270.402,130.447 270.5,132.5C 267.372,137.767 265.039,143.434 263.5,149.5C 261.707,151.426 260.707,153.759 260.5,156.5C 258.707,158.426 257.707,160.759 257.5,163.5C 255.597,166.53 254.263,169.863 253.5,173.5C 251.375,176.088 250.042,179.088 249.5,182.5C 248.069,183.78 247.402,185.447 247.5,187.5C 246.069,188.78 245.402,190.447 245.5,192.5C 245.065,195.157 244.065,197.491 242.5,199.5C 241.069,200.78 240.402,202.447 240.5,204.5C 239.069,205.78 238.402,207.447 238.5,209.5C 236.678,215.136 234.345,220.469 231.5,225.5C 230.069,226.78 229.402,228.447 229.5,230.5C 228.069,231.78 227.402,233.447 227.5,235.5C 226.345,239.797 224.679,243.797 222.5,247.5C 222.154,244.398 222.821,241.565 224.5,239C 223.675,236.23 223.341,233.563 223.5,231C 224.744,230.544 225.577,231.044 226,232.5C 228.728,229.729 228.561,227.895 225.5,227C 226.833,226.333 226.833,225.667 225.5,225C 227.615,224.576 228.448,223.409 228,221.5C 226.211,224.179 225.045,224.013 224.5,221C 224.439,219.289 225.106,217.956 226.5,217C 226,216.5 225.5,216 225,215.5C 224.667,198.833 224.333,182.167 224,165.5C 223.107,166.711 222.274,166.711 221.5,165.5C 222.025,164.808 222.692,164.308 223.5,164C 222.901,162.378 222.234,160.878 221.5,159.5C 222.939,157.412 223.606,155.079 223.5,152.5C 223.263,151.209 223.596,150.209 224.5,149.5C 226.213,148.365 226.88,146.698 226.5,144.5C 228.213,143.365 228.88,141.698 228.5,139.5C 230.213,138.365 230.88,136.698 230.5,134.5C 232.834,132.824 233.834,130.491 233.5,127.5C 233.5,127.167 233.5,126.833 233.5,126.5C 234.401,125.71 235.068,124.71 235.5,123.5C 237.074,121.898 237.741,119.898 237.5,117.5C 237.5,117.167 237.5,116.833 237.5,116.5C 250.421,115.52 263.421,115.186 276.5,115.5C 276.5,116.5 276.5,117.5 276.5,118.5 Z"/></g>
<g><path style="opacity:1" fill="#1d357a" d="M 329.5,121.5 C 328.596,122.209 328.263,123.209 328.5,124.5C 328.451,128.078 327.785,131.411 326.5,134.5C 325.087,137.219 324.42,140.219 324.5,143.5C 324.784,145.415 324.451,147.081 323.5,148.5C 322.215,151.589 321.549,154.922 321.5,158.5C 320.232,160.905 319.565,163.572 319.5,166.5C 319.5,166.833 319.5,167.167 319.5,167.5C 317.581,171.857 316.581,176.523 316.5,181.5C 316.768,183.099 316.434,184.432 315.5,185.5C 313.989,188.544 313.322,191.878 313.5,195.5C 313.451,199.078 312.785,202.411 311.5,205.5C 308.845,212.835 307.179,220.502 306.5,228.5C 304.627,232.515 303.627,236.849 303.5,241.5C 303.5,241.833 303.5,242.167 303.5,242.5C 302.087,245.219 301.42,248.219 301.5,251.5C 300.388,253.599 299.721,255.933 299.5,258.5C 287.5,258.5 275.5,258.5 263.5,258.5C 263.5,256.833 263.5,255.167 263.5,253.5C 266.537,235.917 270.203,218.583 274.5,201.5C 275.913,198.781 276.58,195.781 276.5,192.5C 278.343,180.948 280.676,169.615 283.5,158.5C 285.118,154.425 286.118,150.092 286.5,145.5C 287.407,138.72 288.74,132.053 290.5,125.5C 291.434,124.432 291.768,123.099 291.5,121.5C 291.366,119.708 291.699,118.042 292.5,116.5C 304.753,115.521 317.087,115.187 329.5,115.5C 329.5,117.5 329.5,119.5 329.5,121.5 Z"/></g>
<g><path style="opacity:1" fill="#0c4796" d="M 532.5,116.5 C 533.341,118.379 533.675,120.379 533.5,122.5C 533.657,123.873 533.49,125.207 533,126.5C 531.955,123.564 531.121,120.564 530.5,117.5C 522.521,116.335 514.521,116.168 506.5,117C 507.167,128 507.833,139 508.5,150C 507.196,150.804 506.529,151.971 506.5,153.5C 507.87,156.05 509.037,158.717 510,161.5C 510.687,163.568 510.52,165.568 509.5,167.5C 511.031,168.613 512.031,170.113 512.5,172C 511.494,176.15 511.494,180.317 512.5,184.5C 511.109,178.098 509.442,171.765 507.5,165.5C 506.549,164.081 506.216,162.415 506.5,160.5C 506.657,159.127 506.49,157.793 506,156.5C 505.333,155.167 504.667,155.167 504,156.5C 501.983,161.713 500.483,167.046 499.5,172.5C 494.879,181.68 491.213,191.347 488.5,201.5C 488.737,202.791 488.404,203.791 487.5,204.5C 486.596,205.209 486.263,206.209 486.5,207.5C 496.008,208.167 505.675,208.833 515.5,209.5C 510.248,210.806 504.914,211.639 499.5,212C 502.146,212.497 504.813,212.664 507.5,212.5C 507.5,219.5 507.5,226.5 507.5,233.5C 510.187,233.336 512.854,233.503 515.5,234C 508.5,234.333 501.5,234.667 494.5,235C 503.105,235.444 511.439,235.611 519.5,235.5C 504.515,236.499 489.515,236.833 474.5,236.5C 475.007,235.141 476.007,234.141 477.5,233.5C 476.284,232.904 474.951,232.737 473.5,233C 474.493,213.243 474.826,193.409 474.5,173.5C 472.876,173.36 471.71,174.027 471,175.5C 469.37,173.849 469.537,172.183 471.5,170.5C 471.176,168.431 470.342,168.098 469,169.5C 468.517,168.552 468.351,167.552 468.5,166.5C 468.5,165.167 468.5,163.833 468.5,162.5C 470.834,160.824 471.834,158.491 471.5,155.5C 473.213,154.365 473.88,152.698 473.5,150.5C 475.834,148.824 476.834,146.491 476.5,143.5C 476.5,143.167 476.5,142.833 476.5,142.5C 477.674,141.486 478.34,140.153 478.5,138.5C 480.834,136.824 481.834,134.491 481.5,131.5C 485.009,129.621 486.342,126.621 485.5,122.5C 487.5,121.167 489.167,119.5 490.5,117.5C 490.842,116.662 491.508,116.328 492.5,116.5C 505.882,115.221 519.216,115.221 532.5,116.5 Z"/></g>
<g><path style="opacity:0.706" fill="#8596b9" d="M 375.5,116.5 C 373.316,118.585 370.649,119.585 367.5,119.5C 369.684,117.415 372.351,116.415 375.5,116.5 Z"/></g>
<g><path style="opacity:0.365" fill="#b6c8df" d="M 490.5,117.5 C 489.167,119.5 487.5,121.167 485.5,122.5C 486.167,119.833 487.833,118.167 490.5,117.5 Z"/></g>
<g><path style="opacity:0.655" fill="#9ba4bf" d="M 178.5,118.5 C 180.587,119.585 181.92,121.251 182.5,123.5C 180.413,122.415 179.08,120.749 178.5,118.5 Z"/></g>
<g><path style="opacity:0.671" fill="#a2b3cd" d="M 434.5,117.5 C 436.346,117.222 437.68,117.889 438.5,119.5C 437.95,121.657 437.283,123.657 436.5,125.5C 436.868,122.467 436.202,119.8 434.5,117.5 Z"/></g>
<g><path style="opacity:0.855" fill="#677097" d="M 237.5,117.5 C 237.741,119.898 237.074,121.898 235.5,123.5C 235.5,122.833 235.5,122.167 235.5,121.5C 235.66,119.847 236.326,118.514 237.5,117.5 Z"/></g>
<g><path style="opacity:0.208" fill="#c3cee1" d="M 329.5,121.5 C 330.815,122.895 330.481,123.895 328.5,124.5C 328.263,123.209 328.596,122.209 329.5,121.5 Z"/></g>
<g><path style="opacity:0.098" fill="#acbad4" d="M 363.5,121.5 C 360.861,123.473 358.527,125.806 356.5,128.5C 355.833,128.5 355.167,128.5 354.5,128.5C 356.637,125.027 359.637,122.694 363.5,121.5 Z"/></g>
<g><path style="opacity:0.02" fill="#c6d3e4" d="M 275.5,120.5 C 275.88,122.698 275.213,124.365 273.5,125.5C 273.402,123.447 274.069,121.78 275.5,120.5 Z"/></g>
<g><path style="opacity:0.165" fill="#cedaea" d="M 291.5,121.5 C 291.768,123.099 291.434,124.432 290.5,125.5C 289.557,123.999 289.891,122.665 291.5,121.5 Z"/></g>
<g><path style="opacity:0.702" fill="#9097b5" d="M 121.5,124.5 C 124.716,124.345 127.383,125.345 129.5,127.5C 126.603,126.871 123.936,125.871 121.5,124.5 Z"/></g>
<g><path style="opacity:0.059" fill="#d0dae9" d="M 235.5,121.5 C 235.5,122.167 235.5,122.833 235.5,123.5C 235.068,124.71 234.401,125.71 233.5,126.5C 233.402,124.447 234.069,122.78 235.5,121.5 Z"/></g>
<g><path style="opacity:1" fill="#134d9d" d="M 533.5,122.5 C 535.451,128.923 536.785,135.589 537.5,142.5C 537.42,145.781 538.087,148.781 539.5,151.5C 543.927,168.892 547.593,186.559 550.5,204.5C 550.42,207.781 551.087,210.781 552.5,213.5C 554.785,221.589 556.451,229.923 557.5,238.5C 557.42,241.781 558.087,244.781 559.5,247.5C 561.082,250.876 561.749,254.542 561.5,258.5C 549.753,258.811 538.086,258.478 526.5,257.5C 526.784,255.585 526.451,253.919 525.5,252.5C 524.994,247.477 524.327,242.477 523.5,237.5C 507.167,237.5 490.833,237.5 474.5,237.5C 474.5,237.167 474.5,236.833 474.5,236.5C 489.515,236.833 504.515,236.499 519.5,235.5C 511.439,235.611 503.105,235.444 494.5,235C 501.5,234.667 508.5,234.333 515.5,234C 512.854,233.503 510.187,233.336 507.5,233.5C 507.5,226.5 507.5,219.5 507.5,212.5C 504.813,212.664 502.146,212.497 499.5,212C 504.914,211.639 510.248,210.806 515.5,209.5C 505.675,208.833 496.008,208.167 486.5,207.5C 490.833,207.5 495.167,207.5 499.5,207.5C 501.167,207.5 502.833,207.5 504.5,207.5C 508.5,207.5 512.5,207.5 516.5,207.5C 516.768,205.901 516.434,204.568 515.5,203.5C 514.608,197.148 513.608,190.815 512.5,184.5C 511.494,180.317 511.494,176.15 512.5,172C 512.031,170.113 511.031,168.613 509.5,167.5C 510.52,165.568 510.687,163.568 510,161.5C 509.037,158.717 507.87,156.05 506.5,153.5C 506.529,151.971 507.196,150.804 508.5,150C 507.833,139 507.167,128 506.5,117C 514.521,116.168 522.521,116.335 530.5,117.5C 531.121,120.564 531.955,123.564 533,126.5C 533.49,125.207 533.657,123.873 533.5,122.5 Z"/></g>
<g><path style="opacity:1" fill="#48659d" d="M 485.5,122.5 C 486.342,126.621 485.009,129.621 481.5,131.5C 482.075,128.088 483.408,125.088 485.5,122.5 Z"/></g>
<g><path style="opacity:0.886" fill="#757ea3" d="M 233.5,127.5 C 233.834,130.491 232.834,132.824 230.5,134.5C 230.935,131.843 231.935,129.509 233.5,127.5 Z"/></g>
<g><path style="opacity:0.341" fill="#a3adc6" d="M 272.5,127.5 C 272.598,129.553 271.931,131.22 270.5,132.5C 270.402,130.447 271.069,128.78 272.5,127.5 Z"/></g>
<g><path style="opacity:0.388" fill="#b4c1d7" d="M 354.5,128.5 C 353.167,130.5 351.5,132.167 349.5,133.5C 350.167,130.833 351.833,129.167 354.5,128.5 Z"/></g>
<g><path style="opacity:0.388" fill="#b1b9d0" d="M 183.5,125.5 C 185.728,129.076 186.728,133.076 186.5,137.5C 185.132,133.702 184.132,129.702 183.5,125.5 Z"/></g>
<g><path style="opacity:0.31" fill="#a9afc8" d="M 139.5,131.5 C 141.027,131.427 142.027,132.094 142.5,133.5C 140.973,133.573 139.973,132.906 139.5,131.5 Z"/></g>
<g><path style="opacity:0.678" fill="#8e96b4" d="M 142.5,133.5 C 144.5,133.5 145.5,134.5 145.5,136.5C 144.167,135.833 143.167,134.833 142.5,133.5 Z"/></g>
<g><path style="opacity:0.616" fill="#9ba9c5" d="M 349.5,133.5 C 349.262,135.404 348.262,136.738 346.5,137.5C 346.738,135.596 347.738,134.262 349.5,133.5 Z"/></g>
<g><path style="opacity:0.847" fill="#7a92ba" d="M 481.5,131.5 C 481.834,134.491 480.834,136.824 478.5,138.5C 478.935,135.843 479.935,133.509 481.5,131.5 Z"/></g>
<g><path style="opacity:0.733" fill="#8990ae" d="M 230.5,134.5 C 230.88,136.698 230.213,138.365 228.5,139.5C 228.796,137.597 229.463,135.93 230.5,134.5 Z"/></g>
<g><path style="opacity:0.098" fill="#b6c2d9" d="M 326.5,134.5 C 326.58,137.781 325.913,140.781 324.5,143.5C 324.42,140.219 325.087,137.219 326.5,134.5 Z"/></g>
<g><path style="opacity:1" fill="#1e2a6d" d="M 187.5,147.5 C 187.37,151.868 187.703,156.202 188.5,160.5C 185.39,163.612 185.89,165.945 190,167.5C 191.226,174.523 192.559,181.523 194,188.5C 194.236,190.119 195.069,191.119 196.5,191.5C 197.675,195.042 198.341,198.709 198.5,202.5C 198.216,204.415 198.549,206.081 199.5,207.5C 199.5,208.167 199.5,208.833 199.5,209.5C 200.301,211.793 200.968,211.46 201.5,208.5C 201.5,208.167 201.5,207.833 201.5,207.5C 203.213,206.365 203.88,204.698 203.5,202.5C 205.213,201.365 205.88,199.698 205.5,197.5C 207.213,196.365 207.88,194.698 207.5,192.5C 207.796,190.597 208.463,188.93 209.5,187.5C 211.213,186.365 211.88,184.698 211.5,182.5C 213.834,180.824 214.834,178.491 214.5,175.5C 214.5,175.167 214.5,174.833 214.5,174.5C 216.213,173.365 216.88,171.698 216.5,169.5C 217.401,168.71 218.068,167.71 218.5,166.5C 220.074,164.898 220.741,162.898 220.5,160.5C 220.5,160.167 220.5,159.833 220.5,159.5C 220.833,159.5 221.167,159.5 221.5,159.5C 222.234,160.878 222.901,162.378 223.5,164C 222.692,164.308 222.025,164.808 221.5,165.5C 222.274,166.711 223.107,166.711 224,165.5C 224.333,182.167 224.667,198.833 225,215.5C 225.5,216 226,216.5 226.5,217C 225.106,217.956 224.439,219.289 224.5,221C 225.045,224.013 226.211,224.179 228,221.5C 228.448,223.409 227.615,224.576 225.5,225C 226.833,225.667 226.833,226.333 225.5,227C 228.561,227.895 228.728,229.729 226,232.5C 225.577,231.044 224.744,230.544 223.5,231C 223.341,233.563 223.675,236.23 224.5,239C 222.821,241.565 222.154,244.398 222.5,247.5C 221.069,248.78 220.402,250.447 220.5,252.5C 220.34,254.153 219.674,255.486 218.5,256.5C 207.898,257.554 197.231,257.554 186.5,256.5C 187.142,225.881 186.475,195.381 184.5,165C 185.309,163.216 185.976,161.383 186.5,159.5C 184.643,156.416 184.31,153.249 185.5,150C 184.03,148.207 183.03,146.207 182.5,144C 183.734,136.747 184.567,136.914 185,144.5C 185.377,145.942 186.21,146.942 187.5,147.5 Z"/></g>
<g><path style="opacity:0.341" fill="#a4b5cf" d="M 434.5,134.5 C 434.678,138.122 434.011,141.456 432.5,144.5C 432.159,140.84 432.825,137.507 434.5,134.5 Z"/></g>
<g><path style="opacity:0.035" fill="#d5e2f0" d="M 478.5,138.5 C 478.34,140.153 477.674,141.486 476.5,142.5C 476.229,140.62 476.896,139.287 478.5,138.5 Z"/></g>
<g><path style="opacity:0.733" fill="#959cb8" d="M 228.5,139.5 C 228.88,141.698 228.213,143.365 226.5,144.5C 226.402,142.447 227.069,140.78 228.5,139.5 Z"/></g>
<g><path style="opacity:0.145" fill="#b6c7dd" d="M 407.5,143.5 C 400.398,143.251 393.398,143.918 386.5,145.5C 388.148,144.073 390.148,143.24 392.5,143C 397.684,142.184 402.684,142.35 407.5,143.5 Z"/></g>
<g><path style="opacity:0.035" fill="#c0cadd" d="M 270.5,132.5 C 269.127,138.635 266.793,144.301 263.5,149.5C 265.039,143.434 267.372,137.767 270.5,132.5 Z"/></g>
<g><path style="opacity:0.706" fill="#92a6c6" d="M 415.5,144.5 C 419.286,144.32 422.619,145.32 425.5,147.5C 421.952,146.87 418.619,145.87 415.5,144.5 Z"/></g>
<g><path style="opacity:0.616" fill="#9cabc7" d="M 346.5,137.5 C 344.451,142.91 342.451,148.244 340.5,153.5C 340.38,147.271 342.38,141.938 346.5,137.5 Z"/></g>
<g><path style="opacity:0.98" fill="#6878a6" d="M 386.5,145.5 C 381.673,148.004 379.34,152.004 379.5,157.5C 378.726,154.859 378.393,152.192 378.5,149.5C 379.376,148.749 380.376,148.249 381.5,148C 381.043,147.586 380.709,147.086 380.5,146.5C 382.396,145.534 384.396,145.201 386.5,145.5 Z"/></g>
<g><path style="opacity:0.098" fill="#b2bbd2" d="M 148.5,143.5 C 150.102,147.239 151.102,151.239 151.5,155.5C 149.584,151.837 148.584,147.837 148.5,143.5 Z"/></g>
<g><path style="opacity:0.863" fill="#7a93bc" d="M 476.5,143.5 C 476.834,146.491 475.834,148.824 473.5,150.5C 473.935,147.843 474.935,145.509 476.5,143.5 Z"/></g>
<g><path style="opacity:0.604" fill="#9db3d1" d="M 537.5,142.5 C 538.913,145.219 539.58,148.219 539.5,151.5C 538.087,148.781 537.42,145.781 537.5,142.5 Z"/></g>
<g><path style="opacity:0.729" fill="#8e99b7" d="M 226.5,144.5 C 226.88,146.698 226.213,148.365 224.5,149.5C 224.796,147.597 225.463,145.93 226.5,144.5 Z"/></g>
<g><path style="opacity:0.424" fill="#becadd" d="M 286.5,145.5 C 286.118,150.092 285.118,154.425 283.5,158.5C 283.425,153.808 284.425,149.474 286.5,145.5 Z"/></g>
<g><path style="opacity:0.388" fill="#93a3c1" d="M 432.5,144.5 C 432.171,149.946 429.837,150.946 425.5,147.5C 427.144,147.286 428.644,147.62 430,148.5C 430.934,147.142 431.768,145.808 432.5,144.5 Z"/></g>
<g><path style="opacity:0.114" fill="#bdc9de" d="M 323.5,148.5 C 323.678,152.122 323.011,155.456 321.5,158.5C 321.549,154.922 322.215,151.589 323.5,148.5 Z"/></g>
<g><path style="opacity:0.188" fill="#b6c3d9" d="M 263.5,149.5 C 263.293,152.241 262.293,154.574 260.5,156.5C 260.707,153.759 261.707,151.426 263.5,149.5 Z"/></g>
<g><path style="opacity:0.824" fill="#7590b8" d="M 473.5,150.5 C 473.88,152.698 473.213,154.365 471.5,155.5C 471.796,153.597 472.463,151.93 473.5,150.5 Z"/></g>
<g><path style="opacity:0.804" fill="#8a91b1" d="M 223.5,152.5 C 223.606,155.079 222.939,157.412 221.5,159.5C 221.167,159.5 220.833,159.5 220.5,159.5C 220.935,156.843 221.935,154.509 223.5,152.5 Z"/></g>
<g><path style="opacity:1" fill="#153880" d="M 354.5,128.5 C 355.167,128.5 355.833,128.5 356.5,128.5C 354.694,131.943 352.361,134.943 349.5,137.5C 350.348,139.283 351.681,139.783 353.5,139C 355.02,137.115 356.02,134.949 356.5,132.5C 357.5,131.167 358.5,131.167 359.5,132.5C 357.167,134.704 356.834,137.204 358.5,140C 357.69,154.801 357.19,169.635 357,184.5C 355.961,185.244 355.461,186.244 355.5,187.5C 354.078,186.075 352.411,185.075 350.5,184.5C 349.5,184.167 348.833,183.5 348.5,182.5C 348.446,180.368 347.446,179.035 345.5,178.5C 344.662,178.158 344.328,177.492 344.5,176.5C 344.008,174.181 343.008,172.181 341.5,170.5C 340.708,164.87 340.375,159.203 340.5,153.5C 342.451,148.244 344.451,142.91 346.5,137.5C 348.262,136.738 349.262,135.404 349.5,133.5C 351.5,132.167 353.167,130.5 354.5,128.5 Z"/></g>
<g><path style="opacity:0.239" fill="#bbcbe1" d="M 506.5,160.5 C 505.732,159.737 505.232,158.737 505,157.5C 503.608,162.784 501.775,167.784 499.5,172.5C 500.483,167.046 501.983,161.713 504,156.5C 504.667,155.167 505.333,155.167 506,156.5C 506.49,157.793 506.657,159.127 506.5,160.5 Z"/></g>
<g><path style="opacity:0.882" fill="#778fb8" d="M 471.5,155.5 C 471.834,158.491 470.834,160.824 468.5,162.5C 468.935,159.843 469.935,157.509 471.5,155.5 Z"/></g>
<g><path style="opacity:0.267" fill="#abb3cc" d="M 260.5,156.5 C 260.293,159.241 259.293,161.574 257.5,163.5C 257.707,160.759 258.707,158.426 260.5,156.5 Z"/></g>
<g><path style="opacity:0.188" fill="#d0dcec" d="M 340.5,153.5 C 340.375,159.203 340.708,164.87 341.5,170.5C 340.778,170.082 340.278,169.416 340,168.5C 339.184,163.316 339.35,158.316 340.5,153.5 Z"/></g>
<g><path style="opacity:0.573" fill="#a3b1cc" d="M 380.5,159.5 C 382.167,160.5 383.5,161.833 384.5,163.5C 382.167,163.167 380.833,161.833 380.5,159.5 Z"/></g>
<g><path style="opacity:0.987" fill="#4f5382" d="M 187.5,144.5 C 189.784,153.264 191.451,162.264 192.5,171.5C 192.42,174.781 193.087,177.781 194.5,180.5C 195.485,184.076 196.152,187.742 196.5,191.5C 195.069,191.119 194.236,190.119 194,188.5C 192.559,181.523 191.226,174.523 190,167.5C 185.89,165.945 185.39,163.612 188.5,160.5C 187.703,156.202 187.37,151.868 187.5,147.5C 187.5,146.5 187.5,145.5 187.5,144.5 Z"/></g>
<g><path style="opacity:0.886" fill="#6b7299" d="M 220.5,160.5 C 220.741,162.898 220.074,164.898 218.5,166.5C 218.5,166.167 218.5,165.833 218.5,165.5C 218.402,163.447 219.069,161.78 220.5,160.5 Z"/></g>
<g><path style="opacity:0.812" fill="#8997b8" d="M 384.5,163.5 C 386.23,164.026 387.564,165.026 388.5,166.5C 386.368,166.446 385.035,165.446 384.5,163.5 Z"/></g>
<g><path style="opacity:0.098" fill="#bfcbe0" d="M 321.5,158.5 C 321.663,160.857 321.497,163.19 321,165.5C 320.617,166.056 320.117,166.389 319.5,166.5C 319.565,163.572 320.232,160.905 321.5,158.5 Z"/></g>
<g><path style="opacity:0.02" fill="#c6cfe0" d="M 257.5,163.5 C 257.23,167.358 255.897,170.691 253.5,173.5C 254.263,169.863 255.597,166.53 257.5,163.5 Z"/></g>
<g><path style="opacity:0.114" fill="#c1cfe2" d="M 388.5,166.5 C 390.38,166.229 391.713,166.896 392.5,168.5C 390.847,168.34 389.514,167.674 388.5,166.5 Z"/></g>
<g><path style="opacity:0.498" fill="#a4acc5" d="M 153.5,164.5 C 155.253,167.146 156.253,170.146 156.5,173.5C 156.5,174.167 156.5,174.833 156.5,175.5C 155.055,172.063 154.055,168.397 153.5,164.5 Z"/></g>
<g><path style="opacity:0.071" fill="#c7d1e3" d="M 218.5,165.5 C 218.5,165.833 218.5,166.167 218.5,166.5C 218.068,167.71 217.401,168.71 216.5,169.5C 216.229,167.62 216.896,166.287 218.5,165.5 Z"/></g>
<g><path style="opacity:0.765" fill="#7f94b9" d="M 468.5,162.5 C 468.5,163.833 468.5,165.167 468.5,166.5C 467.728,167.694 466.728,168.694 465.5,169.5C 465.707,166.759 466.707,164.426 468.5,162.5 Z"/></g>
<g><path style="opacity:0.071" fill="#b6c2d8" d="M 319.5,167.5 C 319.102,172.412 318.102,177.079 316.5,181.5C 316.581,176.523 317.581,171.857 319.5,167.5 Z"/></g>
<g><path style="opacity:0.188" fill="#b7c7dc" d="M 394.5,169.5 C 396.027,169.427 397.027,170.094 397.5,171.5C 395.973,171.573 394.973,170.906 394.5,169.5 Z"/></g>
<g><path style="opacity:0.655" fill="#9da6c1" d="M 216.5,169.5 C 216.88,171.698 216.213,173.365 214.5,174.5C 214.796,172.597 215.463,170.93 216.5,169.5 Z"/></g>
<g><path style="opacity:0.824" fill="#869ec2" d="M 465.5,169.5 C 465.88,171.698 465.213,173.365 463.5,174.5C 463.402,172.447 464.069,170.78 465.5,169.5 Z"/></g>
<g><path style="opacity:0.208" fill="#b9c5da" d="M 341.5,170.5 C 343.008,172.181 344.008,174.181 344.5,176.5C 342.025,175.313 341.025,173.313 341.5,170.5 Z"/></g>
<g><path style="opacity:1" fill="#113e8b" d="M 401.5,173.5 C 402.492,173.328 403.158,173.662 403.5,174.5C 403.351,175.552 403.517,176.552 404,177.5C 404.333,177.167 404.667,176.833 405,176.5C 406.993,177.914 409.16,178.914 411.5,179.5C 413.027,179.427 414.027,180.094 414.5,181.5C 414.973,182.906 415.973,183.573 417.5,183.5C 417.5,185.5 418.5,186.5 420.5,186.5C 421.08,188.749 422.413,190.415 424.5,191.5C 424.427,193.027 425.094,194.027 426.5,194.5C 427.674,195.514 428.34,196.847 428.5,198.5C 428.41,201.152 429.076,203.485 430.5,205.5C 430.697,211.545 430.363,217.545 429.5,223.5C 429.5,223.833 429.5,224.167 429.5,224.5C 428.069,225.78 427.402,227.447 427.5,229.5C 427.008,231.819 426.008,233.819 424.5,235.5C 423.094,235.973 422.427,236.973 422.5,238.5C 420.857,238.48 419.524,239.147 418.5,240.5C 417.325,239.145 416.325,239.312 415.5,241C 416.337,242.011 416.67,243.178 416.5,244.5C 414.833,245.5 413.5,246.833 412.5,248.5C 410.664,250.588 408.331,251.921 405.5,252.5C 400.617,253.801 395.617,254.634 390.5,255C 393.382,253.48 396.382,252.147 399.5,251C 398.975,250.308 398.308,249.808 397.5,249.5C 395.164,251.585 392.831,251.751 390.5,250C 391.807,244.221 391.807,238.388 390.5,232.5C 388.802,233.681 387.135,233.681 385.5,232.5C 387.5,231.833 389.5,231.167 391.5,230.5C 390.359,229.575 390.359,228.741 391.5,228C 390.318,226.322 389.152,226.488 388,228.5C 386.316,228.317 386.15,227.65 387.5,226.5C 388.167,225.167 389.167,224.167 390.5,223.5C 391.967,224.292 393.3,224.292 394.5,223.5C 394.319,221.589 393.986,219.422 393.5,217C 394.706,214.1 395.372,211.266 395.5,208.5C 394.675,207.614 393.675,207.281 392.5,207.5C 392.719,208.675 392.386,209.675 391.5,210.5C 389.953,209.232 388.953,207.565 388.5,205.5C 389.035,203.729 389.869,203.396 391,204.5C 391.5,194.506 391.666,184.506 391.5,174.5C 394.86,174.384 398.193,174.051 401.5,173.5 Z"/></g>
<g><path style="opacity:1" fill="#7889b1" d="M 403.5,174.5 C 406.511,175.669 409.178,177.336 411.5,179.5C 409.16,178.914 406.993,177.914 405,176.5C 404.667,176.833 404.333,177.167 404,177.5C 403.517,176.552 403.351,175.552 403.5,174.5 Z"/></g>
<g><path style="opacity:0.82" fill="#7f92b7" d="M 463.5,174.5 C 463.834,177.491 462.834,179.824 460.5,181.5C 460.935,178.843 461.935,176.509 463.5,174.5 Z"/></g>
<g><path style="opacity:0.62" fill="#8a92b0" d="M 156.5,175.5 C 158.163,177.438 158.829,179.772 158.5,182.5C 157.388,180.401 156.721,178.067 156.5,175.5 Z"/></g>
<g><path style="opacity:0.824" fill="#7f85a6" d="M 214.5,175.5 C 214.834,178.491 213.834,180.824 211.5,182.5C 211.935,179.843 212.935,177.509 214.5,175.5 Z"/></g>
<g><path style="opacity:0.341" fill="#b1bcd2" d="M 192.5,171.5 C 193.913,174.219 194.58,177.219 194.5,180.5C 193.087,177.781 192.42,174.781 192.5,171.5 Z"/></g>
<g><path style="opacity:0.424" fill="#a1abc5" d="M 253.5,173.5 C 252.958,176.912 251.625,179.912 249.5,182.5C 250.042,179.088 251.375,176.088 253.5,173.5 Z"/></g>
<g><path style="opacity:0.573" fill="#8c9abb" d="M 345.5,178.5 C 347.446,179.035 348.446,180.368 348.5,182.5C 347.026,181.564 346.026,180.23 345.5,178.5 Z"/></g>
<g><path style="opacity:0.02" fill="#c9d5e6" d="M 414.5,181.5 C 416.027,181.427 417.027,182.094 417.5,183.5C 415.973,183.573 414.973,182.906 414.5,181.5 Z"/></g>
<g><path style="opacity:0.165" fill="#bbcbe0" d="M 499.5,172.5 C 496.584,182.536 492.917,192.203 488.5,201.5C 491.213,191.347 494.879,181.68 499.5,172.5 Z"/></g>
<g><path style="opacity:0.082" fill="#b8c9e0" d="M 507.5,165.5 C 509.442,171.765 511.109,178.098 512.5,184.5C 513.608,190.815 514.608,197.148 515.5,203.5C 511.705,191.197 509.038,178.53 507.5,165.5 Z"/></g>
<g><path style="opacity:0.765" fill="#8a9aba" d="M 350.5,184.5 C 352.411,185.075 354.078,186.075 355.5,187.5C 355.833,188.167 356.167,188.833 356.5,189.5C 353.911,188.581 351.911,186.914 350.5,184.5 Z"/></g>
<g><path style="opacity:0.643" fill="#90a1c0" d="M 417.5,183.5 C 418.833,184.167 419.833,185.167 420.5,186.5C 418.5,186.5 417.5,185.5 417.5,183.5 Z"/></g>
<g><path style="opacity:0.733" fill="#8c94b1" d="M 211.5,182.5 C 211.88,184.698 211.213,186.365 209.5,187.5C 209.796,185.597 210.463,183.93 211.5,182.5 Z"/></g>
<g><path style="opacity:0.31" fill="#a6b0c9" d="M 249.5,182.5 C 249.598,184.553 248.931,186.22 247.5,187.5C 247.402,185.447 248.069,183.78 249.5,182.5 Z"/></g>
<g><path style="opacity:0.698" fill="#8698ba" d="M 460.5,181.5 C 460.834,184.491 459.834,186.824 457.5,188.5C 457.707,185.759 458.707,183.426 460.5,181.5 Z"/></g>
<g><path style="opacity:1" fill="#0c4390" d="M 468.5,166.5 C 468.351,167.552 468.517,168.552 469,169.5C 470.342,168.098 471.176,168.431 471.5,170.5C 469.537,172.183 469.37,173.849 471,175.5C 471.71,174.027 472.876,173.36 474.5,173.5C 474.826,193.409 474.493,213.243 473.5,233C 474.951,232.737 476.284,232.904 477.5,233.5C 476.007,234.141 475.007,235.141 474.5,236.5C 474.5,236.833 474.5,237.167 474.5,237.5C 474.5,238.5 474.5,239.5 474.5,240.5C 473.069,241.78 472.402,243.447 472.5,245.5C 472.737,246.791 472.404,247.791 471.5,248.5C 469.802,251.231 468.469,254.231 467.5,257.5C 454.851,258.499 442.184,258.832 429.5,258.5C 429.5,257.5 429.5,256.5 429.5,255.5C 431.834,253.824 432.834,251.491 432.5,248.5C 435.556,246.353 436.89,243.353 436.5,239.5C 436.5,239.167 436.5,238.833 436.5,238.5C 437.935,237.087 438.935,235.42 439.5,233.5C 441.074,231.898 441.741,229.898 441.5,227.5C 443.897,224.691 445.23,221.358 445.5,217.5C 447.834,215.824 448.834,213.491 448.5,210.5C 448.5,210.167 448.5,209.833 448.5,209.5C 449.674,208.486 450.34,207.153 450.5,205.5C 452.213,204.365 452.88,202.698 452.5,200.5C 454.834,198.824 455.834,196.491 455.5,193.5C 457.213,192.365 457.88,190.698 457.5,188.5C 459.834,186.824 460.834,184.491 460.5,181.5C 462.834,179.824 463.834,177.491 463.5,174.5C 465.213,173.365 465.88,171.698 465.5,169.5C 466.728,168.694 467.728,167.694 468.5,166.5 Z"/></g>
<g><path style="opacity:0.643" fill="#94a6c4" d="M 420.5,186.5 C 422.587,187.585 423.92,189.251 424.5,191.5C 422.413,190.415 421.08,188.749 420.5,186.5 Z"/></g>
<g><path style="opacity:0.561" fill="#a1a9c2" d="M 159.5,187.5 C 162.411,194.467 164.411,201.8 165.5,209.5C 162.899,202.44 160.899,195.107 159.5,187.5 Z"/></g>
<g><path style="opacity:0.29" fill="#abb6ce" d="M 247.5,187.5 C 247.598,189.553 246.931,191.22 245.5,192.5C 245.402,190.447 246.069,188.78 247.5,187.5 Z"/></g>
<g><path style="opacity:0.573" fill="#8699bb" d="M 356.5,189.5 C 358.404,189.738 359.738,190.738 360.5,192.5C 358.596,192.262 357.262,191.262 356.5,189.5 Z"/></g>
<g><path style="opacity:0.765" fill="#8596b8" d="M 457.5,188.5 C 457.88,190.698 457.213,192.365 455.5,193.5C 455.796,191.597 456.463,189.93 457.5,188.5 Z"/></g>
<g><path style="opacity:0.239" fill="#a7b4ce" d="M 315.5,185.5 C 315.678,189.122 315.011,192.456 313.5,195.5C 313.322,191.878 313.989,188.544 315.5,185.5 Z"/></g>
<g><path style="opacity:0.29" fill="#aab7d0" d="M 360.5,192.5 C 362.027,192.427 363.027,193.094 363.5,194.5C 361.973,194.573 360.973,193.906 360.5,192.5 Z"/></g>
<g><path style="opacity:0.408" fill="#94abca" d="M 424.5,191.5 C 425.906,191.973 426.573,192.973 426.5,194.5C 425.094,194.027 424.427,193.027 424.5,191.5 Z"/></g>
<g><path style="opacity:0.702" fill="#8f97b5" d="M 207.5,192.5 C 207.88,194.698 207.213,196.365 205.5,197.5C 205.796,195.597 206.463,193.93 207.5,192.5 Z"/></g>
<g><path style="opacity:0.588" fill="#a2adc6" d="M 276.5,192.5 C 276.58,195.781 275.913,198.781 274.5,201.5C 274.42,198.219 275.087,195.219 276.5,192.5 Z"/></g>
<g><path style="opacity:0.212" fill="#aebed6" d="M 369.5,197.5 C 371.027,197.427 372.027,198.094 372.5,199.5C 370.973,199.573 369.973,198.906 369.5,197.5 Z"/></g>
<g><path style="opacity:0.741" fill="#8399be" d="M 455.5,193.5 C 455.834,196.491 454.834,198.824 452.5,200.5C 452.707,197.759 453.707,195.426 455.5,193.5 Z"/></g>
<g><path style="opacity:0.698" fill="#98a5c3" d="M 205.5,197.5 C 205.88,199.698 205.213,201.365 203.5,202.5C 203.402,200.447 204.069,198.78 205.5,197.5 Z"/></g>
<g><path style="opacity:0.275" fill="#a9b8d2" d="M 375.5,200.5 C 377.027,200.427 378.027,201.094 378.5,202.5C 376.973,202.573 375.973,201.906 375.5,200.5 Z"/></g>
<g><path style="opacity:0.267" fill="#b1b9d0" d="M 242.5,199.5 C 242.598,201.553 241.931,203.22 240.5,204.5C 240.402,202.447 241.069,200.78 242.5,199.5 Z"/></g>
<g><path style="opacity:0.765" fill="#8498bb" d="M 452.5,200.5 C 452.88,202.698 452.213,204.365 450.5,205.5C 450.796,203.597 451.463,201.93 452.5,200.5 Z"/></g>
<g><path style="opacity:0.522" fill="#8b9fbf" d="M 428.5,198.5 C 429.924,200.515 430.59,202.848 430.5,205.5C 429.076,203.485 428.41,201.152 428.5,198.5 Z"/></g>
<g><path style="opacity:0.698" fill="#949fbd" d="M 203.5,202.5 C 203.88,204.698 203.213,206.365 201.5,207.5C 201.796,205.597 202.463,203.93 203.5,202.5 Z"/></g>
<g><path style="opacity:0.451" fill="#8fa3c2" d="M 382.5,204.5 C 384.027,204.427 385.027,205.094 385.5,206.5C 383.973,206.573 382.973,205.906 382.5,204.5 Z"/></g>
<g><path style="opacity:0.455" fill="#b8c1d5" d="M 198.5,202.5 C 199.234,203.878 199.901,205.378 200.5,207C 200.272,207.399 199.938,207.565 199.5,207.5C 198.549,206.081 198.216,204.415 198.5,202.5 Z"/></g>
<g><path style="opacity:0.792" fill="#798ab0" d="M 385.5,206.5 C 387.5,206.5 388.5,207.5 388.5,209.5C 387.167,208.833 386.167,207.833 385.5,206.5 Z"/></g>
<g><path style="opacity:0.275" fill="#ccd8e9" d="M 450.5,205.5 C 450.34,207.153 449.674,208.486 448.5,209.5C 448.229,207.62 448.896,206.287 450.5,205.5 Z"/></g>
<g><path style="opacity:0.035" fill="#e3edf8" d="M 487.5,204.5 C 491.232,206.131 495.232,207.131 499.5,207.5C 495.167,207.5 490.833,207.5 486.5,207.5C 486.263,206.209 486.596,205.209 487.5,204.5 Z"/></g>
<g><path style="opacity:0.02" fill="#dde9f3" d="M 515.5,203.5 C 516.434,204.568 516.768,205.901 516.5,207.5C 512.5,207.5 508.5,207.5 504.5,207.5C 507.962,206.518 511.629,206.185 515.5,206.5C 515.5,205.5 515.5,204.5 515.5,203.5 Z"/></g>
<g><path style="opacity:0.176" fill="#bec8dc" d="M 240.5,204.5 C 240.598,206.553 239.931,208.22 238.5,209.5C 238.402,207.447 239.069,205.78 240.5,204.5 Z"/></g>
<g><path style="opacity:0.31" fill="#c0c7db" d="M 201.5,208.5 C 200.968,211.46 200.301,211.793 199.5,209.5C 200.167,209.167 200.833,208.833 201.5,208.5 Z"/></g>
<g><path style="opacity:0.275" fill="#aec1da" d="M 550.5,204.5 C 551.913,207.219 552.58,210.219 552.5,213.5C 551.087,210.781 550.42,207.781 550.5,204.5 Z"/></g>
<g><path style="opacity:0.098" fill="#c1cbdf" d="M 311.5,205.5 C 310.71,213.457 309.044,221.123 306.5,228.5C 307.179,220.502 308.845,212.835 311.5,205.5 Z"/></g>
<g><path style="opacity:0.098" fill="#d6e1f0" d="M 389.5,211.5 C 391.104,212.287 391.771,213.62 391.5,215.5C 390.326,214.486 389.66,213.153 389.5,211.5 Z"/></g>
<g><path style="opacity:0.765" fill="#7a90b6" d="M 448.5,210.5 C 448.834,213.491 447.834,215.824 445.5,217.5C 445.707,214.759 446.707,212.426 448.5,210.5 Z"/></g>
<g><path style="opacity:0.341" fill="#a4adc6" d="M 165.5,210.5 C 167.37,213.809 168.37,217.475 168.5,221.5C 166.882,218.112 165.882,214.446 165.5,210.5 Z"/></g>
<g><path style="opacity:0.035" fill="#d4dfee" d="M 430.5,205.5 C 431.651,210.65 431.817,215.984 431,221.5C 430.722,222.416 430.222,223.082 429.5,223.5C 430.363,217.545 430.697,211.545 430.5,205.5 Z"/></g>
<g><path style="opacity:0.824" fill="#7c93b9" d="M 445.5,217.5 C 445.23,221.358 443.897,224.691 441.5,227.5C 442.263,223.863 443.597,220.53 445.5,217.5 Z"/></g>
<g><path style="opacity:0.341" fill="#abb7cf" d="M 334.5,222.5 C 336.153,222.66 337.486,223.326 338.5,224.5C 336.62,224.771 335.287,224.104 334.5,222.5 Z"/></g>
<g><path style="opacity:0.365" fill="#aec0d8" d="M 390.5,221.5 C 390.5,222.167 390.5,222.833 390.5,223.5C 389.167,224.167 388.167,225.167 387.5,226.5C 386.833,226.5 386.167,226.5 385.5,226.5C 386.833,224.5 388.5,222.833 390.5,221.5 Z"/></g>
<g><path style="opacity:0.02" fill="#c9d6e8" d="M 429.5,224.5 C 429.88,226.698 429.213,228.365 427.5,229.5C 427.402,227.447 428.069,225.78 429.5,224.5 Z"/></g>
<g><path style="opacity:0.388" fill="#a2abc5" d="M 231.5,225.5 C 231.034,227.201 231.034,228.701 231.5,230C 230.906,230.464 230.239,230.631 229.5,230.5C 229.402,228.447 230.069,226.78 231.5,225.5 Z"/></g>
<g><path style="opacity:0.882" fill="#637dac" d="M 441.5,227.5 C 441.741,229.898 441.074,231.898 439.5,233.5C 439.5,232.833 439.5,232.167 439.5,231.5C 439.66,229.847 440.326,228.514 441.5,227.5 Z"/></g>
<g><path style="opacity:1" fill="#1e3e86" d="M 334.5,222.5 C 335.287,224.104 336.62,224.771 338.5,224.5C 341.397,225.129 344.064,226.129 346.5,227.5C 349.171,229.118 352.171,229.785 355.5,229.5C 363.167,229.5 370.833,229.5 378.5,229.5C 380.698,229.88 382.365,229.213 383.5,227.5C 383.842,226.662 384.508,226.328 385.5,226.5C 386.167,226.5 386.833,226.5 387.5,226.5C 386.15,227.65 386.316,228.317 388,228.5C 389.152,226.488 390.318,226.322 391.5,228C 390.359,228.741 390.359,229.575 391.5,230.5C 389.5,231.167 387.5,231.833 385.5,232.5C 387.135,233.681 388.802,233.681 390.5,232.5C 391.807,238.388 391.807,244.221 390.5,250C 392.831,251.751 395.164,251.585 397.5,249.5C 398.308,249.808 398.975,250.308 399.5,251C 396.382,252.147 393.382,253.48 390.5,255C 395.617,254.634 400.617,253.801 405.5,252.5C 402.912,254.625 399.912,255.958 396.5,256.5C 382.736,259.992 368.736,261.325 354.5,260.5C 354.167,260.5 353.833,260.5 353.5,260.5C 351.052,259.527 348.385,259.194 345.5,259.5C 342.219,259.58 339.219,258.913 336.5,257.5C 333.916,255.528 330.916,254.528 327.5,254.5C 327.167,254.5 326.833,254.5 326.5,254.5C 325.699,252.958 325.366,251.292 325.5,249.5C 326.882,240.424 328.715,231.424 331,222.5C 332.292,221.209 333.458,221.209 334.5,222.5 Z"/></g>
<g><path style="opacity:0.698" fill="#94a0be" d="M 383.5,227.5 C 382.365,229.213 380.698,229.88 378.5,229.5C 379.93,228.463 381.597,227.796 383.5,227.5 Z"/></g>
<g><path style="opacity:0.129" fill="#bbc9de" d="M 346.5,227.5 C 349.727,227.676 352.727,228.343 355.5,229.5C 352.171,229.785 349.171,229.118 346.5,227.5 Z"/></g>
<g><path style="opacity:0.455" fill="#a8b0c8" d="M 170.5,230.5 C 172.163,232.438 172.829,234.772 172.5,237.5C 171.388,235.401 170.721,233.067 170.5,230.5 Z"/></g>
<g><path style="opacity:0.267" fill="#afb7cf" d="M 229.5,230.5 C 229.598,232.553 228.931,234.22 227.5,235.5C 227.402,233.447 228.069,231.78 229.5,230.5 Z"/></g>
<g><path style="opacity:0.239" fill="#a5b2cc" d="M 306.5,228.5 C 306.118,233.092 305.118,237.425 303.5,241.5C 303.627,236.849 304.627,232.515 306.5,228.5 Z"/></g>
<g><path style="opacity:0.659" fill="#aabbd5" d="M 439.5,231.5 C 439.5,232.167 439.5,232.833 439.5,233.5C 438.935,235.42 437.935,237.087 436.5,238.5C 436.552,235.654 437.552,233.32 439.5,231.5 Z"/></g>
<g><path style="opacity:0.114" fill="#bdcde2" d="M 424.5,235.5 C 424.573,237.027 423.906,238.027 422.5,238.5C 422.427,236.973 423.094,235.973 424.5,235.5 Z"/></g>
<g><path style="opacity:0.035" fill="#dde7f3" d="M 474.5,237.5 C 490.833,237.5 507.167,237.5 523.5,237.5C 524.327,242.477 524.994,247.477 525.5,252.5C 523.927,248.359 522.593,244.026 521.5,239.5C 513.833,239.167 506.167,238.833 498.5,238.5C 490.267,238.532 482.267,239.199 474.5,240.5C 474.5,239.5 474.5,238.5 474.5,237.5 Z"/></g>
<g><path style="opacity:0.62" fill="#8990ad" d="M 172.5,237.5 C 174.163,239.438 174.829,241.772 174.5,244.5C 173.388,242.401 172.721,240.067 172.5,237.5 Z"/></g>
<g><path style="opacity:1" fill="#596ca3" d="M 422.5,238.5 C 421.557,241.109 419.89,243.109 417.5,244.5C 417.167,244.5 416.833,244.5 416.5,244.5C 416.67,243.178 416.337,242.011 415.5,241C 416.325,239.312 417.325,239.145 418.5,240.5C 419.524,239.147 420.857,238.48 422.5,238.5 Z"/></g>
<g><path style="opacity:0.604" fill="#9db4d2" d="M 557.5,238.5 C 558.913,241.219 559.58,244.219 559.5,247.5C 558.087,244.781 557.42,241.781 557.5,238.5 Z"/></g>
<g><path style="opacity:0.365" fill="#a4b7d3" d="M 474.5,240.5 C 474.598,242.553 473.931,244.22 472.5,245.5C 472.402,243.447 473.069,241.78 474.5,240.5 Z"/></g>
<g><path style="opacity:1" fill="#566d9f" d="M 436.5,239.5 C 436.89,243.353 435.556,246.353 432.5,248.5C 433.075,245.088 434.408,242.088 436.5,239.5 Z"/></g>
<g><path style="opacity:0.047" fill="#cad6e7" d="M 416.5,244.5 C 416.833,244.5 417.167,244.5 417.5,244.5C 416.415,246.587 414.749,247.92 412.5,248.5C 413.5,246.833 414.833,245.5 416.5,244.5 Z"/></g>
<g><path style="opacity:0.145" fill="#bac6db" d="M 303.5,242.5 C 303.58,245.781 302.913,248.781 301.5,251.5C 301.42,248.219 302.087,245.219 303.5,242.5 Z"/></g>
<g><path style="opacity:0.239" fill="#b6bfd4" d="M 222.5,247.5 C 222.598,249.553 221.931,251.22 220.5,252.5C 220.402,250.447 221.069,248.78 222.5,247.5 Z"/></g>
<g><path style="opacity:0.792" fill="#859abe" d="M 432.5,248.5 C 432.834,251.491 431.834,253.824 429.5,255.5C 429.935,252.843 430.935,250.509 432.5,248.5 Z"/></g>
<g><path style="opacity:0.208" fill="#cad5e6" d="M 325.5,249.5 C 325.366,251.292 325.699,252.958 326.5,254.5C 325.351,254.209 324.684,253.376 324.5,252C 324.528,250.93 324.861,250.097 325.5,249.5 Z"/></g>
<g><path style="opacity:0.31" fill="#bdcee3" d="M 525.5,252.5 C 526.451,253.919 526.784,255.585 526.5,257.5C 525.072,255.926 524.739,254.259 525.5,252.5 Z"/></g>
<g><path style="opacity:0.812" fill="#7b89ac" d="M 327.5,254.5 C 330.916,254.528 333.916,255.528 336.5,257.5C 333.145,257.31 330.145,256.31 327.5,254.5 Z"/></g>
<g><path style="opacity:0.176" fill="#bcc7dc" d="M 175.5,249.5 C 177.253,252.146 178.253,255.146 178.5,258.5C 191.5,258.5 204.5,258.5 217.5,258.5C 204.344,259.496 191.01,259.829 177.5,259.5C 176.833,256.167 176.167,252.833 175.5,249.5 Z"/></g>
<g><path style="opacity:0.176" fill="#bcc7dc" d="M 301.5,251.5 C 301.425,254.206 301.092,256.873 300.5,259.5C 287.833,259.5 275.167,259.5 262.5,259.5C 262.205,257.265 262.539,255.265 263.5,253.5C 263.5,255.167 263.5,256.833 263.5,258.5C 275.5,258.5 287.5,258.5 299.5,258.5C 299.721,255.933 300.388,253.599 301.5,251.5 Z"/></g>
<g><path style="opacity:0.188" fill="#bed0e4" d="M 471.5,248.5 C 471.611,249.117 471.944,249.617 472.5,250C 470.964,252.714 469.63,255.547 468.5,258.5C 465.503,259.248 462.503,259.915 459.5,260.5C 449.97,259.177 440.47,259.177 431,260.5C 429.933,259.809 428.766,259.309 427.5,259C 428.085,257.698 428.751,256.531 429.5,255.5C 429.5,256.5 429.5,257.5 429.5,258.5C 442.184,258.832 454.851,258.499 467.5,257.5C 468.469,254.231 469.802,251.231 471.5,248.5 Z"/></g>
<g><path style="opacity:0.239" fill="#b4cae2" d="M 526.5,257.5 C 538.086,258.478 549.753,258.811 561.5,258.5C 555.843,259.166 550.01,259.499 544,259.5C 537.793,259.496 531.96,258.829 526.5,257.5 Z"/></g>
<g><path style="opacity:0.533" fill="#afbed5" d="M 345.5,259.5 C 348.385,259.194 351.052,259.527 353.5,260.5C 350.756,261.491 348.089,261.157 345.5,259.5 Z"/></g>
<g><path style="opacity:0.035" fill="#c2d0e4" d="M 396.5,256.5 C 394.068,257.958 391.401,259.125 388.5,260C 384.033,260.871 379.699,261.704 375.5,262.5C 368.37,261.866 361.37,261.199 354.5,260.5C 368.736,261.325 382.736,259.992 396.5,256.5 Z"/></g>
</svg>
