<?xml version="1.0" encoding="UTF-8"?>
<!DOCTYPE svg PUBLIC "-//W3C//DTD SVG 1.1//EN" "http://www.w3.org/Graphics/SVG/1.1/DTD/svg11.dtd">
<svg xmlns="http://www.w3.org/2000/svg" version="1.1" width="50px" height="48px" style="shape-rendering:geometricPrecision; text-rendering:geometricPrecision; image-rendering:optimizeQuality; fill-rule:evenodd; clip-rule:evenodd" xmlns:xlink="http://www.w3.org/1999/xlink">
<g><path style="opacity:0.867" fill="#004762" d="M 4.5,-0.5 C 7.83333,-0.5 11.1667,-0.5 14.5,-0.5C 18.5043,2.84933 20.3376,7.18266 20,12.5C 22.1267,14.1137 23.6267,16.1137 24.5,18.5C 23.8333,18.5 23.5,18.8333 23.5,19.5C 22.8333,19.5 22.5,19.8333 22.5,20.5C 21.8333,20.5 21.5,20.8333 21.5,21.5C 20.8333,21.5 20.5,21.8333 20.5,22.5C 19.8333,22.5 19.5,22.8333 19.5,23.5C 17.0219,22.8051 15.0219,21.3051 13.5,19C 6.85607,19.8493 2.1894,17.3493 -0.5,11.5C -0.5,9.83333 -0.5,8.16667 -0.5,6.5C 0.157674,5.60164 0.824341,4.60164 1.5,3.5C 3.98375,5.48298 6.31708,7.64964 8.5,10C 10.6667,10.5 11.5,9.66667 11,7.5C 8.21788,5.22949 6.05121,2.56282 4.5,-0.5 Z"/></g>
<g><path style="opacity:0.882" fill="#004762" d="M 22.5,-0.5 C 25.5,-0.5 28.5,-0.5 31.5,-0.5C 38.2569,2.58895 42.9236,7.58895 45.5,14.5C 46.8333,14.5 48.1667,14.5 49.5,14.5C 49.5,15.5 49.5,16.5 49.5,17.5C 47.5193,19.1436 45.5193,20.8103 43.5,22.5C 41.9884,21.0094 40.9884,19.1761 40.5,17C 38.8988,16.7266 37.3988,16.2266 36,15.5C 33.6278,17.7032 31.4611,20.0365 29.5,22.5C 28.8333,22.5 28.5,22.8333 28.5,23.5C 27.8333,23.5 27.5,23.8333 27.5,24.5C 26.8333,24.5 26.5,24.8333 26.5,25.5C 25.8333,25.5 25.5,25.8333 25.5,26.5C 24.8333,26.5 24.5,26.8333 24.5,27.5C 23.8333,27.5 23.5,27.8333 23.5,28.5C 18.2564,34.7576 12.923,41.0909 7.5,47.5C 6.16667,47.5 4.83333,47.5 3.5,47.5C 2.67401,45.7356 1.34068,44.4023 -0.5,43.5C -0.5,42.5 -0.5,41.5 -0.5,40.5C 6.21449,34.7772 12.8812,29.1105 19.5,23.5C 20.1667,23.5 20.5,23.1667 20.5,22.5C 21.1667,22.5 21.5,22.1667 21.5,21.5C 22.1667,21.5 22.5,21.1667 22.5,20.5C 23.1667,20.5 23.5,20.1667 23.5,19.5C 24.1667,19.5 24.5,19.1667 24.5,18.5C 28.7254,15.9449 31.392,12.2782 32.5,7.5C 30.8726,3.92499 28.0393,1.92499 24,1.5C 22.9701,1.16389 22.4701,0.497222 22.5,-0.5 Z"/></g>
<g><path style="opacity:0.883" fill="#004761" d="M 29.5,22.5 C 31.5837,24.0767 33.5837,25.91 35.5,28C 42.1439,27.1507 46.8106,29.6507 49.5,35.5C 49.5,37.1667 49.5,38.8333 49.5,40.5C 48.8423,41.3984 48.1757,42.3984 47.5,43.5C 45.0163,41.517 42.6829,39.3504 40.5,37C 38.3333,36.5 37.5,37.3333 38,39.5C 40.7821,41.7705 42.9488,44.4372 44.5,47.5C 41.1667,47.5 37.8333,47.5 34.5,47.5C 30.4957,44.1507 28.6624,39.8173 29,34.5C 26.91,32.5837 25.0767,30.5837 23.5,28.5C 24.1667,28.5 24.5,28.1667 24.5,27.5C 25.1667,27.5 25.5,27.1667 25.5,26.5C 26.1667,26.5 26.5,26.1667 26.5,25.5C 27.1667,25.5 27.5,25.1667 27.5,24.5C 28.1667,24.5 28.5,24.1667 28.5,23.5C 29.1667,23.5 29.5,23.1667 29.5,22.5 Z"/></g>
</svg>
