<?xml version="1.0" encoding="UTF-8"?>
<!DOCTYPE svg PUBLIC "-//W3C//DTD SVG 1.1//EN" "http://www.w3.org/Graphics/SVG/1.1/DTD/svg11.dtd">
<svg xmlns="http://www.w3.org/2000/svg" version="1.1" width="512px" height="512px" style="shape-rendering:geometricPrecision; text-rendering:geometricPrecision; image-rendering:optimizeQuality; fill-rule:evenodd; clip-rule:evenodd" xmlns:xlink="http://www.w3.org/1999/xlink">
<g><path style="opacity:0.933" fill="#003144" d="M 249.5,27.5 C 259.567,25.7877 267.4,29.121 273,37.5C 276.785,45.5712 280.951,53.4045 285.5,61C 295.551,62.7861 305.551,64.7861 315.5,67C 328.023,73.9276 330.856,83.7609 324,96.5C 317.102,103.309 310.436,110.309 304,117.5C 305.652,128.744 306.652,140.077 307,151.5C 303.495,162.504 295.995,167.337 284.5,166C 274.593,162.047 264.926,157.547 255.5,152.5C 245.16,158.423 234.327,163.089 223,166.5C 210.923,165.256 204.423,158.59 203.5,146.5C 204.508,137.279 205.841,128.113 207.5,119C 201.021,111.235 194.188,103.735 187,96.5C 180.144,83.7609 182.977,73.9276 195.5,67C 205.449,64.7861 215.449,62.7861 225.5,61C 230.46,52.2468 235.294,43.4135 240,34.5C 242.79,31.535 245.957,29.2016 249.5,27.5 Z M 253.5,44.5 C 254.978,44.238 256.311,44.5713 257.5,45.5C 261.588,52.6758 265.422,60.0091 269,67.5C 272.043,72.8768 276.543,76.3768 282.5,78C 291.562,79.3437 300.562,81.0103 309.5,83C 310.022,83.5613 310.355,84.228 310.5,85C 304.711,91.7905 298.545,98.2905 292,104.5C 288.776,108.616 286.942,113.283 286.5,118.5C 287.694,127.688 289.027,136.855 290.5,146C 290.231,147.607 289.397,148.774 288,149.5C 279.454,145.477 270.954,141.311 262.5,137C 257.833,135 253.167,135 248.5,137C 240.046,141.311 231.546,145.477 223,149.5C 221.603,148.774 220.769,147.607 220.5,146C 222.516,135.561 223.683,125.061 224,114.5C 222.861,110.888 221.194,107.554 219,104.5C 212.455,98.2905 206.289,91.7905 200.5,85C 200.645,84.228 200.978,83.5613 201.5,83C 210.45,81.0767 219.45,79.41 228.5,78C 234.457,76.3768 238.957,72.8768 242,67.5C 245.86,59.7802 249.693,52.1136 253.5,44.5 Z"/></g>
<g><path style="opacity:0.935" fill="#003144" d="M 110.5,101.5 C 123.502,99.2394 132.002,104.239 136,116.5C 136.333,126.5 136.667,136.5 137,146.5C 145.956,153.121 154.623,160.121 163,167.5C 168.308,179.211 165.808,188.711 155.5,196C 145.862,198.822 136.528,202.322 127.5,206.5C 124.038,215.387 120.871,224.387 118,233.5C 110.146,244.206 100.313,246.372 88.5,240C 81.4534,231.955 74.7867,223.622 68.5,215C 58.5,214.667 48.5,214.333 38.5,214C 26.0806,210.01 21.2472,201.51 24,188.5C 29.6722,179.341 35.5055,170.341 41.5,161.5C 39.1012,153.137 36.6012,144.803 34,136.5C 31.4443,121.242 37.7776,112.909 53,111.5C 63.3289,113.457 73.4956,116.124 83.5,119.5C 92.5164,113.476 101.516,107.476 110.5,101.5 Z M 114.5,118.5 C 116.144,118.286 117.644,118.62 119,119.5C 119.333,129.167 119.667,138.833 120,148.5C 120.898,152.795 122.731,156.628 125.5,160C 132.833,165.333 140.167,170.667 147.5,176C 148.991,178.022 148.658,179.688 146.5,181C 137.015,183.939 127.681,187.273 118.5,191C 116.667,192.833 114.833,194.667 113,196.5C 109.273,205.681 105.939,215.015 103,224.5C 101.688,226.658 100.022,226.991 98,225.5C 92.0795,216.799 85.5795,208.633 78.5,201C 76.0427,199.438 73.376,198.438 70.5,198C 60.5895,197.82 50.7562,197.32 41,196.5C 40.3333,195.167 40.3333,193.833 41,192.5C 47.674,184.483 53.3407,175.817 58,166.5C 58.6667,163.167 58.6667,159.833 58,156.5C 54.8688,147.307 52.3688,137.973 50.5,128.5C 59.9732,130.369 69.3066,132.869 78.5,136C 84.5566,137.162 90.2233,136.162 95.5,133C 102.262,128.631 108.595,123.798 114.5,118.5 Z"/></g>
<g><path style="opacity:0.935" fill="#003144" d="M 387.5,101.5 C 391.846,101.334 396.179,101.501 400.5,102C 409.659,107.672 418.659,113.506 427.5,119.5C 435.863,117.101 444.197,114.601 452.5,112C 470.667,110.167 478.833,118.333 477,136.5C 474.399,144.803 471.899,153.137 469.5,161.5C 475.494,170.341 481.328,179.341 487,188.5C 489.753,201.51 484.919,210.01 472.5,214C 462.5,214.333 452.5,214.667 442.5,215C 436.213,223.622 429.547,231.955 422.5,240C 415.058,244.257 407.392,244.59 399.5,241C 396.96,238.795 394.793,236.295 393,233.5C 390.129,224.387 386.962,215.387 383.5,206.5C 374.472,202.322 365.138,198.822 355.5,196C 346.681,190.559 343.514,182.726 346,172.5C 346.561,170.275 347.561,168.275 349,166.5C 357.045,159.453 365.378,152.787 374,146.5C 374.333,136.5 374.667,126.5 375,116.5C 376.491,109.183 380.658,104.183 387.5,101.5 Z M 392.5,118.5 C 393.873,118.343 395.207,118.51 396.5,119C 404.517,125.674 413.183,131.341 422.5,136C 425.833,136.667 429.167,136.667 432.5,136C 441.693,132.869 451.027,130.369 460.5,128.5C 458.631,137.973 456.131,147.307 453,156.5C 451.838,162.557 452.838,168.223 456,173.5C 460.911,179.655 465.577,185.989 470,192.5C 470.667,193.833 470.667,195.167 470,196.5C 460.244,197.32 450.41,197.82 440.5,198C 436.205,198.898 432.372,200.731 429,203.5C 423.667,210.833 418.333,218.167 413,225.5C 410.978,226.991 409.312,226.658 408,224.5C 405.061,215.015 401.727,205.681 398,196.5C 396.167,194.667 394.333,192.833 392.5,191C 383.319,187.273 373.985,183.939 364.5,181C 362.342,179.688 362.009,178.022 363.5,176C 372.161,170.09 380.328,163.59 388,156.5C 389.562,154.043 390.562,151.376 391,148.5C 391.191,138.423 391.691,128.423 392.5,118.5 Z"/></g>
<g><path style="opacity:0.934" fill="#003144" d="M 239.5,184.5 C 305.198,181.091 354.698,207.424 388,263.5C 415.094,321.216 410.094,375.883 373,427.5C 329.211,477.425 275.044,493.925 210.5,477C 161.24,460.073 128.406,426.907 112,377.5C 96.5517,317.11 111.052,265.276 155.5,222C 179.74,201.046 207.74,188.546 239.5,184.5 Z M 240.5,201.5 C 306.816,198.552 353.316,227.219 380,287.5C 398.382,346.149 384.882,395.982 339.5,437C 302.602,465.379 261.602,473.379 216.5,461C 164.853,442.679 134.02,406.512 124,352.5C 118.837,303.634 134.671,263.134 171.5,231C 191.941,215.111 214.941,205.278 240.5,201.5 Z M 197.5,363.5 C 236.501,363.333 275.501,363.5 314.5,364C 318.307,364.805 320.307,367.139 320.5,371C 316.701,382.762 310.034,392.595 300.5,400.5C 285.757,383.309 267.09,376.475 244.5,380C 230.501,382.515 219.168,389.349 210.5,400.5C 200.433,392.295 193.933,381.962 191,369.5C 192.436,366.558 194.603,364.558 197.5,363.5 Z M 246.5,396.5 C 256.607,395.428 266.274,396.928 275.5,401C 279.431,403.132 282.764,405.965 285.5,409.5C 266.237,419.584 246.571,420.084 226.5,411C 225.549,410.282 225.383,409.449 226,408.5C 231.766,402.545 238.599,398.545 246.5,396.5 Z"/></g>
<g><path style="opacity:0.911" fill="#003144" d="M 198.5,276.5 C 214.175,274.434 226.008,280.1 234,293.5C 236.102,298.533 235.935,303.367 233.5,308C 231.833,308.667 230.167,308.667 228.5,308C 227.205,302.753 224.205,298.753 219.5,296C 208.539,290.775 198.039,291.941 188,299.5C 186.682,302.477 185.182,305.31 183.5,308C 178.132,309.015 175.799,306.682 176.5,301C 179.092,288.575 186.425,280.408 198.5,276.5 Z"/></g>
<g><path style="opacity:0.914" fill="#003144" d="M 297.5,276.5 C 312.097,274.552 323.597,279.552 332,291.5C 334.659,296.744 334.992,302.078 333,307.5C 331.274,308.576 329.441,308.743 327.5,308C 325.765,305.808 324.598,303.308 324,300.5C 313.9,292.172 303.066,290.672 291.5,296C 286.795,298.753 283.795,302.753 282.5,308C 277.172,309.175 274.839,307.008 275.5,301.5C 275.903,293.198 279.569,286.698 286.5,282C 290.017,279.674 293.683,277.84 297.5,276.5 Z"/></g>
<g><path style="opacity:0.941" fill="#003144" d="M 196.5,346.5 C 236.501,346.333 276.501,346.5 316.5,347C 332.093,350.672 338.926,360.505 337,376.5C 322.286,413.124 295.119,432.458 255.5,434.5C 220.533,432.996 194.7,416.996 178,386.5C 168.935,365.797 175.102,352.463 196.5,346.5 Z M 197.5,363.5 C 194.603,364.558 192.436,366.558 191,369.5C 193.933,381.962 200.433,392.295 210.5,400.5C 219.168,389.349 230.501,382.515 244.5,380C 267.09,376.475 285.757,383.309 300.5,400.5C 310.034,392.595 316.701,382.762 320.5,371C 320.307,367.139 318.307,364.805 314.5,364C 275.501,363.5 236.501,363.333 197.5,363.5 Z M 246.5,396.5 C 238.599,398.545 231.766,402.545 226,408.5C 225.383,409.449 225.549,410.282 226.5,411C 246.571,420.084 266.237,419.584 285.5,409.5C 282.764,405.965 279.431,403.132 275.5,401C 266.274,396.928 256.607,395.428 246.5,396.5 Z"/></g>
</svg>
