<?xml version="1.0" encoding="UTF-8"?>
<!DOCTYPE svg PUBLIC "-//W3C//DTD SVG 1.1//EN" "http://www.w3.org/Graphics/SVG/1.1/DTD/svg11.dtd">
<svg xmlns="http://www.w3.org/2000/svg" version="1.1" width="30px" height="30px" style="shape-rendering:geometricPrecision; text-rendering:geometricPrecision; image-rendering:optimizeQuality; fill-rule:evenodd; clip-rule:evenodd" xmlns:xlink="http://www.w3.org/1999/xlink">
<g><path style="opacity:0.843" fill="#fb7368" d="M 29.5,2.5 C 29.5,6.5 29.5,10.5 29.5,14.5C 28.596,15.209 28.2627,16.209 28.5,17.5C 27.6618,17.8417 27.3284,18.5084 27.5,19.5C 26.8333,19.5 26.5,19.8333 26.5,20.5C 25.7109,20.7828 25.0442,21.2828 24.5,22C 16.1733,22.4997 7.83999,22.6664 -0.5,22.5C -0.5,21.8333 -0.5,21.1667 -0.5,20.5C 3.56059,15.2997 5.22725,9.29971 4.5,2.5C 6.91196,2.6695 9.07863,2.00283 11,0.5C 13,3.16667 15,3.16667 17,0.5C 19.2306,3.05101 21.3972,3.05101 23.5,0.5C 25.1789,2.10446 27.1789,2.77112 29.5,2.5 Z"/></g>
<g><path style="opacity:0.795" fill="#fb7368" d="M 28.5,17.5 C 28.8333,17.5 29.1667,17.5 29.5,17.5C 29.5,21.1667 29.5,24.8333 29.5,28.5C 21.1667,28.5 12.8333,28.5 4.5,28.5C 4.5,26.8333 4.5,25.1667 4.5,23.5C 11.5079,23.6663 18.5079,23.4996 25.5,23C 26.2524,22.3292 26.5858,21.4959 26.5,20.5C 27.1667,20.5 27.5,20.1667 27.5,19.5C 28.3382,19.1583 28.6716,18.4916 28.5,17.5 Z"/></g>
</svg>
