<?xml version="1.0" encoding="UTF-8"?>
<!DOCTYPE svg PUBLIC "-//W3C//DTD SVG 1.1//EN" "http://www.w3.org/Graphics/SVG/1.1/DTD/svg11.dtd">
<svg xmlns="http://www.w3.org/2000/svg" version="1.1" width="512px" height="512px" style="shape-rendering:geometricPrecision; text-rendering:geometricPrecision; image-rendering:optimizeQuality; fill-rule:evenodd; clip-rule:evenodd" xmlns:xlink="http://www.w3.org/1999/xlink">
<g><path style="opacity:0.986" fill="#fb7468" d="M 89.5,-0.5 C 98.5,-0.5 107.5,-0.5 116.5,-0.5C 152.132,5.2303 178.632,23.897 196,55.5C 207.679,80.2716 210.345,105.938 204,132.5C 262.194,190.361 320.028,248.527 377.5,307C 420.299,296.987 456.799,307.821 487,339.5C 499.817,355.463 507.984,373.463 511.5,393.5C 511.5,402.833 511.5,412.167 511.5,421.5C 504.049,463.796 480.049,492.296 439.5,507C 433.11,508.84 426.776,510.34 420.5,511.5C 411.833,511.5 403.167,511.5 394.5,511.5C 360.037,505.534 333.87,487.534 316,457.5C 303.381,432.22 300.381,405.887 307,378.5C 248.806,320.639 190.972,262.473 133.5,204C 83.1086,215.036 43.2753,199.536 14,157.5C 6.6499,144.939 1.81657,131.606 -0.5,117.5C -0.5,108.167 -0.5,98.8333 -0.5,89.5C 6.7289,50.0929 28.7289,22.2596 65.5,6C 73.4861,3.2744 81.4861,1.10773 89.5,-0.5 Z M 101.5,60.5 C 127.804,62.6374 142.471,76.8041 145.5,103C 143.327,129.173 129.161,143.339 103,145.5C 82.039,144.208 68.3723,133.542 62,113.5C 58.4732,90.7185 66.9732,74.2185 87.5,64C 92.1838,62.3473 96.8504,61.1807 101.5,60.5 Z M 400.5,365.5 C 429.665,364.668 446.332,378.668 450.5,407.5C 447.894,433.273 433.727,447.606 408,450.5C 376.511,446.013 362.845,428.013 367,396.5C 372.295,379.701 383.461,369.368 400.5,365.5 Z"/></g>
<g><path style="opacity:0.984" fill="#fb7468" d="M 396.5,-0.5 C 405.833,-0.5 415.167,-0.5 424.5,-0.5C 434.54,1.26592 444.207,4.43259 453.5,9C 435.938,25.893 419.105,43.393 403,61.5C 395.523,80.112 400.023,94.9454 416.5,106C 429.06,111.408 441.06,110.408 452.5,103C 468.347,86.986 484.347,71.1526 500.5,55.5C 503.093,58.3478 504.926,61.6811 506,65.5C 508.295,72.514 510.128,79.514 511.5,86.5C 511.5,95.5 511.5,104.5 511.5,113.5C 502.013,162.487 472.679,191.654 423.5,201C 409.587,202.398 395.92,201.231 382.5,197.5C 370.681,208.819 359.014,220.319 347.5,232C 346.5,232.667 345.5,232.667 344.5,232C 321.138,208.972 298.138,185.639 275.5,162C 288.014,149.653 300.348,137.153 312.5,124.5C 303.457,76.1077 319.457,38.6077 360.5,12C 372.028,6.10345 384.028,1.93678 396.5,-0.5 Z"/></g>
<g><path style="opacity:0.985" fill="#fb7468" d="M 114.5,511.5 C 105.167,511.5 95.8333,511.5 86.5,511.5C 77.0031,509.62 67.6698,506.786 58.5,503C 74.6957,487.138 90.5291,470.971 106,454.5C 115.73,436.265 112.563,420.765 96.5,408C 84.0019,400.627 71.6685,400.96 59.5,409C 43.3333,425.167 27.1667,441.333 11,457.5C 5.15944,447.105 1.32611,436.105 -0.5,424.5C -0.5,415.5 -0.5,406.5 -0.5,397.5C 8.11217,351.051 35.4455,322.218 81.5,311C 97.3678,308.441 113.034,309.274 128.5,313.5C 140.319,302.181 151.986,290.681 163.5,279C 164.5,278.333 165.5,278.333 166.5,279C 189.138,302.639 212.138,325.972 235.5,349C 222.986,361.347 210.652,373.847 198.5,386.5C 207.543,434.892 191.543,472.392 150.5,499C 138.972,504.897 126.972,509.063 114.5,511.5 Z"/></g>
</svg>
