<?xml version="1.0" encoding="UTF-8"?>
<!DOCTYPE svg PUBLIC "-//W3C//DTD SVG 1.1//EN" "http://www.w3.org/Graphics/SVG/1.1/DTD/svg11.dtd">
<svg xmlns="http://www.w3.org/2000/svg" version="1.1" width="75px" height="75px" style="shape-rendering:geometricPrecision; text-rendering:geometricPrecision; image-rendering:optimizeQuality; fill-rule:evenodd; clip-rule:evenodd" xmlns:xlink="http://www.w3.org/1999/xlink">
<g><path style="opacity:0.851" fill="#fe7568" d="M 5.5,-0.5 C 17.5,-0.5 29.5,-0.5 41.5,-0.5C 41.5,2.16667 41.5,4.83333 41.5,7.5C 43.8333,7.5 46.1667,7.5 48.5,7.5C 48.5,14.1667 48.5,20.8333 48.5,27.5C 51.1667,27.5 53.8333,27.5 56.5,27.5C 56.5,24.5 56.5,21.5 56.5,18.5C 62.5,18.5 68.5,18.5 74.5,18.5C 74.5,37.1667 74.5,55.8333 74.5,74.5C 49.5,74.5 24.5,74.5 -0.5,74.5C -0.5,52.1667 -0.5,29.8333 -0.5,7.5C 1.5,7.5 3.5,7.5 5.5,7.5C 5.5,4.83333 5.5,2.16667 5.5,-0.5 Z M 10.5,4.5 C 19.1667,4.5 27.8333,4.5 36.5,4.5C 36.5,5.5 36.5,6.5 36.5,7.5C 27.8333,7.5 19.1667,7.5 10.5,7.5C 10.5,6.5 10.5,5.5 10.5,4.5 Z M 4.5,13.5 C 17.5,13.5 30.5,13.5 43.5,13.5C 43.5,29.1667 43.5,44.8333 43.5,60.5C 40.1667,60.5 36.8333,60.5 33.5,60.5C 33.7892,56.8936 33.4558,53.3936 32.5,50C 26.5092,49.5005 20.5092,49.3338 14.5,49.5C 14.5,53.1667 14.5,56.8333 14.5,60.5C 11.1667,60.5 7.83333,60.5 4.5,60.5C 4.5,44.8333 4.5,29.1667 4.5,13.5 Z M 61.5,24.5 C 64.1667,24.5 66.8333,24.5 69.5,24.5C 69.5,25.5 69.5,26.5 69.5,27.5C 66.8333,27.5 64.1667,27.5 61.5,27.5C 61.5,26.5 61.5,25.5 61.5,24.5 Z M 48.5,33.5 C 55.5,33.5 62.5,33.5 69.5,33.5C 69.5,45.5 69.5,57.5 69.5,69.5C 62.5,69.5 55.5,69.5 48.5,69.5C 48.5,57.5 48.5,45.5 48.5,33.5 Z M 19.5,55.5 C 22.1667,55.5 24.8333,55.5 27.5,55.5C 27.5,60.1667 27.5,64.8333 27.5,69.5C 24.8333,69.5 22.1667,69.5 19.5,69.5C 19.5,64.8333 19.5,60.1667 19.5,55.5 Z M 4.5,66.5 C 7.83333,66.5 11.1667,66.5 14.5,66.5C 14.5,67.5 14.5,68.5 14.5,69.5C 11.1667,69.5 7.83333,69.5 4.5,69.5C 4.5,68.5 4.5,67.5 4.5,66.5 Z M 33.5,66.5 C 36.8333,66.5 40.1667,66.5 43.5,66.5C 43.5,67.5 43.5,68.5 43.5,69.5C 40.1667,69.5 36.8333,69.5 33.5,69.5C 33.5,68.5 33.5,67.5 33.5,66.5 Z"/></g>
<g><path style="opacity:0.609" fill="#fe7568" d="M 7.5,16.5 C 9.5,16.5 11.5,16.5 13.5,16.5C 13.5,19.1667 13.5,21.8333 13.5,24.5C 11.5,24.5 9.5,24.5 7.5,24.5C 7.5,21.8333 7.5,19.1667 7.5,16.5 Z"/></g>
<g><path style="opacity:0.634" fill="#fe7568" d="M 16.5,16.5 C 22.3133,16.062 23.98,18.562 21.5,24C 19.8659,24.4935 18.1992,24.6602 16.5,24.5C 16.5,21.8333 16.5,19.1667 16.5,16.5 Z"/></g>
<g><path style="opacity:0.731" fill="#fe7568" d="M 25.5,16.5 C 27.1667,16.5 28.8333,16.5 30.5,16.5C 30.5,19.1667 30.5,21.8333 30.5,24.5C 28.8333,24.5 27.1667,24.5 25.5,24.5C 25.5,21.8333 25.5,19.1667 25.5,16.5 Z"/></g>
<g><path style="opacity:0.73" fill="#fe7568" d="M 34.5,16.5 C 36.1667,16.5 37.8333,16.5 39.5,16.5C 39.5,19.1667 39.5,21.8333 39.5,24.5C 37.8333,24.5 36.1667,24.5 34.5,24.5C 34.5,21.8333 34.5,19.1667 34.5,16.5 Z"/></g>
<g><path style="opacity:0.608" fill="#fe7568" d="M 7.5,27.5 C 9.5,27.5 11.5,27.5 13.5,27.5C 13.5,30.1667 13.5,32.8333 13.5,35.5C 11.5,35.5 9.5,35.5 7.5,35.5C 7.5,32.8333 7.5,30.1667 7.5,27.5 Z"/></g>
<g><path style="opacity:0.634" fill="#fe7568" d="M 16.5,27.5 C 22.3133,27.062 23.98,29.562 21.5,35C 19.8659,35.4935 18.1992,35.6602 16.5,35.5C 16.5,32.8333 16.5,30.1667 16.5,27.5 Z"/></g>
<g><path style="opacity:0.73" fill="#fe7568" d="M 25.5,27.5 C 27.1667,27.5 28.8333,27.5 30.5,27.5C 30.5,30.1667 30.5,32.8333 30.5,35.5C 28.8333,35.5 27.1667,35.5 25.5,35.5C 25.5,32.8333 25.5,30.1667 25.5,27.5 Z"/></g>
<g><path style="opacity:0.73" fill="#fe7568" d="M 34.5,27.5 C 36.1667,27.5 37.8333,27.5 39.5,27.5C 39.5,30.1667 39.5,32.8333 39.5,35.5C 37.8333,35.5 36.1667,35.5 34.5,35.5C 34.5,32.8333 34.5,30.1667 34.5,27.5 Z"/></g>
<g><path style="opacity:0.645" fill="#fe7568" d="M 52.5,36.5 C 54.1667,36.5 55.8333,36.5 57.5,36.5C 57.6633,38.8568 57.4966,41.1902 57,43.5C 55.3333,44.8333 53.6667,44.8333 52,43.5C 51.2967,41.0709 51.4634,38.7375 52.5,36.5 Z"/></g>
<g><path style="opacity:0.631" fill="#fe7568" d="M 60.5,36.5 C 62.5,36.5 64.5,36.5 66.5,36.5C 66.6633,38.8568 66.4966,41.1902 66,43.5C 64.3333,44.8333 62.6667,44.8333 61,43.5C 60.5034,41.1902 60.3367,38.8568 60.5,36.5 Z"/></g>
<g><path style="opacity:0.608" fill="#fe7568" d="M 7.5,38.5 C 9.5,38.5 11.5,38.5 13.5,38.5C 13.5,41.1667 13.5,43.8333 13.5,46.5C 11.5,46.5 9.5,46.5 7.5,46.5C 7.5,43.8333 7.5,41.1667 7.5,38.5 Z"/></g>
<g><path style="opacity:0.634" fill="#fe7568" d="M 16.5,38.5 C 22.3133,38.062 23.98,40.562 21.5,46C 19.8659,46.4935 18.1992,46.6602 16.5,46.5C 16.5,43.8333 16.5,41.1667 16.5,38.5 Z"/></g>
<g><path style="opacity:0.73" fill="#fe7568" d="M 25.5,38.5 C 27.1667,38.5 28.8333,38.5 30.5,38.5C 30.5,41.1667 30.5,43.8333 30.5,46.5C 28.8333,46.5 27.1667,46.5 25.5,46.5C 25.5,43.8333 25.5,41.1667 25.5,38.5 Z"/></g>
<g><path style="opacity:0.73" fill="#fe7568" d="M 34.5,38.5 C 36.1667,38.5 37.8333,38.5 39.5,38.5C 39.5,41.1667 39.5,43.8333 39.5,46.5C 37.8333,46.5 36.1667,46.5 34.5,46.5C 34.5,43.8333 34.5,41.1667 34.5,38.5 Z"/></g>
<g><path style="opacity:0.636" fill="#fe7568" d="M 52.5,47.5 C 54.1667,47.5 55.8333,47.5 57.5,47.5C 57.5,50.1667 57.5,52.8333 57.5,55.5C 51.612,55.7422 49.9453,53.0755 52.5,47.5 Z"/></g>
<g><path style="opacity:0.634" fill="#fe7568" d="M 60.5,47.5 C 62.5,47.5 64.5,47.5 66.5,47.5C 66.6633,49.8568 66.4966,52.1902 66,54.5C 64.3333,55.8333 62.6667,55.8333 61,54.5C 60.5034,52.1902 60.3367,49.8568 60.5,47.5 Z"/></g>
<g><path style="opacity:0.634" fill="#fe7568" d="M 52.5,58.5 C 54.1667,58.5 55.8333,58.5 57.5,58.5C 57.5,61.1667 57.5,63.8333 57.5,66.5C 51.612,66.7422 49.9453,64.0755 52.5,58.5 Z"/></g>
<g><path style="opacity:0.632" fill="#fe7568" d="M 60.5,58.5 C 62.5,58.5 64.5,58.5 66.5,58.5C 66.6633,60.8568 66.4966,63.1902 66,65.5C 64.3333,66.8333 62.6667,66.8333 61,65.5C 60.5034,63.1902 60.3367,60.8568 60.5,58.5 Z"/></g>
</svg>
