<?xml version="1.0" encoding="UTF-8"?>
<!DOCTYPE svg PUBLIC "-//W3C//DTD SVG 1.1//EN" "http://www.w3.org/Graphics/SVG/1.1/DTD/svg11.dtd">
<svg xmlns="http://www.w3.org/2000/svg" version="1.1" width="512px" height="512px" style="shape-rendering:geometricPrecision; text-rendering:geometricPrecision; image-rendering:optimizeQuality; fill-rule:evenodd; clip-rule:evenodd" xmlns:xlink="http://www.w3.org/1999/xlink">
<g><path style="opacity:0.962" fill="#303030" d="M 53.5,23.5 C 55.1992,23.3398 56.8659,23.5065 58.5,24C 67.6611,28.7464 76.6611,33.7464 85.5,39C 90.754,48.0704 95.254,57.5704 99,67.5C 145.667,114.167 192.333,160.833 239,207.5C 258.333,188.167 277.667,168.833 297,149.5C 286.765,102.852 300.932,65.6857 339.5,38C 365.841,22.749 393.507,19.749 422.5,29C 428.122,31.7347 429.622,35.9014 427,41.5C 409.653,58.6805 392.486,76.0139 375.5,93.5C 389.167,107.833 403.167,121.833 417.5,135.5C 434.986,118.514 452.319,101.347 469.5,84C 473.507,81.8335 477.174,82.3335 480.5,85.5C 492.863,120.654 487.697,152.987 465,182.5C 436.644,212.885 402.144,223.385 361.5,214C 352.319,223.014 343.319,232.181 334.5,241.5C 380.153,287.653 425.986,333.653 472,379.5C 489.706,403.001 492.039,428.001 479,454.5C 461.131,481.342 436.298,491.509 404.5,485C 395.231,482.382 386.898,478.048 379.5,472C 333.653,425.986 287.653,380.153 241.5,334.5C 232.181,343.319 223.014,352.319 214,361.5C 224.234,408.151 210.067,445.317 171.5,473C 145.137,488.151 117.471,491.151 88.5,482C 82.8783,479.265 81.3783,475.099 84,469.5C 101.347,452.319 118.514,434.986 135.5,417.5C 121.833,403.167 107.833,389.167 93.5,375.5C 76.0139,392.486 58.6805,409.653 41.5,427C 37.0009,429.367 33.1676,428.533 30,424.5C 18.258,389.619 23.5913,357.619 46,328.5C 74.3592,298.115 108.859,287.615 149.5,297C 168.833,277.667 188.167,258.333 207.5,239C 160.833,192.333 114.167,145.667 67.5,99C 59.5,95.6667 51.5,92.3333 43.5,89C 41.714,88.2155 40.214,87.0488 39,85.5C 33.7464,76.6611 28.7464,67.6611 24,58.5C 23.3333,56.8333 23.3333,55.1667 24,53.5C 33.3661,42.9679 43.1994,32.9679 53.5,23.5 Z"/></g>
<g><path style="opacity:1" fill="#004762" d="M 356.5,199.5 C 344.886,209.446 333.886,220.113 323.5,231.5C 319.06,228.237 314.727,224.737 310.5,221C 297.65,219.601 284.817,218.101 272,216.5C 270.439,216.603 268.939,216.937 267.5,217.5C 264.322,220.564 261.155,223.564 258,226.5C 254.5,224.333 251.667,221.5 249.5,218C 270.306,196.36 291.306,174.86 312.5,153.5C 313.287,148.319 312.454,143.319 310,138.5C 304.982,108.239 312.816,82.0725 333.5,60C 338.869,56.2583 344.202,52.4249 349.5,48.5C 367.62,39.2011 386.62,36.5344 406.5,40.5C 390.514,56.9861 374.347,73.3194 358,89.5C 357.348,92.594 357.682,95.594 359,98.5C 377.167,116.667 395.333,134.833 413.5,153C 416.594,153.652 419.594,153.318 422.5,152C 438.347,135.986 454.347,120.153 470.5,104.5C 476.103,139.755 464.77,167.922 436.5,189C 412.425,203.321 387.092,206.154 360.5,197.5C 358.645,197.34 357.312,198.007 356.5,199.5 Z"/></g>
<g><path style="opacity:1" fill="#004661" d="M 86.5,74.5 C 134.784,124.451 183.784,173.784 233.5,222.5C 238.426,225.921 242.926,229.921 247,234.5C 247.667,235.833 247.667,237.167 247,238.5C 243.915,242.093 240.415,245.093 236.5,247.5C 230.841,243.841 226.174,239.174 222.5,233.5C 173.784,183.784 124.451,134.784 74.5,86.5C 66.0687,83.2987 57.7354,79.7987 49.5,76C 46.7936,70.7531 43.9603,65.5865 41,60.5C 40.3333,58.8333 40.3333,57.1667 41,55.5C 45.8333,50.6667 50.6667,45.8333 55.5,41C 57.1667,40.3333 58.8333,40.3333 60.5,41C 65.5865,43.9603 70.7531,46.7936 76,49.5C 79.7987,57.7354 83.2987,66.0687 86.5,74.5 Z"/></g>
<g><path style="opacity:1" fill="#003d4b" d="M 86.5,74.5 C 136.216,123.216 185.216,172.549 233.5,222.5C 183.784,173.784 134.784,124.451 86.5,74.5 Z"/></g>
<g><path style="opacity:1" fill="#003d4b" d="M 74.5,86.5 C 124.451,134.784 173.784,183.784 222.5,233.5C 172.549,185.216 123.216,136.216 74.5,86.5 Z"/></g>
<g><path style="opacity:1" fill="#173941" d="M 356.5,199.5 C 346.114,210.887 335.114,221.554 323.5,231.5C 333.886,220.113 344.886,209.446 356.5,199.5 Z"/></g>
<g><path style="opacity:1" fill="#fb7368" d="M 273.5,230.5 C 284.479,231.831 295.479,233.165 306.5,234.5C 357.833,286.5 409.5,338.167 461.5,389.5C 474.05,406.97 475.883,425.637 467,445.5C 452.226,468.764 431.393,476.93 404.5,470C 400.427,468.796 396.761,466.796 393.5,464C 340.361,411.861 287.527,359.361 235,306.5C 233.004,295.529 231.67,284.529 231,273.5C 245.369,259.299 259.535,244.965 273.5,230.5 Z"/></g>
<g><path style="opacity:1" fill="#004762" d="M 216.5,249.5 C 220.653,250.971 223.987,253.637 226.5,257.5C 223.85,260.651 221.016,263.651 218,266.5C 217.042,268.199 216.542,270.033 216.5,272C 218.585,284.761 220.085,297.595 221,310.5C 225.09,314.083 228.59,318.083 231.5,322.5C 231.333,323.167 231.167,323.833 231,324.5C 219.419,335.083 208.419,346.083 198,357.5C 199.533,365.365 200.866,373.365 202,381.5C 204.057,421.93 186.89,450.43 150.5,467C 135.469,472.675 120.135,473.842 104.5,470.5C 120.153,454.347 135.986,438.347 152,422.5C 153.318,419.594 153.652,416.594 153,413.5C 134.833,395.333 116.667,377.167 98.5,359C 95.1667,357 91.8333,357 88.5,359C 72.6528,375.014 56.6528,390.847 40.5,406.5C 35.4147,376.94 43.0814,351.44 63.5,330C 89.3567,309.064 118.357,303.564 150.5,313.5C 151.5,313.167 152.5,312.833 153.5,312.5C 174.854,291.812 195.854,270.812 216.5,249.5 Z"/></g>
<g><path style="opacity:1" fill="#343131" d="M 300.5,265.5 C 348.167,313.833 396.167,361.833 444.5,409.5C 445.412,410.738 445.579,412.072 445,413.5C 442.703,417.662 439.203,419.162 434.5,418C 387,370.5 339.5,323 292,275.5C 290.063,267.606 292.896,264.273 300.5,265.5 Z"/></g>
<g><path style="opacity:1" fill="#844b47" d="M 300.5,265.5 C 348.75,312.249 396.583,359.582 444,407.5C 444.464,408.094 444.631,408.761 444.5,409.5C 396.167,361.833 348.167,313.833 300.5,265.5 Z"/></g>
<g><path style="opacity:1" fill="#343131" d="M 409.5,444.5 C 361.833,396.167 313.833,348.167 265.5,300.5C 264.257,292.902 267.59,290.068 275.5,292C 323,339.5 370.5,387 418,434.5C 419.01,441.082 416.177,444.415 409.5,444.5 Z"/></g>
<g><path style="opacity:1" fill="#864c47" d="M 265.5,300.5 C 313.833,348.167 361.833,396.167 409.5,444.5C 361.25,397.751 313.417,350.418 266,302.5C 265.536,301.906 265.369,301.239 265.5,300.5 Z"/></g>
</svg>
