<?xml version="1.0" encoding="UTF-8"?>
<!DOCTYPE svg PUBLIC "-//W3C//DTD SVG 1.1//EN" "http://www.w3.org/Graphics/SVG/1.1/DTD/svg11.dtd">
<svg xmlns="http://www.w3.org/2000/svg" version="1.1" width="512px" height="340px" style="shape-rendering:geometricPrecision; text-rendering:geometricPrecision; image-rendering:optimizeQuality; fill-rule:evenodd; clip-rule:evenodd" xmlns:xlink="http://www.w3.org/1999/xlink">
<g><path style="opacity:0.944" fill="#003144" d="M 511.5,177.5 C 511.5,210.5 511.5,243.5 511.5,276.5C 509.99,277.836 508.323,279.003 506.5,280C 496.839,280.5 487.172,280.666 477.5,280.5C 476.189,307.315 462.523,324.148 436.5,331C 404.606,334.087 384.439,320.254 376,289.5C 375.502,286.518 375.335,283.518 375.5,280.5C 315.5,280.5 255.5,280.5 195.5,280.5C 195.211,296.881 188.877,310.381 176.5,321C 160.419,332.149 143.086,334.483 124.5,328C 104.288,318.62 93.9548,302.787 93.5,280.5C 76.4303,280.957 59.4303,280.457 42.5,279C 38.1832,276.685 35.3498,273.185 34,268.5C 33.5003,261.174 33.3337,253.841 33.5,246.5C 23.8276,246.666 14.1609,246.5 4.5,246C 2.31305,244.975 0.646381,243.475 -0.5,241.5C -0.5,238.833 -0.5,236.167 -0.5,233.5C 1.01027,232.164 2.67694,230.997 4.5,230C 32.1667,229.333 59.8333,229.333 87.5,230C 92.7375,233.274 93.9042,237.774 91,243.5C 90.0975,244.701 88.9308,245.535 87.5,246C 75.1712,246.5 62.8378,246.667 50.5,246.5C 50.5,252.167 50.5,257.833 50.5,263.5C 65.8333,263.5 81.1667,263.5 96.5,263.5C 104.957,241.734 120.957,230.401 144.5,229.5C 167.373,230.596 183.373,241.596 192.5,262.5C 247.829,263.5 303.163,263.833 358.5,263.5C 358.333,242.164 358.5,220.831 359,199.5C 361.955,195.723 365.788,194.557 370.5,196C 372.726,197.227 374.226,199.061 375,201.5C 375.5,222.164 375.667,242.831 375.5,263.5C 376.675,263.719 377.675,263.386 378.5,262.5C 387.59,241.61 403.59,230.61 426.5,229.5C 449.622,230.309 465.622,241.309 474.5,262.5C 481.134,263.497 487.8,263.83 494.5,263.5C 494.5,252.167 494.5,240.833 494.5,229.5C 477.005,231.467 465.839,224.133 461,207.5C 460.333,199.833 460.333,192.167 461,184.5C 461.707,182.919 462.54,181.419 463.5,180C 473.419,178.881 483.419,178.048 493.5,177.5C 489.15,167.979 481.817,162.479 471.5,161C 439.502,160.5 407.502,160.333 375.5,160.5C 376.198,166.061 375.198,171.227 372.5,176C 367.271,178.621 362.771,177.788 359,173.5C 358.5,123.834 358.333,74.1678 358.5,24.5C 255.833,24.5 153.167,24.5 50.5,24.5C 50.6667,73.5011 50.5,122.501 50,171.5C 48.8771,175.819 46.0438,177.819 41.5,177.5C 38.2089,177.721 35.7089,176.387 34,173.5C 33.3333,121.833 33.3333,70.1667 34,18.5C 36.1667,13.6667 39.6667,10.1667 44.5,8C 150.833,7.33333 257.167,7.33333 363.5,8C 368.573,9.40561 372.073,12.5723 374,17.5C 375.363,25.4295 375.863,33.4295 375.5,41.5C 397.836,41.3334 420.169,41.5 442.5,42C 463.686,49.238 472.519,64.0713 469,86.5C 467.122,89.033 465.289,91.533 463.5,94C 467.74,110.794 471.74,127.628 475.5,144.5C 494.563,147.9 506.563,158.9 511.5,177.5 Z M 375.5,58.5 C 396.836,58.3334 418.169,58.5 439.5,59C 447.354,61.6911 451.687,67.1911 452.5,75.5C 426.833,75.5 401.167,75.5 375.5,75.5C 375.5,69.8333 375.5,64.1667 375.5,58.5 Z M 375.5,92.5 C 398.843,92.1669 422.176,92.5003 445.5,93.5C 449.761,110.044 454.094,126.544 458.5,143C 430.835,143.5 403.169,143.667 375.5,143.5C 375.5,126.5 375.5,109.5 375.5,92.5 Z M 477.5,195.5 C 483.167,195.5 488.833,195.5 494.5,195.5C 494.5,201.167 494.5,206.833 494.5,212.5C 481.167,214.5 475.5,208.833 477.5,195.5 Z M 138.5,246.5 C 159.127,245.391 172.294,254.724 178,274.5C 178.505,302.661 164.671,315.828 136.5,314C 112.896,304.952 105.396,288.452 114,264.5C 119.799,255.191 127.965,249.191 138.5,246.5 Z M 420.5,246.5 C 448.138,246.304 461.305,259.97 460,287.5C 453.6,307.792 439.767,316.625 418.5,314C 399.262,307.374 390.762,293.874 393,273.5C 396.893,258.997 406.06,249.997 420.5,246.5 Z"/></g>
<g><path style="opacity:0.928" fill="#003144" d="M 268.5,84.5 C 279.574,83.6745 283.074,88.3411 279,98.5C 252.805,125.028 226.305,151.195 199.5,177C 195.882,177.966 192.549,177.466 189.5,175.5C 174.875,160.374 160.041,145.374 145,130.5C 143.926,119.947 148.426,116.447 158.5,120C 170.681,132.348 183.014,144.514 195.5,156.5C 219.881,132.452 244.214,108.452 268.5,84.5 Z"/></g>
<g><path style="opacity:0.934" fill="#003144" d="M 20.5,195.5 C 57.1682,195.333 93.8348,195.5 130.5,196C 135.789,199.51 136.789,204.01 133.5,209.5C 132.335,210.584 131.002,211.417 129.5,212C 93.8333,212.667 58.1667,212.667 22.5,212C 16.9051,209.646 15.0718,205.479 17,199.5C 18.3756,198.295 19.5423,196.962 20.5,195.5 Z"/></g>
<g><path style="opacity:0.935" fill="#003144" d="M 209.5,229.5 C 251.501,229.333 293.501,229.5 335.5,230C 340.738,233.274 341.904,237.774 339,243.5C 338.097,244.701 336.931,245.535 335.5,246C 293.833,246.667 252.167,246.667 210.5,246C 206.334,245.015 204.334,242.348 204.5,238C 204.525,234.105 206.192,231.272 209.5,229.5 Z"/></g>
<g><path style="opacity:0.933" fill="#003144" d="M 140.5,263.5 C 150.823,262.408 157.656,266.741 161,276.5C 161.988,291.845 154.821,298.678 139.5,297C 129.531,293.235 125.698,286.068 128,275.5C 130.111,269.219 134.278,265.219 140.5,263.5 Z"/></g>
<g><path style="opacity:0.935" fill="#003144" d="M 422.5,263.5 C 437.753,263.014 444.587,270.347 443,285.5C 438.193,296.554 430.026,300.054 418.5,296C 408.248,287.986 406.914,278.653 414.5,268C 417.099,266.205 419.766,264.705 422.5,263.5 Z"/></g>
</svg>
