<?xml version="1.0" encoding="UTF-8"?>
<!DOCTYPE svg PUBLIC "-//W3C//DTD SVG 1.1//EN" "http://www.w3.org/Graphics/SVG/1.1/DTD/svg11.dtd">
<svg xmlns="http://www.w3.org/2000/svg" version="1.1" width="1600px" height="1522px" style="shape-rendering:geometricPrecision; text-rendering:geometricPrecision; image-rendering:optimizeQuality; fill-rule:evenodd; clip-rule:evenodd" xmlns:xlink="http://www.w3.org/1999/xlink">
<g><path style="opacity:0.998" fill="#ffd400" d="M 799.5,-0.5 C 799.833,-0.5 800.167,-0.5 800.5,-0.5C 863.49,192.805 926.49,386.139 989.5,579.5C 1192.83,580.5 1396.17,580.833 1599.5,580.5C 1599.5,581.167 1599.5,581.833 1599.5,582.5C 1434.66,701.093 1270.32,820.426 1106.5,940.5C 1169.71,1134.12 1232.71,1327.78 1295.5,1521.5C 1294.83,1521.5 1294.17,1521.5 1293.5,1521.5C 1128.98,1401.98 964.479,1282.31 800,1162.5C 635.521,1282.31 471.021,1401.98 306.5,1521.5C 305.833,1521.5 305.167,1521.5 304.5,1521.5C 367.49,1328.19 430.49,1134.86 493.5,941.5C 480.385,931.102 467.052,920.936 453.5,911C 302.285,801.236 150.951,691.736 -0.5,582.5C -0.5,581.833 -0.5,581.167 -0.5,580.5C 203.167,580.667 406.834,580.5 610.5,580C 673.799,386.603 736.799,193.103 799.5,-0.5 Z"/></g>
</svg>
