<?xml version="1.0" encoding="UTF-8"?>
<!DOCTYPE svg PUBLIC "-//W3C//DTD SVG 1.1//EN" "http://www.w3.org/Graphics/SVG/1.1/DTD/svg11.dtd">
<svg xmlns="http://www.w3.org/2000/svg" version="1.1" width="512px" height="512px" style="shape-rendering:geometricPrecision; text-rendering:geometricPrecision; image-rendering:optimizeQuality; fill-rule:evenodd; clip-rule:evenodd" xmlns:xlink="http://www.w3.org/1999/xlink">
<g><path style="opacity:0.95" fill="#003144" d="M 251.5,-0.5 C 254.167,-0.5 256.833,-0.5 259.5,-0.5C 325.468,38.3043 395.468,68.1376 469.5,89C 471.894,90.9522 473.394,93.4522 474,96.5C 474.896,143.513 474.563,190.513 473,237.5C 460.779,349.952 406.279,434.785 309.5,492C 294.656,499.993 279.322,506.493 263.5,511.5C 258.167,511.5 252.833,511.5 247.5,511.5C 219.662,502.581 193.995,489.414 170.5,472C 92.0497,413.639 47.8831,335.472 38,237.5C 36.4373,190.513 36.1039,143.513 37,96.5C 37.6064,93.4522 39.1064,90.9522 41.5,89C 115.545,68.168 185.545,38.3346 251.5,-0.5 Z M 254.5,23.5 C 316.765,59.1296 382.432,86.7963 451.5,106.5C 451.667,147.835 451.5,189.168 451,230.5C 440.934,336.203 390.768,416.369 300.5,471C 286.412,479.377 271.412,485.544 255.5,489.5C 239.588,485.544 224.588,479.377 210.5,471C 120.217,416.331 70.0505,336.164 60,230.5C 59.5,189.168 59.3333,147.835 59.5,106.5C 128.246,87.2843 193.246,59.6176 254.5,23.5 Z M 349.5,176.5 C 359.309,175.153 364.976,179.319 366.5,189C 366.316,192.553 365.15,195.719 363,198.5C 318.833,242.667 274.667,286.833 230.5,331C 224.746,335.231 218.746,335.564 212.5,332C 191,310.5 169.5,289 148,267.5C 142.042,258.318 143.875,251.151 153.5,246C 157.782,245.035 161.782,245.702 165.5,248C 182.195,265.029 199.195,281.696 216.5,298C 219.5,298.667 222.5,298.667 225.5,298C 265.806,258.695 305.806,219.028 345.5,179C 347.066,178.392 348.4,177.558 349.5,176.5 Z"/></g>
<g><path style="opacity:0.908" fill="#003144" d="M 176.5,85.5 C 187.673,84.5645 192.506,89.5645 191,100.5C 186.271,108.117 180.105,109.45 172.5,104.5C 167.585,96.7942 168.918,90.4608 176.5,85.5 Z"/></g>
<g><path style="opacity:0.956" fill="#003144" d="M 145.5,98.5 C 157.615,97.4425 162.449,102.776 160,114.5C 158.337,116.917 156.171,118.75 153.5,120C 136.615,126.462 119.615,132.629 102.5,138.5C 101.667,151.154 101.167,163.82 101,176.5C 97.3637,182.177 92.197,184.01 85.5,182C 83.0833,180.337 81.25,178.171 80,175.5C 79.3333,159.167 79.3333,142.833 80,126.5C 80.6667,125.167 81.3333,123.833 82,122.5C 103.288,114.574 124.454,106.574 145.5,98.5 Z"/></g>
<g><path style="opacity:0.952" fill="#003144" d="M 349.5,153.5 C 373.025,153.859 386.359,165.692 389.5,189C 388.954,196.352 386.787,203.185 383,209.5C 336.5,257.333 289.333,304.5 241.5,351C 227.787,359.594 214.12,359.594 200.5,351C 175.667,327.5 151.5,303.333 128,278.5C 117.538,258.716 121.038,241.883 138.5,228C 153.708,220.221 168.041,221.555 181.5,232C 194.667,245.167 207.833,258.333 221,271.5C 257.5,235 294,198.5 330.5,162C 336.189,157.484 342.523,154.651 349.5,153.5 Z M 349.5,176.5 C 348.4,177.558 347.066,178.392 345.5,179C 305.806,219.028 265.806,258.695 225.5,298C 222.5,298.667 219.5,298.667 216.5,298C 199.195,281.696 182.195,265.029 165.5,248C 161.782,245.702 157.782,245.035 153.5,246C 143.875,251.151 142.042,258.318 148,267.5C 169.5,289 191,310.5 212.5,332C 218.746,335.564 224.746,335.231 230.5,331C 274.667,286.833 318.833,242.667 363,198.5C 365.15,195.719 366.316,192.553 366.5,189C 364.976,179.319 359.309,175.153 349.5,176.5 Z"/></g>
<g><path style="opacity:0.945" fill="#003144" d="M 374.5,344.5 C 383.287,344.12 388.287,348.287 389.5,357C 371.131,388.042 347.131,414.042 317.5,435C 305.307,435.806 300.807,430.306 304,418.5C 329.872,398.3 351.872,374.633 370,347.5C 371.652,346.601 373.152,345.601 374.5,344.5 Z"/></g>
<g><path style="opacity:0.907" fill="#003144" d="M 283.5,431.5 C 294.649,430.491 299.482,435.491 298,446.5C 294.677,452.908 289.511,455.075 282.5,453C 275.304,448.672 273.804,442.838 278,435.5C 279.5,433.531 281.333,432.198 283.5,431.5 Z"/></g>
</svg>
