<?xml version="1.0" encoding="UTF-8"?>
<!DOCTYPE svg PUBLIC "-//W3C//DTD SVG 1.1//EN" "http://www.w3.org/Graphics/SVG/1.1/DTD/svg11.dtd">
<svg xmlns="http://www.w3.org/2000/svg" version="1.1" width="348px" height="428px" style="shape-rendering:geometricPrecision; text-rendering:geometricPrecision; image-rendering:optimizeQuality; fill-rule:evenodd; clip-rule:evenodd" xmlns:xlink="http://www.w3.org/1999/xlink">
<g><path style="opacity:0.965" fill="#fb7468" d="M 20.5,9.5 C 93.5008,9.33334 166.501,9.5 239.5,10C 241.725,10.5611 243.725,11.5611 245.5,13C 273.667,41.1667 301.833,69.3333 330,97.5C 331.439,99.2746 332.439,101.275 333,103.5C 333.667,204.833 333.667,306.167 333,407.5C 332.31,410.196 330.81,412.363 328.5,414C 225.247,415.662 121.914,415.995 18.5,415C 15.6193,413.749 13.786,411.583 13,408.5C 12.3333,277.833 12.3333,147.167 13,16.5C 14.7668,13.228 17.2668,10.8947 20.5,9.5 Z M 34.5,31.5 C 98.1667,31.5 161.833,31.5 225.5,31.5C 225.333,57.5021 225.5,83.5021 226,109.5C 227.167,113.333 229.667,115.833 233.5,117C 259.498,117.5 285.498,117.667 311.5,117.5C 311.5,209.5 311.5,301.5 311.5,393.5C 219.167,393.5 126.833,393.5 34.5,393.5C 34.5,272.833 34.5,152.167 34.5,31.5 Z M 247.5,48.5 C 263.299,63.7982 278.965,79.2982 294.5,95C 278.837,95.4999 263.17,95.6666 247.5,95.5C 247.5,79.8333 247.5,64.1667 247.5,48.5 Z"/></g>
<g><path style="opacity:0.947" fill="#fb7468" d="M 168.5,137.5 C 187.35,137.514 195.85,146.847 194,165.5C 187.764,179.697 177.264,184.197 162.5,179C 150.79,170.41 148.29,159.577 155,146.5C 158.517,141.838 163.017,138.838 168.5,137.5 Z"/></g>
<g><path style="opacity:0.96" fill="#fb7468" d="M 148.5,201.5 C 157.506,201.334 166.506,201.5 175.5,202C 178.539,203.031 181.039,204.865 183,207.5C 183.5,241.165 183.667,274.832 183.5,308.5C 189.29,308.096 194.956,308.596 200.5,310C 207.598,317.417 206.932,324.084 198.5,330C 181.5,330.667 164.5,330.667 147.5,330C 141.397,326.96 139.231,322.126 141,315.5C 142.122,313.376 143.622,311.543 145.5,310C 150.708,308.603 156.041,308.103 161.5,308.5C 161.5,280.167 161.5,251.833 161.5,223.5C 156.489,223.666 151.489,223.499 146.5,223C 141.206,219.565 139.373,214.732 141,208.5C 142.767,205.228 145.267,202.895 148.5,201.5 Z"/></g>
</svg>
