<?xml version="1.0" encoding="UTF-8"?>
<!DOCTYPE svg PUBLIC "-//W3C//DTD SVG 1.1//EN" "http://www.w3.org/Graphics/SVG/1.1/DTD/svg11.dtd">
<svg xmlns="http://www.w3.org/2000/svg" version="1.1" width="512px" height="512px" style="shape-rendering:geometricPrecision; text-rendering:geometricPrecision; image-rendering:optimizeQuality; fill-rule:evenodd; clip-rule:evenodd" xmlns:xlink="http://www.w3.org/1999/xlink">
<g><path style="opacity:0.955" fill="#004762" d="M 60.5,73.5 C 136.834,73.3333 213.167,73.5 289.5,74C 309.904,78.7456 319.071,91.5789 317,112.5C 315.42,127.886 313.587,143.219 311.5,158.5C 334.493,159.333 357.493,159.833 380.5,160C 392.567,162.614 402.733,168.447 411,177.5C 433,202.167 455,226.833 477,251.5C 487.145,265.216 490.812,280.549 488,297.5C 486.062,319.611 483.395,341.611 480,363.5C 476.5,372.333 470.333,378.5 461.5,382C 452.568,383.381 443.568,383.881 434.5,383.5C 426.087,408.413 409.421,425.247 384.5,434C 359.824,441.622 338.324,436.455 320,418.5C 311.976,408.266 307.81,396.599 307.5,383.5C 273.493,383.167 239.493,383.5 205.5,384.5C 192.826,417.099 168.992,434.766 134,437.5C 104.245,436.408 85.9119,421.408 79,392.5C 78.502,389.518 78.3354,386.518 78.5,383.5C 61.1635,383.667 43.8301,383.5 26.5,383C 20.5291,378.803 19.0291,373.303 22,366.5C 23.7309,364.383 25.8976,362.883 28.5,362C 46.1667,361.667 63.8333,361.333 81.5,361C 98.4204,320.872 128.42,304.205 171.5,311C 194.917,319.652 207.25,336.485 208.5,361.5C 228.234,362.147 247.734,361.48 267,359.5C 276.282,274.964 285.782,190.464 295.5,106C 294.026,100.19 290.359,96.8565 284.5,96C 209.167,95.6667 133.833,95.3333 58.5,95C 52.5291,90.8032 51.0291,85.3032 54,78.5C 55.9651,76.4497 58.1318,74.783 60.5,73.5 Z M 309.5,181.5 C 331.503,181.333 353.503,181.5 375.5,182C 381.153,182.994 386.153,185.327 390.5,189C 413.667,214.833 436.833,240.667 460,266.5C 464.265,272.463 466.432,279.13 466.5,286.5C 464.395,309.546 461.895,332.546 459,355.5C 457.749,358.381 455.583,360.214 452.5,361C 447.798,361.828 443.131,361.662 438.5,360.5C 431.447,320.644 407.78,303.811 367.5,310C 339.357,316.98 320.69,334.147 311.5,361.5C 304.167,361.5 296.833,361.5 289.5,361.5C 295.948,301.469 302.615,241.469 309.5,181.5 Z M 351.5,223.5 C 355.182,223.335 358.848,223.501 362.5,224C 374.649,237.65 386.982,251.15 399.5,264.5C 382.179,265.5 364.846,265.833 347.5,265.5C 348.724,251.474 350.058,237.474 351.5,223.5 Z M 147.5,330.5 C 167.63,329.3 180.463,338.3 186,357.5C 186.9,378.866 178.4,395.366 160.5,407C 144.439,417.064 128.439,417.398 112.5,408C 101.697,398.013 98.1971,385.846 102,371.5C 109.486,349.175 124.652,335.509 147.5,330.5 Z M 377.5,330.5 C 397.086,329.29 409.586,337.956 415,356.5C 416.645,379.043 407.811,396.21 388.5,408C 374.109,415.763 359.442,416.43 344.5,410C 331.886,400.497 327.386,387.997 331,372.5C 338.196,349.13 353.696,335.13 377.5,330.5 Z"/></g>
<g><path style="opacity:0.933" fill="#004762" d="M 81.5,137.5 C 90.8393,137.334 100.173,137.5 109.5,138C 119.336,144.036 120.003,151.036 111.5,159C 100.833,159.667 90.1667,159.667 79.5,159C 71.0514,150.882 71.7181,143.715 81.5,137.5 Z"/></g>
<g><path style="opacity:0.955" fill="#004762" d="M 145.5,137.5 C 172.502,137.333 199.502,137.5 226.5,138C 234.879,142.091 236.712,148.258 232,156.5C 231.097,157.701 229.931,158.535 228.5,159C 200.167,159.667 171.833,159.667 143.5,159C 135.051,150.882 135.718,143.715 145.5,137.5 Z"/></g>
<g><path style="opacity:0.955" fill="#004762" d="M 60.5,201.5 C 87.5021,201.333 114.502,201.5 141.5,202C 151.336,208.036 152.003,215.036 143.5,223C 115.167,223.667 86.8333,223.667 58.5,223C 52.5291,218.803 51.0291,213.303 54,206.5C 55.9651,204.45 58.1318,202.783 60.5,201.5 Z"/></g>
<g><path style="opacity:0.933" fill="#004762" d="M 177.5,201.5 C 186.839,201.334 196.173,201.5 205.5,202C 215.336,208.036 216.003,215.036 207.5,223C 196.833,223.667 186.167,223.667 175.5,223C 167.051,214.882 167.718,207.715 177.5,201.5 Z"/></g>
<g><path style="opacity:0.958" fill="#004762" d="M 337.5,201.5 C 348.505,201.333 359.505,201.5 370.5,202C 371.833,202.667 373.167,203.333 374.5,204C 395.016,225.548 415.182,247.382 435,269.5C 438.943,276.337 437.777,282.17 431.5,287C 397.082,287.986 362.748,287.653 328.5,286C 325.332,282.825 323.998,278.992 324.5,274.5C 326.278,252.829 328.112,231.162 330,209.5C 331.353,205.65 333.853,202.983 337.5,201.5 Z M 351.5,223.5 C 350.058,237.474 348.724,251.474 347.5,265.5C 364.846,265.833 382.179,265.5 399.5,264.5C 386.982,251.15 374.649,237.65 362.5,224C 358.848,223.501 355.182,223.335 351.5,223.5 Z"/></g>
<g><path style="opacity:0.963" fill="#004762" d="M 39.5,265.5 C 87.5012,265.333 135.501,265.5 183.5,266C 191.56,269.445 193.726,275.279 190,283.5C 188.786,285.049 187.286,286.215 185.5,287C 136.167,287.667 86.8333,287.667 37.5,287C 33.0466,284.929 31.0466,281.429 31.5,276.5C 31.8551,271.146 34.5218,267.479 39.5,265.5 Z"/></g>
<g><path style="opacity:0.939" fill="#004762" d="M 31.5,415.5 C 43.8378,415.333 56.1712,415.5 68.5,416C 73.7939,419.435 75.6272,424.268 74,430.5C 72.4371,433.728 69.9371,435.895 66.5,437C 55.5,437.667 44.5,437.667 33.5,437C 26.2,433.562 24.0334,428.062 27,420.5C 28.7073,418.963 30.2073,417.296 31.5,415.5 Z"/></g>
<g><path style="opacity:0.951" fill="#004762" d="M 239.5,415.5 C 258.836,415.333 278.17,415.5 297.5,416C 300,417.167 301.833,419 303,421.5C 305.569,429.249 303.069,434.416 295.5,437C 277.5,437.667 259.5,437.667 241.5,437C 234.2,433.562 232.033,428.062 235,420.5C 236.707,418.963 238.207,417.296 239.5,415.5 Z"/></g>
</svg>
