<?xml version="1.0" encoding="UTF-8"?>
<!DOCTYPE svg PUBLIC "-//W3C//DTD SVG 1.1//EN" "http://www.w3.org/Graphics/SVG/1.1/DTD/svg11.dtd">
<svg xmlns="http://www.w3.org/2000/svg" version="1.1" width="500px" height="310px" style="shape-rendering:geometricPrecision; text-rendering:geometricPrecision; image-rendering:optimizeQuality; fill-rule:evenodd; clip-rule:evenodd" xmlns:xlink="http://www.w3.org/1999/xlink">
<g><path style="opacity:0.951" fill="#fe7568" d="M 59.5,-0.5 C 64.5,-0.5 69.5,-0.5 74.5,-0.5C 90.5186,8.39398 94.352,21.0607 86,37.5C 75.182,48.1284 63.3486,49.2951 50.5,41C 39.6045,28.3826 39.9378,16.0493 51.5,4C 54.0993,2.20496 56.7659,0.704964 59.5,-0.5 Z"/></g>
<g><path style="opacity:0.858" fill="#fe7568" d="M 333.5,2.5 C 351.121,4.61249 357.955,14.2792 354,31.5C 348.352,41.7416 339.852,45.575 328.5,43C 314.002,35.5029 310.835,24.6695 319,10.5C 323.134,6.35382 327.968,3.68716 333.5,2.5 Z M 330.5,12.5 C 344.016,11.8889 348.516,17.8889 344,30.5C 338.965,35.2316 333.465,35.7316 327.5,32C 321.84,24.4799 322.84,17.9799 330.5,12.5 Z"/></g>
<g><path style="opacity:0.884" fill="#fe7568" d="M -0.5,27.5 C -0.5,24.5 -0.5,21.5 -0.5,18.5C 5.24187,11.1952 11.4085,10.8619 18,17.5C 21.129,24.4115 19.2957,29.5782 12.5,33C 6.70009,34.4292 2.36676,32.5959 -0.5,27.5 Z"/></g>
<g><path style="opacity:0.76" fill="#fe7568" d="M 210.5,22.5 C 212.764,24.0971 214.764,26.0971 216.5,28.5C 213.874,30.8235 211.207,33.1568 208.5,35.5C 206.844,33.5398 205.177,31.5398 203.5,29.5C 206.06,27.3879 208.394,25.0546 210.5,22.5 Z"/></g>
<g><path style="opacity:0.716" fill="#fe7568" d="M 154.5,23.5 C 157.658,24.3134 160.324,25.9801 162.5,28.5C 161.162,30.3366 159.662,32.0033 158,33.5C 155.844,32.0149 153.677,30.5149 151.5,29C 153.16,27.5123 154.16,25.679 154.5,23.5 Z"/></g>
<g><path style="opacity:0.812" fill="#fe7568" d="M 176.5,23.5 C 179.624,23.9429 181.957,25.6095 183.5,28.5C 179.511,33.8207 175.178,38.8207 170.5,43.5C 168.5,41.8333 166.5,40.1667 164.5,38.5C 168.547,33.4621 172.547,28.4621 176.5,23.5 Z"/></g>
<g><path style="opacity:0.799" fill="#fe7568" d="M 147.5,33.5 C 148.552,33.3505 149.552,33.5172 150.5,34C 151.878,35.7134 153.545,37.0467 155.5,38C 151.622,43.5886 147.622,49.0886 143.5,54.5C 141.5,52.8333 139.5,51.1667 137.5,49.5C 141.282,44.3976 144.616,39.0643 147.5,33.5 Z"/></g>
<g><path style="opacity:0.747" fill="#fe7568" d="M 242.5,33.5 C 243.675,33.281 244.675,33.6143 245.5,34.5C 246.248,36.3325 247.248,37.9991 248.5,39.5C 243.627,46.1728 239.627,45.8394 236.5,38.5C 238.519,36.8103 240.519,35.1436 242.5,33.5 Z"/></g>
<g><path style="opacity:0.799" fill="#fe7568" d="M 191.5,38.5 C 194.187,39.6638 196.52,41.4971 198.5,44C 193.351,48.3149 188.351,52.8149 183.5,57.5C 180.976,55.8099 178.976,53.6432 177.5,51C 182.361,46.9679 187.028,42.8012 191.5,38.5 Z"/></g>
<g><path style="opacity:0.779" fill="#fe7568" d="M 224.5,44.5 C 225.675,44.281 226.675,44.6143 227.5,45.5C 228.248,47.3325 229.248,48.9991 230.5,50.5C 227.052,53.4447 223.218,55.778 219,57.5C 217.266,55.7098 215.766,53.7098 214.5,51.5C 217.851,49.1414 221.185,46.8081 224.5,44.5 Z"/></g>
<g><path style="opacity:0.779" fill="#fe7568" d="M 155.5,47.5 C 158.135,48.8334 160.469,50.6667 162.5,53C 159.622,55.7087 156.956,58.542 154.5,61.5C 152.46,59.823 150.46,58.1563 148.5,56.5C 151.084,53.6508 153.417,50.6508 155.5,47.5 Z"/></g>
<g><path style="opacity:0.859" fill="#fe7568" d="M 131.5,54.5 C 132.873,54.3433 134.207,54.51 135.5,55C 145.667,65.1667 155.833,75.3333 166,85.5C 166.667,87.1667 166.667,88.8333 166,90.5C 158.578,94.4611 151.078,98.2944 143.5,102C 139.833,105.667 136.167,109.333 132.5,113C 129.975,113.896 127.808,113.396 126,111.5C 124.878,113.624 123.378,115.457 121.5,117C 123.978,118.938 124.145,121.105 122,123.5C 110,135.5 98,147.5 86,159.5C 85.7351,161.163 86.2351,162.663 87.5,164C 82.9799,170.02 77.6466,175.187 71.5,179.5C 68.5497,176.788 66.8831,177.622 66.5,182C 68.5148,189.674 73.1815,192.007 80.5,189C 108.833,160.667 137.167,132.333 165.5,104C 188.431,87.0852 211.097,87.4186 233.5,105C 252.225,125.53 254.391,147.696 240,171.5C 218.014,194.652 195.514,217.319 172.5,239.5C 170.35,237.851 168.35,236.018 166.5,234C 188,212.5 209.5,191 231,169.5C 243.667,151.167 243.667,132.833 231,114.5C 214.367,98.8308 195.867,96.3308 175.5,107C 145.194,136.305 115.194,165.972 85.5,196C 76.2367,200.949 68.07,199.449 61,191.5C 57.3195,184.307 57.8195,177.473 62.5,171C 58.3333,166.833 54.1667,162.667 50,158.5C 39.8587,172.146 38.8587,186.479 47,201.5C 60.9522,217.131 77.1189,219.964 95.5,210C 124.635,180.53 153.969,151.53 183.5,123C 196.386,117.013 206.886,119.846 215,131.5C 218.582,139.342 218.249,147.008 214,154.5C 185.645,182.855 157.312,211.188 129,239.5C 127.355,237.855 125.688,236.188 124,234.5C 123.333,233.833 123.333,233.167 124,232.5C 151.667,204.833 179.333,177.167 207,149.5C 211.264,135.438 206.097,128.605 191.5,129C 189.275,129.561 187.275,130.561 185.5,132C 157.5,160 129.5,188 101.5,216C 79.0074,229.668 58.8407,226.834 41,207.5C 29.1695,189.321 29.8361,171.655 43,154.5C 42.7468,151.867 42.7468,149.2 43,146.5C 46.8333,142.667 50.6667,138.833 54.5,135C 57.025,134.104 59.1917,134.604 61,136.5C 62.5,135 64,133.5 65.5,132C 61.1667,131.667 56.8333,131.333 52.5,131C 45.673,126.521 44.173,120.688 48,113.5C 49.7309,111.383 51.8976,109.883 54.5,109C 62.1667,108.667 69.8333,108.333 77.5,108C 82.2402,105.928 87.2402,104.928 92.5,105C 95.0482,102.115 97.8815,99.6149 101,97.5C 102.393,98.6151 103.893,99.1151 105.5,99C 106.833,97.6667 108.167,96.3333 109.5,95C 107.675,93.5341 107.175,91.7008 108,89.5C 111.667,85.8333 115.333,82.1667 119,78.5C 122.924,70.3159 127.091,62.3159 131.5,54.5 Z M 134.5,65.5 C 140.996,72.8287 147.996,79.6621 155.5,86C 151.081,88.6268 146.581,91.1268 142,93.5C 137.667,89.1667 133.333,84.8333 129,80.5C 128.333,79.5 128.333,78.5 129,77.5C 131.119,73.5977 132.952,69.5977 134.5,65.5 Z M 122.5,86.5 C 126.812,90.1456 130.812,94.1456 134.5,98.5C 133.185,100.316 131.685,101.983 130,103.5C 125.833,99.3333 121.667,95.1667 117.5,91C 119.66,90.0041 121.327,88.5041 122.5,86.5 Z M 114.5,101.5 C 121.689,103.966 122.022,106.966 115.5,110.5C 113.684,109.185 112.017,107.685 110.5,106C 112.041,104.629 113.375,103.129 114.5,101.5 Z M 100.5,108.5 C 104.812,112.146 108.812,116.146 112.5,120.5C 101.514,131.986 90.3476,143.319 79,154.5C 74.9844,150.652 71.1511,146.652 67.5,142.5C 70.3207,138.839 73.4873,135.506 77,132.5C 87.7358,138.135 95.7358,135.469 101,124.5C 102.036,119.768 101.203,115.434 98.5,111.5C 99.1925,110.482 99.8592,109.482 100.5,108.5 Z M 84.5,113.5 C 91.3694,113.538 93.8694,116.871 92,123.5C 91.5,124.667 90.6667,125.5 89.5,126C 86.0316,127.081 83.0316,126.415 80.5,124C 71.9217,123.818 63.4217,123.318 55,122.5C 54.2797,120.888 54.4464,119.388 55.5,118C 63.8333,117.667 72.1667,117.333 80.5,117C 81.7305,115.595 83.0639,114.429 84.5,113.5 Z M 56.5,144.5 C 63.2982,150.797 69.9648,157.297 76.5,164C 75,165.5 73.5,167 72,168.5C 65.6522,161.985 59.1522,155.652 52.5,149.5C 53.8569,147.814 55.1902,146.148 56.5,144.5 Z"/></g>
<g><path style="opacity:0.778" fill="#fe7568" d="M 205.5,55.5 C 206.978,55.238 208.311,55.5713 209.5,56.5C 210.248,58.3325 211.248,59.9991 212.5,61.5C 208.402,64.2977 204.235,66.9643 200,69.5C 198.135,67.6079 196.635,65.4412 195.5,63C 198.715,60.2772 202.048,57.7772 205.5,55.5 Z"/></g>
<g><path style="opacity:0.867" fill="#fe7568" d="M 499.5,141.5 C 499.5,145.167 499.5,148.833 499.5,152.5C 493.346,170.827 480.846,177.827 462,173.5C 456.06,181.615 448.227,184.115 438.5,181C 436.631,178.686 434.631,178.353 432.5,180C 425.195,185.582 418.361,191.748 412,198.5C 400.589,215.479 388.089,231.646 374.5,247C 358.167,257 341.833,257 325.5,247C 312.667,234.833 299.833,222.667 287,210.5C 270.902,214.354 261.402,208.021 258.5,191.5C 258.736,186.196 260.736,181.696 264.5,178C 251.64,167.287 249.14,154.454 257,139.5C 264.842,128.667 275.342,124.667 288.5,127.5C 293.726,123.223 299.726,120.556 306.5,119.5C 311.894,119.865 316.56,121.865 320.5,125.5C 325.978,122.335 330.812,118.335 335,113.5C 346.167,98.3333 357.333,83.1667 368.5,68C 384.372,53.8892 401.705,51.8892 420.5,62C 433.3,73.1318 445.8,84.6318 458,96.5C 470.376,86.2087 481.376,87.542 491,100.5C 494.957,109.135 493.791,116.968 487.5,124C 493.625,128.429 497.625,134.262 499.5,141.5 Z M 390.5,65.5 C 410.088,63.544 423.921,71.544 432,89.5C 435.665,102.674 432.831,114.174 423.5,124C 408.057,136.142 392.89,148.642 378,161.5C 365.955,177.756 353.788,193.923 341.5,210C 324.395,221.294 308.728,219.628 294.5,205C 299.665,198.583 300.832,191.416 298,183.5C 297.535,182.069 296.701,180.903 295.5,180C 302.569,175.69 307.069,169.524 309,161.5C 322.877,157.233 328.377,148.066 325.5,134C 330.667,129.5 335.833,125 341,120.5C 352.333,105.167 363.667,89.8333 375,74.5C 379.6,70.3738 384.766,67.3738 390.5,65.5 Z M 442.5,94.5 C 445.442,97.6056 448.609,100.606 452,103.5C 452.333,107.5 452.667,111.5 453,115.5C 453.516,118.034 454.683,120.2 456.5,122C 449.935,126.617 445.435,132.784 443,140.5C 427.123,146.08 422.29,156.58 428.5,172C 420.705,178.127 413.205,184.627 406,191.5C 395.756,204.989 385.756,218.656 376,232.5C 361.721,247.565 345.887,249.399 328.5,238C 324.833,234.333 321.167,230.667 317.5,227C 332.616,227.191 344.782,221.358 354,209.5C 364.244,196.011 374.244,182.344 384,168.5C 400,155.167 416,141.833 432,128.5C 440.453,118.643 443.953,107.31 442.5,94.5 Z M 471.5,98.5 C 482.465,100.092 485.965,106.092 482,116.5C 475.708,123.155 469.375,123.155 463,116.5C 459.731,107.376 462.565,101.376 471.5,98.5 Z M 463.5,128.5 C 468.361,130.619 473.361,130.952 478.5,129.5C 489.269,135.373 492.435,144.04 488,155.5C 482.811,164.349 475.311,167.516 465.5,165C 466.871,159.077 465.705,153.577 462,148.5C 458.814,145.975 455.647,143.475 452.5,141C 454.618,135.387 458.285,131.22 463.5,128.5 Z M 301.5,129.5 C 315.102,128.916 319.602,134.916 315,147.5C 313.622,149.213 311.955,150.547 310,151.5C 308.084,143.829 304.25,137.329 298.5,132C 299.571,131.148 300.571,130.315 301.5,129.5 Z M 279.5,135.5 C 298.315,138.485 304.148,148.819 297,166.5C 287.608,176.111 277.608,176.777 267,168.5C 257.823,152.215 261.99,141.215 279.5,135.5 Z M 441.5,150.5 C 453.462,149.439 458.295,154.773 456,166.5C 452.723,172.109 447.89,173.942 441.5,172C 434.885,168.157 433.052,162.657 436,155.5C 437.73,153.598 439.563,151.931 441.5,150.5 Z M 272.5,182.5 C 277.72,183.031 282.887,183.697 288,184.5C 292.372,191.946 290.872,197.779 283.5,202C 272,203.833 267.167,199 269,187.5C 269.997,185.677 271.164,184.01 272.5,182.5 Z"/></g>
<g><path style="opacity:0.861" fill="#fe7568" d="M 323.5,56.5 C 338.37,59.5725 342.536,67.9059 336,81.5C 326.986,88.6645 318.986,87.6645 312,78.5C 308.736,67.3598 312.569,60.0264 323.5,56.5 Z M 322.5,66.5 C 329.488,66.6536 331.488,69.8202 328.5,76C 323.643,77.7528 320.643,76.2528 319.5,71.5C 319.757,69.3076 320.757,67.6409 322.5,66.5 Z"/></g>
<g><path style="opacity:0.789" fill="#fe7568" d="M 167.5,59.5 C 170.231,60.388 172.231,62.2214 173.5,65C 171.015,67.8141 168.181,70.3141 165,72.5C 163.188,70.6884 161.355,68.8551 159.5,67C 162.062,64.267 164.729,61.767 167.5,59.5 Z"/></g>
<g><path style="opacity:0.925" fill="#fe7568" d="M 14.5,61.5 C 29.6492,60.4817 36.4825,67.4817 35,82.5C 29.0793,93.6953 20.5793,96.1953 9.5,90C 0.365772,78.5639 2.03244,69.0639 14.5,61.5 Z"/></g>
<g><path style="opacity:0.806" fill="#fe7568" d="M 188.5,65.5 C 191.811,67.12 193.311,69.7866 193,73.5C 187.328,77.918 181.161,81.0847 174.5,83C 172.594,81.1435 171.76,78.9769 172,76.5C 177.677,72.9703 183.177,69.3037 188.5,65.5 Z"/></g>
<g><path style="opacity:0.768" fill="#fe7568" d="M 385.5,73.5 C 388.245,74.7381 390.579,76.5714 392.5,79C 391.037,81.6312 389.037,83.7979 386.5,85.5C 384.167,83.8333 382.167,81.8333 380.5,79.5C 382.19,77.4807 383.856,75.4807 385.5,73.5 Z"/></g>
<g><path style="opacity:0.75" fill="#fe7568" d="M 385.5,90.5 C 388.787,91.264 391.454,93.0973 393.5,96C 391.316,98.0165 389.316,100.183 387.5,102.5C 385.016,100.517 382.683,98.3504 380.5,96C 382.373,94.2962 384.04,92.4628 385.5,90.5 Z"/></g>
<g><path style="opacity:0.764" fill="#fe7568" d="M 368.5,96.5 C 371.787,97.264 374.454,99.0973 376.5,102C 374.316,104.016 372.316,106.183 370.5,108.5C 367.963,106.798 365.963,104.631 364.5,102C 365.65,100.019 366.984,98.1857 368.5,96.5 Z"/></g>
<g><path style="opacity:0.753" fill="#fe7568" d="M 406.5,108.5 C 414.987,111.746 415.487,115.746 408,120.5C 405.369,119.037 403.202,117.037 401.5,114.5C 403.914,113.089 405.581,111.089 406.5,108.5 Z"/></g>
<g><path style="opacity:0.752" fill="#fe7568" d="M 378.5,131.5 C 381.374,133.016 384.041,135.016 386.5,137.5C 384.798,140.037 382.631,142.037 380,143.5C 377.833,142 376,140.167 374.5,138C 376.07,135.941 377.403,133.774 378.5,131.5 Z"/></g>
<g><path style="opacity:0.754" fill="#fe7568" d="M 418.5,142.5 C 421.787,143.264 424.454,145.097 426.5,148C 424.316,150.016 422.316,152.183 420.5,154.5C 418.016,152.517 415.683,150.35 413.5,148C 415.373,146.296 417.04,144.463 418.5,142.5 Z"/></g>
<g><path style="opacity:0.746" fill="#fe7568" d="M 413.5,159.5 C 422.157,162.332 422.657,166.332 415,171.5C 413.004,169.339 410.838,167.339 408.5,165.5C 410.19,163.481 411.856,161.481 413.5,159.5 Z"/></g>
<g><path style="opacity:0.757" fill="#fe7568" d="M 339.5,178.5 C 348.905,181.265 349.571,185.265 341.5,190.5C 339.167,188.833 337.167,186.833 335.5,184.5C 337.278,182.736 338.611,180.736 339.5,178.5 Z"/></g>
<g><path style="opacity:0.757" fill="#fe7568" d="M 322.5,184.5 C 331.905,187.265 332.571,191.265 324.5,196.5C 322.167,194.833 320.167,192.833 318.5,190.5C 320.278,188.736 321.611,186.736 322.5,184.5 Z"/></g>
<g><path style="opacity:0.748" fill="#fe7568" d="M 385.5,194.5 C 388.245,195.738 390.579,197.571 392.5,200C 391.032,202.469 389.198,204.635 387,206.5C 384.352,205.018 382.185,203.018 380.5,200.5C 382.19,198.481 383.856,196.481 385.5,194.5 Z"/></g>
<g><path style="opacity:0.754" fill="#fe7568" d="M 323.5,201.5 C 326.367,202.687 328.7,204.687 330.5,207.5C 328.828,209.671 326.995,211.671 325,213.5C 322.369,212.037 320.202,210.037 318.5,207.5C 320.19,205.481 321.856,203.481 323.5,201.5 Z"/></g>
<g><path style="opacity:0.747" fill="#fe7568" d="M 365.5,203.5 C 374.905,206.265 375.571,210.265 367.5,215.5C 365.167,213.833 363.167,211.833 361.5,209.5C 362.859,207.482 364.193,205.482 365.5,203.5 Z"/></g>
<g><path style="opacity:0.921" fill="#fe7568" d="M 473.5,224.5 C 488.663,226.825 493.496,235.158 488,249.5C 479.333,258.833 470.667,258.833 462,249.5C 456.721,236.804 460.554,228.471 473.5,224.5 Z"/></g>
<g><path style="opacity:0.75" fill="#fe7568" d="M 360.5,225.5 C 363.412,227.066 366.079,229.066 368.5,231.5C 364.535,239.13 360.535,239.296 356.5,232C 358.07,229.941 359.403,227.774 360.5,225.5 Z"/></g>
<g><path style="opacity:0.951" fill="#fe7568" d="M 429.5,309.5 C 424.833,309.5 420.167,309.5 415.5,309.5C 399.792,301.713 395.625,289.713 403,273.5C 412.091,262.836 422.924,260.669 435.5,267C 446.164,276.091 448.331,286.924 442,299.5C 438.809,304.163 434.642,307.497 429.5,309.5 Z"/></g>
<g><path style="opacity:0.878" fill="#fe7568" d="M 473.5,284.5 C 484.041,283.539 488.541,288.205 487,298.5C 481.408,305.987 475.408,306.32 469,299.5C 466.781,293.328 468.281,288.328 473.5,284.5 Z"/></g>
</svg>
