<?xml version="1.0" encoding="UTF-8"?>
<!DOCTYPE svg PUBLIC "-//W3C//DTD SVG 1.1//EN" "http://www.w3.org/Graphics/SVG/1.1/DTD/svg11.dtd">
<svg xmlns="http://www.w3.org/2000/svg" version="1.1" width="77px" height="65px" style="shape-rendering:geometricPrecision; text-rendering:geometricPrecision; image-rendering:optimizeQuality; fill-rule:evenodd; clip-rule:evenodd" xmlns:xlink="http://www.w3.org/1999/xlink">
<g><path style="opacity:0.779" fill="#fe7568" d="M 14.5,-0.5 C 15.5,-0.5 16.5,-0.5 17.5,-0.5C 23.7263,5.78456 27.7263,13.2846 29.5,22C 26.8331,34.6671 19.4998,38.3337 7.5,33C 2.34633,27.656 1.17966,21.4893 4,14.5C 7.01731,9.12108 10.5173,4.12108 14.5,-0.5 Z M 15.5,5.5 C 20.3908,9.91011 23.3908,15.4101 24.5,22C 22.9102,30.1288 18.2436,32.4621 10.5,29C 7.57154,25.7428 6.73821,21.9094 8,17.5C 10.2606,13.3037 12.7606,9.30374 15.5,5.5 Z"/></g>
<g><path style="opacity:0.784" fill="#fe7568" d="M 76.5,38.5 C 76.5,44.1667 76.5,49.8333 76.5,55.5C 73.4916,58.1396 70.8249,61.1396 68.5,64.5C 65.5,64.5 62.5,64.5 59.5,64.5C 54.3399,60.1955 53.5066,55.1955 57,49.5C 62.7601,45.0375 67.7601,45.7042 72,51.5C 72.498,48.5184 72.6646,45.5184 72.5,42.5C 62.1613,42.6665 51.828,42.4998 41.5,42C 37.6667,39.5 34.5,36.3333 32,32.5C 31.1458,30.3927 31.8125,29.0593 34,28.5C 36.7669,31.2669 39.6003,34.1003 42.5,37C 51.5771,37.39 60.5771,37.7233 69.5,38C 64.4566,33.2879 59.1233,28.9546 53.5,25C 46.5789,23.7811 39.5789,23.1145 32.5,23C 31.273,21.4126 31.6063,20.0793 33.5,19C 41.3312,17.9682 48.9978,18.6349 56.5,21C 63.6306,26.2969 70.2973,32.1302 76.5,38.5 Z M 61.5,51.5 C 67.487,50.9773 69.487,53.4773 67.5,59C 63.3006,61.4011 60.6339,60.2344 59.5,55.5C 59.7517,53.9271 60.4183,52.5938 61.5,51.5 Z"/></g>
<g><path style="opacity:0.727" fill="#fe7568" d="M 18.5,19.5 C 23.4108,20.8761 23.7441,23.3761 19.5,27C 17.8333,27.6667 16.1667,27.6667 14.5,27C 13.5494,26.2825 13.3828,25.4491 14,24.5C 16.3913,23.61 17.8913,21.9433 18.5,19.5 Z"/></g>
<g><path style="opacity:0.811" fill="#fe7568" d="M 34.5,64.5 C 31.8333,64.5 29.1667,64.5 26.5,64.5C 17.5721,57.8778 14.9055,49.0445 18.5,38C 19.4491,37.3828 20.2825,37.5494 21,38.5C 21.3333,42.8333 21.6667,47.1667 22,51.5C 25.5099,46.5533 30.0099,45.3866 35.5,48C 37.607,49.2635 38.607,51.0968 38.5,53.5C 42.5138,53.3345 46.5138,53.5012 50.5,54C 51.5171,55.0495 51.6838,56.2161 51,57.5C 46.8794,58.1388 42.7127,58.8055 38.5,59.5C 37.1431,61.1856 35.8098,62.8523 34.5,64.5 Z M 27.5,51.5 C 33.487,50.9773 35.487,53.4773 33.5,59C 29.3006,61.4011 26.6339,60.2344 25.5,55.5C 25.7517,53.9271 26.4183,52.5938 27.5,51.5 Z"/></g>
<g><path style="opacity:0.699" fill="#fe7568" d="M 29.5,37.5 C 32.5187,37.9723 33.5187,39.4723 32.5,42C 28.7796,43.392 26.7796,42.2253 26.5,38.5C 27.791,38.7373 28.791,38.404 29.5,37.5 Z"/></g>
<g><path style="opacity:0.71" fill="#fe7568" d="M -0.5,46.5 C -0.5,45.5 -0.5,44.5 -0.5,43.5C 3.74709,42.3982 8.08043,42.2316 12.5,43C 13.9255,44.7141 13.5922,46.0475 11.5,47C 7.41258,47.7625 3.41258,47.5958 -0.5,46.5 Z"/></g>
<g><path style="opacity:0.762" fill="#fe7568" d="M 4.5,49.5 C 7.1873,49.3359 9.85397,49.5026 12.5,50C 13.8333,51 13.8333,52 12.5,53C 9.85397,53.4974 7.1873,53.6641 4.5,53.5C 4.5,52.1667 4.5,50.8333 4.5,49.5 Z"/></g>
<g><path style="opacity:0.603" fill="#fe7568" d="M 28.5,53.5 C 32.9612,54.0483 33.4612,55.715 30,58.5C 27.676,57.2247 27.176,55.558 28.5,53.5 Z"/></g>
<g><path style="opacity:0.576" fill="#fe7568" d="M 62.5,53.5 C 66.9612,54.0483 67.4612,55.715 64,58.5C 61.4911,57.347 60.9911,55.6803 62.5,53.5 Z"/></g>
</svg>
