<?xml version="1.0" encoding="UTF-8"?>
<!DOCTYPE svg PUBLIC "-//W3C//DTD SVG 1.1//EN" "http://www.w3.org/Graphics/SVG/1.1/DTD/svg11.dtd">
<svg xmlns="http://www.w3.org/2000/svg" version="1.1" width="590px" height="600px" style="shape-rendering:geometricPrecision; text-rendering:geometricPrecision; image-rendering:optimizeQuality; fill-rule:evenodd; clip-rule:evenodd" xmlns:xlink="http://www.w3.org/1999/xlink">
<g><path style="opacity:0.988" fill="#fc7469" d="M 106.5,40.5 C 106.062,40.4346 105.728,40.6012 105.5,41C 106.701,41.9025 107.535,43.0692 108,44.5C 108.5,62.8303 108.667,81.1636 108.5,99.5C 110.5,99.5 112.5,99.5 114.5,99.5C 232.834,115.917 351.168,132.417 469.5,149C 472.106,149.792 474.106,151.292 475.5,153.5C 476.072,155.255 476.906,156.922 478,158.5C 478.667,201.5 478.667,244.5 478,287.5C 472.85,316.65 455.683,333.817 426.5,339C 327.167,339.667 227.833,339.667 128.5,339C 121.462,337.877 114.962,335.377 109,331.5C 108.333,346.5 108.333,361.5 109,376.5C 110.869,384.612 115.369,390.612 122.5,394.5C 126.494,396.887 130.828,398.387 135.5,399C 212.833,399.667 290.167,399.667 367.5,399C 397.203,363.203 435.203,348.87 481.5,356C 504.18,360.169 523.513,370.336 539.5,386.5C 578.55,428.825 585.05,475.825 559,527.5C 528.221,573.772 485.388,591.605 430.5,581C 416.385,576.94 403.385,570.774 391.5,562.5C 390.415,560.413 388.749,559.08 386.5,558.5C 358.334,535.737 344.334,506.071 344.5,469.5C 344.207,456.888 345.873,444.555 349.5,432.5C 350.906,432.027 351.573,431.027 351.5,429.5C 352.043,429.44 352.376,429.107 352.5,428.5C 311.335,427.169 270.335,427.169 229.5,428.5C 243.376,457.066 238.376,481.899 214.5,503C 192.943,517.224 170.943,518.057 148.5,505.5C 128.043,491.23 119.543,471.564 123,446.5C 124.345,440.962 126.179,435.629 128.5,430.5C 130.332,429.86 130.665,428.86 129.5,427.5C 122.206,426.018 115.206,423.685 108.5,420.5C 107.738,418.738 106.404,417.738 104.5,417.5C 90.2222,407.63 82.0556,393.964 80,376.5C 79.5,271.167 79.3333,165.834 79.5,60.5C 80.6921,59.4341 80.3588,58.6008 78.5,58C 55.697,48.7634 33.0303,39.2634 10.5,29.5C 3.27447,25.6957 0.774468,19.6957 3,11.5C 7.06364,3.39006 13.5636,0.556728 22.5,3C 47.1667,13.3333 71.8333,23.6667 96.5,34C 100.411,35.4442 103.744,37.6109 106.5,40.5 Z M 449.5,178.5 C 449.667,214.502 449.5,250.502 449,286.5C 445.906,298.594 438.406,306.427 426.5,310C 328.5,310.667 230.5,310.667 132.5,310C 128.603,308.981 124.936,307.481 121.5,305.5C 118.833,301.499 116.666,297.166 115,292.5C 114.167,239.164 114.333,185.83 115.5,132.5C 226.759,148.299 338.092,163.632 449.5,178.5 Z M 199.5,436.5 C 212.784,453.598 210.784,468.765 193.5,482C 183.485,486.977 173.819,486.477 164.5,480.5C 152.885,465.194 154.218,451.028 168.5,438C 178.578,431.39 188.912,430.89 199.5,436.5 Z"/></g>
<g><path style="opacity:0.671" fill="#fff7f6" d="M 10.5,29.5 C 33.0303,39.2634 55.697,48.7634 78.5,58C 80.3588,58.6008 80.6921,59.4341 79.5,60.5C 57.2523,52.0256 35.2523,42.859 13.5,33C 12.2899,31.9609 11.2899,30.7942 10.5,29.5 Z"/></g>
<g><path style="opacity:0.82" fill="#fffcfc" d="M 106.5,40.5 C 110.953,42.7128 113.453,46.3795 114,51.5C 114.5,67.4965 114.667,83.4965 114.5,99.5C 112.5,99.5 110.5,99.5 108.5,99.5C 108.667,81.1636 108.5,62.8303 108,44.5C 107.535,43.0692 106.701,41.9025 105.5,41C 105.728,40.6012 106.062,40.4346 106.5,40.5 Z"/></g>
<g><path style="opacity:0.839" fill="#fffbfb" d="M 449.5,178.5 C 338.092,163.632 226.759,148.299 115.5,132.5C 114.333,185.83 114.167,239.164 115,292.5C 116.666,297.166 118.833,301.499 121.5,305.5C 114.856,301.334 110.689,295.334 109,287.5C 108.5,234.501 108.333,181.501 108.5,128.5C 222.496,143.893 336.496,159.227 450.5,174.5C 450.768,176.099 450.434,177.432 449.5,178.5 Z"/></g>
<g><path style="opacity:0.857" fill="#fffcfc" d="M 475.5,153.5 C 479.176,155.011 481.676,157.677 483,161.5C 483.667,206.167 483.667,250.833 483,295.5C 476.006,324.827 457.506,340.994 427.5,344C 332.167,344.667 236.833,344.667 141.5,344C 132.366,343.673 123.699,341.507 115.5,337.5C 114.334,351.822 114.167,366.155 115,380.5C 116.206,385.916 118.706,390.582 122.5,394.5C 115.369,390.612 110.869,384.612 109,376.5C 108.333,361.5 108.333,346.5 109,331.5C 114.962,335.377 121.462,337.877 128.5,339C 227.833,339.667 327.167,339.667 426.5,339C 455.683,333.817 472.85,316.65 478,287.5C 478.667,244.5 478.667,201.5 478,158.5C 476.906,156.922 476.072,155.255 475.5,153.5 Z"/></g>
<g><path style="opacity:0.894" fill="#fffcfc" d="M 539.5,386.5 C 557.311,400.514 569.477,418.514 576,440.5C 588.711,490.691 575.544,532.525 536.5,566C 504.684,589.216 469.684,595.549 431.5,585C 416.45,580.315 403.117,572.815 391.5,562.5C 403.385,570.774 416.385,576.94 430.5,581C 485.388,591.605 528.221,573.772 559,527.5C 585.05,475.825 578.55,428.825 539.5,386.5 Z"/></g>
<g><path style="opacity:0.898" fill="#ffdad7" d="M 104.5,417.5 C 106.404,417.738 107.738,418.738 108.5,420.5C 106.596,420.262 105.262,419.262 104.5,417.5 Z"/></g>
<g><path style="opacity:0.702" fill="#fff6f6" d="M 108.5,420.5 C 115.206,423.685 122.206,426.018 129.5,427.5C 130.665,428.86 130.332,429.86 128.5,430.5C 120.871,428.861 114.205,425.528 108.5,420.5 Z"/></g>
<g><path style="opacity:1" fill="#ff9b94" d="M 229.5,428.5 C 270.335,427.169 311.335,427.169 352.5,428.5C 352.376,429.107 352.043,429.44 351.5,429.5C 311.003,428.501 270.337,428.168 229.5,428.5 Z"/></g>
<g><path style="opacity:0.888" fill="#fffbfb" d="M 199.5,436.5 C 188.912,430.89 178.578,431.39 168.5,438C 154.218,451.028 152.885,465.194 164.5,480.5C 157.527,477.01 153.361,471.344 152,463.5C 149.466,446.398 156.299,434.898 172.5,429C 180.993,427.509 188.993,428.843 196.5,433C 197.71,434.039 198.71,435.206 199.5,436.5 Z"/></g>
<g><path style="opacity:0.904" fill="#fffcfc" d="M 229.5,428.5 C 270.337,428.168 311.003,428.501 351.5,429.5C 351.573,431.027 350.906,432.027 349.5,432.5C 311.494,432.167 273.494,432.5 235.5,433.5C 248.492,461.708 243.492,486.208 220.5,507C 202.908,519.161 183.908,521.828 163.5,515C 157.759,512.808 152.759,509.641 148.5,505.5C 170.943,518.057 192.943,517.224 214.5,503C 238.376,481.899 243.376,457.066 229.5,428.5 Z"/></g>
<g><path style="opacity:0.957" fill="#ffa39b" d="M 386.5,558.5 C 388.749,559.08 390.415,560.413 391.5,562.5C 389.251,561.92 387.585,560.587 386.5,558.5 Z"/></g>
</svg>
