<?xml version="1.0" encoding="UTF-8"?>
<!DOCTYPE svg PUBLIC "-//W3C//DTD SVG 1.1//EN" "http://www.w3.org/Graphics/SVG/1.1/DTD/svg11.dtd">
<svg xmlns="http://www.w3.org/2000/svg" version="1.1" width="512px" height="512px" style="shape-rendering:geometricPrecision; text-rendering:geometricPrecision; image-rendering:optimizeQuality; fill-rule:evenodd; clip-rule:evenodd" xmlns:xlink="http://www.w3.org/1999/xlink">
<g><path style="opacity:0.963" fill="#fb7468" d="M 511.5,249.5 C 511.5,253.5 511.5,257.5 511.5,261.5C 468.289,317.215 415.289,361.049 352.5,393C 287.833,423 223.167,423 158.5,393C 95.7114,361.049 42.7114,317.215 -0.5,261.5C -0.5,257.5 -0.5,253.5 -0.5,249.5C 42.7114,193.785 95.7114,149.951 158.5,118C 222.345,88.3706 286.345,88.0372 350.5,117C 414.232,148.895 467.899,193.062 511.5,249.5 Z M 254.5,127.5 C 292.815,129.549 328.482,140.382 361.5,160C 404.054,185.483 441.388,217.316 473.5,255.5C 434.107,302.678 386.774,339.511 331.5,366C 291.26,384.247 249.927,387.581 207.5,376C 174.968,365.402 144.968,350.068 117.5,330C 88.1437,308.147 61.477,283.314 37.5,255.5C 76.8928,208.322 124.226,171.489 179.5,145C 203.579,134.561 228.579,128.728 254.5,127.5 Z"/></g>
<g><path style="opacity:0.987" fill="#fb7468" d="M 241.5,159.5 C 283.651,155.503 317.484,170.17 343,203.5C 345.667,208.167 348.333,212.833 351,217.5C 353.649,227.36 350.482,234.527 341.5,239C 323.481,238.995 316.981,247.495 322,264.5C 327.206,270.104 333.706,272.604 341.5,272C 350.482,276.473 353.649,283.64 351,293.5C 327.142,336.184 290.642,355.351 241.5,351C 198.862,342.696 172.029,317.529 161,275.5C 153.989,231.04 169.155,196.54 206.5,172C 217.611,165.91 229.278,161.743 241.5,159.5 Z"/></g>
</svg>
