<?xml version="1.0" encoding="UTF-8"?>
<!DOCTYPE svg PUBLIC "-//W3C//DTD SVG 1.1//EN" "http://www.w3.org/Graphics/SVG/1.1/DTD/svg11.dtd">
<svg xmlns="http://www.w3.org/2000/svg" version="1.1" width="512px" height="512px" style="shape-rendering:geometricPrecision; text-rendering:geometricPrecision; image-rendering:optimizeQuality; fill-rule:evenodd; clip-rule:evenodd" xmlns:xlink="http://www.w3.org/1999/xlink">
<g><path style="opacity:0.946" fill="#004762" d="M 511.5,201.5 C 511.5,209.5 511.5,217.5 511.5,225.5C 507.688,236.474 500.022,242.974 488.5,245C 480.507,245.5 472.507,245.666 464.5,245.5C 464.5,248.167 464.5,250.833 464.5,253.5C 473.506,253.334 482.506,253.5 491.5,254C 502,256.719 508.666,263.219 511.5,273.5C 511.5,281.5 511.5,289.5 511.5,297.5C 508.586,305.458 503.253,311.292 495.5,315C 485.232,316.399 474.898,316.899 464.5,316.5C 464.5,319.167 464.5,321.833 464.5,324.5C 472.174,324.334 479.841,324.5 487.5,325C 499.6,326.612 507.6,333.112 511.5,344.5C 511.5,352.5 511.5,360.5 511.5,368.5C 507.92,378.577 500.92,385.077 490.5,388C 481.84,388.5 473.173,388.666 464.5,388.5C 464.5,391.167 464.5,393.833 464.5,396.5C 473.173,396.334 481.84,396.5 490.5,397C 500.92,399.923 507.92,406.423 511.5,416.5C 511.5,424.5 511.5,432.5 511.5,440.5C 507.6,451.888 499.6,458.388 487.5,460C 479.841,460.5 472.174,460.666 464.5,460.5C 464.935,468.611 464.435,476.611 463,484.5C 462.25,485.126 461.416,485.626 460.5,486C 450.167,486.667 439.833,486.667 429.5,486C 428.584,485.626 427.75,485.126 427,484.5C 425.565,476.611 425.065,468.611 425.5,460.5C 420.5,460.5 415.5,460.5 410.5,460.5C 410.691,465.899 410.191,471.233 409,476.5C 407.167,481 404,484.167 399.5,486C 388.167,486.667 376.833,486.667 365.5,486C 361,484.167 357.833,481 356,476.5C 355.5,465.839 355.333,455.172 355.5,444.5C 288.833,444.5 222.167,444.5 155.5,444.5C 155.667,455.172 155.5,465.839 155,476.5C 153.167,481 150,484.167 145.5,486C 134.167,486.667 122.833,486.667 111.5,486C 107,484.167 103.833,481 102,476.5C 100.809,471.233 100.309,465.899 100.5,460.5C 95.5,460.5 90.5,460.5 85.5,460.5C 85.9352,468.611 85.4352,476.611 84,484.5C 83.2496,485.126 82.4162,485.626 81.5,486C 71.1667,486.667 60.8333,486.667 50.5,486C 49.5838,485.626 48.7504,485.126 48,484.5C 46.5648,476.611 46.0648,468.611 46.5,460.5C 38.8261,460.666 31.1594,460.5 23.5,460C 11.3998,458.388 3.39979,451.888 -0.5,440.5C -0.5,432.5 -0.5,424.5 -0.5,416.5C 3.0805,406.423 10.0805,399.923 20.5,397C 29.1603,396.5 37.8269,396.334 46.5,396.5C 46.5,393.833 46.5,391.167 46.5,388.5C 37.8269,388.666 29.1603,388.5 20.5,388C 10.0805,385.077 3.0805,378.577 -0.5,368.5C -0.5,360.5 -0.5,352.5 -0.5,344.5C 3.39979,333.112 11.3998,326.612 23.5,325C 31.1594,324.5 38.8261,324.334 46.5,324.5C 46.5,321.833 46.5,319.167 46.5,316.5C 36.1017,316.899 25.7683,316.399 15.5,315C 7.74725,311.292 2.41391,305.458 -0.5,297.5C -0.5,289.5 -0.5,281.5 -0.5,273.5C 2.33378,263.219 9.00044,256.719 19.5,254C 28.4938,253.5 37.4938,253.334 46.5,253.5C 46.5,250.833 46.5,248.167 46.5,245.5C 38.4931,245.666 30.4931,245.5 22.5,245C 10.9782,242.974 3.31152,236.474 -0.5,225.5C -0.5,217.5 -0.5,209.5 -0.5,201.5C 3.19164,190.979 10.525,184.479 21.5,182C 29.8267,181.5 38.16,181.334 46.5,181.5C 46.3338,175.158 46.5005,168.825 47,162.5C 48.3929,159.634 50.7262,158.301 54,158.5C 57.2738,158.301 59.6071,159.634 61,162.5C 61.4995,168.825 61.6662,175.158 61.5,181.5C 64.1667,181.5 66.8333,181.5 69.5,181.5C 69.5,159.833 69.5,138.167 69.5,116.5C 66.8333,116.5 64.1667,116.5 61.5,116.5C 61.9381,124.943 61.4381,133.277 60,141.5C 56.284,143.934 52.4507,144.101 48.5,142C 47.8742,141.25 47.3742,140.416 47,139.5C 46.6667,130.833 46.3333,122.167 46,113.5C 39.4973,109.496 35.1639,103.829 33,96.5C 32.3333,79.8333 32.3333,63.1667 33,46.5C 34.8333,40.6667 38.6667,36.8333 44.5,35C 58.8333,34.3333 73.1667,34.3333 87.5,35C 92.9655,36.6325 96.6321,40.1325 98.5,45.5C 120.833,46.8333 143.167,46.8333 165.5,45.5C 172.55,27.0594 185.884,20.2261 205.5,25C 215.701,28.368 222.368,35.2014 225.5,45.5C 229.045,46.7914 232.545,46.7914 236,45.5C 240.246,30.3706 250.246,23.3706 266,24.5C 281.975,23.7262 291.808,31.0595 295.5,46.5C 334.506,46.8332 373.506,46.4999 412.5,45.5C 414.368,40.1325 418.035,36.6325 423.5,35C 437.833,34.3333 452.167,34.3333 466.5,35C 472.333,36.8333 476.167,40.6667 478,46.5C 478.667,63.1667 478.667,79.8333 478,96.5C 475.836,103.829 471.503,109.496 465,113.5C 464.5,136.164 464.333,158.831 464.5,181.5C 472.84,181.334 481.173,181.5 489.5,182C 500.475,184.479 507.808,190.979 511.5,201.5 Z M 192.5,39.5 C 198.99,38.9496 204.324,41.1162 208.5,46C 199.833,46.6667 191.167,46.6667 182.5,46C 185.126,42.5335 188.46,40.3669 192.5,39.5 Z M 263.5,39.5 C 267.622,39.6969 271.622,40.5302 275.5,42C 276.743,43.1545 277.743,44.4878 278.5,46C 269.833,46.6667 261.167,46.6667 252.5,46C 255.368,42.241 259.035,40.0744 263.5,39.5 Z M 50.5,49.5 C 61.2186,49.1899 71.8853,49.5232 82.5,50.5C 83.6661,64.4881 83.8328,78.4881 83,92.5C 81.8333,96.3333 79.3333,98.8333 75.5,100C 52.0074,104.839 43.0074,95.5059 48.5,72C 48.5344,64.2654 49.201,56.7654 50.5,49.5 Z M 429.5,49.5 C 440.219,49.1899 450.885,49.5232 461.5,50.5C 462.666,64.8217 462.833,79.1551 462,93.5C 458.021,99.6491 452.355,101.982 445,100.5C 437.175,102.085 431.508,99.4181 428,92.5C 427.833,85.5 427.667,78.5 427.5,71.5C 427.535,63.9315 428.202,56.5982 429.5,49.5 Z M 99.5,62.5 C 136.5,62.5 173.5,62.5 210.5,62.5C 210.5,65.8333 210.5,69.1667 210.5,72.5C 173.5,72.5 136.5,72.5 99.5,72.5C 99.5,69.1667 99.5,65.8333 99.5,62.5 Z M 225.5,62.5 C 228.833,62.5 232.167,62.5 235.5,62.5C 235.5,65.8333 235.5,69.1667 235.5,72.5C 232.167,72.5 228.833,72.5 225.5,72.5C 225.5,69.1667 225.5,65.8333 225.5,62.5 Z M 251.5,62.5 C 304.833,62.5 358.167,62.5 411.5,62.5C 411.5,65.8333 411.5,69.1667 411.5,72.5C 399.829,72.3335 388.162,72.5001 376.5,73C 369.599,78.4201 369.933,83.4201 377.5,88C 388.828,88.4999 400.162,88.6665 411.5,88.5C 411.289,99.4128 415.789,107.746 425,113.5C 425.5,136.164 425.667,158.831 425.5,181.5C 388.293,176.204 373.126,191.87 380,228.5C 384.505,238.01 392.005,243.51 402.5,245C 410.159,245.5 417.826,245.666 425.5,245.5C 425.5,248.167 425.5,250.833 425.5,253.5C 416.494,253.334 407.494,253.5 398.5,254C 384.247,258.668 377.58,268.502 378.5,283.5C 372.57,284.197 367.403,286.53 363,290.5C 357.473,278.918 352.14,267.251 347,255.5C 343.726,250.226 339.226,246.392 333.5,244C 314.202,242.872 294.869,242.372 275.5,242.5C 258.167,242.667 240.833,242.833 223.5,243C 215.933,247.58 215.599,252.58 222.5,258C 257.5,258.333 292.5,258.667 327.5,259C 331.346,261.341 334.012,264.675 335.5,269C 282.167,269.667 228.833,269.667 175.5,269C 177.004,265.656 179.004,262.656 181.5,260C 187.056,258.761 192.722,258.094 198.5,258C 205.401,252.58 205.067,247.58 197.5,243C 188.369,241.601 179.702,242.935 171.5,247C 169.667,248.833 167.833,250.667 166,252.5C 159.621,264.961 153.621,277.627 148,290.5C 143.597,286.53 138.43,284.197 132.5,283.5C 133.42,268.502 126.753,258.668 112.5,254C 103.506,253.5 94.5062,253.334 85.5,253.5C 85.5,250.833 85.5,248.167 85.5,245.5C 126.862,249.404 141.028,231.737 128,192.5C 123.409,186.905 117.576,183.405 110.5,182C 102.173,181.5 93.84,181.334 85.5,181.5C 85.3334,158.831 85.5,136.164 86,113.5C 95.2112,107.746 99.7112,99.4128 99.5,88.5C 136.5,88.5 173.5,88.5 210.5,88.5C 210.5,91.1667 210.5,93.8333 210.5,96.5C 188.36,94.8015 178.86,104.802 182,126.5C 185.502,134 191.336,138.5 199.5,140C 218.167,140.167 236.833,140.333 255.5,140.5C 275.549,140.643 295.549,140.143 315.5,139C 329.552,131.32 333.052,120.153 326,105.5C 322.908,101.072 318.741,98.2388 313.5,97C 292.836,96.5 272.169,96.3334 251.5,96.5C 251.5,93.8333 251.5,91.1667 251.5,88.5C 284.835,88.6667 318.168,88.5 351.5,88C 359.067,83.4201 359.401,78.4201 352.5,73C 318.835,72.5 285.168,72.3333 251.5,72.5C 251.5,69.1667 251.5,65.8333 251.5,62.5 Z M 225.5,88.5 C 228.833,88.5 232.167,88.5 235.5,88.5C 235.5,91.1667 235.5,93.8333 235.5,96.5C 232.167,96.5 228.833,96.5 225.5,96.5C 225.5,93.8333 225.5,91.1667 225.5,88.5 Z M 200.5,112.5 C 237.168,112.333 273.835,112.5 310.5,113C 314.619,117.073 314.285,120.74 309.5,124C 273.5,124.667 237.5,124.667 201.5,124C 195.366,120.494 195.033,116.66 200.5,112.5 Z M 441.5,116.5 C 444.167,116.5 446.833,116.5 449.5,116.5C 449.5,138.167 449.5,159.833 449.5,181.5C 446.833,181.5 444.167,181.5 441.5,181.5C 441.5,159.833 441.5,138.167 441.5,116.5 Z M 24.5,197.5 C 52.1687,197.333 79.8353,197.5 107.5,198C 111.499,198.668 114.332,200.835 116,204.5C 116.667,210.5 116.667,216.5 116,222.5C 114.132,226.521 110.965,228.687 106.5,229C 79.1667,229.667 51.8333,229.667 24.5,229C 17.1751,226.311 13.8418,220.978 14.5,213C 13.9927,205.147 17.326,199.98 24.5,197.5 Z M 403.5,197.5 C 431.169,197.333 458.835,197.5 486.5,198C 493.794,200.231 497.127,205.231 496.5,213C 497.158,220.978 493.825,226.311 486.5,229C 457.785,229.967 429.118,229.634 400.5,228C 398,226.833 396.167,225 395,222.5C 394.333,216.5 394.333,210.5 395,204.5C 396.851,200.843 399.684,198.51 403.5,197.5 Z M 61.5,245.5 C 64.1667,245.5 66.8333,245.5 69.5,245.5C 69.5,248.167 69.5,250.833 69.5,253.5C 66.8333,253.5 64.1667,253.5 61.5,253.5C 61.5,250.833 61.5,248.167 61.5,245.5 Z M 441.5,245.5 C 444.167,245.5 446.833,245.5 449.5,245.5C 449.5,248.167 449.5,250.833 449.5,253.5C 446.833,253.5 444.167,253.5 441.5,253.5C 441.5,250.833 441.5,248.167 441.5,245.5 Z M 22.5,269.5 C 51.5019,269.333 80.5019,269.5 109.5,270C 114.827,272.487 117.16,276.653 116.5,282.5C 109.107,281.859 102.107,283.025 95.5,286C 91.1555,289.876 89.4888,294.709 90.5,300.5C 67.4976,300.667 44.4976,300.5 21.5,300C 16.2414,296.508 13.9081,291.508 14.5,285C 13.7214,277.881 16.3881,272.714 22.5,269.5 Z M 401.5,269.5 C 430.502,269.333 459.502,269.5 488.5,270C 494.662,273.009 497.328,278.009 496.5,285C 497.092,291.508 494.759,296.508 489.5,300C 466.502,300.5 443.502,300.667 420.5,300.5C 421.435,293.204 418.768,287.704 412.5,284C 406.555,282.838 400.555,282.338 394.5,282.5C 393.968,276.56 396.302,272.227 401.5,269.5 Z M 167.5,285.5 C 226.17,285.167 284.837,285.5 343.5,286.5C 349.547,300.145 355.881,313.645 362.5,327C 291.167,327.667 219.833,327.667 148.5,327C 155.319,313.371 161.652,299.537 167.5,285.5 Z M 106.5,298.5 C 115.226,298.161 123.893,298.661 132.5,300C 135.362,300.93 137.695,302.597 139.5,305C 129.833,305.667 120.167,305.667 110.5,305C 107.778,303.728 106.444,301.561 106.5,298.5 Z M 383.5,298.5 C 390.5,298.5 397.5,298.5 404.5,298.5C 404.556,301.561 403.222,303.728 400.5,305C 390.833,305.667 381.167,305.667 371.5,305C 374.886,301.477 378.886,299.31 383.5,298.5 Z M 61.5,316.5 C 64.1667,316.5 66.8333,316.5 69.5,316.5C 69.5,319.167 69.5,321.833 69.5,324.5C 66.8333,324.5 64.1667,324.5 61.5,324.5C 61.5,321.833 61.5,319.167 61.5,316.5 Z M 85.5,316.5 C 89.8461,316.334 94.1794,316.501 98.5,317C 101.382,318.608 104.382,319.941 107.5,321C 116.167,321.333 124.833,321.667 133.5,322C 132.5,323.667 131.5,325.333 130.5,327C 127.318,327.407 124.151,327.907 121,328.5C 117.048,326.61 112.882,325.443 108.5,325C 100.841,324.5 93.1739,324.334 85.5,324.5C 85.5,321.833 85.5,319.167 85.5,316.5 Z M 412.5,316.5 C 416.833,316.5 421.167,316.5 425.5,316.5C 425.5,319.167 425.5,321.833 425.5,324.5C 417.826,324.334 410.159,324.5 402.5,325C 398.118,325.443 393.952,326.61 390,328.5C 386.849,327.907 383.682,327.407 380.5,327C 379.5,325.333 378.5,323.667 377.5,322C 386.167,321.667 394.833,321.333 403.5,321C 406.84,319.997 409.84,318.497 412.5,316.5 Z M 441.5,316.5 C 444.167,316.5 446.833,316.5 449.5,316.5C 449.5,319.167 449.5,321.833 449.5,324.5C 446.833,324.5 444.167,324.5 441.5,324.5C 441.5,321.833 441.5,319.167 441.5,316.5 Z M 25.5,340.5 C 51.5021,340.333 77.5021,340.5 103.5,341C 100.782,345.604 98.4487,350.437 96.5,355.5C 91.3512,359.94 89.3512,365.607 90.5,372.5C 67.101,372.969 43.7677,372.469 20.5,371C 15.3462,365.897 13.5128,359.73 15,352.5C 15.5554,345.785 19.0554,341.785 25.5,340.5 Z M 407.5,341.5 C 433.33,340.337 459.33,340.17 485.5,341C 489.617,341.806 492.784,343.973 495,347.5C 497.242,354.316 496.908,360.983 494,367.5C 492.833,368.667 491.667,369.833 490.5,371C 467.232,372.469 443.899,372.969 420.5,372.5C 421.649,365.607 419.649,359.94 414.5,355.5C 412.648,350.462 410.315,345.796 407.5,341.5 Z M 125.5,343.5 C 212.167,343.333 298.834,343.5 385.5,344C 389.644,345.985 392.977,348.818 395.5,352.5C 302.167,353.833 208.833,353.833 115.5,352.5C 118.205,348.795 121.538,345.795 125.5,343.5 Z M 106.5,369.5 C 128.167,369.5 149.833,369.5 171.5,369.5C 172.039,380.522 177.373,388.022 187.5,392C 232.833,392.667 278.167,392.667 323.5,392C 333.627,388.022 338.961,380.522 339.5,369.5C 361.167,369.5 382.833,369.5 404.5,369.5C 404.5,371.833 404.5,374.167 404.5,376.5C 391.448,376.099 378.448,376.599 365.5,378C 359.181,382.034 356.514,387.868 357.5,395.5C 356.514,403.132 359.181,408.966 365.5,413C 378.439,414.422 391.439,414.922 404.5,414.5C 404.665,418.182 404.499,421.848 404,425.5C 403.5,426.667 402.667,427.5 401.5,428C 380.836,428.5 360.169,428.667 339.5,428.5C 340.209,422.108 339.043,416.108 336,410.5C 334.269,408.383 332.102,406.883 329.5,406C 280.167,405.333 230.833,405.333 181.5,406C 177.333,407.5 174.5,410.333 173,414.5C 171.691,419.066 171.191,423.733 171.5,428.5C 150.831,428.667 130.164,428.5 109.5,428C 108.333,427.5 107.5,426.667 107,425.5C 106.501,421.848 106.335,418.182 106.5,414.5C 119.561,414.922 132.561,414.422 145.5,413C 151.819,408.966 154.486,403.132 153.5,395.5C 154.486,387.868 151.819,382.034 145.5,378C 132.552,376.599 119.552,376.099 106.5,376.5C 106.5,374.167 106.5,371.833 106.5,369.5 Z M 187.5,369.5 C 232.838,369.167 278.172,369.5 323.5,370.5C 322.766,372.815 321.432,374.648 319.5,376C 276.833,376.667 234.167,376.667 191.5,376C 189.281,374.399 187.948,372.233 187.5,369.5 Z M 61.5,388.5 C 64.1667,388.5 66.8333,388.5 69.5,388.5C 69.5,391.167 69.5,393.833 69.5,396.5C 66.8333,396.5 64.1667,396.5 61.5,396.5C 61.5,393.833 61.5,391.167 61.5,388.5 Z M 85.5,388.5 C 87.1667,388.5 88.8333,388.5 90.5,388.5C 90.5,391.167 90.5,393.833 90.5,396.5C 88.8333,396.5 87.1667,396.5 85.5,396.5C 85.5,393.833 85.5,391.167 85.5,388.5 Z M 420.5,388.5 C 422.167,388.5 423.833,388.5 425.5,388.5C 425.5,391.167 425.5,393.833 425.5,396.5C 423.833,396.5 422.167,396.5 420.5,396.5C 420.5,393.833 420.5,391.167 420.5,388.5 Z M 441.5,388.5 C 444.167,388.5 446.833,388.5 449.5,388.5C 449.5,391.167 449.5,393.833 449.5,396.5C 446.833,396.5 444.167,396.5 441.5,396.5C 441.5,393.833 441.5,391.167 441.5,388.5 Z M 106.5,392.5 C 116.833,392.5 127.167,392.5 137.5,392.5C 137.5,394.5 137.5,396.5 137.5,398.5C 127.167,398.5 116.833,398.5 106.5,398.5C 106.5,396.5 106.5,394.5 106.5,392.5 Z M 373.5,392.5 C 383.833,392.5 394.167,392.5 404.5,392.5C 404.5,394.5 404.5,396.5 404.5,398.5C 394.167,398.5 383.833,398.5 373.5,398.5C 373.5,396.5 373.5,394.5 373.5,392.5 Z M 23.5,412.5 C 45.8333,412.5 68.1667,412.5 90.5,412.5C 90.1827,418.909 90.6827,425.243 92,431.5C 93.9372,435.435 96.6039,438.768 100,441.5C 100.483,442.448 100.649,443.448 100.5,444.5C 74.1155,444.964 47.7821,444.464 21.5,443C 16.2414,439.508 13.9081,434.508 14.5,428C 14.083,420.646 17.083,415.48 23.5,412.5 Z M 420.5,412.5 C 443.899,412.031 467.232,412.531 490.5,414C 493.754,416.342 495.588,419.509 496,423.5C 497.127,429.864 495.961,435.698 492.5,441C 490.51,442.751 488.177,443.751 485.5,444C 460.502,444.5 435.502,444.667 410.5,444.5C 410.351,443.448 410.517,442.448 411,441.5C 414.396,438.768 417.063,435.435 419,431.5C 420.317,425.243 420.817,418.909 420.5,412.5 Z M 187.5,420.5 C 232.833,420.5 278.167,420.5 323.5,420.5C 323.5,423.167 323.5,425.833 323.5,428.5C 278.167,428.5 232.833,428.5 187.5,428.5C 187.5,425.833 187.5,423.167 187.5,420.5 Z M 116.5,444.5 C 124.167,444.5 131.833,444.5 139.5,444.5C 139.5,453.167 139.5,461.833 139.5,470.5C 131.833,470.5 124.167,470.5 116.5,470.5C 116.5,461.833 116.5,453.167 116.5,444.5 Z M 371.5,444.5 C 379.167,444.5 386.833,444.5 394.5,444.5C 394.5,453.167 394.5,461.833 394.5,470.5C 386.833,470.5 379.167,470.5 371.5,470.5C 371.5,461.833 371.5,453.167 371.5,444.5 Z M 61.5,460.5 C 64.1667,460.5 66.8333,460.5 69.5,460.5C 69.5,463.833 69.5,467.167 69.5,470.5C 66.8333,470.5 64.1667,470.5 61.5,470.5C 61.5,467.167 61.5,463.833 61.5,460.5 Z M 441.5,460.5 C 444.167,460.5 446.833,460.5 449.5,460.5C 449.5,463.833 449.5,467.167 449.5,470.5C 446.833,470.5 444.167,470.5 441.5,470.5C 441.5,467.167 441.5,463.833 441.5,460.5 Z"/></g>
<g><path style="opacity:0.891" fill="#004762" d="M 222.5,146.5 C 232.033,146.241 235.199,150.574 232,159.5C 227.167,164.333 222.333,169.167 217.5,174C 210.574,176.575 206.24,174.242 204.5,167C 209.264,159.07 215.264,152.237 222.5,146.5 Z"/></g>
<g><path style="opacity:0.906" fill="#004762" d="M 252.5,146.5 C 257.998,145.99 261.498,148.323 263,153.5C 263.667,160.167 263.667,166.833 263,173.5C 259.445,181.411 254.445,182.411 248,176.5C 247.333,167.833 247.333,159.167 248,150.5C 249.397,148.93 250.897,147.596 252.5,146.5 Z"/></g>
<g><path style="opacity:0.891" fill="#004762" d="M 282.5,146.5 C 285.32,146.248 287.986,146.748 290.5,148C 296.975,153.466 302.308,159.799 306.5,167C 304.76,174.242 300.426,176.575 293.5,174C 288.667,169.167 283.833,164.333 279,159.5C 276.348,154.039 277.514,149.706 282.5,146.5 Z"/></g>
<g><path style="opacity:0.857" fill="#004762" d="M 197.5,172.5 C 205.867,173.237 208.701,177.57 206,185.5C 202.392,191.232 197.559,192.732 191.5,190C 188.231,186.547 187.731,182.714 190,178.5C 192.134,175.847 194.634,173.847 197.5,172.5 Z"/></g>
<g><path style="opacity:0.858" fill="#004762" d="M 309.5,172.5 C 316.583,172.916 320.916,176.583 322.5,183.5C 321.592,189.959 317.926,192.459 311.5,191C 302.026,185.391 301.36,179.225 309.5,172.5 Z"/></g>
<g><path style="opacity:0.876" fill="#004762" d="M 252.5,183.5 C 257.998,182.99 261.498,185.323 263,190.5C 264.691,199.361 261.191,203.528 252.5,203C 250.714,202.215 249.214,201.049 248,199.5C 247.333,195.5 247.333,191.5 248,187.5C 249.397,185.93 250.897,184.596 252.5,183.5 Z"/></g>
</svg>
