<?xml version="1.0" encoding="UTF-8"?>
<!DOCTYPE svg PUBLIC "-//W3C//DTD SVG 1.1//EN" "http://www.w3.org/Graphics/SVG/1.1/DTD/svg11.dtd">
<svg xmlns="http://www.w3.org/2000/svg" version="1.1" width="512px" height="512px" style="shape-rendering:geometricPrecision; text-rendering:geometricPrecision; image-rendering:optimizeQuality; fill-rule:evenodd; clip-rule:evenodd" xmlns:xlink="http://www.w3.org/1999/xlink">
<g><path style="opacity:0.938" fill="#fb7468" d="M 251.5,-0.5 C 254.167,-0.5 256.833,-0.5 259.5,-0.5C 329.94,40.5591 400.607,81.3924 471.5,122C 473.96,123.458 476.127,125.291 478,127.5C 478.667,212.833 478.667,298.167 478,383.5C 476.127,385.709 473.96,387.542 471.5,389C 400.607,429.608 329.94,470.441 259.5,511.5C 256.833,511.5 254.167,511.5 251.5,511.5C 181.06,470.441 110.393,429.608 39.5,389C 37.04,387.542 34.8734,385.709 33,383.5C 32.3333,298.167 32.3333,212.833 33,127.5C 34.8734,125.291 37.04,123.458 39.5,122C 110.393,81.3924 181.06,40.5591 251.5,-0.5 Z M 254.5,17.5 C 320.772,54.971 386.772,92.971 452.5,131.5C 434.896,142.219 417.063,152.552 399,162.5C 333.101,124.8 267.268,86.9666 201.5,49C 219.23,38.4739 236.897,27.9739 254.5,17.5 Z M 183.5,58.5 C 249.354,96.8387 315.354,135.005 381.5,173C 363.252,183.374 345.085,193.874 327,204.5C 261.412,165.955 195.579,127.788 129.5,90C 147.727,79.7258 165.727,69.2258 183.5,58.5 Z M 110.5,100.5 C 113.691,101.092 116.691,102.259 119.5,104C 182.833,140.667 246.167,177.333 309.5,214C 291.664,224.752 273.664,235.252 255.5,245.5C 189.67,207.753 124.003,169.753 58.5,131.5C 75.8967,121.141 93.23,110.807 110.5,100.5 Z M 49.5,146.5 C 115.388,184.362 181.221,222.362 247,260.5C 247.833,336.502 247.667,412.502 246.5,488.5C 180.871,450.7 115.371,412.7 50,374.5C 49.5,298.501 49.3333,222.501 49.5,146.5 Z M 460.5,146.5 C 461.666,222.332 461.832,298.332 461,374.5C 395.629,412.7 330.129,450.7 264.5,488.5C 263.333,412.502 263.167,336.502 264,260.5C 282.418,249.707 300.918,239.04 319.5,228.5C 320.333,262.495 320.833,296.495 321,330.5C 324.771,334.788 329.271,335.621 334.5,333C 346.03,321.804 357.197,310.304 368,298.5C 379.262,301.649 390.595,304.649 402,307.5C 405.814,307.019 408.48,305.019 410,301.5C 410.167,259.496 410.667,217.496 411.5,175.5C 428.061,166.059 444.395,156.392 460.5,146.5 Z M 391.5,186.5 C 392.833,202.986 393.5,219.82 393.5,237C 393.167,253.833 392.833,270.667 392.5,287.5C 382.95,284.528 373.284,282.361 363.5,281C 354.423,288.071 345.923,295.905 338,304.5C 337.167,275.494 337.333,246.494 338.5,217.5C 356.394,207.392 374.061,197.059 391.5,186.5 Z"/></g>
<g><path style="opacity:0.917" fill="#fb7468" d="M 148.5,381.5 C 152.511,381.502 156.178,382.668 159.5,385C 180.167,397 200.833,409 221.5,421C 226.865,426.285 226.532,431.285 220.5,436C 218.167,436.667 215.833,436.667 213.5,436C 190.833,423 168.167,410 145.5,397C 140.956,390.767 141.956,385.6 148.5,381.5 Z"/></g>
</svg>
