<?xml version="1.0" encoding="UTF-8"?>
<!DOCTYPE svg PUBLIC "-//W3C//DTD SVG 1.1//EN" "http://www.w3.org/Graphics/SVG/1.1/DTD/svg11.dtd">
<svg xmlns="http://www.w3.org/2000/svg" version="1.1" width="512px" height="512px" style="shape-rendering:geometricPrecision; text-rendering:geometricPrecision; image-rendering:optimizeQuality; fill-rule:evenodd; clip-rule:evenodd" xmlns:xlink="http://www.w3.org/1999/xlink">
<g><path style="opacity:0.942" fill="#fb7468" d="M 129.5,-0.5 C 133.833,-0.5 138.167,-0.5 142.5,-0.5C 153.346,9.08837 166.013,15.255 180.5,18C 190.465,19.638 200.465,20.9713 210.5,22C 215.333,24.1667 218.833,27.6667 221,32.5C 221.667,56.8333 221.667,81.1667 221,105.5C 219.873,116.301 218.039,126.968 215.5,137.5C 240.954,132.89 265.288,136.223 288.5,147.5C 289.333,118.172 289.833,88.839 290,59.5C 293.833,46.3333 302.333,37.8333 315.5,34C 326.495,33.5002 337.495,33.3335 348.5,33.5C 346.622,17.229 352.956,5.89566 367.5,-0.5C 389.5,-0.5 411.5,-0.5 433.5,-0.5C 448.055,5.92022 454.389,17.2536 452.5,33.5C 463.505,33.3335 474.505,33.5002 485.5,34C 498.691,38.0255 507.358,46.5255 511.5,59.5C 511.5,104.833 511.5,150.167 511.5,195.5C 507.349,208.483 498.682,216.983 485.5,221C 439.167,221.333 392.833,221.667 346.5,222C 355.675,269.484 341.341,308.151 303.5,338C 298.423,341.401 293.089,344.401 287.5,347C 299.446,359.611 302.779,374.111 297.5,390.5C 301.122,391.659 304.789,391.825 308.5,391C 361.5,373.333 414.5,355.667 467.5,338C 488.944,332.554 503.611,340.054 511.5,360.5C 511.5,365.833 511.5,371.167 511.5,376.5C 508.7,385.154 503.367,391.987 495.5,397C 443.237,428.27 391.237,459.936 339.5,492C 330.033,498.045 319.7,501.712 308.5,503C 234.5,503.333 160.5,503.667 86.5,504C 82.907,507.289 78.907,509.789 74.5,511.5C 55.5,511.5 36.5,511.5 17.5,511.5C 9.16667,507.833 3.16667,501.833 -0.5,493.5C -0.5,428.833 -0.5,364.167 -0.5,299.5C 2.86383,289.308 9.86383,283.141 20.5,281C 37.8333,280.333 55.1667,280.333 72.5,281C 81.8665,283.211 88.1998,288.711 91.5,297.5C 108.906,296.113 125.739,298.446 142,304.5C 127.769,278.104 123.602,250.104 129.5,220.5C 101.647,209.821 80.8136,191.154 67,164.5C 53.28,133.972 47.78,101.972 50.5,68.5C 50.6667,56.5 50.8333,44.5 51,32.5C 53.1667,27.6667 56.6667,24.1667 61.5,22C 76.4842,21.0582 91.1508,18.3916 105.5,14C 114.362,10.4106 122.362,5.57725 129.5,-0.5 Z M 135.5,17.5 C 155.54,31.3451 177.873,38.5118 202.5,39C 203.161,49.7592 203.495,60.5926 203.5,71.5C 205.325,96.5657 201.992,120.899 193.5,144.5C 175.19,152.978 160.023,165.311 148,181.5C 143.235,188.702 138.735,196.036 134.5,203.5C 100.103,187.585 79.27,160.918 72,123.5C 70.6268,116.554 69.6268,109.554 69,102.5C 68.5,81.1693 68.3334,59.8359 68.5,38.5C 93.3545,38.8784 115.688,31.8784 135.5,17.5 Z M 371.5,17.5 C 390.836,17.3334 410.17,17.5 429.5,18C 431.815,19.1094 433.315,20.9427 434,23.5C 434.498,26.8168 434.665,30.1501 434.5,33.5C 411.833,33.5 389.167,33.5 366.5,33.5C 365.441,27.2005 367.107,21.8672 371.5,17.5 Z M 318.5,51.5 C 373.168,51.3333 427.834,51.5 482.5,52C 487.333,54.1667 490.833,57.6667 493,62.5C 493.667,105.833 493.667,149.167 493,192.5C 490.833,197.333 487.333,200.833 482.5,203C 435.163,203.833 387.83,203.667 340.5,202.5C 332.898,185.73 322.065,171.397 308,159.5C 307.333,127.167 307.333,94.8333 308,62.5C 310.357,57.6455 313.857,53.9788 318.5,51.5 Z M 393.5,85.5 C 419.111,84.2997 435.278,95.9663 442,120.5C 443.699,146.124 432.199,162.291 407.5,169C 381.876,170.699 365.709,159.199 359,134.5C 357.503,108.854 369.003,92.521 393.5,85.5 Z M 229.5,153.5 C 272.98,152.311 304.48,170.978 324,209.5C 339.834,253.302 330.334,290.469 295.5,321C 287.196,326.737 278.363,331.57 269,335.5C 264.402,333.476 259.569,332.309 254.5,332C 207.425,343.37 173.592,327.537 153,284.5C 137.604,242.925 145.77,206.759 177.5,176C 192.817,163.731 210.15,156.231 229.5,153.5 Z M 23.5,298.5 C 38.837,298.333 54.1703,298.5 69.5,299C 72.0573,299.685 73.8906,301.185 75,303.5C 75.6667,365.5 75.6667,427.5 75,489.5C 73.8333,490.667 72.6667,491.833 71.5,493C 54.8333,493.667 38.1667,493.667 21.5,493C 20.3333,491.833 19.1667,490.667 18,489.5C 17.3333,427.5 17.3333,365.5 18,303.5C 19.1065,300.887 20.9399,299.22 23.5,298.5 Z M 93.5,315.5 C 112.493,313.565 130.16,317.399 146.5,327C 159.952,338.89 175.618,346.224 193.5,349C 215.532,349.079 237.532,349.746 259.5,351C 275.854,355.897 283.02,366.731 281,383.5C 280.361,386.112 279.194,388.446 277.5,390.5C 257.842,391.333 238.175,391.833 218.5,392C 200.545,394.064 184.712,400.897 171,412.5C 168.382,417.946 169.549,422.446 174.5,426C 177.167,426.667 179.833,426.667 182.5,426C 193.755,417.374 206.421,412.041 220.5,410C 252.206,409.963 283.873,409.296 315.5,408C 368.5,390.333 421.5,372.667 474.5,355C 489.792,353.748 495.625,360.582 492,375.5C 490.167,377.333 488.333,379.167 486.5,381C 432.667,413.416 379,446.082 325.5,479C 321.323,481.059 316.99,482.726 312.5,484C 239.531,485.481 166.531,485.981 93.5,485.5C 93.5,428.833 93.5,372.167 93.5,315.5 Z"/></g>
<g><path style="opacity:0.929" fill="#fb7468" d="M 167.5,58.5 C 177.094,58.7065 180.594,63.3731 178,72.5C 160.217,96.6177 142.05,120.451 123.5,144C 120.55,145.714 117.55,145.714 114.5,144C 108.031,138.532 101.864,132.699 96,126.5C 91.4537,120.97 91.9537,115.803 97.5,111C 100.5,110.333 103.5,110.333 106.5,111C 110.333,114.833 114.167,118.667 118,122.5C 132.333,103.167 146.667,83.8333 161,64.5C 162.737,61.9255 164.904,59.9255 167.5,58.5 Z"/></g>
<g><path style="opacity:0.934" fill="#fb7468" d="M 390.5,67.5 C 427.581,65.1091 450.748,81.7758 460,117.5C 462.883,154.599 446.383,177.766 410.5,187C 383.359,190.176 362.526,180.343 348,157.5C 334.764,129.358 338.931,104.191 360.5,82C 369.39,74.7207 379.39,69.8874 390.5,67.5 Z M 393.5,85.5 C 369.003,92.521 357.503,108.854 359,134.5C 365.709,159.199 381.876,170.699 407.5,169C 432.199,162.291 443.699,146.124 442,120.5C 435.278,95.9663 419.111,84.2997 393.5,85.5 Z"/></g>
<g><path style="opacity:0.934" fill="#fb7468" d="M 397.5,101.5 C 402.852,100.758 406.686,102.758 409,107.5C 409.499,111.152 409.665,114.818 409.5,118.5C 414.37,118.032 419.036,118.698 423.5,120.5C 427.5,125.167 427.5,129.833 423.5,134.5C 419.036,136.302 414.37,136.968 409.5,136.5C 409.968,141.37 409.302,146.036 407.5,150.5C 401.171,155.141 396.004,154.141 392,147.5C 391.501,143.848 391.335,140.182 391.5,136.5C 386.63,136.968 381.964,136.302 377.5,134.5C 372.859,128.171 373.859,123.004 380.5,119C 384.152,118.501 387.818,118.335 391.5,118.5C 391.335,114.818 391.501,111.152 392,107.5C 393.021,104.65 394.854,102.65 397.5,101.5 Z"/></g>
<g><path style="opacity:0.932" fill="#fb7468" d="M 234.5,178.5 C 242.834,176.819 247.168,180.153 247.5,188.5C 257.554,191.281 265.054,197.281 270,206.5C 271.719,211.201 272.886,216.035 273.5,221C 271.671,229.504 266.671,232.171 258.5,229C 257.299,228.097 256.465,226.931 256,225.5C 255.775,213.669 249.941,206.669 238.5,204.5C 225.326,206.862 220.159,214.529 223,227.5C 224.927,232.428 228.427,235.594 233.5,237C 261.874,238.652 274.707,253.485 272,281.5C 268.243,294.091 260.077,302.091 247.5,305.5C 246.765,313.538 242.432,316.704 234.5,315C 230.61,313.055 228.943,309.888 229.5,305.5C 213.774,300.779 205.107,290.113 203.5,273.5C 204.905,264.462 209.905,261.628 218.5,265C 219.701,265.903 220.535,267.069 221,268.5C 221.219,280.309 227.052,287.309 238.5,289.5C 250.806,287.227 255.973,279.894 254,267.5C 252.342,263.694 249.842,260.527 246.5,258C 239.901,256.342 233.235,255.008 226.5,254C 211.94,247.901 204.273,236.901 203.5,221C 204.653,207.01 211.319,196.677 223.5,190C 225.436,189.187 227.436,188.687 229.5,188.5C 229.075,184.017 230.741,180.683 234.5,178.5 Z"/></g>
</svg>
