<?xml version="1.0" encoding="UTF-8"?>
<!DOCTYPE svg PUBLIC "-//W3C//DTD SVG 1.1//EN" "http://www.w3.org/Graphics/SVG/1.1/DTD/svg11.dtd">
<svg xmlns="http://www.w3.org/2000/svg" version="1.1" width="300px" height="300px" style="shape-rendering:geometricPrecision; text-rendering:geometricPrecision; image-rendering:optimizeQuality; fill-rule:evenodd; clip-rule:evenodd" xmlns:xlink="http://www.w3.org/1999/xlink">
<g><path style="opacity:1" fill="#4e4d52" d="M 113.5,274.5 C 116.471,272.343 119.471,270.176 122.5,268C 123.711,267.107 123.711,266.274 122.5,265.5C 118.452,267.89 115.118,270.89 112.5,274.5C 100.18,271.956 88.8469,267.29 78.5,260.5C 67.6829,255.012 58.3496,247.678 50.5,238.5C 33.0764,222.026 21.4098,202.026 15.5,178.5C 21.0214,178.946 26.3548,178.446 31.5,177C 25.9836,176.183 20.6503,176.349 15.5,177.5C 12.2329,168.235 10.5662,158.568 10.5,148.5C 33.1667,147.833 33.1667,147.167 10.5,146.5C 10.0211,136.21 11.0211,126.21 13.5,116.5C 17.355,95.4643 26.0216,76.7977 39.5,60.5C 43.7384,62.9594 48.0717,65.4594 52.5,68C 53.635,68.7494 54.635,68.5827 55.5,67.5C 50.4235,64.2951 45.0901,61.6284 39.5,59.5C 77.027,15.5998 124.36,-0.566865 181.5,11C 210.017,16.73 234.017,30.23 253.5,51.5C 252.998,52.521 252.332,52.6877 251.5,52C 215.07,23.8514 175.07,17.518 131.5,33C 77.7241,58.3606 53.2241,100.861 58,160.5C 68.1966,214.03 99.6966,247.53 152.5,261C 190.45,267.555 224.283,258.722 254,234.5C 254.167,234.833 254.333,235.167 254.5,235.5C 227.854,264.064 194.854,278.731 155.5,279.5C 141.141,279.623 127.141,277.956 113.5,274.5 Z"/></g>
<g><path style="opacity:1" fill="#0a0a0b" d="M 119.5,12.5 C 120.251,11.4265 121.251,11.2599 122.5,12C 126.759,13.9343 130.759,16.2677 134.5,19C 133.167,19.6667 131.833,19.6667 130.5,19C 127.135,16.3178 123.469,14.1512 119.5,12.5 Z"/></g>
<g><path style="opacity:1" fill="#0f0f11" d="M 89.5,22.5 C 90.2506,21.4265 91.2506,21.2599 92.5,22C 96.9926,24.079 101.326,26.4123 105.5,29C 104.975,29.6924 104.308,30.1924 103.5,30.5C 99.0736,27.4057 94.407,24.739 89.5,22.5 Z"/></g>
<g><path style="opacity:0.995" fill="#fbbc3b" d="M 165.5,36.5 C 171.176,36.3339 176.843,36.5006 182.5,37C 179.202,41.2998 175.535,45.2998 171.5,49C 145.321,47.0379 121.988,54.0379 101.5,70C 100.668,70.6877 100.002,70.521 99.5,69.5C 117.776,51.0288 139.776,40.0288 165.5,36.5 Z"/></g>
<g><path style="opacity:1" fill="#0a0a0b" d="M 63.5,38.5 C 64.2506,37.4265 65.2506,37.2599 66.5,38C 70.9926,40.079 75.326,42.4123 79.5,45C 78.1667,45.6667 76.8333,45.6667 75.5,45C 71.6056,42.5542 67.6056,40.3876 63.5,38.5 Z"/></g>
<g><path style="opacity:0.998" fill="#f49d38" d="M 193.5,38.5 C 202.856,40.0875 211.856,42.7542 220.5,46.5C 215.483,51.3516 210.316,56.0183 205,60.5C 198.089,56.1409 190.589,53.4742 182.5,52.5C 186.094,47.8905 189.761,43.2238 193.5,38.5 Z"/></g>
<g><path style="opacity:1" fill="#ef7c38" d="M 227.5,50.5 C 229.655,50.372 231.655,50.872 233.5,52C 238.808,55.6445 243.808,59.6445 248.5,64C 243.632,70.3683 237.966,75.8683 231.5,80.5C 225.833,75.1667 220.167,69.8333 214.5,64.5C 218.855,59.8131 223.188,55.1464 227.5,50.5 Z"/></g>
<g><path style="opacity:1" fill="#0b0b0c" d="M 39.5,59.5 C 45.0901,61.6284 50.4235,64.2951 55.5,67.5C 54.635,68.5827 53.635,68.7494 52.5,68C 48.0717,65.4594 43.7384,62.9594 39.5,60.5C 39.5,60.1667 39.5,59.8333 39.5,59.5 Z"/></g>
<g><path style="opacity:1" fill="#ec682e" d="M 253.5,70.5 C 254.822,70.33 255.989,70.6634 257,71.5C 261.569,77.0656 265.736,82.8989 269.5,89C 263.026,95.6281 256.526,102.128 250,108.5C 249.228,108.355 248.561,108.022 248,107.5C 245.397,100.458 241.897,93.958 237.5,88C 242.658,82.0085 247.991,76.1752 253.5,70.5 Z"/></g>
<g><path style="opacity:1" fill="#09090a" d="M 23.5,88.5 C 23.7352,87.9033 24.2352,87.5699 25,87.5C 29.9886,89.2158 34.8219,91.2158 39.5,93.5C 39,93.8333 38.5,94.1667 38,94.5C 33.0837,92.6228 28.2504,90.6228 23.5,88.5 Z"/></g>
<g><path style="opacity:1" fill="#e52e2a" d="M 215.5,79.5 C 217.225,79.8425 217.725,80.8425 217,82.5C 204.495,102.839 192.495,123.506 181,144.5C 184.371,160.106 178.371,169.773 163,173.5C 144.895,170.297 138.895,159.964 145,142.5C 149.98,136.26 156.48,133.093 164.5,133C 181.704,115.298 198.704,97.4642 215.5,79.5 Z"/></g>
<g><path style="opacity:1" fill="#eb5d32" d="M 272.5,97.5 C 274.686,98.8233 276.186,100.823 277,103.5C 293.896,155.109 281.396,197.942 239.5,232C 207.306,253.431 172.973,257.431 136.5,244C 123.379,238.029 111.546,230.196 101,220.5C 100.312,219.668 100.479,219.002 101.5,218.5C 130.752,239.708 162.418,244.208 196.5,232C 230.96,216.536 250.46,190.036 255,152.5C 255.403,140.74 254.736,129.073 253,117.5C 259.703,110.965 266.203,104.298 272.5,97.5 Z"/></g>
<g><path style="opacity:1" fill="#0a0a0b" d="M 13.5,116.5 C 19.012,117.201 24.3453,118.535 29.5,120.5C 29,120.833 28.5,121.167 28,121.5C 24.5571,120.431 21.0571,119.598 17.5,119C 15.563,118.878 14.2297,118.045 13.5,116.5 Z"/></g>
<g><path style="opacity:1" fill="#09090a" d="M 10.5,146.5 C 33.1667,147.167 33.1667,147.833 10.5,148.5C 10.5,147.833 10.5,147.167 10.5,146.5 Z"/></g>
<g><path style="opacity:1" fill="#08080a" d="M 15.5,178.5 C 15.5,178.167 15.5,177.833 15.5,177.5C 20.6503,176.349 25.9836,176.183 31.5,177C 26.3548,178.446 21.0214,178.946 15.5,178.5 Z"/></g>
<g><path style="opacity:1" fill="#0c0c0d" d="M 39.5,205.5 C 41.9424,205.354 42.6091,206.187 41.5,208C 37.6272,208.27 33.7938,208.77 30,209.5C 29.5,209.167 29,208.833 28.5,208.5C 32.2133,207.222 35.88,206.222 39.5,205.5 Z"/></g>
<g><path style="opacity:1" fill="#0f0f10" d="M 50.5,238.5 C 53.5935,235.442 57.2601,233.109 61.5,231.5C 61.8333,231.833 62.1667,232.167 62.5,232.5C 59.0705,235.548 55.0705,237.548 50.5,238.5 Z"/></g>
<g><path style="opacity:1" fill="#0d0d0f" d="M 78.5,260.5 C 78.4142,259.504 78.7476,258.671 79.5,258C 83.0946,256.287 86.5946,254.453 90,252.5C 90.5,252.833 91,253.167 91.5,253.5C 87.272,256.113 82.9386,258.446 78.5,260.5 Z"/></g>
<g><path style="opacity:1" fill="#0b0b0c" d="M 113.5,274.5 C 113.167,274.5 112.833,274.5 112.5,274.5C 115.118,270.89 118.452,267.89 122.5,265.5C 123.711,266.274 123.711,267.107 122.5,268C 119.471,270.176 116.471,272.343 113.5,274.5 Z"/></g>
<g><path style="opacity:1" fill="#101011" d="M 156.5,271.5 C 157.376,271.369 158.043,271.702 158.5,272.5C 157.299,274.909 155.633,276.909 153.5,278.5C 153.167,278.167 152.833,277.833 152.5,277.5C 153.844,275.471 155.177,273.471 156.5,271.5 Z"/></g>
</svg>
