<?xml version="1.0" encoding="UTF-8"?>
<!DOCTYPE svg PUBLIC "-//W3C//DTD SVG 1.1//EN" "http://www.w3.org/Graphics/SVG/1.1/DTD/svg11.dtd">
<svg xmlns="http://www.w3.org/2000/svg" version="1.1" width="595px" height="842px" style="shape-rendering:geometricPrecision; text-rendering:geometricPrecision; image-rendering:optimizeQuality; fill-rule:evenodd; clip-rule:evenodd" xmlns:xlink="http://www.w3.org/1999/xlink">
<g><path style="opacity:0.98" fill="#fefdfd" d="M 202.5,87.5 C 249.5,87.5 296.5,87.5 343.5,87.5C 343.5,134.5 343.5,181.5 343.5,228.5C 296.5,228.5 249.5,228.5 202.5,228.5C 202.5,181.5 202.5,134.5 202.5,87.5 Z"/></g>
<g><path style="opacity:1" fill="#4d4c51" d="M 258.5,92.5 C 277.521,89.63 295.188,93.13 311.5,103C 314.463,104.961 317.129,107.294 319.5,110C 288.934,92.1825 262.101,96.6825 239,123.5C 226.137,145.359 226.47,167.026 240,188.5C 255.715,208.294 275.882,215.127 300.5,209C 307.577,206.453 314.244,203.453 320.5,200C 300.05,217.892 276.716,222.892 250.5,215C 220.78,202.412 206.614,179.912 208,147.5C 213.27,118.402 230.104,100.068 258.5,92.5 Z"/></g>
<g><path style="opacity:1" fill="#fcc24a" d="M 252.5,118.5 C 262.082,108.718 273.749,104.551 287.5,106C 286.547,107.955 285.213,109.622 283.5,111C 272.229,109.93 261.895,112.43 252.5,118.5 Z"/></g>
<g><path style="opacity:1" fill="#f49e38" d="M 293.5,106.5 C 297.673,107.044 301.673,108.21 305.5,110C 303.833,111.667 302.167,113.333 300.5,115C 296.432,114.655 292.432,113.655 288.5,112C 290.373,110.296 292.04,108.463 293.5,106.5 Z"/></g>
<g><path style="opacity:1" fill="#ef813d" d="M 309.5,111.5 C 313.202,113.024 316.536,115.19 319.5,118C 316.984,120.683 314.317,123.183 311.5,125.5C 308.683,123.183 306.016,120.683 303.5,118C 305.706,115.963 307.706,113.797 309.5,111.5 Z"/></g>
<g><path style="opacity:1" fill="#fdce6b" d="M 252.5,118.5 C 251.998,120.085 250.998,120.585 249.5,120C 250.244,118.961 251.244,118.461 252.5,118.5 Z"/></g>
<g><path style="opacity:1" fill="#ed6c32" d="M 321.5,121.5 C 325.211,122.899 327.544,125.566 328.5,129.5C 326.578,133.093 323.911,136.093 320.5,138.5C 318.265,135.709 316.265,132.709 314.5,129.5C 316.856,126.814 319.189,124.147 321.5,121.5 Z"/></g>
<g><path style="opacity:1" fill="#e6302f" d="M 303.5,125.5 C 304.465,126.721 304.298,128.054 303,129.5C 297.748,137.668 292.748,146.001 288,154.5C 289.371,165.13 284.871,169.63 274.5,168C 267.588,161.833 267.921,156.167 275.5,151C 277.167,150.667 278.833,150.333 280.5,150C 288.005,141.662 295.672,133.495 303.5,125.5 Z"/></g>
<g><path style="opacity:1" fill="#eb6035" d="M 329.5,134.5 C 330.496,134.414 331.329,134.748 332,135.5C 340.585,160.081 334.752,180.581 314.5,197C 291.599,210.073 270.266,208.073 250.5,191C 255.978,194.385 261.978,197.051 268.5,199C 296.538,202.263 314.371,190.43 322,163.5C 322.775,156.962 322.609,150.462 321.5,144C 323.988,140.679 326.655,137.512 329.5,134.5 Z"/></g>
</svg>
