<?xml version="1.0" encoding="UTF-8"?>
<!DOCTYPE svg PUBLIC "-//W3C//DTD SVG 1.1//EN" "http://www.w3.org/Graphics/SVG/1.1/DTD/svg11.dtd">
<svg xmlns="http://www.w3.org/2000/svg" version="1.1" width="50px" height="50px" style="shape-rendering:geometricPrecision; text-rendering:geometricPrecision; image-rendering:optimizeQuality; fill-rule:evenodd; clip-rule:evenodd" xmlns:xlink="http://www.w3.org/1999/xlink">
<g><path style="opacity:0.945" fill="#4d4c51" d="M 40.5,8.5 C 40.5,7.83333 40.1667,7.5 39.5,7.5C 39.1667,7.5 38.8333,7.5 38.5,7.5C 38.1583,6.66175 37.4916,6.32842 36.5,6.5C 36.1583,5.66175 35.4916,5.32842 34.5,5.5C 30.8333,4.16667 27.1667,4.16667 23.5,5.5C 22.209,5.26269 21.209,5.59603 20.5,6.5C 19.8333,6.5 19.5,6.83333 19.5,7.5C 18.5084,7.32842 17.8417,7.66175 17.5,8.5C 16.8333,8.5 16.5,8.83333 16.5,9.5C 15.8333,9.5 15.5,9.83333 15.5,10.5C 9.62746,16.0838 8.12746,22.7505 11,30.5C 11.7918,33.1064 13.2918,35.1064 15.5,36.5C 15.5,37.1667 15.8333,37.5 16.5,37.5C 16.5,38.1667 16.8333,38.5 17.5,38.5C 17.5,39.1667 17.8333,39.5 18.5,39.5C 18.8417,40.3382 19.5084,40.6716 20.5,40.5C 20.8417,41.3382 21.5084,41.6716 22.5,41.5C 22.8333,41.5 23.1667,41.5 23.5,41.5C 24.209,42.404 25.209,42.7373 26.5,42.5C 28.1667,42.5 29.8333,42.5 31.5,42.5C 32.791,42.7373 33.791,42.404 34.5,41.5C 34.8333,41.5 35.1667,41.5 35.5,41.5C 36.4916,41.6716 37.1583,41.3382 37.5,40.5C 38.4916,40.6716 39.1583,40.3382 39.5,39.5C 40.1667,39.5 40.5,39.1667 40.5,38.5C 41.2389,38.369 41.9056,38.5357 42.5,39C 34.8206,46.4997 25.8206,48.4997 15.5,45C 3.11395,38.8622 -1.38605,29.0289 2,15.5C 7.83508,3.66513 17.3351,-1.1682 30.5,1C 35.2379,2.07183 39.2379,4.40516 42.5,8C 41.9056,8.46434 41.2389,8.63101 40.5,8.5 Z M 23.5,5.5 C 27.1667,4.16667 30.8333,4.16667 34.5,5.5C 33.0413,5.43255 31.7079,5.76589 30.5,6.5C 28.3926,5.53178 26.0593,5.19845 23.5,5.5 Z"/></g>
<g><path style="opacity:0.607" fill="#faba38" d="M 23.5,5.5 C 26.0593,5.19845 28.3926,5.53178 30.5,6.5C 29.8333,6.5 29.5,6.83333 29.5,7.5C 24.9149,7.92117 20.5815,9.2545 16.5,11.5C 15.8933,11.3764 15.56,11.0431 15.5,10.5C 16.1667,10.5 16.5,10.1667 16.5,9.5C 17.1667,9.5 17.5,9.16667 17.5,8.5C 18.4916,8.67158 19.1583,8.33825 19.5,7.5C 20.1667,7.5 20.5,7.16667 20.5,6.5C 21.791,6.73731 22.791,6.40397 23.5,5.5 Z"/></g>
<g><path style="opacity:0.701" fill="#f49d37" d="M 34.5,5.5 C 34.8417,6.33825 35.5084,6.67158 36.5,6.5C 36.5,6.83333 36.5,7.16667 36.5,7.5C 35.8902,8.39105 35.5569,9.39105 35.5,10.5C 33.0326,10.2451 31.0326,9.24512 29.5,7.5C 30.1667,7.5 30.5,7.16667 30.5,6.5C 31.7079,5.76589 33.0413,5.43255 34.5,5.5 Z"/></g>
<g><path style="opacity:0.917" fill="#e5332e" d="M 36.5,12.5 C 34.9451,15.9396 33.1118,19.2729 31,22.5C 30.9032,28.4467 28.4032,30.1134 23.5,27.5C 22.5721,26.2322 22.4054,24.8989 23,23.5C 27.3931,19.5974 31.8931,15.9307 36.5,12.5 Z"/></g>
<g><path style="opacity:0.92" fill="#eb5f32" d="M 36.5,7.5 C 37.1667,7.5 37.8333,7.5 38.5,7.5C 38.8333,7.5 39.1667,7.5 39.5,7.5C 40.1667,7.5 40.5,7.83333 40.5,8.5C 49.8304,18.5175 49.8304,28.5175 40.5,38.5C 39.8333,38.5 39.5,38.8333 39.5,39.5C 38.5084,39.3284 37.8417,39.6618 37.5,40.5C 36.5084,40.3284 35.8417,40.6618 35.5,41.5C 35.1667,41.5 34.8333,41.5 34.5,41.5C 33.209,41.2627 32.209,41.596 31.5,42.5C 29.8333,42.5 28.1667,42.5 26.5,42.5C 25.791,41.596 24.791,41.2627 23.5,41.5C 23.1667,41.5 22.8333,41.5 22.5,41.5C 22.1583,40.6618 21.4916,40.3284 20.5,40.5C 20.1583,39.6618 19.4916,39.3284 18.5,39.5C 17.8333,39.5 17.5,39.1667 17.5,38.5C 16.8333,38.5 16.5,38.1667 16.5,37.5C 15.8333,37.5 15.5,37.1667 15.5,36.5C 15.56,35.9569 15.8933,35.6236 16.5,35.5C 27.6933,41.5861 35.8599,38.9195 41,27.5C 42.6228,21.4318 41.1228,16.4318 36.5,12.5C 36.1667,11.8333 35.8333,11.1667 35.5,10.5C 35.5569,9.39105 35.8902,8.39105 36.5,7.5 Z"/></g>
</svg>
