<?xml version="1.0" encoding="UTF-8"?>
<!DOCTYPE svg PUBLIC "-//W3C//DTD SVG 1.1//EN" "http://www.w3.org/Graphics/SVG/1.1/DTD/svg11.dtd">
<svg xmlns="http://www.w3.org/2000/svg" version="1.1" width="12373px" height="12318px" style="shape-rendering:geometricPrecision; text-rendering:geometricPrecision; image-rendering:optimizeQuality; fill-rule:evenodd; clip-rule:evenodd" xmlns:xlink="http://www.w3.org/1999/xlink">
<g><path style="opacity:0.351" fill="#fefffe" d="M 5908.5,365.5 C 6072.35,362.977 6236.01,367.144 6399.5,378C 6459.85,383.135 6520.19,388.469 6580.5,394C 6827.81,398.937 7073.47,421.604 7317.5,462C 7924.72,559.961 8499.39,753.294 9041.5,1042C 9426.97,1246.16 9782.64,1492.49 10108.5,1781C 10147,1816.43 10185.4,1852.1 10223.5,1888C 10290.7,1953.83 10357.8,2019.67 10425,2085.5C 10444.3,2105.51 10457.4,2129.01 10464.5,2156C 10450.7,2160.39 10438,2158.06 10426.5,2149C 10117.7,1892.6 9782.08,1675.6 9419.5,1498C 9005.16,1297.78 8570.82,1159.11 8116.5,1082C 7920.78,1048.41 7723.78,1026.08 7525.5,1015C 7421.1,1008.35 7316.6,1004.18 7212,1002.5C 6966.11,1006.59 6721.61,1027.09 6478.5,1064C 6020.45,1138.36 5582.78,1276.36 5165.5,1478C 4714.35,1696.25 4303.35,1972.25 3932.5,2306C 3505.74,2693.26 3161.24,3142.42 2899,3653.5C 2714.55,4018.16 2573.55,4399.16 2476,4796.5C 2431.69,4980.37 2399.69,5166.37 2380,5354.5C 2341.56,5692.28 2335.89,6030.61 2363,6369.5C 2393.14,6710.52 2458.81,7044.52 2560,7371.5C 2734.42,7934.06 2997.75,8448.39 3350,8914.5C 3532.7,9152.25 3735.87,9372.42 3959.5,9575C 4210.46,9802 4481.13,10002 4771.5,10175C 5234.57,10447.1 5729.57,10638.4 6256.5,10749C 6559.88,10813.1 6866.55,10849.4 7176.5,10858C 7610.63,10861.9 8038.63,10812.6 8460.5,10710C 8977.4,10583.2 9459.4,10377.2 9906.5,10092C 10090.3,9974.54 10266,9845.87 10433.5,9706C 10445.6,9698.91 10458.6,9694.08 10472.5,9691.5C 10474.4,9699.31 10473.2,9706.64 10469,9713.5C 10419.5,9781.74 10364,9845.24 10302.5,9904C 10115.5,10078.9 9919.86,10242.5 9715.5,10395C 9231.28,10750.1 8701.28,11020.8 8125.5,11207C 7525.71,11400.8 6910.71,11487.8 6280.5,11468C 6237.82,11467.1 6195.15,11465.8 6152.5,11464C 6070.78,11458.4 5989.11,11452.1 5907.5,11445C 5562.61,11435.8 5221.28,11396.2 4883.5,11326C 4836.83,11316 4790.16,11306 4743.5,11296C 4736.4,11294.5 4730.24,11291.4 4725,11286.5C 4712.73,11289.2 4700.56,11288.7 4688.5,11285C 4675.13,11280.1 4662.13,11274.5 4649.5,11268C 4630.49,11268.4 4611.83,11266 4593.5,11261C 4524.92,11240.7 4456.26,11220.7 4387.5,11201C 3813.5,11028 3284.83,10767.7 2801.5,10420C 2608.3,10280.6 2424.3,10129.3 2249.5,9966C 2206.57,9925.62 2163.74,9885.12 2121,9844.5C 2116.83,9838.83 2113.16,9832.83 2110,9826.5C 2100.97,9821.64 2094.14,9814.64 2089.5,9805.5C 2066.34,9788.18 2044.5,9769.18 2024,9748.5C 1959.77,9678.36 1895.77,9608.02 1832,9537.5C 1583.09,9254.57 1366.09,8948.91 1181,8620.5C 1180.1,8615.85 1179.27,8611.18 1178.5,8606.5C 1172.99,8601.82 1169.83,8595.82 1169,8588.5C 1159.79,8579.07 1151.79,8568.74 1145,8557.5C 1113.68,8496.2 1082.35,8434.86 1051,8373.5C 890.163,8046.02 761.829,7706.02 666,7353.5C 664.397,7338.8 662.397,7324.13 660,7309.5C 648.424,7285.11 639.424,7259.77 633,7233.5C 618.631,7166.03 603.631,7098.69 588,7031.5C 526.641,6745.62 490.141,6456.62 478.5,6164.5C 479.294,6129.17 479.794,6093.83 480,6058.5C 473.864,6030 471.031,6001.17 471.5,5972C 473.078,5753.27 484.911,5535.1 507,5317.5C 521.791,5176.3 542.458,5035.96 569,4896.5C 569.548,4883.16 569.381,4869.83 568.5,4856.5C 567.603,4844.81 570.436,4834.14 577,4824.5C 578.965,4814.9 583.299,4806.57 590,4799.5C 593.168,4765.16 598.501,4731.16 606,4697.5C 667.59,4423.4 748.923,4155.4 850,3893.5C 1001.66,3505.44 1194.32,3140.78 1428,2799.5C 1611.35,2531.51 1816.02,2279.84 2042,2044.5C 2461.4,1614.35 2936.9,1260.85 3468.5,984C 3753.2,836.545 4048.2,713.878 4353.5,616C 4720.16,501.401 5094.83,426.401 5477.5,391C 5621.02,377.352 5764.69,368.852 5908.5,365.5 Z"/></g>
<g><path style="opacity:0.994" fill="#fefffe" d="M 7425.5,1530.5 C 7448.84,1530.33 7472.17,1530.5 7495.5,1531C 7500.64,1532.4 7504.97,1535.07 7508.5,1539C 7507.87,1539.75 7507.37,1540.58 7507,1541.5C 7375.96,1693.54 7245.29,1845.87 7115,1998.5C 7094.83,2021.25 7069.49,2032.92 7039,2033.5C 6989.83,2030.09 6940.66,2026.59 6891.5,2023C 6853.92,2018.68 6816.25,2015.34 6778.5,2013C 6457.93,1997.24 6140.93,2023.91 5827.5,2093C 5596.39,2144.59 5370.39,2212.93 5149.5,2298C 5078.82,2325.01 5008.82,2353.68 4939.5,2384C 4860.96,2421.25 4785.63,2463.59 4713.5,2511C 4567.4,2610.44 4422.4,2711.44 4278.5,2814C 4244.18,2842.03 4211.18,2871.69 4179.5,2903C 4162.42,2915.5 4148.92,2912.33 4139,2893.5C 4135.88,2885.08 4136.21,2876.74 4140,2868.5C 4145.59,2857.84 4152.75,2848.34 4161.5,2840C 4296.21,2724.29 4431.21,2608.96 4566.5,2494C 4660.93,2418.24 4759.27,2347.9 4861.5,2283C 4990.92,2201.61 5121.92,2122.61 5254.5,2046C 5624.82,1839.44 6019.15,1699.11 6437.5,1625C 6664.62,1584.03 6893.29,1555.36 7123.5,1539C 7140.66,1538.12 7157.82,1537.62 7175,1537.5C 7206.16,1538.39 7237.33,1538.56 7268.5,1538C 7321,1535.71 7373.34,1533.21 7425.5,1530.5 Z"/></g>
<g><path style="opacity:0.996" fill="#fefffe" d="M 8057.5,1619.5 C 8068.37,1618.86 8079.04,1620.03 8089.5,1623C 8420.32,1717.22 8751.32,1810.72 9082.5,1903.5C 9083.69,1912.43 9081.52,1920.43 9076,1927.5C 8919.27,2090.9 8758.1,2249.4 8592.5,2403C 8574.74,2418.1 8556.41,2432.43 8537.5,2446C 8499.74,2466.29 8461.74,2466.63 8423.5,2447C 8353.92,2409.71 8283.58,2373.71 8212.5,2339C 8098.45,2287.15 7981.45,2242.82 7861.5,2206C 7766.29,2178.03 7670.96,2150.7 7575.5,2124C 7588.86,2104.97 7603.36,2086.8 7619,2069.5C 7662.43,2025.07 7704.77,1979.74 7746,1933.5C 7835.67,1837.17 7925.33,1740.83 8015,1644.5C 8026.88,1632.09 8041.05,1623.75 8057.5,1619.5 Z"/></g>
<g><path style="opacity:0.997" fill="#fefffe" d="M 9467.5,2100.5 C 9477.53,2100.34 9487.2,2102.17 9496.5,2106C 9594.18,2151.16 9686.18,2205.16 9772.5,2268C 9922.22,2381.38 10072.2,2494.38 10222.5,2607C 10250.9,2630.1 10253,2655.6 10229,2683.5C 10036.1,2875.06 9842.61,3065.89 9648.5,3256C 9637.07,3266.87 9624.74,3276.54 9611.5,3285C 9590.6,3297.2 9570.6,3295.86 9551.5,3281C 9547.83,3278 9544.17,3275 9540.5,3272C 9468.14,3192.64 9392.14,3116.97 9312.5,3045C 9241.34,2981.83 9169.01,2920.17 9095.5,2860C 9035.83,2813 8976.17,2766 8916.5,2719C 8904.82,2708.45 8895.98,2695.95 8890,2681.5C 8887.62,2671.99 8888.96,2662.99 8894,2654.5C 8898.12,2648.71 8902.62,2643.21 8907.5,2638C 8958.35,2595.2 9007.68,2550.54 9055.5,2504C 9129.09,2430.75 9201.59,2356.58 9273,2281.5C 9326.83,2227.67 9380.67,2173.83 9434.5,2120C 9439.32,2115.76 9444.32,2111.76 9449.5,2108C 9455.27,2104.6 9461.27,2102.1 9467.5,2100.5 Z"/></g>
<g><path style="opacity:0.997" fill="#fefffe" d="M 10524.5,2935.5 C 10540.1,2934.87 10553.8,2939.71 10565.5,2950C 10571,2954.47 10576.1,2959.3 10581,2964.5C 10662.2,3055.07 10741.2,3147.4 10818,3241.5C 10902,3345.51 10979,3454.51 11049,3568.5C 11064.4,3593.68 11079.1,3619.34 11093,3645.5C 11102.3,3664.23 11101.6,3682.56 11091,3700.5C 11086.7,3707.11 11082.1,3713.45 11077,3719.5C 10832.5,3964.97 10587.7,4210.14 10342.5,4455C 10334.9,4461.45 10326.3,4465.78 10316.5,4468C 10304.7,4468.33 10295.5,4463.5 10289,4453.5C 10273.4,4421.29 10258.1,4388.95 10243,4356.5C 10137.7,4107.03 10004.3,3875.03 9843,3660.5C 9836.18,3650.87 9832.84,3640.21 9833,3628.5C 9833.87,3622.75 9835.87,3617.42 9839,3612.5C 9843,3607.17 9847,3601.83 9851,3596.5C 10020,3426.53 10189.3,3256.86 10359,3087.5C 10382.4,3063.8 10405.4,3039.8 10428,3015.5C 10449.2,2993.97 10470.7,2972.8 10492.5,2952C 10502,2944.09 10512.7,2938.59 10524.5,2935.5 Z"/></g>
<g><path style="opacity:0.998" fill="#fefffe" d="M 8930.5,3300.5 C 8946.56,3303.05 8957.4,3312.05 8963,3327.5C 8964.49,3335.99 8963.16,3343.99 8959,3351.5C 8592.67,3984.17 8226.33,4616.83 7860,5249.5C 7731.25,5471.33 7602.25,5693 7473,5914.5C 7444.63,5961.38 7437.3,6011.38 7451,6064.5C 7507.29,6246.8 7502.29,6427.47 7436,6606.5C 7392.53,6716.96 7326.7,6811.79 7238.5,6891C 7157.84,6961.88 7067.5,7017.88 6967.5,7059C 6913.16,7081 6856.82,7095 6798.5,7101C 6788.84,7101.57 6779.17,7102.07 6769.5,7102.5C 6731.53,7101.51 6693.53,7100.34 6655.5,7099C 6409.86,7086.11 6212.03,6983.28 6062,6790.5C 5985.63,6689.36 5937.96,6575.69 5919,6449.5C 5894.31,6282.35 5916.31,6121.68 5985,5967.5C 6055.47,5818.03 6163.3,5703.87 6308.5,5625C 6403.68,5574.38 6504.68,5541.38 6611.5,5526C 6636.69,5525.29 6661.86,5525.79 6687,5527.5C 6743.87,5526.88 6795.03,5509.71 6840.5,5476C 6849.02,5469.57 6857.35,5462.91 6865.5,5456C 6894.97,5426.86 6924.14,5397.36 6953,5367.5C 7156.3,5152.53 7359.97,4937.86 7564,4723.5C 7725.27,4554.23 7887.27,4385.56 8050,4217.5C 8282.91,3972.26 8516.91,3727.92 8752,3484.5C 8808.86,3423.98 8866.02,3363.81 8923.5,3304C 8925.93,3302.79 8928.26,3301.62 8930.5,3300.5 Z"/></g>
<g><path style="opacity:0.998" fill="#fefffe" d="M 11286.5,4056.5 C 11298.2,4056.11 11308.2,4059.94 11316.5,4068C 11325.6,4078.42 11333.1,4089.92 11339,4102.5C 11410.8,4257.9 11472.8,4417.23 11525,4580.5C 11629.8,4903.07 11696.1,5233.4 11724,5571.5C 11736.2,5744.72 11738.2,5918.05 11730,6091.5C 11717.2,6477.41 11653.9,6854.74 11540,7223.5C 11483.5,7408.97 11414.9,7589.63 11334,7765.5C 11251.8,7939.67 11159.1,8107.33 11056,8268.5C 10911.9,8492.62 10752.2,8705.29 10577,8906.5C 10433.2,9065.35 10278.3,9211.85 10112.5,9346C 9824.27,9577.59 9511.61,9772.59 9174.5,9931C 8576.38,10208.2 7947.38,10342.8 7287.5,10335C 6962.96,10330 6642.3,10292.3 6325.5,10222C 5887.6,10120.7 5475.6,9956.07 5089.5,9728C 4928.76,9632.49 4774.43,9527.82 4626.5,9414C 4572.83,9372.33 4519.17,9330.67 4465.5,9289C 4453.81,9280.07 4446.97,9268.57 4445,9254.5C 4440.2,9248.7 4435.03,9243.2 4429.5,9238C 4386.84,9209.68 4346.18,9178.68 4307.5,9145C 4259.5,9101 4213.5,9055 4169.5,9007C 4192.79,9012.99 4215.46,9020.99 4237.5,9031C 4289.6,9055.2 4338.6,9084.2 4384.5,9118C 4429.32,9151.58 4474.32,9184.91 4519.5,9218C 4630.7,9285.47 4743.7,9350.13 4858.5,9412C 5151.24,9564.81 5458.91,9677.48 5781.5,9750C 6130.32,9828.37 6483.32,9859.37 6840.5,9843C 7217.43,9825.21 7584.43,9755.55 7941.5,9634C 8368.25,9485.45 8756.59,9271.45 9106.5,8992C 9192.17,8922.01 9275.17,8848.68 9355.5,8772C 9468.53,8662.32 9575.7,8547.82 9677,8428.5C 9921.13,8135.21 10117.8,7811.21 10267,7456.5C 10512.8,6871.95 10611.4,6263.28 10563,5630.5C 10544.7,5399.12 10507.7,5170.78 10452,4945.5C 10447.7,4917.19 10453.1,4890.86 10468,4866.5C 10473.9,4857.26 10480.6,4848.6 10488,4840.5C 10531.6,4797.86 10575,4754.86 10618,4711.5C 10824.5,4502.69 11031.3,4294.19 11238.5,4086C 11246.9,4078.24 11255.9,4071.24 11265.5,4065C 11272.2,4061.06 11279.2,4058.22 11286.5,4056.5 Z"/></g>
</svg>
