<?xml version="1.0" encoding="UTF-8"?>
<!DOCTYPE svg PUBLIC "-//W3C//DTD SVG 1.1//EN" "http://www.w3.org/Graphics/SVG/1.1/DTD/svg11.dtd">
<svg xmlns="http://www.w3.org/2000/svg" version="1.1" width="150px" height="150px" style="shape-rendering:geometricPrecision; text-rendering:geometricPrecision; image-rendering:optimizeQuality; fill-rule:evenodd; clip-rule:evenodd" xmlns:xlink="http://www.w3.org/1999/xlink">
<g><path style="opacity:0.996" fill="#4e4d52" d="M 13.5,104.5 C -0.470007,77.0245 2.02999,51.0245 21,26.5C 43.0994,4.1418 69.266,-2.3582 99.5,7C 109.392,10.8596 118.226,16.3596 126,23.5C 126.667,24.5 126.667,25.5 126,26.5C 99.4388,7.43378 73.2722,7.93378 47.5,28C 26.9219,50.3806 23.4219,75.2139 37,102.5C 55.8572,128.784 80.6905,136.617 111.5,126C 116.761,123.455 121.594,120.288 126,116.5C 126.5,117 127,117.5 127.5,118C 104.458,140.09 77.7914,145.756 47.5,135C 32.1665,129.16 20.8332,118.994 13.5,104.5 Z"/></g>
<g><path style="opacity:0.967" fill="#fabc3a" d="M 80.5,17.5 C 92.251,15.3708 93.9177,17.8708 85.5,25C 72.8269,23.6695 61.4935,27.0028 51.5,35C 50.5,35.6667 49.5,35.6667 48.5,35C 57.374,25.7326 68.0407,19.8992 80.5,17.5 Z"/></g>
<g><path style="opacity:0.981" fill="#f49e39" d="M 96.5,18.5 C 101.481,19.1051 106.148,20.6051 110.5,23C 107.984,25.6833 105.317,28.1833 102.5,30.5C 98.5077,28.5623 94.5077,26.7289 90.5,25C 92.7059,22.9633 94.7059,20.7966 96.5,18.5 Z"/></g>
<g><path style="opacity:0.979" fill="#ef7b38" d="M 113.5,24.5 C 117.934,25.5957 121.601,27.9291 124.5,31.5C 121.833,34.8333 118.833,37.8333 115.5,40.5C 112.5,37.8333 109.5,35.1667 106.5,32.5C 108.856,29.8136 111.189,27.147 113.5,24.5 Z"/></g>
<g><path style="opacity:1" fill="#2d2c30" d="M 21.5,31.5 C 23.6209,30.8484 25.6209,31.5151 27.5,33.5C 27.3333,33.8333 27.1667,34.1667 27,34.5C 25.2196,33.3606 23.3863,32.3606 21.5,31.5 Z"/></g>
<g><path style="opacity:1" fill="#ec672e" d="M 126.5,34.5 C 129.984,36.8302 132.651,39.9969 134.5,44C 131.699,47.9684 128.366,51.4684 124.5,54.5C 122.367,51.0654 120.367,47.5654 118.5,44C 120.988,40.6788 123.655,37.5121 126.5,34.5 Z"/></g>
<g><path style="opacity:0.996" fill="#e5312d" d="M 106.5,39.5 C 108.225,39.8425 108.725,40.8425 108,42.5C 102.081,52.0023 96.4144,61.669 91,71.5C 91.7899,83.7111 86.2899,88.2111 74.5,85C 67.3497,74.6156 70.0163,67.9489 82.5,65C 90.3386,56.3287 98.3386,47.8287 106.5,39.5 Z"/></g>
<g><path style="opacity:0.987" fill="#eb5e33" d="M 134.5,48.5 C 135.822,48.33 136.989,48.6634 138,49.5C 147.307,75.1074 141.807,96.9408 121.5,115C 96.5694,131.231 72.736,129.731 50,110.5C 49.3123,109.668 49.479,109.002 50.5,108.5C 69.1677,121.222 88.1677,121.722 107.5,110C 123.95,96.6566 130.117,79.49 126,58.5C 129.044,55.2941 131.877,51.9608 134.5,48.5 Z"/></g>
<g><path style="opacity:1" fill="#36363a" d="M 5.5,72.5 C 8.24688,72.1866 10.9135,72.52 13.5,73.5C 12.1667,73.8333 10.8333,74.1667 9.5,74.5C 7.66723,74.4146 6.3339,73.7479 5.5,72.5 Z"/></g>
<g><path style="opacity:1" fill="#29292c" d="M 13.5,104.5 C 15.5273,102.912 17.8606,102.412 20.5,103C 18.3225,104.202 15.9892,104.702 13.5,104.5 Z"/></g>
<g><path style="opacity:1" fill="#2d2d30" d="M 44.5,125.5 C 45.7733,126.077 45.7733,126.743 44.5,127.5C 42.9222,128.64 41.2555,129.14 39.5,129C 41.2331,127.811 42.8998,126.644 44.5,125.5 Z"/></g>
</svg>
