<?xml version="1.0" encoding="UTF-8"?>
<!DOCTYPE svg PUBLIC "-//W3C//DTD SVG 1.1//EN" "http://www.w3.org/Graphics/SVG/1.1/DTD/svg11.dtd">
<svg xmlns="http://www.w3.org/2000/svg" version="1.1" width="12373px" height="12318px" style="shape-rendering:geometricPrecision; text-rendering:geometricPrecision; image-rendering:optimizeQuality; fill-rule:evenodd; clip-rule:evenodd" xmlns:xlink="http://www.w3.org/1999/xlink">
<g><path style="opacity:0.334" fill="#4c4b50" d="M 10401.5,2224.5 C 10401.4,2225.24 10401.5,2225.91 10402,2226.5C 10409.1,2234.09 10416.6,2241.09 10424.5,2247.5C 10428.8,2253.83 10434.2,2259.17 10440.5,2263.5C 10443.8,2265.8 10446.8,2268.47 10449.5,2271.5C 10449.5,2272.58 10449.9,2273.58 10450.5,2274.5C 10456.6,2280.58 10462.9,2286.25 10469.5,2291.5C 10470.8,2291.5 10471.5,2292.17 10471.5,2293.5C 10476.9,2300.41 10482.9,2306.91 10489.5,2313C 10490.4,2313.48 10491.4,2313.65 10492.5,2313.5C 10495.5,2315.83 10498.2,2318.5 10500.5,2321.5C 10504.8,2327.83 10510.2,2333.17 10516.5,2337.5C 10517.8,2337.5 10518.5,2338.17 10518.5,2339.5C 10522.8,2345.83 10528.2,2351.17 10534.5,2355.5C 10540.8,2363.69 10547.3,2371.69 10554,2379.5C 10564.5,2394.46 10571.6,2410.79 10575.5,2428.5C 10564.1,2431.09 10553.4,2429.42 10543.5,2423.5C 10531.3,2412.79 10519,2402.29 10506.5,2392C 10501.9,2388.7 10497.3,2385.37 10492.5,2382C 10491.8,2381 10491.2,2380 10490.5,2379C 10486.2,2376 10481.8,2373 10477.5,2370C 10470.1,2363.49 10462.8,2357.16 10455.5,2351C 10415.3,2320 10374.9,2289 10334.5,2258C 10089.7,2076.71 9829.65,1917.37 9554.5,1780C 9437.29,1723.03 9318.96,1670.69 9199.5,1623C 9050.95,1565.26 8899.95,1514.26 8746.5,1470C 8373.06,1365.82 7992.06,1303.82 7603.5,1284C 7486.28,1276.38 7368.95,1273.38 7251.5,1275C 7027.57,1281.69 6804.91,1302.02 6583.5,1336C 6171.9,1403.6 5777.9,1521.94 5401.5,1691C 4908.04,1913.91 4461.38,2203.91 4061.5,2561C 4048.79,2573.01 4036.12,2585.01 4023.5,2597C 4018.21,2599.95 4013.88,2603.95 4010.5,2609C 4005.21,2611.95 4000.88,2615.95 3997.5,2621C 3995.5,2622.33 3993.5,2623.67 3991.5,2625C 3973.04,2643.39 3954.37,2661.56 3935.5,2679.5C 3929.22,2684.11 3923.56,2689.44 3918.5,2695.5C 3911.19,2702.14 3904.19,2709.14 3897.5,2716.5C 3879.59,2732.91 3862.09,2749.91 3845,2767.5C 3844.54,2768.09 3844.37,2768.76 3844.5,2769.5C 3837.14,2776.19 3830.14,2783.19 3823.5,2790.5C 3817.44,2795.56 3812.11,2801.22 3807.5,2807.5C 3791.8,2823.2 3776.47,2839.2 3761.5,2855.5C 3758.1,2857.9 3755.43,2860.9 3753.5,2864.5C 3520.81,3113.22 3317.65,3385.22 3144,3680.5C 3038.47,3860.9 2944.8,4046.9 2863,4238.5C 2759.2,4483.54 2673.2,4735.87 2605,4995.5C 2547.52,5218.02 2507.86,5443.68 2486,5672.5C 2453.13,5987.07 2448.46,6302.07 2472,6617.5C 2491.1,6851.79 2527.43,7083.13 2581,7311.5C 2606.74,7416.81 2634.74,7521.14 2665,7624.5C 2723.99,7816.84 2793.32,8004.17 2873,8186.5C 2970.74,8407.01 3083.24,8619.01 3210.5,8822.5C 3211.24,8824.54 3212.07,8826.54 3213,8828.5C 3223.9,8846.63 3235.57,8864.3 3248,8881.5C 3251.09,8887.63 3254.76,8893.3 3259,8898.5C 3262,8903.83 3265,8909.17 3268,8914.5C 3269.75,8917.04 3271.75,8919.38 3274,8921.5C 3288.85,8945.61 3304.52,8968.95 3321,8991.5C 3323.86,8997.37 3327.53,9002.7 3332,9007.5C 3334.36,9012.21 3337.36,9016.55 3341,9020.5C 3342.25,9024.62 3344.59,9027.95 3348,9030.5C 3349.25,9034.62 3351.59,9037.95 3355,9040.5C 3359.68,9049.3 3365.35,9057.3 3372,9064.5C 3381.19,9078.28 3390.52,9091.95 3400,9105.5C 3426.27,9140.26 3452.27,9174.93 3478,9209.5C 3479,9210.17 3480,9210.83 3481,9211.5C 3482.63,9213.65 3483.96,9215.99 3485,9218.5C 3501.82,9238.83 3518.16,9259.49 3534,9280.5C 3536.44,9281.27 3537.77,9282.94 3538,9285.5C 3540.44,9286.27 3541.77,9287.94 3542,9290.5C 3544.44,9291.27 3545.77,9292.94 3546,9295.5C 3548.67,9298.17 3551.33,9300.83 3554,9303.5C 3557.37,9309.53 3561.7,9314.86 3567,9319.5C 3568.84,9322.71 3570.84,9325.71 3573,9328.5C 3590.21,9349.07 3607.55,9369.73 3625,9390.5C 3630.67,9396.5 3636.33,9402.5 3642,9408.5C 3649.53,9417.29 3656.87,9426.29 3664,9435.5C 3667.31,9437.32 3669.64,9439.99 3671,9443.5C 3674.31,9445.32 3676.64,9447.99 3678,9451.5C 3681.44,9453.87 3684.11,9456.87 3686,9460.5C 3689.44,9462.87 3692.11,9465.87 3694,9469.5C 3697.97,9471.98 3700.97,9475.31 3703,9479.5C 3714.54,9492.55 3726.54,9505.22 3739,9517.5C 3741.62,9522.45 3745.28,9526.45 3750,9529.5C 3753.29,9535.12 3757.62,9539.79 3763,9543.5C 3766.96,9549.79 3771.96,9555.12 3778,9559.5C 3779.33,9561.5 3780.67,9563.5 3782,9565.5C 3795.01,9579.67 3808.51,9593.34 3822.5,9606.5C 3824.43,9610.1 3827.1,9613.1 3830.5,9615.5C 3842.5,9626.83 3854.17,9638.5 3865.5,9650.5C 3876.91,9663.41 3888.91,9675.91 3901.5,9688C 3902.09,9688.46 3902.76,9688.63 3903.5,9688.5C 3911.86,9697.53 3920.53,9706.19 3929.5,9714.5C 3934.63,9720.13 3939.96,9725.63 3945.5,9731C 3946.45,9731.48 3947.45,9731.65 3948.5,9731.5C 3950.17,9732.5 3951.5,9733.83 3952.5,9735.5C 3957.83,9742.83 3964.17,9749.17 3971.5,9754.5C 3973.14,9755.15 3974.47,9756.15 3975.5,9757.5C 3979.5,9763.5 3984.5,9768.5 3990.5,9772.5C 4215.64,9984.56 4457.3,10174.7 4715.5,10343C 5199.3,10654.9 5722.97,10874.9 6286.5,11003C 6616.32,11078.3 6950.32,11120.6 7288.5,11130C 7739.38,11134 8183.38,11080.6 8620.5,10970C 9130.74,10839.2 9606.07,10631.2 10046.5,10346C 10220.1,10233.3 10386.5,10110.7 10545.5,9978C 10557.6,9970.91 10570.6,9966.08 10584.5,9963.5C 10586.4,9973.98 10583.9,9983.32 10577,9991.5C 10528,10057.2 10473.9,10118.7 10414.5,10176C 10327.8,10256.6 10239.4,10335.1 10149.5,10411.5C 10148.8,10411.5 10148.5,10411.8 10148.5,10412.5C 10148.2,10412.5 10147.8,10412.5 10147.5,10412.5C 10050.2,10493.5 9951.22,10572.1 9850.5,10648.5C 9396.11,10985.3 8901.78,11247.1 8367.5,11434C 7957.26,11578.2 7535.6,11671.9 7102.5,11715C 6816.31,11742.4 6529.64,11748.7 6242.5,11734C 6163.16,11727.8 6083.82,11721.5 6004.5,11715C 5722.93,11707.3 5443.6,11678.9 5166.5,11630C 5059.52,11610.4 4953.19,11588.7 4847.5,11565C 4843.85,11563.5 4841.18,11561 4839.5,11557.5C 4838.73,11551.4 4839.9,11545.7 4843,11540.5C 4846.5,11535.7 4850.67,11531.5 4855.5,11528C 4960.89,11445.5 5067.89,11365.1 5176.5,11287C 5192.82,11275.5 5209.49,11264.5 5226.5,11254C 5238.83,11245.5 5248.5,11234.7 5255.5,11221.5C 5249.3,11215.2 5241.97,11210.7 5233.5,11208C 5218.47,11204.2 5205.14,11197.2 5193.5,11187C 5177.67,11178.4 5163,11180.1 5149.5,11192C 5023.21,11295.3 4897.21,11399 4771.5,11503C 4768.28,11506.6 4765.45,11510.4 4763,11514.5C 4761.02,11522.4 4759.85,11530.4 4759.5,11538.5C 4740.79,11539.5 4722.45,11537.3 4704.5,11532C 4665.77,11519.5 4626.77,11508.2 4587.5,11498C 4245.31,11401.2 3915.64,11272 3598.5,11110.5C 3448.54,11032.9 3302.54,10949 3160.5,10859C 3123.66,10835.5 3087.33,10811.2 3051.5,10786C 3047.6,10784.4 3043.93,10782.4 3040.5,10780C 3029.73,10771.5 3018.73,10763.5 3007.5,10756C 3005.75,10755.5 3004.09,10754.9 3002.5,10754C 2989.04,10742.9 2974.71,10732.9 2959.5,10724C 2954.38,10719.3 2948.71,10715.3 2942.5,10712C 2913.43,10690.3 2884.09,10668.9 2854.5,10648C 2833.75,10632.2 2813.08,10616.2 2792.5,10600C 2748.09,10567.2 2704.42,10532.8 2661.5,10497C 2656.72,10493.6 2652.06,10490.3 2647.5,10487C 2644.83,10484.3 2642.17,10481.7 2639.5,10479C 2574.43,10426.5 2510.76,10371.8 2448.5,10315C 2447.17,10314.3 2445.83,10313.7 2444.5,10313C 2442.87,10310.4 2440.87,10308 2438.5,10306C 2433.84,10301.7 2428.84,10297.7 2423.5,10294C 2420.78,10289.6 2417.12,10286.3 2412.5,10284C 2409.45,10279.3 2405.45,10275.6 2400.5,10273C 2397.45,10268.3 2393.45,10264.6 2388.5,10262C 2385.12,10257 2380.79,10253 2375.5,10250C 2353.86,10228.7 2331.86,10207.7 2309.5,10187C 2308.55,10186.5 2307.55,10186.4 2306.5,10186.5C 2289.3,10168.8 2271.3,10152 2252.5,10136C 2244.59,10128.6 2237.26,10120.8 2230.5,10112.5C 2228.15,10107.8 2225.82,10103.1 2223.5,10098.5C 2230.21,10098.6 2236.88,10098.1 2243.5,10097C 2253.06,10093.9 2262.39,10090.2 2271.5,10086C 2351.68,10047.4 2432.01,10009.1 2512.5,9971C 2582.22,9939.97 2651.89,9908.64 2721.5,9877C 2730.15,9871.07 2733.31,9862.91 2731,9852.5C 2726.06,9837.03 2720.73,9821.69 2715,9806.5C 2712.95,9800.13 2709.11,9795.29 2703.5,9792C 2699.5,9791.33 2695.5,9791.33 2691.5,9792C 2669.02,9800.9 2647.02,9810.9 2625.5,9822C 2486.45,9890.35 2349.45,9962.02 2214.5,10037C 2208.22,10042.1 2204.39,10048.6 2203,10056.5C 2202.5,10063.2 2202.33,10069.8 2202.5,10076.5C 2196.85,10073.2 2191.52,10069.5 2186.5,10065.5C 2179.06,10059.9 2171.73,10054.1 2164.5,10048C 2148.33,10033.2 2132.83,10017.7 2118,10001.5C 2049.93,9927.43 1982.59,9852.76 1916,9777.5C 1678.71,9503.51 1471.05,9208.51 1293,8892.5C 1291.77,8887.91 1291.27,8883.25 1291.5,8878.5C 1298.05,8879.41 1304.39,8881.24 1310.5,8884C 1321.78,8891.98 1334.28,8896.81 1348,8898.5C 1430.8,8882.92 1513.46,8869.92 1596,8859.5C 1670.37,8849.35 1744.87,8839.85 1819.5,8831C 1831.91,8828.74 1843.24,8824.08 1853.5,8817C 1863.34,8806.5 1870.51,8794.33 1875,8780.5C 1878.8,8768.77 1882.8,8757.1 1887,8745.5C 1887.09,8740.51 1886.92,8735.51 1886.5,8730.5C 1866.76,8729.94 1847.09,8730.77 1827.5,8733C 1743.95,8748.56 1660.28,8763.56 1576.5,8778C 1486.37,8795.29 1396.37,8812.96 1306.5,8831C 1293.63,8837.04 1285.29,8846.87 1281.5,8860.5C 1268.88,8848.36 1258.71,8834.36 1251,8818.5C 1213.82,8746.14 1177.16,8673.48 1141,8600.5C 988.954,8284.39 867.287,7956.72 776,7617.5C 775.5,7611.18 775.334,7604.84 775.5,7598.5C 788.888,7604.08 802.888,7607.58 817.5,7609C 930.171,7609.74 1042.84,7610.07 1155.5,7610C 1180.13,7613.04 1204.79,7615.71 1229.5,7618C 1278.51,7619.06 1327.51,7620.06 1376.5,7621C 1380.98,7619.73 1385.31,7618.06 1389.5,7616C 1392.67,7612.83 1395.83,7609.67 1399,7606.5C 1409.25,7589 1419.25,7571.33 1429,7553.5C 1434.26,7541.38 1430.43,7533.88 1417.5,7531C 1390.5,7530.68 1363.5,7530.18 1336.5,7529.5C 1213.84,7530.17 1091.17,7530.34 968.5,7530C 909.713,7531.41 851.047,7534.74 792.5,7540C 786.864,7540.73 782.697,7543.56 780,7548.5C 779.813,7556.21 780.146,7563.88 781,7571.5C 778.886,7575.59 776.053,7578.93 772.5,7581.5C 760.495,7557.33 751.328,7532 745,7505.5C 732.305,7445.69 718.971,7386.02 705,7326.5C 644.302,7047.91 606.302,6766.25 591,6481.5C 590.122,6438.48 590.622,6395.48 592.5,6352.5C 593.49,6358.64 593.823,6364.98 593.5,6371.5C 611.393,6374.82 629.393,6377.65 647.5,6380C 717.841,6380.97 788.174,6382.3 858.5,6384C 973.164,6392.08 1087.83,6400.08 1202.5,6408C 1209.5,6408.67 1216.5,6408.67 1223.5,6408C 1227.91,6407.88 1231.41,6406.05 1234,6402.5C 1244.94,6383.9 1256.27,6365.57 1268,6347.5C 1272.8,6338.4 1276.63,6328.9 1279.5,6319C 1275.62,6316.23 1271.28,6314.23 1266.5,6313C 1051.84,6311.37 837.169,6310.37 622.5,6310C 610.741,6314.26 600.741,6321.09 592.5,6330.5C 587.224,6309.63 584.391,6288.3 584,6266.5C 584.004,5994.76 601.004,5724.09 635,5454.5C 647.52,5358.71 662.853,5263.38 681,5168.5C 681.095,5151.16 681.095,5133.83 681,5116.5C 682.009,5108.95 684.842,5102.28 689.5,5096.5C 690.615,5108.91 693.449,5120.91 698,5132.5C 703.026,5139.61 709.859,5144.11 718.5,5146C 826.5,5170 934.5,5194 1042.5,5218C 1087.75,5229.23 1132.75,5241.23 1177.5,5254C 1218.72,5264.85 1260.22,5274.35 1302,5282.5C 1307.77,5282.01 1313.27,5280.51 1318.5,5278C 1328.44,5267.3 1338.27,5256.47 1348,5245.5C 1358.04,5234.77 1365.54,5222.43 1370.5,5208.5C 1360.05,5201.96 1348.71,5197.46 1336.5,5195C 1321.09,5193.16 1305.75,5190.82 1290.5,5188C 1260.14,5179.08 1229.47,5171.41 1198.5,5165C 1100.2,5147.15 1002.2,5127.82 904.5,5107C 837.247,5094.65 769.913,5082.82 702.5,5071.5C 705.173,5037.13 710.339,5003.13 718,4969.5C 779.59,4695.4 860.923,4427.4 962,4165.5C 1100.95,3809.9 1274.62,3473.57 1483,3156.5C 1680.44,2856.6 1904.11,2576.6 2154,2316.5C 2558.12,1901.87 3014.62,1558.37 3523.5,1286C 3862.29,1105.17 4215.96,960.508 4584.5,852C 4931.42,752.616 5284.76,687.949 5644.5,658C 5894.16,636.372 6144.16,631.372 6394.5,643C 6442.22,645.14 6489.89,648.14 6537.5,652C 6589.15,656.887 6640.82,661.554 6692.5,666C 6887.37,669.836 7081.37,684.836 7274.5,711C 7965.52,803.23 8615.85,1017.23 9225.5,1353C 9596.48,1555.96 9938.81,1798.96 10252.5,2082C 10302.7,2129 10352.3,2176.5 10401.5,2224.5 Z"/></g>
<g><path style="opacity:1" fill="#030305" d="M 5101.5,759.5 C 5108.51,759.334 5115.51,759.5 5122.5,760C 5172.83,781.166 5222.17,804.499 5270.5,830C 5407.55,902.192 5544.88,973.858 5682.5,1045C 5692.33,1050.83 5700.17,1058.67 5706,1068.5C 5707.19,1070.04 5707.52,1071.71 5707,1073.5C 5692.61,1085.27 5677.78,1096.44 5662.5,1107C 5649.86,1115.25 5636.2,1117.91 5621.5,1115C 5611.1,1111.64 5601.1,1107.31 5591.5,1102C 5490.66,1043.41 5389.66,985.081 5288.5,927C 5230.58,894.792 5171.92,863.792 5112.5,834C 5101.49,827.497 5090.82,820.497 5080.5,813C 5070.26,809.815 5060.6,805.482 5051.5,800C 5047.84,796.018 5045.51,791.352 5044.5,786C 5044.8,783.077 5046.13,780.743 5048.5,779C 5054.39,774.887 5060.72,771.554 5067.5,769C 5078.87,765.495 5090.2,762.328 5101.5,759.5 Z"/></g>
<g><path style="opacity:1" fill="#030305" d="M 3862.5,1165.5 C 3881.7,1163.79 3900.04,1166.96 3917.5,1175C 4063.19,1250.51 4209.19,1325.51 4355.5,1400C 4397,1423.25 4438.33,1446.75 4479.5,1470.5C 4480.58,1471.36 4480.75,1472.36 4480,1473.5C 4463.52,1489.49 4445.02,1502.66 4424.5,1513C 4417.55,1517.62 4410.88,1522.62 4404.5,1528C 4400.02,1530.88 4395.36,1531.21 4390.5,1529C 4291.17,1470.67 4191.83,1412.33 4092.5,1354C 4001.66,1304.08 3910.66,1254.41 3819.5,1205C 3812.38,1198.27 3811.72,1190.93 3817.5,1183C 3831.94,1175.47 3846.94,1169.64 3862.5,1165.5 Z"/></g>
<g><path style="opacity:0.99" fill="#fefdfc" d="M 10534.5,2355.5 C 10535.2,2355.37 10535.9,2355.54 10536.5,2356C 10563.7,2383.53 10591.2,2410.69 10619,2437.5C 10638.3,2457.51 10651.4,2481.01 10658.5,2508C 10649.1,2511.45 10639.8,2511.11 10630.5,2507C 10625.6,2504.39 10620.9,2501.39 10616.5,2498C 10516.4,2414.31 10413.1,2334.97 10306.5,2260C 10019.2,2057.27 9712.51,1886.27 9386.5,1747C 9010.96,1589.44 8621.62,1480.11 8218.5,1419C 8022.87,1389.37 7826.2,1370.37 7628.5,1362C 7554.39,1357.93 7480.22,1355.43 7406,1354.5C 7173.34,1358.58 6941.84,1377.08 6711.5,1410C 6222.71,1485.27 5757.04,1632.6 5314.5,1852C 4937.33,2038.61 4588.33,2266.27 4267.5,2535C 3968.48,2786.3 3704.31,3068.8 3475,3382.5C 3232.32,3718.74 3035.32,4081.74 2884,4471.5C 2798.01,4692.46 2726.67,4918.13 2670,5148.5C 2625.69,5332.37 2593.69,5518.37 2574,5706.5C 2534.44,6055.69 2529.77,6405.36 2560,6755.5C 2592.57,7095.03 2660.24,7427.36 2763,7752.5C 2913.66,8228.78 3129.32,8671.78 3410,9081.5C 3565.9,9306.99 3740.07,9518.33 3932.5,9715.5C 3931.61,9714.89 3930.61,9714.56 3929.5,9714.5C 3920.53,9706.19 3911.86,9697.53 3903.5,9688.5C 3891.17,9675.5 3878.5,9662.83 3865.5,9650.5C 3854.17,9638.5 3842.5,9626.83 3830.5,9615.5C 3828.57,9611.9 3825.9,9608.9 3822.5,9606.5C 3808.51,9593.34 3795.01,9579.67 3782,9565.5C 3780.67,9563.5 3779.33,9561.5 3778,9559.5C 3771.96,9555.12 3766.96,9549.79 3763,9543.5C 3757.62,9539.79 3753.29,9535.12 3750,9529.5C 3745.28,9526.45 3741.62,9522.45 3739,9517.5C 3726.54,9505.22 3714.54,9492.55 3703,9479.5C 3700.97,9475.31 3697.97,9471.98 3694,9469.5C 3692.11,9465.87 3689.44,9462.87 3686,9460.5C 3684.11,9456.87 3681.44,9453.87 3678,9451.5C 3676.64,9447.99 3674.31,9445.32 3671,9443.5C 3669.64,9439.99 3667.31,9437.32 3664,9435.5C 3656.87,9426.29 3649.53,9417.29 3642,9408.5C 3636.33,9402.5 3630.67,9396.5 3625,9390.5C 3607.55,9369.73 3590.21,9349.07 3573,9328.5C 3570.84,9325.71 3568.84,9322.71 3567,9319.5C 3561.7,9314.86 3557.37,9309.53 3554,9303.5C 3551.33,9300.83 3548.67,9298.17 3546,9295.5C 3545.77,9292.94 3544.44,9291.27 3542,9290.5C 3541.77,9287.94 3540.44,9286.27 3538,9285.5C 3537.77,9282.94 3536.44,9281.27 3534,9280.5C 3518.16,9259.49 3501.82,9238.83 3485,9218.5C 3483.96,9215.99 3482.63,9213.65 3481,9211.5C 3480,9210.83 3479,9210.17 3478,9209.5C 3452.27,9174.93 3426.27,9140.26 3400,9105.5C 3390.52,9091.95 3381.19,9078.28 3372,9064.5C 3365.35,9057.3 3359.68,9049.3 3355,9040.5C 3351.59,9037.95 3349.25,9034.62 3348,9030.5C 3344.59,9027.95 3342.25,9024.62 3341,9020.5C 3337.36,9016.55 3334.36,9012.21 3332,9007.5C 3327.53,9002.7 3323.86,8997.37 3321,8991.5C 3304.52,8968.95 3288.85,8945.61 3274,8921.5C 3271.75,8919.38 3269.75,8917.04 3268,8914.5C 3265,8909.17 3262,8903.83 3259,8898.5C 3254.76,8893.3 3251.09,8887.63 3248,8881.5C 3235.57,8864.3 3223.9,8846.63 3213,8828.5C 3212.07,8826.54 3211.24,8824.54 3210.5,8822.5C 3083.24,8619.01 2970.74,8407.01 2873,8186.5C 2793.32,8004.17 2723.99,7816.84 2665,7624.5C 2634.74,7521.14 2606.74,7416.81 2581,7311.5C 2527.43,7083.13 2491.1,6851.79 2472,6617.5C 2448.46,6302.07 2453.13,5987.07 2486,5672.5C 2507.86,5443.68 2547.52,5218.02 2605,4995.5C 2673.2,4735.87 2759.2,4483.54 2863,4238.5C 2944.8,4046.9 3038.47,3860.9 3144,3680.5C 3317.65,3385.22 3520.81,3113.22 3753.5,2864.5C 3756.9,2862.1 3759.57,2859.1 3761.5,2855.5C 3776.47,2839.2 3791.8,2823.2 3807.5,2807.5C 3813.56,2802.44 3818.89,2796.78 3823.5,2790.5C 3830.14,2783.19 3837.14,2776.19 3844.5,2769.5C 3862.5,2752.17 3880.17,2734.5 3897.5,2716.5C 3904.19,2709.14 3911.19,2702.14 3918.5,2695.5C 3924.78,2690.89 3930.44,2685.56 3935.5,2679.5C 3954.37,2661.56 3973.04,2643.39 3991.5,2625C 3993.5,2623.67 3995.5,2622.33 3997.5,2621C 4000.88,2615.95 4005.21,2611.95 4010.5,2609C 4013.88,2603.95 4018.21,2599.95 4023.5,2597C 4036.12,2585.01 4048.79,2573.01 4061.5,2561C 4461.38,2203.91 4908.04,1913.91 5401.5,1691C 5777.9,1521.94 6171.9,1403.6 6583.5,1336C 6804.91,1302.02 7027.57,1281.69 7251.5,1275C 7368.95,1273.38 7486.28,1276.38 7603.5,1284C 7992.06,1303.82 8373.06,1365.82 8746.5,1470C 8899.95,1514.26 9050.95,1565.26 9199.5,1623C 9318.96,1670.69 9437.29,1723.03 9554.5,1780C 9829.65,1917.37 10089.7,2076.71 10334.5,2258C 10374.9,2289 10415.3,2320 10455.5,2351C 10462.8,2357.16 10470.1,2363.49 10477.5,2370C 10481.8,2373 10486.2,2376 10490.5,2379C 10491.2,2380 10491.8,2381 10492.5,2382C 10497.3,2385.37 10501.9,2388.7 10506.5,2392C 10519,2402.29 10531.3,2412.79 10543.5,2423.5C 10553.4,2429.42 10564.1,2431.09 10575.5,2428.5C 10571.6,2410.79 10564.5,2394.46 10554,2379.5C 10547.3,2371.69 10540.8,2363.69 10534.5,2355.5 Z"/></g>
<g><path style="opacity:0.999" fill="#ffbd18" d="M 7557.5,1885.5 C 7447.2,2011.98 7337.7,2139.31 7229,2267.5C 7204.28,2296.42 7172.78,2308.58 7134.5,2304C 7062.36,2299.64 6990.36,2293.64 6918.5,2286C 6574.94,2266.24 6235.6,2295.24 5900.5,2373C 5745.04,2409.15 5591.71,2452.82 5440.5,2504C 5322.44,2545.52 5205.44,2590.18 5089.5,2638C 5032.1,2663.36 4976.44,2691.86 4922.5,2723.5C 4921.83,2723.5 4921.5,2723.83 4921.5,2724.5C 4921.17,2724.5 4920.83,2724.5 4920.5,2724.5C 4919.83,2724.5 4919.5,2724.83 4919.5,2725.5C 4918.83,2725.5 4918.5,2725.83 4918.5,2726.5C 4917.51,2726.33 4916.84,2726.66 4916.5,2727.5C 4915.83,2727.5 4915.5,2727.83 4915.5,2728.5C 4914.51,2728.33 4913.84,2728.66 4913.5,2729.5C 4863,2758.84 4813.67,2790 4765.5,2823C 4644.22,2907.28 4523.22,2991.94 4402.5,3077C 4363.42,3107.06 4326.42,3139.73 4291.5,3175C 4276.77,3186.45 4263.94,3184.62 4253,3169.5C 4247.15,3157.57 4247.81,3145.9 4255,3134.5C 4262.1,3123.17 4270.93,3113.34 4281.5,3105C 4369.13,3030.37 4456.46,2955.37 4543.5,2880C 4598.54,2833.29 4653.87,2786.96 4709.5,2741C 4807.5,2665.16 4909.17,2594.49 5014.5,2529C 5115.84,2466.33 5217.84,2404.66 5320.5,2344C 5703.58,2123.4 6113.24,1974.4 6549.5,1897C 6784.5,1854.37 7021.17,1825.37 7259.5,1810C 7299.83,1810.11 7340.17,1810.11 7380.5,1810C 7432.83,1807.56 7485.16,1805.22 7537.5,1803C 7560.83,1802.33 7584.17,1802.33 7607.5,1803C 7612.64,1804.4 7616.97,1807.07 7620.5,1811C 7599.66,1836 7578.66,1860.83 7557.5,1885.5 Z"/></g>
<g><path style="opacity:1" fill="#030305" d="M 2791.5,1819.5 C 2808.95,1817.76 2825.62,1820.59 2841.5,1828C 2950.55,1881.02 3058.88,1935.36 3166.5,1991C 3230.53,2026.68 3295.2,2061.35 3360.5,2095C 3378.24,2105.07 3394.57,2117.07 3409.5,2131C 3395.42,2145.87 3379.09,2157.53 3360.5,2166C 3338.18,2174.57 3315.85,2174.57 3293.5,2166C 3286.17,2162.67 3278.83,2159.33 3271.5,2156C 3191.32,2104.74 3109.66,2055.74 3026.5,2009C 2945.49,1963.83 2864.15,1919.16 2782.5,1875C 2770.84,1869.14 2758.84,1864.14 2746.5,1860C 2742.81,1857.27 2739.81,1853.94 2737.5,1850C 2752.78,1834.87 2770.78,1824.7 2791.5,1819.5 Z"/></g>
<g><path style="opacity:0.992" fill="#fffdfc" d="M 4913.5,2729.5 C 4914.49,2729.67 4915.16,2729.34 4915.5,2728.5C 4916.17,2728.5 4916.5,2728.17 4916.5,2727.5C 4917.49,2727.67 4918.16,2727.34 4918.5,2726.5C 4919.17,2726.5 4919.5,2726.17 4919.5,2725.5C 4919.5,2724.83 4919.83,2724.5 4920.5,2724.5C 4920.83,2725.83 4921.17,2725.83 4921.5,2724.5C 4922.17,2724.5 4922.5,2724.17 4922.5,2723.5C 4976.44,2691.86 5032.1,2663.36 5089.5,2638C 5205.44,2590.18 5322.44,2545.52 5440.5,2504C 5591.71,2452.82 5745.04,2409.15 5900.5,2373C 6235.6,2295.24 6574.94,2266.24 6918.5,2286C 6990.36,2293.64 7062.36,2299.64 7134.5,2304C 7172.78,2308.58 7204.28,2296.42 7229,2267.5C 7337.7,2139.31 7447.2,2011.98 7557.5,1885.5C 7601.46,1882.92 7645.46,1882.09 7689.5,1883C 7694.64,1884.4 7698.97,1887.07 7702.5,1891C 7571.33,2044.17 7440.17,2197.33 7309,2350.5C 7288.83,2373.25 7263.49,2384.92 7233,2385.5C 7183.83,2382.09 7134.66,2378.59 7085.5,2375C 7047.92,2370.68 7010.25,2367.34 6972.5,2365C 6661.63,2349.66 6353.96,2374.32 6049.5,2439C 5860.16,2479.5 5674.16,2531.83 5491.5,2596C 5364.37,2640.07 5239.37,2689.4 5116.5,2744C 5022.71,2790.7 4933.05,2843.7 4847.5,2903C 4736.83,2980.33 4626.17,3057.67 4515.5,3135C 4464.65,3170.49 4417.31,3210.49 4373.5,3255C 4358.77,3266.45 4345.94,3264.62 4335,3249.5C 4329.15,3237.57 4329.81,3225.9 4337,3214.5C 4342.41,3206.42 4348.58,3198.92 4355.5,3192C 4490.21,3076.29 4625.21,2960.96 4760.5,2846C 4810.49,2805.69 4861.49,2766.86 4913.5,2729.5 Z"/></g>
<g><path style="opacity:1" fill="#ff9d23" d="M 9163.5,2224.5 C 9163.17,2224.5 9162.83,2224.5 9162.5,2224.5C 9159.17,2225.83 9156.83,2228.17 9155.5,2231.5C 9148.5,2239.17 9141.17,2246.5 9133.5,2253.5C 9129.43,2256.56 9126.1,2260.23 9123.5,2264.5C 9114.17,2274.5 9104.5,2284.17 9094.5,2293.5C 9089.11,2297.89 9084.44,2302.89 9080.5,2308.5C 9031.17,2358.5 8981.5,2408.17 8931.5,2457.5C 8926.23,2461.1 8921.56,2465.44 8917.5,2470.5C 8908.5,2480.17 8899.17,2489.5 8889.5,2498.5C 8885.56,2500.77 8882.23,2503.77 8879.5,2507.5C 8873.17,2514.5 8866.5,2521.17 8859.5,2527.5C 8856.24,2529.09 8853.57,2531.43 8851.5,2534.5C 8846.17,2540.5 8840.5,2546.17 8834.5,2551.5C 8831.57,2552.76 8829.24,2554.76 8827.5,2557.5C 8822.83,2562.83 8817.83,2567.83 8812.5,2572.5C 8809.91,2573.42 8807.91,2575.09 8806.5,2577.5C 8802.5,2582.17 8798.17,2586.5 8793.5,2590.5C 8790.91,2591.42 8788.91,2593.09 8787.5,2595.5C 8783.83,2599.83 8779.83,2603.83 8775.5,2607.5C 8773.25,2608.08 8771.58,2609.41 8770.5,2611.5C 8767.17,2615.5 8763.5,2619.17 8759.5,2622.5C 8757.25,2623.08 8755.58,2624.41 8754.5,2626.5C 8751.5,2630.17 8748.17,2633.5 8744.5,2636.5C 8742.25,2637.08 8740.58,2638.41 8739.5,2640.5C 8736.5,2644.17 8733.17,2647.5 8729.5,2650.5C 8727.25,2651.08 8725.58,2652.41 8724.5,2654.5C 8722.17,2657.5 8719.5,2660.17 8716.5,2662.5C 8714.25,2663.08 8712.58,2664.41 8711.5,2666.5C 8706.8,2671.75 8701.8,2676.59 8696.5,2681C 8689.96,2685.46 8683.63,2690.13 8677.5,2695C 8640.09,2732.89 8596.09,2742.22 8545.5,2723C 8478.3,2687.57 8410.64,2652.9 8342.5,2619C 8217.68,2560.95 8089.35,2511.95 7957.5,2472C 7906.96,2457.2 7856.29,2443.03 7805.5,2429.5C 7765.86,2419.26 7726.53,2408.09 7687.5,2396C 7700.86,2376.97 7715.36,2358.8 7731,2341.5C 7774.43,2297.07 7816.77,2251.74 7858,2205.5C 7947.67,2109.17 8037.33,2012.83 8127,1916.5C 8138.7,1904.07 8152.87,1895.9 8169.5,1892C 8180.37,1890.86 8191.04,1891.86 8201.5,1895C 8532.32,1989.22 8863.32,2082.72 9194.5,2175.5C 9195.46,2183.05 9193.96,2190.05 9190,2196.5C 9181.33,2206 9172.49,2215.34 9163.5,2224.5 Z"/></g>
<g><path style="opacity:0.991" fill="#fffdfc" d="M 9162.5,2224.5 C 9162.83,2224.5 9163.17,2224.5 9163.5,2224.5C 9201.13,2234.99 9238.8,2245.32 9276.5,2255.5C 9277.69,2264.43 9275.52,2272.43 9270,2279.5C 9113.27,2442.9 8952.1,2601.4 8786.5,2755C 8770.2,2768.81 8753.53,2782.15 8736.5,2795C 8702.07,2816.25 8666.07,2819.25 8628.5,2804C 8555.12,2765.31 8481.12,2727.64 8406.5,2691C 8281.06,2633.79 8152.06,2585.79 8019.5,2547C 7936.54,2523.51 7853.54,2500.18 7770.5,2477C 7770.17,2476.67 7769.83,2476.33 7769.5,2476C 7780.95,2460.05 7792.95,2444.55 7805.5,2429.5C 7856.29,2443.03 7906.96,2457.2 7957.5,2472C 8089.35,2511.95 8217.68,2560.95 8342.5,2619C 8410.64,2652.9 8478.3,2687.57 8545.5,2723C 8596.09,2742.22 8640.09,2732.89 8677.5,2695C 8683.63,2690.13 8689.96,2685.46 8696.5,2681C 8701.8,2676.59 8706.8,2671.75 8711.5,2666.5C 8713.75,2665.92 8715.42,2664.59 8716.5,2662.5C 8719.5,2660.17 8722.17,2657.5 8724.5,2654.5C 8726.75,2653.92 8728.42,2652.59 8729.5,2650.5C 8733.17,2647.5 8736.5,2644.17 8739.5,2640.5C 8741.75,2639.92 8743.42,2638.59 8744.5,2636.5C 8748.17,2633.5 8751.5,2630.17 8754.5,2626.5C 8756.75,2625.92 8758.42,2624.59 8759.5,2622.5C 8763.5,2619.17 8767.17,2615.5 8770.5,2611.5C 8772.75,2610.92 8774.42,2609.59 8775.5,2607.5C 8779.83,2603.83 8783.83,2599.83 8787.5,2595.5C 8790.09,2594.58 8792.09,2592.91 8793.5,2590.5C 8798.17,2586.5 8802.5,2582.17 8806.5,2577.5C 8809.09,2576.58 8811.09,2574.91 8812.5,2572.5C 8817.83,2567.83 8822.83,2562.83 8827.5,2557.5C 8830.43,2556.24 8832.76,2554.24 8834.5,2551.5C 8840.5,2546.17 8846.17,2540.5 8851.5,2534.5C 8854.76,2532.91 8857.43,2530.57 8859.5,2527.5C 8866.5,2521.17 8873.17,2514.5 8879.5,2507.5C 8883.44,2505.23 8886.77,2502.23 8889.5,2498.5C 8899.17,2489.5 8908.5,2480.17 8917.5,2470.5C 8922.77,2466.9 8927.44,2462.56 8931.5,2457.5C 8981.5,2408.17 9031.17,2358.5 9080.5,2308.5C 9085.89,2304.11 9090.56,2299.11 9094.5,2293.5C 9104.5,2284.17 9114.17,2274.5 9123.5,2264.5C 9127.57,2261.44 9130.9,2257.77 9133.5,2253.5C 9141.17,2246.5 9148.5,2239.17 9155.5,2231.5C 9158.17,2229.5 9160.5,2227.17 9162.5,2224.5 Z"/></g>
<g><path style="opacity:0.796" fill="#a9a19e" d="M 10401.5,2224.5 C 10409.6,2231.91 10417.2,2239.58 10424.5,2247.5C 10416.6,2241.09 10409.1,2234.09 10402,2226.5C 10401.5,2225.91 10401.4,2225.24 10401.5,2224.5 Z"/></g>
<g><path style="opacity:1" fill="#ffcd93" d="M 9162.5,2224.5 C 9160.5,2227.17 9158.17,2229.5 9155.5,2231.5C 9156.83,2228.17 9159.17,2225.83 9162.5,2224.5 Z"/></g>
<g><path style="opacity:0.796" fill="#9f9d9e" d="M 10424.5,2247.5 C 10430.2,2252.5 10435.5,2257.83 10440.5,2263.5C 10434.2,2259.17 10428.8,2253.83 10424.5,2247.5 Z"/></g>
<g><path style="opacity:1" fill="#ffd197" d="M 9133.5,2253.5 C 9130.9,2257.77 9127.57,2261.44 9123.5,2264.5C 9126.1,2260.23 9129.43,2256.56 9133.5,2253.5 Z"/></g>
<g><path style="opacity:0.796" fill="#b5b5b6" d="M 10449.5,2271.5 C 10456.5,2277.88 10463.2,2284.55 10469.5,2291.5C 10462.9,2286.25 10456.6,2280.58 10450.5,2274.5C 10449.9,2273.58 10449.5,2272.58 10449.5,2271.5 Z"/></g>
<g><path style="opacity:1" fill="#ffd297" d="M 9094.5,2293.5 C 9090.56,2299.11 9085.89,2304.11 9080.5,2308.5C 9084.44,2302.89 9089.11,2297.89 9094.5,2293.5 Z"/></g>
<g><path style="opacity:0.686" fill="#bbbabb" d="M 10471.5,2293.5 C 10478.5,2300.13 10485.5,2306.8 10492.5,2313.5C 10491.4,2313.65 10490.4,2313.48 10489.5,2313C 10482.9,2306.91 10476.9,2300.41 10471.5,2293.5 Z"/></g>
<g><path style="opacity:0.796" fill="#b9b9bb" d="M 10500.5,2321.5 C 10506.2,2326.55 10511.5,2331.88 10516.5,2337.5C 10510.2,2333.17 10504.8,2327.83 10500.5,2321.5 Z"/></g>
<g><path style="opacity:0.686" fill="#b1b0b3" d="M 10518.5,2339.5 C 10524.2,2344.5 10529.5,2349.83 10534.5,2355.5C 10528.2,2351.17 10522.8,2345.83 10518.5,2339.5 Z"/></g>
<g><path style="opacity:1" fill="#ff7d2b" d="M 10357.5,2915.5 C 10356.3,2927.37 10352.4,2938.37 10346,2948.5C 10328.7,2967.01 10310.8,2985.01 10292.5,3002.5C 10283.6,3009.78 10275.2,3017.78 10267.5,3026.5C 10244.8,3049.83 10221.8,3072.83 10198.5,3095.5C 10189.9,3102.44 10181.9,3110.11 10174.5,3118.5C 10153.2,3140.5 10131.5,3162.17 10109.5,3183.5C 10101.2,3190.11 10093.6,3197.44 10086.5,3205.5C 10066.8,3225.83 10046.8,3245.83 10026.5,3265.5C 10020.2,3270.11 10014.6,3275.44 10009.5,3281.5C 9994.83,3296.83 9979.83,3311.83 9964.5,3326.5C 9958.22,3331.11 9952.56,3336.44 9947.5,3342.5C 9934.17,3356.5 9920.5,3370.17 9906.5,3383.5C 9900.56,3387.77 9895.22,3392.77 9890.5,3398.5C 9877.83,3411.83 9864.83,3424.83 9851.5,3437.5C 9845.83,3441.17 9841.17,3445.83 9837.5,3451.5C 9824.83,3463.83 9812.17,3476.17 9799.5,3488.5C 9794.56,3491.77 9790.23,3495.77 9786.5,3500.5C 9777.83,3509.83 9768.83,3518.83 9759.5,3527.5C 9756.91,3528.42 9754.91,3530.09 9753.5,3532.5C 9748.17,3536.67 9743.17,3541.17 9738.5,3546C 9733.71,3548.92 9729.04,3552.08 9724.5,3555.5C 9719.89,3557.14 9715.55,3559.31 9711.5,3562C 9698.8,3565.96 9686.47,3565.13 9674.5,3559.5C 9666.49,3555.33 9659.16,3550.16 9652.5,3544C 9625.36,3514.36 9597.69,3485.19 9569.5,3456.5C 9569.65,3455.45 9569.48,3454.45 9569,3453.5C 9555.58,3439.58 9541.75,3426.24 9527.5,3413.5C 9518.83,3405.5 9510.5,3397.17 9502.5,3388.5C 9500.76,3385.76 9498.43,3383.76 9495.5,3382.5C 9490.5,3378.17 9485.83,3373.5 9481.5,3368.5C 9480.42,3366.41 9478.75,3365.08 9476.5,3364.5C 9472.5,3361.17 9468.83,3357.5 9465.5,3353.5C 9464.42,3351.41 9462.75,3350.08 9460.5,3349.5C 9457.17,3346.83 9454.17,3343.83 9451.5,3340.5C 9450.42,3338.41 9448.75,3337.08 9446.5,3336.5C 9443.83,3334.5 9441.5,3332.17 9439.5,3329.5C 9438.42,3327.41 9436.75,3326.08 9434.5,3325.5C 9432.17,3323.83 9430.17,3321.83 9428.5,3319.5C 9427.42,3317.41 9425.75,3316.08 9423.5,3315.5C 9314.41,3218.67 9202.41,3125.67 9087.5,3036.5C 9086.6,3034.27 9084.93,3033.27 9082.5,3033.5C 9066.71,3021.55 9051.04,3009.38 9035.5,2997C 9024.27,2988 9014.77,2977.5 9007,2965.5C 8998.93,2952.66 8998.6,2939.66 9006,2926.5C 9010.12,2920.71 9014.62,2915.21 9019.5,2910C 9067.2,2869.81 9113.53,2827.98 9158.5,2784.5C 9162.1,2782.57 9165.1,2779.9 9167.5,2776.5C 9195.17,2748.5 9222.83,2720.5 9250.5,2692.5C 9254.5,2690.5 9257.5,2687.5 9259.5,2683.5C 9301.16,2639.84 9343.16,2596.5 9385.5,2553.5C 9390.5,2550.5 9394.5,2546.5 9397.5,2541.5C 9450.35,2487.48 9504.02,2434.31 9558.5,2382C 9574.32,2370.93 9590.98,2369.59 9608.5,2378C 9702.18,2420.98 9790.51,2472.31 9873.5,2532C 10027,2647.91 10180.7,2763.58 10334.5,2879C 10345.1,2886.91 10352.6,2897.08 10357,2909.5C 10357.5,2911.47 10357.7,2913.47 10357.5,2915.5 Z"/></g>
<g><path style="opacity:1" fill="#ffd399" d="M 8931.5,2457.5 C 8927.44,2462.56 8922.77,2466.9 8917.5,2470.5C 8921.56,2465.44 8926.23,2461.1 8931.5,2457.5 Z"/></g>
<g><path style="opacity:1" fill="#ffd39a" d="M 8889.5,2498.5 C 8886.77,2502.23 8883.44,2505.23 8879.5,2507.5C 8882.23,2503.77 8885.56,2500.77 8889.5,2498.5 Z"/></g>
<g><path style="opacity:1" fill="#ffd399" d="M 8859.5,2527.5 C 8857.43,2530.57 8854.76,2532.91 8851.5,2534.5C 8853.57,2531.43 8856.24,2529.09 8859.5,2527.5 Z"/></g>
<g><path style="opacity:0.616" fill="#ffa978" d="M 9397.5,2541.5 C 9394.5,2546.5 9390.5,2550.5 9385.5,2553.5C 9389.17,2549.17 9393.17,2545.17 9397.5,2541.5 Z"/></g>
<g><path style="opacity:1" fill="#ffd198" d="M 8834.5,2551.5 C 8832.76,2554.24 8830.43,2556.24 8827.5,2557.5C 8829.24,2554.76 8831.57,2552.76 8834.5,2551.5 Z"/></g>
<g><path style="opacity:1" fill="#ffd299" d="M 8812.5,2572.5 C 8811.09,2574.91 8809.09,2576.58 8806.5,2577.5C 8807.91,2575.09 8809.91,2573.42 8812.5,2572.5 Z"/></g>
<g><path style="opacity:1" fill="#ffcf98" d="M 8793.5,2590.5 C 8792.09,2592.91 8790.09,2594.58 8787.5,2595.5C 8788.91,2593.09 8790.91,2591.42 8793.5,2590.5 Z"/></g>
<g><path style="opacity:1" fill="#ffd29a" d="M 8775.5,2607.5 C 8774.42,2609.59 8772.75,2610.92 8770.5,2611.5C 8771.58,2609.41 8773.25,2608.08 8775.5,2607.5 Z"/></g>
<g><path style="opacity:1" fill="#ffd49a" d="M 8759.5,2622.5 C 8758.42,2624.59 8756.75,2625.92 8754.5,2626.5C 8755.58,2624.41 8757.25,2623.08 8759.5,2622.5 Z"/></g>
<g><path style="opacity:1" fill="#ffd398" d="M 8744.5,2636.5 C 8743.42,2638.59 8741.75,2639.92 8739.5,2640.5C 8740.58,2638.41 8742.25,2637.08 8744.5,2636.5 Z"/></g>
<g><path style="opacity:1" fill="#ffd59b" d="M 8729.5,2650.5 C 8728.42,2652.59 8726.75,2653.92 8724.5,2654.5C 8725.58,2652.41 8727.25,2651.08 8729.5,2650.5 Z"/></g>
<g><path style="opacity:1" fill="#ffd398" d="M 8716.5,2662.5 C 8715.42,2664.59 8713.75,2665.92 8711.5,2666.5C 8712.58,2664.41 8714.25,2663.08 8716.5,2662.5 Z"/></g>
<g><path style="opacity:0.616" fill="#ffa97a" d="M 9259.5,2683.5 C 9257.5,2687.5 9254.5,2690.5 9250.5,2692.5C 9253.17,2689.17 9256.17,2686.17 9259.5,2683.5 Z"/></g>
<g><path style="opacity:1" fill="#c0c0c2" d="M 3935.5,2679.5 C 3930.44,2685.56 3924.78,2690.89 3918.5,2695.5C 3923.56,2689.44 3929.22,2684.11 3935.5,2679.5 Z"/></g>
<g><path style="opacity:1" fill="#b1b1b4" d="M 3897.5,2716.5 C 3880.17,2734.5 3862.5,2752.17 3844.5,2769.5C 3844.37,2768.76 3844.54,2768.09 3845,2767.5C 3862.09,2749.91 3879.59,2732.91 3897.5,2716.5 Z"/></g>
<g><path style="opacity:1" fill="#030305" d="M 1830.5,2755.5 C 1848.87,2755.34 1866.54,2758.84 1883.5,2766C 2021.16,2836.5 2159.16,2906.5 2297.5,2976C 2347.85,3002.5 2396.85,3031 2444.5,3061.5C 2443.4,3064.3 2442.4,3067.13 2441.5,3070C 2424.61,3083.54 2406.61,3095.54 2387.5,3106C 2375.98,3111.55 2363.98,3112.89 2351.5,3110C 2343.95,3107.56 2336.62,3104.56 2329.5,3101C 2151.38,2993.59 1970.04,2891.25 1785.5,2794C 1781.25,2790.42 1777.75,2786.25 1775,2781.5C 1774.37,2779.1 1775.2,2777.26 1777.5,2776C 1793.65,2764.9 1811.31,2758.07 1830.5,2755.5 Z"/></g>
<g><path style="opacity:0.616" fill="#ffa777" d="M 9167.5,2776.5 C 9165.1,2779.9 9162.1,2782.57 9158.5,2784.5C 9160.9,2781.1 9163.9,2778.43 9167.5,2776.5 Z"/></g>
<g><path style="opacity:1" fill="#b8b8bb" d="M 3823.5,2790.5 C 3818.89,2796.78 3813.56,2802.44 3807.5,2807.5C 3812.11,2801.22 3817.44,2795.56 3823.5,2790.5 Z"/></g>
<g><path style="opacity:1" fill="#b6b6b8" d="M 3761.5,2855.5 C 3759.57,2859.1 3756.9,2862.1 3753.5,2864.5C 3755.43,2860.9 3758.1,2857.9 3761.5,2855.5 Z"/></g>
<g><path style="opacity:0.994" fill="#fffdfc" d="M 10357.5,2915.5 C 10377.1,2929.98 10396.8,2944.48 10416.5,2959C 10444.9,2982.1 10447,3007.6 10423,3035.5C 10230.1,3227.06 10036.6,3417.89 9842.5,3608C 9829.18,3621.32 9814.18,3632.32 9797.5,3641C 9781.49,3647.74 9766.16,3646.41 9751.5,3637C 9745.65,3632.91 9739.99,3628.58 9734.5,3624C 9714.29,3602.63 9694.29,3581.13 9674.5,3559.5C 9686.47,3565.13 9698.8,3565.96 9711.5,3562C 9715.55,3559.31 9719.89,3557.14 9724.5,3555.5C 9729.04,3552.08 9733.71,3548.92 9738.5,3546C 9743.17,3541.17 9748.17,3536.67 9753.5,3532.5C 9756.09,3531.58 9758.09,3529.91 9759.5,3527.5C 9768.83,3518.83 9777.83,3509.83 9786.5,3500.5C 9791.44,3497.23 9795.77,3493.23 9799.5,3488.5C 9812.17,3476.17 9824.83,3463.83 9837.5,3451.5C 9842.5,3447.17 9847.17,3442.5 9851.5,3437.5C 9864.83,3424.83 9877.83,3411.83 9890.5,3398.5C 9896.44,3394.23 9901.78,3389.23 9906.5,3383.5C 9920.5,3370.17 9934.17,3356.5 9947.5,3342.5C 9953.78,3337.89 9959.44,3332.56 9964.5,3326.5C 9979.83,3311.83 9994.83,3296.83 10009.5,3281.5C 10015.8,3276.89 10021.4,3271.56 10026.5,3265.5C 10046.8,3245.83 10066.8,3225.83 10086.5,3205.5C 10094.8,3198.89 10102.4,3191.56 10109.5,3183.5C 10131.5,3162.17 10153.2,3140.5 10174.5,3118.5C 10183.1,3111.56 10191.1,3103.89 10198.5,3095.5C 10221.8,3072.83 10244.8,3049.83 10267.5,3026.5C 10276.4,3019.22 10284.8,3011.22 10292.5,3002.5C 10310.8,2985.01 10328.7,2967.01 10346,2948.5C 10352.4,2938.37 10356.3,2927.37 10357.5,2915.5 Z"/></g>
<g><path style="opacity:1" fill="#ffbf95" d="M 10292.5,3002.5 C 10284.8,3011.22 10276.4,3019.22 10267.5,3026.5C 10275.2,3017.78 10283.6,3009.78 10292.5,3002.5 Z"/></g>
<g><path style="opacity:0.769" fill="#ffae86" d="M 9082.5,3033.5 C 9084.93,3033.27 9086.6,3034.27 9087.5,3036.5C 9086.83,3036.5 9086.17,3036.5 9085.5,3036.5C 9084.5,3035.5 9083.5,3034.5 9082.5,3033.5 Z"/></g>
<g><path style="opacity:0.925" fill="#fffdfc" d="M 9085.5,3036.5 C 9086.17,3036.5 9086.83,3036.5 9087.5,3036.5C 9202.41,3125.67 9314.41,3218.67 9423.5,3315.5C 9424.58,3317.59 9426.25,3318.92 9428.5,3319.5C 9430.17,3321.83 9432.17,3323.83 9434.5,3325.5C 9435.58,3327.59 9437.25,3328.92 9439.5,3329.5C 9441.5,3332.17 9443.83,3334.5 9446.5,3336.5C 9447.58,3338.59 9449.25,3339.92 9451.5,3340.5C 9454.17,3343.83 9457.17,3346.83 9460.5,3349.5C 9461.58,3351.59 9463.25,3352.92 9465.5,3353.5C 9468.83,3357.5 9472.5,3361.17 9476.5,3364.5C 9477.58,3366.59 9479.25,3367.92 9481.5,3368.5C 9485.83,3373.5 9490.5,3378.17 9495.5,3382.5C 9497.24,3385.24 9499.57,3387.24 9502.5,3388.5C 9510.5,3397.17 9518.83,3405.5 9527.5,3413.5C 9532.83,3419.17 9538.17,3424.83 9543.5,3430.5C 9448.04,3343.86 9350.04,3260.36 9249.5,3180C 9202.99,3143.91 9156.65,3107.57 9110.5,3071C 9104.32,3064.78 9098.48,3058.28 9093,3051.5C 9089.43,3047.02 9086.93,3042.02 9085.5,3036.5 Z"/></g>
<g><path style="opacity:1" fill="#ffbf95" d="M 10198.5,3095.5 C 10191.1,3103.89 10183.1,3111.56 10174.5,3118.5C 10181.9,3110.11 10189.9,3102.44 10198.5,3095.5 Z"/></g>
<g><path style="opacity:1" fill="#ffbe95" d="M 10109.5,3183.5 C 10102.4,3191.56 10094.8,3198.89 10086.5,3205.5C 10093.6,3197.44 10101.2,3190.11 10109.5,3183.5 Z"/></g>
<g><path style="opacity:1" fill="#ff661f" d="M 10739.5,3289.5 C 10818,3378.51 10894.2,3469.51 10968,3562.5C 11052.3,3670.31 11128.6,3783.64 11197,3902.5C 11202.7,3912.27 11207.1,3922.6 11210,3933.5C 11210.7,3940.5 11210.7,3947.5 11210,3954.5C 11205,3970.66 11196.2,3984.33 11183.5,3995.5C 11117.5,4060.55 11052.1,4126.22 10987.5,4192.5C 10815.5,4365.17 10643.2,4537.5 10470.5,4709.5C 10465.8,4713.5 10461.5,4717.83 10457.5,4722.5C 10454.8,4725.86 10451.8,4728.86 10448.5,4731.5C 10440.1,4737.46 10430.8,4740.3 10420.5,4740C 10412,4737.83 10405.5,4733 10401,4725.5C 10385.4,4693.29 10370.1,4660.95 10355,4628.5C 10249.7,4379.03 10116.3,4147.03 9955,3932.5C 9949.43,3923.94 9945.93,3914.61 9944.5,3904.5C 9944.96,3897.28 9947.13,3890.62 9951,3884.5C 9955,3879.17 9959,3873.83 9963,3868.5C 10177.2,3653.92 10391.1,3439.09 10604.5,3224C 10613.8,3216.04 10624.5,3210.71 10636.5,3208C 10650.3,3206.81 10662.6,3210.48 10673.5,3219C 10677.2,3222 10680.8,3225 10684.5,3228C 10703,3248.37 10721.4,3268.87 10739.5,3289.5 Z"/></g>
<g><path style="opacity:1" fill="#ffbf95" d="M 10026.5,3265.5 C 10021.4,3271.56 10015.8,3276.89 10009.5,3281.5C 10014.6,3275.44 10020.2,3270.11 10026.5,3265.5 Z"/></g>
<g><path style="opacity:0.992" fill="#fffdfc" d="M 10739.5,3289.5 C 10752.8,3296.43 10764.7,3305.43 10775,3316.5C 10848.9,3398.69 10920.9,3482.36 10991,3567.5C 11083.1,3679.36 11167.1,3797.02 11243,3920.5C 11258.4,3945.68 11273.1,3971.34 11287,3997.5C 11296.3,4016.23 11295.6,4034.56 11285,4052.5C 11280.7,4059.11 11276.1,4065.45 11271,4071.5C 11026.5,4316.97 10781.7,4562.14 10536.5,4807C 10528.9,4813.45 10520.3,4817.78 10510.5,4820C 10498.7,4820.33 10489.5,4815.5 10483,4805.5C 10470.7,4781.16 10459.2,4756.49 10448.5,4731.5C 10451.8,4728.86 10454.8,4725.86 10457.5,4722.5C 10462.8,4719.17 10467.2,4714.83 10470.5,4709.5C 10643.2,4537.5 10815.5,4365.17 10987.5,4192.5C 11053.5,4127.45 11118.9,4061.78 11183.5,3995.5C 11196.2,3984.33 11205,3970.66 11210,3954.5C 11210.7,3947.5 11210.7,3940.5 11210,3933.5C 11207.1,3922.6 11202.7,3912.27 11197,3902.5C 11128.6,3783.64 11052.3,3670.31 10968,3562.5C 10894.2,3469.51 10818,3378.51 10739.5,3289.5 Z"/></g>
<g><path style="opacity:1" fill="#ffb789" d="M 9423.5,3315.5 C 9425.75,3316.08 9427.42,3317.41 9428.5,3319.5C 9426.25,3318.92 9424.58,3317.59 9423.5,3315.5 Z"/></g>
<g><path style="opacity:1" fill="#ffb588" d="M 9434.5,3325.5 C 9436.75,3326.08 9438.42,3327.41 9439.5,3329.5C 9437.25,3328.92 9435.58,3327.59 9434.5,3325.5 Z"/></g>
<g><path style="opacity:1" fill="#ffbf95" d="M 9964.5,3326.5 C 9959.44,3332.56 9953.78,3337.89 9947.5,3342.5C 9952.56,3336.44 9958.22,3331.11 9964.5,3326.5 Z"/></g>
<g><path style="opacity:1" fill="#ffb588" d="M 9446.5,3336.5 C 9448.75,3337.08 9450.42,3338.41 9451.5,3340.5C 9449.25,3339.92 9447.58,3338.59 9446.5,3336.5 Z"/></g>
<g><path style="opacity:1" fill="#ffb58b" d="M 9460.5,3349.5 C 9462.75,3350.08 9464.42,3351.41 9465.5,3353.5C 9463.25,3352.92 9461.58,3351.59 9460.5,3349.5 Z"/></g>
<g><path style="opacity:1" fill="#ffb78b" d="M 9476.5,3364.5 C 9478.75,3365.08 9480.42,3366.41 9481.5,3368.5C 9479.25,3367.92 9477.58,3366.59 9476.5,3364.5 Z"/></g>
<g><path style="opacity:1" fill="#ffb68b" d="M 9495.5,3382.5 C 9498.43,3383.76 9500.76,3385.76 9502.5,3388.5C 9499.57,3387.24 9497.24,3385.24 9495.5,3382.5 Z"/></g>
<g><path style="opacity:1" fill="#ffbe95" d="M 9906.5,3383.5 C 9901.78,3389.23 9896.44,3394.23 9890.5,3398.5C 9895.22,3392.77 9900.56,3387.77 9906.5,3383.5 Z"/></g>
<g><path style="opacity:1" fill="#ffbd98" d="M 9527.5,3413.5 C 9541.75,3426.24 9555.58,3439.58 9569,3453.5C 9569.48,3454.45 9569.65,3455.45 9569.5,3456.5C 9560.55,3448.22 9551.89,3439.55 9543.5,3430.5C 9538.17,3424.83 9532.83,3419.17 9527.5,3413.5 Z"/></g>
<g><path style="opacity:1" fill="#ffbf96" d="M 9851.5,3437.5 C 9847.17,3442.5 9842.5,3447.17 9837.5,3451.5C 9841.17,3445.83 9845.83,3441.17 9851.5,3437.5 Z"/></g>
<g><path style="opacity:1" fill="#ffbf95" d="M 9799.5,3488.5 C 9795.77,3493.23 9791.44,3497.23 9786.5,3500.5C 9790.23,3495.77 9794.56,3491.77 9799.5,3488.5 Z"/></g>
<g><path style="opacity:1" fill="#ffc095" d="M 9759.5,3527.5 C 9758.09,3529.91 9756.09,3531.58 9753.5,3532.5C 9754.91,3530.09 9756.91,3528.42 9759.5,3527.5 Z"/></g>
<g><path style="opacity:1" fill="#ff2324" d="M 8953.5,3827.5 C 8952.83,3827.5 8952.5,3827.83 8952.5,3828.5C 8951.83,3828.5 8951.5,3828.83 8951.5,3829.5C 8597.11,4440.61 8242.94,5051.94 7889,5663.5C 7787.67,5837.5 7686.33,6011.5 7585,6185.5C 7558.87,6227.49 7550.2,6272.83 7559,6321.5C 7565.67,6346.83 7572.33,6372.16 7579,6397.5C 7602.55,6491.12 7607.88,6585.78 7595,6681.5C 7576.78,6845.2 7513.12,6987.87 7404,7109.5C 7389.97,7123.7 7375.8,7137.7 7361.5,7151.5C 7358.83,7152.17 7357.17,7153.83 7356.5,7156.5C 7354.17,7158.5 7351.83,7160.5 7349.5,7162.5C 7347.5,7162.5 7346.5,7163.5 7346.5,7165.5C 7261.54,7239.78 7165.87,7297.28 7059.5,7338C 6969.54,7371.13 6876.87,7382.13 6781.5,7371C 6677.48,7367.56 6577.48,7345.89 6481.5,7306C 6415.11,7277.17 6354.77,7239.34 6300.5,7192.5C 6297.9,7190.4 6295.4,7188.07 6293,7185.5C 6292.6,7185.73 6292.43,7186.06 6292.5,7186.5C 6122.27,7040.69 6032.1,6855.02 6022,6629.5C 6015.53,6476.06 6047.86,6331.39 6119,6195.5C 6174.33,6094.15 6249.5,6010.32 6344.5,5944C 6453.97,5869.8 6574.3,5821.8 6705.5,5800C 6718.93,5798.1 6732.43,5797.27 6746,5797.5C 6821.74,5808.56 6890.57,5792.06 6952.5,5748C 6973.89,5731.44 6993.89,5713.28 7012.5,5693.5C 7016.5,5691.5 7019.5,5688.5 7021.5,5684.5C 7028.53,5677.14 7035.53,5669.81 7042.5,5662.5C 7045.5,5661.5 7047.5,5659.5 7048.5,5656.5C 7054.53,5650.14 7060.53,5643.81 7066.5,5637.5C 7069.17,5636.83 7070.83,5635.17 7071.5,5632.5C 7076.86,5626.81 7082.19,5621.14 7087.5,5615.5C 7090.17,5614.83 7091.83,5613.17 7092.5,5610.5C 7103.13,5598.53 7114.13,5586.86 7125.5,5575.5C 7128.17,5574.83 7129.83,5573.17 7130.5,5570.5C 7165.5,5532.84 7200.83,5495.5 7236.5,5458.5C 7239.17,5457.83 7240.83,5456.17 7241.5,5453.5C 7246.19,5448.47 7250.86,5443.47 7255.5,5438.5C 7258.17,5437.83 7259.83,5436.17 7260.5,5433.5C 7270.8,5421.86 7281.47,5410.53 7292.5,5399.5C 7295.17,5398.83 7296.83,5397.17 7297.5,5394.5C 7307.8,5382.86 7318.47,5371.53 7329.5,5360.5C 7332.17,5359.83 7333.83,5358.17 7334.5,5355.5C 7338.83,5350.83 7343.17,5346.17 7347.5,5341.5C 7350.17,5340.83 7351.83,5339.17 7352.5,5336.5C 7356.83,5331.83 7361.17,5327.17 7365.5,5322.5C 7368.17,5321.83 7369.83,5320.17 7370.5,5317.5C 7380.8,5305.86 7391.47,5294.53 7402.5,5283.5C 7405.17,5282.83 7406.83,5281.17 7407.5,5278.5C 7417.8,5266.86 7428.47,5255.53 7439.5,5244.5C 7442.17,5243.83 7443.83,5242.17 7444.5,5239.5C 7449.17,5234.5 7453.83,5229.5 7458.5,5224.5C 7461.17,5223.83 7462.83,5222.17 7463.5,5219.5C 7468.17,5214.5 7472.83,5209.5 7477.5,5204.5C 7480.17,5203.83 7481.83,5202.17 7482.5,5199.5C 7493.5,5187.17 7504.83,5175.17 7516.5,5163.5C 7519.17,5162.83 7520.83,5161.17 7521.5,5158.5C 7526.17,5153.5 7530.83,5148.5 7535.5,5143.5C 7538.17,5142.83 7539.83,5141.17 7540.5,5138.5C 7545.5,5133.17 7550.5,5127.83 7555.5,5122.5C 7558.17,5121.83 7559.83,5120.17 7560.5,5117.5C 7565.53,5112.14 7570.53,5106.81 7575.5,5101.5C 7578.17,5100.83 7579.83,5099.17 7580.5,5096.5C 7585.53,5091.14 7590.53,5085.81 7595.5,5080.5C 7598.17,5079.83 7599.83,5078.17 7600.5,5075.5C 7605.53,5070.14 7610.53,5064.81 7615.5,5059.5C 7618.17,5058.83 7619.83,5057.17 7620.5,5054.5C 7625.53,5049.14 7630.53,5043.81 7635.5,5038.5C 7638.17,5037.83 7639.83,5036.17 7640.5,5033.5C 7645.5,5028.17 7650.5,5022.83 7655.5,5017.5C 7658.17,5016.83 7659.83,5015.17 7660.5,5012.5C 7665.86,5006.81 7671.19,5001.14 7676.5,4995.5C 7679.17,4994.83 7680.83,4993.17 7681.5,4990.5C 7686.5,4985.17 7691.5,4979.83 7696.5,4974.5C 7699.5,4973.5 7701.5,4971.5 7702.5,4968.5C 7707.5,4963.17 7712.5,4957.83 7717.5,4952.5C 7720.17,4951.83 7721.83,4950.17 7722.5,4947.5C 7727.83,4941.83 7733.17,4936.17 7738.5,4930.5C 7741.17,4929.83 7742.83,4928.17 7743.5,4925.5C 7748.83,4919.83 7754.17,4914.17 7759.5,4908.5C 7762.17,4907.83 7763.83,4906.17 7764.5,4903.5C 7769.83,4897.83 7775.17,4892.17 7780.5,4886.5C 7783.5,4885.5 7785.5,4883.5 7786.5,4880.5C 7791.86,4874.81 7797.19,4869.14 7802.5,4863.5C 7805.17,4862.83 7806.83,4861.17 7807.5,4858.5C 7812.83,4852.83 7818.17,4847.17 7823.5,4841.5C 7826.5,4840.5 7828.5,4838.5 7829.5,4835.5C 7834.83,4829.83 7840.17,4824.17 7845.5,4818.5C 7848.5,4817.5 7850.5,4815.5 7851.5,4812.5C 7856.83,4806.83 7862.17,4801.17 7867.5,4795.5C 7870.5,4794.5 7872.5,4792.5 7873.5,4789.5C 7878.86,4783.81 7884.19,4778.14 7889.5,4772.5C 7892.5,4771.5 7894.5,4769.5 7895.5,4766.5C 7901.19,4760.47 7906.86,4754.47 7912.5,4748.5C 7915.5,4747.5 7917.5,4745.5 7918.5,4742.5C 7924.53,4736.14 7930.53,4729.81 7936.5,4723.5C 7939.5,4722.5 7941.5,4720.5 7942.5,4717.5C 7948.86,4710.81 7955.19,4704.14 7961.5,4697.5C 7964.5,4696.5 7966.5,4694.5 7967.5,4691.5C 7973.83,4684.83 7980.17,4678.17 7986.5,4671.5C 7989.83,4670.17 7992.17,4667.83 7993.5,4664.5C 8000.19,4657.47 8006.86,4650.47 8013.5,4643.5C 8016.5,4642.5 8018.5,4640.5 8019.5,4637.5C 8026.17,4630.5 8032.83,4623.5 8039.5,4616.5C 8042.83,4615.17 8045.17,4612.83 8046.5,4609.5C 8052.83,4602.83 8059.17,4596.17 8065.5,4589.5C 8068.83,4588.17 8071.17,4585.83 8072.5,4582.5C 8078.86,4575.81 8085.19,4569.14 8091.5,4562.5C 8094.5,4561.5 8096.5,4559.5 8097.5,4556.5C 8103.86,4549.81 8110.19,4543.14 8116.5,4536.5C 8119.5,4535.5 8121.5,4533.5 8122.5,4530.5C 8128.53,4524.14 8134.53,4517.81 8140.5,4511.5C 8143.5,4510.5 8145.5,4508.5 8146.5,4505.5C 8151.83,4499.83 8157.17,4494.17 8162.5,4488.5C 8165.5,4487.5 8167.5,4485.5 8168.5,4482.5C 8173.83,4476.83 8179.17,4471.17 8184.5,4465.5C 8187.5,4464.5 8189.5,4462.5 8190.5,4459.5C 8195.86,4453.81 8201.19,4448.14 8206.5,4442.5C 8209.17,4441.83 8210.83,4440.17 8211.5,4437.5C 8216.83,4431.83 8222.17,4426.17 8227.5,4420.5C 8230.17,4419.83 8231.83,4418.17 8232.5,4415.5C 8237.83,4409.83 8243.17,4404.17 8248.5,4398.5C 8251.5,4397.5 8253.5,4395.5 8254.5,4392.5C 8259.5,4387.17 8264.5,4381.83 8269.5,4376.5C 8272.17,4375.83 8273.83,4374.17 8274.5,4371.5C 8279.83,4365.83 8285.17,4360.17 8290.5,4354.5C 8293.17,4353.83 8294.83,4352.17 8295.5,4349.5C 8300.86,4343.81 8306.19,4338.14 8311.5,4332.5C 8314.17,4331.83 8315.83,4330.17 8316.5,4327.5C 8321.86,4321.81 8327.19,4316.14 8332.5,4310.5C 8335.17,4309.83 8336.83,4308.17 8337.5,4305.5C 8342.86,4299.81 8348.19,4294.14 8353.5,4288.5C 8356.17,4287.83 8357.83,4286.17 8358.5,4283.5C 8363.5,4278.17 8368.5,4272.83 8373.5,4267.5C 8376.5,4266.5 8378.5,4264.5 8379.5,4261.5C 8384.5,4256.17 8389.5,4250.83 8394.5,4245.5C 8397.17,4244.83 8398.83,4243.17 8399.5,4240.5C 8404.83,4234.83 8410.17,4229.17 8415.5,4223.5C 8418.17,4222.83 8419.83,4221.17 8420.5,4218.5C 8425.83,4212.83 8431.17,4207.17 8436.5,4201.5C 8439.5,4200.5 8441.5,4198.5 8442.5,4195.5C 8447.86,4189.81 8453.19,4184.14 8458.5,4178.5C 8461.17,4177.83 8462.83,4176.17 8463.5,4173.5C 8468.83,4167.83 8474.17,4162.17 8479.5,4156.5C 8482.17,4155.83 8483.83,4154.17 8484.5,4151.5C 8490.19,4145.47 8495.86,4139.47 8501.5,4133.5C 8504.17,4132.83 8505.83,4131.17 8506.5,4128.5C 8512.19,4122.47 8517.86,4116.47 8523.5,4110.5C 8526.5,4109.5 8528.5,4107.5 8529.5,4104.5C 8534.83,4098.83 8540.17,4093.17 8545.5,4087.5C 8548.5,4086.5 8550.5,4084.5 8551.5,4081.5C 8557.17,4075.5 8562.83,4069.5 8568.5,4063.5C 8571.5,4062.5 8573.5,4060.5 8574.5,4057.5C 8580.17,4051.5 8585.83,4045.5 8591.5,4039.5C 8594.5,4038.5 8596.5,4036.5 8597.5,4033.5C 8603.5,4027.17 8609.5,4020.83 8615.5,4014.5C 8618.5,4013.5 8620.5,4011.5 8621.5,4008.5C 8627.83,4001.83 8634.17,3995.17 8640.5,3988.5C 8643.5,3987.5 8645.5,3985.5 8646.5,3982.5C 8652.83,3975.83 8659.17,3969.17 8665.5,3962.5C 8668.83,3961.17 8671.17,3958.83 8672.5,3955.5C 8678.83,3948.83 8685.17,3942.17 8691.5,3935.5C 8694.83,3934.17 8697.17,3931.83 8698.5,3928.5C 8704.83,3921.83 8711.17,3915.17 8717.5,3908.5C 8720.5,3907.5 8722.5,3905.5 8723.5,3902.5C 8730.19,3895.47 8736.86,3888.47 8743.5,3881.5C 8746.83,3880.17 8749.17,3877.83 8750.5,3874.5C 8756.86,3867.81 8763.19,3861.14 8769.5,3854.5C 8772.5,3853.5 8774.5,3851.5 8775.5,3848.5C 8781.86,3841.81 8788.19,3835.14 8794.5,3828.5C 8797.5,3827.5 8799.5,3825.5 8800.5,3822.5C 8806.5,3816.17 8812.5,3809.83 8818.5,3803.5C 8821.5,3802.5 8823.5,3800.5 8824.5,3797.5C 8830.53,3791.14 8836.53,3784.81 8842.5,3778.5C 8845.17,3777.83 8846.83,3776.17 8847.5,3773.5C 8853.53,3767.14 8859.53,3760.81 8865.5,3754.5C 8868.17,3753.83 8869.83,3752.17 8870.5,3749.5C 8875.83,3743.83 8881.17,3738.17 8886.5,3732.5C 8889.5,3731.5 8891.5,3729.5 8892.5,3726.5C 8897.53,3721.14 8902.53,3715.81 8907.5,3710.5C 8910.17,3709.83 8911.83,3708.17 8912.5,3705.5C 8917.19,3700.47 8921.86,3695.47 8926.5,3690.5C 8929.17,3689.83 8930.83,3688.17 8931.5,3685.5C 8935.83,3680.83 8940.17,3676.17 8944.5,3671.5C 8947.17,3670.83 8948.83,3669.17 8949.5,3666.5C 8975.53,3638.81 9001.53,3611.14 9027.5,3583.5C 9030.09,3582.58 9032.09,3580.91 9033.5,3578.5C 9038.45,3573.02 9044.45,3571.52 9051.5,3574C 9068.5,3581.84 9076.33,3595.01 9075,3613.5C 9074.06,3616.99 9072.72,3620.33 9071,3623.5C 9031.56,3691.39 8992.39,3759.39 8953.5,3827.5 Z"/></g>
<g><path style="opacity:0.671" fill="#ff816e" d="M 9033.5,3578.5 C 9032.09,3580.91 9030.09,3582.58 9027.5,3583.5C 9028.91,3581.09 9030.91,3579.42 9033.5,3578.5 Z"/></g>
<g><path style="opacity:0.993" fill="#fffdfc" d="M 6298.5,7192.5 C 6299.17,7192.5 6299.83,7192.5 6300.5,7192.5C 6354.77,7239.34 6415.11,7277.17 6481.5,7306C 6577.48,7345.89 6677.48,7367.56 6781.5,7371C 6876.87,7382.13 6969.54,7371.13 7059.5,7338C 7165.87,7297.28 7261.54,7239.78 7346.5,7165.5C 7347.83,7164.83 7348.83,7163.83 7349.5,7162.5C 7351.83,7160.5 7354.17,7158.5 7356.5,7156.5C 7358.5,7155.17 7360.17,7153.5 7361.5,7151.5C 7375.8,7137.7 7389.97,7123.7 7404,7109.5C 7513.12,6987.87 7576.78,6845.2 7595,6681.5C 7607.88,6585.78 7602.55,6491.12 7579,6397.5C 7572.33,6372.16 7565.67,6346.83 7559,6321.5C 7550.2,6272.83 7558.87,6227.49 7585,6185.5C 7686.33,6011.5 7787.67,5837.5 7889,5663.5C 8242.94,5051.94 8597.11,4440.61 8951.5,3829.5C 8952.17,3829.5 8952.5,3829.17 8952.5,3828.5C 8953.17,3828.5 8953.5,3828.17 8953.5,3827.5C 9008.36,3770.48 9063.02,3713.31 9117.5,3656C 9122.51,3652.46 9127.84,3651.8 9133.5,3654C 9150.5,3661.84 9158.33,3675.01 9157,3693.5C 9156.06,3696.99 9154.72,3700.33 9153,3703.5C 8786.67,4336.17 8420.33,4968.83 8054,5601.5C 7925.25,5823.33 7796.25,6045 7667,6266.5C 7638.63,6313.38 7631.3,6363.38 7645,6416.5C 7699.55,6591.64 7696.88,6765.97 7637,6939.5C 7589.44,7070.04 7511.94,7179.21 7404.5,7267C 7333.8,7324.55 7256.14,7371.21 7171.5,7407C 7114.13,7431.26 7054.47,7446.59 6992.5,7453C 6982.84,7453.57 6973.17,7454.07 6963.5,7454.5C 6925.53,7453.51 6887.53,7452.34 6849.5,7451C 6727.54,7445.43 6612.54,7414.43 6504.5,7358C 6426.64,7314.68 6357.97,7259.51 6298.5,7192.5 Z"/></g>
<g><path style="opacity:0.671" fill="#ff8270" d="M 8949.5,3666.5 C 8948.83,3669.17 8947.17,3670.83 8944.5,3671.5C 8945.83,3669.5 8947.5,3667.83 8949.5,3666.5 Z"/></g>
<g><path style="opacity:0.671" fill="#ff8270" d="M 8931.5,3685.5 C 8930.83,3688.17 8929.17,3689.83 8926.5,3690.5C 8927.83,3688.5 8929.5,3686.83 8931.5,3685.5 Z"/></g>
<g><path style="opacity:0.671" fill="#ff8270" d="M 8912.5,3705.5 C 8911.83,3708.17 8910.17,3709.83 8907.5,3710.5C 8908.83,3708.5 8910.5,3706.83 8912.5,3705.5 Z"/></g>
<g><path style="opacity:0.671" fill="#ff8270" d="M 8892.5,3726.5 C 8891.5,3729.5 8889.5,3731.5 8886.5,3732.5C 8888.17,3730.17 8890.17,3728.17 8892.5,3726.5 Z"/></g>
<g><path style="opacity:0.671" fill="#ff8471" d="M 8870.5,3749.5 C 8869.83,3752.17 8868.17,3753.83 8865.5,3754.5C 8866.83,3752.5 8868.5,3750.83 8870.5,3749.5 Z"/></g>
<g><path style="opacity:0.671" fill="#ff8573" d="M 8847.5,3773.5 C 8846.83,3776.17 8845.17,3777.83 8842.5,3778.5C 8843.83,3776.5 8845.5,3774.83 8847.5,3773.5 Z"/></g>
<g><path style="opacity:0.671" fill="#ff8371" d="M 8824.5,3797.5 C 8823.5,3800.5 8821.5,3802.5 8818.5,3803.5C 8820.17,3801.17 8822.17,3799.17 8824.5,3797.5 Z"/></g>
<g><path style="opacity:0.671" fill="#ff8371" d="M 8800.5,3822.5 C 8799.5,3825.5 8797.5,3827.5 8794.5,3828.5C 8796.17,3826.17 8798.17,3824.17 8800.5,3822.5 Z"/></g>
<g><path style="opacity:0.671" fill="#ff8371" d="M 8775.5,3848.5 C 8774.5,3851.5 8772.5,3853.5 8769.5,3854.5C 8771.17,3852.17 8773.17,3850.17 8775.5,3848.5 Z"/></g>
<g><path style="opacity:0.671" fill="#ff8270" d="M 8750.5,3874.5 C 8749.17,3877.83 8746.83,3880.17 8743.5,3881.5C 8745.5,3878.83 8747.83,3876.5 8750.5,3874.5 Z"/></g>
<g><path style="opacity:1" fill="#030305" d="M 1161.5,3883.5 C 1178.46,3883.32 1194.8,3886.49 1210.5,3893C 1250.01,3909.06 1289.67,3924.73 1329.5,3940C 1438.55,3980.68 1547.55,4021.68 1656.5,4063C 1697.4,4079.78 1738.06,4097.12 1778.5,4115C 1781.27,4116.47 1783.77,4118.3 1786,4120.5C 1787.42,4123.03 1787.75,4125.7 1787,4128.5C 1774.73,4149.43 1757.9,4165.6 1736.5,4177C 1717.44,4183.1 1698.44,4182.77 1679.5,4176C 1556.42,4116.65 1431.75,4060.98 1305.5,4009C 1238.17,3981.67 1170.83,3954.33 1103.5,3927C 1099.22,3924.38 1095.22,3921.38 1091.5,3918C 1111.59,3899.79 1134.92,3888.29 1161.5,3883.5 Z"/></g>
<g><path style="opacity:0.671" fill="#ff8472" d="M 8723.5,3902.5 C 8722.5,3905.5 8720.5,3907.5 8717.5,3908.5C 8719.17,3906.17 8721.17,3904.17 8723.5,3902.5 Z"/></g>
<g><path style="opacity:0.671" fill="#ff8370" d="M 8698.5,3928.5 C 8697.17,3931.83 8694.83,3934.17 8691.5,3935.5C 8693.5,3932.83 8695.83,3930.5 8698.5,3928.5 Z"/></g>
<g><path style="opacity:0.671" fill="#ff8370" d="M 8672.5,3955.5 C 8671.17,3958.83 8668.83,3961.17 8665.5,3962.5C 8667.5,3959.83 8669.83,3957.5 8672.5,3955.5 Z"/></g>
<g><path style="opacity:0.671" fill="#ff8472" d="M 8646.5,3982.5 C 8645.5,3985.5 8643.5,3987.5 8640.5,3988.5C 8642.17,3986.17 8644.17,3984.17 8646.5,3982.5 Z"/></g>
<g><path style="opacity:0.671" fill="#ff8472" d="M 8621.5,4008.5 C 8620.5,4011.5 8618.5,4013.5 8615.5,4014.5C 8617.17,4012.17 8619.17,4010.17 8621.5,4008.5 Z"/></g>
<g><path style="opacity:0.671" fill="#ff8371" d="M 8597.5,4033.5 C 8596.5,4036.5 8594.5,4038.5 8591.5,4039.5C 8593.17,4037.17 8595.17,4035.17 8597.5,4033.5 Z"/></g>
<g><path style="opacity:0.671" fill="#ff8270" d="M 8574.5,4057.5 C 8573.5,4060.5 8571.5,4062.5 8568.5,4063.5C 8570.17,4061.17 8572.17,4059.17 8574.5,4057.5 Z"/></g>
<g><path style="opacity:0.671" fill="#ff8371" d="M 8551.5,4081.5 C 8550.5,4084.5 8548.5,4086.5 8545.5,4087.5C 8547.17,4085.17 8549.17,4083.17 8551.5,4081.5 Z"/></g>
<g><path style="opacity:0.671" fill="#ff8270" d="M 8529.5,4104.5 C 8528.5,4107.5 8526.5,4109.5 8523.5,4110.5C 8525.17,4108.17 8527.17,4106.17 8529.5,4104.5 Z"/></g>
<g><path style="opacity:1" fill="#ffac8f" d="M 11183.5,3995.5 C 11118.9,4061.78 11053.5,4127.45 10987.5,4192.5C 11052.1,4126.22 11117.5,4060.55 11183.5,3995.5 Z"/></g>
<g><path style="opacity:0.671" fill="#ff8573" d="M 8506.5,4128.5 C 8505.83,4131.17 8504.17,4132.83 8501.5,4133.5C 8502.83,4131.5 8504.5,4129.83 8506.5,4128.5 Z"/></g>
<g><path style="opacity:0.671" fill="#ff8573" d="M 8484.5,4151.5 C 8483.83,4154.17 8482.17,4155.83 8479.5,4156.5C 8480.83,4154.5 8482.5,4152.83 8484.5,4151.5 Z"/></g>
<g><path style="opacity:0.671" fill="#ff8471" d="M 8463.5,4173.5 C 8462.83,4176.17 8461.17,4177.83 8458.5,4178.5C 8459.83,4176.5 8461.5,4174.83 8463.5,4173.5 Z"/></g>
<g><path style="opacity:0.671" fill="#ff8270" d="M 8442.5,4195.5 C 8441.5,4198.5 8439.5,4200.5 8436.5,4201.5C 8438.17,4199.17 8440.17,4197.17 8442.5,4195.5 Z"/></g>
<g><path style="opacity:0.671" fill="#ff8573" d="M 8420.5,4218.5 C 8419.83,4221.17 8418.17,4222.83 8415.5,4223.5C 8416.83,4221.5 8418.5,4219.83 8420.5,4218.5 Z"/></g>
<g><path style="opacity:0.671" fill="#ff8573" d="M 8399.5,4240.5 C 8398.83,4243.17 8397.17,4244.83 8394.5,4245.5C 8395.83,4243.5 8397.5,4241.83 8399.5,4240.5 Z"/></g>
<g><path style="opacity:0.671" fill="#ff8270" d="M 8379.5,4261.5 C 8378.5,4264.5 8376.5,4266.5 8373.5,4267.5C 8375.17,4265.17 8377.17,4263.17 8379.5,4261.5 Z"/></g>
<g><path style="opacity:0.671" fill="#ff8270" d="M 8358.5,4283.5 C 8357.83,4286.17 8356.17,4287.83 8353.5,4288.5C 8354.83,4286.5 8356.5,4284.83 8358.5,4283.5 Z"/></g>
<g><path style="opacity:0.671" fill="#ff8471" d="M 8337.5,4305.5 C 8336.83,4308.17 8335.17,4309.83 8332.5,4310.5C 8333.83,4308.5 8335.5,4306.83 8337.5,4305.5 Z"/></g>
<g><path style="opacity:1" fill="#ff5c29" d="M 11468.5,4412.5 C 11642.6,4805.4 11758.1,5215.4 11815,5642.5C 11839.2,5832.74 11849.5,6023.74 11846,6215.5C 11842.4,6451.59 11822.7,6686.25 11787,6919.5C 11726.9,7279.1 11624.9,7625.44 11481,7958.5C 11406,8128.14 11320.5,8291.48 11224.5,8448.5C 11077.7,8687.3 10914.2,8913.3 10734,9126.5C 10731.6,9129.21 10729,9131.54 10726,9133.5C 10722.8,9140.05 10718.1,9145.38 10712,9149.5C 10710.8,9153.08 10708.4,9155.75 10705,9157.5C 10703.4,9161.42 10700.7,9164.42 10697,9166.5C 10695.4,9170.42 10692.7,9173.42 10689,9175.5C 10688.7,9176.5 10688.3,9177.5 10688,9178.5C 10682.2,9182.76 10677.4,9187.76 10673.5,9193.5C 10671.4,9194.58 10670.1,9196.25 10669.5,9198.5C 10667.8,9200.83 10665.8,9202.83 10663.5,9204.5C 10661.4,9205.58 10660.1,9207.25 10659.5,9209.5C 10652.2,9215.93 10645.5,9222.93 10639.5,9230.5C 10637.4,9231.58 10636.1,9233.25 10635.5,9235.5C 10632.2,9239.17 10628.8,9242.83 10625.5,9246.5C 10622.8,9247.17 10621.2,9248.83 10620.5,9251.5C 10616.2,9256.5 10611.5,9261.17 10606.5,9265.5C 10603.8,9267.24 10601.8,9269.57 10600.5,9272.5C 10593.8,9279.83 10586.8,9286.83 10579.5,9293.5C 10574.8,9297.23 10570.8,9301.56 10567.5,9306.5C 10552.5,9322.17 10537.2,9337.5 10521.5,9352.5C 10516.2,9355.83 10511.8,9360.17 10508.5,9365.5C 10501.5,9372.17 10494.5,9378.83 10487.5,9385.5C 10484.2,9387.09 10481.6,9389.43 10479.5,9392.5C 10475.5,9397.17 10471.2,9401.5 10466.5,9405.5C 10463.9,9406.42 10461.9,9408.09 10460.5,9410.5C 10457.2,9414.5 10453.5,9418.17 10449.5,9421.5C 10447.3,9422.08 10445.6,9423.41 10444.5,9425.5C 10441.8,9428.83 10438.8,9431.83 10435.5,9434.5C 10433.3,9435.08 10431.6,9436.41 10430.5,9438.5C 10428.5,9441.17 10426.2,9443.5 10423.5,9445.5C 10421.3,9446.08 10419.6,9447.41 10418.5,9449.5C 10412.1,9454.08 10406.4,9459.58 10401.5,9466C 10400.5,9466.33 10399.5,9466.67 10398.5,9467C 10396.1,9471.08 10392.8,9474.08 10388.5,9476C 10386.4,9479.75 10383.4,9482.42 10379.5,9484C 10377.4,9487.75 10374.4,9490.42 10370.5,9492C 10368.4,9495.75 10365.4,9498.42 10361.5,9500C 10357.2,9504.33 10352.8,9508.67 10348.5,9513C 10347.5,9513.33 10346.5,9513.67 10345.5,9514C 10343.7,9517.42 10341.1,9519.75 10337.5,9521C 10336.1,9524.09 10333.7,9526.09 10330.5,9527C 10329.1,9530.09 10326.7,9532.09 10323.5,9533C 10322.1,9536.09 10319.7,9538.09 10316.5,9539C 10312.8,9542.67 10309.2,9546.33 10305.5,9550C 10302.7,9552.21 10299.7,9554.21 10296.5,9556C 10295.5,9557.96 10294.2,9559.62 10292.5,9561C 10241.3,9603.84 10188.9,9645.84 10135.5,9687C 10053,9750.03 9968,9810.03 9880.5,9867C 9866.83,9877.17 9852.83,9886.83 9838.5,9896C 9683.07,9996.6 9521.07,10088.3 9352.5,10171C 8977.24,10353.2 8582.57,10479.2 8168.5,10549C 7828.34,10603.8 7486.34,10619.1 7142.5,10595C 6812.75,10574 6489.41,10517 6172.5,10424C 5795.92,10310.7 5441.25,10150.4 5108.5,9943C 4948.83,9842.5 4795.5,9733.17 4648.5,9615C 4645.78,9612.64 4642.78,9610.81 4639.5,9609.5C 4619.08,9593.11 4598.42,9576.95 4577.5,9561C 4573.58,9557.25 4569.91,9553.42 4566.5,9549.5C 4566.65,9548.45 4566.48,9547.45 4566,9546.5C 4561.96,9542.75 4559.79,9538.09 4559.5,9532.5C 4560.12,9519.29 4563.79,9506.96 4570.5,9495.5C 4579.75,9485.5 4590.58,9482.16 4603,9485.5C 4604.4,9484.95 4605.73,9484.62 4607,9484.5C 4614.35,9486.31 4621.52,9487.65 4628.5,9488.5C 4725.47,9547.33 4823.8,9604.16 4923.5,9659C 5249.47,9835.11 5594.14,9960.78 5957.5,10036C 6461.88,10139.7 6967.55,10146.4 7474.5,10056C 7869.4,9985.48 8244.07,9856.81 8598.5,9670C 8918.01,9502.75 9207.67,9294.08 9467.5,9044C 9505,9006.5 9542.5,8969 9580,8931.5C 9703.99,8804.23 9818.99,8669.9 9925,8528.5C 10241.5,8095.97 10461.8,7617.3 10586,7092.5C 10672.3,6720.1 10703.3,6343.1 10679,5961.5C 10668.1,5783.66 10645.4,5607.32 10611,5432.5C 10602.5,5391.86 10594.2,5351.19 10586,5310.5C 10579.1,5279.38 10571.8,5248.38 10564,5217.5C 10559.4,5185.13 10566.8,5155.79 10586,5129.5C 10590.4,5123.65 10595.1,5117.98 10600,5112.5C 10643.6,5069.86 10687,5026.86 10730,4983.5C 10936.5,4774.69 11143.3,4566.19 11350.5,4358C 11361.4,4347.39 11373.8,4338.72 11387.5,4332C 11399.7,4326.7 11411.4,4327.7 11422.5,4335C 11431.5,4342.34 11438.7,4351.17 11444,4361.5C 11452.7,4378.25 11460.9,4395.25 11468.5,4412.5 Z"/></g>
<g><path style="opacity:0.671" fill="#ff8471" d="M 8316.5,4327.5 C 8315.83,4330.17 8314.17,4331.83 8311.5,4332.5C 8312.83,4330.5 8314.5,4328.83 8316.5,4327.5 Z"/></g>
<g><path style="opacity:0.671" fill="#ff8573" d="M 8295.5,4349.5 C 8294.83,4352.17 8293.17,4353.83 8290.5,4354.5C 8291.83,4352.5 8293.5,4350.83 8295.5,4349.5 Z"/></g>
<g><path style="opacity:0.671" fill="#ff8573" d="M 8274.5,4371.5 C 8273.83,4374.17 8272.17,4375.83 8269.5,4376.5C 8270.83,4374.5 8272.5,4372.83 8274.5,4371.5 Z"/></g>
<g><path style="opacity:0.671" fill="#ff8270" d="M 8254.5,4392.5 C 8253.5,4395.5 8251.5,4397.5 8248.5,4398.5C 8250.17,4396.17 8252.17,4394.17 8254.5,4392.5 Z"/></g>
<g><path style="opacity:0.992" fill="#fffdfc" d="M 4639.5,9609.5 C 4642.78,9610.81 4645.78,9612.64 4648.5,9615C 4795.5,9733.17 4948.83,9842.5 5108.5,9943C 5441.25,10150.4 5795.92,10310.7 6172.5,10424C 6489.41,10517 6812.75,10574 7142.5,10595C 7486.34,10619.1 7828.34,10603.8 8168.5,10549C 8582.57,10479.2 8977.24,10353.2 9352.5,10171C 9521.07,10088.3 9683.07,9996.6 9838.5,9896C 9852.83,9886.83 9866.83,9877.17 9880.5,9867C 9968,9810.03 10053,9750.03 10135.5,9687C 10188.9,9645.84 10241.3,9603.84 10292.5,9561C 10294.2,9559.62 10295.5,9557.96 10296.5,9556C 10299.7,9554.21 10302.7,9552.21 10305.5,9550C 10309.2,9546.33 10312.8,9542.67 10316.5,9539C 10319.7,9538.09 10322.1,9536.09 10323.5,9533C 10326.7,9532.09 10329.1,9530.09 10330.5,9527C 10333.7,9526.09 10336.1,9524.09 10337.5,9521C 10341.1,9519.75 10343.7,9517.42 10345.5,9514C 10346.5,9513.67 10347.5,9513.33 10348.5,9513C 10352.8,9508.67 10357.2,9504.33 10361.5,9500C 10365.4,9498.42 10368.4,9495.75 10370.5,9492C 10374.4,9490.42 10377.4,9487.75 10379.5,9484C 10383.4,9482.42 10386.4,9479.75 10388.5,9476C 10392.8,9474.08 10396.1,9471.08 10398.5,9467C 10399.5,9466.67 10400.5,9466.33 10401.5,9466C 10406.4,9459.58 10412.1,9454.08 10418.5,9449.5C 10420.7,9448.92 10422.4,9447.59 10423.5,9445.5C 10426.2,9443.5 10428.5,9441.17 10430.5,9438.5C 10432.7,9437.92 10434.4,9436.59 10435.5,9434.5C 10438.8,9431.83 10441.8,9428.83 10444.5,9425.5C 10446.7,9424.92 10448.4,9423.59 10449.5,9421.5C 10453.5,9418.17 10457.2,9414.5 10460.5,9410.5C 10463.1,9409.58 10465.1,9407.91 10466.5,9405.5C 10471.2,9401.5 10475.5,9397.17 10479.5,9392.5C 10482.8,9390.91 10485.4,9388.57 10487.5,9385.5C 10494.5,9378.83 10501.5,9372.17 10508.5,9365.5C 10513.2,9361.5 10517.5,9357.17 10521.5,9352.5C 10537.2,9337.5 10552.5,9322.17 10567.5,9306.5C 10572.2,9302.77 10576.2,9298.44 10579.5,9293.5C 10586.8,9286.83 10593.8,9279.83 10600.5,9272.5C 10603.2,9270.76 10605.2,9268.43 10606.5,9265.5C 10611.5,9261.17 10616.2,9256.5 10620.5,9251.5C 10622.5,9250.17 10624.2,9248.5 10625.5,9246.5C 10628.8,9242.83 10632.2,9239.17 10635.5,9235.5C 10637.6,9234.42 10638.9,9232.75 10639.5,9230.5C 10645.5,9222.93 10652.2,9215.93 10659.5,9209.5C 10661.6,9208.42 10662.9,9206.75 10663.5,9204.5C 10665.8,9202.83 10667.8,9200.83 10669.5,9198.5C 10671.6,9197.42 10672.9,9195.75 10673.5,9193.5C 10677.4,9187.76 10682.2,9182.76 10688,9178.5C 10688.3,9177.5 10688.7,9176.5 10689,9175.5C 10692.7,9173.42 10695.4,9170.42 10697,9166.5C 10700.7,9164.42 10703.4,9161.42 10705,9157.5C 10708.4,9155.75 10710.8,9153.08 10712,9149.5C 10718.1,9145.38 10722.8,9140.05 10726,9133.5C 10729,9131.54 10731.6,9129.21 10734,9126.5C 10914.2,8913.3 11077.7,8687.3 11224.5,8448.5C 11320.5,8291.48 11406,8128.14 11481,7958.5C 11624.9,7625.44 11726.9,7279.1 11787,6919.5C 11822.7,6686.25 11842.4,6451.59 11846,6215.5C 11849.5,6023.74 11839.2,5832.74 11815,5642.5C 11758.1,5215.4 11642.6,4805.4 11468.5,4412.5C 11481,4406.61 11493,4407.44 11504.5,4415C 11516.6,4426.16 11526.1,4439.33 11533,4454.5C 11604.8,4609.9 11666.8,4769.23 11719,4932.5C 11815.1,5228.67 11879.1,5531.67 11911,5841.5C 11926.1,6001.84 11931.7,6162.5 11928,6323.5C 11923.9,6536.59 11906.6,6748.59 11876,6959.5C 11840.9,7187.13 11787.9,7410.46 11717,7629.5C 11622.5,7928.87 11495.1,8213.21 11335,8482.5C 11229,8659.58 11113.3,8829.92 10988,8993.5C 10821.5,9215.39 10633,9417.89 10422.5,9601C 10065,9908.6 9668,10156.3 9231.5,10344C 8696.37,10570.3 8138.04,10684.8 7556.5,10687.5C 7250.77,10687.2 6947.77,10658.4 6647.5,10601C 6206.17,10513.3 5788.83,10361 5395.5,10144C 5222.37,10047.8 5056.37,9941.14 4897.5,9824C 4817.81,9763.48 4738.47,9702.48 4659.5,9641C 4648.92,9632.94 4642.26,9622.44 4639.5,9609.5 Z"/></g>
<g><path style="opacity:0.671" fill="#ff8573" d="M 8232.5,4415.5 C 8231.83,4418.17 8230.17,4419.83 8227.5,4420.5C 8228.83,4418.5 8230.5,4416.83 8232.5,4415.5 Z"/></g>
<g><path style="opacity:0.671" fill="#ff8471" d="M 8211.5,4437.5 C 8210.83,4440.17 8209.17,4441.83 8206.5,4442.5C 8207.83,4440.5 8209.5,4438.83 8211.5,4437.5 Z"/></g>
<g><path style="opacity:0.671" fill="#ff8270" d="M 8190.5,4459.5 C 8189.5,4462.5 8187.5,4464.5 8184.5,4465.5C 8186.17,4463.17 8188.17,4461.17 8190.5,4459.5 Z"/></g>
<g><path style="opacity:0.671" fill="#ff8371" d="M 8168.5,4482.5 C 8167.5,4485.5 8165.5,4487.5 8162.5,4488.5C 8164.17,4486.17 8166.17,4484.17 8168.5,4482.5 Z"/></g>
<g><path style="opacity:0.671" fill="#ff8270" d="M 8146.5,4505.5 C 8145.5,4508.5 8143.5,4510.5 8140.5,4511.5C 8142.17,4509.17 8144.17,4507.17 8146.5,4505.5 Z"/></g>
<g><path style="opacity:0.671" fill="#ff8371" d="M 8122.5,4530.5 C 8121.5,4533.5 8119.5,4535.5 8116.5,4536.5C 8118.17,4534.17 8120.17,4532.17 8122.5,4530.5 Z"/></g>
<g><path style="opacity:0.671" fill="#ff8371" d="M 8097.5,4556.5 C 8096.5,4559.5 8094.5,4561.5 8091.5,4562.5C 8093.17,4560.17 8095.17,4558.17 8097.5,4556.5 Z"/></g>
<g><path style="opacity:0.671" fill="#ff8270" d="M 8072.5,4582.5 C 8071.17,4585.83 8068.83,4588.17 8065.5,4589.5C 8067.5,4586.83 8069.83,4584.5 8072.5,4582.5 Z"/></g>
<g><path style="opacity:0.671" fill="#ff8270" d="M 8046.5,4609.5 C 8045.17,4612.83 8042.83,4615.17 8039.5,4616.5C 8041.5,4613.83 8043.83,4611.5 8046.5,4609.5 Z"/></g>
<g><path style="opacity:0.671" fill="#ff8472" d="M 8019.5,4637.5 C 8018.5,4640.5 8016.5,4642.5 8013.5,4643.5C 8015.17,4641.17 8017.17,4639.17 8019.5,4637.5 Z"/></g>
<g><path style="opacity:0.671" fill="#ff8371" d="M 7993.5,4664.5 C 7992.17,4667.83 7989.83,4670.17 7986.5,4671.5C 7988.5,4668.83 7990.83,4666.5 7993.5,4664.5 Z"/></g>
<g><path style="opacity:0.671" fill="#ff8371" d="M 7967.5,4691.5 C 7966.5,4694.5 7964.5,4696.5 7961.5,4697.5C 7963.17,4695.17 7965.17,4693.17 7967.5,4691.5 Z"/></g>
<g><path style="opacity:1" fill="#ffac8e" d="M 10470.5,4709.5 C 10467.2,4714.83 10462.8,4719.17 10457.5,4722.5C 10461.5,4717.83 10465.8,4713.5 10470.5,4709.5 Z"/></g>
<g><path style="opacity:0.671" fill="#ff8371" d="M 7942.5,4717.5 C 7941.5,4720.5 7939.5,4722.5 7936.5,4723.5C 7938.17,4721.17 7940.17,4719.17 7942.5,4717.5 Z"/></g>
<g><path style="opacity:0.671" fill="#ff8371" d="M 7918.5,4742.5 C 7917.5,4745.5 7915.5,4747.5 7912.5,4748.5C 7914.17,4746.17 7916.17,4744.17 7918.5,4742.5 Z"/></g>
<g><path style="opacity:0.671" fill="#ff8270" d="M 7895.5,4766.5 C 7894.5,4769.5 7892.5,4771.5 7889.5,4772.5C 7891.17,4770.17 7893.17,4768.17 7895.5,4766.5 Z"/></g>
<g><path style="opacity:0.671" fill="#ff8270" d="M 7873.5,4789.5 C 7872.5,4792.5 7870.5,4794.5 7867.5,4795.5C 7869.17,4793.17 7871.17,4791.17 7873.5,4789.5 Z"/></g>
<g><path style="opacity:0.671" fill="#ff8270" d="M 7851.5,4812.5 C 7850.5,4815.5 7848.5,4817.5 7845.5,4818.5C 7847.17,4816.17 7849.17,4814.17 7851.5,4812.5 Z"/></g>
<g><path style="opacity:0.671" fill="#ff8371" d="M 7829.5,4835.5 C 7828.5,4838.5 7826.5,4840.5 7823.5,4841.5C 7825.17,4839.17 7827.17,4837.17 7829.5,4835.5 Z"/></g>
<g><path style="opacity:0.671" fill="#ff8471" d="M 7807.5,4858.5 C 7806.83,4861.17 7805.17,4862.83 7802.5,4863.5C 7803.83,4861.5 7805.5,4859.83 7807.5,4858.5 Z"/></g>
<g><path style="opacity:0.671" fill="#ff8270" d="M 7786.5,4880.5 C 7785.5,4883.5 7783.5,4885.5 7780.5,4886.5C 7782.17,4884.17 7784.17,4882.17 7786.5,4880.5 Z"/></g>
<g><path style="opacity:0.671" fill="#ff8573" d="M 7764.5,4903.5 C 7763.83,4906.17 7762.17,4907.83 7759.5,4908.5C 7760.83,4906.5 7762.5,4904.83 7764.5,4903.5 Z"/></g>
<g><path style="opacity:0.671" fill="#ff8573" d="M 7743.5,4925.5 C 7742.83,4928.17 7741.17,4929.83 7738.5,4930.5C 7739.83,4928.5 7741.5,4926.83 7743.5,4925.5 Z"/></g>
<g><path style="opacity:0.671" fill="#ff8573" d="M 7722.5,4947.5 C 7721.83,4950.17 7720.17,4951.83 7717.5,4952.5C 7718.83,4950.5 7720.5,4948.83 7722.5,4947.5 Z"/></g>
<g><path style="opacity:0.671" fill="#ff8270" d="M 7702.5,4968.5 C 7701.5,4971.5 7699.5,4973.5 7696.5,4974.5C 7698.17,4972.17 7700.17,4970.17 7702.5,4968.5 Z"/></g>
<g><path style="opacity:0.671" fill="#ff8471" d="M 7681.5,4990.5 C 7680.83,4993.17 7679.17,4994.83 7676.5,4995.5C 7677.83,4993.5 7679.5,4991.83 7681.5,4990.5 Z"/></g>
<g><path style="opacity:0.671" fill="#ff8573" d="M 7660.5,5012.5 C 7659.83,5015.17 7658.17,5016.83 7655.5,5017.5C 7656.83,5015.5 7658.5,5013.83 7660.5,5012.5 Z"/></g>
<g><path style="opacity:0.671" fill="#ff8471" d="M 7640.5,5033.5 C 7639.83,5036.17 7638.17,5037.83 7635.5,5038.5C 7636.83,5036.5 7638.5,5034.83 7640.5,5033.5 Z"/></g>
<g><path style="opacity:0.671" fill="#ff8471" d="M 7620.5,5054.5 C 7619.83,5057.17 7618.17,5058.83 7615.5,5059.5C 7616.83,5057.5 7618.5,5055.83 7620.5,5054.5 Z"/></g>
<g><path style="opacity:1" fill="#030305" d="M 702.5,5071.5 C 769.913,5082.82 837.247,5094.65 904.5,5107C 1002.2,5127.82 1100.2,5147.15 1198.5,5165C 1229.47,5171.41 1260.14,5179.08 1290.5,5188C 1305.75,5190.82 1321.09,5193.16 1336.5,5195C 1348.71,5197.46 1360.05,5201.96 1370.5,5208.5C 1365.54,5222.43 1358.04,5234.77 1348,5245.5C 1338.27,5256.47 1328.44,5267.3 1318.5,5278C 1313.27,5280.51 1307.77,5282.01 1302,5282.5C 1260.22,5274.35 1218.72,5264.85 1177.5,5254C 1132.75,5241.23 1087.75,5229.23 1042.5,5218C 934.5,5194 826.5,5170 718.5,5146C 709.859,5144.11 703.026,5139.61 698,5132.5C 693.449,5120.91 690.615,5108.91 689.5,5096.5C 690.949,5086.6 695.283,5078.27 702.5,5071.5 Z"/></g>
<g><path style="opacity:0.671" fill="#ff8270" d="M 7600.5,5075.5 C 7599.83,5078.17 7598.17,5079.83 7595.5,5080.5C 7596.83,5078.5 7598.5,5076.83 7600.5,5075.5 Z"/></g>
<g><path style="opacity:0.671" fill="#ff8270" d="M 7580.5,5096.5 C 7579.83,5099.17 7578.17,5100.83 7575.5,5101.5C 7576.83,5099.5 7578.5,5097.83 7580.5,5096.5 Z"/></g>
<g><path style="opacity:0.671" fill="#ff8471" d="M 7560.5,5117.5 C 7559.83,5120.17 7558.17,5121.83 7555.5,5122.5C 7556.83,5120.5 7558.5,5118.83 7560.5,5117.5 Z"/></g>
<g><path style="opacity:0.671" fill="#ff8573" d="M 7540.5,5138.5 C 7539.83,5141.17 7538.17,5142.83 7535.5,5143.5C 7536.83,5141.5 7538.5,5139.83 7540.5,5138.5 Z"/></g>
<g><path style="opacity:0.671" fill="#ff8471" d="M 7521.5,5158.5 C 7520.83,5161.17 7519.17,5162.83 7516.5,5163.5C 7517.83,5161.5 7519.5,5159.83 7521.5,5158.5 Z"/></g>
<g><path style="opacity:0.671" fill="#ff8471" d="M 7482.5,5199.5 C 7481.83,5202.17 7480.17,5203.83 7477.5,5204.5C 7478.83,5202.5 7480.5,5200.83 7482.5,5199.5 Z"/></g>
<g><path style="opacity:0.671" fill="#ff8471" d="M 7463.5,5219.5 C 7462.83,5222.17 7461.17,5223.83 7458.5,5224.5C 7459.83,5222.5 7461.5,5220.83 7463.5,5219.5 Z"/></g>
<g><path style="opacity:0.671" fill="#ff8471" d="M 7444.5,5239.5 C 7443.83,5242.17 7442.17,5243.83 7439.5,5244.5C 7440.83,5242.5 7442.5,5240.83 7444.5,5239.5 Z"/></g>
<g><path style="opacity:0.671" fill="#ff8270" d="M 7407.5,5278.5 C 7406.83,5281.17 7405.17,5282.83 7402.5,5283.5C 7403.83,5281.5 7405.5,5279.83 7407.5,5278.5 Z"/></g>
<g><path style="opacity:0.671" fill="#ff8471" d="M 7370.5,5317.5 C 7369.83,5320.17 7368.17,5321.83 7365.5,5322.5C 7366.83,5320.5 7368.5,5318.83 7370.5,5317.5 Z"/></g>
<g><path style="opacity:0.671" fill="#ff8471" d="M 7352.5,5336.5 C 7351.83,5339.17 7350.17,5340.83 7347.5,5341.5C 7348.83,5339.5 7350.5,5337.83 7352.5,5336.5 Z"/></g>
<g><path style="opacity:0.671" fill="#ff8270" d="M 7334.5,5355.5 C 7333.83,5358.17 7332.17,5359.83 7329.5,5360.5C 7330.83,5358.5 7332.5,5356.83 7334.5,5355.5 Z"/></g>
<g><path style="opacity:0.671" fill="#ff8471" d="M 7297.5,5394.5 C 7296.83,5397.17 7295.17,5398.83 7292.5,5399.5C 7293.83,5397.5 7295.5,5395.83 7297.5,5394.5 Z"/></g>
<g><path style="opacity:0.671" fill="#ff8270" d="M 7260.5,5433.5 C 7259.83,5436.17 7258.17,5437.83 7255.5,5438.5C 7256.83,5436.5 7258.5,5434.83 7260.5,5433.5 Z"/></g>
<g><path style="opacity:0.671" fill="#ff8270" d="M 7241.5,5453.5 C 7240.83,5456.17 7239.17,5457.83 7236.5,5458.5C 7237.83,5456.5 7239.5,5454.83 7241.5,5453.5 Z"/></g>
<g><path style="opacity:0.671" fill="#ff8471" d="M 7130.5,5570.5 C 7129.83,5573.17 7128.17,5574.83 7125.5,5575.5C 7126.83,5573.5 7128.5,5571.83 7130.5,5570.5 Z"/></g>
<g><path style="opacity:0.671" fill="#ff8471" d="M 7092.5,5610.5 C 7091.83,5613.17 7090.17,5614.83 7087.5,5615.5C 7088.83,5613.5 7090.5,5611.83 7092.5,5610.5 Z"/></g>
<g><path style="opacity:0.671" fill="#ff8471" d="M 7071.5,5632.5 C 7070.83,5635.17 7069.17,5636.83 7066.5,5637.5C 7067.83,5635.5 7069.5,5633.83 7071.5,5632.5 Z"/></g>
<g><path style="opacity:0.671" fill="#ff8371" d="M 7048.5,5656.5 C 7047.5,5659.5 7045.5,5661.5 7042.5,5662.5C 7044.17,5660.17 7046.17,5658.17 7048.5,5656.5 Z"/></g>
<g><path style="opacity:0.671" fill="#ff8270" d="M 7021.5,5684.5 C 7019.5,5688.5 7016.5,5691.5 7012.5,5693.5C 7015.17,5690.17 7018.17,5687.17 7021.5,5684.5 Z"/></g>
<g><path style="opacity:1" fill="#030305" d="M 592.5,6352.5 C 592.5,6345.17 592.5,6337.83 592.5,6330.5C 600.741,6321.09 610.741,6314.26 622.5,6310C 837.169,6310.37 1051.84,6311.37 1266.5,6313C 1271.28,6314.23 1275.62,6316.23 1279.5,6319C 1276.63,6328.9 1272.8,6338.4 1268,6347.5C 1256.27,6365.57 1244.94,6383.9 1234,6402.5C 1231.41,6406.05 1227.91,6407.88 1223.5,6408C 1216.5,6408.67 1209.5,6408.67 1202.5,6408C 1087.83,6400.08 973.164,6392.08 858.5,6384C 788.174,6382.3 717.841,6380.97 647.5,6380C 629.393,6377.65 611.393,6374.82 593.5,6371.5C 593.823,6364.98 593.49,6358.64 592.5,6352.5 Z"/></g>
<g><path style="opacity:1" fill="#ff8b88" d="M 7361.5,7151.5 C 7360.17,7153.5 7358.5,7155.17 7356.5,7156.5C 7357.17,7153.83 7358.83,7152.17 7361.5,7151.5 Z"/></g>
<g><path style="opacity:1" fill="#ff8f8d" d="M 7349.5,7162.5 C 7348.83,7163.83 7347.83,7164.83 7346.5,7165.5C 7346.5,7163.5 7347.5,7162.5 7349.5,7162.5 Z"/></g>
<g><path style="opacity:0.871" fill="#ff766c" d="M 6300.5,7192.5 C 6299.83,7192.5 6299.17,7192.5 6298.5,7192.5C 6296.17,7190.83 6294.17,7188.83 6292.5,7186.5C 6292.43,7186.06 6292.6,7185.73 6293,7185.5C 6295.4,7188.07 6297.9,7190.4 6300.5,7192.5 Z"/></g>
<g><path style="opacity:1" fill="#030305" d="M 775.5,7598.5 C 773.965,7592.96 772.965,7587.29 772.5,7581.5C 776.053,7578.93 778.886,7575.59 781,7571.5C 780.146,7563.88 779.813,7556.21 780,7548.5C 782.697,7543.56 786.864,7540.73 792.5,7540C 851.047,7534.74 909.713,7531.41 968.5,7530C 1091.17,7530.34 1213.84,7530.17 1336.5,7529.5C 1363.5,7530.18 1390.5,7530.68 1417.5,7531C 1430.43,7533.88 1434.26,7541.38 1429,7553.5C 1419.25,7571.33 1409.25,7589 1399,7606.5C 1395.83,7609.67 1392.67,7612.83 1389.5,7616C 1385.31,7618.06 1380.98,7619.73 1376.5,7621C 1327.51,7620.06 1278.51,7619.06 1229.5,7618C 1204.79,7615.71 1180.13,7613.04 1155.5,7610C 1042.84,7610.07 930.171,7609.74 817.5,7609C 802.888,7607.58 788.888,7604.08 775.5,7598.5 Z"/></g>
<g><path style="opacity:1" fill="#030305" d="M 1291.5,8878.5 C 1289.28,8877.8 1287.45,8876.46 1286,8874.5C 1283.59,8870.11 1282.09,8865.44 1281.5,8860.5C 1285.29,8846.87 1293.63,8837.04 1306.5,8831C 1396.37,8812.96 1486.37,8795.29 1576.5,8778C 1660.28,8763.56 1743.95,8748.56 1827.5,8733C 1847.09,8730.77 1866.76,8729.94 1886.5,8730.5C 1886.92,8735.51 1887.09,8740.51 1887,8745.5C 1882.8,8757.1 1878.8,8768.77 1875,8780.5C 1870.51,8794.33 1863.34,8806.5 1853.5,8817C 1843.24,8824.08 1831.91,8828.74 1819.5,8831C 1744.87,8839.85 1670.37,8849.35 1596,8859.5C 1513.46,8869.92 1430.8,8882.92 1348,8898.5C 1334.28,8896.81 1321.78,8891.98 1310.5,8884C 1304.39,8881.24 1298.05,8879.41 1291.5,8878.5 Z"/></g>
<g><path style="opacity:1" fill="#ffa990" d="M 10673.5,9193.5 C 10672.9,9195.75 10671.6,9197.42 10669.5,9198.5C 10670.1,9196.25 10671.4,9194.58 10673.5,9193.5 Z"/></g>
<g><path style="opacity:1" fill="#ffa990" d="M 10663.5,9204.5 C 10662.9,9206.75 10661.6,9208.42 10659.5,9209.5C 10660.1,9207.25 10661.4,9205.58 10663.5,9204.5 Z"/></g>
<g><path style="opacity:1" fill="#ffa990" d="M 10639.5,9230.5 C 10638.9,9232.75 10637.6,9234.42 10635.5,9235.5C 10636.1,9233.25 10637.4,9231.58 10639.5,9230.5 Z"/></g>
<g><path style="opacity:1" fill="#ffad95" d="M 10625.5,9246.5 C 10624.2,9248.5 10622.5,9250.17 10620.5,9251.5C 10621.2,9248.83 10622.8,9247.17 10625.5,9246.5 Z"/></g>
<g><path style="opacity:1" fill="#ffa990" d="M 10606.5,9265.5 C 10605.2,9268.43 10603.2,9270.76 10600.5,9272.5C 10601.8,9269.57 10603.8,9267.24 10606.5,9265.5 Z"/></g>
<g><path style="opacity:0.992" fill="#ff7153" d="M 4628.5,9488.5 C 4621.52,9487.65 4614.35,9486.31 4607,9484.5C 4605.73,9484.62 4604.4,9484.95 4603,9485.5C 4590.58,9482.16 4579.75,9485.5 4570.5,9495.5C 4563.79,9506.96 4560.12,9519.29 4559.5,9532.5C 4558.69,9530.37 4558.19,9528.04 4558,9525.5C 4553.2,9519.7 4548.03,9514.2 4542.5,9509C 4498.94,9479.6 4457.27,9447.77 4417.5,9413.5C 4412.56,9409.06 4407.73,9404.4 4403,9399.5C 4402.6,9399.73 4402.43,9400.06 4402.5,9400.5C 4378.59,9379.1 4355.43,9356.76 4333,9333.5C 4316.2,9315.03 4299.03,9296.86 4281.5,9279C 4319.41,9289.44 4355.74,9304.11 4390.5,9323C 4433.53,9347.17 4474.87,9373.84 4514.5,9403C 4552.4,9431.75 4590.4,9460.25 4628.5,9488.5 Z"/></g>
<g><path style="opacity:1" fill="#ffaa91" d="M 10579.5,9293.5 C 10576.2,9298.44 10572.2,9302.77 10567.5,9306.5C 10570.8,9301.56 10574.8,9297.23 10579.5,9293.5 Z"/></g>
<g><path style="opacity:1" fill="#ffac93" d="M 10521.5,9352.5 C 10517.5,9357.17 10513.2,9361.5 10508.5,9365.5C 10511.8,9360.17 10516.2,9355.83 10521.5,9352.5 Z"/></g>
<g><path style="opacity:1" fill="#ffab92" d="M 10487.5,9385.5 C 10485.4,9388.57 10482.8,9390.91 10479.5,9392.5C 10481.6,9389.43 10484.2,9387.09 10487.5,9385.5 Z"/></g>
<g><path style="opacity:0.769" fill="#ffa585" d="M 4417.5,9413.5 C 4416.83,9413.5 4416.17,9413.5 4415.5,9413.5C 4410.86,9409.53 4406.53,9405.19 4402.5,9400.5C 4402.43,9400.06 4402.6,9399.73 4403,9399.5C 4407.73,9404.4 4412.56,9409.06 4417.5,9413.5 Z"/></g>
<g><path style="opacity:1" fill="#ffa990" d="M 10466.5,9405.5 C 10465.1,9407.91 10463.1,9409.58 10460.5,9410.5C 10461.9,9408.09 10463.9,9406.42 10466.5,9405.5 Z"/></g>
<g><path style="opacity:0.908" fill="#fff7f4" d="M 4415.5,9413.5 C 4416.17,9413.5 4416.83,9413.5 4417.5,9413.5C 4457.27,9447.77 4498.94,9479.6 4542.5,9509C 4548.03,9514.2 4553.2,9519.7 4558,9525.5C 4558.19,9528.04 4558.69,9530.37 4559.5,9532.5C 4559.79,9538.09 4561.96,9542.75 4566,9546.5C 4566.48,9547.45 4566.65,9548.45 4566.5,9549.5C 4512.56,9508.58 4462.23,9463.25 4415.5,9413.5 Z"/></g>
<g><path style="opacity:1" fill="#ffab92" d="M 10449.5,9421.5 C 10448.4,9423.59 10446.7,9424.92 10444.5,9425.5C 10445.6,9423.41 10447.3,9422.08 10449.5,9421.5 Z"/></g>
<g><path style="opacity:1" fill="#ffab92" d="M 10435.5,9434.5 C 10434.4,9436.59 10432.7,9437.92 10430.5,9438.5C 10431.6,9436.41 10433.3,9435.08 10435.5,9434.5 Z"/></g>
<g><path style="opacity:1" fill="#ffa990" d="M 10423.5,9445.5 C 10422.4,9447.59 10420.7,9448.92 10418.5,9449.5C 10419.6,9447.41 10421.3,9446.08 10423.5,9445.5 Z"/></g>
<g><path style="opacity:1" fill="#a9a9ac" d="M 3822.5,9606.5 C 3825.9,9608.9 3828.57,9611.9 3830.5,9615.5C 3827.1,9613.1 3824.43,9610.1 3822.5,9606.5 Z"/></g>
<g><path style="opacity:1" fill="#ababae" d="M 3865.5,9650.5 C 3878.5,9662.83 3891.17,9675.5 3903.5,9688.5C 3902.76,9688.63 3902.09,9688.46 3901.5,9688C 3888.91,9675.91 3876.91,9663.41 3865.5,9650.5 Z"/></g>
<g><path style="opacity:1" fill="#cacacc" d="M 3929.5,9714.5 C 3930.61,9714.56 3931.61,9714.89 3932.5,9715.5C 3938.17,9720.5 3943.5,9725.83 3948.5,9731.5C 3947.45,9731.65 3946.45,9731.48 3945.5,9731C 3939.96,9725.63 3934.63,9720.13 3929.5,9714.5 Z"/></g>
<g><path style="opacity:0.686" fill="#adacae" d="M 3952.5,9735.5 C 3959.19,9741.53 3965.53,9747.86 3971.5,9754.5C 3964.17,9749.17 3957.83,9742.83 3952.5,9735.5 Z"/></g>
<g><path style="opacity:0.314" fill="#908e90" d="M 3975.5,9757.5 C 3980.83,9762.17 3985.83,9767.17 3990.5,9772.5C 3984.5,9768.5 3979.5,9763.5 3975.5,9757.5 Z"/></g>
<g><path style="opacity:1" fill="#030305" d="M 2223.5,10098.5 C 2213.75,10093.8 2206.75,10086.4 2202.5,10076.5C 2202.33,10069.8 2202.5,10063.2 2203,10056.5C 2204.39,10048.6 2208.22,10042.1 2214.5,10037C 2349.45,9962.02 2486.45,9890.35 2625.5,9822C 2647.02,9810.9 2669.02,9800.9 2691.5,9792C 2695.5,9791.33 2699.5,9791.33 2703.5,9792C 2709.11,9795.29 2712.95,9800.13 2715,9806.5C 2720.73,9821.69 2726.06,9837.03 2731,9852.5C 2733.31,9862.91 2730.15,9871.07 2721.5,9877C 2651.89,9908.64 2582.22,9939.97 2512.5,9971C 2432.01,10009.1 2351.68,10047.4 2271.5,10086C 2262.39,10090.2 2253.06,10093.9 2243.5,10097C 2236.88,10098.1 2230.21,10098.6 2223.5,10098.5 Z"/></g>
<g><path style="opacity:0.989" fill="#fefdfc" d="M 2306.5,10186.5 C 2307.55,10186.4 2308.55,10186.5 2309.5,10187C 2331.86,10207.7 2353.86,10228.7 2375.5,10250C 2380.79,10253 2385.12,10257 2388.5,10262C 2393.45,10264.6 2397.45,10268.3 2400.5,10273C 2405.45,10275.6 2409.45,10279.3 2412.5,10284C 2417.12,10286.3 2420.78,10289.6 2423.5,10294C 2428.84,10297.7 2433.84,10301.7 2438.5,10306C 2440.87,10308 2442.87,10310.4 2444.5,10313C 2445.83,10313.7 2447.17,10314.3 2448.5,10315C 2510.76,10371.8 2574.43,10426.5 2639.5,10479C 2642.17,10481.7 2644.83,10484.3 2647.5,10487C 2652.06,10490.3 2656.72,10493.6 2661.5,10497C 2704.42,10532.8 2748.09,10567.2 2792.5,10600C 2813.08,10616.2 2833.75,10632.2 2854.5,10648C 2884.09,10668.9 2913.43,10690.3 2942.5,10712C 2948.71,10715.3 2954.38,10719.3 2959.5,10724C 2974.71,10732.9 2989.04,10742.9 3002.5,10754C 3004.09,10754.9 3005.75,10755.5 3007.5,10756C 3018.73,10763.5 3029.73,10771.5 3040.5,10780C 3043.93,10782.4 3047.6,10784.4 3051.5,10786C 3087.33,10811.2 3123.66,10835.5 3160.5,10859C 3302.54,10949 3448.54,11032.9 3598.5,11110.5C 3915.64,11272 4245.31,11401.2 4587.5,11498C 4626.77,11508.2 4665.77,11519.5 4704.5,11532C 4722.45,11537.3 4740.79,11539.5 4759.5,11538.5C 4774.7,11546.9 4790.7,11553.4 4807.5,11558C 4818.22,11560.1 4828.88,11559.9 4839.5,11557.5C 4841.18,11561 4843.85,11563.5 4847.5,11565C 4953.19,11588.7 5059.52,11610.4 5166.5,11630C 5443.6,11678.9 5722.93,11707.3 6004.5,11715C 6083.82,11721.5 6163.16,11727.8 6242.5,11734C 6529.64,11748.7 6816.31,11742.4 7102.5,11715C 7535.6,11671.9 7957.26,11578.2 8367.5,11434C 8901.78,11247.1 9396.11,10985.3 9850.5,10648.5C 9951.22,10572.1 10050.2,10493.5 10147.5,10412.5C 10147.8,10413.8 10148.2,10413.8 10148.5,10412.5C 10149.2,10412.5 10149.5,10412.2 10149.5,10411.5C 10313,10305.2 10469.7,10189.3 10619.5,10064C 10633.2,10053 10648.9,10046.2 10666.5,10043.5C 10668.4,10051.3 10667.2,10058.6 10663,10065.5C 10613.5,10133.7 10558,10197.2 10496.5,10256C 10330.3,10411.3 10157.3,10558 9977.5,10696C 9463.42,11085.7 8896.09,11378.1 8275.5,11573C 7747.5,11739.1 7206.67,11822.2 6653,11822.5C 6568.15,11822 6483.31,11820.5 6398.5,11818C 6365.13,11817.1 6331.79,11815.5 6298.5,11813C 6227.52,11807.1 6156.52,11801.4 6085.5,11796C 5746,11786.6 5410,11747.2 5077.5,11678C 5030.83,11668 4984.16,11658 4937.5,11648C 4930.4,11646.5 4924.24,11643.4 4919,11638.5C 4902.31,11641.5 4886.15,11639.7 4870.5,11633C 4861.41,11629 4852.41,11624.6 4843.5,11620C 4824.49,11620.4 4805.83,11618 4787.5,11613C 4718.92,11592.7 4650.26,11572.7 4581.5,11553C 4041.87,11390.7 3541.53,11150.3 3080.5,10832C 2882.88,10694.9 2694.55,10545.6 2515.5,10384C 2454.87,10328.4 2394.53,10272.4 2334.5,10216C 2324.54,10206.5 2315.21,10196.7 2306.5,10186.5 Z"/></g>
<g><path style="opacity:0.717" fill="#f0efef" d="M 2186.5,10065.5 C 2191.52,10069.5 2196.85,10073.2 2202.5,10076.5C 2206.75,10086.4 2213.75,10093.8 2223.5,10098.5C 2225.82,10103.1 2228.15,10107.8 2230.5,10112.5C 2215.13,10097.5 2200.46,10081.8 2186.5,10065.5 Z"/></g>
<g><path style="opacity:1" fill="#030305" d="M 3871.5,10641.5 C 3878.55,10640.7 3885.22,10641.9 3891.5,10645C 3908.05,10662.4 3920.72,10682.2 3929.5,10704.5C 3929.29,10712.8 3925.62,10718.9 3918.5,10723C 3860.76,10751 3802.43,10777.7 3743.5,10803C 3631.6,10854.3 3520.6,10908 3410.5,10964C 3398.81,10969.5 3387.81,10968.5 3377.5,10961C 3352.34,10938.4 3353.68,10917.8 3381.5,10899C 3448.06,10861.2 3515.72,10825.2 3584.5,10791C 3651.69,10754.2 3719.36,10718.2 3787.5,10683C 3804.66,10674.6 3822,10666.6 3839.5,10659C 3850.42,10653.4 3861.09,10647.5 3871.5,10641.5 Z"/></g>
<g><path style="opacity:1" fill="#030305" d="M 4839.5,11557.5 C 4828.88,11559.9 4818.22,11560.1 4807.5,11558C 4790.7,11553.4 4774.7,11546.9 4759.5,11538.5C 4759.85,11530.4 4761.02,11522.4 4763,11514.5C 4765.45,11510.4 4768.28,11506.6 4771.5,11503C 4897.21,11399 5023.21,11295.3 5149.5,11192C 5163,11180.1 5177.67,11178.4 5193.5,11187C 5205.14,11197.2 5218.47,11204.2 5233.5,11208C 5241.97,11210.7 5249.3,11215.2 5255.5,11221.5C 5248.5,11234.7 5238.83,11245.5 5226.5,11254C 5209.49,11264.5 5192.82,11275.5 5176.5,11287C 5067.89,11365.1 4960.89,11445.5 4855.5,11528C 4850.67,11531.5 4846.5,11535.7 4843,11540.5C 4839.9,11545.7 4838.73,11551.4 4839.5,11557.5 Z"/></g>
<g><path style="opacity:1" fill="#030305" d="M 6613.5,11431.5 C 6640.06,11436.9 6664.22,11447.5 6686,11463.5C 6687.13,11469.5 6685.79,11474.8 6682,11479.5C 6634.79,11537.7 6586.46,11595 6537,11651.5C 6524.88,11667.3 6512.38,11682.8 6499.5,11698C 6493.43,11703.2 6486.43,11706.5 6478.5,11708C 6463.16,11708.2 6447.83,11707.9 6432.5,11707C 6418.68,11703.8 6414.52,11695.7 6420,11682.5C 6427.33,11671.2 6434.67,11659.8 6442,11648.5C 6487.18,11588.8 6532.85,11529.5 6579,11470.5C 6586.06,11461.1 6592.72,11451.4 6599,11441.5C 6602.69,11436.3 6607.52,11432.9 6613.5,11431.5 Z"/></g>
</svg>
