<?xml version="1.0" encoding="UTF-8"?>
<!DOCTYPE svg PUBLIC "-//W3C//DTD SVG 1.1//EN" "http://www.w3.org/Graphics/SVG/1.1/DTD/svg11.dtd">
<svg xmlns="http://www.w3.org/2000/svg" version="1.1" width="200px" height="200px" style="shape-rendering:geometricPrecision; text-rendering:geometricPrecision; image-rendering:optimizeQuality; fill-rule:evenodd; clip-rule:evenodd" xmlns:xlink="http://www.w3.org/1999/xlink">
<g><path style="opacity:1" fill="#5c5859" d="M 69.5,21.5 C 78.6221,27.8633 81.2888,36.1966 77.5,46.5C 77.7035,44.6096 77.0368,43.1096 75.5,42C 76.7155,39.9045 77.5488,40.0712 78,42.5C 79.6298,36.7659 77.7965,32.7659 72.5,30.5C 70.5379,28.9827 68.2046,28.3161 65.5,28.5C 59.9327,29.5728 54.4327,29.5728 49,28.5C 45.7154,30.1373 42.2154,30.8039 38.5,30.5C 42.7155,29.209 47.0489,27.8757 51.5,26.5C 53.9423,28.13 55.9423,27.7967 57.5,25.5C 57.2907,24.914 56.9574,24.414 56.5,24C 60.7536,22.6859 65.087,21.8526 69.5,21.5 Z"/></g>
<g><path style="opacity:1" fill="#747274" d="M 69.5,21.5 C 65.087,21.8526 60.7536,22.6859 56.5,24C 56.9574,24.414 57.2907,24.914 57.5,25.5C 55.9423,27.7967 53.9423,28.13 51.5,26.5C 47.0489,27.8757 42.7155,29.209 38.5,30.5C 38.1667,30.5 37.8333,30.5 37.5,30.5C 33.4809,30.6458 29.4809,30.9791 25.5,31.5C 37.1901,27.3299 49.1901,23.8299 61.5,21C 64.367,20.1993 67.0336,20.3659 69.5,21.5 Z"/></g>
<g><path style="opacity:1" fill="#423e3f" d="M 72.5,30.5 C 66.199,28.8715 60.199,29.5382 54.5,32.5C 57.1934,34.2702 60.1934,34.9368 63.5,34.5C 63.6495,35.552 63.4828,36.552 63,37.5C 59.5954,38.9027 56.7621,41.0694 54.5,44C 52.6711,44.2735 51.1711,45.1068 50,46.5C 48.9505,45.4829 47.7839,45.3162 46.5,46C 44.2542,49.0458 41.9208,51.8792 39.5,54.5C 39.3354,51.4816 39.502,48.4816 40,45.5C 41.0495,46.5171 42.2161,46.6838 43.5,46C 49.6217,43.0403 55.6217,39.8737 61.5,36.5C 56.9039,35.9412 52.5706,36.9412 48.5,39.5C 47.5,38.5 46.5,37.5 45.5,36.5C 46.9079,35.7568 48.2412,34.9234 49.5,34C 46.5706,33.2228 43.7372,33.3895 41,34.5C 40.6667,33.8333 40.3333,33.1667 40,32.5C 38.5806,33.4601 37.0806,34.2935 35.5,35C 36.6956,35.6543 36.6956,36.1543 35.5,36.5C 34.3523,34.8513 33.019,33.3513 31.5,32C 33.7078,31.8091 35.7078,31.3091 37.5,30.5C 37.8333,30.5 38.1667,30.5 38.5,30.5C 42.2154,30.8039 45.7154,30.1373 49,28.5C 54.4327,29.5728 59.9327,29.5728 65.5,28.5C 68.2046,28.3161 70.5379,28.9827 72.5,30.5 Z"/></g>
<g><path style="opacity:1" fill="#302e2e" d="M 72.5,30.5 C 72.8769,32.258 73.5435,33.9246 74.5,35.5C 71.3872,39.2442 70.3872,43.4109 71.5,48C 71.3749,49.6268 70.8749,51.1268 70,52.5C 69,51.1667 68,51.1667 67,52.5C 66.6667,51.8333 66.3333,51.1667 66,50.5C 64.7964,51.4706 64.2964,52.4706 64.5,53.5C 63.4822,52.8075 62.4822,52.1408 61.5,51.5C 63.7623,50.1766 66.0956,48.8432 68.5,47.5C 65.9812,43.8687 62.9812,43.2021 59.5,45.5C 58.914,45.2907 58.414,44.9574 58,44.5C 51.3327,47.905 45.1661,51.905 39.5,56.5C 39.5,55.8333 39.5,55.1667 39.5,54.5C 41.9208,51.8792 44.2542,49.0458 46.5,46C 47.7839,45.3162 48.9505,45.4829 50,46.5C 51.1711,45.1068 52.6711,44.2735 54.5,44C 56.7621,41.0694 59.5954,38.9027 63,37.5C 63.4828,36.552 63.6495,35.552 63.5,34.5C 60.1934,34.9368 57.1934,34.2702 54.5,32.5C 60.199,29.5382 66.199,28.8715 72.5,30.5 Z"/></g>
<g><path style="opacity:1" fill="#0c0b0b" d="M 30.5,59.5 C 33.2443,55.6209 34.411,51.2876 34,46.5C 31.2645,42.2621 27.7645,38.9288 23.5,36.5C 25.8811,35.1697 28.2144,35.3364 30.5,37C 36.9849,43.7177 37.9849,51.0511 33.5,59C 32.552,59.4828 31.552,59.6495 30.5,59.5 Z"/></g>
<g><path style="opacity:1" fill="#171616" d="M 61.5,51.5 C 56.5995,51.4674 52.2662,52.8008 48.5,55.5C 46.4615,59.518 43.1281,61.518 38.5,61.5C 38.0618,61.5654 37.7284,61.3988 37.5,61C 38.5822,59.6703 39.2488,58.1703 39.5,56.5C 45.1661,51.905 51.3327,47.905 58,44.5C 58.414,44.9574 58.914,45.2907 59.5,45.5C 62.9812,43.2021 65.9812,43.8687 68.5,47.5C 66.0956,48.8432 63.7623,50.1766 61.5,51.5 Z"/></g>
<g><path style="opacity:1" fill="#323031" d="M 23.5,36.5 C 27.7645,38.9288 31.2645,42.2621 34,46.5C 34.411,51.2876 33.2443,55.6209 30.5,59.5C 29.1667,59.1667 27.8333,58.8333 26.5,58.5C 20.2749,53.8251 18.2749,47.8251 20.5,40.5C 21.1429,38.9236 22.1429,37.5903 23.5,36.5 Z"/></g>
<g><path style="opacity:1" fill="#403d3e" d="M 72.5,30.5 C 77.7965,32.7659 79.6298,36.7659 78,42.5C 77.5488,40.0712 76.7155,39.9045 75.5,42C 77.0368,43.1096 77.7035,44.6096 77.5,46.5C 76.9447,48.7288 75.6114,50.3954 73.5,51.5C 74.5771,53.7294 75.2437,56.0628 75.5,58.5C 74.0335,55.7417 73.3668,56.075 73.5,59.5C 66.6285,61.2188 59.9618,63.5521 53.5,66.5C 54.6302,67.6223 55.2969,68.9557 55.5,70.5C 51.0744,66.5917 48.741,61.5917 48.5,55.5C 52.2662,52.8008 56.5995,51.4674 61.5,51.5C 62.4822,52.1408 63.4822,52.8075 64.5,53.5C 64.2964,52.4706 64.7964,51.4706 66,50.5C 66.3333,51.1667 66.6667,51.8333 67,52.5C 68,51.1667 69,51.1667 70,52.5C 70.8749,51.1268 71.3749,49.6268 71.5,48C 70.3872,43.4109 71.3872,39.2442 74.5,35.5C 73.5435,33.9246 72.8769,32.258 72.5,30.5 Z"/></g>
<g><path style="opacity:1" fill="#524e4f" d="M 37.5,30.5 C 35.7078,31.3091 33.7078,31.8091 31.5,32C 33.019,33.3513 34.3523,34.8513 35.5,36.5C 36.6956,36.1543 36.6956,35.6543 35.5,35C 37.0806,34.2935 38.5806,33.4601 40,32.5C 40.3333,33.1667 40.6667,33.8333 41,34.5C 43.7372,33.3895 46.5706,33.2228 49.5,34C 48.2412,34.9234 46.9079,35.7568 45.5,36.5C 46.5,37.5 47.5,38.5 48.5,39.5C 52.5706,36.9412 56.9039,35.9412 61.5,36.5C 55.6217,39.8737 49.6217,43.0403 43.5,46C 42.2161,46.6838 41.0495,46.5171 40,45.5C 39.502,48.4816 39.3354,51.4816 39.5,54.5C 39.5,55.1667 39.5,55.8333 39.5,56.5C 39.2488,58.1703 38.5822,59.6703 37.5,61C 37.7284,61.3988 38.0618,61.5654 38.5,61.5C 38.7261,64.2492 38.3928,66.9159 37.5,69.5C 37.9569,70.2975 38.6236,70.6309 39.5,70.5C 39.6107,71.1174 39.944,71.6174 40.5,72C 35.3478,71.6976 30.8478,73.1976 27,76.5C 26.6174,75.944 26.1174,75.6107 25.5,75.5C 28.5407,70.4592 32.5407,66.4592 37.5,63.5C 32.9452,64.3998 29.2785,62.7331 26.5,58.5C 27.8333,58.8333 29.1667,59.1667 30.5,59.5C 31.552,59.6495 32.552,59.4828 33.5,59C 37.9849,51.0511 36.9849,43.7177 30.5,37C 28.2144,35.3364 25.8811,35.1697 23.5,36.5C 22.1429,37.5903 21.1429,38.9236 20.5,40.5C 20.4025,36.3477 22.0692,33.3477 25.5,31.5C 29.4809,30.9791 33.4809,30.6458 37.5,30.5 Z"/></g>
<g><path style="opacity:1" fill="#181717" d="M 75.5,58.5 C 76.6808,60.0672 78.3474,60.9005 80.5,61C 79.0899,62.3717 77.4233,63.205 75.5,63.5C 69.0402,66.3952 62.3735,68.7286 55.5,70.5C 55.2969,68.9557 54.6302,67.6223 53.5,66.5C 59.9618,63.5521 66.6285,61.2188 73.5,59.5C 73.3668,56.075 74.0335,55.7417 75.5,58.5 Z"/></g>
<g><path style="opacity:1" fill="#494544" d="M 75.5,58.5 C 94.1206,59.0648 111.121,64.3981 126.5,74.5C 121.217,75.1873 116.051,75.1873 111,74.5C 108.83,74.6723 107.163,75.6723 106,77.5C 103.952,77.5778 101.785,77.4111 99.5,77C 100.956,77.4226 101.456,78.2559 101,79.5C 98.5393,78.7819 96.0393,78.1153 93.5,77.5C 92.7087,78.0656 92.7087,78.899 93.5,80C 92.9915,81.1685 92.1581,82.0019 91,82.5C 89.9916,82.0183 88.825,81.8516 87.5,82C 88.6537,81.0862 88.487,80.2529 87,79.5C 85.5648,81.2113 83.7314,82.378 81.5,83C 82.7375,83.2321 83.7375,83.7321 84.5,84.5C 77.8072,82.1493 71.1406,79.816 64.5,77.5C 62.7512,76.0149 60.7512,75.0149 58.5,74.5C 60.1992,74.6602 61.8659,74.4935 63.5,74C 66.5687,71.8755 69.902,70.0422 73.5,68.5C 75.5294,69.6293 75.8627,69.1293 74.5,67C 75.1667,66.6667 75.8333,66.3333 76.5,66C 75.7476,65.3292 75.4142,64.4959 75.5,63.5C 77.4233,63.205 79.0899,62.3717 80.5,61C 78.3474,60.9005 76.6808,60.0672 75.5,58.5 Z"/></g>
<g><path style="opacity:1" fill="#312e2e" d="M 48.5,55.5 C 48.741,61.5917 51.0744,66.5917 55.5,70.5C 62.3735,68.7286 69.0402,66.3952 75.5,63.5C 75.4142,64.4959 75.7476,65.3292 76.5,66C 75.8333,66.3333 75.1667,66.6667 74.5,67C 75.8627,69.1293 75.5294,69.6293 73.5,68.5C 69.902,70.0422 66.5687,71.8755 63.5,74C 61.8659,74.4935 60.1992,74.6602 58.5,74.5C 51.797,74.5527 45.4637,73.2194 39.5,70.5C 38.6236,70.6309 37.9569,70.2975 37.5,69.5C 38.3928,66.9159 38.7261,64.2492 38.5,61.5C 43.1281,61.518 46.4615,59.518 48.5,55.5 Z"/></g>
<g><path style="opacity:1" fill="#4b4746" d="M 39.5,70.5 C 45.4637,73.2194 51.797,74.5527 58.5,74.5C 60.7512,75.0149 62.7512,76.0149 64.5,77.5C 57.7268,74.737 55.3935,76.737 57.5,83.5C 55.9368,84.7873 53.6035,85.9539 50.5,87C 51.8333,87.6667 51.8333,88.3333 50.5,89C 53.0278,89.6689 53.0278,90.5022 50.5,91.5C 48.7162,90.6599 47.7162,91.4932 47.5,94C 48.506,97.9415 50.3393,98.7749 53,96.5C 55.1344,99.0836 56.9677,98.7503 58.5,95.5C 60.2237,96.6613 61.8904,96.4947 63.5,95C 62.8333,94.6667 62.1667,94.3333 61.5,94C 62.3079,92.2942 63.6412,91.4609 65.5,91.5C 65.281,90.325 65.6143,89.325 66.5,88.5C 67.6199,89.8334 68.9532,90.3334 70.5,90C 69.4954,88.4933 68.162,87.3267 66.5,86.5C 69.5458,83.7339 72.3791,84.0672 75,87.5C 75.3333,87.1667 75.6667,86.8333 76,86.5C 76.6054,88.4812 77.6054,88.8146 79,87.5C 79.6979,88.6906 80.5313,89.6906 81.5,90.5C 80.729,93.3322 80.0623,93.6655 79.5,91.5C 79.189,90.5222 78.5223,89.8555 77.5,89.5C 75.3359,90.4143 73.3359,91.581 71.5,93C 72.8088,94.7507 72.4755,96.2507 70.5,97.5C 70.8333,98.1667 71.1667,98.8333 71.5,99.5C 69.6294,102.234 68.6294,105.234 68.5,108.5C 67.1779,108.67 66.0113,108.337 65,107.5C 64.6667,105.833 64.3333,104.167 64,102.5C 60.0316,102.699 56.1983,104.033 52.5,106.5C 51.5723,104.665 50.4056,104.332 49,105.5C 47.0728,102.052 45.7394,98.3852 45,94.5C 43.4905,95.0897 41.9905,95.7564 40.5,96.5C 41.5217,97.354 42.3551,98.354 43,99.5C 43.3333,99.1667 43.6667,98.8333 44,98.5C 44.905,101.232 44.2383,101.899 42,100.5C 40.2017,101.504 38.3684,102.004 36.5,102C 38.0074,101.163 38.5074,99.9961 38,98.5C 35.8195,102.29 33.8195,102.29 32,98.5C 30.8619,92.349 29.5286,92.6823 28,99.5C 26.2453,98.33 25.2453,96.6633 25,94.5C 24.5034,96.8098 24.3367,99.1432 24.5,101.5C 22.9798,96.2323 21.9798,90.7323 21.5,85C 21.5924,81.1989 22.9257,78.0323 25.5,75.5C 26.1174,75.6107 26.6174,75.944 27,76.5C 30.8478,73.1976 35.3478,71.6976 40.5,72C 39.944,71.6174 39.6107,71.1174 39.5,70.5 Z"/></g>
<g><path style="opacity:1" fill="#3f3b3b" d="M 126.5,74.5 C 129.428,75.5914 131.594,77.5914 133,80.5C 136.41,88.3191 140.077,95.9858 144,103.5C 146.428,106.598 149.428,108.931 153,110.5C 153.667,112.167 153.667,113.833 153,115.5C 150.487,121.855 147.987,128.188 145.5,134.5C 138.481,132.787 136.815,128.787 140.5,122.5C 141.043,122.44 141.376,122.107 141.5,121.5C 140.5,120.5 139.5,119.5 138.5,118.5C 136.028,120.251 133.361,121.085 130.5,121C 133.834,119.669 136.834,117.835 139.5,115.5C 138.376,114.086 137.376,112.586 136.5,111C 139.925,108.715 140.425,105.882 138,102.5C 137.658,104.619 136.825,104.953 135.5,103.5C 133.403,96.5303 130.737,89.8636 127.5,83.5C 127.082,82.7784 126.416,82.2784 125.5,82C 126.5,81.6667 127.5,81.3333 128.5,81C 125.725,79.7331 123.059,78.2331 120.5,76.5C 119.28,77.7111 118.113,77.7111 117,76.5C 109.504,80.1667 102.004,83.6667 94.5,87C 93.1667,88.6667 93.1667,90.3333 94.5,92C 96.5213,92.1402 98.3547,92.3068 100,92.5C 103.533,88.913 107.7,86.413 112.5,85C 114.066,84.235 115.399,84.4017 116.5,85.5C 112.646,87.593 108.646,89.4263 104.5,91C 103.106,91.956 102.439,93.2894 102.5,95C 104.816,102.795 107.816,110.295 111.5,117.5C 109.983,117.489 108.816,116.823 108,115.5C 105.332,108.767 102.665,102.101 100,95.5C 99.6758,97.5689 98.8425,97.9023 97.5,96.5C 97.1667,97 96.8333,97.5 96.5,98C 98.1501,103.287 99.9834,108.453 102,113.5C 102.808,115.579 102.641,117.579 101.5,119.5C 99.3509,115.794 97.3509,112.127 95.5,108.5C 94.018,102.189 92.518,95.8559 91,89.5C 88.0991,88.7633 85.9325,87.0967 84.5,84.5C 83.7375,83.7321 82.7375,83.2321 81.5,83C 83.7314,82.378 85.5648,81.2113 87,79.5C 88.487,80.2529 88.6537,81.0862 87.5,82C 88.825,81.8516 89.9916,82.0183 91,82.5C 92.1581,82.0019 92.9915,81.1685 93.5,80C 92.7087,78.899 92.7087,78.0656 93.5,77.5C 96.0393,78.1153 98.5393,78.7819 101,79.5C 101.456,78.2559 100.956,77.4226 99.5,77C 101.785,77.4111 103.952,77.5778 106,77.5C 107.163,75.6723 108.83,74.6723 111,74.5C 116.051,75.1873 121.217,75.1873 126.5,74.5 Z"/></g>
<g><path style="opacity:1" fill="#322f2e" d="M 127.5,83.5 C 123.681,83.414 120.015,84.0807 116.5,85.5C 115.399,84.4017 114.066,84.235 112.5,85C 107.7,86.413 103.533,88.913 100,92.5C 98.3547,92.3068 96.5213,92.1402 94.5,92C 93.1667,90.3333 93.1667,88.6667 94.5,87C 102.004,83.6667 109.504,80.1667 117,76.5C 118.113,77.7111 119.28,77.7111 120.5,76.5C 123.059,78.2331 125.725,79.7331 128.5,81C 127.5,81.3333 126.5,81.6667 125.5,82C 126.416,82.2784 127.082,82.7784 127.5,83.5 Z"/></g>
<g><path style="opacity:1" fill="#0a0a0a" d="M 127.5,83.5 C 130.737,89.8636 133.403,96.5303 135.5,103.5C 135.739,105.467 135.406,107.301 134.5,109C 127.251,112.46 119.918,115.627 112.5,118.5C 111.833,118.5 111.5,118.167 111.5,117.5C 107.816,110.295 104.816,102.795 102.5,95C 102.439,93.2894 103.106,91.956 104.5,91C 108.646,89.4263 112.646,87.593 116.5,85.5C 120.015,84.0807 123.681,83.414 127.5,83.5 Z"/></g>
<g><path style="opacity:1" fill="#524e4d" d="M 64.5,77.5 C 71.1406,79.816 77.8072,82.1493 84.5,84.5C 85.9325,87.0967 88.0991,88.7633 91,89.5C 92.518,95.8559 94.018,102.189 95.5,108.5C 95.5654,108.938 95.3988,109.272 95,109.5C 94.0656,108.142 93.2323,106.808 92.5,105.5C 91.0153,101.859 89.5153,98.1924 88,94.5C 85.7445,93.2395 83.5779,91.9061 81.5,90.5C 80.5313,89.6906 79.6979,88.6906 79,87.5C 77.6054,88.8146 76.6054,88.4812 76,86.5C 75.6667,86.8333 75.3333,87.1667 75,87.5C 72.3791,84.0672 69.5458,83.7339 66.5,86.5C 68.162,87.3267 69.4954,88.4933 70.5,90C 68.9532,90.3334 67.6199,89.8334 66.5,88.5C 65.6143,89.325 65.281,90.325 65.5,91.5C 63.6412,91.4609 62.3079,92.2942 61.5,94C 62.1667,94.3333 62.8333,94.6667 63.5,95C 61.8904,96.4947 60.2237,96.6613 58.5,95.5C 56.9677,98.7503 55.1344,99.0836 53,96.5C 50.3393,98.7749 48.506,97.9415 47.5,94C 47.7162,91.4932 48.7162,90.6599 50.5,91.5C 53.0278,90.5022 53.0278,89.6689 50.5,89C 51.8333,88.3333 51.8333,87.6667 50.5,87C 53.6035,85.9539 55.9368,84.7873 57.5,83.5C 55.3935,76.737 57.7268,74.737 64.5,77.5 Z"/></g>
<g><path style="opacity:1" fill="#474242" d="M 81.5,90.5 C 83.5779,91.9061 85.7445,93.2395 88,94.5C 89.5153,98.1924 91.0153,101.859 92.5,105.5C 94.3536,111.893 96.5202,118.226 99,124.5C 101.053,126.764 103.219,128.93 105.5,131C 106.448,131.483 107.448,131.649 108.5,131.5C 109.833,134.167 109.833,136.833 108.5,139.5C 100.537,137.356 92.8706,134.356 85.5,130.5C 87.3713,130.094 89.2047,129.76 91,129.5C 92.7126,128.863 92.8793,127.863 91.5,126.5C 92.6034,126.002 93.6034,125.669 94.5,125.5C 93.9169,123.998 93.0836,122.665 92,121.5C 90.836,121.165 89.5026,121.165 88,121.5C 87.6667,120.167 87.3333,118.833 87,117.5C 86.3333,118.833 85.6667,118.833 85,117.5C 83.4257,120.775 80.9257,122.275 77.5,122C 79.8457,120.321 81.8457,118.321 83.5,116C 80.9632,115.402 78.2965,114.069 75.5,112C 77.9574,110.846 77.9574,109.512 75.5,108C 79.3776,106.234 79.3776,104.401 75.5,102.5C 76.1229,100.097 76.4562,97.5972 76.5,95C 75.6919,94.6924 75.0253,94.1924 74.5,93.5C 76.4027,93.9349 78.0693,93.2682 79.5,91.5C 80.0623,93.6655 80.729,93.3322 81.5,90.5 Z"/></g>
<g><path style="opacity:1" fill="#757276" d="M 108.5,93.5 C 108.88,94.1331 109.213,94.7997 109.5,95.5C 111.098,94.5153 112.765,94.3486 114.5,95C 113.396,96.1313 113.729,96.9646 115.5,97.5C 117.059,96.9264 118.559,96.2598 120,95.5C 120.333,96.8333 120.667,98.1667 121,99.5C 121.202,97.7444 121.702,96.0777 122.5,94.5C 123.941,95.8651 125.274,97.3651 126.5,99C 125.584,99.3742 124.75,99.8742 124,100.5C 123.464,102.869 122.297,104.869 120.5,106.5C 118.866,106.032 117.7,105.032 117,103.5C 116.001,107.237 114.668,107.237 113,103.5C 113,104.833 113,106.167 113,107.5C 110.806,104.446 109.139,101.112 108,97.5C 107.768,98.7375 107.268,99.7375 106.5,100.5C 104.885,97.5983 105.551,95.265 108.5,93.5 Z"/></g>
<g><path style="opacity:1" fill="#585355" d="M 106.5,100.5 C 107.268,99.7375 107.768,98.7375 108,97.5C 109.139,101.112 110.806,104.446 113,107.5C 113,106.167 113,104.833 113,103.5C 114.668,107.237 116.001,107.237 117,103.5C 117.7,105.032 118.866,106.032 120.5,106.5C 122.297,104.869 123.464,102.869 124,100.5C 124.75,99.8742 125.584,99.3742 126.5,99C 125.274,97.3651 123.941,95.8651 122.5,94.5C 121.702,96.0777 121.202,97.7444 121,99.5C 120.667,98.1667 120.333,96.8333 120,95.5C 118.559,96.2598 117.059,96.9264 115.5,97.5C 113.729,96.9646 113.396,96.1313 114.5,95C 112.765,94.3486 111.098,94.5153 109.5,95.5C 109.213,94.7997 108.88,94.1331 108.5,93.5C 112.733,91.1384 117.233,89.1384 122,87.5C 123.225,87.8623 124.391,88.3623 125.5,89C 127.329,93.1495 129.163,97.3162 131,101.5C 132.041,104.636 131.207,107.136 128.5,109C 123.94,111.114 119.274,112.947 114.5,114.5C 112.971,114.471 111.804,113.804 111,112.5C 108.998,108.658 107.498,104.658 106.5,100.5 Z"/></g>
<g><path style="opacity:1" fill="#4a4544" d="M 79.5,91.5 C 78.0693,93.2682 76.4027,93.9349 74.5,93.5C 75.0253,94.1924 75.6919,94.6924 76.5,95C 76.4562,97.5972 76.1229,100.097 75.5,102.5C 79.3776,104.401 79.3776,106.234 75.5,108C 77.9574,109.512 77.9574,110.846 75.5,112C 78.2965,114.069 80.9632,115.402 83.5,116C 81.8457,118.321 79.8457,120.321 77.5,122C 80.9257,122.275 83.4257,120.775 85,117.5C 85.6667,118.833 86.3333,118.833 87,117.5C 87.3333,118.833 87.6667,120.167 88,121.5C 89.5026,121.165 90.836,121.165 92,121.5C 93.0836,122.665 93.9169,123.998 94.5,125.5C 93.6034,125.669 92.6034,126.002 91.5,126.5C 92.8793,127.863 92.7126,128.863 91,129.5C 89.2047,129.76 87.3713,130.094 85.5,130.5C 92.8706,134.356 100.537,137.356 108.5,139.5C 109.833,136.833 109.833,134.167 108.5,131.5C 107.448,131.649 106.448,131.483 105.5,131C 103.219,128.93 101.053,126.764 99,124.5C 96.5202,118.226 94.3536,111.893 92.5,105.5C 93.2323,106.808 94.0656,108.142 95,109.5C 95.3988,109.272 95.5654,108.938 95.5,108.5C 97.3509,112.127 99.3509,115.794 101.5,119.5C 102.641,117.579 102.808,115.579 102,113.5C 99.9834,108.453 98.1501,103.287 96.5,98C 96.8333,97.5 97.1667,97 97.5,96.5C 98.8425,97.9023 99.6758,97.5689 100,95.5C 102.665,102.101 105.332,108.767 108,115.5C 108.816,116.823 109.983,117.489 111.5,117.5C 111.5,118.167 111.833,118.5 112.5,118.5C 112.007,120.49 110.84,120.49 109,118.5C 107.786,120.049 106.286,121.215 104.5,122C 105.5,123.667 106.833,125 108.5,126C 111.401,126.875 114.068,128.042 116.5,129.5C 112.595,132.726 109.929,136.726 108.5,141.5C 98.8113,138.818 89.8113,134.818 81.5,129.5C 74.005,124.753 66.005,121.086 57.5,118.5C 51.5376,114.852 45.2042,111.685 38.5,109C 37.5,108 36.5,107 35.5,106C 31.3459,105.586 27.6793,104.086 24.5,101.5C 24.3367,99.1432 24.5034,96.8098 25,94.5C 25.2453,96.6633 26.2453,98.33 28,99.5C 29.5286,92.6823 30.8619,92.349 32,98.5C 33.8195,102.29 35.8195,102.29 38,98.5C 38.5074,99.9961 38.0074,101.163 36.5,102C 38.3684,102.004 40.2017,101.504 42,100.5C 44.2383,101.899 44.905,101.232 44,98.5C 43.6667,98.8333 43.3333,99.1667 43,99.5C 42.3551,98.354 41.5217,97.354 40.5,96.5C 41.9905,95.7564 43.4905,95.0897 45,94.5C 45.7394,98.3852 47.0728,102.052 49,105.5C 50.4056,104.332 51.5723,104.665 52.5,106.5C 56.1983,104.033 60.0316,102.699 64,102.5C 64.3333,104.167 64.6667,105.833 65,107.5C 66.0113,108.337 67.1779,108.67 68.5,108.5C 68.6294,105.234 69.6294,102.234 71.5,99.5C 71.1667,98.8333 70.8333,98.1667 70.5,97.5C 72.4755,96.2507 72.8088,94.7507 71.5,93C 73.3359,91.581 75.3359,90.4143 77.5,89.5C 78.5223,89.8555 79.189,90.5222 79.5,91.5 Z"/></g>
<g><path style="opacity:1" fill="#2e2b2b" d="M 140.5,122.5 C 138.733,121.35 137.567,122.017 137,124.5C 137.499,130.216 136.832,135.883 135,141.5C 134.788,138.242 134.288,135.076 133.5,132C 134.5,131.667 135.5,131.333 136.5,131C 134.68,130.021 133.513,128.521 133,126.5C 130.572,127.63 128.405,129.13 126.5,131C 127.603,132.68 127.27,134.18 125.5,135.5C 126.025,136.192 126.692,136.692 127.5,137C 125.151,139.761 125.984,141.595 130,142.5C 132.21,143.566 134.377,143.732 136.5,143C 133.672,145.248 130.672,147.248 127.5,149C 125.361,149.264 123.694,148.431 122.5,146.5C 123.443,141.9 123.777,137.233 123.5,132.5C 125.327,129.526 127.993,127.359 131.5,126C 132.696,125.346 132.696,124.846 131.5,124.5C 130.833,124.833 130.167,125.167 129.5,125.5C 129.167,124.833 128.833,124.167 128.5,123.5C 124.473,125.513 120.473,127.513 116.5,129.5C 114.068,128.042 111.401,126.875 108.5,126C 106.833,125 105.5,123.667 104.5,122C 106.286,121.215 107.786,120.049 109,118.5C 110.84,120.49 112.007,120.49 112.5,118.5C 119.918,115.627 127.251,112.46 134.5,109C 135.406,107.301 135.739,105.467 135.5,103.5C 136.825,104.953 137.658,104.619 138,102.5C 140.425,105.882 139.925,108.715 136.5,111C 137.376,112.586 138.376,114.086 139.5,115.5C 136.834,117.835 133.834,119.669 130.5,121C 133.361,121.085 136.028,120.251 138.5,118.5C 139.5,119.5 140.5,120.5 141.5,121.5C 141.376,122.107 141.043,122.44 140.5,122.5 Z"/></g>
<g><path style="opacity:1" fill="#464141" d="M 81.5,129.5 C 89.8113,134.818 98.8113,138.818 108.5,141.5C 107.363,148.671 105.697,155.671 103.5,162.5C 97.8832,160.358 92.5499,157.692 87.5,154.5C 87.56,153.957 87.8933,153.624 88.5,153.5C 92.0505,155.619 95.7172,157.119 99.5,158C 95.5899,153.764 92.0899,149.264 89,144.5C 88.6667,144.833 88.3333,145.167 88,145.5C 86.3829,144.149 85.2162,142.482 84.5,140.5C 83.8076,141.025 83.3076,141.692 83,142.5C 82.1495,139.388 80.9828,139.054 79.5,141.5C 78.646,140.478 77.646,139.645 76.5,139C 79.0317,138.388 79.8651,136.888 79,134.5C 78.2747,136.158 77.108,136.658 75.5,136C 73.215,133.2 70.5484,131.033 67.5,129.5C 67.6495,128.448 67.4828,127.448 67,126.5C 66.3333,127.833 65.6667,127.833 65,126.5C 64.6827,128.301 64.016,128.634 63,127.5C 62.2025,125.741 62.3691,124.074 63.5,122.5C 69.4909,124.831 75.4909,127.164 81.5,129.5 Z"/></g>
<g><path style="opacity:0.035" fill="#c8cbcd" d="M 153.5,126.5 C 154.525,126.897 154.692,127.563 154,128.5C 153.536,127.906 153.369,127.239 153.5,126.5 Z"/></g>
<g><path style="opacity:1" fill="#4b4744" d="M 57.5,118.5 C 66.005,121.086 74.005,124.753 81.5,129.5C 75.4909,127.164 69.4909,124.831 63.5,122.5C 62.3691,124.074 62.2025,125.741 63,127.5C 64.016,128.634 64.6827,128.301 65,126.5C 65.6667,127.833 66.3333,127.833 67,126.5C 67.4828,127.448 67.6495,128.448 67.5,129.5C 70.5484,131.033 73.215,133.2 75.5,136C 77.108,136.658 78.2747,136.158 79,134.5C 79.8651,136.888 79.0317,138.388 76.5,139C 77.646,139.645 78.646,140.478 79.5,141.5C 80.9828,139.054 82.1495,139.388 83,142.5C 83.3076,141.692 83.8076,141.025 84.5,140.5C 85.2162,142.482 86.3829,144.149 88,145.5C 88.3333,145.167 88.6667,144.833 89,144.5C 92.0899,149.264 95.5899,153.764 99.5,158C 95.7172,157.119 92.0505,155.619 88.5,153.5C 87.8933,153.624 87.56,153.957 87.5,154.5C 78.8333,149.5 70.1667,144.5 61.5,139.5C 61.56,138.957 61.8933,138.624 62.5,138.5C 65.9186,140.626 69.4186,142.626 73,144.5C 73.0604,140.111 71.5604,136.278 68.5,133C 67.2161,132.316 66.0495,132.483 65,133.5C 64.3946,131.519 63.3946,131.185 62,132.5C 60.6189,130.365 59.6189,128.032 59,125.5C 57.0869,122.878 54.7535,121.878 52,122.5C 50.8118,121.437 50.3118,120.103 50.5,118.5C 46.1987,118.652 45.1987,117.318 47.5,114.5C 50.64,116.406 53.9734,117.74 57.5,118.5 Z"/></g>
<g><path style="opacity:1" fill="#060606" d="M 140.5,122.5 C 136.815,128.787 138.481,132.787 145.5,134.5C 146.492,134.328 147.158,134.662 147.5,135.5C 148.234,136.708 148.567,138.041 148.5,139.5C 149.873,139.343 151.207,139.51 152.5,140C 155.654,142.743 158.988,145.243 162.5,147.5C 163.183,147.137 163.85,146.804 164.5,146.5C 164.351,147.552 164.517,148.552 165,149.5C 167.667,151.5 170.333,153.5 173,155.5C 173.278,154.584 173.778,153.918 174.5,153.5C 175.167,153.5 175.5,153.833 175.5,154.5C 174.551,159.74 174.218,165.073 174.5,170.5C 173.5,171.167 172.5,171.833 171.5,172.5C 171.44,171.957 171.107,171.624 170.5,171.5C 168.343,173.412 166.009,175.079 163.5,176.5C 163.167,176.167 162.833,175.833 162.5,175.5C 165.058,173.88 165.058,172.38 162.5,171C 163.448,170.517 164.448,170.351 165.5,170.5C 165.007,168.194 164.674,165.861 164.5,163.5C 163.127,163.343 161.793,163.51 160.5,164C 161.696,164.654 161.696,165.154 160.5,165.5C 149.206,160.902 137.873,156.402 126.5,152C 124.833,150.833 123.167,149.667 121.5,148.5C 119.58,151.339 117.913,154.339 116.5,157.5C 115.675,158.386 114.675,158.719 113.5,158.5C 113.167,158.5 112.833,158.5 112.5,158.5C 111.877,154.091 112.71,149.758 115,145.5C 116.333,144.833 117.667,144.167 119,143.5C 119.653,139.347 121.153,135.68 123.5,132.5C 123.777,137.233 123.443,141.9 122.5,146.5C 123.694,148.431 125.361,149.264 127.5,149C 130.672,147.248 133.672,145.248 136.5,143C 134.377,143.732 132.21,143.566 130,142.5C 125.984,141.595 125.151,139.761 127.5,137C 126.692,136.692 126.025,136.192 125.5,135.5C 127.27,134.18 127.603,132.68 126.5,131C 128.405,129.13 130.572,127.63 133,126.5C 133.513,128.521 134.68,130.021 136.5,131C 135.5,131.333 134.5,131.667 133.5,132C 134.288,135.076 134.788,138.242 135,141.5C 136.832,135.883 137.499,130.216 137,124.5C 137.567,122.017 138.733,121.35 140.5,122.5 Z"/></g>
<g><path style="opacity:1" fill="#504c4a" d="M 24.5,101.5 C 27.6793,104.086 31.3459,105.586 35.5,106C 36.5,107 37.5,108 38.5,109C 45.2042,111.685 51.5376,114.852 57.5,118.5C 53.9734,117.74 50.64,116.406 47.5,114.5C 45.1987,117.318 46.1987,118.652 50.5,118.5C 50.3118,120.103 50.8118,121.437 52,122.5C 54.7535,121.878 57.0869,122.878 59,125.5C 59.6189,128.032 60.6189,130.365 62,132.5C 63.3946,131.185 64.3946,131.519 65,133.5C 66.0495,132.483 67.2161,132.316 68.5,133C 71.5604,136.278 73.0604,140.111 73,144.5C 69.4186,142.626 65.9186,140.626 62.5,138.5C 61.8933,138.624 61.56,138.957 61.5,139.5C 53.5,134.167 45.5,128.833 37.5,123.5C 31.1365,117.451 26.8031,110.117 24.5,101.5 Z"/></g>
<g><path style="opacity:1" fill="#1f1d1d" d="M 123.5,132.5 C 121.153,135.68 119.653,139.347 119,143.5C 117.667,144.167 116.333,144.833 115,145.5C 112.71,149.758 111.877,154.091 112.5,158.5C 111.87,160.707 110.536,162.374 108.5,163.5C 106.585,163.784 104.919,163.451 103.5,162.5C 105.697,155.671 107.363,148.671 108.5,141.5C 109.929,136.726 112.595,132.726 116.5,129.5C 120.473,127.513 124.473,125.513 128.5,123.5C 128.833,124.167 129.167,124.833 129.5,125.5C 130.167,125.167 130.833,124.833 131.5,124.5C 132.696,124.846 132.696,125.346 131.5,126C 127.993,127.359 125.327,129.526 123.5,132.5 Z"/></g>
<g><path style="opacity:1" fill="#2a292a" d="M 147.5,135.5 C 153.98,137.993 159.646,141.659 164.5,146.5C 163.85,146.804 163.183,147.137 162.5,147.5C 158.988,145.243 155.654,142.743 152.5,140C 151.207,139.51 149.873,139.343 148.5,139.5C 148.567,138.041 148.234,136.708 147.5,135.5 Z"/></g>
<g><path style="opacity:1" fill="#292828" d="M 164.5,146.5 C 168.221,148.354 171.554,150.687 174.5,153.5C 173.778,153.918 173.278,154.584 173,155.5C 170.333,153.5 167.667,151.5 165,149.5C 164.517,148.552 164.351,147.552 164.5,146.5 Z"/></g>
<g><path style="opacity:1" fill="#272526" d="M 171.5,172.5 C 168.5,175.167 165.5,177.833 162.5,180.5C 162.167,180.5 161.833,180.5 161.5,180.5C 155.737,178.786 150.07,176.786 144.5,174.5C 134.01,169.422 123.677,164.089 113.5,158.5C 114.675,158.719 115.675,158.386 116.5,157.5C 117.913,154.339 119.58,151.339 121.5,148.5C 123.167,149.667 124.833,150.833 126.5,152C 137.873,156.402 149.206,160.902 160.5,165.5C 161.696,165.154 161.696,164.654 160.5,164C 161.793,163.51 163.127,163.343 164.5,163.5C 164.674,165.861 165.007,168.194 165.5,170.5C 164.448,170.351 163.448,170.517 162.5,171C 165.058,172.38 165.058,173.88 162.5,175.5C 162.833,175.833 163.167,176.167 163.5,176.5C 166.009,175.079 168.343,173.412 170.5,171.5C 171.107,171.624 171.44,171.957 171.5,172.5 Z"/></g>
<g><path style="opacity:0.929" fill="#d5d0ce" d="M 37.5,123.5 C 45.5,128.833 53.5,134.167 61.5,139.5C 70.1667,144.5 78.8333,149.5 87.5,154.5C 92.5499,157.692 97.8832,160.358 103.5,162.5C 104.919,163.451 106.585,163.784 108.5,163.5C 112.188,163.781 115.855,164.281 119.5,165C 124.355,167.428 129.022,169.928 133.5,172.5C 125.029,169.716 116.362,167.549 107.5,166C 83.0912,154.967 60.0912,141.633 38.5,126C 37.7476,125.329 37.4142,124.496 37.5,123.5 Z"/></g>
<g><path style="opacity:1" fill="#cbcdd4" d="M 170.5,156.5 C 172.273,157.314 172.773,158.648 172,160.5C 171.209,159.255 170.709,157.922 170.5,156.5 Z"/></g>
<g><path style="opacity:1" fill="#424143" d="M 175.5,154.5 C 176.906,154.973 177.573,155.973 177.5,157.5C 176.313,160.946 175.646,164.613 175.5,168.5C 175.672,169.492 175.338,170.158 174.5,170.5C 174.218,165.073 174.551,159.74 175.5,154.5 Z"/></g>
<g><path style="opacity:1" fill="#aca09b" d="M 112.5,158.5 C 112.833,158.5 113.167,158.5 113.5,158.5C 123.677,164.089 134.01,169.422 144.5,174.5C 140.616,174.576 136.95,173.91 133.5,172.5C 129.022,169.928 124.355,167.428 119.5,165C 115.855,164.281 112.188,163.781 108.5,163.5C 110.536,162.374 111.87,160.707 112.5,158.5 Z"/></g>
<g><path style="opacity:0.494" fill="#8f9295" d="M 177.5,157.5 C 177.749,161.458 177.082,165.124 175.5,168.5C 175.646,164.613 176.313,160.946 177.5,157.5 Z"/></g>
<g><path style="opacity:1" fill="#cfc8c5" d="M 133.5,172.5 C 136.95,173.91 140.616,174.576 144.5,174.5C 150.07,176.786 155.737,178.786 161.5,180.5C 159.473,182.088 157.139,182.588 154.5,182C 147.307,179.109 140.307,175.942 133.5,172.5 Z"/></g>
<g><path style="opacity:0.176" fill="#e1e0e1" d="M 174.5,170.5 C 174.5,171.833 174.5,173.167 174.5,174.5C 173.448,174.351 172.448,174.517 171.5,175C 169.423,178.371 166.423,180.204 162.5,180.5C 165.5,177.833 168.5,175.167 171.5,172.5C 172.5,171.833 173.5,171.167 174.5,170.5 Z"/></g>
</svg>
