<?xml version="1.0" encoding="UTF-8"?>
<!DOCTYPE svg PUBLIC "-//W3C//DTD SVG 1.1//EN" "http://www.w3.org/Graphics/SVG/1.1/DTD/svg11.dtd">
<svg xmlns="http://www.w3.org/2000/svg" version="1.1" width="75px" height="75px" style="shape-rendering:geometricPrecision; text-rendering:geometricPrecision; image-rendering:optimizeQuality; fill-rule:evenodd; clip-rule:evenodd" xmlns:xlink="http://www.w3.org/1999/xlink">
<g><path style="opacity:0.824" fill="#fe7568" d="M 48.5,-0.5 C 52.5,-0.5 56.5,-0.5 60.5,-0.5C 69.1123,3.98278 72.1123,10.9828 69.5,20.5C 71.0453,21.4519 72.712,21.7852 74.5,21.5C 74.5,39.1667 74.5,56.8333 74.5,74.5C 51.5,74.5 28.5,74.5 5.5,74.5C 3.16667,72.8333 1.16667,70.8333 -0.5,68.5C -0.5,50.5 -0.5,32.5 -0.5,14.5C 5.57598,6.27453 12.4093,5.60786 20,12.5C 21.5489,15.3117 22.3822,18.3117 22.5,21.5C 28.1667,21.5 33.8333,21.5 39.5,21.5C 37.0643,11.8843 40.0643,4.55097 48.5,-0.5 Z M 51.5,4.5 C 59.4346,3.59746 64.1012,7.09746 65.5,15C 62.9717,21.8974 59.305,28.0641 54.5,33.5C 49.9716,27.9409 46.6383,21.7742 44.5,15C 44.7507,9.97043 47.084,6.47043 51.5,4.5 Z M 8.5,13.5 C 11.6516,12.9586 14.1516,13.9586 16,16.5C 16.6667,28.8333 16.6667,41.1667 16,53.5C 12.3333,52.1667 8.66667,52.1667 5,53.5C 4.33333,41.5 4.33333,29.5 5,17.5C 5.68972,15.6498 6.85639,14.3164 8.5,13.5 Z M 53.5,13.5 C 56.9571,13.6672 57.2904,14.6672 54.5,16.5C 53.6143,15.675 53.281,14.675 53.5,13.5 Z M 22.5,26.5 C 29.5316,26.1697 36.5316,26.503 43.5,27.5C 45.9574,30.914 48.2907,34.414 50.5,38C 43.8333,38.3333 37.1667,38.6667 30.5,39C 24.7913,42.5454 24.1246,46.8787 28.5,52C 33.5999,52.8799 38.5999,53.8799 43.5,55C 38.2327,56.0522 32.8994,57.0522 27.5,58C 25.7098,61.5828 25.0431,65.4161 25.5,69.5C 19.0478,69.9155 12.7145,69.4155 6.5,68C 3.13531,60.7356 5.46864,57.4023 13.5,58C 15.607,59.2635 16.607,61.0968 16.5,63.5C 18.5,63.5 20.5,63.5 22.5,63.5C 22.5,51.1667 22.5,38.8333 22.5,26.5 Z M 66.5,26.5 C 67.5,26.5 68.5,26.5 69.5,26.5C 69.5,40.8333 69.5,55.1667 69.5,69.5C 56.5,69.5 43.5,69.5 30.5,69.5C 30.0548,66.6354 30.7215,64.1354 32.5,62C 36.8333,61.6667 41.1667,61.3333 45.5,61C 49.7695,56.2909 49.4361,51.9576 44.5,48C 40.1667,47.6667 35.8333,47.3333 31.5,47C 30.1667,46.3333 30.1667,45.6667 31.5,45C 43.1619,44.5001 54.8286,44.3335 66.5,44.5C 66.5,42.5 66.5,40.5 66.5,38.5C 63.8127,38.6641 61.146,38.4974 58.5,38C 61.2997,34.2249 63.9664,30.3916 66.5,26.5 Z"/></g>
<g><path style="opacity:0.792" fill="#fe7568" d="M 52.5,7.5 C 60.0322,7.53242 62.8655,11.1991 61,18.5C 58.0913,21.3939 54.5913,22.2272 50.5,21C 46.1882,15.7307 46.8548,11.2307 52.5,7.5 Z M 53.5,13.5 C 53.281,14.675 53.6143,15.675 54.5,16.5C 57.2904,14.6672 56.9571,13.6672 53.5,13.5 Z"/></g>
<g><path style="opacity:0.667" fill="#fe7568" d="M 52.5,47.5 C 54.1667,47.5 55.8333,47.5 57.5,47.5C 58.5749,51.938 56.9083,53.938 52.5,53.5C 52.5,51.5 52.5,49.5 52.5,47.5 Z"/></g>
<g><path style="opacity:0.644" fill="#fe7568" d="M 60.5,56.5 C 62.5,56.5 64.5,56.5 66.5,56.5C 66.5,58.1667 66.5,59.8333 66.5,61.5C 64.5,61.5 62.5,61.5 60.5,61.5C 60.5,59.8333 60.5,58.1667 60.5,56.5 Z"/></g>
<g><path style="opacity:0.568" fill="#fe7568" d="M 47.5,60.5 C 52.6673,59.4919 54.334,61.3252 52.5,66C 50.8659,66.4935 49.1992,66.6602 47.5,66.5C 47.5,64.5 47.5,62.5 47.5,60.5 Z"/></g>
</svg>
