<?xml version="1.0" encoding="UTF-8"?>
<!DOCTYPE svg PUBLIC "-//W3C//DTD SVG 1.1//EN" "http://www.w3.org/Graphics/SVG/1.1/DTD/svg11.dtd">
<svg xmlns="http://www.w3.org/2000/svg" version="1.1" width="200px" height="200px" style="shape-rendering:geometricPrecision; text-rendering:geometricPrecision; image-rendering:optimizeQuality; fill-rule:evenodd; clip-rule:evenodd" xmlns:xlink="http://www.w3.org/1999/xlink">
<g><path style="opacity:1" fill="#e3af17" d="M 131.5,32.5 C 129.087,30.9493 126.421,30.2826 123.5,30.5C 119.702,29.5166 115.702,29.1832 111.5,29.5C 110.167,12.1667 108.833,12.1667 107.5,29.5C 105.085,30.3052 102.751,31.3052 100.5,32.5C 100.161,27.0698 100.661,21.7364 102,16.5C 111.333,12.5 120.667,12.5 130,16.5C 131.397,21.7081 131.897,27.0414 131.5,32.5 Z"/></g>
<g><path style="opacity:1" fill="#fcf0db" d="M 111.5,29.5 C 110.167,29.5 108.833,29.5 107.5,29.5C 108.833,12.1667 110.167,12.1667 111.5,29.5 Z"/></g>
<g><path style="opacity:1" fill="#9b9a9a" d="M 74.5,54.5 C 81.5054,49.9955 88.8387,45.9955 96.5,42.5C 102.238,39.9658 107.905,37.1325 113.5,34C 114.833,33.3333 116.167,33.3333 117.5,34C 104.135,40.3419 91.4682,47.6752 79.5,56C 77.1214,56.6139 74.788,56.9472 72.5,57C 73.3805,56.2917 74.0472,55.4584 74.5,54.5 Z"/></g>
<g><path style="opacity:1" fill="#232221" d="M 131.5,42.5 C 133.63,49.2296 133.963,56.0629 132.5,63C 132.833,63.8333 133.167,64.6667 133.5,65.5C 135.331,64.0706 137.331,63.5706 139.5,64C 138.421,64.956 137.255,65.7894 136,66.5C 135.833,69.1667 135.667,71.8333 135.5,74.5C 135.562,77.6128 136.229,80.4461 137.5,83C 136.095,84.2692 134.429,84.7692 132.5,84.5C 132.215,86.288 132.548,87.9547 133.5,89.5C 135.413,88.627 137.247,87.627 139,86.5C 138.711,88.311 137.544,89.6443 135.5,90.5C 135.167,93.3333 134.833,96.1667 134.5,99C 134.558,102.276 135.224,105.276 136.5,108C 135.099,108.41 133.766,108.91 132.5,109.5C 130.705,115.084 129.871,121.084 130,127.5C 129.5,113.171 129.333,98.8372 129.5,84.5C 129.5,83.8333 129.5,83.1667 129.5,82.5C 129.824,75.6457 129.491,68.979 128.5,62.5C 114.01,61.504 99.3428,61.1707 84.5,61.5C 83.3991,60.4017 82.0657,60.235 80.5,61C 76.6596,63.8429 73.1596,67.0095 70,70.5C 69.5005,76.4908 69.3338,82.4908 69.5,88.5C 69.1667,88.5 68.8333,88.5 68.5,88.5C 68.6567,87.1266 68.49,85.7932 68,84.5C 66.1025,86.905 63.9358,87.5716 61.5,86.5C 62.1667,86.5 62.5,86.1667 62.5,85.5C 63.7206,84.9717 64.8873,84.305 66,83.5C 64.9471,75.5126 67.1137,68.6792 72.5,63C 81.237,56.6312 90.5704,51.2979 100.5,47C 101.047,46.0754 101.713,45.2421 102.5,44.5C 107.214,41.8661 112.214,39.6994 117.5,38C 120.167,37.3333 122.833,37.3333 125.5,38C 127.07,40.07 129.07,41.57 131.5,42.5 Z"/></g>
<g><path style="opacity:1" fill="#565556" d="M 107.5,29.5 C 108.833,29.5 110.167,29.5 111.5,29.5C 115.702,29.1832 119.702,29.5166 123.5,30.5C 122.262,30.81 122.262,31.31 123.5,32C 130.931,32.0619 133.598,35.5619 131.5,42.5C 129.07,41.57 127.07,40.07 125.5,38C 122.833,37.3333 120.167,37.3333 117.5,38C 112.214,39.6994 107.214,41.8661 102.5,44.5C 101.713,45.2421 101.047,46.0754 100.5,47C 90.5704,51.2979 81.237,56.6312 72.5,63C 67.1137,68.6792 64.9471,75.5126 66,83.5C 64.8873,84.305 63.7206,84.9717 62.5,85.5C 62.666,80.1563 62.4994,74.8229 62,69.5C 61.7679,70.7375 61.2679,71.7375 60.5,72.5C 61.8109,63.8732 66.4776,57.8732 74.5,54.5C 74.0472,55.4584 73.3805,56.2917 72.5,57C 74.788,56.9472 77.1214,56.6139 79.5,56C 91.4682,47.6752 104.135,40.3419 117.5,34C 116.167,33.3333 114.833,33.3333 113.5,34C 107.905,37.1325 102.238,39.9658 96.5,42.5C 98.0291,39.2464 99.3624,35.913 100.5,32.5C 102.751,31.3052 105.085,30.3052 107.5,29.5 Z"/></g>
<g><path style="opacity:1" fill="#f4cf10" d="M 84.5,61.5 C 99.3428,61.1707 114.01,61.504 128.5,62.5C 128.5,68.8333 128.5,75.1667 128.5,81.5C 109.659,81.1698 90.9925,81.5031 72.5,82.5C 72.1667,82.5 71.8333,82.5 71.5,82.5C 70.3943,74.978 72.7277,68.8113 78.5,64C 80.2166,62.4412 82.2166,61.6079 84.5,61.5 Z"/></g>
<g><path style="opacity:1" fill="#768b6e" d="M 79.5,69.5 C 82.5,68.1667 85.5,68.1667 88.5,69.5C 86.9557,69.7031 85.6223,70.3698 84.5,71.5C 83.1585,69.9951 81.4918,69.3285 79.5,69.5 Z"/></g>
<g><path style="opacity:1" fill="#1b54c4" d="M 79.5,69.5 C 81.4918,69.3285 83.1585,69.9951 84.5,71.5C 85.6223,70.3698 86.9557,69.7031 88.5,69.5C 88.0909,72.8107 86.9242,75.8107 85,78.5C 85.2378,70.7307 83.4044,70.564 79.5,78C 78.552,78.4828 77.552,78.6495 76.5,78.5C 76.446,75.0076 77.446,72.0076 79.5,69.5 Z"/></g>
<g><path style="opacity:1" fill="#3c54c2" d="M 92.5,70.5 C 93.0431,70.56 93.3764,70.8933 93.5,71.5C 92.9851,73.2251 92.3184,74.8917 91.5,76.5C 90.9114,74.5188 91.2447,72.5188 92.5,70.5 Z"/></g>
<g><path style="opacity:1" fill="#2f4ad4" d="M 105.5,73.5 C 104.141,74.0065 103.141,75.0065 102.5,76.5C 102.094,75.4425 102.094,74.1092 102.5,72.5C 103.791,72.2627 104.791,72.596 105.5,73.5 Z"/></g>
<g><path style="opacity:1" fill="#164cd3" d="M 99.5,72.5 C 100.239,72.369 100.906,72.5357 101.5,73C 100.118,77.7055 99.4511,77.5388 99.5,72.5 Z"/></g>
<g><path style="opacity:1" fill="#607197" d="M 111.5,72.5 C 116.266,72.201 120.933,72.5343 125.5,73.5C 124.062,76.8229 122.229,77.1562 120,74.5C 118.999,79.1814 117.333,79.5148 115,75.5C 114.667,75.8333 114.333,76.1667 114,76.5C 113.562,74.3582 112.728,73.0249 111.5,72.5 Z"/></g>
<g><path style="opacity:1" fill="#5a68a4" d="M 94.5,72.5 C 95.9778,72.238 97.3112,72.5713 98.5,73.5C 94.2056,80.2161 92.8723,79.8828 94.5,72.5 Z"/></g>
<g><path style="opacity:1" fill="#6266a6" d="M 105.5,73.5 C 106.708,72.7659 108.041,72.4326 109.5,72.5C 109.5,73.8333 109.5,75.1667 109.5,76.5C 108.167,76.5 106.833,76.5 105.5,76.5C 105.5,75.5 105.5,74.5 105.5,73.5 Z"/></g>
<g><path style="opacity:1" fill="#cacdcd" d="M 62.5,85.5 C 62.5,86.1667 62.1667,86.5 61.5,86.5C 60.5139,82.03 60.1805,77.3633 60.5,72.5C 61.2679,71.7375 61.7679,70.7375 62,69.5C 62.4994,74.8229 62.666,80.1563 62.5,85.5 Z"/></g>
<g><path style="opacity:1" fill="#f09d02" d="M 128.5,62.5 C 129.491,68.979 129.824,75.6457 129.5,82.5C 110.5,82.5 91.5,82.5 72.5,82.5C 90.9925,81.5031 109.659,81.1698 128.5,81.5C 128.5,75.1667 128.5,68.8333 128.5,62.5 Z"/></g>
<g><path style="opacity:1" fill="#393987" d="M 71.5,82.5 C 71.8333,82.5 72.1667,82.5 72.5,82.5C 91.5,82.5 110.5,82.5 129.5,82.5C 129.5,83.1667 129.5,83.8333 129.5,84.5C 109.804,85.1543 90.4711,84.4876 71.5,82.5 Z"/></g>
<g><path style="opacity:1" fill="#828080" d="M 123.5,30.5 C 126.421,30.2826 129.087,30.9493 131.5,32.5C 133.075,35.5821 135.242,38.2488 138,40.5C 142.659,46.9364 143.492,53.7697 140.5,61C 143.153,68.8879 143.153,76.7212 140.5,84.5C 142.044,88.0982 142.711,91.9315 142.5,96C 142.314,122.979 141.981,149.812 141.5,176.5C 140.778,176.918 140.278,177.584 140,178.5C 139.19,171.918 139.357,165.418 140.5,159C 137.967,157.084 137.967,155.084 140.5,153C 138.833,153.333 137.167,153.667 135.5,154C 136.309,148.583 136.809,143.083 137,137.5C 140.936,135.702 141.103,134.869 137.5,135C 134.341,138.708 133.008,138.208 133.5,133.5C 133.918,132.778 134.584,132.278 135.5,132C 134.193,126.221 134.193,120.388 135.5,114.5C 137.167,113.333 138.833,112.167 140.5,111C 138.063,111.203 135.729,112.037 133.5,113.5C 132.571,112.311 132.238,110.978 132.5,109.5C 133.766,108.91 135.099,108.41 136.5,108C 135.224,105.276 134.558,102.276 134.5,99C 134.833,96.1667 135.167,93.3333 135.5,90.5C 137.544,89.6443 138.711,88.311 139,86.5C 137.247,87.627 135.413,88.627 133.5,89.5C 132.548,87.9547 132.215,86.288 132.5,84.5C 134.429,84.7692 136.095,84.2692 137.5,83C 136.229,80.4461 135.562,77.6128 135.5,74.5C 135.667,71.8333 135.833,69.1667 136,66.5C 137.255,65.7894 138.421,64.956 139.5,64C 137.331,63.5706 135.331,64.0706 133.5,65.5C 133.167,64.6667 132.833,63.8333 132.5,63C 133.963,56.0629 133.63,49.2296 131.5,42.5C 133.598,35.5619 130.931,32.0619 123.5,32C 122.262,31.31 122.262,30.81 123.5,30.5 Z"/></g>
<g><path style="opacity:1" fill="#6e6a6a" d="M 60.5,72.5 C 60.1805,77.3633 60.5139,82.03 61.5,86.5C 63.9358,87.5716 66.1025,86.905 68,84.5C 68.49,85.7932 68.6567,87.1266 68.5,88.5C 67.5423,89.9616 66.3756,91.2949 65,92.5C 65.1256,98.5879 64.2923,104.255 62.5,109.5C 62.8275,104.456 62.4941,99.456 61.5,94.5C 60.1853,99.9864 60.1853,105.32 61.5,110.5C 63.6114,116.858 65.6114,116.525 67.5,109.5C 67.8333,110.167 68.1667,110.833 68.5,111.5C 67.5705,113.606 66.4038,115.606 65,117.5C 64.6667,122.5 64.3333,127.5 64,132.5C 63.6174,133.056 63.1174,133.389 62.5,133.5C 62.8275,128.456 62.4941,123.456 61.5,118.5C 60.1853,123.986 60.1853,129.32 61.5,134.5C 61.7713,136.312 62.438,137.978 63.5,139.5C 64.4776,139.023 65.3109,138.357 66,137.5C 67.7713,131.038 68.438,131.038 68,137.5C 67,138.5 66,139.5 65,140.5C 64.6667,145.833 64.3333,151.167 64,156.5C 61.094,158.404 60.7606,160.737 63,163.5C 65.6238,162.389 67.1238,160.389 67.5,157.5C 68.3857,158.325 68.719,159.325 68.5,160.5C 67.5423,161.962 66.3756,163.295 65,164.5C 63.94,171.084 63.1067,177.417 62.5,183.5C 58.2039,176.872 57.5373,169.872 60.5,162.5C 57.8399,154.446 57.8399,146.446 60.5,138.5C 58.4244,130.804 58.4244,122.971 60.5,115C 59.8404,100.649 59.8404,86.4821 60.5,72.5 Z"/></g>
<g><path style="opacity:1" fill="#cecfcf" d="M 62.5,109.5 C 62.5,110.167 62.1667,110.5 61.5,110.5C 60.1853,105.32 60.1853,99.9864 61.5,94.5C 62.4941,99.456 62.8275,104.456 62.5,109.5 Z"/></g>
<g><path style="opacity:1" fill="#1c1c1d" d="M 75.5,94.5 C 73.8793,99.1063 74.2126,103.44 76.5,107.5C 76.5,107.833 76.5,108.167 76.5,108.5C 76.5,110.5 76.5,112.5 76.5,114.5C 76.552,116.903 76.2186,119.236 75.5,121.5C 74.8365,119.958 74.1698,118.291 73.5,116.5C 72.1667,130.5 72.1667,144.5 73.5,158.5C 75.4531,157.976 77.1198,156.976 78.5,155.5C 79.1924,156.025 79.6924,156.692 80,157.5C 81.4828,155.054 82.6495,155.388 83.5,158.5C 87.3125,159.167 90.9792,159.834 94.5,160.5C 87.1667,160.5 79.8333,160.5 72.5,160.5C 70.9832,155.414 70.1499,150.081 70,144.5C 69.8267,150.016 69.3267,155.349 68.5,160.5C 68.719,159.325 68.3857,158.325 67.5,157.5C 67.1238,160.389 65.6238,162.389 63,163.5C 60.7606,160.737 61.094,158.404 64,156.5C 64.3333,151.167 64.6667,145.833 65,140.5C 66,139.5 67,138.5 68,137.5C 68.438,131.038 67.7713,131.038 66,137.5C 65.3109,138.357 64.4776,139.023 63.5,139.5C 62.438,137.978 61.7713,136.312 61.5,134.5C 62.1667,134.5 62.5,134.167 62.5,133.5C 63.1174,133.389 63.6174,133.056 64,132.5C 64.3333,127.5 64.6667,122.5 65,117.5C 66.4038,115.606 67.5705,113.606 68.5,111.5C 68.1667,110.833 67.8333,110.167 67.5,109.5C 65.6114,116.525 63.6114,116.858 61.5,110.5C 62.1667,110.5 62.5,110.167 62.5,109.5C 64.2923,104.255 65.1256,98.5879 65,92.5C 66.3756,91.2949 67.5423,89.9616 68.5,88.5C 68.8333,88.5 69.1667,88.5 69.5,88.5C 69.4346,88.9382 69.6012,89.2716 70,89.5C 70.3333,88.8333 70.6667,88.1667 71,87.5C 72.092,90.0444 72.7586,92.7111 73,95.5C 73.3418,93.3808 74.1751,93.0474 75.5,94.5 Z"/></g>
<g><path style="opacity:1" fill="#838587" d="M 126.5,116.5 C 124.413,132.368 115.913,143.035 101,148.5C 87.0699,143.926 79.0699,134.593 77,120.5C 76.6174,121.056 76.1174,121.389 75.5,121.5C 76.2186,119.236 76.552,116.903 76.5,114.5C 79.5,114.5 82.5,114.5 85.5,114.5C 85.6265,116.915 85.7932,119.249 86,121.5C 83.5463,120.802 81.2129,119.802 79,118.5C 78.2599,119.749 78.4265,120.749 79.5,121.5C 81.1556,131.671 86.4889,139.171 95.5,144C 101.134,146.563 105.801,145.396 109.5,140.5C 112.5,139.5 114.5,137.5 115.5,134.5C 116.833,132.833 118.167,131.167 119.5,129.5C 120.376,129.631 121.043,129.298 121.5,128.5C 124.751,121.63 125.751,114.63 124.5,107.5C 124.167,107.5 123.833,107.5 123.5,107.5C 123.372,103.119 123.705,98.7853 124.5,94.5C 123.167,94.5 121.833,94.5 120.5,94.5C 116.126,93.6564 111.793,92.6564 107.5,91.5C 105.538,89.9827 103.205,89.3161 100.5,89.5C 97.8163,89.7017 95.1497,90.035 92.5,90.5C 87.8385,92.8324 83.1718,95.1657 78.5,97.5C 76.9886,100.544 76.322,103.878 76.5,107.5C 74.2126,103.44 73.8793,99.1063 75.5,94.5C 90.356,87.5889 105.689,86.7556 121.5,92C 123.587,92.7922 125.421,93.9588 127,95.5C 127.675,102.528 127.508,109.528 126.5,116.5 Z"/></g>
<g><path style="opacity:1" fill="#dadada" d="M 116.5,97.5 C 117.833,97.5 119.167,97.5 120.5,97.5C 119.833,100.167 119.167,102.833 118.5,105.5C 116.167,105.5 113.833,105.5 111.5,105.5C 111.357,103.738 111.691,102.071 112.5,100.5C 112,100.167 111.5,99.8333 111,99.5C 109.062,101.058 107.562,103.058 106.5,105.5C 105.319,103.865 105.319,102.198 106.5,100.5C 105.998,99.479 105.332,99.3123 104.5,100C 103.139,101.584 102.472,103.418 102.5,105.5C 99.1194,105.54 95.7861,105.207 92.5,104.5C 92.4208,103.07 92.7542,101.736 93.5,100.5C 92.5,99.1667 91.5,99.1667 90.5,100.5C 88.5362,105.837 87.8695,105.837 88.5,100.5C 87.675,99.6143 86.675,99.281 85.5,99.5C 85.6254,102.608 84.2921,104.608 81.5,105.5C 81.7976,102.735 82.7976,100.235 84.5,98C 95.0176,97.9696 105.684,97.8029 116.5,97.5 Z"/></g>
<g><path style="opacity:1" fill="#2f4864" d="M 107.5,91.5 C 111.793,92.6564 116.126,93.6564 120.5,94.5C 120.611,95.1174 120.944,95.6174 121.5,96C 119.618,96.1981 117.952,96.6981 116.5,97.5C 105.684,97.8029 95.0176,97.9696 84.5,98C 82.7976,100.235 81.7976,102.735 81.5,105.5C 80.7784,105.082 80.2784,104.416 80,103.5C 79.0255,105.878 78.3589,105.544 78,102.5C 77.5065,104.134 77.3398,105.801 77.5,107.5C 77.1667,107.5 76.8333,107.5 76.5,107.5C 76.322,103.878 76.9886,100.544 78.5,97.5C 78.56,98.0431 78.8933,98.3764 79.5,98.5C 84.9867,96.0433 90.6534,94.0433 96.5,92.5C 100.107,91.5108 103.774,91.1774 107.5,91.5 Z"/></g>
<g><path style="opacity:1" fill="#a8b6c8" d="M 107.5,91.5 C 103.774,91.1774 100.107,91.5108 96.5,92.5C 90.6534,94.0433 84.9867,96.0433 79.5,98.5C 78.8933,98.3764 78.56,98.0431 78.5,97.5C 83.1718,95.1657 87.8385,92.8324 92.5,90.5C 95.1497,90.035 97.8163,89.7017 100.5,89.5C 103.205,89.3161 105.538,89.9827 107.5,91.5 Z"/></g>
<g><path style="opacity:1" fill="#121626" d="M 120.5,94.5 C 121.833,94.5 123.167,94.5 124.5,94.5C 123.705,98.7853 123.372,103.119 123.5,107.5C 108.167,107.5 92.8333,107.5 77.5,107.5C 77.3398,105.801 77.5065,104.134 78,102.5C 78.3589,105.544 79.0255,105.878 80,103.5C 80.2784,104.416 80.7784,105.082 81.5,105.5C 84.2921,104.608 85.6254,102.608 85.5,99.5C 86.675,99.281 87.675,99.6143 88.5,100.5C 87.8695,105.837 88.5362,105.837 90.5,100.5C 91.5,99.1667 92.5,99.1667 93.5,100.5C 92.7542,101.736 92.4208,103.07 92.5,104.5C 95.7861,105.207 99.1194,105.54 102.5,105.5C 102.472,103.418 103.139,101.584 104.5,100C 105.332,99.3123 105.998,99.479 106.5,100.5C 105.319,102.198 105.319,103.865 106.5,105.5C 107.562,103.058 109.062,101.058 111,99.5C 111.5,99.8333 112,100.167 112.5,100.5C 111.691,102.071 111.357,103.738 111.5,105.5C 113.833,105.5 116.167,105.5 118.5,105.5C 119.167,102.833 119.833,100.167 120.5,97.5C 119.167,97.5 117.833,97.5 116.5,97.5C 117.952,96.6981 119.618,96.1981 121.5,96C 120.944,95.6174 120.611,95.1174 120.5,94.5 Z"/></g>
<g><path style="opacity:1" fill="#262a35" d="M 98.5,99.5 C 101.957,99.6672 102.29,100.667 99.5,102.5C 98.6143,101.675 98.281,100.675 98.5,99.5 Z"/></g>
<g><path style="opacity:1" fill="#24252a" d="M 114.5,99.5 C 117.957,99.6672 118.29,100.667 115.5,102.5C 114.614,101.675 114.281,100.675 114.5,99.5 Z"/></g>
<g><path style="opacity:1" fill="#ad761c" d="M 76.5,108.5 C 76.5,108.167 76.5,107.833 76.5,107.5C 76.8333,107.5 77.1667,107.5 77.5,107.5C 92.8333,107.5 108.167,107.5 123.5,107.5C 123.833,107.5 124.167,107.5 124.5,107.5C 124.795,109.735 124.461,111.735 123.5,113.5C 123.5,111.833 123.5,110.167 123.5,108.5C 107.833,108.5 92.1667,108.5 76.5,108.5 Z"/></g>
<g><path style="opacity:1" fill="#eab036" d="M 76.5,108.5 C 92.1667,108.5 107.833,108.5 123.5,108.5C 123.5,110.167 123.5,111.833 123.5,113.5C 122.081,114.451 120.415,114.784 118.5,114.5C 111.167,114.5 103.833,114.5 96.5,114.5C 92.8333,114.5 89.1667,114.5 85.5,114.5C 82.5,114.5 79.5,114.5 76.5,114.5C 76.5,112.5 76.5,110.5 76.5,108.5 Z"/></g>
<g><path style="opacity:1" fill="#fde4b9" d="M 84.5,109.5 C 95.8529,109.168 107.186,109.501 118.5,110.5C 117.502,113.028 116.669,113.028 116,110.5C 113.667,113.167 111.333,113.167 109,110.5C 108.333,111.167 107.667,111.833 107,112.5C 106.275,110.842 105.108,110.342 103.5,111C 103.833,111.333 104.167,111.667 104.5,112C 101.937,112.918 99.7702,112.418 98,110.5C 96.6914,112.891 95.6914,112.891 95,110.5C 93.8197,111.684 92.3197,112.351 90.5,112.5C 88.1907,111.923 86.0241,111.923 84,112.5C 83.5304,111.423 83.6971,110.423 84.5,109.5 Z"/></g>
<g><path style="opacity:1" fill="#111215" d="M 84.5,61.5 C 82.2166,61.6079 80.2166,62.4412 78.5,64C 72.7277,68.8113 70.3943,74.978 71.5,82.5C 90.4711,84.4876 109.804,85.1543 129.5,84.5C 129.333,98.8372 129.5,113.171 130,127.5C 129.871,121.084 130.705,115.084 132.5,109.5C 132.238,110.978 132.571,112.311 133.5,113.5C 135.729,112.037 138.063,111.203 140.5,111C 138.833,112.167 137.167,113.333 135.5,114.5C 134.193,120.388 134.193,126.221 135.5,132C 134.584,132.278 133.918,132.778 133.5,133.5C 132.776,135.218 132.109,137.052 131.5,139C 132.305,143.749 132.805,148.582 133,153.5C 135.025,155.278 134.859,156.611 132.5,157.5C 131.609,158.11 130.609,158.443 129.5,158.5C 129.026,145.169 128.526,131.835 128,118.5C 127.722,117.584 127.222,116.918 126.5,116.5C 127.508,109.528 127.675,102.528 127,95.5C 125.421,93.9588 123.587,92.7922 121.5,92C 105.689,86.7556 90.356,87.5889 75.5,94.5C 74.1751,93.0474 73.3418,93.3808 73,95.5C 72.7586,92.7111 72.092,90.0444 71,87.5C 70.6667,88.1667 70.3333,88.8333 70,89.5C 69.6012,89.2716 69.4346,88.9382 69.5,88.5C 69.3338,82.4908 69.5005,76.4908 70,70.5C 73.1596,67.0095 76.6596,63.8429 80.5,61C 82.0657,60.235 83.3991,60.4017 84.5,61.5 Z"/></g>
<g><path style="opacity:1" fill="#04163c" d="M 96.5,114.5 C 103.833,114.5 111.167,114.5 118.5,114.5C 119.866,115.92 121.2,117.42 122.5,119C 122.138,120.225 121.638,121.391 121,122.5C 118.291,119.632 115.124,118.965 111.5,120.5C 112.246,121.736 112.579,123.07 112.5,124.5C 113.552,124.351 114.552,124.517 115.5,125C 112.854,125.497 110.187,125.664 107.5,125.5C 107.389,124.883 107.056,124.383 106.5,124C 110.456,122.886 110.456,122.053 106.5,121.5C 106.592,117.929 104.926,116.762 101.5,118C 100.944,118.383 100.611,118.883 100.5,119.5C 99.35,117.733 100.017,116.567 102.5,116C 100.191,115.244 98.1913,115.744 96.5,117.5C 95.4376,116.575 95.4376,115.575 96.5,114.5 Z"/></g>
<g><path style="opacity:1" fill="#02030d" d="M 75.5,121.5 C 76.1174,121.389 76.6174,121.056 77,120.5C 79.0699,134.593 87.0699,143.926 101,148.5C 115.913,143.035 124.413,132.368 126.5,116.5C 127.222,116.918 127.722,117.584 128,118.5C 128.526,131.835 129.026,145.169 129.5,158.5C 129.567,159.959 129.234,161.292 128.5,162.5C 117.828,162.667 107.161,162.5 96.5,162C 95.9558,161.283 95.2891,160.783 94.5,160.5C 90.9792,159.834 87.3125,159.167 83.5,158.5C 82.6495,155.388 81.4828,155.054 80,157.5C 79.6924,156.692 79.1924,156.025 78.5,155.5C 77.1198,156.976 75.4531,157.976 73.5,158.5C 72.1667,144.5 72.1667,130.5 73.5,116.5C 74.1698,118.291 74.8365,119.958 75.5,121.5 Z"/></g>
<g><path style="opacity:1" fill="#274167" d="M 85.5,114.5 C 89.1667,114.5 92.8333,114.5 96.5,114.5C 95.4376,115.575 95.4376,116.575 96.5,117.5C 98.1913,115.744 100.191,115.244 102.5,116C 100.017,116.567 99.35,117.733 100.5,119.5C 100.787,122.484 102.454,123.817 105.5,123.5C 107.434,126.272 106.767,128.105 103.5,129C 105.9,129.186 108.234,129.686 110.5,130.5C 111.255,133.647 112.921,134.98 115.5,134.5C 114.5,137.5 112.5,139.5 109.5,140.5C 108.582,138.18 107.248,136.013 105.5,134C 106.784,132.703 106.617,131.536 105,130.5C 104.517,131.448 104.351,132.448 104.5,133.5C 102.108,129.044 99.9418,124.377 98,119.5C 96.6439,120.38 95.1439,120.714 93.5,120.5C 93.5,122.167 93.5,123.833 93.5,125.5C 94.8221,125.33 95.9887,125.663 97,126.5C 97,125.167 97,123.833 97,122.5C 98.3717,123.91 99.205,125.577 99.5,127.5C 97.5454,128.323 95.5454,128.49 93.5,128C 93.8333,127.667 94.1667,127.333 94.5,127C 91.4313,125.154 88.0979,124.154 84.5,124C 82.508,123.426 81.008,122.259 80,120.5C 79.6012,120.728 79.4346,121.062 79.5,121.5C 78.4265,120.749 78.2599,119.749 79,118.5C 81.2129,119.802 83.5463,120.802 86,121.5C 85.7932,119.249 85.6265,116.915 85.5,114.5 Z"/></g>
<g><path style="opacity:1" fill="#d0d1d1" d="M 62.5,133.5 C 62.5,134.167 62.1667,134.5 61.5,134.5C 60.1853,129.32 60.1853,123.986 61.5,118.5C 62.4941,123.456 62.8275,128.456 62.5,133.5 Z"/></g>
<g><path style="opacity:1" fill="#263854" d="M 124.5,107.5 C 125.751,114.63 124.751,121.63 121.5,128.5C 121.043,129.298 120.376,129.631 119.5,129.5C 114.687,130.259 110.687,128.925 107.5,125.5C 110.187,125.664 112.854,125.497 115.5,125C 114.552,124.517 113.552,124.351 112.5,124.5C 112.579,123.07 112.246,121.736 111.5,120.5C 115.124,118.965 118.291,119.632 121,122.5C 121.638,121.391 122.138,120.225 122.5,119C 121.2,117.42 119.866,115.92 118.5,114.5C 120.415,114.784 122.081,114.451 123.5,113.5C 124.461,111.735 124.795,109.735 124.5,107.5 Z"/></g>
<g><path style="opacity:1" fill="#9eb1c9" d="M 107.5,125.5 C 110.687,128.925 114.687,130.259 119.5,129.5C 118.167,131.167 116.833,132.833 115.5,134.5C 112.921,134.98 111.255,133.647 110.5,130.5C 108.234,129.686 105.9,129.186 103.5,129C 106.767,128.105 107.434,126.272 105.5,123.5C 102.454,123.817 100.787,122.484 100.5,119.5C 100.611,118.883 100.944,118.383 101.5,118C 104.926,116.762 106.592,117.929 106.5,121.5C 110.456,122.053 110.456,122.886 106.5,124C 107.056,124.383 107.389,124.883 107.5,125.5 Z"/></g>
<g><path style="opacity:1" fill="#152545" d="M 99.5,127.5 C 102.247,132.103 104.247,137.103 105.5,142.5C 108.028,141.502 108.028,140.669 105.5,140C 105.957,139.586 106.291,139.086 106.5,138.5C 105.544,136.925 104.877,135.258 104.5,133.5C 104.351,132.448 104.517,131.448 105,130.5C 106.617,131.536 106.784,132.703 105.5,134C 107.248,136.013 108.582,138.18 109.5,140.5C 105.801,145.396 101.134,146.563 95.5,144C 86.4889,139.171 81.1556,131.671 79.5,121.5C 79.4346,121.062 79.6012,120.728 80,120.5C 81.008,122.259 82.508,123.426 84.5,124C 88.0979,124.154 91.4313,125.154 94.5,127C 94.1667,127.333 93.8333,127.667 93.5,128C 95.5454,128.49 97.5454,128.323 99.5,127.5 Z"/></g>
<g><path style="opacity:1" fill="#abbdd3" d="M 104.5,133.5 C 104.877,135.258 105.544,136.925 106.5,138.5C 106.291,139.086 105.957,139.586 105.5,140C 108.028,140.669 108.028,141.502 105.5,142.5C 104.247,137.103 102.247,132.103 99.5,127.5C 99.205,125.577 98.3717,123.91 97,122.5C 97,123.833 97,125.167 97,126.5C 95.9887,125.663 94.8221,125.33 93.5,125.5C 93.5,123.833 93.5,122.167 93.5,120.5C 95.1439,120.714 96.6439,120.38 98,119.5C 99.9418,124.377 102.108,129.044 104.5,133.5 Z"/></g>
<g><path style="opacity:1" fill="#cacbcb" d="M 116.5,151.5 C 115.5,151.5 114.5,151.5 113.5,151.5C 112.925,148.429 114.091,146.429 117,145.5C 120.433,147.674 120.267,149.674 116.5,151.5 Z"/></g>
<g><path style="opacity:1" fill="#43444a" d="M 113.5,151.5 C 114.5,151.5 115.5,151.5 116.5,151.5C 118.386,152.065 120.053,153.065 121.5,154.5C 121.167,155.5 120.5,156.167 119.5,156.5C 117.333,155.046 115.333,155.212 113.5,157C 114.833,157.667 116.167,158.333 117.5,159C 113.835,159.387 111.002,157.887 109,154.5C 107.965,151.037 108.798,148.204 111.5,146C 112.167,145.333 112.833,145.333 113.5,146C 112.167,147.333 110.833,148.667 109.5,150C 110.931,150.465 112.097,151.299 113,152.5C 113.399,152.272 113.565,151.938 113.5,151.5 Z"/></g>
<g><path style="opacity:1" fill="#3f3e3e" d="M 133.5,133.5 C 133.008,138.208 134.341,138.708 137.5,135C 141.103,134.869 140.936,135.702 137,137.5C 136.809,143.083 136.309,148.583 135.5,154C 137.167,153.667 138.833,153.333 140.5,153C 137.967,155.084 137.967,157.084 140.5,159C 139.357,165.418 139.19,171.918 140,178.5C 140.278,177.584 140.778,176.918 141.5,176.5C 141.445,179.614 140.112,181.948 137.5,183.5C 135.689,174.87 134.022,166.203 132.5,157.5C 134.859,156.611 135.025,155.278 133,153.5C 132.805,148.582 132.305,143.749 131.5,139C 132.109,137.052 132.776,135.218 133.5,133.5 Z"/></g>
<g><path style="opacity:1" fill="#141212" d="M 72.5,160.5 C 73.09,167.92 77.09,171.087 84.5,170C 83.7069,171.085 83.0402,172.252 82.5,173.5C 94.4861,174.666 106.486,174.833 118.5,174C 123.853,171.82 127.187,167.987 128.5,162.5C 129.234,161.292 129.567,159.959 129.5,158.5C 130.609,158.443 131.609,158.11 132.5,157.5C 134.022,166.203 135.689,174.87 137.5,183.5C 136.738,185.262 135.404,186.262 133.5,186.5C 131.441,183.279 128.608,180.945 125,179.5C 118.492,180.55 112.158,180.55 106,179.5C 104.215,180.24 102.382,180.907 100.5,181.5C 96.9963,180.034 93.3297,179.367 89.5,179.5C 84.4755,179.753 79.4755,180.253 74.5,181C 72.7166,182.739 71.0499,184.572 69.5,186.5C 71.0777,187.298 72.7444,187.798 74.5,188C 92.1635,188.5 109.83,188.667 127.5,188.5C 109.338,189.662 91.0046,189.829 72.5,189C 68.3733,188.44 65.04,186.607 62.5,183.5C 63.1067,177.417 63.94,171.084 65,164.5C 66.3756,163.295 67.5423,161.962 68.5,160.5C 69.3267,155.349 69.8267,150.016 70,144.5C 70.1499,150.081 70.9832,155.414 72.5,160.5 Z"/></g>
<g><path style="opacity:1" fill="#f9ac33" d="M 72.5,160.5 C 79.8333,160.5 87.1667,160.5 94.5,160.5C 95.2891,160.783 95.9558,161.283 96.5,162C 107.161,162.5 117.828,162.667 128.5,162.5C 127.187,167.987 123.853,171.82 118.5,174C 106.486,174.833 94.4861,174.666 82.5,173.5C 83.0402,172.252 83.7069,171.085 84.5,170C 77.09,171.087 73.09,167.92 72.5,160.5 Z"/></g>
<g><path style="opacity:1" fill="#fee5c1" d="M 113.5,165.5 C 114.552,165.351 115.552,165.517 116.5,166C 115.304,166.654 115.304,167.154 116.5,167.5C 117.935,165.599 119.602,165.266 121.5,166.5C 120.754,167.736 120.421,169.07 120.5,170.5C 117.728,169.629 115.062,169.629 112.5,170.5C 112.366,168.708 112.699,167.042 113.5,165.5 Z"/></g>
<g><path style="opacity:1" fill="#ffe2b8" d="M 96.5,165.5 C 101.599,165.194 106.599,165.527 111.5,166.5C 110.219,169.533 108.219,170.533 105.5,169.5C 103.677,170.754 101.677,171.754 99.5,172.5C 98.5,172.333 97.5,172.167 96.5,172C 95.2315,170.293 95.2315,168.126 96.5,165.5 Z"/></g>
<g><path style="opacity:1" fill="#010001" d="M 133.5,186.5 C 131.898,188.074 129.898,188.741 127.5,188.5C 109.83,188.667 92.1635,188.5 74.5,188C 72.7444,187.798 71.0777,187.298 69.5,186.5C 71.0499,184.572 72.7166,182.739 74.5,181C 79.4755,180.253 84.4755,179.753 89.5,179.5C 93.3297,179.367 96.9963,180.034 100.5,181.5C 102.382,180.907 104.215,180.24 106,179.5C 112.158,180.55 118.492,180.55 125,179.5C 128.608,180.945 131.441,183.279 133.5,186.5 Z"/></g>
</svg>
