<?xml version="1.0" encoding="UTF-8"?>
<!DOCTYPE svg PUBLIC "-//W3C//DTD SVG 1.1//EN" "http://www.w3.org/Graphics/SVG/1.1/DTD/svg11.dtd">
<svg xmlns="http://www.w3.org/2000/svg" version="1.1" width="874px" height="698px" style="shape-rendering:geometricPrecision; text-rendering:geometricPrecision; image-rendering:optimizeQuality; fill-rule:evenodd; clip-rule:evenodd" xmlns:xlink="http://www.w3.org/1999/xlink">
<g><path style="opacity:1" fill="#fefefe" d="M -0.5,-0.5 C 290.833,-0.5 582.167,-0.5 873.5,-0.5C 873.5,232.167 873.5,464.833 873.5,697.5C 582.167,697.5 290.833,697.5 -0.5,697.5C -0.5,464.833 -0.5,232.167 -0.5,-0.5 Z"/></g>
<g><path style="opacity:1" fill="#363636" d="M 459.5,228.5 C 459.5,229.5 459.5,230.5 459.5,231.5C 458.761,231.631 458.094,231.464 457.5,231C 456.14,228.631 454.474,226.464 452.5,224.5C 451.784,225.311 450.95,225.978 450,226.5C 448.594,225.586 447.094,224.92 445.5,224.5C 452.448,218.069 457.115,219.403 459.5,228.5 Z"/></g>
<g><path style="opacity:1" fill="#232323" d="M 445.5,224.5 C 447.094,224.92 448.594,225.586 450,226.5C 450.95,225.978 451.784,225.311 452.5,224.5C 454.474,226.464 456.14,228.631 457.5,231C 458.094,231.464 458.761,231.631 459.5,231.5C 458.167,232.167 456.833,232.833 455.5,233.5C 454.596,234.209 454.263,235.209 454.5,236.5C 448.221,235.844 443.887,232.511 441.5,226.5C 442.514,225.326 443.847,224.66 445.5,224.5 Z"/></g>
<g><path style="opacity:1" fill="#656565" d="M 432.5,224.5 C 433.347,225.966 434.68,226.8 436.5,227C 431.547,227.995 426.547,228.662 421.5,229C 425.287,229.16 428.954,229.826 432.5,231C 423.114,231.507 413.781,232.507 404.5,234C 400.132,234.293 396.132,235.46 392.5,237.5C 391.167,238.167 390.167,239.167 389.5,240.5C 388.5,241.167 387.5,241.833 386.5,242.5C 386.744,239.737 388.077,237.571 390.5,236C 395.824,233.383 401.49,231.716 407.5,231C 406.552,230.517 405.552,230.351 404.5,230.5C 411.975,229.016 419.642,227.849 427.5,227C 429.03,225.88 430.697,225.046 432.5,224.5 Z"/></g>
<g><path style="opacity:1" fill="#4b4b4b" d="M 432.5,224.5 C 435.426,225.461 438.426,226.127 441.5,226.5C 443.887,232.511 448.221,235.844 454.5,236.5C 454.263,235.209 454.596,234.209 455.5,233.5C 456.591,235.534 458.257,236.868 460.5,237.5C 455.793,237.949 451.126,238.615 446.5,239.5C 445.808,238.975 445.308,238.308 445,237.5C 444.692,238.308 444.192,238.975 443.5,239.5C 442.41,238.609 442.41,237.609 443.5,236.5C 442.562,235.447 441.395,234.78 440,234.5C 437.784,235.601 435.784,236.934 434,238.5C 431.62,235.06 428.287,233.727 424,234.5C 419.781,234.629 416.281,235.629 413.5,237.5C 407.794,235.293 402.128,235.627 396.5,238.5C 395.264,237.754 393.93,237.421 392.5,237.5C 396.132,235.46 400.132,234.293 404.5,234C 413.781,232.507 423.114,231.507 432.5,231C 428.954,229.826 425.287,229.16 421.5,229C 426.547,228.662 431.547,227.995 436.5,227C 434.68,226.8 433.347,225.966 432.5,224.5 Z"/></g>
<g><path style="opacity:1" fill="#7f7f7f" d="M 459.5,228.5 C 460.451,229.919 460.784,231.585 460.5,233.5C 458.833,233.5 457.167,233.5 455.5,233.5C 456.833,232.833 458.167,232.167 459.5,231.5C 459.5,230.5 459.5,229.5 459.5,228.5 Z"/></g>
<g><path style="opacity:1" fill="#393939" d="M 460.5,237.5 C 462.5,237.5 464.5,237.5 466.5,237.5C 466.328,238.492 466.662,239.158 467.5,239.5C 467.44,240.043 467.107,240.376 466.5,240.5C 465.833,239.833 465.167,239.167 464.5,238.5C 463.534,240.396 463.201,242.396 463.5,244.5C 449.111,245.078 435.611,244.078 423,241.5C 419.185,242.267 415.518,243.267 412,244.5C 409.045,244.048 406.212,243.214 403.5,242C 402.74,238.333 401.24,237.833 399,240.5C 395.747,240.086 392.58,240.086 389.5,240.5C 390.167,239.167 391.167,238.167 392.5,237.5C 393.93,237.421 395.264,237.754 396.5,238.5C 402.128,235.627 407.794,235.293 413.5,237.5C 416.281,235.629 419.781,234.629 424,234.5C 428.287,233.727 431.62,235.06 434,238.5C 435.784,236.934 437.784,235.601 440,234.5C 441.395,234.78 442.562,235.447 443.5,236.5C 442.41,237.609 442.41,238.609 443.5,239.5C 444.192,238.975 444.692,238.308 445,237.5C 445.308,238.308 445.808,238.975 446.5,239.5C 451.126,238.615 455.793,237.949 460.5,237.5 Z"/></g>
<g><path style="opacity:1" fill="#262626" d="M 467.5,239.5 C 472.68,238.185 478.014,238.185 483.5,239.5C 487.796,244.718 490.129,250.718 490.5,257.5C 490.5,259.167 490.5,260.833 490.5,262.5C 479.5,262.5 468.5,262.5 457.5,262.5C 448.5,262.5 439.5,262.5 430.5,262.5C 426.688,261.676 422.688,261.176 418.5,261C 417.366,259.984 417.699,259.317 419.5,259C 415.48,256.483 415.813,254.483 420.5,253C 419.346,252.086 419.513,251.253 421,250.5C 422.688,251.325 422.855,252.325 421.5,253.5C 421.838,257.162 423.005,257.829 425,255.5C 426.553,257.673 428.386,258.34 430.5,257.5C 430.539,258.583 430.873,259.583 431.5,260.5C 447.486,261.499 463.486,261.833 479.5,261.5C 479.5,259.167 479.5,256.833 479.5,254.5C 463.833,254.5 448.167,254.5 432.5,254.5C 447.995,253.669 463.661,253.169 479.5,253C 476.294,252.704 473.128,252.204 470,251.5C 468.135,252.368 466.302,252.034 464.5,250.5C 459.812,251.841 455.146,252.174 450.5,251.5C 450.5,250.5 450.5,249.5 450.5,248.5C 455.032,248.818 459.366,248.485 463.5,247.5C 464.376,247.631 465.043,247.298 465.5,246.5C 445.497,245.3 425.497,245.3 405.5,246.5C 405.804,245.85 406.137,245.183 406.5,244.5C 403.38,242.084 400.213,242.084 397,244.5C 396.481,243.484 395.647,242.818 394.5,242.5C 392.666,243.754 390.666,244.421 388.5,244.5C 388.631,247.367 387.297,249.033 384.5,249.5C 384.4,246.892 385.067,244.558 386.5,242.5C 387.5,241.833 388.5,241.167 389.5,240.5C 392.58,240.086 395.747,240.086 399,240.5C 401.24,237.833 402.74,238.333 403.5,242C 406.212,243.214 409.045,244.048 412,244.5C 415.518,243.267 419.185,242.267 423,241.5C 435.611,244.078 449.111,245.078 463.5,244.5C 463.201,242.396 463.534,240.396 464.5,238.5C 465.167,239.167 465.833,239.833 466.5,240.5C 467.107,240.376 467.44,240.043 467.5,239.5 Z"/></g>
<g><path style="opacity:1" fill="#1c1c1c" d="M 405.5,246.5 C 396.392,248.246 392.392,253.58 393.5,262.5C 394.396,259.856 395.229,257.19 396,254.5C 396.708,253.619 397.542,252.953 398.5,252.5C 397.213,255.698 396.547,259.031 396.5,262.5C 399.939,262.253 403.272,262.586 406.5,263.5C 401.604,265.446 396.271,266.113 390.5,265.5C 390.5,264.5 390.5,263.5 390.5,262.5C 385.915,261.987 381.582,262.654 377.5,264.5C 376.583,263.873 375.583,263.539 374.5,263.5C 374.5,261.833 374.5,260.167 374.5,258.5C 376.265,257.21 377.765,255.21 379,252.5C 379.202,254.256 379.702,255.922 380.5,257.5C 380.982,254.297 382.315,251.631 384.5,249.5C 387.297,249.033 388.631,247.367 388.5,244.5C 390.666,244.421 392.666,243.754 394.5,242.5C 395.647,242.818 396.481,243.484 397,244.5C 400.213,242.084 403.38,242.084 406.5,244.5C 406.137,245.183 405.804,245.85 405.5,246.5 Z"/></g>
<g><path style="opacity:1" fill="#434343" d="M 463.5,247.5 C 445.405,247.557 427.405,247.557 409.5,247.5C 407.541,248.748 406.041,250.415 405,252.5C 404.667,251.167 404.333,249.833 404,248.5C 402.188,249.977 400.355,251.31 398.5,252.5C 397.542,252.953 396.708,253.619 396,254.5C 395.229,257.19 394.396,259.856 393.5,262.5C 392.392,253.58 396.392,248.246 405.5,246.5C 425.497,245.3 445.497,245.3 465.5,246.5C 465.043,247.298 464.376,247.631 463.5,247.5 Z"/></g>
<g><path style="opacity:1" fill="#181818" d="M 432.5,254.5 C 448.167,254.5 463.833,254.5 479.5,254.5C 479.5,256.833 479.5,259.167 479.5,261.5C 463.486,261.833 447.486,261.499 431.5,260.5C 430.873,259.583 430.539,258.583 430.5,257.5C 430.427,255.973 431.094,254.973 432.5,254.5 Z"/></g>
<g><path style="opacity:1" fill="#8d8d8d" d="M 359.5,255.5 C 355.057,256.801 350.391,257.468 345.5,257.5C 349.881,255.789 354.547,255.123 359.5,255.5 Z"/></g>
<g><path style="opacity:1" fill="#424242" d="M 404.5,230.5 C 405.552,230.351 406.552,230.517 407.5,231C 401.49,231.716 395.824,233.383 390.5,236C 388.077,237.571 386.744,239.737 386.5,242.5C 385.067,244.558 384.4,246.892 384.5,249.5C 382.315,251.631 380.982,254.297 380.5,257.5C 379.702,255.922 379.202,254.256 379,252.5C 377.765,255.21 376.265,257.21 374.5,258.5C 372.673,259.932 371.006,261.599 369.5,263.5C 328.209,269.427 287.209,275.761 246.5,282.5C 244.729,281.965 244.396,281.131 245.5,280C 250.202,279.274 254.535,278.107 258.5,276.5C 258.5,275.5 258.5,274.5 258.5,273.5C 257.167,273.5 255.833,273.5 254.5,273.5C 254.5,273.167 254.5,272.833 254.5,272.5C 265.504,270.389 276.504,268.389 287.5,266.5C 291.078,266.451 294.411,265.785 297.5,264.5C 313.391,261.68 329.391,259.346 345.5,257.5C 350.391,257.468 355.057,256.801 359.5,255.5C 364.306,254.407 369.306,253.741 374.5,253.5C 376.328,245.679 380.328,239.179 386.5,234C 392.06,230.957 398.06,229.79 404.5,230.5 Z"/></g>
<g><path style="opacity:1" fill="#4d4d4d" d="M 466.5,237.5 C 473.841,237.334 481.174,237.5 488.5,238C 490.43,240.258 491.93,242.758 493,245.5C 495.166,247.121 497.666,247.955 500.5,248C 501.833,250 503.167,252 504.5,254C 508.356,254.177 512.023,254.677 515.5,255.5C 512.167,255.5 508.833,255.5 505.5,255.5C 505.724,259.179 506.058,262.846 506.5,266.5C 506.167,266.5 505.833,266.5 505.5,266.5C 503.369,265.686 501.036,265.186 498.5,265C 499.809,263.249 499.475,261.749 497.5,260.5C 499.424,260.433 501.424,260.1 503.5,259.5C 502.009,258.756 500.509,258.09 499,257.5C 498.86,254.957 498.194,252.623 497,250.5C 496.667,252.167 496.333,253.833 496,255.5C 495.439,253.275 494.439,251.275 493,249.5C 492.667,254.167 492.333,258.833 492,263.5C 491.809,261.292 491.309,259.292 490.5,257.5C 490.129,250.718 487.796,244.718 483.5,239.5C 478.014,238.185 472.68,238.185 467.5,239.5C 466.662,239.158 466.328,238.492 466.5,237.5 Z"/></g>
<g><path style="opacity:1" fill="#999999" d="M 523.5,255.5 C 530.363,256.072 537.03,257.072 543.5,258.5C 537.828,258.24 532.161,257.907 526.5,257.5C 525.5,256.833 524.5,256.167 523.5,255.5 Z"/></g>
<g><path style="opacity:1" fill="#2d2d2d" d="M 463.5,247.5 C 459.366,248.485 455.032,248.818 450.5,248.5C 450.5,249.5 450.5,250.5 450.5,251.5C 455.146,252.174 459.812,251.841 464.5,250.5C 466.302,252.034 468.135,252.368 470,251.5C 473.128,252.204 476.294,252.704 479.5,253C 463.661,253.169 447.995,253.669 432.5,254.5C 431.094,254.973 430.427,255.973 430.5,257.5C 428.386,258.34 426.553,257.673 425,255.5C 423.005,257.829 421.838,257.162 421.5,253.5C 422.855,252.325 422.688,251.325 421,250.5C 419.513,251.253 419.346,252.086 420.5,253C 415.813,254.483 415.48,256.483 419.5,259C 417.699,259.317 417.366,259.984 418.5,261C 422.688,261.176 426.688,261.676 430.5,262.5C 422.316,262.174 414.316,262.508 406.5,263.5C 403.272,262.586 399.939,262.253 396.5,262.5C 396.547,259.031 397.213,255.698 398.5,252.5C 400.355,251.31 402.188,249.977 404,248.5C 404.333,249.833 404.667,251.167 405,252.5C 406.041,250.415 407.541,248.748 409.5,247.5C 427.405,247.557 445.405,247.557 463.5,247.5 Z"/></g>
<g><path style="opacity:1" fill="#3c3c3c" d="M 515.5,255.5 C 518.167,255.5 520.833,255.5 523.5,255.5C 524.5,256.167 525.5,256.833 526.5,257.5C 525.527,257.987 524.527,258.487 523.5,259C 526.765,259.197 529.599,260.364 532,262.5C 532.333,262.167 532.667,261.833 533,261.5C 537.912,261.948 542.578,263.282 547,265.5C 548.61,265.87 550.11,265.203 551.5,263.5C 555.624,267.406 560.458,268.739 566,267.5C 571.849,269.54 577.849,271.207 584,272.5C 584.772,272.355 585.439,272.022 586,271.5C 604.983,275.465 623.817,279.132 642.5,282.5C 645.375,280.916 648.208,280.249 651,280.5C 653.846,281.715 656.679,282.715 659.5,283.5C 660.386,282.675 660.719,281.675 660.5,280.5C 657.612,281.01 655.279,280.344 653.5,278.5C 661.504,280.167 669.504,281.834 677.5,283.5C 679.515,284.924 681.848,285.59 684.5,285.5C 691.259,287.175 697.926,288.841 704.5,290.5C 700.894,290.789 697.394,290.456 694,289.5C 691.821,290.116 689.988,291.283 688.5,293C 690.585,293.529 692.418,293.029 694,291.5C 696.905,292.651 699.738,293.984 702.5,295.5C 703.167,295.167 703.833,294.833 704.5,294.5C 709.465,296.157 714.465,297.657 719.5,299C 715.5,299.667 715.5,300.333 719.5,301C 721.713,301.626 723.88,301.459 726,300.5C 726.5,300.667 727,300.833 727.5,301C 726.167,301.667 726.167,302.333 727.5,303C 736.017,305.581 744.35,307.748 752.5,309.5C 752.5,311.167 752.5,312.833 752.5,314.5C 694.03,300.739 635.363,287.739 576.5,275.5C 575.914,275.709 575.414,276.043 575,276.5C 568.587,275.085 562.087,273.918 555.5,273C 554.675,271.312 553.675,271.145 552.5,272.5C 550.159,271.023 547.826,270.69 545.5,271.5C 532.828,268.962 519.828,267.629 506.5,267.5C 506.5,267.167 506.5,266.833 506.5,266.5C 506.058,262.846 505.724,259.179 505.5,255.5C 508.833,255.5 512.167,255.5 515.5,255.5 Z"/></g>
<g><path style="opacity:1" fill="#878787" d="M 297.5,264.5 C 294.411,265.785 291.078,266.451 287.5,266.5C 290.544,264.989 293.878,264.322 297.5,264.5 Z"/></g>
<g><path style="opacity:1" fill="#333333" d="M 526.5,257.5 C 532.161,257.907 537.828,258.24 543.5,258.5C 558.518,260.55 573.518,262.884 588.5,265.5C 591.627,266.581 594.96,267.247 598.5,267.5C 598.833,267.5 599.167,267.5 599.5,267.5C 602.974,268.525 606.64,269.192 610.5,269.5C 624.919,272.117 639.252,275.117 653.5,278.5C 655.279,280.344 657.612,281.01 660.5,280.5C 660.719,281.675 660.386,282.675 659.5,283.5C 656.679,282.715 653.846,281.715 651,280.5C 648.208,280.249 645.375,280.916 642.5,282.5C 623.817,279.132 604.983,275.465 586,271.5C 585.439,272.022 584.772,272.355 584,272.5C 577.849,271.207 571.849,269.54 566,267.5C 560.458,268.739 555.624,267.406 551.5,263.5C 550.11,265.203 548.61,265.87 547,265.5C 542.578,263.282 537.912,261.948 533,261.5C 532.667,261.833 532.333,262.167 532,262.5C 529.599,260.364 526.765,259.197 523.5,259C 524.527,258.487 525.527,257.987 526.5,257.5 Z"/></g>
<g><path style="opacity:1" fill="#b3b3b3" d="M 588.5,265.5 C 591.187,265.336 593.854,265.503 596.5,266C 597.416,266.278 598.082,266.778 598.5,267.5C 594.96,267.247 591.627,266.581 588.5,265.5 Z"/></g>
<g><path style="opacity:1" fill="#393939" d="M 505.5,266.5 C 474.514,267.279 443.514,267.779 412.5,268C 411.549,268.718 411.383,269.551 412,270.5C 414.446,268.076 416.946,268.076 419.5,270.5C 422.974,268.944 426.141,269.277 429,271.5C 431.333,270.167 433.667,270.167 436,271.5C 437,270.833 438,270.167 439,269.5C 440.826,271.074 442.993,271.907 445.5,272C 444.692,272.308 444.025,272.808 443.5,273.5C 430.006,274.167 416.673,274.833 403.5,275.5C 400.212,275.927 397.212,275.26 394.5,273.5C 393.833,274.167 393.167,274.833 392.5,275.5C 389.697,274.224 387.03,274.224 384.5,275.5C 381.746,275.216 379.08,274.549 376.5,273.5C 380.715,272.202 384.882,272.202 389,273.5C 389.495,271.527 389.662,269.527 389.5,267.5C 387.777,266.2 385.61,265.533 383,265.5C 380.39,265.533 378.223,266.2 376.5,267.5C 374.283,266.631 371.95,266.298 369.5,266.5C 370.401,264.273 372.067,263.273 374.5,263.5C 375.583,263.539 376.583,263.873 377.5,264.5C 381.582,262.654 385.915,261.987 390.5,262.5C 390.5,263.5 390.5,264.5 390.5,265.5C 396.271,266.113 401.604,265.446 406.5,263.5C 423.61,264.469 440.61,264.135 457.5,262.5C 468.5,262.5 479.5,262.5 490.5,262.5C 490.5,260.833 490.5,259.167 490.5,257.5C 491.309,259.292 491.809,261.292 492,263.5C 492.333,258.833 492.667,254.167 493,249.5C 494.439,251.275 495.439,253.275 496,255.5C 496.333,253.833 496.667,252.167 497,250.5C 498.194,252.623 498.86,254.957 499,257.5C 500.509,258.09 502.009,258.756 503.5,259.5C 501.424,260.1 499.424,260.433 497.5,260.5C 499.475,261.749 499.809,263.249 498.5,265C 501.036,265.186 503.369,265.686 505.5,266.5 Z"/></g>
<g><path style="opacity:1" fill="#737373" d="M 389.5,267.5 C 385.167,267.5 380.833,267.5 376.5,267.5C 378.223,266.2 380.39,265.533 383,265.5C 385.61,265.533 387.777,266.2 389.5,267.5 Z"/></g>
<g><path style="opacity:1" fill="#585858" d="M 406.5,263.5 C 414.316,262.508 422.316,262.174 430.5,262.5C 439.5,262.5 448.5,262.5 457.5,262.5C 440.61,264.135 423.61,264.469 406.5,263.5 Z"/></g>
<g><path style="opacity:1" fill="#252525" d="M 369.5,266.5 C 371.95,266.298 374.283,266.631 376.5,267.5C 380.833,267.5 385.167,267.5 389.5,267.5C 389.662,269.527 389.495,271.527 389,273.5C 384.882,272.202 380.715,272.202 376.5,273.5C 379.08,274.549 381.746,275.216 384.5,275.5C 376.107,277.655 367.441,278.655 358.5,278.5C 361.355,276.75 364.689,275.917 368.5,276C 369.747,274.542 369.747,273.042 368.5,271.5C 365.232,270.513 361.898,270.18 358.5,270.5C 357.448,270.649 356.448,270.483 355.5,270C 359.057,269.402 362.557,268.569 366,267.5C 367.046,265.805 368.213,265.472 369.5,266.5 Z"/></g>
<g><path style="opacity:1" fill="#b7b7b7" d="M 599.5,267.5 C 603.489,267.116 607.155,267.783 610.5,269.5C 606.64,269.192 602.974,268.525 599.5,267.5 Z"/></g>
<g><path style="opacity:1" fill="#838383" d="M 254.5,272.5 C 254.5,272.833 254.5,273.167 254.5,273.5C 250.21,274.425 245.876,275.091 241.5,275.5C 245.542,273.763 249.876,272.763 254.5,272.5 Z"/></g>
<g><path style="opacity:1" fill="#3d3d3d" d="M 358.5,270.5 C 361.898,270.18 365.232,270.513 368.5,271.5C 369.747,273.042 369.747,274.542 368.5,276C 364.689,275.917 361.355,276.75 358.5,278.5C 349.884,279.936 341.217,280.936 332.5,281.5C 331.127,281.657 329.793,281.49 328.5,281C 331.063,280.237 331.063,279.737 328.5,279.5C 327.328,279.919 326.328,280.585 325.5,281.5C 322.652,279.85 320.152,280.184 318,282.5C 317.107,281.919 316.107,281.585 315,281.5C 308.596,282.341 302.263,283.341 296,284.5C 295.586,284.043 295.086,283.709 294.5,283.5C 293.646,284.522 292.646,285.355 291.5,286C 288.215,286.824 284.882,287.324 281.5,287.5C 279.359,287.387 277.525,286.72 276,285.5C 275.059,287.061 273.892,288.395 272.5,289.5C 270.397,286.949 268.231,286.949 266,289.5C 264.856,289.089 263.689,288.756 262.5,288.5C 244.866,292.294 227.199,295.96 209.5,299.5C 208.584,299.457 207.917,299.124 207.5,298.5C 235.678,291.731 264.012,285.731 292.5,280.5C 314.527,276.505 336.527,273.172 358.5,270.5 Z"/></g>
<g><path style="opacity:1" fill="#121212" d="M 403.5,275.5 C 427.853,275.804 452.186,275.471 476.5,274.5C 498.133,277.308 519.8,279.975 541.5,282.5C 539.866,283.161 538.033,283.494 536,283.5C 527.878,282.053 519.711,281.553 511.5,282C 516.489,282.749 521.489,283.415 526.5,284C 525.552,284.483 524.552,284.649 523.5,284.5C 518.167,284.5 512.833,284.5 507.5,284.5C 507.167,284.5 506.833,284.5 506.5,284.5C 456.981,279.192 407.314,279.192 357.5,284.5C 354.15,284.665 350.817,284.498 347.5,284C 367.089,281.627 386.756,279.96 406.5,279C 369.49,279.101 332.823,282.768 296.5,290C 302.684,290.071 308.85,289.571 315,288.5C 316.707,288.508 318.207,288.842 319.5,289.5C 310.919,290.105 302.586,291.438 294.5,293.5C 286.496,294.834 278.496,296.167 270.5,297.5C 266.551,297.307 266.551,296.807 270.5,296C 278.822,294.224 287.155,292.558 295.5,291C 294.5,290.833 293.5,290.667 292.5,290.5C 243.226,299.152 194.56,310.319 146.5,324C 147.167,324.167 147.833,324.333 148.5,324.5C 160.484,321.502 172.484,318.502 184.5,315.5C 185.416,315.543 186.083,315.876 186.5,316.5C 178.999,318.207 171.665,320.207 164.5,322.5C 135.637,329.793 106.971,337.46 78.5,345.5C 77.2867,345.253 76.62,344.586 76.5,343.5C 84.7866,342.235 92.7866,340.069 100.5,337C 92.2144,337.977 84.0477,339.81 76,342.5C 74.2785,342.389 74.1118,341.889 75.5,341C 160.083,315.935 245.749,296.102 332.5,281.5C 341.217,280.936 349.884,279.936 358.5,278.5C 367.441,278.655 376.107,277.655 384.5,275.5C 387.03,274.224 389.697,274.224 392.5,275.5C 393.167,274.833 393.833,274.167 394.5,273.5C 397.212,275.26 400.212,275.927 403.5,275.5 Z"/></g>
<g><path style="opacity:1" fill="#2e2e2e" d="M 505.5,266.5 C 505.833,266.5 506.167,266.5 506.5,266.5C 506.5,266.833 506.5,267.167 506.5,267.5C 506.759,270.272 507.759,272.605 509.5,274.5C 540.54,276.811 571.206,281.478 601.5,288.5C 600.624,289.251 599.624,289.751 598.5,290C 599.167,290.167 599.833,290.333 600.5,290.5C 601.949,289.72 603.449,289.054 605,288.5C 611.754,289.943 618.587,290.776 625.5,291C 652.312,296.539 678.978,302.372 705.5,308.5C 705.5,309.5 705.5,310.5 705.5,311.5C 709.027,311.504 712.527,311.837 716,312.5C 726.544,315.525 737.044,318.191 747.5,320.5C 744.098,319.765 740.765,319.765 737.5,320.5C 731.307,318.595 724.974,317.595 718.5,317.5C 705.676,314.19 692.676,311.19 679.5,308.5C 678.081,307.549 676.415,307.216 674.5,307.5C 631.995,297.467 588.995,289.467 545.5,283.5C 544.432,282.566 543.099,282.232 541.5,282.5C 519.8,279.975 498.133,277.308 476.5,274.5C 452.186,275.471 427.853,275.804 403.5,275.5C 416.673,274.833 430.006,274.167 443.5,273.5C 444.025,272.808 444.692,272.308 445.5,272C 442.993,271.907 440.826,271.074 439,269.5C 438,270.167 437,270.833 436,271.5C 433.667,270.167 431.333,270.167 429,271.5C 426.141,269.277 422.974,268.944 419.5,270.5C 416.946,268.076 414.446,268.076 412,270.5C 411.383,269.551 411.549,268.718 412.5,268C 443.514,267.779 474.514,267.279 505.5,266.5 Z"/></g>
<g><path style="opacity:1" fill="#323232" d="M 374.5,258.5 C 374.5,260.167 374.5,261.833 374.5,263.5C 372.067,263.273 370.401,264.273 369.5,266.5C 368.213,265.472 367.046,265.805 366,267.5C 362.557,268.569 359.057,269.402 355.5,270C 356.448,270.483 357.448,270.649 358.5,270.5C 336.527,273.172 314.527,276.505 292.5,280.5C 292.083,279.876 291.416,279.543 290.5,279.5C 272.136,282.572 253.803,285.906 235.5,289.5C 233.341,289.12 231.174,288.787 229,288.5C 224.257,289.874 219.424,290.874 214.5,291.5C 214.719,292.675 214.386,293.675 213.5,294.5C 212.304,294.154 212.304,293.654 213.5,293C 211.687,293.046 210.021,292.88 208.5,292.5C 207.692,292.808 207.025,293.308 206.5,294C 207.833,294.333 209.167,294.667 210.5,295C 208.134,295.562 205.801,295.396 203.5,294.5C 201.527,295.64 199.693,296.973 198,298.5C 197.383,297.551 197.549,296.718 198.5,296C 197.333,295.833 196.167,295.667 195,295.5C 190.614,296.628 186.281,297.962 182,299.5C 178.744,298.674 178.078,297.008 180,294.5C 181.356,295.38 182.856,295.714 184.5,295.5C 184.5,294.5 184.5,293.5 184.5,292.5C 187.272,292.78 189.772,292.113 192,290.5C 192.333,290.833 192.667,291.167 193,291.5C 197.065,290.142 201.065,288.476 205,286.5C 206.073,287.28 207.24,287.113 208.5,286C 206.405,285.444 206.238,284.944 208,284.5C 209.261,284.759 210.261,285.426 211,286.5C 212.46,284.578 214.127,283.911 216,284.5C 216.528,283.184 216.028,282.517 214.5,282.5C 214.5,282.167 214.5,281.833 214.5,281.5C 223.283,279.008 232.283,277.008 241.5,275.5C 245.876,275.091 250.21,274.425 254.5,273.5C 255.833,273.5 257.167,273.5 258.5,273.5C 258.5,274.5 258.5,275.5 258.5,276.5C 254.535,278.107 250.202,279.274 245.5,280C 244.396,281.131 244.729,281.965 246.5,282.5C 287.209,275.761 328.209,269.427 369.5,263.5C 371.006,261.599 372.673,259.932 374.5,258.5 Z"/></g>
<g><path style="opacity:1" fill="#272727" d="M 408.5,278.5 C 442.405,276.8 476.405,277.633 510.5,281C 476.535,279.342 442.535,278.509 408.5,278.5 Z"/></g>
<g><path style="opacity:1" fill="#7a7a7a" d="M 214.5,281.5 C 214.5,281.833 214.5,282.167 214.5,282.5C 209.111,283.245 203.778,284.245 198.5,285.5C 198.611,284.883 198.944,284.383 199.5,284C 204.457,282.842 209.457,282.008 214.5,281.5 Z"/></g>
<g><path style="opacity:1" fill="#4f4f4f" d="M 506.5,284.5 C 495.829,283.427 485.162,283.427 474.5,284.5C 478.313,285.167 481.979,285.834 485.5,286.5C 446.763,284.591 408.096,285.258 369.5,288.5C 363.088,288.593 356.755,289.26 350.5,290.5C 350.611,289.883 350.944,289.383 351.5,289C 342.511,289.56 333.511,290.393 324.5,291.5C 322.341,291.12 320.174,290.787 318,290.5C 316.342,290.675 315.009,291.342 314,292.5C 312.951,291.483 311.784,291.316 310.5,292C 311.167,292.333 311.833,292.667 312.5,293C 308.85,294.502 305.184,294.669 301.5,293.5C 300.146,295.184 298.479,295.684 296.5,295C 297.167,294.667 297.833,294.333 298.5,294C 297.207,293.51 295.873,293.343 294.5,293.5C 302.586,291.438 310.919,290.105 319.5,289.5C 332.242,287.325 344.908,285.658 357.5,284.5C 407.314,279.192 456.981,279.192 506.5,284.5 Z"/></g>
<g><path style="opacity:1" fill="#292929" d="M 292.5,280.5 C 264.012,285.731 235.678,291.731 207.5,298.5C 179.338,305.078 151.338,312.078 123.5,319.5C 120.426,319.752 117.426,319.418 114.5,318.5C 113.652,316.591 113.318,314.591 113.5,312.5C 116.598,312.587 116.932,312.087 114.5,311C 115.253,309.513 116.086,309.346 117,310.5C 118.78,309.406 120.614,308.406 122.5,307.5C 121.643,306.575 120.643,305.908 119.5,305.5C 145.272,297.473 171.606,290.806 198.5,285.5C 203.778,284.245 209.111,283.245 214.5,282.5C 216.028,282.517 216.528,283.184 216,284.5C 214.127,283.911 212.46,284.578 211,286.5C 210.261,285.426 209.261,284.759 208,284.5C 206.238,284.944 206.405,285.444 208.5,286C 207.24,287.113 206.073,287.28 205,286.5C 201.065,288.476 197.065,290.142 193,291.5C 192.667,291.167 192.333,290.833 192,290.5C 189.772,292.113 187.272,292.78 184.5,292.5C 184.5,293.5 184.5,294.5 184.5,295.5C 182.856,295.714 181.356,295.38 180,294.5C 178.078,297.008 178.744,298.674 182,299.5C 186.281,297.962 190.614,296.628 195,295.5C 196.167,295.667 197.333,295.833 198.5,296C 197.549,296.718 197.383,297.551 198,298.5C 199.693,296.973 201.527,295.64 203.5,294.5C 205.801,295.396 208.134,295.562 210.5,295C 209.167,294.667 207.833,294.333 206.5,294C 207.025,293.308 207.692,292.808 208.5,292.5C 210.021,292.88 211.687,293.046 213.5,293C 212.304,293.654 212.304,294.154 213.5,294.5C 214.386,293.675 214.719,292.675 214.5,291.5C 219.424,290.874 224.257,289.874 229,288.5C 231.174,288.787 233.341,289.12 235.5,289.5C 253.803,285.906 272.136,282.572 290.5,279.5C 291.416,279.543 292.083,279.876 292.5,280.5 Z"/></g>
<g><path style="opacity:1" fill="#232323" d="M 357.5,284.5 C 344.908,285.658 332.242,287.325 319.5,289.5C 318.207,288.842 316.707,288.508 315,288.5C 308.85,289.571 302.684,290.071 296.5,290C 332.823,282.768 369.49,279.101 406.5,279C 386.756,279.96 367.089,281.627 347.5,284C 350.817,284.498 354.15,284.665 357.5,284.5 Z"/></g>
<g><path style="opacity:1" fill="#ababab" d="M 677.5,283.5 C 680.152,283.41 682.485,284.076 684.5,285.5C 681.848,285.59 679.515,284.924 677.5,283.5 Z"/></g>
<g><path style="opacity:1" fill="#656565" d="M 506.5,284.5 C 506.833,284.5 507.167,284.5 507.5,284.5C 520.948,287.171 534.614,289.338 548.5,291C 549.167,291.333 549.833,291.667 550.5,292C 549.207,292.49 547.873,292.657 546.5,292.5C 526.198,290.225 505.865,288.225 485.5,286.5C 481.979,285.834 478.313,285.167 474.5,284.5C 485.162,283.427 495.829,283.427 506.5,284.5 Z"/></g>
<g><path style="opacity:1" fill="#1c1c1c" d="M 541.5,282.5 C 543.099,282.232 544.432,282.566 545.5,283.5C 544.448,283.351 543.448,283.517 542.5,284C 585.983,290.497 629.15,298.664 672,308.5C 673.07,308.472 673.903,308.139 674.5,307.5C 676.415,307.216 678.081,307.549 679.5,308.5C 675.551,308.693 675.551,309.193 679.5,310C 700.923,315.083 722.256,320.417 743.5,326C 741.5,326.667 739.5,326.667 737.5,326C 722.118,321.763 706.618,317.93 691,314.5C 689.93,314.528 689.097,314.861 688.5,315.5C 669.004,310.71 649.338,306.71 629.5,303.5C 623.993,301.578 618.326,300.078 612.5,299C 582.739,293.809 553.072,288.976 523.5,284.5C 524.552,284.649 525.552,284.483 526.5,284C 521.489,283.415 516.489,282.749 511.5,282C 519.711,281.553 527.878,282.053 536,283.5C 538.033,283.494 539.866,283.161 541.5,282.5 Z"/></g>
<g><path style="opacity:1" fill="#323232" d="M 332.5,281.5 C 245.749,296.102 160.083,315.935 75.5,341C 74.1118,341.889 74.2785,342.389 76,342.5C 84.0477,339.81 92.2144,337.977 100.5,337C 92.7866,340.069 84.7866,342.235 76.5,343.5C 76.1667,343.5 75.8333,343.5 75.5,343.5C 72.0793,341.853 68.4126,341.187 64.5,341.5C 64.2053,339.265 64.5386,337.265 65.5,335.5C 65.5,337.167 65.5,338.833 65.5,340.5C 94.0946,333.978 122.428,326.311 150.5,317.5C 147.134,314.883 144.134,315.383 141.5,319C 139.559,319.743 137.726,319.576 136,318.5C 128.624,321.125 121.124,323.458 113.5,325.5C 112.167,324.833 112.167,324.167 113.5,323.5C 116.629,321.6 119.963,320.267 123.5,319.5C 151.338,312.078 179.338,305.078 207.5,298.5C 207.917,299.124 208.584,299.457 209.5,299.5C 227.199,295.96 244.866,292.294 262.5,288.5C 263.689,288.756 264.856,289.089 266,289.5C 268.231,286.949 270.397,286.949 272.5,289.5C 273.892,288.395 275.059,287.061 276,285.5C 277.525,286.72 279.359,287.387 281.5,287.5C 284.882,287.324 288.215,286.824 291.5,286C 292.646,285.355 293.646,284.522 294.5,283.5C 295.086,283.709 295.586,284.043 296,284.5C 302.263,283.341 308.596,282.341 315,281.5C 316.107,281.585 317.107,281.919 318,282.5C 320.152,280.184 322.652,279.85 325.5,281.5C 326.328,280.585 327.328,279.919 328.5,279.5C 331.063,279.737 331.063,280.237 328.5,281C 329.793,281.49 331.127,281.657 332.5,281.5 Z"/></g>
<g><path style="opacity:1" fill="#101010" d="M 545.5,283.5 C 588.995,289.467 631.995,297.467 674.5,307.5C 673.903,308.139 673.07,308.472 672,308.5C 629.15,298.664 585.983,290.497 542.5,284C 543.448,283.517 544.448,283.351 545.5,283.5 Z"/></g>
<g><path style="opacity:1" fill="#343434" d="M 506.5,267.5 C 519.828,267.629 532.828,268.962 545.5,271.5C 547.826,270.69 550.159,271.023 552.5,272.5C 553.675,271.145 554.675,271.312 555.5,273C 562.087,273.918 568.587,275.085 575,276.5C 575.414,276.043 575.914,275.709 576.5,275.5C 635.363,287.739 694.03,300.739 752.5,314.5C 752.5,312.833 752.5,311.167 752.5,309.5C 744.35,307.748 736.017,305.581 727.5,303C 726.167,302.333 726.167,301.667 727.5,301C 727,300.833 726.5,300.667 726,300.5C 723.88,301.459 721.713,301.626 719.5,301C 715.5,300.333 715.5,299.667 719.5,299C 714.465,297.657 709.465,296.157 704.5,294.5C 703.833,294.833 703.167,295.167 702.5,295.5C 699.738,293.984 696.905,292.651 694,291.5C 692.418,293.029 690.585,293.529 688.5,293C 689.988,291.283 691.821,290.116 694,289.5C 697.394,290.456 700.894,290.789 704.5,290.5C 706.099,290.232 707.432,290.566 708.5,291.5C 710.905,292.768 713.572,293.435 716.5,293.5C 716.833,293.5 717.167,293.5 717.5,293.5C 719.905,294.768 722.572,295.435 725.5,295.5C 735.546,298.177 745.546,300.844 755.5,303.5C 755.5,303.833 755.5,304.167 755.5,304.5C 754.373,308.804 753.373,313.137 752.5,317.5C 692.428,302.213 631.762,289.047 570.5,278C 551.972,275.18 533.306,272.68 514.5,270.5C 512.5,270.833 510.5,271.167 508.5,271.5C 509.127,272.417 509.461,273.417 509.5,274.5C 507.759,272.605 506.759,270.272 506.5,267.5 Z"/></g>
<g><path style="opacity:1" fill="#848484" d="M 708.5,291.5 C 711.495,291.294 714.162,291.96 716.5,293.5C 713.572,293.435 710.905,292.768 708.5,291.5 Z"/></g>
<g><path style="opacity:1" fill="#a8a8a8" d="M 717.5,293.5 C 720.495,293.294 723.162,293.96 725.5,295.5C 722.572,295.435 719.905,294.768 717.5,293.5 Z"/></g>
<g><path style="opacity:1" fill="#9c9c9c" d="M 537.5,294.5 C 542.414,294.362 547.081,295.028 551.5,296.5C 546.609,296.468 541.943,295.801 537.5,294.5 Z"/></g>
<g><path style="opacity:1" fill="#676767" d="M 607.5,302.5 C 590.353,299.919 573.353,297.252 556.5,294.5C 555.737,293.732 554.737,293.232 553.5,293C 559.507,292.8 565.507,293.133 571.5,294C 584.545,296.562 597.545,299.229 610.5,302C 609.552,302.483 608.552,302.649 607.5,302.5 Z"/></g>
<g><path style="opacity:1" fill="#aeaeae" d="M 332.5,295.5 C 328.817,297.25 324.817,297.917 320.5,297.5C 324.316,296.518 328.316,295.851 332.5,295.5 Z"/></g>
<g><path style="opacity:1" fill="#525252" d="M 294.5,293.5 C 293.737,294.268 292.737,294.768 291.5,295C 292.833,295.333 294.167,295.667 295.5,296C 258.681,302.562 222.348,310.895 186.5,321C 187.094,321.464 187.761,321.631 188.5,321.5C 188.389,322.117 188.056,322.617 187.5,323C 189.134,323.494 190.801,323.66 192.5,323.5C 190.343,324.407 188.01,325.073 185.5,325.5C 185.611,324.883 185.944,324.383 186.5,324C 183.112,323.341 179.779,323.508 176.5,324.5C 174.769,323.793 173.103,322.793 171.5,321.5C 169.253,322.374 166.92,322.708 164.5,322.5C 171.665,320.207 178.999,318.207 186.5,316.5C 189.727,316.324 192.727,315.657 195.5,314.5C 219.01,308.398 242.676,303.065 266.5,298.5C 268.099,298.768 269.432,298.434 270.5,297.5C 278.496,296.167 286.496,294.834 294.5,293.5 Z"/></g>
<g><path style="opacity:1" fill="#535353" d="M 507.5,284.5 C 512.833,284.5 518.167,284.5 523.5,284.5C 553.072,288.976 582.739,293.809 612.5,299C 618.326,300.078 623.993,301.578 629.5,303.5C 629.611,304.117 629.944,304.617 630.5,305C 638.359,306.838 646.192,308.671 654,310.5C 656.532,309.111 658.699,309.611 660.5,312C 663.864,312.727 667.197,313.56 670.5,314.5C 669.675,315.386 668.675,315.719 667.5,315.5C 647.425,311.153 627.425,306.82 607.5,302.5C 608.552,302.649 609.552,302.483 610.5,302C 597.545,299.229 584.545,296.562 571.5,294C 565.507,293.133 559.507,292.8 553.5,293C 554.737,293.232 555.737,293.732 556.5,294.5C 552.878,294.678 549.544,294.011 546.5,292.5C 547.873,292.657 549.207,292.49 550.5,292C 549.833,291.667 549.167,291.333 548.5,291C 534.614,289.338 520.948,287.171 507.5,284.5 Z"/></g>
<g><path style="opacity:1" fill="#414141" d="M 369.5,288.5 C 376.982,289.492 384.648,289.825 392.5,289.5C 372.548,290.951 352.548,292.951 332.5,295.5C 328.316,295.851 324.316,296.518 320.5,297.5C 306.888,299.922 293.221,302.255 279.5,304.5C 275.922,304.549 272.589,305.215 269.5,306.5C 258.306,309.01 246.972,311.343 235.5,313.5C 232.848,313.41 230.515,314.076 228.5,315.5C 216.456,318.042 204.456,320.708 192.5,323.5C 190.801,323.66 189.134,323.494 187.5,323C 188.056,322.617 188.389,322.117 188.5,321.5C 229.854,311.384 271.52,302.55 313.5,295C 325.883,293.688 338.216,292.188 350.5,290.5C 356.755,289.26 363.088,288.593 369.5,288.5 Z"/></g>
<g><path style="opacity:1" fill="#424242" d="M 752.5,317.5 C 753.404,318.209 753.737,319.209 753.5,320.5C 751.5,320.5 749.5,320.5 747.5,320.5C 737.044,318.191 726.544,315.525 716,312.5C 712.527,311.837 709.027,311.504 705.5,311.5C 705.5,310.5 705.5,309.5 705.5,308.5C 678.978,302.372 652.312,296.539 625.5,291C 618.587,290.776 611.754,289.943 605,288.5C 603.449,289.054 601.949,289.72 600.5,290.5C 599.833,290.333 599.167,290.167 598.5,290C 599.624,289.751 600.624,289.251 601.5,288.5C 571.206,281.478 540.54,276.811 509.5,274.5C 509.461,273.417 509.127,272.417 508.5,271.5C 510.5,271.167 512.5,270.833 514.5,270.5C 533.306,272.68 551.972,275.18 570.5,278C 631.762,289.047 692.428,302.213 752.5,317.5 Z"/></g>
<g><path style="opacity:1" fill="#393939" d="M 485.5,286.5 C 505.865,288.225 526.198,290.225 546.5,292.5C 549.544,294.011 552.878,294.678 556.5,294.5C 573.353,297.252 590.353,299.919 607.5,302.5C 627.425,306.82 647.425,311.153 667.5,315.5C 678.087,318.188 688.753,321.021 699.5,324C 695.195,323.923 690.862,323.756 686.5,323.5C 686.167,323.5 685.833,323.5 685.5,323.5C 682.039,322.134 678.373,321.134 674.5,320.5C 667.728,319.546 661.061,318.212 654.5,316.5C 652.485,315.076 650.152,314.41 647.5,314.5C 645.565,313.85 643.565,313.517 641.5,313.5C 639.039,312.469 636.373,311.802 633.5,311.5C 622.778,309.622 612.111,307.622 601.5,305.5C 598.456,303.989 595.122,303.322 591.5,303.5C 578.33,300.849 564.997,298.515 551.5,296.5C 547.081,295.028 542.414,294.362 537.5,294.5C 489.325,289.026 440.992,287.36 392.5,289.5C 384.648,289.825 376.982,289.492 369.5,288.5C 408.096,285.258 446.763,284.591 485.5,286.5 Z"/></g>
<g><path style="opacity:1" fill="#2b2b2b" d="M 270.5,297.5 C 269.432,298.434 268.099,298.768 266.5,298.5C 265.726,297.853 264.726,297.52 263.5,297.5C 239.363,302.295 215.363,307.795 191.5,314C 192.793,314.49 194.127,314.657 195.5,314.5C 192.727,315.657 189.727,316.324 186.5,316.5C 186.083,315.876 185.416,315.543 184.5,315.5C 172.484,318.502 160.484,321.502 148.5,324.5C 147.833,324.333 147.167,324.167 146.5,324C 194.56,310.319 243.226,299.152 292.5,290.5C 293.5,290.667 294.5,290.833 295.5,291C 287.155,292.558 278.822,294.224 270.5,296C 266.551,296.807 266.551,297.307 270.5,297.5 Z"/></g>
<g><path style="opacity:1" fill="#474747" d="M 800.5,334.5 C 800.5,333.5 800.5,332.5 800.5,331.5C 785.655,328.789 770.988,325.122 756.5,320.5C 756.338,318.473 756.505,316.473 757,314.5C 767.448,318.398 778.115,321.398 789,323.5C 790.728,323.546 792.228,323.046 793.5,322C 780.921,318.296 768.255,315.129 755.5,312.5C 755.387,309.951 756.054,307.618 757.5,305.5C 757.043,304.702 756.376,304.369 755.5,304.5C 755.5,304.167 755.5,303.833 755.5,303.5C 758.139,303.429 760.306,302.429 762,300.5C 769.764,303.069 777.597,305.569 785.5,308C 790.617,311.397 794.45,315.897 797,321.5C 797.35,324.722 798.684,327.388 801,329.5C 801.78,331.387 801.613,333.054 800.5,334.5 Z"/></g>
<g><path style="opacity:1" fill="#686868" d="M 350.5,290.5 C 338.216,292.188 325.883,293.688 313.5,295C 271.52,302.55 229.854,311.384 188.5,321.5C 187.761,321.631 187.094,321.464 186.5,321C 222.348,310.895 258.681,302.562 295.5,296C 294.167,295.667 292.833,295.333 291.5,295C 292.737,294.768 293.737,294.268 294.5,293.5C 295.873,293.343 297.207,293.51 298.5,294C 297.833,294.333 297.167,294.667 296.5,295C 298.479,295.684 300.146,295.184 301.5,293.5C 305.184,294.669 308.85,294.502 312.5,293C 311.833,292.667 311.167,292.333 310.5,292C 311.784,291.316 312.951,291.483 314,292.5C 315.009,291.342 316.342,290.675 318,290.5C 320.174,290.787 322.341,291.12 324.5,291.5C 333.511,290.393 342.511,289.56 351.5,289C 350.944,289.383 350.611,289.883 350.5,290.5 Z"/></g>
<g><path style="opacity:1" fill="#afafaf" d="M 591.5,303.5 C 595.122,303.322 598.456,303.989 601.5,305.5C 597.922,305.451 594.589,304.785 591.5,303.5 Z"/></g>
<g><path style="opacity:1" fill="#888888" d="M 279.5,304.5 C 276.456,306.011 273.122,306.678 269.5,306.5C 272.589,305.215 275.922,304.549 279.5,304.5 Z"/></g>
<g><path style="opacity:1" fill="#111111" d="M 266.5,298.5 C 242.676,303.065 219.01,308.398 195.5,314.5C 194.127,314.657 192.793,314.49 191.5,314C 215.363,307.795 239.363,302.295 263.5,297.5C 264.726,297.52 265.726,297.853 266.5,298.5 Z"/></g>
<g><path style="opacity:1" fill="#212121" d="M 73.5,320.5 C 75.5447,316.133 78.878,313.133 83.5,311.5C 88.062,310.204 92.7286,309.538 97.5,309.5C 97.0941,311.109 97.0941,312.443 97.5,313.5C 99.5346,312.403 100.868,310.737 101.5,308.5C 102.148,310.149 103.148,311.482 104.5,312.5C 105.731,311.349 105.731,310.183 104.5,309C 107.056,308.888 108.39,310.221 108.5,313C 108.3,316.285 106.8,317.118 104,315.5C 94.6384,319.853 85.1384,322.686 75.5,324C 76.1667,323.667 76.8333,323.333 77.5,323C 75.563,322.878 74.2297,322.045 73.5,320.5 Z"/></g>
<g><path style="opacity:1" fill="#2b2b2b" d="M 117.5,305.5 C 115.626,306.837 113.626,308.171 111.5,309.5C 110.549,308.674 109.549,308.508 108.5,309C 110.179,311.565 110.846,314.398 110.5,317.5C 99.5844,320.604 88.5844,323.771 77.5,327C 78.0944,327.464 78.7611,327.631 79.5,327.5C 77.0336,328.634 74.367,328.801 71.5,328C 70.944,327.617 70.6107,327.117 70.5,326.5C 70.461,323.911 71.461,321.911 73.5,320.5C 74.2297,322.045 75.563,322.878 77.5,323C 76.8333,323.333 76.1667,323.667 75.5,324C 85.1384,322.686 94.6384,319.853 104,315.5C 106.8,317.118 108.3,316.285 108.5,313C 108.39,310.221 107.056,308.888 104.5,309C 105.731,310.183 105.731,311.349 104.5,312.5C 103.148,311.482 102.148,310.149 101.5,308.5C 100.868,310.737 99.5346,312.403 97.5,313.5C 97.0941,312.443 97.0941,311.109 97.5,309.5C 92.7286,309.538 88.062,310.204 83.5,311.5C 89.8711,308.902 96.5378,306.902 103.5,305.5C 105.369,306.068 107.203,306.734 109,307.5C 111.87,306.907 114.703,306.241 117.5,305.5 Z"/></g>
<g><path style="opacity:1" fill="#adadad" d="M 633.5,311.5 C 636.373,311.802 639.039,312.469 641.5,313.5C 638.447,313.889 635.78,313.223 633.5,311.5 Z"/></g>
<g><path style="opacity:1" fill="#b7b7b7" d="M 235.5,313.5 C 233.485,314.924 231.152,315.59 228.5,315.5C 230.515,314.076 232.848,313.41 235.5,313.5 Z"/></g>
<g><path style="opacity:1" fill="#878787" d="M 647.5,314.5 C 650.152,314.41 652.485,315.076 654.5,316.5C 651.848,316.59 649.515,315.924 647.5,314.5 Z"/></g>
<g><path style="opacity:1" fill="#454545" d="M 629.5,303.5 C 649.338,306.71 669.004,310.71 688.5,315.5C 701.234,318.449 713.9,321.782 726.5,325.5C 726.082,326.222 725.416,326.722 724.5,327C 727.988,328.595 731.488,329.095 735,328.5C 737.819,330.669 740.986,332.169 744.5,333C 740.861,332.722 737.194,332.722 733.5,333C 734.381,333.708 735.047,334.542 735.5,335.5C 730.4,335.289 725.734,333.955 721.5,331.5C 725.146,332.283 728.812,332.45 732.5,332C 723.134,329.102 713.634,326.602 704,324.5C 702.317,325.176 702.15,326.176 703.5,327.5C 697.603,326.658 691.936,325.324 686.5,323.5C 690.862,323.756 695.195,323.923 699.5,324C 688.753,321.021 678.087,318.188 667.5,315.5C 668.675,315.719 669.675,315.386 670.5,314.5C 667.197,313.56 663.864,312.727 660.5,312C 658.699,309.611 656.532,309.111 654,310.5C 646.192,308.671 638.359,306.838 630.5,305C 629.944,304.617 629.611,304.117 629.5,303.5 Z"/></g>
<g><path style="opacity:1" fill="#acacac" d="M 674.5,320.5 C 678.373,321.134 682.039,322.134 685.5,323.5C 682.126,323.326 678.793,322.826 675.5,322C 674.944,321.617 674.611,321.117 674.5,320.5 Z"/></g>
<g><path style="opacity:1" fill="#212121" d="M 755.5,304.5 C 756.376,304.369 757.043,304.702 757.5,305.5C 756.054,307.618 755.387,309.951 755.5,312.5C 755.5,316.167 755.5,319.833 755.5,323.5C 761.317,324.706 766.984,326.039 772.5,327.5C 771.183,327.821 769.849,328.154 768.5,328.5C 761.957,326.625 755.29,325.458 748.5,325C 738.342,322.595 728.342,320.095 718.5,317.5C 724.974,317.595 731.307,318.595 737.5,320.5C 740.765,319.765 744.098,319.765 747.5,320.5C 749.5,320.5 751.5,320.5 753.5,320.5C 753.737,319.209 753.404,318.209 752.5,317.5C 753.373,313.137 754.373,308.804 755.5,304.5 Z"/></g>
<g><path style="opacity:1" fill="#404040" d="M 65.5,335.5 C 67.314,332.513 68.9807,329.513 70.5,326.5C 70.6107,327.117 70.944,327.617 71.5,328C 74.367,328.801 77.0336,328.634 79.5,327.5C 90.094,325.791 100.427,323.124 110.5,319.5C 110.664,322.187 110.497,324.854 110,327.5C 108.806,326.57 107.473,325.903 106,325.5C 91.9863,328.155 78.4863,331.489 65.5,335.5 Z"/></g>
<g><path style="opacity:1" fill="#202020" d="M 117.5,305.5 C 118.167,305.5 118.833,305.5 119.5,305.5C 120.643,305.908 121.643,306.575 122.5,307.5C 120.614,308.406 118.78,309.406 117,310.5C 116.086,309.346 115.253,309.513 114.5,311C 116.932,312.087 116.598,312.587 113.5,312.5C 113.318,314.591 113.652,316.591 114.5,318.5C 117.426,319.418 120.426,319.752 123.5,319.5C 119.963,320.267 116.629,321.6 113.5,323.5C 112.167,324.167 112.167,324.833 113.5,325.5C 121.124,323.458 128.624,321.125 136,318.5C 137.726,319.576 139.559,319.743 141.5,319C 144.134,315.383 147.134,314.883 150.5,317.5C 122.428,326.311 94.0946,333.978 65.5,340.5C 65.5,338.833 65.5,337.167 65.5,335.5C 78.4863,331.489 91.9863,328.155 106,325.5C 107.473,325.903 108.806,326.57 110,327.5C 110.497,324.854 110.664,322.187 110.5,319.5C 100.427,323.124 90.094,325.791 79.5,327.5C 78.7611,327.631 78.0944,327.464 77.5,327C 88.5844,323.771 99.5844,320.604 110.5,317.5C 110.846,314.398 110.179,311.565 108.5,309C 109.549,308.508 110.549,308.674 111.5,309.5C 113.626,308.171 115.626,306.837 117.5,305.5 Z"/></g>
<g><path style="opacity:1" fill="#272727" d="M 141.5,324.5 C 142.873,324.343 144.207,324.51 145.5,325C 133.866,328.46 122.199,331.793 110.5,335C 107.515,335.868 104.515,336.201 101.5,336C 114.956,332.141 128.289,328.307 141.5,324.5 Z"/></g>
<g><path style="opacity:1" fill="#2d2d2d" d="M 721.5,331.5 C 715.404,330.475 709.404,329.142 703.5,327.5C 702.15,326.176 702.317,325.176 704,324.5C 713.634,326.602 723.134,329.102 732.5,332C 728.812,332.45 725.146,332.283 721.5,331.5 Z"/></g>
<g><path style="opacity:1" fill="#141414" d="M 679.5,308.5 C 692.676,311.19 705.676,314.19 718.5,317.5C 728.342,320.095 738.342,322.595 748.5,325C 755.29,325.458 761.957,326.625 768.5,328.5C 769.849,328.154 771.183,327.821 772.5,327.5C 776.527,327.949 780.527,328.616 784.5,329.5C 788.154,331.804 792.154,333.304 796.5,334C 795.552,334.483 794.552,334.649 793.5,334.5C 793.5,335.5 793.5,336.5 793.5,337.5C 792.094,337.973 791.427,338.973 791.5,340.5C 769.769,335.699 748.103,330.699 726.5,325.5C 713.9,321.782 701.234,318.449 688.5,315.5C 689.097,314.861 689.93,314.528 691,314.5C 706.618,317.93 722.118,321.763 737.5,326C 739.5,326.667 741.5,326.667 743.5,326C 722.256,320.417 700.923,315.083 679.5,310C 675.551,309.193 675.551,308.693 679.5,308.5 Z"/></g>
<g><path style="opacity:1" fill="#323232" d="M 755.5,312.5 C 768.255,315.129 780.921,318.296 793.5,322C 792.228,323.046 790.728,323.546 789,323.5C 778.115,321.398 767.448,318.398 757,314.5C 756.505,316.473 756.338,318.473 756.5,320.5C 770.988,325.122 785.655,328.789 800.5,331.5C 800.5,332.5 800.5,333.5 800.5,334.5C 798.429,335.945 796.096,336.945 793.5,337.5C 793.5,336.5 793.5,335.5 793.5,334.5C 794.552,334.649 795.552,334.483 796.5,334C 792.154,333.304 788.154,331.804 784.5,329.5C 780.527,328.616 776.527,327.949 772.5,327.5C 766.984,326.039 761.317,324.706 755.5,323.5C 755.5,319.833 755.5,316.167 755.5,312.5 Z"/></g>
<g><path style="opacity:1" fill="#5a5a5a" d="M 176.5,324.5 C 144.771,332.684 113.105,341.35 81.5,350.5C 84.795,351.401 88.1283,351.401 91.5,350.5C 87.7102,352.123 83.7102,353.456 79.5,354.5C 77.4035,351.22 76.0702,347.553 75.5,343.5C 75.8333,343.5 76.1667,343.5 76.5,343.5C 76.62,344.586 77.2867,345.253 78.5,345.5C 106.971,337.46 135.637,329.793 164.5,322.5C 166.92,322.708 169.253,322.374 171.5,321.5C 173.103,322.793 174.769,323.793 176.5,324.5 Z"/></g>
<g><path style="opacity:1" fill="#343434" d="M 726.5,325.5 C 748.103,330.699 769.769,335.699 791.5,340.5C 791.005,342.482 790.505,344.482 790,346.5C 789.481,347.516 788.647,348.182 787.5,348.5C 782.465,347.162 777.465,345.829 772.5,344.5C 770.485,343.076 768.152,342.41 765.5,342.5C 755.426,340.419 745.426,338.086 735.5,335.5C 735.047,334.542 734.381,333.708 733.5,333C 737.194,332.722 740.861,332.722 744.5,333C 740.986,332.169 737.819,330.669 735,328.5C 731.488,329.095 727.988,328.595 724.5,327C 725.416,326.722 726.082,326.222 726.5,325.5 Z"/></g>
<g><path style="opacity:1" fill="#6c6c6c" d="M 765.5,342.5 C 768.152,342.41 770.485,343.076 772.5,344.5C 769.848,344.59 767.515,343.924 765.5,342.5 Z"/></g>
<g><path style="opacity:1" fill="#353535" d="M 185.5,325.5 C 156.793,332.844 128.126,340.511 99.5,348.5C 96.5718,348.565 93.9052,349.232 91.5,350.5C 88.1283,351.401 84.795,351.401 81.5,350.5C 113.105,341.35 144.771,332.684 176.5,324.5C 179.779,323.508 183.112,323.341 186.5,324C 185.944,324.383 185.611,324.883 185.5,325.5 Z"/></g>
<g><path style="opacity:1" fill="#333333" d="M 466.5,351.5 C 466.5,352.5 466.5,353.5 466.5,354.5C 464.436,354.238 463.103,353.071 462.5,351C 463.956,350.577 464.456,349.744 464,348.5C 462.667,349.167 461.333,349.833 460,350.5C 458.333,349.167 456.667,349.167 455,350.5C 454.581,349.328 453.915,348.328 453,347.5C 452.685,349.586 452.185,351.586 451.5,353.5C 449.833,352.5 448.5,351.167 447.5,349.5C 451.575,347.045 455.741,344.712 460,342.5C 463.106,344.78 465.272,347.78 466.5,351.5 Z"/></g>
<g><path style="opacity:1" fill="#212121" d="M 466.5,354.5 C 465.167,355.167 463.833,355.833 462.5,356.5C 461.662,356.842 461.328,357.508 461.5,358.5C 456.737,360.12 453.403,358.453 451.5,353.5C 452.185,351.586 452.685,349.586 453,347.5C 453.915,348.328 454.581,349.328 455,350.5C 456.667,349.167 458.333,349.167 460,350.5C 461.333,349.833 462.667,349.167 464,348.5C 464.456,349.744 463.956,350.577 462.5,351C 463.103,353.071 464.436,354.238 466.5,354.5 Z"/></g>
<g><path style="opacity:1" fill="#aaaaaa" d="M 99.5,348.5 C 97.1617,350.04 94.4951,350.706 91.5,350.5C 93.9052,349.232 96.5718,348.565 99.5,348.5 Z"/></g>
<g><path style="opacity:1" fill="#646464" d="M 424.5,351.5 C 429.316,352.326 434.316,352.826 439.5,353C 430.941,354.548 422.275,355.548 413.5,356C 410.372,356.841 407.372,357.675 404.5,358.5C 400.497,358.49 397.497,360.157 395.5,363.5C 394.833,363.5 394.5,363.833 394.5,364.5C 393.903,364.265 393.57,363.765 393.5,363C 394.839,360.995 396.505,359.328 398.5,358C 403.317,356.036 408.317,354.702 413.5,354C 411.866,353.506 410.199,353.34 408.5,353.5C 413.646,352.449 418.979,351.782 424.5,351.5 Z"/></g>
<g><path style="opacity:1" fill="#4a4a4a" d="M 447.5,349.5 C 448.5,351.167 449.833,352.5 451.5,353.5C 453.403,358.453 456.737,360.12 461.5,358.5C 463.284,358.893 464.95,359.559 466.5,360.5C 462.101,361.191 457.601,361.858 453,362.5C 449.326,356.222 445.16,355.889 440.5,361.5C 438.777,357.692 435.777,356.025 431.5,356.5C 426.766,356.475 422.266,357.475 418,359.5C 413.543,359.675 409.043,359.342 404.5,358.5C 407.372,357.675 410.372,356.841 413.5,356C 422.275,355.548 430.941,354.548 439.5,353C 434.316,352.826 429.316,352.326 424.5,351.5C 429.913,351.071 435.079,349.738 440,347.5C 442.472,348.322 444.972,348.989 447.5,349.5 Z"/></g>
<g><path style="opacity:1" fill="#9a9a9a" d="M 466.5,351.5 C 467.451,352.919 467.784,354.585 467.5,356.5C 465.833,356.5 464.167,356.5 462.5,356.5C 463.833,355.833 465.167,355.167 466.5,354.5C 466.5,353.5 466.5,352.5 466.5,351.5 Z"/></g>
<g><path style="opacity:1" fill="#3d3d3d" d="M 466.5,360.5 C 467.833,360.5 469.167,360.5 470.5,360.5C 470.5,362.833 470.5,365.167 470.5,367.5C 474.297,368.089 474.297,369.089 470.5,370.5C 452.992,370.17 435.659,370.503 418.5,371.5C 417.752,373.332 416.752,374.999 415.5,376.5C 414.444,372.485 416.111,369.985 420.5,369C 436.833,368.667 453.167,368.333 469.5,368C 466.078,367.29 462.911,366.124 460,364.5C 456.767,365.786 453.267,366.453 449.5,366.5C 446.167,366.333 442.833,366.167 439.5,366C 438.833,365.333 438.167,364.667 437.5,364C 434.167,363.667 430.833,363.333 427.5,363C 428.696,362.346 428.696,361.846 427.5,361.5C 426.264,362.246 424.93,362.579 423.5,362.5C 423.181,366.3 422.181,366.466 420.5,363C 421.96,362.189 422.293,361.355 421.5,360.5C 417.967,361.958 414.301,362.958 410.5,363.5C 408.88,360.942 407.38,360.942 406,363.5C 402.582,362.734 399.082,362.734 395.5,363.5C 397.497,360.157 400.497,358.49 404.5,358.5C 409.043,359.342 413.543,359.675 418,359.5C 422.266,357.475 426.766,356.475 431.5,356.5C 435.777,356.025 438.777,357.692 440.5,361.5C 445.16,355.889 449.326,356.222 453,362.5C 457.601,361.858 462.101,361.191 466.5,360.5 Z"/></g>
<g><path style="opacity:1" fill="#434343" d="M 408.5,353.5 C 410.199,353.34 411.866,353.506 413.5,354C 408.317,354.702 403.317,356.036 398.5,358C 396.505,359.328 394.839,360.995 393.5,363C 393.57,363.765 393.903,364.265 394.5,364.5C 392.687,367.933 390.687,371.266 388.5,374.5C 388.167,374.167 387.833,373.833 387.5,373.5C 389.038,370.134 390.205,366.801 391,363.5C 390.395,365.481 389.395,365.815 388,364.5C 387.292,365.381 386.458,366.047 385.5,366.5C 389.984,356.708 397.651,352.374 408.5,353.5 Z"/></g>
<g><path style="opacity:1" fill="#313131" d="M 415.5,376.5 C 414.377,378.518 414.377,380.518 415.5,382.5C 414.975,383.192 414.308,383.692 413.5,384C 418.823,384.499 424.156,384.666 429.5,384.5C 441.167,384.5 452.833,384.5 464.5,384.5C 474.987,385.494 485.654,385.828 496.5,385.5C 496.196,386.15 495.863,386.817 495.5,387.5C 467.336,388.829 439.336,388.829 411.5,387.5C 412.043,387.44 412.376,387.107 412.5,386.5C 407.833,385.833 403.167,385.167 398.5,384.5C 399.125,381.373 400.125,378.373 401.5,375.5C 405.21,372.831 408.876,370.164 412.5,367.5C 407.128,366.645 401.795,365.645 396.5,364.5C 393.973,370.198 390.807,375.531 387,380.5C 386.667,378.5 386.333,376.5 386,374.5C 385,376.167 384,377.833 383,379.5C 382.722,378.584 382.222,377.918 381.5,377.5C 381.5,376.5 381.5,375.5 381.5,374.5C 382.655,371.672 383.989,369.005 385.5,366.5C 386.458,366.047 387.292,365.381 388,364.5C 389.395,365.815 390.395,365.481 391,363.5C 390.205,366.801 389.038,370.134 387.5,373.5C 387.833,373.833 388.167,374.167 388.5,374.5C 390.687,371.266 392.687,367.933 394.5,364.5C 394.5,363.833 394.833,363.5 395.5,363.5C 399.082,362.734 402.582,362.734 406,363.5C 407.38,360.942 408.88,360.942 410.5,363.5C 414.301,362.958 417.967,361.958 421.5,360.5C 422.293,361.355 421.96,362.189 420.5,363C 422.181,366.466 423.181,366.3 423.5,362.5C 424.93,362.579 426.264,362.246 427.5,361.5C 428.696,361.846 428.696,362.346 427.5,363C 430.833,363.333 434.167,363.667 437.5,364C 438.167,364.667 438.833,365.333 439.5,366C 442.833,366.167 446.167,366.333 449.5,366.5C 453.267,366.453 456.767,365.786 460,364.5C 462.911,366.124 466.078,367.29 469.5,368C 453.167,368.333 436.833,368.667 420.5,369C 416.111,369.985 414.444,372.485 415.5,376.5 Z"/></g>
<g><path style="opacity:1" fill="#1c1c1c" d="M 411.5,387.5 C 410.833,387.5 410.167,387.5 409.5,387.5C 405.131,387.467 400.798,387.8 396.5,388.5C 396.5,388.167 396.5,387.833 396.5,387.5C 397.404,386.791 397.737,385.791 397.5,384.5C 393.298,384.183 389.298,384.517 385.5,385.5C 381.009,387.131 380.009,386.131 382.5,382.5C 381.754,381.264 381.421,379.93 381.5,378.5C 381.5,378.167 381.5,377.833 381.5,377.5C 382.222,377.918 382.722,378.584 383,379.5C 384,377.833 385,376.167 386,374.5C 386.333,376.5 386.667,378.5 387,380.5C 390.807,375.531 393.973,370.198 396.5,364.5C 401.795,365.645 407.128,366.645 412.5,367.5C 408.876,370.164 405.21,372.831 401.5,375.5C 400.125,378.373 399.125,381.373 398.5,384.5C 403.167,385.167 407.833,385.833 412.5,386.5C 412.376,387.107 412.043,387.44 411.5,387.5 Z"/></g>
<g><path style="opacity:1" fill="#303030" d="M 418.5,371.5 C 435.659,370.503 452.992,370.17 470.5,370.5C 468.94,372.129 469.273,373.296 471.5,374C 476.606,373.886 481.273,374.72 485.5,376.5C 469.756,376.183 454.089,376.516 438.5,377.5C 434.599,377.085 432.266,375.085 431.5,371.5C 427.167,371.5 422.833,371.5 418.5,371.5 Z"/></g>
<g><path style="opacity:1" fill="#242424" d="M 470.5,360.5 C 476.833,360.5 483.167,360.5 489.5,360.5C 492.789,365.414 495.289,370.748 497,376.5C 497.805,379.696 497.638,382.696 496.5,385.5C 485.654,385.828 474.987,385.494 464.5,384.5C 471.833,384.5 479.167,384.5 486.5,384.5C 486.806,381.615 486.473,378.948 485.5,376.5C 481.273,374.72 476.606,373.886 471.5,374C 469.273,373.296 468.94,372.129 470.5,370.5C 474.297,369.089 474.297,368.089 470.5,367.5C 470.5,365.167 470.5,362.833 470.5,360.5 Z"/></g>
<g><path style="opacity:1" fill="#272727" d="M 418.5,371.5 C 422.833,371.5 427.167,371.5 431.5,371.5C 432.266,375.085 434.599,377.085 438.5,377.5C 437.659,379.379 437.325,381.379 437.5,383.5C 434.615,383.194 431.948,383.527 429.5,384.5C 424.156,384.666 418.823,384.499 413.5,384C 414.308,383.692 414.975,383.192 415.5,382.5C 414.377,380.518 414.377,378.518 415.5,376.5C 416.752,374.999 417.752,373.332 418.5,371.5 Z"/></g>
<g><path style="opacity:1" fill="#494949" d="M 489.5,360.5 C 491.527,360.338 493.527,360.505 495.5,361C 496.916,363.835 498.583,366.502 500.5,369C 506.112,368.45 509.112,370.95 509.5,376.5C 510.791,376.263 511.791,376.596 512.5,377.5C 510.364,378.37 508.531,379.703 507,381.5C 505.473,379.779 504.473,377.779 504,375.5C 503.187,377.436 502.687,379.436 502.5,381.5C 505.62,382.86 508.953,383.693 512.5,384C 513.807,385.943 513.807,387.777 512.5,389.5C 481.498,389.716 450.498,390.049 419.5,390.5C 413.463,390.829 407.463,390.496 401.5,389.5C 404.306,388.832 406.972,388.166 409.5,387.5C 410.167,387.5 410.833,387.5 411.5,387.5C 439.336,388.829 467.336,388.829 495.5,387.5C 495.863,386.817 496.196,386.15 496.5,385.5C 497.638,382.696 497.805,379.696 497,376.5C 495.289,370.748 492.789,365.414 489.5,360.5 Z"/></g>
<g><path style="opacity:1" fill="#181818" d="M 485.5,376.5 C 486.473,378.948 486.806,381.615 486.5,384.5C 479.167,384.5 471.833,384.5 464.5,384.5C 452.833,384.5 441.167,384.5 429.5,384.5C 431.948,383.527 434.615,383.194 437.5,383.5C 437.325,381.379 437.659,379.379 438.5,377.5C 454.089,376.516 469.756,376.183 485.5,376.5 Z"/></g>
<g><path style="opacity:1" fill="#7d7d7d" d="M 348.5,380.5 C 343.75,382.031 338.75,382.698 333.5,382.5C 338.269,381.111 343.269,380.444 348.5,380.5 Z"/></g>
<g><path style="opacity:1" fill="#3b3b3b" d="M 524.5,378.5 C 527.385,378.194 530.052,378.527 532.5,379.5C 530.058,379.354 529.391,380.187 530.5,382C 539.215,383.034 547.715,384.867 556,387.5C 557.356,386.62 558.856,386.286 560.5,386.5C 560.5,387.5 560.5,388.5 560.5,389.5C 562.167,388.833 563.833,388.167 565.5,387.5C 565.354,389.942 566.187,390.609 568,389.5C 568.333,390.167 568.667,390.833 569,391.5C 572.105,390.937 575.105,390.937 578,391.5C 601.134,396.283 624.634,400.95 648.5,405.5C 650.754,405.069 652.921,404.403 655,403.5C 658.017,404.707 661.017,404.707 664,403.5C 665.762,403.944 665.595,404.444 663.5,405C 667.477,405.785 671.311,406.951 675,408.5C 675.167,408.167 675.333,407.833 675.5,407.5C 674.624,406.749 673.624,406.249 672.5,406C 673.056,405.617 673.389,405.117 673.5,404.5C 684.173,406.835 694.84,409.168 705.5,411.5C 707.905,412.768 710.572,413.435 713.5,413.5C 719.769,415.318 726.102,416.984 732.5,418.5C 735.642,419.79 738.975,420.79 742.5,421.5C 748.016,422.546 753.349,423.879 758.5,425.5C 759.29,426.401 760.29,427.068 761.5,427.5C 760.706,430.802 760.04,434.135 759.5,437.5C 708.535,425.842 657.535,414.342 606.5,403C 588.82,399.974 571.153,396.807 553.5,393.5C 542.421,393.49 531.421,392.157 520.5,389.5C 518.939,390.347 517.439,390.014 516,388.5C 515.443,386.385 514.609,384.385 513.5,382.5C 516.5,381.833 519.5,381.167 522.5,380.5C 523.243,379.818 523.909,379.151 524.5,378.5 Z"/></g>
<g><path style="opacity:1" fill="#878787" d="M 538.5,379.5 C 545.377,379.981 552.043,380.981 558.5,382.5C 552.498,382.091 546.498,381.591 540.5,381C 539.584,380.722 538.918,380.222 538.5,379.5 Z"/></g>
<g><path style="opacity:1" fill="#a6a6a6" d="M 332.5,382.5 C 327.073,384.137 321.407,385.137 315.5,385.5C 320.893,383.678 326.559,382.678 332.5,382.5 Z"/></g>
<g><path style="opacity:1" fill="#343434" d="M 512.5,377.5 C 516.6,377.237 520.6,377.57 524.5,378.5C 523.909,379.151 523.243,379.818 522.5,380.5C 519.5,381.167 516.5,381.833 513.5,382.5C 514.609,384.385 515.443,386.385 516,388.5C 517.439,390.014 518.939,390.347 520.5,389.5C 531.421,392.157 542.421,393.49 553.5,393.5C 571.153,396.807 588.82,399.974 606.5,403C 657.535,414.342 708.535,425.842 759.5,437.5C 759.5,438.5 759.5,439.5 759.5,440.5C 705.601,427.004 651.268,414.837 596.5,404C 569.993,399.314 543.326,396.314 516.5,395C 523.706,395.963 530.873,397.13 538,398.5C 539.726,396.902 540.559,397.235 540.5,399.5C 532.102,399.122 523.768,398.288 515.5,397C 513.825,394.816 512.825,392.316 512.5,389.5C 513.807,387.777 513.807,385.943 512.5,384C 508.953,383.693 505.62,382.86 502.5,381.5C 502.687,379.436 503.187,377.436 504,375.5C 504.473,377.779 505.473,379.779 507,381.5C 508.531,379.703 510.364,378.37 512.5,377.5 Z"/></g>
<g><path style="opacity:1" fill="#c3c3c3" d="M 567.5,383.5 C 572.122,383.156 576.455,383.823 580.5,385.5C 575.9,385.72 571.567,385.054 567.5,383.5 Z"/></g>
<g><path style="opacity:1" fill="#575757" d="M 413.5,385.5 C 427.171,385.333 440.837,385.5 454.5,386C 445.01,386.687 435.51,387.187 426,387.5C 421.443,387.491 417.276,386.825 413.5,385.5 Z"/></g>
<g><path style="opacity:1" fill="#555555" d="M 396.5,387.5 C 392.351,388.08 388.684,387.414 385.5,385.5C 389.298,384.517 393.298,384.183 397.5,384.5C 397.737,385.791 397.404,386.791 396.5,387.5 Z"/></g>
<g><path style="opacity:1" fill="#434343" d="M 381.5,374.5 C 381.5,375.5 381.5,376.5 381.5,377.5C 381.5,377.833 381.5,378.167 381.5,378.5C 380.49,381.33 378.823,383.83 376.5,386C 361.924,388.489 347.257,390.155 332.5,391C 327.167,392.333 321.833,393.667 316.5,395C 313.24,395.784 310.073,395.617 307,394.5C 302.827,395.787 298.661,396.953 294.5,398C 290.129,398.828 285.795,398.661 281.5,397.5C 284.333,397.489 287.333,397.156 290.5,396.5C 290.354,394.058 291.187,393.391 293,394.5C 293.833,393 295,391.833 296.5,391C 295.552,390.517 294.552,390.351 293.5,390.5C 293.5,390.167 293.5,389.833 293.5,389.5C 300.593,387.538 307.927,386.205 315.5,385.5C 321.407,385.137 327.073,384.137 332.5,382.5C 332.833,382.5 333.167,382.5 333.5,382.5C 338.75,382.698 343.75,382.031 348.5,380.5C 357.445,379.09 366.445,377.923 375.5,377C 377.845,376.764 379.845,375.93 381.5,374.5 Z"/></g>
<g><path style="opacity:1" fill="#2e2e2e" d="M 380.5,388.5 C 380.5,391.167 380.5,393.833 380.5,396.5C 379.022,396.238 377.689,396.571 376.5,397.5C 377.791,398.527 377.791,399.527 376.5,400.5C 369.194,401.448 361.861,402.115 354.5,402.5C 361.343,400.583 368.343,398.75 375.5,397C 374.663,395.989 374.33,394.822 374.5,393.5C 341.521,396.211 308.855,400.878 276.5,407.5C 275.551,406.848 274.385,406.514 273,406.5C 259.624,409.84 246.124,411.673 232.5,412C 236.272,412.611 236.272,413.611 232.5,415C 227.86,416.546 223.193,416.713 218.5,415.5C 216.653,416.186 214.986,417.186 213.5,418.5C 210.868,416.47 208.035,416.47 205,418.5C 204.667,418.167 204.333,417.833 204,417.5C 202.806,419.525 201.306,419.859 199.5,418.5C 196.404,419.989 193.237,421.323 190,422.5C 188.467,422.056 186.967,421.723 185.5,421.5C 184.522,421.977 183.689,422.643 183,423.5C 182.667,423.167 182.333,422.833 182,422.5C 178.945,423.778 175.778,424.278 172.5,424C 177.246,421.808 182.246,420.308 187.5,419.5C 186.271,418.719 184.938,418.219 183.5,418C 186.44,417.196 189.107,415.863 191.5,414C 189.592,412.065 187.758,412.231 186,414.5C 185.235,414.43 184.735,414.097 184.5,413.5C 186.438,411.837 188.772,411.171 191.5,411.5C 193.698,411.125 195.698,410.458 197.5,409.5C 208.727,406.844 220.06,404.177 231.5,401.5C 234.545,401.492 237.545,401.159 240.5,400.5C 243.817,399.779 247.151,399.612 250.5,400C 248.178,402.971 245.345,403.805 242,402.5C 237.035,403.857 232.201,405.523 227.5,407.5C 225.236,406.696 223.236,407.363 221.5,409.5C 220.914,409.291 220.414,408.957 220,408.5C 219.751,409.624 219.251,410.624 218.5,411.5C 216.667,412.052 215,412.885 213.5,414C 243.854,408.294 274.354,402.794 305,397.5C 305.333,397.833 305.667,398.167 306,398.5C 308.167,396.536 310.501,396.202 313,397.5C 316.699,395.036 320.366,395.036 324,397.5C 326.746,395.904 329.58,394.571 332.5,393.5C 336.531,392.822 340.698,392.822 345,393.5C 345.853,391.875 346.853,391.542 348,392.5C 353.104,391.298 358.271,390.298 363.5,389.5C 364.784,390.585 366.284,391.252 368,391.5C 372.201,390.599 376.368,389.599 380.5,388.5 Z"/></g>
<g><path style="opacity:1" fill="#666666" d="M 396.5,388.5 C 396.5,389.167 396.5,389.833 396.5,390.5C 391.637,390.819 386.97,390.486 382.5,389.5C 386.97,388.514 391.637,388.181 396.5,388.5 Z"/></g>
<g><path style="opacity:1" fill="#757575" d="M 293.5,389.5 C 293.5,389.833 293.5,390.167 293.5,390.5C 289.19,391.08 284.857,391.414 280.5,391.5C 284.591,390.105 288.924,389.438 293.5,389.5 Z"/></g>
<g><path style="opacity:1" fill="#343434" d="M 409.5,387.5 C 406.972,388.166 404.306,388.832 401.5,389.5C 407.463,390.496 413.463,390.829 419.5,390.5C 417.234,394.128 418.067,394.461 422,391.5C 425.086,393.78 428.42,394.113 432,392.5C 433.326,392.755 434.326,393.422 435,394.5C 437.667,393.167 440.333,393.167 443,394.5C 443.689,393.643 444.522,392.977 445.5,392.5C 448.765,393.186 451.932,394.186 455,395.5C 456.962,393.902 458.462,394.236 459.5,396.5C 443.005,397.167 426.672,397.833 410.5,398.5C 404.149,398.443 397.815,398.11 391.5,397.5C 390.85,397.804 390.183,398.137 389.5,398.5C 387.615,397.391 385.615,396.557 383.5,396C 387.558,395.233 391.558,395.4 395.5,396.5C 396.466,394.604 396.799,392.604 396.5,390.5C 396.5,389.833 396.5,389.167 396.5,388.5C 400.798,387.8 405.131,387.467 409.5,387.5 Z"/></g>
<g><path style="opacity:1" fill="#747474" d="M 606.5,390.5 C 609.877,390.068 612.877,390.735 615.5,392.5C 612.273,392.324 609.273,391.657 606.5,390.5 Z"/></g>
<g><path style="opacity:1" fill="#373737" d="M 381.5,378.5 C 381.421,379.93 381.754,381.264 382.5,382.5C 380.009,386.131 381.009,387.131 385.5,385.5C 388.684,387.414 392.351,388.08 396.5,387.5C 396.5,387.833 396.5,388.167 396.5,388.5C 391.637,388.181 386.97,388.514 382.5,389.5C 381.833,389.167 381.167,388.833 380.5,388.5C 376.368,389.599 372.201,390.599 368,391.5C 366.284,391.252 364.784,390.585 363.5,389.5C 358.271,390.298 353.104,391.298 348,392.5C 346.853,391.542 345.853,391.875 345,393.5C 340.698,392.822 336.531,392.822 332.5,393.5C 329.58,394.571 326.746,395.904 324,397.5C 320.366,395.036 316.699,395.036 313,397.5C 310.501,396.202 308.167,396.536 306,398.5C 305.667,398.167 305.333,397.833 305,397.5C 274.354,402.794 243.854,408.294 213.5,414C 215,412.885 216.667,412.052 218.5,411.5C 219.251,410.624 219.751,409.624 220,408.5C 220.414,408.957 220.914,409.291 221.5,409.5C 223.236,407.363 225.236,406.696 227.5,407.5C 232.201,405.523 237.035,403.857 242,402.5C 245.345,403.805 248.178,402.971 250.5,400C 247.151,399.612 243.817,399.779 240.5,400.5C 240.5,400.167 240.5,399.833 240.5,399.5C 253.893,396.955 267.227,394.288 280.5,391.5C 284.857,391.414 289.19,391.08 293.5,390.5C 294.552,390.351 295.552,390.517 296.5,391C 295,391.833 293.833,393 293,394.5C 291.187,393.391 290.354,394.058 290.5,396.5C 287.333,397.156 284.333,397.489 281.5,397.5C 285.795,398.661 290.129,398.828 294.5,398C 298.661,396.953 302.827,395.787 307,394.5C 310.073,395.617 313.24,395.784 316.5,395C 321.833,393.667 327.167,392.333 332.5,391C 347.257,390.155 361.924,388.489 376.5,386C 378.823,383.83 380.49,381.33 381.5,378.5 Z"/></g>
<g><path style="opacity:1" fill="#9c9c9c" d="M 619.5,392.5 C 622.495,392.294 625.162,392.96 627.5,394.5C 624.572,394.435 621.905,393.768 619.5,392.5 Z"/></g>
<g><path style="opacity:1" fill="#3d3d3d" d="M 354.5,402.5 C 348.794,402.97 343.127,403.637 337.5,404.5C 335.4,404.523 333.567,403.856 332,402.5C 322.211,404.081 312.378,405.581 302.5,407C 300.436,407.653 298.769,408.82 297.5,410.5C 292.966,410.557 288.466,410.557 284,410.5C 282.188,410.493 280.688,411.16 279.5,412.5C 277.044,409.92 274.544,409.92 272,412.5C 271.107,411.919 270.107,411.585 269,411.5C 253.486,414.604 237.986,417.437 222.5,420C 223.416,419.722 224.082,419.222 224.5,418.5C 241.686,414.329 259.019,410.662 276.5,407.5C 308.855,400.878 341.521,396.211 374.5,393.5C 374.33,394.822 374.663,395.989 375.5,397C 368.343,398.75 361.343,400.583 354.5,402.5 Z"/></g>
<g><path style="opacity:1" fill="#313131" d="M 532.5,379.5 C 534.5,379.5 536.5,379.5 538.5,379.5C 538.918,380.222 539.584,380.722 540.5,381C 546.498,381.591 552.498,382.091 558.5,382.5C 561.287,383.477 564.287,383.81 567.5,383.5C 571.567,385.054 575.9,385.72 580.5,385.5C 589.074,387.147 597.741,388.814 606.5,390.5C 609.273,391.657 612.273,392.324 615.5,392.5C 616.833,392.5 618.167,392.5 619.5,392.5C 621.905,393.768 624.572,394.435 627.5,394.5C 633.095,395.886 638.762,396.886 644.5,397.5C 646.515,398.924 648.848,399.59 651.5,399.5C 651.833,399.5 652.167,399.5 652.5,399.5C 654.905,400.768 657.572,401.435 660.5,401.5C 664.783,402.624 669.116,403.624 673.5,404.5C 673.389,405.117 673.056,405.617 672.5,406C 673.624,406.249 674.624,406.749 675.5,407.5C 675.333,407.833 675.167,408.167 675,408.5C 671.311,406.951 667.477,405.785 663.5,405C 665.595,404.444 665.762,403.944 664,403.5C 661.017,404.707 658.017,404.707 655,403.5C 652.921,404.403 650.754,405.069 648.5,405.5C 624.634,400.95 601.134,396.283 578,391.5C 575.105,390.937 572.105,390.937 569,391.5C 568.667,390.833 568.333,390.167 568,389.5C 566.187,390.609 565.354,389.942 565.5,387.5C 563.833,388.167 562.167,388.833 560.5,389.5C 560.5,388.5 560.5,387.5 560.5,386.5C 558.856,386.286 557.356,386.62 556,387.5C 547.715,384.867 539.215,383.034 530.5,382C 529.391,380.187 530.058,379.354 532.5,379.5 Z"/></g>
<g><path style="opacity:1" fill="#212121" d="M 380.5,388.5 C 381.167,388.833 381.833,389.167 382.5,389.5C 386.97,390.486 391.637,390.819 396.5,390.5C 396.799,392.604 396.466,394.604 395.5,396.5C 391.558,395.4 387.558,395.233 383.5,396C 385.615,396.557 387.615,397.391 389.5,398.5C 390.183,398.137 390.85,397.804 391.5,397.5C 391.918,398.222 392.584,398.722 393.5,399C 387.865,399.904 382.198,400.404 376.5,400.5C 377.791,399.527 377.791,398.527 376.5,397.5C 377.689,396.571 379.022,396.238 380.5,396.5C 380.5,393.833 380.5,391.167 380.5,388.5 Z"/></g>
<g><path style="opacity:1" fill="#9d9d9d" d="M 644.5,397.5 C 647.152,397.41 649.485,398.076 651.5,399.5C 648.848,399.59 646.515,398.924 644.5,397.5 Z"/></g>
<g><path style="opacity:1" fill="#9a9a9a" d="M 240.5,399.5 C 240.5,399.833 240.5,400.167 240.5,400.5C 237.545,401.159 234.545,401.492 231.5,401.5C 234.273,400.343 237.273,399.676 240.5,399.5 Z"/></g>
<g><path style="opacity:1" fill="#939393" d="M 652.5,399.5 C 655.495,399.294 658.162,399.96 660.5,401.5C 657.572,401.435 654.905,400.768 652.5,399.5 Z"/></g>
<g><path style="opacity:1" fill="#121212" d="M 391.5,397.5 C 397.815,398.11 404.149,398.443 410.5,398.5C 477.86,396.596 544.527,402.263 610.5,415.5C 609.551,416.152 608.385,416.486 607,416.5C 588.204,413.259 569.371,410.259 550.5,407.5C 548.833,407.667 547.167,407.833 545.5,408C 553.572,408.901 561.572,410.234 569.5,412C 567.527,412.495 565.527,412.662 563.5,412.5C 557.847,411.725 552.18,411.058 546.5,410.5C 545.833,410.5 545.167,410.5 544.5,410.5C 543.081,409.549 541.415,409.216 539.5,409.5C 538.391,408.71 537.058,408.21 535.5,408C 538.5,407.667 541.5,407.333 544.5,407C 472.792,398.09 401.126,398.423 329.5,408C 293.241,413.71 257.241,420.71 221.5,429C 174.281,440.388 127.281,452.555 80.5,465.5C 84.4824,463.185 88.8157,461.352 93.5,460C 162.261,440.81 231.594,424.143 301.5,410C 313.711,408.584 325.711,406.751 337.5,404.5C 343.127,403.637 348.794,402.97 354.5,402.5C 361.861,402.115 369.194,401.448 376.5,400.5C 382.198,400.404 387.865,399.904 393.5,399C 392.584,398.722 391.918,398.222 391.5,397.5 Z"/></g>
<g><path style="opacity:1" fill="#141414" d="M 529.5,407.5 C 455.799,400.243 382.466,402.576 309.5,414.5C 304.206,414.318 304.206,413.818 309.5,413C 383.866,400.046 458.533,398.046 533.5,407C 532.207,407.49 530.873,407.657 529.5,407.5 Z"/></g>
<g><path style="opacity:1" fill="#8c8c8c" d="M 197.5,409.5 C 195.698,410.458 193.698,411.125 191.5,411.5C 192.99,409.72 194.99,409.054 197.5,409.5 Z"/></g>
<g><path style="opacity:1" fill="#666666" d="M 544.5,410.5 C 545.167,410.5 545.833,410.5 546.5,410.5C 549.031,412.298 552.031,413.465 555.5,414C 572.753,416.981 590.086,419.314 607.5,421C 619.783,424.902 632.45,427.902 645.5,430C 646.167,430.333 646.833,430.667 647.5,431C 645.866,431.494 644.199,431.66 642.5,431.5C 625.591,427.904 608.591,424.737 591.5,422C 588.833,421.333 586.167,421.333 583.5,422C 587.715,422.855 591.715,424.022 595.5,425.5C 588.83,425.08 582.497,423.747 576.5,421.5C 577.952,420.698 579.618,420.198 581.5,420C 557.262,416.043 532.929,412.876 508.5,410.5C 506.369,409.686 504.036,409.186 501.5,409C 503.833,408.833 506.167,408.667 508.5,408.5C 520.482,409.546 532.482,410.213 544.5,410.5 Z"/></g>
<g><path style="opacity:1" fill="#333333" d="M 508.5,410.5 C 532.929,412.876 557.262,416.043 581.5,420C 579.618,420.198 577.952,420.698 576.5,421.5C 552.795,418.226 529.128,415.559 505.5,413.5C 491.702,411.839 477.702,411.172 463.5,411.5C 448.657,410.302 433.657,410.302 418.5,411.5C 406.83,411.728 395.163,412.062 383.5,412.5C 382.761,412.631 382.094,412.464 381.5,412C 383.058,411.79 384.391,411.29 385.5,410.5C 426.483,406.703 467.483,406.703 508.5,410.5 Z"/></g>
<g><path style="opacity:1" fill="#b5b5b5" d="M 705.5,411.5 C 708.495,411.294 711.162,411.96 713.5,413.5C 710.572,413.435 707.905,412.768 705.5,411.5 Z"/></g>
<g><path style="opacity:1" fill="#aaaaaa" d="M 418.5,411.5 C 407.029,412.929 395.363,413.596 383.5,413.5C 383.5,413.167 383.5,412.833 383.5,412.5C 395.163,412.062 406.83,411.728 418.5,411.5 Z"/></g>
<g><path style="opacity:1" fill="#c0c0c0" d="M 463.5,411.5 C 477.702,411.172 491.702,411.839 505.5,413.5C 491.327,413.199 477.327,412.532 463.5,411.5 Z"/></g>
<g><path style="opacity:1" fill="#2d2d2d" d="M 512.5,389.5 C 512.825,392.316 513.825,394.816 515.5,397C 523.768,398.288 532.102,399.122 540.5,399.5C 585.514,406.67 630.514,414.503 675.5,423C 703.701,430.373 732.034,437.54 760.5,444.5C 760.768,442.901 760.434,441.568 759.5,440.5C 759.5,439.5 759.5,438.5 759.5,437.5C 760.04,434.135 760.706,430.802 761.5,427.5C 764.907,427.125 765.407,428.125 763,430.5C 762.779,435.22 762.279,439.887 761.5,444.5C 762.908,445.243 764.241,446.077 765.5,447C 779.68,448.546 793.68,451.046 807.5,454.5C 807.5,455.833 807.5,457.167 807.5,458.5C 805.05,458.298 802.717,458.631 800.5,459.5C 801.949,457.836 803.949,457.002 806.5,457C 795.985,453.93 785.318,451.43 774.5,449.5C 772.811,449.726 771.145,450.059 769.5,450.5C 757.43,448.525 745.763,445.358 734.5,441C 729.118,440.693 723.785,440.026 718.5,439C 694.313,432.858 669.98,427.358 645.5,422.5C 634.061,419.715 622.394,417.382 610.5,415.5C 544.527,402.263 477.86,396.596 410.5,398.5C 426.672,397.833 443.005,397.167 459.5,396.5C 458.462,394.236 456.962,393.902 455,395.5C 451.932,394.186 448.765,393.186 445.5,392.5C 444.522,392.977 443.689,393.643 443,394.5C 440.333,393.167 437.667,393.167 435,394.5C 434.326,393.422 433.326,392.755 432,392.5C 428.42,394.113 425.086,393.78 422,391.5C 418.067,394.461 417.234,394.128 419.5,390.5C 450.498,390.049 481.498,389.716 512.5,389.5 Z"/></g>
<g><path style="opacity:1" fill="#424242" d="M 759.5,440.5 C 760.434,441.568 760.768,442.901 760.5,444.5C 732.034,437.54 703.701,430.373 675.5,423C 630.514,414.503 585.514,406.67 540.5,399.5C 540.559,397.235 539.726,396.902 538,398.5C 530.873,397.13 523.706,395.963 516.5,395C 543.326,396.314 569.993,399.314 596.5,404C 651.268,414.837 705.601,427.004 759.5,440.5 Z"/></g>
<g><path style="opacity:1" fill="#272727" d="M 276.5,407.5 C 259.019,410.662 241.686,414.329 224.5,418.5C 189.695,426.899 155.028,435.899 120.5,445.5C 121.108,443.741 120.775,441.908 119.5,440C 119.765,437.849 120.765,436.182 122.5,435C 121.833,434.667 121.167,434.333 120.5,434C 123.897,433.411 126.897,432.078 129.5,430C 129.167,429.667 128.833,429.333 128.5,429C 129.5,428.667 130.5,428.333 131.5,428C 131.272,427.601 130.938,427.435 130.5,427.5C 130.5,427.167 130.5,426.833 130.5,426.5C 139.196,424.324 147.862,421.824 156.5,419C 165.723,416.589 175.056,414.755 184.5,413.5C 184.735,414.097 185.235,414.43 186,414.5C 187.758,412.231 189.592,412.065 191.5,414C 189.107,415.863 186.44,417.196 183.5,418C 184.938,418.219 186.271,418.719 187.5,419.5C 182.246,420.308 177.246,421.808 172.5,424C 175.778,424.278 178.945,423.778 182,422.5C 182.333,422.833 182.667,423.167 183,423.5C 183.689,422.643 184.522,421.977 185.5,421.5C 186.967,421.723 188.467,422.056 190,422.5C 193.237,421.323 196.404,419.989 199.5,418.5C 201.306,419.859 202.806,419.525 204,417.5C 204.333,417.833 204.667,418.167 205,418.5C 208.035,416.47 210.868,416.47 213.5,418.5C 214.986,417.186 216.653,416.186 218.5,415.5C 223.193,416.713 227.86,416.546 232.5,415C 236.272,413.611 236.272,412.611 232.5,412C 246.124,411.673 259.624,409.84 273,406.5C 274.385,406.514 275.551,406.848 276.5,407.5 Z"/></g>
<g><path style="opacity:1" fill="#686868" d="M 357.5,412.5 C 339.232,414.912 320.899,417.746 302.5,421C 301.377,422.044 300.044,422.71 298.5,423C 301.482,423.498 304.482,423.665 307.5,423.5C 302.33,424.698 296.997,425.698 291.5,426.5C 291.918,425.778 292.584,425.278 293.5,425C 292.271,424.219 290.938,423.719 289.5,423.5C 257.562,429.402 225.895,436.402 194.5,444.5C 193.127,444.657 191.793,444.49 190.5,444C 244.296,429.304 298.63,418.47 353.5,411.5C 355.045,411.511 356.378,411.844 357.5,412.5 Z"/></g>
<g><path style="opacity:1" fill="#474747" d="M 385.5,410.5 C 384.391,411.29 383.058,411.79 381.5,412C 382.094,412.464 382.761,412.631 383.5,412.5C 383.5,412.833 383.5,413.167 383.5,413.5C 363.745,415.174 344.078,417.508 324.5,420.5C 318.606,420.939 312.94,421.939 307.5,423.5C 304.482,423.665 301.482,423.498 298.5,423C 300.044,422.71 301.377,422.044 302.5,421C 320.899,417.746 339.232,414.912 357.5,412.5C 366.793,411.319 376.127,410.653 385.5,410.5 Z"/></g>
<g><path style="opacity:1" fill="#a1a1a1" d="M 732.5,418.5 C 736.345,418.288 739.679,419.288 742.5,421.5C 738.975,420.79 735.642,419.79 732.5,418.5 Z"/></g>
<g><path style="opacity:1" fill="#535353" d="M 529.5,407.5 C 532.589,408.785 535.922,409.451 539.5,409.5C 541.415,409.216 543.081,409.549 544.5,410.5C 532.482,410.213 520.482,409.546 508.5,408.5C 506.167,408.667 503.833,408.833 501.5,409C 504.036,409.186 506.369,409.686 508.5,410.5C 467.483,406.703 426.483,406.703 385.5,410.5C 376.127,410.653 366.793,411.319 357.5,412.5C 356.378,411.844 355.045,411.511 353.5,411.5C 298.63,418.47 244.296,429.304 190.5,444C 191.793,444.49 193.127,444.657 194.5,444.5C 157.962,454.114 121.295,463.781 84.5,473.5C 83.8333,471.833 83.1667,470.167 82.5,468.5C 82.8333,468.5 83.1667,468.5 83.5,468.5C 155.906,447.399 229.239,429.733 303.5,415.5C 305.735,415.795 307.735,415.461 309.5,414.5C 382.466,402.576 455.799,400.243 529.5,407.5 Z"/></g>
<g><path style="opacity:1" fill="#c8c8c8" d="M 324.5,420.5 C 319.203,422.874 313.537,423.874 307.5,423.5C 312.94,421.939 318.606,420.939 324.5,420.5 Z"/></g>
<g><path style="opacity:1" fill="#1a1a1a" d="M 610.5,415.5 C 622.394,417.382 634.061,419.715 645.5,422.5C 641.107,422.457 640.774,422.957 644.5,424C 672.037,429.441 699.37,435.774 726.5,443C 724.5,443.667 722.5,443.667 720.5,443C 706.683,438.837 692.683,435.837 678.5,434C 679.737,434.232 680.737,434.732 681.5,435.5C 680.5,435.5 679.5,435.5 678.5,435.5C 667.242,432.564 655.909,429.731 644.5,427C 617.436,421.749 590.436,416.916 563.5,412.5C 565.527,412.662 567.527,412.495 569.5,412C 561.572,410.234 553.572,408.901 545.5,408C 547.167,407.833 548.833,407.667 550.5,407.5C 569.371,410.259 588.204,413.259 607,416.5C 608.385,416.486 609.551,416.152 610.5,415.5 Z"/></g>
<g><path style="opacity:1" fill="#4e4e4e" d="M 546.5,410.5 C 552.18,411.058 557.847,411.725 563.5,412.5C 590.436,416.916 617.436,421.749 644.5,427C 655.909,429.731 667.242,432.564 678.5,435.5C 684.755,438.572 691.422,440.738 698.5,442C 698.833,442.333 699.167,442.667 699.5,443C 696.779,443.602 694.113,443.435 691.5,442.5C 675.09,438.645 658.757,434.978 642.5,431.5C 644.199,431.66 645.866,431.494 647.5,431C 646.833,430.667 646.167,430.333 645.5,430C 632.45,427.902 619.783,424.902 607.5,421C 590.086,419.314 572.753,416.981 555.5,414C 552.031,413.465 549.031,412.298 546.5,410.5 Z"/></g>
<g><path style="opacity:1" fill="#454545" d="M 807.5,454.5 C 793.68,451.046 779.68,448.546 765.5,447C 764.241,446.077 762.908,445.243 761.5,444.5C 762.279,439.887 762.779,435.22 763,430.5C 765.407,428.125 764.907,427.125 761.5,427.5C 760.29,427.068 759.29,426.401 758.5,425.5C 760.401,425.433 762.234,425.767 764,426.5C 765.12,424.925 766.62,423.925 768.5,423.5C 777.039,425.771 785.372,428.605 793.5,432C 800.618,438.088 805.285,445.588 807.5,454.5 Z"/></g>
<g><path style="opacity:1" fill="#767676" d="M 130.5,426.5 C 130.5,426.833 130.5,427.167 130.5,427.5C 128.5,427.833 126.5,428.167 124.5,428.5C 126.102,426.926 128.102,426.259 130.5,426.5 Z"/></g>
<g><path style="opacity:1" fill="#101010" d="M 303.5,415.5 C 229.239,429.733 155.906,447.399 83.5,468.5C 83.4701,467.503 83.9701,466.836 85,466.5C 156.141,445.548 228.141,428.215 301,414.5C 302.07,414.528 302.903,414.861 303.5,415.5 Z"/></g>
<g><path style="opacity:1" fill="#c9c9c9" d="M 285.5,427.5 C 280.549,429.773 275.216,430.773 269.5,430.5C 274.63,429.087 279.963,428.087 285.5,427.5 Z"/></g>
<g><path style="opacity:1" fill="#c6c6c6" d="M 601.5,426.5 C 608.02,427.526 614.353,428.859 620.5,430.5C 613.784,430.331 607.45,428.998 601.5,426.5 Z"/></g>
<g><path style="opacity:1" fill="#313131" d="M 337.5,404.5 C 325.711,406.751 313.711,408.584 301.5,410C 231.594,424.143 162.261,440.81 93.5,460C 88.8157,461.352 84.4824,463.185 80.5,465.5C 77.6085,464.597 74.6085,464.264 71.5,464.5C 71.1984,461.941 71.5318,459.607 72.5,457.5C 72.5,459.5 72.5,461.5 72.5,463.5C 74.8568,463.663 77.1902,463.497 79.5,463C 91.952,458.095 104.952,454.428 118.5,452C 120.973,450.598 120.973,449.098 118.5,447.5C 118.855,446.478 119.522,445.811 120.5,445.5C 155.028,435.899 189.695,426.899 224.5,418.5C 224.082,419.222 223.416,419.722 222.5,420C 237.986,417.437 253.486,414.604 269,411.5C 270.107,411.585 271.107,411.919 272,412.5C 274.544,409.92 277.044,409.92 279.5,412.5C 280.688,411.16 282.188,410.493 284,410.5C 288.466,410.557 292.966,410.557 297.5,410.5C 298.769,408.82 300.436,407.653 302.5,407C 312.378,405.581 322.211,404.081 332,402.5C 333.567,403.856 335.4,404.523 337.5,404.5 Z"/></g>
<g><path style="opacity:1" fill="#6b6b6b" d="M 626.5,431.5 C 631.607,431.044 636.274,432.044 640.5,434.5C 635.578,434.13 630.911,433.13 626.5,431.5 Z"/></g>
<g><path style="opacity:1" fill="#363636" d="M 642.5,431.5 C 658.757,434.978 675.09,438.645 691.5,442.5C 691.611,443.117 691.944,443.617 692.5,444C 690.866,444.494 689.199,444.66 687.5,444.5C 687.167,444.5 686.833,444.5 686.5,444.5C 682.307,441.91 677.64,440.91 672.5,441.5C 672.167,441.5 671.833,441.5 671.5,441.5C 669.485,440.076 667.152,439.41 664.5,439.5C 656.521,437.836 648.521,436.169 640.5,434.5C 636.274,432.044 631.607,431.044 626.5,431.5C 624.621,430.659 622.621,430.325 620.5,430.5C 614.353,428.859 608.02,427.526 601.5,426.5C 599.435,426.483 597.435,426.15 595.5,425.5C 591.715,424.022 587.715,422.855 583.5,422C 586.167,421.333 588.833,421.333 591.5,422C 608.591,424.737 625.591,427.904 642.5,431.5 Z"/></g>
<g><path style="opacity:1" fill="#929292" d="M 664.5,439.5 C 667.152,439.41 669.485,440.076 671.5,441.5C 668.848,441.59 666.515,440.924 664.5,439.5 Z"/></g>
<g><path style="opacity:1" fill="#3e3e3e" d="M 291.5,426.5 C 289.5,426.833 287.5,427.167 285.5,427.5C 279.963,428.087 274.63,429.087 269.5,430.5C 256.938,433.305 244.271,435.805 231.5,438C 219.217,441.62 206.884,444.786 194.5,447.5C 191.478,447.804 188.478,448.304 185.5,449C 184.944,449.383 184.611,449.883 184.5,450.5C 173.301,452.717 162.301,455.384 151.5,458.5C 149.102,458.259 147.102,458.926 145.5,460.5C 125.079,465.417 104.745,470.75 84.5,476.5C 84.5,475.5 84.5,474.5 84.5,473.5C 121.295,463.781 157.962,454.114 194.5,444.5C 225.895,436.402 257.562,429.402 289.5,423.5C 290.938,423.719 292.271,424.219 293.5,425C 292.584,425.278 291.918,425.778 291.5,426.5 Z"/></g>
<g><path style="opacity:1" fill="#5a5a5a" d="M 672.5,441.5 C 677.64,440.91 682.307,441.91 686.5,444.5C 681.588,444.102 676.921,443.102 672.5,441.5 Z"/></g>
<g><path style="opacity:1" fill="#131313" d="M 645.5,422.5 C 669.98,427.358 694.313,432.858 718.5,439C 723.785,440.026 729.118,440.693 734.5,441C 745.763,445.358 757.43,448.525 769.5,450.5C 771.145,450.059 772.811,449.726 774.5,449.5C 785.318,451.43 795.985,453.93 806.5,457C 803.949,457.002 801.949,457.836 800.5,459.5C 798.771,460.236 797.771,461.57 797.5,463.5C 787.89,461.245 778.223,459.245 768.5,457.5C 739.786,449.211 710.786,441.877 681.5,435.5C 680.737,434.732 679.737,434.232 678.5,434C 692.683,435.837 706.683,438.837 720.5,443C 722.5,443.667 724.5,443.667 726.5,443C 699.37,435.774 672.037,429.441 644.5,424C 640.774,422.957 641.107,422.457 645.5,422.5 Z"/></g>
<g><path style="opacity:1" fill="#3d3d3d" d="M 72.5,457.5 C 74.6802,455.193 76.0135,452.527 76.5,449.5C 76.369,450.239 76.5357,450.906 77,451.5C 79.6365,451.455 82.4698,451.288 85.5,451C 96.0445,448.647 106.378,445.814 116.5,442.5C 116.5,443.833 116.5,445.167 116.5,446.5C 102.147,451.395 87.4803,455.062 72.5,457.5 Z"/></g>
<g><path style="opacity:1" fill="#9e9e9e" d="M 194.5,447.5 C 191.417,448.993 188.083,449.993 184.5,450.5C 184.611,449.883 184.944,449.383 185.5,449C 188.478,448.304 191.478,447.804 194.5,447.5 Z"/></g>
<g><path style="opacity:1" fill="#919191" d="M 699.5,447.5 C 699.833,447.5 700.167,447.5 700.5,447.5C 704.323,448.336 707.989,449.336 711.5,450.5C 707.076,450.728 703.076,449.728 699.5,447.5 Z"/></g>
<g><path style="opacity:1" fill="#333333" d="M 731.5,455.5 C 724.616,454.25 717.949,452.584 711.5,450.5C 707.989,449.336 704.323,448.336 700.5,447.5C 699.319,445.933 697.653,445.099 695.5,445C 696.333,444.833 697.167,444.667 698,444.5C 710.786,447.54 723.619,450.373 736.5,453C 737.672,453.419 738.672,454.085 739.5,455C 736.854,455.497 734.187,455.664 731.5,455.5 Z"/></g>
<g><path style="opacity:1" fill="#212121" d="M 130.5,427.5 C 130.938,427.435 131.272,427.601 131.5,428C 130.5,428.333 129.5,428.667 128.5,429C 128.833,429.333 129.167,429.667 129.5,430C 126.897,432.078 123.897,433.411 120.5,434C 121.167,434.333 121.833,434.667 122.5,435C 120.765,436.182 119.765,437.849 119.5,440C 120.775,441.908 121.108,443.741 120.5,445.5C 119.522,445.811 118.855,446.478 118.5,447.5C 120.973,449.098 120.973,450.598 118.5,452C 104.952,454.428 91.952,458.095 79.5,463C 77.1902,463.497 74.8568,463.663 72.5,463.5C 72.5,461.5 72.5,459.5 72.5,457.5C 87.4803,455.062 102.147,451.395 116.5,446.5C 116.5,445.167 116.5,443.833 116.5,442.5C 106.378,445.814 96.0445,448.647 85.5,451C 82.4698,451.288 79.6365,451.455 77,451.5C 76.5357,450.906 76.369,450.239 76.5,449.5C 78.46,442.371 82.7933,437.204 89.5,434C 96.314,432.088 103.147,430.255 110,428.5C 112,429.167 114,429.833 116,430.5C 118.822,429.725 121.656,429.058 124.5,428.5C 126.5,428.167 128.5,427.833 130.5,427.5 Z"/></g>
<g><path style="opacity:1" fill="#3d3d3d" d="M 678.5,435.5 C 679.5,435.5 680.5,435.5 681.5,435.5C 710.786,441.877 739.786,449.211 768.5,457.5C 770.253,459.223 772.253,460.723 774.5,462C 769.707,461.433 764.874,460.6 760,459.5C 758.833,459.667 757.667,459.833 756.5,460C 758.066,460.608 759.4,461.442 760.5,462.5C 750.42,461.229 740.753,458.895 731.5,455.5C 734.187,455.664 736.854,455.497 739.5,455C 738.672,454.085 737.672,453.419 736.5,453C 723.619,450.373 710.786,447.54 698,444.5C 697.167,444.667 696.333,444.833 695.5,445C 697.653,445.099 699.319,445.933 700.5,447.5C 700.167,447.5 699.833,447.5 699.5,447.5C 695.313,446.787 691.313,445.787 687.5,444.5C 689.199,444.66 690.866,444.494 692.5,444C 691.944,443.617 691.611,443.117 691.5,442.5C 694.113,443.435 696.779,443.602 699.5,443C 699.167,442.667 698.833,442.333 698.5,442C 691.422,440.738 684.755,438.572 678.5,435.5 Z"/></g>
<g><path style="opacity:1" fill="#292929" d="M 539.5,409.5 C 535.922,409.451 532.589,408.785 529.5,407.5C 530.873,407.657 532.207,407.49 533.5,407C 458.533,398.046 383.866,400.046 309.5,413C 304.206,413.818 304.206,414.318 309.5,414.5C 307.735,415.461 305.735,415.795 303.5,415.5C 302.903,414.861 302.07,414.528 301,414.5C 228.141,428.215 156.141,445.548 85,466.5C 83.9701,466.836 83.4701,467.503 83.5,468.5C 83.1667,468.5 82.8333,468.5 82.5,468.5C 82.2178,467.222 81.5511,466.222 80.5,465.5C 127.281,452.555 174.281,440.388 221.5,429C 257.241,420.71 293.241,413.71 329.5,408C 401.126,398.423 472.792,398.09 544.5,407C 541.5,407.333 538.5,407.667 535.5,408C 537.058,408.21 538.391,408.71 539.5,409.5 Z"/></g>
<g><path style="opacity:1" fill="#a9a9a9" d="M 151.5,458.5 C 149.898,460.074 147.898,460.741 145.5,460.5C 147.102,458.926 149.102,458.259 151.5,458.5 Z"/></g>
<g><path style="opacity:1" fill="#303030" d="M 768.5,457.5 C 778.223,459.245 787.89,461.245 797.5,463.5C 797.005,465.482 796.505,467.482 796,469.5C 794.644,470.38 793.144,470.714 791.5,470.5C 788.069,467.886 784.069,466.886 779.5,467.5C 776.495,465.723 773.162,464.723 769.5,464.5C 766.273,464.324 763.273,463.657 760.5,462.5C 759.4,461.442 758.066,460.608 756.5,460C 757.667,459.833 758.833,459.667 760,459.5C 764.874,460.6 769.707,461.433 774.5,462C 772.253,460.723 770.253,459.223 768.5,457.5 Z"/></g>
<g><path style="opacity:1" fill="#727272" d="M 769.5,464.5 C 773.162,464.723 776.495,465.723 779.5,467.5C 775.742,467.605 772.408,466.605 769.5,464.5 Z"/></g>
<g><path style="opacity:1" fill="#656565" d="M 779.5,467.5 C 784.069,466.886 788.069,467.886 791.5,470.5C 787.298,469.868 783.298,468.868 779.5,467.5 Z"/></g>
</svg>
