<?xml version="1.0" encoding="UTF-8"?>
<!DOCTYPE svg PUBLIC "-//W3C//DTD SVG 1.1//EN" "http://www.w3.org/Graphics/SVG/1.1/DTD/svg11.dtd">
<svg xmlns="http://www.w3.org/2000/svg" version="1.1" width="512px" height="512px" style="shape-rendering:geometricPrecision; text-rendering:geometricPrecision; image-rendering:optimizeQuality; fill-rule:evenodd; clip-rule:evenodd" xmlns:xlink="http://www.w3.org/1999/xlink">
<g><path style="opacity:0.996" fill="#01a0ad" d="M 411.5,207.5 C 411.167,207.5 410.833,207.5 410.5,207.5C 407.833,204.167 404.833,201.167 401.5,198.5C 399.5,195.833 397.167,193.5 394.5,191.5C 378.833,175.167 362.833,159.167 346.5,143.5C 338.833,135.167 330.833,127.167 322.5,119.5C 316.952,112.146 309.619,107.313 300.5,105C 240.999,104.168 181.665,104.335 122.5,105.5C 104.948,109.396 96.2808,120.396 96.5,138.5C 96.3334,151.171 96.5001,163.838 97,176.5C 97.2401,178.852 98.0735,180.852 99.5,182.5C 103.303,191.634 109.97,197.634 119.5,200.5C 143.172,223.505 167.172,246.171 191.5,268.5C 190.612,271.054 190.279,273.721 190.5,276.5C 190.5,293.833 190.5,311.167 190.5,328.5C 191.589,333.022 193.922,336.689 197.5,339.5C 203.452,346.119 209.785,352.452 216.5,358.5C 222.833,365.5 229.5,372.167 236.5,378.5C 238.167,380.833 240.167,382.833 242.5,384.5C 245.77,389.44 249.77,393.773 254.5,397.5C 254.833,398.167 255.167,398.833 255.5,399.5C 202.888,408.712 154.555,398.379 110.5,368.5C 48.7317,321.927 22.2317,259.927 31,182.5C 46.4963,103.338 92.6629,51.5043 169.5,27C 241.886,9.96758 304.72,27.1342 358,78.5C 391.764,114.718 409.597,157.718 411.5,207.5 Z"/></g>
<g><path style="opacity:1" fill="#fbd984" d="M 122.5,105.5 C 131.5,105.5 140.5,105.5 149.5,105.5C 132.381,107.598 117.548,114.598 105,126.5C 102.304,130.68 99.4702,134.68 96.5,138.5C 96.2808,120.396 104.948,109.396 122.5,105.5 Z"/></g>
<g><path style="opacity:1" fill="#ded082" d="M 122.5,105.5 C 181.665,104.335 240.999,104.168 300.5,105C 309.619,107.313 316.952,112.146 322.5,119.5C 323.562,122.516 324.729,125.516 326,128.5C 326.498,131.817 326.665,135.15 326.5,138.5C 326.5,139.167 326.5,139.833 326.5,140.5C 316.616,121.53 300.949,110.363 279.5,107C 236.197,105.538 192.863,105.038 149.5,105.5C 140.5,105.5 131.5,105.5 122.5,105.5 Z"/></g>
<g><path style="opacity:1" fill="#f9b30b" d="M 149.5,105.5 C 192.863,105.038 236.197,105.538 279.5,107C 300.949,110.363 316.616,121.53 326.5,140.5C 326.5,143.5 326.5,146.5 326.5,149.5C 326.666,157.507 326.5,165.507 326,173.5C 325.902,176.522 325.068,179.189 323.5,181.5C 248.88,194.48 174.213,194.814 99.5,182.5C 98.0735,180.852 97.2401,178.852 97,176.5C 96.5001,163.838 96.3334,151.171 96.5,138.5C 99.4702,134.68 102.304,130.68 105,126.5C 117.548,114.598 132.381,107.598 149.5,105.5 Z"/></g>
<g><path style="opacity:1" fill="#03535a" d="M 322.5,119.5 C 330.833,127.167 338.833,135.167 346.5,143.5C 340.361,139.965 333.694,138.298 326.5,138.5C 326.665,135.15 326.498,131.817 326,128.5C 324.729,125.516 323.562,122.516 322.5,119.5 Z"/></g>
<g><path style="opacity:1" fill="#233046" d="M 326.5,138.5 C 333.694,138.298 340.361,139.965 346.5,143.5C 348.509,146.354 350.343,149.354 352,152.5C 352.958,175.55 352.625,198.55 351,221.5C 344.32,233.982 333.82,239.982 319.5,239.5C 286.832,239.333 254.165,239.5 221.5,240C 218.542,240.229 216.042,241.396 214,243.5C 212.335,246.513 211.168,249.68 210.5,253C 211.737,254.963 211.737,256.797 210.5,258.5C 206.833,257.167 203.167,257.167 199.5,258.5C 197.782,243.741 203.782,233.908 217.5,229C 242.164,228.5 266.831,228.333 291.5,228.5C 302.505,228.667 313.505,228.5 324.5,228C 331.219,227.23 336.386,224.063 340,218.5C 341.621,197.551 341.954,176.551 341,155.5C 337.112,151.475 332.279,149.475 326.5,149.5C 326.5,146.5 326.5,143.5 326.5,140.5C 326.5,139.833 326.5,139.167 326.5,138.5 Z"/></g>
<g><path style="opacity:1" fill="#16585b" d="M 326.5,149.5 C 332.279,149.475 337.112,151.475 341,155.5C 341.954,176.551 341.621,197.551 340,218.5C 336.386,224.063 331.219,227.23 324.5,228C 313.505,228.5 302.505,228.667 291.5,228.5C 288.103,227.802 284.603,227.135 281,226.5C 280.586,226.957 280.086,227.291 279.5,227.5C 276.237,225.32 275.737,222.654 278,219.5C 278.667,223.5 279.333,223.5 280,219.5C 280.667,223.5 281.333,223.5 282,219.5C 282.914,223.185 283.581,222.852 284,218.5C 285.085,220.657 286.251,220.824 287.5,219C 287.335,217.883 287.002,216.716 286.5,215.5C 287.154,213.885 287.654,212.218 288,210.5C 288.333,211.5 288.667,212.5 289,213.5C 289.667,211.5 290.333,209.5 291,207.5C 291.359,210.544 292.026,210.878 293,208.5C 293.914,209.654 294.747,209.487 295.5,208C 295.167,207.667 294.833,207.333 294.5,207C 295.227,205.601 295.727,204.101 296,202.5C 296.807,206.449 297.307,206.449 297.5,202.5C 242.354,201.818 184.687,201.151 124.5,200.5C 183.834,200.667 243.168,200.5 302.5,200C 308.231,198.635 313.231,195.969 317.5,192C 320.409,189.015 322.409,185.515 323.5,181.5C 325.068,179.189 325.902,176.522 326,173.5C 326.5,165.507 326.666,157.507 326.5,149.5 Z"/></g>
<g><path style="opacity:1" fill="#b07d07" d="M 323.5,181.5 C 322.409,185.515 320.409,189.015 317.5,192C 313.231,195.969 308.231,198.635 302.5,200C 243.168,200.5 183.834,200.667 124.5,200.5C 122.833,200.5 121.167,200.5 119.5,200.5C 109.97,197.634 103.303,191.634 99.5,182.5C 174.213,194.814 248.88,194.48 323.5,181.5 Z"/></g>
<g><path style="opacity:1" fill="#126269" d="M 346.5,143.5 C 362.833,159.167 378.833,175.167 394.5,191.5C 393.671,192.332 392.838,191.999 392,190.5C 390.601,191.227 389.101,191.727 387.5,192C 391.5,192.667 391.5,193.333 387.5,194C 388.258,195.364 387.758,196.531 386,197.5C 375.736,210.224 364.736,223.557 353,237.5C 351.334,236.66 351.167,237.16 352.5,239C 348.964,242.201 345.797,245.701 343,249.5C 341.334,248.66 341.167,249.16 342.5,251C 338.964,254.201 335.797,257.701 333,261.5C 331.334,260.66 331.167,261.16 332.5,263C 331,264.5 329.5,266 328,267.5C 326.334,266.66 326.167,267.16 327.5,269C 326,270.5 324.5,272 323,273.5C 321.334,272.66 321.167,273.16 322.5,275C 321,276.5 319.5,278 318,279.5C 316.334,278.66 316.167,279.16 317.5,281C 316,282.5 314.5,284 313,285.5C 311.334,284.66 311.167,285.16 312.5,287C 310.056,290.481 306.889,293.981 303,297.5C 301.334,296.66 301.167,297.16 302.5,299C 300.5,300.667 298.5,302.333 296.5,304C 296.833,304.333 297.167,304.667 297.5,305C 276.522,329.125 257.022,352.625 239,375.5C 238.667,375.167 238.333,374.833 238,374.5C 237.59,375.901 237.09,377.234 236.5,378.5C 229.5,372.167 222.833,365.5 216.5,358.5C 218.087,355.732 219.92,353.065 222,350.5C 223.214,348.951 224.714,347.785 226.5,347C 225.833,346.667 225.167,346.333 224.5,346C 228.134,342.959 231.467,340.292 234.5,338C 233.655,336.442 234.321,335.442 236.5,335C 235.833,334.667 235.167,334.333 234.5,334C 236.833,332.333 239.167,330.667 241.5,329C 238.833,328.333 238.833,327.667 241.5,327C 239.343,325.915 239.176,324.749 241,323.5C 242,323.833 243,324.167 244,324.5C 244.465,323.069 245.299,321.903 246.5,321C 244.74,320.035 244.406,318.868 245.5,317.5C 246.62,318.833 247.953,319.333 249.5,319C 249.167,318.667 248.833,318.333 248.5,318C 252.5,313.333 256.5,308.667 260.5,304C 260.167,303 259.833,302 259.5,301C 260.749,299.176 261.915,299.343 263,301.5C 265,298.833 267,296.167 269,293.5C 270.281,293.619 271.448,293.119 272.5,292C 272.167,291.667 271.833,291.333 271.5,291C 274.835,286.329 278.501,282.663 282.5,280C 282.167,279.667 281.833,279.333 281.5,279C 286.839,273.166 291.172,267.833 294.5,263C 293.643,262.311 292.977,261.478 292.5,260.5C 294.07,260.306 295.57,260.306 297,260.5C 298.833,257.333 301.333,254.833 304.5,253C 303.833,252.667 303.167,252.333 302.5,252C 305.849,250.585 307.683,248.085 308,244.5C 308.333,245.5 308.667,246.5 309,247.5C 309.731,245.101 310.898,242.935 312.5,241C 315.036,240.814 317.369,240.314 319.5,239.5C 333.82,239.982 344.32,233.982 351,221.5C 352.625,198.55 352.958,175.55 352,152.5C 350.343,149.354 348.509,146.354 346.5,143.5 Z"/></g>
<g><path style="opacity:1" fill="#196970" d="M 394.5,191.5 C 397.167,193.5 399.5,195.833 401.5,198.5C 401.565,198.938 401.399,199.272 401,199.5C 400,198.5 399,197.5 398,196.5C 385.752,210.688 373.752,225.022 362,239.5C 360.334,238.66 360.167,239.16 361.5,241C 360.531,242.758 359.364,243.258 358,242.5C 357.667,243.5 357.333,244.5 357,245.5C 355.334,244.66 355.167,245.16 356.5,247C 355.531,248.758 354.364,249.258 353,248.5C 351.121,253.143 348.121,257.476 344,261.5C 336.593,270.582 328.76,279.415 320.5,288C 320.833,288.333 321.167,288.667 321.5,289C 314.771,296.066 308.271,303.899 302,312.5C 301.333,313.833 300.667,313.833 300,312.5C 299.667,313.5 299.333,314.5 299,315.5C 297.334,314.66 297.167,315.16 298.5,317C 297.531,318.758 296.364,319.258 295,318.5C 292.319,324.254 288.152,329.42 282.5,334C 282.833,334.333 283.167,334.667 283.5,335C 276.139,344.059 268.139,353.059 259.5,362C 259.833,362.333 260.167,362.667 260.5,363C 256.806,366.694 253.14,370.36 249.5,374C 249.833,374.333 250.167,374.667 250.5,375C 247.223,377.766 244.557,380.933 242.5,384.5C 240.167,382.833 238.167,380.833 236.5,378.5C 237.09,377.234 237.59,375.901 238,374.5C 238.333,374.833 238.667,375.167 239,375.5C 257.022,352.625 276.522,329.125 297.5,305C 297.167,304.667 296.833,304.333 296.5,304C 298.5,302.333 300.5,300.667 302.5,299C 301.167,297.16 301.334,296.66 303,297.5C 306.889,293.981 310.056,290.481 312.5,287C 311.167,285.16 311.334,284.66 313,285.5C 314.5,284 316,282.5 317.5,281C 316.167,279.16 316.334,278.66 318,279.5C 319.5,278 321,276.5 322.5,275C 321.167,273.16 321.334,272.66 323,273.5C 324.5,272 326,270.5 327.5,269C 326.167,267.16 326.334,266.66 328,267.5C 329.5,266 331,264.5 332.5,263C 331.167,261.16 331.334,260.66 333,261.5C 335.797,257.701 338.964,254.201 342.5,251C 341.167,249.16 341.334,248.66 343,249.5C 345.797,245.701 348.964,242.201 352.5,239C 351.167,237.16 351.334,236.66 353,237.5C 364.736,223.557 375.736,210.224 386,197.5C 387.758,196.531 388.258,195.364 387.5,194C 391.5,193.333 391.5,192.667 387.5,192C 389.101,191.727 390.601,191.227 392,190.5C 392.838,191.999 393.671,192.332 394.5,191.5 Z"/></g>
<g><path style="opacity:1" fill="#1f6f76" d="M 401.5,198.5 C 404.833,201.167 407.833,204.167 410.5,207.5C 409.345,207.578 408.012,207.912 406.5,208.5C 407.891,210.936 407.391,211.602 405,210.5C 404.383,211.449 404.549,212.282 405.5,213C 402.613,217.243 399.779,220.076 397,221.5C 396.667,221.167 396.333,220.833 396,220.5C 395.316,221.784 395.483,222.951 396.5,224C 395.529,225.204 394.529,225.704 393.5,225.5C 393.709,226.086 394.043,226.586 394.5,227C 393,228.5 391.5,230 390,231.5C 388.284,230.448 387.284,231.114 387,233.5C 386.667,233.167 386.333,232.833 386,232.5C 385.28,234.112 385.446,235.612 386.5,237C 382.964,240.201 379.797,243.701 377,247.5C 375.334,246.66 375.167,247.16 376.5,249C 375,250.5 373.5,252 372,253.5C 370.334,252.66 370.167,253.16 371.5,255C 370,256.5 368.5,258 367,259.5C 365.334,258.66 365.167,259.16 366.5,261C 365,262.5 363.5,264 362,265.5C 360.334,264.66 360.167,265.16 361.5,267C 360.333,268.167 359.167,269.333 358,270.5C 355.572,268.026 355.072,268.526 356.5,272C 355.12,273.925 353.62,275.759 352,277.5C 350.334,276.66 350.167,277.16 351.5,279C 350.333,280.167 349.167,281.333 348,282.5C 347.333,281.833 346.667,281.167 346,280.5C 346.591,285.715 344.425,288.715 339.5,289.5C 339.709,290.086 340.043,290.586 340.5,291C 339,293.167 337.5,295.333 336,297.5C 335.667,296.833 335.333,296.167 335,295.5C 334.727,297.329 333.893,298.829 332.5,300C 332.833,300.333 333.167,300.667 333.5,301C 332,302.5 330.5,304 329,305.5C 328.667,305.167 328.333,304.833 328,304.5C 326.197,306.484 325.197,308.484 325,310.5C 324.683,308.699 324.016,308.366 323,309.5C 323.617,311.095 323.284,312.428 322,313.5C 321.586,313.043 321.086,312.709 320.5,312.5C 319.269,313.651 319.269,314.817 320.5,316C 319.747,317.487 318.914,317.654 318,316.5C 318.253,319.357 316.919,321.691 314,323.5C 313.667,323.167 313.333,322.833 313,322.5C 312.535,323.931 311.701,325.097 310.5,326C 310.833,326.333 311.167,326.667 311.5,327C 309.895,328.36 308.395,329.86 307,331.5C 306.586,331.043 306.086,330.709 305.5,330.5C 304.269,331.651 304.269,332.817 305.5,334C 304.529,335.204 303.529,335.704 302.5,335.5C 303.504,337.677 302.838,338.011 300.5,336.5C 297.582,338.008 296.916,340.175 298.5,343C 297,344.5 295.5,346 294,347.5C 292.334,346.66 292.167,347.16 293.5,349C 292.285,351.096 291.451,350.929 291,348.5C 290.064,352.631 287.731,356.298 284,359.5C 282.334,358.66 282.167,359.16 283.5,361C 282.285,363.096 281.451,362.929 281,360.5C 279.383,361.536 279.216,362.703 280.5,364C 278,367.167 275.5,370.333 273,373.5C 272.395,371.519 271.395,371.185 270,372.5C 269.316,373.784 269.483,374.951 270.5,376C 268.892,376.469 267.225,377.135 265.5,378C 266.167,378.667 266.833,379.333 267.5,380C 264.979,382.22 262.812,384.72 261,387.5C 259.334,386.66 259.167,387.16 260.5,389C 259.251,390.824 258.085,390.657 257,388.5C 256.316,389.784 256.483,390.951 257.5,392C 255.139,393.562 254.139,395.395 254.5,397.5C 249.77,393.773 245.77,389.44 242.5,384.5C 244.557,380.933 247.223,377.766 250.5,375C 250.167,374.667 249.833,374.333 249.5,374C 253.14,370.36 256.806,366.694 260.5,363C 260.167,362.667 259.833,362.333 259.5,362C 268.139,353.059 276.139,344.059 283.5,335C 283.167,334.667 282.833,334.333 282.5,334C 288.152,329.42 292.319,324.254 295,318.5C 296.364,319.258 297.531,318.758 298.5,317C 297.167,315.16 297.334,314.66 299,315.5C 299.333,314.5 299.667,313.5 300,312.5C 300.667,313.833 301.333,313.833 302,312.5C 308.271,303.899 314.771,296.066 321.5,289C 321.167,288.667 320.833,288.333 320.5,288C 328.76,279.415 336.593,270.582 344,261.5C 348.121,257.476 351.121,253.143 353,248.5C 354.364,249.258 355.531,248.758 356.5,247C 355.167,245.16 355.334,244.66 357,245.5C 357.333,244.5 357.667,243.5 358,242.5C 359.364,243.258 360.531,242.758 361.5,241C 360.167,239.16 360.334,238.66 362,239.5C 373.752,225.022 385.752,210.688 398,196.5C 399,197.5 400,198.5 401,199.5C 401.399,199.272 401.565,198.938 401.5,198.5 Z"/></g>
<g><path style="opacity:1" fill="#005058" d="M 119.5,200.5 C 121.167,200.5 122.833,200.5 124.5,200.5C 184.687,201.151 242.354,201.818 297.5,202.5C 297.307,206.449 296.807,206.449 296,202.5C 295.727,204.101 295.227,205.601 294.5,207C 294.833,207.333 295.167,207.667 295.5,208C 294.747,209.487 293.914,209.654 293,208.5C 292.026,210.878 291.359,210.544 291,207.5C 290.333,209.5 289.667,211.5 289,213.5C 288.667,212.5 288.333,211.5 288,210.5C 287.654,212.218 287.154,213.885 286.5,215.5C 287.002,216.716 287.335,217.883 287.5,219C 286.251,220.824 285.085,220.657 284,218.5C 283.581,222.852 282.914,223.185 282,219.5C 281.333,223.5 280.667,223.5 280,219.5C 279.333,223.5 278.667,223.5 278,219.5C 275.737,222.654 276.237,225.32 279.5,227.5C 280.086,227.291 280.586,226.957 281,226.5C 284.603,227.135 288.103,227.802 291.5,228.5C 266.831,228.333 242.164,228.5 217.5,229C 203.782,233.908 197.782,243.741 199.5,258.5C 195.731,260.937 193.064,264.271 191.5,268.5C 167.172,246.171 143.172,223.505 119.5,200.5 Z"/></g>
<g><path style="opacity:1" fill="#25757c" d="M 410.5,207.5 C 410.833,207.5 411.167,207.5 411.5,207.5C 411.5,210.167 411.5,212.833 411.5,215.5C 410.381,218.93 408.214,222.264 405,225.5C 393.931,237.563 383.264,249.897 373,262.5C 373.617,264.095 373.284,265.428 372,266.5C 371.667,266.167 371.333,265.833 371,265.5C 335.048,308.476 298.548,352.809 261.5,398.5C 259.5,398.833 257.5,399.167 255.5,399.5C 255.167,398.833 254.833,398.167 254.5,397.5C 254.139,395.395 255.139,393.562 257.5,392C 256.483,390.951 256.316,389.784 257,388.5C 258.085,390.657 259.251,390.824 260.5,389C 259.167,387.16 259.334,386.66 261,387.5C 262.812,384.72 264.979,382.22 267.5,380C 266.833,379.333 266.167,378.667 265.5,378C 267.225,377.135 268.892,376.469 270.5,376C 269.483,374.951 269.316,373.784 270,372.5C 271.395,371.185 272.395,371.519 273,373.5C 275.5,370.333 278,367.167 280.5,364C 279.216,362.703 279.383,361.536 281,360.5C 281.451,362.929 282.285,363.096 283.5,361C 282.167,359.16 282.334,358.66 284,359.5C 287.731,356.298 290.064,352.631 291,348.5C 291.451,350.929 292.285,351.096 293.5,349C 292.167,347.16 292.334,346.66 294,347.5C 295.5,346 297,344.5 298.5,343C 296.916,340.175 297.582,338.008 300.5,336.5C 302.838,338.011 303.504,337.677 302.5,335.5C 303.529,335.704 304.529,335.204 305.5,334C 304.269,332.817 304.269,331.651 305.5,330.5C 306.086,330.709 306.586,331.043 307,331.5C 308.395,329.86 309.895,328.36 311.5,327C 311.167,326.667 310.833,326.333 310.5,326C 311.701,325.097 312.535,323.931 313,322.5C 313.333,322.833 313.667,323.167 314,323.5C 316.919,321.691 318.253,319.357 318,316.5C 318.914,317.654 319.747,317.487 320.5,316C 319.269,314.817 319.269,313.651 320.5,312.5C 321.086,312.709 321.586,313.043 322,313.5C 323.284,312.428 323.617,311.095 323,309.5C 324.016,308.366 324.683,308.699 325,310.5C 325.197,308.484 326.197,306.484 328,304.5C 328.333,304.833 328.667,305.167 329,305.5C 330.5,304 332,302.5 333.5,301C 333.167,300.667 332.833,300.333 332.5,300C 333.893,298.829 334.727,297.329 335,295.5C 335.333,296.167 335.667,296.833 336,297.5C 337.5,295.333 339,293.167 340.5,291C 340.043,290.586 339.709,290.086 339.5,289.5C 344.425,288.715 346.591,285.715 346,280.5C 346.667,281.167 347.333,281.833 348,282.5C 349.167,281.333 350.333,280.167 351.5,279C 350.167,277.16 350.334,276.66 352,277.5C 353.62,275.759 355.12,273.925 356.5,272C 355.072,268.526 355.572,268.026 358,270.5C 359.167,269.333 360.333,268.167 361.5,267C 360.167,265.16 360.334,264.66 362,265.5C 363.5,264 365,262.5 366.5,261C 365.167,259.16 365.334,258.66 367,259.5C 368.5,258 370,256.5 371.5,255C 370.167,253.16 370.334,252.66 372,253.5C 373.5,252 375,250.5 376.5,249C 375.167,247.16 375.334,246.66 377,247.5C 379.797,243.701 382.964,240.201 386.5,237C 385.446,235.612 385.28,234.112 386,232.5C 386.333,232.833 386.667,233.167 387,233.5C 387.284,231.114 388.284,230.448 390,231.5C 391.5,230 393,228.5 394.5,227C 394.043,226.586 393.709,226.086 393.5,225.5C 394.529,225.704 395.529,225.204 396.5,224C 395.483,222.951 395.316,221.784 396,220.5C 396.333,220.833 396.667,221.167 397,221.5C 399.779,220.076 402.613,217.243 405.5,213C 404.549,212.282 404.383,211.449 405,210.5C 407.391,211.602 407.891,210.936 406.5,208.5C 408.012,207.912 409.345,207.578 410.5,207.5 Z"/></g>
<g><path style="opacity:1" fill="#297a81" d="M 411.5,215.5 C 411.813,219.042 411.479,222.375 410.5,225.5C 409.759,229.172 408.593,232.839 407,236.5C 406.667,235.833 406.333,235.167 406,234.5C 405.257,237.511 403.924,240.178 402,242.5C 400.334,241.66 400.167,242.16 401.5,244C 400.747,245.487 399.914,245.654 399,244.5C 397.887,245.76 397.72,246.927 398.5,248C 395.96,250.124 393.627,252.124 391.5,254C 392.258,255.364 391.758,256.531 390,257.5C 389.667,257.167 389.333,256.833 389,256.5C 387.414,258.67 386.08,261.004 385,263.5C 384.667,262.833 384.333,262.167 384,261.5C 383.751,264.177 382.751,266.51 381,268.5C 380.667,267.833 380.333,267.167 380,266.5C 378.632,269.186 377.299,271.853 376,274.5C 375.667,273.5 375.333,272.5 375,271.5C 374.55,273.519 373.717,275.352 372.5,277C 372.833,277.333 373.167,277.667 373.5,278C 371.985,280.623 369.985,281.623 367.5,281C 367.833,281.333 368.167,281.667 368.5,282C 365.337,283.48 363.504,285.98 363,289.5C 362.147,291.125 361.147,291.458 360,290.5C 360.617,292.095 360.284,293.428 359,294.5C 357.334,293.66 357.167,294.16 358.5,296C 357.747,297.487 356.914,297.654 356,296.5C 354.887,297.76 354.72,298.927 355.5,300C 354.333,301.167 353.167,302.333 352,303.5C 351.667,303.167 351.333,302.833 351,302.5C 349.887,303.76 349.72,304.927 350.5,306C 349.333,307.167 348.167,308.333 347,309.5C 346.667,309.167 346.333,308.833 346,308.5C 344.887,309.76 344.72,310.927 345.5,312C 344.333,313.167 343.167,314.333 342,315.5C 341.667,315.167 341.333,314.833 341,314.5C 339.439,317.783 337.273,320.617 334.5,323C 334.833,323.333 335.167,323.667 335.5,324C 334.333,325.167 333.167,326.333 332,327.5C 331.667,327.167 331.333,326.833 331,326.5C 330.028,328.305 328.861,329.972 327.5,331.5C 328.153,334.658 327.319,334.992 325,332.5C 324.316,333.784 324.483,334.951 325.5,336C 322.555,337.771 320.055,340.605 318,344.5C 317.667,343.833 317.333,343.167 317,342.5C 316.315,345.057 314.815,346.891 312.5,348C 313.167,348.333 313.833,348.667 314.5,349C 311.999,351.139 309.832,353.639 308,356.5C 307.667,355.833 307.333,355.167 307,354.5C 306.727,356.329 305.893,357.829 304.5,359C 305.654,359.914 305.487,360.747 304,361.5C 303.667,361.167 303.333,360.833 303,360.5C 301.833,362.333 300.667,364.167 299.5,366C 299.908,368.861 299.075,369.028 297,366.5C 296.263,370.047 294.43,372.88 291.5,375C 292.654,375.914 292.487,376.747 291,377.5C 290.667,377.167 290.333,376.833 290,376.5C 289.031,378.734 287.698,380.734 286,382.5C 285.667,382.167 285.333,381.833 285,381.5C 284.333,386.833 283.667,386.833 283,381.5C 282.667,382.833 282.333,384.167 282,385.5C 281.086,384.346 280.253,384.513 279.5,386C 280.554,387.388 280.72,388.888 280,390.5C 279.086,386.815 278.419,387.148 278,391.5C 277.667,390.833 277.333,390.167 277,389.5C 276.5,390.667 275.667,391.5 274.5,392C 275.756,392.417 276.423,393.25 276.5,394.5C 271.543,395.989 266.543,397.322 261.5,398.5C 298.548,352.809 335.048,308.476 371,265.5C 371.333,265.833 371.667,266.167 372,266.5C 373.284,265.428 373.617,264.095 373,262.5C 383.264,249.897 393.931,237.563 405,225.5C 408.214,222.264 410.381,218.93 411.5,215.5 Z"/></g>
<g><path style="opacity:0.999" fill="#318188" d="M 410.5,225.5 C 410.043,241.449 407.043,256.783 401.5,271.5C 400.21,270.942 399.377,269.942 399,268.5C 398.5,270.333 397.333,271.5 395.5,272C 396.91,272.368 397.91,273.201 398.5,274.5C 396.356,277.479 394.022,280.312 391.5,283C 391.833,283.333 392.167,283.667 392.5,284C 391.333,285.167 390.167,286.333 389,287.5C 388.667,287.167 388.333,286.833 388,286.5C 386.887,287.76 386.72,288.927 387.5,290C 386.531,291.758 385.364,292.258 384,291.5C 382.719,294.447 380.719,296.781 378,298.5C 378.617,300.095 378.284,301.428 377,302.5C 376.667,302.167 376.333,301.833 376,301.5C 374.667,303.5 373.333,305.5 372,307.5C 371.667,306.833 371.333,306.167 371,305.5C 370.667,307.167 370.333,308.833 370,310.5C 369.667,309.5 369.333,308.5 369,307.5C 367.89,309.397 367.724,311.23 368.5,313C 363.321,317.355 358.321,322.522 353.5,328.5C 354.46,329.812 354.294,331.146 353,332.5C 352.331,329.972 351.498,329.972 350.5,332.5C 350.709,333.086 351.043,333.586 351.5,334C 348.753,335.631 345.753,337.631 342.5,340C 345.028,342.075 344.861,342.908 342,342.5C 341.085,343.328 340.419,344.328 340,345.5C 339.667,345.167 339.333,344.833 339,344.5C 338.316,345.784 338.483,346.951 339.5,348C 338,349.5 336.5,351 335,352.5C 333.334,351.66 333.167,352.16 334.5,354C 332.862,354.242 331.362,355.075 330,356.5C 329.535,357.931 328.701,359.097 327.5,360C 327.833,360.333 328.167,360.667 328.5,361C 325.271,362.931 323.104,365.764 322,369.5C 321.667,368.5 321.333,367.5 321,366.5C 318.741,370.691 316.241,374.691 313.5,378.5C 301.784,385.19 289.451,390.523 276.5,394.5C 276.423,393.25 275.756,392.417 274.5,392C 275.667,391.5 276.5,390.667 277,389.5C 277.333,390.167 277.667,390.833 278,391.5C 278.419,387.148 279.086,386.815 280,390.5C 280.72,388.888 280.554,387.388 279.5,386C 280.253,384.513 281.086,384.346 282,385.5C 282.333,384.167 282.667,382.833 283,381.5C 283.667,386.833 284.333,386.833 285,381.5C 285.333,381.833 285.667,382.167 286,382.5C 287.698,380.734 289.031,378.734 290,376.5C 290.333,376.833 290.667,377.167 291,377.5C 292.487,376.747 292.654,375.914 291.5,375C 294.43,372.88 296.263,370.047 297,366.5C 299.075,369.028 299.908,368.861 299.5,366C 300.667,364.167 301.833,362.333 303,360.5C 303.333,360.833 303.667,361.167 304,361.5C 305.487,360.747 305.654,359.914 304.5,359C 305.893,357.829 306.727,356.329 307,354.5C 307.333,355.167 307.667,355.833 308,356.5C 309.832,353.639 311.999,351.139 314.5,349C 313.833,348.667 313.167,348.333 312.5,348C 314.815,346.891 316.315,345.057 317,342.5C 317.333,343.167 317.667,343.833 318,344.5C 320.055,340.605 322.555,337.771 325.5,336C 324.483,334.951 324.316,333.784 325,332.5C 327.319,334.992 328.153,334.658 327.5,331.5C 328.861,329.972 330.028,328.305 331,326.5C 331.333,326.833 331.667,327.167 332,327.5C 333.167,326.333 334.333,325.167 335.5,324C 335.167,323.667 334.833,323.333 334.5,323C 337.273,320.617 339.439,317.783 341,314.5C 341.333,314.833 341.667,315.167 342,315.5C 343.167,314.333 344.333,313.167 345.5,312C 344.72,310.927 344.887,309.76 346,308.5C 346.333,308.833 346.667,309.167 347,309.5C 348.167,308.333 349.333,307.167 350.5,306C 349.72,304.927 349.887,303.76 351,302.5C 351.333,302.833 351.667,303.167 352,303.5C 353.167,302.333 354.333,301.167 355.5,300C 354.72,298.927 354.887,297.76 356,296.5C 356.914,297.654 357.747,297.487 358.5,296C 357.167,294.16 357.334,293.66 359,294.5C 360.284,293.428 360.617,292.095 360,290.5C 361.147,291.458 362.147,291.125 363,289.5C 363.504,285.98 365.337,283.48 368.5,282C 368.167,281.667 367.833,281.333 367.5,281C 369.985,281.623 371.985,280.623 373.5,278C 373.167,277.667 372.833,277.333 372.5,277C 373.717,275.352 374.55,273.519 375,271.5C 375.333,272.5 375.667,273.5 376,274.5C 377.299,271.853 378.632,269.186 380,266.5C 380.333,267.167 380.667,267.833 381,268.5C 382.751,266.51 383.751,264.177 384,261.5C 384.333,262.167 384.667,262.833 385,263.5C 386.08,261.004 387.414,258.67 389,256.5C 389.333,256.833 389.667,257.167 390,257.5C 391.758,256.531 392.258,255.364 391.5,254C 393.627,252.124 395.96,250.124 398.5,248C 397.72,246.927 397.887,245.76 399,244.5C 399.914,245.654 400.747,245.487 401.5,244C 400.167,242.16 400.334,241.66 402,242.5C 403.924,240.178 405.257,237.511 406,234.5C 406.333,235.167 406.667,235.833 407,236.5C 408.593,232.839 409.759,229.172 410.5,225.5 Z"/></g>
<g><path style="opacity:1" fill="#09575d" d="M 319.5,239.5 C 317.369,240.314 315.036,240.814 312.5,241C 310.898,242.935 309.731,245.101 309,247.5C 308.667,246.5 308.333,245.5 308,244.5C 307.683,248.085 305.849,250.585 302.5,252C 303.167,252.333 303.833,252.667 304.5,253C 301.333,254.833 298.833,257.333 297,260.5C 295.57,260.306 294.07,260.306 292.5,260.5C 292.977,261.478 293.643,262.311 294.5,263C 291.172,267.833 286.839,273.166 281.5,279C 281.833,279.333 282.167,279.667 282.5,280C 278.501,282.663 274.835,286.329 271.5,291C 271.833,291.333 272.167,291.667 272.5,292C 271.448,293.119 270.281,293.619 269,293.5C 267,296.167 265,298.833 263,301.5C 261.915,299.343 260.749,299.176 259.5,301C 259.833,302 260.167,303 260.5,304C 256.5,308.667 252.5,313.333 248.5,318C 248.833,318.333 249.167,318.667 249.5,319C 247.953,319.333 246.62,318.833 245.5,317.5C 244.406,318.868 244.74,320.035 246.5,321C 245.299,321.903 244.465,323.069 244,324.5C 243,324.167 242,323.833 241,323.5C 239.176,324.749 239.343,325.915 241.5,327C 238.833,327.667 238.833,328.333 241.5,329C 239.167,330.667 236.833,332.333 234.5,334C 235.167,334.333 235.833,334.667 236.5,335C 234.321,335.442 233.655,336.442 234.5,338C 231.467,340.292 228.134,342.959 224.5,346C 225.167,346.333 225.833,346.667 226.5,347C 224.714,347.785 223.214,348.951 222,350.5C 219.92,353.065 218.087,355.732 216.5,358.5C 209.785,352.452 203.452,346.119 197.5,339.5C 208.821,343.839 216.155,340.173 219.5,328.5C 219.667,308.497 219.5,288.497 219,268.5C 218.208,265.894 216.708,263.894 214.5,262.5C 213.473,260.806 212.139,259.473 210.5,258.5C 211.737,256.797 211.737,254.963 210.5,253C 211.168,249.68 212.335,246.513 214,243.5C 216.042,241.396 218.542,240.229 221.5,240C 254.165,239.5 286.832,239.333 319.5,239.5 Z"/></g>
<g><path style="opacity:1" fill="#f2c551" d="M 210.5,258.5 C 212.139,259.473 213.473,260.806 214.5,262.5C 203.988,262.435 195.988,267.102 190.5,276.5C 190.279,273.721 190.612,271.054 191.5,268.5C 193.064,264.271 195.731,260.937 199.5,258.5C 203.167,257.167 206.833,257.167 210.5,258.5 Z"/></g>
<g><path style="opacity:1" fill="#f9b20a" d="M 214.5,262.5 C 216.708,263.894 218.208,265.894 219,268.5C 219.5,288.497 219.667,308.497 219.5,328.5C 209.833,333.833 200.167,333.833 190.5,328.5C 190.5,311.167 190.5,293.833 190.5,276.5C 195.988,267.102 203.988,262.435 214.5,262.5 Z"/></g>
<g><path style="opacity:1" fill="#388b92" d="M 401.5,271.5 C 385.613,318.303 356.279,353.969 313.5,378.5C 316.241,374.691 318.741,370.691 321,366.5C 321.333,367.5 321.667,368.5 322,369.5C 323.104,365.764 325.271,362.931 328.5,361C 328.167,360.667 327.833,360.333 327.5,360C 328.701,359.097 329.535,357.931 330,356.5C 331.362,355.075 332.862,354.242 334.5,354C 333.167,352.16 333.334,351.66 335,352.5C 336.5,351 338,349.5 339.5,348C 338.483,346.951 338.316,345.784 339,344.5C 339.333,344.833 339.667,345.167 340,345.5C 340.419,344.328 341.085,343.328 342,342.5C 344.861,342.908 345.028,342.075 342.5,340C 345.753,337.631 348.753,335.631 351.5,334C 351.043,333.586 350.709,333.086 350.5,332.5C 351.498,329.972 352.331,329.972 353,332.5C 354.294,331.146 354.46,329.812 353.5,328.5C 358.321,322.522 363.321,317.355 368.5,313C 367.724,311.23 367.89,309.397 369,307.5C 369.333,308.5 369.667,309.5 370,310.5C 370.333,308.833 370.667,307.167 371,305.5C 371.333,306.167 371.667,306.833 372,307.5C 373.333,305.5 374.667,303.5 376,301.5C 376.333,301.833 376.667,302.167 377,302.5C 378.284,301.428 378.617,300.095 378,298.5C 380.719,296.781 382.719,294.447 384,291.5C 385.364,292.258 386.531,291.758 387.5,290C 386.72,288.927 386.887,287.76 388,286.5C 388.333,286.833 388.667,287.167 389,287.5C 390.167,286.333 391.333,285.167 392.5,284C 392.167,283.667 391.833,283.333 391.5,283C 394.022,280.312 396.356,277.479 398.5,274.5C 397.91,273.201 396.91,272.368 395.5,272C 397.333,271.5 398.5,270.333 399,268.5C 399.377,269.942 400.21,270.942 401.5,271.5 Z"/></g>
<g><path style="opacity:1" fill="#af7e0b" d="M 190.5,328.5 C 200.167,333.833 209.833,333.833 219.5,328.5C 216.155,340.173 208.821,343.839 197.5,339.5C 193.922,336.689 191.589,333.022 190.5,328.5 Z"/></g>
<g><path style="opacity:0.063" fill="#0e9ca6" d="M 110.5,368.5 C 109.833,369.167 109.833,369.167 110.5,368.5 Z"/></g>
<g><path style="opacity:0.063" fill="#0e9ca6" d="M 250.5,401.5 C 251.833,402.167 251.833,402.167 250.5,401.5 Z"/></g>
</svg>
