<?xml version="1.0" encoding="UTF-8"?>
<!DOCTYPE svg PUBLIC "-//W3C//DTD SVG 1.1//EN" "http://www.w3.org/Graphics/SVG/1.1/DTD/svg11.dtd">
<svg xmlns="http://www.w3.org/2000/svg" version="1.1" width="512px" height="512px" style="shape-rendering:geometricPrecision; text-rendering:geometricPrecision; image-rendering:optimizeQuality; fill-rule:evenodd; clip-rule:evenodd" xmlns:xlink="http://www.w3.org/1999/xlink">
<g><path style="opacity:0.992" fill="#fe7863" d="M 284.5,36.5 C 290.198,39.3506 295.532,42.8506 300.5,47C 330.167,76.6667 359.833,106.333 389.5,136C 372.741,134.7 357.407,138.7 343.5,148C 317.528,172.972 291.861,198.305 266.5,224C 263.541,225.604 260.541,226.771 257.5,227.5C 255.076,226.97 252.743,226.136 250.5,225C 224.109,197.941 197.109,171.608 169.5,146C 164.697,143.262 159.697,141.096 154.5,139.5C 152.046,138.379 149.379,137.546 146.5,137C 140.175,136.5 133.842,136.334 127.5,136.5C 125.396,136.799 123.396,136.466 121.5,135.5C 149.986,106.514 178.653,77.6804 207.5,49C 230.666,29.1367 256.333,24.97 284.5,36.5 Z"/></g>
<g><path style="opacity:0.83" fill="#033144" d="M 284.5,36.5 C 293.937,39.4377 302.27,44.2711 309.5,51C 338.347,79.6804 367.014,108.514 395.5,137.5C 377.925,137.39 361.925,142.223 347.5,152C 322.833,176.667 298.167,201.333 273.5,226C 268.378,229.733 263.045,230.233 257.5,227.5C 260.541,226.771 263.541,225.604 266.5,224C 291.861,198.305 317.528,172.972 343.5,148C 357.407,138.7 372.741,134.7 389.5,136C 359.833,106.333 330.167,76.6667 300.5,47C 295.532,42.8506 290.198,39.3506 284.5,36.5 Z"/></g>
<g><path style="opacity:0.758" fill="#0b3244" d="M 127.5,136.5 C 133.842,136.334 140.175,136.5 146.5,137C 149.379,137.546 152.046,138.379 154.5,139.5C 145.123,139.32 136.123,138.32 127.5,136.5 Z"/></g>
<g><path style="opacity:0.993" fill="#fe7863" d="M 158.5,161.5 C 185.576,187.075 212.243,213.242 238.5,240C 241.48,242.324 244.813,243.824 248.5,244.5C 258.822,247.47 268.489,245.97 277.5,240C 303.558,213.274 330.224,187.274 357.5,162C 363.116,158.859 369.116,156.859 375.5,156C 387.167,155.333 398.833,155.333 410.5,156C 411.056,156.383 411.389,156.883 411.5,157.5C 429.132,175.632 446.965,193.632 465,211.5C 484.498,238.809 485.498,266.809 468,295.5C 448.862,315.638 429.362,335.472 409.5,355C 397.225,354.561 384.891,354.395 372.5,354.5C 364.256,352.878 356.922,349.378 350.5,344C 326.167,319.667 301.833,295.333 277.5,271C 275.14,269.82 272.807,268.653 270.5,267.5C 259.339,262.822 248.673,263.989 238.5,271C 212.442,297.726 185.776,323.726 158.5,349C 152.202,352.21 145.535,354.21 138.5,355C 127.505,355.5 116.505,355.667 105.5,355.5C 104.153,356.028 102.819,356.195 101.5,356C 84,338.5 66.5,321 49,303.5C 31.722,283.718 26.3886,261.051 33,235.5C 36.2826,224.928 41.616,215.594 49,207.5C 66.5,190 84,172.5 101.5,155C 115.089,155.297 128.755,155.63 142.5,156C 148.241,156.968 153.575,158.802 158.5,161.5 Z"/></g>
<g><path style="opacity:0.856" fill="#053144" d="M 411.5,157.5 C 413.199,157.34 414.866,157.506 416.5,158C 433.667,175.167 450.833,192.333 468,209.5C 486.966,231.379 491.632,256.046 482,283.5C 479.507,289.157 476.507,294.49 473,299.5C 454.529,318.972 435.695,338.138 416.5,357C 404.833,357.667 393.167,357.667 381.5,357C 378.258,356.594 375.258,355.761 372.5,354.5C 384.891,354.395 397.225,354.561 409.5,355C 429.362,335.472 448.862,315.638 468,295.5C 485.498,266.809 484.498,238.809 465,211.5C 446.965,193.632 429.132,175.632 411.5,157.5 Z"/></g>
<g><path style="opacity:0.758" fill="#033144" d="M 158.5,161.5 C 164.559,163.366 169.893,166.533 174.5,171C 199.062,195.729 223.728,220.229 248.5,244.5C 244.813,243.824 241.48,242.324 238.5,240C 212.243,213.242 185.576,187.075 158.5,161.5 Z"/></g>
<g><path style="opacity:0.857" fill="#043144" d="M 270.5,267.5 C 261.423,266.235 253.09,268.069 245.5,273C 221.833,296.667 198.167,320.333 174.5,344C 167.203,350.982 158.536,355.315 148.5,357C 135.122,357.185 121.788,357.685 108.5,358.5C 107.145,357.812 106.145,356.812 105.5,355.5C 116.505,355.667 127.505,355.5 138.5,355C 145.535,354.21 152.202,352.21 158.5,349C 185.776,323.726 212.442,297.726 238.5,271C 248.673,263.989 259.339,262.822 270.5,267.5 Z"/></g>
<g><path style="opacity:0.992" fill="#fe7863" d="M 266.5,286.5 C 292.357,313.524 319.023,339.69 346.5,365C 350.635,367.403 354.968,369.237 359.5,370.5C 369.666,372.986 379.666,374.986 389.5,376.5C 388.761,376.369 388.094,376.536 387.5,377C 357.139,407.695 326.472,438.028 295.5,468C 280.277,477.806 263.61,481.972 245.5,480.5C 231.104,477.801 218.437,471.635 207.5,462C 178.653,433.32 149.986,404.486 121.5,375.5C 141.827,377.005 160.16,371.838 176.5,360C 200.833,335.667 225.167,311.333 249.5,287C 255.142,282.655 260.809,282.489 266.5,286.5 Z"/></g>
<g><path style="opacity:0.758" fill="#033144" d="M 266.5,286.5 C 269.516,286.841 272.182,288.007 274.5,290C 298.833,314.333 323.167,338.667 347.5,363C 351.407,365.759 355.407,368.259 359.5,370.5C 354.968,369.237 350.635,367.403 346.5,365C 319.023,339.69 292.357,313.524 266.5,286.5 Z"/></g>
<g><path style="opacity:0.866" fill="#013144" d="M 389.5,376.5 C 391.604,376.201 393.604,376.534 395.5,377.5C 365.319,408.514 334.652,439.014 303.5,469C 285.802,481.764 266.469,485.597 245.5,480.5C 263.61,481.972 280.277,477.806 295.5,468C 326.472,438.028 357.139,407.695 387.5,377C 388.094,376.536 388.761,376.369 389.5,376.5 Z"/></g>
</svg>
