<?xml version="1.0" encoding="UTF-8"?>
<!DOCTYPE svg PUBLIC "-//W3C//DTD SVG 1.1//EN" "http://www.w3.org/Graphics/SVG/1.1/DTD/svg11.dtd">
<svg xmlns="http://www.w3.org/2000/svg" version="1.1" width="200px" height="200px" style="shape-rendering:geometricPrecision; text-rendering:geometricPrecision; image-rendering:optimizeQuality; fill-rule:evenodd; clip-rule:evenodd" xmlns:xlink="http://www.w3.org/1999/xlink">
<g><path style="opacity:1" fill="#a7a7a7" d="M 105.5,10.5 C 105.53,11.4972 105.03,12.1639 104,12.5C 101.205,13.1852 98.3715,13.6852 95.5,14C 97.3817,14.1981 99.0484,14.6981 100.5,15.5C 97.1743,17.6102 93.5076,18.9435 89.5,19.5C 86.2577,19.2167 85.9244,18.3834 88.5,17C 84.1619,15.5947 79.8286,15.428 75.5,16.5C 78.9191,14.72 82.5857,13.3867 86.5,12.5C 88.2922,13.3091 90.2922,13.8091 92.5,14C 91.3044,14.6543 91.3044,15.1543 92.5,15.5C 93.3857,14.675 93.719,13.675 93.5,12.5C 92.5,12.5 91.5,12.5 90.5,12.5C 95.2895,11.2751 100.29,10.6084 105.5,10.5 Z"/></g>
<g><path style="opacity:1" fill="#373737" d="M 86.5,12.5 C 87.8333,12.5 89.1667,12.5 90.5,12.5C 91.5,12.5 92.5,12.5 93.5,12.5C 93.719,13.675 93.3857,14.675 92.5,15.5C 91.3044,15.1543 91.3044,14.6543 92.5,14C 90.2922,13.8091 88.2922,13.3091 86.5,12.5 Z"/></g>
<g><path style="opacity:1" fill="#2b2b2b" d="M 105.5,10.5 C 107.833,10.5 110.167,10.5 112.5,10.5C 108.579,12.0174 104.579,13.684 100.5,15.5C 99.0484,14.6981 97.3817,14.1981 95.5,14C 98.3715,13.6852 101.205,13.1852 104,12.5C 105.03,12.1639 105.53,11.4972 105.5,10.5 Z"/></g>
<g><path style="opacity:1" fill="#a9a9a9" d="M 112.5,10.5 C 115.385,10.1936 118.052,10.5269 120.5,11.5C 116.14,12.3845 112.473,14.3845 109.5,17.5C 106.15,17.665 102.817,17.4983 99.5,17C 100.056,16.6174 100.389,16.1174 100.5,15.5C 104.579,13.684 108.579,12.0174 112.5,10.5 Z"/></g>
<g><path style="opacity:1" fill="#777777" d="M 74.5,17.5 C 76.9272,18.2789 76.9272,19.4455 74.5,21C 72.1902,21.4966 69.8568,21.6633 67.5,21.5C 69.3356,19.412 71.6689,18.0787 74.5,17.5 Z"/></g>
<g><path style="opacity:1" fill="#b7b7b7" d="M 107.5,19.5 C 105.605,20.973 103.939,22.6397 102.5,24.5C 99.1501,24.665 95.8168,24.4983 92.5,24C 93.3805,23.2917 94.0472,22.4584 94.5,21.5C 98.5488,18.4972 102.882,17.8305 107.5,19.5 Z"/></g>
<g><path style="opacity:1" fill="#565656" d="M 120.5,11.5 C 129.118,11.2259 135.951,14.5592 141,21.5C 151.259,37.1263 156.759,53.9597 157.5,72C 159.075,76.6706 159.742,81.5039 159.5,86.5C 157.437,84.551 156.104,82.2177 155.5,79.5C 155.565,79.0618 155.399,78.7284 155,78.5C 154.667,79.1667 154.333,79.8333 154,80.5C 153.537,75.9279 152.704,71.4279 151.5,67C 151.645,66.228 151.978,65.5613 152.5,65C 150.392,62.5703 149.725,59.9037 150.5,57C 147.508,51.2423 144.008,44.7423 140,37.5C 138.281,35.4429 136.281,33.7763 134,32.5C 132.174,33.0104 132.007,33.8438 133.5,35C 132.552,35.4828 131.552,35.6495 130.5,35.5C 130.778,37.3464 130.111,38.6798 128.5,39.5C 127.859,37.7045 126.859,36.2045 125.5,35C 126.791,31.9746 126.124,31.6413 123.5,34C 123.996,35.9964 124.996,37.6631 126.5,39C 123.69,39.9064 121.024,41.0731 118.5,42.5C 116.797,43.6602 116.131,42.9935 116.5,40.5C 116.38,38.8014 116.046,37.1347 115.5,35.5C 118.003,32.8033 117.336,31.3033 113.5,31C 112.295,32.3756 110.962,33.5423 109.5,34.5C 108.209,33.4583 108.209,32.2917 109.5,31C 106.983,28.8064 107.316,26.8064 110.5,25C 109.619,24.2917 108.953,23.4584 108.5,22.5C 109.239,22.631 109.906,22.4643 110.5,22C 109.62,20.6439 109.286,19.1439 109.5,17.5C 112.473,14.3845 116.14,12.3845 120.5,11.5 Z"/></g>
<g><path style="opacity:1" fill="#5e5e5e" d="M 67.5,22.5 C 68.9002,23.1001 69.9002,24.1001 70.5,25.5C 68.2629,29.0929 64.9296,30.4263 60.5,29.5C 61.8333,26.1667 64.1667,23.8333 67.5,22.5 Z"/></g>
<g><path style="opacity:1" fill="#272727" d="M 100.5,15.5 C 100.389,16.1174 100.056,16.6174 99.5,17C 102.817,17.4983 106.15,17.665 109.5,17.5C 109.286,19.1439 109.62,20.6439 110.5,22C 109.906,22.4643 109.239,22.631 108.5,22.5C 107.89,21.609 107.557,20.609 107.5,19.5C 102.882,17.8305 98.5488,18.4972 94.5,21.5C 94.0472,22.4584 93.3805,23.2917 92.5,24C 95.8168,24.4983 99.1501,24.665 102.5,24.5C 103.234,25.8775 103.901,27.3775 104.5,29C 104,29.5 103.5,30 103,30.5C 102.066,29.1416 101.232,27.8083 100.5,26.5C 96.0088,25.8851 92.0088,26.8851 88.5,29.5C 85.2236,28.47 81.8903,28.8033 78.5,30.5C 78.1928,29.1125 78.1928,27.4458 78.5,25.5C 75.7342,24.7682 73.0675,24.7682 70.5,25.5C 69.9002,24.1001 68.9002,23.1001 67.5,22.5C 67.5,22.1667 67.5,21.8333 67.5,21.5C 69.8568,21.6633 72.1902,21.4966 74.5,21C 76.9272,19.4455 76.9272,18.2789 74.5,17.5C 74.5,16.8333 74.8333,16.5 75.5,16.5C 79.8286,15.428 84.1619,15.5947 88.5,17C 85.9244,18.3834 86.2577,19.2167 89.5,19.5C 93.5076,18.9435 97.1743,17.6102 100.5,15.5 Z"/></g>
<g><path style="opacity:1" fill="#a9a9a9" d="M 94.5,21.5 C 92.1137,22.3733 90.1137,23.8733 88.5,26C 85.497,27.3097 82.497,27.4763 79.5,26.5C 79.9767,25.5224 80.6433,24.6891 81.5,24C 79.4233,23.8078 77.4233,23.3078 75.5,22.5C 76.9819,17.7377 79.9819,16.4044 84.5,18.5C 85.7112,19.2739 85.7112,20.1072 84.5,21C 87.9919,20.5573 91.3252,20.7239 94.5,21.5 Z"/></g>
<g><path style="opacity:1" fill="#898989" d="M 88.5,29.5 C 86.3702,31.1271 84.3702,32.9604 82.5,35C 80.2222,35.9862 77.8889,36.8195 75.5,37.5C 74.1515,35.3886 74.4848,33.5553 76.5,32C 75.3284,31.6466 74.1618,31.8132 73,32.5C 71.5405,32.1918 70.3739,31.5251 69.5,30.5C 70.038,28.8828 70.3713,27.2161 70.5,25.5C 73.0675,24.7682 75.7342,24.7682 78.5,25.5C 78.1928,27.4458 78.1928,29.1125 78.5,30.5C 81.8903,28.8033 85.2236,28.47 88.5,29.5 Z"/></g>
<g><path style="opacity:1" fill="#9e9e9e" d="M 100.5,26.5 C 99.5294,28.4832 98.5294,30.4832 97.5,32.5C 94.1485,33.5527 90.8151,33.5527 87.5,32.5C 88.1272,31.5832 88.4606,30.5832 88.5,29.5C 92.0088,26.8851 96.0088,25.8851 100.5,26.5 Z"/></g>
<g><path style="opacity:1" fill="#4b4b4b" d="M 88.5,29.5 C 88.4606,30.5832 88.1272,31.5832 87.5,32.5C 90.8151,33.5527 94.1485,33.5527 97.5,32.5C 98.5366,34.7375 98.7033,37.0709 98,39.5C 96.8649,36.1413 94.5316,34.808 91,35.5C 88.254,35.6227 85.9207,36.6227 84,38.5C 83.4054,39.8989 83.5721,41.2322 84.5,42.5C 87.4281,43.4841 90.4281,43.8174 93.5,43.5C 93.5191,45.0603 93.8524,46.5603 94.5,48C 93.3521,49.726 92.1855,49.5593 91,47.5C 90.8849,49.1068 91.3849,50.6068 92.5,52C 92.3333,52.5 92.1667,53 92,53.5C 89.9591,49.9452 88.7925,50.6119 88.5,55.5C 84.8455,55.9422 81.1788,56.2756 77.5,56.5C 77.3832,54.5165 78.0499,52.8498 79.5,51.5C 79.1667,51.1667 78.8333,50.8333 78.5,50.5C 76.4682,53.3681 74.6349,56.3681 73,59.5C 71.1733,60.6587 69.5067,61.992 68,63.5C 65.6941,62.8633 64.5275,61.3633 64.5,59C 65.2898,56.7182 66.2898,54.5516 67.5,52.5C 69.7128,52.152 71.7128,51.3187 73.5,50C 72.4366,48.8118 71.1033,48.3118 69.5,48.5C 69.6455,45.948 70.1455,43.6146 71,41.5C 68.4199,43.6912 65.9199,43.3579 63.5,40.5C 64.0086,36.1298 66.0086,32.7964 69.5,30.5C 70.3739,31.5251 71.5405,32.1918 73,32.5C 74.1618,31.8132 75.3284,31.6466 76.5,32C 74.4848,33.5553 74.1515,35.3886 75.5,37.5C 77.8889,36.8195 80.2222,35.9862 82.5,35C 84.3702,32.9604 86.3702,31.1271 88.5,29.5 Z"/></g>
<g><path style="opacity:1" fill="#0f0f0f" d="M 81.5,40.5 C 82.9543,45.6758 80.9543,49.0091 75.5,50.5C 72.5354,48.373 72.8687,47.2063 76.5,47C 78.5389,45.0737 80.2055,42.907 81.5,40.5 Z"/></g>
<g><path style="opacity:1" fill="#3a3a3a" d="M 70.5,25.5 C 70.3713,27.2161 70.038,28.8828 69.5,30.5C 66.0086,32.7964 64.0086,36.1298 63.5,40.5C 65.9199,43.3579 68.4199,43.6912 71,41.5C 70.1455,43.6146 69.6455,45.948 69.5,48.5C 71.1033,48.3118 72.4366,48.8118 73.5,50C 71.7128,51.3187 69.7128,52.152 67.5,52.5C 68.4811,46.3077 65.8145,43.641 59.5,44.5C 59.6621,46.5273 59.4955,48.5273 59,50.5C 58.6174,51.056 58.1174,51.3893 57.5,51.5C 55.0075,50.2264 52.3408,49.5597 49.5,49.5C 51.4443,44.7247 53.611,40.0581 56,35.5C 57.3878,33.2976 58.8878,31.2976 60.5,29.5C 64.9296,30.4263 68.2629,29.0929 70.5,25.5 Z"/></g>
<g><path style="opacity:1" fill="#4a4a4a" d="M 128.5,42.5 C 134.408,44.0747 138.408,47.7413 140.5,53.5C 139.876,53.9169 139.543,54.5836 139.5,55.5C 142.344,61.8605 144.344,68.5272 145.5,75.5C 145.043,76.2975 144.376,76.6309 143.5,76.5C 143.693,73.1889 142.693,70.5223 140.5,68.5C 142.06,66.8706 141.727,65.704 139.5,65C 140.108,61.5475 138.775,58.8808 135.5,57C 135.833,56.6667 136.167,56.3333 136.5,56C 134.225,53.0522 131.391,50.8856 128,49.5C 127.235,49.5699 126.735,49.9033 126.5,50.5C 121.331,49.8534 121.331,50.3534 126.5,52C 124.833,52.3333 123.167,52.6667 121.5,53C 122.085,54.3024 122.751,55.469 123.5,56.5C 123.5,57.8333 123.5,59.1667 123.5,60.5C 120.012,59.8566 117.512,57.8566 116,54.5C 115.292,55.3805 114.458,56.0472 113.5,56.5C 115.591,53.2295 117.924,50.0628 120.5,47C 123.743,46.2202 126.41,44.7202 128.5,42.5 Z"/></g>
<g><path style="opacity:1" fill="#353535" d="M 155.5,79.5 C 155.108,81.1789 154.608,82.8455 154,84.5C 153.026,82.1224 152.359,82.4557 152,85.5C 151.667,84.1667 151.333,82.8333 151,81.5C 150.667,82.1667 150.333,82.8333 150,83.5C 148.491,76.4635 146.824,69.4635 145,62.5C 143.96,59.1766 142.46,56.1766 140.5,53.5C 138.408,47.7413 134.408,44.0747 128.5,42.5C 124.923,42.2051 121.757,43.2051 119,45.5C 118.517,44.552 118.351,43.552 118.5,42.5C 121.024,41.0731 123.69,39.9064 126.5,39C 124.996,37.6631 123.996,35.9964 123.5,34C 126.124,31.6413 126.791,31.9746 125.5,35C 126.859,36.2045 127.859,37.7045 128.5,39.5C 130.111,38.6798 130.778,37.3464 130.5,35.5C 131.552,35.6495 132.552,35.4828 133.5,35C 132.007,33.8438 132.174,33.0104 134,32.5C 136.281,33.7763 138.281,35.4429 140,37.5C 144.008,44.7423 147.508,51.2423 150.5,57C 149.725,59.9037 150.392,62.5703 152.5,65C 151.978,65.5613 151.645,66.228 151.5,67C 152.704,71.4279 153.537,75.9279 154,80.5C 154.333,79.8333 154.667,79.1667 155,78.5C 155.399,78.7284 155.565,79.0618 155.5,79.5 Z"/></g>
<g><path style="opacity:1" fill="#6e6e6e" d="M 116.5,40.5 C 116.131,42.9935 116.797,43.6602 118.5,42.5C 118.351,43.552 118.517,44.552 119,45.5C 121.757,43.2051 124.923,42.2051 128.5,42.5C 126.41,44.7202 123.743,46.2202 120.5,47C 117.924,50.0628 115.591,53.2295 113.5,56.5C 112.85,56.8039 112.183,57.1373 111.5,57.5C 110.646,56.4783 109.646,55.6449 108.5,55C 109.91,54.6322 110.91,53.7989 111.5,52.5C 109.51,51.3683 108.176,49.3683 107.5,46.5C 107.905,45.4502 108.571,45.4502 109.5,46.5C 110.614,43.0516 112.947,41.0516 116.5,40.5 Z"/></g>
<g><path style="opacity:1" fill="#989898" d="M 116.5,40.5 C 112.947,41.0516 110.614,43.0516 109.5,46.5C 108.571,45.4502 107.905,45.4502 107.5,46.5C 103.087,59.3428 99.0875,73.3428 95.5,88.5C 94.6902,84.5967 95.0236,80.5967 96.5,76.5C 95.0403,73.9711 94.5403,71.3044 95,68.5C 95.3333,69.1667 95.6667,69.8333 96,70.5C 96.4962,68.9651 96.3295,67.4651 95.5,66C 96,64.5 96.5,63 97,61.5C 97.6543,62.6956 98.1543,62.6956 98.5,61.5C 97.6667,59.8333 96.8333,58.1667 96,56.5C 95.4444,58.5951 94.9444,58.7618 94.5,57C 97.2728,49.956 100.44,43.1227 104,36.5C 104.654,35.3044 105.154,35.3044 105.5,36.5C 104.355,37.891 104.355,39.2243 105.5,40.5C 107.252,38.7541 108.585,36.7541 109.5,34.5C 110.962,33.5423 112.295,32.3756 113.5,31C 117.336,31.3033 118.003,32.8033 115.5,35.5C 116.046,37.1347 116.38,38.8014 116.5,40.5 Z"/></g>
<g><path style="opacity:1" fill="#c3c3c3" d="M 126.5,50.5 C 129.455,50.9807 131.789,52.4807 133.5,55C 132.448,56.1192 131.281,56.6192 130,56.5C 127.511,54.1142 125.344,54.1142 123.5,56.5C 122.751,55.469 122.085,54.3024 121.5,53C 123.167,52.6667 124.833,52.3333 126.5,52C 121.331,50.3534 121.331,49.8534 126.5,50.5 Z"/></g>
<g><path style="opacity:1" fill="#222222" d="M 88.5,55.5 C 90.1053,57.3079 90.4387,59.3079 89.5,61.5C 85.3723,59.3171 81.039,58.9838 76.5,60.5C 73.7634,64.1309 70.2634,65.4643 66,64.5C 65.34,66.3237 64.1733,67.657 62.5,68.5C 65.1337,63.2279 63.8004,59.0612 58.5,56C 59.5337,53.336 61.2003,53.1693 63.5,55.5C 64.8518,54.4756 66.1851,53.4756 67.5,52.5C 66.2898,54.5516 65.2898,56.7182 64.5,59C 64.5275,61.3633 65.6941,62.8633 68,63.5C 69.5067,61.992 71.1733,60.6587 73,59.5C 74.6349,56.3681 76.4682,53.3681 78.5,50.5C 78.8333,50.8333 79.1667,51.1667 79.5,51.5C 78.0499,52.8498 77.3832,54.5165 77.5,56.5C 81.1788,56.2756 84.8455,55.9422 88.5,55.5 Z"/></g>
<g><path style="opacity:1" fill="#838383" d="M 126.5,50.5 C 126.735,49.9033 127.235,49.5699 128,49.5C 131.391,50.8856 134.225,53.0522 136.5,56C 136.167,56.3333 135.833,56.6667 135.5,57C 138.775,58.8808 140.108,61.5475 139.5,65C 141.727,65.704 142.06,66.8706 140.5,68.5C 140.167,68.5 139.833,68.5 139.5,68.5C 137.832,64.6676 134.999,62.0009 131,60.5C 129.832,61.5089 128.665,62.5089 127.5,63.5C 126.264,62.7542 124.93,62.4208 123.5,62.5C 123.5,61.8333 123.5,61.1667 123.5,60.5C 123.5,59.1667 123.5,57.8333 123.5,56.5C 125.344,54.1142 127.511,54.1142 130,56.5C 131.281,56.6192 132.448,56.1192 133.5,55C 131.789,52.4807 129.455,50.9807 126.5,50.5 Z"/></g>
<g><path style="opacity:1" fill="#535353" d="M 67.5,52.5 C 66.1851,53.4756 64.8518,54.4756 63.5,55.5C 61.2003,53.1693 59.5337,53.336 58.5,56C 63.8004,59.0612 65.1337,63.2279 62.5,68.5C 62.2488,70.1703 61.5822,71.6703 60.5,73C 61.056,73.3826 61.3893,73.8826 61.5,74.5C 60.8333,74.5 60.1667,74.5 59.5,74.5C 57.1815,74.0075 55.1815,73.0075 53.5,71.5C 53.6399,69.8762 52.9733,68.7096 51.5,68C 52.448,67.5172 53.448,67.3505 54.5,67.5C 54.5969,62.4408 55.9302,57.7741 58.5,53.5C 58.1373,52.8165 57.8039,52.1499 57.5,51.5C 58.1174,51.3893 58.6174,51.056 59,50.5C 59.4955,48.5273 59.6621,46.5273 59.5,44.5C 65.8145,43.641 68.4811,46.3077 67.5,52.5 Z"/></g>
<g><path style="opacity:1" fill="#b1b1b1" d="M 123.5,60.5 C 123.5,61.1667 123.5,61.8333 123.5,62.5C 123.414,63.4959 123.748,64.3292 124.5,65C 122.92,67.2607 121.254,69.4273 119.5,71.5C 116.769,68.6451 113.436,67.4784 109.5,68C 110.416,68.2784 111.082,68.7784 111.5,69.5C 110.503,69.4701 109.836,69.9701 109.5,71C 110.068,72.8716 110.735,74.7049 111.5,76.5C 111.376,77.1067 111.043,77.44 110.5,77.5C 109.5,77.5 108.5,77.5 107.5,77.5C 107.737,76.209 107.404,75.209 106.5,74.5C 106.597,71.021 107.931,68.1877 110.5,66C 110.043,65.586 109.709,65.086 109.5,64.5C 111.644,63.1139 112.977,61.6139 113.5,60C 112.829,59.0138 112.829,57.8471 113.5,56.5C 114.458,56.0472 115.292,55.3805 116,54.5C 117.512,57.8566 120.012,59.8566 123.5,60.5 Z"/></g>
<g><path style="opacity:1" fill="#d2d2d2" d="M 139.5,68.5 C 135.617,65.0327 131.284,64.1994 126.5,66C 123.262,68.9978 120.929,72.4978 119.5,76.5C 119.5,74.8333 119.5,73.1667 119.5,71.5C 121.254,69.4273 122.92,67.2607 124.5,65C 123.748,64.3292 123.414,63.4959 123.5,62.5C 124.93,62.4208 126.264,62.7542 127.5,63.5C 128.665,62.5089 129.832,61.5089 131,60.5C 134.999,62.0009 137.832,64.6676 139.5,68.5 Z"/></g>
<g><path style="opacity:1" fill="#757575" d="M 107.5,19.5 C 107.557,20.609 107.89,21.609 108.5,22.5C 108.953,23.4584 109.619,24.2917 110.5,25C 107.316,26.8064 106.983,28.8064 109.5,31C 108.209,32.2917 108.209,33.4583 109.5,34.5C 108.585,36.7541 107.252,38.7541 105.5,40.5C 104.355,39.2243 104.355,37.891 105.5,36.5C 105.154,35.3044 104.654,35.3044 104,36.5C 100.44,43.1227 97.2728,49.956 94.5,57C 94.9444,58.7618 95.4444,58.5951 96,56.5C 96.8333,58.1667 97.6667,59.8333 98.5,61.5C 98.1543,62.6956 97.6543,62.6956 97,61.5C 96.5,63 96,64.5 95.5,66C 96.3295,67.4651 96.4962,68.9651 96,70.5C 95.6667,69.8333 95.3333,69.1667 95,68.5C 94.5403,71.3044 95.0403,73.9711 96.5,76.5C 95.0236,80.5967 94.6902,84.5967 95.5,88.5C 95.7401,94.8389 95.2401,101.172 94,107.5C 93.0647,100.669 92.2314,93.8356 91.5,87C 90.9896,85.1739 90.1562,85.0072 89,86.5C 88.7359,82.0859 86.5692,79.4192 82.5,78.5C 83.0818,80.998 83.0818,83.3313 82.5,85.5C 82.1667,85.5 81.8333,85.5 81.5,85.5C 79.9005,84.3181 79.5672,82.9847 80.5,81.5C 78.8955,79.8211 78.2289,77.8211 78.5,75.5C 79.4486,74.8476 80.6153,74.5143 82,74.5C 83.6581,74.6752 84.9914,75.3418 86,76.5C 86.7562,74.1913 86.2562,72.1913 84.5,70.5C 80.9284,71.681 77.2617,72.3476 73.5,72.5C 74.1406,69.779 74.6406,67.1123 75,64.5C 72.8307,68.3515 70.6641,72.1848 68.5,76C 66.6494,76.8372 64.8161,77.6705 63,78.5C 61.8118,77.4366 61.3118,76.1033 61.5,74.5C 61.3893,73.8826 61.056,73.3826 60.5,73C 61.5822,71.6703 62.2488,70.1703 62.5,68.5C 64.1733,67.657 65.34,66.3237 66,64.5C 70.2634,65.4643 73.7634,64.1309 76.5,60.5C 81.039,58.9838 85.3723,59.3171 89.5,61.5C 90.4387,59.3079 90.1053,57.3079 88.5,55.5C 88.7925,50.6119 89.9591,49.9452 92,53.5C 92.1667,53 92.3333,52.5 92.5,52C 91.3849,50.6068 90.8849,49.1068 91,47.5C 92.1855,49.5593 93.3521,49.726 94.5,48C 93.8524,46.5603 93.5191,45.0603 93.5,43.5C 90.4281,43.8174 87.4281,43.4841 84.5,42.5C 83.5721,41.2322 83.4054,39.8989 84,38.5C 85.9207,36.6227 88.254,35.6227 91,35.5C 94.5316,34.808 96.8649,36.1413 98,39.5C 98.7033,37.0709 98.5366,34.7375 97.5,32.5C 98.5294,30.4832 99.5294,28.4832 100.5,26.5C 101.232,27.8083 102.066,29.1416 103,30.5C 103.5,30 104,29.5 104.5,29C 103.901,27.3775 103.234,25.8775 102.5,24.5C 103.939,22.6397 105.605,20.973 107.5,19.5 Z"/></g>
<g><path style="opacity:1" fill="#f5f5f5" d="M 139.5,68.5 C 140.588,72.0868 140.588,75.4201 139.5,78.5C 139.818,79.6473 140.484,80.4806 141.5,81C 140.748,81.6708 140.414,82.5041 140.5,83.5C 136.213,74.6739 131.38,74.3405 126,82.5C 124.042,87.3292 122.876,92.3292 122.5,97.5C 125.482,97.9629 128.482,98.2962 131.5,98.5C 131.628,102.881 131.295,107.215 130.5,111.5C 124.226,111.097 122.226,113.764 124.5,119.5C 123.89,120.391 123.557,121.391 123.5,122.5C 123.5,123.833 123.5,125.167 123.5,126.5C 122.395,125.4 121.062,124.733 119.5,124.5C 118.296,117.58 116.63,110.747 114.5,104C 116.052,100.511 115.718,97.3443 113.5,94.5C 110.495,92.7006 107.162,92.0339 103.5,92.5C 103.475,86.2967 104.475,80.2967 106.5,74.5C 107.404,75.209 107.737,76.209 107.5,77.5C 108.5,77.5 109.5,77.5 110.5,77.5C 112.265,78.4614 114.265,78.7947 116.5,78.5C 118.027,78.573 119.027,77.9063 119.5,76.5C 120.929,72.4978 123.262,68.9978 126.5,66C 131.284,64.1994 135.617,65.0327 139.5,68.5 Z"/></g>
<g><path style="opacity:1" fill="#4c4c4c" d="M 49.5,50.5 C 50.2832,52.0758 51.4499,53.4092 53,54.5C 53.498,57.4816 53.6646,60.4816 53.5,63.5C 51.1667,63.5 48.8333,63.5 46.5,63.5C 46.2771,66.1142 47.4438,67.7809 50,68.5C 50.6667,71.8333 50.6667,75.1667 50,78.5C 48.3963,79.6493 46.7297,79.6493 45,78.5C 43.9701,78.8361 43.4701,79.5028 43.5,80.5C 42.661,79.3588 41.9943,78.0255 41.5,76.5C 44.0752,67.7774 46.7419,59.1108 49.5,50.5 Z"/></g>
<g><path style="opacity:1" fill="#444444" d="M 111.5,69.5 C 111.562,73.52 113.229,76.52 116.5,78.5C 114.265,78.7947 112.265,78.4614 110.5,77.5C 111.043,77.44 111.376,77.1067 111.5,76.5C 110.735,74.7049 110.068,72.8716 109.5,71C 109.836,69.9701 110.503,69.4701 111.5,69.5 Z"/></g>
<g><path style="opacity:1" fill="#7e7e7e" d="M 119.5,71.5 C 119.5,73.1667 119.5,74.8333 119.5,76.5C 119.027,77.9063 118.027,78.573 116.5,78.5C 113.229,76.52 111.562,73.52 111.5,69.5C 111.082,68.7784 110.416,68.2784 109.5,68C 113.436,67.4784 116.769,68.6451 119.5,71.5 Z"/></g>
<g><path style="opacity:1" fill="#212121" d="M 126.5,73.5 C 127.613,74.9464 127.78,76.6131 127,78.5C 125.212,76.9769 125.045,75.3102 126.5,73.5 Z"/></g>
<g><path style="opacity:1" fill="#949494" d="M 78.5,75.5 C 78.2289,77.8211 78.8955,79.8211 80.5,81.5C 79.5672,82.9847 79.9005,84.3181 81.5,85.5C 78.4041,86.9482 75.0708,87.4482 71.5,87C 71.0647,84.6023 71.7313,82.269 73.5,80C 73.1667,79.8333 72.8333,79.6667 72.5,79.5C 70.276,82.8067 68.6093,86.4733 67.5,90.5C 65.1416,92.2866 62.475,93.2866 59.5,93.5C 59.5668,91.5992 59.2335,89.7659 58.5,88C 60.1348,85.2301 61.6348,82.3967 63,79.5C 63.3333,80.1667 63.6667,80.8333 64,81.5C 67.7229,80.5956 70.8895,78.7623 73.5,76C 75.1341,75.5065 76.8008,75.3398 78.5,75.5 Z"/></g>
<g><path style="opacity:1" fill="#838383" d="M 140.5,83.5 C 140.674,85.861 141.007,88.1944 141.5,90.5C 140.673,95.6509 140.173,100.984 140,106.5C 139.667,102.833 139.333,99.1667 139,95.5C 137.644,96.3802 136.144,96.7135 134.5,96.5C 134.664,93.8127 134.497,91.146 134,88.5C 133.503,90.8098 133.337,93.1432 133.5,95.5C 132.473,101.34 132.473,107.34 133.5,113.5C 132.71,114.609 132.21,115.942 132,117.5C 131.495,115.482 130.995,113.482 130.5,111.5C 131.295,107.215 131.628,102.881 131.5,98.5C 128.482,98.2962 125.482,97.9629 122.5,97.5C 122.876,92.3292 124.042,87.3292 126,82.5C 131.38,74.3405 136.213,74.6739 140.5,83.5 Z"/></g>
<g><path style="opacity:1" fill="#535353" d="M 140.5,53.5 C 142.46,56.1766 143.96,59.1766 145,62.5C 146.824,69.4635 148.491,76.4635 150,83.5C 150.333,82.8333 150.667,82.1667 151,81.5C 151.333,82.8333 151.667,84.1667 152,85.5C 152.359,82.4557 153.026,82.1224 154,84.5C 154.608,82.8455 155.108,81.1789 155.5,79.5C 156.104,82.2177 157.437,84.551 159.5,86.5C 159.616,95.4139 159.616,104.414 159.5,113.5C 158.074,116.984 157.741,120.484 158.5,124C 157.996,127.214 156.996,130.214 155.5,133C 155.735,133.873 156.069,134.707 156.5,135.5C 154.301,144.871 151.635,153.705 148.5,162C 146.786,166.603 144.453,170.77 141.5,174.5C 141.565,174.062 141.399,173.728 141,173.5C 137.275,178.053 132.775,181.719 127.5,184.5C 127.874,183.229 127.208,182.062 125.5,181C 133.202,173.965 140.202,166.298 146.5,158C 145.833,154.023 147.166,150.69 150.5,148C 146.88,144.434 146.88,141.6 150.5,139.5C 149.141,137.694 149.475,136.194 151.5,135C 150.273,133.413 150.606,132.079 152.5,131C 152.043,130.586 151.709,130.086 151.5,129.5C 152.398,126.696 153.398,123.863 154.5,121C 155.327,110.483 155.327,99.6493 154.5,88.5C 153.137,96.33 151.804,104.497 150.5,113C 150.833,116 151.167,119 151.5,122C 150.373,123.753 149.373,125.587 148.5,127.5C 150.991,128.541 150.991,129.374 148.5,130C 148.833,130.333 149.167,130.667 149.5,131C 148.314,133.748 147.314,136.581 146.5,139.5C 145.749,138.624 145.249,137.624 145,136.5C 144.292,137.381 143.458,138.047 142.5,138.5C 142.833,133.963 144.166,129.796 146.5,126C 145.81,123.021 146.144,120.021 147.5,117C 146.293,115.7 145.626,114.2 145.5,112.5C 147.264,100.344 146.598,88.3443 143.5,76.5C 144.376,76.6309 145.043,76.2975 145.5,75.5C 144.344,68.5272 142.344,61.8605 139.5,55.5C 139.543,54.5836 139.876,53.9169 140.5,53.5 Z"/></g>
<g><path style="opacity:1" fill="#6d6d6d" d="M 53.5,71.5 C 55.1815,73.0075 57.1815,74.0075 59.5,74.5C 59.8693,76.4412 60.536,78.2745 61.5,80C 60.2699,85.5161 57.4366,86.6828 53,83.5C 51.2215,85.0174 51.7215,85.8508 54.5,86C 53.8333,86.3333 53.1667,86.6667 52.5,87C 56.6923,88.5286 59.0257,91.5286 59.5,96C 58.5683,100.143 56.235,101.976 52.5,101.5C 51.2624,97.6893 50.5958,97.6893 50.5,101.5C 50.1667,101.5 49.8333,101.5 49.5,101.5C 49.9324,96.5605 50.0991,91.5605 50,86.5C 50.5915,81.1062 51.7582,76.1062 53.5,71.5 Z"/></g>
<g><path style="opacity:1" fill="#1e1e1e" d="M 120.5,88.5 C 122.914,89.7767 123.081,91.4434 121,93.5C 120.506,91.8659 120.34,90.1992 120.5,88.5 Z"/></g>
<g><path style="opacity:1" fill="#737373" d="M 83.5,90.5 C 82.7293,93.1112 82.7293,95.9446 83.5,99C 83.1639,100.03 82.4972,100.53 81.5,100.5C 78.072,102.441 74.4054,103.274 70.5,103C 69.8903,100.534 70.2236,98.0337 71.5,95.5C 71.0431,94.7025 70.3764,94.3691 69.5,94.5C 69.9467,91.4761 70.78,91.1428 72,93.5C 72.4828,92.552 72.6495,91.552 72.5,90.5C 76.1834,89.3252 79.85,89.3252 83.5,90.5 Z"/></g>
<g><path style="opacity:1" fill="#1c1c1c" d="M 78.5,75.5 C 76.8008,75.3398 75.1341,75.5065 73.5,76C 70.8895,78.7623 67.7229,80.5956 64,81.5C 63.6667,80.8333 63.3333,80.1667 63,79.5C 61.6348,82.3967 60.1348,85.2301 58.5,88C 59.2335,89.7659 59.5668,91.5992 59.5,93.5C 62.475,93.2866 65.1416,92.2866 67.5,90.5C 68.6093,86.4733 70.276,82.8067 72.5,79.5C 72.8333,79.6667 73.1667,79.8333 73.5,80C 71.7313,82.269 71.0647,84.6023 71.5,87C 75.0708,87.4482 78.4041,86.9482 81.5,85.5C 81.8333,85.5 82.1667,85.5 82.5,85.5C 84.345,86.9955 84.6783,88.6621 83.5,90.5C 79.85,89.3252 76.1834,89.3252 72.5,90.5C 72.6495,91.552 72.4828,92.552 72,93.5C 70.78,91.1428 69.9467,91.4761 69.5,94.5C 63.3502,95.0619 59.3502,98.2285 57.5,104C 58.1402,106.12 59.1402,107.954 60.5,109.5C 60.2226,112.89 59.2226,116.057 57.5,119C 58.7076,121.914 60.041,124.748 61.5,127.5C 61.2413,129.987 60.2413,131.987 58.5,133.5C 60.5016,125.169 57.5016,119.503 49.5,116.5C 50.9361,116.245 52.4361,115.912 54,115.5C 54.7768,117.701 55.9435,117.701 57.5,115.5C 58.877,112.423 58.7104,109.423 57,106.5C 54.6744,104.934 52.5078,103.268 50.5,101.5C 50.5958,97.6893 51.2624,97.6893 52.5,101.5C 56.235,101.976 58.5683,100.143 59.5,96C 59.0257,91.5286 56.6923,88.5286 52.5,87C 53.1667,86.6667 53.8333,86.3333 54.5,86C 51.7215,85.8508 51.2215,85.0174 53,83.5C 57.4366,86.6828 60.2699,85.5161 61.5,80C 60.536,78.2745 59.8693,76.4412 59.5,74.5C 60.1667,74.5 60.8333,74.5 61.5,74.5C 61.3118,76.1033 61.8118,77.4366 63,78.5C 64.8161,77.6705 66.6494,76.8372 68.5,76C 70.6641,72.1848 72.8307,68.3515 75,64.5C 74.6406,67.1123 74.1406,69.779 73.5,72.5C 77.2617,72.3476 80.9284,71.681 84.5,70.5C 86.2562,72.1913 86.7562,74.1913 86,76.5C 84.9914,75.3418 83.6581,74.6752 82,74.5C 80.6153,74.5143 79.4486,74.8476 78.5,75.5 Z"/></g>
<g><path style="opacity:1" fill="#4a4a4a" d="M 43.5,80.5 C 44.4674,81.8062 45.8007,82.4729 47.5,82.5C 47.8954,86.185 48.0621,89.8517 48,93.5C 46.2134,94.3431 44.3801,94.5098 42.5,94C 43.8333,94.6667 43.8333,95.3333 42.5,96C 46.0534,98.4283 47.7201,101.928 47.5,106.5C 47.4817,109.513 46.315,110.179 44,108.5C 42.9889,109.056 42.1556,109.722 41.5,110.5C 40.5492,107.785 39.8825,104.951 39.5,102C 39.3047,99.2073 39.9713,96.7073 41.5,94.5C 40.9598,93.2519 40.2931,92.0852 39.5,91C 40.2822,88.2595 40.7822,85.4262 41,82.5C 41.9947,81.9341 42.828,81.2674 43.5,80.5 Z"/></g>
<g><path style="opacity:1" fill="#535353" d="M 141.5,90.5 C 141.666,96.1764 141.499,101.843 141,107.5C 140.802,109.382 140.302,111.048 139.5,112.5C 139.66,110.801 139.494,109.134 139,107.5C 138.844,110.191 138.011,112.524 136.5,114.5C 137.263,111.859 137.43,109.192 137,106.5C 135.933,105.809 134.766,105.309 133.5,105C 134.7,101.869 134.7,98.7023 133.5,95.5C 133.337,93.1432 133.503,90.8098 134,88.5C 134.497,91.146 134.664,93.8127 134.5,96.5C 136.144,96.7135 137.644,96.3802 139,95.5C 139.333,99.1667 139.667,102.833 140,106.5C 140.173,100.984 140.673,95.6509 141.5,90.5 Z"/></g>
<g><path style="opacity:1" fill="#606060" d="M 103.5,92.5 C 107.162,92.0339 110.495,92.7006 113.5,94.5C 115.842,103.687 112.509,107.354 103.5,105.5C 108.078,104.118 109.578,101.118 108,96.5C 107.184,95.1772 106.017,94.5106 104.5,94.5C 104.167,93.8333 103.833,93.1667 103.5,92.5 Z"/></g>
<g><path style="opacity:1" fill="#ededed" d="M 133.5,95.5 C 134.7,98.7023 134.7,101.869 133.5,105C 134.766,105.309 135.933,105.809 137,106.5C 137.43,109.192 137.263,111.859 136.5,114.5C 135.662,114.842 135.328,115.508 135.5,116.5C 133.952,116.179 133.285,115.179 133.5,113.5C 132.473,107.34 132.473,101.34 133.5,95.5 Z"/></g>
<g><path style="opacity:1" fill="#5b5b5b" d="M 83.5,105.5 C 81.1972,108.391 80.1972,111.724 80.5,115.5C 80.1667,116.167 79.8333,116.833 79.5,117.5C 76.5071,118.135 73.5071,118.301 70.5,118C 70.3925,114.935 70.3925,111.935 70.5,109C 72.02,107.77 72.8534,106.603 73,105.5C 76.395,105.863 79.895,105.863 83.5,105.5 Z"/></g>
<g><path style="opacity:1" fill="#1b1b1b" d="M 119.5,107.5 C 121.972,108.749 122.139,110.415 120,112.5C 119.506,110.866 119.34,109.199 119.5,107.5 Z"/></g>
<g><path style="opacity:1" fill="#464646" d="M 107.5,46.5 C 108.176,49.3683 109.51,51.3683 111.5,52.5C 110.91,53.7989 109.91,54.6322 108.5,55C 109.646,55.6449 110.646,56.4783 111.5,57.5C 112.183,57.1373 112.85,56.8039 113.5,56.5C 112.829,57.8471 112.829,59.0138 113.5,60C 112.977,61.6139 111.644,63.1139 109.5,64.5C 109.709,65.086 110.043,65.586 110.5,66C 107.931,68.1877 106.597,71.021 106.5,74.5C 104.475,80.2967 103.475,86.2967 103.5,92.5C 101.225,99.9425 100.891,107.609 102.5,115.5C 101.504,115.586 100.671,115.252 100,114.5C 99.2904,115.973 98.1238,116.64 96.5,116.5C 96.33,117.822 96.6634,118.989 97.5,120C 96.5509,120.617 95.7175,120.451 95,119.5C 93.7063,120.854 93.5396,122.188 94.5,123.5C 93.7315,127.445 93.2315,131.445 93,135.5C 92,130.5 91,125.5 90,120.5C 89.6667,120.167 89.3333,119.833 89,119.5C 88.6667,120.5 88.3333,121.5 88,122.5C 87.8522,116.751 87.1856,111.085 86,105.5C 85.5014,109.152 85.3347,112.818 85.5,116.5C 83.7085,116.634 82.0418,116.301 80.5,115.5C 80.1972,111.724 81.1972,108.391 83.5,105.5C 84.0967,105.265 84.4301,104.765 84.5,104C 83.4558,102.826 82.4558,101.659 81.5,100.5C 82.4972,100.53 83.1639,100.03 83.5,99C 82.7293,95.9446 82.7293,93.1112 83.5,90.5C 84.6783,88.6621 84.345,86.9955 82.5,85.5C 83.0818,83.3313 83.0818,80.998 82.5,78.5C 86.5692,79.4192 88.7359,82.0859 89,86.5C 90.1562,85.0072 90.9896,85.1739 91.5,87C 92.2314,93.8356 93.0647,100.669 94,107.5C 95.2401,101.172 95.7401,94.8389 95.5,88.5C 99.0875,73.3428 103.087,59.3428 107.5,46.5 Z"/></g>
<g><path style="opacity:1" fill="#363636" d="M 102.5,115.5 C 102.782,119.574 103.448,123.574 104.5,127.5C 103.566,128.568 103.232,129.901 103.5,131.5C 99.8046,132.126 98.9712,131.126 101,128.5C 101.763,131.063 102.263,131.063 102.5,128.5C 102.518,126.627 102.018,126.294 101,127.5C 100.174,125.595 99.0072,125.261 97.5,126.5C 97.7093,127.086 98.0426,127.586 98.5,128C 94.7636,129.507 94.7636,130.34 98.5,130.5C 98.6427,132.262 98.3094,133.929 97.5,135.5C 100.058,137.12 100.058,138.62 97.5,140C 98.3301,141.747 99.3301,143.413 100.5,145C 100.108,146.011 99.4415,146.511 98.5,146.5C 98.9424,147.739 99.6091,148.739 100.5,149.5C 99.828,150.267 98.9947,150.934 98,151.5C 96.8035,148.911 95.8035,146.244 95,143.5C 94.7882,146.252 93.9548,148.752 92.5,151C 93.6493,152.73 93.6493,154.396 92.5,156C 94.8912,157.309 94.8912,158.309 92.5,159C 93.7121,161.281 93.5454,163.781 92,166.5C 90.513,165.747 90.3463,164.914 91.5,164C 90.4734,163.487 89.4734,162.987 88.5,162.5C 88.6107,161.883 88.944,161.383 89.5,161C 85.2591,161.246 81.0924,161.08 77,160.5C 76.3333,157.833 76.3333,155.167 77,152.5C 81.3542,152.264 85.1876,150.764 88.5,148C 86.8659,147.506 85.1992,147.34 83.5,147.5C 83.6556,144.934 83.3223,142.434 82.5,140C 83.1007,138.395 84.1007,137.062 85.5,136C 81.5739,136.963 77.5739,138.13 73.5,139.5C 71.8235,138.817 71.1568,137.483 71.5,135.5C 74.836,135.533 78.0027,134.866 81,133.5C 81.3143,131.131 82.1476,128.964 83.5,127C 82.9777,126.05 82.311,125.216 81.5,124.5C 82.1667,123.5 82.8333,122.5 83.5,121.5C 81.7805,121.254 79.7805,121.254 77.5,121.5C 79.4061,120.518 81.4061,119.518 83.5,118.5C 82.3112,117.571 80.9778,117.238 79.5,117.5C 79.8333,116.833 80.1667,116.167 80.5,115.5C 82.0418,116.301 83.7085,116.634 85.5,116.5C 85.3347,112.818 85.5014,109.152 86,105.5C 87.1856,111.085 87.8522,116.751 88,122.5C 88.3333,121.5 88.6667,120.5 89,119.5C 89.3333,119.833 89.6667,120.167 90,120.5C 91,125.5 92,130.5 93,135.5C 93.2315,131.445 93.7315,127.445 94.5,123.5C 93.5396,122.188 93.7063,120.854 95,119.5C 95.7175,120.451 96.5509,120.617 97.5,120C 96.6634,118.989 96.33,117.822 96.5,116.5C 98.1238,116.64 99.2904,115.973 100,114.5C 100.671,115.252 101.504,115.586 102.5,115.5 Z"/></g>
<g><path style="opacity:1" fill="#a2a2a2" d="M 103.5,92.5 C 103.833,93.1667 104.167,93.8333 104.5,94.5C 104.276,98.1788 103.942,101.846 103.5,105.5C 112.509,107.354 115.842,103.687 113.5,94.5C 115.718,97.3443 116.052,100.511 114.5,104C 116.63,110.747 118.296,117.58 119.5,124.5C 120.234,125.708 120.567,127.041 120.5,128.5C 121.023,131.878 122.356,134.878 124.5,137.5C 122.075,137.684 122.075,138.351 124.5,139.5C 122.813,142.11 121.479,141.777 120.5,138.5C 119.667,139.5 118.833,140.5 118,141.5C 116.428,139.437 114.595,138.771 112.5,139.5C 112.977,140.478 113.643,141.311 114.5,142C 113.874,142.75 113.374,143.584 113,144.5C 112.623,143.058 111.79,142.058 110.5,141.5C 109.306,139.618 107.973,137.285 106.5,134.5C 109.082,132.287 112.082,130.62 115.5,129.5C 118.371,123.608 116.371,120.608 109.5,120.5C 110.357,122.781 110.857,125.115 111,127.5C 109.982,129.928 108.148,131.262 105.5,131.5C 104.766,130.292 104.433,128.959 104.5,127.5C 103.448,123.574 102.782,119.574 102.5,115.5C 100.891,107.609 101.225,99.9425 103.5,92.5 Z M 104.5,94.5 C 106.017,94.5106 107.184,95.1772 108,96.5C 109.578,101.118 108.078,104.118 103.5,105.5C 103.942,101.846 104.276,98.1788 104.5,94.5 Z"/></g>
<g><path style="opacity:1" fill="#acacac" d="M 130.5,111.5 C 130.995,113.482 131.495,115.482 132,117.5C 132.21,115.942 132.71,114.609 133.5,113.5C 133.285,115.179 133.952,116.179 135.5,116.5C 132.769,122.127 130.769,121.793 129.5,115.5C 128.74,118.187 128.073,120.853 127.5,123.5C 126.5,122.167 125.5,120.833 124.5,119.5C 122.226,113.764 124.226,111.097 130.5,111.5 Z"/></g>
<g><path style="opacity:1" fill="#545454" d="M 77.5,121.5 C 79.7805,121.254 81.7805,121.254 83.5,121.5C 82.8333,122.5 82.1667,123.5 81.5,124.5C 82.311,125.216 82.9777,126.05 83.5,127C 82.1476,128.964 81.3143,131.131 81,133.5C 78.0027,134.866 74.836,135.533 71.5,135.5C 71.1746,130.401 71.6746,125.401 73,120.5C 73.3333,121.167 73.6667,121.833 74,122.5C 75.0113,121.663 76.1779,121.33 77.5,121.5 Z"/></g>
<g><path style="opacity:1" fill="#787878" d="M 139.5,112.5 C 139.073,116.856 137.406,120.689 134.5,124C 131.826,126.125 129.493,125.958 127.5,123.5C 128.073,120.853 128.74,118.187 129.5,115.5C 130.769,121.793 132.769,122.127 135.5,116.5C 135.328,115.508 135.662,114.842 136.5,114.5C 138.011,112.524 138.844,110.191 139,107.5C 139.494,109.134 139.66,110.801 139.5,112.5 Z"/></g>
<g><path style="opacity:1" fill="#dadada" d="M 139.5,68.5 C 139.833,68.5 140.167,68.5 140.5,68.5C 142.693,70.5223 143.693,73.1889 143.5,76.5C 146.598,88.3443 147.264,100.344 145.5,112.5C 144.251,118.375 142.251,124.042 139.5,129.5C 137.863,130.218 136.197,130.384 134.5,130C 135.167,129.667 135.833,129.333 136.5,129C 134.302,128.627 132.135,128.127 130,127.5C 128.108,127.777 126.775,128.777 126,130.5C 124.887,129.289 123.72,129.289 122.5,130.5C 121.818,129.757 121.151,129.091 120.5,128.5C 120.567,127.041 120.234,125.708 119.5,124.5C 121.062,124.733 122.395,125.4 123.5,126.5C 123.435,126.938 123.601,127.272 124,127.5C 126.081,125.443 125.914,123.777 123.5,122.5C 123.557,121.391 123.89,120.391 124.5,119.5C 125.5,120.833 126.5,122.167 127.5,123.5C 129.493,125.958 131.826,126.125 134.5,124C 137.406,120.689 139.073,116.856 139.5,112.5C 140.302,111.048 140.802,109.382 141,107.5C 141.499,101.843 141.666,96.1764 141.5,90.5C 141.007,88.1944 140.674,85.861 140.5,83.5C 140.414,82.5041 140.748,81.6708 141.5,81C 140.484,80.4806 139.818,79.6473 139.5,78.5C 140.588,75.4201 140.588,72.0868 139.5,68.5 Z"/></g>
<g><path style="opacity:1" fill="#373737" d="M 142.5,107.5 C 143.782,108.708 143.782,110.042 142.5,111.5C 141.708,110.3 141.708,108.967 142.5,107.5 Z"/></g>
<g><path style="opacity:1" fill="#393939" d="M 142.5,91.5 C 144.973,91.9473 145.14,92.9473 143,94.5C 142.517,93.552 142.351,92.552 142.5,91.5 Z"/></g>
<g><path style="opacity:1" fill="#191919" d="M 123.5,122.5 C 125.914,123.777 126.081,125.443 124,127.5C 123.601,127.272 123.435,126.938 123.5,126.5C 123.5,125.167 123.5,123.833 123.5,122.5 Z"/></g>
<g><path style="opacity:1" fill="#656565" d="M 106.5,134.5 C 105.89,133.609 105.557,132.609 105.5,131.5C 108.148,131.262 109.982,129.928 111,127.5C 110.857,125.115 110.357,122.781 109.5,120.5C 116.371,120.608 118.371,123.608 115.5,129.5C 112.082,130.62 109.082,132.287 106.5,134.5 Z"/></g>
<g><path style="opacity:1" fill="#c8c8c8" d="M 139.5,129.5 C 139.938,129.435 140.272,129.601 140.5,130C 137.945,131.258 137.278,133.091 138.5,135.5C 137.667,137.167 136.833,138.833 136,140.5C 132.816,142.544 130.316,145.21 128.5,148.5C 125.366,151.57 121.7,152.237 117.5,150.5C 116.833,150.167 116.167,149.833 115.5,149.5C 117.121,147.853 118.287,145.853 119,143.5C 120.077,146.789 121.91,147.289 124.5,145C 123.5,144.667 122.5,144.333 121.5,144C 123.747,142.691 126.08,142.025 128.5,142C 127.5,142.833 126.5,143.667 125.5,144.5C 128.243,145.101 129.576,143.767 129.5,140.5C 127.336,140.279 125.67,139.279 124.5,137.5C 122.356,134.878 121.023,131.878 120.5,128.5C 121.151,129.091 121.818,129.757 122.5,130.5C 123.72,129.289 124.887,129.289 126,130.5C 126.775,128.777 128.108,127.777 130,127.5C 132.135,128.127 134.302,128.627 136.5,129C 135.833,129.333 135.167,129.667 134.5,130C 136.197,130.384 137.863,130.218 139.5,129.5 Z"/></g>
<g><path style="opacity:1" fill="#767676" d="M 145.5,112.5 C 145.626,114.2 146.293,115.7 147.5,117C 146.144,120.021 145.81,123.021 146.5,126C 144.166,129.796 142.833,133.963 142.5,138.5C 138.673,141.11 135.506,144.443 133,148.5C 132.667,147.833 132.333,147.167 132,146.5C 131.184,147.823 130.017,148.489 128.5,148.5C 130.316,145.21 132.816,142.544 136,140.5C 136.833,138.833 137.667,137.167 138.5,135.5C 137.278,133.091 137.945,131.258 140.5,130C 140.272,129.601 139.938,129.435 139.5,129.5C 142.251,124.042 144.251,118.375 145.5,112.5 Z"/></g>
<g><path style="opacity:1" fill="#515151" d="M 83.5,147.5 C 80.3209,148.793 76.9876,149.46 73.5,149.5C 73.5,146.167 73.5,142.833 73.5,139.5C 77.5739,138.13 81.5739,136.963 85.5,136C 84.1007,137.062 83.1007,138.395 82.5,140C 83.3223,142.434 83.6556,144.934 83.5,147.5 Z"/></g>
<g><path style="opacity:1" fill="#3c3c3c" d="M 41.5,110.5 C 42.4057,111.965 43.739,112.965 45.5,113.5C 46.8142,116.9 47.8142,120.4 48.5,124C 46.382,124.123 44.382,124.957 42.5,126.5C 44.1932,127.228 45.6932,128.228 47,129.5C 48.3058,132.612 49.4724,135.779 50.5,139C 50.1667,139.5 49.8333,140 49.5,140.5C 43.5579,139.459 43.2245,140.293 48.5,143C 49.9771,144.812 51.3104,146.645 52.5,148.5C 54.3924,151.276 56.0591,154.276 57.5,157.5C 57.1667,158.167 56.8333,158.833 56.5,159.5C 58.5,162.833 60.5,166.167 62.5,169.5C 62.2907,170.086 61.9574,170.586 61.5,171C 63.9626,174.465 66.7959,177.631 70,180.5C 71.1455,179.316 72.3121,179.316 73.5,180.5C 75.1764,181.71 76.5097,181.21 77.5,179C 82.3489,177.248 85.3489,178.748 86.5,183.5C 84.5767,184.308 82.5767,184.808 80.5,185C 81.1258,185.75 81.6258,186.584 82,187.5C 86.1882,184.394 89.6882,184.894 92.5,189C 90.1341,189.44 87.8008,189.94 85.5,190.5C 71.4398,189.245 60.9398,182.578 54,170.5C 52.5903,166.156 50.5903,162.156 48,158.5C 46.6347,152.817 44.8014,147.317 42.5,142C 43.0585,141.275 43.3918,140.442 43.5,139.5C 41.9391,136.219 40.9391,132.719 40.5,129C 40.6148,127.105 41.2815,125.438 42.5,124C 40.051,122.137 39.051,119.637 39.5,116.5C 39.6667,114.833 39.8333,113.167 40,111.5C 40.3826,110.944 40.8826,110.611 41.5,110.5 Z"/></g>
<g><path style="opacity:1" fill="#3f3f3f" d="M 100.5,149.5 C 100.273,151.34 100.773,153.34 102,155.5C 104.147,158.678 106.314,162.345 108.5,166.5C 106.595,166.072 104.762,166.738 103,168.5C 102.667,168.167 102.333,167.833 102,167.5C 102.8,170.434 101.967,172.934 99.5,175C 100.638,177.336 102.638,179.503 105.5,181.5C 104.028,181.406 102.862,182.406 102,184.5C 101.768,183.263 101.268,182.263 100.5,181.5C 100.719,180.325 100.386,179.325 99.5,178.5C 96.2648,182.254 92.2648,183.254 87.5,181.5C 84.2717,175.227 86.1051,172.893 93,174.5C 93.3095,173.234 93.8095,172.067 94.5,171C 90.7782,172.587 86.7782,173.254 82.5,173C 78.5637,166.073 80.5637,162.573 88.5,162.5C 89.4734,162.987 90.4734,163.487 91.5,164C 90.3463,164.914 90.513,165.747 92,166.5C 93.5454,163.781 93.7121,161.281 92.5,159C 94.8912,158.309 94.8912,157.309 92.5,156C 93.6493,154.396 93.6493,152.73 92.5,151C 93.9548,148.752 94.7882,146.252 95,143.5C 95.8035,146.244 96.8035,148.911 98,151.5C 98.9947,150.934 99.828,150.267 100.5,149.5 Z"/></g>
<g><path style="opacity:1" fill="#464646" d="M 141.5,174.5 C 138.073,182.428 132.407,188.261 124.5,192C 112.767,194.047 101.1,193.88 89.5,191.5C 94.4548,190.741 99.4548,189.575 104.5,188C 105.517,186.951 105.684,185.784 105,184.5C 100.406,189.462 95.9063,189.629 91.5,185C 94.0444,183.908 96.7111,183.241 99.5,183C 100.056,182.617 100.389,182.117 100.5,181.5C 101.268,182.263 101.768,183.263 102,184.5C 102.862,182.406 104.028,181.406 105.5,181.5C 102.638,179.503 100.638,177.336 99.5,175C 101.967,172.934 102.8,170.434 102,167.5C 102.333,167.833 102.667,168.167 103,168.5C 104.762,166.738 106.595,166.072 108.5,166.5C 120.281,175.699 130.448,174.032 139,161.5C 140.024,159.08 140.524,156.58 140.5,154C 139.356,150.753 138.356,150.919 137.5,154.5C 137.167,154.333 136.833,154.167 136.5,154C 137.554,152.612 137.72,151.112 137,149.5C 133.082,157.143 126.915,159.976 118.5,158C 111.76,153.031 107.093,146.531 104.5,138.5C 103.833,139.833 103.167,141.167 102.5,142.5C 101.41,141.609 101.41,140.609 102.5,139.5C 101.833,139.167 101.167,138.833 100.5,138.5C 102.296,137.859 103.796,136.859 105,135.5C 106.774,141.553 109.941,146.72 114.5,151C 115.749,151.74 116.749,151.573 117.5,150.5C 121.7,152.237 125.366,151.57 128.5,148.5C 130.017,148.489 131.184,147.823 132,146.5C 132.333,147.167 132.667,147.833 133,148.5C 135.506,144.443 138.673,141.11 142.5,138.5C 143.458,138.047 144.292,137.381 145,136.5C 145.249,137.624 145.749,138.624 146.5,139.5C 147.314,136.581 148.314,133.748 149.5,131C 149.167,130.667 148.833,130.333 148.5,130C 150.991,129.374 150.991,128.541 148.5,127.5C 149.373,125.587 150.373,123.753 151.5,122C 151.167,119 150.833,116 150.5,113C 151.804,104.497 153.137,96.33 154.5,88.5C 155.327,99.6493 155.327,110.483 154.5,121C 153.398,123.863 152.398,126.696 151.5,129.5C 151.709,130.086 152.043,130.586 152.5,131C 150.606,132.079 150.273,133.413 151.5,135C 149.475,136.194 149.141,137.694 150.5,139.5C 146.88,141.6 146.88,144.434 150.5,148C 147.166,150.69 145.833,154.023 146.5,158C 140.202,166.298 133.202,173.965 125.5,181C 127.208,182.062 127.874,183.229 127.5,184.5C 132.775,181.719 137.275,178.053 141,173.5C 141.399,173.728 141.565,174.062 141.5,174.5 Z"/></g>
<g><path style="opacity:1" fill="#5a5a5a" d="M 124.5,137.5 C 125.67,139.279 127.336,140.279 129.5,140.5C 129.576,143.767 128.243,145.101 125.5,144.5C 126.5,143.667 127.5,142.833 128.5,142C 126.08,142.025 123.747,142.691 121.5,144C 122.5,144.333 123.5,144.667 124.5,145C 121.91,147.289 120.077,146.789 119,143.5C 118.287,145.853 117.121,147.853 115.5,149.5C 113.159,147.344 111.159,144.844 109.5,142C 109.728,141.601 110.062,141.435 110.5,141.5C 111.79,142.058 112.623,143.058 113,144.5C 113.374,143.584 113.874,142.75 114.5,142C 113.643,141.311 112.977,140.478 112.5,139.5C 114.595,138.771 116.428,139.437 118,141.5C 118.833,140.5 119.667,139.5 120.5,138.5C 121.479,141.777 122.813,142.11 124.5,139.5C 122.075,138.351 122.075,137.684 124.5,137.5 Z"/></g>
<g><path style="opacity:1" fill="#252525" d="M 104.5,127.5 C 104.433,128.959 104.766,130.292 105.5,131.5C 105.557,132.609 105.89,133.609 106.5,134.5C 107.973,137.285 109.306,139.618 110.5,141.5C 110.062,141.435 109.728,141.601 109.5,142C 111.159,144.844 113.159,147.344 115.5,149.5C 116.167,149.833 116.833,150.167 117.5,150.5C 116.749,151.573 115.749,151.74 114.5,151C 109.941,146.72 106.774,141.553 105,135.5C 103.796,136.859 102.296,137.859 100.5,138.5C 101.167,138.833 101.833,139.167 102.5,139.5C 101.41,140.609 101.41,141.609 102.5,142.5C 103.167,141.167 103.833,139.833 104.5,138.5C 107.093,146.531 111.76,153.031 118.5,158C 126.915,159.976 133.082,157.143 137,149.5C 137.72,151.112 137.554,152.612 136.5,154C 136.833,154.167 137.167,154.333 137.5,154.5C 138.356,150.919 139.356,150.753 140.5,154C 140.524,156.58 140.024,159.08 139,161.5C 130.448,174.032 120.281,175.699 108.5,166.5C 106.314,162.345 104.147,158.678 102,155.5C 100.773,153.34 100.273,151.34 100.5,149.5C 99.6091,148.739 98.9424,147.739 98.5,146.5C 99.4415,146.511 100.108,146.011 100.5,145C 99.3301,143.413 98.3301,141.747 97.5,140C 100.058,138.62 100.058,137.12 97.5,135.5C 98.3094,133.929 98.6427,132.262 98.5,130.5C 94.7636,130.34 94.7636,129.507 98.5,128C 98.0426,127.586 97.7093,127.086 97.5,126.5C 99.0072,125.261 100.174,125.595 101,127.5C 102.018,126.294 102.518,126.627 102.5,128.5C 102.263,131.063 101.763,131.063 101,128.5C 98.9712,131.126 99.8046,132.126 103.5,131.5C 103.232,129.901 103.566,128.568 104.5,127.5 Z"/></g>
<g><path style="opacity:1" fill="#1c1c1c" d="M 49.5,50.5 C 49.5,50.1667 49.5,49.8333 49.5,49.5C 52.3408,49.5597 55.0075,50.2264 57.5,51.5C 57.8039,52.1499 58.1373,52.8165 58.5,53.5C 55.9302,57.7741 54.5969,62.4408 54.5,67.5C 53.448,67.3505 52.448,67.5172 51.5,68C 52.9733,68.7096 53.6399,69.8762 53.5,71.5C 51.7582,76.1062 50.5915,81.1062 50,86.5C 50.0991,91.5605 49.9324,96.5605 49.5,101.5C 48.4336,103.829 48.4336,106.329 49.5,109C 49.2451,110.326 48.5784,111.326 47.5,112C 49.0368,113.11 49.7035,114.61 49.5,116.5C 48.9033,116.735 48.5699,117.235 48.5,118C 50.0258,122.373 50.6924,126.873 50.5,131.5C 53.221,131.963 55.8877,132.629 58.5,133.5C 59.7729,135.713 60.7729,138.046 61.5,140.5C 62.7498,140.577 63.5831,141.244 64,142.5C 64.5885,140.137 66.0885,139.137 68.5,139.5C 69.5404,135.151 69.5404,130.818 68.5,126.5C 66.677,127.747 64.677,128.414 62.5,128.5C 62.238,127.022 62.5713,125.689 63.5,124.5C 65.1338,124.032 66.3005,123.032 67,121.5C 68.3607,117.505 68.5274,113.505 67.5,109.5C 65.3855,110.034 63.5522,111.034 62,112.5C 61.5172,111.552 61.3505,110.552 61.5,109.5C 62.9738,108.325 64.6404,107.325 66.5,106.5C 67.8156,102.571 68.8156,98.571 69.5,94.5C 70.3764,94.3691 71.0431,94.7025 71.5,95.5C 70.2236,98.0337 69.8903,100.534 70.5,103C 74.4054,103.274 78.072,102.441 81.5,100.5C 82.4558,101.659 83.4558,102.826 84.5,104C 84.4301,104.765 84.0967,105.265 83.5,105.5C 79.895,105.863 76.395,105.863 73,105.5C 72.8534,106.603 72.02,107.77 70.5,109C 70.3925,111.935 70.3925,114.935 70.5,118C 73.5071,118.301 76.5071,118.135 79.5,117.5C 80.9778,117.238 82.3112,117.571 83.5,118.5C 81.4061,119.518 79.4061,120.518 77.5,121.5C 76.1779,121.33 75.0113,121.663 74,122.5C 73.6667,121.833 73.3333,121.167 73,120.5C 71.6746,125.401 71.1746,130.401 71.5,135.5C 71.1568,137.483 71.8235,138.817 73.5,139.5C 73.5,142.833 73.5,146.167 73.5,149.5C 76.9876,149.46 80.3209,148.793 83.5,147.5C 85.1992,147.34 86.8659,147.506 88.5,148C 85.1876,150.764 81.3542,152.264 77,152.5C 76.3333,155.167 76.3333,157.833 77,160.5C 81.0924,161.08 85.2591,161.246 89.5,161C 88.944,161.383 88.6107,161.883 88.5,162.5C 80.5637,162.573 78.5637,166.073 82.5,173C 86.7782,173.254 90.7782,172.587 94.5,171C 93.8095,172.067 93.3095,173.234 93,174.5C 86.1051,172.893 84.2717,175.227 87.5,181.5C 92.2648,183.254 96.2648,182.254 99.5,178.5C 100.386,179.325 100.719,180.325 100.5,181.5C 100.389,182.117 100.056,182.617 99.5,183C 96.7111,183.241 94.0444,183.908 91.5,185C 95.9063,189.629 100.406,189.462 105,184.5C 105.684,185.784 105.517,186.951 104.5,188C 99.4548,189.575 94.4548,190.741 89.5,191.5C 87.901,191.768 86.5676,191.434 85.5,190.5C 87.8008,189.94 90.1341,189.44 92.5,189C 89.6882,184.894 86.1882,184.394 82,187.5C 81.6258,186.584 81.1258,185.75 80.5,185C 82.5767,184.808 84.5767,184.308 86.5,183.5C 85.3489,178.748 82.3489,177.248 77.5,179C 76.5097,181.21 75.1764,181.71 73.5,180.5C 75.6516,179.923 75.985,178.756 74.5,177C 76.4727,176.505 78.4727,176.338 80.5,176.5C 80.4746,173.04 79.8079,169.706 78.5,166.5C 76.3334,167.792 74.0001,168.625 71.5,169C 70.6634,170.011 70.33,171.178 70.5,172.5C 69.448,172.649 68.448,172.483 67.5,172C 69.1922,170.599 69.8588,168.766 69.5,166.5C 71.5,166.167 73.5,165.833 75.5,165.5C 75.7399,162.421 75.4066,159.421 74.5,156.5C 72.5,155.833 70.5,155.167 68.5,154.5C 69.2421,153.713 70.0754,153.047 71,152.5C 71.6667,148.833 71.6667,145.167 71,141.5C 63.9383,142.203 61.2716,145.869 63,152.5C 60.2555,149.875 57.0889,147.875 53.5,146.5C 52.7025,146.957 52.3691,147.624 52.5,148.5C 51.3104,146.645 49.9771,144.812 48.5,143C 43.2245,140.293 43.5579,139.459 49.5,140.5C 49.8333,140 50.1667,139.5 50.5,139C 49.4724,135.779 48.3058,132.612 47,129.5C 45.6932,128.228 44.1932,127.228 42.5,126.5C 44.382,124.957 46.382,124.123 48.5,124C 47.8142,120.4 46.8142,116.9 45.5,113.5C 43.739,112.965 42.4057,111.965 41.5,110.5C 42.1556,109.722 42.9889,109.056 44,108.5C 46.315,110.179 47.4817,109.513 47.5,106.5C 47.7201,101.928 46.0534,98.4283 42.5,96C 43.8333,95.3333 43.8333,94.6667 42.5,94C 44.3801,94.5098 46.2134,94.3431 48,93.5C 48.0621,89.8517 47.8954,86.185 47.5,82.5C 45.8007,82.4729 44.4674,81.8062 43.5,80.5C 43.4701,79.5028 43.9701,78.8361 45,78.5C 46.7297,79.6493 48.3963,79.6493 50,78.5C 50.6667,75.1667 50.6667,71.8333 50,68.5C 47.4438,67.7809 46.2771,66.1142 46.5,63.5C 48.8333,63.5 51.1667,63.5 53.5,63.5C 53.6646,60.4816 53.498,57.4816 53,54.5C 51.4499,53.4092 50.2832,52.0758 49.5,50.5 Z"/></g>
<g><path style="opacity:1" fill="#464646" d="M 61.5,140.5 C 61.8515,143.073 61.3515,145.406 60,147.5C 58.103,145.984 55.9363,145.317 53.5,145.5C 52.8111,141.931 51.8111,138.431 50.5,135C 50.8333,134.5 51.1667,134 51.5,133.5C 55.6391,134.884 58.9724,137.218 61.5,140.5 Z"/></g>
<g><path style="opacity:1" fill="#4d4d4d" d="M 60.5,109.5 C 60.8333,109.5 61.1667,109.5 61.5,109.5C 61.3505,110.552 61.5172,111.552 62,112.5C 63.5522,111.034 65.3855,110.034 67.5,109.5C 68.5274,113.505 68.3607,117.505 67,121.5C 66.3005,123.032 65.1338,124.032 63.5,124.5C 62.5713,125.689 62.238,127.022 62.5,128.5C 64.677,128.414 66.677,127.747 68.5,126.5C 69.5404,130.818 69.5404,135.151 68.5,139.5C 66.0885,139.137 64.5885,140.137 64,142.5C 63.5831,141.244 62.7498,140.577 61.5,140.5C 60.7729,138.046 59.7729,135.713 58.5,133.5C 60.2413,131.987 61.2413,129.987 61.5,127.5C 60.041,124.748 58.7076,121.914 57.5,119C 59.2226,116.057 60.2226,112.89 60.5,109.5 Z"/></g>
<g><path style="opacity:1" fill="#494949" d="M 49.5,116.5 C 57.5016,119.503 60.5016,125.169 58.5,133.5C 55.8877,132.629 53.221,131.963 50.5,131.5C 50.6924,126.873 50.0258,122.373 48.5,118C 48.5699,117.235 48.9033,116.735 49.5,116.5 Z"/></g>
<g><path style="opacity:1" fill="#515151" d="M 49.5,101.5 C 49.8333,101.5 50.1667,101.5 50.5,101.5C 52.5078,103.268 54.6744,104.934 57,106.5C 58.7104,109.423 58.877,112.423 57.5,115.5C 55.9435,117.701 54.7768,117.701 54,115.5C 52.4361,115.912 50.9361,116.245 49.5,116.5C 49.7035,114.61 49.0368,113.11 47.5,112C 48.5784,111.326 49.2451,110.326 49.5,109C 48.4336,106.329 48.4336,103.829 49.5,101.5 Z"/></g>
<g><path style="opacity:1" fill="#6f6f6f" d="M 69.5,94.5 C 68.8156,98.571 67.8156,102.571 66.5,106.5C 64.6404,107.325 62.9738,108.325 61.5,109.5C 61.1667,109.5 60.8333,109.5 60.5,109.5C 59.1402,107.954 58.1402,106.12 57.5,104C 59.3502,98.2285 63.3502,95.0619 69.5,94.5 Z"/></g>
<g><path style="opacity:1" fill="#454545" d="M 73.5,180.5 C 72.3121,179.316 71.1455,179.316 70,180.5C 66.7959,177.631 63.9626,174.465 61.5,171C 61.9574,170.586 62.2907,170.086 62.5,169.5C 60.5,166.167 58.5,162.833 56.5,159.5C 56.8333,158.833 57.1667,158.167 57.5,157.5C 56.0591,154.276 54.3924,151.276 52.5,148.5C 52.3691,147.624 52.7025,146.957 53.5,146.5C 57.0889,147.875 60.2555,149.875 63,152.5C 61.2716,145.869 63.9383,142.203 71,141.5C 71.6667,145.167 71.6667,148.833 71,152.5C 70.0754,153.047 69.2421,153.713 68.5,154.5C 70.5,155.167 72.5,155.833 74.5,156.5C 75.4066,159.421 75.7399,162.421 75.5,165.5C 73.5,165.833 71.5,166.167 69.5,166.5C 69.8588,168.766 69.1922,170.599 67.5,172C 68.448,172.483 69.448,172.649 70.5,172.5C 70.33,171.178 70.6634,170.011 71.5,169C 74.0001,168.625 76.3334,167.792 78.5,166.5C 79.8079,169.706 80.4746,173.04 80.5,176.5C 78.4727,176.338 76.4727,176.505 74.5,177C 75.985,178.756 75.6516,179.923 73.5,180.5 Z"/></g>
</svg>
