<?xml version="1.0" encoding="UTF-8"?>
<!DOCTYPE svg PUBLIC "-//W3C//DTD SVG 1.1//EN" "http://www.w3.org/Graphics/SVG/1.1/DTD/svg11.dtd">
<svg xmlns="http://www.w3.org/2000/svg" version="1.1" width="526px" height="382px" style="shape-rendering:geometricPrecision; text-rendering:geometricPrecision; image-rendering:optimizeQuality; fill-rule:evenodd; clip-rule:evenodd" xmlns:xlink="http://www.w3.org/1999/xlink">
<g><path style="opacity:1" fill="#033448" d="M 336.5,20.5 C 337.376,20.3691 338.043,20.7025 338.5,21.5C 337.675,22.3857 336.675,22.719 335.5,22.5C 335.762,23.9778 335.429,25.3112 334.5,26.5C 263.336,47.8289 220.17,94.8289 205,167.5C 197.649,220.764 211.649,267.43 247,307.5C 252.769,315.604 259.602,322.771 267.5,329C 288.814,345.653 312.814,356.986 339.5,363C 340.406,364.699 340.739,366.533 340.5,368.5C 337.167,368.5 333.833,368.5 330.5,368.5C 329.5,368.5 328.5,368.5 327.5,368.5C 326.848,367.275 325.681,366.608 324,366.5C 302.878,364.347 283.045,358.181 264.5,348C 255.974,342.239 247.308,336.739 238.5,331.5C 184.905,285.567 164.072,227.567 176,157.5C 194.682,86.9852 239.182,42.3185 309.5,23.5C 313.078,23.4512 316.411,22.7846 319.5,21.5C 325.075,20.5476 330.741,20.2143 336.5,20.5 Z"/></g>
<g><path style="opacity:1" fill="#024862" d="M 336.5,20.5 C 355.594,19.879 374.594,22.0457 393.5,27C 401.957,29.3125 409.957,32.4792 417.5,36.5C 425.664,41.4166 433.997,46.0833 442.5,50.5C 442.833,50.5 443.167,50.5 443.5,50.5C 444.638,53.0862 446.638,54.7529 449.5,55.5C 453.154,57.3311 456.487,59.6644 459.5,62.5C 461.833,66.8333 465.167,70.1667 469.5,72.5C 471.43,76.1002 474.097,79.1002 477.5,81.5C 485.627,89.7389 492.293,99.0723 497.5,109.5C 499.126,115.419 501.793,120.753 505.5,125.5C 510.945,136.506 514.611,148.172 516.5,160.5C 516.43,164.425 517.097,168.091 518.5,171.5C 521.167,186.833 521.167,202.167 518.5,217.5C 517.097,220.909 516.43,224.575 516.5,228.5C 515.032,239.058 512.032,249.058 507.5,258.5C 503.674,264.818 500.341,271.484 497.5,278.5C 493.652,287.541 488.319,295.541 481.5,302.5C 480.094,302.973 479.427,303.973 479.5,305.5C 478.833,306.833 477.833,307.833 476.5,308.5C 470.833,313.5 465.5,318.833 460.5,324.5C 453.043,331.953 444.71,338.287 435.5,343.5C 431.58,344.127 428.247,345.793 425.5,348.5C 422.515,349.326 419.849,350.659 417.5,352.5C 407.257,358.151 396.257,361.818 384.5,363.5C 369.784,365.168 355.118,366.834 340.5,368.5C 340.739,366.533 340.406,364.699 339.5,363C 312.814,356.986 288.814,345.653 267.5,329C 259.602,322.771 252.769,315.604 247,307.5C 211.649,267.43 197.649,220.764 205,167.5C 220.17,94.8289 263.336,47.8289 334.5,26.5C 335.429,25.3112 335.762,23.9778 335.5,22.5C 336.675,22.719 337.675,22.3857 338.5,21.5C 338.043,20.7025 337.376,20.3691 336.5,20.5 Z"/></g>
<g><path style="opacity:0.998" fill="#fb7369" d="M 309.5,22.5 C 309.5,22.8333 309.5,23.1667 309.5,23.5C 239.182,42.3185 194.682,86.9852 176,157.5C 164.072,227.567 184.905,285.567 238.5,331.5C 200.815,327.491 164.481,317.658 129.5,302C 113.578,293.404 99.4109,282.571 87,269.5C 86.51,268.207 86.3433,266.873 86.5,265.5C 95.653,267.214 104.653,266.714 113.5,264C 124.443,253.854 125.443,242.687 116.5,230.5C 120.886,227.215 122.886,222.715 122.5,217C 120.962,205.45 115.295,196.45 105.5,190C 77.844,177.681 55.6773,158.848 39,133.5C 31.6972,122.898 27.1972,111.231 25.5,98.5C 30.9251,103.75 36.5917,108.917 42.5,114C 59.8041,127.129 79.1374,131.462 100.5,127C 106.471,124.695 109.805,120.362 110.5,114C 107.506,106.648 104.006,99.4808 100,92.5C 93.7067,75.6389 91.7067,58.3055 94,40.5C 95.8083,38.6041 97.975,38.1041 100.5,39C 126.678,61.9589 156.345,67.9589 189.5,57C 214.147,47.3398 239.147,38.6731 264.5,31C 279.258,26.8149 294.258,23.9816 309.5,22.5 Z"/></g>
<g><path style="opacity:1" fill="#e6d078" d="M 319.5,21.5 C 316.411,22.7846 313.078,23.4512 309.5,23.5C 309.5,23.1667 309.5,22.8333 309.5,22.5C 312.764,21.6758 316.098,21.3424 319.5,21.5 Z"/></g>
<g><path style="opacity:0.533" fill="#87a1ac" d="M 417.5,36.5 C 421.362,37.4281 425.029,38.9281 428.5,41C 433.618,43.6386 438.285,46.8052 442.5,50.5C 433.997,46.0833 425.664,41.4166 417.5,36.5 Z"/></g>
<g><path style="opacity:0.616" fill="#7496a3" d="M 443.5,50.5 C 445.909,51.7007 447.909,53.3674 449.5,55.5C 446.638,54.7529 444.638,53.0862 443.5,50.5 Z"/></g>
<g><path style="opacity:0.616" fill="#a5b0b8" d="M 459.5,62.5 C 463.167,65.5 466.5,68.8333 469.5,72.5C 465.167,70.1667 461.833,66.8333 459.5,62.5 Z"/></g>
<g><path style="opacity:0.4" fill="#a1afb7" d="M 469.5,72.5 C 472.903,74.8998 475.57,77.8998 477.5,81.5C 474.097,79.1002 471.43,76.1002 469.5,72.5 Z"/></g>
<g><path style="opacity:1" fill="#c8c5cc" d="M 332.5,82.5 C 382.477,79.3984 420.31,99.065 446,141.5C 453.036,154.276 457.036,167.943 458,182.5C 461.643,231.386 442.476,268.219 400.5,293C 357.121,313.883 315.787,310.55 276.5,283C 240.261,251.279 227.427,211.779 238,164.5C 253.144,118.197 284.644,90.8634 332.5,82.5 Z"/></g>
<g><path style="opacity:0.991" fill="#e56f67" d="M 25.5,98.5 C 27.1972,111.231 31.6972,122.898 39,133.5C 55.6773,158.848 77.844,177.681 105.5,190C 115.295,196.45 120.962,205.45 122.5,217C 122.886,222.715 120.886,227.215 116.5,230.5C 107.723,222.268 97.7225,215.768 86.5,211C 60.5578,194.722 41.3911,172.556 29,144.5C 23.2656,130.02 20.5989,115.02 21,99.5C 22.5057,97.9347 24.0057,97.6014 25.5,98.5 Z"/></g>
<g><path style="opacity:1" fill="#a49fb0" d="M 341.5,107.5 C 356.961,107.122 362.128,114.122 357,128.5C 348.812,135.309 341.146,134.643 334,126.5C 332.709,118.517 335.209,112.183 341.5,107.5 Z"/></g>
<g><path style="opacity:0.682" fill="#7699a6" d="M 497.5,109.5 C 500.674,114.516 503.341,119.849 505.5,125.5C 501.793,120.753 499.126,115.419 497.5,109.5 Z"/></g>
<g><path style="opacity:1" fill="#a49eb0" d="M 290.5,129.5 C 303.312,128.816 308.478,134.816 306,147.5C 299.69,156.788 292.356,157.788 284,150.5C 280.003,143.279 280.836,136.779 286.5,131C 288.058,130.79 289.391,130.29 290.5,129.5 Z"/></g>
<g><path style="opacity:1" fill="#a59fb0" d="M 395.5,129.5 C 408.953,129.798 413.786,136.464 410,149.5C 404.442,155.924 397.942,157.091 390.5,153C 383.901,145.663 383.901,138.33 390.5,131C 392.382,130.802 394.048,130.302 395.5,129.5 Z"/></g>
<g><path style="opacity:1" fill="#024863" d="M 375.5,215.5 C 372.5,217.833 369.833,220.5 367.5,223.5C 340.35,237.067 321.517,229.733 311,201.5C 309.023,181.614 317.189,167.781 335.5,160C 345.43,158.754 355.097,159.754 364.5,163C 382.948,177.246 386.614,194.746 375.5,215.5 Z"/></g>
<g><path style="opacity:0.259" fill="#afb6bd" d="M 516.5,160.5 C 517.903,163.909 518.57,167.575 518.5,171.5C 517.097,168.091 516.43,164.425 516.5,160.5 Z"/></g>
<g><path style="opacity:1" fill="#a59fb0" d="M 267.5,181.5 C 280.703,180.534 286.536,186.534 285,199.5C 281.185,206.638 275.351,209.138 267.5,207C 260.764,203.024 258.264,197.191 260,189.5C 262.028,186.308 264.528,183.641 267.5,181.5 Z"/></g>
<g><path style="opacity:1" fill="#a49fb0" d="M 414.5,181.5 C 423.236,179.435 429.403,182.435 433,190.5C 433.644,203.449 427.478,208.949 414.5,207C 405.207,198.468 405.207,189.968 414.5,181.5 Z"/></g>
<g><path style="opacity:1" fill="#7497a4" d="M 375.5,215.5 C 373.833,219.167 371.167,221.833 367.5,223.5C 369.833,220.5 372.5,217.833 375.5,215.5 Z"/></g>
<g><path style="opacity:0.231" fill="#aeb6bf" d="M 518.5,217.5 C 518.57,221.425 517.903,225.091 516.5,228.5C 516.43,224.575 517.097,220.909 518.5,217.5 Z"/></g>
<g><path style="opacity:1" fill="#a49eb0" d="M 289.5,233.5 C 301.01,232.849 306.843,238.182 307,249.5C 303.809,258.341 297.642,261.508 288.5,259C 281.637,253.998 279.803,247.498 283,239.5C 285.063,237.266 287.229,235.266 289.5,233.5 Z"/></g>
<g><path style="opacity:1" fill="#a49fb0" d="M 394.5,233.5 C 409.523,233.668 414.356,240.668 409,254.5C 403.967,259.479 398.134,260.645 391.5,258C 385.076,252.442 383.909,245.942 388,238.5C 389.965,236.45 392.132,234.783 394.5,233.5 Z"/></g>
<g><path style="opacity:1" fill="#a59fb0" d="M 342.5,254.5 C 355.865,255.015 361.031,261.681 358,274.5C 354.155,280.667 348.655,282.834 341.5,281C 333.357,275.554 331.524,268.388 336,259.5C 338.067,257.587 340.234,255.92 342.5,254.5 Z"/></g>
<g><path style="opacity:0.533" fill="#789aa7" d="M 507.5,258.5 C 505.202,265.764 501.868,272.43 497.5,278.5C 500.341,271.484 503.674,264.818 507.5,258.5 Z"/></g>
<g><path style="opacity:0.992" fill="#e46e66" d="M 86.5,265.5 C 86.3433,266.873 86.51,268.207 87,269.5C 99.4109,282.571 113.578,293.404 129.5,302C 164.481,317.658 200.815,327.491 238.5,331.5C 247.308,336.739 255.974,342.239 264.5,348C 283.045,358.181 302.878,364.347 324,366.5C 325.681,366.608 326.848,367.275 327.5,368.5C 279.812,368.563 232.479,363.396 185.5,353C 152.962,345.395 123.629,331.395 97.5,311C 84.4933,299.492 75.8266,285.326 71.5,268.5C 71.6316,266.399 72.6316,264.899 74.5,264C 78.5704,263.779 82.5704,264.279 86.5,265.5 Z"/></g>
<g><path style="opacity:0.063" fill="#afb5bd" d="M 481.5,302.5 C 481.573,304.027 480.906,305.027 479.5,305.5C 479.427,303.973 480.094,302.973 481.5,302.5 Z"/></g>
<g><path style="opacity:0.063" fill="#b5b8c0" d="M 476.5,308.5 C 472.167,314.833 466.833,320.167 460.5,324.5C 465.5,318.833 470.833,313.5 476.5,308.5 Z"/></g>
<g><path style="opacity:0.514" fill="#8da4af" d="M 435.5,343.5 C 432.442,345.696 429.109,347.362 425.5,348.5C 428.247,345.793 431.58,344.127 435.5,343.5 Z"/></g>
<g><path style="opacity:0.373" fill="#93a7b1" d="M 425.5,348.5 C 423.421,350.873 420.754,352.206 417.5,352.5C 419.849,350.659 422.515,349.326 425.5,348.5 Z"/></g>
<g><path style="opacity:1" fill="#457283" d="M 384.5,363.5 C 379.096,365.295 373.43,366.461 367.5,367C 357.585,367.205 347.752,368.038 338,369.5C 335.31,369.497 332.81,369.164 330.5,368.5C 333.833,368.5 337.167,368.5 340.5,368.5C 355.118,366.834 369.784,365.168 384.5,363.5 Z"/></g>
</svg>
