<?xml version="1.0" encoding="UTF-8"?>
<!DOCTYPE svg PUBLIC "-//W3C//DTD SVG 1.1//EN" "http://www.w3.org/Graphics/SVG/1.1/DTD/svg11.dtd">
<svg xmlns="http://www.w3.org/2000/svg" version="1.1" width="4068px" height="3975px" style="shape-rendering:geometricPrecision; text-rendering:geometricPrecision; image-rendering:optimizeQuality; fill-rule:evenodd; clip-rule:evenodd" xmlns:xlink="http://www.w3.org/1999/xlink">
<g><path style="opacity:0.999" fill="#fe7769" d="M 3743.5,2571.5 C 3743.51,2574.54 3743.84,2577.54 3744.5,2580.5C 3741.82,2583.19 3739.48,2586.19 3737.5,2589.5C 3734.14,2593.39 3731.3,2597.72 3729,2602.5C 3722.1,2620.87 3718.1,2639.87 3717,2659.5C 3715.42,2677.84 3713.75,2696.18 3712,2714.5C 3710.5,2727.18 3706.83,2739.18 3701,2750.5C 3688.71,2766.93 3672.55,2772.43 3652.5,2767C 3643.38,2762.85 3638.54,2755.69 3638,2745.5C 3629.32,2642.04 3619.32,2538.7 3608,2435.5C 3606.93,2413.62 3599.93,2393.95 3587,2376.5C 3579.86,2368.69 3571.36,2363.02 3561.5,2359.5C 3557.65,2356.41 3553.32,2354.07 3548.5,2352.5C 3542.69,2348.46 3536.36,2347.62 3529.5,2350C 3525.98,2351.59 3522.65,2353.43 3519.5,2355.5C 3515.28,2357.44 3510.95,2359.11 3506.5,2360.5C 3504.44,2360.48 3502.44,2360.15 3500.5,2359.5C 3494.85,2308.83 3489.02,2258.16 3483,2207.5C 3472.58,2122.72 3455.24,2039.38 3431,1957.5C 3425.65,1940.62 3419.82,1923.95 3413.5,1907.5C 3413.67,1905.38 3413.34,1903.38 3412.5,1901.5C 3395.43,1845.27 3374.43,1790.61 3349.5,1737.5C 3352.78,1734.73 3356.45,1732.56 3360.5,1731C 3428.17,1731.09 3495.83,1731.09 3563.5,1731C 3591.64,1730.25 3619.64,1727.91 3647.5,1724C 3697.62,1712.55 3729.45,1682.05 3743,1632.5C 3748.84,1593.4 3751.34,1554.06 3750.5,1514.5C 3750.28,1479.16 3749.78,1443.83 3749,1408.5C 3744.32,1324.48 3700.15,1278.32 3616.5,1270C 3402.85,1268.68 3189.18,1268.02 2975.5,1268C 2968.54,1266.41 2962.2,1263.57 2956.5,1259.5C 2944.33,1249.5 2932,1239.67 2919.5,1230C 2912.36,1225.1 2904.69,1221.26 2896.5,1218.5C 2895.83,1218.5 2895.17,1218.5 2894.5,1218.5C 2865.92,1194.7 2834.25,1175.7 2799.5,1161.5C 2793.09,1156.01 2789.25,1149.01 2788,1140.5C 2787.35,1050.83 2786.85,961.167 2786.5,871.5C 2786.39,808.658 2787.06,745.824 2788.5,683C 2787.81,599.447 2753.14,534.447 2684.5,488C 2648.3,465.95 2608.97,455.116 2566.5,455.5C 2208.17,455.704 1849.84,455.87 1491.5,456C 1410.16,456.404 1328.83,457.07 1247.5,458C 1169.19,468.346 1112.69,508.846 1078,579.5C 1067.94,602.477 1061.94,626.477 1060,651.5C 1058.05,763.834 1058.05,876.167 1060,988.5C 1062.73,1067.49 1097.57,1127.66 1164.5,1169C 1202.43,1189.79 1243.09,1199.12 1286.5,1197C 1343.84,1197.81 1401.18,1197.65 1458.5,1196.5C 1466.95,1196.63 1472.62,1200.63 1475.5,1208.5C 1473.79,1212.08 1471.45,1215.25 1468.5,1218C 1429.43,1244.54 1391.43,1272.54 1354.5,1302C 1349,1306.34 1344,1311.17 1339.5,1316.5C 1337.63,1316.86 1336.13,1317.86 1335,1319.5C 1334.05,1322.43 1333.55,1325.43 1333.5,1328.5C 1314.59,1335.53 1298.09,1346.2 1284,1360.5C 1281.42,1364 1279.08,1367.66 1277,1371.5C 1275.3,1373.37 1273.46,1375.04 1271.5,1376.5C 1266.15,1381.35 1259.82,1384.18 1252.5,1385C 1122.48,1385.01 992.478,1385.68 862.5,1387C 803.529,1396.98 761.696,1429.15 737,1483.5C 731.139,1497.61 727.472,1512.28 726,1527.5C 725.333,1614.83 725.333,1702.17 726,1789.5C 730.702,1823.23 743.368,1853.56 764,1880.5C 770.569,1887.74 777.735,1894.24 785.5,1900C 806.027,1913.09 826.694,1925.93 847.5,1938.5C 845.049,1948.69 841.883,1958.69 838,1968.5C 803.501,2040.99 773.501,2115.33 748,2191.5C 742.381,2209.65 737.547,2227.98 733.5,2246.5C 730.909,2247.25 729.076,2248.92 728,2251.5C 727.502,2254.82 727.335,2258.15 727.5,2261.5C 711.835,2303.33 698.668,2346 688,2389.5C 668.952,2463.74 653.619,2538.74 642,2614.5C 634.117,2665.8 626.45,2717.13 619,2768.5C 615.023,2801.05 613.523,2833.71 614.5,2866.5C 577.819,2925.53 546.652,2987.53 521,3052.5C 506.412,3091.19 495.412,3130.85 488,3171.5C 486.024,3177.55 481.858,3180.22 475.5,3179.5C 470.974,3126.6 468.141,3073.6 467,3020.5C 466.667,2949.5 466.333,2878.5 466,2807.5C 465.507,2759.95 444.007,2726.12 401.5,2706C 386.539,2700.12 371.205,2695.46 355.5,2692C 347.334,2687.53 342.168,2680.7 340,2671.5C 323.949,2631.33 326.282,2592.33 347,2554.5C 368.483,2522.16 398.65,2503.66 437.5,2499C 453.174,2498.68 468.841,2498.68 484.5,2499C 536.318,2492.52 565.484,2463.35 572,2411.5C 574.147,2383.8 573.813,2356.14 571,2328.5C 568.321,2305.74 564.988,2283.07 561,2260.5C 555.258,2241.43 542.425,2232.6 522.5,2234C 503.434,2236.93 494.434,2248.1 495.5,2267.5C 500.251,2306.42 504.251,2345.42 507.5,2384.5C 507.381,2394.64 505.215,2404.31 501,2413.5C 494.829,2421.51 486.662,2426.34 476.5,2428C 471.833,2428.67 467.167,2429.33 462.5,2430C 446.167,2430.33 429.833,2430.67 413.5,2431C 344.591,2440.58 300.424,2478.75 281,2545.5C 277.588,2558.64 275.255,2571.97 274,2585.5C 271.87,2625.56 274.87,2665.22 283,2704.5C 287.565,2726.05 299.398,2742.22 318.5,2753C 334.348,2758.73 350.348,2764.06 366.5,2769C 384.282,2776.37 395.116,2789.54 399,2808.5C 399.93,2813.8 400.597,2819.13 401,2824.5C 400.661,2881.16 400.661,2937.83 401,2994.5C 402.886,3077.51 405.053,3160.51 407.5,3243.5C 325.83,3140.28 256.663,3028.61 200,2908.5C 109.933,2710.68 62.1001,2503.02 56.5,2285.5C 57.1634,2190.53 66.9967,2096.53 86,2003.5C 114.609,1864.33 171.275,1738.33 256,1625.5C 305.476,1562.68 362.643,1508.18 427.5,1462C 449.316,1446.26 471.649,1431.26 494.5,1417C 539.498,1390.84 584.164,1364.17 628.5,1337C 673.75,1308.77 715.25,1275.61 753,1237.5C 806.274,1179.28 839.607,1110.95 853,1032.5C 858.162,1003.04 861.496,973.373 863,943.5C 864.578,897.507 865.911,851.507 867,805.5C 870.383,668.29 916.05,547.623 1004,443.5C 1110.53,322.284 1239.36,232.784 1390.5,175C 1514.19,127.078 1642.19,97.7451 1774.5,87C 1923.6,73.2167 2072.93,69.8834 2222.5,77C 2383.37,73.5813 2543.71,81.248 2703.5,100C 2785.31,109.162 2865.64,125.495 2944.5,149C 3122.45,202.614 3242.95,316.78 3306,491.5C 3327.8,561.101 3355.14,628.435 3388,693.5C 3423.11,756.613 3471.28,807.447 3532.5,846C 3546.24,854.731 3560.24,863.065 3574.5,871C 3614.82,891.49 3654.82,912.49 3694.5,934C 3828.28,1009.47 3920.45,1119.97 3971,1265.5C 4015.25,1396.27 4026.92,1529.93 4006,1666.5C 3988.09,1777.26 3948.76,1879.59 3888,1973.5C 3873.25,1995.34 3858.25,2017.01 3843,2038.5C 3800.65,2107.9 3775.65,2183.23 3768,2264.5C 3763.05,2325.17 3758.05,2385.84 3753,2446.5C 3749.28,2483.7 3744.11,2520.7 3737.5,2557.5C 3737.41,2563.18 3739.41,2567.85 3743.5,2571.5 Z"/></g>
<g><path style="opacity:1" fill="#fdfcfc" d="M 2799.5,1161.5 C 2798.72,1170.45 2798.22,1179.45 2798,1188.5C 2797.63,1200.53 2791.46,1207.03 2779.5,1208C 2344.83,1208.5 1910.17,1208.67 1475.5,1208.5C 1472.62,1200.63 1466.95,1196.63 1458.5,1196.5C 1401.18,1197.65 1343.84,1197.81 1286.5,1197C 1243.09,1199.12 1202.43,1189.79 1164.5,1169C 1097.57,1127.66 1062.73,1067.49 1060,988.5C 1058.05,876.167 1058.05,763.834 1060,651.5C 1061.94,626.477 1067.94,602.477 1078,579.5C 1112.69,508.846 1169.19,468.346 1247.5,458C 1328.83,457.07 1410.16,456.404 1491.5,456C 1849.84,455.87 2208.17,455.704 2566.5,455.5C 2608.97,455.116 2648.3,465.95 2684.5,488C 2753.14,534.447 2787.81,599.447 2788.5,683C 2787.06,745.824 2786.39,808.658 2786.5,871.5C 2786.85,961.167 2787.35,1050.83 2788,1140.5C 2789.25,1149.01 2793.09,1156.01 2799.5,1161.5 Z"/></g>
<g><path style="opacity:1" fill="#ff7769" d="M 1774.5,759.5 C 1811.24,757.107 1833.74,773.774 1842,809.5C 1844.35,833.821 1836.18,853.654 1817.5,869C 1784.64,887.146 1757.47,880.979 1736,850.5C 1720.73,818.927 1726.23,791.76 1752.5,769C 1759.33,764.411 1766.66,761.245 1774.5,759.5 Z"/></g>
<g><path style="opacity:1" fill="#ff7769" d="M 1914.5,759.5 C 1949.25,756.442 1971.75,771.442 1982,804.5C 1987.05,832.373 1978.22,854.54 1955.5,871C 1923.36,886.259 1897.2,879.426 1877,850.5C 1863.88,824.651 1866.21,800.318 1884,777.5C 1892.48,768.516 1902.64,762.516 1914.5,759.5 Z"/></g>
<g><path style="opacity:1" fill="#ff7769" d="M 2056.5,759.5 C 2085.95,756.47 2107.12,768.137 2120,794.5C 2129.29,822.391 2123.46,846.558 2102.5,867C 2084.07,879.499 2064.4,881.832 2043.5,874C 2016.93,858.311 2006.09,835.145 2011,804.5C 2017.48,780.515 2032.65,765.515 2056.5,759.5 Z"/></g>
<g><path style="opacity:0.055" fill="#b7eefc" d="M 687.5,1131.5 C 689.048,1131.82 689.715,1132.82 689.5,1134.5C 686.752,1134.6 686.086,1133.6 687.5,1131.5 Z"/></g>
<g><path style="opacity:1" fill="#02a8d0" d="M 2799.5,1161.5 C 2834.25,1175.7 2865.92,1194.7 2894.5,1218.5C 2894.84,1229.22 2894.34,1239.88 2893,1250.5C 2889.38,1264.44 2881.55,1275.27 2869.5,1283C 2859.86,1287.15 2850.52,1291.82 2841.5,1297C 2835.76,1303 2831.42,1309.83 2828.5,1317.5C 2822.17,1320.42 2815.51,1322.08 2808.5,1322.5C 2566.14,1322.48 2323.48,1322.48 2080.5,1322.5C 1847.09,1322.07 1615.42,1322.07 1385.5,1322.5C 1369.92,1322.27 1354.59,1320.27 1339.5,1316.5C 1344,1311.17 1349,1306.34 1354.5,1302C 1391.43,1272.54 1429.43,1244.54 1468.5,1218C 1471.45,1215.25 1473.79,1212.08 1475.5,1208.5C 1910.17,1208.67 2344.83,1208.5 2779.5,1208C 2791.46,1207.03 2797.63,1200.53 2798,1188.5C 2798.22,1179.45 2798.72,1170.45 2799.5,1161.5 Z"/></g>
<g><path style="opacity:1" fill="#0aa7d0" d="M 2896.5,1218.5 C 2904.69,1221.26 2912.36,1225.1 2919.5,1230C 2932,1239.67 2944.33,1249.5 2956.5,1259.5C 2945.13,1261.21 2933.63,1262.87 2922,1264.5C 2907.99,1265.49 2899.32,1259.16 2896,1245.5C 2895.45,1236.49 2895.61,1227.49 2896.5,1218.5 Z"/></g>
<g><path style="opacity:1" fill="#fcfcfc" d="M 2894.5,1218.5 C 2895.17,1218.5 2895.83,1218.5 2896.5,1218.5C 2895.61,1227.49 2895.45,1236.49 2896,1245.5C 2899.32,1259.16 2907.99,1265.49 2922,1264.5C 2933.63,1262.87 2945.13,1261.21 2956.5,1259.5C 2962.2,1263.57 2968.54,1266.41 2975.5,1268C 3189.18,1268.02 3402.85,1268.68 3616.5,1270C 3700.15,1278.32 3744.32,1324.48 3749,1408.5C 3749.78,1443.83 3750.28,1479.16 3750.5,1514.5C 3751.34,1554.06 3748.84,1593.4 3743,1632.5C 3729.45,1682.05 3697.62,1712.55 3647.5,1724C 3619.64,1727.91 3591.64,1730.25 3563.5,1731C 3495.83,1731.09 3428.17,1731.09 3360.5,1731C 3356.45,1732.56 3352.78,1734.73 3349.5,1737.5C 3174.83,1737.42 3000.16,1737.59 2825.5,1738C 2811.2,1738.29 2803.04,1731.46 2801,1717.5C 2800.63,1621.5 2800.13,1525.5 2799.5,1429.5C 2799.5,1412.17 2799.5,1394.83 2799.5,1377.5C 2800.09,1372.05 2801.26,1366.72 2803,1361.5C 2807.12,1351.59 2810.96,1341.59 2814.5,1331.5C 2815.34,1331.16 2815.67,1330.49 2815.5,1329.5C 2824.33,1330.34 2828.66,1326.34 2828.5,1317.5C 2831.42,1309.83 2835.76,1303 2841.5,1297C 2850.52,1291.82 2859.86,1287.15 2869.5,1283C 2881.55,1275.27 2889.38,1264.44 2893,1250.5C 2894.34,1239.88 2894.84,1229.22 2894.5,1218.5 Z"/></g>
<g><path style="opacity:1" fill="#a5effe" d="M 1339.5,1316.5 C 1354.59,1320.27 1369.92,1322.27 1385.5,1322.5C 1617,1323.5 1848.67,1323.83 2080.5,1323.5C 2323.33,1323.83 2566,1323.5 2808.5,1322.5C 2815.51,1322.08 2822.17,1320.42 2828.5,1317.5C 2828.66,1326.34 2824.33,1330.34 2815.5,1329.5C 2364.17,1329.5 1912.83,1329.5 1461.5,1329.5C 1418.84,1328.73 1376.17,1328.4 1333.5,1328.5C 1333.55,1325.43 1334.05,1322.43 1335,1319.5C 1336.13,1317.86 1337.63,1316.86 1339.5,1316.5 Z"/></g>
<g><path style="opacity:1" fill="#01b9da" d="M 2080.5,1322.5 C 2080.5,1322.83 2080.5,1323.17 2080.5,1323.5C 1848.67,1323.83 1617,1323.5 1385.5,1322.5C 1615.42,1322.07 1847.09,1322.07 2080.5,1322.5 Z"/></g>
<g><path style="opacity:1" fill="#00cce8" d="M 2808.5,1322.5 C 2566,1323.5 2323.33,1323.83 2080.5,1323.5C 2080.5,1323.17 2080.5,1322.83 2080.5,1322.5C 2323.48,1322.48 2566.14,1322.48 2808.5,1322.5 Z"/></g>
<g><path style="opacity:1" fill="#00a7d1" d="M 1333.5,1328.5 C 1376.17,1328.4 1418.84,1328.73 1461.5,1329.5C 1912.5,1330.17 2363.5,1330.83 2814.5,1331.5C 2810.96,1341.59 2807.12,1351.59 2803,1361.5C 2801.26,1366.72 2800.09,1372.05 2799.5,1377.5C 2798.52,1380.29 2798.19,1383.29 2798.5,1386.5C 2781.27,1387.95 2764.27,1390.78 2747.5,1395C 2737.5,1397.83 2728.5,1402.5 2720.5,1409C 2739.08,1406.13 2757.75,1403.46 2776.5,1401C 2783.87,1400.27 2791.2,1400.44 2798.5,1401.5C 2798.17,1411.01 2798.51,1420.35 2799.5,1429.5C 2800.13,1525.5 2800.63,1621.5 2801,1717.5C 2803.04,1731.46 2811.2,1738.29 2825.5,1738C 3000.16,1737.59 3174.83,1737.42 3349.5,1737.5C 3374.43,1790.61 3395.43,1845.27 3412.5,1901.5C 3207.5,1901.61 3002.5,1901.27 2797.5,1900.5C 2781.99,1899.83 2766.33,1899.17 2750.5,1898.5C 2738.16,1882.99 2722.83,1871.49 2704.5,1864C 2683.27,1856.31 2661.6,1850.15 2639.5,1845.5C 2638.99,1843.11 2638.32,1840.77 2637.5,1838.5C 2657.27,1819.56 2673.44,1797.89 2686,1773.5C 2694.83,1756.33 2702.5,1738.66 2709,1720.5C 2715.2,1704.95 2714.87,1689.62 2708,1674.5C 2700.19,1662.39 2689.03,1655.56 2674.5,1654C 2669.5,1653.33 2664.5,1653.33 2659.5,1654C 2647.97,1656.12 2636.64,1658.95 2625.5,1662.5C 2622.74,1612.47 2622.91,1562.47 2626,1512.5C 2614.86,1539.35 2609.52,1567.35 2610,1596.5C 2609.5,1620.5 2609.33,1644.5 2609.5,1668.5C 2611.83,1668.5 2614.17,1668.5 2616.5,1668.5C 2613.69,1669.32 2610.69,1669.82 2607.5,1670C 2594.25,1676.65 2580.25,1678.99 2565.5,1677C 2551.4,1674.85 2537.4,1672.18 2523.5,1669C 2493.74,1660.73 2463.74,1653.39 2433.5,1647C 2394.56,1638.74 2355.89,1639.74 2317.5,1650C 2267.72,1665.45 2230.22,1695.95 2205,1741.5C 2187.96,1772.95 2176.3,1806.28 2170,1841.5C 2166.74,1868.14 2163.74,1894.8 2161,1921.5C 2158.09,1947.71 2151.76,1973.04 2142,1997.5C 2138.6,2005.97 2134.43,2013.97 2129.5,2021.5C 2083.17,2021.93 2036.83,2022.43 1990.5,2023C 1988.42,2025.58 1985.76,2027.25 1982.5,2028C 1977.47,2028.73 1972.47,2028.56 1967.5,2027.5C 1937.68,2032.52 1908.01,2038.19 1878.5,2044.5C 1874.54,2048.96 1869.54,2050.63 1863.5,2049.5C 1863.82,2014.58 1863.49,1979.58 1862.5,1944.5C 1896.97,1943.39 1931.64,1942.89 1966.5,1943C 1977.47,1941.7 1983.3,1935.53 1984,1924.5C 1984.67,1811.17 1984.67,1697.83 1984,1584.5C 1983.86,1563.48 1983.19,1542.48 1982,1521.5C 1971.06,1443.89 1927.22,1397.39 1850.5,1382C 1844.53,1381.09 1838.53,1380.43 1832.5,1380C 1652.84,1378.7 1473.17,1378.03 1293.5,1378C 1288.3,1377.76 1283.13,1377.26 1278,1376.5C 1276.33,1377.17 1274.67,1377.83 1273,1378.5C 1271.97,1378.16 1271.47,1377.5 1271.5,1376.5C 1273.46,1375.04 1275.3,1373.37 1277,1371.5C 1279.08,1367.66 1281.42,1364 1284,1360.5C 1298.09,1346.2 1314.59,1335.53 1333.5,1328.5 Z"/></g>
<g><path style="opacity:1" fill="#00cce8" d="M 1461.5,1329.5 C 1912.83,1329.5 2364.17,1329.5 2815.5,1329.5C 2815.67,1330.49 2815.34,1331.16 2814.5,1331.5C 2363.5,1330.83 1912.5,1330.17 1461.5,1329.5 Z"/></g>
<g><path style="opacity:1" fill="#ff7769" d="M 3266.5,1357.5 C 3297.88,1354.92 3326.21,1362.76 3351.5,1381C 3363.24,1391.64 3370.41,1404.81 3373,1420.5C 3374.34,1437 3373.34,1453.33 3370,1469.5C 3365.94,1481.55 3359.44,1492.05 3350.5,1501C 3341.52,1508.16 3332.19,1514.82 3322.5,1521C 3309.01,1531.14 3299.85,1544.31 3295,1560.5C 3292.75,1562.38 3290.25,1563.88 3287.5,1565C 3277.94,1566.15 3268.6,1565.15 3259.5,1562C 3253.23,1559.46 3250.23,1554.8 3250.5,1548C 3251.36,1541.1 3253.53,1534.6 3257,1528.5C 3265.67,1515.17 3274.33,1501.83 3283,1488.5C 3288.46,1480.27 3291.62,1471.27 3292.5,1461.5C 3289.89,1444.73 3280.05,1436.39 3263,1436.5C 3256.8,1436.65 3250.64,1437.15 3244.5,1438C 3238.5,1440.67 3232.5,1443.33 3226.5,1446C 3220.06,1447.91 3215.56,1445.74 3213,1439.5C 3210.35,1430.24 3208.02,1420.91 3206,1411.5C 3203.87,1398.5 3207.37,1387.33 3216.5,1378C 3231.74,1367.54 3248.41,1360.71 3266.5,1357.5 Z"/></g>
<g><path style="opacity:1" fill="#fcfcfc" d="M 1271.5,1376.5 C 1271.47,1377.5 1271.97,1378.16 1273,1378.5C 1274.67,1377.83 1276.33,1377.17 1278,1376.5C 1283.13,1377.26 1288.3,1377.76 1293.5,1378C 1473.17,1378.03 1652.84,1378.7 1832.5,1380C 1838.53,1380.43 1844.53,1381.09 1850.5,1382C 1927.22,1397.39 1971.06,1443.89 1982,1521.5C 1983.19,1542.48 1983.86,1563.48 1984,1584.5C 1984.67,1697.83 1984.67,1811.17 1984,1924.5C 1983.3,1935.53 1977.47,1941.7 1966.5,1943C 1931.64,1942.89 1896.97,1943.39 1862.5,1944.5C 1860.17,1944.5 1857.83,1944.5 1855.5,1944.5C 1731.67,1943.5 1607.67,1943.17 1483.5,1943.5C 1286.83,1943.69 1090.16,1943.19 893.5,1942C 878.188,1940.5 862.855,1939.34 847.5,1938.5C 826.694,1925.93 806.027,1913.09 785.5,1900C 777.735,1894.24 770.569,1887.74 764,1880.5C 743.368,1853.56 730.702,1823.23 726,1789.5C 725.333,1702.17 725.333,1614.83 726,1527.5C 727.472,1512.28 731.139,1497.61 737,1483.5C 761.696,1429.15 803.529,1396.98 862.5,1387C 992.478,1385.68 1122.48,1385.01 1252.5,1385C 1259.82,1384.18 1266.15,1381.35 1271.5,1376.5 Z"/></g>
<g><path style="opacity:1" fill="#06c0dd" d="M 2799.5,1377.5 C 2799.5,1394.83 2799.5,1412.17 2799.5,1429.5C 2798.51,1420.35 2798.17,1411.01 2798.5,1401.5C 2791.2,1400.44 2783.87,1400.27 2776.5,1401C 2757.75,1403.46 2739.08,1406.13 2720.5,1409C 2728.5,1402.5 2737.5,1397.83 2747.5,1395C 2764.27,1390.78 2781.27,1387.95 2798.5,1386.5C 2798.19,1383.29 2798.52,1380.29 2799.5,1377.5 Z"/></g>
<g><path style="opacity:1" fill="#ff7769" d="M 1324.5,1492.5 C 1351.87,1489.5 1376.87,1495.67 1399.5,1511C 1428.21,1537.02 1436.05,1568.52 1423,1605.5C 1417.54,1618.63 1409.37,1629.8 1398.5,1639C 1387.29,1646.44 1376.63,1654.61 1366.5,1663.5C 1358.37,1672.09 1352.54,1682.09 1349,1693.5C 1344.28,1698.07 1338.61,1700.07 1332,1699.5C 1303.83,1699.5 1296.5,1687.17 1310,1662.5C 1321.06,1645.77 1331.73,1628.77 1342,1611.5C 1348.67,1596.84 1345.83,1584.34 1333.5,1574C 1325.35,1569.71 1316.68,1568.38 1307.5,1570C 1299.94,1573.28 1292.28,1576.28 1284.5,1579C 1279.5,1579.67 1274.5,1579.67 1269.5,1579C 1263.33,1573.03 1260.67,1565.7 1261.5,1557C 1262.13,1546.51 1262.29,1536.01 1262,1525.5C 1265.71,1514.13 1273.21,1506.29 1284.5,1502C 1297.75,1497.85 1311.08,1494.69 1324.5,1492.5 Z"/></g>
<g><path style="opacity:1" fill="#00c0dc" d="M 2625.5,1662.5 C 2625.49,1664.02 2624.82,1665.18 2623.5,1666C 2621.56,1667.9 2619.23,1668.74 2616.5,1668.5C 2614.17,1668.5 2611.83,1668.5 2609.5,1668.5C 2609.33,1644.5 2609.5,1620.5 2610,1596.5C 2609.52,1567.35 2614.86,1539.35 2626,1512.5C 2622.91,1562.47 2622.74,1612.47 2625.5,1662.5 Z"/></g>
<g><path style="opacity:1" fill="#ff776a" d="M 3274.5,1577.5 C 3307.54,1576.36 3321.7,1592.03 3317,1624.5C 3311.47,1642.52 3299.31,1652.85 3280.5,1655.5C 3254.5,1651.01 3242.67,1635.68 3245,1609.5C 3247.4,1591.94 3257.23,1581.27 3274.5,1577.5 Z"/></g>
<g><path style="opacity:1" fill="#14004e" d="M 2616.5,1668.5 C 2619.23,1668.74 2621.56,1667.9 2623.5,1666C 2624.82,1665.18 2625.49,1664.02 2625.5,1662.5C 2636.64,1658.95 2647.97,1656.12 2659.5,1654C 2664.5,1653.33 2669.5,1653.33 2674.5,1654C 2689.03,1655.56 2700.19,1662.39 2708,1674.5C 2714.87,1689.62 2715.2,1704.95 2709,1720.5C 2702.5,1738.66 2694.83,1756.33 2686,1773.5C 2673.44,1797.89 2657.27,1819.56 2637.5,1838.5C 2613.34,1850.98 2587.68,1855.81 2560.5,1853C 2542.73,1848.89 2524.73,1846.39 2506.5,1845.5C 2474.47,1846.18 2445.8,1856.18 2420.5,1875.5C 2414.22,1874.66 2408.55,1876.16 2403.5,1880C 2380.68,1892.75 2360.01,1908.42 2341.5,1927C 2330.83,1937.67 2320.17,1948.33 2309.5,1959C 2306.6,1961.41 2303.6,1963.58 2300.5,1965.5C 2261.7,1937.38 2228.54,1943.05 2201,1982.5C 2181.18,2012.12 2175.01,2044.46 2182.5,2079.5C 2183.75,2091.08 2178.75,2095.92 2167.5,2094C 2155.13,2089.65 2143.13,2084.48 2131.5,2078.5C 2130.4,2059.02 2129.74,2040.02 2129.5,2021.5C 2134.43,2013.97 2138.6,2005.97 2142,1997.5C 2151.76,1973.04 2158.09,1947.71 2161,1921.5C 2163.74,1894.8 2166.74,1868.14 2170,1841.5C 2176.3,1806.28 2187.96,1772.95 2205,1741.5C 2230.22,1695.95 2267.72,1665.45 2317.5,1650C 2355.89,1639.74 2394.56,1638.74 2433.5,1647C 2463.74,1653.39 2493.74,1660.73 2523.5,1669C 2537.4,1672.18 2551.4,1674.85 2565.5,1677C 2580.25,1678.99 2594.25,1676.65 2607.5,1670C 2610.69,1669.82 2613.69,1669.32 2616.5,1668.5 Z"/></g>
<g><path style="opacity:0.024" fill="#f2e6e8" d="M 122.5,1646.5 C 123.833,1647.17 123.833,1647.17 122.5,1646.5 Z"/></g>
<g><path style="opacity:0.024" fill="#f2e6e8" d="M 122.5,1647.5 C 121.833,1648.17 121.833,1648.17 122.5,1647.5 Z"/></g>
<g><path style="opacity:0.055" fill="#aff0fe" d="M 120.5,1649.5 C 121.833,1650.17 121.833,1650.17 120.5,1649.5 Z"/></g>
<g><path style="opacity:0.055" fill="#c8ecf7" d="M 120.5,1650.5 C 120.672,1651.49 120.338,1652.16 119.5,1652.5C 119.328,1651.51 119.662,1650.84 120.5,1650.5 Z"/></g>
<g><path style="opacity:0.055" fill="#c6eaf3" d="M 119.5,1652.5 C 119.25,1654.67 118.25,1656.34 116.5,1657.5C 115.619,1654.99 116.619,1653.32 119.5,1652.5 Z"/></g>
<g><path style="opacity:0.024" fill="#f2e6e8" d="M 116.5,1657.5 C 116.631,1658.24 116.464,1658.91 116,1659.5C 115.308,1658.56 115.475,1657.9 116.5,1657.5 Z"/></g>
<g><path style="opacity:0.024" fill="#f2e6e8" d="M 114.5,1660.5 C 115.833,1661.17 115.833,1661.17 114.5,1660.5 Z"/></g>
<g><path style="opacity:1" fill="#ff7769" d="M 1327.5,1711.5 C 1358.25,1709.75 1372.75,1724.08 1371,1754.5C 1366.46,1778.53 1351.96,1789.69 1327.5,1788C 1310.89,1784.05 1301.05,1773.55 1298,1756.5C 1295.72,1733.32 1305.56,1718.32 1327.5,1711.5 Z"/></g>
<g><path style="opacity:1" fill="#fe8775" d="M 2637.5,1838.5 C 2638.32,1840.77 2638.99,1843.11 2639.5,1845.5C 2641.91,1864.49 2644.24,1883.49 2646.5,1902.5C 2646.5,1904.5 2646.5,1906.5 2646.5,1908.5C 2644.53,1918.96 2646.53,1928.62 2652.5,1937.5C 2648.74,1938.77 2646.58,1941.43 2646,1945.5C 2643.48,2042.71 2614.48,2130.71 2559,2209.5C 2540.25,2236.26 2516.08,2256.43 2486.5,2270C 2479.84,2272.28 2473.18,2274.44 2466.5,2276.5C 2445.87,2276.75 2429.04,2284.75 2416,2300.5C 2400.78,2328.05 2379.28,2349.22 2351.5,2364C 2339.16,2370.34 2326.49,2375.84 2313.5,2380.5C 2226.15,2267.89 2212.32,2146.56 2272,2016.5C 2280.92,2002.41 2291.76,1990.08 2304.5,1979.5C 2306.06,1987.03 2308.56,1994.37 2312,2001.5C 2316.49,2006.26 2321.99,2007.76 2328.5,2006C 2342.98,2001.53 2353.81,1992.69 2361,1979.5C 2380.6,1944.62 2400.44,1909.95 2420.5,1875.5C 2445.8,1856.18 2474.47,1846.18 2506.5,1845.5C 2524.73,1846.39 2542.73,1848.89 2560.5,1853C 2587.68,1855.81 2613.34,1850.98 2637.5,1838.5 Z"/></g>
<g><path style="opacity:1" fill="#02c0dc" d="M 2639.5,1845.5 C 2661.6,1850.15 2683.27,1856.31 2704.5,1864C 2722.83,1871.49 2738.16,1882.99 2750.5,1898.5C 2766.33,1899.17 2781.99,1899.83 2797.5,1900.5C 2747.16,1900.47 2696.82,1901.14 2646.5,1902.5C 2644.24,1883.49 2641.91,1864.49 2639.5,1845.5 Z"/></g>
<g><path style="opacity:1" fill="#5807a4" d="M 2420.5,1875.5 C 2400.44,1909.95 2380.6,1944.62 2361,1979.5C 2353.81,1992.69 2342.98,2001.53 2328.5,2006C 2321.99,2007.76 2316.49,2006.26 2312,2001.5C 2308.56,1994.37 2306.06,1987.03 2304.5,1979.5C 2303.47,1974.73 2302.14,1970.06 2300.5,1965.5C 2303.6,1963.58 2306.6,1961.41 2309.5,1959C 2320.17,1948.33 2330.83,1937.67 2341.5,1927C 2360.01,1908.42 2380.68,1892.75 2403.5,1880C 2408.55,1876.16 2414.22,1874.66 2420.5,1875.5 Z"/></g>
<g><path style="opacity:1" fill="#a5effe" d="M 2797.5,1900.5 C 3002.5,1901.27 3207.5,1901.61 3412.5,1901.5C 3413.34,1903.38 3413.67,1905.38 3413.5,1907.5C 3214.17,1907.49 3014.83,1907.82 2815.5,1908.5C 2759.17,1908.5 2702.83,1908.5 2646.5,1908.5C 2646.5,1906.5 2646.5,1904.5 2646.5,1902.5C 2696.82,1901.14 2747.16,1900.47 2797.5,1900.5 Z"/></g>
<g><path style="opacity:1" fill="#00c0dc" d="M 2646.5,1908.5 C 2702.83,1908.5 2759.17,1908.5 2815.5,1908.5C 2804.01,1909.33 2792.34,1909.83 2780.5,1910C 2802.75,1934.24 2824.25,1959.08 2845,1984.5C 2861.71,2009.26 2874.71,2035.93 2884,2064.5C 2912.82,2167.76 2941.32,2271.1 2969.5,2374.5C 2943.68,2406.16 2928.85,2442.5 2925,2483.5C 2922.82,2514.1 2929.15,2542.76 2944,2569.5C 2948.18,2560.99 2949.52,2551.99 2948,2542.5C 2942.61,2515.74 2940.61,2488.74 2942,2461.5C 2945.08,2434.66 2956.58,2412.33 2976.5,2394.5C 2995.35,2468.56 3014.52,2542.56 3034,2616.5C 3058.93,2617.16 3083.76,2617.83 3108.5,2618.5C 2982.17,2618.63 2855.83,2618.97 2729.5,2619.5C 2733.19,2595.31 2735.69,2570.97 2737,2546.5C 2738.54,2495.13 2740.87,2443.8 2744,2392.5C 2745.1,2359.79 2744.44,2327.12 2742,2294.5C 2736.71,2244.43 2719.54,2199.1 2690.5,2158.5C 2706.32,2116.61 2707.49,2074.28 2694,2031.5C 2683.14,1998.79 2669.31,1967.45 2652.5,1937.5C 2646.53,1928.62 2644.53,1918.96 2646.5,1908.5 Z"/></g>
<g><path style="opacity:1" fill="#00a7d1" d="M 3413.5,1907.5 C 3419.82,1923.95 3425.65,1940.62 3431,1957.5C 3455.24,2039.38 3472.58,2122.72 3483,2207.5C 3489.02,2258.16 3494.85,2308.83 3500.5,2359.5C 3468.21,2393.13 3452.88,2433.46 3454.5,2480.5C 3455.9,2521.78 3460.06,2562.78 3467,2603.5C 3471.13,2623.81 3475.13,2644.15 3479,2664.5C 3487.48,2699.42 3495.65,2734.42 3503.5,2769.5C 3496.75,2769.42 3492.91,2772.75 3492,2779.5C 3489.38,2834.5 3486.88,2889.5 3484.5,2944.5C 3468.48,2947.67 3454.15,2944.17 3441.5,2934C 3433.9,2926.91 3426.9,2919.41 3420.5,2911.5C 3431.94,2833.16 3443.44,2754.82 3455,2676.5C 3456.89,2663.18 3454.89,2650.51 3449,2638.5C 3442.57,2630.1 3434.07,2624.93 3423.5,2623C 3414.57,2621.42 3405.57,2620.42 3396.5,2620C 3300.5,2619.48 3204.5,2618.98 3108.5,2618.5C 3083.76,2617.83 3058.93,2617.16 3034,2616.5C 3014.52,2542.56 2995.35,2468.56 2976.5,2394.5C 2995.13,2376.7 3013.3,2358.37 3031,2339.5C 3063.97,2298.62 3072.97,2252.95 3058,2202.5C 3053.83,2198.55 3049,2197.55 3043.5,2199.5C 3058.53,2250.7 3048.7,2296.37 3014,2336.5C 3000.45,2350.9 2985.62,2363.57 2969.5,2374.5C 2941.32,2271.1 2912.82,2167.76 2884,2064.5C 2874.71,2035.93 2861.71,2009.26 2845,1984.5C 2824.25,1959.08 2802.75,1934.24 2780.5,1910C 2792.34,1909.83 2804.01,1909.33 2815.5,1908.5C 3014.83,1907.82 3214.17,1907.49 3413.5,1907.5 Z"/></g>
<g><path style="opacity:1" fill="#5a08a4" d="M 2598.5,1936.5 C 2608.7,1935.89 2618.7,1936.89 2628.5,1939.5C 2630.89,1941.41 2631.89,1943.91 2631.5,1947C 2631.3,1957.76 2625.97,1964.09 2615.5,1966C 2607.83,1966.33 2600.17,1966.67 2592.5,1967C 2587.44,1968.43 2582.61,1970.26 2578,1972.5C 2568.45,1970.41 2565.45,1964.74 2569,1955.5C 2572.23,1947.94 2577.73,1942.77 2585.5,1940C 2589.92,1938.65 2594.25,1937.48 2598.5,1936.5 Z"/></g>
<g><path style="opacity:1" fill="#fe7769" d="M 2652.5,1937.5 C 2669.31,1967.45 2683.14,1998.79 2694,2031.5C 2707.49,2074.28 2706.32,2116.61 2690.5,2158.5C 2671.78,2178.72 2653.95,2199.72 2637,2221.5C 2624.71,2237.75 2615.88,2255.75 2610.5,2275.5C 2598.16,2277.32 2588.49,2283.48 2581.5,2294C 2542.5,2330.33 2503.5,2366.67 2464.5,2403C 2455.35,2410.24 2445.02,2414.74 2433.5,2416.5C 2444.5,2369.83 2455.5,2323.16 2466.5,2276.5C 2473.18,2274.44 2479.84,2272.28 2486.5,2270C 2516.08,2256.43 2540.25,2236.26 2559,2209.5C 2614.48,2130.71 2643.48,2042.71 2646,1945.5C 2646.58,1941.43 2648.74,1938.77 2652.5,1937.5 Z"/></g>
<g><path style="opacity:1" fill="#00a7d0" d="M 847.5,1938.5 C 862.855,1939.34 878.188,1940.5 893.5,1942C 1090.16,1943.19 1286.83,1943.69 1483.5,1943.5C 1607,1944.5 1730.67,1944.83 1854.5,1944.5C 1854.5,1980.83 1854.5,2017.17 1854.5,2053.5C 1783.32,2084.58 1719.32,2126.41 1662.5,2179C 1639.26,2201.4 1616.93,2224.57 1595.5,2248.5C 1399.33,2247.5 1203,2247.17 1006.5,2247.5C 1004.69,2247.51 1003.02,2247.01 1001.5,2246C 998.833,2243 996.167,2240 993.5,2237C 990.335,2234.87 987.335,2235.04 984.5,2237.5C 982.45,2240.65 980.784,2243.99 979.5,2247.5C 897.502,2246.84 815.502,2246.51 733.5,2246.5C 737.547,2227.98 742.381,2209.65 748,2191.5C 773.501,2115.33 803.501,2040.99 838,1968.5C 841.883,1958.69 845.049,1948.69 847.5,1938.5 Z"/></g>
<g><path style="opacity:1" fill="#13c2df" d="M 1483.5,1943.5 C 1607.67,1943.17 1731.67,1943.5 1855.5,1944.5C 1855.5,1980.83 1855.5,2017.17 1855.5,2053.5C 1855.17,2053.5 1854.83,2053.5 1854.5,2053.5C 1854.5,2017.17 1854.5,1980.83 1854.5,1944.5C 1730.67,1944.83 1607,1944.5 1483.5,1943.5 Z"/></g>
<g><path style="opacity:1" fill="#a5effe" d="M 1855.5,1944.5 C 1857.83,1944.5 1860.17,1944.5 1862.5,1944.5C 1863.49,1979.58 1863.82,2014.58 1863.5,2049.5C 1860.83,2050.83 1858.17,2052.17 1855.5,2053.5C 1855.5,2017.17 1855.5,1980.83 1855.5,1944.5 Z"/></g>
<g><path style="opacity:1" fill="#fe745c" d="M 2300.5,1965.5 C 2302.14,1970.06 2303.47,1974.73 2304.5,1979.5C 2291.76,1990.08 2280.92,2002.41 2272,2016.5C 2212.32,2146.56 2226.15,2267.89 2313.5,2380.5C 2284.33,2388.14 2254.66,2390.64 2224.5,2388C 2165.03,2382.52 2124.53,2352.02 2103,2296.5C 2094,2271.83 2087.66,2246.49 2084,2220.5C 2080.15,2189.39 2086.15,2160.39 2102,2133.5C 2107.75,2124.99 2113.75,2116.66 2120,2108.5C 2124.16,2098.52 2127.99,2088.52 2131.5,2078.5C 2143.13,2084.48 2155.13,2089.65 2167.5,2094C 2178.75,2095.92 2183.75,2091.08 2182.5,2079.5C 2175.01,2044.46 2181.18,2012.12 2201,1982.5C 2228.54,1943.05 2261.7,1937.38 2300.5,1965.5 Z"/></g>
<g><path style="opacity:1" fill="#5a08a4" d="M 2467.5,1952.5 C 2475.8,1953.7 2484.13,1954.87 2492.5,1956C 2505.94,1958.7 2510.1,1966.53 2505,1979.5C 2502.96,1981.97 2500.29,1982.97 2497,1982.5C 2484.29,1979.84 2471.46,1979.01 2458.5,1980C 2452.62,1982.02 2446.62,1983.52 2440.5,1984.5C 2436.5,1984.75 2433.66,1983.08 2432,1979.5C 2429.54,1973.43 2430.04,1967.77 2433.5,1962.5C 2434.7,1961.47 2436.03,1960.64 2437.5,1960C 2447.81,1958.24 2457.81,1955.74 2467.5,1952.5 Z"/></g>
<g><path style="opacity:1" fill="#a3effe" d="M 3185.5,2003.5 C 3186.5,2003.5 3187.5,2003.5 3188.5,2003.5C 3189.4,2008.14 3189.56,2012.81 3189,2017.5C 3171.25,2043.73 3161.25,2072.73 3159,2104.5C 3158.35,2155.51 3158.85,2206.51 3160.5,2257.5C 3159.85,2300.65 3145.35,2338.32 3117,2370.5C 3104.64,2383.2 3091.97,2395.53 3079,2407.5C 3064.11,2422.07 3052.77,2439.07 3045,2458.5C 3042.72,2465.01 3041.05,2471.68 3040,2478.5C 3032.34,2460.64 3032.68,2442.97 3041,2425.5C 3050.97,2409.59 3063.8,2396.42 3079.5,2386C 3124.35,2345.81 3145.69,2295.48 3143.5,2235C 3143.33,2227.17 3143.17,2219.33 3143,2211.5C 3137.14,2174.96 3136.14,2138.3 3140,2101.5C 3144.65,2071.19 3154.65,2042.85 3170,2016.5C 3174.48,2011.17 3179.65,2006.84 3185.5,2003.5 Z"/></g>
<g><path style="opacity:1" fill="#004164" d="M 2129.5,2021.5 C 2129.74,2040.02 2130.4,2059.02 2131.5,2078.5C 2127.99,2088.52 2124.16,2098.52 2120,2108.5C 2113.75,2116.66 2107.75,2124.99 2102,2133.5C 2086.15,2160.39 2080.15,2189.39 2084,2220.5C 2087.66,2246.49 2094,2271.83 2103,2296.5C 2124.53,2352.02 2165.03,2382.52 2224.5,2388C 2254.66,2390.64 2284.33,2388.14 2313.5,2380.5C 2326.49,2375.84 2339.16,2370.34 2351.5,2364C 2379.28,2349.22 2400.78,2328.05 2416,2300.5C 2429.04,2284.75 2445.87,2276.75 2466.5,2276.5C 2455.5,2323.16 2444.5,2369.83 2433.5,2416.5C 2426.17,2441.82 2418.84,2467.15 2411.5,2492.5C 2401.34,2534.8 2391.34,2577.13 2381.5,2619.5C 2363.88,2620.23 2346.55,2622.73 2329.5,2627C 2318.44,2632.91 2311.61,2642.08 2309,2654.5C 2301.36,2697.05 2294.36,2739.72 2288,2782.5C 2268.24,2920.3 2247.57,3057.97 2226,3195.5C 2224.56,3199.98 2223.06,3204.31 2221.5,3208.5C 2198.16,3212.94 2174.82,3217.44 2151.5,3222C 2119.63,3225.13 2088.97,3220.47 2059.5,3208C 1939.28,3151.4 1814.94,3105.73 1686.5,3071C 1678.66,3068.75 1671.33,3065.41 1664.5,3061C 1658.55,3055.04 1656.38,3047.88 1658,3039.5C 1663.73,3020.65 1670.06,3001.98 1677,2983.5C 1687.48,2942.77 1696.81,2901.77 1705,2860.5C 1706.32,2854.46 1704.49,2849.62 1699.5,2846C 1643.7,2821.78 1591.04,2792.45 1541.5,2758C 1500.54,2728.53 1459.21,2699.7 1417.5,2671.5C 1413.93,2664.9 1411.43,2657.9 1410,2650.5C 1409.31,2644.12 1409.64,2637.78 1411,2631.5C 1442.66,2544.54 1478.99,2459.54 1520,2376.5C 1540.4,2337.32 1562.57,2299.32 1586.5,2262.5C 1589.49,2257.87 1592.49,2253.2 1595.5,2248.5C 1616.93,2224.57 1639.26,2201.4 1662.5,2179C 1719.32,2126.41 1783.32,2084.58 1854.5,2053.5C 1854.83,2053.5 1855.17,2053.5 1855.5,2053.5C 1858.17,2052.17 1860.83,2050.83 1863.5,2049.5C 1869.54,2050.63 1874.54,2048.96 1878.5,2044.5C 1908.01,2038.19 1937.68,2032.52 1967.5,2027.5C 1972.47,2028.56 1977.47,2028.73 1982.5,2028C 1985.76,2027.25 1988.42,2025.58 1990.5,2023C 2036.83,2022.43 2083.17,2021.93 2129.5,2021.5 Z"/></g>
<g><path style="opacity:1" fill="#5f0aa3" d="M 2514.5,2089.5 C 2519.51,2089.33 2524.51,2089.5 2529.5,2090C 2538,2093.75 2546.33,2097.75 2554.5,2102C 2558.66,2106.12 2559.99,2110.96 2558.5,2116.5C 2550.97,2113.8 2545.97,2108.63 2543.5,2101C 2535.89,2099.52 2528.22,2099.19 2520.5,2100C 2511.27,2101.89 2502.27,2104.56 2493.5,2108C 2479.07,2125.67 2466.24,2144.5 2455,2164.5C 2455.26,2146.37 2461.43,2130.54 2473.5,2117C 2482.37,2111.39 2490.71,2105.06 2498.5,2098C 2503.77,2094.87 2509.1,2092.03 2514.5,2089.5 Z"/></g>
<g><path style="opacity:1" fill="#004164" d="M 2690.5,2158.5 C 2719.54,2199.1 2736.71,2244.43 2742,2294.5C 2744.44,2327.12 2745.1,2359.79 2744,2392.5C 2740.87,2443.8 2738.54,2495.13 2737,2546.5C 2735.69,2570.97 2733.19,2595.31 2729.5,2619.5C 2698.68,2621.33 2667.68,2621.83 2636.5,2621C 2627.64,2620.67 2618.97,2619.84 2610.5,2618.5C 2611.59,2548.34 2612.59,2478.17 2613.5,2408C 2613.04,2363.82 2612.04,2319.65 2610.5,2275.5C 2615.88,2255.75 2624.71,2237.75 2637,2221.5C 2653.95,2199.72 2671.78,2178.72 2690.5,2158.5 Z"/></g>
<g><path style="opacity:1" fill="#fafcfc" d="M 2976.5,2394.5 C 2956.58,2412.33 2945.08,2434.66 2942,2461.5C 2940.61,2488.74 2942.61,2515.74 2948,2542.5C 2949.52,2551.99 2948.18,2560.99 2944,2569.5C 2929.15,2542.76 2922.82,2514.1 2925,2483.5C 2928.85,2442.5 2943.68,2406.16 2969.5,2374.5C 2985.62,2363.57 3000.45,2350.9 3014,2336.5C 3048.7,2296.37 3058.53,2250.7 3043.5,2199.5C 3049,2197.55 3053.83,2198.55 3058,2202.5C 3072.97,2252.95 3063.97,2298.62 3031,2339.5C 3013.3,2358.37 2995.13,2376.7 2976.5,2394.5 Z"/></g>
<g><path style="opacity:1" fill="#5807a4" d="M 614.5,2866.5 C 666.097,2805.72 726.764,2756.22 796.5,2718C 834.139,2692.01 859.972,2657.18 874,2613.5C 877.975,2598.8 872.309,2591.8 857,2592.5C 826.873,2596.93 803.873,2586.27 788,2560.5C 772.853,2530.4 760.853,2499.06 752,2466.5C 741.274,2427.34 733.274,2387.67 728,2347.5C 760.012,2370.03 794.846,2375.53 832.5,2364C 862.076,2354.21 890.742,2342.21 918.5,2328C 929.27,2323.41 940.27,2319.41 951.5,2316C 975.513,2305.48 984.846,2287.31 979.5,2261.5C 979.5,2256.83 979.5,2252.17 979.5,2247.5C 980.784,2243.99 982.45,2240.65 984.5,2237.5C 987.335,2235.04 990.335,2234.87 993.5,2237C 996.167,2240 998.833,2243 1001.5,2246C 1003.02,2247.01 1004.69,2247.51 1006.5,2247.5C 1006.72,2254.29 1009.72,2259.29 1015.5,2262.5C 1042.14,2303.11 1064.64,2346.11 1083,2391.5C 1094.12,2416.86 1096.12,2442.86 1089,2469.5C 1081.79,2487.2 1070.95,2502.2 1056.5,2514.5C 1045.3,2518.43 1034.3,2522.93 1023.5,2528C 996.234,2542.47 968.567,2556.13 940.5,2569C 922.989,2575.61 905.323,2581.61 887.5,2587C 881.145,2592 878.812,2598.5 880.5,2606.5C 880.683,2619 882.183,2631.34 885,2643.5C 887.389,2650.12 891.556,2655.28 897.5,2659C 904.404,2661.95 911.404,2664.62 918.5,2667C 920.049,2668.21 921.215,2669.71 922,2671.5C 922.418,2682.67 926.418,2692.33 934,2700.5C 942.333,2708.17 950.667,2715.83 959,2723.5C 963.156,2728.32 966.489,2733.66 969,2739.5C 977.913,2749.83 988.747,2752.33 1001.5,2747C 1005.58,2744.92 1009.08,2742.09 1012,2738.5C 1013.88,2730.87 1016.54,2723.54 1020,2716.5C 1028.39,2702.39 1035.72,2687.72 1042,2672.5C 1042.79,2669.53 1043.46,2666.53 1044,2663.5C 1044.43,2653.15 1044.43,2642.82 1044,2632.5C 1047.32,2627.68 1051.49,2623.68 1056.5,2620.5C 1056.67,2649.84 1056.5,2679.17 1056,2708.5C 1050.32,2797.43 1046.32,2886.43 1044,2975.5C 1043.33,3011.83 1043.33,3048.17 1044,3084.5C 1045.64,3125.49 1046.98,3166.49 1048,3207.5C 1050.89,3234.63 1063.05,3256.3 1084.5,3272.5C 1048.18,3273.52 1011.84,3274.69 975.5,3276C 967.427,3277.91 962.094,3282.74 959.5,3290.5C 776.833,3290.5 594.167,3290.5 411.5,3290.5C 409.573,3274.89 408.239,3259.23 407.5,3243.5C 405.053,3160.51 402.886,3077.51 401,2994.5C 400.661,2937.83 400.661,2881.16 401,2824.5C 400.597,2819.13 399.93,2813.8 399,2808.5C 395.116,2789.54 384.282,2776.37 366.5,2769C 350.348,2764.06 334.348,2758.73 318.5,2753C 299.398,2742.22 287.565,2726.05 283,2704.5C 274.87,2665.22 271.87,2625.56 274,2585.5C 275.255,2571.97 277.588,2558.64 281,2545.5C 300.424,2478.75 344.591,2440.58 413.5,2431C 429.833,2430.67 446.167,2430.33 462.5,2430C 467.167,2429.33 471.833,2428.67 476.5,2428C 486.662,2426.34 494.829,2421.51 501,2413.5C 505.215,2404.31 507.381,2394.64 507.5,2384.5C 504.251,2345.42 500.251,2306.42 495.5,2267.5C 494.434,2248.1 503.434,2236.93 522.5,2234C 542.425,2232.6 555.258,2241.43 561,2260.5C 564.988,2283.07 568.321,2305.74 571,2328.5C 573.813,2356.14 574.147,2383.8 572,2411.5C 565.484,2463.35 536.318,2492.52 484.5,2499C 468.841,2498.68 453.174,2498.68 437.5,2499C 398.65,2503.66 368.483,2522.16 347,2554.5C 326.282,2592.33 323.949,2631.33 340,2671.5C 342.168,2680.7 347.334,2687.53 355.5,2692C 371.205,2695.46 386.539,2700.12 401.5,2706C 444.007,2726.12 465.507,2759.95 466,2807.5C 466.333,2878.5 466.667,2949.5 467,3020.5C 468.141,3073.6 470.974,3126.6 475.5,3179.5C 481.858,3180.22 486.024,3177.55 488,3171.5C 495.412,3130.85 506.412,3091.19 521,3052.5C 546.652,2987.53 577.819,2925.53 614.5,2866.5 Z"/></g>
<g><path style="opacity:1" fill="#01c0dc" d="M 733.5,2246.5 C 815.502,2246.51 897.502,2246.84 979.5,2247.5C 979.5,2252.17 979.5,2256.83 979.5,2261.5C 895.5,2261.5 811.5,2261.5 727.5,2261.5C 727.335,2258.15 727.502,2254.82 728,2251.5C 729.076,2248.92 730.909,2247.25 733.5,2246.5 Z"/></g>
<g><path style="opacity:1" fill="#00c0dc" d="M 1006.5,2247.5 C 1203,2247.17 1399.33,2247.5 1595.5,2248.5C 1592.49,2253.2 1589.49,2257.87 1586.5,2262.5C 1396.17,2262.5 1205.83,2262.5 1015.5,2262.5C 1009.72,2259.29 1006.72,2254.29 1006.5,2247.5 Z"/></g>
<g><path style="opacity:1" fill="#01a6d0" d="M 727.5,2261.5 C 811.5,2261.5 895.5,2261.5 979.5,2261.5C 984.846,2287.31 975.513,2305.48 951.5,2316C 940.27,2319.41 929.27,2323.41 918.5,2328C 890.742,2342.21 862.076,2354.21 832.5,2364C 794.846,2375.53 760.012,2370.03 728,2347.5C 733.274,2387.67 741.274,2427.34 752,2466.5C 760.853,2499.06 772.853,2530.4 788,2560.5C 803.873,2586.27 826.873,2596.93 857,2592.5C 872.309,2591.8 877.975,2598.8 874,2613.5C 859.972,2657.18 834.139,2692.01 796.5,2718C 726.764,2756.22 666.097,2805.72 614.5,2866.5C 613.523,2833.71 615.023,2801.05 619,2768.5C 626.45,2717.13 634.117,2665.8 642,2614.5C 653.619,2538.74 668.952,2463.74 688,2389.5C 698.668,2346 711.835,2303.33 727.5,2261.5 Z"/></g>
<g><path style="opacity:1" fill="#00a6d0" d="M 1015.5,2262.5 C 1205.83,2262.5 1396.17,2262.5 1586.5,2262.5C 1562.57,2299.32 1540.4,2337.32 1520,2376.5C 1478.99,2459.54 1442.66,2544.54 1411,2631.5C 1409.64,2637.78 1409.31,2644.12 1410,2650.5C 1411.43,2657.9 1413.93,2664.9 1417.5,2671.5C 1375.74,2775.46 1339.74,2881.46 1309.5,2989.5C 1302.54,2993.77 1294.87,2995.77 1286.5,2995.5C 1220.84,2995.6 1155.17,2995.44 1089.5,2995C 1076.24,2997.95 1070.24,3006.28 1071.5,3020C 1072.78,3044.82 1073.45,3069.65 1073.5,3094.5C 1072.55,3127.16 1072.05,3159.83 1072,3192.5C 1075.48,3222.44 1087.31,3248.44 1107.5,3270.5C 1099.82,3271.01 1092.15,3271.67 1084.5,3272.5C 1063.05,3256.3 1050.89,3234.63 1048,3207.5C 1046.98,3166.49 1045.64,3125.49 1044,3084.5C 1043.33,3048.17 1043.33,3011.83 1044,2975.5C 1046.32,2886.43 1050.32,2797.43 1056,2708.5C 1056.5,2679.17 1056.67,2649.84 1056.5,2620.5C 1056.5,2585.17 1056.5,2549.83 1056.5,2514.5C 1070.95,2502.2 1081.79,2487.2 1089,2469.5C 1096.12,2442.86 1094.12,2416.86 1083,2391.5C 1064.64,2346.11 1042.14,2303.11 1015.5,2262.5 Z"/></g>
<g><path style="opacity:1" fill="#fe8774" d="M 2610.5,2275.5 C 2612.04,2319.65 2613.04,2363.82 2613.5,2408C 2612.59,2478.17 2611.59,2548.34 2610.5,2618.5C 2572.5,2618.5 2534.5,2618.5 2496.5,2618.5C 2496.7,2616.01 2496.2,2613.68 2495,2611.5C 2487.61,2601.78 2480.61,2591.78 2474,2581.5C 2459.29,2565.13 2444.96,2548.46 2431,2531.5C 2422.84,2519.17 2416.34,2506.17 2411.5,2492.5C 2418.84,2467.15 2426.17,2441.82 2433.5,2416.5C 2445.02,2414.74 2455.35,2410.24 2464.5,2403C 2503.5,2366.67 2542.5,2330.33 2581.5,2294C 2588.49,2283.48 2598.16,2277.32 2610.5,2275.5 Z"/></g>
<g><path style="opacity:1" fill="#018f3d" d="M 3548.5,2352.5 C 3558.41,2432.81 3568.25,2513.14 3578,2593.5C 3590.02,2699.51 3594.69,2805.84 3592,2912.5C 3590.4,2955.62 3587.24,2998.62 3582.5,3041.5C 3583.51,3049.84 3588.17,3054.51 3596.5,3055.5C 3599.91,2995.2 3602.74,2934.86 3605,2874.5C 3606.79,2864.7 3612.29,2857.87 3621.5,2854C 3639.92,2850.85 3658.25,2847.18 3676.5,2843C 3686.72,2839.56 3696.06,2834.56 3704.5,2828C 3701.83,2827.33 3699.17,2827.33 3696.5,2828C 3673.8,2831.78 3651.13,2835.78 3628.5,2840C 3610.64,2849.16 3602.8,2843.66 3605,2823.5C 3606.83,2819 3610,2815.83 3614.5,2814C 3630.15,2811.39 3645.82,2808.73 3661.5,2806C 3665.22,2804.82 3668.88,2803.49 3672.5,2802C 3682.57,2795.6 3692.91,2789.6 3703.5,2784C 3707.61,2779.55 3707.28,2778.88 3702.5,2782C 3696.48,2781.88 3691.82,2784.21 3688.5,2789C 3673.86,2791.46 3659.19,2793.8 3644.5,2796C 3637.12,2797.74 3629.78,2799.74 3622.5,2802C 3612.21,2804.1 3606.38,2799.94 3605,2789.5C 3602.12,2737.41 3598.12,2685.41 3593,2633.5C 3583.19,2542.03 3572.69,2450.7 3561.5,2359.5C 3571.36,2363.02 3579.86,2368.69 3587,2376.5C 3599.93,2393.95 3606.93,2413.62 3608,2435.5C 3619.32,2538.7 3629.32,2642.04 3638,2745.5C 3638.54,2755.69 3643.38,2762.85 3652.5,2767C 3672.55,2772.43 3688.71,2766.93 3701,2750.5C 3706.83,2739.18 3710.5,2727.18 3712,2714.5C 3713.75,2696.18 3715.42,2677.84 3717,2659.5C 3718.1,2639.87 3722.1,2620.87 3729,2602.5C 3731.3,2597.72 3734.14,2593.39 3737.5,2589.5C 3738.98,2641.2 3738.82,2692.86 3737,2744.5C 3741.63,2725.78 3744.29,2706.78 3745,2687.5C 3745.25,2651.83 3745.08,2616.17 3744.5,2580.5C 3743.84,2577.54 3743.51,2574.54 3743.5,2571.5C 3749.93,2567.58 3756.27,2563.42 3762.5,2559C 3772.15,2553.04 3782.15,2552.21 3792.5,2556.5C 3793.15,2570.93 3793.82,2585.26 3794.5,2599.5C 3796.26,2643.53 3795.76,2687.53 3793,2731.5C 3791.86,2747.94 3789.86,2764.28 3787,2780.5C 3782.06,2785.05 3779.9,2790.72 3780.5,2797.5C 3786.47,2788.68 3792.3,2779.68 3798,2770.5C 3799.98,2764.65 3801.31,2758.65 3802,2752.5C 3804.78,2710.02 3806.94,2667.52 3808.5,2625C 3808.74,2602.68 3807.07,2580.52 3803.5,2558.5C 3814.64,2563.15 3821.14,2571.48 3823,2583.5C 3823.8,2623.89 3825.8,2664.22 3829,2704.5C 3831.9,2743.17 3828.23,2781.17 3818,2818.5C 3804.13,2858.63 3775.79,2877.96 3733,2876.5C 3723.84,2875.74 3714.67,2875.58 3705.5,2876C 3699.07,2876.89 3693.4,2879.39 3688.5,2883.5C 3673.15,2880.26 3662.31,2885.93 3656,2900.5C 3646.17,2926.15 3643.5,2952.48 3648,2979.5C 3648.58,2982.57 3649.75,2985.24 3651.5,2987.5C 3649.94,3017.81 3648.6,3048.14 3647.5,3078.5C 3622.79,3078.05 3598.13,3078.71 3573.5,3080.5C 3555.57,3082.07 3547.74,3074.07 3550,3056.5C 3551.21,3052.38 3552.71,3048.38 3554.5,3044.5C 3551.91,3043.52 3549.25,3043.19 3546.5,3043.5C 3544.82,3070.67 3530.32,3083 3503,3080.5C 3483.17,3079.71 3463.34,3079.38 3443.5,3079.5C 3443.67,3068.49 3443.5,3057.49 3443,3046.5C 3441.08,3033.8 3434.24,3024.97 3422.5,3020C 3415.73,3017.45 3408.73,3015.95 3401.5,3015.5C 3401.5,3014.5 3401.5,3013.5 3401.5,3012.5C 3407.7,2978.81 3414.04,2945.14 3420.5,2911.5C 3426.9,2919.41 3433.9,2926.91 3441.5,2934C 3454.15,2944.17 3468.48,2947.67 3484.5,2944.5C 3501.06,2944.15 3511.89,2936.15 3517,2920.5C 3517.96,2914.85 3518.8,2909.18 3519.5,2903.5C 3517.84,2874.11 3515.34,2844.77 3512,2815.5C 3509.9,2799.89 3507.07,2784.56 3503.5,2769.5C 3495.65,2734.42 3487.48,2699.42 3479,2664.5C 3475.13,2644.15 3471.13,2623.81 3467,2603.5C 3460.06,2562.78 3455.9,2521.78 3454.5,2480.5C 3452.88,2433.46 3468.21,2393.13 3500.5,2359.5C 3502.44,2360.15 3504.44,2360.48 3506.5,2360.5C 3495.64,2398.01 3490.31,2436.34 3490.5,2475.5C 3491.08,2511.46 3494.58,2547.12 3501,2582.5C 3512.43,2639.54 3525.76,2696.21 3541,2752.5C 3546.14,2774.45 3550.98,2796.45 3555.5,2818.5C 3555.5,2865.5 3555.5,2912.5 3555.5,2959.5C 3557.5,2959.5 3559.5,2959.5 3561.5,2959.5C 3561.5,2912.5 3561.5,2865.5 3561.5,2818.5C 3562.02,2803.37 3560.86,2788.37 3558,2773.5C 3545.13,2723.88 3532.46,2674.22 3520,2624.5C 3505.81,2564.95 3500.14,2504.61 3503,2443.5C 3505.41,2413.55 3510.91,2384.22 3519.5,2355.5C 3522.65,2353.43 3525.98,2351.59 3529.5,2350C 3536.36,2347.62 3542.69,2348.46 3548.5,2352.5 Z"/></g>
<g><path style="opacity:1" fill="#014263" d="M 3548.5,2352.5 C 3553.32,2354.07 3557.65,2356.41 3561.5,2359.5C 3572.69,2450.7 3583.19,2542.03 3593,2633.5C 3598.12,2685.41 3602.12,2737.41 3605,2789.5C 3606.38,2799.94 3612.21,2804.1 3622.5,2802C 3629.78,2799.74 3637.12,2797.74 3644.5,2796C 3659.19,2793.8 3673.86,2791.46 3688.5,2789C 3691.82,2784.21 3696.48,2781.88 3702.5,2782C 3707.28,2778.88 3707.61,2779.55 3703.5,2784C 3692.91,2789.6 3682.57,2795.6 3672.5,2802C 3668.88,2803.49 3665.22,2804.82 3661.5,2806C 3645.82,2808.73 3630.15,2811.39 3614.5,2814C 3610,2815.83 3606.83,2819 3605,2823.5C 3602.8,2843.66 3610.64,2849.16 3628.5,2840C 3651.13,2835.78 3673.8,2831.78 3696.5,2828C 3699.17,2827.33 3701.83,2827.33 3704.5,2828C 3696.06,2834.56 3686.72,2839.56 3676.5,2843C 3658.25,2847.18 3639.92,2850.85 3621.5,2854C 3612.29,2857.87 3606.79,2864.7 3605,2874.5C 3602.74,2934.86 3599.91,2995.2 3596.5,3055.5C 3588.17,3054.51 3583.51,3049.84 3582.5,3041.5C 3587.24,2998.62 3590.4,2955.62 3592,2912.5C 3594.69,2805.84 3590.02,2699.51 3578,2593.5C 3568.25,2513.14 3558.41,2432.81 3548.5,2352.5 Z"/></g>
<g><path style="opacity:1" fill="#014263" d="M 3519.5,2355.5 C 3510.91,2384.22 3505.41,2413.55 3503,2443.5C 3500.14,2504.61 3505.81,2564.95 3520,2624.5C 3532.46,2674.22 3545.13,2723.88 3558,2773.5C 3560.86,2788.37 3562.02,2803.37 3561.5,2818.5C 3559.5,2818.5 3557.5,2818.5 3555.5,2818.5C 3550.98,2796.45 3546.14,2774.45 3541,2752.5C 3525.76,2696.21 3512.43,2639.54 3501,2582.5C 3494.58,2547.12 3491.08,2511.46 3490.5,2475.5C 3490.31,2436.34 3495.64,2398.01 3506.5,2360.5C 3510.95,2359.11 3515.28,2357.44 3519.5,2355.5 Z"/></g>
<g><path style="opacity:1" fill="#14004f" d="M 947.5,2454.5 C 950.167,2454.5 952.833,2454.5 955.5,2454.5C 954.316,2464.3 957.316,2472.46 964.5,2479C 975.307,2482.96 986.307,2486.29 997.5,2489C 1001.98,2492.47 1004.48,2496.97 1005,2502.5C 989.898,2495.63 974.065,2493.13 957.5,2495C 947.16,2498.01 939.993,2504.51 936,2514.5C 932.852,2523.24 930.852,2532.24 930,2541.5C 927.57,2536.45 926.404,2531.11 926.5,2525.5C 927.062,2517.07 928.228,2508.74 930,2500.5C 931.31,2493.13 930.31,2486.13 927,2479.5C 924.486,2476.32 921.986,2473.16 919.5,2470C 920.76,2466.41 923.093,2463.74 926.5,2462C 933.701,2459.77 940.701,2457.27 947.5,2454.5 Z"/></g>
<g><path style="opacity:1" fill="#fe755c" d="M 2411.5,2492.5 C 2416.34,2506.17 2422.84,2519.17 2431,2531.5C 2444.96,2548.46 2459.29,2565.13 2474,2581.5C 2480.61,2591.78 2487.61,2601.78 2495,2611.5C 2496.2,2613.68 2496.7,2616.01 2496.5,2618.5C 2458.17,2619.33 2419.84,2619.67 2381.5,2619.5C 2391.34,2577.13 2401.34,2534.8 2411.5,2492.5 Z"/></g>
<g><path style="opacity:1" fill="#b24efd" d="M 1056.5,2514.5 C 1056.5,2549.83 1056.5,2585.17 1056.5,2620.5C 1051.49,2623.68 1047.32,2627.68 1044,2632.5C 1044.43,2642.82 1044.43,2653.15 1044,2663.5C 1043.46,2666.53 1042.79,2669.53 1042,2672.5C 1035.72,2687.72 1028.39,2702.39 1020,2716.5C 1016.54,2723.54 1013.88,2730.87 1012,2738.5C 1009.08,2742.09 1005.58,2744.92 1001.5,2747C 988.747,2752.33 977.913,2749.83 969,2739.5C 966.489,2733.66 963.156,2728.32 959,2723.5C 950.667,2715.83 942.333,2708.17 934,2700.5C 926.418,2692.33 922.418,2682.67 922,2671.5C 921.215,2669.71 920.049,2668.21 918.5,2667C 911.404,2664.62 904.404,2661.95 897.5,2659C 891.556,2655.28 887.389,2650.12 885,2643.5C 882.183,2631.34 880.683,2619 880.5,2606.5C 878.812,2598.5 881.145,2592 887.5,2587C 905.323,2581.61 922.989,2575.61 940.5,2569C 968.567,2556.13 996.234,2542.47 1023.5,2528C 1034.3,2522.93 1045.3,2518.43 1056.5,2514.5 Z"/></g>
<g><path style="opacity:1" fill="#0b6d57" d="M 3792.5,2556.5 C 3793.49,2556.33 3794.16,2556.66 3794.5,2557.5C 3794.5,2571.5 3794.5,2585.5 3794.5,2599.5C 3793.82,2585.26 3793.15,2570.93 3792.5,2556.5 Z"/></g>
<g><path style="opacity:1" fill="#014263" d="M 3794.5,2557.5 C 3797.71,2557.19 3800.71,2557.52 3803.5,2558.5C 3807.07,2580.52 3808.74,2602.68 3808.5,2625C 3806.94,2667.52 3804.78,2710.02 3802,2752.5C 3801.31,2758.65 3799.98,2764.65 3798,2770.5C 3792.3,2779.68 3786.47,2788.68 3780.5,2797.5C 3779.9,2790.72 3782.06,2785.05 3787,2780.5C 3789.86,2764.28 3791.86,2747.94 3793,2731.5C 3795.76,2687.53 3796.26,2643.53 3794.5,2599.5C 3794.5,2585.5 3794.5,2571.5 3794.5,2557.5 Z"/></g>
<g><path style="opacity:1" fill="#13084d" d="M 3744.5,2580.5 C 3745.08,2616.17 3745.25,2651.83 3745,2687.5C 3744.29,2706.78 3741.63,2725.78 3737,2744.5C 3738.82,2692.86 3738.98,2641.2 3737.5,2589.5C 3739.48,2586.19 3741.82,2583.19 3744.5,2580.5 Z"/></g>
<g><path style="opacity:1" fill="#fcfcfc" d="M 2496.5,2618.5 C 2534.5,2618.5 2572.5,2618.5 2610.5,2618.5C 2618.97,2619.84 2627.64,2620.67 2636.5,2621C 2667.68,2621.83 2698.68,2621.33 2729.5,2619.5C 2855.83,2618.97 2982.17,2618.63 3108.5,2618.5C 3204.5,2618.98 3300.5,2619.48 3396.5,2620C 3405.57,2620.42 3414.57,2621.42 3423.5,2623C 3434.07,2624.93 3442.57,2630.1 3449,2638.5C 3454.89,2650.51 3456.89,2663.18 3455,2676.5C 3443.44,2754.82 3431.94,2833.16 3420.5,2911.5C 3414.04,2945.14 3407.7,2978.81 3401.5,3012.5C 3399.84,3028 3398.34,3043.66 3397,3059.5C 3385.45,3136.84 3373.95,3214.17 3362.5,3291.5C 3354.56,3292.99 3346.56,3294.15 3338.5,3295C 2894.15,3295.83 2449.81,3295.66 2005.5,3294.5C 2001.27,3279.46 2006.27,3268.96 2020.5,3263C 2076.83,3262.67 2133.17,3262.33 2189.5,3262C 2195.26,3261.52 2200.92,3260.52 2206.5,3259C 2213.11,3255.97 2216.94,3250.8 2218,3243.5C 2220.16,3231.93 2221.32,3220.26 2221.5,3208.5C 2223.06,3204.31 2224.56,3199.98 2226,3195.5C 2247.57,3057.97 2268.24,2920.3 2288,2782.5C 2294.36,2739.72 2301.36,2697.05 2309,2654.5C 2311.61,2642.08 2318.44,2632.91 2329.5,2627C 2346.55,2622.73 2363.88,2620.23 2381.5,2619.5C 2419.84,2619.67 2458.17,2619.33 2496.5,2618.5 Z"/></g>
<g><path style="opacity:1" fill="#fe745c" d="M 1417.5,2671.5 C 1459.21,2699.7 1500.54,2728.53 1541.5,2758C 1591.04,2792.45 1643.7,2821.78 1699.5,2846C 1704.49,2849.62 1706.32,2854.46 1705,2860.5C 1696.81,2901.77 1687.48,2942.77 1677,2983.5C 1670.06,3001.98 1663.73,3020.65 1658,3039.5C 1656.38,3047.88 1658.55,3055.04 1664.5,3061C 1671.33,3065.41 1678.66,3068.75 1686.5,3071C 1814.94,3105.73 1939.28,3151.4 2059.5,3208C 2088.97,3220.47 2119.63,3225.13 2151.5,3222C 2174.82,3217.44 2198.16,3212.94 2221.5,3208.5C 2221.32,3220.26 2220.16,3231.93 2218,3243.5C 2216.94,3250.8 2213.11,3255.97 2206.5,3259C 2200.92,3260.52 2195.26,3261.52 2189.5,3262C 2133.17,3262.33 2076.83,3262.67 2020.5,3263C 2006.27,3268.96 2001.27,3279.46 2005.5,3294.5C 2003.8,3294.69 2002.47,3295.52 2001.5,3297C 1876.84,3298.48 1752.17,3298.81 1627.5,3298C 1602.13,3297.63 1576.8,3296.79 1551.5,3295.5C 1552.91,3285.13 1548.58,3278.97 1538.5,3277C 1489.83,3276.45 1441.17,3275.95 1392.5,3275.5C 1403.7,3270.97 1413.54,3264.31 1422,3255.5C 1425.99,3246.87 1429.99,3238.2 1434,3229.5C 1440.03,3220.8 1447.87,3214.3 1457.5,3210C 1472.66,3204.75 1487.33,3198.42 1501.5,3191C 1526.16,3174.02 1538.16,3150.35 1537.5,3120C 1538.73,3086.63 1524.39,3062.96 1494.5,3049C 1482.4,3044.56 1470.07,3040.89 1457.5,3038C 1450.39,3036.04 1445.89,3031.54 1444,3024.5C 1443.86,3016.16 1443.86,3007.83 1444,2999.5C 1442.5,2995.33 1439.67,2992.5 1435.5,2991C 1427.88,2989.93 1420.22,2989.43 1412.5,2989.5C 1378.17,2990.08 1343.84,2990.08 1309.5,2989.5C 1339.74,2881.46 1375.74,2775.46 1417.5,2671.5 Z"/></g>
<g><path style="opacity:1" fill="#fe8875" d="M 3503.5,2769.5 C 3507.07,2784.56 3509.9,2799.89 3512,2815.5C 3515.34,2844.77 3517.84,2874.11 3519.5,2903.5C 3518.8,2909.18 3517.96,2914.85 3517,2920.5C 3511.89,2936.15 3501.06,2944.15 3484.5,2944.5C 3486.88,2889.5 3489.38,2834.5 3492,2779.5C 3492.91,2772.75 3496.75,2769.42 3503.5,2769.5 Z"/></g>
<g><path style="opacity:1" fill="#014363" d="M 3780.5,2797.5 C 3777.92,2802.8 3773.59,2805.64 3767.5,2806C 3763.6,2810.57 3758.6,2812.9 3752.5,2813C 3744.01,2821.83 3733.67,2825.5 3721.5,2824C 3724.22,2819.62 3727.88,2816.28 3732.5,2814C 3739.05,2812.14 3745.72,2810.81 3752.5,2810C 3756.05,2805.6 3760.72,2803.26 3766.5,2803C 3769.9,2798.14 3774.57,2796.31 3780.5,2797.5 Z"/></g>
<g><path style="opacity:1" fill="#12044e" d="M 3555.5,2818.5 C 3557.5,2818.5 3559.5,2818.5 3561.5,2818.5C 3561.5,2865.5 3561.5,2912.5 3561.5,2959.5C 3559.5,2959.5 3557.5,2959.5 3555.5,2959.5C 3555.5,2912.5 3555.5,2865.5 3555.5,2818.5 Z"/></g>
<g><path style="opacity:1" fill="#b452fe" d="M 2878.5,2861.5 C 2915.54,2861.71 2938.71,2879.71 2948,2915.5C 2948.94,2949.13 2933.78,2971.96 2902.5,2984C 2861.83,2989.24 2835.99,2972.08 2825,2932.5C 2823.59,2901.6 2836.76,2879.43 2864.5,2866C 2869.31,2864.55 2873.98,2863.05 2878.5,2861.5 Z"/></g>
<g><path style="opacity:1" fill="#fcfbfd" d="M 2880.5,2875.5 C 2900.67,2874.67 2916.17,2882.67 2927,2899.5C 2938.51,2920.23 2936.34,2939.39 2920.5,2957C 2900.97,2972.9 2880.31,2974.57 2858.5,2962C 2843.6,2949.31 2837.76,2933.14 2841,2913.5C 2846.56,2892.77 2859.73,2880.1 2880.5,2875.5 Z"/></g>
<g><path style="opacity:0.984" fill="#fe796a" d="M 3688.5,2883.5 C 3680.83,2909.18 3672.99,2934.85 3665,2960.5C 3661.01,2969.81 3656.51,2978.81 3651.5,2987.5C 3649.75,2985.24 3648.58,2982.57 3648,2979.5C 3643.5,2952.48 3646.17,2926.15 3656,2900.5C 3662.31,2885.93 3673.15,2880.26 3688.5,2883.5 Z"/></g>
<g><path style="opacity:1" fill="#014263" d="M 3526.5,2981.5 C 3533.84,2981.33 3541.17,2981.5 3548.5,2982C 3552.88,2984.97 3554.88,2989.13 3554.5,2994.5C 3532.5,2994.67 3510.5,2994.5 3488.5,2994C 3478.93,2992.61 3469.6,2990.27 3460.5,2987C 3469.4,2988.38 3478.4,2988.71 3487.5,2988C 3500.71,2986.25 3513.71,2984.09 3526.5,2981.5 Z"/></g>
<g><path style="opacity:1" fill="#004164" d="M 1309.5,2989.5 C 1343.84,2990.08 1378.17,2990.08 1412.5,2989.5C 1420.22,2989.43 1427.88,2989.93 1435.5,2991C 1439.67,2992.5 1442.5,2995.33 1444,2999.5C 1443.86,3007.83 1443.86,3016.16 1444,3024.5C 1445.89,3031.54 1450.39,3036.04 1457.5,3038C 1470.07,3040.89 1482.4,3044.56 1494.5,3049C 1524.39,3062.96 1538.73,3086.63 1537.5,3120C 1538.16,3150.35 1526.16,3174.02 1501.5,3191C 1487.33,3198.42 1472.66,3204.75 1457.5,3210C 1447.87,3214.3 1440.03,3220.8 1434,3229.5C 1429.99,3238.2 1425.99,3246.87 1422,3255.5C 1413.54,3264.31 1403.7,3270.97 1392.5,3275.5C 1305.17,3276.56 1217.84,3276.73 1130.5,3276C 1122.91,3273.72 1115.24,3271.88 1107.5,3270.5C 1087.31,3248.44 1075.48,3222.44 1072,3192.5C 1072.05,3159.83 1072.55,3127.16 1073.5,3094.5C 1073.45,3069.65 1072.78,3044.82 1071.5,3020C 1070.24,3006.28 1076.24,2997.95 1089.5,2995C 1155.17,2995.44 1220.84,2995.6 1286.5,2995.5C 1294.87,2995.77 1302.54,2993.77 1309.5,2989.5 Z"/></g>
<g><path style="opacity:1" fill="#02a7d0" d="M 3401.5,3012.5 C 3401.5,3013.5 3401.5,3014.5 3401.5,3015.5C 3408.73,3015.95 3415.73,3017.45 3422.5,3020C 3434.24,3024.97 3441.08,3033.8 3443,3046.5C 3443.5,3057.49 3443.67,3068.49 3443.5,3079.5C 3435.8,3080 3428.14,3080.84 3420.5,3082C 3409.78,3082.72 3404.78,3088.38 3405.5,3099C 3414.42,3156.46 3424.92,3213.63 3437,3270.5C 3437.86,3276.59 3437.53,3282.59 3436,3288.5C 3430.32,3291.87 3424.15,3293.2 3417.5,3292.5C 3399.18,3291.65 3380.84,3291.32 3362.5,3291.5C 3373.95,3214.17 3385.45,3136.84 3397,3059.5C 3398.34,3043.66 3399.84,3028 3401.5,3012.5 Z"/></g>
<g><path style="opacity:1" fill="#004164" d="M 3647.5,3078.5 C 3657.58,3079.9 3667.58,3079.4 3677.5,3077C 3706.9,3071.4 3718.4,3083.23 3712,3112.5C 3701.45,3172.69 3692.12,3233.03 3684,3293.5C 3684.47,3294.93 3685.3,3296.1 3686.5,3297C 3704.55,3299.15 3722.55,3298.98 3740.5,3296.5C 3758.56,3296.27 3769.4,3304.93 3773,3322.5C 3775.81,3337.22 3773.81,3351.22 3767,3364.5C 3760.46,3371.69 3752.29,3375.52 3742.5,3376C 3634.84,3375.69 3527.17,3375.19 3419.5,3374.5C 3415.71,3370.78 3411.04,3368.78 3405.5,3368.5C 3398.69,3369.38 3391.86,3370.04 3385,3370.5C 2442.33,3369.17 1499.67,3369.17 557,3370.5C 551.153,3369.96 545.32,3369.29 539.5,3368.5C 533.388,3368.76 528.055,3370.76 523.5,3374.5C 477.828,3375.17 432.162,3375.67 386.5,3376C 371.216,3372.71 363.05,3363.21 362,3347.5C 359.517,3335.63 360.184,3323.96 364,3312.5C 368.172,3303.34 375.339,3298.51 385.5,3298C 391.833,3297.67 398.167,3297.33 404.5,3297C 407.659,3295.67 409.992,3293.51 411.5,3290.5C 594.167,3290.5 776.833,3290.5 959.5,3290.5C 962.397,3292.78 965.73,3294.28 969.5,3295C 1163.5,3295.5 1357.5,3295.67 1551.5,3295.5C 1576.8,3296.79 1602.13,3297.63 1627.5,3298C 1752.17,3298.81 1876.84,3298.48 2001.5,3297C 2002.47,3295.52 2003.8,3294.69 2005.5,3294.5C 2449.81,3295.66 2894.15,3295.83 3338.5,3295C 3346.56,3294.15 3354.56,3292.99 3362.5,3291.5C 3380.84,3291.32 3399.18,3291.65 3417.5,3292.5C 3424.15,3293.2 3430.32,3291.87 3436,3288.5C 3437.53,3282.59 3437.86,3276.59 3437,3270.5C 3424.92,3213.63 3414.42,3156.46 3405.5,3099C 3404.78,3088.38 3409.78,3082.72 3420.5,3082C 3428.14,3080.84 3435.8,3080 3443.5,3079.5C 3463.34,3079.38 3483.17,3079.71 3503,3080.5C 3530.32,3083 3544.82,3070.67 3546.5,3043.5C 3549.25,3043.19 3551.91,3043.52 3554.5,3044.5C 3552.71,3048.38 3551.21,3052.38 3550,3056.5C 3547.74,3074.07 3555.57,3082.07 3573.5,3080.5C 3598.13,3078.71 3622.79,3078.05 3647.5,3078.5 Z"/></g>
<g><path style="opacity:1" fill="#fd745c" d="M 1454.5,3073.5 C 1469.61,3072.81 1481.78,3078.47 1491,3090.5C 1498.91,3099.15 1503.74,3109.32 1505.5,3121C 1500.85,3138.29 1491.85,3152.95 1478.5,3165C 1470.42,3171.43 1461.42,3173.09 1451.5,3170C 1446.45,3168.28 1443.62,3164.78 1443,3159.5C 1444.36,3141.54 1444.86,3123.54 1444.5,3105.5C 1443.97,3099.48 1443.3,3093.48 1442.5,3087.5C 1443.35,3079.99 1447.35,3075.33 1454.5,3073.5 Z"/></g>
<g><path style="opacity:1" fill="#14004e" d="M 758.5,3208.5 C 761.649,3208.21 764.649,3208.71 767.5,3210C 776.779,3220.39 783.612,3232.22 788,3245.5C 788.867,3249.96 788.534,3254.29 787,3258.5C 785.786,3260.05 784.286,3261.22 782.5,3262C 773.5,3262.33 764.5,3262.67 755.5,3263C 747.895,3264.92 740.228,3266.59 732.5,3268C 724.798,3268.73 717.131,3268.56 709.5,3267.5C 711.448,3258.6 715.281,3250.6 721,3243.5C 733.098,3231.24 745.598,3219.57 758.5,3208.5 Z"/></g>
<g><path style="opacity:1" fill="#a6effe" d="M 1107.5,3270.5 C 1115.24,3271.88 1122.91,3273.72 1130.5,3276C 1217.84,3276.73 1305.17,3276.56 1392.5,3275.5C 1441.17,3275.95 1489.83,3276.45 1538.5,3277C 1548.58,3278.97 1552.91,3285.13 1551.5,3295.5C 1357.5,3295.67 1163.5,3295.5 969.5,3295C 965.73,3294.28 962.397,3292.78 959.5,3290.5C 962.094,3282.74 967.427,3277.91 975.5,3276C 1011.84,3274.69 1048.18,3273.52 1084.5,3272.5C 1092.15,3271.67 1099.82,3271.01 1107.5,3270.5 Z"/></g>
<g><path style="opacity:0.999" fill="#fe7769" d="M 3419.5,3374.5 C 3312.77,3479.43 3194.77,3569.27 3065.5,3644C 2898.95,3734.19 2722.95,3799.52 2537.5,3840C 2369.31,3876.5 2199.14,3894.34 2027,3893.5C 1851.06,3891.73 1675.9,3879.23 1501.5,3856C 1397.79,3841.66 1295.45,3820.66 1194.5,3793C 1060.22,3753.02 934.558,3695.02 817.5,3619C 709.919,3549.64 611.919,3468.14 523.5,3374.5C 528.055,3370.76 533.388,3368.76 539.5,3368.5C 545.32,3369.29 551.153,3369.96 557,3370.5C 1499.67,3369.17 2442.33,3369.17 3385,3370.5C 3391.86,3370.04 3398.69,3369.38 3405.5,3368.5C 3411.04,3368.78 3415.71,3370.78 3419.5,3374.5 Z"/></g>
<g><path style="opacity:0.859" fill="#aaebf7" d="M 611.5,3578.5 C 615.782,3579.66 616.115,3580.99 612.5,3582.5C 607.854,3581.6 607.52,3580.27 611.5,3578.5 Z"/></g>
</svg>
