<?xml version="1.0" encoding="UTF-8"?>
<!DOCTYPE svg PUBLIC "-//W3C//DTD SVG 1.1//EN" "http://www.w3.org/Graphics/SVG/1.1/DTD/svg11.dtd">
<svg xmlns="http://www.w3.org/2000/svg" version="1.1" width="150px" height="165px" style="shape-rendering:geometricPrecision; text-rendering:geometricPrecision; image-rendering:optimizeQuality; fill-rule:evenodd; clip-rule:evenodd" xmlns:xlink="http://www.w3.org/1999/xlink">
<g><path style="opacity:0.878" fill="#b5a488" d="M 45.5,5.5 C 39.9005,4.85981 34.4005,4.52648 29,4.5C 27.9701,4.83611 27.4701,5.50278 27.5,6.5C 26.8501,6.19607 26.1835,5.86273 25.5,5.5C 25.5105,6.44145 25.0105,7.10812 24,7.5C 22.5936,6.58618 21.0936,5.91951 19.5,5.5C 28.1785,1.59201 36.8452,1.59201 45.5,5.5 Z"/></g>
<g><path style="opacity:1" fill="#97641f" d="M 107.5,2.5 C 108.609,3.28997 109.942,3.78997 111.5,4C 109.291,4.95697 109.457,6.12364 112,7.5C 112.417,6.24402 113.25,5.57735 114.5,5.5C 113.374,6.85832 113.374,8.19165 114.5,9.5C 115.324,7.25244 116.324,7.08577 117.5,9C 115.679,11.1366 113.346,11.9699 110.5,11.5C 110.167,11.5 109.833,11.5 109.5,11.5C 105.971,12.1106 104.138,10.7773 104,7.5C 106.157,10.0782 107.323,10.0782 107.5,7.5C 108.451,8.32557 109.451,8.49224 110.5,8C 109.333,6.83333 108.167,5.66667 107,4.5C 106.667,5.16667 106.333,5.83333 106,6.5C 103.873,6.45213 101.706,6.28546 99.5,6C 97.4106,7.57214 97.4106,9.40547 99.5,11.5C 99.2907,12.086 98.9574,12.586 98.5,13C 96.5,13.6667 94.5,13.6667 92.5,13C 93.646,12.3551 94.646,11.5217 95.5,10.5C 96.086,10.7093 96.586,11.0426 97,11.5C 97.2649,9.8374 96.7649,8.3374 95.5,7C 96.6467,5.7189 96.3134,5.38556 94.5,6C 93.9535,6.92458 93.2868,7.75792 92.5,8.5C 91.3132,7.34732 90.3132,7.34732 89.5,8.5C 87.9139,7.58679 86.4139,7.58679 85,8.5C 84.7265,10.3289 83.8932,11.8289 82.5,13C 82.9574,13.414 83.2907,13.914 83.5,14.5C 82.3539,15.7187 81.3539,17.0521 80.5,18.5C 80.1667,18 79.8333,17.5 79.5,17C 81.2783,14.775 81.7783,12.275 81,9.5C 80.3333,10.8333 79.3333,11.8333 78,12.5C 76.2933,11.8617 74.46,11.8617 72.5,12.5C 70.9616,8.91632 69.6283,8.91632 68.5,12.5C 68.7093,13.086 69.0426,13.586 69.5,14C 67.1195,14.7385 65.1195,14.2385 63.5,12.5C 63.5,11.5 63.5,10.5 63.5,9.5C 64.5,9.5 65.5,9.5 66.5,9.5C 66.5,8.5 66.5,7.5 66.5,6.5C 68.5841,7.24834 70.5841,7.24834 72.5,6.5C 72.8333,7.16667 73.1667,7.83333 73.5,8.5C 74.4287,7.31116 74.762,5.97782 74.5,4.5C 75.552,4.64945 76.552,4.48278 77.5,4C 76.3044,3.34569 76.3044,2.84569 77.5,2.5C 79.4461,4.08698 80.9461,3.75365 82,1.5C 83.3333,2.83333 84.6667,2.83333 86,1.5C 88.1734,4.27697 88.6734,4.11031 87.5,1C 88,0.833333 88.5,0.666667 89,0.5C 91.5895,1.99424 92.5895,3.99424 92,6.5C 93.7387,4.71656 95.5721,3.04989 97.5,1.5C 98.3333,2.5 99.1667,3.5 100,4.5C 100.691,2.10882 101.691,2.10882 103,4.5C 104.049,2.89339 105.549,2.22672 107.5,2.5 Z"/></g>
<g><path style="opacity:0.404" fill="#c8b899" d="M 107.5,2.5 C 111.544,2.84355 115.544,3.51022 119.5,4.5C 122.605,3.65216 125.605,3.98549 128.5,5.5C 127.778,5.91753 127.278,6.5842 127,7.5C 126.617,6.94404 126.117,6.61071 125.5,6.5C 122.042,5.63558 118.376,5.30225 114.5,5.5C 113.25,5.57735 112.417,6.24402 112,7.5C 109.457,6.12364 109.291,4.95697 111.5,4C 109.942,3.78997 108.609,3.28997 107.5,2.5 Z"/></g>
<g><path style="opacity:0.357" fill="#e3d6b4" d="M 19.5,5.5 C 20.8706,9.05825 20.204,9.39159 17.5,6.5C 16.4376,7.42463 16.4376,8.42463 17.5,9.5C 15.9557,9.29689 14.6223,8.63023 13.5,7.5C 12.2638,8.24585 10.9305,8.57918 9.5,8.5C 12.381,6.32003 15.7144,5.32003 19.5,5.5 Z"/></g>
<g><path style="opacity:0.78" fill="#c1a474" d="M 81.5,-0.5 C 86.5,-0.5 91.5,-0.5 96.5,-0.5C 96.8333,0.833333 97.1667,0.833333 97.5,-0.5C 97.8333,-0.5 98.1667,-0.5 98.5,-0.5C 101.647,0.0455765 104.647,1.04558 107.5,2.5C 105.549,2.22672 104.049,2.89339 103,4.5C 101.691,2.10882 100.691,2.10882 100,4.5C 99.1667,3.5 98.3333,2.5 97.5,1.5C 95.5721,3.04989 93.7387,4.71656 92,6.5C 92.5895,3.99424 91.5895,1.99424 89,0.5C 88.5,0.666667 88,0.833333 87.5,1C 88.6734,4.11031 88.1734,4.27697 86,1.5C 84.6667,2.83333 83.3333,2.83333 82,1.5C 80.9461,3.75365 79.4461,4.08698 77.5,2.5C 76.3044,2.84569 76.3044,3.34569 77.5,4C 76.552,4.48278 75.552,4.64945 74.5,4.5C 74.762,5.97782 74.4287,7.31116 73.5,8.5C 73.1667,7.83333 72.8333,7.16667 72.5,6.5C 70.5841,7.24834 68.5841,7.24834 66.5,6.5C 66.5,7.5 66.5,8.5 66.5,9.5C 65.5,9.5 64.5,9.5 63.5,9.5C 63.5,10.5 63.5,11.5 63.5,12.5C 63.1667,12.5 62.8333,12.5 62.5,12.5C 62.7845,10.5853 62.4511,8.91866 61.5,7.5C 61.8333,6.83333 62.1667,6.16667 62.5,5.5C 68.8358,4.39284 75.1692,2.39284 81.5,-0.5 Z"/></g>
<g><path style="opacity:1" fill="#c49d60" d="M 109.5,11.5 C 103.308,13.5515 96.9751,14.8848 90.5,15.5C 89.515,13.6021 90.1817,12.1021 92.5,11C 91.6266,9.95501 90.6266,9.12167 89.5,8.5C 90.3132,7.34732 91.3132,7.34732 92.5,8.5C 93.2868,7.75792 93.9535,6.92458 94.5,6C 96.3134,5.38556 96.6467,5.7189 95.5,7C 96.7649,8.3374 97.2649,9.8374 97,11.5C 96.586,11.0426 96.086,10.7093 95.5,10.5C 94.646,11.5217 93.646,12.3551 92.5,13C 94.5,13.6667 96.5,13.6667 98.5,13C 98.9574,12.586 99.2907,12.086 99.5,11.5C 97.4106,9.40547 97.4106,7.57214 99.5,6C 101.706,6.28546 103.873,6.45213 106,6.5C 106.333,5.83333 106.667,5.16667 107,4.5C 108.167,5.66667 109.333,6.83333 110.5,8C 109.451,8.49224 108.451,8.32557 107.5,7.5C 107.323,10.0782 106.157,10.0782 104,7.5C 104.138,10.7773 105.971,12.1106 109.5,11.5 Z"/></g>
<g><path style="opacity:1" fill="#8e6219" d="M 19.5,5.5 C 21.0936,5.91951 22.5936,6.58618 24,7.5C 25.0105,7.10812 25.5105,6.44145 25.5,5.5C 26.1835,5.86273 26.8501,6.19607 27.5,6.5C 35.1586,6.2593 42.492,7.59264 49.5,10.5C 48.3112,11.4287 46.9778,11.762 45.5,11.5C 42.3048,9.97041 38.8048,9.30375 35,9.5C 32.3097,9.50291 29.8097,9.83625 27.5,10.5C 27.1667,10.5 26.8333,10.5 26.5,10.5C 25.88,8.02333 24.88,8.02333 23.5,10.5C 21.9522,7.99255 20.9522,8.32588 20.5,11.5C 19.7777,10.4489 18.7777,9.78219 17.5,9.5C 16.4376,8.42463 16.4376,7.42463 17.5,6.5C 20.204,9.39159 20.8706,9.05825 19.5,5.5 Z"/></g>
<g><path style="opacity:0.329" fill="#bfb3a3" d="M 62.5,5.5 C 62.1667,6.16667 61.8333,6.83333 61.5,7.5C 60.8333,7.5 60.5,7.83333 60.5,8.5C 56.1829,8.91661 52.1829,8.24994 48.5,6.5C 51.0021,6.74947 53.5021,7.08281 56,7.5C 58.4418,7.51767 60.6085,6.85101 62.5,5.5 Z"/></g>
<g><path style="opacity:1" fill="#b38d54" d="M 114.5,5.5 C 118.376,5.30225 122.042,5.63558 125.5,6.5C 124.735,7.66023 123.735,8.66023 122.5,9.5C 119.151,8.16969 118.818,8.66969 121.5,11C 120.216,11.6838 119.049,11.5171 118,10.5C 117.5,11 117,11.5 116.5,12C 117.942,12.3768 118.942,13.2101 119.5,14.5C 116.443,13.3674 113.443,12.3674 110.5,11.5C 113.346,11.9699 115.679,11.1366 117.5,9C 116.324,7.08577 115.324,7.25244 114.5,9.5C 113.374,8.19165 113.374,6.85832 114.5,5.5 Z"/></g>
<g><path style="opacity:0.027" fill="#ceb283" d="M 26.5,10.5 C 24.6208,11.3414 22.6208,11.6747 20.5,11.5C 20.9522,8.32588 21.9522,7.99255 23.5,10.5C 24.88,8.02333 25.88,8.02333 26.5,10.5 Z"/></g>
<g><path style="opacity:0.42" fill="#b49d76" d="M 27.5,10.5 C 29.8097,9.83625 32.3097,9.50291 35,9.5C 38.8048,9.30375 42.3048,9.97041 45.5,11.5C 39.523,10.8354 33.523,10.502 27.5,10.5 Z"/></g>
<g><path style="opacity:1" fill="#c29959" d="M 17.5,9.5 C 18.7777,9.78219 19.7777,10.4489 20.5,11.5C 17.5721,12.8167 14.5721,14.15 11.5,15.5C 11.5386,14.2438 11.0386,13.2438 10,12.5C 8.32289,16.0511 5.48956,17.3845 1.5,16.5C 3.28805,12.8962 5.95471,10.2295 9.5,8.5C 10.9305,8.57918 12.2638,8.24585 13.5,7.5C 14.6223,8.63023 15.9557,9.29689 17.5,9.5 Z"/></g>
<g><path style="opacity:1" fill="#9d7a3f" d="M 45.5,5.5 C 46.791,5.26269 47.791,5.59603 48.5,6.5C 52.1829,8.24994 56.1829,8.91661 60.5,8.5C 60.428,10.3109 59.5947,11.6443 58,12.5C 55.5266,11.6162 53.1932,11.2828 51,11.5C 50.5172,12.448 50.3505,13.448 50.5,14.5C 48.079,14.8782 45.7457,15.5448 43.5,16.5C 44.7489,14.8639 46.4156,13.6972 48.5,13C 47.2625,12.7679 46.2625,12.2679 45.5,11.5C 46.9778,11.762 48.3112,11.4287 49.5,10.5C 42.492,7.59264 35.1586,6.2593 27.5,6.5C 27.4701,5.50278 27.9701,4.83611 29,4.5C 34.4005,4.52648 39.9005,4.85981 45.5,5.5 Z"/></g>
<g><path style="opacity:1" fill="#a9895a" d="M 128.5,5.5 C 133.049,6.75925 136.382,9.42592 138.5,13.5C 137.71,14.6085 137.21,15.9419 137,17.5C 135.333,14.5 133.667,11.5 132,8.5C 131.667,8.83333 131.333,9.16667 131,9.5C 129.905,8.30665 129.072,6.97332 128.5,5.5 Z"/></g>
<g><path style="opacity:1" fill="#773d11" d="M 72.5,12.5 C 72.0618,12.4346 71.7284,12.6012 71.5,13C 73.1193,13.2355 74.1193,14.0689 74.5,15.5C 73.8333,15.5 73.1667,15.5 72.5,15.5C 69.6146,15.1936 66.9479,15.5269 64.5,16.5C 63.391,16.5569 62.391,16.8902 61.5,17.5C 61.0618,17.5654 60.7284,17.3988 60.5,17C 62.0368,15.8904 62.7035,14.3904 62.5,12.5C 62.8333,12.5 63.1667,12.5 63.5,12.5C 65.1195,14.2385 67.1195,14.7385 69.5,14C 69.0426,13.586 68.7093,13.086 68.5,12.5C 69.6283,8.91632 70.9616,8.91632 72.5,12.5 Z"/></g>
<g><path style="opacity:1" fill="#915b17" d="M 61.5,7.5 C 62.4511,8.91866 62.7845,10.5853 62.5,12.5C 62.7035,14.3904 62.0368,15.8904 60.5,17C 60.7284,17.3988 61.0618,17.5654 61.5,17.5C 60.6493,19.8816 59.316,21.8816 57.5,23.5C 55.9059,26.7642 53.5725,29.4309 50.5,31.5C 49.8826,31.3893 49.3826,31.056 49,30.5C 48.2131,31.7107 47.5464,32.7107 47,33.5C 44.9803,32.9681 44.147,31.6348 44.5,29.5C 44.5,28.8333 44.8333,28.5 45.5,28.5C 47.5869,27.4154 48.9202,25.7488 49.5,23.5C 49.5,22.8333 49.8333,22.5 50.5,22.5C 52.3793,21.1032 54.0459,19.4365 55.5,17.5C 55.1667,17.1667 54.8333,16.8333 54.5,16.5C 51.873,17.0578 49.5396,18.0578 47.5,19.5C 47.5,20.1667 47.1667,20.5 46.5,20.5C 44.0882,20.3059 43.0882,18.9726 43.5,16.5C 45.7457,15.5448 48.079,14.8782 50.5,14.5C 50.3505,13.448 50.5172,12.448 51,11.5C 53.1932,11.2828 55.5266,11.6162 58,12.5C 59.5947,11.6443 60.428,10.3109 60.5,8.5C 60.5,7.83333 60.8333,7.5 61.5,7.5 Z"/></g>
<g><path style="opacity:1" fill="#cca56a" d="M 89.5,8.5 C 89.8841,10.6648 89.2174,12.3315 87.5,13.5C 86.8076,12.9747 86.3076,12.3081 86,11.5C 86.0432,14.0881 84.8766,16.4214 82.5,18.5C 84.0436,19.6224 85.377,19.289 86.5,17.5C 87.2916,18.6998 87.2916,20.0331 86.5,21.5C 84.1843,20.8401 81.851,20.1734 79.5,19.5C 78.5836,19.5427 77.9169,19.8761 77.5,20.5C 76.9569,20.44 76.6236,20.1067 76.5,19.5C 78.0049,18.1585 78.6715,16.4918 78.5,14.5C 76.8762,14.3601 75.7096,15.0267 75,16.5C 74.6012,16.2716 74.4346,15.9382 74.5,15.5C 74.1193,14.0689 73.1193,13.2355 71.5,13C 71.7284,12.6012 72.0618,12.4346 72.5,12.5C 74.46,11.8617 76.2933,11.8617 78,12.5C 79.3333,11.8333 80.3333,10.8333 81,9.5C 81.7783,12.275 81.2783,14.775 79.5,17C 79.8333,17.5 80.1667,18 80.5,18.5C 81.3539,17.0521 82.3539,15.7187 83.5,14.5C 83.2907,13.914 82.9574,13.414 82.5,13C 83.8932,11.8289 84.7265,10.3289 85,8.5C 86.4139,7.58679 87.9139,7.58679 89.5,8.5 Z"/></g>
<g><path style="opacity:1" fill="#986a2c" d="M 89.5,8.5 C 90.6266,9.12167 91.6266,9.95501 92.5,11C 90.1817,12.1021 89.515,13.6021 90.5,15.5C 90.0523,18.1718 88.719,20.1718 86.5,21.5C 87.2916,20.0331 87.2916,18.6998 86.5,17.5C 85.377,19.289 84.0436,19.6224 82.5,18.5C 84.8766,16.4214 86.0432,14.0881 86,11.5C 86.3076,12.3081 86.8076,12.9747 87.5,13.5C 89.2174,12.3315 89.8841,10.6648 89.5,8.5 Z"/></g>
<g><path style="opacity:0.027" fill="#c6b398" d="M 50.5,22.5 C 50.5106,20.9826 51.1772,19.8159 52.5,19C 50.8925,19.0187 49.2259,19.1854 47.5,19.5C 49.5396,18.0578 51.873,17.0578 54.5,16.5C 54.8333,16.8333 55.1667,17.1667 55.5,17.5C 54.0459,19.4365 52.3793,21.1032 50.5,22.5 Z"/></g>
<g><path style="opacity:0.71" fill="#bcb09c" d="M 138.5,13.5 C 139.117,13.6107 139.617,13.944 140,14.5C 140.147,18.088 140.98,21.4213 142.5,24.5C 141.542,24.0472 140.708,23.3805 140,22.5C 139.637,19.456 139.137,16.456 138.5,13.5 Z"/></g>
<g><path style="opacity:1" fill="#f9c87d" d="M 64.5,16.5 C 66.924,16.1924 69.2573,16.5258 71.5,17.5C 69.7973,20.6467 68.464,23.9801 67.5,27.5C 65.556,28.8007 63.556,29.8007 61.5,30.5C 59.9892,29.0425 58.9892,27.2092 58.5,25C 59.7119,23.8932 59.3786,23.3932 57.5,23.5C 59.316,21.8816 60.6493,19.8816 61.5,17.5C 62.391,16.8902 63.391,16.5569 64.5,16.5 Z"/></g>
<g><path style="opacity:0.984" fill="#c6aa8c" d="M 1.5,16.5 C 1.41423,17.4959 1.74756,18.3292 2.5,19C 0.108816,20.3086 0.108816,21.3086 2.5,22C 1.86174,23.7067 1.86174,25.54 2.5,27.5C 1.14294,26.4097 0.142944,25.0764 -0.5,23.5C -0.5,21.8333 -0.5,20.1667 -0.5,18.5C 0.166667,17.8333 0.833333,17.1667 1.5,16.5 Z"/></g>
<g><path style="opacity:1" fill="#a9824c" d="M 90.5,15.5 C 96.4696,17.818 101.803,21.1513 106.5,25.5C 102.75,24.1544 99.0829,22.9877 95.5,22C 97.0175,23.6851 98.6841,25.1851 100.5,26.5C 99.7573,27.1818 99.0906,27.8485 98.5,28.5C 94.4921,26.1633 90.4921,23.83 86.5,21.5C 88.719,20.1718 90.0523,18.1718 90.5,15.5 Z"/></g>
<g><path style="opacity:1" fill="#946623" d="M 128.5,5.5 C 129.072,6.97332 129.905,8.30665 131,9.5C 131.333,9.16667 131.667,8.83333 132,8.5C 133.667,11.5 135.333,14.5 137,17.5C 137.21,15.9419 137.71,14.6085 138.5,13.5C 139.137,16.456 139.637,19.456 140,22.5C 140.708,23.3805 141.542,24.0472 142.5,24.5C 145.697,27.7326 147.364,31.7326 147.5,36.5C 147.665,39.8499 147.498,43.1832 147,46.5C 146.329,45.7476 145.496,45.4142 144.5,45.5C 143.042,41.9591 141.876,38.2924 141,34.5C 140.617,33.944 140.117,33.6107 139.5,33.5C 138.543,30.8501 136.876,30.1834 134.5,31.5C 130.481,32.7591 126.314,33.7591 122,34.5C 121.228,34.3552 120.561,34.0219 120,33.5C 119.196,34.8045 118.029,35.4712 116.5,35.5C 115.276,33.538 112.943,32.3713 109.5,32C 108.483,30.9505 108.316,29.7839 109,28.5C 110.337,30.0037 112.004,31.0037 114,31.5C 114.617,30.5509 114.451,29.7175 113.5,29C 114.094,28.5357 114.761,28.369 115.5,28.5C 118.241,29.9781 121.075,30.6448 124,30.5C 126.365,29.7109 128.532,28.5442 130.5,27C 132.592,22.5217 131.258,20.0217 126.5,19.5C 123.865,18.1891 121.531,16.5224 119.5,14.5C 118.942,13.2101 117.942,12.3768 116.5,12C 117,11.5 117.5,11 118,10.5C 119.049,11.5171 120.216,11.6838 121.5,11C 118.818,8.66969 119.151,8.16969 122.5,9.5C 123.735,8.66023 124.735,7.66023 125.5,6.5C 126.117,6.61071 126.617,6.94404 127,7.5C 127.278,6.5842 127.778,5.91753 128.5,5.5 Z"/></g>
<g><path style="opacity:1" fill="#a58d71" d="M 49.5,23.5 C 48.9202,25.7488 47.5869,27.4154 45.5,28.5C 46.0798,26.2512 47.4131,24.5846 49.5,23.5 Z"/></g>
<g><path style="opacity:1" fill="#fef7cf" d="M 64.5,20.5 C 65.6935,20.9704 66.3601,21.9704 66.5,23.5C 66.1667,24.5 65.8333,25.5 65.5,26.5C 64.5344,24.604 64.2011,22.604 64.5,20.5 Z"/></g>
<g><path style="opacity:1" fill="#936422" d="M 106.5,25.5 C 106.918,26.2216 107.584,26.7216 108.5,27C 106.726,27.8808 106.06,29.0475 106.5,30.5C 105.086,29.376 103.586,28.376 102,27.5C 101.667,28.1667 101.333,28.8333 101,29.5C 100.329,28.7476 99.4959,28.4142 98.5,28.5C 99.0906,27.8485 99.7573,27.1818 100.5,26.5C 98.6841,25.1851 97.0175,23.6851 95.5,22C 99.0829,22.9877 102.75,24.1544 106.5,25.5 Z"/></g>
<g><path style="opacity:1" fill="#9c6d2d" d="M 11.5,15.5 C 8.25391,17.0093 6.92057,19.3426 7.5,22.5C 9.74447,23.9298 12.2445,24.9298 15,25.5C 23.0083,24.5795 30.8416,22.7462 38.5,20C 39.9423,19.6232 40.9423,18.7899 41.5,17.5C 41.8417,16.6618 42.5084,16.3284 43.5,16.5C 43.0882,18.9726 44.0882,20.3059 46.5,20.5C 40.3855,25.3861 33.3855,28.3861 25.5,29.5C 18.5048,30.7115 11.8381,30.7115 5.5,29.5C 3.97306,29.573 2.97306,28.9063 2.5,27.5C 1.86174,25.54 1.86174,23.7067 2.5,22C 0.108816,21.3086 0.108816,20.3086 2.5,19C 1.74756,18.3292 1.41423,17.4959 1.5,16.5C 5.48956,17.3845 8.32289,16.0511 10,12.5C 11.0386,13.2438 11.5386,14.2438 11.5,15.5 Z"/></g>
<g><path style="opacity:0.914" fill="#ccb89c" d="M 41.5,17.5 C 40.9423,18.7899 39.9423,19.6232 38.5,20C 30.8416,22.7462 23.0083,24.5795 15,25.5C 12.2445,24.9298 9.74447,23.9298 7.5,22.5C 19.2344,23.8174 30.5677,22.1508 41.5,17.5 Z"/></g>
<g><path style="opacity:0.976" fill="#c4a683" d="M 126.5,19.5 C 131.258,20.0217 132.592,22.5217 130.5,27C 128.532,28.5442 126.365,29.7109 124,30.5C 121.075,30.6448 118.241,29.9781 115.5,28.5C 119.637,28.8537 123.637,28.3537 127.5,27C 128.687,25.9805 129.687,24.8139 130.5,23.5C 128.812,22.4787 127.479,21.1454 126.5,19.5 Z"/></g>
<g><path style="opacity:1" fill="#97692c" d="M 77.5,20.5 C 78.7815,23.7307 78.7815,27.0641 77.5,30.5C 75.0673,31.5477 75.0673,32.2144 77.5,32.5C 76.1938,33.4674 75.5271,34.8007 75.5,36.5C 74.1667,36.1667 72.8333,35.8333 71.5,35.5C 69.8333,34.1667 68.1667,34.1667 66.5,35.5C 66.369,34.7611 66.5357,34.0944 67,33.5C 69.0263,33.0853 70.5263,32.0853 71.5,30.5C 72.2531,26.4831 72.9198,22.3164 73.5,18C 73.2568,17.0979 72.9234,16.2646 72.5,15.5C 73.1667,15.5 73.8333,15.5 74.5,15.5C 74.4346,15.9382 74.6012,16.2716 75,16.5C 75.7096,15.0267 76.8762,14.3601 78.5,14.5C 78.6715,16.4918 78.0049,18.1585 76.5,19.5C 76.6236,20.1067 76.9569,20.44 77.5,20.5 Z"/></g>
<g><path style="opacity:1" fill="#ca8f3c" d="M 64.5,16.5 C 66.9479,15.5269 69.6146,15.1936 72.5,15.5C 72.9234,16.2646 73.2568,17.0979 73.5,18C 72.9198,22.3164 72.2531,26.4831 71.5,30.5C 69.1432,30.3367 66.8098,30.5034 64.5,31C 63.944,31.3826 63.6107,31.8826 63.5,32.5C 62.8333,31.8333 62.1667,31.1667 61.5,30.5C 63.556,29.8007 65.556,28.8007 67.5,27.5C 68.464,23.9801 69.7973,20.6467 71.5,17.5C 69.2573,16.5258 66.924,16.1924 64.5,16.5 Z"/></g>
<g><path style="opacity:0.4" fill="#c8b093" d="M 25.5,29.5 C 19.4195,31.4117 13.0862,31.9117 6.5,31C 5.94404,30.6174 5.61071,30.1174 5.5,29.5C 11.8381,30.7115 18.5048,30.7115 25.5,29.5 Z"/></g>
<g><path style="opacity:1" fill="#74350d" d="M 71.5,30.5 C 70.5263,32.0853 69.0263,33.0853 67,33.5C 66.5357,34.0944 66.369,34.7611 66.5,35.5C 66.1667,35.5 65.8333,35.5 65.5,35.5C 63.0752,35.316 63.0752,34.6493 65.5,33.5C 65.0431,32.7025 64.3764,32.3691 63.5,32.5C 63.6107,31.8826 63.944,31.3826 64.5,31C 66.8098,30.5034 69.1432,30.3367 71.5,30.5 Z"/></g>
<g><path style="opacity:0.071" fill="#d7c5a9" d="M 77.5,30.5 C 78.8333,31.1667 80.1667,31.8333 81.5,32.5C 80.0357,33.4054 78.7024,33.4054 77.5,32.5C 75.0673,32.2144 75.0673,31.5477 77.5,30.5 Z"/></g>
<g><path style="opacity:0.631" fill="#bea794" d="M 81.5,32.5 C 84.089,32.461 86.089,33.461 87.5,35.5C 86.1667,35.1667 84.8333,34.8333 83.5,34.5C 82.8333,33.8333 82.1667,33.1667 81.5,32.5 Z"/></g>
<g><path style="opacity:1" fill="#aa885b" d="M 106.5,25.5 C 109.67,26.2655 112.67,27.2655 115.5,28.5C 114.761,28.369 114.094,28.5357 113.5,29C 114.451,29.7175 114.617,30.5509 114,31.5C 112.004,31.0037 110.337,30.0037 109,28.5C 108.316,29.7839 108.483,30.9505 109.5,32C 112.943,32.3713 115.276,33.538 116.5,35.5C 118.029,35.4712 119.196,34.8045 120,33.5C 120.561,34.0219 121.228,34.3552 122,34.5C 126.314,33.7591 130.481,32.7591 134.5,31.5C 132.351,33.7458 129.684,35.2458 126.5,36C 115.607,38.4474 106.274,35.9474 98.5,28.5C 99.4959,28.4142 100.329,28.7476 101,29.5C 101.333,28.8333 101.667,28.1667 102,27.5C 103.586,28.376 105.086,29.376 106.5,30.5C 106.06,29.0475 106.726,27.8808 108.5,27C 107.584,26.7216 106.918,26.2216 106.5,25.5 Z"/></g>
<g><path style="opacity:1" fill="#a56e27" d="M 44.5,29.5 C 44.147,31.6348 44.9803,32.9681 47,33.5C 47.5464,32.7107 48.2131,31.7107 49,30.5C 49.3826,31.056 49.8826,31.3893 50.5,31.5C 50.5,31.8333 50.5,32.1667 50.5,32.5C 50.2769,33.2963 51.1102,33.6296 53,33.5C 56.062,33.2587 58.8954,32.5921 61.5,31.5C 61.5,31.1667 61.5,30.8333 61.5,30.5C 62.1667,31.1667 62.8333,31.8333 63.5,32.5C 64.3764,32.3691 65.0431,32.7025 65.5,33.5C 63.0752,34.6493 63.0752,35.316 65.5,35.5C 65.1583,36.3382 64.4916,36.6716 63.5,36.5C 58.6208,37.6901 53.7874,37.6901 49,36.5C 48.8283,41.2018 48.3283,45.8685 47.5,50.5C 46.8503,48.8164 45.8503,47.4831 44.5,46.5C 43.8826,46.3893 43.3826,46.056 43,45.5C 42.3299,48.1739 41.1632,50.5073 39.5,52.5C 37.9261,54.1016 37.2594,56.1016 37.5,58.5C 37.8016,61.0593 37.4682,63.3926 36.5,65.5C 35.3307,68.341 34.3307,71.341 33.5,74.5C 31.2298,75.1248 30.8965,74.1248 32.5,71.5C 32.1543,70.3044 31.6543,70.3044 31,71.5C 30.5065,69.8659 30.3398,68.1992 30.5,66.5C 31.6437,62.0363 32.3104,57.3696 32.5,52.5C 37.0578,47.8757 39.7245,42.2091 40.5,35.5C 41.4746,33.2048 42.8079,31.2048 44.5,29.5 Z"/></g>
<g><path style="opacity:0.588" fill="#c2ae92" d="M 61.5,31.5 C 58.8954,32.5921 56.062,33.2587 53,33.5C 51.1102,33.6296 50.2769,33.2963 50.5,32.5C 54.1185,31.7564 57.7852,31.423 61.5,31.5 Z"/></g>
<g><path style="opacity:1" fill="#eab771" d="M 69.5,38.5 C 70.5,38.5 71.5,38.5 72.5,38.5C 71.4357,45.0001 70.1024,51.3335 68.5,57.5C 64.8333,57.5 61.1667,57.5 57.5,57.5C 57.5,57.1667 57.5,56.8333 57.5,56.5C 59.451,56.7733 60.951,56.1066 62,54.5C 62.1934,49.3394 63.0267,44.3394 64.5,39.5C 66.4147,39.7845 68.0813,39.4511 69.5,38.5 Z"/></g>
<g><path style="opacity:1" fill="#be9353" d="M 77.5,32.5 C 78.7024,33.4054 80.0357,33.4054 81.5,32.5C 82.1667,33.1667 82.8333,33.8333 83.5,34.5C 82.7387,35.3909 81.7387,36.0576 80.5,36.5C 79.7425,35.1886 78.7425,34.6886 77.5,35C 79.0372,36.9361 81.0372,38.1027 83.5,38.5C 81.0521,39.4731 78.3854,39.8064 75.5,39.5C 75.5,45.5 75.5,51.5 75.5,57.5C 73.5,57.5 71.5,57.5 69.5,57.5C 69.1667,57.5 68.8333,57.5 68.5,57.5C 70.1024,51.3335 71.4357,45.0001 72.5,38.5C 73.8734,38.6567 75.2068,38.49 76.5,38C 75.944,37.6174 75.6107,37.1174 75.5,36.5C 75.5271,34.8007 76.1938,33.4674 77.5,32.5 Z"/></g>
<g><path style="opacity:1" fill="#c8a47e" d="M 40.5,35.5 C 39.7245,42.2091 37.0578,47.8757 32.5,52.5C 34.7796,46.6663 37.4463,40.9996 40.5,35.5 Z"/></g>
<g><path style="opacity:1" fill="#fedc8f" d="M 69.5,38.5 C 68.0813,39.4511 66.4147,39.7845 64.5,39.5C 63.0267,44.3394 62.1934,49.3394 62,54.5C 60.951,56.1066 59.451,56.7733 57.5,56.5C 55.3897,51.2992 54.7231,45.9658 55.5,40.5C 56.0253,39.8076 56.6919,39.3076 57.5,39C 61.4862,38.5012 65.4862,38.3345 69.5,38.5 Z"/></g>
<g><path style="opacity:1" fill="#5c2a07" d="M 86.5,48.5 C 86.5,47.8333 86.5,47.1667 86.5,46.5C 86.3379,44.4727 86.5045,42.4727 87,40.5C 88.1485,43.0176 88.9818,45.6843 89.5,48.5C 89,49.5 88.5,50.5 88,51.5C 87.7679,50.2625 87.2679,49.2625 86.5,48.5 Z"/></g>
<g><path style="opacity:1" fill="#8d6e3f" d="M 83.5,34.5 C 84.8333,34.8333 86.1667,35.1667 87.5,35.5C 92.0476,39.0438 93.5476,43.7105 92,49.5C 90.871,51.1412 89.371,52.1412 87.5,52.5C 87.1667,52.5 86.8333,52.5 86.5,52.5C 86.5,51.1667 86.5,49.8333 86.5,48.5C 87.2679,49.2625 87.7679,50.2625 88,51.5C 88.5,50.5 89,49.5 89.5,48.5C 88.9818,45.6843 88.1485,43.0176 87,40.5C 86.5045,42.4727 86.3379,44.4727 86.5,46.5C 85.8339,43.3107 85.1672,39.9773 84.5,36.5C 84.2129,37.2003 83.8795,37.8669 83.5,38.5C 81.0372,38.1027 79.0372,36.9361 77.5,35C 78.7425,34.6886 79.7425,35.1886 80.5,36.5C 81.7387,36.0576 82.7387,35.3909 83.5,34.5 Z"/></g>
<g><path style="opacity:1" fill="#f6ebaf" d="M 71.5,35.5 C 72.8333,35.8333 74.1667,36.1667 75.5,36.5C 75.6107,37.1174 75.944,37.6174 76.5,38C 75.2068,38.49 73.8734,38.6567 72.5,38.5C 71.5,38.5 70.5,38.5 69.5,38.5C 65.4862,38.3345 61.4862,38.5012 57.5,39C 56.6919,39.3076 56.0253,39.8076 55.5,40.5C 54.7231,45.9658 55.3897,51.2992 57.5,56.5C 57.5,56.8333 57.5,57.1667 57.5,57.5C 53.8333,57.5 50.1667,57.5 46.5,57.5C 46.1667,57.5 45.8333,57.5 45.5,57.5C 45.6773,53.7657 45.3439,50.0991 44.5,46.5C 45.8503,47.4831 46.8503,48.8164 47.5,50.5C 48.3283,45.8685 48.8283,41.2018 49,36.5C 53.7874,37.6901 58.6208,37.6901 63.5,36.5C 66.3035,37.6378 69.3035,37.8045 72.5,37C 71.944,36.6174 71.6107,36.1174 71.5,35.5 Z"/></g>
<g><path style="opacity:1" fill="#a68967" d="M 147.5,36.5 C 148.167,37.5 148.833,38.5 149.5,39.5C 149.5,41.1667 149.5,42.8333 149.5,44.5C 148.167,45.5 148.167,46.5 149.5,47.5C 149.5,54.8333 149.5,62.1667 149.5,69.5C 148.508,69.6716 147.842,69.3382 147.5,68.5C 146.961,60.7324 145.961,53.0657 144.5,45.5C 145.496,45.4142 146.329,45.7476 147,46.5C 147.498,43.1832 147.665,39.8499 147.5,36.5 Z"/></g>
<g><path style="opacity:1" fill="#9f8450" d="M 86.5,46.5 C 86.5,47.1667 86.5,47.8333 86.5,48.5C 86.5,49.8333 86.5,51.1667 86.5,52.5C 86.5,54.1667 86.5,55.8333 86.5,57.5C 82.8333,57.5 79.1667,57.5 75.5,57.5C 75.5,51.5 75.5,45.5 75.5,39.5C 78.3854,39.8064 81.0521,39.4731 83.5,38.5C 83.8795,37.8669 84.2129,37.2003 84.5,36.5C 85.1672,39.9773 85.8339,43.3107 86.5,46.5 Z"/></g>
<g><path style="opacity:0.694" fill="#cbab88" d="M 39.5,52.5 C 39.405,54.7857 38.7384,56.7857 37.5,58.5C 37.2594,56.1016 37.9261,54.1016 39.5,52.5 Z"/></g>
<g><path style="opacity:1" fill="#b9875c" d="M 45.5,57.5 C 45.8333,57.5 46.1667,57.5 46.5,57.5C 50.1667,58.1667 53.8333,58.8333 57.5,59.5C 53.5,59.5 49.5,59.5 45.5,59.5C 45.5,58.8333 45.5,58.1667 45.5,57.5 Z"/></g>
<g><path style="opacity:1" fill="#6f2011" d="M 46.5,57.5 C 50.1667,57.5 53.8333,57.5 57.5,57.5C 61.1667,57.5 64.8333,57.5 68.5,57.5C 68.8333,57.5 69.1667,57.5 69.5,57.5C 69.5,58.1667 69.5,58.8333 69.5,59.5C 65.5,59.5 61.5,59.5 57.5,59.5C 53.8333,58.8333 50.1667,58.1667 46.5,57.5 Z"/></g>
<g><path style="opacity:1" fill="#341d16" d="M 69.5,57.5 C 71.5,57.5 73.5,57.5 75.5,57.5C 79.1667,57.5 82.8333,57.5 86.5,57.5C 86.5,58.1667 86.5,58.8333 86.5,59.5C 82.1667,59.5 77.8333,59.5 73.5,59.5C 72.1667,59.5 70.8333,59.5 69.5,59.5C 69.5,58.8333 69.5,58.1667 69.5,57.5 Z"/></g>
<g><path style="opacity:0.584" fill="#c6b9a6" d="M 139.5,33.5 C 140.117,33.6107 140.617,33.944 141,34.5C 141.876,38.2924 143.042,41.9591 144.5,45.5C 145.961,53.0657 146.961,60.7324 147.5,68.5C 145.38,56.8197 142.713,45.153 139.5,33.5 Z"/></g>
<g><path style="opacity:0.286" fill="#d9c2a6" d="M 32.5,52.5 C 32.3104,57.3696 31.6437,62.0363 30.5,66.5C 30.1228,61.5474 30.7895,56.8807 32.5,52.5 Z"/></g>
<g><path style="opacity:1" fill="#a48a56" d="M 73.5,59.5 C 77.8333,59.5 82.1667,59.5 86.5,59.5C 86.5,62.1667 86.5,64.8333 86.5,67.5C 82.1667,67.5 77.8333,67.5 73.5,67.5C 72.1667,64.8333 72.1667,62.1667 73.5,59.5 Z"/></g>
<g><path style="opacity:1" fill="#fef6b4" d="M 45.5,59.5 C 49.5,59.5 53.5,59.5 57.5,59.5C 57.5,61.8333 57.5,64.1667 57.5,66.5C 53.5,66.5 49.5,66.5 45.5,66.5C 45.5,64.1667 45.5,61.8333 45.5,59.5 Z"/></g>
<g><path style="opacity:1" fill="#eab973" d="M 57.5,59.5 C 61.5,59.5 65.5,59.5 69.5,59.5C 70.8333,59.5 72.1667,59.5 73.5,59.5C 72.1667,62.1667 72.1667,64.8333 73.5,67.5C 64.3178,67.1734 55.3178,67.5067 46.5,68.5C 46.1667,68.5 45.8333,68.5 45.5,68.5C 45.5,67.8333 45.5,67.1667 45.5,66.5C 49.5,66.5 53.5,66.5 57.5,66.5C 57.5,64.1667 57.5,61.8333 57.5,59.5 Z"/></g>
<g><path style="opacity:1" fill="#732d19" d="M 73.5,67.5 C 73.8333,68.1667 74.1667,68.8333 74.5,69.5C 70.5,69.5 66.5,69.5 62.5,69.5C 60.8333,69.5 59.1667,69.5 57.5,69.5C 53.6286,69.815 49.9619,69.4816 46.5,68.5C 55.3178,67.5067 64.3178,67.1734 73.5,67.5 Z"/></g>
<g><path style="opacity:1" fill="#3b2319" d="M 73.5,67.5 C 77.8333,67.5 82.1667,67.5 86.5,67.5C 85.5,68.1667 84.5,68.8333 83.5,69.5C 80.8333,69.5 78.1667,69.5 75.5,69.5C 75.1667,69.5 74.8333,69.5 74.5,69.5C 74.1667,68.8333 73.8333,68.1667 73.5,67.5 Z"/></g>
<g><path style="opacity:0.753" fill="#bfab90" d="M 36.5,65.5 C 35.7705,71.0849 34.4372,76.4183 32.5,81.5C 32.448,79.0971 32.7814,76.7638 33.5,74.5C 34.3307,71.341 35.3307,68.341 36.5,65.5 Z"/></g>
<g><path style="opacity:0.708" fill="#9c9c83" d="M 86.5,52.5 C 86.8333,52.5 87.1667,52.5 87.5,52.5C 87.5938,64.0467 87.5938,75.7134 87.5,87.5C 84.9407,87.1984 82.6074,87.5318 80.5,88.5C 71.9177,87.5301 63.2511,87.1968 54.5,87.5C 54.5,87.1667 54.5,86.8333 54.5,86.5C 55.1667,86.5 55.8333,86.5 56.5,86.5C 59.5,86.5 62.5,86.5 65.5,86.5C 65.8333,86.5 66.1667,86.5 66.5,86.5C 69.8333,86.5 73.1667,86.5 76.5,86.5C 79.8333,86.5 83.1667,86.5 86.5,86.5C 86.5,80.8333 86.5,75.1667 86.5,69.5C 85.5,69.5 84.5,69.5 83.5,69.5C 84.5,68.8333 85.5,68.1667 86.5,67.5C 86.5,64.8333 86.5,62.1667 86.5,59.5C 86.5,58.8333 86.5,58.1667 86.5,57.5C 86.5,55.8333 86.5,54.1667 86.5,52.5 Z"/></g>
<g><path style="opacity:1" fill="#feda90" d="M 57.5,69.5 C 59.1667,69.5 60.8333,69.5 62.5,69.5C 62.5,69.8333 62.5,70.1667 62.5,70.5C 60.2136,75.1849 58.8802,80.1849 58.5,85.5C 61.0593,85.1984 63.3926,85.5318 65.5,86.5C 62.5,86.5 59.5,86.5 56.5,86.5C 56.2663,82.6862 55.2663,79.1862 53.5,76C 55.8633,75.4115 56.8633,73.9115 56.5,71.5C 55.1266,71.6567 53.7932,71.49 52.5,71C 54.3817,70.8019 56.0484,70.3019 57.5,69.5 Z"/></g>
<g><path style="opacity:1" fill="#f7c27a" d="M 62.5,70.5 C 63.9061,72.8381 65.2394,75.3381 66.5,78C 65.3213,80.7957 65.3213,83.6291 66.5,86.5C 66.1667,86.5 65.8333,86.5 65.5,86.5C 63.3926,85.5318 61.0593,85.1984 58.5,85.5C 58.8802,80.1849 60.2136,75.1849 62.5,70.5 Z"/></g>
<g><path style="opacity:1" fill="#d0a460" d="M 62.5,70.5 C 62.5,70.1667 62.5,69.8333 62.5,69.5C 66.5,69.5 70.5,69.5 74.5,69.5C 74.8333,69.5 75.1667,69.5 75.5,69.5C 74.6091,70.2613 73.9424,71.2613 73.5,72.5C 74.7435,76.7185 74.7435,80.8852 73.5,85C 74.7375,85.2321 75.7375,85.7321 76.5,86.5C 73.1667,86.5 69.8333,86.5 66.5,86.5C 65.3213,83.6291 65.3213,80.7957 66.5,78C 65.2394,75.3381 63.9061,72.8381 62.5,70.5 Z"/></g>
<g><path style="opacity:1" fill="#a38a57" d="M 75.5,69.5 C 78.1667,69.5 80.8333,69.5 83.5,69.5C 84.5,69.5 85.5,69.5 86.5,69.5C 86.5,75.1667 86.5,80.8333 86.5,86.5C 83.1667,86.5 79.8333,86.5 76.5,86.5C 75.7375,85.7321 74.7375,85.2321 73.5,85C 74.7435,80.8852 74.7435,76.7185 73.5,72.5C 73.9424,71.2613 74.6091,70.2613 75.5,69.5 Z"/></g>
<g><path style="opacity:1" fill="#fdeeaf" d="M 45.5,68.5 C 45.8333,68.5 46.1667,68.5 46.5,68.5C 49.9619,69.4816 53.6286,69.815 57.5,69.5C 56.0484,70.3019 54.3817,70.8019 52.5,71C 53.7932,71.49 55.1266,71.6567 56.5,71.5C 56.8633,73.9115 55.8633,75.4115 53.5,76C 55.2663,79.1862 56.2663,82.6862 56.5,86.5C 55.8333,86.5 55.1667,86.5 54.5,86.5C 51.5525,86.7771 48.7191,86.4438 46,85.5C 45.5006,79.8431 45.3339,74.1764 45.5,68.5 Z"/></g>
<g><path style="opacity:1" fill="#0671b2" d="M 54.5,87.5 C 63.2511,87.1968 71.9177,87.5301 80.5,88.5C 81.1667,88.8333 81.8333,89.1667 82.5,89.5C 81.9935,90.8589 80.9935,91.8589 79.5,92.5C 80.9492,93.1719 82.2825,93.8386 83.5,94.5C 80.8333,94.5 78.1667,94.5 75.5,94.5C 75.5,93.5 75.5,92.5 75.5,91.5C 69.5,92.8333 63.5,92.8333 57.5,91.5C 57.5,92.5 57.5,93.5 57.5,94.5C 56.5,94.5 55.5,94.5 54.5,94.5C 54.762,93.0222 54.4287,91.6888 53.5,90.5C 52.5712,91.5498 51.9046,91.5498 51.5,90.5C 52.6935,89.7281 53.6935,88.7281 54.5,87.5 Z"/></g>
<g><path style="opacity:1" fill="#94bbc2" d="M 54.5,87.5 C 53.6935,88.7281 52.6935,89.7281 51.5,90.5C 50.5655,91.5676 50.2322,92.901 50.5,94.5C 47.5,94.5 44.5,94.5 41.5,94.5C 45.867,92.2834 50.2004,89.9501 54.5,87.5 Z"/></g>
<g><path style="opacity:1" fill="#005aaa" d="M 83.5,94.5 C 73.8333,95.8333 64.1667,95.8333 54.5,94.5C 55.5,94.5 56.5,94.5 57.5,94.5C 57.5,93.5 57.5,92.5 57.5,91.5C 63.5,92.8333 69.5,92.8333 75.5,91.5C 75.5,92.5 75.5,93.5 75.5,94.5C 78.1667,94.5 80.8333,94.5 83.5,94.5 Z"/></g>
<g><path style="opacity:1" fill="#0d7db7" d="M 51.5,90.5 C 51.9046,91.5498 52.5712,91.5498 53.5,90.5C 54.4287,91.6888 54.762,93.0222 54.5,94.5C 64.1667,95.8333 73.8333,95.8333 83.5,94.5C 86.1272,95.0916 88.7938,95.4249 91.5,95.5C 91.6665,107.171 91.4999,118.838 91,130.5C 90.8213,126.975 90.3213,123.641 89.5,120.5C 89.5,120.167 89.5,119.833 89.5,119.5C 88.6103,117.218 88.4436,114.885 89,112.5C 89.3333,113.833 89.6667,115.167 90,116.5C 90.6667,111.5 90.6667,106.5 90,101.5C 89.4768,99.7774 88.4768,98.444 87,97.5C 85.9701,97.8361 85.4701,98.5028 85.5,99.5C 83.712,99.7852 82.0453,99.4519 80.5,98.5C 81.0253,97.8076 81.6919,97.3076 82.5,97C 79.5184,96.502 76.5184,96.3354 73.5,96.5C 69.1667,96.5 64.8333,96.5 60.5,96.5C 58.5,96.5 56.5,96.5 54.5,96.5C 54.7148,98.1788 54.0481,99.1788 52.5,99.5C 50.5,99.5 48.5,99.5 46.5,99.5C 46.5,101.167 46.5,102.833 46.5,104.5C 44.7823,108.098 43.6156,112.098 43,116.5C 42.5004,109.508 42.3337,102.508 42.5,95.5C 45.3854,95.8064 48.0521,95.4731 50.5,94.5C 50.2322,92.901 50.5655,91.5676 51.5,90.5 Z"/></g>
<g><path style="opacity:0.855" fill="#59b9ce" d="M 82.5,89.5 C 85.6042,91.09 88.7709,92.7566 92,94.5C 92.4999,110.163 92.6666,125.83 92.5,141.5C 91.2227,140.306 90.5561,138.64 90.5,136.5C 89.8048,131.187 89.4715,125.854 89.5,120.5C 90.3213,123.641 90.8213,126.975 91,130.5C 91.4999,118.838 91.6665,107.171 91.5,95.5C 88.7938,95.4249 86.1272,95.0916 83.5,94.5C 82.2825,93.8386 80.9492,93.1719 79.5,92.5C 80.9935,91.8589 81.9935,90.8589 82.5,89.5 Z"/></g>
<g><path style="opacity:0.753" fill="#c0ab91" d="M 23.5,88.5 C 22.2673,95.5126 22.2673,102.513 23.5,109.5C 21.9344,106.118 20.9344,102.451 20.5,98.5C 21.0815,94.9289 22.0815,91.5956 23.5,88.5 Z"/></g>
<g><path style="opacity:1" fill="#0075c9" d="M 60.5,96.5 C 60.0825,97.2216 59.4158,97.7216 58.5,98C 64.1667,98.6667 69.8333,98.6667 75.5,98C 74.5842,97.7216 73.9175,97.2216 73.5,96.5C 76.5184,96.3354 79.5184,96.502 82.5,97C 81.6919,97.3076 81.0253,97.8076 80.5,98.5C 82.0453,99.4519 83.712,99.7852 85.5,99.5C 86.7773,100.694 87.4439,102.36 87.5,104.5C 87.0558,108.163 86.7225,111.829 86.5,115.5C 85.6762,111.688 85.1762,107.688 85,103.5C 83.13,105.405 81.63,107.572 80.5,110C 79.7674,111.535 79.7674,113.368 80.5,115.5C 78.6471,116.76 76.8138,116.76 75,115.5C 74.1667,116.5 73.3333,117.5 72.5,118.5C 69.9133,118.817 68.08,117.483 67,114.5C 60.8976,116.937 56.3976,115.271 53.5,109.5C 52.5745,110.641 51.7412,110.641 51,109.5C 48.8568,105.765 49.3568,102.432 52.5,99.5C 54.0481,99.1788 54.7148,98.1788 54.5,96.5C 56.5,96.5 58.5,96.5 60.5,96.5 Z"/></g>
<g><path style="opacity:1" fill="#013283" d="M 60.5,96.5 C 64.8333,96.5 69.1667,96.5 73.5,96.5C 73.9175,97.2216 74.5842,97.7216 75.5,98C 69.8333,98.6667 64.1667,98.6667 58.5,98C 59.4158,97.7216 60.0825,97.2216 60.5,96.5 Z"/></g>
<g><path style="opacity:1" fill="#0080ce" d="M 52.5,99.5 C 49.3568,102.432 48.8568,105.765 51,109.5C 51.7412,110.641 52.5745,110.641 53.5,109.5C 56.3976,115.271 60.8976,116.937 67,114.5C 68.08,117.483 69.9133,118.817 72.5,118.5C 73.3333,117.5 74.1667,116.5 75,115.5C 76.8138,116.76 78.6471,116.76 80.5,115.5C 79.7674,113.368 79.7674,111.535 80.5,110C 81.63,107.572 83.13,105.405 85,103.5C 85.1762,107.688 85.6762,111.688 86.5,115.5C 86.178,122.168 84.8447,128.502 82.5,134.5C 81.8386,135.718 81.1719,137.051 80.5,138.5C 75.7411,139.135 70.7411,139.469 65.5,139.5C 63.396,139.799 61.396,139.466 59.5,138.5C 59.7093,137.914 60.0426,137.414 60.5,137C 58.3825,136.74 56.7158,135.74 55.5,134C 55.8333,133.667 56.1667,133.333 56.5,133C 55.5838,132.626 54.7504,132.126 54,131.5C 53.6667,129.167 53.3333,126.833 53,124.5C 50.9758,122.439 49.4758,120.106 48.5,117.5C 48.0183,113.127 47.3516,108.794 46.5,104.5C 46.5,102.833 46.5,101.167 46.5,99.5C 48.5,99.5 50.5,99.5 52.5,99.5 Z"/></g>
<g><path style="opacity:1" fill="#8d6b35" d="M 30.5,66.5 C 30.3398,68.1992 30.5065,69.8659 31,71.5C 31.6543,70.3044 32.1543,70.3044 32.5,71.5C 30.8965,74.1248 31.2298,75.1248 33.5,74.5C 32.7814,76.7638 32.448,79.0971 32.5,81.5C 29.9979,83.5128 28.4979,86.1794 28,89.5C 27.1913,95.7489 27.358,101.916 28.5,108C 27.7894,109.255 26.956,110.421 26,111.5C 25.5831,110.244 24.7498,109.577 23.5,109.5C 22.2673,102.513 22.2673,95.5126 23.5,88.5C 25.4667,80.9379 27.8,73.6045 30.5,66.5 Z"/></g>
<g><path style="opacity:1" fill="#908a7a" d="M 32.5,81.5 C 30.0839,87.6372 28.7506,93.8038 28.5,100C 30.1356,109.913 32.8023,119.58 36.5,129C 35.3132,131.59 33.4798,132.09 31,130.5C 29.1842,123.217 26.6842,116.217 23.5,109.5C 24.7498,109.577 25.5831,110.244 26,111.5C 26.956,110.421 27.7894,109.255 28.5,108C 27.358,101.916 27.1913,95.7489 28,89.5C 28.4979,86.1794 29.9979,83.5128 32.5,81.5 Z"/></g>
<g><path style="opacity:1" fill="#3ab3cd" d="M 89.5,119.5 C 88.8826,119.611 88.3826,119.944 88,120.5C 88.2505,127.242 86.4171,133.242 82.5,138.5C 82.5,137.167 82.5,135.833 82.5,134.5C 84.8447,128.502 86.178,122.168 86.5,115.5C 86.7225,111.829 87.0558,108.163 87.5,104.5C 87.4439,102.36 86.7773,100.694 85.5,99.5C 85.4701,98.5028 85.9701,97.8361 87,97.5C 88.4768,98.444 89.4768,99.7774 90,101.5C 90.6667,106.5 90.6667,111.5 90,116.5C 89.6667,115.167 89.3333,113.833 89,112.5C 88.4436,114.885 88.6103,117.218 89.5,119.5 Z"/></g>
<g><path style="opacity:1" fill="#2f91b6" d="M 41.5,94.5 C 44.5,94.5 47.5,94.5 50.5,94.5C 48.0521,95.4731 45.3854,95.8064 42.5,95.5C 42.3337,102.508 42.5004,109.508 43,116.5C 43.6156,112.098 44.7823,108.098 46.5,104.5C 47.3516,108.794 48.0183,113.127 48.5,117.5C 48.7735,125.795 51.1069,133.295 55.5,140C 57.1341,140.494 58.8008,140.66 60.5,140.5C 61.9133,141.935 63.58,142.935 65.5,143.5C 62.8333,143.5 60.1667,143.5 57.5,143.5C 55.5742,142.758 53.7409,141.758 52,140.5C 50.3664,135.982 48.3664,131.649 46,127.5C 45.5357,128.094 45.369,128.761 45.5,129.5C 44.8337,133.353 44.167,137.353 43.5,141.5C 43.1119,137.411 42.1119,133.744 40.5,130.5C 40.5878,118.47 40.9211,106.47 41.5,94.5 Z"/></g>
<g><path style="opacity:1" fill="#0090cf" d="M 48.5,117.5 C 49.4758,120.106 50.9758,122.439 53,124.5C 53.3333,126.833 53.6667,129.167 54,131.5C 54.7504,132.126 55.5838,132.626 56.5,133C 56.1667,133.333 55.8333,133.667 55.5,134C 56.7158,135.74 58.3825,136.74 60.5,137C 60.0426,137.414 59.7093,137.914 59.5,138.5C 61.396,139.466 63.396,139.799 65.5,139.5C 64.0813,140.451 62.4147,140.784 60.5,140.5C 58.8008,140.66 57.1341,140.494 55.5,140C 51.1069,133.295 48.7735,125.795 48.5,117.5 Z"/></g>
<g><path style="opacity:1" fill="#0176b1" d="M 82.5,134.5 C 82.5,135.833 82.5,137.167 82.5,138.5C 82.1667,139.167 81.8333,139.833 81.5,140.5C 76.4697,142.95 71.1363,143.95 65.5,143.5C 63.58,142.935 61.9133,141.935 60.5,140.5C 62.4147,140.784 64.0813,140.451 65.5,139.5C 70.7411,139.469 75.7411,139.135 80.5,138.5C 81.1719,137.051 81.8386,135.718 82.5,134.5 Z"/></g>
<g><path style="opacity:1" fill="#5babb4" d="M 81.5,140.5 C 80.7298,142.935 79.0632,144.269 76.5,144.5C 70.8333,144.5 65.1667,144.5 59.5,144.5C 58.5084,144.672 57.8417,144.338 57.5,143.5C 60.1667,143.5 62.8333,143.5 65.5,143.5C 71.1363,143.95 76.4697,142.95 81.5,140.5 Z"/></g>
<g><path style="opacity:1" fill="#c1d2cd" d="M 89.5,119.5 C 89.5,119.833 89.5,120.167 89.5,120.5C 89.4715,125.854 89.8048,131.187 90.5,136.5C 90.5561,138.64 91.2227,140.306 92.5,141.5C 92.5,145.833 92.5,150.167 92.5,154.5C 91.0666,152.481 89.7332,150.314 88.5,148C 84.0372,147.961 80.0372,146.795 76.5,144.5C 79.0632,144.269 80.7298,142.935 81.5,140.5C 81.8333,139.833 82.1667,139.167 82.5,138.5C 86.4171,133.242 88.2505,127.242 88,120.5C 88.3826,119.944 88.8826,119.611 89.5,119.5 Z"/></g>
<g><path style="opacity:1" fill="#abbeb9" d="M 59.5,144.5 C 65.1667,144.5 70.8333,144.5 76.5,144.5C 80.0372,146.795 84.0372,147.961 88.5,148C 89.7332,150.314 91.0666,152.481 92.5,154.5C 92.9465,157.01 92.2798,159.01 90.5,160.5C 90.5,159.167 90.5,157.833 90.5,156.5C 87.2027,156.329 86.8694,156.995 89.5,158.5C 88.675,159.386 87.675,159.719 86.5,159.5C 86.5,158.5 86.5,157.5 86.5,156.5C 82.4862,156.334 78.4862,156.501 74.5,157C 73.6634,158.011 73.33,159.178 73.5,160.5C 71.4305,160.551 69.5971,159.885 68,158.5C 66.1739,159.01 66.0072,159.844 67.5,161C 66.8333,161.667 66.1667,162.333 65.5,163C 67.0581,163.21 68.3915,163.71 69.5,164.5C 65.5,164.5 61.5,164.5 57.5,164.5C 59.9649,162.716 62.6316,161.383 65.5,160.5C 65.38,159.414 64.7133,158.747 63.5,158.5C 62.2867,158.747 61.62,159.414 61.5,160.5C 60.596,159.791 60.2627,158.791 60.5,157.5C 58.8333,157.5 57.1667,157.5 55.5,157.5C 55.5,155.833 55.5,154.167 55.5,152.5C 60.8797,152.676 66.213,152.342 71.5,151.5C 70.7904,148.14 72.1238,146.307 75.5,146C 69.9842,145.827 64.6509,145.327 59.5,144.5 Z"/></g>
<g><path style="opacity:1" fill="#c0cec5" d="M 57.5,143.5 C 57.8417,144.338 58.5084,144.672 59.5,144.5C 64.6509,145.327 69.9842,145.827 75.5,146C 72.1238,146.307 70.7904,148.14 71.5,151.5C 66.213,152.342 60.8797,152.676 55.5,152.5C 55.5,154.167 55.5,155.833 55.5,157.5C 57.1667,157.5 58.8333,157.5 60.5,157.5C 60.2627,158.791 60.596,159.791 61.5,160.5C 62.8333,160.5 64.1667,160.5 65.5,160.5C 62.6316,161.383 59.9649,162.716 57.5,164.5C 54.1667,164.5 50.8333,164.5 47.5,164.5C 46.8333,163.833 46.1667,163.167 45.5,162.5C 46.5498,162.095 46.5498,161.429 45.5,160.5C 49.1248,159.357 49.2915,158.024 46,156.5C 45.5002,147.506 45.3336,138.506 45.5,129.5C 45.369,128.761 45.5357,128.094 46,127.5C 48.3664,131.649 50.3664,135.982 52,140.5C 53.7409,141.758 55.5742,142.758 57.5,143.5 Z"/></g>
<g><path style="opacity:1" fill="#aac2c1" d="M 45.5,129.5 C 45.3336,138.506 45.5002,147.506 46,156.5C 49.2915,158.024 49.1248,159.357 45.5,160.5C 46.5498,161.429 46.5498,162.095 45.5,162.5C 43.4959,161.327 41.9959,159.66 41,157.5C 41.0656,148.285 40.8989,139.285 40.5,130.5C 42.1119,133.744 43.1119,137.411 43.5,141.5C 44.167,137.353 44.8337,133.353 45.5,129.5 Z"/></g>
<g><path style="opacity:1" fill="#0a6681" d="M 65.5,160.5 C 64.1667,160.5 62.8333,160.5 61.5,160.5C 61.62,159.414 62.2867,158.747 63.5,158.5C 64.7133,158.747 65.38,159.414 65.5,160.5 Z"/></g>
<g><path style="opacity:1" fill="#c4d3cd" d="M 90.5,160.5 C 89.5,161.833 88.5,163.167 87.5,164.5C 81.5,164.5 75.5,164.5 69.5,164.5C 68.3915,163.71 67.0581,163.21 65.5,163C 66.1667,162.333 66.8333,161.667 67.5,161C 66.0072,159.844 66.1739,159.01 68,158.5C 69.5971,159.885 71.4305,160.551 73.5,160.5C 73.33,159.178 73.6634,158.011 74.5,157C 78.4862,156.501 82.4862,156.334 86.5,156.5C 86.5,157.5 86.5,158.5 86.5,159.5C 87.675,159.719 88.675,159.386 89.5,158.5C 86.8694,156.995 87.2027,156.329 90.5,156.5C 90.5,157.833 90.5,159.167 90.5,160.5 Z"/></g>
</svg>
