<?xml version="1.0" encoding="UTF-8"?>
<!DOCTYPE svg PUBLIC "-//W3C//DTD SVG 1.1//EN" "http://www.w3.org/Graphics/SVG/1.1/DTD/svg11.dtd">
<svg xmlns="http://www.w3.org/2000/svg" version="1.1" width="150px" height="165px" style="shape-rendering:geometricPrecision; text-rendering:geometricPrecision; image-rendering:optimizeQuality; fill-rule:evenodd; clip-rule:evenodd" xmlns:xlink="http://www.w3.org/1999/xlink">
<g><path style="opacity:0.797" fill="#004563" d="M 149.5,63.5 C 149.5,67.1667 149.5,70.8333 149.5,74.5C 146.108,78.1433 141.775,79.9766 136.5,80C 141.569,79.6575 145.902,81.1575 149.5,84.5C 149.5,88.1667 149.5,91.8333 149.5,95.5C 145.942,98.8158 141.609,100.482 136.5,100.5C 139.447,101.321 142.447,101.821 145.5,102C 147.027,103.032 148.36,104.199 149.5,105.5C 149.5,109.167 149.5,112.833 149.5,116.5C 145.902,119.843 141.569,121.343 136.5,121C 141.888,120.703 146.222,122.536 149.5,126.5C 149.5,130.167 149.5,133.833 149.5,137.5C 145.927,141.002 141.594,142.336 136.5,141.5C 137.927,147.239 135.76,149.572 130,148.5C 124.24,149.572 122.073,147.239 123.5,141.5C 122.5,141.5 121.5,141.5 120.5,141.5C 120.896,144.044 120.229,146.211 118.5,148C 114.167,148.667 109.833,148.667 105.5,148C 105,147.5 104.5,147 104,146.5C 103.502,143.183 103.335,139.85 103.5,136.5C 84.5,136.5 65.5,136.5 46.5,136.5C 46.665,139.85 46.4983,143.183 46,146.5C 45.5,147 45,147.5 44.5,148C 40.1667,148.667 35.8333,148.667 31.5,148C 29.771,146.211 29.1043,144.044 29.5,141.5C 28.5,141.5 27.5,141.5 26.5,141.5C 27.9267,147.239 25.7601,149.572 20,148.5C 14.2399,149.572 12.0733,147.239 13.5,141.5C 0.442861,141.804 -3.22381,135.971 2.5,124C 5.89843,122.084 9.5651,121.084 13.5,121C 1.61183,121.275 -2.38817,115.775 1.5,104.5C 2.5,103.667 3.5,102.833 4.5,102C 16.5,101 16.5,100 4.5,99C 3.33333,97.8333 2.16667,96.6667 1,95.5C -1.85007,84.6829 2.3166,79.5162 13.5,80C 1.98554,80.1527 -2.18113,74.6527 1,63.5C 4.38678,59.9609 8.55345,58.6276 13.5,59.5C 12.9711,56.3959 13.9711,54.0625 16.5,52.5C 18.9402,54.1093 20.1069,56.4426 20,59.5C 20.6667,53.5 20.6667,47.5 20,41.5C 19.7132,43.8907 19.2132,46.2241 18.5,48.5C 17.277,49.6139 15.9437,49.7805 14.5,49C 14.3186,44.3182 12.8186,40.1515 10,36.5C 9.33333,30.8333 9.33333,25.1667 10,19.5C 10.5,19 11,18.5 11.5,18C 16.0466,16.4548 20.7133,16.1215 25.5,17C 32.7701,20.5113 40.4368,21.3447 48.5,19.5C 51.9321,14.6954 56.5988,13.1954 62.5,15C 64.4801,17.5029 66.8135,19.3362 69.5,20.5C 70.2019,15.6461 73.0352,13.6461 78,14.5C 82.9648,13.6461 85.7981,15.6461 86.5,20.5C 97.8529,20.8322 109.186,20.4988 120.5,19.5C 123.367,17.0867 126.701,16.0867 130.5,16.5C 138.97,15.8061 142.304,19.6395 140.5,28C 140.333,30.8333 140.167,33.6667 140,36.5C 139.385,38.1161 138.385,39.4495 137,40.5C 136.5,46.8246 136.334,53.1579 136.5,59.5C 141.594,58.6644 145.927,59.9978 149.5,63.5 Z M 15.5,22.5 C 18.5,22.5 21.5,22.5 24.5,22.5C 24.6655,26.5138 24.4988,30.5138 24,34.5C 21.7011,36.5355 19.2011,36.8688 16.5,35.5C 15.5078,31.2172 15.1744,26.8839 15.5,22.5 Z M 125.5,22.5 C 128.5,22.5 131.5,22.5 134.5,22.5C 134.826,26.8839 134.492,31.2172 133.5,35.5C 130.799,36.8688 128.299,36.5355 126,34.5C 125.501,30.5138 125.334,26.5138 125.5,22.5 Z M 60.5,25.5 C 61.0431,25.56 61.3764,25.8933 61.5,26.5C 51.1828,27.6656 40.8494,27.8323 30.5,27C 40.6751,26.8302 50.6751,26.3302 60.5,25.5 Z M 67.5,25.5 C 68.7733,26.0768 68.7733,26.7435 67.5,27.5C 66.537,27.0302 66.537,26.3635 67.5,25.5 Z M 74.5,27.5 C 89.3277,26.3389 104.328,26.1723 119.5,27C 116.5,27.3333 113.5,27.6667 110.5,28C 108.342,29.3117 108.009,30.9783 109.5,33C 112.882,33.1764 116.215,33.6764 119.5,34.5C 120.174,36.5165 121.341,38.1832 123,39.5C 123.5,46.1583 123.666,52.825 123.5,59.5C 112.34,58.5017 108.173,63.5017 111,74.5C 114.327,78.0524 118.494,79.8857 123.5,80C 115.824,78.9891 111.157,82.1557 109.5,89.5C 108.833,89.8333 108.167,90.1667 107.5,90.5C 104.868,86.0685 101.868,81.9018 98.5,78C 87.1667,77.3333 75.8333,77.3333 64.5,78C 63.1667,79.3333 63.1667,80.6667 64.5,82C 74.8333,82.3333 85.1667,82.6667 95.5,83C 96.3081,83.3076 96.9747,83.8076 97.5,84.5C 82.5,85.8333 67.5,85.8333 52.5,84.5C 54.8162,83.0682 57.3162,82.0682 60,81.5C 60.6493,78.0821 59.1493,76.7488 55.5,77.5C 53.192,77.3647 51.192,78.0314 49.5,79.5C 47.4026,83.3723 45.0692,87.039 42.5,90.5C 40.2198,89.2451 39.0532,87.2451 39,84.5C 35.5884,81.1211 31.4217,79.6211 26.5,80C 39.837,78.8666 43.1703,72.5333 36.5,61C 33.3117,59.6842 29.9783,59.1842 26.5,59.5C 26.3337,52.825 26.5004,46.1583 27,39.5C 28.6591,38.1832 29.8257,36.5165 30.5,34.5C 40.8172,33.3344 51.1506,33.1677 61.5,34C 52.0962,36.1166 50.4295,40.7833 56.5,48C 69.2623,48.9602 81.9289,48.6269 94.5,47C 98.6323,41.8859 97.6323,37.8859 91.5,35C 85.8333,34.6667 80.1667,34.3333 74.5,34C 84.1667,33.6667 93.8333,33.3333 103.5,33C 105.394,31.9207 105.727,30.5874 104.5,29C 94.6051,27.5505 84.6051,27.0505 74.5,27.5 Z M 58.5,40.5 C 69.5202,40.1679 80.5202,40.5012 91.5,41.5C 86,41.8333 80.5,42.1667 75,42.5C 69.1238,42.4952 63.6238,41.8286 58.5,40.5 Z M 6.5,65.5 C 15.5062,65.3336 24.5062,65.5002 33.5,66C 34.9817,68.5918 34.6483,70.9251 32.5,73C 23.8333,73.6667 15.1667,73.6667 6.5,73C 5.22147,70.5024 5.22147,68.0024 6.5,65.5 Z M 116.5,65.5 C 125.506,65.3336 134.506,65.5002 143.5,66C 144.591,68.0639 144.758,70.2305 144,72.5C 135.245,73.6497 126.412,73.8163 117.5,73C 115.285,70.7585 114.952,68.2585 116.5,65.5 Z M 8.5,85.5 C 16.1739,85.3336 23.8406,85.5003 31.5,86C 32.6721,86.4186 33.6721,87.0853 34.5,88C 29.9443,88.0827 27.2776,90.2494 26.5,94.5C 20.1579,94.6662 13.8246,94.4995 7.5,94C 5.58187,92.2298 5.08187,90.0631 6,87.5C 6.9947,86.9341 7.82803,86.2674 8.5,85.5 Z M 118.5,85.5 C 126.174,85.3336 133.841,85.5003 141.5,86C 143.852,86.5759 144.852,88.0759 144.5,90.5C 144.291,91.9945 143.624,93.1612 142.5,94C 136.175,94.4995 129.842,94.6662 123.5,94.5C 122.722,90.2494 120.056,88.0827 115.5,88C 116.571,87.1482 117.571,86.3149 118.5,85.5 Z M 49.5,90.5 C 66.5131,90.1672 83.5131,90.5005 100.5,91.5C 102.039,94.7456 103.706,97.9123 105.5,101C 85.1667,101.667 64.8333,101.667 44.5,101C 46.5793,97.6756 48.2459,94.1756 49.5,90.5 Z M 26.5,99.5 C 28.5643,99.687 30.5643,100.187 32.5,101C 31.5,101.167 30.5,101.333 29.5,101.5C 27.9704,101.36 26.9704,100.693 26.5,99.5 Z M 120.5,99.5 C 121.675,99.281 122.675,99.6143 123.5,100.5C 121.579,101.641 119.579,101.808 117.5,101C 118.737,100.768 119.737,100.268 120.5,99.5 Z M 7.5,106.5 C 14.8635,106.169 22.1968,106.503 29.5,107.5C 27.9802,109.662 26.9802,111.995 26.5,114.5C 19.825,114.666 13.1583,114.5 6.5,114C 5.04604,111.216 5.37937,108.716 7.5,106.5 Z M 120.5,106.5 C 128.223,106.2 135.89,106.533 143.5,107.5C 144.769,109.695 144.769,111.861 143.5,114C 136.842,114.5 130.175,114.666 123.5,114.5C 122.552,111.86 121.552,109.193 120.5,106.5 Z M 36.5,107.5 C 62.6487,107.01 88.6487,107.51 114.5,109C 88.1667,109.667 61.8333,109.667 35.5,109C 36.056,108.617 36.3893,108.117 36.5,107.5 Z M 32.5,116.5 C 38.31,115.51 44.31,115.177 50.5,115.5C 50.393,117.903 51.393,119.736 53.5,121C 67.8333,121.667 82.1667,121.667 96.5,121C 98.607,119.736 99.607,117.903 99.5,115.5C 105.509,115.334 111.509,115.501 117.5,116C 113.833,116.333 110.167,116.667 106.5,117C 105.02,118.299 104.354,119.966 104.5,122C 104.256,124.385 105.089,126.218 107,127.5C 110.441,128.382 113.941,128.716 117.5,128.5C 117.5,129.5 117.5,130.5 117.5,131.5C 111.5,131.5 105.5,131.5 99.5,131.5C 99.8957,128.956 99.229,126.789 97.5,125C 82.5,124.333 67.5,124.333 52.5,125C 50.771,126.789 50.1043,128.956 50.5,131.5C 44.5,131.5 38.5,131.5 32.5,131.5C 32.5,130.5 32.5,129.5 32.5,128.5C 36.0592,128.716 39.5592,128.382 43,127.5C 44.911,126.218 45.7444,124.385 45.5,122C 45.6464,119.966 44.9797,118.299 43.5,117C 39.8484,116.501 36.1817,116.335 32.5,116.5 Z M 6.5,127.5 C 13.1667,127.5 19.8333,127.5 26.5,127.5C 26.22,130.272 26.8866,132.772 28.5,135C 21.1667,135.667 13.8333,135.667 6.5,135C 5.22147,132.502 5.22147,130.002 6.5,127.5 Z M 123.5,127.5 C 130.175,127.334 136.842,127.5 143.5,128C 144.591,130.064 144.758,132.231 144,134.5C 136.58,135.647 129.08,135.813 121.5,135C 123.113,132.772 123.78,130.272 123.5,127.5 Z M 55.5,129.5 C 68.5171,129.168 81.5171,129.501 94.5,130.5C 88,130.833 81.5,131.167 75,131.5C 68.1307,131.497 61.6307,130.83 55.5,129.5 Z M 35.5,136.5 C 37.1667,136.5 38.8333,136.5 40.5,136.5C 40.2436,138.792 40.5769,140.959 41.5,143C 39.5273,143.495 37.5273,143.662 35.5,143.5C 35.5,141.167 35.5,138.833 35.5,136.5 Z M 109.5,136.5 C 111.167,136.5 112.833,136.5 114.5,136.5C 114.5,138.833 114.5,141.167 114.5,143.5C 112.473,143.662 110.473,143.495 108.5,143C 109.423,140.959 109.756,138.792 109.5,136.5 Z"/></g>
<g><path style="opacity:0.673" fill="#004563" d="M 64.5,49.5 C 66.9124,49.244 68.5791,50.244 69.5,52.5C 67.6367,55.7124 64.97,57.7124 61.5,58.5C 61.3706,62.485 59.5372,63.8183 56,62.5C 54.8629,58.63 56.3629,56.7967 60.5,57C 59.5494,56.2825 59.3828,55.4491 60,54.5C 61.7073,52.9625 63.2073,51.2959 64.5,49.5 Z"/></g>
<g><path style="opacity:0.738" fill="#004563" d="M 73.5,49.5 C 76.9496,49.5726 78.283,51.4059 77.5,55C 77.3708,56.9806 76.7042,58.6472 75.5,60C 78.7473,64.1936 77.7473,66.3602 72.5,66.5C 72.0833,63.9208 72.75,61.7542 74.5,60C 72.161,56.7654 71.8277,53.2654 73.5,49.5 Z"/></g>
<g><path style="opacity:0.673" fill="#004563" d="M 82.5,49.5 C 85.6136,50.0913 88.1136,51.758 90,54.5C 90.6172,55.4491 90.4506,56.2825 89.5,57C 93.6371,56.7967 95.1371,58.63 94,62.5C 90.4628,63.8183 88.6294,62.485 88.5,58.5C 85.3864,57.9087 82.8864,56.242 81,53.5C 80.7003,51.9343 81.2003,50.601 82.5,49.5 Z"/></g>
</svg>
