<?xml version="1.0" encoding="UTF-8"?>
<!DOCTYPE svg PUBLIC "-//W3C//DTD SVG 1.1//EN" "http://www.w3.org/Graphics/SVG/1.1/DTD/svg11.dtd">
<svg xmlns="http://www.w3.org/2000/svg" version="1.1" width="125px" height="193px" style="shape-rendering:geometricPrecision; text-rendering:geometricPrecision; image-rendering:optimizeQuality; fill-rule:evenodd; clip-rule:evenodd" xmlns:xlink="http://www.w3.org/1999/xlink">
<g><path style="opacity:1" fill="#908d8b" d="M 24.5,-0.5 C 25.8333,-0.5 27.1667,-0.5 28.5,-0.5C 29.1667,0.5 29.8333,1.5 30.5,2.5C 31.023,5.53026 31.3563,8.53026 31.5,11.5C 29.5212,10.1879 27.8545,8.52122 26.5,6.5C 27.325,5.61432 28.325,5.28099 29.5,5.5C 29.5,4.5 29.5,3.5 29.5,2.5C 25.5994,1.85707 22.266,2.85707 19.5,5.5C 18.8933,5.37642 18.56,5.04309 18.5,4.5C 20.5,2.83333 22.5,1.16667 24.5,-0.5 Z"/></g>
<g><path style="opacity:1" fill="#d4d2d2" d="M 18.5,-0.5 C 20.5,-0.5 22.5,-0.5 24.5,-0.5C 22.5,1.16667 20.5,2.83333 18.5,4.5C 15.8612,9.81281 13.6945,15.4795 12,21.5C 11.1925,25.0267 11.3592,28.3601 12.5,31.5C 12.5,34.1667 12.5,36.8333 12.5,39.5C 11.8826,39.3893 11.3826,39.056 11,38.5C 9.89037,40.0368 8.39037,40.7035 6.5,40.5C 6.16667,40.5 5.83333,40.5 5.5,40.5C 5.32526,38.3792 5.65859,36.3792 6.5,34.5C 7.47449,35.635 8.64116,36.635 10,37.5C 8.89287,28.1425 10.3929,19.1425 14.5,10.5C 12.1996,8.17168 12.1996,6.00502 14.5,4C 14.2716,3.60123 13.9382,3.43456 13.5,3.5C 15.1667,2.16667 16.8333,0.833333 18.5,-0.5 Z"/></g>
<g><path style="opacity:1" fill="#adaaa9" d="M 31.5,11.5 C 31.8333,12.8333 32.1667,14.1667 32.5,15.5C 32.6332,18.925 31.9665,19.2583 30.5,16.5C 26.2745,4.95104 21.4411,4.6177 16,15.5C 14.0016,20.6592 12.835,25.9925 12.5,31.5C 11.3592,28.3601 11.1925,25.0267 12,21.5C 13.6945,15.4795 15.8612,9.81281 18.5,4.5C 18.56,5.04309 18.8933,5.37642 19.5,5.5C 22.266,2.85707 25.5994,1.85707 29.5,2.5C 29.5,3.5 29.5,4.5 29.5,5.5C 28.325,5.28099 27.325,5.61432 26.5,6.5C 27.8545,8.52122 29.5212,10.1879 31.5,11.5 Z"/></g>
<g><path style="opacity:0.906" fill="#aca8a7" d="M 30.5,2.5 C 32.0174,2.51056 33.1841,3.17723 34,4.5C 36.5457,7.85968 38.3791,11.5264 39.5,15.5C 39.5,15.8333 39.5,16.1667 39.5,16.5C 37.4503,14.7632 35.617,12.7632 34,10.5C 33.5357,11.0944 33.369,11.7611 33.5,12.5C 32.8333,12.1667 32.1667,11.8333 31.5,11.5C 31.3563,8.53026 31.023,5.53026 30.5,2.5 Z"/></g>
<g><path style="opacity:1" fill="#393738" d="M 31.5,11.5 C 32.1667,11.8333 32.8333,12.1667 33.5,12.5C 33.5394,13.5832 33.8728,14.5832 34.5,15.5C 34.0302,16.463 33.3635,16.463 32.5,15.5C 32.1667,14.1667 31.8333,12.8333 31.5,11.5 Z"/></g>
<g><path style="opacity:1" fill="#a0a4a3" d="M 13.5,3.5 C 13.9382,3.43456 14.2716,3.60123 14.5,4C 12.1996,6.00502 12.1996,8.17168 14.5,10.5C 10.3929,19.1425 8.89287,28.1425 10,37.5C 8.64116,36.635 7.47449,35.635 6.5,34.5C 5.65859,36.3792 5.32526,38.3792 5.5,40.5C 5.5,42.8333 5.5,45.1667 5.5,47.5C 3.95496,46.7703 3.12162,45.437 3,43.5C 2.50137,39.8484 2.3347,36.1817 2.5,32.5C 2.85021,21.4327 6.51688,11.7661 13.5,3.5 Z"/></g>
<g><path style="opacity:1" fill="#676563" d="M 6.5,34.5 C 5.65948,28.1384 6.49282,21.8051 9,15.5C 8.22197,21.784 7.38863,28.1173 6.5,34.5 Z"/></g>
<g><path style="opacity:1" fill="#b9b7b5" d="M 33.5,12.5 C 34.8846,13.5736 36.0513,14.9069 37,16.5C 38.4903,21.129 39.657,25.7957 40.5,30.5C 39.5489,31.9187 39.2155,33.5853 39.5,35.5C 38.5,35.5 37.5,35.5 36.5,35.5C 36.5,34.5 36.5,33.5 36.5,32.5C 36.5,31.1667 36.5,29.8333 36.5,28.5C 37.3019,29.9516 37.8019,31.6183 38,33.5C 38.8869,28.9283 38.2202,24.595 36,20.5C 35.5357,21.0944 35.369,21.7611 35.5,22.5C 34.7321,21.7375 34.2321,20.7375 34,19.5C 33.3292,20.2524 32.4959,20.5858 31.5,20.5C 30.5655,19.4324 30.2322,18.099 30.5,16.5C 31.9665,19.2583 32.6332,18.925 32.5,15.5C 33.3635,16.463 34.0302,16.463 34.5,15.5C 33.8728,14.5832 33.5394,13.5832 33.5,12.5 Z"/></g>
<g><path style="opacity:1" fill="#8c8986" d="M 39.5,16.5 C 40.7622,22.4529 41.7622,28.4529 42.5,34.5C 42.1373,35.1835 41.8039,35.8501 41.5,36.5C 40.5386,34.7354 40.2053,32.7354 40.5,30.5C 39.657,25.7957 38.4903,21.129 37,16.5C 36.0513,14.9069 34.8846,13.5736 33.5,12.5C 33.369,11.7611 33.5357,11.0944 34,10.5C 35.617,12.7632 37.4503,14.7632 39.5,16.5 Z"/></g>
<g><path style="opacity:1" fill="#484844" d="M 36.5,28.5 C 36.4828,26.4352 36.1495,24.4352 35.5,22.5C 35.369,21.7611 35.5357,21.0944 36,20.5C 38.2202,24.595 38.8869,28.9283 38,33.5C 37.8019,31.6183 37.3019,29.9516 36.5,28.5 Z"/></g>
<g><path style="opacity:1" fill="#f8f9f8" d="M 36.5,32.5 C 36.5,33.5 36.5,34.5 36.5,35.5C 36.1604,41.8702 35.4937,48.2035 34.5,54.5C 33.5,54.5 32.5,54.5 31.5,54.5C 33.6407,45.9851 34.8074,37.3184 35,28.5C 35.21,30.0581 35.71,31.3915 36.5,32.5 Z"/></g>
<g><path style="opacity:0.831" fill="#b1adac" d="M 39.5,15.5 C 41.3348,18.842 42.5015,22.5086 43,26.5C 43.2315,30.5548 43.7315,34.5548 44.5,38.5C 44.1373,39.1835 43.8039,39.8501 43.5,40.5C 42.0221,41.4475 41.0221,42.7809 40.5,44.5C 40.5751,41.7938 40.9084,39.1272 41.5,36.5C 41.8039,35.8501 42.1373,35.1835 42.5,34.5C 41.7622,28.4529 40.7622,22.4529 39.5,16.5C 39.5,16.1667 39.5,15.8333 39.5,15.5 Z"/></g>
<g><path style="opacity:0.467" fill="#cfdcdd" d="M 2.5,32.5 C 2.3347,36.1817 2.50137,39.8484 3,43.5C 3.12162,45.437 3.95496,46.7703 5.5,47.5C 5.5,47.8333 5.5,48.1667 5.5,48.5C 4.27935,49.0283 3.11268,49.695 2,50.5C 1.83333,50.1667 1.66667,49.8333 1.5,49.5C 1.25832,43.8258 1.59165,38.1591 2.5,32.5 Z"/></g>
<g><path style="opacity:1" fill="#ccd4d6" d="M 35.5,22.5 C 36.1495,24.4352 36.4828,26.4352 36.5,28.5C 36.5,29.8333 36.5,31.1667 36.5,32.5C 35.71,31.3915 35.21,30.0581 35,28.5C 34.8074,37.3184 33.6407,45.9851 31.5,54.5C 29.7098,56.8304 28.2098,59.497 27,62.5C 27.4759,60.6799 27.3093,59.0133 26.5,57.5C 30.4411,49.9008 32.4411,41.7341 32.5,33C 31.7625,28.8633 31.4292,24.6966 31.5,20.5C 32.4959,20.5858 33.3292,20.2524 34,19.5C 34.2321,20.7375 34.7321,21.7375 35.5,22.5 Z"/></g>
<g><path style="opacity:1" fill="#cbcbc9" d="M 40.5,30.5 C 40.2053,32.7354 40.5386,34.7354 41.5,36.5C 40.9084,39.1272 40.5751,41.7938 40.5,44.5C 40.6716,45.4916 40.3382,46.1583 39.5,46.5C 39.6621,44.4727 39.4955,42.4727 39,40.5C 37.7514,44.402 36.918,48.402 36.5,52.5C 35.8333,53.1667 35.1667,53.8333 34.5,54.5C 35.4937,48.2035 36.1604,41.8702 36.5,35.5C 37.5,35.5 38.5,35.5 39.5,35.5C 39.2155,33.5853 39.5489,31.9187 40.5,30.5 Z"/></g>
<g><path style="opacity:1" fill="#605a59" d="M 5.5,40.5 C 5.83333,40.5 6.16667,40.5 6.5,40.5C 6.26269,41.791 6.59603,42.791 7.5,43.5C 7.78448,45.4147 7.45115,47.0813 6.5,48.5C 6.16667,48.5 5.83333,48.5 5.5,48.5C 5.5,48.1667 5.5,47.8333 5.5,47.5C 5.5,45.1667 5.5,42.8333 5.5,40.5 Z"/></g>
<g><path style="opacity:1" fill="#bbbab9" d="M 43.5,40.5 C 44.0431,40.56 44.3764,40.8933 44.5,41.5C 43.5424,46.4496 42.8757,51.4496 42.5,56.5C 40.2476,57.9573 40.5809,59.4573 43.5,61C 43.2716,61.3988 42.9382,61.5654 42.5,61.5C 42.1667,61.5 41.8333,61.5 41.5,61.5C 40.3126,59.0246 38.3126,58.0246 35.5,58.5C 35.9303,57.579 37.2636,57.079 39.5,57C 38.1667,56.3333 38.1667,55.6667 39.5,55C 38.9056,54.5357 38.2389,54.369 37.5,54.5C 37.9628,51.6697 38.6295,49.003 39.5,46.5C 40.3382,46.1583 40.6716,45.4916 40.5,44.5C 41.0221,42.7809 42.0221,41.4475 43.5,40.5 Z"/></g>
<g><path style="opacity:1" fill="#9b9694" d="M 12.5,39.5 C 12.5,43.1667 12.5,46.8333 12.5,50.5C 12.5875,53.5983 12.0875,53.9316 11,51.5C 10.6667,54.1667 10.3333,56.8333 10,59.5C 9.80192,57.6183 9.30192,55.9516 8.5,54.5C 8.81497,50.6286 8.48164,46.9619 7.5,43.5C 6.59603,42.791 6.26269,41.791 6.5,40.5C 8.39037,40.7035 9.89037,40.0368 11,38.5C 11.3826,39.056 11.8826,39.3893 12.5,39.5 Z"/></g>
<g><path style="opacity:1" fill="#2e2e2d" d="M 39.5,46.5 C 38.6295,49.003 37.9628,51.6697 37.5,54.5C 36.6618,54.1583 36.3284,53.4916 36.5,52.5C 36.918,48.402 37.7514,44.402 39,40.5C 39.4955,42.4727 39.6621,44.4727 39.5,46.5 Z"/></g>
<g><path style="opacity:1" fill="#838587" d="M 36.5,52.5 C 36.3284,53.4916 36.6618,54.1583 37.5,54.5C 38.2389,54.369 38.9056,54.5357 39.5,55C 38.1667,55.6667 38.1667,56.3333 39.5,57C 37.2636,57.079 35.9303,57.579 35.5,58.5C 35.5,58.8333 35.5,59.1667 35.5,59.5C 34.5868,61.0861 34.5868,62.5861 35.5,64C 34.9558,64.7172 34.2891,65.2172 33.5,65.5C 33.719,64.325 33.3857,63.325 32.5,62.5C 31.5745,63.6405 30.7412,63.6405 30,62.5C 29.3551,63.646 28.5217,64.646 27.5,65.5C 28.7914,66.5272 28.7914,67.5272 27.5,68.5C 26.3991,69.5983 25.0657,69.765 23.5,69C 24.0561,65.0366 25.0561,61.2033 26.5,57.5C 27.3093,59.0133 27.4759,60.6799 27,62.5C 28.2098,59.497 29.7098,56.8304 31.5,54.5C 32.5,54.5 33.5,54.5 34.5,54.5C 35.1667,53.8333 35.8333,53.1667 36.5,52.5 Z"/></g>
<g><path style="opacity:1" fill="#cec8c7" d="M 12.5,50.5 C 13.2302,54.0606 13.8969,57.7272 14.5,61.5C 13.1667,61.5 12.5,62.1667 12.5,63.5C 10.8762,63.6399 9.70956,62.9733 9,61.5C 8.50335,59.1902 8.33669,56.8568 8.5,54.5C 9.30192,55.9516 9.80192,57.6183 10,59.5C 10.3333,56.8333 10.6667,54.1667 11,51.5C 12.0875,53.9316 12.5875,53.5983 12.5,50.5 Z"/></g>
<g><path style="opacity:1" fill="#464544" d="M 35.5,59.5 C 35.5,59.1667 35.5,58.8333 35.5,58.5C 38.3126,58.0246 40.3126,59.0246 41.5,61.5C 41.1667,61.5 40.8333,61.5 40.5,61.5C 39.1993,64.1013 37.866,66.768 36.5,69.5C 35.9033,69.2648 35.5699,68.7648 35.5,68C 36.0629,65.2734 36.7295,62.6067 37.5,60C 36.9056,59.5357 36.2389,59.369 35.5,59.5 Z"/></g>
<g><path style="opacity:1" fill="#1f1a1a" d="M 14.5,61.5 C 14.7148,63.1788 14.0481,64.1788 12.5,64.5C 12.5,64.1667 12.5,63.8333 12.5,63.5C 12.5,62.1667 13.1667,61.5 14.5,61.5 Z"/></g>
<g><path style="opacity:1" fill="#787879" d="M 40.5,61.5 C 40.8333,61.5 41.1667,61.5 41.5,61.5C 41.8333,61.5 42.1667,61.5 42.5,61.5C 44.8774,63.228 46.544,65.5614 47.5,68.5C 46.8763,70.8337 46.043,73.1671 45,75.5C 43.3133,72.7082 41.1466,72.0415 38.5,73.5C 38.5,74.8333 38.5,76.1667 38.5,77.5C 37.209,77.2627 36.209,77.596 35.5,78.5C 33.1667,79.5 32.5,78.8333 33.5,76.5C 32.6457,74.965 32.6457,73.6316 33.5,72.5C 34.9914,75.2296 36.3248,75.063 37.5,72C 39.1545,71.3923 40.8211,70.8923 42.5,70.5C 43.8493,71.6441 44.1826,71.6441 43.5,70.5C 43.7845,68.5853 43.4511,66.9187 42.5,65.5C 42.2671,63.9382 41.6005,62.6049 40.5,61.5 Z"/></g>
<g><path style="opacity:1" fill="#a5a5a5" d="M 42.5,56.5 C 48.9414,61.4886 50.9414,67.8219 48.5,75.5C 48.0074,73.1944 47.6741,70.861 47.5,68.5C 46.544,65.5614 44.8774,63.228 42.5,61.5C 42.9382,61.5654 43.2716,61.3988 43.5,61C 40.5809,59.4573 40.2476,57.9573 42.5,56.5 Z"/></g>
<g><path style="opacity:1" fill="#d2cfcb" d="M 7.5,43.5 C 8.48164,46.9619 8.81497,50.6286 8.5,54.5C 8.33669,56.8568 8.50335,59.1902 9,61.5C 9.70956,62.9733 10.8762,63.6399 12.5,63.5C 12.5,63.8333 12.5,64.1667 12.5,64.5C 14.3779,65.2076 16.0445,66.3743 17.5,68C 16.4281,69.2837 15.0948,69.6171 13.5,69C 14.6872,70.0195 15.6872,71.1861 16.5,72.5C 17.8498,73.9501 19.5165,74.6168 21.5,74.5C 22.1667,74.5 22.5,74.8333 22.5,75.5C 20.4017,76.9626 18.4017,76.7959 16.5,75C 9.89629,70.6326 6.22963,64.466 5.5,56.5C 5.84569,55.3044 6.34569,55.3044 7,56.5C 7.72183,53.7395 7.55516,51.0728 6.5,48.5C 7.45115,47.0813 7.78448,45.4147 7.5,43.5 Z"/></g>
<g><path style="opacity:1" fill="#a19e9a" d="M 14.5,61.5 C 17.3667,61.3692 19.0334,62.7026 19.5,65.5C 18.7659,66.7079 18.4326,68.0413 18.5,69.5C 18.0618,69.4346 17.7284,69.6012 17.5,70C 19.0414,71.3712 20.3747,72.8712 21.5,74.5C 19.5165,74.6168 17.8498,73.9501 16.5,72.5C 15.6872,71.1861 14.6872,70.0195 13.5,69C 15.0948,69.6171 16.4281,69.2837 17.5,68C 16.0445,66.3743 14.3779,65.2076 12.5,64.5C 14.0481,64.1788 14.7148,63.1788 14.5,61.5 Z"/></g>
<g><path style="opacity:1" fill="#554a4a" d="M 33.5,65.5 C 32.8333,66.8333 31.8333,67.8333 30.5,68.5C 29.7978,67.8843 28.7978,67.8843 27.5,68.5C 28.7914,67.5272 28.7914,66.5272 27.5,65.5C 28.5217,64.646 29.3551,63.646 30,62.5C 30.7412,63.6405 31.5745,63.6405 32.5,62.5C 33.3857,63.325 33.719,64.325 33.5,65.5 Z"/></g>
<g><path style="opacity:0.737" fill="#fcfcfc" d="M 42.5,65.5 C 43.4511,66.9187 43.7845,68.5853 43.5,70.5C 43.1667,70.5 42.8333,70.5 42.5,70.5C 41.9035,68.602 41.9035,66.9354 42.5,65.5 Z"/></g>
<g><path style="opacity:1" fill="#3b3837" d="M 18.5,69.5 C 20.2459,71.2516 22.2459,72.5849 24.5,73.5C 25.6085,74.29 26.9419,74.79 28.5,75C 27.9056,75.4643 27.2389,75.631 26.5,75.5C 25.1667,75.5 23.8333,75.5 22.5,75.5C 22.5,74.8333 22.1667,74.5 21.5,74.5C 20.3747,72.8712 19.0414,71.3712 17.5,70C 17.7284,69.6012 18.0618,69.4346 18.5,69.5 Z"/></g>
<g><path style="opacity:1" fill="#b5b6b3" d="M 26.5,57.5 C 25.0561,61.2033 24.0561,65.0366 23.5,69C 25.0657,69.765 26.3991,69.5983 27.5,68.5C 28.7978,67.8843 29.7978,67.8843 30.5,68.5C 29.3192,70.0672 27.6526,70.9005 25.5,71C 27.6526,71.0995 29.3192,71.9328 30.5,73.5C 28.5,73.5 26.5,73.5 24.5,73.5C 22.2459,72.5849 20.2459,71.2516 18.5,69.5C 18.4326,68.0413 18.7659,66.7079 19.5,65.5C 20.4822,66.1408 21.4822,66.8075 22.5,67.5C 22.8333,67.1667 23.1667,66.8333 23.5,66.5C 22.3332,63.8001 22.4999,61.1335 24,58.5C 24.6708,57.7476 25.5041,57.4142 26.5,57.5 Z"/></g>
<g><path style="opacity:1" fill="#b5b0ae" d="M 35.5,59.5 C 36.2389,59.369 36.9056,59.5357 37.5,60C 36.7295,62.6067 36.0629,65.2734 35.5,68C 35.5699,68.7648 35.9033,69.2648 36.5,69.5C 35.8333,70.8333 34.8333,71.8333 33.5,72.5C 32.6457,73.6316 32.6457,74.965 33.5,76.5C 31.5,76.5 30.5,75.5 30.5,73.5C 29.3192,71.9328 27.6526,71.0995 25.5,71C 27.6526,70.9005 29.3192,70.0672 30.5,68.5C 31.8333,67.8333 32.8333,66.8333 33.5,65.5C 34.2891,65.2172 34.9558,64.7172 35.5,64C 34.5868,62.5861 34.5868,61.0861 35.5,59.5 Z"/></g>
<g><path style="opacity:1" fill="#8b8b8b" d="M 38.5,73.5 C 41.5719,74.3178 41.9052,75.4845 39.5,77C 40.3081,77.3076 40.9747,77.8076 41.5,78.5C 37.5564,80.4041 37.8897,81.4041 42.5,81.5C 42.5,82.8333 42.5,84.1667 42.5,85.5C 40.7853,84.0807 38.9519,82.7473 37,81.5C 37.3052,83.4432 37.3052,85.4432 37,87.5C 36.7216,86.5842 36.2216,85.9175 35.5,85.5C 35.7153,82.8563 35.7153,80.523 35.5,78.5C 36.209,77.596 37.209,77.2627 38.5,77.5C 38.5,76.1667 38.5,74.8333 38.5,73.5 Z"/></g>
<g><path style="opacity:1" fill="#424141" d="M 47.5,68.5 C 47.6741,70.861 48.0074,73.1944 48.5,75.5C 48.0679,76.7095 47.4013,77.7095 46.5,78.5C 45.6618,78.8417 45.3284,79.5084 45.5,80.5C 45.1075,82.2838 44.4408,83.9505 43.5,85.5C 43.1667,85.5 42.8333,85.5 42.5,85.5C 42.5,84.1667 42.5,82.8333 42.5,81.5C 37.8897,81.4041 37.5564,80.4041 41.5,78.5C 40.9747,77.8076 40.3081,77.3076 39.5,77C 41.9052,75.4845 41.5719,74.3178 38.5,73.5C 41.1466,72.0415 43.3133,72.7082 45,75.5C 46.043,73.1671 46.8763,70.8337 47.5,68.5 Z"/></g>
<g><path style="opacity:0.045" fill="#d6e0e5" d="M 27.5,83.5 C 26.4246,84.5624 25.4246,84.5624 24.5,83.5C 25.0253,82.8076 25.6919,82.3076 26.5,82C 25.2528,80.5064 25.2528,79.0064 26.5,77.5C 27.4656,79.396 27.7989,81.396 27.5,83.5 Z"/></g>
<g><path style="opacity:1" fill="#989d9c" d="M 24.5,73.5 C 26.5,73.5 28.5,73.5 30.5,73.5C 30.5,75.5 31.5,76.5 33.5,76.5C 32.5,78.8333 33.1667,79.5 35.5,78.5C 35.7153,80.523 35.7153,82.8563 35.5,85.5C 35.6602,87.1992 35.4935,88.8659 35,90.5C 34.8078,88.4233 34.3078,86.4233 33.5,84.5C 33.1667,85.1667 32.8333,85.8333 32.5,86.5C 34.3007,90.2209 34.6341,93.8876 33.5,97.5C 33.5608,93.9513 32.7275,90.6179 31,87.5C 30.3457,88.6956 29.8457,88.6956 29.5,87.5C 31.5646,82.5164 30.5646,78.5164 26.5,75.5C 27.2389,75.631 27.9056,75.4643 28.5,75C 26.9419,74.79 25.6085,74.29 24.5,73.5 Z"/></g>
<g><path style="opacity:0.737" fill="#c1c3c3" d="M 46.5,78.5 C 49.1666,80.1734 51.1666,82.5067 52.5,85.5C 52.1373,86.1835 51.8039,86.8501 51.5,87.5C 49.5,85.1667 47.5,82.8333 45.5,80.5C 45.3284,79.5084 45.6618,78.8417 46.5,78.5 Z"/></g>
<g><path style="opacity:0.541" fill="#d9e4e9" d="M 27.5,83.5 C 30.1667,84.1667 30.1667,84.8333 27.5,85.5C 27.5,84.8333 27.5,84.1667 27.5,83.5 Z"/></g>
<g><path style="opacity:1" fill="#6c6d6e" d="M 45.5,80.5 C 47.5,82.8333 49.5,85.1667 51.5,87.5C 52.6873,89.0725 53.6873,90.7392 54.5,92.5C 54.1583,93.3382 53.4916,93.6716 52.5,93.5C 52.6495,92.448 52.4828,91.448 52,90.5C 51.7805,92.9732 50.6138,94.6398 48.5,95.5C 49.2916,94.0331 49.2916,92.6998 48.5,91.5C 47.5,93.1667 46.1667,94.5 44.5,95.5C 43.8076,94.9747 43.3076,94.3081 43,93.5C 41.9887,94.3366 40.8221,94.67 39.5,94.5C 40.4698,91.3389 42.1365,88.5056 44.5,86C 44.2716,85.6012 43.9382,85.4346 43.5,85.5C 44.4408,83.9505 45.1075,82.2838 45.5,80.5 Z M 45.5,84.5 C 47.1786,85.9997 48.5119,87.833 49.5,90C 46.9925,90.0929 44.8259,90.9262 43,92.5C 43.5237,89.7816 44.357,87.1149 45.5,84.5 Z"/></g>
<g><path style="opacity:1" fill="#45484a" d="M 42.5,85.5 C 39.6868,89.0666 37.5201,93.0666 36,97.5C 35.2599,98.7494 35.4265,99.7494 36.5,100.5C 38.817,101.534 39.817,100.534 39.5,97.5C 41.9935,97.1307 42.6602,97.7973 41.5,99.5C 40.6923,101.22 39.6923,102.887 38.5,104.5C 37.3303,106.279 35.6636,107.279 33.5,107.5C 34.2894,106.085 34.9561,104.585 35.5,103C 34.1153,101.403 33.4486,99.5695 33.5,97.5C 34.6341,93.8876 34.3007,90.2209 32.5,86.5C 32.8333,85.8333 33.1667,85.1667 33.5,84.5C 34.3078,86.4233 34.8078,88.4233 35,90.5C 35.4935,88.8659 35.6602,87.1992 35.5,85.5C 36.2216,85.9175 36.7216,86.5842 37,87.5C 37.3052,85.4432 37.3052,83.4432 37,81.5C 38.9519,82.7473 40.7853,84.0807 42.5,85.5 Z"/></g>
<g><path style="opacity:1" fill="#101212" d="M 70.5,87.5 C 72.8333,87.5 75.1667,87.5 77.5,87.5C 77.9175,88.2216 78.5842,88.7216 79.5,89C 78.0745,90.7141 78.4078,92.0475 80.5,93C 77.5184,93.498 74.5184,93.6646 71.5,93.5C 70.1938,92.5326 69.5271,91.1993 69.5,89.5C 70.3382,89.1583 70.6716,88.4916 70.5,87.5 Z"/></g>
<g><path style="opacity:1" fill="#a7a8ac" d="M 42.5,85.5 C 42.8333,85.5 43.1667,85.5 43.5,85.5C 43.9382,85.4346 44.2716,85.6012 44.5,86C 42.1365,88.5056 40.4698,91.3389 39.5,94.5C 39.0248,96.7837 38.0248,98.7837 36.5,100.5C 35.4265,99.7494 35.2599,98.7494 36,97.5C 37.5201,93.0666 39.6868,89.0666 42.5,85.5 Z"/></g>
<g><path style="opacity:1" fill="#090a0f" d="M 69.5,89.5 C 69.5271,91.1993 70.1938,92.5326 71.5,93.5C 70.209,93.2627 69.209,93.596 68.5,94.5C 66.901,94.2322 65.5676,94.5655 64.5,95.5C 62.7839,95.6287 61.1172,95.962 59.5,96.5C 58.0462,95.4797 57.7129,94.313 58.5,93C 61.7343,90.5333 65.4009,89.3666 69.5,89.5 Z"/></g>
<g><path style="opacity:1" fill="#1a1a1d" d="M 77.5,87.5 C 82.8994,87.7647 87.8994,89.098 92.5,91.5C 90.1582,91.7748 90.1582,92.6081 92.5,94C 90.5743,94.4224 89.5743,95.5891 89.5,97.5C 87.5786,96.6373 85.5786,95.9707 83.5,95.5C 78.6946,94.5128 73.6946,94.1795 68.5,94.5C 69.209,93.596 70.209,93.2627 71.5,93.5C 74.5184,93.6646 77.5184,93.498 80.5,93C 78.4078,92.0475 78.0745,90.7141 79.5,89C 78.5842,88.7216 77.9175,88.2216 77.5,87.5 Z"/></g>
<g><path style="opacity:1" fill="#1f1f21" d="M 70.5,87.5 C 70.6716,88.4916 70.3382,89.1583 69.5,89.5C 65.4009,89.3666 61.7343,90.5333 58.5,93C 57.7129,94.313 58.0462,95.4797 59.5,96.5C 58.9094,97.1515 58.2427,97.8182 57.5,98.5C 57.6236,99.1067 57.9569,99.44 58.5,99.5C 59.3543,101.035 59.3543,102.368 58.5,103.5C 57.7399,99.8093 55.7399,98.8093 52.5,100.5C 52.0825,99.7784 51.4158,99.2784 50.5,99C 52.3325,98.2515 53.9991,97.2515 55.5,96C 54.4293,95.1482 53.4293,94.3149 52.5,93.5C 53.4916,93.6716 54.1583,93.3382 54.5,92.5C 59.4457,89.9243 64.7791,88.2577 70.5,87.5 Z"/></g>
<g><path style="opacity:0.008" fill="#ecfaff" d="M 31.5,94.5 C 32.525,94.8966 32.6917,95.5632 32,96.5C 31.5357,95.9056 31.369,95.2389 31.5,94.5 Z"/></g>
<g><path style="opacity:1" fill="#2c2c2c" d="M 48.5,95.5 C 46.703,96.393 45.3696,97.7263 44.5,99.5C 43.5,100.833 42.5,100.833 41.5,99.5C 42.6602,97.7973 41.9935,97.1307 39.5,97.5C 39.817,100.534 38.817,101.534 36.5,100.5C 38.0248,98.7837 39.0248,96.7837 39.5,94.5C 40.8221,94.67 41.9887,94.3366 43,93.5C 43.3076,94.3081 43.8076,94.9747 44.5,95.5C 46.1667,94.5 47.5,93.1667 48.5,91.5C 49.2916,92.6998 49.2916,94.0331 48.5,95.5 Z"/></g>
<g><path style="opacity:1" fill="#443f3c" d="M 64.5,95.5 C 65.5676,94.5655 66.901,94.2322 68.5,94.5C 73.6946,94.1795 78.6946,94.5128 83.5,95.5C 82.448,95.3505 81.448,95.5172 80.5,96C 84.5116,97.8033 84.1782,98.8033 79.5,99C 80.5,99.8333 81.5,100.667 82.5,101.5C 82.1445,102.522 81.4778,103.189 80.5,103.5C 79.4479,101.744 77.7812,101.077 75.5,101.5C 75.9175,100.778 76.5842,100.278 77.5,100C 76.2068,99.51 74.8734,99.3433 73.5,99.5C 73.5,98.8333 73.5,98.1667 73.5,97.5C 74.8734,97.6567 76.2068,97.49 77.5,97C 73.8484,96.5014 70.1817,96.3347 66.5,96.5C 66.1583,95.6618 65.4916,95.3284 64.5,95.5 Z"/></g>
<g><path style="opacity:1" fill="#232425" d="M 92.5,91.5 C 98.1845,93.3481 102.851,96.6814 106.5,101.5C 104.179,101.771 102.179,101.104 100.5,99.5C 99.4777,99.8555 98.811,100.522 98.5,101.5C 97.1147,100.386 95.6147,99.3862 94,98.5C 93.3162,97.2161 93.4829,96.0495 94.5,95C 93.695,93.8873 93.0283,92.7206 92.5,91.5 Z"/></g>
<g><path style="opacity:1" fill="#1f1916" d="M 66.5,96.5 C 70.1817,96.3347 73.8484,96.5014 77.5,97C 76.2068,97.49 74.8734,97.6567 73.5,97.5C 69.1625,97.8007 64.9959,98.8007 61,100.5C 60.0979,100.257 59.2646,99.9234 58.5,99.5C 60.7916,97.7329 63.4582,96.7329 66.5,96.5 Z"/></g>
<g><path style="opacity:0.012" fill="#d2dae3" d="M 27.5,85.5 C 27.5679,87.9351 27.5679,90.4351 27.5,93C 30.028,94.0174 30.028,95.1841 27.5,96.5C 28.4122,100.204 27.4122,100.538 24.5,97.5C 25.311,96.7836 25.9777,95.9503 26.5,95C 26.6161,92.6012 26.2828,90.1012 25.5,87.5C 25.7472,86.2867 26.4138,85.62 27.5,85.5 Z"/></g>
<g><path style="opacity:1" fill="#737170" d="M 64.5,95.5 C 65.4916,95.3284 66.1583,95.6618 66.5,96.5C 63.4582,96.7329 60.7916,97.7329 58.5,99.5C 57.9569,99.44 57.6236,99.1067 57.5,98.5C 58.2427,97.8182 58.9094,97.1515 59.5,96.5C 61.1172,95.962 62.7839,95.6287 64.5,95.5 Z"/></g>
<g><path style="opacity:1" fill="#0a0a0d" d="M 52.5,93.5 C 53.4293,94.3149 54.4293,95.1482 55.5,96C 53.9991,97.2515 52.3325,98.2515 50.5,99C 51.4158,99.2784 52.0825,99.7784 52.5,100.5C 50.2279,101.441 48.2279,102.774 46.5,104.5C 46.0618,104.565 45.7284,104.399 45.5,104C 49.7233,101.139 49.3899,99.6392 44.5,99.5C 45.3696,97.7263 46.703,96.393 48.5,95.5C 50.6138,94.6398 51.7805,92.9732 52,90.5C 52.4828,91.448 52.6495,92.448 52.5,93.5 Z"/></g>
<g><path style="opacity:0.012" fill="#969fac" d="M 29.5,101.5 C 29.8966,100.475 30.5632,100.308 31.5,101C 30.9056,101.464 30.2389,101.631 29.5,101.5 Z"/></g>
<g><path style="opacity:1" fill="#0d0d12" d="M 41.5,99.5 C 42.5,100.833 43.5,100.833 44.5,99.5C 49.3899,99.6392 49.7233,101.139 45.5,104C 45.7284,104.399 46.0618,104.565 46.5,104.5C 46.0269,105.906 45.0269,106.573 43.5,106.5C 43.0919,105.357 42.4252,104.357 41.5,103.5C 41.2514,104.582 41.0848,105.915 41,107.5C 39.955,106.627 39.1217,105.627 38.5,104.5C 39.6923,102.887 40.6923,101.22 41.5,99.5 Z"/></g>
<g><path style="opacity:1" fill="#5c5553" d="M 73.5,97.5 C 73.5,98.1667 73.5,98.8333 73.5,99.5C 68.8226,99.059 64.8226,100.392 61.5,103.5C 62.4565,105.075 63.1231,106.742 63.5,108.5C 63.6567,109.873 63.49,111.207 63,112.5C 62.6174,111.944 62.1174,111.611 61.5,111.5C 60.758,109.02 59.758,106.687 58.5,104.5C 58.5,104.167 58.5,103.833 58.5,103.5C 59.3543,102.368 59.3543,101.035 58.5,99.5C 59.2646,99.9234 60.0979,100.257 61,100.5C 64.9959,98.8007 69.1625,97.8007 73.5,97.5 Z"/></g>
<g><path style="opacity:1" fill="#1b1917" d="M 83.5,108.5 C 83.1667,109.167 82.8333,109.833 82.5,110.5C 81.8826,110.611 81.3826,110.944 81,111.5C 80.3224,109.402 80.4891,107.402 81.5,105.5C 83.1321,102.867 85.1321,100.533 87.5,98.5C 90.1732,99.5014 92.5065,101.001 94.5,103C 92.4971,102.581 90.4971,101.747 88.5,100.5C 86.325,102.85 84.6583,105.517 83.5,108.5 Z"/></g>
<g><path style="opacity:1" fill="#807c7a" d="M 83.5,95.5 C 85.5786,95.9707 87.5786,96.6373 89.5,97.5C 98.1617,101.496 103.495,108.163 105.5,117.5C 104.179,117.019 103.179,115.685 102.5,113.5C 99.6436,105.745 96.6436,105.745 93.5,113.5C 92.6236,113.631 91.9569,113.298 91.5,112.5C 92.1667,111.5 92.8333,110.5 93.5,109.5C 93.0302,108.537 92.3635,108.537 91.5,109.5C 88.7212,109.721 86.0545,109.388 83.5,108.5C 84.6583,105.517 86.325,102.85 88.5,100.5C 90.4971,101.747 92.4971,102.581 94.5,103C 92.5065,101.001 90.1732,99.5014 87.5,98.5C 85.1321,100.533 83.1321,102.867 81.5,105.5C 80.6618,105.158 80.3284,104.492 80.5,103.5C 81.4778,103.189 82.1445,102.522 82.5,101.5C 81.5,100.667 80.5,99.8333 79.5,99C 84.1782,98.8033 84.5116,97.8033 80.5,96C 81.448,95.5172 82.448,95.3505 83.5,95.5 Z"/></g>
<g><path style="opacity:1" fill="#0a0a0c" d="M 92.5,91.5 C 93.0283,92.7206 93.695,93.8873 94.5,95C 93.4829,96.0495 93.3162,97.2161 94,98.5C 95.6147,99.3862 97.1147,100.386 98.5,101.5C 102.283,106.071 105.283,111.071 107.5,116.5C 108.08,120.81 108.414,125.143 108.5,129.5C 107.833,127.5 107.167,125.5 106.5,123.5C 106.795,121.265 106.461,119.265 105.5,117.5C 103.495,108.163 98.1617,101.496 89.5,97.5C 89.5743,95.5891 90.5743,94.4224 92.5,94C 90.1582,92.6081 90.1582,91.7748 92.5,91.5 Z"/></g>
<g><path style="opacity:1" fill="#18191d" d="M 106.5,101.5 C 108.192,103.205 109.525,105.205 110.5,107.5C 109.359,109.549 109.359,111.549 110.5,113.5C 109.272,114.306 108.272,115.306 107.5,116.5C 105.283,111.071 102.283,106.071 98.5,101.5C 98.811,100.522 99.4777,99.8555 100.5,99.5C 102.179,101.104 104.179,101.771 106.5,101.5 Z"/></g>
<g><path style="opacity:0.008" fill="#dadee4" d="M 22.5,103.5 C 25.0009,103.511 25.1676,104.178 23,105.5C 22.5357,104.906 22.369,104.239 22.5,103.5 Z"/></g>
<g><path style="opacity:1" fill="#0d0908" d="M 58.5,104.5 C 59.758,106.687 60.758,109.02 61.5,111.5C 60.609,112.11 59.609,112.443 58.5,112.5C 58.0739,110.042 56.7406,108.876 54.5,109C 55.8331,110.84 55.6665,111.34 54,110.5C 53.4954,112.518 52.9954,114.518 52.5,116.5C 50.6133,114.812 49.4466,112.812 49,110.5C 51.4724,107.35 54.6391,105.35 58.5,104.5 Z"/></g>
<g><path style="opacity:1" fill="#0f1216" d="M 43.5,106.5 C 42.1667,108.833 40.8333,111.167 39.5,113.5C 38.8333,113.833 38.1667,114.167 37.5,114.5C 36.6634,114.389 35.6634,114.056 34.5,113.5C 33.8076,114.025 33.3076,114.692 33,115.5C 32.7679,114.263 32.2679,113.263 31.5,112.5C 31.7959,110.597 32.4625,108.93 33.5,107.5C 35.6636,107.279 37.3303,106.279 38.5,104.5C 39.1217,105.627 39.955,106.627 41,107.5C 41.0848,105.915 41.2514,104.582 41.5,103.5C 42.4252,104.357 43.0919,105.357 43.5,106.5 Z"/></g>
<g><path style="opacity:1" fill="#635a59" d="M 73.5,102.5 C 72.5169,103.85 71.1836,104.85 69.5,105.5C 70.3128,106.814 71.3128,107.981 72.5,109C 71.944,109.383 71.6107,109.883 71.5,110.5C 70.0998,111.1 69.0998,112.1 68.5,113.5C 66.9081,111.418 66.0748,109.085 66,106.5C 67.5848,105.624 68.5848,104.291 69,102.5C 70.4139,103.413 71.9139,103.413 73.5,102.5 Z"/></g>
<g><path style="opacity:1" fill="#8e8581" d="M 75.5,101.5 C 77.7812,101.077 79.4479,101.744 80.5,103.5C 78.4159,105.576 76.7492,107.91 75.5,110.5C 74.4721,110.074 73.1388,110.074 71.5,110.5C 71.6107,109.883 71.944,109.383 72.5,109C 71.3128,107.981 70.3128,106.814 69.5,105.5C 71.1836,104.85 72.5169,103.85 73.5,102.5C 73.8417,101.662 74.5084,101.328 75.5,101.5 Z"/></g>
<g><path style="opacity:1" fill="#4d4c4b" d="M 58.5,103.5 C 58.5,103.833 58.5,104.167 58.5,104.5C 54.6391,105.35 51.4724,107.35 49,110.5C 49.4466,112.812 50.6133,114.812 52.5,116.5C 52.5,117.833 52.5,119.167 52.5,120.5C 49.8324,118.664 47.6657,116.331 46,113.5C 45.6174,114.056 45.1174,114.389 44.5,114.5C 44.6716,113.508 44.3382,112.842 43.5,112.5C 42.1667,112.833 40.8333,113.167 39.5,113.5C 40.8333,111.167 42.1667,108.833 43.5,106.5C 45.0269,106.573 46.0269,105.906 46.5,104.5C 48.2279,102.774 50.2279,101.441 52.5,100.5C 55.7399,98.8093 57.7399,99.8093 58.5,103.5 Z"/></g>
<g><path style="opacity:1" fill="#070808" d="M 54.5,100.5 C 55.2891,100.783 55.9558,101.283 56.5,102C 53.6667,104.167 50.8333,106.333 48,108.5C 47.3333,107.5 47.3333,106.5 48,105.5C 49.9651,103.45 52.1318,101.783 54.5,100.5 Z"/></g>
<g><path style="opacity:1" fill="#161615" d="M 43.5,112.5 C 39.443,118.62 36.443,125.286 34.5,132.5C 34.0431,133.298 33.3764,133.631 32.5,133.5C 33.4861,129.887 34.3195,126.221 35,122.5C 36.7611,119.589 38.2611,116.589 39.5,113.5C 40.8333,113.167 42.1667,112.833 43.5,112.5 Z"/></g>
<g><path style="opacity:1" fill="#262120" d="M 73.5,99.5 C 74.8734,99.3433 76.2068,99.51 77.5,100C 76.5842,100.278 75.9175,100.778 75.5,101.5C 74.5084,101.328 73.8417,101.662 73.5,102.5C 71.9139,103.413 70.4139,103.413 69,102.5C 68.5848,104.291 67.5848,105.624 66,106.5C 66.0748,109.085 66.9081,111.418 68.5,113.5C 70.099,113.232 71.4324,113.566 72.5,114.5C 74.18,116.726 73.8466,118.393 71.5,119.5C 69.0122,119.317 67.0122,118.317 65.5,116.5C 65.4349,113.572 64.7682,110.905 63.5,108.5C 63.1231,106.742 62.4565,105.075 61.5,103.5C 64.8226,100.392 68.8226,99.059 73.5,99.5 Z"/></g>
<g><path style="opacity:0.224" fill="#d4dee6" d="M 22.5,113.5 C 23.3764,113.369 24.0431,113.702 24.5,114.5C 21.7347,122.457 21.068,122.123 22.5,113.5 Z"/></g>
<g><path style="opacity:1" fill="#0b0e13" d="M 31.5,112.5 C 32.2679,113.263 32.7679,114.263 33,115.5C 33.3076,114.692 33.8076,114.025 34.5,113.5C 35.6634,114.056 36.6634,114.389 37.5,114.5C 35.4806,118.539 33.4806,122.539 31.5,126.5C 30.8333,123.5 30.1667,120.5 29.5,117.5C 29.8925,115.716 30.5592,114.05 31.5,112.5 Z"/></g>
<g><path style="opacity:1" fill="#56504f" d="M 63.5,108.5 C 64.7682,110.905 65.4349,113.572 65.5,116.5C 65.3285,117.879 65.1618,119.546 65,121.5C 64.2411,123.063 63.0744,124.063 61.5,124.5C 61.9195,122.906 62.5862,121.406 63.5,120C 63.1639,118.97 62.4972,118.47 61.5,118.5C 62.3029,117.577 62.4696,116.577 62,115.5C 60.0077,116.328 58.5077,117.661 57.5,119.5C 53.1987,118.404 52.532,116.238 55.5,113C 56.448,112.517 57.448,112.351 58.5,112.5C 59.609,112.443 60.609,112.11 61.5,111.5C 62.1174,111.611 62.6174,111.944 63,112.5C 63.49,111.207 63.6567,109.873 63.5,108.5 Z"/></g>
<g><path style="opacity:0.976" fill="#242220" d="M 80.5,115.5 C 80.5,115.833 80.5,116.167 80.5,116.5C 81.9516,117.302 83.6183,117.802 85.5,118C 84.4281,119.284 83.0948,119.617 81.5,119C 80.8742,119.75 80.3742,120.584 80,121.5C 79.6012,121.272 79.4346,120.938 79.5,120.5C 79.6068,118.621 79.1068,118.288 78,119.5C 77.245,116.697 77.5783,114.03 79,111.5C 80.1882,112.563 80.6882,113.897 80.5,115.5 Z"/></g>
<g><path style="opacity:1" fill="#2a2725" d="M 102.5,113.5 C 101.215,111.938 99.7153,110.604 98,109.5C 97.5,109.667 97,109.833 96.5,110C 97.2524,110.671 97.5858,111.504 97.5,112.5C 95.5293,114.808 93.5293,117.142 91.5,119.5C 90.8999,120.9 89.8999,121.9 88.5,122.5C 87.8333,122.167 87.1667,121.833 86.5,121.5C 87.4654,117.54 89.7987,114.874 93.5,113.5C 96.6436,105.745 99.6436,105.745 102.5,113.5 Z"/></g>
<g><path style="opacity:1" fill="#434246" d="M 111.5,109.5 C 115.417,112.988 118.083,117.321 119.5,122.5C 118.833,122.167 118.167,121.833 117.5,121.5C 116.624,121.369 115.957,121.702 115.5,122.5C 116.735,124.316 116.735,125.983 115.5,127.5C 114.547,121.4 113.214,115.4 111.5,109.5 Z"/></g>
<g><path style="opacity:0.999" fill="#1a1919" d="M 58.5,112.5 C 57.448,112.351 56.448,112.517 55.5,113C 52.532,116.238 53.1987,118.404 57.5,119.5C 58.9621,120.471 60.2954,120.138 61.5,118.5C 62.4972,118.47 63.1639,118.97 63.5,120C 62.5862,121.406 61.9195,122.906 61.5,124.5C 62.4687,125.309 63.3021,126.309 64,127.5C 65.7565,126.015 66.9232,126.348 67.5,128.5C 65.2181,129.39 62.8848,129.556 60.5,129C 60.9662,127.701 60.9662,126.201 60.5,124.5C 59.8333,121.833 59.1667,121.833 58.5,124.5C 56.1274,123.797 54.1274,122.464 52.5,120.5C 52.5,119.167 52.5,117.833 52.5,116.5C 52.9954,114.518 53.4954,112.518 54,110.5C 55.6665,111.34 55.8331,110.84 54.5,109C 56.7406,108.876 58.0739,110.042 58.5,112.5 Z"/></g>
<g><path style="opacity:1" fill="#655e5b" d="M 80.5,103.5 C 80.3284,104.492 80.6618,105.158 81.5,105.5C 80.4891,107.402 80.3224,109.402 81,111.5C 81.3826,110.944 81.8826,110.611 82.5,110.5C 82.2041,112.403 81.5375,114.07 80.5,115.5C 80.6882,113.897 80.1882,112.563 79,111.5C 77.5783,114.03 77.245,116.697 78,119.5C 79.1068,118.288 79.6068,118.621 79.5,120.5C 78.9595,121.561 78.6262,122.561 78.5,123.5C 77.2223,123.782 76.2223,124.449 75.5,125.5C 74.3951,124.4 73.0618,123.733 71.5,123.5C 70.5946,122.036 70.5946,120.702 71.5,119.5C 73.8466,118.393 74.18,116.726 72.5,114.5C 74.2014,113.789 75.2014,112.455 75.5,110.5C 76.7492,107.91 78.4159,105.576 80.5,103.5 Z"/></g>
<g><path style="opacity:1" fill="#6e6867" d="M 102.5,113.5 C 103.179,115.685 104.179,117.019 105.5,117.5C 106.461,119.265 106.795,121.265 106.5,123.5C 106.813,127.042 106.479,130.375 105.5,133.5C 105.5,132.167 105.5,130.833 105.5,129.5C 104.5,129.5 103.5,129.5 102.5,129.5C 102.2,123.441 100.533,117.774 97.5,112.5C 97.5858,111.504 97.2524,110.671 96.5,110C 97,109.833 97.5,109.667 98,109.5C 99.7153,110.604 101.215,111.938 102.5,113.5 Z"/></g>
<g><path style="opacity:1" fill="#0f0b0b" d="M 52.5,120.5 C 52.5,121.167 52.5,121.833 52.5,122.5C 51.5416,122.047 50.7083,121.381 50,120.5C 46.9126,123.416 44.0793,126.416 41.5,129.5C 40.7784,129.918 40.2784,130.584 40,131.5C 38.5783,128.97 38.245,126.303 39,123.5C 40.7436,120.298 42.577,117.298 44.5,114.5C 45.1174,114.389 45.6174,114.056 46,113.5C 47.6657,116.331 49.8324,118.664 52.5,120.5 Z"/></g>
<g><path style="opacity:1" fill="#0a0908" d="M 65.5,116.5 C 67.0122,118.317 69.0122,119.317 71.5,119.5C 70.5946,120.702 70.5946,122.036 71.5,123.5C 69.6563,125.195 68.3229,127.195 67.5,129.5C 67.5,129.167 67.5,128.833 67.5,128.5C 66.9232,126.348 65.7565,126.015 64,127.5C 63.3021,126.309 62.4687,125.309 61.5,124.5C 63.0744,124.063 64.2411,123.063 65,121.5C 65.1618,119.546 65.3285,117.879 65.5,116.5 Z"/></g>
<g><path style="opacity:1" fill="#16161c" d="M 110.5,113.5 C 112.599,119.85 112.932,126.183 111.5,132.5C 107.926,134.009 106.926,133.009 108.5,129.5C 108.414,125.143 108.08,120.81 107.5,116.5C 108.272,115.306 109.272,114.306 110.5,113.5 Z"/></g>
<g><path style="opacity:0.01" fill="#d4dfe6" d="M 20.5,121.5 C 22.8963,122.828 22.8963,124.494 20.5,126.5C 19.9478,124.997 19.9478,123.331 20.5,121.5 Z"/></g>
<g><path style="opacity:1" fill="#181615" d="M 86.5,121.5 C 87.1667,121.833 87.8333,122.167 88.5,122.5C 89.8333,123.833 89.8333,125.167 88.5,126.5C 87.596,127.209 87.2627,128.209 87.5,129.5C 85.5182,131.502 83.8516,133.835 82.5,136.5C 81.8333,135.833 81.1667,135.167 80.5,134.5C 80.4802,132.857 81.1468,131.524 82.5,130.5C 79.9235,129.057 77.5901,127.39 75.5,125.5C 76.2223,124.449 77.2223,123.782 78.5,123.5C 79.4657,126.125 80.4657,126.125 81.5,123.5C 82.1494,125.624 82.9827,127.624 84,129.5C 83.3388,126.461 84.1721,123.794 86.5,121.5 Z"/></g>
<g><path style="opacity:1" fill="#242329" d="M 110.5,107.5 C 111.338,107.842 111.672,108.508 111.5,109.5C 113.214,115.4 114.547,121.4 115.5,127.5C 115.047,128.458 114.381,129.292 113.5,130C 114.308,130.308 114.975,130.808 115.5,131.5C 113.998,136.671 112.332,141.671 110.5,146.5C 110.322,145.305 109.989,144.138 109.5,143C 110.726,139.598 111.393,136.098 111.5,132.5C 112.932,126.183 112.599,119.85 110.5,113.5C 109.359,111.549 109.359,109.549 110.5,107.5 Z"/></g>
<g><path style="opacity:0.903" fill="#0a0e16" d="M 29.5,117.5 C 30.1667,120.5 30.8333,123.5 31.5,126.5C 30.71,127.609 30.21,128.942 30,130.5C 29.6667,129.833 29.3333,129.167 29,128.5C 28.4136,131.019 27.2469,133.019 25.5,134.5C 25.8327,128.484 27.166,122.817 29.5,117.5 Z"/></g>
<g><path style="opacity:1" fill="#979699" d="M 60.5,124.5 C 59.8333,124.5 59.1667,124.5 58.5,124.5C 59.1667,121.833 59.8333,121.833 60.5,124.5 Z"/></g>
<g><path style="opacity:1" fill="#5e5a58" d="M 93.5,113.5 C 89.7987,114.874 87.4654,117.54 86.5,121.5C 84.1721,123.794 83.3388,126.461 84,129.5C 82.9827,127.624 82.1494,125.624 81.5,123.5C 80.4657,126.125 79.4657,126.125 78.5,123.5C 78.6262,122.561 78.9595,121.561 79.5,120.5C 79.4346,120.938 79.6012,121.272 80,121.5C 80.3742,120.584 80.8742,119.75 81.5,119C 83.0948,119.617 84.4281,119.284 85.5,118C 83.6183,117.802 81.9516,117.302 80.5,116.5C 85.4135,116.275 89.0802,113.941 91.5,109.5C 92.3635,108.537 93.0302,108.537 93.5,109.5C 92.8333,110.5 92.1667,111.5 91.5,112.5C 91.9569,113.298 92.6236,113.631 93.5,113.5 Z"/></g>
<g><path style="opacity:1" fill="#766f6d" d="M 52.5,122.5 C 53.625,123.652 53.625,124.652 52.5,125.5C 52.5654,125.062 52.3988,124.728 52,124.5C 51.3645,125.966 50.5312,127.3 49.5,128.5C 49.9569,129.298 50.6236,129.631 51.5,129.5C 51.5,129.833 51.5,130.167 51.5,130.5C 50.5,130.5 49.5,130.5 48.5,130.5C 46.2075,130.244 44.0408,130.577 42,131.5C 41.5357,130.906 41.369,130.239 41.5,129.5C 44.0793,126.416 46.9126,123.416 50,120.5C 50.7083,121.381 51.5416,122.047 52.5,122.5 Z"/></g>
<g><path style="opacity:1" fill="#716d67" d="M 91.5,119.5 C 93.1392,120.473 94.4726,121.806 95.5,123.5C 92.6937,124.321 90.5271,125.988 89,128.5C 88.5357,127.906 88.369,127.239 88.5,126.5C 89.8333,125.167 89.8333,123.833 88.5,122.5C 89.8999,121.9 90.8999,120.9 91.5,119.5 Z"/></g>
<g><path style="opacity:0.06" fill="#d2dee4" d="M 19.5,128.5 C 20.782,129.708 20.782,131.042 19.5,132.5C 18.3744,131.192 18.3744,129.858 19.5,128.5 Z"/></g>
<g><path style="opacity:1" fill="#47423e" d="M 95.5,123.5 C 96.4013,124.29 97.0679,125.29 97.5,126.5C 96.1516,127.186 94.985,128.186 94,129.5C 91.9734,129.014 89.8067,129.014 87.5,129.5C 87.2627,128.209 87.596,127.209 88.5,126.5C 88.369,127.239 88.5357,127.906 89,128.5C 90.5271,125.988 92.6937,124.321 95.5,123.5 Z"/></g>
<g><path style="opacity:1" fill="#363030" d="M 52.5,120.5 C 54.1274,122.464 56.1274,123.797 58.5,124.5C 58.5394,125.583 58.8728,126.583 59.5,127.5C 58.3166,129.83 56.9832,131.997 55.5,134C 55.6842,135.376 56.3509,136.209 57.5,136.5C 58.1667,136.833 58.8333,137.167 59.5,137.5C 59.5,139.167 59.5,140.833 59.5,142.5C 56.2447,142.014 53.578,143.014 51.5,145.5C 50.8933,145.376 50.56,145.043 50.5,144.5C 52.5,142.833 54.5,141.167 56.5,139.5C 56.6106,137.352 55.944,137.019 54.5,138.5C 53.2888,137.726 53.2888,136.893 54.5,136C 50.6221,135.051 50.6221,133.885 54.5,132.5C 53.6431,131.575 52.6431,130.908 51.5,130.5C 51.5,130.167 51.5,129.833 51.5,129.5C 51.8333,128.167 52.1667,126.833 52.5,125.5C 53.625,124.652 53.625,123.652 52.5,122.5C 52.5,121.833 52.5,121.167 52.5,120.5 Z"/></g>
<g><path style="opacity:1" fill="#0a0a09" d="M 58.5,124.5 C 59.1667,124.5 59.8333,124.5 60.5,124.5C 60.9662,126.201 60.9662,127.701 60.5,129C 62.8848,129.556 65.2181,129.39 67.5,128.5C 67.5,128.833 67.5,129.167 67.5,129.5C 66.4625,130.93 65.7959,132.597 65.5,134.5C 65.6309,135.376 65.2975,136.043 64.5,136.5C 62.8333,135.167 61.1667,133.833 59.5,132.5C 58.2949,133.577 57.6282,134.91 57.5,136.5C 56.3509,136.209 55.6842,135.376 55.5,134C 56.9832,131.997 58.3166,129.83 59.5,127.5C 58.8728,126.583 58.5394,125.583 58.5,124.5 Z"/></g>
<g><path style="opacity:1" fill="#726b68" d="M 97.5,126.5 C 98.3745,128.69 100.041,129.69 102.5,129.5C 103.5,129.5 104.5,129.5 105.5,129.5C 105.5,130.833 105.5,132.167 105.5,133.5C 105.634,135.292 105.301,136.958 104.5,138.5C 103.833,140.167 103.167,141.833 102.5,143.5C 101.836,142.352 101.669,141.019 102,139.5C 101.617,140.056 101.117,140.389 100.5,140.5C 100.5,138.5 100.5,136.5 100.5,134.5C 103.598,134.587 103.932,134.087 101.5,133C 94.2337,129.961 87.9004,131.128 82.5,136.5C 83.8516,133.835 85.5182,131.502 87.5,129.5C 89.8067,129.014 91.9734,129.014 94,129.5C 94.985,128.186 96.1516,127.186 97.5,126.5 Z"/></g>
<g><path style="opacity:0.027" fill="#6d6d6e" d="M 119.5,122.5 C 120.954,123.52 121.287,124.687 120.5,126C 121.554,128.382 122.221,130.882 122.5,133.5C 120.493,134.679 120.16,134.179 121.5,132C 120.134,129.003 119.467,125.836 119.5,122.5 Z"/></g>
<g><path style="opacity:1" fill="#5d5655" d="M 43.5,112.5 C 44.3382,112.842 44.6716,113.508 44.5,114.5C 42.577,117.298 40.7436,120.298 39,123.5C 38.245,126.303 38.5783,128.97 40,131.5C 40.2784,130.584 40.7784,129.918 41.5,129.5C 41.369,130.239 41.5357,130.906 42,131.5C 44.0408,130.577 46.2075,130.244 48.5,130.5C 47.3065,131.272 46.3065,132.272 45.5,133.5C 43.7839,133.629 42.1172,133.962 40.5,134.5C 37.8333,134.167 35.1667,133.833 32.5,133.5C 33.3764,133.631 34.0431,133.298 34.5,132.5C 36.443,125.286 39.443,118.62 43.5,112.5 Z"/></g>
<g><path style="opacity:1" fill="#4d4947" d="M 71.5,123.5 C 73.0618,123.733 74.3951,124.4 75.5,125.5C 77.5901,127.39 79.9235,129.057 82.5,130.5C 81.1468,131.524 80.4802,132.857 80.5,134.5C 78.0882,134.694 77.0882,136.027 77.5,138.5C 76.3951,139.6 75.0618,140.267 73.5,140.5C 72.7109,140.217 72.0442,139.717 71.5,139C 72.7659,138.691 73.9326,138.191 75,137.5C 75.4955,135.527 75.6621,133.527 75.5,131.5C 71.5411,130.578 69.2078,132.078 68.5,136C 68.7591,137.261 69.4258,138.261 70.5,139C 70.1667,139.167 69.8333,139.333 69.5,139.5C 67.4589,138.293 66.1255,136.626 65.5,134.5C 65.7959,132.597 66.4625,130.93 67.5,129.5C 68.3229,127.195 69.6563,125.195 71.5,123.5 Z"/></g>
<g><path style="opacity:0.008" fill="#d1d8df" d="M 18.5,133.5 C 20.337,133.639 20.6704,134.306 19.5,135.5C 18.7025,135.043 18.3691,134.376 18.5,133.5 Z"/></g>
<g><path style="opacity:1" fill="#161413" d="M 45.5,133.5 C 47.1042,134.287 47.7709,135.62 47.5,137.5C 46.8333,137.167 46.1667,136.833 45.5,136.5C 42.1262,136.674 38.7928,137.174 35.5,138C 35.2755,141.257 34.9421,144.424 34.5,147.5C 34.5,147.167 34.5,146.833 34.5,146.5C 30.1081,139.284 32.1081,135.284 40.5,134.5C 42.1172,133.962 43.7839,133.629 45.5,133.5 Z"/></g>
<g><path style="opacity:1" fill="#16151b" d="M 106.5,123.5 C 107.167,125.5 107.833,127.5 108.5,129.5C 106.926,133.009 107.926,134.009 111.5,132.5C 111.393,136.098 110.726,139.598 109.5,143C 109.989,144.138 110.322,145.305 110.5,146.5C 109.5,147.833 108.5,147.833 107.5,146.5C 108.087,145.233 108.087,144.233 107.5,143.5C 106.269,145.45 104.602,146.283 102.5,146C 103.833,143.667 105.167,141.333 106.5,139C 105.906,138.536 105.239,138.369 104.5,138.5C 105.301,136.958 105.634,135.292 105.5,133.5C 106.479,130.375 106.813,127.042 106.5,123.5 Z"/></g>
<g><path style="opacity:1" fill="#252528" d="M 117.5,121.5 C 118.167,121.833 118.833,122.167 119.5,122.5C 119.467,125.836 120.134,129.003 121.5,132C 120.16,134.179 120.493,134.679 122.5,133.5C 122.5,135.833 122.5,138.167 122.5,140.5C 121.778,140.918 121.278,141.584 121,142.5C 120.722,141.584 120.222,140.918 119.5,140.5C 119.565,140.062 119.399,139.728 119,139.5C 118.385,141.116 117.385,142.449 116,143.5C 116.15,141.494 116.65,139.494 117.5,137.5C 118.757,132.297 118.757,126.964 117.5,121.5 Z"/></g>
<g><path style="opacity:1" fill="#332e2c" d="M 100.5,140.5 C 100.167,140.5 99.8333,140.5 99.5,140.5C 99.6621,138.473 99.4955,136.473 99,134.5C 96.2685,134.899 93.4352,134.899 90.5,134.5C 89.8333,135.5 89.1667,136.5 88.5,137.5C 87.8076,136.975 87.3076,136.308 87,135.5C 85.9681,137.027 84.8014,138.36 83.5,139.5C 81.5648,138.85 79.5648,138.517 77.5,138.5C 77.0882,136.027 78.0882,134.694 80.5,134.5C 81.1667,135.167 81.8333,135.833 82.5,136.5C 87.9004,131.128 94.2337,129.961 101.5,133C 103.932,134.087 103.598,134.587 100.5,134.5C 100.5,136.5 100.5,138.5 100.5,140.5 Z"/></g>
<g><path style="opacity:1" fill="#0d0909" d="M 68.5,142.5 C 69.3382,142.842 69.6716,143.508 69.5,144.5C 66.9963,145.639 64.3297,146.306 61.5,146.5C 59.8221,148.887 58.4888,151.554 57.5,154.5C 54.5995,154.72 51.9329,154.054 49.5,152.5C 50.3279,151.585 51.3279,150.919 52.5,150.5C 53.5321,152.04 54.8654,152.54 56.5,152C 56.6988,149.699 57.1988,147.533 58,145.5C 58.3333,145.833 58.6667,146.167 59,146.5C 59.8996,145.23 61.0663,144.23 62.5,143.5C 61.675,142.614 60.675,142.281 59.5,142.5C 59.5,140.833 59.5,139.167 59.5,137.5C 60.9848,136.065 62.3181,136.232 63.5,138C 61.1088,138.691 61.1088,139.691 63.5,141C 65.0249,142.009 66.6916,142.509 68.5,142.5 Z"/></g>
<g><path style="opacity:1" fill="#0f0e0b" d="M 99.5,140.5 C 99.2402,142.595 98.0736,143.928 96,144.5C 91.5763,143.307 87.4096,141.64 83.5,139.5C 84.8014,138.36 85.9681,137.027 87,135.5C 87.3076,136.308 87.8076,136.975 88.5,137.5C 89.1667,136.5 89.8333,135.5 90.5,134.5C 93.4352,134.899 96.2685,134.899 99,134.5C 99.4955,136.473 99.6621,138.473 99.5,140.5 Z"/></g>
<g><path style="opacity:0.004" fill="#d2dae3" d="M 17.5,138.5 C 18.8333,139.167 18.8333,139.167 17.5,138.5 Z"/></g>
<g><path style="opacity:0.514" fill="#0d0e13" d="M 31.5,126.5 C 31.5,131.833 31.5,137.167 31.5,142.5C 30.9589,144.75 30.6255,147.084 30.5,149.5C 29.3777,148.37 28.0443,147.703 26.5,147.5C 25.7051,143.215 25.3718,138.881 25.5,134.5C 27.2469,133.019 28.4136,131.019 29,128.5C 29.3333,129.167 29.6667,129.833 30,130.5C 30.21,128.942 30.71,127.609 31.5,126.5 Z"/></g>
<g><path style="opacity:1" fill="#5f5d5c" d="M 39.5,113.5 C 38.2611,116.589 36.7611,119.589 35,122.5C 34.3195,126.221 33.4861,129.887 32.5,133.5C 35.1667,133.833 37.8333,134.167 40.5,134.5C 32.1081,135.284 30.1081,139.284 34.5,146.5C 33.8333,146.5 33.5,146.833 33.5,147.5C 32.4625,146.07 31.7959,144.403 31.5,142.5C 31.5,137.167 31.5,131.833 31.5,126.5C 33.4806,122.539 35.4806,118.539 37.5,114.5C 38.1667,114.167 38.8333,113.833 39.5,113.5 Z"/></g>
<g><path style="opacity:1" fill="#12090a" d="M 48.5,130.5 C 49.5,130.5 50.5,130.5 51.5,130.5C 52.6431,130.908 53.6431,131.575 54.5,132.5C 50.6221,133.885 50.6221,135.051 54.5,136C 53.2888,136.893 53.2888,137.726 54.5,138.5C 55.944,137.019 56.6106,137.352 56.5,139.5C 53.6572,140.172 51.1572,141.505 49,143.5C 48.8091,141.292 48.3091,139.292 47.5,137.5C 47.7709,135.62 47.1042,134.287 45.5,133.5C 46.3065,132.272 47.3065,131.272 48.5,130.5 Z"/></g>
<g><path style="opacity:1" fill="#605b5b" d="M 73.5,140.5 C 73.5852,141.995 72.9185,142.995 71.5,143.5C 71.3309,142.603 70.9976,141.603 70.5,140.5C 69.4777,140.855 68.811,141.522 68.5,142.5C 66.6916,142.509 65.0249,142.009 63.5,141C 61.1088,139.691 61.1088,138.691 63.5,138C 62.3181,136.232 60.9848,136.065 59.5,137.5C 58.8333,137.167 58.1667,136.833 57.5,136.5C 57.6282,134.91 58.2949,133.577 59.5,132.5C 61.1667,133.833 62.8333,135.167 64.5,136.5C 65.2975,136.043 65.6309,135.376 65.5,134.5C 66.1255,136.626 67.4589,138.293 69.5,139.5C 69.8333,139.333 70.1667,139.167 70.5,139C 69.4258,138.261 68.7591,137.261 68.5,136C 69.2078,132.078 71.5411,130.578 75.5,131.5C 75.6621,133.527 75.4955,135.527 75,137.5C 73.9326,138.191 72.7659,138.691 71.5,139C 72.0442,139.717 72.7109,140.217 73.5,140.5 Z"/></g>
<g><path style="opacity:1" fill="#171615" d="M 77.5,138.5 C 79.5648,138.517 81.5648,138.85 83.5,139.5C 83.2178,140.778 82.5511,141.778 81.5,142.5C 79.8338,144.187 78.5005,146.187 77.5,148.5C 77.9569,149.298 78.6236,149.631 79.5,149.5C 78.8333,150.5 78.1667,151.5 77.5,152.5C 75.744,151.448 75.0773,149.781 75.5,147.5C 75.631,146.761 75.4643,146.094 75,145.5C 72.7255,147.506 70.8922,149.839 69.5,152.5C 72.2313,155.247 71.898,157.58 68.5,159.5C 68.7093,160.086 69.0426,160.586 69.5,161C 67.2144,162.664 64.8811,162.83 62.5,161.5C 62.0618,161.565 61.7284,161.399 61.5,161C 63.4875,159.681 64.6541,157.848 65,155.5C 65.6667,156.167 66.3333,156.833 67,157.5C 67.7958,154.961 67.6291,152.628 66.5,150.5C 67.981,149.579 69.3144,148.412 70.5,147C 70.2568,146.098 69.9234,145.265 69.5,144.5C 69.6716,143.508 69.3382,142.842 68.5,142.5C 68.811,141.522 69.4777,140.855 70.5,140.5C 70.9976,141.603 71.3309,142.603 71.5,143.5C 72.9185,142.995 73.5852,141.995 73.5,140.5C 75.0618,140.267 76.3951,139.6 77.5,138.5 Z"/></g>
<g><path style="opacity:1" fill="#44403e" d="M 81.5,142.5 C 83.484,143.156 85.484,143.822 87.5,144.5C 89.5692,143.462 91.5692,143.796 93.5,145.5C 94.521,146.002 94.6877,146.668 94,147.5C 92.3845,146.199 90.8845,146.199 89.5,147.5C 86.8078,146.991 84.3078,145.991 82,144.5C 81.6655,146.503 80.8321,148.17 79.5,149.5C 78.6236,149.631 77.9569,149.298 77.5,148.5C 78.5005,146.187 79.8338,144.187 81.5,142.5 Z"/></g>
<g><path style="opacity:1" fill="#232127" d="M 117.5,137.5 C 116.65,139.494 116.15,141.494 116,143.5C 117.385,142.449 118.385,141.116 119,139.5C 119.399,139.728 119.565,140.062 119.5,140.5C 119.579,141.93 119.246,143.264 118.5,144.5C 120.104,146.179 120.771,148.179 120.5,150.5C 119.685,149.571 118.852,148.571 118,147.5C 117.617,148.056 117.117,148.389 116.5,148.5C 116.314,143.69 115.314,143.357 113.5,147.5C 113.161,145.336 113.161,143.17 113.5,141C 116.362,139.214 117.028,136.881 115.5,134C 116,133.5 116.5,133 117,132.5C 117.494,134.134 117.66,135.801 117.5,137.5 Z"/></g>
<g><path style="opacity:0.945" fill="#58585a" d="M 119.5,140.5 C 120.222,140.918 120.722,141.584 121,142.5C 121.278,141.584 121.778,140.918 122.5,140.5C 122.678,144.122 122.011,147.456 120.5,150.5C 120.771,148.179 120.104,146.179 118.5,144.5C 119.246,143.264 119.579,141.93 119.5,140.5 Z"/></g>
<g><path style="opacity:1" fill="#0d0c0b" d="M 89.5,147.5 C 93.0285,147.906 94.0285,149.573 92.5,152.5C 90.3428,154.412 88.0094,156.079 85.5,157.5C 79.0105,156.185 79.3438,155.352 86.5,155C 83.5823,153.85 80.5823,153.017 77.5,152.5C 78.1667,151.5 78.8333,150.5 79.5,149.5C 80.8321,148.17 81.6655,146.503 82,144.5C 84.3078,145.991 86.8078,146.991 89.5,147.5 Z"/></g>
<g><path style="opacity:1" fill="#3b3a40" d="M 117.5,121.5 C 118.757,126.964 118.757,132.297 117.5,137.5C 117.66,135.801 117.494,134.134 117,132.5C 116.5,133 116,133.5 115.5,134C 117.028,136.881 116.362,139.214 113.5,141C 113.161,143.17 113.161,145.336 113.5,147.5C 112.221,148.715 111.221,148.382 110.5,146.5C 112.332,141.671 113.998,136.671 115.5,131.5C 114.975,130.808 114.308,130.308 113.5,130C 114.381,129.292 115.047,128.458 115.5,127.5C 116.735,125.983 116.735,124.316 115.5,122.5C 115.957,121.702 116.624,121.369 117.5,121.5 Z"/></g>
<g><path style="opacity:1" fill="#0e0d13" d="M 104.5,138.5 C 105.239,138.369 105.906,138.536 106.5,139C 105.167,141.333 103.833,143.667 102.5,146C 104.602,146.283 106.269,145.45 107.5,143.5C 108.087,144.233 108.087,145.233 107.5,146.5C 104.616,151.4 101.283,156.067 97.5,160.5C 96.1667,161.5 94.8333,162.5 93.5,163.5C 93.5299,162.503 93.0299,161.836 92,161.5C 90.8615,161.989 89.6948,162.322 88.5,162.5C 90.5272,159.806 92.8605,157.473 95.5,155.5C 95.5,155.167 95.5,154.833 95.5,154.5C 96.4584,154.047 97.2917,153.381 98,152.5C 98.9862,149.194 100.486,146.194 102.5,143.5C 103.167,141.833 103.833,140.167 104.5,138.5 Z"/></g>
<g><path style="opacity:1" fill="#2b2930" d="M 116.5,148.5 C 116.92,150.094 117.586,151.594 118.5,153C 118.056,154.762 117.556,154.595 117,152.5C 116.487,153.527 115.987,154.527 115.5,155.5C 115.071,154.047 114.904,152.381 115,150.5C 114.722,151.416 114.222,152.082 113.5,152.5C 113.5,151.5 113.5,150.5 113.5,149.5C 112.448,149.351 111.448,149.517 110.5,150C 109.853,151.609 109.02,153.109 108,154.5C 108.239,151.751 108.072,149.085 107.5,146.5C 108.5,147.833 109.5,147.833 110.5,146.5C 111.221,148.382 112.221,148.715 113.5,147.5C 115.314,143.357 116.314,143.69 116.5,148.5 Z"/></g>
<g><path style="opacity:0.802" fill="#0b0d11" d="M 31.5,142.5 C 31.7959,144.403 32.4625,146.07 33.5,147.5C 33.9255,150.119 34.9255,152.453 36.5,154.5C 35.5041,154.586 34.6708,154.252 34,153.5C 34.4771,156.454 34.6437,159.287 34.5,162C 33.9056,162.464 33.2389,162.631 32.5,162.5C 32.7148,160.821 32.0481,159.821 30.5,159.5C 28.969,155.574 27.6357,151.574 26.5,147.5C 28.0443,147.703 29.3777,148.37 30.5,149.5C 30.6255,147.084 30.9589,144.75 31.5,142.5 Z"/></g>
<g><path style="opacity:1" fill="#645f5e" d="M 45.5,136.5 C 45.5,136.833 45.5,137.167 45.5,137.5C 44.7784,137.918 44.2784,138.584 44,139.5C 43.2825,138.549 42.4491,138.383 41.5,139C 43.2112,140.133 43.7112,141.633 43,143.5C 38.384,139.4 37.384,140.4 40,146.5C 41.8761,145.391 43.7095,144.391 45.5,143.5C 47.2798,142.01 47.9465,140.01 47.5,137.5C 48.3091,139.292 48.8091,141.292 49,143.5C 51.1572,141.505 53.6572,140.172 56.5,139.5C 54.5,141.167 52.5,142.833 50.5,144.5C 45.9204,146.694 41.2537,148.694 36.5,150.5C 35.5987,149.71 34.9321,148.71 34.5,147.5C 34.9421,144.424 35.2755,141.257 35.5,138C 38.7928,137.174 42.1262,136.674 45.5,136.5 Z"/></g>
<g><path style="opacity:1" fill="#9d9796" d="M 45.5,137.5 C 44.7093,139.691 44.7093,141.691 45.5,143.5C 43.7095,144.391 41.8761,145.391 40,146.5C 37.384,140.4 38.384,139.4 43,143.5C 43.7112,141.633 43.2112,140.133 41.5,139C 42.4491,138.383 43.2825,138.549 44,139.5C 44.2784,138.584 44.7784,137.918 45.5,137.5 Z"/></g>
<g><path style="opacity:1" fill="#1f1616" d="M 59.5,142.5 C 60.675,142.281 61.675,142.614 62.5,143.5C 61.0663,144.23 59.8996,145.23 59,146.5C 58.6667,146.167 58.3333,145.833 58,145.5C 57.1988,147.533 56.6988,149.699 56.5,152C 54.8654,152.54 53.5321,152.04 52.5,150.5C 51.3279,150.919 50.3279,151.585 49.5,152.5C 51.9329,154.054 54.5995,154.72 57.5,154.5C 56.7347,157.096 56.4013,159.763 56.5,162.5C 54.9699,161.789 53.6366,160.789 52.5,159.5C 52.1667,159.5 51.8333,159.5 51.5,159.5C 49.6469,156.792 48.6469,153.792 48.5,150.5C 47.1667,150.5 45.8333,150.5 44.5,150.5C 43.8333,150.833 43.1667,151.167 42.5,151.5C 40.7376,151.357 39.0709,151.691 37.5,152.5C 36.7025,152.043 36.3691,151.376 36.5,150.5C 41.2537,148.694 45.9204,146.694 50.5,144.5C 50.56,145.043 50.8933,145.376 51.5,145.5C 53.578,143.014 56.2447,142.014 59.5,142.5 Z"/></g>
<g><path style="opacity:1" fill="#5f5654" d="M 69.5,144.5 C 69.9234,145.265 70.2568,146.098 70.5,147C 69.3144,148.412 67.981,149.579 66.5,150.5C 64.8333,150.5 63.1667,150.5 61.5,150.5C 60.5998,155.081 59.2664,159.081 57.5,162.5C 57.1667,162.5 56.8333,162.5 56.5,162.5C 56.4013,159.763 56.7347,157.096 57.5,154.5C 58.4888,151.554 59.8221,148.887 61.5,146.5C 64.3297,146.306 66.9963,145.639 69.5,144.5 Z"/></g>
<g><path style="opacity:1" fill="#48423f" d="M 66.5,150.5 C 67.6291,152.628 67.7958,154.961 67,157.5C 66.3333,156.833 65.6667,156.167 65,155.5C 64.6541,157.848 63.4875,159.681 61.5,161C 61.7284,161.399 62.0618,161.565 62.5,161.5C 61.8902,162.391 61.5569,163.391 61.5,164.5C 59.2457,167.004 57.9124,166.337 57.5,162.5C 59.2664,159.081 60.5998,155.081 61.5,150.5C 63.1667,150.5 64.8333,150.5 66.5,150.5 Z"/></g>
<g><path style="opacity:0.533" fill="#cbc7c6" d="M 44.5,150.5 C 45.038,152.117 45.3713,153.784 45.5,155.5C 44.0256,154.564 43.0256,153.23 42.5,151.5C 43.1667,151.167 43.8333,150.833 44.5,150.5 Z"/></g>
<g><path style="opacity:1" fill="#6d6661" d="M 83.5,139.5 C 87.4096,141.64 91.5763,143.307 96,144.5C 98.0736,143.928 99.2402,142.595 99.5,140.5C 99.8333,140.5 100.167,140.5 100.5,140.5C 101.117,140.389 101.617,140.056 102,139.5C 101.669,141.019 101.836,142.352 102.5,143.5C 100.486,146.194 98.9862,149.194 98,152.5C 97.2917,153.381 96.4584,154.047 95.5,154.5C 95.0582,153.769 94.8915,152.769 95,151.5C 94.3292,152.252 93.4959,152.586 92.5,152.5C 94.0285,149.573 93.0285,147.906 89.5,147.5C 90.8845,146.199 92.3845,146.199 94,147.5C 94.6877,146.668 94.521,146.002 93.5,145.5C 91.5692,143.796 89.5692,143.462 87.5,144.5C 85.484,143.822 83.484,143.156 81.5,142.5C 82.5511,141.778 83.2178,140.778 83.5,139.5 Z"/></g>
<g><path style="opacity:1" fill="#1e1c23" d="M 107.5,146.5 C 108.072,149.085 108.239,151.751 108,154.5C 109.02,153.109 109.853,151.609 110.5,150C 111.448,149.517 112.448,149.351 113.5,149.5C 113.5,150.5 113.5,151.5 113.5,152.5C 111.058,152.119 110.391,152.786 111.5,154.5C 110.817,157.461 109.984,157.795 109,155.5C 107.309,158.131 106.142,157.797 105.5,154.5C 104.712,155.77 103.712,156.77 102.5,157.5C 101.596,158.209 101.263,159.209 101.5,160.5C 100.167,161.5 98.8333,162.5 97.5,163.5C 98.8333,162.5 98.8333,161.5 97.5,160.5C 101.283,156.067 104.616,151.4 107.5,146.5 Z"/></g>
<g><path style="opacity:1" fill="#4a423e" d="M 75.5,147.5 C 75.0773,149.781 75.744,151.448 77.5,152.5C 77.2267,154.451 77.8934,155.951 79.5,157C 77.1367,157.589 76.1367,159.089 76.5,161.5C 75.8597,164.682 74.8597,165.015 73.5,162.5C 73.1961,161.85 72.8627,161.183 72.5,160.5C 73.5996,156.061 74.5996,151.728 75.5,147.5 Z"/></g>
<g><path style="opacity:1" fill="#14120e" d="M 77.5,152.5 C 80.5823,153.017 83.5823,153.85 86.5,155C 79.3438,155.352 79.0105,156.185 85.5,157.5C 82.7442,159.204 79.7442,160.537 76.5,161.5C 76.1367,159.089 77.1367,157.589 79.5,157C 77.8934,155.951 77.2267,154.451 77.5,152.5 Z"/></g>
<g><path style="opacity:0.008" fill="#909699" d="M 23.5,158.5 C 24.0768,157.227 24.7435,157.227 25.5,158.5C 25.0302,159.463 24.3635,159.463 23.5,158.5 Z"/></g>
<g><path style="opacity:1" fill="#726d6b" d="M 34.5,146.5 C 34.5,146.833 34.5,147.167 34.5,147.5C 34.9321,148.71 35.5987,149.71 36.5,150.5C 36.3691,151.376 36.7025,152.043 37.5,152.5C 39.0709,151.691 40.7376,151.357 42.5,151.5C 43.0256,153.23 44.0256,154.564 45.5,155.5C 46.5,155.833 47.1667,156.5 47.5,157.5C 46.9569,157.56 46.6236,157.893 46.5,158.5C 48.0284,159.861 49.6951,161.028 51.5,162C 50.5,162.667 49.5,162.667 48.5,162C 45.0354,159.537 41.8688,156.704 39,153.5C 40.2365,156.776 42.4032,159.609 45.5,162C 45.2716,162.399 44.9382,162.565 44.5,162.5C 43.8333,162.167 43.1667,161.833 42.5,161.5C 40.5,159.167 38.5,156.833 36.5,154.5C 34.9255,152.453 33.9255,150.119 33.5,147.5C 33.5,146.833 33.8333,146.5 34.5,146.5 Z"/></g>
<g><path style="opacity:1" fill="#6c655e" d="M 75.5,147.5 C 74.5996,151.728 73.5996,156.061 72.5,160.5C 72.8627,161.183 73.1961,161.85 73.5,162.5C 69.9288,163.642 66.2621,164.309 62.5,164.5C 62.1667,164.5 61.8333,164.5 61.5,164.5C 61.5569,163.391 61.8902,162.391 62.5,161.5C 64.8811,162.83 67.2144,162.664 69.5,161C 69.0426,160.586 68.7093,160.086 68.5,159.5C 71.898,157.58 72.2313,155.247 69.5,152.5C 70.8922,149.839 72.7255,147.506 75,145.5C 75.4643,146.094 75.631,146.761 75.5,147.5 Z"/></g>
<g><path style="opacity:1" fill="#242329" d="M 115.5,155.5 C 115.849,158.045 115.016,160.045 113,161.5C 112.925,159.065 112.092,158.398 110.5,159.5C 109.175,160.953 108.342,160.619 108,158.5C 106.333,159.167 104.667,159.833 103,160.5C 102.517,159.552 102.351,158.552 102.5,157.5C 103.712,156.77 104.712,155.77 105.5,154.5C 106.142,157.797 107.309,158.131 109,155.5C 109.984,157.795 110.817,157.461 111.5,154.5C 110.391,152.786 111.058,152.119 113.5,152.5C 114.222,152.082 114.722,151.416 115,150.5C 114.904,152.381 115.071,154.047 115.5,155.5 Z"/></g>
<g><path style="opacity:1" fill="#19191d" d="M 36.5,154.5 C 38.5,156.833 40.5,159.167 42.5,161.5C 40.9319,161.641 39.2652,161.974 37.5,162.5C 36.5713,163.689 36.238,165.022 36.5,166.5C 34.8333,165.5 33.5,164.167 32.5,162.5C 33.2389,162.631 33.9056,162.464 34.5,162C 34.6437,159.287 34.4771,156.454 34,153.5C 34.6708,154.252 35.5041,154.586 36.5,154.5 Z"/></g>
<g><path style="opacity:0.886" fill="#7b7c7a" d="M 30.5,159.5 C 32.0481,159.821 32.7148,160.821 32.5,162.5C 31.5987,161.71 30.9321,160.71 30.5,159.5 Z"/></g>
<g><path style="opacity:1" fill="#1c1b21" d="M 102.5,157.5 C 102.351,158.552 102.517,159.552 103,160.5C 104.667,159.833 106.333,159.167 108,158.5C 108.342,160.619 109.175,160.953 110.5,159.5C 110.489,161.017 109.823,162.184 108.5,163C 109.337,164.011 109.67,165.178 109.5,166.5C 107.665,165.878 106.498,164.544 106,162.5C 104.296,164.373 102.463,166.04 100.5,167.5C 98.5648,168.15 96.5648,168.483 94.5,168.5C 97.0529,167.461 99.2196,165.794 101,163.5C 101.483,162.552 101.649,161.552 101.5,160.5C 101.263,159.209 101.596,158.209 102.5,157.5 Z"/></g>
<g><path style="opacity:1" fill="#39383c" d="M 120.5,150.5 C 118.644,157.108 115.311,162.775 110.5,167.5C 110.5,166.833 110.167,166.5 109.5,166.5C 109.67,165.178 109.337,164.011 108.5,163C 109.823,162.184 110.489,161.017 110.5,159.5C 112.092,158.398 112.925,159.065 113,161.5C 115.016,160.045 115.849,158.045 115.5,155.5C 115.987,154.527 116.487,153.527 117,152.5C 117.556,154.595 118.056,154.762 118.5,153C 117.586,151.594 116.92,150.094 116.5,148.5C 117.117,148.389 117.617,148.056 118,147.5C 118.852,148.571 119.685,149.571 120.5,150.5 Z"/></g>
<g><path style="opacity:1" fill="#594f4b" d="M 95.5,154.5 C 95.5,154.833 95.5,155.167 95.5,155.5C 91.7978,157.024 88.4645,159.19 85.5,162C 76.3352,167.401 66.6686,169.235 56.5,167.5C 59.7216,167.892 62.7216,167.392 65.5,166C 64.2625,165.768 63.2625,165.268 62.5,164.5C 66.2621,164.309 69.9288,163.642 73.5,162.5C 74.8597,165.015 75.8597,164.682 76.5,161.5C 79.7442,160.537 82.7442,159.204 85.5,157.5C 88.0094,156.079 90.3428,154.412 92.5,152.5C 93.4959,152.586 94.3292,152.252 95,151.5C 94.8915,152.769 95.0582,153.769 95.5,154.5 Z"/></g>
<g><path style="opacity:1" fill="#5d5450" d="M 47.5,157.5 C 48.6049,158.6 49.9382,159.267 51.5,159.5C 51.8333,160.833 52.1667,160.833 52.5,159.5C 53.6366,160.789 54.9699,161.789 56.5,162.5C 56.8333,162.5 57.1667,162.5 57.5,162.5C 57.9124,166.337 59.2457,167.004 61.5,164.5C 61.8333,164.5 62.1667,164.5 62.5,164.5C 63.2625,165.268 64.2625,165.768 65.5,166C 62.7216,167.392 59.7216,167.892 56.5,167.5C 55.5,167.5 54.5,167.5 53.5,167.5C 50.1896,166.396 47.1896,164.729 44.5,162.5C 44.9382,162.565 45.2716,162.399 45.5,162C 42.4032,159.609 40.2365,156.776 39,153.5C 41.8688,156.704 45.0354,159.537 48.5,162C 49.5,162.667 50.5,162.667 51.5,162C 49.6951,161.028 48.0284,159.861 46.5,158.5C 46.6236,157.893 46.9569,157.56 47.5,157.5 Z"/></g>
<g><path style="opacity:1" fill="#0c0d11" d="M 93.5,163.5 C 90.8333,165.167 88.1667,166.833 85.5,168.5C 83.2841,168.725 81.6174,167.892 80.5,166C 83.0711,164.546 85.7378,163.38 88.5,162.5C 89.6948,162.322 90.8615,161.989 92,161.5C 93.0299,161.836 93.5299,162.503 93.5,163.5 Z"/></g>
<g><path style="opacity:1" fill="#2c2b2f" d="M 109.5,166.5 C 110.167,166.5 110.5,166.833 110.5,167.5C 106.382,173.281 101.048,177.614 94.5,180.5C 93.3586,178.451 93.3586,176.451 94.5,174.5C 96.7819,175.39 99.1152,175.556 101.5,175C 100.715,172.958 101.048,170.958 102.5,169C 101.584,168.722 100.918,168.222 100.5,167.5C 102.463,166.04 104.296,164.373 106,162.5C 106.498,164.544 107.665,165.878 109.5,166.5 Z"/></g>
<g><path style="opacity:1" fill="#08090c" d="M 95.5,155.5 C 92.8605,157.473 90.5272,159.806 88.5,162.5C 85.7378,163.38 83.0711,164.546 80.5,166C 81.6174,167.892 83.2841,168.725 85.5,168.5C 83.7226,169.6 81.7226,170.434 79.5,171C 80.056,171.383 80.3893,171.883 80.5,172.5C 80.5,172.833 80.5,173.167 80.5,173.5C 79.8333,173.5 79.1667,173.5 78.5,173.5C 77.5,173.167 76.8333,172.5 76.5,171.5C 77.452,170.548 78.452,169.548 79.5,168.5C 78.6667,168.167 77.8333,167.833 77,167.5C 71.9406,169.007 66.7739,169.673 61.5,169.5C 57.8681,169.85 55.2014,169.184 53.5,167.5C 54.5,167.5 55.5,167.5 56.5,167.5C 66.6686,169.235 76.3352,167.401 85.5,162C 88.4645,159.19 91.7978,157.024 95.5,155.5 Z"/></g>
<g><path style="opacity:1" fill="#111115" d="M 42.5,161.5 C 43.1667,161.833 43.8333,162.167 44.5,162.5C 47.1896,164.729 50.1896,166.396 53.5,167.5C 55.2014,169.184 57.8681,169.85 61.5,169.5C 61.5,170.833 61.5,172.167 61.5,173.5C 59.2043,173.804 58.871,174.804 60.5,176.5C 60.0618,176.435 59.7284,176.601 59.5,177C 63.3041,178.494 62.9707,179.328 58.5,179.5C 58.3718,177.91 57.7051,176.577 56.5,175.5C 49.0623,174.029 42.3956,171.029 36.5,166.5C 36.238,165.022 36.5713,163.689 37.5,162.5C 39.2652,161.974 40.9319,161.641 42.5,161.5 Z"/></g>
<g><path style="opacity:1" fill="#131319" d="M 97.5,160.5 C 98.8333,161.5 98.8333,162.5 97.5,163.5C 94.9664,165.871 92.2997,168.037 89.5,170C 86.27,171.262 83.27,172.096 80.5,172.5C 80.3893,171.883 80.056,171.383 79.5,171C 81.7226,170.434 83.7226,169.6 85.5,168.5C 88.1667,166.833 90.8333,165.167 93.5,163.5C 94.8333,162.5 96.1667,161.5 97.5,160.5 Z"/></g>
<g><path style="opacity:1" fill="#232329" d="M 101.5,160.5 C 101.649,161.552 101.483,162.552 101,163.5C 99.2196,165.794 97.0529,167.461 94.5,168.5C 93.7659,169.708 93.4326,171.041 93.5,172.5C 92.5041,172.414 91.6708,172.748 91,173.5C 90.6924,172.692 90.1924,172.025 89.5,171.5C 87.5732,172.862 85.5732,173.862 83.5,174.5C 80.9414,178.255 77.6081,179.255 73.5,177.5C 77.0017,177.924 79.335,176.59 80.5,173.5C 80.5,173.167 80.5,172.833 80.5,172.5C 83.27,172.096 86.27,171.262 89.5,170C 92.2997,168.037 94.9664,165.871 97.5,163.5C 98.8333,162.5 100.167,161.5 101.5,160.5 Z"/></g>
<g><path style="opacity:1" fill="#090d12" d="M 76.5,171.5 C 75.8501,171.196 75.1835,170.863 74.5,170.5C 73.1667,171.833 71.8333,173.167 70.5,174.5C 68.8662,174.032 67.6995,173.032 67,171.5C 65.5993,173.192 63.7659,173.859 61.5,173.5C 61.5,172.167 61.5,170.833 61.5,169.5C 66.7739,169.673 71.9406,169.007 77,167.5C 77.8333,167.833 78.6667,168.167 79.5,168.5C 78.452,169.548 77.452,170.548 76.5,171.5 Z"/></g>
<g><path style="opacity:1" fill="#17161b" d="M 100.5,167.5 C 100.918,168.222 101.584,168.722 102.5,169C 101.048,170.958 100.715,172.958 101.5,175C 99.1152,175.556 96.7819,175.39 94.5,174.5C 96.0311,173.075 95.6977,172.409 93.5,172.5C 93.4326,171.041 93.7659,169.708 94.5,168.5C 96.5648,168.483 98.5648,168.15 100.5,167.5 Z"/></g>
<g><path style="opacity:1" fill="#0e1015" d="M 76.5,171.5 C 76.8333,172.5 77.5,173.167 78.5,173.5C 77.9924,175.233 77.159,175.566 76,174.5C 70.9123,175.46 65.7457,176.127 60.5,176.5C 58.871,174.804 59.2043,173.804 61.5,173.5C 63.7659,173.859 65.5993,173.192 67,171.5C 67.6995,173.032 68.8662,174.032 70.5,174.5C 71.8333,173.167 73.1667,171.833 74.5,170.5C 75.1835,170.863 75.8501,171.196 76.5,171.5 Z"/></g>
<g><path style="opacity:1" fill="#444346" d="M 36.5,166.5 C 42.3956,171.029 49.0623,174.029 56.5,175.5C 57.7051,176.577 58.3718,177.91 58.5,179.5C 56.0459,179.679 53.8792,179.013 52,177.5C 50.3164,177.683 50.1498,178.35 51.5,179.5C 45.1026,176.798 40.1026,172.465 36.5,166.5 Z"/></g>
<g><path style="opacity:1" fill="#292a2e" d="M 78.5,173.5 C 79.1667,173.5 79.8333,173.5 80.5,173.5C 79.335,176.59 77.0017,177.924 73.5,177.5C 71.8008,177.34 70.1341,177.506 68.5,178C 69.7982,180.395 68.9649,181.562 66,181.5C 63.2918,181.133 60.7918,180.466 58.5,179.5C 62.9707,179.328 63.3041,178.494 59.5,177C 59.7284,176.601 60.0618,176.435 60.5,176.5C 65.7457,176.127 70.9123,175.46 76,174.5C 77.159,175.566 77.9924,175.233 78.5,173.5 Z"/></g>
<g><path style="opacity:1" fill="#1e1e22" d="M 93.5,172.5 C 95.6977,172.409 96.0311,173.075 94.5,174.5C 93.3586,176.451 93.3586,178.451 94.5,180.5C 92.2084,182.267 89.5418,183.267 86.5,183.5C 83.4331,183.879 82.4331,182.879 83.5,180.5C 82.7375,179.732 81.7375,179.232 80.5,179C 82.3031,178.363 83.6364,177.197 84.5,175.5C 85.7678,176.428 87.1011,176.595 88.5,176C 87.0953,174.731 85.4286,174.231 83.5,174.5C 85.5732,173.862 87.5732,172.862 89.5,171.5C 90.1924,172.025 90.6924,172.692 91,173.5C 91.6708,172.748 92.5041,172.414 93.5,172.5 Z"/></g>
<g><path style="opacity:0.353" fill="#a6a6a8" d="M 51.5,179.5 C 53.0269,179.427 54.0269,180.094 54.5,181.5C 52.9731,181.573 51.9731,180.906 51.5,179.5 Z"/></g>
<g><path style="opacity:1" fill="#19191c" d="M 83.5,174.5 C 85.4286,174.231 87.0953,174.731 88.5,176C 87.1011,176.595 85.7678,176.428 84.5,175.5C 83.6364,177.197 82.3031,178.363 80.5,179C 81.7375,179.232 82.7375,179.732 83.5,180.5C 81.6412,180.461 80.3079,181.294 79.5,183C 80.1667,183.333 80.8333,183.667 81.5,184C 78.3331,184.252 75.3331,184.418 72.5,184.5C 71.3044,184.154 71.3044,183.654 72.5,183C 71.6667,182.833 70.8333,182.667 70,182.5C 68.6244,182.684 67.7911,183.351 67.5,184.5C 63.1084,183.652 58.7751,182.652 54.5,181.5C 54.0269,180.094 53.0269,179.427 51.5,179.5C 50.1498,178.35 50.3164,177.683 52,177.5C 53.8792,179.013 56.0459,179.679 58.5,179.5C 60.7918,180.466 63.2918,181.133 66,181.5C 68.9649,181.562 69.7982,180.395 68.5,178C 70.1341,177.506 71.8008,177.34 73.5,177.5C 77.6081,179.255 80.9414,178.255 83.5,174.5 Z"/></g>
<g><path style="opacity:1" fill="#444446" d="M 83.5,180.5 C 82.4331,182.879 83.4331,183.879 86.5,183.5C 84.1617,185.04 81.4951,185.706 78.5,185.5C 74.7657,185.677 71.0991,185.344 67.5,184.5C 67.7911,183.351 68.6244,182.684 70,182.5C 70.8333,182.667 71.6667,182.833 72.5,183C 71.3044,183.654 71.3044,184.154 72.5,184.5C 75.3331,184.418 78.3331,184.252 81.5,184C 80.8333,183.667 80.1667,183.333 79.5,183C 80.3079,181.294 81.6412,180.461 83.5,180.5 Z"/></g>
<g><path style="opacity:0.396" fill="#828282" d="M 54.5,181.5 C 58.7751,182.652 63.1084,183.652 67.5,184.5C 71.0991,185.344 74.7657,185.677 78.5,185.5C 69.9909,187.559 61.9909,186.226 54.5,181.5 Z"/></g>
</svg>
