<?xml version="1.0" encoding="UTF-8"?>
<!DOCTYPE svg PUBLIC "-//W3C//DTD SVG 1.1//EN" "http://www.w3.org/Graphics/SVG/1.1/DTD/svg11.dtd">
<svg xmlns="http://www.w3.org/2000/svg" version="1.1" width="150px" height="195px" style="shape-rendering:geometricPrecision; text-rendering:geometricPrecision; image-rendering:optimizeQuality; fill-rule:evenodd; clip-rule:evenodd" xmlns:xlink="http://www.w3.org/1999/xlink">
<g><path style="opacity:0.518" fill="#929292" d="M 42.5,-0.5 C 44.1667,-0.5 45.8333,-0.5 47.5,-0.5C 46.0028,0.305771 44.3361,0.972438 42.5,1.5C 41.8933,1.37642 41.56,1.04309 41.5,0.5C 42.1667,0.5 42.5,0.166667 42.5,-0.5 Z"/></g>
<g><path style="opacity:0.518" fill="#797979" d="M 39.5,-0.5 C 40.1667,-0.5 40.8333,-0.5 41.5,-0.5C 41.5,-0.166667 41.5,0.166667 41.5,0.5C 38.8152,2.25912 35.8152,3.25912 32.5,3.5C 34.7149,1.243 37.0482,-0.0903341 39.5,-0.5 Z"/></g>
<g><path style="opacity:0.922" fill="#515151" d="M 27.5,5.5 C 27.6495,6.55198 27.4828,7.55198 27,8.5C 25.8545,7.3157 24.6879,7.3157 23.5,8.5C 24.2114,6.79864 25.5447,5.79864 27.5,5.5 Z"/></g>
<g><path style="opacity:1" fill="#191919" d="M 47.5,-0.5 C 49.1667,-0.5 50.8333,-0.5 52.5,-0.5C 51.9423,0.789915 50.9423,1.62325 49.5,2C 50.3081,2.30762 50.9747,2.80762 51.5,3.5C 50.3349,4.58359 49.0016,5.41692 47.5,6C 48.4791,7.77853 48.1458,9.44519 46.5,11C 44.6866,11.6144 44.3533,11.2811 45.5,10C 44.3333,9.5 43.5,8.66667 43,7.5C 42.4482,10.1975 40.9482,12.1975 38.5,13.5C 37.8076,12.9747 37.3076,12.3081 37,11.5C 35.9916,11.9817 34.825,12.1484 33.5,12C 37.2386,14.136 37.072,16.3027 33,18.5C 32.6827,16.6992 32.016,16.3659 31,17.5C 31.2626,18.9506 31.0959,20.2839 30.5,21.5C 29.8076,20.9747 29.3076,20.3081 29,19.5C 28.6258,20.4162 28.1258,21.2496 27.5,22C 30.3072,23.3974 30.8072,25.2307 29,27.5C 27.8333,26.3333 26.6667,25.1667 25.5,24C 24.5632,23.3083 23.8966,23.475 23.5,24.5C 22.1805,23.0582 20.5138,22.3915 18.5,22.5C 16.3926,21.5318 14.0593,21.1984 11.5,21.5C 11.5,20.5 11.5,19.5 11.5,18.5C 12.4959,18.4142 13.3292,18.7476 14,19.5C 14.49,18.2068 14.6567,16.8734 14.5,15.5C 15.5,15.5 16.5,15.5 17.5,15.5C 17.5,14.5 17.5,13.5 17.5,12.5C 18.6627,10.0178 20.6627,8.68447 23.5,8.5C 24.6879,7.3157 25.8545,7.3157 27,8.5C 27.4828,7.55198 27.6495,6.55198 27.5,5.5C 27.811,4.52216 28.4777,3.85549 29.5,3.5C 30.5272,4.79141 31.5272,4.79141 32.5,3.5C 35.8152,3.25912 38.8152,2.25912 41.5,0.5C 41.56,1.04309 41.8933,1.37642 42.5,1.5C 44.3361,0.972438 46.0028,0.305771 47.5,-0.5 Z"/></g>
<g><path style="opacity:1" fill="#101010" d="M 52.5,-0.5 C 53.1667,-0.5 53.8333,-0.5 54.5,-0.5C 54.8333,0.833333 55.1667,0.833333 55.5,-0.5C 56.5,-0.5 57.5,-0.5 58.5,-0.5C 58.7828,0.28913 59.2828,0.955796 60,1.5C 62.0123,1.5246 64.0123,1.5246 66,1.5C 67.2896,3.35399 68.7896,3.68733 70.5,2.5C 71.3449,4.7619 72.6783,5.42856 74.5,4.5C 75.3333,5.5 76.1667,6.5 77,7.5C 77.7175,6.54943 78.5509,6.38277 79.5,7C 81.2012,8.8394 82.8678,10.6727 84.5,12.5C 84.2148,14.288 84.5481,15.9547 85.5,17.5C 87.5,19.1667 89.5,20.8333 91.5,22.5C 92.1719,21.0508 92.8386,19.7175 93.5,18.5C 96.4378,19.622 98.4378,21.622 99.5,24.5C 100.811,27.8114 103.145,30.1448 106.5,31.5C 108.167,32.5 109.5,33.8333 110.5,35.5C 110.369,38.3667 111.703,40.0334 114.5,40.5C 117.471,42.4426 119.471,45.1092 120.5,48.5C 120.622,51.2921 121.956,53.2921 124.5,54.5C 126.326,56.1475 127.66,58.1475 128.5,60.5C 126.982,63.791 127.648,66.6243 130.5,69C 131.448,69.4828 132.448,69.6495 133.5,69.5C 136.249,73.3815 138.249,77.7148 139.5,82.5C 139.12,84.698 139.787,86.3646 141.5,87.5C 142.267,88.172 142.934,89.0053 143.5,90C 143.736,92.1177 143.736,94.2844 143.5,96.5C 143.938,98.126 144.272,99.7927 144.5,101.5C 141.462,104.514 142.129,106.514 146.5,107.5C 147.266,109.684 147.933,112.018 148.5,114.5C 146.908,116.225 147.242,117.225 149.5,117.5C 149.5,118.167 149.5,118.833 149.5,119.5C 148.167,120.5 148.167,121.5 149.5,122.5C 149.5,123.167 149.5,123.833 149.5,124.5C 148.167,125.5 148.167,126.5 149.5,127.5C 149.5,128.167 149.5,128.833 149.5,129.5C 148.167,130.167 148.167,130.833 149.5,131.5C 149.5,132.5 149.5,133.5 149.5,134.5C 148.167,135.5 148.167,136.5 149.5,137.5C 149.5,138.167 149.5,138.833 149.5,139.5C 148.167,140.167 148.167,140.833 149.5,141.5C 149.5,142.167 149.5,142.833 149.5,143.5C 148.624,143.369 147.957,143.702 147.5,144.5C 147.5,146.833 147.5,149.167 147.5,151.5C 146.757,152.182 146.091,152.849 145.5,153.5C 143.976,152.826 142.642,151.826 141.5,150.5C 139.744,152.191 139.244,154.191 140,156.5C 141.481,157.471 142.315,158.804 142.5,160.5C 141.773,162.954 140.773,165.287 139.5,167.5C 138.849,166.909 138.182,166.243 137.5,165.5C 136.914,165.709 136.414,166.043 136,166.5C 135.503,168.81 135.337,171.143 135.5,173.5C 134.557,176.109 132.89,178.109 130.5,179.5C 129.485,178.54 129.485,177.373 130.5,176C 130.15,174.743 129.483,174.409 128.5,175C 126.887,177.228 126.22,179.728 126.5,182.5C 125.109,184.89 123.109,186.557 120.5,187.5C 118.343,186.947 118.51,185.947 121,184.5C 121.49,183.207 121.657,181.873 121.5,180.5C 117.108,180.526 115.108,182.859 115.5,187.5C 114.134,189.351 112.467,189.684 110.5,188.5C 111.754,186.357 111.754,184.357 110.5,182.5C 110.643,180.738 110.309,179.071 109.5,177.5C 106.914,176.52 104.247,176.187 101.5,176.5C 103.299,187.689 98.6326,193.355 87.5,193.5C 87.1583,192.662 86.4916,192.328 85.5,192.5C 86.0819,191.069 86.9152,189.736 88,188.5C 88.5079,190.904 89.6745,191.571 91.5,190.5C 91.0233,189.522 90.3567,188.689 89.5,188C 92.0298,186.805 94.0298,184.972 95.5,182.5C 94.3687,181.396 93.5354,181.729 93,183.5C 90.7989,181.256 89.2989,178.589 88.5,175.5C 86.6783,176.429 85.3449,175.762 84.5,173.5C 83.914,173.709 83.414,174.043 83,174.5C 82.4169,172.998 81.5836,171.665 80.5,170.5C 78.8792,172.423 77.0458,174.089 75,175.5C 74.5983,174.128 74.0983,172.795 73.5,171.5C 74.9814,170.52 76.3147,169.353 77.5,168C 74.7076,167.103 72.0409,165.937 69.5,164.5C 68.1697,161.151 68.6697,160.818 71,163.5C 71.414,163.043 71.914,162.709 72.5,162.5C 74.8157,164.494 77.4824,165.494 80.5,165.5C 86.1622,168.048 91.8288,170.382 97.5,172.5C 98.9187,173.451 100.585,173.784 102.5,173.5C 100.976,165.293 96.9755,158.46 90.5,153C 92.9559,151.381 95.4559,150.881 98,151.5C 99.6016,147.758 101.435,144.091 103.5,140.5C 105.886,145.259 107.886,150.092 109.5,155C 108.214,157.832 108.214,160.665 109.5,163.5C 108.414,163.62 107.747,164.287 107.5,165.5C 108.242,168.083 108.908,168.083 109.5,165.5C 111.093,167.51 113.093,169.177 115.5,170.5C 116.711,169.726 116.711,168.893 115.5,168C 118.307,166.411 121.14,165.911 124,166.5C 124.448,164.591 123.615,163.424 121.5,163C 122.167,162.333 122.833,161.667 123.5,161C 121.579,160.64 119.912,159.806 118.5,158.5C 119.325,157.614 120.325,157.281 121.5,157.5C 121.274,154.751 121.607,152.084 122.5,149.5C 120.667,146.71 119.667,147.043 119.5,150.5C 118.5,150.5 117.5,150.5 116.5,150.5C 116.88,145.591 116.213,140.924 114.5,136.5C 116.942,136.646 117.609,135.813 116.5,134C 117.428,133.612 118.095,132.945 118.5,132C 120.095,126.445 121.762,120.945 123.5,115.5C 123.447,109.785 122.947,109.452 122,114.5C 120.989,115.337 119.822,115.67 118.5,115.5C 118.5,114.5 118.5,113.5 118.5,112.5C 119.5,112.5 120.5,112.5 121.5,112.5C 121.728,109.074 120.395,106.407 117.5,104.5C 118.311,103.784 118.978,102.95 119.5,102C 118.323,99.9337 117.323,97.9337 116.5,96C 118.085,95.9152 119.418,95.7486 120.5,95.5C 119.218,93.8208 118.218,91.9874 117.5,90C 118.253,88.513 119.086,88.3463 120,89.5C 120.743,87.5594 120.576,85.7261 119.5,84C 121.956,81.841 121.29,81.0077 117.5,81.5C 117.344,78.1589 116.011,75.3255 113.5,73C 117.203,70.1988 117.036,68.0321 113,66.5C 110.118,70.7949 108.285,70.4616 107.5,65.5C 108.686,63.8058 108.519,62.1392 107,60.5C 97.4086,46.241 85.2419,34.741 70.5,26C 60.1516,21.7558 49.4849,20.5891 38.5,22.5C 37.5768,21.6971 36.5768,21.5304 35.5,22C 33.4818,24.9341 31.1484,27.4341 28.5,29.5C 27.1667,27.5 25.5,25.8333 23.5,24.5C 23.8966,23.475 24.5632,23.3083 25.5,24C 26.6667,25.1667 27.8333,26.3333 29,27.5C 30.8072,25.2307 30.3072,23.3974 27.5,22C 28.1258,21.2496 28.6258,20.4162 29,19.5C 29.3076,20.3081 29.8076,20.9747 30.5,21.5C 31.0959,20.2839 31.2626,18.9506 31,17.5C 32.016,16.3659 32.6827,16.6992 33,18.5C 37.072,16.3027 37.2386,14.136 33.5,12C 34.825,12.1484 35.9916,11.9817 37,11.5C 37.3076,12.3081 37.8076,12.9747 38.5,13.5C 40.9482,12.1975 42.4482,10.1975 43,7.5C 43.5,8.66667 44.3333,9.5 45.5,10C 44.3533,11.2811 44.6866,11.6144 46.5,11C 48.1458,9.44519 48.4791,7.77853 47.5,6C 49.0016,5.41692 50.3349,4.58359 51.5,3.5C 50.9747,2.80762 50.3081,2.30762 49.5,2C 50.9423,1.62325 51.9423,0.789915 52.5,-0.5 Z M 126.5,104.5 C 126.5,104.833 126.5,105.167 126.5,105.5C 126.844,111.678 127.511,117.678 128.5,123.5C 128.188,132.283 127.022,140.949 125,149.5C 122.9,144.704 121.734,139.704 121.5,134.5C 122.29,128.797 123.29,123.131 124.5,117.5C 125.167,113.167 125.833,108.833 126.5,104.5 Z"/></g>
<g><path style="opacity:0.996" fill="#5e5e5e" d="M 17.5,12.5 C 17.5,13.5 17.5,14.5 17.5,15.5C 16.5,15.5 15.5,15.5 14.5,15.5C 14.6567,16.8734 14.49,18.2068 14,19.5C 13.3292,18.7476 12.4959,18.4142 11.5,18.5C 12.9607,15.9804 14.9607,13.9804 17.5,12.5 Z"/></g>
<g><path style="opacity:1" fill="#959595" d="M 84.5,12.5 C 88.0246,13.7589 91.0246,15.7589 93.5,18.5C 92.8386,19.7175 92.1719,21.0508 91.5,22.5C 89.5,20.8333 87.5,19.1667 85.5,17.5C 84.5481,15.9547 84.2148,14.288 84.5,12.5 Z"/></g>
<g><path style="opacity:1" fill="#b1b1b1" d="M 18.5,22.5 C 20.5138,22.3915 22.1805,23.0582 23.5,24.5C 25.5,25.8333 27.1667,27.5 28.5,29.5C 27.6992,31.9995 26.3658,33.9995 24.5,35.5C 24.5,34.8333 24.1667,34.5 23.5,34.5C 20.9875,32.0743 17.9875,30.4076 14.5,29.5C 14.3893,28.8826 14.056,28.3826 13.5,28C 14.9675,26.9025 15.8008,25.4025 16,23.5C 16.6708,22.7476 17.5041,22.4142 18.5,22.5 Z"/></g>
<g><path style="opacity:1" fill="#2e2e2e" d="M 38.5,22.5 C 34.7857,25.7398 31.9524,29.7398 30,34.5C 27.6729,40.8282 25.8396,47.1616 24.5,53.5C 24.09,48.3326 24.7567,43.3326 26.5,38.5C 25.3881,37.7348 24.7214,36.7348 24.5,35.5C 26.3658,33.9995 27.6992,31.9995 28.5,29.5C 31.1484,27.4341 33.4818,24.9341 35.5,22C 36.5768,21.5304 37.5768,21.6971 38.5,22.5 Z"/></g>
<g><path style="opacity:1" fill="#898989" d="M 11.5,18.5 C 11.5,19.5 11.5,20.5 11.5,21.5C 14.0593,21.1984 16.3926,21.5318 18.5,22.5C 17.5041,22.4142 16.6708,22.7476 16,23.5C 15.8008,25.4025 14.9675,26.9025 13.5,28C 14.056,28.3826 14.3893,28.8826 14.5,29.5C 11.7938,29.5751 9.12717,29.9084 6.5,30.5C 7.67829,26.1621 9.34495,22.1621 11.5,18.5 Z"/></g>
<g><path style="opacity:0.69" fill="#8d8d8d" d="M 99.5,24.5 C 101.599,25.861 103.599,27.361 105.5,29C 106.252,29.6708 106.586,30.5041 106.5,31.5C 103.145,30.1448 100.811,27.8114 99.5,24.5 Z"/></g>
<g><path style="opacity:1" fill="#1a1a1a" d="M 14.5,29.5 C 17.9875,30.4076 20.9875,32.0743 23.5,34.5C 23.0582,35.2312 22.8915,36.2312 23,37.5C 21.9681,39.0267 20.8014,40.36 19.5,41.5C 14.4436,36.9137 10.4436,37.5803 7.5,43.5C 7.52884,45.0293 8.19551,46.196 9.5,47C 12.4816,47.498 15.4816,47.6646 18.5,47.5C 17.0484,48.3019 15.3817,48.8019 13.5,49C 14.8333,49.3333 16.1667,49.6667 17.5,50C 16.7151,51.5431 16.7151,53.2098 17.5,55C 17.1382,56.4343 16.4715,57.6009 15.5,58.5C 11.3912,55.4551 8.05787,56.1217 5.5,60.5C 4.3157,59.3121 4.3157,58.1455 5.5,57C 5,56.5 4.5,56 4,55.5C 3.78107,56.938 3.28107,58.2713 2.5,59.5C 1.80762,58.9747 1.30762,58.3081 1,57.5C 0.76791,58.7375 0.26791,59.7375 -0.5,60.5C -0.5,58.5 -0.5,56.5 -0.5,54.5C 1.20934,46.3314 3.54267,38.3314 6.5,30.5C 9.12717,29.9084 11.7938,29.5751 14.5,29.5 Z"/></g>
<g><path style="opacity:0.753" fill="#8e8e8e" d="M 110.5,35.5 C 112.543,36.5794 113.876,38.246 114.5,40.5C 111.703,40.0334 110.369,38.3667 110.5,35.5 Z"/></g>
<g><path style="opacity:1" fill="#b3b3b3" d="M 19.5,41.5 C 19.7947,43.7354 19.4614,45.7354 18.5,47.5C 15.4816,47.6646 12.4816,47.498 9.5,47C 8.19551,46.196 7.52884,45.0293 7.5,43.5C 10.4436,37.5803 14.4436,36.9137 19.5,41.5 Z"/></g>
<g><path style="opacity:0.784" fill="#898989" d="M 120.5,48.5 C 122.326,50.1475 123.66,52.1475 124.5,54.5C 121.956,53.2921 120.622,51.2921 120.5,48.5 Z"/></g>
<g><path style="opacity:1" fill="#808080" d="M 116.5,56.5 C 118.727,57.4006 119.727,59.0672 119.5,61.5C 115.67,61.5042 114.67,59.8375 116.5,56.5 Z"/></g>
<g><path style="opacity:1" fill="#656565" d="M 126.5,67.5 C 124.584,66.3347 123.751,64.668 124,62.5C 125.372,63.9101 126.205,65.5767 126.5,67.5 Z"/></g>
<g><path style="opacity:1" fill="#808080" d="M 128.5,60.5 C 130.924,63.0078 132.59,66.0078 133.5,69.5C 132.448,69.6495 131.448,69.4828 130.5,69C 127.648,66.6243 126.982,63.791 128.5,60.5 Z"/></g>
<g><path style="opacity:1" fill="#0a0a0a" d="M 103.5,65.5 C 104.964,66.4054 106.298,66.4054 107.5,65.5C 108.285,70.4616 110.118,70.7949 113,66.5C 117.036,68.0321 117.203,70.1988 113.5,73C 116.011,75.3255 117.344,78.1589 117.5,81.5C 121.29,81.0077 121.956,81.841 119.5,84C 120.576,85.7261 120.743,87.5594 120,89.5C 119.086,88.3463 118.253,88.513 117.5,90C 118.218,91.9874 119.218,93.8208 120.5,95.5C 119.418,95.7486 118.085,95.9152 116.5,96C 117.323,97.9337 118.323,99.9337 119.5,102C 118.978,102.95 118.311,103.784 117.5,104.5C 120.395,106.407 121.728,109.074 121.5,112.5C 120.5,112.5 119.5,112.5 118.5,112.5C 118.5,113.5 118.5,114.5 118.5,115.5C 119.822,115.67 120.989,115.337 122,114.5C 122.947,109.452 123.447,109.785 123.5,115.5C 121.762,120.945 120.095,126.445 118.5,132C 118.095,132.945 117.428,133.612 116.5,134C 117.609,135.813 116.942,136.646 114.5,136.5C 116.213,140.924 116.88,145.591 116.5,150.5C 117.5,150.5 118.5,150.5 119.5,150.5C 119.667,147.043 120.667,146.71 122.5,149.5C 121.607,152.084 121.274,154.751 121.5,157.5C 120.325,157.281 119.325,157.614 118.5,158.5C 119.912,159.806 121.579,160.64 123.5,161C 122.833,161.667 122.167,162.333 121.5,163C 123.615,163.424 124.448,164.591 124,166.5C 121.14,165.911 118.307,166.411 115.5,168C 116.711,168.893 116.711,169.726 115.5,170.5C 113.093,169.177 111.093,167.51 109.5,165.5C 109.5,164.833 109.5,164.167 109.5,163.5C 108.214,160.665 108.214,157.832 109.5,155C 107.886,150.092 105.886,145.259 103.5,140.5C 101.435,144.091 99.6016,147.758 98,151.5C 95.4559,150.881 92.9559,151.381 90.5,153C 96.9755,158.46 100.976,165.293 102.5,173.5C 100.585,173.784 98.9187,173.451 97.5,172.5C 100.998,172.435 101.498,171.101 99,168.5C 93.5842,161.412 86.7509,156.246 78.5,153C 70.6883,151.232 63.355,148.399 56.5,144.5C 56.5,144.167 56.5,143.833 56.5,143.5C 55.5346,140.915 54.2012,140.415 52.5,142C 53.6886,143.895 54.6886,145.895 55.5,148C 54.6919,148.308 54.0253,148.808 53.5,149.5C 57.7272,149.808 61.0606,151.974 63.5,156C 63.1667,156.5 62.8333,157 62.5,157.5C 60.8333,156.5 59.5,155.167 58.5,153.5C 57.332,156.469 55.9987,156.802 54.5,154.5C 53.7025,154.957 53.3691,155.624 53.5,156.5C 52.3259,154.559 50.6592,153.059 48.5,152C 51.7982,151.701 52.1315,150.867 49.5,149.5C 50.5981,148.603 50.5981,147.77 49.5,147C 50.3081,146.692 50.9747,146.192 51.5,145.5C 50.7261,144.289 49.8928,144.289 49,145.5C 48.5,143.667 47.3333,142.5 45.5,142C 46.9804,139.332 48.4804,139.165 50,141.5C 50.1667,141.167 50.3333,140.833 50.5,140.5C 46.6667,134.833 42.8333,129.167 39,123.5C 36.9281,120.029 35.4281,116.362 34.5,112.5C 36.9418,112.119 37.6085,112.786 36.5,114.5C 38.8501,117.035 40.3501,120.035 41,123.5C 41.6891,124.357 42.5224,125.023 43.5,125.5C 48.9146,119.693 55.5813,116.36 63.5,115.5C 63.577,118.509 62.2437,120.676 59.5,122C 61.7706,122.454 64.1039,123.121 66.5,124C 69.3158,127.661 72.8158,130.494 77,132.5C 77.3333,131.833 77.6667,131.167 78,130.5C 78.8333,131.5 79.6667,132.5 80.5,133.5C 80.8333,133 81.1667,132.5 81.5,132C 78.1053,128.835 74.6053,125.668 71,122.5C 70.0181,121.241 69.6848,119.908 70,118.5C 77.9923,128.056 87.9923,134.056 100,136.5C 101.225,136.138 102.391,135.638 103.5,135C 101.009,134.591 99.0087,133.424 97.5,131.5C 96.914,131.709 96.414,132.043 96,132.5C 94.8814,129.943 94.7147,127.443 95.5,125C 94.062,124.781 92.7287,124.281 91.5,123.5C 92.5201,119.356 91.1868,116.022 87.5,113.5C 88.7247,110.539 88.3914,107.706 86.5,105C 86.7591,103.739 87.4258,102.739 88.5,102C 86.6414,100.308 84.6414,98.8076 82.5,97.5C 81.9276,95.9222 81.5943,94.4222 81.5,93C 80.2559,92.5439 79.4226,93.0439 79,94.5C 78.8333,93.8333 78.6667,93.1667 78.5,92.5C 78.8604,88.5537 78.8604,84.7204 78.5,81C 79.9678,78.341 80.3011,75.6743 79.5,73C 81.2182,72.654 82.8849,72.154 84.5,71.5C 86.4325,72.5202 88.4325,72.6869 90.5,72C 91.8762,69.5581 93.7096,68.7247 96,69.5C 97.0674,68.8095 98.2341,68.3095 99.5,68C 96.9556,66.908 94.2889,66.2414 91.5,66C 95.4862,65.5012 99.4862,65.3345 103.5,65.5 Z"/></g>
<g><path style="opacity:1" fill="#121212" d="M 23.5,34.5 C 24.1667,34.5 24.5,34.8333 24.5,35.5C 24.7214,36.7348 25.3881,37.7348 26.5,38.5C 24.7567,43.3326 24.09,48.3326 24.5,53.5C 23.7084,67.1198 25.2084,80.4532 29,93.5C 41.7845,84.1893 55.2845,76.0226 69.5,69C 80.6854,64.7749 92.0187,63.6082 103.5,65.5C 99.4862,65.3345 95.4862,65.5012 91.5,66C 94.2889,66.2414 96.9556,66.908 99.5,68C 98.2341,68.3095 97.0674,68.8095 96,69.5C 93.7096,68.7247 91.8762,69.5581 90.5,72C 88.4325,72.6869 86.4325,72.5202 84.5,71.5C 82.8849,72.154 81.2182,72.654 79.5,73C 80.3011,75.6743 79.9678,78.341 78.5,81C 78.8604,84.7204 78.8604,88.5537 78.5,92.5C 78.6667,93.1667 78.8333,93.8333 79,94.5C 79.4226,93.0439 80.2559,92.5439 81.5,93C 81.5943,94.4222 81.9276,95.9222 82.5,97.5C 84.6414,98.8076 86.6414,100.308 88.5,102C 87.4258,102.739 86.7591,103.739 86.5,105C 88.3914,107.706 88.7247,110.539 87.5,113.5C 91.1868,116.022 92.5201,119.356 91.5,123.5C 92.7287,124.281 94.062,124.781 95.5,125C 94.7147,127.443 94.8814,129.943 96,132.5C 96.414,132.043 96.914,131.709 97.5,131.5C 99.0087,133.424 101.009,134.591 103.5,135C 102.391,135.638 101.225,136.138 100,136.5C 87.9923,134.056 77.9923,128.056 70,118.5C 69.6848,119.908 70.0181,121.241 71,122.5C 74.6053,125.668 78.1053,128.835 81.5,132C 81.1667,132.5 80.8333,133 80.5,133.5C 79.6667,132.5 78.8333,131.5 78,130.5C 77.6667,131.167 77.3333,131.833 77,132.5C 72.8158,130.494 69.3158,127.661 66.5,124C 64.1039,123.121 61.7706,122.454 59.5,122C 62.2437,120.676 63.577,118.509 63.5,115.5C 55.5813,116.36 48.9146,119.693 43.5,125.5C 42.5224,125.023 41.6891,124.357 41,123.5C 40.3501,120.035 38.8501,117.035 36.5,114.5C 37.6085,112.786 36.9418,112.119 34.5,112.5C 35.4281,116.362 36.9281,120.029 39,123.5C 42.8333,129.167 46.6667,134.833 50.5,140.5C 50.3333,140.833 50.1667,141.167 50,141.5C 48.4804,139.165 46.9804,139.332 45.5,142C 47.3333,142.5 48.5,143.667 49,145.5C 49.8928,144.289 50.7261,144.289 51.5,145.5C 50.9747,146.192 50.3081,146.692 49.5,147C 50.5981,147.77 50.5981,148.603 49.5,149.5C 47.9157,148.618 46.249,147.785 44.5,147C 45.3081,146.692 45.9747,146.192 46.5,145.5C 44.5,144.5 42.5,143.5 40.5,142.5C 43.0813,140.09 42.748,139.424 39.5,140.5C 39.5198,138.857 38.8532,137.524 37.5,136.5C 38.1667,135.833 38.8333,135.167 39.5,134.5C 37.9334,132.104 37.1001,129.437 37,126.5C 36.2496,125.874 35.4162,125.374 34.5,125C 35.3081,124.692 35.9747,124.192 36.5,123.5C 34.2039,123.676 31.8706,123.342 29.5,122.5C 29.1667,118.5 28.8333,114.5 28.5,110.5C 29.6431,110.092 30.6431,109.425 31.5,108.5C 29.9709,105.246 28.6376,101.913 27.5,98.5C 25.2573,97.5258 22.924,97.1924 20.5,97.5C 20.9175,96.7784 21.5842,96.2784 22.5,96C 21.4731,92.6179 20.1398,89.4512 18.5,86.5C 18.5,85.8333 18.8333,85.5 19.5,85.5C 22.8565,81.1027 21.8565,77.7694 16.5,75.5C 15.5258,73.2573 15.1924,70.924 15.5,68.5C 13.1667,68.5 10.8333,68.5 8.5,68.5C 7.78782,71.9251 7.78782,75.2585 8.5,78.5C 5.53045,82.2897 6.19712,85.2897 10.5,87.5C 11.973,89.7403 12.973,92.2403 13.5,95C 13.0338,96.2988 13.0338,97.7988 13.5,99.5C 12.5084,99.3284 11.8417,99.6618 11.5,100.5C 9.93819,100.733 8.60486,101.4 7.5,102.5C 6.88258,102.611 6.38258,102.944 6,103.5C 5.72158,102.584 5.22158,101.918 4.5,101.5C 3.22642,99.0075 2.55975,96.3408 2.5,93.5C 2.23166,90.8806 2.565,88.3806 3.5,86C 2.55198,85.5172 1.55198,85.3505 0.5,85.5C 0.737305,84.209 0.403972,83.209 -0.5,82.5C -0.5,75.1667 -0.5,67.8333 -0.5,60.5C 0.26791,59.7375 0.76791,58.7375 1,57.5C 1.30762,58.3081 1.80762,58.9747 2.5,59.5C 3.28107,58.2713 3.78107,56.938 4,55.5C 4.5,56 5,56.5 5.5,57C 4.3157,58.1455 4.3157,59.3121 5.5,60.5C 5.9836,66.7948 9.31693,68.9615 15.5,67C 19.4671,64.0342 19.4671,61.2008 15.5,58.5C 16.4715,57.6009 17.1382,56.4343 17.5,55C 16.7151,53.2098 16.7151,51.5431 17.5,50C 16.1667,49.6667 14.8333,49.3333 13.5,49C 15.3817,48.8019 17.0484,48.3019 18.5,47.5C 19.4614,45.7354 19.7947,43.7354 19.5,41.5C 20.8014,40.36 21.9681,39.0267 23,37.5C 22.8915,36.2312 23.0582,35.2312 23.5,34.5 Z"/></g>
<g><path style="opacity:1" fill="#b5b5b5" d="M 15.5,58.5 C 19.4671,61.2008 19.4671,64.0342 15.5,67C 9.31693,68.9615 5.9836,66.7948 5.5,60.5C 8.05787,56.1217 11.3912,55.4551 15.5,58.5 Z"/></g>
<g><path style="opacity:1" fill="#353535" d="M 19.5,85.5 C 19.2701,77.9515 15.6034,75.6182 8.5,78.5C 7.78782,75.2585 7.78782,71.9251 8.5,68.5C 10.8333,68.5 13.1667,68.5 15.5,68.5C 15.1924,70.924 15.5258,73.2573 16.5,75.5C 21.8565,77.7694 22.8565,81.1027 19.5,85.5 Z"/></g>
<g><path style="opacity:1" fill="#828282" d="M 126.5,67.5 C 129.444,69.7158 131.111,72.7158 131.5,76.5C 131.5,77.1667 131.167,77.5 130.5,77.5C 129.167,74.1667 127.833,70.8333 126.5,67.5 Z"/></g>
<g><path style="opacity:1" fill="#c6c6c6" d="M 19.5,85.5 C 18.8333,85.5 18.5,85.8333 18.5,86.5C 15.9455,87.388 13.2788,87.7214 10.5,87.5C 6.19712,85.2897 5.53045,82.2897 8.5,78.5C 15.6034,75.6182 19.2701,77.9515 19.5,85.5 Z"/></g>
<g><path style="opacity:1" fill="#4c4c4c" d="M 131.5,76.5 C 134.081,81.1524 135.581,86.1524 136,91.5C 135.374,89.0087 134.541,89.0087 133.5,91.5C 134.327,86.8442 133.327,82.1776 130.5,77.5C 131.167,77.5 131.5,77.1667 131.5,76.5 Z"/></g>
<g><path style="opacity:0.955" fill="#5e5e5e" d="M 139.5,82.5 C 140.931,83.7804 141.598,85.4471 141.5,87.5C 139.787,86.3646 139.12,84.698 139.5,82.5 Z"/></g>
<g><path style="opacity:0.906" fill="#5a5a5a" d="M 0.5,85.5 C 1.55198,85.3505 2.55198,85.5172 3.5,86C 2.565,88.3806 2.23166,90.8806 2.5,93.5C 1.46899,91.0392 0.802327,88.3725 0.5,85.5 Z"/></g>
<g><path style="opacity:1" fill="#333333" d="M 18.5,86.5 C 20.1398,89.4512 21.4731,92.6179 22.5,96C 21.5842,96.2784 20.9175,96.7784 20.5,97.5C 17.7237,97.9111 17.057,97.0777 18.5,95C 17.9221,93.1886 17.4221,91.3553 17,89.5C 15.8173,88.269 14.6507,88.269 13.5,89.5C 15.2937,91.5351 15.6271,93.7017 14.5,96C 14.9054,96.9454 15.572,97.6121 16.5,98C 15.5842,98.2784 14.9175,98.7784 14.5,99.5C 14.1667,99.5 13.8333,99.5 13.5,99.5C 13.0338,97.7988 13.0338,96.2988 13.5,95C 12.973,92.2403 11.973,89.7403 10.5,87.5C 13.2788,87.7214 15.9455,87.388 18.5,86.5 Z"/></g>
<g><path style="opacity:0.333" fill="#8c8c8c" d="M 125.5,100.5 C 123.699,99.2812 122.699,97.4479 122.5,95C 122.63,93.9412 123.13,93.1079 124,92.5C 124.395,95.2066 124.895,97.8733 125.5,100.5 Z"/></g>
<g><path style="opacity:1" fill="#a3a3a3" d="M 20.5,97.5 C 22.924,97.1924 25.2573,97.5258 27.5,98.5C 28.6376,101.913 29.9709,105.246 31.5,108.5C 30.6431,109.425 29.6431,110.092 28.5,110.5C 28.1667,110.5 27.8333,110.5 27.5,110.5C 26.0513,107.557 24.3846,104.724 22.5,102C 22.7549,100.674 23.4216,99.6739 24.5,99C 21.1322,98.4572 17.7989,98.6239 14.5,99.5C 14.9175,98.7784 15.5842,98.2784 16.5,98C 15.572,97.6121 14.9054,96.9454 14.5,96C 15.6271,93.7017 15.2937,91.5351 13.5,89.5C 14.6507,88.269 15.8173,88.269 17,89.5C 17.4221,91.3553 17.9221,93.1886 18.5,95C 17.057,97.0777 17.7237,97.9111 20.5,97.5 Z"/></g>
<g><path style="opacity:1" fill="#696969" d="M 56.5,95.5 C 60.7293,102.274 65.2293,108.94 70,115.5C 70.6667,116.167 70.6667,116.833 70,117.5C 64.2234,110.946 59.7234,103.613 56.5,95.5 Z"/></g>
<g><path style="opacity:1" fill="#3a3a3a" d="M 143.5,96.5 C 144.117,96.6107 144.617,96.944 145,97.5C 145.826,100.793 146.326,104.126 146.5,107.5C 142.129,106.514 141.462,104.514 144.5,101.5C 144.272,99.7927 143.938,98.126 143.5,96.5 Z"/></g>
<g><path style="opacity:1" fill="#848484" d="M 7.5,104.5 C 8.85027,105.483 9.85027,106.816 10.5,108.5C 11.1667,108.167 11.8333,107.833 12.5,107.5C 13.0722,109.917 14.0722,112.084 15.5,114C 14.3279,114.419 13.3279,115.085 12.5,116C 12.7284,116.399 13.0618,116.565 13.5,116.5C 12.2112,117.637 11.2112,118.97 10.5,120.5C 9.59603,119.791 9.26269,118.791 9.5,117.5C 10.1239,117.083 10.4573,116.416 10.5,115.5C 9.28972,111.872 8.28972,108.206 7.5,104.5 Z"/></g>
<g><path style="opacity:1" fill="#d2d2d2" d="M 27.5,110.5 C 26.391,110.557 25.391,110.89 24.5,111.5C 22.4348,111.953 20.7682,112.953 19.5,114.5C 19.1667,114.5 18.8333,114.5 18.5,114.5C 16.6214,114.607 16.2881,114.107 17.5,113C 15.4082,108.899 13.4082,104.732 11.5,100.5C 11.8417,99.6618 12.5084,99.3284 13.5,99.5C 13.8333,99.5 14.1667,99.5 14.5,99.5C 17.7989,98.6239 21.1322,98.4572 24.5,99C 23.4216,99.6739 22.7549,100.674 22.5,102C 24.3846,104.724 26.0513,107.557 27.5,110.5 Z"/></g>
<g><path style="opacity:0.604" fill="#818181" d="M 125.5,102.5 C 126.338,102.842 126.672,103.508 126.5,104.5C 125.833,108.833 125.167,113.167 124.5,117.5C 124.5,112.833 124.5,108.167 124.5,103.5C 125.167,103.5 125.5,103.167 125.5,102.5 Z"/></g>
<g><path style="opacity:1" fill="#464646" d="M 4.5,101.5 C 5.22158,101.918 5.72158,102.584 6,103.5C 6.38258,102.944 6.88258,102.611 7.5,102.5C 7.5,103.167 7.5,103.833 7.5,104.5C 8.28972,108.206 9.28972,111.872 10.5,115.5C 10.4573,116.416 10.1239,117.083 9.5,117.5C 7.46302,112.383 5.79636,107.05 4.5,101.5 Z"/></g>
<g><path style="opacity:1" fill="#a0a0a0" d="M 11.5,100.5 C 13.4082,104.732 15.4082,108.899 17.5,113C 16.2881,114.107 16.6214,114.607 18.5,114.5C 17.0697,115.537 15.403,116.204 13.5,116.5C 13.0618,116.565 12.7284,116.399 12.5,116C 13.3279,115.085 14.3279,114.419 15.5,114C 14.0722,112.084 13.0722,109.917 12.5,107.5C 11.8333,107.833 11.1667,108.167 10.5,108.5C 9.85027,106.816 8.85027,105.483 7.5,104.5C 7.5,103.833 7.5,103.167 7.5,102.5C 8.60486,101.4 9.93819,100.733 11.5,100.5 Z"/></g>
<g><path style="opacity:1" fill="#6f6f6f" d="M 24.5,111.5 C 24.5,112.167 24.5,112.833 24.5,113.5C 23.1667,113.833 21.8333,114.167 20.5,114.5C 20.1667,114.5 19.8333,114.5 19.5,114.5C 20.7682,112.953 22.4348,111.953 24.5,111.5 Z"/></g>
<g><path style="opacity:0.282" fill="#727272" d="M 126.5,105.5 C 127.29,106.609 127.79,107.942 128,109.5C 128.499,114.155 128.666,118.821 128.5,123.5C 127.511,117.678 126.844,111.678 126.5,105.5 Z"/></g>
<g><path style="opacity:1" fill="#e0e0e0" d="M 24.5,113.5 C 26.6316,118.546 28.9649,123.546 31.5,128.5C 31.33,129.822 31.6634,130.989 32.5,132C 31.552,132.483 30.552,132.649 29.5,132.5C 29.0986,131.009 28.932,129.342 29,127.5C 25.7974,126.431 24.7974,124.431 26,121.5C 24.9887,120.663 23.8221,120.33 22.5,120.5C 22.3964,118.297 21.7298,116.297 20.5,114.5C 21.8333,114.167 23.1667,113.833 24.5,113.5 Z"/></g>
<g><path style="opacity:1" fill="#272727" d="M 27.5,110.5 C 27.8333,110.5 28.1667,110.5 28.5,110.5C 28.8333,114.5 29.1667,118.5 29.5,122.5C 31.8706,123.342 34.2039,123.676 36.5,123.5C 35.9747,124.192 35.3081,124.692 34.5,125C 35.4162,125.374 36.2496,125.874 37,126.5C 37.1001,129.437 37.9334,132.104 39.5,134.5C 38.8333,135.167 38.1667,135.833 37.5,136.5C 38.8532,137.524 39.5198,138.857 39.5,140.5C 38.7777,139.449 37.7777,138.782 36.5,138.5C 35.6457,134.678 33.979,131.344 31.5,128.5C 28.9649,123.546 26.6316,118.546 24.5,113.5C 24.5,112.833 24.5,112.167 24.5,111.5C 25.391,110.89 26.391,110.557 27.5,110.5 Z"/></g>
<g><path style="opacity:1" fill="#acacac" d="M 31.5,128.5 C 33.979,131.344 35.6457,134.678 36.5,138.5C 35.8501,138.804 35.1835,139.137 34.5,139.5C 33.646,138.478 32.646,137.645 31.5,137C 32.9733,136.29 33.6399,135.124 33.5,133.5C 31.901,133.768 30.5676,133.434 29.5,132.5C 30.552,132.649 31.552,132.483 32.5,132C 31.6634,130.989 31.33,129.822 31.5,128.5 Z"/></g>
<g><path style="opacity:0.557" fill="#696969" d="M 14.5,129.5 C 17.4867,129.422 18.1534,130.589 16.5,133C 17.7073,134.3 18.3739,135.8 18.5,137.5C 16.13,135.427 14.7966,132.76 14.5,129.5 Z"/></g>
<g><path style="opacity:0.075" fill="#9a9a9a" d="M 18.5,137.5 C 19.3446,138.671 20.0113,140.005 20.5,141.5C 18.8235,140.817 18.1568,139.483 18.5,137.5 Z"/></g>
<g><path style="opacity:1" fill="#9e9e9e" d="M 36.5,138.5 C 37.7777,138.782 38.7777,139.449 39.5,140.5C 39.5,142.167 39.5,143.833 39.5,145.5C 38.2223,145.218 37.2223,144.551 36.5,143.5C 37.562,141.766 37.562,140.099 36.5,138.5 Z"/></g>
<g><path style="opacity:0.155" fill="#939393" d="M 22.5,144.5 C 23.4013,145.29 24.0679,146.29 24.5,147.5C 22.9519,147.179 22.2852,146.179 22.5,144.5 Z"/></g>
<g><path style="opacity:1" fill="#232323" d="M 18.5,114.5 C 18.8333,114.5 19.1667,114.5 19.5,114.5C 19.8333,114.5 20.1667,114.5 20.5,114.5C 21.7298,116.297 22.3964,118.297 22.5,120.5C 23.8221,120.33 24.9887,120.663 26,121.5C 24.7974,124.431 25.7974,126.431 29,127.5C 28.932,129.342 29.0986,131.009 29.5,132.5C 30.5676,133.434 31.901,133.768 33.5,133.5C 33.6399,135.124 32.9733,136.29 31.5,137C 32.646,137.645 33.646,138.478 34.5,139.5C 35.1835,139.137 35.8501,138.804 36.5,138.5C 37.562,140.099 37.562,141.766 36.5,143.5C 35.325,143.719 34.325,143.386 33.5,142.5C 33.0234,141.069 32.3567,139.736 31.5,138.5C 30.3044,138.846 30.3044,139.346 31.5,140C 30.9056,140.464 30.2389,140.631 29.5,140.5C 29.7022,138.011 29.2022,135.677 28,133.5C 27.1072,134.711 26.2739,134.711 25.5,133.5C 24.8108,131.556 24.3108,129.556 24,127.5C 23.1072,128.711 22.2739,128.711 21.5,127.5C 22.0253,126.808 22.6919,126.308 23.5,126C 20.9765,123.142 18.8098,119.975 17,116.5C 15.9264,117.618 14.7598,118.618 13.5,119.5C 14.1667,120.167 14.8333,120.833 15.5,121.5C 14.0791,124.428 15.0791,125.762 18.5,125.5C 18.2148,127.288 18.5481,128.955 19.5,130.5C 20.451,129.674 21.451,129.508 22.5,130C 22.2208,132.246 21.8874,134.746 21.5,137.5C 22.8333,137.5 24.1667,137.5 25.5,137.5C 24.8872,140.969 26.2206,142.969 29.5,143.5C 29.4226,144.75 28.756,145.583 27.5,146C 28.7702,146.9 29.7702,148.066 30.5,149.5C 31.1667,149.167 31.8333,148.833 32.5,148.5C 32.7128,153.045 35.0462,155.712 39.5,156.5C 38.2485,158.001 37.2485,159.668 36.5,161.5C 37.2427,162.182 37.9094,162.849 38.5,163.5C 37.5,163.5 36.5,163.5 35.5,163.5C 35.439,160.27 33.7723,158.437 30.5,158C 30.8333,157.667 31.1667,157.333 31.5,157C 28.1797,154.52 25.8463,151.353 24.5,147.5C 24.0679,146.29 23.4013,145.29 22.5,144.5C 21.8333,143.5 21.1667,142.5 20.5,141.5C 20.0113,140.005 19.3446,138.671 18.5,137.5C 18.3739,135.8 17.7073,134.3 16.5,133C 18.1534,130.589 17.4867,129.422 14.5,129.5C 11.683,129.199 11.0163,127.866 12.5,125.5C 11.5435,123.925 10.8769,122.258 10.5,120.5C 11.2112,118.97 12.2112,117.637 13.5,116.5C 15.403,116.204 17.0697,115.537 18.5,114.5 Z"/></g>
<g><path style="opacity:1" fill="#0c0c0c" d="M 29.5,140.5 C 29.9175,141.222 30.5842,141.722 31.5,142C 30.5842,142.278 29.9175,142.778 29.5,143.5C 26.2206,142.969 24.8872,140.969 25.5,137.5C 24.1667,137.5 22.8333,137.5 21.5,137.5C 21.8874,134.746 22.2208,132.246 22.5,130C 21.451,129.508 20.451,129.674 19.5,130.5C 18.5481,128.955 18.2148,127.288 18.5,125.5C 15.0791,125.762 14.0791,124.428 15.5,121.5C 14.8333,120.833 14.1667,120.167 13.5,119.5C 14.7598,118.618 15.9264,117.618 17,116.5C 18.8098,119.975 20.9765,123.142 23.5,126C 22.6919,126.308 22.0253,126.808 21.5,127.5C 22.2739,128.711 23.1072,128.711 24,127.5C 24.3108,129.556 24.8108,131.556 25.5,133.5C 26.2739,134.711 27.1072,134.711 28,133.5C 29.2022,135.677 29.7022,138.011 29.5,140.5 Z"/></g>
<g><path style="opacity:0.953" fill="#7c7c7c" d="M 145.5,153.5 C 145.065,156.157 144.065,158.491 142.5,160.5C 142.315,158.804 141.481,157.471 140,156.5C 139.244,154.191 139.744,152.191 141.5,150.5C 142.642,151.826 143.976,152.826 145.5,153.5 Z"/></g>
<g><path style="opacity:1" fill="#303030" d="M 49.5,149.5 C 52.1315,150.867 51.7982,151.701 48.5,152C 50.6592,153.059 52.3259,154.559 53.5,156.5C 55.9324,158.058 57.2657,160.391 57.5,163.5C 57.2668,164.932 56.6001,165.432 55.5,165C 52.7296,162.939 50.3963,160.439 48.5,157.5C 46.3179,157.407 44.3179,156.241 42.5,154C 46.19,153.576 46.3567,152.742 43,151.5C 42.6667,151.833 42.3333,152.167 42,152.5C 40.8638,150.257 40.0305,147.924 39.5,145.5C 39.5,143.833 39.5,142.167 39.5,140.5C 42.748,139.424 43.0813,140.09 40.5,142.5C 42.5,143.5 44.5,144.5 46.5,145.5C 45.9747,146.192 45.3081,146.692 44.5,147C 46.249,147.785 47.9157,148.618 49.5,149.5 Z"/></g>
<g><path style="opacity:1" fill="#aaaaaa" d="M 109.5,163.5 C 109.5,164.167 109.5,164.833 109.5,165.5C 108.908,168.083 108.242,168.083 107.5,165.5C 107.747,164.287 108.414,163.62 109.5,163.5 Z"/></g>
<g><path style="opacity:0.892" fill="#686768" d="M 139.5,167.5 C 138.649,169.882 137.316,171.882 135.5,173.5C 135.337,171.143 135.503,168.81 136,166.5C 136.414,166.043 136.914,165.709 137.5,165.5C 138.182,166.243 138.849,166.909 139.5,167.5 Z"/></g>
<g><path style="opacity:0.365" fill="#757575" d="M 44.5,170.5 C 46.1336,171.581 47.467,172.915 48.5,174.5C 47.2921,173.766 45.9587,173.433 44.5,173.5C 44.5,172.5 44.5,171.5 44.5,170.5 Z"/></g>
<g><path style="opacity:1" fill="#181818" d="M 36.5,143.5 C 37.2223,144.551 38.2223,145.218 39.5,145.5C 40.0305,147.924 40.8638,150.257 42,152.5C 42.3333,152.167 42.6667,151.833 43,151.5C 46.3567,152.742 46.19,153.576 42.5,154C 44.3179,156.241 46.3179,157.407 48.5,157.5C 50.3963,160.439 52.7296,162.939 55.5,165C 56.6001,165.432 57.2668,164.932 57.5,163.5C 57.2657,160.391 55.9324,158.058 53.5,156.5C 53.3691,155.624 53.7025,154.957 54.5,154.5C 55.9987,156.802 57.332,156.469 58.5,153.5C 59.5,155.167 60.8333,156.5 62.5,157.5C 62.8333,157 63.1667,156.5 63.5,156C 61.0606,151.974 57.7272,149.808 53.5,149.5C 54.0253,148.808 54.6919,148.308 55.5,148C 54.6886,145.895 53.6886,143.895 52.5,142C 54.2012,140.415 55.5346,140.915 56.5,143.5C 55.1667,143.833 55.1667,144.167 56.5,144.5C 63.3766,152.914 71.3766,159.914 80.5,165.5C 77.4824,165.494 74.8157,164.494 72.5,162.5C 71.914,162.709 71.414,163.043 71,163.5C 68.6697,160.818 68.1697,161.151 69.5,164.5C 72.0409,165.937 74.7076,167.103 77.5,168C 76.3147,169.353 74.9814,170.52 73.5,171.5C 74.0983,172.795 74.5983,174.128 75,175.5C 77.0458,174.089 78.8792,172.423 80.5,170.5C 81.5836,171.665 82.4169,172.998 83,174.5C 83.414,174.043 83.914,173.709 84.5,173.5C 85.3449,175.762 86.6783,176.429 88.5,175.5C 89.2989,178.589 90.7989,181.256 93,183.5C 93.5354,181.729 94.3687,181.396 95.5,182.5C 94.0298,184.972 92.0298,186.805 89.5,188C 90.3567,188.689 91.0233,189.522 91.5,190.5C 89.6745,191.571 88.5079,190.904 88,188.5C 86.9152,189.736 86.0819,191.069 85.5,192.5C 84.5,192.5 83.5,192.5 82.5,192.5C 80.5853,192.784 78.9187,192.451 77.5,191.5C 76.3285,190.655 74.9952,189.989 73.5,189.5C 72.3121,188.316 71.1455,188.316 70,189.5C 65.5677,186.517 61.4011,183.85 57.5,181.5C 56.7095,180.599 55.7095,179.932 54.5,179.5C 51.895,178.528 49.895,176.861 48.5,174.5C 47.467,172.915 46.1336,171.581 44.5,170.5C 43.5416,170.047 42.7083,169.381 42,168.5C 41.6667,168.833 41.3333,169.167 41,169.5C 40.4275,167.359 39.5942,165.359 38.5,163.5C 37.9094,162.849 37.2427,162.182 36.5,161.5C 37.2485,159.668 38.2485,158.001 39.5,156.5C 35.0462,155.712 32.7128,153.045 32.5,148.5C 31.8333,148.833 31.1667,149.167 30.5,149.5C 29.7702,148.066 28.7702,146.9 27.5,146C 28.756,145.583 29.4226,144.75 29.5,143.5C 29.9175,142.778 30.5842,142.278 31.5,142C 30.5842,141.722 29.9175,141.222 29.5,140.5C 30.2389,140.631 30.9056,140.464 31.5,140C 30.3044,139.346 30.3044,138.846 31.5,138.5C 32.3567,139.736 33.0234,141.069 33.5,142.5C 34.325,143.386 35.325,143.719 36.5,143.5 Z"/></g>
<g><path style="opacity:1" fill="#717171" d="M 130.5,179.5 C 129.564,180.974 128.23,181.974 126.5,182.5C 126.22,179.728 126.887,177.228 128.5,175C 129.483,174.409 130.15,174.743 130.5,176C 129.485,177.373 129.485,178.54 130.5,179.5 Z"/></g>
<g><path style="opacity:1" fill="#898989" d="M 110.5,182.5 C 110.269,189.55 106.603,192.383 99.5,191C 99.1667,191.333 98.8333,191.667 98.5,192C 99.4158,192.278 100.082,192.778 100.5,193.5C 98.5853,193.216 96.9187,193.549 95.5,194.5C 92.8333,194.5 90.1667,194.5 87.5,194.5C 87.5,194.167 87.5,193.833 87.5,193.5C 98.6326,193.355 103.299,187.689 101.5,176.5C 104.247,176.187 106.914,176.52 109.5,177.5C 110.309,179.071 110.643,180.738 110.5,182.5 Z"/></g>
<g><path style="opacity:0.176" fill="#a5a5a5" d="M 54.5,179.5 C 55.7095,179.932 56.7095,180.599 57.5,181.5C 55.8212,181.715 54.8212,181.048 54.5,179.5 Z"/></g>
<g><path style="opacity:1" fill="#2d2d2d" d="M 110.5,182.5 C 111.754,184.357 111.754,186.357 110.5,188.5C 112.467,189.684 114.134,189.351 115.5,187.5C 116.239,187.369 116.906,187.536 117.5,188C 116.584,188.278 115.918,188.778 115.5,189.5C 110.808,191.579 105.808,192.912 100.5,193.5C 100.082,192.778 99.4158,192.278 98.5,192C 98.8333,191.667 99.1667,191.333 99.5,191C 106.603,192.383 110.269,189.55 110.5,182.5 Z"/></g>
<g><path style="opacity:1" fill="#7d7d7d" d="M 120.5,187.5 C 119.22,188.931 117.553,189.598 115.5,189.5C 115.918,188.778 116.584,188.278 117.5,188C 116.906,187.536 116.239,187.369 115.5,187.5C 115.108,182.859 117.108,180.526 121.5,180.5C 121.657,181.873 121.49,183.207 121,184.5C 118.51,185.947 118.343,186.947 120.5,187.5 Z"/></g>
<g><path style="opacity:0.129" fill="#919191" d="M 73.5,189.5 C 74.9952,189.989 76.3285,190.655 77.5,191.5C 75.5168,191.843 74.1834,191.176 73.5,189.5 Z"/></g>
<g><path style="opacity:0.447" fill="#8c8a89" d="M 82.5,192.5 C 83.5,192.5 84.5,192.5 85.5,192.5C 86.4916,192.328 87.1583,192.662 87.5,193.5C 86.8333,193.5 86.5,193.833 86.5,194.5C 85.8333,194.5 85.1667,194.5 84.5,194.5C 83.8333,193.833 83.1667,193.167 82.5,192.5 Z"/></g>
</svg>
