<?xml version="1.0" encoding="UTF-8"?>
<!DOCTYPE svg PUBLIC "-//W3C//DTD SVG 1.1//EN" "http://www.w3.org/Graphics/SVG/1.1/DTD/svg11.dtd">
<svg xmlns="http://www.w3.org/2000/svg" version="1.1" width="150px" height="165px" style="shape-rendering:geometricPrecision; text-rendering:geometricPrecision; image-rendering:optimizeQuality; fill-rule:evenodd; clip-rule:evenodd" xmlns:xlink="http://www.w3.org/1999/xlink">
<g><path style="opacity:0.804" fill="#004563" d="M 133.5,14.5 C 142.656,12.832 146.823,16.4987 146,25.5C 144.471,28.9338 141.804,30.6004 138,30.5C 132.771,30.3744 129.938,27.7077 129.5,22.5C 129.782,19.2691 131.115,16.6024 133.5,14.5 Z M 137.5,19.5 C 141.234,20.9737 141.4,22.6404 138,24.5C 134.927,23.2516 134.76,21.585 137.5,19.5 Z"/></g>
<g><path style="opacity:0.803" fill="#004563" d="M -0.5,73.5 C -0.5,69.5 -0.5,65.5 -0.5,61.5C 1.01027,60.1639 2.67694,58.9973 4.5,58C 2.17328,55.4767 0.506613,52.6433 -0.5,49.5C -0.5,47.5 -0.5,45.5 -0.5,43.5C 2.07661,33.2774 8.74327,28.2774 19.5,28.5C 21.3739,19.2206 27.0405,15.3873 36.5,17C 39.7256,18.198 42.5589,20.0314 45,22.5C 45.414,22.0426 45.914,21.7093 46.5,21.5C 53.4275,23.0928 57.0941,27.4262 57.5,34.5C 68.1667,34.5 78.8333,34.5 89.5,34.5C 93.4508,18.5244 103.117,13.6911 118.5,20C 122.62,23.7353 125.62,28.2353 127.5,33.5C 131.321,37.4678 135.987,39.9678 141.5,41C 144.011,43.1793 146.178,45.6793 148,48.5C 148.361,56.4064 148.027,64.0731 147,71.5C 144.825,76.5164 140.992,79.5164 135.5,80.5C 137.667,83.5 139.833,86.5 142,89.5C 142.667,104.833 142.667,120.167 142,135.5C 141.581,136.672 140.915,137.672 140,138.5C 141.247,145.831 138.747,151.331 132.5,155C 124.5,155.667 116.5,155.667 108.5,155C 101.937,151.517 99.2707,146.017 100.5,138.5C 82.1667,138.5 63.8333,138.5 45.5,138.5C 47.2415,145.852 44.9081,151.352 38.5,155C 30.5,155.667 22.5,155.667 14.5,155C 12.4127,154.208 10.5793,153.041 9,151.5C 7.11645,147.05 5.94978,142.383 5.5,137.5C 4.33375,121.177 4.16708,104.844 5,88.5C 7.16667,85.6667 9.33333,82.8333 11.5,80C 6.43465,79.6049 2.43465,77.4383 -0.5,73.5 Z M 30.5,22.5 C 32.9892,22.2978 35.3225,22.7978 37.5,24C 38.7808,26.4033 40.6142,28.2367 43,29.5C 49.3218,26.9976 51.8218,28.9976 50.5,35.5C 47.1948,38.0433 43.8614,38.0433 40.5,35.5C 38.6171,35.8757 37.1171,36.8757 36,38.5C 38.1951,41.4702 39.6951,44.9702 40.5,49C 38.4243,56.7348 33.7576,58.5682 26.5,54.5C 15.7628,60.899 8.76275,58.0657 5.5,46C 8.04109,36.7276 14.0411,33.0609 23.5,35C 25.1553,32.4926 25.9886,29.6592 26,26.5C 27.3968,24.9297 28.8968,23.5964 30.5,22.5 Z M 121.5,37.5 C 119.745,36.9278 118.078,36.0945 116.5,35C 109.5,34.6667 102.5,34.3333 95.5,34C 97.895,25.2972 103.562,21.9639 112.5,24C 117.62,27.0703 120.62,31.5703 121.5,37.5 Z M 121.5,37.5 C 125.137,39.6391 128.303,42.3058 131,45.5C 140.088,44.7673 143.921,49.1006 142.5,58.5C 137.456,58.8275 132.456,58.4941 127.5,57.5C 125.87,50.6473 123.87,43.9807 121.5,37.5 Z M 53.5,40.5 C 73.8361,40.3334 94.1694,40.5 114.5,41C 116.723,41.6517 117.89,43.1517 118,45.5C 119.94,54.4242 122.106,63.2575 124.5,72C 90.5016,72.5 56.5016,72.6667 22.5,72.5C 22.3484,68.0549 23.8484,64.3882 27,61.5C 38.2446,64.95 45.0779,60.7833 47.5,49C 46.7665,47.2341 46.4332,45.4008 46.5,43.5C 49.491,43.8337 51.8243,42.8337 53.5,40.5 Z M 5.5,64.5 C 9.5,64.5 13.5,64.5 17.5,64.5C 17.336,72.3677 13.5027,74.7011 6,71.5C 5.50335,69.1902 5.33669,66.8568 5.5,64.5 Z M 128.5,65.5 C 132.646,64.353 136.98,64.1864 141.5,65C 140.833,67.3333 140.167,69.6667 139.5,72C 136.518,72.498 133.518,72.6646 130.5,72.5C 130.279,69.9327 129.612,67.5994 128.5,65.5 Z M 19.5,79.5 C 55.5015,79.3333 91.5015,79.5 127.5,80C 129.167,82.3333 130.833,84.6667 132.5,87C 127.5,88 122.5,89 117.5,90C 113.321,96.0222 109.655,102.356 106.5,109C 106.759,110.261 107.426,111.261 108.5,112C 117.494,112.5 126.494,112.666 135.5,112.5C 135.5,114.5 135.5,116.5 135.5,118.5C 123.149,118.832 110.815,118.499 98.5,117.5C 96.9751,112.414 94.9751,107.58 92.5,103C 79.5,102.333 66.5,102.333 53.5,103C 51.3043,107.92 49.3043,112.92 47.5,118C 35.1712,118.5 22.8378,118.667 10.5,118.5C 10.5,116.5 10.5,114.5 10.5,112.5C 19.5062,112.666 28.5062,112.5 37.5,112C 38.5784,111.326 39.2451,110.326 39.5,109C 36.7048,102.411 33.3714,96.0773 29.5,90C 24.1447,89.0723 18.8114,88.0723 13.5,87C 15.6286,84.5608 17.6286,82.0608 19.5,79.5 Z M 10.5,93.5 C 15.3575,93.9842 20.1908,94.6509 25,95.5C 27.4048,98.6333 29.5714,101.967 31.5,105.5C 24.5316,106.497 17.5316,106.83 10.5,106.5C 10.5,102.167 10.5,97.8333 10.5,93.5 Z M 132.5,93.5 C 133.5,93.5 134.5,93.5 135.5,93.5C 135.5,97.8333 135.5,102.167 135.5,106.5C 128.492,106.666 121.492,106.5 114.5,106C 116.752,102.832 118.752,99.4991 120.5,96C 124.609,95.0557 128.609,94.2224 132.5,93.5 Z M 57.5,108.5 C 68.1667,108.5 78.8333,108.5 89.5,108.5C 89.5965,111.956 90.5965,115.123 92.5,118C 79.8202,118.833 67.1535,118.666 54.5,117.5C 55.7054,114.55 56.7054,111.55 57.5,108.5 Z M 10.5,124.5 C 15.5,124.5 20.5,124.5 25.5,124.5C 25.5,127.167 25.5,129.833 25.5,132.5C 20.5,132.5 15.5,132.5 10.5,132.5C 10.5,129.833 10.5,127.167 10.5,124.5 Z M 31.5,124.5 C 59.1667,124.5 86.8333,124.5 114.5,124.5C 114.5,127.167 114.5,129.833 114.5,132.5C 86.8333,132.5 59.1667,132.5 31.5,132.5C 31.5,129.833 31.5,127.167 31.5,124.5 Z M 120.5,125.5 C 125.305,124.513 130.305,124.179 135.5,124.5C 135.5,127.167 135.5,129.833 135.5,132.5C 130.489,132.666 125.489,132.499 120.5,132C 121.811,129.726 121.811,127.56 120.5,125.5 Z M 12.5,138.5 C 21.5,138.5 30.5,138.5 39.5,138.5C 40.404,148.413 35.904,152.08 26,149.5C 16.1485,152.137 11.6485,148.471 12.5,138.5 Z M 106.5,138.5 C 115.5,138.5 124.5,138.5 133.5,138.5C 134.493,148.163 130.16,151.83 120.5,149.5C 110.674,151.954 106.007,148.287 106.5,138.5 Z"/></g>
</svg>
