<?xml version="1.0" encoding="UTF-8"?>
<!DOCTYPE svg PUBLIC "-//W3C//DTD SVG 1.1//EN" "http://www.w3.org/Graphics/SVG/1.1/DTD/svg11.dtd">
<svg xmlns="http://www.w3.org/2000/svg" version="1.1" width="150px" height="162px" style="shape-rendering:geometricPrecision; text-rendering:geometricPrecision; image-rendering:optimizeQuality; fill-rule:evenodd; clip-rule:evenodd" xmlns:xlink="http://www.w3.org/1999/xlink">
<g><path style="opacity:0.995" fill="#666666" d="M 64.5,2.5 C 53.8281,2.3335 43.1615,2.50016 32.5,3C 31.9558,3.71719 31.2891,4.21719 30.5,4.5C 30.7565,2.22387 32.0898,1.0572 34.5,1C 44.7208,0.0850417 54.7208,0.585042 64.5,2.5 Z"/></g>
<g><path style="opacity:1" fill="#5e5e5e" d="M 86.5,0.5 C 86.5,0.166667 86.5,-0.166667 86.5,-0.5C 96.5,-0.5 106.5,-0.5 116.5,-0.5C 119.961,1.41529 121.628,4.41529 121.5,8.5C 120.207,7.15797 119.374,5.49131 119,3.5C 118.273,7.06424 116.773,7.39758 114.5,4.5C 112.565,4.7953 110.565,4.2953 108.5,3C 111.5,2.66667 114.5,2.33333 117.5,2C 107.178,1.209 96.8446,0.708995 86.5,0.5 Z"/></g>
<g><path style="opacity:1" fill="#1f1f1f" d="M 84.5,1.5 C 84.8417,0.661754 85.5084,0.32842 86.5,0.5C 96.8446,0.708995 107.178,1.209 117.5,2C 114.5,2.33333 111.5,2.66667 108.5,3C 110.565,4.2953 112.565,4.7953 114.5,4.5C 113.775,14.5962 113.441,24.9295 113.5,35.5C 113.389,36.1174 113.056,36.6174 112.5,37C 104.089,37.1966 95.7554,37.6966 87.5,38.5C 87.5,37.1667 87.5,35.8333 87.5,34.5C 89.9124,34.756 91.5791,33.756 92.5,31.5C 93.2978,33.0777 93.7978,34.7444 94,36.5C 94.1872,32.9614 95.3538,29.7948 97.5,27C 96.4845,24.7348 95.3179,22.9015 94,21.5C 93.1627,23.0074 91.9961,23.5074 90.5,23C 92.5588,17.8035 94.3921,17.6369 96,22.5C 97.4431,20.0718 98.2764,17.4051 98.5,14.5C 96.8671,13.1003 96.2004,10.9336 96.5,8C 94.9532,7.6666 93.6199,8.1666 92.5,9.5C 91.3776,7.95638 91.711,6.62305 93.5,5.5C 92.5,4.83333 91.5,4.16667 90.5,3.5C 90.7093,2.91395 91.0426,2.41395 91.5,2C 89.1902,1.50335 86.8568,1.33669 84.5,1.5 Z"/></g>
<g><path style="opacity:1" fill="#1c1c1c" d="M 64.5,2.5 C 66.9754,3.6874 67.9754,5.6874 67.5,8.5C 67.5,14.1667 67.5,19.8333 67.5,25.5C 66.6717,19.0126 66.1717,12.346 66,5.5C 65.6667,7.83333 65.3333,10.1667 65,12.5C 64.9071,9.99253 64.0738,7.82586 62.5,6C 58.1794,5.50098 53.8461,5.33432 49.5,5.5C 49.9789,9.43441 49.3122,13.1011 47.5,16.5C 48.325,17.3857 49.325,17.719 50.5,17.5C 51.1383,19.46 51.1383,21.2933 50.5,23C 51,23.5 51.5,24 52,24.5C 53.2759,21.6337 53.4426,18.8003 52.5,16C 53.2266,14.6012 53.7266,13.1012 54,11.5C 54.3333,11.8333 54.6667,12.1667 55,12.5C 55.6504,16.9701 55.9837,21.3034 56,25.5C 57,21.5 58,17.5 59,13.5C 60.3443,16.4978 60.511,19.4978 59.5,22.5C 59.8457,23.6956 60.3457,23.6956 61,22.5C 62.6266,24.9727 63.1266,27.4727 62.5,30C 64.3686,31.8263 64.3686,33.9929 62.5,36.5C 63.09,37.7989 64.09,38.6322 65.5,39C 64.9056,39.4643 64.2389,39.631 63.5,39.5C 62.609,38.8902 61.609,38.5569 60.5,38.5C 53.1591,38.6663 45.8258,38.4997 38.5,38C 37.3279,37.5814 36.3279,36.9147 35.5,36C 30.1771,35.5006 24.8437,35.334 19.5,35.5C 19.7678,33.901 19.4345,32.5676 18.5,31.5C 22.3185,28.3922 25.3185,24.5589 27.5,20C 27.0556,18.2382 26.5556,18.4049 26,20.5C 25.5357,19.9056 25.369,19.2389 25.5,18.5C 25.5,18.1667 25.5,17.8333 25.5,17.5C 27.2849,17.0744 28.2849,15.9078 28.5,14C 29.4831,10.8882 30.1497,7.72155 30.5,4.5C 31.2891,4.21719 31.9558,3.71719 32.5,3C 43.1615,2.50016 53.8281,2.3335 64.5,2.5 Z"/></g>
<g><path style="opacity:1" fill="#5c5c5c" d="M 30.5,4.5 C 30.1497,7.72155 29.4831,10.8882 28.5,14C 28.2849,15.9078 27.2849,17.0744 25.5,17.5C 26.9918,13.0129 28.6585,8.67953 30.5,4.5 Z"/></g>
<g><path style="opacity:1" fill="#2b2b2b" d="M 84.5,1.5 C 86.8568,1.33669 89.1902,1.50335 91.5,2C 91.0426,2.41395 90.7093,2.91395 90.5,3.5C 91.5,4.16667 92.5,4.83333 93.5,5.5C 91.711,6.62305 91.3776,7.95638 92.5,9.5C 93.6199,8.1666 94.9532,7.6666 96.5,8C 96.2004,10.9336 96.8671,13.1003 98.5,14.5C 98.2764,17.4051 97.4431,20.0718 96,22.5C 94.3921,17.6369 92.5588,17.8035 90.5,23C 91.9961,23.5074 93.1627,23.0074 94,21.5C 95.3179,22.9015 96.4845,24.7348 97.5,27C 95.3538,29.7948 94.1872,32.9614 94,36.5C 93.7978,34.7444 93.2978,33.0777 92.5,31.5C 91.5791,33.756 89.9124,34.756 87.5,34.5C 87.8713,30.6328 87.3713,26.6328 86,22.5C 85.0939,30.4579 83.0939,38.1246 80,45.5C 79.586,45.0426 79.086,44.7093 78.5,44.5C 77.5004,63.4883 77.1671,82.4883 77.5,101.5C 76.8826,101.389 76.3826,101.056 76,100.5C 76.1736,81.5129 76.5069,62.5129 77,43.5C 77.5133,42.4734 78.0133,41.4734 78.5,40.5C 80.2798,39.0101 80.9465,37.0101 80.5,34.5C 81.2258,24.8586 81.7258,15.192 82,5.5C 82.6082,3.93356 83.4415,2.60023 84.5,1.5 Z"/></g>
<g><path style="opacity:0.882" fill="#707070" d="M 22.5,22.5 C 21.8333,25.1667 20.1667,26.8333 17.5,27.5C 18.8333,25.5 20.5,23.8333 22.5,22.5 Z"/></g>
<g><path style="opacity:1" fill="#2f2f2f" d="M 25.5,18.5 C 25.369,19.2389 25.5357,19.9056 26,20.5C 26.5556,18.4049 27.0556,18.2382 27.5,20C 25.3185,24.5589 22.3185,28.3922 18.5,31.5C 14.0321,34.8175 9.19873,37.4842 4,39.5C 3.72158,38.5842 3.22158,37.9175 2.5,37.5C 2.36912,36.6236 2.70245,35.9569 3.5,35.5C 8.51985,33.3272 13.1865,30.6606 17.5,27.5C 20.1667,26.8333 21.8333,25.1667 22.5,22.5C 23.0256,20.7697 24.0256,19.4363 25.5,18.5 Z"/></g>
<g><path style="opacity:1" fill="#1c1c1c" d="M 121.5,8.5 C 122.234,9.70792 122.567,11.0413 122.5,12.5C 121.086,14.1385 121.42,15.4718 123.5,16.5C 122.833,16.8333 122.167,17.1667 121.5,17.5C 124.794,23.4566 129.127,28.4566 134.5,32.5C 128.399,34.1489 122.065,35.1489 115.5,35.5C 114.833,35.5 114.167,35.5 113.5,35.5C 113.441,24.9295 113.775,14.5962 114.5,4.5C 116.773,7.39758 118.273,7.06424 119,3.5C 119.374,5.49131 120.207,7.15797 121.5,8.5 Z"/></g>
<g><path style="opacity:1" fill="#383838" d="M 122.5,12.5 C 125.977,20.981 131.644,27.6477 139.5,32.5C 137.766,33.562 136.099,33.562 134.5,32.5C 129.127,28.4566 124.794,23.4566 121.5,17.5C 122.167,17.1667 122.833,16.8333 123.5,16.5C 121.42,15.4718 121.086,14.1385 122.5,12.5 Z"/></g>
<g><path style="opacity:1" fill="#1f1f1f" d="M 67.5,25.5 C 67.6604,28.8835 67.327,32.2169 66.5,35.5C 66.8988,37.1966 67.3988,38.8632 68,40.5C 68.3333,39.5 68.6667,38.5 69,37.5C 69.2004,39.3197 70.0337,40.653 71.5,41.5C 72.1481,43.0858 72.6481,44.7525 73,46.5C 73.8287,64.6714 73.662,82.6714 72.5,100.5C 72.906,81.4632 72.406,62.4632 71,43.5C 70.3333,47.5 69.6667,47.5 69,43.5C 68.8333,44.1667 68.6667,44.8333 68.5,45.5C 68.6276,49.0178 68.7942,52.6844 69,56.5C 69.9147,55.6721 70.5814,54.6721 71,53.5C 71.1667,54 71.3333,54.5 71.5,55C 69.9537,56.473 68.9537,58.3064 68.5,60.5C 69.0929,67.4623 69.0929,74.2956 68.5,81C 67.6867,82.8847 66.3533,83.5513 64.5,83C 66.5037,80.1592 67.0037,76.9926 66,73.5C 65.0428,79.3832 63.8762,79.7165 62.5,74.5C 63.3235,72.5454 63.4901,70.5454 63,68.5C 62.3292,67.7476 61.4959,67.4142 60.5,67.5C 60.9175,66.7784 61.5842,66.2784 62.5,66C 59.8333,65 59.8333,64 62.5,63C 61.2532,61.5421 61.2532,60.0421 62.5,58.5C 59.8333,56.8333 59.8333,55.1667 62.5,53.5C 61.9875,49.9152 61.6541,46.2486 61.5,42.5C 62.6119,41.7348 63.2786,40.7348 63.5,39.5C 64.2389,39.631 64.9056,39.4643 65.5,39C 64.09,38.6322 63.09,37.7989 62.5,36.5C 64.3686,33.9929 64.3686,31.8263 62.5,30C 63.1266,27.4727 62.6266,24.9727 61,22.5C 60.3457,23.6956 59.8457,23.6956 59.5,22.5C 60.511,19.4978 60.3443,16.4978 59,13.5C 58,17.5 57,21.5 56,25.5C 55.9837,21.3034 55.6504,16.9701 55,12.5C 54.6667,12.1667 54.3333,11.8333 54,11.5C 53.7266,13.1012 53.2266,14.6012 52.5,16C 53.4426,18.8003 53.2759,21.6337 52,24.5C 51.5,24 51,23.5 50.5,23C 51.1383,21.2933 51.1383,19.46 50.5,17.5C 49.325,17.719 48.325,17.3857 47.5,16.5C 49.3122,13.1011 49.9789,9.43441 49.5,5.5C 53.8461,5.33432 58.1794,5.50098 62.5,6C 64.0738,7.82586 64.9071,9.99253 65,12.5C 65.3333,10.1667 65.6667,7.83333 66,5.5C 66.1717,12.346 66.6717,19.0126 67.5,25.5 Z"/></g>
<g><path style="opacity:1" fill="#151515" d="M 18.5,31.5 C 19.4345,32.5676 19.7678,33.901 19.5,35.5C 18.1779,35.33 17.0113,35.6634 16,36.5C 15.7638,38.764 15.2638,40.9307 14.5,43C 15.187,48.802 15.8537,54.6354 16.5,60.5C 15.8728,61.4168 15.5394,62.4168 15.5,63.5C 14.8614,64.0968 14.528,64.9302 14.5,66C 15,68.5 15.5,71 16,73.5C 16.6891,72.6433 17.5224,71.9767 18.5,71.5C 19.2436,72.9905 19.9103,74.4905 20.5,76C 19.0656,78.9486 19.2323,81.7819 21,84.5C 21.1177,81.6287 21.7844,78.962 23,76.5C 22.4961,78.862 22.6628,81.1953 23.5,83.5C 24.1689,86.0278 25.0022,86.0278 26,83.5C 26.4828,84.448 26.6495,85.448 26.5,86.5C 29.1142,86.7229 30.7809,85.5562 31.5,83C 30.1667,80.3333 30.1667,77.6667 31.5,75C 30.6433,74.3109 29.9767,73.4776 29.5,72.5C 29.4301,69.9962 29.7635,67.6629 30.5,65.5C 31.2885,68.8994 32.2885,72.2328 33.5,75.5C 32.6319,78.468 32.2986,81.3013 32.5,84C 33.7113,85.5778 35.0446,85.7445 36.5,84.5C 34.2017,82.5147 34.3684,80.5147 37,78.5C 37.3242,80.5689 38.1575,80.9023 39.5,79.5C 40.7388,81.0072 40.4054,82.1739 38.5,83C 40.4202,88.1973 41.0868,93.6973 40.5,99.5C 36.774,99.8226 33.1073,99.4892 29.5,98.5C 30.9809,94.6948 30.8143,91.0281 29,87.5C 27.3141,90.022 25.9808,89.6887 25,86.5C 24.6905,87.7659 24.1905,88.9326 23.5,90C 24.7932,90.49 26.1266,90.6567 27.5,90.5C 27.2912,96.2611 26.4578,96.5945 25,91.5C 24.0589,93.9894 24.5589,95.9894 26.5,97.5C 25.791,98.404 24.791,98.7373 23.5,98.5C 23.5354,92.0396 22.7021,92.0396 21,98.5C 19.257,96.773 17.4236,96.1064 15.5,96.5C 14.7879,88.6534 14.1213,80.82 13.5,73C 14.684,71.4523 14.5173,69.9523 13,68.5C 12.7652,72.32 11.9318,75.9867 10.5,79.5C 8.97364,76.87 8.47364,74.2033 9,71.5C 7.92644,70.3816 6.75978,69.3816 5.5,68.5C 6.60851,66.7859 5.94185,66.1192 3.5,66.5C 3.20011,74.9962 3.70011,83.3295 5,91.5C 4.33333,88.8333 3.66667,88.8333 3,91.5C 2.50006,74.1699 2.33339,56.8365 2.5,39.5C 2.5,38.8333 2.5,38.1667 2.5,37.5C 3.22158,37.9175 3.72158,38.5842 4,39.5C 9.19873,37.4842 14.0321,34.8175 18.5,31.5 Z"/></g>
<g><path style="opacity:1" fill="#575757" d="M 67.5,8.5 C 68.3292,16.3228 68.8292,24.3228 69,32.5C 69.7388,35.5465 70.5721,38.5465 71.5,41.5C 70.0337,40.653 69.2004,39.3197 69,37.5C 68.6667,38.5 68.3333,39.5 68,40.5C 67.3988,38.8632 66.8988,37.1966 66.5,35.5C 67.327,32.2169 67.6604,28.8835 67.5,25.5C 67.5,19.8333 67.5,14.1667 67.5,8.5 Z"/></g>
<g><path style="opacity:1" fill="#686868" d="M 80.5,34.5 C 80.9465,37.0101 80.2798,39.0101 78.5,40.5C 78.595,38.2143 79.2616,36.2143 80.5,34.5 Z"/></g>
<g><path style="opacity:1" fill="#353535" d="M 19.5,35.5 C 24.8437,35.334 30.1771,35.5006 35.5,36C 36.3279,36.9147 37.3279,37.5814 38.5,38C 45.8258,38.4997 53.1591,38.6663 60.5,38.5C 60.3068,40.0863 59.9734,41.753 59.5,43.5C 57.5121,42.7112 57.1787,41.5445 58.5,40C 56.1667,39.3333 53.8333,39.3333 51.5,40C 52.7932,40.49 54.1266,40.6567 55.5,40.5C 55.5,41.5 55.5,42.5 55.5,43.5C 52.4816,43.3354 49.4816,43.502 46.5,44C 49.5589,44.6446 52.5589,45.478 55.5,46.5C 55.1667,47.5 54.5,48.1667 53.5,48.5C 46.9074,47.5821 40.4074,47.2488 34,47.5C 33.5,48 33,48.5 32.5,49C 40.1594,49.4997 47.8261,49.6664 55.5,49.5C 55.5,50.5 55.5,51.5 55.5,52.5C 52.1501,52.335 48.8168,52.5017 45.5,53C 46,53.5 46.5,54 47,54.5C 49.6849,54.1727 52.5182,54.1727 55.5,54.5C 55.5,55.5 55.5,56.5 55.5,57.5C 44.1618,57.3335 32.8284,57.5001 21.5,58C 20.3044,58.6543 20.3044,59.1543 21.5,59.5C 22.1667,59.1667 22.8333,58.8333 23.5,58.5C 27.8612,59.1518 32.1946,59.9851 36.5,61C 23.3147,61.4141 23.3147,62.4141 36.5,64C 37.7383,64.69 37.7383,65.19 36.5,65.5C 29.5,64.8333 22.5,64.1667 15.5,63.5C 15.5394,62.4168 15.8728,61.4168 16.5,60.5C 15.8537,54.6354 15.187,48.802 14.5,43C 15.2638,40.9307 15.7638,38.764 16,36.5C 17.0113,35.6634 18.1779,35.33 19.5,35.5 Z"/></g>
<g><path style="opacity:1" fill="#353535" d="M 113.5,35.5 C 114.167,35.5 114.833,35.5 115.5,35.5C 126.146,35.6707 126.146,36.1707 115.5,37C 118.167,37.3333 120.833,37.6667 123.5,38C 122.167,38.3333 120.833,38.6667 119.5,39C 124.262,39.3449 128.929,40.1782 133.5,41.5C 133.333,41.8333 133.167,42.1667 133,42.5C 130.453,40.6501 128.287,41.3168 126.5,44.5C 127.167,45.1667 127.833,45.8333 128.5,46.5C 123.833,47.1667 119.167,47.8333 114.5,48.5C 116.167,49.1667 117.833,49.8333 119.5,50.5C 115.324,52.0215 110.991,52.8548 106.5,53C 112.859,53.8306 119.193,53.6639 125.5,52.5C 124.167,51.8333 122.833,51.1667 121.5,50.5C 125.445,49.5091 129.445,49.1758 133.5,49.5C 133.5,51.8333 133.5,54.1667 133.5,56.5C 132.015,57.9349 130.682,57.7683 129.5,56C 129.057,54.4815 129.724,53.3148 131.5,52.5C 129.813,51.432 128.146,51.5986 126.5,53C 128.394,54.0793 128.727,55.4126 127.5,57C 114.677,57.3873 102.01,57.554 89.5,57.5C 89.7373,56.209 89.404,55.209 88.5,54.5C 88.7947,52.2646 88.4614,50.2646 87.5,48.5C 87.5,45.1667 87.5,41.8333 87.5,38.5C 95.7554,37.6966 104.089,37.1966 112.5,37C 113.056,36.6174 113.389,36.1174 113.5,35.5 Z"/></g>
<g><path style="opacity:1" fill="#2c2c2c" d="M 134.5,32.5 C 136.099,33.562 137.766,33.562 139.5,32.5C 142.262,33.3795 144.929,34.5462 147.5,36C 148.252,36.6708 148.586,37.5041 148.5,38.5C 147.542,38.0472 146.708,37.3805 146,36.5C 144.542,37.7468 143.042,37.7468 141.5,36.5C 140.913,37.2334 140.913,38.2334 141.5,39.5C 140.305,39.8656 139.639,40.699 139.5,42C 140.71,46.403 140.21,46.5697 138,42.5C 137.593,46.3305 136.26,46.9972 134,44.5C 133.46,46.1346 133.96,47.4679 135.5,48.5C 135.043,49.2975 134.376,49.6309 133.5,49.5C 129.445,49.1758 125.445,49.5091 121.5,50.5C 122.833,51.1667 124.167,51.8333 125.5,52.5C 119.193,53.6639 112.859,53.8306 106.5,53C 110.991,52.8548 115.324,52.0215 119.5,50.5C 117.833,49.8333 116.167,49.1667 114.5,48.5C 119.167,47.8333 123.833,47.1667 128.5,46.5C 127.833,45.8333 127.167,45.1667 126.5,44.5C 128.287,41.3168 130.453,40.6501 133,42.5C 133.167,42.1667 133.333,41.8333 133.5,41.5C 128.929,40.1782 124.262,39.3449 119.5,39C 120.833,38.6667 122.167,38.3333 123.5,38C 120.833,37.6667 118.167,37.3333 115.5,37C 126.146,36.1707 126.146,35.6707 115.5,35.5C 122.065,35.1489 128.399,34.1489 134.5,32.5 Z"/></g>
<g><path style="opacity:1" fill="#0e0e0e" d="M 87.5,34.5 C 87.5,35.8333 87.5,37.1667 87.5,38.5C 87.5,41.8333 87.5,45.1667 87.5,48.5C 87.8515,51.0728 87.3515,53.4062 86,55.5C 85.2419,53.2305 85.4086,51.0639 86.5,49C 85.9747,48.3076 85.3081,47.8076 84.5,47.5C 83.8953,50.3043 83.062,52.971 82,55.5C 81.18,66.7431 81.3467,77.9098 82.5,89C 81.8095,90.0674 81.3095,91.2341 81,92.5C 79.6822,77.3189 79.0156,61.9856 79,46.5C 78.3333,63.8333 78.3333,81.1667 79,98.5C 79.3333,96.8333 79.6667,95.1667 80,93.5C 80.1968,95.8609 81.3635,97.5276 83.5,98.5C 84.0796,95.0245 84.9129,91.6912 86,88.5C 85.6096,91.7313 85.7762,95.0646 86.5,98.5C 88.4147,98.2155 90.0813,98.5489 91.5,99.5C 89.7078,100.309 87.7078,100.809 85.5,101C 85.9574,101.414 86.2907,101.914 86.5,102.5C 83.5023,103.643 80.5023,103.643 77.5,102.5C 77.5,102.167 77.5,101.833 77.5,101.5C 77.1671,82.4883 77.5004,63.4883 78.5,44.5C 79.086,44.7093 79.586,45.0426 80,45.5C 83.0939,38.1246 85.0939,30.4579 86,22.5C 87.3713,26.6328 87.8713,30.6328 87.5,34.5 Z"/></g>
<g><path style="opacity:1" fill="#2d2d2d" d="M 60.5,38.5 C 61.609,38.5569 62.609,38.8902 63.5,39.5C 63.2786,40.7348 62.6119,41.7348 61.5,42.5C 61.6541,46.2486 61.9875,49.9152 62.5,53.5C 59.8333,55.1667 59.8333,56.8333 62.5,58.5C 61.2532,60.0421 61.2532,61.5421 62.5,63C 59.8333,64 59.8333,65 62.5,66C 61.5842,66.2784 60.9175,66.7784 60.5,67.5C 53.5,67.5 46.5,67.5 39.5,67.5C 37.9731,67.573 36.9731,66.9063 36.5,65.5C 37.7383,65.19 37.7383,64.69 36.5,64C 23.3147,62.4141 23.3147,61.4141 36.5,61C 32.1946,59.9851 27.8612,59.1518 23.5,58.5C 22.8333,58.8333 22.1667,59.1667 21.5,59.5C 20.3044,59.1543 20.3044,58.6543 21.5,58C 32.8284,57.5001 44.1618,57.3335 55.5,57.5C 55.5,56.5 55.5,55.5 55.5,54.5C 52.5182,54.1727 49.6849,54.1727 47,54.5C 46.5,54 46,53.5 45.5,53C 48.8168,52.5017 52.1501,52.335 55.5,52.5C 55.5,51.5 55.5,50.5 55.5,49.5C 47.8261,49.6664 40.1594,49.4997 32.5,49C 33,48.5 33.5,48 34,47.5C 40.4074,47.2488 46.9074,47.5821 53.5,48.5C 54.5,48.1667 55.1667,47.5 55.5,46.5C 52.5589,45.478 49.5589,44.6446 46.5,44C 49.4816,43.502 52.4816,43.3354 55.5,43.5C 55.5,42.5 55.5,41.5 55.5,40.5C 54.1266,40.6567 52.7932,40.49 51.5,40C 53.8333,39.3333 56.1667,39.3333 58.5,40C 57.1787,41.5445 57.5121,42.7112 59.5,43.5C 59.9734,41.753 60.3068,40.0863 60.5,38.5 Z"/></g>
<g><path style="opacity:1" fill="#0f0f0f" d="M 148.5,38.5 C 148.833,38.5 149.167,38.5 149.5,38.5C 149.5,59.8333 149.5,81.1667 149.5,102.5C 148.5,103.167 147.5,103.833 146.5,104.5C 137.161,104.666 127.827,104.5 118.5,104C 127.5,103.667 136.5,103.333 145.5,103C 146.833,102.333 146.833,101.667 145.5,101C 139.322,101.009 132.989,100.843 126.5,100.5C 126.517,98.4352 126.85,96.4352 127.5,94.5C 127.726,91.7508 127.393,89.0841 126.5,86.5C 127.077,84.4501 128.41,83.4501 130.5,83.5C 130.343,84.8734 130.51,86.2068 131,87.5C 131.779,84.6862 133.112,83.0195 135,82.5C 135.374,83.4162 135.874,84.2496 136.5,85C 134.842,85.7253 134.342,86.892 135,88.5C 136.667,89.5 138,90.8333 139,92.5C 140.78,90.6171 140.947,88.6171 139.5,86.5C 140.075,83.1353 140.742,79.8019 141.5,76.5C 141.145,75.4777 140.478,74.811 139.5,74.5C 140.066,65.2542 140.066,56.0876 139.5,47C 141.291,44.8938 141.958,42.3938 141.5,39.5C 140.913,38.2334 140.913,37.2334 141.5,36.5C 143.042,37.7468 144.542,37.7468 146,36.5C 146.708,37.3805 147.542,38.0472 148.5,38.5 Z"/></g>
<g><path style="opacity:1" fill="#303030" d="M 133.5,56.5 C 133.682,58.5914 133.348,60.5914 132.5,62.5C 133.262,62.9106 134.262,63.0773 135.5,63C 134.095,64.2692 132.429,64.7692 130.5,64.5C 125.156,64.334 119.823,64.5006 114.5,65C 113.347,66.883 111.681,67.7163 109.5,67.5C 102.492,67.6663 95.4921,67.4996 88.5,67C 88.9488,63.0067 88.9488,58.8401 88.5,54.5C 89.404,55.209 89.7373,56.209 89.5,57.5C 102.01,57.554 114.677,57.3873 127.5,57C 128.727,55.4126 128.394,54.0793 126.5,53C 128.146,51.5986 129.813,51.432 131.5,52.5C 129.724,53.3148 129.057,54.4815 129.5,56C 130.682,57.7683 132.015,57.9349 133.5,56.5 Z"/></g>
<g><path style="opacity:1" fill="#1b1b1b" d="M 15.5,63.5 C 22.5,64.1667 29.5,64.8333 36.5,65.5C 36.9731,66.9063 37.9731,67.573 39.5,67.5C 39.7058,69.5492 40.5391,69.8825 42,68.5C 42.1667,70 42.3333,71.5 42.5,73C 42.3952,80.4906 42.3952,87.9906 42.5,95.5C 44.0152,93.4527 44.8485,91.1193 45,88.5C 46.2886,91.3508 46.7886,94.3508 46.5,97.5C 46.44,98.0431 46.1067,98.3764 45.5,98.5C 43.936,95.8645 42.6026,96.0311 41.5,99C 50.1603,99.4998 58.8269,99.6664 67.5,99.5C 68.1408,100.482 68.8075,101.482 69.5,102.5C 47.6704,103.828 26.0037,103.828 4.5,102.5C 24.5111,102.833 44.5111,102.5 64.5,101.5C 49.4409,100.571 34.1075,100.237 18.5,100.5C 21.3583,99.834 24.3583,99.1674 27.5,98.5C 27.3764,97.8933 27.0431,97.56 26.5,97.5C 24.5589,95.9894 24.0589,93.9894 25,91.5C 26.4578,96.5945 27.2912,96.2611 27.5,90.5C 26.1266,90.6567 24.7932,90.49 23.5,90C 24.1905,88.9326 24.6905,87.7659 25,86.5C 25.9808,89.6887 27.3141,90.022 29,87.5C 30.8143,91.0281 30.9809,94.6948 29.5,98.5C 33.1073,99.4892 36.774,99.8226 40.5,99.5C 41.0868,93.6973 40.4202,88.1973 38.5,83C 40.4054,82.1739 40.7388,81.0072 39.5,79.5C 38.1575,80.9023 37.3242,80.5689 37,78.5C 34.3684,80.5147 34.2017,82.5147 36.5,84.5C 35.0446,85.7445 33.7113,85.5778 32.5,84C 32.2986,81.3013 32.6319,78.468 33.5,75.5C 32.2885,72.2328 31.2885,68.8994 30.5,65.5C 29.7635,67.6629 29.4301,69.9962 29.5,72.5C 29.9767,73.4776 30.6433,74.3109 31.5,75C 30.1667,77.6667 30.1667,80.3333 31.5,83C 30.7809,85.5562 29.1142,86.7229 26.5,86.5C 26.6495,85.448 26.4828,84.448 26,83.5C 25.0022,86.0278 24.1689,86.0278 23.5,83.5C 22.6628,81.1953 22.4961,78.862 23,76.5C 21.7844,78.962 21.1177,81.6287 21,84.5C 19.2323,81.7819 19.0656,78.9486 20.5,76C 19.9103,74.4905 19.2436,72.9905 18.5,71.5C 17.5224,71.9767 16.6891,72.6433 16,73.5C 15.5,71 15,68.5 14.5,66C 14.528,64.9302 14.8614,64.0968 15.5,63.5 Z"/></g>
<g><path style="opacity:1" fill="#1a1a1a" d="M 141.5,39.5 C 141.958,42.3938 141.291,44.8938 139.5,47C 140.066,56.0876 140.066,65.2542 139.5,74.5C 138.571,71.3246 137.738,67.9913 137,64.5C 136.075,65.0465 135.242,65.7132 134.5,66.5C 135.681,68.198 135.681,69.8647 134.5,71.5C 127.689,68.8038 124.856,71.1372 126,78.5C 125.5,76.5 125,74.5 124.5,72.5C 124.253,71.2867 123.586,70.62 122.5,70.5C 120.991,71.8595 120.324,71.3595 120.5,69C 120.707,65.5562 121.707,65.0562 123.5,67.5C 125.957,66.4205 128.29,65.4205 130.5,64.5C 132.429,64.7692 134.095,64.2692 135.5,63C 134.262,63.0773 133.262,62.9106 132.5,62.5C 133.348,60.5914 133.682,58.5914 133.5,56.5C 133.5,54.1667 133.5,51.8333 133.5,49.5C 134.376,49.6309 135.043,49.2975 135.5,48.5C 133.96,47.4679 133.46,46.1346 134,44.5C 136.26,46.9972 137.593,46.3305 138,42.5C 140.21,46.5697 140.71,46.403 139.5,42C 139.639,40.699 140.305,39.8656 141.5,39.5 Z"/></g>
<g><path style="opacity:1" fill="#151515" d="M 39.5,67.5 C 46.5,67.5 53.5,67.5 60.5,67.5C 61.4959,67.4142 62.3292,67.7476 63,68.5C 63.4901,70.5454 63.3235,72.5454 62.5,74.5C 61.7054,77.5504 60.7054,80.5504 59.5,83.5C 60.1667,83.8333 60.8333,84.1667 61.5,84.5C 60.624,85.2508 59.624,85.7508 58.5,86C 59.8333,86.6667 59.8333,87.3333 58.5,88C 59.3279,88.9147 60.3279,89.5814 61.5,90C 60.9747,90.6924 60.3081,91.1924 59.5,91.5C 56.5868,88.7182 56.2535,85.3849 58.5,81.5C 57.302,81.0604 56.1353,80.727 55,80.5C 54.5078,81.549 54.6744,82.549 55.5,83.5C 52.9588,86.4094 51.2922,85.9094 50.5,82C 51.1667,81.6667 51.8333,81.3333 52.5,81C 51.7256,78.595 51.2256,76.095 51,73.5C 49.2971,80.3007 49.1305,87.134 50.5,94C 50.5765,96.7561 49.2431,97.9228 46.5,97.5C 46.7886,94.3508 46.2886,91.3508 45,88.5C 44.8485,91.1193 44.0152,93.4527 42.5,95.5C 42.3952,87.9906 42.3952,80.4906 42.5,73C 42.3333,71.5 42.1667,70 42,68.5C 40.5391,69.8825 39.7058,69.5492 39.5,67.5 Z"/></g>
<g><path style="opacity:0.884" fill="#616161" d="M 2.5,37.5 C 2.5,38.1667 2.5,38.8333 2.5,39.5C 1.18434,60.3725 1.18434,81.3725 2.5,102.5C 1.27187,101.694 0.271873,100.694 -0.5,99.5C -0.5,91.5 -0.5,83.5 -0.5,75.5C 0.833333,74.5 0.833333,73.5 -0.5,72.5C -0.5,71.8333 -0.5,71.1667 -0.5,70.5C 0.330376,60.0079 0.830376,49.3412 1,38.5C 1.38258,37.944 1.88258,37.6107 2.5,37.5 Z"/></g>
<g><path style="opacity:1" fill="#0c0c0c" d="M 139.5,74.5 C 140.478,74.811 141.145,75.4777 141.5,76.5C 140.742,79.8019 140.075,83.1353 139.5,86.5C 140.947,88.6171 140.78,90.6171 139,92.5C 138,90.8333 136.667,89.5 135,88.5C 134.342,86.892 134.842,85.7253 136.5,85C 135.874,84.2496 135.374,83.4162 135,82.5C 133.112,83.0195 131.779,84.6862 131,87.5C 130.51,86.2068 130.343,84.8734 130.5,83.5C 128.41,83.4501 127.077,84.4501 126.5,86.5C 127.393,89.0841 127.726,91.7508 127.5,94.5C 126.691,92.7078 126.191,90.7078 126,88.5C 125.501,92.4862 125.334,96.4862 125.5,100.5C 120.833,100.5 116.167,100.5 111.5,100.5C 110.466,98.2004 111.133,97.5337 113.5,98.5C 115.723,95.706 115.723,93.0393 113.5,90.5C 114.167,89.8333 114.833,89.1667 115.5,88.5C 114.572,87.2322 114.405,85.8989 115,84.5C 117.212,81.981 119.712,79.8143 122.5,78C 123.517,75.5267 123.517,73.0267 122.5,70.5C 123.586,70.62 124.253,71.2867 124.5,72.5C 125,74.5 125.5,76.5 126,78.5C 124.856,71.1372 127.689,68.8038 134.5,71.5C 135.681,69.8647 135.681,68.198 134.5,66.5C 135.242,65.7132 136.075,65.0465 137,64.5C 137.738,67.9913 138.571,71.3246 139.5,74.5 Z"/></g>
<g><path style="opacity:1" fill="#171717" d="M 87.5,48.5 C 88.4614,50.2646 88.7947,52.2646 88.5,54.5C 88.9488,58.8401 88.9488,63.0067 88.5,67C 95.4921,67.4996 102.492,67.6663 109.5,67.5C 110.263,68.2679 111.263,68.7679 112.5,69C 108.817,70.9569 107.65,73.7902 109,77.5C 107.984,76.3659 107.317,76.6992 107,78.5C 106.661,85.1011 106.495,91.6011 106.5,98C 107.056,99.0111 107.722,99.8444 108.5,100.5C 104.671,100.073 101.004,100.073 97.5,100.5C 98.2938,96.1184 98.2938,91.7851 97.5,87.5C 98,86.5 98.5,85.5 99,84.5C 99.4709,86.2464 100.138,87.913 101,89.5C 102.416,85.4151 102.416,81.4151 101,77.5C 99.6914,79.8912 98.6914,79.8912 98,77.5C 97.6667,74.5 97.3333,71.5 97,68.5C 95.217,70.289 94.3836,72.4557 94.5,75C 95.5722,83.4199 96.2388,91.4199 96.5,99C 94.8608,100.519 93.1942,100.686 91.5,99.5C 90.0813,98.5489 88.4147,98.2155 86.5,98.5C 85.7762,95.0646 85.6096,91.7313 86,88.5C 84.9129,91.6912 84.0796,95.0245 83.5,98.5C 81.3635,97.5276 80.1968,95.8609 80,93.5C 79.6667,95.1667 79.3333,96.8333 79,98.5C 78.3333,81.1667 78.3333,63.8333 79,46.5C 79.0156,61.9856 79.6822,77.3189 81,92.5C 81.3095,91.2341 81.8095,90.0674 82.5,89C 81.3467,77.9098 81.18,66.7431 82,55.5C 83.062,52.971 83.8953,50.3043 84.5,47.5C 85.3081,47.8076 85.9747,48.3076 86.5,49C 85.4086,51.0639 85.2419,53.2305 86,55.5C 87.3515,53.4062 87.8515,51.0728 87.5,48.5 Z"/></g>
<g><path style="opacity:1" fill="#0c0c0c" d="M 72.5,100.5 C 71.8826,100.611 71.3826,100.944 71,101.5C 70.1841,100.177 69.0174,99.5106 67.5,99.5C 58.8269,99.6664 50.1603,99.4998 41.5,99C 42.6026,96.0311 43.936,95.8645 45.5,98.5C 46.1067,98.3764 46.44,98.0431 46.5,97.5C 49.2431,97.9228 50.5765,96.7561 50.5,94C 49.1305,87.134 49.2971,80.3007 51,73.5C 51.2256,76.095 51.7256,78.595 52.5,81C 51.8333,81.3333 51.1667,81.6667 50.5,82C 51.2922,85.9094 52.9588,86.4094 55.5,83.5C 54.6744,82.549 54.5078,81.549 55,80.5C 56.1353,80.727 57.302,81.0604 58.5,81.5C 56.2535,85.3849 56.5868,88.7182 59.5,91.5C 60.3081,91.1924 60.9747,90.6924 61.5,90C 60.3279,89.5814 59.3279,88.9147 58.5,88C 59.8333,87.3333 59.8333,86.6667 58.5,86C 59.624,85.7508 60.624,85.2508 61.5,84.5C 60.8333,84.1667 60.1667,83.8333 59.5,83.5C 60.7054,80.5504 61.7054,77.5504 62.5,74.5C 63.8762,79.7165 65.0428,79.3832 66,73.5C 67.0037,76.9926 66.5037,80.1592 64.5,83C 66.3533,83.5513 67.6867,82.8847 68.5,81C 69.0929,74.2956 69.0929,67.4623 68.5,60.5C 68.9537,58.3064 69.9537,56.473 71.5,55C 71.3333,54.5 71.1667,54 71,53.5C 70.5814,54.6721 69.9147,55.6721 69,56.5C 68.7942,52.6844 68.6276,49.0178 68.5,45.5C 68.6667,44.8333 68.8333,44.1667 69,43.5C 69.6667,47.5 70.3333,47.5 71,43.5C 72.406,62.4632 72.906,81.4632 72.5,100.5 Z"/></g>
<g><path style="opacity:1" fill="#0f0f0f" d="M 130.5,64.5 C 128.29,65.4205 125.957,66.4205 123.5,67.5C 121.707,65.0562 120.707,65.5562 120.5,69C 120.324,71.3595 120.991,71.8595 122.5,70.5C 123.517,73.0267 123.517,75.5267 122.5,78C 119.712,79.8143 117.212,81.981 115,84.5C 114.405,85.8989 114.572,87.2322 115.5,88.5C 114.833,89.1667 114.167,89.8333 113.5,90.5C 115.723,93.0393 115.723,95.706 113.5,98.5C 111.133,97.5337 110.466,98.2004 111.5,100.5C 110.5,100.5 109.5,100.5 108.5,100.5C 107.722,99.8444 107.056,99.0111 106.5,98C 106.495,91.6011 106.661,85.1011 107,78.5C 107.317,76.6992 107.984,76.3659 109,77.5C 107.65,73.7902 108.817,70.9569 112.5,69C 111.263,68.7679 110.263,68.2679 109.5,67.5C 111.681,67.7163 113.347,66.883 114.5,65C 119.823,64.5006 125.156,64.334 130.5,64.5 Z"/></g>
<g><path style="opacity:1" fill="#0c0c0c" d="M 2.5,39.5 C 2.33339,56.8365 2.50006,74.1699 3,91.5C 3.66667,88.8333 4.33333,88.8333 5,91.5C 3.70011,83.3295 3.20011,74.9962 3.5,66.5C 5.94185,66.1192 6.60851,66.7859 5.5,68.5C 6.75978,69.3816 7.92644,70.3816 9,71.5C 8.47364,74.2033 8.97364,76.87 10.5,79.5C 11.9318,75.9867 12.7652,72.32 13,68.5C 14.5173,69.9523 14.684,71.4523 13.5,73C 14.1213,80.82 14.7879,88.6534 15.5,96.5C 17.4236,96.1064 19.257,96.773 21,98.5C 22.7021,92.0396 23.5354,92.0396 23.5,98.5C 24.791,98.7373 25.791,98.404 26.5,97.5C 27.0431,97.56 27.3764,97.8933 27.5,98.5C 24.3583,99.1674 21.3583,99.834 18.5,100.5C 13.5474,100.123 8.8807,100.789 4.5,102.5C 3.83333,102.5 3.16667,102.5 2.5,102.5C 1.18434,81.3725 1.18434,60.3725 2.5,39.5 Z"/></g>
<g><path style="opacity:1" fill="#2a2a2a" d="M 18.5,100.5 C 34.1075,100.237 49.4409,100.571 64.5,101.5C 44.5111,102.5 24.5111,102.833 4.5,102.5C 8.8807,100.789 13.5474,100.123 18.5,100.5 Z"/></g>
<g><path style="opacity:1" fill="#292929" d="M 108.5,100.5 C 109.5,100.5 110.5,100.5 111.5,100.5C 116.167,100.5 120.833,100.5 125.5,100.5C 125.334,96.4862 125.501,92.4862 126,88.5C 126.191,90.7078 126.691,92.7078 127.5,94.5C 126.85,96.4352 126.517,98.4352 126.5,100.5C 132.989,100.843 139.322,101.009 145.5,101C 146.833,101.667 146.833,102.333 145.5,103C 136.5,103.333 127.5,103.667 118.5,104C 127.827,104.5 137.161,104.666 146.5,104.5C 124.671,105.663 102.671,105.83 80.5,105C 79.0577,104.623 78.0577,103.79 77.5,102.5C 80.5023,103.643 83.5023,103.643 86.5,102.5C 86.2907,101.914 85.9574,101.414 85.5,101C 87.7078,100.809 89.7078,100.309 91.5,99.5C 93.1942,100.686 94.8608,100.519 96.5,99C 96.2388,91.4199 95.5722,83.4199 94.5,75C 94.3836,72.4557 95.217,70.289 97,68.5C 97.3333,71.5 97.6667,74.5 98,77.5C 98.6914,79.8912 99.6914,79.8912 101,77.5C 102.416,81.4151 102.416,85.4151 101,89.5C 100.138,87.913 99.4709,86.2464 99,84.5C 98.5,85.5 98,86.5 97.5,87.5C 98.2938,91.7851 98.2938,96.1184 97.5,100.5C 101.004,100.073 104.671,100.073 108.5,100.5 Z"/></g>
<g><path style="opacity:0.868" fill="#585858" d="M 67.5,99.5 C 69.0174,99.5106 70.1841,100.177 71,101.5C 71.3826,100.944 71.8826,100.611 72.5,100.5C 72.4894,102.017 71.8228,103.184 70.5,104C 67.9253,104.958 65.2586,105.458 62.5,105.5C 42.8448,104.729 23.1781,104.229 3.5,104C 2.94404,103.617 2.61071,103.117 2.5,102.5C 3.16667,102.5 3.83333,102.5 4.5,102.5C 26.0037,103.828 47.6704,103.828 69.5,102.5C 68.8075,101.482 68.1408,100.482 67.5,99.5 Z"/></g>
<g><path style="opacity:1" fill="#303030" d="M 56.5,112.5 C 55.8826,112.389 55.3826,112.056 55,111.5C 53.951,113.107 52.451,113.773 50.5,113.5C 50.7394,115.467 50.4061,117.301 49.5,119C 51.2971,120.594 52.2971,122.594 52.5,125C 52.206,129.011 52.206,133.177 52.5,137.5C 51.5387,133.665 50.7054,129.665 50,125.5C 49.6667,126.5 49.3333,127.5 49,128.5C 48.6397,126.579 47.8064,124.912 46.5,123.5C 46.1953,128.324 45.0286,132.658 43,136.5C 42.5034,134.19 42.3367,131.857 42.5,129.5C 41.5,129.5 40.5,129.5 39.5,129.5C 38.9362,123.993 38.6029,118.659 38.5,113.5C 37.0002,115.786 36.6668,118.119 37.5,120.5C 36.7463,123.777 36.2463,127.11 36,130.5C 35.6667,130.833 35.3333,131.167 35,131.5C 34.7883,128.242 34.2883,125.076 33.5,122C 34.8163,120.022 34.3163,118.522 32,117.5C 32.029,120.699 32.529,123.865 33.5,127C 32.0722,128.916 31.0722,131.083 30.5,133.5C 30.8475,131.86 30.3475,130.193 29,128.5C 28.8078,130.577 28.3078,132.577 27.5,134.5C 26.8933,134.376 26.56,134.043 26.5,133.5C 26.0917,126.554 26.0917,119.554 26.5,112.5C 23.4816,112.665 20.4816,112.498 17.5,112C 18.6956,111.346 18.6956,110.846 17.5,110.5C 16.8165,110.863 16.1499,111.196 15.5,111.5C 15.5774,110.25 16.244,109.417 17.5,109C 30.1981,108.208 42.8648,108.541 55.5,110C 56.2524,110.671 56.5858,111.504 56.5,112.5 Z"/></g>
<g><path style="opacity:1" fill="#303030" d="M 147.5,126.5 C 146.732,127.263 146.232,128.263 146,129.5C 144.144,127.333 141.977,126.666 139.5,127.5C 137.826,125.487 135.826,123.82 133.5,122.5C 133.167,122.833 132.833,123.167 132.5,123.5C 133.193,124.518 133.859,125.518 134.5,126.5C 133.732,127.263 133.232,128.263 133,129.5C 131.312,128.675 131.145,127.675 132.5,126.5C 131.194,125.088 130.36,123.421 130,121.5C 128.156,123.171 127.49,125.171 128,127.5C 129.666,126.66 129.833,127.16 128.5,129C 130.396,130.808 130.896,132.975 130,135.5C 129.085,134.672 128.419,133.672 128,132.5C 127,133.5 126,134.5 125,135.5C 123.45,127.565 122.284,127.565 121.5,135.5C 120.448,135.649 119.448,135.483 118.5,135C 120.181,133.055 120.848,131.055 120.5,129C 119.261,124.335 118.428,124.502 118,129.5C 117.667,128.833 117.333,128.167 117,127.5C 116.828,122.798 116.328,118.132 115.5,113.5C 114.213,116.709 114.213,119.875 115.5,123C 114.518,125.738 113.852,128.572 113.5,131.5C 112.698,130.048 112.198,128.382 112,126.5C 111.685,129.147 110.518,129.813 108.5,128.5C 107.833,126.5 107.167,124.5 106.5,122.5C 104.219,124.326 104.219,126.326 106.5,128.5C 105.652,130.409 105.318,132.409 105.5,134.5C 105.66,136.199 105.494,137.866 105,139.5C 104.667,139.167 104.333,138.833 104,138.5C 103.809,132.917 103.309,127.417 102.5,122C 103.167,121 103.833,120 104.5,119C 103.667,116.919 103.667,114.752 104.5,112.5C 100.818,112.335 97.1516,112.501 93.5,113C 93.8333,113.333 94.1667,113.667 94.5,114C 93.1031,115.31 92.1031,116.81 91.5,118.5C 90.8144,114.713 91.8144,111.546 94.5,109C 107.209,108.126 119.876,108.46 132.5,110C 134.032,113.306 135.199,116.806 136,120.5C 138.674,122.871 141.841,124.037 145.5,124C 146.381,124.708 147.047,125.542 147.5,126.5 Z"/></g>
<g><path style="opacity:1" fill="#242424" d="M 52.5,137.5 C 52.7135,139.144 52.3802,140.644 51.5,142C 52.8333,144 54.1667,146 55.5,148C 54.572,148.388 53.9054,149.055 53.5,150C 54,151.5 54.5,153 55,154.5C 55.2492,153.376 55.7492,152.376 56.5,151.5C 56.8333,151.667 57.1667,151.833 57.5,152C 56.9026,153.889 56.5693,155.722 56.5,157.5C 48.8549,158.331 41.1883,158.831 33.5,159C 44.8284,159.5 56.1618,159.667 67.5,159.5C 46.6733,160.497 25.6733,160.831 4.5,160.5C 2.59565,160.262 1.26231,159.262 0.5,157.5C 1.23891,157.631 1.90558,157.464 2.5,157C 1.39768,154.599 1.23101,152.099 2,149.5C 2.66667,153.5 3.33333,153.5 4,149.5C 4.33333,150.833 4.66667,152.167 5,153.5C 5.66667,154.833 6.33333,154.833 7,153.5C 6.98128,151.893 6.81461,150.226 6.5,148.5C 9.92089,148.238 10.9209,149.572 9.5,152.5C 11.9565,155.222 12.6231,155.056 11.5,152C 12.7234,149.948 13.7234,147.781 14.5,145.5C 15.3857,146.325 15.719,147.325 15.5,148.5C 18.2574,148.622 20.2574,147.455 21.5,145C 21,144.5 20.5,144 20,143.5C 19.5727,146.493 18.4061,146.993 16.5,145C 17.2931,141.589 17.7931,138.089 18,134.5C 18.3333,134.167 18.6667,133.833 19,133.5C 20.9535,136.257 20.7868,138.757 18.5,141C 20.7312,141.163 22.0645,139.997 22.5,137.5C 21.1636,133.56 21.9969,132.894 25,135.5C 25.2784,134.584 25.7784,133.918 26.5,133.5C 26.56,134.043 26.8933,134.376 27.5,134.5C 28.3078,132.577 28.8078,130.577 29,128.5C 30.3475,130.193 30.8475,131.86 30.5,133.5C 31.0722,131.083 32.0722,128.916 33.5,127C 32.529,123.865 32.029,120.699 32,117.5C 34.3163,118.522 34.8163,120.022 33.5,122C 34.2883,125.076 34.7883,128.242 35,131.5C 35.3333,131.167 35.6667,130.833 36,130.5C 36.2463,127.11 36.7463,123.777 37.5,120.5C 36.6668,118.119 37.0002,115.786 38.5,113.5C 38.6029,118.659 38.9362,123.993 39.5,129.5C 40.5,129.5 41.5,129.5 42.5,129.5C 42.3367,131.857 42.5034,134.19 43,136.5C 45.0286,132.658 46.1953,128.324 46.5,123.5C 47.8064,124.912 48.6397,126.579 49,128.5C 49.3333,127.5 49.6667,126.5 50,125.5C 50.7054,129.665 51.5387,133.665 52.5,137.5 Z"/></g>
<g><path style="opacity:0.88" fill="#707070" d="M 15.5,111.5 C 15.8893,114.553 15.2227,117.22 13.5,119.5C 13.8023,116.627 14.469,113.961 15.5,111.5 Z"/></g>
<g><path style="opacity:1" fill="#212121" d="M 134.5,126.5 C 134.414,127.496 134.748,128.329 135.5,129C 134.703,132.745 134.203,136.579 134,140.5C 132.812,139.437 132.312,138.103 132.5,136.5C 130.897,136.312 129.563,136.812 128.5,138C 128.833,138.333 129.167,138.667 129.5,139C 127.096,139.508 126.429,140.675 127.5,142.5C 127.085,146.577 125.085,149.577 121.5,151.5C 122.934,152.23 124.1,153.23 125,154.5C 125.414,154.043 125.914,153.709 126.5,153.5C 127.244,154.991 127.91,156.491 128.5,158C 123.316,158.174 118.316,158.674 113.5,159.5C 111.833,159.5 110.167,159.5 108.5,159.5C 109.185,157.586 109.685,155.586 110,153.5C 110.483,154.448 110.649,155.448 110.5,156.5C 111.5,156.5 112.5,156.5 113.5,156.5C 112.329,152.482 112.329,148.482 113.5,144.5C 112.218,142.821 111.218,140.987 110.5,139C 112.953,137.152 113.953,134.652 113.5,131.5C 113.852,128.572 114.518,125.738 115.5,123C 114.213,119.875 114.213,116.709 115.5,113.5C 116.328,118.132 116.828,122.798 117,127.5C 117.333,128.167 117.667,128.833 118,129.5C 118.428,124.502 119.261,124.335 120.5,129C 120.848,131.055 120.181,133.055 118.5,135C 119.448,135.483 120.448,135.649 121.5,135.5C 122.284,127.565 123.45,127.565 125,135.5C 126,134.5 127,133.5 128,132.5C 128.419,133.672 129.085,134.672 130,135.5C 130.896,132.975 130.396,130.808 128.5,129C 129.833,127.16 129.666,126.66 128,127.5C 127.49,125.171 128.156,123.171 130,121.5C 130.36,123.421 131.194,125.088 132.5,126.5C 131.145,127.675 131.312,128.675 133,129.5C 133.232,128.263 133.732,127.263 134.5,126.5 Z"/></g>
<g><path style="opacity:1" fill="#1c1c1c" d="M 26.5,133.5 C 25.7784,133.918 25.2784,134.584 25,135.5C 21.9969,132.894 21.1636,133.56 22.5,137.5C 22.0645,139.997 20.7312,141.163 18.5,141C 20.7868,138.757 20.9535,136.257 19,133.5C 18.6667,133.833 18.3333,134.167 18,134.5C 17.7931,138.089 17.2931,141.589 16.5,145C 18.4061,146.993 19.5727,146.493 20,143.5C 20.5,144 21,144.5 21.5,145C 20.2574,147.455 18.2574,148.622 15.5,148.5C 15.719,147.325 15.3857,146.325 14.5,145.5C 13.7234,147.781 12.7234,149.948 11.5,152C 12.6231,155.056 11.9565,155.222 9.5,152.5C 10.9209,149.572 9.92089,148.238 6.5,148.5C 6.81461,150.226 6.98128,151.893 7,153.5C 6.33333,154.833 5.66667,154.833 5,153.5C 4.66667,152.167 4.33333,150.833 4,149.5C 3.33333,153.5 2.66667,153.5 2,149.5C 1.23101,152.099 1.39768,154.599 2.5,157C 1.90558,157.464 1.23891,157.631 0.5,157.5C 0.168247,147.81 0.50158,138.144 1.5,128.5C 2.46824,127.511 3.63491,126.844 5,126.5C 6.84053,127.125 8.67386,127.292 10.5,127C 10.9341,124.577 11.9341,122.077 13.5,119.5C 15.2227,117.22 15.8893,114.553 15.5,111.5C 16.1499,111.196 16.8165,110.863 17.5,110.5C 18.6956,110.846 18.6956,111.346 17.5,112C 20.4816,112.498 23.4816,112.665 26.5,112.5C 26.0917,119.554 26.0917,126.554 26.5,133.5 Z"/></g>
<g><path style="opacity:1" fill="#232323" d="M 105.5,134.5 C 106.363,133.537 107.03,133.537 107.5,134.5C 106.264,136.311 106.264,138.144 107.5,140C 106.139,141.927 105.306,144.094 105,146.5C 104.798,144.744 104.298,143.078 103.5,141.5C 101.003,142.129 99.003,143.962 97.5,147C 96.552,147.483 95.552,147.649 94.5,147.5C 94.9528,146.542 95.6195,145.708 96.5,145C 95.2889,143.887 95.2889,142.72 96.5,141.5C 95.6034,141.331 94.6034,140.998 93.5,140.5C 94.049,137.94 95.2157,135.273 97,132.5C 98.1827,133.731 99.3493,133.731 100.5,132.5C 99.7643,130.207 99.5976,127.874 100,125.5C 98.9367,126.438 97.7701,127.438 96.5,128.5C 94.5082,123.993 91.8415,123.493 88.5,127C 85.3033,127.987 82.4699,127.487 80,125.5C 79.6174,126.056 79.1174,126.389 78.5,126.5C 78.3691,125.624 78.7025,124.957 79.5,124.5C 84.4105,124.045 88.4105,122.045 91.5,118.5C 92.1031,116.81 93.1031,115.31 94.5,114C 94.1667,113.667 93.8333,113.333 93.5,113C 97.1516,112.501 100.818,112.335 104.5,112.5C 103.667,114.752 103.667,116.919 104.5,119C 103.833,120 103.167,121 102.5,122C 103.309,127.417 103.809,132.917 104,138.5C 104.333,138.833 104.667,139.167 105,139.5C 105.494,137.866 105.66,136.199 105.5,134.5 Z"/></g>
<g><path style="opacity:1" fill="#222222" d="M 113.5,131.5 C 113.953,134.652 112.953,137.152 110.5,139C 111.218,140.987 112.218,142.821 113.5,144.5C 112.329,148.482 112.329,152.482 113.5,156.5C 112.5,156.5 111.5,156.5 110.5,156.5C 110.649,155.448 110.483,154.448 110,153.5C 109.685,155.586 109.185,157.586 108.5,159.5C 99.1667,159.5 89.8333,159.5 80.5,159.5C 78.5,159.5 77.5,158.5 77.5,156.5C 78.8062,156.121 80.1395,155.788 81.5,155.5C 79.8164,154.146 79.3164,152.479 80,150.5C 80.8928,151.711 81.7261,151.711 82.5,150.5C 79.7709,148.633 80.1043,147.633 83.5,147.5C 83.9139,150.546 83.9139,153.546 83.5,156.5C 84.934,154.78 85.7674,152.78 86,150.5C 87.6213,149.343 89.4547,148.51 91.5,148C 90.4258,147.261 89.7591,146.261 89.5,145C 90.1271,142.865 90.6271,140.698 91,138.5C 91.8156,142.122 92.4822,145.788 93,149.5C 93.3333,150.167 93.6667,150.833 94,151.5C 94.49,150.207 94.6567,148.873 94.5,147.5C 95.552,147.649 96.552,147.483 97.5,147C 99.003,143.962 101.003,142.129 103.5,141.5C 104.298,143.078 104.798,144.744 105,146.5C 105.306,144.094 106.139,141.927 107.5,140C 106.264,138.144 106.264,136.311 107.5,134.5C 107.03,133.537 106.363,133.537 105.5,134.5C 105.318,132.409 105.652,130.409 106.5,128.5C 104.219,126.326 104.219,124.326 106.5,122.5C 107.167,124.5 107.833,126.5 108.5,128.5C 110.518,129.813 111.685,129.147 112,126.5C 112.198,128.382 112.698,130.048 113.5,131.5 Z"/></g>
<g><path style="opacity:1" fill="#474747" d="M 13.5,119.5 C 11.9341,122.077 10.9341,124.577 10.5,127C 8.67386,127.292 6.84053,127.125 5,126.5C 3.63491,126.844 2.46824,127.511 1.5,128.5C 0.50158,138.144 0.168247,147.81 0.5,157.5C 0.166667,157.5 -0.166667,157.5 -0.5,157.5C -0.5,147.5 -0.5,137.5 -0.5,127.5C 2.33317,124.343 5.99984,122.509 10.5,122C 11.3734,120.955 12.3734,120.122 13.5,119.5 Z"/></g>
<g><path style="opacity:1" fill="#3b3b3b" d="M 56.5,112.5 C 56.6137,116.661 58.2804,120.161 61.5,123C 65.4421,122.97 68.4421,124.47 70.5,127.5C 69.6365,126.537 68.9698,126.537 68.5,127.5C 69.6396,136.785 69.8063,146.119 69,155.5C 68.6667,146.833 68.3333,138.167 68,129.5C 66.1727,127.538 64.1727,126.871 62,127.5C 58.3794,126.38 55.8794,124.046 54.5,120.5C 56.223,118.132 56.8897,115.466 56.5,112.5 Z"/></g>
<g><path style="opacity:1" fill="#212121" d="M 94.5,147.5 C 94.6567,148.873 94.49,150.207 94,151.5C 93.6667,150.833 93.3333,150.167 93,149.5C 92.4822,145.788 91.8156,142.122 91,138.5C 90.6271,140.698 90.1271,142.865 89.5,145C 89.7591,146.261 90.4258,147.261 91.5,148C 89.4547,148.51 87.6213,149.343 86,150.5C 85.7674,152.78 84.934,154.78 83.5,156.5C 83.9139,153.546 83.9139,150.546 83.5,147.5C 80.1043,147.633 79.7709,148.633 82.5,150.5C 81.7261,151.711 80.8928,151.711 80,150.5C 79.3164,152.479 79.8164,154.146 81.5,155.5C 80.1395,155.788 78.8062,156.121 77.5,156.5C 76.1209,146.457 76.4543,136.457 78.5,126.5C 79.1174,126.389 79.6174,126.056 80,125.5C 82.4699,127.487 85.3033,127.987 88.5,127C 91.8415,123.493 94.5082,123.993 96.5,128.5C 97.7701,127.438 98.9367,126.438 100,125.5C 99.5976,127.874 99.7643,130.207 100.5,132.5C 99.3493,133.731 98.1827,133.731 97,132.5C 95.2157,135.273 94.049,137.94 93.5,140.5C 94.6034,140.998 95.6034,141.331 96.5,141.5C 95.2889,142.72 95.2889,143.887 96.5,145C 95.6195,145.708 94.9528,146.542 94.5,147.5 Z"/></g>
<g><path style="opacity:1" fill="#1f1f1f" d="M 147.5,126.5 C 148.167,127.167 148.833,127.833 149.5,128.5C 149.5,135.5 149.5,142.5 149.5,149.5C 149.167,149.5 148.833,149.5 148.5,149.5C 147.532,151.607 147.198,153.941 147.5,156.5C 145.058,156.119 144.391,156.786 145.5,158.5C 134.854,159.499 124.187,159.832 113.5,159.5C 118.316,158.674 123.316,158.174 128.5,158C 127.91,156.491 127.244,154.991 126.5,153.5C 125.914,153.709 125.414,154.043 125,154.5C 124.1,153.23 122.934,152.23 121.5,151.5C 125.085,149.577 127.085,146.577 127.5,142.5C 126.429,140.675 127.096,139.508 129.5,139C 129.167,138.667 128.833,138.333 128.5,138C 129.563,136.812 130.897,136.312 132.5,136.5C 132.312,138.103 132.812,139.437 134,140.5C 134.203,136.579 134.703,132.745 135.5,129C 134.748,128.329 134.414,127.496 134.5,126.5C 133.859,125.518 133.193,124.518 132.5,123.5C 132.833,123.167 133.167,122.833 133.5,122.5C 135.826,123.82 137.826,125.487 139.5,127.5C 141.977,126.666 144.144,127.333 146,129.5C 146.232,128.263 146.732,127.263 147.5,126.5 Z"/></g>
<g><path style="opacity:1" fill="#202020" d="M 56.5,112.5 C 56.8897,115.466 56.223,118.132 54.5,120.5C 55.8794,124.046 58.3794,126.38 62,127.5C 64.1727,126.871 66.1727,127.538 68,129.5C 68.3333,138.167 68.6667,146.833 69,155.5C 69.8063,146.119 69.6396,136.785 68.5,127.5C 68.9698,126.537 69.6365,126.537 70.5,127.5C 71.6583,137.325 71.8249,147.325 71,157.5C 70.2917,158.381 69.4584,159.047 68.5,159.5C 68.1667,159.5 67.8333,159.5 67.5,159.5C 56.1618,159.667 44.8284,159.5 33.5,159C 41.1883,158.831 48.8549,158.331 56.5,157.5C 56.5693,155.722 56.9026,153.889 57.5,152C 57.1667,151.833 56.8333,151.667 56.5,151.5C 55.7492,152.376 55.2492,153.376 55,154.5C 54.5,153 54,151.5 53.5,150C 53.9054,149.055 54.572,148.388 55.5,148C 54.1667,146 52.8333,144 51.5,142C 52.3802,140.644 52.7135,139.144 52.5,137.5C 52.206,133.177 52.206,129.011 52.5,125C 52.2971,122.594 51.2971,120.594 49.5,119C 50.4061,117.301 50.7394,115.467 50.5,113.5C 52.451,113.773 53.951,113.107 55,111.5C 55.3826,112.056 55.8826,112.389 56.5,112.5 Z"/></g>
<g><path style="opacity:0.859" fill="#6e6e6e" d="M 148.5,149.5 C 148.328,150.492 148.662,151.158 149.5,151.5C 149.5,152.5 149.5,153.5 149.5,154.5C 148.449,156.929 147.116,159.262 145.5,161.5C 124.167,161.5 102.833,161.5 81.5,161.5C 81.1667,160.833 80.8333,160.167 80.5,159.5C 89.8333,159.5 99.1667,159.5 108.5,159.5C 110.167,159.5 111.833,159.5 113.5,159.5C 124.187,159.832 134.854,159.499 145.5,158.5C 144.391,156.786 145.058,156.119 147.5,156.5C 147.198,153.941 147.532,151.607 148.5,149.5 Z"/></g>
<g><path style="opacity:0.395" fill="#a7a7a7" d="M 67.5,159.5 C 67.8333,159.5 68.1667,159.5 68.5,159.5C 68.5,160.167 68.5,160.833 68.5,161.5C 47.1667,161.5 25.8333,161.5 4.5,161.5C 4.5,161.167 4.5,160.833 4.5,160.5C 25.6733,160.831 46.6733,160.497 67.5,159.5 Z"/></g>
</svg>
