<?xml version="1.0" encoding="UTF-8"?>
<!DOCTYPE svg PUBLIC "-//W3C//DTD SVG 1.1//EN" "http://www.w3.org/Graphics/SVG/1.1/DTD/svg11.dtd">
<svg xmlns="http://www.w3.org/2000/svg" version="1.1" width="267px" height="500px" style="shape-rendering:geometricPrecision; text-rendering:geometricPrecision; image-rendering:optimizeQuality; fill-rule:evenodd; clip-rule:evenodd" xmlns:xlink="http://www.w3.org/1999/xlink">
<g><path style="opacity:0.561" fill="#5d5b5d" d="M 172.5,1.5 C 175.067,1.72148 177.401,2.38815 179.5,3.5C 176.772,3.82943 174.438,3.16276 172.5,1.5 Z"/></g>
<g><path style="opacity:1" fill="#06050a" d="M 155.5,-0.5 C 158.5,-0.5 161.5,-0.5 164.5,-0.5C 167.167,0.166667 169.833,0.833333 172.5,1.5C 174.438,3.16276 176.772,3.82943 179.5,3.5C 197.331,10.6642 209.331,23.3309 215.5,41.5C 215.773,43.451 215.107,44.951 213.5,46C 213.957,46.414 214.291,46.914 214.5,47.5C 213.833,47.8333 213.167,48.1667 212.5,48.5C 213.902,49.8425 213.569,50.6758 211.5,51C 212.252,51.6708 212.586,52.5041 212.5,53.5C 206.652,51.9317 200.652,51.0984 194.5,51C 193.542,49.8525 193.875,48.8525 195.5,48C 193.024,47.3198 191.191,48.1531 190,50.5C 188.057,50.0411 186.724,51.0411 186,53.5C 184.894,50.8669 183.06,48.8669 180.5,47.5C 179.289,48.2739 179.289,49.1072 180.5,50C 179.906,50.4643 179.239,50.631 178.5,50.5C 176.321,49.9408 174.154,49.2741 172,48.5C 170.97,48.8361 170.47,49.5028 170.5,50.5C 169.373,51.1217 168.373,51.955 167.5,53C 168.747,54.4936 168.747,55.9936 167.5,57.5C 165.974,57.9943 164.641,58.661 163.5,59.5C 162.673,64.6509 162.173,69.9842 162,75.5C 161.667,74.8333 161.333,74.1667 161,73.5C 159.551,74.6141 158.217,75.6141 157,76.5C 157.02,67.8093 156.187,59.3093 154.5,51C 154.354,48.9658 155.02,47.2991 156.5,46C 154.606,44.8989 153.939,43.5655 154.5,42C 152.965,41.5038 151.465,41.6705 150,42.5C 148.259,40.5457 146.092,39.5457 143.5,39.5C 143.5,38.5 143.5,37.5 143.5,36.5C 140.612,36.2196 139.112,37.5529 139,40.5C 135.496,37.831 131.662,37.1643 127.5,38.5C 129.973,41.0618 130.139,43.7284 128,46.5C 127.275,44.842 126.108,44.342 124.5,45C 123.427,46.5944 122.427,48.0944 121.5,49.5C 120.692,49.1924 120.025,48.6924 119.5,48C 115.167,47.6667 110.833,47.3333 106.5,47C 108.851,44.741 108.185,43.241 104.5,42.5C 100.893,46.347 100.56,45.847 103.5,41C 102.584,40.7216 101.918,40.2216 101.5,39.5C 103.221,35.7274 105.221,32.0608 107.5,28.5C 104.278,27.5671 102.612,25.4004 102.5,22C 103.038,17.6006 103.704,13.2673 104.5,9C 114.105,9.07913 123.771,8.7458 133.5,8C 140.831,4.82181 148.164,1.98847 155.5,-0.5 Z"/></g>
<g><path style="opacity:1" fill="#0f0e11" d="M 163.5,59.5 C 164.641,58.661 165.974,57.9943 167.5,57.5C 168.747,55.9936 168.747,54.4936 167.5,53C 168.373,51.955 169.373,51.1217 170.5,50.5C 170.708,52.9201 170.374,55.2534 169.5,57.5C 173.708,59.751 178.042,59.9176 182.5,58C 183.357,57.3109 184.023,56.4776 184.5,55.5C 182.481,53.8103 180.481,52.1436 178.5,50.5C 179.239,50.631 179.906,50.4643 180.5,50C 179.289,49.1072 179.289,48.2739 180.5,47.5C 183.06,48.8669 184.894,50.8669 186,53.5C 186.724,51.0411 188.057,50.0411 190,50.5C 191.191,48.1531 193.024,47.3198 195.5,48C 193.875,48.8525 193.542,49.8525 194.5,51C 200.652,51.0984 206.652,51.9317 212.5,53.5C 212.34,55.153 211.674,56.4863 210.5,57.5C 206.759,59.3086 204.759,62.3086 204.5,66.5C 199.312,71.3693 194.146,76.3693 189,81.5C 184.914,87.7594 182.414,94.5927 181.5,102C 185.422,103.087 187.756,105.587 188.5,109.5C 184.736,112.527 180.403,113.86 175.5,113.5C 175.784,111.585 175.451,109.919 174.5,108.5C 172.5,108.5 170.5,108.5 168.5,108.5C 168.5,117.5 168.5,126.5 168.5,135.5C 168.806,138.385 168.473,141.052 167.5,143.5C 167.667,132.495 167.5,121.495 167,110.5C 166.333,107.833 165.667,107.833 165,110.5C 163.813,108.956 163.48,107.289 164,105.5C 164.556,107.595 165.056,107.762 165.5,106C 165.011,104.436 164.678,102.936 164.5,101.5C 166.402,98.6627 167.069,95.3293 166.5,91.5C 165.5,91.5 164.5,91.5 163.5,91.5C 163.64,89.8762 162.973,88.7096 161.5,88C 162.448,87.5172 163.448,87.3505 164.5,87.5C 164.657,86.1266 164.49,84.7932 164,83.5C 162.283,82.0118 161.116,80.1785 160.5,78C 163.063,77.237 163.063,76.737 160.5,76.5C 157.022,77.1454 156.689,78.6454 159.5,81C 159.216,84.2442 158.716,87.7442 158,91.5C 157.95,89.256 157.117,87.5893 155.5,86.5C 155.802,83.9407 155.468,81.6074 154.5,79.5C 154.557,78.391 154.89,77.391 155.5,76.5C 154.833,55.1667 154.167,55.1667 153.5,76.5C 152.674,71.6835 152.174,66.6835 152,61.5C 151.333,62.8333 150.667,62.8333 150,61.5C 149.658,63.6192 148.825,63.9526 147.5,62.5C 147.5,62.1667 147.5,61.8333 147.5,61.5C 148.622,60.0527 150.122,59.0527 152,58.5C 152.2,54.2467 152.7,50.08 153.5,46C 152.4,44.977 151.067,44.477 149.5,44.5C 140.771,45.2391 133.104,48.4058 126.5,54C 113.134,67.0342 99.4674,79.7009 85.5,92C 77.0034,98.2483 67.6701,102.915 57.5,106C 54.5,106.667 51.5,106.667 48.5,106C 46.0155,103.716 45.8489,101.216 48,98.5C 57.9085,93.8778 66.5751,87.5445 74,79.5C 83.4362,66.2744 92.6029,52.9411 101.5,39.5C 101.918,40.2216 102.584,40.7216 103.5,41C 100.56,45.847 100.893,46.347 104.5,42.5C 108.185,43.241 108.851,44.741 106.5,47C 110.833,47.3333 115.167,47.6667 119.5,48C 120.025,48.6924 120.692,49.1924 121.5,49.5C 122.427,48.0944 123.427,46.5944 124.5,45C 126.108,44.342 127.275,44.842 128,46.5C 130.139,43.7284 129.973,41.0618 127.5,38.5C 131.662,37.1643 135.496,37.831 139,40.5C 139.112,37.5529 140.612,36.2196 143.5,36.5C 143.5,37.5 143.5,38.5 143.5,39.5C 146.092,39.5457 148.259,40.5457 150,42.5C 151.465,41.6705 152.965,41.5038 154.5,42C 153.939,43.5655 154.606,44.8989 156.5,46C 155.02,47.2991 154.354,48.9658 154.5,51C 156.187,59.3093 157.02,67.8093 157,76.5C 158.217,75.6141 159.551,74.6141 161,73.5C 161.333,74.1667 161.667,74.8333 162,75.5C 162.173,69.9842 162.673,64.6509 163.5,59.5 Z M 178.5,50.5 C 180.481,52.1436 182.481,53.8103 184.5,55.5C 184.023,56.4776 183.357,57.3109 182.5,58C 178.042,59.9176 173.708,59.751 169.5,57.5C 170.374,55.2534 170.708,52.9201 170.5,50.5C 170.47,49.5028 170.97,48.8361 172,48.5C 174.154,49.2741 176.321,49.9408 178.5,50.5 Z"/></g>
<g><path style="opacity:0.816" fill="#373638" d="M 215.5,41.5 C 216.604,45.8862 215.604,49.8862 212.5,53.5C 212.586,52.5041 212.252,51.6708 211.5,51C 213.569,50.6758 213.902,49.8425 212.5,48.5C 213.167,48.1667 213.833,47.8333 214.5,47.5C 214.291,46.914 213.957,46.414 213.5,46C 215.107,44.951 215.773,43.451 215.5,41.5 Z"/></g>
<g><path style="opacity:0.933" fill="#3d3c3e" d="M 210.5,57.5 C 208.745,60.6803 206.745,63.6803 204.5,66.5C 204.759,62.3086 206.759,59.3086 210.5,57.5 Z"/></g>
<g><path style="opacity:1" fill="#c2c4c9" d="M 155.5,76.5 C 154.833,76.5 154.167,76.5 153.5,76.5C 154.167,55.1667 154.833,55.1667 155.5,76.5 Z"/></g>
<g><path style="opacity:1" fill="#cecfd4" d="M 163.5,59.5 C 164.812,61.7432 165.478,64.4098 165.5,67.5C 165.167,70.1667 164.833,72.8333 164.5,75.5C 163.505,70.2079 163.172,64.8746 163.5,59.5 Z"/></g>
<g><path style="opacity:0.188" fill="#8d8c8d" d="M 147.5,61.5 C 147.5,61.8333 147.5,62.1667 147.5,62.5C 147.342,73.5065 147.008,84.5065 146.5,95.5C 147.01,98.3878 146.344,100.721 144.5,102.5C 145.299,88.7234 146.299,75.0568 147.5,61.5 Z"/></g>
<g><path style="opacity:1" fill="#e6e6e7" d="M 163.5,91.5 C 164.5,91.5 165.5,91.5 166.5,91.5C 167.069,95.3293 166.402,98.6627 164.5,101.5C 163.521,98.3752 163.187,95.0419 163.5,91.5 Z"/></g>
<g><path style="opacity:1" fill="#e5e5e7" d="M 167.5,101.5 C 168.833,101.5 170.167,101.5 171.5,101.5C 171.5,102.833 171.5,104.167 171.5,105.5C 170.167,105.5 168.833,105.5 167.5,105.5C 167.5,104.167 167.5,102.833 167.5,101.5 Z"/></g>
<g><path style="opacity:1" fill="#b6b8bc" d="M 146.5,109.5 C 148.485,125.132 149.151,141.132 148.5,157.5C 146.833,157.5 145.167,157.5 143.5,157.5C 143.5,153.833 143.5,150.167 143.5,146.5C 143.5,134.167 143.5,121.833 143.5,109.5C 144.5,109.5 145.5,109.5 146.5,109.5 Z"/></g>
<g><path style="opacity:1" fill="#c0c2c6" d="M 174.5,108.5 C 174.5,118.5 174.5,128.5 174.5,138.5C 173.483,135.324 171.483,134.324 168.5,135.5C 168.5,126.5 168.5,117.5 168.5,108.5C 170.5,108.5 172.5,108.5 174.5,108.5 Z"/></g>
<g><path style="opacity:1" fill="#595a5c" d="M 174.5,108.5 C 175.451,109.919 175.784,111.585 175.5,113.5C 175.5,128.5 175.5,143.5 175.5,158.5C 172.615,158.806 169.948,158.473 167.5,157.5C 169.833,157.5 172.167,157.5 174.5,157.5C 174.5,151.167 174.5,144.833 174.5,138.5C 174.5,128.5 174.5,118.5 174.5,108.5 Z"/></g>
<g><path style="opacity:1" fill="#010005" d="M 146.5,109.5 C 145.5,109.5 144.5,109.5 143.5,109.5C 143.5,121.833 143.5,134.167 143.5,146.5C 141.856,146.286 140.356,146.62 139,147.5C 137.533,150.784 137.699,153.784 139.5,156.5C 137.865,157.681 136.198,157.681 134.5,156.5C 133.749,157.376 133.249,158.376 133,159.5C 132.667,158.833 132.333,158.167 132,157.5C 131.333,158.833 130.667,160.167 130,161.5C 130.039,147.391 129.539,133.391 128.5,119.5C 128.5,119.167 128.5,118.833 128.5,118.5C 128.934,115.445 130.601,113.279 133.5,112C 132.66,110.334 133.16,110.167 135,111.5C 135.315,108.853 136.482,108.187 138.5,109.5C 139.883,106.924 140.717,107.258 141,110.5C 141.667,108.5 142.333,106.5 143,104.5C 144.176,106.196 145.343,107.862 146.5,109.5 Z"/></g>
<g><path style="opacity:0.999" fill="#141215" d="M 146.5,95.5 C 147.397,96.5981 148.23,96.5981 149,95.5C 149.658,97.108 149.158,98.2747 147.5,99C 148.5,99.3333 149.5,99.6667 150.5,100C 150.167,100.333 149.833,100.667 149.5,101C 151.983,103.308 152.149,105.808 150,108.5C 149.176,125.074 149.342,141.574 150.5,158C 146.159,160.395 141.826,162.728 137.5,165C 140.609,169.17 139.609,172.003 134.5,173.5C 132.297,173.413 130.13,173.413 128,173.5C 126.706,174.854 126.54,176.188 127.5,177.5C 126.655,179.762 125.322,180.429 123.5,179.5C 122.304,179.846 122.304,180.346 123.5,181C 122.216,181.684 121.049,181.517 120,180.5C 119.683,182.301 119.016,182.634 118,181.5C 115.723,183.113 114.223,185.28 113.5,188C 115.878,188.974 115.544,189.641 112.5,190C 113.167,190.333 113.833,190.667 114.5,191C 113.376,191.249 112.376,191.749 111.5,192.5C 109.833,195.813 107.833,198.813 105.5,201.5C 107.139,191.055 111.806,182.221 119.5,175C 120.094,174.536 120.761,174.369 121.5,174.5C 124.755,172.91 127.922,171.91 131,171.5C 132.965,168.807 133.799,165.973 133.5,163C 132.207,162.51 130.873,162.343 129.5,162.5C 128.504,148.343 128.171,134.01 128.5,119.5C 129.539,133.391 130.039,147.391 130,161.5C 130.667,160.167 131.333,158.833 132,157.5C 132.333,158.167 132.667,158.833 133,159.5C 133.249,158.376 133.749,157.376 134.5,156.5C 136.198,157.681 137.865,157.681 139.5,156.5C 137.699,153.784 137.533,150.784 139,147.5C 140.356,146.62 141.856,146.286 143.5,146.5C 143.5,150.167 143.5,153.833 143.5,157.5C 145.167,157.5 146.833,157.5 148.5,157.5C 149.151,141.132 148.485,125.132 146.5,109.5C 145.343,107.862 144.176,106.196 143,104.5C 142.333,106.5 141.667,108.5 141,110.5C 140.717,107.258 139.883,106.924 138.5,109.5C 136.482,108.187 135.315,108.853 135,111.5C 133.16,110.167 132.66,110.334 133.5,112C 130.601,113.279 128.934,115.445 128.5,118.5C 128.338,116.473 128.505,114.473 129,112.5C 131.53,109.937 133.697,107.103 135.5,104C 138.432,103.047 141.432,102.547 144.5,102.5C 146.344,100.721 147.01,98.3878 146.5,95.5 Z"/></g>
<g><path style="opacity:1" fill="#c9cacd" d="M 147.5,102.5 C 148.5,102.5 149.5,102.5 150.5,102.5C 150.5,103.5 150.5,104.5 150.5,105.5C 149.5,105.5 148.5,105.5 147.5,105.5C 147.5,104.5 147.5,103.5 147.5,102.5 Z"/></g>
<g><path style="opacity:1" fill="#040206" d="M 153.5,76.5 C 154.167,76.5 154.833,76.5 155.5,76.5C 154.89,77.391 154.557,78.391 154.5,79.5C 153.883,79.6107 153.383,79.944 153,80.5C 152.5,87.4921 152.334,94.4921 152.5,101.5C 153.5,101.5 154.5,101.5 155.5,101.5C 155.5,96.5 155.5,91.5 155.5,86.5C 157.117,87.5893 157.95,89.256 158,91.5C 158.716,87.7442 159.216,84.2442 159.5,81C 156.689,78.6454 157.022,77.1454 160.5,76.5C 163.063,76.737 163.063,77.237 160.5,78C 161.116,80.1785 162.283,82.0118 164,83.5C 164.49,84.7932 164.657,86.1266 164.5,87.5C 163.448,87.3505 162.448,87.5172 161.5,88C 162.973,88.7096 163.64,89.8762 163.5,91.5C 163.187,95.0419 163.521,98.3752 164.5,101.5C 164.678,102.936 165.011,104.436 165.5,106C 165.056,107.762 164.556,107.595 164,105.5C 163.48,107.289 163.813,108.956 165,110.5C 165.667,107.833 166.333,107.833 167,110.5C 167.5,121.495 167.667,132.495 167.5,143.5C 167.5,148.167 167.5,152.833 167.5,157.5C 169.948,158.473 172.615,158.806 175.5,158.5C 175.5,143.5 175.5,128.5 175.5,113.5C 180.403,113.86 184.736,112.527 188.5,109.5C 190.017,109.511 191.184,110.177 192,111.5C 192.667,128.5 192.667,145.5 192,162.5C 190.989,163.337 189.822,163.67 188.5,163.5C 187.093,166.039 185.927,165.706 185,162.5C 183.041,164.943 183.708,166.61 187,167.5C 188.651,169.402 188.984,171.402 188,173.5C 190.042,175.604 192.542,176.771 195.5,177C 196.833,177.667 196.833,178.333 195.5,179C 198.29,179.561 200.623,180.894 202.5,183C 204.18,182.229 205.847,182.395 207.5,183.5C 210.052,186.387 211.718,189.72 212.5,193.5C 212.676,196.727 213.343,199.727 214.5,202.5C 214.5,203.167 214.5,203.833 214.5,204.5C 214.5,214.167 214.5,223.833 214.5,233.5C 212.896,234.287 212.229,235.62 212.5,237.5C 211.448,237.351 210.448,237.517 209.5,238C 211.061,238.941 212.395,240.108 213.5,241.5C 212.167,243.167 210.833,244.833 209.5,246.5C 211.36,249.437 212.694,252.603 213.5,256C 212.207,256.49 210.873,256.657 209.5,256.5C 209.48,258.143 210.147,259.476 211.5,260.5C 208.972,261.816 208.972,262.983 211.5,264C 210.643,264.689 209.977,265.522 209.5,266.5C 209.864,268.733 210.864,270.566 212.5,272C 211.643,272.689 210.977,273.522 210.5,274.5C 211.833,275.833 211.833,277.167 210.5,278.5C 213.167,279.833 213.167,281.167 210.5,282.5C 212.104,284.179 212.771,286.179 212.5,288.5C 211.5,288.5 210.5,288.5 209.5,288.5C 209.36,290.124 210.027,291.29 211.5,292C 210.692,292.308 210.025,292.808 209.5,293.5C 210.5,294.333 211.5,295.167 212.5,296C 211.572,296.388 210.905,297.055 210.5,298C 211.388,299.22 212.055,300.553 212.5,302C 211.555,304.089 211.555,306.089 212.5,308C 210.273,308.704 209.94,309.871 211.5,311.5C 210.855,312.812 209.855,313.812 208.5,314.5C 204.728,311.112 200.395,309.112 195.5,308.5C 192.292,307.177 189.125,305.51 186,303.5C 184.699,304.098 183.865,305.098 183.5,306.5C 185.767,307.271 187.6,308.604 189,310.5C 191.078,309.057 191.911,309.724 191.5,312.5C 193.099,312.232 194.432,312.566 195.5,313.5C 194.508,313.328 193.842,313.662 193.5,314.5C 193.5,315.167 193.167,315.5 192.5,315.5C 191.85,315.196 191.183,314.863 190.5,314.5C 187.136,317.732 183.469,320.566 179.5,323C 181.613,326.173 182.613,329.673 182.5,333.5C 179.61,333.278 176.943,333.945 174.5,335.5C 173.481,334.313 172.314,333.313 171,332.5C 171.046,330.687 170.88,329.021 170.5,327.5C 169.572,329.335 168.406,329.668 167,328.5C 166.874,325.937 166.707,323.604 166.5,321.5C 165.119,319.726 165.452,318.226 167.5,317C 167.377,313.878 167.377,310.711 167.5,307.5C 165.599,306.065 165.266,304.398 166.5,302.5C 166.043,301.702 165.376,301.369 164.5,301.5C 164.551,299.43 163.885,297.597 162.5,296C 162.57,295.235 162.903,294.735 163.5,294.5C 164.833,294.5 166.167,294.5 167.5,294.5C 167.5,293.167 167.5,291.833 167.5,290.5C 165.088,290.756 163.421,289.756 162.5,287.5C 161.084,289.139 159.417,289.973 157.5,290C 158.357,289.311 159.023,288.478 159.5,287.5C 157.606,286.055 155.94,284.388 154.5,282.5C 152.31,279.699 149.31,278.033 145.5,277.5C 143.971,277.529 142.804,278.196 142,279.5C 137.322,277.758 132.488,277.258 127.5,278C 126.789,279.255 125.956,280.421 125,281.5C 123.506,280.253 122.006,280.253 120.5,281.5C 119.876,283.754 118.543,285.421 116.5,286.5C 115.548,288.045 115.215,289.712 115.5,291.5C 113.5,291.167 111.5,290.833 109.5,290.5C 109.5,289.5 109.5,288.5 109.5,287.5C 108.178,287.33 107.011,287.663 106,288.5C 105.5,260.835 105.333,233.169 105.5,205.5C 105.5,204.167 105.5,202.833 105.5,201.5C 107.833,198.813 109.833,195.813 111.5,192.5C 112.376,191.749 113.376,191.249 114.5,191C 113.833,190.667 113.167,190.333 112.5,190C 115.544,189.641 115.878,188.974 113.5,188C 114.223,185.28 115.723,183.113 118,181.5C 119.016,182.634 119.683,182.301 120,180.5C 121.049,181.517 122.216,181.684 123.5,181C 122.304,180.346 122.304,179.846 123.5,179.5C 125.322,180.429 126.655,179.762 127.5,177.5C 126.54,176.188 126.706,174.854 128,173.5C 130.13,173.413 132.297,173.413 134.5,173.5C 139.609,172.003 140.609,169.17 137.5,165C 141.826,162.728 146.159,160.395 150.5,158C 149.342,141.574 149.176,125.074 150,108.5C 152.149,105.808 151.983,103.308 149.5,101C 149.833,100.667 150.167,100.333 150.5,100C 149.5,99.6667 148.5,99.3333 147.5,99C 149.158,98.2747 149.658,97.108 149,95.5C 148.23,96.5981 147.397,96.5981 146.5,95.5C 147.008,84.5065 147.342,73.5065 147.5,62.5C 148.825,63.9526 149.658,63.6192 150,61.5C 150.667,62.8333 151.333,62.8333 152,61.5C 152.174,66.6835 152.674,71.6835 153.5,76.5 Z"/></g>
<g><path style="opacity:1" fill="#f2f2f3" d="M 174.5,138.5 C 174.5,144.833 174.5,151.167 174.5,157.5C 172.167,157.5 169.833,157.5 167.5,157.5C 167.5,152.833 167.5,148.167 167.5,143.5C 168.473,141.052 168.806,138.385 168.5,135.5C 171.483,134.324 173.483,135.324 174.5,138.5 Z"/></g>
<g><path style="opacity:1" fill="#989898" d="M 154.5,79.5 C 155.468,81.6074 155.802,83.9407 155.5,86.5C 155.5,91.5 155.5,96.5 155.5,101.5C 154.5,101.5 153.5,101.5 152.5,101.5C 152.334,94.4921 152.5,87.4921 153,80.5C 153.383,79.944 153.883,79.6107 154.5,79.5 Z"/></g>
<g><path style="opacity:1" fill="#3d3b3d" d="M 129.5,162.5 C 130.873,162.343 132.207,162.51 133.5,163C 133.799,165.973 132.965,168.807 131,171.5C 127.922,171.91 124.755,172.91 121.5,174.5C 123.74,172.034 126.407,170.034 129.5,168.5C 130.694,166.484 130.694,164.484 129.5,162.5 Z"/></g>
<g><path style="opacity:1" fill="#222022" d="M 188.5,163.5 C 188.709,164.922 189.209,166.255 190,167.5C 196.57,172.034 202.403,177.367 207.5,183.5C 205.847,182.395 204.18,182.229 202.5,183C 200.623,180.894 198.29,179.561 195.5,179C 196.833,178.333 196.833,177.667 195.5,177C 192.542,176.771 190.042,175.604 188,173.5C 188.984,171.402 188.651,169.402 187,167.5C 183.708,166.61 183.041,164.943 185,162.5C 185.927,165.706 187.093,166.039 188.5,163.5 Z"/></g>
<g><path style="opacity:0.314" fill="#656466" d="M 212.5,193.5 C 214.118,196.171 214.785,199.171 214.5,202.5C 213.343,199.727 212.676,196.727 212.5,193.5 Z"/></g>
<g><path style="opacity:1" fill="#575656" d="M 150.5,201.5 C 152.344,202.204 152.844,203.537 152,205.5C 149.628,204.683 149.128,203.35 150.5,201.5 Z"/></g>
<g><path style="opacity:1" fill="#4a484a" d="M 168.5,201.5 C 170.463,204.395 171.296,207.728 171,211.5C 168.836,208.553 168.002,205.219 168.5,201.5 Z"/></g>
<g><path style="opacity:1" fill="#68686a" d="M 184.5,206.5 C 187.073,207.879 188.573,209.879 189,212.5C 186.873,210.886 185.373,208.886 184.5,206.5 Z"/></g>
<g><path style="opacity:1" fill="#5d0306" d="M 176.5,228.5 C 176.5,228.833 176.5,229.167 176.5,229.5C 169.833,229.5 163.167,229.5 156.5,229.5C 147.5,229.5 138.5,229.5 129.5,229.5C 129.918,228.778 130.584,228.278 131.5,228C 146.672,227.172 161.672,227.339 176.5,228.5 Z"/></g>
<g><path style="opacity:1" fill="#460102" d="M 176.5,229.5 C 176.5,229.167 176.5,228.833 176.5,228.5C 181.844,228.334 187.177,228.501 192.5,229C 194.931,232.078 195.931,235.578 195.5,239.5C 193.886,236.608 192.553,233.608 191.5,230.5C 186.695,229.513 181.695,229.179 176.5,229.5 Z"/></g>
<g><path style="opacity:1" fill="#a61819" d="M 191.5,230.5 C 192.553,233.608 193.886,236.608 195.5,239.5C 195.5,242.833 195.5,246.167 195.5,249.5C 194.167,249.5 192.833,249.5 191.5,249.5C 192.209,248.596 193.209,248.263 194.5,248.5C 194.678,244.878 194.011,241.544 192.5,238.5C 191.908,235.873 191.575,233.206 191.5,230.5 Z"/></g>
<g><path style="opacity:1" fill="#b01a1b" d="M 129.5,229.5 C 138.5,229.5 147.5,229.5 156.5,229.5C 147.936,230.089 139.269,230.922 130.5,232C 129.93,234.756 128.93,237.256 127.5,239.5C 127.31,235.968 127.977,232.635 129.5,229.5 Z"/></g>
<g><path style="opacity:1" fill="#430101" d="M 129.5,229.5 C 127.977,232.635 127.31,235.968 127.5,239.5C 125.882,242.171 125.215,245.171 125.5,248.5C 124.371,246.372 124.204,244.039 125,241.5C 125.994,238.039 126.827,234.539 127.5,231C 127.836,229.97 128.503,229.47 129.5,229.5 Z"/></g>
<g><path style="opacity:1" fill="#ed0806" d="M 192.5,238.5 C 192.704,241.518 193.037,244.518 193.5,247.5C 190.881,247.768 188.381,247.435 186,246.5C 185.316,245.216 185.483,244.049 186.5,243C 185.411,240.149 184.078,237.482 182.5,235C 176.782,234.789 171.115,234.289 165.5,233.5C 162.689,234.08 160.023,234.746 157.5,235.5C 159.087,237.619 158.754,239.286 156.5,240.5C 155.05,239.15 154.383,237.484 154.5,235.5C 151.408,234.736 148.408,234.736 145.5,235.5C 143.034,234.366 140.367,234.199 137.5,235C 135.498,238.153 134.332,241.653 134,245.5C 132.644,246.38 131.144,246.714 129.5,246.5C 129.472,244.418 130.139,242.584 131.5,241C 130.167,238.333 130.167,235.667 131.5,233C 151.12,231.562 170.787,231.062 190.5,231.5C 190.171,234.228 190.837,236.562 192.5,238.5 Z"/></g>
<g><path style="opacity:1" fill="#fdc997" d="M 142.5,236.5 C 143.5,236.5 144.5,236.5 145.5,236.5C 144.543,239.639 143.876,242.639 143.5,245.5C 141.714,243.078 140.048,243.078 138.5,245.5C 137.571,244.311 137.238,242.978 137.5,241.5C 138.161,240.282 138.828,238.949 139.5,237.5C 140.643,241.125 141.976,241.291 143.5,238C 142.944,237.617 142.611,237.117 142.5,236.5 Z"/></g>
<g><path style="opacity:1" fill="#d78b5a" d="M 138.5,236.5 C 139.833,236.5 141.167,236.5 142.5,236.5C 142.611,237.117 142.944,237.617 143.5,238C 141.976,241.291 140.643,241.125 139.5,237.5C 138.828,238.949 138.161,240.282 137.5,241.5C 137.5,240.167 137.5,238.833 137.5,237.5C 137.5,236.833 137.833,236.5 138.5,236.5 Z"/></g>
<g><path style="opacity:1" fill="#db1211" d="M 156.5,229.5 C 163.167,229.5 169.833,229.5 176.5,229.5C 181.695,229.179 186.695,229.513 191.5,230.5C 191.575,233.206 191.908,235.873 192.5,238.5C 190.837,236.562 190.171,234.228 190.5,231.5C 170.787,231.062 151.12,231.562 131.5,233C 130.167,235.667 130.167,238.333 131.5,241C 130.139,242.584 129.472,244.418 129.5,246.5C 131.144,246.714 132.644,246.38 134,245.5C 134.332,241.653 135.498,238.153 137.5,235C 140.367,234.199 143.034,234.366 145.5,235.5C 142.941,235.198 140.607,235.532 138.5,236.5C 137.833,236.5 137.5,236.833 137.5,237.5C 136.657,239.487 135.99,241.654 135.5,244C 135.645,244.772 135.978,245.439 136.5,246C 142.825,246.5 149.158,246.666 155.5,246.5C 150.319,247.167 144.985,247.833 139.5,248.5C 144.5,249.393 148.833,251.56 152.5,255C 156.204,255.804 159.704,255.304 163,253.5C 164.467,253.419 166.134,253.753 168,254.5C 170.472,253.678 172.972,253.011 175.5,252.5C 173.5,253.833 171.5,255.167 169.5,256.5C 166.331,257.624 163.331,259.291 160.5,261.5C 159.378,260.37 158.044,259.703 156.5,259.5C 155.313,257.025 153.313,256.025 150.5,256.5C 150.53,255.503 150.03,254.836 149,254.5C 145.728,253.726 142.561,252.726 139.5,251.5C 138.653,250.034 137.32,249.2 135.5,249C 133.167,248.667 130.833,248.333 128.5,248C 127.556,245.281 127.223,242.448 127.5,239.5C 128.93,237.256 129.93,234.756 130.5,232C 139.269,230.922 147.936,230.089 156.5,229.5 Z"/></g>
<g><path style="opacity:1" fill="#ce2113" d="M 192.5,238.5 C 194.011,241.544 194.678,244.878 194.5,248.5C 193.209,248.263 192.209,248.596 191.5,249.5C 190.167,250.167 188.833,250.833 187.5,251.5C 187.167,251.5 186.833,251.5 186.5,251.5C 183.432,251.547 180.432,252.047 177.5,253C 176.619,253.708 175.953,254.542 175.5,255.5C 173.5,255.833 171.5,256.167 169.5,256.5C 171.5,255.167 173.5,253.833 175.5,252.5C 176.83,251.168 178.497,250.335 180.5,250C 179.3,248.969 177.966,248.135 176.5,247.5C 169.538,246.572 162.538,246.239 155.5,246.5C 149.158,246.666 142.825,246.5 136.5,246C 135.978,245.439 135.645,244.772 135.5,244C 135.99,241.654 136.657,239.487 137.5,237.5C 137.5,238.833 137.5,240.167 137.5,241.5C 137.238,242.978 137.571,244.311 138.5,245.5C 140.048,243.078 141.714,243.078 143.5,245.5C 143.876,242.639 144.543,239.639 145.5,236.5C 144.5,236.5 143.5,236.5 142.5,236.5C 141.167,236.5 139.833,236.5 138.5,236.5C 140.607,235.532 142.941,235.198 145.5,235.5C 148.408,234.736 151.408,234.736 154.5,235.5C 152.901,235.232 151.568,235.566 150.5,236.5C 149.28,238.05 149.28,239.716 150.5,241.5C 150.5,241.833 150.5,242.167 150.5,242.5C 148.402,241.086 147.402,241.752 147.5,244.5C 152.985,245.652 158.651,245.818 164.5,245C 165.044,244.283 165.711,243.783 166.5,243.5C 168.45,245.753 170.784,246.086 173.5,244.5C 174.167,244.5 174.833,244.5 175.5,244.5C 178.084,244.583 180.75,244.583 183.5,244.5C 180.92,242.044 180.92,239.544 183.5,237C 182.552,236.517 181.552,236.351 180.5,236.5C 173.018,235.508 165.352,235.175 157.5,235.5C 160.023,234.746 162.689,234.08 165.5,233.5C 171.115,234.289 176.782,234.789 182.5,235C 184.078,237.482 185.411,240.149 186.5,243C 185.483,244.049 185.316,245.216 186,246.5C 188.381,247.435 190.881,247.768 193.5,247.5C 193.037,244.518 192.704,241.518 192.5,238.5 Z"/></g>
<g><path style="opacity:1" fill="#ec7956" d="M 165.5,237.5 C 166.461,239.265 166.795,241.265 166.5,243.5C 165.711,243.783 165.044,244.283 164.5,245C 158.651,245.818 152.985,245.652 147.5,244.5C 150.385,244.806 153.052,244.473 155.5,243.5C 156.167,243.167 156.833,242.833 157.5,242.5C 158.053,244.552 159.053,244.885 160.5,243.5C 164.446,243.512 166.113,241.512 165.5,237.5 Z"/></g>
<g><path style="opacity:1" fill="#fec093" d="M 150.5,242.5 C 150.56,243.043 150.893,243.376 151.5,243.5C 152.5,242.833 153.5,242.167 154.5,241.5C 155.298,241.957 155.631,242.624 155.5,243.5C 153.052,244.473 150.385,244.806 147.5,244.5C 147.402,241.752 148.402,241.086 150.5,242.5 Z"/></g>
<g><path style="opacity:1" fill="#fcc492" d="M 180.5,236.5 C 181.552,236.351 182.552,236.517 183.5,237C 180.92,239.544 180.92,242.044 183.5,244.5C 180.75,244.583 178.084,244.583 175.5,244.5C 177.895,242.092 177.895,239.759 175.5,237.5C 177.128,237.421 178.795,237.088 180.5,236.5 Z"/></g>
<g><path style="opacity:1" fill="#febe90" d="M 165.5,237.5 C 166.209,236.596 167.209,236.263 168.5,236.5C 168.5,238.833 168.5,241.167 168.5,243.5C 169.5,243.5 170.5,243.5 171.5,243.5C 171.192,241.076 171.526,238.743 172.5,236.5C 173.48,239.086 173.813,241.753 173.5,244.5C 170.784,246.086 168.45,245.753 166.5,243.5C 166.795,241.265 166.461,239.265 165.5,237.5 Z"/></g>
<g><path style="opacity:1" fill="#fec494" d="M 160.5,243.5 C 159.053,244.885 158.053,244.552 157.5,242.5C 158.752,240.076 160.585,238.076 163,236.5C 163.5,236.667 164,236.833 164.5,237C 162.942,239.052 161.608,241.219 160.5,243.5 Z"/></g>
<g><path style="opacity:1" fill="#bc4527" d="M 150.5,236.5 C 151.568,235.566 152.901,235.232 154.5,235.5C 154.383,237.484 155.05,239.15 156.5,240.5C 158.754,239.286 159.087,237.619 157.5,235.5C 165.352,235.175 173.018,235.508 180.5,236.5C 178.795,237.088 177.128,237.421 175.5,237.5C 177.895,239.759 177.895,242.092 175.5,244.5C 174.833,244.5 174.167,244.5 173.5,244.5C 173.813,241.753 173.48,239.086 172.5,236.5C 171.526,238.743 171.192,241.076 171.5,243.5C 170.5,243.5 169.5,243.5 168.5,243.5C 168.5,241.167 168.5,238.833 168.5,236.5C 167.209,236.263 166.209,236.596 165.5,237.5C 166.113,241.512 164.446,243.512 160.5,243.5C 161.608,241.219 162.942,239.052 164.5,237C 164,236.833 163.5,236.667 163,236.5C 160.585,238.076 158.752,240.076 157.5,242.5C 156.833,242.833 156.167,243.167 155.5,243.5C 155.631,242.624 155.298,241.957 154.5,241.5C 153.5,242.167 152.5,242.833 151.5,243.5C 150.893,243.376 150.56,243.043 150.5,242.5C 150.5,242.167 150.5,241.833 150.5,241.5C 153.084,240.952 154.084,239.285 153.5,236.5C 152.5,236.5 151.5,236.5 150.5,236.5 Z"/></g>
<g><path style="opacity:1" fill="#fdce9a" d="M 150.5,236.5 C 151.5,236.5 152.5,236.5 153.5,236.5C 154.084,239.285 153.084,240.952 150.5,241.5C 149.28,239.716 149.28,238.05 150.5,236.5 Z"/></g>
<g><path style="opacity:1" fill="#ac1917" d="M 127.5,239.5 C 127.223,242.448 127.556,245.281 128.5,248C 130.833,248.333 133.167,248.667 135.5,249C 137.32,249.2 138.653,250.034 139.5,251.5C 137.833,251.5 136.167,251.5 134.5,251.5C 131.551,250.632 128.551,249.632 125.5,248.5C 125.215,245.171 125.882,242.171 127.5,239.5 Z"/></g>
<g><path style="opacity:1" fill="#f50405" d="M 155.5,246.5 C 162.538,246.239 169.538,246.572 176.5,247.5C 177.966,248.135 179.3,248.969 180.5,250C 178.497,250.335 176.83,251.168 175.5,252.5C 172.972,253.011 170.472,253.678 168,254.5C 166.134,253.753 164.467,253.419 163,253.5C 159.704,255.304 156.204,255.804 152.5,255C 148.833,251.56 144.5,249.393 139.5,248.5C 144.985,247.833 150.319,247.167 155.5,246.5 Z"/></g>
<g><path style="opacity:1" fill="#500204" d="M 195.5,239.5 C 196.948,242.596 197.448,245.929 197,249.5C 194.003,250.866 190.836,251.533 187.5,251.5C 188.833,250.833 190.167,250.167 191.5,249.5C 192.833,249.5 194.167,249.5 195.5,249.5C 195.5,246.167 195.5,242.833 195.5,239.5 Z"/></g>
<g><path style="opacity:1" fill="#62060a" d="M 134.5,251.5 C 136.167,251.5 137.833,251.5 139.5,251.5C 142.561,252.726 145.728,253.726 149,254.5C 150.03,254.836 150.53,255.503 150.5,256.5C 144.776,255.772 139.442,254.105 134.5,251.5 Z"/></g>
<g><path style="opacity:1" fill="#370602" d="M 186.5,251.5 C 183.431,254.19 179.764,255.523 175.5,255.5C 175.953,254.542 176.619,253.708 177.5,253C 180.432,252.047 183.432,251.547 186.5,251.5 Z"/></g>
<g><path style="opacity:1" fill="#891012" d="M 150.5,256.5 C 153.313,256.025 155.313,257.025 156.5,259.5C 154.033,259.245 152.033,258.245 150.5,256.5 Z"/></g>
<g><path style="opacity:1" fill="#590405" d="M 175.5,255.5 C 171.489,257.566 167.489,259.733 163.5,262C 160.386,263.087 158.053,262.254 156.5,259.5C 158.044,259.703 159.378,260.37 160.5,261.5C 163.331,259.291 166.331,257.624 169.5,256.5C 171.5,256.167 173.5,255.833 175.5,255.5 Z"/></g>
<g><path style="opacity:0.69" fill="#362d30" d="M 214.5,233.5 C 214.5,265.167 214.5,296.833 214.5,328.5C 213.118,327.199 211.452,326.366 209.5,326C 213.745,324.092 214.412,321.425 211.5,318C 213.957,316.488 213.957,315.154 211.5,314C 212.774,313.023 212.774,312.189 211.5,311.5C 209.94,309.871 210.273,308.704 212.5,308C 211.555,306.089 211.555,304.089 212.5,302C 212.055,300.553 211.388,299.22 210.5,298C 210.905,297.055 211.572,296.388 212.5,296C 211.5,295.167 210.5,294.333 209.5,293.5C 210.025,292.808 210.692,292.308 211.5,292C 210.027,291.29 209.36,290.124 209.5,288.5C 210.5,288.5 211.5,288.5 212.5,288.5C 212.771,286.179 212.104,284.179 210.5,282.5C 213.167,281.167 213.167,279.833 210.5,278.5C 211.833,277.167 211.833,275.833 210.5,274.5C 210.977,273.522 211.643,272.689 212.5,272C 210.864,270.566 209.864,268.733 209.5,266.5C 209.977,265.522 210.643,264.689 211.5,264C 208.972,262.983 208.972,261.816 211.5,260.5C 210.147,259.476 209.48,258.143 209.5,256.5C 210.873,256.657 212.207,256.49 213.5,256C 212.694,252.603 211.36,249.437 209.5,246.5C 210.833,244.833 212.167,243.167 213.5,241.5C 212.395,240.108 211.061,238.941 209.5,238C 210.448,237.517 211.448,237.351 212.5,237.5C 212.229,235.62 212.896,234.287 214.5,233.5 Z"/></g>
<g><path style="opacity:1" fill="#544b2e" d="M 151.5,285.5 C 151.5,285.833 151.5,286.167 151.5,286.5C 150.448,286.649 149.448,286.483 148.5,286C 149.602,283.609 148.936,283.109 146.5,284.5C 145.833,283.833 145.167,283.167 144.5,282.5C 142.827,284.086 140.827,284.753 138.5,284.5C 139.167,283.833 139.833,283.167 140.5,282.5C 141.756,282.096 142.923,281.429 144,280.5C 146.099,281.287 148.266,281.62 150.5,281.5C 150.232,283.099 150.566,284.432 151.5,285.5 Z"/></g>
<g><path style="opacity:1" fill="#7e7245" d="M 140.5,282.5 C 139.833,283.167 139.167,283.833 138.5,284.5C 137.508,284.328 136.842,284.662 136.5,285.5C 132.879,285.708 129.546,286.708 126.5,288.5C 126.297,286.956 125.63,285.622 124.5,284.5C 126.672,283.795 128.672,282.795 130.5,281.5C 131.086,281.709 131.586,282.043 132,282.5C 132.739,281.426 133.739,280.759 135,280.5C 136.333,281.833 137.667,281.833 139,280.5C 140.03,280.836 140.53,281.503 140.5,282.5 Z"/></g>
<g><path style="opacity:1" fill="#e5d45c" d="M 136.5,285.5 C 137.404,286.209 137.737,287.209 137.5,288.5C 137.325,290.621 137.659,292.621 138.5,294.5C 137.668,295.329 138.001,296.162 139.5,297C 138.667,297.167 137.833,297.333 137,297.5C 135.2,296.622 133.367,295.955 131.5,295.5C 130.833,294.167 129.833,293.167 128.5,292.5C 127.1,291.9 126.1,290.9 125.5,289.5C 125.5,288.833 125.833,288.5 126.5,288.5C 129.546,286.708 132.879,285.708 136.5,285.5 Z"/></g>
<g><path style="opacity:1" fill="#8d8357" d="M 154.5,282.5 C 155.94,284.388 157.606,286.055 159.5,287.5C 159.023,288.478 158.357,289.311 157.5,290C 159.417,289.973 161.084,289.139 162.5,287.5C 163.421,289.756 165.088,290.756 167.5,290.5C 167.5,291.833 167.5,293.167 167.5,294.5C 166.167,294.5 164.833,294.5 163.5,294.5C 159.016,292.754 155.016,290.087 151.5,286.5C 151.5,286.167 151.5,285.833 151.5,285.5C 151.5,283.5 152.5,282.5 154.5,282.5 Z"/></g>
<g><path style="opacity:1" fill="#79735e" d="M 124.5,290.5 C 123.5,291.5 122.5,292.5 121.5,293.5C 121.631,292.761 121.464,292.094 121,291.5C 120.051,293.093 118.885,294.426 117.5,295.5C 117.5,294.833 117.167,294.5 116.5,294.5C 117.484,291.556 118.817,288.89 120.5,286.5C 121.5,286.5 122.5,286.5 123.5,286.5C 123.64,288.124 122.973,289.29 121.5,290C 122.448,290.483 123.448,290.649 124.5,290.5 Z"/></g>
<g><path style="opacity:1" fill="#110b04" d="M 138.5,294.5 C 137.659,292.621 137.325,290.621 137.5,288.5C 143.558,287.164 149.225,288.33 154.5,292C 158.645,295.474 158.478,298.307 154,300.5C 151.277,299.459 148.777,297.959 146.5,296C 143.746,295.728 141.079,295.228 138.5,294.5 Z"/></g>
<g><path style="opacity:1" fill="#9e967e" d="M 168.5,293.5 C 170.799,294.138 172.966,295.138 175,296.5C 175.388,298.076 174.888,299.409 173.5,300.5C 171.641,298.808 169.641,297.308 167.5,296C 168.252,295.329 168.586,294.496 168.5,293.5 Z"/></g>
<g><path style="opacity:1" fill="#766e59" d="M 182.5,301.5 C 180.517,301.157 179.183,301.824 178.5,303.5C 175.611,303.001 174.944,301.501 176.5,299C 178.979,298.638 180.979,299.471 182.5,301.5 Z"/></g>
<g><path style="opacity:1" fill="#d4c97a" d="M 151.5,286.5 C 155.016,290.087 159.016,292.754 163.5,294.5C 162.903,294.735 162.57,295.235 162.5,296C 163.885,297.597 164.551,299.43 164.5,301.5C 165.376,301.369 166.043,301.702 166.5,302.5C 165.266,304.398 165.599,306.065 167.5,307.5C 167.377,310.711 167.377,313.878 167.5,317C 165.452,318.226 165.119,319.726 166.5,321.5C 163.511,325.132 160.678,329.465 158,334.5C 157.667,334.167 157.333,333.833 157,333.5C 155.532,334.989 154.032,336.323 152.5,337.5C 151.833,337.5 151.167,337.5 150.5,337.5C 152.159,336.166 153.492,334.499 154.5,332.5C 153.719,328.776 151.719,327.776 148.5,329.5C 150.113,328.162 150.613,326.495 150,324.5C 149.692,325.308 149.192,325.975 148.5,326.5C 147.575,325.359 146.741,325.359 146,326.5C 144.913,324.068 144.413,324.402 144.5,327.5C 142.473,327.662 140.473,327.495 138.5,327C 134.99,324.818 131.49,322.651 128,320.5C 126.115,320.862 125.281,322.029 125.5,324C 129.109,331.313 135.109,334.813 143.5,334.5C 141.031,335.317 138.365,335.817 135.5,336C 136.667,336.5 137.5,337.333 138,338.5C 138.333,337.833 138.667,337.167 139,336.5C 140.33,337.582 141.83,338.249 143.5,338.5C 143.5,339.833 142.833,340.5 141.5,340.5C 137.848,341.503 134.515,340.836 131.5,338.5C 132.412,337.262 132.579,335.928 132,334.5C 129.931,332.915 127.764,331.581 125.5,330.5C 125.539,329.244 125.039,328.244 124,327.5C 123.764,329.119 122.931,330.119 121.5,330.5C 120.468,328.622 119.134,326.955 117.5,325.5C 117.281,324.325 117.614,323.325 118.5,322.5C 119.735,323.34 120.735,324.34 121.5,325.5C 122.397,326.598 123.23,326.598 124,325.5C 124.868,322.515 125.201,319.515 125,316.5C 122.189,314.82 120.356,315.487 119.5,318.5C 116.46,309.969 117.127,301.636 121.5,293.5C 122.5,292.5 123.5,291.5 124.5,290.5C 124.5,289.833 124.833,289.5 125.5,289.5C 126.1,290.9 127.1,291.9 128.5,292.5C 124.281,293.548 121.447,296.215 120,300.5C 119.333,304.5 119.333,308.5 120,312.5C 122,315.167 124,315.167 126,312.5C 126.333,309.833 126.667,307.167 127,304.5C 129.225,301.8 130.725,298.8 131.5,295.5C 133.367,295.955 135.2,296.622 137,297.5C 137.833,297.333 138.667,297.167 139.5,297C 138.001,296.162 137.668,295.329 138.5,294.5C 141.079,295.228 143.746,295.728 146.5,296C 148.777,297.959 151.277,299.459 154,300.5C 158.478,298.307 158.645,295.474 154.5,292C 149.225,288.33 143.558,287.164 137.5,288.5C 137.737,287.209 137.404,286.209 136.5,285.5C 136.842,284.662 137.508,284.328 138.5,284.5C 140.827,284.753 142.827,284.086 144.5,282.5C 145.167,283.167 145.833,283.833 146.5,284.5C 148.936,283.109 149.602,283.609 148.5,286C 149.448,286.483 150.448,286.649 151.5,286.5 Z"/></g>
<g><path style="opacity:1" fill="#120d06" d="M 128.5,292.5 C 129.833,293.167 130.833,294.167 131.5,295.5C 130.725,298.8 129.225,301.8 127,304.5C 126.667,307.167 126.333,309.833 126,312.5C 124,315.167 122,315.167 120,312.5C 119.333,308.5 119.333,304.5 120,300.5C 121.447,296.215 124.281,293.548 128.5,292.5 Z"/></g>
<g><path style="opacity:1" fill="#0a0705" d="M 136.5,299.5 C 148.491,298.326 153.991,303.659 153,315.5C 149.54,322.812 144.04,324.979 136.5,322C 131.105,317.705 129.271,312.205 131,305.5C 132.36,302.977 134.193,300.977 136.5,299.5 Z"/></g>
<g><path style="opacity:1" fill="#ecd843" d="M 164.5,301.5 C 164.741,303.886 164.075,305.886 162.5,307.5C 162.167,307.5 161.833,307.5 161.5,307.5C 159.777,306.193 157.943,306.193 156,307.5C 154.635,306.407 154.301,305.074 155,303.5C 157.4,301.498 159.067,299.498 160,297.5C 161.715,298.604 163.215,299.938 164.5,301.5 Z"/></g>
<g><path style="opacity:1" fill="#bab290" d="M 182.5,301.5 C 183.459,305.692 182.126,306.358 178.5,303.5C 179.183,301.824 180.517,301.157 182.5,301.5 Z"/></g>
<g><path style="opacity:1" fill="#afa678" d="M 195.5,308.5 C 196.448,309.978 197.781,310.978 199.5,311.5C 199.163,314.336 197.829,315.002 195.5,313.5C 194.432,312.566 193.099,312.232 191.5,312.5C 191.911,309.724 191.078,309.057 189,310.5C 187.6,308.604 185.767,307.271 183.5,306.5C 183.865,305.098 184.699,304.098 186,303.5C 189.125,305.51 192.292,307.177 195.5,308.5 Z"/></g>
<g><path style="opacity:1" fill="#ccc280" d="M 116.5,294.5 C 117.167,294.5 117.5,294.833 117.5,295.5C 117.353,298.443 116.687,301.276 115.5,304C 115.645,304.772 115.978,305.439 116.5,306C 116.12,308.326 115.12,310.159 113.5,311.5C 113.466,307.601 113.466,303.601 113.5,299.5C 114.793,297.897 115.793,296.231 116.5,294.5 Z"/></g>
<g><path style="opacity:1" fill="#887a2b" d="M 121.5,293.5 C 117.127,301.636 116.46,309.969 119.5,318.5C 120.566,320.701 121.233,323.035 121.5,325.5C 120.735,324.34 119.735,323.34 118.5,322.5C 117.614,323.325 117.281,324.325 117.5,325.5C 116.655,324.329 115.989,322.995 115.5,321.5C 116.675,321.719 117.675,321.386 118.5,320.5C 117.054,318.382 116.387,316.049 116.5,313.5C 115.5,313.5 114.5,313.5 113.5,313.5C 113.5,312.833 113.5,312.167 113.5,311.5C 115.12,310.159 116.12,308.326 116.5,306C 115.978,305.439 115.645,304.772 115.5,304C 116.687,301.276 117.353,298.443 117.5,295.5C 118.885,294.426 120.051,293.093 121,291.5C 121.464,292.094 121.631,292.761 121.5,293.5 Z"/></g>
<g><path style="opacity:1" fill="#130d04" d="M 161.5,307.5 C 161.833,307.5 162.167,307.5 162.5,307.5C 165.377,316.533 163.044,323.867 155.5,329.5C 150.417,326.521 150.25,323.188 155,319.5C 156.036,316.247 156.703,312.914 157,309.5C 158.11,307.963 159.61,307.297 161.5,307.5 Z"/></g>
<g><path style="opacity:1" fill="#0d0b0c" d="M 105.5,205.5 C 105.333,233.169 105.5,260.835 106,288.5C 107.011,287.663 108.178,287.33 109.5,287.5C 109.5,288.5 109.5,289.5 109.5,290.5C 111.5,290.833 113.5,291.167 115.5,291.5C 115.215,289.712 115.548,288.045 116.5,286.5C 118.543,285.421 119.876,283.754 120.5,281.5C 122.006,280.253 123.506,280.253 125,281.5C 125.956,280.421 126.789,279.255 127.5,278C 132.488,277.258 137.322,277.758 142,279.5C 142.804,278.196 143.971,277.529 145.5,277.5C 149.31,278.033 152.31,279.699 154.5,282.5C 152.5,282.5 151.5,283.5 151.5,285.5C 150.566,284.432 150.232,283.099 150.5,281.5C 148.266,281.62 146.099,281.287 144,280.5C 142.923,281.429 141.756,282.096 140.5,282.5C 140.53,281.503 140.03,280.836 139,280.5C 137.667,281.833 136.333,281.833 135,280.5C 133.739,280.759 132.739,281.426 132,282.5C 131.586,282.043 131.086,281.709 130.5,281.5C 128.672,282.795 126.672,283.795 124.5,284.5C 125.63,285.622 126.297,286.956 126.5,288.5C 125.833,288.5 125.5,288.833 125.5,289.5C 124.833,289.5 124.5,289.833 124.5,290.5C 123.448,290.649 122.448,290.483 121.5,290C 122.973,289.29 123.64,288.124 123.5,286.5C 122.5,286.5 121.5,286.5 120.5,286.5C 118.817,288.89 117.484,291.556 116.5,294.5C 115.793,296.231 114.793,297.897 113.5,299.5C 113.466,303.601 113.466,307.601 113.5,311.5C 113.5,312.167 113.5,312.833 113.5,313.5C 114.639,316.004 115.306,318.67 115.5,321.5C 115.989,322.995 116.655,324.329 117.5,325.5C 119.134,326.955 120.468,328.622 121.5,330.5C 121.833,331.5 122.5,332.167 123.5,332.5C 124.973,334.395 126.64,336.061 128.5,337.5C 129.209,338.404 130.209,338.737 131.5,338.5C 134.515,340.836 137.848,341.503 141.5,340.5C 141.611,341.117 141.944,341.617 142.5,342C 144.473,342.495 146.473,342.662 148.5,342.5C 149.5,341.167 150.5,341.167 151.5,342.5C 151.833,342.5 152.167,342.5 152.5,342.5C 155.579,342.26 158.579,342.593 161.5,343.5C 163.068,341.456 164.902,341.122 167,342.5C 168.31,341.87 169.144,340.87 169.5,339.5C 170.167,339.5 170.5,339.833 170.5,340.5C 171.077,342.652 172.244,342.985 174,341.5C 175.667,342.167 177.333,342.833 179,343.5C 180.333,342.167 181.667,342.167 183,343.5C 183.995,342.934 184.828,342.267 185.5,341.5C 186.492,341.672 187.158,341.338 187.5,340.5C 188.583,340.539 189.583,340.873 190.5,341.5C 192.51,339.829 194.843,339.162 197.5,339.5C 197.263,338.209 197.596,337.209 198.5,336.5C 198.783,337.289 199.283,337.956 200,338.5C 205.409,334.615 208.242,329.615 208.5,323.5C 208.162,321.146 207.662,318.813 207,316.5C 205.989,315.663 204.822,315.33 203.5,315.5C 203.715,313.821 203.048,312.821 201.5,312.5C 200.833,312.167 200.167,311.833 199.5,311.5C 197.781,310.978 196.448,309.978 195.5,308.5C 200.395,309.112 204.728,311.112 208.5,314.5C 209.855,313.812 210.855,312.812 211.5,311.5C 212.774,312.189 212.774,313.023 211.5,314C 213.957,315.154 213.957,316.488 211.5,318C 214.412,321.425 213.745,324.092 209.5,326C 211.452,326.366 213.118,327.199 214.5,328.5C 214.5,328.833 214.5,329.167 214.5,329.5C 213.761,329.369 213.094,329.536 212.5,330C 212.721,331.799 213.054,333.632 213.5,335.5C 209.5,336.833 209.5,338.167 213.5,339.5C 209.66,340.86 209.66,342.36 213.5,344C 209.544,345.114 209.544,345.947 213.5,346.5C 213.5,348.5 213.5,350.5 213.5,352.5C 208.167,353.167 208.167,353.833 213.5,354.5C 213.375,358.791 213.375,363.125 213.5,367.5C 210.833,368.833 210.833,370.167 213.5,371.5C 210.833,372.833 210.833,374.167 213.5,375.5C 212.833,376.167 212.167,376.833 211.5,377.5C 213.173,379.523 213.84,381.856 213.5,384.5C 212.5,384.5 211.5,384.5 210.5,384.5C 210.36,386.124 211.027,387.29 212.5,388C 211.833,388.667 211.167,389.333 210.5,390C 212.25,391.754 212.917,393.921 212.5,396.5C 208.544,397.053 208.544,397.886 212.5,399C 209.714,401.021 210.047,402.521 213.5,403.5C 212.335,404.584 211.002,405.417 209.5,406C 213.213,406.23 213.88,407.397 211.5,409.5C 212.325,410.386 213.325,410.719 214.5,410.5C 214.92,420.604 214.254,430.604 212.5,440.5C 209.335,439.122 208.668,437.289 210.5,435C 209.773,433.601 209.273,432.101 209,430.5C 208.517,431.448 208.351,432.448 208.5,433.5C 206.063,432.613 203.73,431.78 201.5,431C 200.443,434.968 201.777,438.134 205.5,440.5C 204.478,441.354 203.645,442.354 203,443.5C 199.257,436.698 196.091,437.032 193.5,444.5C 195.167,444.5 196.833,444.5 198.5,444.5C 199.813,446.518 199.147,447.685 196.5,448C 198.047,450.773 199.047,453.773 199.5,457C 198.978,457.561 198.645,458.228 198.5,459C 199.347,460.771 200.68,461.937 202.5,462.5C 199.833,462.5 197.167,462.5 194.5,462.5C 193.508,462.672 192.842,462.338 192.5,461.5C 193.345,460.329 194.011,458.995 194.5,457.5C 195.289,457.217 195.956,456.717 196.5,456C 194.866,455.506 193.199,455.34 191.5,455.5C 191.029,454.099 190.362,452.766 189.5,451.5C 189.264,452.247 188.93,453.08 188.5,454C 186.833,454.667 185.167,454.667 183.5,454C 185.787,452.573 186.12,450.739 184.5,448.5C 182.389,447.051 180.056,446.051 177.5,445.5C 176.035,446.609 175.035,446.109 174.5,444C 175.263,443.056 176.263,442.556 177.5,442.5C 181.98,442.996 186.813,443.329 192,443.5C 192.921,442.292 193.421,440.958 193.5,439.5C 195.229,438.764 196.229,437.43 196.5,435.5C 197.656,427.677 197.823,419.677 197,411.5C 196.617,410.944 196.117,410.611 195.5,410.5C 195.389,409.883 195.056,409.383 194.5,409C 187.156,408.548 179.823,408.715 172.5,409.5C 165.833,409.5 159.167,409.5 152.5,409.5C 151.402,408.603 151.402,407.77 152.5,407C 151.584,406.722 150.918,406.222 150.5,405.5C 154.167,405.5 157.833,405.5 161.5,405.5C 161.833,405.5 162.167,405.5 162.5,405.5C 166.971,406.089 170.971,405.423 174.5,403.5C 176.499,404.857 177.665,404.19 178,401.5C 178.399,401.728 178.565,402.062 178.5,402.5C 179.953,404.229 181.953,405.229 184.5,405.5C 187.012,404.62 189.179,403.287 191,401.5C 192.516,404.051 193.349,403.718 193.5,400.5C 192.432,399.566 191.099,399.232 189.5,399.5C 189.6,396.892 188.933,394.558 187.5,392.5C 187.461,391.417 187.127,390.417 186.5,389.5C 185.743,388.227 185.077,388.227 184.5,389.5C 181.1,387.661 179.6,388.328 180,391.5C 178.667,387.5 177.333,387.5 176,391.5C 175.764,389.881 174.931,388.881 173.5,388.5C 171.473,388.338 169.473,388.505 167.5,389C 168.883,390.461 168.549,391.294 166.5,391.5C 165.817,389.824 164.483,389.157 162.5,389.5C 161.33,387.721 159.664,386.721 157.5,386.5C 156.904,384.602 156.904,382.935 157.5,381.5C 158.873,381.657 160.207,381.49 161.5,381C 162.542,379.082 163.708,377.249 165,375.5C 165.833,377.167 166.667,378.833 167.5,380.5C 169.5,381.833 171.5,381.833 173.5,380.5C 171.793,377.144 170.127,373.81 168.5,370.5C 169.389,367.611 170.722,364.945 172.5,362.5C 171.167,361.167 169.833,361.167 168.5,362.5C 166.653,367.751 164.987,367.584 163.5,362C 161.527,361.505 159.527,361.338 157.5,361.5C 156.833,361.833 156.167,362.167 155.5,362.5C 147.588,359.187 143.255,362.02 142.5,371C 142.481,374.03 143.147,376.863 144.5,379.5C 144.829,381.991 145.829,384.157 147.5,386C 144.305,386.181 141.305,386.681 138.5,387.5C 137.542,387.953 136.708,388.619 136,389.5C 133.582,387.32 130.916,386.987 128,388.5C 127.326,387.422 126.326,386.755 125,386.5C 123.134,387.247 121.467,387.581 120,387.5C 117.522,385.713 114.689,384.713 111.5,384.5C 110.549,385.919 110.216,387.585 110.5,389.5C 113.833,389.833 117.167,390.167 120.5,390.5C 122.773,391.735 124.606,391.402 126,389.5C 127,392.167 128,392.167 129,389.5C 129.483,390.448 129.649,391.448 129.5,392.5C 132.993,392.002 136.326,392.002 139.5,392.5C 139.719,393.675 139.386,394.675 138.5,395.5C 137.473,394.209 136.473,394.209 135.5,395.5C 133.833,395.5 132.167,395.5 130.5,395.5C 130.263,396.791 130.596,397.791 131.5,398.5C 129.735,399.461 127.735,399.795 125.5,399.5C 124.25,399.577 123.417,400.244 123,401.5C 120.756,397.277 119.59,397.611 119.5,402.5C 126.833,403.167 134.167,403.833 141.5,404.5C 141.5,403.5 141.5,402.5 141.5,401.5C 141.833,400.167 142.167,400.167 142.5,401.5C 142.263,402.791 142.596,403.791 143.5,404.5C 144.234,405.708 144.567,407.041 144.5,408.5C 142.167,408.5 139.833,408.5 137.5,408.5C 133.958,408.62 130.458,408.286 127,407.5C 124.849,407.643 123.182,408.643 122,410.5C 121.5,418.827 121.334,427.16 121.5,435.5C 121.443,436.609 121.11,437.609 120.5,438.5C 120.565,438.938 120.399,439.272 120,439.5C 118.242,438.531 117.742,437.364 118.5,436C 117.319,430.35 116.486,424.517 116,418.5C 116.491,425.554 114.657,431.721 110.5,437C 110.833,437.333 111.167,437.667 111.5,438C 110.552,438.483 109.552,438.649 108.5,438.5C 108.657,439.873 108.49,441.207 108,442.5C 107.333,443.833 106.667,443.833 106,442.5C 105.5,456.496 105.333,470.496 105.5,484.5C 104.167,391.5 104.167,298.5 105.5,205.5 Z"/></g>
<g><path style="opacity:1" fill="#4f4734" d="M 198.5,334.5 C 198.5,335.167 198.5,335.833 198.5,336.5C 197.596,337.209 197.263,338.209 197.5,339.5C 194.843,339.162 192.51,339.829 190.5,341.5C 189.583,340.873 188.583,340.539 187.5,340.5C 187.5,339.5 187.5,338.5 187.5,337.5C 189.698,337.591 190.031,336.925 188.5,335.5C 191.939,335.747 195.272,335.414 198.5,334.5 Z"/></g>
<g><path style="opacity:1" fill="#8f8446" d="M 150.5,337.5 C 151.167,337.5 151.833,337.5 152.5,337.5C 150.849,338.547 149.183,339.714 147.5,341C 148.056,341.383 148.389,341.883 148.5,342.5C 146.473,342.662 144.473,342.495 142.5,342C 141.944,341.617 141.611,341.117 141.5,340.5C 142.833,340.5 143.5,339.833 143.5,338.5C 145.607,337.532 147.941,337.198 150.5,337.5 Z"/></g>
<g><path style="opacity:1" fill="#87816f" d="M 187.5,337.5 C 187.5,338.5 187.5,339.5 187.5,340.5C 187.158,341.338 186.492,341.672 185.5,341.5C 184.821,339.186 183.488,338.853 181.5,340.5C 180.167,339.167 180.167,337.833 181.5,336.5C 183.605,336.753 185.605,337.087 187.5,337.5 Z"/></g>
<g><path style="opacity:1" fill="#efde5f" d="M 150.5,337.5 C 147.941,337.198 145.607,337.532 143.5,338.5C 141.83,338.249 140.33,337.582 139,336.5C 138.667,337.167 138.333,337.833 138,338.5C 137.5,337.333 136.667,336.5 135.5,336C 138.365,335.817 141.031,335.317 143.5,334.5C 144.492,334.672 145.158,334.338 145.5,333.5C 146.022,331.781 147.022,330.448 148.5,329.5C 151.719,327.776 153.719,328.776 154.5,332.5C 153.492,334.499 152.159,336.166 150.5,337.5 Z"/></g>
<g><path style="opacity:1" fill="#e4d77d" d="M 125.5,330.5 C 127.004,332.836 129.004,334.669 131.5,336C 130.756,337.039 129.756,337.539 128.5,337.5C 126.64,336.061 124.973,334.395 123.5,332.5C 123.833,331.5 124.5,330.833 125.5,330.5 Z"/></g>
<g><path style="opacity:1" fill="#8b7c1f" d="M 125.5,330.5 C 127.764,331.581 129.931,332.915 132,334.5C 132.579,335.928 132.412,337.262 131.5,338.5C 130.209,338.737 129.209,338.404 128.5,337.5C 129.756,337.539 130.756,337.039 131.5,336C 129.004,334.669 127.004,332.836 125.5,330.5 Z"/></g>
<g><path style="opacity:1" fill="#7c7032" d="M 125.5,330.5 C 124.5,330.833 123.833,331.5 123.5,332.5C 122.5,332.167 121.833,331.5 121.5,330.5C 122.931,330.119 123.764,329.119 124,327.5C 125.039,328.244 125.539,329.244 125.5,330.5 Z"/></g>
<g><path style="opacity:1" fill="#dbcb5e" d="M 193.5,314.5 C 195.435,315.15 197.435,315.483 199.5,315.5C 199.5,316.167 199.5,316.833 199.5,317.5C 195.921,317.316 192.587,317.983 189.5,319.5C 189.714,321.144 189.38,322.644 188.5,324C 189.819,324.195 191.153,324.028 192.5,323.5C 191.551,327.226 193.218,328.893 197.5,328.5C 198.275,326.388 198.275,324.388 197.5,322.5C 198.586,322.62 199.253,323.287 199.5,324.5C 198.777,326.782 198.443,329.116 198.5,331.5C 199.5,331.5 200.5,331.5 201.5,331.5C 200.694,332.728 199.694,333.728 198.5,334.5C 195.272,335.414 191.939,335.747 188.5,335.5C 187.77,333.955 186.437,333.122 184.5,333C 187.249,330.81 186.915,329.143 183.5,328C 185.754,326.946 186.087,325.446 184.5,323.5C 186.882,320.452 189.548,317.785 192.5,315.5C 193.167,315.5 193.5,315.167 193.5,314.5 Z"/></g>
<g><path style="opacity:1" fill="#181510" d="M 192.5,315.5 C 189.548,317.785 186.882,320.452 184.5,323.5C 186.087,325.446 185.754,326.946 183.5,328C 186.915,329.143 187.249,330.81 184.5,333C 186.437,333.122 187.77,333.955 188.5,335.5C 190.031,336.925 189.698,337.591 187.5,337.5C 185.605,337.087 183.605,336.753 181.5,336.5C 180.167,337.833 180.167,339.167 181.5,340.5C 183.488,338.853 184.821,339.186 185.5,341.5C 184.828,342.267 183.995,342.934 183,343.5C 181.667,342.167 180.333,342.167 179,343.5C 177.333,342.833 175.667,342.167 174,341.5C 172.244,342.985 171.077,342.652 170.5,340.5C 172.991,338.832 175.158,339.166 177,341.5C 178.564,339.335 178.397,337.668 176.5,336.5C 173.655,336.766 171.322,337.766 169.5,339.5C 169.144,340.87 168.31,341.87 167,342.5C 164.902,341.122 163.068,341.456 161.5,343.5C 158.579,342.593 155.579,342.26 152.5,342.5C 152.706,340.451 153.539,340.117 155,341.5C 157.694,340.994 159.194,339.827 159.5,338C 156.821,338.158 154.154,338.658 151.5,339.5C 151.5,340.5 151.5,341.5 151.5,342.5C 150.5,341.167 149.5,341.167 148.5,342.5C 148.389,341.883 148.056,341.383 147.5,341C 149.183,339.714 150.849,338.547 152.5,337.5C 154.032,336.323 155.532,334.989 157,333.5C 157.333,333.833 157.667,334.167 158,334.5C 160.678,329.465 163.511,325.132 166.5,321.5C 166.707,323.604 166.874,325.937 167,328.5C 168.406,329.668 169.572,329.335 170.5,327.5C 170.88,329.021 171.046,330.687 171,332.5C 172.314,333.313 173.481,334.313 174.5,335.5C 176.943,333.945 179.61,333.278 182.5,333.5C 182.613,329.673 181.613,326.173 179.5,323C 183.469,320.566 187.136,317.732 190.5,314.5C 191.183,314.863 191.85,315.196 192.5,315.5 Z"/></g>
<g><path style="opacity:1" fill="#878474" d="M 170.5,340.5 C 170.5,339.833 170.167,339.5 169.5,339.5C 171.322,337.766 173.655,336.766 176.5,336.5C 178.397,337.668 178.564,339.335 177,341.5C 175.158,339.166 172.991,338.832 170.5,340.5 Z"/></g>
<g><path style="opacity:1" fill="#625d4f" d="M 160.5,337.5 C 163.187,337.336 165.854,337.503 168.5,338C 167.708,340.336 166.375,340.836 164.5,339.5C 163.252,340.04 162.085,340.707 161,341.5C 160.51,340.207 160.343,338.873 160.5,337.5 Z"/></g>
<g><path style="opacity:1" fill="#666255" d="M 152.5,342.5 C 152.167,342.5 151.833,342.5 151.5,342.5C 151.5,341.5 151.5,340.5 151.5,339.5C 154.154,338.658 156.821,338.158 159.5,338C 159.194,339.827 157.694,340.994 155,341.5C 153.539,340.117 152.706,340.451 152.5,342.5 Z"/></g>
<g><path style="opacity:1" fill="#a29338" d="M 148.5,329.5 C 147.022,330.448 146.022,331.781 145.5,333.5C 145.675,331.379 145.341,329.379 144.5,327.5C 144.413,324.402 144.913,324.068 146,326.5C 146.741,325.359 147.575,325.359 148.5,326.5C 149.192,325.975 149.692,325.308 150,324.5C 150.613,326.495 150.113,328.162 148.5,329.5 Z"/></g>
<g><path style="opacity:1" fill="#120c04" d="M 144.5,327.5 C 145.341,329.379 145.675,331.379 145.5,333.5C 145.158,334.338 144.492,334.672 143.5,334.5C 135.109,334.813 129.109,331.313 125.5,324C 125.281,322.029 126.115,320.862 128,320.5C 131.49,322.651 134.99,324.818 138.5,327C 140.473,327.495 142.473,327.662 144.5,327.5 Z"/></g>
<g><path style="opacity:1" fill="#918442" d="M 199.5,315.5 C 202.813,317.813 205.813,320.48 208.5,323.5C 208.242,329.615 205.409,334.615 200,338.5C 199.283,337.956 198.783,337.289 198.5,336.5C 198.5,335.833 198.5,335.167 198.5,334.5C 199.694,333.728 200.694,332.728 201.5,331.5C 205.663,326.029 204.996,321.363 199.5,317.5C 199.5,316.833 199.5,316.167 199.5,315.5 Z"/></g>
<g><path style="opacity:1" fill="#1d1605" d="M 197.5,322.5 C 198.275,324.388 198.275,326.388 197.5,328.5C 193.218,328.893 191.551,327.226 192.5,323.5C 193.641,322.661 194.974,321.994 196.5,321.5C 197.107,321.624 197.44,321.957 197.5,322.5 Z"/></g>
<g><path style="opacity:1" fill="#e0d586" d="M 113.5,313.5 C 114.5,313.5 115.5,313.5 116.5,313.5C 116.387,316.049 117.054,318.382 118.5,320.5C 117.675,321.386 116.675,321.719 115.5,321.5C 115.306,318.67 114.639,316.004 113.5,313.5 Z"/></g>
<g><path style="opacity:1" fill="#f1df4d" d="M 199.5,317.5 C 204.996,321.363 205.663,326.029 201.5,331.5C 200.5,331.5 199.5,331.5 198.5,331.5C 198.443,329.116 198.777,326.782 199.5,324.5C 199.253,323.287 198.586,322.62 197.5,322.5C 197.44,321.957 197.107,321.624 196.5,321.5C 194.974,321.994 193.641,322.661 192.5,323.5C 191.153,324.028 189.819,324.195 188.5,324C 189.38,322.644 189.714,321.144 189.5,319.5C 192.587,317.983 195.921,317.316 199.5,317.5 Z"/></g>
<g><path style="opacity:1" fill="#f1de43" d="M 121.5,325.5 C 121.233,323.035 120.566,320.701 119.5,318.5C 120.356,315.487 122.189,314.82 125,316.5C 125.201,319.515 124.868,322.515 124,325.5C 123.23,326.598 122.397,326.598 121.5,325.5 Z"/></g>
<g><path style="opacity:1" fill="#61530b" d="M 127.5,313.5 C 128.613,314.946 128.78,316.613 128,318.5C 126.212,316.977 126.045,315.31 127.5,313.5 Z"/></g>
<g><path style="opacity:1" fill="#d7cc82" d="M 201.5,312.5 C 203.048,312.821 203.715,313.821 203.5,315.5C 204.822,315.33 205.989,315.663 207,316.5C 207.662,318.813 208.162,321.146 208.5,323.5C 205.813,320.48 202.813,317.813 199.5,315.5C 200.167,314.5 200.833,313.5 201.5,312.5 Z"/></g>
<g><path style="opacity:1" fill="#564a16" d="M 199.5,311.5 C 200.167,311.833 200.833,312.167 201.5,312.5C 200.833,313.5 200.167,314.5 199.5,315.5C 197.435,315.483 195.435,315.15 193.5,314.5C 193.842,313.662 194.508,313.328 195.5,313.5C 197.829,315.002 199.163,314.336 199.5,311.5 Z"/></g>
<g><path style="opacity:1" fill="#e9e7c1" d="M 135.5,360.5 C 137.833,360.5 140.167,360.5 142.5,360.5C 142.5,361.5 142.5,362.5 142.5,363.5C 140.167,363.5 137.833,363.5 135.5,363.5C 135.5,365.167 135.5,366.833 135.5,368.5C 143.333,370.038 143.333,371.038 135.5,371.5C 135.5,374.5 135.5,377.5 135.5,380.5C 133.585,380.784 131.919,380.451 130.5,379.5C 130.5,373.167 130.5,366.833 130.5,360.5C 132.167,360.5 133.833,360.5 135.5,360.5 Z"/></g>
<g><path style="opacity:1" fill="#e4e1b7" d="M 186.5,360.5 C 187.873,360.343 189.207,360.51 190.5,361C 186.352,366.816 184.685,373.316 185.5,380.5C 183.5,380.5 181.5,380.5 179.5,380.5C 180.187,373.866 178.52,367.866 174.5,362.5C 176.421,361.359 178.421,361.192 180.5,362C 181.594,363.78 182.594,365.614 183.5,367.5C 184.783,365.27 185.783,362.937 186.5,360.5 Z"/></g>
<g><path style="opacity:1" fill="#625c47" d="M 135.5,360.5 C 133.833,360.5 132.167,360.5 130.5,360.5C 130.5,366.833 130.5,373.167 130.5,379.5C 129.509,373.021 129.176,366.354 129.5,359.5C 131.735,359.205 133.735,359.539 135.5,360.5 Z"/></g>
<g><path style="opacity:1" fill="#e6e4b9" d="M 155.5,362.5 C 159.307,367.979 159.474,373.645 156,379.5C 152.1,382.136 148.266,382.136 144.5,379.5C 143.147,376.863 142.481,374.03 142.5,371C 143.255,362.02 147.588,359.187 155.5,362.5 Z"/></g>
<g><path style="opacity:1" fill="#100c05" d="M 148.5,364.5 C 149.833,364.5 151.167,364.5 152.5,364.5C 152.666,368.846 152.499,373.179 152,377.5C 151,378.833 150,378.833 149,377.5C 148.501,373.179 148.334,368.846 148.5,364.5 Z"/></g>
<g><path style="opacity:1" fill="#e9e7c2" d="M 157.5,361.5 C 159.527,361.338 161.527,361.505 163.5,362C 164.987,367.584 166.653,367.751 168.5,362.5C 169.833,361.167 171.167,361.167 172.5,362.5C 170.722,364.945 169.389,367.611 168.5,370.5C 170.127,373.81 171.793,377.144 173.5,380.5C 171.5,381.833 169.5,381.833 167.5,380.5C 166.667,378.833 165.833,377.167 165,375.5C 163.708,377.249 162.542,379.082 161.5,381C 160.207,381.49 158.873,381.657 157.5,381.5C 159.177,378.161 160.844,374.827 162.5,371.5C 160.838,368.176 159.172,364.843 157.5,361.5 Z"/></g>
<g><path style="opacity:1" fill="#a4a192" d="M 111.5,384.5 C 114.689,384.713 117.522,385.713 120,387.5C 121.467,387.581 123.134,387.247 125,386.5C 126.326,386.755 127.326,387.422 128,388.5C 130.916,386.987 133.582,387.32 136,389.5C 136.708,388.619 137.542,387.953 138.5,387.5C 139.568,388.434 140.901,388.768 142.5,388.5C 142.5,389.833 142.5,391.167 142.5,392.5C 141.5,392.5 140.5,392.5 139.5,392.5C 136.326,392.002 132.993,392.002 129.5,392.5C 129.649,391.448 129.483,390.448 129,389.5C 128,392.167 127,392.167 126,389.5C 124.606,391.402 122.773,391.735 120.5,390.5C 119.791,389.596 118.791,389.263 117.5,389.5C 117.671,386.203 117.005,385.869 115.5,388.5C 114.808,387.975 114.308,387.308 114,386.5C 113.692,387.308 113.192,387.975 112.5,388.5C 111.571,387.311 111.238,385.978 111.5,384.5 Z"/></g>
<g><path style="opacity:1" fill="#6b6961" d="M 111.5,384.5 C 111.238,385.978 111.571,387.311 112.5,388.5C 113.192,387.975 113.692,387.308 114,386.5C 114.308,387.308 114.808,387.975 115.5,388.5C 117.005,385.869 117.671,386.203 117.5,389.5C 118.791,389.263 119.791,389.596 120.5,390.5C 117.167,390.167 113.833,389.833 110.5,389.5C 110.216,387.585 110.549,385.919 111.5,384.5 Z"/></g>
<g><path style="opacity:1" fill="#c1bfb4" d="M 187.5,392.5 C 186.391,392.443 185.391,392.11 184.5,391.5C 184.5,390.833 184.5,390.167 184.5,389.5C 185.077,388.227 185.743,388.227 186.5,389.5C 187.127,390.417 187.461,391.417 187.5,392.5 Z"/></g>
<g><path style="opacity:0.996" fill="#b5b4a8" d="M 188.5,387.5 C 189.552,387.351 190.552,387.517 191.5,388C 190.167,389.333 190.167,390.667 191.5,392C 190.552,392.483 189.552,392.649 188.5,392.5C 188.5,390.833 188.5,389.167 188.5,387.5 Z"/></g>
<g><path style="opacity:1" fill="#939084" d="M 206.5,384.5 C 207.376,384.369 208.043,384.702 208.5,385.5C 207.691,387.071 207.357,388.738 207.5,390.5C 205.5,390.5 203.5,390.5 201.5,390.5C 201.719,389.325 201.386,388.325 200.5,387.5C 199.904,388.716 199.737,390.049 200,391.5C 199,390.167 198,390.167 197,391.5C 196.309,389.109 195.309,389.109 194,391.5C 193.202,389.741 193.369,388.074 194.5,386.5C 195.086,386.709 195.586,387.043 196,387.5C 199.704,386.911 203.204,385.911 206.5,384.5 Z"/></g>
<g><path style="opacity:1" fill="#999891" d="M 173.5,388.5 C 174.931,388.881 175.764,389.881 176,391.5C 177.333,387.5 178.667,387.5 180,391.5C 179.6,388.328 181.1,387.661 184.5,389.5C 184.5,390.167 184.5,390.833 184.5,391.5C 183.003,392.306 181.336,392.972 179.5,393.5C 176.348,393.288 173.015,393.288 169.5,393.5C 169.343,392.127 169.51,390.793 170,389.5C 171.515,391.905 172.682,391.572 173.5,388.5 Z"/></g>
<g><path style="opacity:1" fill="#18140e" d="M 157.5,361.5 C 159.172,364.843 160.838,368.176 162.5,371.5C 160.844,374.827 159.177,378.161 157.5,381.5C 156.904,382.935 156.904,384.602 157.5,386.5C 159.664,386.721 161.33,387.721 162.5,389.5C 162.5,390.833 162.5,392.167 162.5,393.5C 164.144,393.286 165.644,393.62 167,394.5C 167.47,393.423 167.303,392.423 166.5,391.5C 168.549,391.294 168.883,390.461 167.5,389C 169.473,388.505 171.473,388.338 173.5,388.5C 172.682,391.572 171.515,391.905 170,389.5C 169.51,390.793 169.343,392.127 169.5,393.5C 173.015,393.288 176.348,393.288 179.5,393.5C 181.336,392.972 183.003,392.306 184.5,391.5C 185.391,392.11 186.391,392.443 187.5,392.5C 188.933,394.558 189.6,396.892 189.5,399.5C 191.099,399.232 192.432,399.566 193.5,400.5C 188.324,400.183 183.324,400.849 178.5,402.5C 178.565,402.062 178.399,401.728 178,401.5C 177.665,404.19 176.499,404.857 174.5,403.5C 170.885,402.605 167.052,402.272 163,402.5C 162.517,403.448 162.351,404.448 162.5,405.5C 162.167,405.5 161.833,405.5 161.5,405.5C 160.766,404.292 160.433,402.959 160.5,401.5C 156.5,401.5 152.5,401.5 148.5,401.5C 148.527,403.199 149.194,404.533 150.5,405.5C 150.918,406.222 151.584,406.722 152.5,407C 151.402,407.77 151.402,408.603 152.5,409.5C 150.167,409.5 147.833,409.5 145.5,409.5C 142.615,409.806 139.948,409.473 137.5,408.5C 139.833,408.5 142.167,408.5 144.5,408.5C 144.567,407.041 144.234,405.708 143.5,404.5C 144.5,404.5 145.5,404.5 146.5,404.5C 146.5,403.5 146.5,402.5 146.5,401.5C 145.167,401.5 143.833,401.5 142.5,401.5C 142.167,400.167 141.833,400.167 141.5,401.5C 135.979,401.218 130.646,400.551 125.5,399.5C 127.735,399.795 129.735,399.461 131.5,398.5C 133.512,399.014 135.512,399.18 137.5,399C 136.177,398.184 135.511,397.017 135.5,395.5C 136.473,394.209 137.473,394.209 138.5,395.5C 139.386,394.675 139.719,393.675 139.5,392.5C 140.5,392.5 141.5,392.5 142.5,392.5C 142.5,391.167 142.5,389.833 142.5,388.5C 140.901,388.768 139.568,388.434 138.5,387.5C 141.305,386.681 144.305,386.181 147.5,386C 145.829,384.157 144.829,381.991 144.5,379.5C 148.266,382.136 152.1,382.136 156,379.5C 159.474,373.645 159.307,367.979 155.5,362.5C 156.167,362.167 156.833,361.833 157.5,361.5 Z"/></g>
<g><path style="opacity:0.996" fill="#aba99d" d="M 162.5,389.5 C 164.483,389.157 165.817,389.824 166.5,391.5C 167.303,392.423 167.47,393.423 167,394.5C 165.644,393.62 164.144,393.286 162.5,393.5C 162.5,392.167 162.5,390.833 162.5,389.5 Z"/></g>
<g><path style="opacity:1" fill="#a3a193" d="M 154.5,388.5 C 155.708,389.234 157.041,389.567 158.5,389.5C 158.596,393.311 159.262,393.311 160.5,389.5C 161.429,390.689 161.762,392.022 161.5,393.5C 158.833,393.5 156.167,393.5 153.5,393.5C 153.366,391.708 153.699,390.042 154.5,388.5 Z"/></g>
<g><path style="opacity:1" fill="#a6a599" d="M 145.5,388.5 C 147.39,389.18 149.39,389.347 151.5,389C 150.167,390.333 150.167,391.667 151.5,393C 149.687,392.954 148.021,393.12 146.5,393.5C 145.548,391.955 145.215,390.288 145.5,388.5 Z"/></g>
<g><path style="opacity:0.749" fill="#2d2528" d="M 214.5,329.5 C 214.5,356.5 214.5,383.5 214.5,410.5C 213.325,410.719 212.325,410.386 211.5,409.5C 213.88,407.397 213.213,406.23 209.5,406C 211.002,405.417 212.335,404.584 213.5,403.5C 210.047,402.521 209.714,401.021 212.5,399C 208.544,397.886 208.544,397.053 212.5,396.5C 212.917,393.921 212.25,391.754 210.5,390C 211.167,389.333 211.833,388.667 212.5,388C 211.027,387.29 210.36,386.124 210.5,384.5C 211.5,384.5 212.5,384.5 213.5,384.5C 213.84,381.856 213.173,379.523 211.5,377.5C 212.167,376.833 212.833,376.167 213.5,375.5C 210.833,374.167 210.833,372.833 213.5,371.5C 210.833,370.167 210.833,368.833 213.5,367.5C 213.375,363.125 213.375,358.791 213.5,354.5C 208.167,353.833 208.167,353.167 213.5,352.5C 213.5,350.5 213.5,348.5 213.5,346.5C 209.544,345.947 209.544,345.114 213.5,344C 209.66,342.36 209.66,340.86 213.5,339.5C 209.5,338.167 209.5,336.833 213.5,335.5C 213.054,333.632 212.721,331.799 212.5,330C 213.094,329.536 213.761,329.369 214.5,329.5 Z"/></g>
<g><path style="opacity:1" fill="#8a8269" d="M 135.5,395.5 C 135.511,397.017 136.177,398.184 137.5,399C 135.512,399.18 133.512,399.014 131.5,398.5C 130.596,397.791 130.263,396.791 130.5,395.5C 132.167,395.5 133.833,395.5 135.5,395.5 Z"/></g>
<g><path style="opacity:1" fill="#c7c3ae" d="M 185.5,396.5 C 187.337,396.639 187.67,397.306 186.5,398.5C 185.702,398.043 185.369,397.376 185.5,396.5 Z"/></g>
<g><path style="opacity:1" fill="#9d9475" d="M 145.5,397.5 C 147.604,397.201 149.604,397.534 151.5,398.5C 150.5,398.833 149.5,399.167 148.5,399.5C 146.97,399.36 145.97,398.693 145.5,397.5 Z"/></g>
<g><path style="opacity:1" fill="#ada483" d="M 154.5,397.5 C 156.924,397.192 159.257,397.526 161.5,398.5C 161.167,399.5 160.5,400.167 159.5,400.5C 157.241,400.216 155.574,399.216 154.5,397.5 Z"/></g>
<g><path style="opacity:1" fill="#aaa388" d="M 162.5,397.5 C 164.924,397.635 166.924,397.968 168.5,398.5C 167.5,398.833 166.5,399.167 165.5,399.5C 163.97,399.36 162.97,398.693 162.5,397.5 Z"/></g>
<g><path style="opacity:1" fill="#999076" d="M 138.5,396.5 C 139.222,396.918 139.722,397.584 140,398.5C 141.049,396.893 142.549,396.227 144.5,396.5C 144.5,397.5 144.5,398.5 144.5,399.5C 142.5,399.5 140.5,399.5 138.5,399.5C 138.5,398.5 138.5,397.5 138.5,396.5 Z"/></g>
<g><path style="opacity:1" fill="#8c8363" d="M 170.5,396.5 C 175.167,396.5 179.833,396.5 184.5,396.5C 184.649,397.552 184.483,398.552 184,399.5C 179.56,399.184 175.06,399.184 170.5,399.5C 170.5,398.5 170.5,397.5 170.5,396.5 Z"/></g>
<g><path style="opacity:1" fill="#7a725b" d="M 194.5,399.5 C 196.167,399.5 197.833,399.5 199.5,399.5C 199.5,400.5 199.5,401.5 199.5,402.5C 197.833,402.5 196.167,402.5 194.5,402.5C 194.5,401.5 194.5,400.5 194.5,399.5 Z"/></g>
<g><path style="opacity:1" fill="#908765" d="M 125.5,399.5 C 130.646,400.551 135.979,401.218 141.5,401.5C 141.5,402.5 141.5,403.5 141.5,404.5C 134.167,403.833 126.833,403.167 119.5,402.5C 119.59,397.611 120.756,397.277 123,401.5C 123.417,400.244 124.25,399.577 125.5,399.5 Z"/></g>
<g><path style="opacity:1" fill="#6d644d" d="M 161.5,405.5 C 157.833,405.5 154.167,405.5 150.5,405.5C 149.194,404.533 148.527,403.199 148.5,401.5C 152.5,401.5 156.5,401.5 160.5,401.5C 160.433,402.959 160.766,404.292 161.5,405.5 Z"/></g>
<g><path style="opacity:1" fill="#a39a81" d="M 142.5,401.5 C 143.833,401.5 145.167,401.5 146.5,401.5C 146.5,402.5 146.5,403.5 146.5,404.5C 145.5,404.5 144.5,404.5 143.5,404.5C 142.596,403.791 142.263,402.791 142.5,401.5 Z"/></g>
<g><path style="opacity:1" fill="#7b735e" d="M 193.5,400.5 C 193.349,403.718 192.516,404.051 191,401.5C 189.179,403.287 187.012,404.62 184.5,405.5C 181.953,405.229 179.953,404.229 178.5,402.5C 183.324,400.849 188.324,400.183 193.5,400.5 Z"/></g>
<g><path style="opacity:1" fill="#786f52" d="M 174.5,403.5 C 170.971,405.423 166.971,406.089 162.5,405.5C 162.351,404.448 162.517,403.448 163,402.5C 167.052,402.272 170.885,402.605 174.5,403.5 Z"/></g>
<g><path style="opacity:0.996" fill="#b6b1a0" d="M 195.5,410.5 C 194.183,410.179 192.849,409.846 191.5,409.5C 178.22,411.053 164.887,411.72 151.5,411.5C 158.5,410.833 165.5,410.167 172.5,409.5C 179.823,408.715 187.156,408.548 194.5,409C 195.056,409.383 195.389,409.883 195.5,410.5 Z"/></g>
<g><path style="opacity:1" fill="#b6b29f" d="M 137.5,408.5 C 139.948,409.473 142.615,409.806 145.5,409.5C 145.158,410.338 144.492,410.672 143.5,410.5C 138.303,410.636 133.137,410.303 128,409.5C 125.966,409.354 124.299,410.02 123,411.5C 122.5,419.493 122.334,427.493 122.5,435.5C 122.167,435.5 121.833,435.5 121.5,435.5C 121.334,427.16 121.5,418.827 122,410.5C 123.182,408.643 124.849,407.643 127,407.5C 130.458,408.286 133.958,408.62 137.5,408.5 Z"/></g>
<g><path style="opacity:1" fill="#898677" d="M 195.5,410.5 C 196.117,410.611 196.617,410.944 197,411.5C 197.823,419.677 197.656,427.677 196.5,435.5C 196.5,434.833 196.167,434.5 195.5,434.5C 195.5,426.5 195.5,418.5 195.5,410.5 Z"/></g>
<g><path style="opacity:1" fill="#070405" d="M 143.5,410.5 C 145.948,411.473 148.615,411.806 151.5,411.5C 164.887,411.72 178.22,411.053 191.5,409.5C 192.849,409.846 194.183,410.179 195.5,410.5C 195.5,418.5 195.5,426.5 195.5,434.5C 195.426,436.411 194.426,437.578 192.5,438C 170.506,439.94 148.506,439.94 126.5,438C 125.016,437.338 123.683,436.504 122.5,435.5C 122.334,427.493 122.5,419.493 123,411.5C 124.299,410.02 125.966,409.354 128,409.5C 133.137,410.303 138.303,410.636 143.5,410.5 Z"/></g>
<g><path style="opacity:1" fill="#b2ae9b" d="M 168.5,429.5 C 168.5,429.833 168.5,430.167 168.5,430.5C 165.291,431.28 162.291,431.114 159.5,430C 162.482,429.502 165.482,429.335 168.5,429.5 Z"/></g>
<g><path style="opacity:1" fill="#9a9173" d="M 167.5,425.5 C 167.5,426.167 167.5,426.833 167.5,427.5C 152.833,426.833 152.833,426.167 167.5,425.5 Z"/></g>
<g><path style="opacity:1" fill="#8e866f" d="M 145.5,425.5 C 146.873,425.343 148.207,425.51 149.5,426C 147.08,426.29 144.746,426.79 142.5,427.5C 141.282,426.839 139.949,426.172 138.5,425.5C 140.811,424.425 143.144,424.425 145.5,425.5 Z"/></g>
<g><path style="opacity:1" fill="#282116" d="M 159.5,420.5 C 158.167,420.5 156.833,420.5 155.5,420.5C 155.5,421.5 155.5,422.5 155.5,423.5C 158.5,423.5 161.5,423.5 164.5,423.5C 164.833,424.833 165.167,424.833 165.5,423.5C 166.167,423.5 166.833,423.5 167.5,423.5C 167.5,424.167 167.5,424.833 167.5,425.5C 152.833,426.167 152.833,426.833 167.5,427.5C 167.833,428.167 168.167,428.833 168.5,429.5C 165.482,429.335 162.482,429.502 159.5,430C 162.291,431.114 165.291,431.28 168.5,430.5C 167.042,432.011 165.209,433.011 163,433.5C 159.117,432.22 154.95,431.22 150.5,430.5C 152.604,430.799 154.604,430.466 156.5,429.5C 156.167,429.167 155.833,428.833 155.5,428.5C 150.672,428.469 145.672,428.635 140.5,429C 141.416,429.278 142.082,429.778 142.5,430.5C 135.833,429.5 135.833,428.5 142.5,427.5C 144.746,426.79 147.08,426.29 149.5,426C 148.207,425.51 146.873,425.343 145.5,425.5C 145.5,424.833 145.5,424.167 145.5,423.5C 148.5,423.5 151.5,423.5 154.5,423.5C 154.5,422.5 154.5,421.5 154.5,420.5C 156.167,419.167 157.833,419.167 159.5,420.5 Z"/></g>
<g><path style="opacity:1" fill="#887f68" d="M 150.5,430.5 C 147.833,430.5 145.167,430.5 142.5,430.5C 142.082,429.778 141.416,429.278 140.5,429C 145.672,428.635 150.672,428.469 155.5,428.5C 155.833,428.833 156.167,429.167 156.5,429.5C 154.604,430.466 152.604,430.799 150.5,430.5 Z"/></g>
<g><path style="opacity:1" fill="#877e65" d="M 150.5,425.5 C 152.288,425.215 153.955,425.548 155.5,426.5C 154.667,426.833 153.833,427.167 153,427.5C 151.624,427.316 150.791,426.649 150.5,425.5 Z"/></g>
<g><path style="opacity:1" fill="#827a5d" d="M 178.5,419.5 C 181.694,419.176 182.694,420.342 181.5,423C 178.964,423.339 176.464,423.839 174,424.5C 171.736,424.146 169.902,423.146 168.5,421.5C 171.977,420.833 175.311,420.166 178.5,419.5 Z"/></g>
<g><path style="opacity:1" fill="#93896b" d="M 164.5,423.5 C 161.5,423.5 158.5,423.5 155.5,423.5C 155.5,422.5 155.5,421.5 155.5,420.5C 156.833,420.5 158.167,420.5 159.5,420.5C 161.117,419.962 162.784,419.629 164.5,419.5C 164.5,420.833 164.5,422.167 164.5,423.5 Z"/></g>
<g><path style="opacity:1" fill="#9b937f" d="M 167.5,423.5 C 166.833,423.5 166.167,423.5 165.5,423.5C 166.167,419.5 166.833,419.5 167.5,423.5 Z"/></g>
<g><path style="opacity:1" fill="#938968" d="M 154.5,420.5 C 154.5,421.5 154.5,422.5 154.5,423.5C 151.5,423.5 148.5,423.5 145.5,423.5C 143.167,423.5 140.833,423.5 138.5,423.5C 138.343,422.127 138.51,420.793 139,419.5C 139.667,422.167 140.333,422.167 141,419.5C 145,420.167 149,420.833 153,421.5C 153.383,420.944 153.883,420.611 154.5,420.5 Z"/></g>
<g><path style="opacity:1" fill="#d7d09a" d="M 133.5,427.5 C 129.739,429.114 127.406,427.78 126.5,423.5C 128.364,419.092 131.197,418.425 135,421.5C 135.941,423.989 135.441,425.989 133.5,427.5 Z"/></g>
<g><path style="opacity:1" fill="#b1a452" d="M 132.5,421.5 C 133.461,423.265 133.795,425.265 133.5,427.5C 131.597,427.204 129.93,426.537 128.5,425.5C 129.158,424.602 129.824,423.602 130.5,422.5C 131.944,423.981 132.611,423.648 132.5,421.5 Z"/></g>
<g><path style="opacity:1" fill="#473b0a" d="M 132.5,421.5 C 132.611,423.648 131.944,423.981 130.5,422.5C 129.824,423.602 129.158,424.602 128.5,425.5C 127.766,421.56 129.099,420.227 132.5,421.5 Z"/></g>
<g><path style="opacity:1" fill="#898169" d="M 145.5,409.5 C 147.833,409.5 150.167,409.5 152.5,409.5C 159.167,409.5 165.833,409.5 172.5,409.5C 165.5,410.167 158.5,410.833 151.5,411.5C 148.615,411.806 145.948,411.473 143.5,410.5C 144.492,410.672 145.158,410.338 145.5,409.5 Z"/></g>
<g><path style="opacity:0.999" fill="#060509" d="M 120.5,438.5 C 122.581,440.918 125.081,441.585 128,440.5C 131.045,440.792 133.212,442.292 134.5,445C 132.306,446.553 131.14,448.719 131,451.5C 129.698,452.085 128.531,452.751 127.5,453.5C 126.209,453.263 125.209,453.596 124.5,454.5C 122.821,454.285 121.821,454.952 121.5,456.5C 123.333,458.063 125,459.73 126.5,461.5C 126.833,461.5 127.167,461.5 127.5,461.5C 127.158,462.338 126.492,462.672 125.5,462.5C 122.15,462.335 118.817,462.502 115.5,463C 119.465,464.066 123.465,464.899 127.5,465.5C 127.62,466.586 128.287,467.253 129.5,467.5C 134.137,468.22 138.803,468.72 143.5,469C 144.682,470.678 145.848,470.512 147,468.5C 149.196,469.09 151.362,469.757 153.5,470.5C 154.167,469.833 154.833,469.167 155.5,468.5C 158.276,468.946 160.776,469.946 163,471.5C 164.861,470.236 166.861,469.236 169,468.5C 170.235,469.615 171.402,469.615 172.5,468.5C 172.833,469.167 173.167,469.833 173.5,470.5C 175.462,469.366 177.462,469.366 179.5,470.5C 181.425,470.41 182.592,469.41 183,467.5C 185.333,468.167 187.667,468.833 190,469.5C 191,468.5 192,467.5 193,466.5C 194.889,467.097 196.722,467.431 198.5,467.5C 199.842,465.995 201.508,465.328 203.5,465.5C 203.737,464.209 203.404,463.209 202.5,462.5C 200.68,461.937 199.347,460.771 198.5,459C 198.645,458.228 198.978,457.561 199.5,457C 199.047,453.773 198.047,450.773 196.5,448C 199.147,447.685 199.813,446.518 198.5,444.5C 196.833,444.5 195.167,444.5 193.5,444.5C 196.091,437.032 199.257,436.698 203,443.5C 203.645,442.354 204.478,441.354 205.5,440.5C 201.777,438.134 200.443,434.968 201.5,431C 203.73,431.78 206.063,432.613 208.5,433.5C 208.351,432.448 208.517,431.448 209,430.5C 209.273,432.101 209.773,433.601 210.5,435C 208.668,437.289 209.335,439.122 212.5,440.5C 211.868,448.573 212.535,456.24 214.5,463.5C 215.782,470.804 215.616,478.137 214,485.5C 209.895,490.246 204.729,493.413 198.5,495C 188.82,497.393 179.153,498.893 169.5,499.5C 164.167,499.5 158.833,499.5 153.5,499.5C 141.779,498.992 130.112,497.159 118.5,494C 114.888,492.861 111.554,491.194 108.5,489C 106.859,487.871 105.859,486.371 105.5,484.5C 105.333,470.496 105.5,456.496 106,442.5C 106.667,443.833 107.333,443.833 108,442.5C 108.49,441.207 108.657,439.873 108.5,438.5C 109.552,438.649 110.552,438.483 111.5,438C 111.167,437.667 110.833,437.333 110.5,437C 114.657,431.721 116.491,425.554 116,418.5C 116.486,424.517 117.319,430.35 118.5,436C 117.742,437.364 118.242,438.531 120,439.5C 120.399,439.272 120.565,438.938 120.5,438.5 Z"/></g>
<g><path style="opacity:1" fill="#a19a85" d="M 195.5,434.5 C 196.167,434.5 196.5,434.833 196.5,435.5C 196.229,437.43 195.229,438.764 193.5,439.5C 170.824,442.315 148.157,442.148 125.5,439C 123.574,438.578 122.574,437.411 122.5,435.5C 123.683,436.504 125.016,437.338 126.5,438C 148.506,439.94 170.506,439.94 192.5,438C 194.426,437.578 195.426,436.411 195.5,434.5 Z"/></g>
<g><path style="opacity:1" fill="#0e0904" d="M 121.5,435.5 C 121.833,435.5 122.167,435.5 122.5,435.5C 122.574,437.411 123.574,438.578 125.5,439C 148.157,442.148 170.824,442.315 193.5,439.5C 193.421,440.958 192.921,442.292 192,443.5C 186.813,443.329 181.98,442.996 177.5,442.5C 176.263,442.556 175.263,443.056 174.5,444C 175.035,446.109 176.035,446.609 177.5,445.5C 180.056,446.051 182.389,447.051 184.5,448.5C 186.12,450.739 185.787,452.573 183.5,454C 185.167,454.667 186.833,454.667 188.5,454C 188.93,453.08 189.264,452.247 189.5,451.5C 190.362,452.766 191.029,454.099 191.5,455.5C 189.11,455.913 186.777,456.579 184.5,457.5C 184.667,457.833 184.833,458.167 185,458.5C 188.057,457.549 191.223,457.216 194.5,457.5C 194.011,458.995 193.345,460.329 192.5,461.5C 192.842,462.338 193.508,462.672 194.5,462.5C 191.868,463.728 189.202,464.228 186.5,464C 185.259,465.487 185.759,466.32 188,466.5C 192,465.833 196,465.167 200,464.5C 201.376,464.316 202.209,463.649 202.5,462.5C 203.404,463.209 203.737,464.209 203.5,465.5C 201.508,465.328 199.842,465.995 198.5,467.5C 196.722,467.431 194.889,467.097 193,466.5C 192,467.5 191,468.5 190,469.5C 187.667,468.833 185.333,468.167 183,467.5C 182.592,469.41 181.425,470.41 179.5,470.5C 177.462,469.366 175.462,469.366 173.5,470.5C 173.167,469.833 172.833,469.167 172.5,468.5C 171.402,469.615 170.235,469.615 169,468.5C 166.861,469.236 164.861,470.236 163,471.5C 160.776,469.946 158.276,468.946 155.5,468.5C 154.833,469.167 154.167,469.833 153.5,470.5C 151.362,469.757 149.196,469.09 147,468.5C 145.848,470.512 144.682,470.678 143.5,469C 138.803,468.72 134.137,468.22 129.5,467.5C 128.287,467.253 127.62,466.586 127.5,465.5C 132.103,466.383 136.77,466.717 141.5,466.5C 144.625,467.479 147.958,467.813 151.5,467.5C 157.167,467.5 162.833,467.5 168.5,467.5C 168.833,467.5 169.167,467.5 169.5,467.5C 174.555,467.272 179.555,466.605 184.5,465.5C 183.311,464.571 181.978,464.238 180.5,464.5C 181.167,463.833 181.833,463.167 182.5,462.5C 183.043,462.44 183.376,462.107 183.5,461.5C 181.604,460.534 179.604,460.201 177.5,460.5C 178.66,459.735 179.66,458.735 180.5,457.5C 177.572,456.516 174.572,456.183 171.5,456.5C 168.272,457.414 164.939,457.747 161.5,457.5C 161.167,457.5 160.833,457.5 160.5,457.5C 156.695,456.643 152.695,456.643 148.5,457.5C 148.167,457.5 147.833,457.5 147.5,457.5C 141.688,456.423 135.688,455.757 129.5,455.5C 128.833,454.833 128.167,454.167 127.5,453.5C 128.531,452.751 129.698,452.085 131,451.5C 131.14,448.719 132.306,446.553 134.5,445C 133.212,442.292 131.045,440.792 128,440.5C 125.081,441.585 122.581,440.918 120.5,438.5C 121.11,437.609 121.443,436.609 121.5,435.5 Z"/></g>
<g><path style="opacity:1" fill="#544f4b" d="M 152.5,447.5 C 155.288,447.077 157.288,448.077 158.5,450.5C 156.833,451.167 155.167,451.833 153.5,452.5C 154.98,453.113 156.313,453.446 157.5,453.5C 151.74,455.213 150.074,453.213 152.5,447.5 Z"/></g>
<g><path style="opacity:1" fill="#998f6f" d="M 178.5,448.5 C 180.167,448.5 181.833,448.5 183.5,448.5C 183.33,449.822 183.663,450.989 184.5,452C 182.19,452.497 179.857,452.663 177.5,452.5C 177.433,451.041 177.766,449.708 178.5,448.5 Z"/></g>
<g><path style="opacity:1" fill="#a0966a" d="M 134.5,448.5 C 138.961,448.585 143.794,448.585 149,448.5C 149.494,450.134 149.66,451.801 149.5,453.5C 143.896,453 138.563,452.334 133.5,451.5C 133.977,450.522 134.643,449.689 135.5,449C 135.272,448.601 134.938,448.435 134.5,448.5 Z"/></g>
<g><path style="opacity:1" fill="#8f8772" d="M 170.5,448.5 C 172.167,448.5 173.833,448.5 175.5,448.5C 175.421,449.93 175.754,451.264 176.5,452.5C 174.993,453.739 173.826,453.405 173,451.5C 172.333,452.167 171.667,452.833 171,453.5C 170.506,451.866 170.34,450.199 170.5,448.5 Z"/></g>
<g><path style="opacity:1" fill="#8c8367" d="M 160.5,448.5 C 162.776,448.756 163.943,450.09 164,452.5C 164.49,451.207 164.657,449.873 164.5,448.5C 165.833,448.5 167.167,448.5 168.5,448.5C 168.5,450.167 168.5,451.833 168.5,453.5C 165.5,453.5 162.5,453.5 159.5,453.5C 159.366,451.708 159.699,450.042 160.5,448.5 Z"/></g>
<g><path style="opacity:1" fill="#716e71" d="M 214.5,204.5 C 215.811,290.676 215.811,377.009 214.5,463.5C 212.535,456.24 211.868,448.573 212.5,440.5C 214.254,430.604 214.92,420.604 214.5,410.5C 214.5,383.5 214.5,356.5 214.5,329.5C 214.5,329.167 214.5,328.833 214.5,328.5C 214.5,296.833 214.5,265.167 214.5,233.5C 214.5,223.833 214.5,214.167 214.5,204.5 Z"/></g>
<g><path style="opacity:1" fill="#968e76" d="M 124.5,454.5 C 126.686,454.511 127.519,455.511 127,457.5C 125.301,456.594 123.467,456.261 121.5,456.5C 121.821,454.952 122.821,454.285 124.5,454.5 Z"/></g>
<g><path style="opacity:1" fill="#968d74" d="M 129.5,455.5 C 135.688,455.757 141.688,456.423 147.5,457.5C 141.309,458.539 134.975,458.373 128.5,457C 129.056,456.617 129.389,456.117 129.5,455.5 Z"/></g>
<g><path style="opacity:1" fill="#aaa28a" d="M 191.5,455.5 C 193.199,455.34 194.866,455.506 196.5,456C 195.956,456.717 195.289,457.217 194.5,457.5C 191.223,457.216 188.057,457.549 185,458.5C 184.833,458.167 184.667,457.833 184.5,457.5C 186.777,456.579 189.11,455.913 191.5,455.5 Z"/></g>
<g><path style="opacity:1" fill="#2a2215" d="M 124.5,454.5 C 125.209,453.596 126.209,453.263 127.5,453.5C 128.167,454.167 128.833,454.833 129.5,455.5C 129.389,456.117 129.056,456.617 128.5,457C 134.975,458.373 141.309,458.539 147.5,457.5C 147.833,457.5 148.167,457.5 148.5,457.5C 152.695,456.643 156.695,456.643 160.5,457.5C 160.833,457.5 161.167,457.5 161.5,457.5C 162.871,458.787 164.705,459.453 167,459.5C 168.833,459.167 170.667,458.833 172.5,458.5C 172.137,457.817 171.804,457.15 171.5,456.5C 174.572,456.183 177.572,456.516 180.5,457.5C 179.66,458.735 178.66,459.735 177.5,460.5C 176.957,460.56 176.624,460.893 176.5,461.5C 178.396,462.466 180.396,462.799 182.5,462.5C 181.833,463.167 181.167,463.833 180.5,464.5C 177.237,465.138 174.071,465.138 171,464.5C 169.961,465.244 169.461,466.244 169.5,467.5C 169.167,467.5 168.833,467.5 168.5,467.5C 162.718,465.77 156.552,464.77 150,464.5C 148.941,464.63 148.108,465.13 147.5,466C 149.058,466.21 150.391,466.71 151.5,467.5C 147.958,467.813 144.625,467.479 141.5,466.5C 142.043,466.44 142.376,466.107 142.5,465.5C 136.661,464.693 130.994,463.693 125.5,462.5C 126.492,462.672 127.158,462.338 127.5,461.5C 129.288,461.785 130.955,461.452 132.5,460.5C 130.314,459.779 128.147,459.113 126,458.5C 125.53,459.577 125.697,460.577 126.5,461.5C 125,459.73 123.333,458.063 121.5,456.5C 123.467,456.261 125.301,456.594 127,457.5C 127.519,455.511 126.686,454.511 124.5,454.5 Z"/></g>
<g><path style="opacity:1" fill="#a1987d" d="M 127.5,461.5 C 127.167,461.5 126.833,461.5 126.5,461.5C 125.697,460.577 125.53,459.577 126,458.5C 128.147,459.113 130.314,459.779 132.5,460.5C 130.955,461.452 129.288,461.785 127.5,461.5 Z"/></g>
<g><path style="opacity:1" fill="#877d62" d="M 171.5,456.5 C 171.804,457.15 172.137,457.817 172.5,458.5C 170.667,458.833 168.833,459.167 167,459.5C 164.705,459.453 162.871,458.787 161.5,457.5C 164.939,457.747 168.272,457.414 171.5,456.5 Z"/></g>
<g><path style="opacity:1" fill="#81775c" d="M 160.5,457.5 C 160.389,458.117 160.056,458.617 159.5,459C 158,459.167 156.5,459.333 155,459.5C 152.794,459.009 150.794,459.009 149,459.5C 148.536,458.906 148.369,458.239 148.5,457.5C 148.369,458.239 148.536,458.906 149,459.5C 150.794,459.009 152.794,459.009 155,459.5C 156.5,459.333 158,459.167 159.5,459C 160.056,458.617 160.389,458.117 160.5,457.5 Z"/></g>
<g><path style="opacity:1" fill="#8d856c" d="M 192.5,461.5 C 189.823,462.614 187.156,462.614 184.5,461.5C 186.392,460.527 188.392,459.86 190.5,459.5C 191.713,459.747 192.38,460.414 192.5,461.5 Z"/></g>
<g><path style="opacity:1" fill="#827a5d" d="M 135.5,460.5 C 140.179,460.334 144.845,460.501 149.5,461C 150.308,461.308 150.975,461.808 151.5,462.5C 150.333,462.833 149.167,463.167 148,463.5C 143.361,463.405 139.194,462.405 135.5,460.5 Z"/></g>
<g><path style="opacity:1" fill="#988f76" d="M 177.5,460.5 C 179.604,460.201 181.604,460.534 183.5,461.5C 183.376,462.107 183.043,462.44 182.5,462.5C 180.396,462.799 178.396,462.466 176.5,461.5C 176.624,460.893 176.957,460.56 177.5,460.5 Z"/></g>
<g><path style="opacity:1" fill="#847a5f" d="M 170.5,460.5 C 172.484,460.383 174.15,461.05 175.5,462.5C 167.833,463.833 160.167,463.833 152.5,462.5C 158.654,461.833 164.654,461.167 170.5,460.5 Z"/></g>
<g><path style="opacity:1" fill="#968d6d" d="M 125.5,462.5 C 130.994,463.693 136.661,464.693 142.5,465.5C 142.376,466.107 142.043,466.44 141.5,466.5C 136.77,466.717 132.103,466.383 127.5,465.5C 123.465,464.899 119.465,464.066 115.5,463C 118.817,462.502 122.15,462.335 125.5,462.5 Z"/></g>
<g><path style="opacity:1" fill="#8c846d" d="M 194.5,462.5 C 197.167,462.5 199.833,462.5 202.5,462.5C 202.209,463.649 201.376,464.316 200,464.5C 196,465.167 192,465.833 188,466.5C 185.759,466.32 185.259,465.487 186.5,464C 189.202,464.228 191.868,463.728 194.5,462.5 Z"/></g>
<g><path style="opacity:1" fill="#968d74" d="M 180.5,464.5 C 181.978,464.238 183.311,464.571 184.5,465.5C 179.555,466.605 174.555,467.272 169.5,467.5C 169.461,466.244 169.961,465.244 171,464.5C 174.071,465.138 177.237,465.138 180.5,464.5 Z"/></g>
<g><path style="opacity:1" fill="#988f74" d="M 168.5,467.5 C 162.833,467.5 157.167,467.5 151.5,467.5C 150.391,466.71 149.058,466.21 147.5,466C 148.108,465.13 148.941,464.63 150,464.5C 156.552,464.77 162.718,465.77 168.5,467.5 Z"/></g>
</svg>
