<?xml version="1.0" encoding="UTF-8"?>
<!DOCTYPE svg PUBLIC "-//W3C//DTD SVG 1.1//EN" "http://www.w3.org/Graphics/SVG/1.1/DTD/svg11.dtd">
<svg xmlns="http://www.w3.org/2000/svg" version="1.1" width="25px" height="25px" style="shape-rendering:geometricPrecision; text-rendering:geometricPrecision; image-rendering:optimizeQuality; fill-rule:evenodd; clip-rule:evenodd" xmlns:xlink="http://www.w3.org/1999/xlink">
<g><path style="opacity:1" fill="#000000" d="M 24.5,10.5 C 24.5,11.5 24.5,12.5 24.5,13.5C 21.1866,16.4778 17.8533,19.4778 14.5,22.5C 13.354,21.8551 12.354,21.0217 11.5,20C 13.5,18 15.5,16 17.5,14C 11.5092,13.5005 5.50924,13.3338 -0.5,13.5C -0.5,12.5 -0.5,11.5 -0.5,10.5C 5.20555,10.8288 10.8722,10.4954 16.5,9.5C 15.018,7.51708 13.3513,5.68375 11.5,4C 12.354,2.97827 13.354,2.14494 14.5,1.5C 17.8533,4.52215 21.1866,7.52215 24.5,10.5 Z"/></g>
</svg>
