<?xml version="1.0" encoding="UTF-8"?>
<!DOCTYPE svg PUBLIC "-//W3C//DTD SVG 1.1//EN" "http://www.w3.org/Graphics/SVG/1.1/DTD/svg11.dtd">
<svg xmlns="http://www.w3.org/2000/svg" version="1.1" width="512px" height="512px" style="shape-rendering:geometricPrecision; text-rendering:geometricPrecision; image-rendering:optimizeQuality; fill-rule:evenodd; clip-rule:evenodd" xmlns:xlink="http://www.w3.org/1999/xlink">
<g><path style="opacity:0.989" fill="#fe7568" d="M 95.5,-0.5 C 101.833,-0.5 108.167,-0.5 114.5,-0.5C 120.203,3.71214 124.703,9.04547 128,15.5C 144.736,48.2014 163.069,79.8681 183,110.5C 187.097,117.938 187.097,125.271 183,132.5C 176.301,140.305 169.134,147.805 161.5,155C 148.783,164.044 136.949,174.211 126,185.5C 121.443,189.944 119.776,195.277 121,201.5C 157.239,279.405 213.073,338.905 288.5,380C 294.221,383.527 300.221,386.527 306.5,389C 313.726,391.826 320.059,390.492 325.5,385C 336.789,374.051 346.956,362.217 356,349.5C 360.867,344.968 365.367,340.134 369.5,335C 374.696,329.807 380.863,326.307 388,324.5C 392.337,325.083 396.504,326.25 400.5,328C 431.132,347.931 462.799,366.264 495.5,383C 501.955,386.297 507.288,390.797 511.5,396.5C 511.5,402.833 511.5,409.167 511.5,415.5C 508.783,429.354 504.95,443.021 500,456.5C 492.453,468.381 482.62,477.881 470.5,485C 449.916,498.468 427.582,507.301 403.5,511.5C 392.833,511.5 382.167,511.5 371.5,511.5C 332.777,502.158 295.111,489.324 258.5,473C 222.531,454.189 189.531,431.189 159.5,404C 126.067,373.578 95.9002,340.411 69,304.5C 44.4839,268.797 25.8173,230.131 13,188.5C 6.91912,172.116 2.41912,155.45 -0.5,138.5C -0.5,128.167 -0.5,117.833 -0.5,107.5C 5.49166,72.0164 21.1583,41.5164 46.5,16C 53.2592,11.5195 60.5925,8.18614 68.5,6C 77.5523,3.49468 86.5523,1.32801 95.5,-0.5 Z"/></g>
</svg>
