<?xml version="1.0" encoding="UTF-8"?>
<!DOCTYPE svg PUBLIC "-//W3C//DTD SVG 1.1//EN" "http://www.w3.org/Graphics/SVG/1.1/DTD/svg11.dtd">
<svg xmlns="http://www.w3.org/2000/svg" version="1.1" width="75px" height="75px" style="shape-rendering:geometricPrecision; text-rendering:geometricPrecision; image-rendering:optimizeQuality; fill-rule:evenodd; clip-rule:evenodd" xmlns:xlink="http://www.w3.org/1999/xlink">
<g><path style="opacity:0.683" fill="#fe7568" d="M 53.5,-0.5 C 56.1667,-0.5 58.8333,-0.5 61.5,-0.5C 62.8671,2.74246 64.7004,5.74246 67,8.5C 68.297,13.1169 67.1303,16.9502 63.5,20C 60.9085,20.3008 60.0752,19.1341 61,16.5C 65.6667,13.8333 65.6667,11.1667 61,8.5C 61.5472,3.36342 59.5472,1.69676 55,3.5C 54.6667,5.5 54.3333,7.5 54,9.5C 53.5,10.6667 52.6667,11.5 51.5,12C 53.7712,14.9444 55.1045,18.2777 55.5,22C 57.8473,22.3336 60.1806,22.167 62.5,21.5C 62.6399,23.1238 61.9733,24.2904 60.5,25C 53.778,25.9507 50.4447,22.9507 50.5,16C 37.1735,13.6537 37.1735,11.3204 50.5,9C 50.9981,5.61959 51.9981,2.45292 53.5,-0.5 Z"/></g>
<g><path style="opacity:0.681" fill="#fe7568" d="M 44.5,74.5 C 32.1667,74.5 19.8333,74.5 7.5,74.5C 5.879,71.4382 6.379,68.7716 9,66.5C 9.66667,55.8333 9.66667,45.1667 9,34.5C 6.73049,32.6855 6.06382,30.3521 7,27.5C 8.39881,26.7734 9.89881,26.2734 11.5,26C 13.2932,23.2047 15.4598,20.7047 18,18.5C 18.1948,13.5821 18.6948,8.74878 19.5,4C 23.8713,3.17248 28.2047,3.33915 32.5,4.5C 33.2458,5.73619 33.5792,7.06953 33.5,8.5C 38.2129,8.46755 39.7129,10.8009 38,15.5C 36.4905,16.0897 34.9905,16.7564 33.5,17.5C 36.5094,21.694 40.1761,24.8607 44.5,27C 46.054,29.8968 45.554,32.3968 43,34.5C 42.1676,45.5151 42.3342,56.5151 43.5,67.5C 45.7605,69.4835 46.0939,71.8169 44.5,74.5 Z M 21.5,6.5 C 24.1667,6.5 26.8333,6.5 29.5,6.5C 29.5,10.1667 29.5,13.8333 29.5,17.5C 26.8333,17.5 24.1667,17.5 21.5,17.5C 21.5,13.8333 21.5,10.1667 21.5,6.5 Z M 33.5,11.5 C 35.337,11.6395 35.6704,12.3061 34.5,13.5C 33.7025,13.0431 33.3691,12.3764 33.5,11.5 Z M 19.5,21.5 C 23.8461,21.3343 28.1794,21.501 32.5,22C 33.8333,23.3333 35.1667,24.6667 36.5,26C 29.5,26.6667 22.5,26.6667 15.5,26C 16.3574,23.9812 17.6908,22.4812 19.5,21.5 Z M 9.5,29.5 C 20.505,29.3335 31.505,29.5002 42.5,30C 37.0005,31.1469 31.3338,31.6469 25.5,31.5C 19.7891,31.4949 14.4558,30.8282 9.5,29.5 Z M 12.5,34.5 C 13.9449,36.6898 15.2782,39.0231 16.5,41.5C 17.086,41.2907 17.586,40.9574 18,40.5C 18.4955,38.5273 18.6621,36.5273 18.5,34.5C 22.5,34.5 26.5,34.5 30.5,34.5C 30.8747,37.3965 30.3747,40.0632 29,42.5C 29.1789,36.8283 26.6789,34.8283 21.5,36.5C 19.9073,40.2985 19.074,44.2985 19,48.5C 18.6667,46.8333 18.3333,45.1667 18,43.5C 17,42.1667 16,42.1667 15,43.5C 13.902,47.6339 15.2354,50.6339 19,52.5C 20.8916,52.2231 22.2249,51.2231 23,49.5C 23.3333,45.8333 23.6667,42.1667 24,38.5C 25.0173,40.3759 25.8506,42.3759 26.5,44.5C 28.9686,46.0066 31.1353,45.6732 33,43.5C 33.498,40.5184 33.6646,37.5184 33.5,34.5C 35.5,34.5 37.5,34.5 39.5,34.5C 39.5,45.1667 39.5,55.8333 39.5,66.5C 30.5,66.5 21.5,66.5 12.5,66.5C 12.5,55.8333 12.5,45.1667 12.5,34.5 Z"/></g>
</svg>
