<?xml version="1.0" encoding="UTF-8"?>
<!DOCTYPE svg PUBLIC "-//W3C//DTD SVG 1.1//EN" "http://www.w3.org/Graphics/SVG/1.1/DTD/svg11.dtd">
<svg xmlns="http://www.w3.org/2000/svg" version="1.1" width="726px" height="110px" style="shape-rendering:geometricPrecision; text-rendering:geometricPrecision; image-rendering:optimizeQuality; fill-rule:evenodd; clip-rule:evenodd" xmlns:xlink="http://www.w3.org/1999/xlink">
<g><path style="opacity:0.994" fill="#fc7469" d="M 285.5,16.5 C 284.668,40.6632 284.168,64.9966 284,89.5C 282.871,87.8588 281.371,86.8588 279.5,86.5C 277.167,84.8333 275.167,82.8333 273.5,80.5C 272.089,78.086 270.089,76.4194 267.5,75.5C 265.167,73.8333 263.167,71.8333 261.5,69.5C 261.027,68.0937 260.027,67.427 258.5,67.5C 255.5,65.1667 252.833,62.5 250.5,59.5C 249.089,57.086 247.089,55.4194 244.5,54.5C 244.167,53.5 243.5,52.8333 242.5,52.5C 242.44,51.9569 242.107,51.6236 241.5,51.5C 240.501,61.8119 240.168,72.1452 240.5,82.5C 227.5,82.5 214.5,82.5 201.5,82.5C 196.378,75.693 192.044,68.3596 188.5,60.5C 188.167,59.8333 187.833,59.1667 187.5,58.5C 182.695,57.5128 177.695,57.1795 172.5,57.5C 172.795,64.5878 172.462,71.5878 171.5,78.5C 165.448,80.5182 160.114,83.5182 155.5,87.5C 153.515,71.5342 152.848,55.2009 153.5,38.5C 167.504,38.6666 181.504,38.4999 195.5,38C 196.056,37.6174 196.389,37.1174 196.5,36.5C 197.774,35.8106 197.774,34.9772 196.5,34C 184.326,33.1737 172.326,33.3403 160.5,34.5C 156.919,29.672 153.585,24.672 150.5,19.5C 150.585,18.0047 149.919,17.0047 148.5,16.5C 147.667,32.4896 147.167,48.4896 147,64.5C 143.149,75.6852 135.315,81.5186 123.5,82C 115.488,82.8321 107.822,81.6654 100.5,78.5C 100.027,77.0937 99.0269,76.427 97.5,76.5C 93.4847,73.148 90.9847,68.8147 90,63.5C 89.5001,49.8374 89.3334,36.1707 89.5,22.5C 89.6621,20.4727 89.4955,18.4727 89,16.5C 85.489,22.1946 81.989,27.8613 78.5,33.5C 73.1667,33.5 67.8333,33.5 62.5,33.5C 62.8164,48.5781 62.483,63.5781 61.5,78.5C 55.4476,80.5182 50.1143,83.5182 45.5,87.5C 43.5142,70.8662 42.8476,53.8662 43.5,36.5C 43.5,35.5 43.5,34.5 43.5,33.5C 38.3054,33.1795 33.3054,33.5128 28.5,34.5C 24.2747,28.3999 20.2747,22.0665 16.5,15.5C 32,15.1667 47.5,14.8333 63,14.5C 78.848,14.5006 94.348,15.1672 109.5,16.5C 108.34,29.3268 108.173,42.3268 109,55.5C 109.424,58.0254 110.59,60.0254 112.5,61.5C 116.112,62.5114 119.779,62.6781 123.5,62C 125,61.1667 126.167,60 127,58.5C 128.45,43.9054 128.95,29.2387 128.5,14.5C 153.169,14.3334 177.836,14.5 202.5,15C 206.627,15.5599 209.96,17.3932 212.5,20.5C 217.653,30.3306 217.819,40.3306 213,50.5C 211.108,52.0542 209.608,53.8876 208.5,56C 212.65,63.49 216.817,70.99 221,78.5C 221.483,77.552 221.649,76.552 221.5,75.5C 221.333,52.1643 221.5,28.831 222,5.5C 236.333,19.1667 250.667,32.8333 265,46.5C 265.5,35.8385 265.667,25.1719 265.5,14.5C 272.584,13.8745 279.25,14.5411 285.5,16.5 Z"/></g>
<g><path style="opacity:0.985" fill="#fc7469" d="M 378.5,11.5 C 378.5,11.8333 378.5,12.1667 378.5,12.5C 377.823,34.4021 377.156,56.4021 376.5,78.5C 370.35,80.7396 364.684,83.7396 359.5,87.5C 357.528,78.5599 356.861,69.2266 357.5,59.5C 358.666,57.834 358.666,56.1673 357.5,54.5C 353.348,58.1511 349.348,61.9844 345.5,66C 344.552,66.4828 343.552,66.6495 342.5,66.5C 340.833,65.5 339.5,64.1667 338.5,62.5C 337.089,60.086 335.089,58.4194 332.5,57.5C 332.167,56.5 331.5,55.8333 330.5,55.5C 330.217,54.7109 329.717,54.0442 329,53.5C 328.5,63.1609 328.334,72.8276 328.5,82.5C 322.833,82.5 317.167,82.5 311.5,82.5C 310.168,70.6855 309.501,58.5188 309.5,46C 309.667,33.8333 309.833,21.6667 310,9.5C 321.345,19.5131 332.678,29.5131 344,39.5C 355.121,30.049 365.954,20.2157 376.5,10C 377.816,9.47189 378.483,9.97189 378.5,11.5 Z"/></g>
<g><path style="opacity:0.71" fill="#fffcfc" d="M 378.5,11.5 C 379.832,22.6467 380.499,34.1467 380.5,46C 380.167,57.5 379.833,69 379.5,80.5C 373.288,83.773 366.954,86.773 360.5,89.5C 359.702,89.0431 359.369,88.3764 359.5,87.5C 364.684,83.7396 370.35,80.7396 376.5,78.5C 378.489,56.8587 379.156,34.8587 378.5,12.5C 378.5,12.1667 378.5,11.8333 378.5,11.5 Z"/></g>
<g><path style="opacity:1" fill="#ffcecb" d="M 378.5,12.5 C 379.156,34.8587 378.489,56.8587 376.5,78.5C 377.156,56.4021 377.823,34.4021 378.5,12.5 Z"/></g>
<g><path style="opacity:0.981" fill="#fc7469" d="M 445.5,26.5 C 451.616,39.8449 452.116,53.5116 447,67.5C 442.85,74.6349 436.683,79.1349 428.5,81C 416.225,83.6503 404.559,82.1503 393.5,76.5C 385.15,69.1349 381.483,59.8016 382.5,48.5C 381.099,30.4344 389.099,19.2677 406.5,15C 416.761,13.6783 426.761,14.6783 436.5,18C 440.047,20.3839 443.047,23.2173 445.5,26.5 Z M 428.5,38.5 C 434.57,57.5707 427.903,65.0707 408.5,61C 407.627,59.955 406.627,59.1217 405.5,58.5C 402.372,39.5534 410.038,32.8867 428.5,38.5 Z"/></g>
<g><path style="opacity:0.994" fill="#fc7469" d="M 514.5,16.5 C 510.598,21.9599 506.931,27.6266 503.5,33.5C 498.167,33.5 492.833,33.5 487.5,33.5C 487.816,48.5781 487.483,63.5781 486.5,78.5C 480.448,80.5182 475.114,83.5182 470.5,87.5C 468.514,70.8662 467.848,53.8662 468.5,36.5C 468.5,35.5 468.5,34.5 468.5,33.5C 463.305,33.1795 458.305,33.5128 453.5,34.5C 451.833,32.5 450.167,30.5 448.5,28.5C 446.446,24.0614 444.113,19.728 441.5,15.5C 466.16,14.3335 490.827,14.1668 515.5,15C 514.944,15.3826 514.611,15.8826 514.5,16.5 Z"/></g>
<g><path style="opacity:0.983" fill="#fc7469" d="M 568.5,26.5 C 574.616,39.8449 575.116,53.5116 570,67.5C 565.85,74.6349 559.683,79.1349 551.5,81C 539.225,83.6503 527.559,82.1503 516.5,76.5C 510.995,72.1738 507.495,66.5072 506,59.5C 505.202,51.754 505.369,44.0873 506.5,36.5C 508.39,31.0506 511.057,26.0506 514.5,21.5C 515.167,21.5 515.5,21.1667 515.5,20.5C 529.739,13.4875 544.406,12.6542 559.5,18C 563.047,20.3839 566.047,23.2173 568.5,26.5 Z M 551.5,38.5 C 557.57,57.5707 550.903,65.0707 531.5,61C 530.627,59.955 529.627,59.1217 528.5,58.5C 525.372,39.5534 533.038,32.8867 551.5,38.5 Z"/></g>
<g><path style="opacity:0.991" fill="#fc7469" d="M 636.5,20.5 C 641.653,30.3306 641.819,40.3306 637,50.5C 635.108,52.0542 633.608,53.8876 632.5,56C 637.24,64.814 642.24,73.4806 647.5,82C 640.174,82.4997 632.841,82.6663 625.5,82.5C 620.378,75.693 616.044,68.3596 612.5,60.5C 612.167,59.8333 611.833,59.1667 611.5,58.5C 606.695,57.5128 601.695,57.1795 596.5,57.5C 596.795,64.5878 596.462,71.5878 595.5,78.5C 589.448,80.5182 584.114,83.5182 579.5,87.5C 577.515,71.5342 576.848,55.2009 577.5,38.5C 591.504,38.6666 605.504,38.4999 619.5,38C 620.056,37.6174 620.389,37.1174 620.5,36.5C 621.774,35.8106 621.774,34.9772 620.5,34C 608.326,33.1737 596.326,33.3403 584.5,34.5C 580.275,28.3999 576.275,22.0665 572.5,15.5C 590.491,14.3337 608.491,14.167 626.5,15C 630.627,15.5599 633.96,17.3932 636.5,20.5 Z"/></g>
<g><path style="opacity:0.982" fill="#fc7469" d="M 714.5,16.5 C 710.68,21.4607 707.347,26.7941 704.5,32.5C 691.735,33.1488 679.068,33.8155 666.5,34.5C 666.157,36.4832 666.824,37.8166 668.5,38.5C 677.506,38.3336 686.506,38.5002 695.5,39C 699.627,39.5599 702.96,41.3932 705.5,44.5C 709.85,53.0406 710.683,62.0406 708,71.5C 704.847,77.8365 699.68,81.3365 692.5,82C 679.504,82.4999 666.504,82.6666 653.5,82.5C 648.775,76.7378 644.775,70.4044 641.5,63.5C 657.854,63.1585 673.854,62.1585 689.5,60.5C 690.774,59.8106 690.774,58.9772 689.5,58C 680.167,57.6667 670.833,57.3333 661.5,57C 658.236,56.3623 655.236,55.1957 652.5,53.5C 647.647,48.7768 645.647,42.9434 646.5,36C 645.194,24.9794 649.86,17.9794 660.5,15C 678.833,14.3333 697.167,14.3333 715.5,15C 714.944,15.3826 714.611,15.8826 714.5,16.5 Z"/></g>
<g><path style="opacity:0.765" fill="#fffbfa" d="M 89.5,22.5 C 86.6079,26.6021 83.9412,30.9355 81.5,35.5C 76.2079,36.4948 70.8746,36.8282 65.5,36.5C 65.8326,51.1818 65.4993,65.8485 64.5,80.5C 58.5,83.5 52.5,86.5 46.5,89.5C 45.7025,89.0431 45.3691,88.3764 45.5,87.5C 50.1143,83.5182 55.4476,80.5182 61.5,78.5C 63.4833,64.2048 64.1499,49.5381 63.5,34.5C 68.6946,34.8205 73.6946,34.4872 78.5,33.5C 81.989,27.8613 85.489,22.1946 89,16.5C 89.4955,18.4727 89.6621,20.4727 89.5,22.5 Z"/></g>
<g><path style="opacity:0.737" fill="#ffefee" d="M 109.5,16.5 C 111.202,31.1759 112.202,46.1759 112.5,61.5C 110.59,60.0254 109.424,58.0254 109,55.5C 108.173,42.3268 108.34,29.3268 109.5,16.5 Z"/></g>
<g><path style="opacity:0.817" fill="#fff1ef" d="M 150.5,19.5 C 150.667,33.8372 150.5,48.1705 150,62.5C 148.29,74.5434 141.457,81.7101 129.5,84C 123.5,84.6667 117.5,84.6667 111.5,84C 107.224,83.1953 103.557,81.3619 100.5,78.5C 107.822,81.6654 115.488,82.8321 123.5,82C 135.315,81.5186 143.149,75.6852 147,64.5C 147.167,48.4896 147.667,32.4896 148.5,16.5C 149.919,17.0047 150.585,18.0047 150.5,19.5 Z"/></g>
<g><path style="opacity:1" fill="#ffc4c1" d="M 285.5,16.5 C 285.5,41.5 285.5,66.5 285.5,91.5C 282.891,90.5569 280.891,88.8903 279.5,86.5C 281.371,86.8588 282.871,87.8588 284,89.5C 284.168,64.9966 284.668,40.6632 285.5,16.5 Z"/></g>
<g><path style="opacity:0.728" fill="#fefffe" d="M 285.5,16.5 C 286.833,28.9822 287.499,41.8155 287.5,55C 287.333,67.8333 287.167,80.6667 287,93.5C 286.283,92.9558 285.783,92.2891 285.5,91.5C 285.5,66.5 285.5,41.5 285.5,16.5 Z"/></g>
<g><path style="opacity:0.778" fill="#fffaf9" d="M 514.5,16.5 C 515.552,16.3505 516.552,16.5172 517.5,17C 516.177,17.8159 515.511,18.9826 515.5,20.5C 514.833,20.5 514.5,20.8333 514.5,21.5C 511.057,26.0506 508.39,31.0506 506.5,36.5C 501.167,36.5 495.833,36.5 490.5,36.5C 490.833,51.1818 490.499,65.8485 489.5,80.5C 483.5,83.5 477.5,86.5 471.5,89.5C 470.702,89.0431 470.369,88.3764 470.5,87.5C 475.114,83.5182 480.448,80.5182 486.5,78.5C 488.483,64.2048 489.15,49.5381 488.5,34.5C 493.695,34.8205 498.695,34.4872 503.5,33.5C 506.931,27.6266 510.598,21.9599 514.5,16.5 Z"/></g>
<g><path style="opacity:0.77" fill="#fffcfc" d="M 714.5,16.5 C 715.552,16.3505 716.552,16.5172 717.5,17C 713.456,22.9189 709.789,29.0855 706.5,35.5C 693.473,35.8441 680.807,36.8441 668.5,38.5C 666.824,37.8166 666.157,36.4832 666.5,34.5C 679.544,35.147 692.211,34.4803 704.5,32.5C 707.347,26.7941 710.68,21.4607 714.5,16.5 Z"/></g>
<g><path style="opacity:0.737" fill="#fff3f2" d="M 212.5,20.5 C 217.548,25.2898 219.881,31.2898 219.5,38.5C 219.878,46.5766 216.878,53.0766 210.5,58C 214.317,63.8134 217.983,69.6467 221.5,75.5C 221.649,76.552 221.483,77.552 221,78.5C 216.817,70.99 212.65,63.49 208.5,56C 209.608,53.8876 211.108,52.0542 213,50.5C 217.819,40.3306 217.653,30.3306 212.5,20.5 Z"/></g>
<g><path style="opacity:0.737" fill="#fff5f4" d="M 636.5,20.5 C 641.548,25.2898 643.881,31.2898 643.5,38.5C 643.878,46.5766 640.878,53.0766 634.5,58C 639.904,66.6446 644.904,75.4779 649.5,84.5C 641.826,84.6664 634.159,84.4997 626.5,84C 625.944,83.6174 625.611,83.1174 625.5,82.5C 632.841,82.6663 640.174,82.4997 647.5,82C 642.24,73.4806 637.24,64.814 632.5,56C 633.608,53.8876 635.108,52.0542 637,50.5C 641.819,40.3306 641.653,30.3306 636.5,20.5 Z"/></g>
<g><path style="opacity:0.805" fill="#fff6f5" d="M 445.5,26.5 C 446.5,27.1667 447.5,27.8333 448.5,28.5C 453.971,40.8237 454.804,53.4904 451,66.5C 444.548,80.0657 433.714,86.0657 418.5,84.5C 410.264,85.0242 402.597,83.1909 395.5,79C 394.619,78.2917 393.953,77.4584 393.5,76.5C 404.559,82.1503 416.225,83.6503 428.5,81C 436.683,79.1349 442.85,74.6349 447,67.5C 452.116,53.5116 451.616,39.8449 445.5,26.5 Z"/></g>
<g><path style="opacity:0.805" fill="#fff6f5" d="M 568.5,26.5 C 571.051,28.5777 572.884,31.2444 574,34.5C 581.948,73.2175 566.448,89.3842 527.5,83C 523.142,81.8277 519.475,79.6611 516.5,76.5C 527.559,82.1503 539.225,83.6503 551.5,81C 559.683,79.1349 565.85,74.6349 570,67.5C 575.116,53.5116 574.616,39.8449 568.5,26.5 Z"/></g>
<g><path style="opacity:1" fill="#ffc5c2" d="M 704.5,32.5 C 692.211,34.4803 679.544,35.147 666.5,34.5C 679.068,33.8155 691.735,33.1488 704.5,32.5 Z"/></g>
<g><path style="opacity:0.71" fill="#fff0ef" d="M 43.5,36.5 C 38.8215,36.6658 34.1548,36.4992 29.5,36C 28.944,35.6174 28.6107,35.1174 28.5,34.5C 33.3054,33.5128 38.3054,33.1795 43.5,33.5C 43.5,34.5 43.5,35.5 43.5,36.5 Z"/></g>
<g><path style="opacity:1" fill="#ffc5c2" d="M 78.5,33.5 C 73.6946,34.4872 68.6946,34.8205 63.5,34.5C 64.1499,49.5381 63.4833,64.2048 61.5,78.5C 62.483,63.5781 62.8164,48.5781 62.5,33.5C 67.8333,33.5 73.1667,33.5 78.5,33.5 Z"/></g>
<g><path style="opacity:0.724" fill="#ffefee" d="M 196.5,36.5 C 184.829,36.6665 173.162,36.4999 161.5,36C 160.944,35.6174 160.611,35.1174 160.5,34.5C 172.326,33.3403 184.326,33.1737 196.5,34C 197.774,34.9772 197.774,35.8106 196.5,36.5 Z"/></g>
<g><path style="opacity:0.805" fill="#fff1f0" d="M 428.5,38.5 C 410.038,32.8867 402.372,39.5534 405.5,58.5C 399.703,50.5445 400.37,43.0445 407.5,36C 415.211,32.1726 422.211,33.0059 428.5,38.5 Z"/></g>
<g><path style="opacity:0.71" fill="#fff0ef" d="M 468.5,36.5 C 463.821,36.6658 459.155,36.4992 454.5,36C 453.944,35.6174 453.611,35.1174 453.5,34.5C 458.305,33.5128 463.305,33.1795 468.5,33.5C 468.5,34.5 468.5,35.5 468.5,36.5 Z"/></g>
<g><path style="opacity:1" fill="#ffc5c2" d="M 503.5,33.5 C 498.695,34.4872 493.695,34.8205 488.5,34.5C 489.15,49.5381 488.483,64.2048 486.5,78.5C 487.483,63.5781 487.816,48.5781 487.5,33.5C 492.833,33.5 498.167,33.5 503.5,33.5 Z"/></g>
<g><path style="opacity:0.805" fill="#fff1f0" d="M 551.5,38.5 C 533.038,32.8867 525.372,39.5534 528.5,58.5C 522.703,50.5445 523.37,43.0445 530.5,36C 538.211,32.1726 545.211,33.0059 551.5,38.5 Z"/></g>
<g><path style="opacity:0.724" fill="#ffefee" d="M 620.5,36.5 C 608.829,36.6665 597.162,36.4999 585.5,36C 584.944,35.6174 584.611,35.1174 584.5,34.5C 596.326,33.3403 608.326,33.1737 620.5,34C 621.774,34.9772 621.774,35.8106 620.5,36.5 Z"/></g>
<g><path style="opacity:0.869" fill="#fff8f8" d="M 705.5,44.5 C 710.553,49.3268 712.886,55.3268 712.5,62.5C 712.721,69.1249 710.721,74.9582 706.5,80C 703.874,82.1457 700.874,83.479 697.5,84C 683.167,84.6667 668.833,84.6667 654.5,84C 653.944,83.6174 653.611,83.1174 653.5,82.5C 666.504,82.6666 679.504,82.4999 692.5,82C 699.68,81.3365 704.847,77.8365 708,71.5C 710.683,62.0406 709.85,53.0406 705.5,44.5 Z"/></g>
<g><path style="opacity:1" fill="#ffc5c2" d="M 242.5,52.5 C 241.833,62.5 241.167,72.5 240.5,82.5C 240.168,72.1452 240.501,61.8119 241.5,51.5C 242.107,51.6236 242.44,51.9569 242.5,52.5 Z"/></g>
<g><path style="opacity:0.87" fill="#fffefe" d="M 242.5,52.5 C 243.5,52.8333 244.167,53.5 244.5,54.5C 243.506,64.3194 243.173,74.3194 243.5,84.5C 229.965,85.1986 216.299,85.032 202.5,84C 201.944,83.6174 201.611,83.1174 201.5,82.5C 214.5,82.5 227.5,82.5 240.5,82.5C 241.167,72.5 241.833,62.5 242.5,52.5 Z"/></g>
<g><path style="opacity:1" fill="#ffbbb6" d="M 244.5,54.5 C 247.089,55.4194 249.089,57.086 250.5,59.5C 247.911,58.5806 245.911,56.914 244.5,54.5 Z"/></g>
<g><path style="opacity:1" fill="#ffc4c1" d="M 330.5,55.5 C 329.833,64.5 329.167,73.5 328.5,82.5C 328.334,72.8276 328.5,63.1609 329,53.5C 329.717,54.0442 330.217,54.7109 330.5,55.5 Z"/></g>
<g><path style="opacity:0.839" fill="#fffefe" d="M 330.5,55.5 C 331.5,55.8333 332.167,56.5 332.5,57.5C 331.507,66.3178 331.173,75.3178 331.5,84.5C 324.416,85.1255 317.75,84.4589 311.5,82.5C 317.167,82.5 322.833,82.5 328.5,82.5C 329.167,73.5 329.833,64.5 330.5,55.5 Z"/></g>
<g><path style="opacity:0.814" fill="#fff7f6" d="M 357.5,59.5 C 353.811,63.187 349.811,66.5203 345.5,69.5C 344.145,68.8118 343.145,67.8118 342.5,66.5C 343.552,66.6495 344.552,66.4828 345.5,66C 349.348,61.9844 353.348,58.1511 357.5,54.5C 358.666,56.1673 358.666,57.834 357.5,59.5 Z"/></g>
<g><path style="opacity:1" fill="#ffb9b3" d="M 332.5,57.5 C 335.089,58.4194 337.089,60.086 338.5,62.5C 335.911,61.5806 333.911,59.914 332.5,57.5 Z"/></g>
<g><path style="opacity:0.741" fill="#ffefee" d="M 652.5,53.5 C 655.236,55.1957 658.236,56.3623 661.5,57C 670.833,57.3333 680.167,57.6667 689.5,58C 690.774,58.9772 690.774,59.8106 689.5,60.5C 679.783,60.824 670.116,60.324 660.5,59C 657.244,57.884 654.578,56.0507 652.5,53.5 Z"/></g>
<g><path style="opacity:1" fill="#ffc4c1" d="M 187.5,58.5 C 182.833,58.5 178.167,58.5 173.5,58.5C 174.126,65.5837 173.459,72.2504 171.5,78.5C 172.462,71.5878 172.795,64.5878 172.5,57.5C 177.695,57.1795 182.695,57.5128 187.5,58.5 Z"/></g>
<g><path style="opacity:0.756" fill="#fffaf9" d="M 187.5,58.5 C 187.833,59.1667 188.167,59.8333 188.5,60.5C 184.167,60.5 179.833,60.5 175.5,60.5C 175.83,67.1998 175.497,73.8665 174.5,80.5C 168.5,83.5 162.5,86.5 156.5,89.5C 155.702,89.0431 155.369,88.3764 155.5,87.5C 160.114,83.5182 165.448,80.5182 171.5,78.5C 173.459,72.2504 174.126,65.5837 173.5,58.5C 178.167,58.5 182.833,58.5 187.5,58.5 Z"/></g>
<g><path style="opacity:1" fill="#ffc4c1" d="M 611.5,58.5 C 606.833,58.5 602.167,58.5 597.5,58.5C 598.126,65.5837 597.459,72.2504 595.5,78.5C 596.462,71.5878 596.795,64.5878 596.5,57.5C 601.695,57.1795 606.695,57.5128 611.5,58.5 Z"/></g>
<g><path style="opacity:0.756" fill="#fffaf9" d="M 611.5,58.5 C 611.833,59.1667 612.167,59.8333 612.5,60.5C 608.167,60.5 603.833,60.5 599.5,60.5C 599.83,67.1998 599.497,73.8665 598.5,80.5C 592.5,83.5 586.5,86.5 580.5,89.5C 579.702,89.0431 579.369,88.3764 579.5,87.5C 584.114,83.5182 589.448,80.5182 595.5,78.5C 597.459,72.2504 598.126,65.5837 597.5,58.5C 602.167,58.5 606.833,58.5 611.5,58.5 Z"/></g>
<g><path style="opacity:0.953" fill="#ffc4bf" d="M 258.5,67.5 C 260.027,67.427 261.027,68.0937 261.5,69.5C 259.973,69.573 258.973,68.9063 258.5,67.5 Z"/></g>
<g><path style="opacity:1" fill="#ffb9b3" d="M 267.5,75.5 C 270.089,76.4194 272.089,78.086 273.5,80.5C 270.911,79.5806 268.911,77.914 267.5,75.5 Z"/></g>
<g><path style="opacity:0.835" fill="#ffd3cf" d="M 97.5,76.5 C 99.0269,76.427 100.027,77.0937 100.5,78.5C 98.9731,78.573 97.9731,77.9063 97.5,76.5 Z"/></g>
<g><path style="opacity:0.067" fill="#fefffe" d="M 649.5,84.5 C 650.833,85.1667 650.833,85.1667 649.5,84.5 Z"/></g>
</svg>
