<?xml version="1.0" encoding="UTF-8"?>
<!DOCTYPE svg PUBLIC "-//W3C//DTD SVG 1.1//EN" "http://www.w3.org/Graphics/SVG/1.1/DTD/svg11.dtd">
<svg xmlns="http://www.w3.org/2000/svg" version="1.1" width="340px" height="373px" style="shape-rendering:geometricPrecision; text-rendering:geometricPrecision; image-rendering:optimizeQuality; fill-rule:evenodd; clip-rule:evenodd" xmlns:xlink="http://www.w3.org/1999/xlink">
<g><path style="opacity:0.949" fill="#d8d8d8" d="M 120.5,0.5 C 120.5,0.166667 120.5,-0.166667 120.5,-0.5C 123.167,-0.5 125.833,-0.5 128.5,-0.5C 128.038,0.879891 127.038,1.54656 125.5,1.5C 123.865,0.953744 122.199,0.620411 120.5,0.5 Z"/></g>
<g><path style="opacity:0.88" fill="#6a6a6a" d="M 153.5,2.5 C 155.709,1.02421 157.042,1.69087 157.5,4.5C 156.391,4.55688 155.391,4.89022 154.5,5.5C 154.414,4.5041 154.748,3.67076 155.5,3C 154.906,2.53566 154.239,2.36899 153.5,2.5 Z"/></g>
<g><path style="opacity:1" fill="#6f6f6f" d="M 161.5,4.5 C 162.568,3.56552 163.901,3.23219 165.5,3.5C 165.433,4.95875 165.766,6.29208 166.5,7.5C 165.153,6.82881 163.986,6.82881 163,7.5C 162.544,6.25591 163.044,5.42258 164.5,5C 163.552,4.51722 162.552,4.35055 161.5,4.5 Z"/></g>
<g><path style="opacity:0.733" fill="#575757" d="M 173.5,9.5 C 171.214,9.40505 169.214,8.73838 167.5,7.5C 169.435,6.85048 171.435,6.51715 173.5,6.5C 173.5,7.5 173.5,8.5 173.5,9.5 Z"/></g>
<g><path style="opacity:0.8" fill="#6f6f6f" d="M 181.5,13.5 C 179.426,12.4861 177.426,11.4861 175.5,10.5C 176.93,10.5792 178.264,10.2458 179.5,9.5C 181.111,10.3202 181.778,11.6536 181.5,13.5 Z"/></g>
<g><path style="opacity:0.137" fill="#b2b2b2" d="M 89.5,10.5 C 89.5,11.5 89.5,12.5 89.5,13.5C 87.5,13.5 85.5,13.5 83.5,13.5C 85.6391,12.8419 87.6391,11.8419 89.5,10.5 Z"/></g>
<g><path style="opacity:0.999" fill="#1c1c1c" d="M 157.5,4.5 C 158.964,5.40536 160.298,5.40536 161.5,4.5C 162.552,4.35055 163.552,4.51722 164.5,5C 163.044,5.42258 162.544,6.25591 163,7.5C 163.986,6.82881 165.153,6.82881 166.5,7.5C 166.833,7.5 167.167,7.5 167.5,7.5C 169.214,8.73838 171.214,9.40505 173.5,9.5C 174.167,9.83333 174.833,10.1667 175.5,10.5C 177.426,11.4861 179.426,12.4861 181.5,13.5C 183.518,14.6225 185.518,14.6225 187.5,13.5C 188.95,14.6554 189.95,16.1554 190.5,18C 192.315,18.7568 193.981,19.5902 195.5,20.5C 195.5,21.1667 195.5,21.8333 195.5,22.5C 194.262,22.81 194.262,23.31 195.5,24C 194.552,24.4828 193.552,24.6495 192.5,24.5C 192.163,27.8329 190.496,28.8329 187.5,27.5C 185.995,30.1306 185.329,29.7973 185.5,26.5C 182.402,26.5875 182.068,26.0875 184.5,25C 182.603,23.8903 180.77,23.7236 179,24.5C 178.51,23.2068 178.343,21.8734 178.5,20.5C 177.5,20.5 176.5,20.5 175.5,20.5C 175.5,19.5 175.5,18.5 175.5,17.5C 176.873,17.6567 178.207,17.49 179.5,17C 177.136,15.1353 174.47,13.9686 171.5,13.5C 169.088,13.4062 167.255,14.4062 166,16.5C 165.667,15.8333 165.333,15.1667 165,14.5C 164.29,15.9733 163.124,16.6399 161.5,16.5C 162.975,12.7742 161.808,10.1075 158,8.5C 157.127,8.73546 156.293,9.0688 155.5,9.5C 155.212,8.13949 154.879,6.80616 154.5,5.5C 155.391,4.89022 156.391,4.55688 157.5,4.5 Z"/></g>
<g><path style="opacity:0.063" fill="#b8b9b8" d="M 75.5,20.5 C 75.1788,22.0481 74.1788,22.7148 72.5,22.5C 73.2905,21.5987 74.2905,20.9321 75.5,20.5 Z"/></g>
<g><path style="opacity:1" fill="#1a1a1a" d="M 128.5,-0.5 C 129.167,-0.5 129.833,-0.5 130.5,-0.5C 131.772,0.434327 133.272,1.10099 135,1.5C 136.03,1.16389 136.53,0.497222 136.5,-0.5C 137.833,-0.5 139.167,-0.5 140.5,-0.5C 141.122,0.626561 141.955,1.62656 143,2.5C 143.804,1.19551 144.971,0.528845 146.5,0.5C 148.511,1.51864 150.511,2.51864 152.5,3.5C 151.791,4.40397 150.791,4.73731 149.5,4.5C 149.716,6.68072 148.883,8.34738 147,9.5C 145.103,7.98368 142.936,7.31701 140.5,7.5C 140.762,6.02218 140.429,4.68884 139.5,3.5C 138.802,6.26902 137.468,8.60236 135.5,10.5C 136.711,11.7202 136.711,12.8869 135.5,14C 134.256,14.4561 133.423,13.9561 133,12.5C 131.5,14 130,15.5 128.5,17C 130.271,17.5354 130.604,18.3687 129.5,19.5C 121.038,23.7756 113.205,29.1089 106,35.5C 105.355,36.646 104.522,37.646 103.5,38.5C 104.811,39.2575 105.311,40.2575 105,41.5C 103.736,41.6399 102.569,41.6399 101.5,41.5C 102.531,42.7003 103.365,44.0337 104,45.5C 104.816,44.1772 105.983,43.5106 107.5,43.5C 108.5,43.5 109.5,43.5 110.5,43.5C 105.882,45.9541 102.382,49.6207 100,54.5C 96.5126,61.1365 93.3459,67.8031 90.5,74.5C 89.963,71.9641 88.6297,69.9641 86.5,68.5C 88.1408,64.0726 89.6408,59.7393 91,55.5C 85.3948,48.453 78.2281,44.1197 69.5,42.5C 66.3188,41.4095 62.9855,41.4095 59.5,42.5C 58.8333,42.5 58.5,42.1667 58.5,41.5C 58.3379,39.4727 58.5045,37.4727 59,35.5C 60.8161,34.6705 62.6494,33.8372 64.5,33C 63.3962,29.1388 65.0628,27.3054 69.5,27.5C 69.2729,25.0672 70.2729,23.4006 72.5,22.5C 74.1788,22.7148 75.1788,22.0481 75.5,20.5C 78.4386,18.4616 81.1053,16.1283 83.5,13.5C 85.5,13.5 87.5,13.5 89.5,13.5C 89.5,12.5 89.5,11.5 89.5,10.5C 93.5238,9.3463 97.3571,7.67964 101,5.5C 101.772,5.6448 102.439,5.97814 103,6.5C 104.635,2.2296 107.135,1.56293 110.5,4.5C 112.503,0.873747 115.003,0.207081 118,2.5C 118.708,1.61947 119.542,0.952802 120.5,0.5C 122.199,0.620411 123.865,0.953744 125.5,1.5C 127.038,1.54656 128.038,0.879891 128.5,-0.5 Z"/></g>
<g><path style="opacity:0.962" fill="#e7e7e7" d="M 130.5,-0.5 C 132.5,-0.5 134.5,-0.5 136.5,-0.5C 136.53,0.497222 136.03,1.16389 135,1.5C 133.272,1.10099 131.772,0.434327 130.5,-0.5 Z"/></g>
<g><path style="opacity:1" fill="#949494" d="M 195.5,20.5 C 201.694,25.4226 208.027,30.0893 214.5,34.5C 213.681,37.3054 213.181,40.3054 213,43.5C 208.589,40.0447 204.089,36.7114 199.5,33.5C 198.679,30.5535 198.179,27.5535 198,24.5C 197.292,23.6195 196.458,22.9528 195.5,22.5C 195.5,21.8333 195.5,21.1667 195.5,20.5 Z"/></g>
<g><path style="opacity:1" fill="#999999" d="M 69.5,42.5 C 69.6107,43.1174 69.944,43.6174 70.5,44C 69.3495,46.9238 68.0162,49.7571 66.5,52.5C 67.0253,53.1924 67.6919,53.6924 68.5,54C 66.8251,54.9853 65.1585,55.8186 63.5,56.5C 60.0589,56.5695 57.0589,56.2361 54.5,55.5C 55.7192,50.923 57.3859,46.5897 59.5,42.5C 62.9855,41.4095 66.3188,41.4095 69.5,42.5 Z"/></g>
<g><path style="opacity:0.745" fill="#676767" d="M 162.5,46.5 C 165.152,46.4095 167.485,47.0762 169.5,48.5C 166.848,48.5905 164.515,47.9238 162.5,46.5 Z"/></g>
<g><path style="opacity:0.341" fill="#929292" d="M 225.5,44.5 C 229.5,47.8333 233.167,51.5 236.5,55.5C 229.98,54.8589 226.313,51.1922 225.5,44.5 Z"/></g>
<g><path style="opacity:1" fill="#aeaeae" d="M 69.5,42.5 C 78.2281,44.1197 85.3948,48.453 91,55.5C 89.6408,59.7393 88.1408,64.0726 86.5,68.5C 84.1838,67.1944 81.8505,65.8611 79.5,64.5C 75.4306,61.1319 70.7639,58.7986 65.5,57.5C 65.1583,56.6618 64.4916,56.3284 63.5,56.5C 65.1585,55.8186 66.8251,54.9853 68.5,54C 67.6919,53.6924 67.0253,53.1924 66.5,52.5C 68.0162,49.7571 69.3495,46.9238 70.5,44C 69.944,43.6174 69.6107,43.1174 69.5,42.5 Z"/></g>
<g><path style="opacity:1" fill="#6a6a6a" d="M 58.5,41.5 C 58.5,42.1667 58.8333,42.5 59.5,42.5C 57.3859,46.5897 55.7192,50.923 54.5,55.5C 57.0589,56.2361 60.0589,56.5695 63.5,56.5C 64.4916,56.3284 65.1583,56.6618 65.5,57.5C 65.1667,57.5 64.8333,57.5 64.5,57.5C 58.4855,56.618 53.1521,57.9514 48.5,61.5C 49.8343,56.3316 51.6677,51.3316 54,46.5C 54.9959,44.3395 56.4959,42.6728 58.5,41.5 Z"/></g>
<g><path style="opacity:0.553" fill="#6c6c6c" d="M 184.5,55.5 C 186.027,55.427 187.027,56.0937 187.5,57.5C 185.973,57.573 184.973,56.9063 184.5,55.5 Z"/></g>
<g><path style="opacity:1" fill="#1f1f1f" d="M 64.5,57.5 C 64.8333,57.5 65.1667,57.5 65.5,57.5C 70.7639,58.7986 75.4306,61.1319 79.5,64.5C 79.6198,67.2048 78.6198,67.8715 76.5,66.5C 75.8679,68.7368 74.5346,70.4035 72.5,71.5C 73.1667,73.5 73.8333,75.5 74.5,77.5C 74.0431,78.2975 73.3764,78.6309 72.5,78.5C 70.2872,77.2271 67.9538,76.2271 65.5,75.5C 63.3926,74.5318 61.0593,74.1984 58.5,74.5C 58.3893,73.8826 58.056,73.3826 57.5,73C 58.8333,73 60.1667,73 61.5,73C 60.7626,69.9356 60.4292,66.9356 60.5,64C 61.2259,61.3661 62.5593,59.1995 64.5,57.5 Z"/></g>
<g><path style="opacity:0.678" fill="#818181" d="M 242.5,61.5 C 243.906,61.9731 244.573,62.9731 244.5,64.5C 243.094,64.0269 242.427,63.0269 242.5,61.5 Z"/></g>
<g><path style="opacity:1" fill="#161616" d="M 64.5,57.5 C 62.5593,59.1995 61.2259,61.3661 60.5,64C 60.4292,66.9356 60.7626,69.9356 61.5,73C 60.1667,73 58.8333,73 57.5,73C 58.056,73.3826 58.3893,73.8826 58.5,74.5C 54.6472,76.6989 52.3139,80.0322 51.5,84.5C 52.4745,88.6687 55.1411,91.0021 59.5,91.5C 58.0003,93.1786 56.167,94.5119 54,95.5C 53.5506,98.132 52.7173,100.632 51.5,103C 51.7591,104.261 52.4258,105.261 53.5,106C 52.536,107.725 51.8693,109.559 51.5,111.5C 44.251,121.639 46.9177,127.639 59.5,129.5C 64.6831,129.562 68.6831,127.562 71.5,123.5C 72.2663,121.316 72.9329,118.982 73.5,116.5C 71.458,115.497 71.1246,114.163 72.5,112.5C 71.3687,111.396 70.5354,111.729 70,113.5C 68.2608,110.158 66.7608,107.158 65.5,104.5C 66.1033,102.548 65.77,100.548 64.5,98.5C 65.3094,96.9291 65.6427,95.2624 65.5,93.5C 67.4147,93.7845 69.0813,93.4511 70.5,92.5C 73.6349,91.7003 75.3016,89.7003 75.5,86.5C 75.0362,83.5829 74.0362,80.9163 72.5,78.5C 73.3764,78.6309 74.0431,78.2975 74.5,77.5C 73.8333,75.5 73.1667,73.5 72.5,71.5C 74.5346,70.4035 75.8679,68.7368 76.5,66.5C 78.6198,67.8715 79.6198,67.2048 79.5,64.5C 81.8505,65.8611 84.1838,67.1944 86.5,68.5C 88.6297,69.9641 89.963,71.9641 90.5,74.5C 88.8336,81.166 87.167,87.8326 85.5,94.5C 83.7345,97.1226 83.0679,100.123 83.5,103.5C 82.4128,126.056 84.0795,148.389 88.5,170.5C 88.6621,172.527 88.4955,174.527 88,176.5C 87.2985,173.673 86.2985,171.006 85,168.5C 84.7846,174.008 85.9513,179.174 88.5,184C 86.9194,184.707 85.4194,185.54 84,186.5C 83.3333,185.167 82.3333,184.167 81,183.5C 80.3005,178.071 78.8005,172.905 76.5,168C 77.2871,166.687 76.9538,165.52 75.5,164.5C 76.5245,155.869 72.8579,150.536 64.5,148.5C 65.8047,143.51 65.6381,138.51 64,133.5C 62.9085,131.883 61.4085,130.883 59.5,130.5C 57.2478,131.333 55.0811,131.333 53,130.5C 51.9783,131.354 51.1449,132.354 50.5,133.5C 51.1667,136.167 51.8333,138.833 52.5,141.5C 51.8333,142.5 51.1667,143.5 50.5,144.5C 51.0253,145.192 51.6919,145.692 52.5,146C 48.6051,149.454 46.9384,153.62 47.5,158.5C 48.2811,157.271 48.7811,155.938 49,154.5C 49.1829,157.365 49.6829,160.031 50.5,162.5C 51.1894,165.189 52.856,166.856 55.5,167.5C 54.9325,171.229 56.2659,174.396 59.5,177C 57.4249,178.581 57.4249,180.415 59.5,182.5C 60.1835,182.137 60.8501,181.804 61.5,181.5C 65.4123,182.993 65.079,183.66 60.5,183.5C 60.2196,186.388 61.5529,187.888 64.5,188C 64.1667,188.333 63.8333,188.667 63.5,189C 64.4158,189.278 65.0825,189.778 65.5,190.5C 64.8333,190.833 64.1667,191.167 63.5,191.5C 61.4471,191.402 59.7804,192.069 58.5,193.5C 55.911,193.461 53.911,194.461 52.5,196.5C 50.0885,196.137 48.5885,197.137 48,199.5C 47.7216,198.584 47.2216,197.918 46.5,197.5C 43.7188,189.374 41.7188,181.041 40.5,172.5C 40.3305,170.088 40.9972,167.921 42.5,166C 41.5765,164.189 40.7431,164.355 40,166.5C 39.7679,165.263 39.2679,164.263 38.5,163.5C 37.0197,155.925 36.353,148.259 36.5,140.5C 35.8963,135.109 36.8963,130.109 39.5,125.5C 37.6206,120.4 36.9539,115.067 37.5,109.5C 37.6119,104.386 38.2786,99.3858 39.5,94.5C 41.0395,92.1617 41.7062,89.4951 41.5,86.5C 42.8267,77.8574 45.16,69.524 48.5,61.5C 53.1521,57.9514 58.4855,56.618 64.5,57.5 Z"/></g>
<g><path style="opacity:1" fill="#888888" d="M 248.5,68.5 C 251.49,71.7923 254.49,75.1257 257.5,78.5C 251.018,78.3499 248.018,75.0166 248.5,68.5 Z"/></g>
<g><path style="opacity:1" fill="#a6a6a6" d="M 58.5,74.5 C 61.0593,74.1984 63.3926,74.5318 65.5,75.5C 62.8127,75.3359 60.146,75.5026 57.5,76C 59.3028,77.262 60.6361,78.9287 61.5,81C 60.1667,82 60.1667,83 61.5,84C 59.7139,84.1962 58.3805,85.0295 57.5,86.5C 58.7111,87.7202 58.7111,88.8869 57.5,90C 58.7375,90.2321 59.7375,90.7321 60.5,91.5C 60.1667,91.5 59.8333,91.5 59.5,91.5C 55.1411,91.0021 52.4745,88.6687 51.5,84.5C 52.3139,80.0322 54.6472,76.6989 58.5,74.5 Z"/></g>
<g><path style="opacity:1" fill="#b4b4b4" d="M 65.5,75.5 C 67.9538,76.2271 70.2872,77.2271 72.5,78.5C 74.0362,80.9163 75.0362,83.5829 75.5,86.5C 75.3016,89.7003 73.6349,91.7003 70.5,92.5C 67.1401,92.3841 63.8067,92.0508 60.5,91.5C 59.7375,90.7321 58.7375,90.2321 57.5,90C 58.7111,88.8869 58.7111,87.7202 57.5,86.5C 58.3805,85.0295 59.7139,84.1962 61.5,84C 60.1667,83 60.1667,82 61.5,81C 60.6361,78.9287 59.3028,77.262 57.5,76C 60.146,75.5026 62.8127,75.3359 65.5,75.5 Z"/></g>
<g><path style="opacity:0.451" fill="#898989" d="M 41.5,86.5 C 41.7062,89.4951 41.0395,92.1617 39.5,94.5C 39.5651,91.5718 40.2318,88.9052 41.5,86.5 Z"/></g>
<g><path style="opacity:1" fill="#292929" d="M 59.5,91.5 C 59.8333,91.5 60.1667,91.5 60.5,91.5C 63.8067,92.0508 67.1401,92.3841 70.5,92.5C 69.0813,93.4511 67.4147,93.7845 65.5,93.5C 65.6427,95.2624 65.3094,96.9291 64.5,98.5C 65.77,100.548 66.1033,102.548 65.5,104.5C 66.7608,107.158 68.2608,110.158 70,113.5C 70.5354,111.729 71.3687,111.396 72.5,112.5C 71.1246,114.163 71.458,115.497 73.5,116.5C 72.9329,118.982 72.2663,121.316 71.5,123.5C 71.34,114.837 66.84,110.17 58,109.5C 55.5897,109.482 53.423,110.149 51.5,111.5C 51.8693,109.559 52.536,107.725 53.5,106C 52.4258,105.261 51.7591,104.261 51.5,103C 52.7173,100.632 53.5506,98.132 54,95.5C 56.167,94.5119 58.0003,93.1786 59.5,91.5 Z"/></g>
<g><path style="opacity:0.694" fill="#6d6d6d" d="M 85.5,94.5 C 85.1417,97.6888 84.475,100.689 83.5,103.5C 83.0679,100.123 83.7345,97.1226 85.5,94.5 Z"/></g>
<g><path style="opacity:0.743" fill="#7d7d7d" d="M 267.5,92.5 C 270.579,95.6505 272.913,99.3171 274.5,103.5C 269.015,101.902 266.681,98.2352 267.5,92.5 Z"/></g>
<g><path style="opacity:0.541" fill="#797979" d="M 275.5,104.5 C 276.906,104.973 277.573,105.973 277.5,107.5C 276.094,107.027 275.427,106.027 275.5,104.5 Z"/></g>
<g><path style="opacity:1" fill="#bbbbbb" d="M 71.5,123.5 C 68.6831,127.562 64.6831,129.562 59.5,129.5C 46.9177,127.639 44.251,121.639 51.5,111.5C 53.423,110.149 55.5897,109.482 58,109.5C 66.84,110.17 71.34,114.837 71.5,123.5 Z"/></g>
<g><path style="opacity:1" fill="#4d4d4d" d="M 266.5,109.5 C 271.245,114.589 275.245,120.255 278.5,126.5C 277.833,126.5 277.5,126.833 277.5,127.5C 273.85,121.541 270.183,115.541 266.5,109.5 Z"/></g>
<g><path style="opacity:0.835" fill="#6a6a6a" d="M 37.5,109.5 C 36.9539,115.067 37.6206,120.4 39.5,125.5C 36.8963,130.109 35.8963,135.109 36.5,140.5C 35.4592,130.143 35.7925,119.81 37.5,109.5 Z"/></g>
<g><path style="opacity:0.663" fill="#717171" d="M 230.5,125.5 C 219.828,125.686 209.161,126.019 198.5,126.5C 209.136,124.624 219.803,124.291 230.5,125.5 Z"/></g>
<g><path style="opacity:1" fill="#0b0b0b" d="M 266.5,109.5 C 270.183,115.541 273.85,121.541 277.5,127.5C 282.259,134.783 286.259,142.45 289.5,150.5C 290.922,156.767 292.922,162.767 295.5,168.5C 305.887,199.718 309.387,231.718 306,264.5C 304.237,279.625 299.403,293.625 291.5,306.5C 291.709,307.086 292.043,307.586 292.5,308C 288.58,309.586 286.08,312.42 285,316.5C 284.667,316.167 284.333,315.833 284,315.5C 282.38,317.241 280.88,319.075 279.5,321C 275.487,323.006 271.82,325.506 268.5,328.5C 267.784,327.689 266.95,327.022 266,326.5C 263.07,329.141 259.737,331.141 256,332.5C 248.942,332.358 241.775,332.358 234.5,332.5C 234.665,329.482 234.498,326.482 234,323.5C 233.577,322.044 232.744,321.544 231.5,322C 232.971,325.321 233.637,328.821 233.5,332.5C 232.5,332.5 231.5,332.5 230.5,332.5C 230.784,330.585 230.451,328.919 229.5,327.5C 223.18,318.181 215.514,310.181 206.5,303.5C 206.027,302.094 205.027,301.427 203.5,301.5C 190.024,293.949 175.691,288.449 160.5,285C 154.954,282.396 149.621,279.563 144.5,276.5C 144.5,276.167 144.5,275.833 144.5,275.5C 143.167,273.5 141.5,271.833 139.5,270.5C 139.047,269.542 138.381,268.708 137.5,268C 135.555,268.128 133.722,267.962 132,267.5C 127.01,260.347 121.843,253.347 116.5,246.5C 116.03,242.096 114.03,239.43 110.5,238.5C 111.38,240.429 112.38,242.263 113.5,244C 112.73,246.978 111.063,247.811 108.5,246.5C 109.471,245.038 109.138,243.705 107.5,242.5C 106.167,241.833 104.833,241.167 103.5,240.5C 104.949,239.828 106.282,239.161 107.5,238.5C 107.821,236.952 108.821,236.285 110.5,236.5C 110.737,235.209 110.404,234.209 109.5,233.5C 109.47,232.503 109.97,231.836 111,231.5C 112.5,232 114,232.5 115.5,233C 114.833,233.667 114.167,234.333 113.5,235C 115.064,236.644 116.73,238.144 118.5,239.5C 121.189,239.455 122.523,238.121 122.5,235.5C 123.833,235.5 125.167,235.5 126.5,235.5C 126.33,234.178 126.663,233.011 127.5,232C 131.283,232.047 134.283,230.547 136.5,227.5C 137.192,228.025 137.692,228.692 138,229.5C 143.877,225.568 150.377,223.234 157.5,222.5C 157.663,224.857 157.497,227.19 157,229.5C 154.341,231.06 153.174,233.393 153.5,236.5C 158.834,235.172 163.168,236.839 166.5,241.5C 167.429,242.689 167.762,244.022 167.5,245.5C 168.873,245.343 170.207,245.51 171.5,246C 174.725,249.193 178.225,252.026 182,254.5C 182.333,254.167 182.667,253.833 183,253.5C 183.483,254.448 183.649,255.448 183.5,256.5C 187.796,258.641 192.463,259.974 197.5,260.5C 200.606,262.489 203.606,264.489 206.5,266.5C 207.386,265.675 207.719,264.675 207.5,263.5C 210.896,263.367 211.229,262.367 208.5,260.5C 206.635,259.334 204.968,259.667 203.5,261.5C 202.18,259.136 202.846,257.469 205.5,256.5C 214.757,260.272 224.423,261.939 234.5,261.5C 234.5,260.5 234.5,259.5 234.5,258.5C 232.167,258.5 229.833,258.5 227.5,258.5C 227.5,256.833 227.5,255.167 227.5,253.5C 224.753,253.813 222.086,253.48 219.5,252.5C 219.931,251.707 220.265,250.873 220.5,250C 219.502,248.001 218.502,246.001 217.5,244C 218.378,242.2 219.045,240.367 219.5,238.5C 217.167,238.5 214.833,238.5 212.5,238.5C 212.5,237.5 212.5,236.5 212.5,235.5C 215.797,235.671 216.131,235.005 213.5,233.5C 212.833,230.5 212.167,227.5 211.5,224.5C 209.233,222.44 207.233,220.107 205.5,217.5C 208.058,215.88 208.058,214.38 205.5,213C 207.037,211.89 207.703,210.39 207.5,208.5C 206.5,208.5 205.5,208.5 204.5,208.5C 204.447,205.86 203.78,203.36 202.5,201C 203.054,199.449 203.72,197.949 204.5,196.5C 203.453,194.944 202.786,193.277 202.5,191.5C 201.5,191.5 200.5,191.5 199.5,191.5C 198.82,187.678 196.487,186.011 192.5,186.5C 192.477,184.4 193.144,182.567 194.5,181C 192.28,177.597 190.28,177.764 188.5,181.5C 187.331,178.227 187.665,175.061 189.5,172C 189.055,170.553 188.388,169.22 187.5,168C 188.064,165.101 188.064,162.101 187.5,159C 188.225,153.066 189.058,147.232 190,141.5C 189.612,140.572 188.945,139.905 188,139.5C 186.669,140.996 185.169,142.329 183.5,143.5C 180.101,141.688 176.434,141.021 172.5,141.5C 172.52,143.143 171.853,144.476 170.5,145.5C 167.914,146.48 165.247,146.813 162.5,146.5C 162.5,147.5 162.5,148.5 162.5,149.5C 158.829,149.202 156.163,150.702 154.5,154C 153.1,155.438 151.433,156.271 149.5,156.5C 149.703,158.39 149.037,159.89 147.5,161C 144.455,163.189 141.121,164.856 137.5,166C 136.874,166.75 136.374,167.584 136,168.5C 134.877,165.751 133.377,163.251 131.5,161C 135.028,159.135 137.528,156.301 139,152.5C 139.991,153.939 141.324,154.939 143,155.5C 145.5,153.333 148,151.167 150.5,149C 151.449,148.383 152.282,148.549 153,149.5C 153.605,147.519 154.605,147.185 156,148.5C 157.204,147.141 158.704,146.141 160.5,145.5C 159.11,143.831 158.777,142.164 159.5,140.5C 162.166,141.738 164.832,141.738 167.5,140.5C 166.189,139.742 165.689,138.742 166,137.5C 167.395,138.815 168.395,138.481 169,136.5C 170.77,138.418 172.937,138.918 175.5,138C 177.761,136.187 180.095,134.687 182.5,133.5C 182.5,132.5 182.5,131.5 182.5,130.5C 184.786,130.405 186.786,129.738 188.5,128.5C 191.589,127.215 194.922,126.549 198.5,126.5C 209.161,126.019 219.828,125.686 230.5,125.5C 233.807,125.462 236.974,126.128 240,127.5C 244.295,126.033 245.628,123.033 244,118.5C 228.468,95.1339 209.635,74.8006 187.5,57.5C 187.027,56.0937 186.027,55.427 184.5,55.5C 179.311,53.4032 174.311,51.0698 169.5,48.5C 167.485,47.0762 165.152,46.4095 162.5,46.5C 152.067,43.3469 141.4,41.3469 130.5,40.5C 123.763,41.129 117.096,42.129 110.5,43.5C 109.5,43.5 108.5,43.5 107.5,43.5C 112.255,39.2477 116.922,34.7477 121.5,30C 129.627,26.4401 137.793,23.2735 146,20.5C 152.528,21.933 158.861,23.933 165,26.5C 165.414,26.0426 165.914,25.7093 166.5,25.5C 176.906,29.2053 186.906,33.7053 196.5,39C 197.793,39.49 199.127,39.6567 200.5,39.5C 200.281,40.675 200.614,41.675 201.5,42.5C 212.544,51.5884 223.378,60.9217 234,70.5C 245.421,83.0811 256.255,96.0811 266.5,109.5 Z M 275.5,186.5 C 283.508,217.232 284.841,247.899 279.5,278.5C 278.388,280.599 277.721,282.933 277.5,285.5C 277.5,285.833 277.5,286.167 277.5,286.5C 276.833,286.833 276.167,287.167 275.5,287.5C 271.753,278.177 269.419,268.51 268.5,258.5C 271.703,243.553 274.703,228.553 277.5,213.5C 276.877,205.435 275.877,197.435 274.5,189.5C 274.263,188.209 274.596,187.209 275.5,186.5 Z"/></g>
<g><path style="opacity:1" fill="#222222" d="M 263.5,111.5 C 266.405,113.756 268.072,116.756 268.5,120.5C 266.94,120.519 265.44,120.852 264,121.5C 260.829,119.992 257.662,118.659 254.5,117.5C 255.313,114.327 256.647,111.327 258.5,108.5C 261.296,107.259 262.963,108.259 263.5,111.5 Z"/></g>
<g><path style="opacity:1" fill="#878787" d="M 263.5,111.5 C 264.218,113.137 264.384,114.803 264,116.5C 259.933,117.929 258.766,116.596 260.5,112.5C 261.417,111.873 262.417,111.539 263.5,111.5 Z"/></g>
<g><path style="opacity:1" fill="#787878" d="M 284.5,118.5 C 287.497,123.825 290.497,129.159 293.5,134.5C 291.865,133.185 290.199,133.185 288.5,134.5C 287.403,132.465 285.737,131.132 283.5,130.5C 283.833,129.833 284.167,129.167 284.5,128.5C 283.167,126.5 281.833,124.5 280.5,122.5C 282.375,121.591 283.708,120.257 284.5,118.5 Z"/></g>
<g><path style="opacity:0.745" fill="#5b5b5b" d="M 188.5,128.5 C 186.786,129.738 184.786,130.405 182.5,130.5C 182.167,130.5 181.833,130.5 181.5,130.5C 183.515,129.076 185.848,128.41 188.5,128.5 Z"/></g>
<g><path style="opacity:1" fill="#242424" d="M 59.5,130.5 C 58.828,131.267 57.9947,131.934 57,132.5C 56.9522,138.339 56.1188,144.006 54.5,149.5C 54.5,149.833 54.5,150.167 54.5,150.5C 52.8267,151.343 51.66,152.676 51,154.5C 50.5026,157.146 50.3359,159.813 50.5,162.5C 49.6829,160.031 49.1829,157.365 49,154.5C 48.7811,155.938 48.2811,157.271 47.5,158.5C 46.9384,153.62 48.6051,149.454 52.5,146C 51.6919,145.692 51.0253,145.192 50.5,144.5C 51.1667,143.5 51.8333,142.5 52.5,141.5C 51.8333,138.833 51.1667,136.167 50.5,133.5C 51.1449,132.354 51.9783,131.354 53,130.5C 55.0811,131.333 57.2478,131.333 59.5,130.5 Z"/></g>
<g><path style="opacity:0.71" fill="#767676" d="M 180.5,130.5 C 178.898,132.074 176.898,132.741 174.5,132.5C 176.214,131.262 178.214,130.595 180.5,130.5 Z"/></g>
<g><path style="opacity:1" fill="#9b9b9b" d="M 278.5,126.5 C 280.775,130.615 283.275,134.615 286,138.5C 287.477,142.43 288.644,146.43 289.5,150.5C 286.259,142.45 282.259,134.783 277.5,127.5C 277.5,126.833 277.833,126.5 278.5,126.5 Z"/></g>
<g><path style="opacity:0.737" fill="#757575" d="M 173.5,132.5 C 172.365,134.213 170.698,134.88 168.5,134.5C 169.93,133.463 171.597,132.796 173.5,132.5 Z"/></g>
<g><path style="opacity:1" fill="#434343" d="M 59.5,130.5 C 61.4085,130.883 62.9085,131.883 64,133.5C 65.6381,138.51 65.8047,143.51 64.5,148.5C 61.9407,148.198 59.6074,148.532 57.5,149.5C 56.5,149.5 55.5,149.5 54.5,149.5C 56.1188,144.006 56.9522,138.339 57,132.5C 57.9947,131.934 58.828,131.267 59.5,130.5 Z"/></g>
<g><path style="opacity:0.549" fill="#6d6d6d" d="M 295.5,138.5 C 297.38,140.755 298.38,143.422 298.5,146.5C 296.62,144.245 295.62,141.578 295.5,138.5 Z"/></g>
<g><path style="opacity:1" fill="#d1d1d1" d="M 54.5,149.5 C 55.5,149.5 56.5,149.5 57.5,149.5C 60.5184,149.335 63.5184,149.502 66.5,150C 65.6387,154.51 66.6387,158.677 69.5,162.5C 68.8333,163.167 68.1667,163.833 67.5,164.5C 68.7914,165.527 68.7914,166.527 67.5,167.5C 63.5,168.833 59.5,168.833 55.5,167.5C 55.0747,164.591 55.0747,161.758 55.5,159C 53.0087,158.374 53.0087,157.541 55.5,156.5C 54.6518,154.591 54.3184,152.591 54.5,150.5C 54.5,150.167 54.5,149.833 54.5,149.5 Z"/></g>
<g><path style="opacity:1" fill="#aaaaaa" d="M 54.5,150.5 C 54.3184,152.591 54.6518,154.591 55.5,156.5C 53.0087,157.541 53.0087,158.374 55.5,159C 55.0747,161.758 55.0747,164.591 55.5,167.5C 52.856,166.856 51.1894,165.189 50.5,162.5C 50.3359,159.813 50.5026,157.146 51,154.5C 51.66,152.676 52.8267,151.343 54.5,150.5 Z"/></g>
<g><path style="opacity:1" fill="#b5b5b5" d="M 57.5,149.5 C 59.6074,148.532 61.9407,148.198 64.5,148.5C 72.8579,150.536 76.5245,155.869 75.5,164.5C 73.8212,164.285 72.8212,164.952 72.5,166.5C 70.8828,167.038 69.2161,167.371 67.5,167.5C 68.7914,166.527 68.7914,165.527 67.5,164.5C 68.1667,163.833 68.8333,163.167 69.5,162.5C 66.6387,158.677 65.6387,154.51 66.5,150C 63.5184,149.502 60.5184,149.335 57.5,149.5 Z"/></g>
<g><path style="opacity:0.725" fill="#797979" d="M 301.5,152.5 C 302.738,154.214 303.405,156.214 303.5,158.5C 301.72,157.01 301.054,155.01 301.5,152.5 Z"/></g>
<g><path style="opacity:1" fill="#6f6f6f" d="M 289.5,150.5 C 292.057,155.963 294.39,161.63 296.5,167.5C 296.376,168.107 296.043,168.44 295.5,168.5C 292.922,162.767 290.922,156.767 289.5,150.5 Z"/></g>
<g><path style="opacity:1" fill="#626262" d="M 38.5,163.5 C 39.2679,164.263 39.7679,165.263 40,166.5C 40.7431,164.355 41.5765,164.189 42.5,166C 40.9972,167.921 40.3305,170.088 40.5,172.5C 39.3428,169.727 38.6761,166.727 38.5,163.5 Z"/></g>
<g><path style="opacity:1" fill="#9a9a9a" d="M 290.5,169.5 C 291.496,169.414 292.329,169.748 293,170.5C 293.667,172.167 293.667,173.833 293,175.5C 290.961,174.022 290.128,172.022 290.5,169.5 Z"/></g>
<g><path style="opacity:1" fill="#949494" d="M 70.5,178.5 C 70.3184,180.591 70.6518,182.591 71.5,184.5C 69.8273,186.086 67.8273,186.753 65.5,186.5C 66.1346,183.507 66.3013,180.507 66,177.5C 63.7723,176.108 62.6056,174.108 62.5,171.5C 68.2037,169.724 70.8703,172.057 70.5,178.5 Z"/></g>
<g><path style="opacity:1" fill="#373737" d="M 72.5,166.5 C 72.3893,167.117 72.056,167.617 71.5,168C 72.9169,173.087 74.5836,178.087 76.5,183C 76.0426,183.414 75.7093,183.914 75.5,184.5C 76.7287,185.281 78.062,185.781 79.5,186C 78.5,186.333 77.5,186.667 76.5,187C 78.1341,187.494 79.8008,187.66 81.5,187.5C 81.5,187.833 81.5,188.167 81.5,188.5C 79.1667,188.5 76.8333,188.5 74.5,188.5C 75.6602,186.797 74.9935,186.131 72.5,186.5C 72.8893,183.447 72.2227,180.78 70.5,178.5C 70.8703,172.057 68.2037,169.724 62.5,171.5C 61.1991,172.884 61.1991,174.384 62.5,176C 60.1088,177.309 60.1088,178.309 62.5,179C 61.7476,179.671 61.4142,180.504 61.5,181.5C 60.8501,181.804 60.1835,182.137 59.5,182.5C 57.4249,180.415 57.4249,178.581 59.5,177C 56.2659,174.396 54.9325,171.229 55.5,167.5C 59.5,168.833 63.5,168.833 67.5,167.5C 69.2161,167.371 70.8828,167.038 72.5,166.5 Z"/></g>
<g><path style="opacity:1" fill="#a9a9a9" d="M 275.5,186.5 C 274.596,187.209 274.263,188.209 274.5,189.5C 273.257,186.367 272.757,183.033 273,179.5C 273.847,181.854 274.68,184.188 275.5,186.5 Z"/></g>
<g><path style="opacity:1" fill="#111111" d="M 180.5,130.5 C 180.833,130.5 181.167,130.5 181.5,130.5C 181.833,130.5 182.167,130.5 182.5,130.5C 182.5,131.5 182.5,132.5 182.5,133.5C 180.095,134.687 177.761,136.187 175.5,138C 172.937,138.918 170.77,138.418 169,136.5C 168.395,138.481 167.395,138.815 166,137.5C 165.689,138.742 166.189,139.742 167.5,140.5C 164.832,141.738 162.166,141.738 159.5,140.5C 158.777,142.164 159.11,143.831 160.5,145.5C 158.704,146.141 157.204,147.141 156,148.5C 154.605,147.185 153.605,147.519 153,149.5C 152.282,148.549 151.449,148.383 150.5,149C 148,151.167 145.5,153.333 143,155.5C 141.324,154.939 139.991,153.939 139,152.5C 137.528,156.301 135.028,159.135 131.5,161C 133.377,163.251 134.877,165.751 136,168.5C 136.374,167.584 136.874,166.75 137.5,166C 141.121,164.856 144.455,163.189 147.5,161C 149.037,159.89 149.703,158.39 149.5,156.5C 151.433,156.271 153.1,155.438 154.5,154C 156.163,150.702 158.829,149.202 162.5,149.5C 162.5,148.5 162.5,147.5 162.5,146.5C 165.247,146.813 167.914,146.48 170.5,145.5C 171.853,144.476 172.52,143.143 172.5,141.5C 176.434,141.021 180.101,141.688 183.5,143.5C 185.169,142.329 186.669,140.996 188,139.5C 188.945,139.905 189.612,140.572 190,141.5C 189.058,147.232 188.225,153.066 187.5,159C 188.064,162.101 188.064,165.101 187.5,168C 188.388,169.22 189.055,170.553 189.5,172C 187.665,175.061 187.331,178.227 188.5,181.5C 190.28,177.764 192.28,177.597 194.5,181C 193.144,182.567 192.477,184.4 192.5,186.5C 196.487,186.011 198.82,187.678 199.5,191.5C 200.5,191.5 201.5,191.5 202.5,191.5C 202.786,193.277 203.453,194.944 204.5,196.5C 203.72,197.949 203.054,199.449 202.5,201C 203.78,203.36 204.447,205.86 204.5,208.5C 205.5,208.5 206.5,208.5 207.5,208.5C 207.703,210.39 207.037,211.89 205.5,213C 208.058,214.38 208.058,215.88 205.5,217.5C 207.233,220.107 209.233,222.44 211.5,224.5C 212.167,227.5 212.833,230.5 213.5,233.5C 216.131,235.005 215.797,235.671 212.5,235.5C 212.5,236.5 212.5,237.5 212.5,238.5C 214.833,238.5 217.167,238.5 219.5,238.5C 219.045,240.367 218.378,242.2 217.5,244C 218.502,246.001 219.502,248.001 220.5,250C 220.265,250.873 219.931,251.707 219.5,252.5C 222.086,253.48 224.753,253.813 227.5,253.5C 227.5,255.167 227.5,256.833 227.5,258.5C 229.833,258.5 232.167,258.5 234.5,258.5C 234.5,259.5 234.5,260.5 234.5,261.5C 224.423,261.939 214.757,260.272 205.5,256.5C 202.846,257.469 202.18,259.136 203.5,261.5C 204.968,259.667 206.635,259.334 208.5,260.5C 211.229,262.367 210.896,263.367 207.5,263.5C 207.719,264.675 207.386,265.675 206.5,266.5C 203.606,264.489 200.606,262.489 197.5,260.5C 192.463,259.974 187.796,258.641 183.5,256.5C 183.649,255.448 183.483,254.448 183,253.5C 182.667,253.833 182.333,254.167 182,254.5C 178.225,252.026 174.725,249.193 171.5,246C 170.207,245.51 168.873,245.343 167.5,245.5C 167.762,244.022 167.429,242.689 166.5,241.5C 163.168,236.839 158.834,235.172 153.5,236.5C 153.174,233.393 154.341,231.06 157,229.5C 157.497,227.19 157.663,224.857 157.5,222.5C 150.377,223.234 143.877,225.568 138,229.5C 137.692,228.692 137.192,228.025 136.5,227.5C 134.283,230.547 131.283,232.047 127.5,232C 126.663,233.011 126.33,234.178 126.5,235.5C 125.167,235.5 123.833,235.5 122.5,235.5C 122.523,238.121 121.189,239.455 118.5,239.5C 116.73,238.144 115.064,236.644 113.5,235C 114.167,234.333 114.833,233.667 115.5,233C 114,232.5 112.5,232 111,231.5C 109.97,231.836 109.47,232.503 109.5,233.5C 104.81,225.656 101.477,217.489 99.5,209C 98.9056,208.536 98.2389,208.369 97.5,208.5C 95.7549,206.967 94.7549,204.967 94.5,202.5C 95.0283,201.279 95.695,200.113 96.5,199C 94.732,194.149 92.3986,189.649 89.5,185.5C 89.8333,184.833 90.1667,184.167 90.5,183.5C 88.7438,181.809 88.2438,179.809 89,177.5C 89.2784,178.416 89.7784,179.082 90.5,179.5C 91.1174,179.611 91.6174,179.944 92,180.5C 110.747,167.876 129.581,155.376 148.5,143C 154.841,139.327 161.508,136.494 168.5,134.5C 170.698,134.88 172.365,134.213 173.5,132.5C 173.833,132.5 174.167,132.5 174.5,132.5C 176.898,132.741 178.898,132.074 180.5,130.5 Z"/></g>
<g><path style="opacity:1" fill="#1e1e1e" d="M 167.5,220.5 C 159.852,208.549 152.685,196.216 146,183.5C 145.31,182.262 144.81,182.262 144.5,183.5C 142.457,179.906 140.791,176.073 139.5,172C 140.025,171.308 140.692,170.808 141.5,170.5C 145.748,170.441 148.081,172.441 148.5,176.5C 149.833,176.5 151.167,176.5 152.5,176.5C 152.5,178.833 152.5,181.167 152.5,183.5C 155.844,183.65 158.177,185.317 159.5,188.5C 160.27,192.61 161.436,196.61 163,200.5C 163.5,201.667 164.333,202.5 165.5,203C 164.391,204.813 165.058,205.646 167.5,205.5C 167.215,207.288 167.548,208.955 168.5,210.5C 172.634,210.67 175.301,212.67 176.5,216.5C 178.808,217.641 180.641,219.308 182,221.5C 182.311,222.742 181.811,223.742 180.5,224.5C 181.026,226.23 182.026,227.564 183.5,228.5C 184.314,230.766 184.814,233.1 185,235.5C 186.395,236.815 187.395,236.481 188,234.5C 189.049,236.107 190.549,236.773 192.5,236.5C 192.162,239.325 193.162,241.492 195.5,243C 194.929,244.205 194.262,245.372 193.5,246.5C 182.482,240.149 173.816,231.482 167.5,220.5 Z"/></g>
<g><path style="opacity:0.008" fill="#9c9b9c" d="M 311.5,179.5 C 312.468,181.607 312.802,183.941 312.5,186.5C 311.733,185.828 311.066,184.995 310.5,184C 311.38,182.644 311.714,181.144 311.5,179.5 Z"/></g>
<g><path style="opacity:1" fill="#202020" d="M 75.5,164.5 C 76.9538,165.52 77.2871,166.687 76.5,168C 78.8005,172.905 80.3005,178.071 81,183.5C 82.3333,184.167 83.3333,185.167 84,186.5C 85.4194,185.54 86.9194,184.707 88.5,184C 85.9513,179.174 84.7846,174.008 85,168.5C 86.2985,171.006 87.2985,173.673 88,176.5C 88.4955,174.527 88.6621,172.527 88.5,170.5C 89.913,173.219 90.5797,176.219 90.5,179.5C 89.7784,179.082 89.2784,178.416 89,177.5C 88.2438,179.809 88.7438,181.809 90.5,183.5C 90.1667,184.167 89.8333,184.833 89.5,185.5C 92.3986,189.649 94.732,194.149 96.5,199C 95.695,200.113 95.0283,201.279 94.5,202.5C 92.0765,198.212 90.2431,193.545 89,188.5C 86.6194,187.565 84.1194,187.232 81.5,187.5C 79.8008,187.66 78.1341,187.494 76.5,187C 77.5,186.667 78.5,186.333 79.5,186C 78.062,185.781 76.7287,185.281 75.5,184.5C 75.7093,183.914 76.0426,183.414 76.5,183C 74.5836,178.087 72.9169,173.087 71.5,168C 72.056,167.617 72.3893,167.117 72.5,166.5C 72.8212,164.952 73.8212,164.285 75.5,164.5 Z"/></g>
<g><path style="opacity:1" fill="#636363" d="M 62.5,171.5 C 62.6056,174.108 63.7723,176.108 66,177.5C 66.3013,180.507 66.1346,183.507 65.5,186.5C 67.8273,186.753 69.8273,186.086 71.5,184.5C 70.6518,182.591 70.3184,180.591 70.5,178.5C 72.2227,180.78 72.8893,183.447 72.5,186.5C 74.9935,186.131 75.6602,186.797 74.5,188.5C 73.209,188.263 72.209,188.596 71.5,189.5C 69.5648,190.15 67.5648,190.483 65.5,190.5C 65.0825,189.778 64.4158,189.278 63.5,189C 63.8333,188.667 64.1667,188.333 64.5,188C 61.5529,187.888 60.2196,186.388 60.5,183.5C 65.079,183.66 65.4123,182.993 61.5,181.5C 61.4142,180.504 61.7476,179.671 62.5,179C 60.1088,178.309 60.1088,177.309 62.5,176C 61.1991,174.384 61.1991,172.884 62.5,171.5 Z"/></g>
<g><path style="opacity:1" fill="#949494" d="M 81.5,188.5 C 81.5,188.167 81.5,187.833 81.5,187.5C 84.1194,187.232 86.6194,187.565 89,188.5C 90.2431,193.545 92.0765,198.212 94.5,202.5C 94.7549,204.967 95.7549,206.967 97.5,208.5C 97.5,209.167 97.5,209.833 97.5,210.5C 96.5,210.5 95.5,210.5 94.5,210.5C 93.7273,207.955 92.2273,205.955 90,204.5C 88.9838,199.474 87.1504,194.808 84.5,190.5C 85.0253,189.808 85.6919,189.308 86.5,189C 84.8659,188.506 83.1992,188.34 81.5,188.5 Z"/></g>
<g><path style="opacity:1" fill="#323232" d="M 314.5,188.5 C 315.766,190.694 315.766,193.028 314.5,195.5C 315.605,196.892 316.939,198.059 318.5,199C 317.684,200.923 317.017,202.923 316.5,205C 316.988,206.584 317.988,207.751 319.5,208.5C 317.824,210.423 317.49,212.756 318.5,215.5C 316.906,211.75 315.739,207.75 315,203.5C 314.07,201.448 312.57,199.948 310.5,199C 312.509,195.813 313.842,192.313 314.5,188.5 Z"/></g>
<g><path style="opacity:1" fill="#7e7e7e" d="M 167.5,220.5 C 158.094,209.378 150.428,197.045 144.5,183.5C 144.81,182.262 145.31,182.262 146,183.5C 152.685,196.216 159.852,208.549 167.5,220.5 Z"/></g>
<g><path style="opacity:1" fill="#8f8f8f" d="M 58.5,193.5 C 58.6816,195.591 58.3482,197.591 57.5,199.5C 61.2926,203.684 63.4593,208.684 64,214.5C 64.7724,215.849 65.9391,216.682 67.5,217C 67.0426,217.414 66.7093,217.914 66.5,218.5C 68.3022,219.275 68.9689,220.275 68.5,221.5C 68.5,221.833 68.5,222.167 68.5,222.5C 65.5663,223.467 62.8996,224.8 60.5,226.5C 58.6214,226.607 58.2881,226.107 59.5,225C 58.1413,219.913 56.9746,214.746 56,209.5C 53.7987,206.259 51.9654,202.759 50.5,199C 51.0556,197.989 51.7222,197.156 52.5,196.5C 53.911,194.461 55.911,193.461 58.5,193.5 Z"/></g>
<g><path style="opacity:1" fill="#b1b1b1" d="M 63.5,191.5 C 65.6998,198.595 68.3665,205.595 71.5,212.5C 70.8333,213.167 70.1667,213.833 69.5,214.5C 71.2537,215.474 73.2537,216.807 75.5,218.5C 74.5,219.167 73.5,219.833 72.5,220.5C 71.2921,221.234 69.9587,221.567 68.5,221.5C 68.9689,220.275 68.3022,219.275 66.5,218.5C 66.7093,217.914 67.0426,217.414 67.5,217C 65.9391,216.682 64.7724,215.849 64,214.5C 63.4593,208.684 61.2926,203.684 57.5,199.5C 58.3482,197.591 58.6816,195.591 58.5,193.5C 59.7804,192.069 61.4471,191.402 63.5,191.5 Z"/></g>
<g><path style="opacity:1" fill="#dadada" d="M 71.5,189.5 C 72.8333,189.5 74.1667,189.5 75.5,189.5C 75.6983,194.394 77.1983,198.728 80,202.5C 81.0429,205.757 81.5429,209.09 81.5,212.5C 80.325,212.281 79.325,212.614 78.5,213.5C 79.1272,214.417 79.4606,215.417 79.5,216.5C 78.3285,217.345 76.9952,218.011 75.5,218.5C 73.2537,216.807 71.2537,215.474 69.5,214.5C 70.1667,213.833 70.8333,213.167 71.5,212.5C 68.3665,205.595 65.6998,198.595 63.5,191.5C 64.1667,191.167 64.8333,190.833 65.5,190.5C 67.5648,190.483 69.5648,190.15 71.5,189.5 Z"/></g>
<g><path style="opacity:1" fill="#bbbbbb" d="M 71.5,189.5 C 72.209,188.596 73.209,188.263 74.5,188.5C 76.8333,188.5 79.1667,188.5 81.5,188.5C 83.1992,188.34 84.8659,188.506 86.5,189C 85.6919,189.308 85.0253,189.808 84.5,190.5C 87.1504,194.808 88.9838,199.474 90,204.5C 92.2273,205.955 93.7273,207.955 94.5,210.5C 91.5672,211.983 88.5672,213.317 85.5,214.5C 83.4214,214.971 81.4214,215.637 79.5,216.5C 79.4606,215.417 79.1272,214.417 78.5,213.5C 79.325,212.614 80.325,212.281 81.5,212.5C 81.5429,209.09 81.0429,205.757 80,202.5C 77.1983,198.728 75.6983,194.394 75.5,189.5C 74.1667,189.5 72.8333,189.5 71.5,189.5 Z"/></g>
<g><path style="opacity:1" fill="#0f0f0f" d="M 153.5,2.5 C 154.239,2.36899 154.906,2.53566 155.5,3C 154.748,3.67076 154.414,4.5041 154.5,5.5C 154.879,6.80616 155.212,8.13949 155.5,9.5C 156.293,9.0688 157.127,8.73546 158,8.5C 161.808,10.1075 162.975,12.7742 161.5,16.5C 163.124,16.6399 164.29,15.9733 165,14.5C 165.333,15.1667 165.667,15.8333 166,16.5C 167.255,14.4062 169.088,13.4062 171.5,13.5C 174.47,13.9686 177.136,15.1353 179.5,17C 178.207,17.49 176.873,17.6567 175.5,17.5C 175.5,18.5 175.5,19.5 175.5,20.5C 176.5,20.5 177.5,20.5 178.5,20.5C 178.343,21.8734 178.51,23.2068 179,24.5C 180.77,23.7236 182.603,23.8903 184.5,25C 182.068,26.0875 182.402,26.5875 185.5,26.5C 185.329,29.7973 185.995,30.1306 187.5,27.5C 190.496,28.8329 192.163,27.8329 192.5,24.5C 193.552,24.6495 194.552,24.4828 195.5,24C 194.262,23.31 194.262,22.81 195.5,22.5C 196.458,22.9528 197.292,23.6195 198,24.5C 198.179,27.5535 198.679,30.5535 199.5,33.5C 204.089,36.7114 208.589,40.0447 213,43.5C 213.181,40.3054 213.681,37.3054 214.5,34.5C 218.791,37.1231 222.457,40.4564 225.5,44.5C 226.313,51.1922 229.98,54.8589 236.5,55.5C 238.833,57.1667 240.833,59.1667 242.5,61.5C 242.427,63.0269 243.094,64.0269 244.5,64.5C 246.167,65.5 247.5,66.8333 248.5,68.5C 248.018,75.0166 251.018,78.3499 257.5,78.5C 261.321,82.806 264.655,87.4727 267.5,92.5C 266.681,98.2352 269.015,101.902 274.5,103.5C 275.167,103.5 275.5,103.833 275.5,104.5C 275.427,106.027 276.094,107.027 277.5,107.5C 280.221,110.894 282.554,114.561 284.5,118.5C 283.708,120.257 282.375,121.591 280.5,122.5C 281.833,124.5 283.167,126.5 284.5,128.5C 284.167,129.167 283.833,129.833 283.5,130.5C 285.737,131.132 287.403,132.465 288.5,134.5C 290.199,133.185 291.865,133.185 293.5,134.5C 294.674,135.514 295.34,136.847 295.5,138.5C 295.62,141.578 296.62,144.245 298.5,146.5C 299.492,148.456 300.492,150.456 301.5,152.5C 301.054,155.01 301.72,157.01 303.5,158.5C 305.943,162.387 308.109,166.387 310,170.5C 310.395,172.179 310.228,173.845 309.5,175.5C 309.752,177.073 310.418,178.406 311.5,179.5C 311.714,181.144 311.38,182.644 310.5,184C 311.066,184.995 311.733,185.828 312.5,186.5C 312.833,187.5 313.5,188.167 314.5,188.5C 313.842,192.313 312.509,195.813 310.5,199C 312.57,199.948 314.07,201.448 315,203.5C 315.739,207.75 316.906,211.75 318.5,215.5C 318.5,215.833 318.5,216.167 318.5,216.5C 318.833,218.5 319.167,220.5 319.5,222.5C 319.244,224.912 320.244,226.579 322.5,227.5C 320.341,229.954 320.008,232.621 321.5,235.5C 320.41,238.985 320.41,242.319 321.5,245.5C 324.167,246.5 324.167,247.5 321.5,248.5C 320.871,251.343 319.871,254.176 318.5,257C 319.762,259.17 320.762,261.337 321.5,263.5C 321.719,264.675 321.386,265.675 320.5,266.5C 319.391,265.41 318.391,265.41 317.5,266.5C 318.793,268.103 319.793,269.769 320.5,271.5C 323.218,273.423 322.884,274.756 319.5,275.5C 318.523,278.287 318.19,281.287 318.5,284.5C 318.5,285.167 318.167,285.5 317.5,285.5C 316.469,287.961 315.802,290.627 315.5,293.5C 314.778,293.918 314.278,294.584 314,295.5C 312.541,292.244 310.374,289.577 307.5,287.5C 305.758,290.485 304.425,293.652 303.5,297C 305.973,300.906 307.973,305.073 309.5,309.5C 308.008,313.818 306.008,317.818 303.5,321.5C 301.952,321.179 301.285,320.179 301.5,318.5C 299.61,318.297 298.11,318.963 297,320.5C 295.593,323.501 295.426,326.501 296.5,329.5C 294.704,330.794 292.704,331.794 290.5,332.5C 290.977,333.478 291.643,334.311 292.5,335C 290.922,336.094 289.255,336.928 287.5,337.5C 287.001,334.611 285.501,333.944 283,335.5C 281.953,337.762 280.787,339.929 279.5,342C 279.735,342.873 280.069,343.707 280.5,344.5C 279.054,346.618 278.387,348.951 278.5,351.5C 275.81,354.185 272.81,356.518 269.5,358.5C 267.204,358.196 266.871,357.196 268.5,355.5C 269.537,353.262 269.703,350.929 269,348.5C 268.592,346.59 267.425,345.59 265.5,345.5C 260.982,347.708 258.982,351.375 259.5,356.5C 257.491,358.378 257.158,360.544 258.5,363C 257.584,363.278 256.918,363.778 256.5,364.5C 251.809,366.591 246.809,367.924 241.5,368.5C 240.761,368.631 240.094,368.464 239.5,368C 241.644,367.208 242.977,365.708 243.5,363.5C 245.136,362.251 246.303,360.584 247,358.5C 247.746,352.449 247.579,346.449 246.5,340.5C 242.702,339.517 238.702,339.183 234.5,339.5C 233.192,335.597 231.692,335.597 230,339.5C 228.415,338.624 227.415,337.291 227,335.5C 225.657,336.214 224.324,335.88 223,334.5C 222.333,335.167 221.667,335.833 221,336.5C 221,335.167 221,333.833 221,332.5C 218.033,333.811 215.2,333.478 212.5,331.5C 213.85,330.05 215.516,329.383 217.5,329.5C 220.428,329.565 223.095,330.232 225.5,331.5C 226.919,332.451 228.585,332.784 230.5,332.5C 231.5,332.5 232.5,332.5 233.5,332.5C 233.637,328.821 232.971,325.321 231.5,322C 232.744,321.544 233.577,322.044 234,323.5C 234.498,326.482 234.665,329.482 234.5,332.5C 241.775,332.358 248.942,332.358 256,332.5C 259.737,331.141 263.07,329.141 266,326.5C 266.95,327.022 267.784,327.689 268.5,328.5C 271.82,325.506 275.487,323.006 279.5,321C 280.88,319.075 282.38,317.241 284,315.5C 284.333,315.833 284.667,316.167 285,316.5C 286.08,312.42 288.58,309.586 292.5,308C 292.043,307.586 291.709,307.086 291.5,306.5C 299.403,293.625 304.237,279.625 306,264.5C 309.387,231.718 305.887,199.718 295.5,168.5C 296.043,168.44 296.376,168.107 296.5,167.5C 294.39,161.63 292.057,155.963 289.5,150.5C 288.644,146.43 287.477,142.43 286,138.5C 283.275,134.615 280.775,130.615 278.5,126.5C 275.245,120.255 271.245,114.589 266.5,109.5C 256.255,96.0811 245.421,83.0811 234,70.5C 223.378,60.9217 212.544,51.5884 201.5,42.5C 200.614,41.675 200.281,40.675 200.5,39.5C 199.127,39.6567 197.793,39.49 196.5,39C 186.906,33.7053 176.906,29.2053 166.5,25.5C 165.914,25.7093 165.414,26.0426 165,26.5C 158.861,23.933 152.528,21.933 146,20.5C 137.793,23.2735 129.627,26.4401 121.5,30C 116.922,34.7477 112.255,39.2477 107.5,43.5C 105.983,43.5106 104.816,44.1772 104,45.5C 103.365,44.0337 102.531,42.7003 101.5,41.5C 102.569,41.6399 103.736,41.6399 105,41.5C 105.311,40.2575 104.811,39.2575 103.5,38.5C 104.522,37.646 105.355,36.646 106,35.5C 113.205,29.1089 121.038,23.7756 129.5,19.5C 130.604,18.3687 130.271,17.5354 128.5,17C 130,15.5 131.5,14 133,12.5C 133.423,13.9561 134.256,14.4561 135.5,14C 136.711,12.8869 136.711,11.7202 135.5,10.5C 137.468,8.60236 138.802,6.26902 139.5,3.5C 140.429,4.68884 140.762,6.02218 140.5,7.5C 142.936,7.31701 145.103,7.98368 147,9.5C 148.883,8.34738 149.716,6.68072 149.5,4.5C 150.791,4.73731 151.791,4.40397 152.5,3.5C 152.5,2.83333 152.833,2.5 153.5,2.5 Z"/></g>
<g><path style="opacity:1" fill="#585858" d="M 52.5,196.5 C 51.7222,197.156 51.0556,197.989 50.5,199C 51.9654,202.759 53.7987,206.259 56,209.5C 56.9746,214.746 58.1413,219.913 59.5,225C 58.2881,226.107 58.6214,226.607 60.5,226.5C 58.7497,227.659 57.7497,229.326 57.5,231.5C 53.0671,220.531 49.4004,209.198 46.5,197.5C 47.2216,197.918 47.7216,198.584 48,199.5C 48.5885,197.137 50.0885,196.137 52.5,196.5 Z"/></g>
<g><path style="opacity:1" fill="#393939" d="M 85.5,214.5 C 86.1837,216.185 87.517,217.185 89.5,217.5C 91.0229,223.061 91.6895,228.728 91.5,234.5C 90.8333,233.5 90.1667,232.5 89.5,231.5C 89.1667,228.167 88.8333,224.833 88.5,221.5C 86.1258,220.786 84.1258,219.452 82.5,217.5C 81.5836,217.543 80.9169,217.876 80.5,218.5C 78.847,218.66 77.5137,219.326 76.5,220.5C 75.8509,225.233 77.5176,229.233 81.5,232.5C 81.8333,232.5 82.1667,232.5 82.5,232.5C 81.0813,233.451 79.4147,233.784 77.5,233.5C 76.1224,229.742 74.4557,226.075 72.5,222.5C 74.9248,221.351 74.9248,220.684 72.5,220.5C 73.5,219.833 74.5,219.167 75.5,218.5C 76.9952,218.011 78.3285,217.345 79.5,216.5C 81.4214,215.637 83.4214,214.971 85.5,214.5 Z"/></g>
<g><path style="opacity:0.894" fill="#6a6a6a" d="M 318.5,216.5 C 321.982,218.095 322.315,220.095 319.5,222.5C 319.167,220.5 318.833,218.5 318.5,216.5 Z"/></g>
<g><path style="opacity:1" fill="#757575" d="M 80.5,218.5 C 80.9169,217.876 81.5836,217.543 82.5,217.5C 84.1258,219.452 86.1258,220.786 88.5,221.5C 88.8333,224.833 89.1667,228.167 89.5,231.5C 87.8368,229.507 86.6701,227.174 86,224.5C 84.3662,222.163 82.5329,220.163 80.5,218.5 Z"/></g>
<g><path style="opacity:1" fill="#dddddd" d="M 80.5,218.5 C 82.5329,220.163 84.3662,222.163 86,224.5C 86.6701,227.174 87.8368,229.507 89.5,231.5C 90.1667,232.5 90.8333,233.5 91.5,234.5C 91.5,235.833 91.5,237.167 91.5,238.5C 91.4326,239.959 91.7659,241.292 92.5,242.5C 92.0831,243.124 91.4164,243.457 90.5,243.5C 88.8349,242.177 87.1683,240.844 85.5,239.5C 86.822,237.689 87.322,235.689 87,233.5C 85.6439,232.62 84.1439,232.286 82.5,232.5C 82.1667,232.5 81.8333,232.5 81.5,232.5C 80.3828,228.266 78.7161,224.266 76.5,220.5C 77.5137,219.326 78.847,218.66 80.5,218.5 Z"/></g>
<g><path style="opacity:1" fill="#1c1c1c" d="M 94.5,210.5 C 95.5,210.5 96.5,210.5 97.5,210.5C 99.7976,217.932 102.798,225.099 106.5,232C 104.987,233.879 104.321,236.046 104.5,238.5C 105.5,238.5 106.5,238.5 107.5,238.5C 106.282,239.161 104.949,239.828 103.5,240.5C 104.833,241.167 106.167,241.833 107.5,242.5C 109.138,243.705 109.471,245.038 108.5,246.5C 111.063,247.811 112.73,246.978 113.5,244C 112.38,242.263 111.38,240.429 110.5,238.5C 114.03,239.43 116.03,242.096 116.5,246.5C 115.5,246.5 114.5,246.5 113.5,246.5C 113.5,247.5 113.5,248.5 113.5,249.5C 109.777,249.358 108.944,250.691 111,253.5C 113.667,254.833 115.667,256.833 117,259.5C 119.178,256.532 120.344,256.865 120.5,260.5C 119.5,260.5 118.5,260.5 117.5,260.5C 117.384,263.91 119.05,265.244 122.5,264.5C 122.5,265.5 122.5,266.5 122.5,267.5C 124.288,267.215 125.955,267.548 127.5,268.5C 126.38,270.596 124.88,270.93 123,269.5C 122.308,270.025 121.808,270.692 121.5,271.5C 124.494,272.662 127.16,274.329 129.5,276.5C 130.711,277.72 130.711,278.887 129.5,280C 131.061,280.188 131.728,279.355 131.5,277.5C 132.5,277.5 133.5,277.5 134.5,277.5C 134.374,279.2 133.707,280.7 132.5,282C 133.893,283.301 134.393,284.801 134,286.5C 132.708,285.209 131.542,285.209 130.5,286.5C 129.185,285.524 127.852,284.524 126.5,283.5C 125.232,284.428 123.899,284.595 122.5,284C 122.146,282.374 122.146,280.541 122.5,278.5C 120.041,278.69 118.374,277.69 117.5,275.5C 116.058,274.18 115.392,272.514 115.5,270.5C 116.675,270.719 117.675,270.386 118.5,269.5C 116.604,268.534 114.604,268.201 112.5,268.5C 112.167,266.5 111.833,264.5 111.5,262.5C 110.5,262.5 109.5,262.5 108.5,262.5C 105.428,256.788 102.261,251.122 99,245.5C 96.6041,242.933 94.1041,240.6 91.5,238.5C 91.5,237.167 91.5,235.833 91.5,234.5C 91.6895,228.728 91.0229,223.061 89.5,217.5C 87.517,217.185 86.1837,216.185 85.5,214.5C 88.5672,213.317 91.5672,211.983 94.5,210.5 Z"/></g>
<g><path style="opacity:1" fill="#909090" d="M 76.5,220.5 C 78.7161,224.266 80.3828,228.266 81.5,232.5C 77.5176,229.233 75.8509,225.233 76.5,220.5 Z"/></g>
<g><path style="opacity:1" fill="#353535" d="M 97.5,208.5 C 98.2389,208.369 98.9056,208.536 99.5,209C 101.477,217.489 104.81,225.656 109.5,233.5C 110.404,234.209 110.737,235.209 110.5,236.5C 108.821,236.285 107.821,236.952 107.5,238.5C 106.5,238.5 105.5,238.5 104.5,238.5C 104.321,236.046 104.987,233.879 106.5,232C 102.798,225.099 99.7976,217.932 97.5,210.5C 97.5,209.833 97.5,209.167 97.5,208.5 Z"/></g>
<g><path style="opacity:1" fill="#272727" d="M 161.5,225.5 C 164.022,226.837 166.355,228.504 168.5,230.5C 172.138,233.973 175.638,237.639 179,241.5C 179.774,243.403 179.44,245.07 178,246.5C 174.088,242.869 170.254,239.202 166.5,235.5C 165.571,234.311 165.238,232.978 165.5,231.5C 164.167,231.5 162.833,231.5 161.5,231.5C 161.5,229.5 161.5,227.5 161.5,225.5 Z"/></g>
<g><path style="opacity:0.376" fill="#7e7e7e" d="M 321.5,235.5 C 322.012,238.632 322.012,241.965 321.5,245.5C 320.41,242.319 320.41,238.985 321.5,235.5 Z"/></g>
<g><path style="opacity:0.529" fill="#616161" d="M 61.5,242.5 C 61.5774,243.75 62.244,244.583 63.5,245C 62.8333,245.333 62.1667,245.667 61.5,246C 62.7375,246.232 63.7375,246.732 64.5,247.5C 59.9408,247.369 58.9408,245.702 61.5,242.5 Z"/></g>
<g><path style="opacity:1" fill="#c9c9c9" d="M 85.5,239.5 C 87.1683,240.844 88.8349,242.177 90.5,243.5C 91.4164,243.457 92.0831,243.124 92.5,242.5C 96.3867,244.581 98.5534,247.915 99,252.5C 101.009,254.816 102.842,257.316 104.5,260C 105.785,262.547 105.785,265.047 104.5,267.5C 101.884,266.52 99.5506,265.02 97.5,263C 102.525,260.643 102.692,258.143 98,255.5C 96.7387,255.759 95.7387,256.426 95,257.5C 94.3647,255.382 93.5314,253.382 92.5,251.5C 95.9848,245.95 94.3181,243.283 87.5,243.5C 86.3698,242.378 85.7031,241.044 85.5,239.5 Z"/></g>
<g><path style="opacity:1" fill="#4e4e4e" d="M 321.5,248.5 C 321.222,251.29 321.889,253.79 323.5,256C 321.889,258.21 321.222,260.71 321.5,263.5C 320.762,261.337 319.762,259.17 318.5,257C 319.871,254.176 320.871,251.343 321.5,248.5 Z"/></g>
<g><path style="opacity:0.835" fill="#646464" d="M 67.5,255.5 C 67.5,256.5 67.5,257.5 67.5,258.5C 69.099,258.232 70.4324,258.566 71.5,259.5C 67.4726,260.762 66.1392,259.429 67.5,255.5 Z"/></g>
<g><path style="opacity:1" fill="#717171" d="M 91.5,238.5 C 94.1041,240.6 96.6041,242.933 99,245.5C 102.261,251.122 105.428,256.788 108.5,262.5C 109.502,264.011 110.169,265.678 110.5,267.5C 109.348,266.375 108.348,266.375 107.5,267.5C 106.5,267.5 105.5,267.5 104.5,267.5C 105.785,265.047 105.785,262.547 104.5,260C 102.842,257.316 101.009,254.816 99,252.5C 98.5534,247.915 96.3867,244.581 92.5,242.5C 91.7659,241.292 91.4326,239.959 91.5,238.5 Z"/></g>
<g><path style="opacity:0.998" fill="#111111" d="M 68.5,222.5 C 72.5727,229.087 76.5727,235.92 80.5,243C 79.269,244.183 79.269,245.349 80.5,246.5C 81.5407,244.009 82.3741,244.009 83,246.5C 84.1564,250.44 84.9897,254.44 85.5,258.5C 87.8067,258.014 89.9734,258.014 92,258.5C 92.2511,260.433 92.7511,262.266 93.5,264C 93.1667,264.333 92.8333,264.667 92.5,265C 96.3779,265.949 96.3779,267.115 92.5,268.5C 94.0187,271.064 95.5187,271.064 97,268.5C 98.1882,269.563 98.6882,270.897 98.5,272.5C 99.675,272.281 100.675,272.614 101.5,273.5C 102.038,276.102 102.038,278.768 101.5,281.5C 103.124,281.64 104.29,280.973 105,279.5C 105.748,284.19 107.248,288.523 109.5,292.5C 111.143,292.52 112.476,291.853 113.5,290.5C 114.711,291.274 114.711,292.107 113.5,293C 115.25,294.754 115.917,296.921 115.5,299.5C 116.5,299.5 117.5,299.5 118.5,299.5C 118.5,300.833 118.5,302.167 118.5,303.5C 119.552,303.351 120.552,303.517 121.5,304C 119.624,305.017 117.624,305.851 115.5,306.5C 114.494,310.227 115.994,312.56 120,313.5C 122.237,312.944 124.237,311.944 126,310.5C 126.465,311.931 127.299,313.097 128.5,314C 127.437,315.188 126.103,315.688 124.5,315.5C 124.5,317.833 124.5,320.167 124.5,322.5C 126.451,322.773 127.951,322.107 129,320.5C 129.953,322.455 131.287,324.122 133,325.5C 133.667,326.167 133.667,326.833 133,327.5C 130.67,325.968 128.67,326.302 127,328.5C 126.517,327.552 126.351,326.552 126.5,325.5C 125.178,325.33 124.011,325.663 123,326.5C 122.184,325.177 121.017,324.511 119.5,324.5C 117.901,324.768 116.568,324.434 115.5,323.5C 115.884,321.071 116.551,318.737 117.5,316.5C 115.833,316.5 114.167,316.5 112.5,316.5C 110.751,315.015 108.751,314.015 106.5,313.5C 106.5,312.167 106.5,310.833 106.5,309.5C 107.5,309.5 108.5,309.5 109.5,309.5C 108.862,307.54 108.862,305.707 109.5,304C 107.009,303.374 107.009,302.541 109.5,301.5C 110.246,300.264 110.579,298.93 110.5,297.5C 109.07,297.421 107.736,297.754 106.5,298.5C 104.075,296.855 101.408,295.689 98.5,295C 99.624,294.751 100.624,294.251 101.5,293.5C 99.0425,292.876 97.3758,291.376 96.5,289C 95.2068,288.51 93.8734,288.343 92.5,288.5C 92.3842,284.891 92.3842,281.724 92.5,279C 92.1667,278.5 91.8333,278 91.5,277.5C 89.9896,281.248 88.8229,280.915 88,276.5C 87.2825,277.451 86.4491,277.617 85.5,277C 84.9152,275.698 84.2485,274.531 83.5,273.5C 82.1667,273.5 81.5,274.167 81.5,275.5C 81.5,276.167 81.1667,276.5 80.5,276.5C 79.8333,276.5 79.5,276.167 79.5,275.5C 79.7148,273.821 79.0481,272.821 77.5,272.5C 77.1583,271.662 76.4916,271.328 75.5,271.5C 74.9518,269.374 74.2852,267.374 73.5,265.5C 71.7202,264.01 71.0535,262.01 71.5,259.5C 70.4324,258.566 69.099,258.232 67.5,258.5C 67.5,257.5 67.5,256.5 67.5,255.5C 66.1168,253.022 65.1168,250.355 64.5,247.5C 63.7375,246.732 62.7375,246.232 61.5,246C 62.1667,245.667 62.8333,245.333 63.5,245C 62.244,244.583 61.5774,243.75 61.5,242.5C 60.445,238.725 59.1117,235.058 57.5,231.5C 57.7497,229.326 58.7497,227.659 60.5,226.5C 62.8996,224.8 65.5663,223.467 68.5,222.5 Z"/></g>
<g><path style="opacity:1" fill="#979797" d="M 74.5,261.5 C 76.337,261.639 76.6704,262.306 75.5,263.5C 74.7025,263.043 74.3691,262.376 74.5,261.5 Z"/></g>
<g><path style="opacity:1" fill="#949494" d="M 67.5,249.5 C 69.337,249.639 69.6704,250.306 68.5,251.5C 67.7025,251.043 67.3691,250.376 67.5,249.5 Z"/></g>
<g><path style="opacity:0.863" fill="#555555" d="M 321.5,263.5 C 322.124,263.917 322.457,264.584 322.5,265.5C 321.246,267.334 320.579,269.334 320.5,271.5C 319.793,269.769 318.793,268.103 317.5,266.5C 318.391,265.41 319.391,265.41 320.5,266.5C 321.386,265.675 321.719,264.675 321.5,263.5 Z"/></g>
<g><path style="opacity:0.525" fill="#8a8a8a" d="M 73.5,265.5 C 74.2852,267.374 74.9518,269.374 75.5,271.5C 73.6921,270.082 73.0254,268.082 73.5,265.5 Z"/></g>
<g><path style="opacity:0.835" fill="#717171" d="M 77.5,272.5 C 79.0481,272.821 79.7148,273.821 79.5,275.5C 78.5987,274.71 77.9321,273.71 77.5,272.5 Z"/></g>
<g><path style="opacity:1" fill="#9e9e9e" d="M 110.5,267.5 C 111.839,271.163 112.172,274.829 111.5,278.5C 106.989,276.854 105.989,274.187 108.5,270.5C 108.315,269.416 107.982,268.416 107.5,267.5C 108.348,266.375 109.348,266.375 110.5,267.5 Z"/></g>
<g><path style="opacity:1" fill="#9b9b9b" d="M 139.5,270.5 C 141.5,271.833 143.167,273.5 144.5,275.5C 143.833,275.5 143.5,275.833 143.5,276.5C 142.069,274.563 140.402,272.73 138.5,271C 138.728,270.601 139.062,270.435 139.5,270.5 Z"/></g>
<g><path style="opacity:1" fill="#979797" d="M 83.5,273.5 C 83.5,274.833 82.8333,275.5 81.5,275.5C 81.5,274.167 82.1667,273.5 83.5,273.5 Z"/></g>
<g><path style="opacity:1" fill="#282828" d="M 72.5,220.5 C 74.9248,220.684 74.9248,221.351 72.5,222.5C 74.4557,226.075 76.1224,229.742 77.5,233.5C 79.4147,233.784 81.0813,233.451 82.5,232.5C 84.1439,232.286 85.6439,232.62 87,233.5C 87.322,235.689 86.822,237.689 85.5,239.5C 85.7031,241.044 86.3698,242.378 87.5,243.5C 94.3181,243.283 95.9848,245.95 92.5,251.5C 93.5314,253.382 94.3647,255.382 95,257.5C 95.7387,256.426 96.7387,255.759 98,255.5C 102.692,258.143 102.525,260.643 97.5,263C 99.5506,265.02 101.884,266.52 104.5,267.5C 105.5,267.5 106.5,267.5 107.5,267.5C 107.982,268.416 108.315,269.416 108.5,270.5C 105.989,274.187 106.989,276.854 111.5,278.5C 113.144,278.286 114.644,278.62 116,279.5C 116.388,283.219 117.055,286.886 118,290.5C 123.648,287.144 125.482,288.644 123.5,295C 124.747,297.016 126.081,298.849 127.5,300.5C 125.698,303.279 124.031,303.112 122.5,300C 121.207,299.51 119.873,299.343 118.5,299.5C 117.5,299.5 116.5,299.5 115.5,299.5C 115.917,296.921 115.25,294.754 113.5,293C 114.711,292.107 114.711,291.274 113.5,290.5C 112.476,291.853 111.143,292.52 109.5,292.5C 107.248,288.523 105.748,284.19 105,279.5C 104.29,280.973 103.124,281.64 101.5,281.5C 102.038,278.768 102.038,276.102 101.5,273.5C 100.675,272.614 99.675,272.281 98.5,272.5C 98.6882,270.897 98.1882,269.563 97,268.5C 95.5187,271.064 94.0187,271.064 92.5,268.5C 96.3779,267.115 96.3779,265.949 92.5,265C 92.8333,264.667 93.1667,264.333 93.5,264C 92.7511,262.266 92.2511,260.433 92,258.5C 89.9734,258.014 87.8067,258.014 85.5,258.5C 84.9897,254.44 84.1564,250.44 83,246.5C 82.3741,244.009 81.5407,244.009 80.5,246.5C 79.269,245.349 79.269,244.183 80.5,243C 76.5727,235.92 72.5727,229.087 68.5,222.5C 68.5,222.167 68.5,221.833 68.5,221.5C 69.9587,221.567 71.2921,221.234 72.5,220.5 Z"/></g>
<g><path style="opacity:0.827" fill="#6f6f6f" d="M 319.5,275.5 C 319.261,277.467 319.594,279.301 320.5,281C 319.915,282.302 319.249,283.469 318.5,284.5C 318.19,281.287 318.523,278.287 319.5,275.5 Z"/></g>
<g><path style="opacity:0.918" fill="#5f5f5f" d="M 279.5,278.5 C 279.829,281.228 279.163,283.562 277.5,285.5C 277.721,282.933 278.388,280.599 279.5,278.5 Z"/></g>
<g><path style="opacity:1" fill="#141414" d="M 116.5,246.5 C 121.843,253.347 127.01,260.347 132,267.5C 133.722,267.962 135.555,268.128 137.5,268C 138.381,268.708 139.047,269.542 139.5,270.5C 139.062,270.435 138.728,270.601 138.5,271C 140.402,272.73 142.069,274.563 143.5,276.5C 143.833,276.5 144.167,276.5 144.5,276.5C 163.728,301.273 188.061,318.94 217.5,329.5C 215.516,329.383 213.85,330.05 212.5,331.5C 215.2,333.478 218.033,333.811 221,332.5C 221,333.833 221,335.167 221,336.5C 221.667,335.833 222.333,335.167 223,334.5C 224.324,335.88 225.657,336.214 227,335.5C 227.415,337.291 228.415,338.624 230,339.5C 231.692,335.597 233.192,335.597 234.5,339.5C 233.5,339.5 232.5,339.5 231.5,339.5C 231.5,343.833 231.5,348.167 231.5,352.5C 230.442,358.616 227.775,363.949 223.5,368.5C 218.173,371.11 212.506,372.11 206.5,371.5C 194.535,371.92 183.701,368.586 174,361.5C 172.612,362.554 171.112,362.72 169.5,362C 168.648,359.638 167.148,357.805 165,356.5C 163.384,357.801 161.884,357.801 160.5,356.5C 162.151,355.453 163.817,354.286 165.5,353C 162.258,352.717 161.924,351.883 164.5,350.5C 162.993,349.261 161.826,349.595 161,351.5C 160.517,350.552 160.351,349.552 160.5,348.5C 158.692,348.509 157.025,348.009 155.5,347C 156.196,345.512 155.862,344.012 154.5,342.5C 153.914,342.709 153.414,343.043 153,343.5C 151.237,342.056 149.237,341.056 147,340.5C 146.333,339.167 146.333,337.833 147,336.5C 150.178,336.037 153.345,336.703 156.5,338.5C 157.614,337.277 157.781,335.944 157,334.5C 156.042,332.376 154.875,330.376 153.5,328.5C 154.533,327.548 155.7,327.548 157,328.5C 158.713,327.863 158.879,326.863 157.5,325.5C 158.002,324.479 158.668,324.312 159.5,325C 160.767,326.796 160.767,328.629 159.5,330.5C 162.114,332.889 164.781,335.222 167.5,337.5C 165.328,338.205 163.328,339.205 161.5,340.5C 163.005,341.842 163.672,343.508 163.5,345.5C 164.5,345.5 165.5,345.5 166.5,345.5C 166.215,343.712 166.548,342.045 167.5,340.5C 170.535,342.301 173.869,342.968 177.5,342.5C 177.5,343.5 177.5,344.5 177.5,345.5C 180.513,345.372 183.013,346.372 185,348.5C 185.5,348.167 186,347.833 186.5,347.5C 185.687,346.186 184.687,345.019 183.5,344C 183.833,343.833 184.167,343.667 184.5,343.5C 186.179,344.782 188.013,345.782 190,346.5C 190.251,348.433 190.751,350.266 191.5,352C 192.448,352.483 193.448,352.649 194.5,352.5C 194.223,348.822 192.89,345.655 190.5,343C 193.235,343.198 195.901,343.031 198.5,342.5C 198.032,340.866 197.032,339.7 195.5,339C 197.015,337.274 198.682,335.774 200.5,334.5C 198.653,333.17 197.153,333.503 196,335.5C 195.333,334.833 194.667,334.167 194,333.5C 192.798,335.553 192.464,337.553 193,339.5C 190.763,337.719 188.763,335.719 187,333.5C 186.947,336.245 185.78,338.245 183.5,339.5C 183.167,339.167 182.833,338.833 182.5,338.5C 184.756,337.579 185.756,335.912 185.5,333.5C 182.324,333.33 180.324,331.663 179.5,328.5C 178.522,328.977 177.689,329.643 177,330.5C 175.544,329.08 174.044,327.747 172.5,326.5C 173.587,325.895 174.754,326.228 176,327.5C 178.621,326.009 181.455,325.342 184.5,325.5C 184.33,324.178 184.663,323.011 185.5,322C 184.584,321.626 183.75,321.126 183,320.5C 181.447,324.299 180.114,324.299 179,320.5C 178.517,321.448 178.351,322.448 178.5,323.5C 176.5,323.5 174.5,323.5 172.5,323.5C 172.354,321.058 173.187,320.391 175,321.5C 176.368,320.007 176.535,318.507 175.5,317C 173.074,317.048 170.741,316.881 168.5,316.5C 167.548,318.045 167.215,319.712 167.5,321.5C 166.5,321.5 165.5,321.5 164.5,321.5C 164.854,318.579 163.854,316.246 161.5,314.5C 170.335,311.316 170.335,310.149 161.5,311C 160.347,312.883 158.681,313.716 156.5,313.5C 156.421,312.07 156.754,310.736 157.5,309.5C 153.556,307.596 153.89,306.596 158.5,306.5C 158.5,305.5 158.5,304.5 158.5,303.5C 153.801,304.451 150.468,302.784 148.5,298.5C 149.167,297.833 149.833,297.167 150.5,296.5C 150,296.167 149.5,295.833 149,295.5C 147.56,296.148 146.06,296.481 144.5,296.5C 144.396,298.703 143.73,300.703 142.5,302.5C 141.325,302.719 140.325,302.386 139.5,301.5C 140.737,300.719 141.737,299.719 142.5,298.5C 138.948,297.642 135.281,296.309 131.5,294.5C 131.185,292.774 131.019,291.107 131,289.5C 132.049,290.517 133.216,290.684 134.5,290C 133.269,288.595 131.936,287.429 130.5,286.5C 131.542,285.209 132.708,285.209 134,286.5C 134.393,284.801 133.893,283.301 132.5,282C 133.707,280.7 134.374,279.2 134.5,277.5C 133.5,277.5 132.5,277.5 131.5,277.5C 131.728,279.355 131.061,280.188 129.5,280C 130.711,278.887 130.711,277.72 129.5,276.5C 127.16,274.329 124.494,272.662 121.5,271.5C 121.808,270.692 122.308,270.025 123,269.5C 124.88,270.93 126.38,270.596 127.5,268.5C 125.955,267.548 124.288,267.215 122.5,267.5C 122.5,266.5 122.5,265.5 122.5,264.5C 119.05,265.244 117.384,263.91 117.5,260.5C 118.5,260.5 119.5,260.5 120.5,260.5C 120.344,256.865 119.178,256.532 117,259.5C 115.667,256.833 113.667,254.833 111,253.5C 108.944,250.691 109.777,249.358 113.5,249.5C 113.5,248.5 113.5,247.5 113.5,246.5C 114.5,246.5 115.5,246.5 116.5,246.5 Z"/></g>
<g><path style="opacity:1" fill="#999999" d="M 277.5,286.5 C 277.719,287.675 277.386,288.675 276.5,289.5C 275.702,289.043 275.369,288.376 275.5,287.5C 276.167,287.167 276.833,286.833 277.5,286.5 Z"/></g>
<g><path style="opacity:1" fill="#2b2b2b" d="M 246.5,312.5 C 245.292,313.234 243.959,313.567 242.5,313.5C 242.5,315.833 242.5,318.167 242.5,320.5C 241.766,319.122 241.099,317.622 240.5,316C 240.536,311.933 240.703,307.767 241,303.5C 239.883,300.06 238.383,296.894 236.5,294C 237.167,293.667 237.833,293.333 238.5,293C 234.953,291.452 233.62,288.952 234.5,285.5C 235.598,289.361 236.431,289.361 237,285.5C 237.71,286.973 238.876,287.64 240.5,287.5C 240.67,288.822 240.337,289.989 239.5,291C 241.689,291.677 242.022,292.844 240.5,294.5C 242.59,300.495 244.59,306.495 246.5,312.5 Z"/></g>
<g><path style="opacity:1" fill="#757575" d="M 317.5,285.5 C 317.318,287.591 317.652,289.591 318.5,291.5C 317.995,292.919 316.995,293.585 315.5,293.5C 315.802,290.627 316.469,287.961 317.5,285.5 Z"/></g>
<g><path style="opacity:1" fill="#464646" d="M 108.5,262.5 C 109.5,262.5 110.5,262.5 111.5,262.5C 111.833,264.5 112.167,266.5 112.5,268.5C 114.604,268.201 116.604,268.534 118.5,269.5C 117.675,270.386 116.675,270.719 115.5,270.5C 115.392,272.514 116.058,274.18 117.5,275.5C 118.763,278.796 120.096,282.13 121.5,285.5C 122.689,286.429 124.022,286.762 125.5,286.5C 127.177,289.373 128.51,292.539 129.5,296C 128.586,297.406 127.92,298.906 127.5,300.5C 126.081,298.849 124.747,297.016 123.5,295C 125.482,288.644 123.648,287.144 118,290.5C 117.055,286.886 116.388,283.219 116,279.5C 114.644,278.62 113.144,278.286 111.5,278.5C 112.172,274.829 111.839,271.163 110.5,267.5C 110.169,265.678 109.502,264.011 108.5,262.5 Z"/></g>
<g><path style="opacity:0.997" fill="#202020" d="M 83.5,273.5 C 84.2485,274.531 84.9152,275.698 85.5,277C 86.4491,277.617 87.2825,277.451 88,276.5C 88.8229,280.915 89.9896,281.248 91.5,277.5C 91.8333,278 92.1667,278.5 92.5,279C 92.3842,281.724 92.3842,284.891 92.5,288.5C 93.8734,288.343 95.2068,288.51 96.5,289C 97.3758,291.376 99.0425,292.876 101.5,293.5C 100.624,294.251 99.624,294.751 98.5,295C 101.408,295.689 104.075,296.855 106.5,298.5C 107.736,297.754 109.07,297.421 110.5,297.5C 110.579,298.93 110.246,300.264 109.5,301.5C 107.009,302.541 107.009,303.374 109.5,304C 108.862,305.707 108.862,307.54 109.5,309.5C 108.5,309.5 107.5,309.5 106.5,309.5C 106.5,310.833 106.5,312.167 106.5,313.5C 104.557,312.922 104.223,311.922 105.5,310.5C 103.996,306.492 101.163,304.158 97,303.5C 97.2567,300.624 96.2567,297.957 94,295.5C 92.5589,294.74 91.0589,294.074 89.5,293.5C 88.269,292.349 88.269,291.183 89.5,290C 87.9588,288.421 86.7922,286.587 86,284.5C 81.8343,283.112 80.001,280.446 80.5,276.5C 81.1667,276.5 81.5,276.167 81.5,275.5C 82.8333,275.5 83.5,274.833 83.5,273.5 Z"/></g>
<g><path style="opacity:1" fill="#1b1b1b" d="M 160.5,356.5 C 158.784,353.388 156.284,352.388 153,353.5C 147.646,349.543 142.48,345.376 137.5,341C 135.753,340.648 134.086,340.148 132.5,339.5C 132.843,337.517 132.176,336.183 130.5,335.5C 128.964,332.908 126.631,331.908 123.5,332.5C 123.224,329.281 121.891,326.615 119.5,324.5C 121.017,324.511 122.184,325.177 123,326.5C 124.011,325.663 125.178,325.33 126.5,325.5C 126.351,326.552 126.517,327.552 127,328.5C 128.67,326.302 130.67,325.968 133,327.5C 133.667,326.833 133.667,326.167 133,325.5C 131.287,324.122 129.953,322.455 129,320.5C 127.951,322.107 126.451,322.773 124.5,322.5C 124.5,320.167 124.5,317.833 124.5,315.5C 126.103,315.688 127.437,315.188 128.5,314C 127.299,313.097 126.465,311.931 126,310.5C 124.237,311.944 122.237,312.944 120,313.5C 115.994,312.56 114.494,310.227 115.5,306.5C 117.624,305.851 119.624,305.017 121.5,304C 120.552,303.517 119.552,303.351 118.5,303.5C 118.5,302.167 118.5,300.833 118.5,299.5C 119.873,299.343 121.207,299.51 122.5,300C 124.031,303.112 125.698,303.279 127.5,300.5C 132.92,304.238 132.253,305.405 125.5,304C 127.394,305.079 127.727,306.413 126.5,308C 127.996,308.507 129.163,308.007 130,306.5C 131.507,308.008 133.173,309.341 135,310.5C 140.537,306.198 142.704,307.531 141.5,314.5C 141.719,315.938 142.219,317.271 143,318.5C 143.414,318.043 143.914,317.709 144.5,317.5C 145.631,318.751 146.964,319.751 148.5,320.5C 149.647,320.182 150.481,319.516 151,318.5C 154.855,329.399 156.355,329.066 155.5,317.5C 156.833,316.833 158.167,316.167 159.5,315.5C 157.659,314.77 155.825,314.103 154,313.5C 152.684,316.028 151.517,316.028 150.5,313.5C 149.522,313.977 148.689,314.643 148,315.5C 147.338,313.187 146.838,310.854 146.5,308.5C 147.978,308.762 149.311,308.429 150.5,307.5C 146.982,307.725 144.315,306.059 142.5,302.5C 143.73,300.703 144.396,298.703 144.5,296.5C 146.06,296.481 147.56,296.148 149,295.5C 149.5,295.833 150,296.167 150.5,296.5C 149.833,297.167 149.167,297.833 148.5,298.5C 150.468,302.784 153.801,304.451 158.5,303.5C 158.5,304.5 158.5,305.5 158.5,306.5C 153.89,306.596 153.556,307.596 157.5,309.5C 156.754,310.736 156.421,312.07 156.5,313.5C 158.681,313.716 160.347,312.883 161.5,311C 170.335,310.149 170.335,311.316 161.5,314.5C 163.854,316.246 164.854,318.579 164.5,321.5C 165.5,321.5 166.5,321.5 167.5,321.5C 167.215,319.712 167.548,318.045 168.5,316.5C 170.741,316.881 173.074,317.048 175.5,317C 176.535,318.507 176.368,320.007 175,321.5C 173.187,320.391 172.354,321.058 172.5,323.5C 174.5,323.5 176.5,323.5 178.5,323.5C 178.351,322.448 178.517,321.448 179,320.5C 180.114,324.299 181.447,324.299 183,320.5C 183.75,321.126 184.584,321.626 185.5,322C 184.663,323.011 184.33,324.178 184.5,325.5C 181.455,325.342 178.621,326.009 176,327.5C 174.754,326.228 173.587,325.895 172.5,326.5C 174.044,327.747 175.544,329.08 177,330.5C 177.689,329.643 178.522,328.977 179.5,328.5C 180.324,331.663 182.324,333.33 185.5,333.5C 185.756,335.912 184.756,337.579 182.5,338.5C 182.833,338.833 183.167,339.167 183.5,339.5C 185.78,338.245 186.947,336.245 187,333.5C 188.763,335.719 190.763,337.719 193,339.5C 192.464,337.553 192.798,335.553 194,333.5C 194.667,334.167 195.333,334.833 196,335.5C 197.153,333.503 198.653,333.17 200.5,334.5C 198.682,335.774 197.015,337.274 195.5,339C 197.032,339.7 198.032,340.866 198.5,342.5C 195.901,343.031 193.235,343.198 190.5,343C 192.89,345.655 194.223,348.822 194.5,352.5C 193.448,352.649 192.448,352.483 191.5,352C 190.751,350.266 190.251,348.433 190,346.5C 188.013,345.782 186.179,344.782 184.5,343.5C 184.167,343.667 183.833,343.833 183.5,344C 184.687,345.019 185.687,346.186 186.5,347.5C 186,347.833 185.5,348.167 185,348.5C 183.013,346.372 180.513,345.372 177.5,345.5C 177.5,344.5 177.5,343.5 177.5,342.5C 173.869,342.968 170.535,342.301 167.5,340.5C 166.548,342.045 166.215,343.712 166.5,345.5C 165.5,345.5 164.5,345.5 163.5,345.5C 163.672,343.508 163.005,341.842 161.5,340.5C 163.328,339.205 165.328,338.205 167.5,337.5C 164.781,335.222 162.114,332.889 159.5,330.5C 160.767,328.629 160.767,326.796 159.5,325C 158.668,324.312 158.002,324.479 157.5,325.5C 158.879,326.863 158.713,327.863 157,328.5C 155.7,327.548 154.533,327.548 153.5,328.5C 154.875,330.376 156.042,332.376 157,334.5C 157.781,335.944 157.614,337.277 156.5,338.5C 153.345,336.703 150.178,336.037 147,336.5C 146.333,337.833 146.333,339.167 147,340.5C 149.237,341.056 151.237,342.056 153,343.5C 153.414,343.043 153.914,342.709 154.5,342.5C 155.862,344.012 156.196,345.512 155.5,347C 157.025,348.009 158.692,348.509 160.5,348.5C 160.351,349.552 160.517,350.552 161,351.5C 161.826,349.595 162.993,349.261 164.5,350.5C 161.924,351.883 162.258,352.717 165.5,353C 163.817,354.286 162.151,355.453 160.5,356.5 Z"/></g>
<g><path style="opacity:1" fill="#747474" d="M 315.5,293.5 C 314.071,299.129 312.071,304.463 309.5,309.5C 307.973,305.073 305.973,300.906 303.5,297C 304.425,293.652 305.758,290.485 307.5,287.5C 310.374,289.577 312.541,292.244 314,295.5C 314.278,294.584 314.778,293.918 315.5,293.5 Z"/></g>
<g><path style="opacity:1" fill="#292929" d="M 117.5,275.5 C 118.374,277.69 120.041,278.69 122.5,278.5C 122.146,280.541 122.146,282.374 122.5,284C 123.899,284.595 125.232,284.428 126.5,283.5C 127.852,284.524 129.185,285.524 130.5,286.5C 131.936,287.429 133.269,288.595 134.5,290C 133.216,290.684 132.049,290.517 131,289.5C 131.019,291.107 131.185,292.774 131.5,294.5C 135.281,296.309 138.948,297.642 142.5,298.5C 141.737,299.719 140.737,300.719 139.5,301.5C 140.325,302.386 141.325,302.719 142.5,302.5C 144.315,306.059 146.982,307.725 150.5,307.5C 149.311,308.429 147.978,308.762 146.5,308.5C 146.838,310.854 147.338,313.187 148,315.5C 148.689,314.643 149.522,313.977 150.5,313.5C 151.517,316.028 152.684,316.028 154,313.5C 155.825,314.103 157.659,314.77 159.5,315.5C 158.167,316.167 156.833,316.833 155.5,317.5C 156.355,329.066 154.855,329.399 151,318.5C 150.481,319.516 149.647,320.182 148.5,320.5C 146.964,319.751 145.631,318.751 144.5,317.5C 143.914,317.709 143.414,318.043 143,318.5C 142.219,317.271 141.719,315.938 141.5,314.5C 142.704,307.531 140.537,306.198 135,310.5C 133.173,309.341 131.507,308.008 130,306.5C 129.163,308.007 127.996,308.507 126.5,308C 127.727,306.413 127.394,305.079 125.5,304C 132.253,305.405 132.92,304.238 127.5,300.5C 127.92,298.906 128.586,297.406 129.5,296C 128.51,292.539 127.177,289.373 125.5,286.5C 124.022,286.762 122.689,286.429 121.5,285.5C 120.096,282.13 118.763,278.796 117.5,275.5 Z"/></g>
<g><path style="opacity:0.529" fill="#696969" d="M 203.5,301.5 C 205.027,301.427 206.027,302.094 206.5,303.5C 204.973,303.573 203.973,302.906 203.5,301.5 Z"/></g>
<g><path style="opacity:1" fill="#8c8c8c" d="M 246.5,312.5 C 246.5,315.5 246.5,318.5 246.5,321.5C 245.041,321.567 243.708,321.234 242.5,320.5C 242.5,318.167 242.5,315.833 242.5,313.5C 243.959,313.567 245.292,313.234 246.5,312.5 Z"/></g>
<g><path style="opacity:1" fill="#4a4a4a" d="M 112.5,316.5 C 114.167,316.5 115.833,316.5 117.5,316.5C 116.551,318.737 115.884,321.071 115.5,323.5C 114.659,321.188 113.659,318.855 112.5,316.5 Z"/></g>
<g><path style="opacity:1" fill="#626262" d="M 303.5,321.5 C 302.343,325.976 300.01,329.642 296.5,332.5C 296.5,331.5 296.5,330.5 296.5,329.5C 295.426,326.501 295.593,323.501 297,320.5C 298.11,318.963 299.61,318.297 301.5,318.5C 301.285,320.179 301.952,321.179 303.5,321.5 Z"/></g>
<g><path style="opacity:0.999" fill="#272727" d="M 296.5,329.5 C 296.5,330.5 296.5,331.5 296.5,332.5C 294.628,337.043 291.628,340.71 287.5,343.5C 287.046,341.741 287.046,339.741 287.5,337.5C 289.255,336.928 290.922,336.094 292.5,335C 291.643,334.311 290.977,333.478 290.5,332.5C 292.704,331.794 294.704,330.794 296.5,329.5 Z"/></g>
<g><path style="opacity:0.235" fill="#909090" d="M 229.5,327.5 C 230.451,328.919 230.784,330.585 230.5,332.5C 228.585,332.784 226.919,332.451 225.5,331.5C 226.833,331.5 228.167,331.5 229.5,331.5C 229.5,330.167 229.5,328.833 229.5,327.5 Z"/></g>
<g><path style="opacity:0.384" fill="#8f8f8f" d="M 130.5,335.5 C 132.176,336.183 132.843,337.517 132.5,339.5C 131.655,338.329 130.989,336.995 130.5,335.5 Z"/></g>
<g><path style="opacity:1" fill="#545454" d="M 234.5,339.5 C 238.702,339.183 242.702,339.517 246.5,340.5C 241.833,340.5 237.167,340.5 232.5,340.5C 232.817,344.702 232.483,348.702 231.5,352.5C 231.5,348.167 231.5,343.833 231.5,339.5C 232.5,339.5 233.5,339.5 234.5,339.5 Z"/></g>
<g><path style="opacity:0.884" fill="#666666" d="M 287.5,337.5 C 287.046,339.741 287.046,341.741 287.5,343.5C 285.12,346.881 282.12,349.547 278.5,351.5C 278.387,348.951 279.054,346.618 280.5,344.5C 280.069,343.707 279.735,342.873 279.5,342C 280.787,339.929 281.953,337.762 283,335.5C 285.501,333.944 287.001,334.611 287.5,337.5 Z"/></g>
<g><path style="opacity:1" fill="#929292" d="M 246.5,340.5 C 247.579,346.449 247.746,352.449 247,358.5C 246.303,360.584 245.136,362.251 243.5,363.5C 240.518,363.963 237.518,364.296 234.5,364.5C 234.719,363.325 234.386,362.325 233.5,361.5C 230.458,364.345 227.125,366.679 223.5,368.5C 227.775,363.949 230.442,358.616 231.5,352.5C 232.483,348.702 232.817,344.702 232.5,340.5C 237.167,340.5 241.833,340.5 246.5,340.5 Z"/></g>
<g><path style="opacity:1" fill="#7c7c7c" d="M 268.5,355.5 C 265.523,356.071 262.69,357.071 260,358.5C 259.536,357.906 259.369,357.239 259.5,356.5C 258.982,351.375 260.982,347.708 265.5,345.5C 267.425,345.59 268.592,346.59 269,348.5C 269.703,350.929 269.537,353.262 268.5,355.5 Z"/></g>
<g><path style="opacity:1" fill="#575757" d="M 268.5,355.5 C 266.871,357.196 267.204,358.196 269.5,358.5C 265.776,361.639 261.443,363.639 256.5,364.5C 256.918,363.778 257.584,363.278 258.5,363C 257.158,360.544 257.491,358.378 259.5,356.5C 259.369,357.239 259.536,357.906 260,358.5C 262.69,357.071 265.523,356.071 268.5,355.5 Z"/></g>
<g><path style="opacity:1" fill="#616061" d="M 243.5,363.5 C 242.977,365.708 241.644,367.208 239.5,368C 240.094,368.464 240.761,368.631 241.5,368.5C 234.486,369.779 227.486,371.112 220.5,372.5C 215.833,372.5 211.167,372.5 206.5,372.5C 206.5,372.167 206.5,371.833 206.5,371.5C 212.506,372.11 218.173,371.11 223.5,368.5C 227.125,366.679 230.458,364.345 233.5,361.5C 234.386,362.325 234.719,363.325 234.5,364.5C 237.518,364.296 240.518,363.963 243.5,363.5 Z"/></g>
</svg>
