<?xml version="1.0" encoding="UTF-8"?>
<!DOCTYPE svg PUBLIC "-//W3C//DTD SVG 1.1//EN" "http://www.w3.org/Graphics/SVG/1.1/DTD/svg11.dtd">
<svg xmlns="http://www.w3.org/2000/svg" version="1.1" width="1000px" height="750px" style="shape-rendering:geometricPrecision; text-rendering:geometricPrecision; image-rendering:optimizeQuality; fill-rule:evenodd; clip-rule:evenodd" xmlns:xlink="http://www.w3.org/1999/xlink">
<g><path style="opacity:1" fill="#48738f" d="M 372.5,195.5 C 368.833,195.5 365.167,195.5 361.5,195.5C 362.568,194.566 363.901,194.232 365.5,194.5C 364.724,171.223 352.724,159.723 329.5,160C 324.225,161.64 319.225,163.807 314.5,166.5C 313.791,165.596 312.791,165.263 311.5,165.5C 315.5,161.159 320.5,158.326 326.5,157C 354.026,154.359 368.36,166.859 369.5,194.5C 370.791,194.263 371.791,194.596 372.5,195.5 Z"/></g>
<g><path style="opacity:1" fill="#326384" d="M 311.5,165.5 C 312.791,165.263 313.791,165.596 314.5,166.5C 309.196,171.336 305.696,177.336 304,184.5C 303.5,250.832 303.333,317.166 303.5,383.5C 302.5,383.5 301.5,383.5 300.5,383.5C 300.5,382.5 300.5,381.5 300.5,380.5C 300.333,315.166 300.5,249.832 301,184.5C 302.444,176.937 305.944,170.604 311.5,165.5 Z"/></g>
<g><path style="opacity:1" fill="#044765" d="M 361.5,195.5 C 365.167,195.5 368.833,195.5 372.5,195.5C 399.842,199.509 415.509,215.175 419.5,242.5C 392.661,242.169 365.995,242.502 339.5,243.5C 338.503,262.326 338.17,281.326 338.5,300.5C 337.209,300.737 336.209,300.404 335.5,299.5C 336.497,280.674 336.83,261.674 336.5,242.5C 328.66,242.964 320.993,242.464 313.5,241C 319.014,214.65 335.014,199.483 361.5,195.5 Z"/></g>
<g><path style="opacity:1" fill="#0a090d" d="M 500.5,264.5 C 490.156,263.566 480.156,265.233 470.5,269.5C 466.345,262.652 465.512,255.319 468,247.5C 469.704,245.627 471.537,243.96 473.5,242.5C 474.492,242.672 475.158,242.338 475.5,241.5C 486.892,236.48 495.392,239.48 501,250.5C 501.773,255.252 501.607,259.919 500.5,264.5 Z"/></g>
<g><path style="opacity:0.816" fill="#7e8ebd" d="M 475.5,241.5 C 475.158,242.338 474.492,242.672 473.5,242.5C 474.032,239.54 474.699,239.207 475.5,241.5 Z"/></g>
<g><path style="opacity:1" fill="#29c2c6" d="M 500.5,264.5 C 499.85,266.435 499.517,268.435 499.5,270.5C 489.913,268.241 480.913,269.574 472.5,274.5C 471.559,272.95 470.893,271.284 470.5,269.5C 480.156,265.233 490.156,263.566 500.5,264.5 Z"/></g>
<g><path style="opacity:1" fill="#090609" d="M 499.5,270.5 C 516.167,274.462 523.834,284.796 522.5,301.5C 521.833,301.5 521.167,301.5 520.5,301.5C 519.431,296.445 517.098,292.112 513.5,288.5C 509.479,293.188 505.146,297.521 500.5,301.5C 498.781,302.022 497.448,303.022 496.5,304.5C 493.061,304.747 489.728,304.414 486.5,303.5C 481.138,302.567 476.805,300.067 473.5,296C 469.909,295.211 466.409,295.378 463,296.5C 462.503,294.19 462.337,291.857 462.5,289.5C 463.484,282.864 466.817,277.864 472.5,274.5C 480.913,269.574 489.913,268.241 499.5,270.5 Z"/></g>
<g><path style="opacity:1" fill="#865649" d="M 520.5,301.5 C 520.12,303.698 520.787,305.365 522.5,306.5C 523.376,306.369 524.043,306.702 524.5,307.5C 526.71,311.495 526.543,315.495 524,319.5C 518.935,322.557 514.435,326.39 510.5,331C 507.785,332.908 504.785,334.241 501.5,335C 502.056,335.383 502.389,335.883 502.5,336.5C 499.236,335.676 495.902,335.342 492.5,335.5C 491.833,335.5 491.167,335.5 490.5,335.5C 486.276,332.465 482.109,329.131 478,325.5C 478.176,329.202 479.51,332.535 482,335.5C 483.777,337.79 485.944,339.457 488.5,340.5C 488.5,340.833 488.5,341.167 488.5,341.5C 485.993,346.908 481.659,349.241 475.5,348.5C 473.631,348.493 471.964,348.16 470.5,347.5C 467.256,345.445 464.09,343.111 461,340.5C 459.711,337.649 459.211,334.649 459.5,331.5C 460.376,331.631 461.043,331.298 461.5,330.5C 463.992,325.684 466.325,320.851 468.5,316C 467.882,313.328 466.216,311.494 463.5,310.5C 459.932,307.129 459.599,303.463 462.5,299.5C 462.457,298.584 462.124,297.917 461.5,297.5C 461.194,294.615 461.527,291.948 462.5,289.5C 462.337,291.857 462.503,294.19 463,296.5C 466.409,295.378 469.909,295.211 473.5,296C 476.805,300.067 481.138,302.567 486.5,303.5C 488.234,305.555 490.567,306.888 493.5,307.5C 494.855,306.812 495.855,305.812 496.5,304.5C 503.652,302.314 506.985,304.981 506.5,312.5C 508.318,307.125 511.818,305.125 517,306.5C 518.655,308.747 518.988,311.08 518,313.5C 520.582,308.657 519.248,305.324 514,303.5C 511.501,304.083 509.501,305.416 508,307.5C 506.52,304.183 504.02,302.183 500.5,301.5C 505.146,297.521 509.479,293.188 513.5,288.5C 517.098,292.112 519.431,296.445 520.5,301.5 Z"/></g>
<g><path style="opacity:1" fill="#fe766a" d="M 461.5,297.5 C 462.124,297.917 462.457,298.584 462.5,299.5C 459.599,303.463 459.932,307.129 463.5,310.5C 466.216,311.494 467.882,313.328 468.5,316C 466.325,320.851 463.992,325.684 461.5,330.5C 461.043,331.298 460.376,331.631 459.5,331.5C 458.833,331.833 458.167,332.167 457.5,332.5C 440.169,335.415 427.003,344.415 418,359.5C 408.967,379.793 404.134,401.126 403.5,423.5C 401.621,423.393 401.288,423.893 402.5,425C 404.473,425.495 406.473,425.662 408.5,425.5C 408.833,425.5 409.167,425.5 409.5,425.5C 409.198,428.059 409.532,430.393 410.5,432.5C 409.57,443.347 411.403,453.681 416,463.5C 417.543,465.378 419.376,466.878 421.5,468C 425.833,468.488 429.833,469.655 433.5,471.5C 426.224,489.361 429.891,504.528 444.5,517C 448.666,519.917 452.999,522.584 457.5,525C 480.644,534.992 503.977,544.492 527.5,553.5C 528.521,554.002 528.688,554.668 528,555.5C 523.166,560.504 519.333,566.171 516.5,572.5C 516.5,572.833 516.5,573.167 516.5,573.5C 514.485,575.676 512.818,578.176 511.5,581C 512.056,581.383 512.389,581.883 512.5,582.5C 509.918,587.723 507.418,593.056 505,598.5C 500.816,610.608 496.649,622.608 492.5,634.5C 484.542,635.403 476.542,635.736 468.5,635.5C 457.725,635.705 447.058,635.039 436.5,633.5C 435.883,633.389 435.383,633.056 435,632.5C 434.506,634.134 434.34,635.801 434.5,637.5C 427.46,657.302 419.46,676.635 410.5,695.5C 409.596,696.209 409.263,697.209 409.5,698.5C 406.833,698.5 404.167,698.5 401.5,698.5C 401.5,698.167 401.5,697.833 401.5,697.5C 401.672,696.508 401.338,695.842 400.5,695.5C 399.71,694.391 399.21,693.058 399,691.5C 398.833,682.833 398.667,674.167 398.5,665.5C 398.655,652.718 398.989,640.051 399.5,627.5C 394.918,625.581 390.251,623.748 385.5,622C 382.761,620.974 380.428,619.474 378.5,617.5C 376.853,615.674 374.853,614.34 372.5,613.5C 371.508,613.672 370.842,613.338 370.5,612.5C 369.5,609.5 367.5,607.5 364.5,606.5C 357.163,596.847 353.663,585.847 354,573.5C 353.333,499.5 353.333,425.5 354,351.5C 354.947,339.144 359.113,328.144 366.5,318.5C 368.587,317.415 369.92,315.749 370.5,313.5C 381.129,301.684 394.462,294.851 410.5,293C 427.907,290.408 444.907,291.908 461.5,297.5 Z"/></g>
<g><path style="opacity:1" fill="#567a99" d="M 339.5,243.5 C 339.5,262.167 339.5,280.833 339.5,299.5C 341.911,299.137 343.411,300.137 344,302.5C 345.553,310.28 342.386,313.447 334.5,312C 329.17,307.219 329.503,303.052 335.5,299.5C 336.209,300.404 337.209,300.737 338.5,300.5C 338.17,281.326 338.503,262.326 339.5,243.5 Z"/></g>
<g><path style="opacity:1" fill="#e3e9f0" d="M 337.5,301.5 C 340.804,302.144 342.138,304.144 341.5,307.5C 339.248,308.333 337.081,308.333 335,307.5C 334.034,304.66 334.867,302.66 337.5,301.5 Z"/></g>
<g><path style="opacity:1" fill="#966f7b" d="M 500.5,301.5 C 504.02,302.183 506.52,304.183 508,307.5C 509.501,305.416 511.501,304.083 514,303.5C 519.248,305.324 520.582,308.657 518,313.5C 518.988,311.08 518.655,308.747 517,306.5C 511.818,305.125 508.318,307.125 506.5,312.5C 506.985,304.981 503.652,302.314 496.5,304.5C 497.448,303.022 498.781,302.022 500.5,301.5 Z"/></g>
<g><path style="opacity:1" fill="#a282ac" d="M 486.5,303.5 C 489.728,304.414 493.061,304.747 496.5,304.5C 495.855,305.812 494.855,306.812 493.5,307.5C 490.567,306.888 488.234,305.555 486.5,303.5 Z"/></g>
<g><path style="opacity:0.769" fill="#8660a4" d="M 520.5,301.5 C 521.167,301.5 521.833,301.5 522.5,301.5C 522.5,303.167 522.5,304.833 522.5,306.5C 520.787,305.365 520.12,303.698 520.5,301.5 Z"/></g>
<g><path style="opacity:1" fill="#080614" d="M 498.5,307.5 C 499.5,307.5 500.5,307.5 501.5,307.5C 501.778,309.346 501.111,310.68 499.5,311.5C 498.571,310.311 498.238,308.978 498.5,307.5 Z"/></g>
<g><path style="opacity:1" fill="#140e14" d="M 512.5,309.5 C 516.157,309.974 516.324,311.307 513,313.5C 511.232,312.318 511.065,310.985 512.5,309.5 Z"/></g>
<g><path style="opacity:0.208" fill="#ffccce" d="M 370.5,313.5 C 369.92,315.749 368.587,317.415 366.5,318.5C 367.08,316.251 368.413,314.585 370.5,313.5 Z"/></g>
<g><path style="opacity:1" fill="#231830" d="M 506.5,312.5 C 507.496,312.414 508.329,312.748 509,313.5C 510.668,319.493 508.502,321.993 502.5,321C 508.58,320.24 509.913,317.406 506.5,312.5 Z"/></g>
<g><path style="opacity:1" fill="#1f172b" d="M 492.5,322.5 C 494.07,321.441 495.403,321.941 496.5,324C 498.657,324.078 500.657,324.245 502.5,324.5C 498.63,326.141 495.297,325.474 492.5,322.5 Z"/></g>
<g><path style="opacity:1" fill="#024563" d="M 457.5,332.5 C 457.847,340.853 462.18,345.853 470.5,347.5C 471.964,348.16 473.631,348.493 475.5,348.5C 481.659,349.241 485.993,346.908 488.5,341.5C 490.01,339.678 491.343,337.678 492.5,335.5C 495.902,335.342 499.236,335.676 502.5,336.5C 503.492,336.328 504.158,336.662 504.5,337.5C 505.539,339.531 507.205,340.864 509.5,341.5C 512.252,344.084 514.419,347.084 516,350.5C 516.816,351.823 517.983,352.489 519.5,352.5C 519.427,354.027 520.094,355.027 521.5,355.5C 521.157,357.483 521.824,358.817 523.5,359.5C 523.157,361.483 523.824,362.817 525.5,363.5C 525.077,365.781 525.744,367.448 527.5,368.5C 527.5,368.833 527.5,369.167 527.5,369.5C 527.12,371.698 527.787,373.365 529.5,374.5C 529.5,374.833 529.5,375.167 529.5,375.5C 529.171,378.228 529.837,380.562 531.5,382.5C 531.5,382.833 531.5,383.167 531.5,383.5C 532.618,388.862 532.618,394.196 531.5,399.5C 527.006,401.912 522.339,404.079 517.5,406C 514.854,406.497 512.187,406.664 509.5,406.5C 509.5,405.5 509.5,404.5 509.5,403.5C 509.066,398.332 508.4,393.332 507.5,388.5C 508.036,385.302 507.369,382.635 505.5,380.5C 505.5,379.833 505.5,379.167 505.5,378.5C 505.795,376.265 505.461,374.265 504.5,372.5C 505.244,369.05 503.91,367.384 500.5,367.5C 500.205,369.735 500.539,371.735 501.5,373.5C 501.557,374.609 501.89,375.609 502.5,376.5C 503.602,382.778 504.602,389.112 505.5,395.5C 505.76,401.172 506.093,406.839 506.5,412.5C 506.875,418.009 507.542,423.342 508.5,428.5C 509.024,432.428 508.024,435.761 505.5,438.5C 501.276,439.962 496.943,441.128 492.5,442C 482.148,442.672 471.814,442.506 461.5,441.5C 458.223,441.784 455.057,441.451 452,440.5C 451.831,428.659 451.331,416.993 450.5,405.5C 450.573,403.973 449.906,402.973 448.5,402.5C 447.797,408.733 447.13,415.066 446.5,421.5C 443.784,421.678 441.117,422.178 438.5,423C 439.094,423.464 439.761,423.631 440.5,423.5C 438.981,424.41 437.315,425.243 435.5,426C 427.173,426.5 418.84,426.666 410.5,426.5C 410.5,428.5 410.5,430.5 410.5,432.5C 409.532,430.393 409.198,428.059 409.5,425.5C 418.582,425.914 427.582,425.414 436.5,424C 425.505,423.5 414.505,423.333 403.5,423.5C 404.134,401.126 408.967,379.793 418,359.5C 427.003,344.415 440.169,335.415 457.5,332.5 Z"/></g>
<g><path style="opacity:1" fill="#10307b" d="M 490.5,335.5 C 489.559,337.05 488.893,338.716 488.5,340.5C 485.944,339.457 483.777,337.79 482,335.5C 479.51,332.535 478.176,329.202 478,325.5C 482.109,329.131 486.276,332.465 490.5,335.5 Z"/></g>
<g><path style="opacity:1" fill="#ac8076" d="M 459.5,331.5 C 459.211,334.649 459.711,337.649 461,340.5C 464.09,343.111 467.256,345.445 470.5,347.5C 462.18,345.853 457.847,340.853 457.5,332.5C 458.167,332.167 458.833,331.833 459.5,331.5 Z"/></g>
<g><path style="opacity:1" fill="#8b966c" d="M 490.5,335.5 C 491.167,335.5 491.833,335.5 492.5,335.5C 491.343,337.678 490.01,339.678 488.5,341.5C 488.5,341.167 488.5,340.833 488.5,340.5C 488.893,338.716 489.559,337.05 490.5,335.5 Z"/></g>
<g><path style="opacity:0.522" fill="#a8b49c" d="M 504.5,337.5 C 506.957,338.023 509.291,338.856 511.5,340C 510.584,340.278 509.918,340.778 509.5,341.5C 507.205,340.864 505.539,339.531 504.5,337.5 Z"/></g>
<g><path style="opacity:1" fill="#23c8bf" d="M 237.5,354.5 C 237.44,355.043 237.107,355.376 236.5,355.5C 227.171,351.501 217.838,351.501 208.5,355.5C 203.249,353.552 198.249,351.218 193.5,348.5C 198.589,339.625 206.255,336.458 216.5,339C 225.377,341.722 232.377,346.888 237.5,354.5 Z"/></g>
<g><path style="opacity:0.102" fill="#c6cca4" d="M 509.5,341.5 C 514.202,343.871 517.536,347.538 519.5,352.5C 517.983,352.489 516.816,351.823 516,350.5C 514.419,347.084 512.252,344.084 509.5,341.5 Z"/></g>
<g><path style="opacity:1" fill="#16c9bf" d="M 190.5,351.5 C 196.945,352.089 202.612,354.422 207.5,358.5C 199.987,368.212 196.987,379.212 198.5,391.5C 191.052,389.057 185.385,384.39 181.5,377.5C 179.955,376.548 178.288,376.215 176.5,376.5C 177.209,375.596 178.209,375.263 179.5,375.5C 178.302,365.232 181.969,357.232 190.5,351.5 Z"/></g>
<g><path style="opacity:0.396" fill="#e2dfae" d="M 519.5,352.5 C 520.906,352.973 521.573,353.973 521.5,355.5C 520.094,355.027 519.427,354.027 519.5,352.5 Z"/></g>
<g><path style="opacity:1" fill="#18c8be" d="M 237.5,357.5 C 240.452,358.359 242.285,360.359 243,363.5C 245.173,367.489 245.673,371.489 244.5,375.5C 242.852,374.073 240.852,373.24 238.5,373C 234.833,372.667 231.167,372.333 227.5,372C 222.589,366.584 217.256,361.75 211.5,357.5C 214.54,355.065 218.04,354.065 222,354.5C 227.391,354.545 232.557,355.545 237.5,357.5 Z"/></g>
<g><path style="opacity:1" fill="#a4f5f2" d="M 193.5,348.5 C 198.249,351.218 203.249,353.552 208.5,355.5C 217.838,351.501 227.171,351.501 236.5,355.5C 237.107,355.376 237.44,355.043 237.5,354.5C 238.625,355.348 238.625,356.348 237.5,357.5C 232.557,355.545 227.391,354.545 222,354.5C 218.04,354.065 214.54,355.065 211.5,357.5C 217.256,361.75 222.589,366.584 227.5,372C 231.167,372.333 234.833,372.667 238.5,373C 240.852,373.24 242.852,374.073 244.5,375.5C 244.5,375.833 244.5,376.167 244.5,376.5C 240.002,374.723 235.335,374.223 230.5,375C 235.111,380.439 239.111,386.273 242.5,392.5C 241.167,392.833 241.167,393.167 242.5,393.5C 242.027,394.906 241.027,395.573 239.5,395.5C 240.778,393.456 240.612,391.456 239,389.5C 235.715,384.546 232.048,379.88 228,375.5C 222.967,381.564 221.133,388.564 222.5,396.5C 225.119,396.232 227.619,396.565 230,397.5C 231.199,400.726 231.699,404.059 231.5,407.5C 230.572,404.411 229.572,401.245 228.5,398C 225.854,397.503 223.187,397.336 220.5,397.5C 219.126,388.614 221.126,380.614 226.5,373.5C 221.748,367.911 216.248,363.245 210,359.5C 205.589,362.636 202.922,366.969 202,372.5C 201.001,379.285 200.168,385.952 199.5,392.5C 198.833,392.5 198.5,392.167 198.5,391.5C 196.987,379.212 199.987,368.212 207.5,358.5C 202.612,354.422 196.945,352.089 190.5,351.5C 191.5,350.5 192.5,349.5 193.5,348.5 Z"/></g>
<g><path style="opacity:1" fill="#8d9f87" d="M 521.5,355.5 C 522.674,356.514 523.34,357.847 523.5,359.5C 521.824,358.817 521.157,357.483 521.5,355.5 Z"/></g>
<g><path style="opacity:1" fill="#0bc8be" d="M 220.5,397.5 C 220.5,398.167 220.5,398.833 220.5,399.5C 219.373,398.878 218.373,398.045 217.5,397C 211.064,396.725 205.064,395.225 199.5,392.5C 200.168,385.952 201.001,379.285 202,372.5C 202.922,366.969 205.589,362.636 210,359.5C 216.248,363.245 221.748,367.911 226.5,373.5C 221.126,380.614 219.126,388.614 220.5,397.5 Z"/></g>
<g><path style="opacity:1" fill="#92a589" d="M 523.5,359.5 C 524.674,360.514 525.34,361.847 525.5,363.5C 523.824,362.817 523.157,361.483 523.5,359.5 Z"/></g>
<g><path style="opacity:1" fill="#92a38c" d="M 525.5,363.5 C 526.537,364.93 527.204,366.597 527.5,368.5C 525.744,367.448 525.077,365.781 525.5,363.5 Z"/></g>
<g><path style="opacity:1" fill="#4d5c43" d="M 504.5,372.5 C 502.908,373.602 502.075,372.935 502,370.5C 501.517,371.448 501.351,372.448 501.5,373.5C 500.539,371.735 500.205,369.735 500.5,367.5C 503.91,367.384 505.244,369.05 504.5,372.5 Z"/></g>
<g><path style="opacity:1" fill="#26c9bf" d="M 290.5,376.5 C 290.167,376.5 289.833,376.5 289.5,376.5C 283.256,379.414 277.256,382.748 271.5,386.5C 266.147,385.215 260.813,385.215 255.5,386.5C 254.702,386.043 254.369,385.376 254.5,384.5C 261.622,372.604 271.955,367.77 285.5,370C 288.85,371.438 290.517,373.605 290.5,376.5 Z"/></g>
<g><path style="opacity:1" fill="#b0bb92" d="M 527.5,369.5 C 528.931,370.78 529.598,372.447 529.5,374.5C 527.787,373.365 527.12,371.698 527.5,369.5 Z"/></g>
<g><path style="opacity:1" fill="#91884c" d="M 504.5,372.5 C 505.461,374.265 505.795,376.265 505.5,378.5C 504.71,377.391 504.21,376.058 504,374.5C 503.722,375.416 503.222,376.082 502.5,376.5C 501.89,375.609 501.557,374.609 501.5,373.5C 501.351,372.448 501.517,371.448 502,370.5C 502.075,372.935 502.908,373.602 504.5,372.5 Z"/></g>
<g><path style="opacity:1" fill="#24c8be" d="M 244.5,376.5 C 245.947,377.134 246.613,378.301 246.5,380C 246.167,384.923 244.833,389.423 242.5,393.5C 242.5,393.167 242.5,392.833 242.5,392.5C 239.111,386.273 235.111,380.439 230.5,375C 235.335,374.223 240.002,374.723 244.5,376.5 Z"/></g>
<g><path style="opacity:1" fill="#21cac0" d="M 176.5,376.5 C 175.416,382.07 177.083,386.57 181.5,390C 184.592,391.546 187.592,393.046 190.5,394.5C 185.113,395.19 180.113,397.023 175.5,400C 172.167,400 168.833,400 165.5,400C 167.392,400.973 169.392,401.64 171.5,402C 167.217,404.615 163.217,407.615 159.5,411C 153.143,411.346 146.81,411.846 140.5,412.5C 140.5,411.5 140.5,410.5 140.5,409.5C 145.361,396.136 154.027,385.969 166.5,379C 169.72,377.648 173.053,376.814 176.5,376.5 Z"/></g>
<g><path style="opacity:1" fill="#27c9c0" d="M 290.5,376.5 C 294.293,376.731 297.626,378.065 300.5,380.5C 300.5,381.5 300.5,382.5 300.5,383.5C 301.5,383.5 302.5,383.5 303.5,383.5C 307.492,389.871 307.492,396.204 303.5,402.5C 301.81,402.856 300.81,403.856 300.5,405.5C 299.078,406.925 297.411,407.925 295.5,408.5C 297.202,396.909 293.202,387.909 283.5,381.5C 285.565,380.143 287.565,378.81 289.5,377.5C 290.167,377.5 290.5,377.167 290.5,376.5 Z"/></g>
<g><path style="opacity:0.176" fill="#d9d9aa" d="M 529.5,375.5 C 530.924,377.515 531.59,379.848 531.5,382.5C 529.837,380.562 529.171,378.228 529.5,375.5 Z"/></g>
<g><path style="opacity:1" fill="#bdbe90" d="M 505.5,380.5 C 507.369,382.635 508.036,385.302 507.5,388.5C 505.842,387.495 505.175,384.828 505.5,380.5 Z"/></g>
<g><path style="opacity:1" fill="#00afa4" d="M 176.5,376.5 C 178.288,376.215 179.955,376.548 181.5,377.5C 185.385,384.39 191.052,389.057 198.5,391.5C 198.5,392.167 198.833,392.5 199.5,392.5C 205.064,395.225 211.064,396.725 217.5,397C 218.373,398.045 219.373,398.878 220.5,399.5C 221.167,399.5 221.5,399.833 221.5,400.5C 210.971,400.573 200.637,398.573 190.5,394.5C 187.592,393.046 184.592,391.546 181.5,390C 177.083,386.57 175.416,382.07 176.5,376.5 Z"/></g>
<g><path style="opacity:1" fill="#b1f8f6" d="M 289.5,376.5 C 289.5,376.833 289.5,377.167 289.5,377.5C 287.565,378.81 285.565,380.143 283.5,381.5C 293.202,387.909 297.202,396.909 295.5,408.5C 294.833,408.833 294.167,409.167 293.5,409.5C 295.767,399.189 292.767,390.689 284.5,384C 280.084,383.041 276.75,384.541 274.5,388.5C 277.049,391.802 277.882,395.469 277,399.5C 276.399,396.363 275.399,393.363 274,390.5C 273.282,389.549 272.449,389.383 271.5,390C 264.096,396.324 258.262,403.824 254,412.5C 253.51,413.793 253.343,415.127 253.5,416.5C 252.778,416.082 252.278,415.416 252,414.5C 250.893,415.712 250.393,415.379 250.5,413.5C 255.777,404.039 262.443,395.539 270.5,388C 264.449,387.254 258.449,387.421 252.5,388.5C 252.989,387.005 253.655,385.671 254.5,384.5C 254.369,385.376 254.702,386.043 255.5,386.5C 260.813,385.215 266.147,385.215 271.5,386.5C 277.256,382.748 283.256,379.414 289.5,376.5 Z"/></g>
<g><path style="opacity:0.271" fill="#e0ddab" d="M 531.5,383.5 C 533.401,388.225 533.901,393.225 533,398.5C 532.617,399.056 532.117,399.389 531.5,399.5C 532.618,394.196 532.618,388.862 531.5,383.5 Z"/></g>
<g><path style="opacity:1" fill="#15c9bf" d="M 190.5,394.5 C 200.637,398.573 210.971,400.573 221.5,400.5C 227.092,405.609 228.925,411.943 227,419.5C 224.719,425.559 220.886,430.393 215.5,434C 209.637,437.932 203.304,440.765 196.5,442.5C 194.906,435.049 193.073,427.382 191,419.5C 187.783,412.462 183.283,406.462 177.5,401.5C 181.774,398.972 186.107,396.638 190.5,394.5 Z"/></g>
<g><path style="opacity:1" fill="#52593f" d="M 505.5,378.5 C 505.5,379.167 505.5,379.833 505.5,380.5C 505.175,384.828 505.842,387.495 507.5,388.5C 508.4,393.332 509.066,398.332 509.5,403.5C 507.716,401.035 506.383,398.368 505.5,395.5C 504.602,389.112 503.602,382.778 502.5,376.5C 503.222,376.082 503.722,375.416 504,374.5C 504.21,376.058 504.71,377.391 505.5,378.5 Z"/></g>
<g><path style="opacity:1" fill="#86895b" d="M 505.5,395.5 C 506.383,398.368 507.716,401.035 509.5,403.5C 509.5,404.5 509.5,405.5 509.5,406.5C 512.187,406.664 514.854,406.497 517.5,406C 522.339,404.079 527.006,401.912 531.5,399.5C 531.167,400.167 530.833,400.833 530.5,401.5C 525.858,404.319 520.858,406.319 515.5,407.5C 512.833,407.5 510.167,407.5 507.5,407.5C 507.784,409.415 507.451,411.081 506.5,412.5C 506.093,406.839 505.76,401.172 505.5,395.5 Z"/></g>
<g><path style="opacity:1" fill="#87574a" d="M 530.5,405.5 C 532.893,413.56 535.226,421.727 537.5,430C 552.004,439.084 566.337,448.418 580.5,458C 581.577,458.47 582.577,458.303 583.5,457.5C 583.68,462.781 582.013,467.114 578.5,470.5C 571.429,464.935 564.762,458.768 558.5,452C 557.167,451.333 555.833,450.667 554.5,450C 547.199,448.837 539.866,448.003 532.5,447.5C 530.143,447.663 527.81,447.497 525.5,447C 520.97,443.638 516.303,440.471 511.5,437.5C 510.833,432.683 510.166,428.017 509.5,423.5C 509.167,423.5 508.833,423.5 508.5,423.5C 508.5,422.167 508.5,420.833 508.5,419.5C 509.461,417.735 509.795,415.735 509.5,413.5C 517.169,412.391 524.169,409.724 530.5,405.5 Z"/></g>
<g><path style="opacity:1" fill="#675b13" d="M 448.5,402.5 C 449.906,402.973 450.573,403.973 450.5,405.5C 450.5,410.833 450.5,416.167 450.5,421.5C 450.167,421.5 449.833,421.5 449.5,421.5C 449.167,421.5 448.833,421.5 448.5,421.5C 448.5,415.167 448.5,408.833 448.5,402.5 Z"/></g>
<g><path style="opacity:1" fill="#568469" d="M 448.5,402.5 C 448.5,408.833 448.5,415.167 448.5,421.5C 447.833,421.5 447.167,421.5 446.5,421.5C 447.13,415.066 447.797,408.733 448.5,402.5 Z"/></g>
<g><path style="opacity:1" fill="#143178" d="M 530.5,401.5 C 530.5,402.833 530.5,404.167 530.5,405.5C 524.169,409.724 517.169,412.391 509.5,413.5C 509.795,415.735 509.461,417.735 508.5,419.5C 508.5,415.833 508.5,412.167 508.5,408.5C 511.059,408.802 513.393,408.468 515.5,407.5C 520.858,406.319 525.858,404.319 530.5,401.5 Z"/></g>
<g><path style="opacity:0.929" fill="#396d8f" d="M 303.5,402.5 C 303.5,413.833 303.5,425.167 303.5,436.5C 301.973,436.573 300.973,435.906 300.5,434.5C 300.5,424.833 300.5,415.167 300.5,405.5C 300.81,403.856 301.81,402.856 303.5,402.5 Z"/></g>
<g><path style="opacity:1" fill="#1ac7bd" d="M 136.5,424.5 C 136.42,421.219 137.087,418.219 138.5,415.5C 144.018,413.623 149.685,413.123 155.5,414C 148.959,420.872 142.793,428.039 137,435.5C 136.501,431.848 136.335,428.182 136.5,424.5 Z"/></g>
<g><path style="opacity:0.035" fill="#bdfcfc" d="M 281.5,414.5 C 280.081,415.451 278.415,415.784 276.5,415.5C 277.281,410.582 277.781,405.582 278,400.5C 278.499,405.155 278.666,409.821 278.5,414.5C 279.5,414.5 280.5,414.5 281.5,414.5 Z"/></g>
<g><path style="opacity:1" fill="#6ab1f5" d="M 700.5,420.5 C 697.865,425.922 695.365,431.589 693,437.5C 691.586,443.743 689.586,449.743 687,455.5C 685.957,458.757 685.457,462.09 685.5,465.5C 683.703,472.226 681.703,478.892 679.5,485.5C 660.5,485.5 641.5,485.5 622.5,485.5C 607.5,485.5 592.5,485.5 577.5,485.5C 577.5,486.5 577.5,487.5 577.5,488.5C 576.5,487.833 575.5,487.167 574.5,486.5C 558.5,485.167 542.5,485.167 526.5,486.5C 526.167,486.5 525.833,486.5 525.5,486.5C 522.921,485.772 520.254,485.272 517.5,485C 514.833,482.667 514.833,480.333 517.5,478C 522.155,477.501 526.821,477.334 531.5,477.5C 533.167,478.833 534.833,478.833 536.5,477.5C 537.833,477.5 539.167,477.5 540.5,477.5C 541.833,477.5 543.167,477.5 544.5,477.5C 545.833,477.5 547.167,477.5 548.5,477.5C 549.833,477.5 551.167,477.5 552.5,477.5C 555.833,477.5 559.167,477.5 562.5,477.5C 567.416,478.611 572.416,478.778 577.5,478C 578.406,476.301 578.739,474.467 578.5,472.5C 578.5,471.833 578.5,471.167 578.5,470.5C 582.013,467.114 583.68,462.781 583.5,457.5C 587.759,443.055 592.426,428.722 597.5,414.5C 632.162,413.333 666.829,413.167 701.5,414C 702.543,416.373 702.21,418.54 700.5,420.5 Z"/></g>
<g><path style="opacity:1" fill="#18c8bf" d="M 158.5,446.5 C 150.918,446.251 143.918,444.084 137.5,440C 136.226,439.023 136.226,438.189 137.5,437.5C 142.743,430.72 148.243,424.053 154,417.5C 155.133,415.789 156.633,415.289 158.5,416C 162.349,425.769 164.015,435.935 163.5,446.5C 161.833,446.5 160.167,446.5 158.5,446.5 Z"/></g>
<g><path style="opacity:1" fill="#3c6970" d="M 515.5,407.5 C 513.393,408.468 511.059,408.802 508.5,408.5C 508.5,412.167 508.5,415.833 508.5,419.5C 508.5,420.833 508.5,422.167 508.5,423.5C 508.5,425.167 508.5,426.833 508.5,428.5C 507.542,423.342 506.875,418.009 506.5,412.5C 507.451,411.081 507.784,409.415 507.5,407.5C 510.167,407.5 512.833,407.5 515.5,407.5 Z"/></g>
<g><path style="opacity:1" fill="#20c9bf" d="M 239.5,395.5 C 236.562,395.851 234.562,397.351 233.5,400C 235.231,411.143 236.731,422.309 238,433.5C 244.098,427.068 251.431,422.734 260,420.5C 260.749,419.365 260.583,418.365 259.5,417.5C 257.591,416.652 255.591,416.318 253.5,416.5C 253.343,415.127 253.51,413.793 254,412.5C 258.262,403.824 264.096,396.324 271.5,390C 272.449,389.383 273.282,389.549 274,390.5C 275.399,393.363 276.399,396.363 277,399.5C 277.882,395.469 277.049,391.802 274.5,388.5C 276.75,384.541 280.084,383.041 284.5,384C 292.767,390.689 295.767,399.189 293.5,409.5C 290.048,412.219 286.048,413.885 281.5,414.5C 280.5,414.5 279.5,414.5 278.5,414.5C 278.666,409.821 278.499,405.155 278,400.5C 277.781,405.582 277.281,410.582 276.5,415.5C 272.561,416.327 268.561,416.994 264.5,417.5C 264.5,418.5 264.5,419.5 264.5,420.5C 278.326,420.661 290.326,425.327 300.5,434.5C 300.973,435.906 301.973,436.573 303.5,436.5C 306.878,439.876 309.878,443.543 312.5,447.5C 312.631,448.239 312.464,448.906 312,449.5C 295.245,443.011 279.245,444.344 264,453.5C 254.646,447.324 244.479,442.991 233.5,440.5C 233.074,429.484 232.408,418.484 231.5,407.5C 231.699,404.059 231.199,400.726 230,397.5C 227.619,396.565 225.119,396.232 222.5,396.5C 221.133,388.564 222.967,381.564 228,375.5C 232.048,379.88 235.715,384.546 239,389.5C 240.612,391.456 240.778,393.456 239.5,395.5 Z"/></g>
<g><path style="opacity:1" fill="#22c9bf" d="M 250.5,413.5 C 247.771,404.925 248.438,396.591 252.5,388.5C 258.449,387.421 264.449,387.254 270.5,388C 262.443,395.539 255.777,404.039 250.5,413.5 Z"/></g>
<g><path style="opacity:1" fill="#81875f" d="M 446.5,421.5 C 444.898,423.074 442.898,423.741 440.5,423.5C 439.761,423.631 439.094,423.464 438.5,423C 441.117,422.178 443.784,421.678 446.5,421.5 Z"/></g>
<g><path style="opacity:1" fill="#583740" d="M 403.5,423.5 C 405.167,424.167 406.833,424.833 408.5,425.5C 406.473,425.662 404.473,425.495 402.5,425C 401.288,423.893 401.621,423.393 403.5,423.5 Z"/></g>
<g><path style="opacity:1" fill="#717c58" d="M 403.5,423.5 C 414.505,423.333 425.505,423.5 436.5,424C 427.582,425.414 418.582,425.914 409.5,425.5C 409.167,425.5 408.833,425.5 408.5,425.5C 406.833,424.833 405.167,424.167 403.5,423.5 Z"/></g>
<g><path style="opacity:1" fill="#855447" d="M 447.5,425.5 C 448.327,430.985 448.827,436.652 449,442.5C 451.937,443.817 454.77,443.817 457.5,442.5C 458.833,442.5 460.167,442.5 461.5,442.5C 462.791,442.263 463.791,442.596 464.5,443.5C 470.068,445.184 478.401,445.851 489.5,445.5C 502.46,446.72 515.46,447.72 528.5,448.5C 537.415,449.203 546.415,450.37 555.5,452C 562.538,458.707 569.872,465.04 577.5,471C 575.833,471.667 574.167,471.667 572.5,471C 569.26,468.909 565.926,467.076 562.5,465.5C 558.836,461.668 555.336,457.668 552,453.5C 554.104,457.359 555.938,461.526 557.5,466C 556.756,470.313 555.089,474.146 552.5,477.5C 551.167,477.5 549.833,477.5 548.5,477.5C 548.762,474.499 549.596,471.832 551,469.5C 548.218,471.771 546.051,474.437 544.5,477.5C 543.167,477.5 541.833,477.5 540.5,477.5C 540.704,475.315 541.37,473.315 542.5,471.5C 540.118,473.215 538.118,475.215 536.5,477.5C 534.833,478.833 533.167,478.833 531.5,477.5C 533.381,473.604 535.714,469.937 538.5,466.5C 536.833,464.167 534.833,462.167 532.5,460.5C 523.81,465.3 514.977,465.634 506,461.5C 482.234,467.822 458.068,471.156 433.5,471.5C 429.833,469.655 425.833,468.488 421.5,468C 419.376,466.878 417.543,465.378 416,463.5C 411.403,453.681 409.57,443.347 410.5,432.5C 423.518,433.336 435.852,431.003 447.5,425.5 Z"/></g>
<g><path style="opacity:1" fill="#083180" d="M 446.5,421.5 C 447.167,421.5 447.833,421.5 448.5,421.5C 448.833,421.5 449.167,421.5 449.5,421.5C 449.473,423.199 448.806,424.533 447.5,425.5C 435.852,431.003 423.518,433.336 410.5,432.5C 410.5,430.5 410.5,428.5 410.5,426.5C 418.84,426.666 427.173,426.5 435.5,426C 437.315,425.243 438.981,424.41 440.5,423.5C 442.898,423.741 444.898,423.074 446.5,421.5 Z"/></g>
<g><path style="opacity:1" fill="#a3a877" d="M 450.5,405.5 C 451.331,416.993 451.831,428.659 452,440.5C 455.057,441.451 458.223,441.784 461.5,441.5C 461.5,441.833 461.5,442.167 461.5,442.5C 460.167,442.5 458.833,442.5 457.5,442.5C 455.167,442.5 452.833,442.5 450.5,442.5C 450.5,435.5 450.5,428.5 450.5,421.5C 450.5,416.167 450.5,410.833 450.5,405.5 Z"/></g>
<g><path style="opacity:1" fill="#a1f6f2" d="M 190.5,394.5 C 186.107,396.638 181.774,398.972 177.5,401.5C 183.283,406.462 187.783,412.462 191,419.5C 193.073,427.382 194.906,435.049 196.5,442.5C 195.432,443.434 194.099,443.768 192.5,443.5C 193.443,431.942 190.943,421.276 185,411.5C 181.942,407.938 178.442,404.938 174.5,402.5C 168.443,405.069 163.443,408.903 159.5,414C 164.032,424.356 166.032,435.19 165.5,446.5C 170.167,446.5 174.833,446.5 179.5,446.5C 172.5,447.833 165.5,447.833 158.5,446.5C 160.167,446.5 161.833,446.5 163.5,446.5C 164.015,435.935 162.349,425.769 158.5,416C 156.633,415.289 155.133,415.789 154,417.5C 148.243,424.053 142.743,430.72 137.5,437.5C 136.31,435.447 135.643,433.113 135.5,430.5C 135.505,428.304 135.838,426.304 136.5,424.5C 136.335,428.182 136.501,431.848 137,435.5C 142.793,428.039 148.959,420.872 155.5,414C 149.685,413.123 144.018,413.623 138.5,415.5C 139.048,413.374 139.715,411.374 140.5,409.5C 140.5,410.5 140.5,411.5 140.5,412.5C 146.81,411.846 153.143,411.346 159.5,411C 163.217,407.615 167.217,404.615 171.5,402C 169.392,401.64 167.392,400.973 165.5,400C 168.833,400 172.167,400 175.5,400C 180.113,397.023 185.113,395.19 190.5,394.5 Z"/></g>
<g><path style="opacity:1" fill="#5e4953" d="M 449.5,421.5 C 449.833,421.5 450.167,421.5 450.5,421.5C 450.5,428.5 450.5,435.5 450.5,442.5C 452.833,442.5 455.167,442.5 457.5,442.5C 454.77,443.817 451.937,443.817 449,442.5C 448.827,436.652 448.327,430.985 447.5,425.5C 448.806,424.533 449.473,423.199 449.5,421.5 Z"/></g>
<g><path style="opacity:1" fill="#8b8e63" d="M 508.5,423.5 C 508.833,423.5 509.167,423.5 509.5,423.5C 509.827,428.214 509.493,432.88 508.5,437.5C 507.583,438.127 506.583,438.461 505.5,438.5C 508.024,435.761 509.024,432.428 508.5,428.5C 508.5,426.833 508.5,425.167 508.5,423.5 Z"/></g>
<g><path style="opacity:1" fill="#5f7e6b" d="M 505.5,438.5 C 500.649,441.584 495.315,443.584 489.5,444.5C 481.16,444.309 472.826,443.976 464.5,443.5C 463.791,442.596 462.791,442.263 461.5,442.5C 461.5,442.167 461.5,441.833 461.5,441.5C 471.814,442.506 482.148,442.672 492.5,442C 496.943,441.128 501.276,439.962 505.5,438.5 Z"/></g>
<g><path style="opacity:1" fill="#18327c" d="M 509.5,423.5 C 510.166,428.017 510.833,432.683 511.5,437.5C 516.303,440.471 520.97,443.638 525.5,447C 527.81,447.497 530.143,447.663 532.5,447.5C 531.432,448.434 530.099,448.768 528.5,448.5C 515.46,447.72 502.46,446.72 489.5,445.5C 489.5,445.167 489.5,444.833 489.5,444.5C 495.315,443.584 500.649,441.584 505.5,438.5C 506.583,438.461 507.583,438.127 508.5,437.5C 509.493,432.88 509.827,428.214 509.5,423.5 Z"/></g>
<g><path style="opacity:1" fill="#27cac0" d="M 231.5,442.5 C 242.747,444.415 253.08,448.582 262.5,455C 256.721,461.394 253.221,468.894 252,477.5C 251.008,490.575 251.508,503.575 253.5,516.5C 253.457,517.416 253.124,518.083 252.5,518.5C 250.606,517.952 248.94,516.952 247.5,515.5C 246.914,515.709 246.414,516.043 246,516.5C 245.995,535.14 245.495,553.807 244.5,572.5C 243.833,572.5 243.5,572.833 243.5,573.5C 234.167,573.5 224.833,573.5 215.5,573.5C 215.5,572.833 215.833,572.5 216.5,572.5C 224.5,572.5 232.5,572.5 240.5,572.5C 241.999,552.526 242.499,532.526 242,512.5C 235.626,505.794 229.626,498.794 224,491.5C 215.809,479.141 214.476,466.141 220,452.5C 222.788,447.873 226.622,444.539 231.5,442.5 Z"/></g>
<g><path style="opacity:1" fill="#443858" d="M 464.5,443.5 C 472.826,443.976 481.16,444.309 489.5,444.5C 489.5,444.833 489.5,445.167 489.5,445.5C 478.401,445.851 470.068,445.184 464.5,443.5 Z"/></g>
<g><path style="opacity:1" fill="#8cbcec" d="M 700.5,420.5 C 696.072,435.784 691.072,450.784 685.5,465.5C 685.457,462.09 685.957,458.757 687,455.5C 689.586,449.743 691.586,443.743 693,437.5C 695.365,431.589 697.865,425.922 700.5,420.5 Z"/></g>
<g><path style="opacity:1" fill="#a5d3fe" d="M 642.5,441.5 C 647.66,442.68 648.827,445.68 646,450.5C 642.187,453.589 639.687,452.755 638.5,448C 639.205,445.458 640.539,443.292 642.5,441.5 Z"/></g>
<g><path style="opacity:1" fill="#10c8be" d="M 314.5,451.5 C 317.389,454.256 319.556,457.589 321,461.5C 323.596,466.887 325.096,472.553 325.5,478.5C 325.762,479.978 325.429,481.311 324.5,482.5C 313.31,476.03 301.31,473.197 288.5,474C 281.29,467.285 273.956,460.785 266.5,454.5C 270.725,450.725 275.725,448.558 281.5,448C 292.784,446.737 303.784,447.903 314.5,451.5 Z"/></g>
<g><path style="opacity:1" fill="#4f3a71" d="M 545.5,455.5 C 545.56,454.957 545.893,454.624 546.5,454.5C 549.401,457.295 550.901,460.628 551,464.5C 549.643,461.102 547.81,458.102 545.5,455.5 Z"/></g>
<g><path style="opacity:1" fill="#0ec8bf" d="M 281.5,530.5 C 272.653,529.767 264.32,526.767 256.5,521.5C 255.614,520.675 255.281,519.675 255.5,518.5C 251.027,500.994 251.527,483.661 257,466.5C 258.296,462.233 260.796,458.9 264.5,456.5C 273.77,461.771 281.436,468.771 287.5,477.5C 284.96,483.621 283.127,489.955 282,496.5C 281.5,507.828 281.333,519.162 281.5,530.5 Z"/></g>
<g><path style="opacity:1" fill="#62436a" d="M 532.5,447.5 C 539.866,448.003 547.199,448.837 554.5,450C 555.833,450.667 557.167,451.333 558.5,452C 564.762,458.768 571.429,464.935 578.5,470.5C 578.5,471.167 578.5,471.833 578.5,472.5C 571.817,473.497 566.484,471.163 562.5,465.5C 565.926,467.076 569.26,468.909 572.5,471C 574.167,471.667 575.833,471.667 577.5,471C 569.872,465.04 562.538,458.707 555.5,452C 546.415,450.37 537.415,449.203 528.5,448.5C 530.099,448.768 531.432,448.434 532.5,447.5 Z"/></g>
<g><path style="opacity:1" fill="#033283" d="M 531.5,477.5 C 526.821,477.334 522.155,477.501 517.5,478C 514.833,480.333 514.833,482.667 517.5,485C 520.254,485.272 522.921,485.772 525.5,486.5C 536.586,495.223 547.92,503.723 559.5,512C 566.458,517.951 572.291,524.785 577,532.5C 579.62,540.032 580.12,547.699 578.5,555.5C 570.676,569.981 561.676,583.648 551.5,596.5C 537.568,591.709 525.901,583.709 516.5,572.5C 519.333,566.171 523.166,560.504 528,555.5C 528.688,554.668 528.521,554.002 527.5,553.5C 503.977,544.492 480.644,534.992 457.5,525C 452.999,522.584 448.666,519.917 444.5,517C 429.891,504.528 426.224,489.361 433.5,471.5C 458.068,471.156 482.234,467.822 506,461.5C 514.977,465.634 523.81,465.3 532.5,460.5C 534.833,462.167 536.833,464.167 538.5,466.5C 535.714,469.937 533.381,473.604 531.5,477.5 Z"/></g>
<g><path style="opacity:1" fill="#4e3a71" d="M 542.5,471.5 C 542.703,469.956 543.37,468.622 544.5,467.5C 542.754,463.673 540.754,460.007 538.5,456.5C 538.833,456.167 539.167,455.833 539.5,455.5C 542.03,459.226 544.03,463.226 545.5,467.5C 545.246,469.417 544.246,470.751 542.5,471.5 Z"/></g>
<g><path style="opacity:1" fill="#fc766f" d="M 562.5,465.5 C 566.484,471.163 571.817,473.497 578.5,472.5C 578.739,474.467 578.406,476.301 577.5,478C 572.416,478.778 567.416,478.611 562.5,477.5C 560.909,475.563 559.242,473.563 557.5,471.5C 558.06,469.146 558.727,466.813 559.5,464.5C 560.417,465.127 561.417,465.461 562.5,465.5 Z"/></g>
<g><path style="opacity:1" fill="#223484" d="M 542.5,471.5 C 541.37,473.315 540.704,475.315 540.5,477.5C 539.167,477.5 537.833,477.5 536.5,477.5C 538.118,475.215 540.118,473.215 542.5,471.5 Z"/></g>
<g><path style="opacity:1" fill="#2d3680" d="M 548.5,477.5 C 547.167,477.5 545.833,477.5 544.5,477.5C 546.051,474.437 548.218,471.771 551,469.5C 549.596,471.832 548.762,474.499 548.5,477.5 Z"/></g>
<g><path style="opacity:1" fill="#313782" d="M 562.5,465.5 C 561.417,465.461 560.417,465.127 559.5,464.5C 558.727,466.813 558.06,469.146 557.5,471.5C 559.242,473.563 560.909,475.563 562.5,477.5C 559.167,477.5 555.833,477.5 552.5,477.5C 555.089,474.146 556.756,470.313 557.5,466C 555.938,461.526 554.104,457.359 552,453.5C 555.336,457.668 558.836,461.668 562.5,465.5 Z"/></g>
<g><path style="opacity:1" fill="#1bc9bf" d="M 195.5,480.5 C 195.5,480.833 195.5,481.167 195.5,481.5C 196.303,482.423 196.47,483.423 196,484.5C 190.208,490.122 185.375,496.456 181.5,503.5C 162.158,504.591 145.325,511.591 131,524.5C 130.506,522.866 130.34,521.199 130.5,519.5C 134.081,498.792 145.414,484.292 164.5,476C 175.372,473.674 185.705,475.174 195.5,480.5 Z"/></g>
<g><path style="opacity:1" fill="#14c8be" d="M 325.5,484.5 C 326.167,484.5 326.5,484.833 326.5,485.5C 326.443,491.851 326.11,498.185 325.5,504.5C 324.777,512.925 322.11,520.591 317.5,527.5C 313.844,517.386 309.677,507.386 305,497.5C 300.944,490.112 296.111,483.278 290.5,477C 294.646,475.405 298.98,475.072 303.5,476C 311.137,478.155 318.47,480.988 325.5,484.5 Z"/></g>
<g><path style="opacity:1" fill="#13c8bf" d="M 314.5,531.5 C 311.302,532.787 307.969,533.453 304.5,533.5C 304.167,533.5 303.833,533.5 303.5,533.5C 302.5,532.167 301.5,532.167 300.5,533.5C 299.417,533.539 298.417,533.873 297.5,534.5C 293.555,533.732 289.555,533.232 285.5,533C 283.881,532.764 282.881,531.931 282.5,530.5C 281.374,513.47 283.207,496.804 288,480.5C 288.561,479.978 289.228,479.645 290,479.5C 303.267,494.37 311.434,511.703 314.5,531.5 Z"/></g>
<g><path style="opacity:1" fill="#b0f8f6" d="M 233.5,440.5 C 244.479,442.991 254.646,447.324 264,453.5C 279.245,444.344 295.245,443.011 312,449.5C 312.464,448.906 312.631,448.239 312.5,447.5C 313.345,448.671 314.011,450.005 314.5,451.5C 303.784,447.903 292.784,446.737 281.5,448C 275.725,448.558 270.725,450.725 266.5,454.5C 273.956,460.785 281.29,467.285 288.5,474C 301.31,473.197 313.31,476.03 324.5,482.5C 325.429,481.311 325.762,479.978 325.5,478.5C 326.742,480.389 326.742,482.389 325.5,484.5C 318.47,480.988 311.137,478.155 303.5,476C 298.98,475.072 294.646,475.405 290.5,477C 296.111,483.278 300.944,490.112 305,497.5C 309.677,507.386 313.844,517.386 317.5,527.5C 316.341,528.74 315.341,530.074 314.5,531.5C 311.434,511.703 303.267,494.37 290,479.5C 289.228,479.645 288.561,479.978 288,480.5C 283.207,496.804 281.374,513.47 282.5,530.5C 282.167,530.5 281.833,530.5 281.5,530.5C 281.333,519.162 281.5,507.828 282,496.5C 283.127,489.955 284.96,483.621 287.5,477.5C 281.436,468.771 273.77,461.771 264.5,456.5C 260.796,458.9 258.296,462.233 257,466.5C 251.527,483.661 251.027,500.994 255.5,518.5C 254.348,519.625 253.348,519.625 252.5,518.5C 253.124,518.083 253.457,517.416 253.5,516.5C 251.508,503.575 251.008,490.575 252,477.5C 253.221,468.894 256.721,461.394 262.5,455C 253.08,448.582 242.747,444.415 231.5,442.5C 232.167,441.833 232.833,441.167 233.5,440.5 Z"/></g>
<g><path style="opacity:1" fill="#1dc9bf" d="M 192.5,443.5 C 190.723,444.6 188.723,445.434 186.5,446C 192.376,458.125 197.376,470.625 201.5,483.5C 225.277,492.707 235.444,510.04 232,535.5C 231.197,541.069 229.697,546.402 227.5,551.5C 226.883,551.611 226.383,551.944 226,552.5C 225.901,550.347 225.067,548.681 223.5,547.5C 222.843,542.176 220.843,537.51 217.5,533.5C 210.689,518.69 199.355,509.356 183.5,505.5C 184.352,502.777 185.519,500.11 187,497.5C 190.647,493.018 194.481,488.685 198.5,484.5C 197.942,481.873 196.942,479.54 195.5,477.5C 191.829,467.326 187.662,457.326 183,447.5C 181.989,446.663 180.822,446.33 179.5,446.5C 174.833,446.5 170.167,446.5 165.5,446.5C 166.032,435.19 164.032,424.356 159.5,414C 163.443,408.903 168.443,405.069 174.5,402.5C 178.442,404.938 181.942,407.938 185,411.5C 190.943,421.276 193.443,431.942 192.5,443.5 Z"/></g>
<g><path style="opacity:1" fill="#076bb8" d="M 526.5,486.5 C 542.5,485.167 558.5,485.167 574.5,486.5C 558.991,486.17 543.658,486.504 528.5,487.5C 527.833,487.167 527.167,486.833 526.5,486.5 Z"/></g>
<g><path style="opacity:0.207" fill="#c0d8f4" d="M 622.5,485.5 C 641.5,485.5 660.5,485.5 679.5,485.5C 661.5,486.167 643.5,486.833 625.5,487.5C 624.29,487.068 623.29,486.401 622.5,485.5 Z"/></g>
<g><path style="opacity:1" fill="#fe766b" d="M 622.5,485.5 C 623.29,486.401 624.29,487.068 625.5,487.5C 671.341,513.884 687.508,552.884 674,604.5C 673.116,607.058 671.616,609.058 669.5,610.5C 667.926,610.063 666.759,609.063 666,607.5C 659.379,595.905 652.546,584.571 645.5,573.5C 644.331,570.489 642.664,567.822 640.5,565.5C 640.672,564.508 640.338,563.842 639.5,563.5C 630.849,546.868 620.682,531.201 609,516.5C 598.898,506.562 588.398,497.229 577.5,488.5C 577.5,487.5 577.5,486.5 577.5,485.5C 592.5,485.5 607.5,485.5 622.5,485.5 Z"/></g>
<g><path style="opacity:1" fill="#043282" d="M 528.5,487.5 C 543.658,486.504 558.991,486.17 574.5,486.5C 575.5,487.167 576.5,487.833 577.5,488.5C 588.398,497.229 598.898,506.562 609,516.5C 620.682,531.201 630.849,546.868 639.5,563.5C 635.556,568.984 630.556,573.317 624.5,576.5C 616.277,561.067 606.777,546.4 596,532.5C 585.271,521.148 572.771,512.315 558.5,506C 557.128,505.598 555.795,505.098 554.5,504.5C 553.893,504.624 553.56,504.957 553.5,505.5C 545.167,499.5 536.833,493.5 528.5,487.5 Z"/></g>
<g><path style="opacity:0.247" fill="#a2f2ed" d="M 326.5,485.5 C 327.854,491.899 327.521,498.232 325.5,504.5C 326.11,498.185 326.443,491.851 326.5,485.5 Z"/></g>
<g><path style="opacity:1" fill="#15c9bf" d="M 132.5,559.5 C 130.579,555.491 129.412,551.157 129,546.5C 128.333,540.5 128.333,534.5 129,528.5C 129.383,527.944 129.883,527.611 130.5,527.5C 141.242,517.293 153.909,510.459 168.5,507C 172.211,506.175 175.878,506.341 179.5,507.5C 174.768,516.365 171.434,525.699 169.5,535.5C 161.232,535.797 153.898,538.63 147.5,544C 142.269,549.062 137.269,554.229 132.5,559.5 Z"/></g>
<g><path style="opacity:1" fill="#002867" d="M 553.5,505.5 C 553.56,504.957 553.893,504.624 554.5,504.5C 555.795,505.098 557.128,505.598 558.5,506C 572.771,512.315 585.271,521.148 596,532.5C 606.777,546.4 616.277,561.067 624.5,576.5C 620.722,578.595 616.722,579.761 612.5,580C 607.398,570.571 601.898,561.405 596,552.5C 591.818,548.14 586.985,544.807 581.5,542.5C 580.028,534.878 576.861,527.878 572,521.5C 566.082,515.804 559.915,510.471 553.5,505.5 Z"/></g>
<g><path style="opacity:1" fill="#0cc8be" d="M 217.5,533.5 C 218.965,538.426 220.965,543.093 223.5,547.5C 223.616,550.86 223.949,554.193 224.5,557.5C 222.61,562.949 219.943,567.949 216.5,572.5C 215.833,572.5 215.5,572.833 215.5,573.5C 215.167,574.5 214.5,575.167 213.5,575.5C 211.413,576.585 210.08,578.251 209.5,580.5C 208.5,581.5 207.5,582.5 206.5,583.5C 205.167,584.833 203.833,586.167 202.5,587.5C 201.778,588.551 200.778,589.218 199.5,589.5C 198.833,589.5 198.167,589.5 197.5,589.5C 191.49,575.485 182.157,564.151 169.5,555.5C 169.412,538.52 173.412,522.52 181.5,507.5C 182.723,506.386 184.056,506.219 185.5,507C 199.375,512.049 210.042,520.882 217.5,533.5 Z"/></g>
<g><path style="opacity:1" fill="#5399db" d="M 525.5,486.5 C 525.833,486.5 526.167,486.5 526.5,486.5C 527.167,486.833 527.833,487.167 528.5,487.5C 536.833,493.5 545.167,499.5 553.5,505.5C 559.915,510.471 566.082,515.804 572,521.5C 576.861,527.878 580.028,534.878 581.5,542.5C 581.5,543.167 581.5,543.833 581.5,544.5C 580.523,547.287 580.19,550.287 580.5,553.5C 579.833,554.167 579.167,554.833 578.5,555.5C 580.12,547.699 579.62,540.032 577,532.5C 572.291,524.785 566.458,517.951 559.5,512C 547.92,503.723 536.586,495.223 525.5,486.5 Z"/></g>
<g><path style="opacity:1" fill="#01516d" d="M 303.5,533.5 C 303.833,533.5 304.167,533.5 304.5,533.5C 304.5,581.5 304.5,629.5 304.5,677.5C 304.5,677.833 304.5,678.167 304.5,678.5C 304.083,679.124 303.416,679.457 302.5,679.5C 301.287,679.253 300.62,678.586 300.5,677.5C 300.835,629.325 301.835,581.325 303.5,533.5 Z"/></g>
<g><path style="opacity:0.776" fill="#527a9d" d="M 303.5,533.5 C 301.835,581.325 300.835,629.325 300.5,677.5C 300.5,629.5 300.5,581.5 300.5,533.5C 301.5,532.167 302.5,532.167 303.5,533.5 Z"/></g>
<g><path style="opacity:1" fill="#b1f9f7" d="M 195.5,477.5 C 196.942,479.54 197.942,481.873 198.5,484.5C 194.481,488.685 190.647,493.018 187,497.5C 185.519,500.11 184.352,502.777 183.5,505.5C 199.355,509.356 210.689,518.69 217.5,533.5C 210.042,520.882 199.375,512.049 185.5,507C 184.056,506.219 182.723,506.386 181.5,507.5C 173.412,522.52 169.412,538.52 169.5,555.5C 182.157,564.151 191.49,575.485 197.5,589.5C 197.5,590.167 197.167,590.5 196.5,590.5C 191.032,578.84 183.365,568.673 173.5,560C 171.783,558.441 169.783,557.608 167.5,557.5C 167.602,570.209 168.102,582.875 169,595.5C 167.908,592.956 167.241,590.289 167,587.5C 166.167,577.5 165.333,567.5 164.5,557.5C 155.238,563.42 148.572,571.42 144.5,581.5C 143.5,580.5 142.5,579.5 141.5,578.5C 143.017,578.489 144.184,577.823 145,576.5C 149.95,567.217 156.95,559.884 166,554.5C 166.835,548.486 167.668,542.486 168.5,536.5C 154.868,539.622 144.034,546.955 136,558.5C 134.798,560.677 134.298,563.011 134.5,565.5C 133.715,563.626 133.048,561.626 132.5,559.5C 137.269,554.229 142.269,549.062 147.5,544C 153.898,538.63 161.232,535.797 169.5,535.5C 171.434,525.699 174.768,516.365 179.5,507.5C 175.878,506.341 172.211,506.175 168.5,507C 153.909,510.459 141.242,517.293 130.5,527.5C 129.343,524.693 129.343,522.026 130.5,519.5C 130.34,521.199 130.506,522.866 131,524.5C 145.325,511.591 162.158,504.591 181.5,503.5C 185.375,496.456 190.208,490.122 196,484.5C 196.47,483.423 196.303,482.423 195.5,481.5C 196.833,481.167 196.833,480.833 195.5,480.5C 195.5,479.5 195.5,478.5 195.5,477.5 Z"/></g>
<g><path style="opacity:1" fill="#15c8be" d="M 141.5,578.5 C 138.391,574.618 136.058,570.284 134.5,565.5C 134.298,563.011 134.798,560.677 136,558.5C 144.034,546.955 154.868,539.622 168.5,536.5C 167.668,542.486 166.835,548.486 166,554.5C 156.95,559.884 149.95,567.217 145,576.5C 144.184,577.823 143.017,578.489 141.5,578.5 Z"/></g>
<g><path style="opacity:1" fill="#b3faf9" d="M 217.5,533.5 C 220.843,537.51 222.843,542.176 223.5,547.5C 220.965,543.093 218.965,538.426 217.5,533.5 Z"/></g>
<g><path style="opacity:1" fill="#0c2866" d="M 581.5,544.5 C 590.732,548.56 597.566,555.227 602,564.5C 604.579,569.992 607.412,575.325 610.5,580.5C 608.78,581.934 606.78,582.767 604.5,583C 607.167,583.333 609.833,583.667 612.5,584C 614.066,586.326 615.732,588.492 617.5,590.5C 614.713,591.477 611.713,591.81 608.5,591.5C 602.255,582.688 596.755,573.355 592,563.5C 588.59,559.584 584.757,556.251 580.5,553.5C 580.19,550.287 580.523,547.287 581.5,544.5 Z"/></g>
<g><path style="opacity:0.094" fill="#aef2ee" d="M 223.5,547.5 C 225.067,548.681 225.901,550.347 226,552.5C 226.383,551.944 226.883,551.611 227.5,551.5C 226.478,553.544 225.478,555.544 224.5,557.5C 223.949,554.193 223.616,550.86 223.5,547.5 Z"/></g>
<g><path style="opacity:1" fill="#fe776b" d="M 580.5,553.5 C 584.757,556.251 588.59,559.584 592,563.5C 596.755,573.355 602.255,582.688 608.5,591.5C 618.741,603.575 629.908,614.909 642,625.5C 642.483,626.448 642.649,627.448 642.5,628.5C 642.158,629.338 641.492,629.672 640.5,629.5C 639.167,631.833 639.167,634.167 640.5,636.5C 641.053,653.673 641.719,670.84 642.5,688C 642.354,690.76 641.687,693.26 640.5,695.5C 639.5,695.833 638.833,696.5 638.5,697.5C 636.142,697.747 634.142,697.081 632.5,695.5C 629.691,691.959 627.524,687.959 626,683.5C 620.826,669.156 615.659,654.822 610.5,640.5C 610.938,640.565 611.272,640.399 611.5,640C 610.934,639.005 610.267,638.172 609.5,637.5C 607.447,636.31 605.113,635.643 602.5,635.5C 575.845,636.446 549.178,636.779 522.5,636.5C 523.459,633.248 524.959,630.248 527,627.5C 533.328,620.163 539.161,612.496 544.5,604.5C 547.171,602.879 549.171,600.546 550.5,597.5C 551.167,597.5 551.5,597.167 551.5,596.5C 561.676,583.648 570.676,569.981 578.5,555.5C 579.167,554.833 579.833,554.167 580.5,553.5 Z"/></g>
<g><path style="opacity:1" fill="#16c8be" d="M 196.5,590.5 C 195.713,592.104 194.38,592.771 192.5,592.5C 192.737,593.791 192.404,594.791 191.5,595.5C 184.371,600.498 176.871,602.831 169,602.5C 163.238,599.036 157.738,595.203 152.5,591C 149.246,588.253 146.58,585.086 144.5,581.5C 148.572,571.42 155.238,563.42 164.5,557.5C 165.333,567.5 166.167,577.5 167,587.5C 167.241,590.289 167.908,592.956 169,595.5C 168.102,582.875 167.602,570.209 167.5,557.5C 169.783,557.608 171.783,558.441 173.5,560C 183.365,568.673 191.032,578.84 196.5,590.5 Z"/></g>
<g><path style="opacity:1" fill="#8fc1ed" d="M 639.5,563.5 C 640.338,563.842 640.672,564.508 640.5,565.5C 636.742,570.594 632.075,574.594 626.5,577.5C 626.167,577.5 625.833,577.5 625.5,577.5C 624.833,577.5 624.5,577.167 624.5,576.5C 630.556,573.317 635.556,568.984 639.5,563.5 Z"/></g>
<g><path style="opacity:1" fill="#0a3280" d="M 640.5,565.5 C 642.664,567.822 644.331,570.489 645.5,573.5C 641.722,578.617 637.055,582.617 631.5,585.5C 630.504,585.586 629.671,585.252 629,584.5C 627.742,581.871 626.908,579.537 626.5,577.5C 632.075,574.594 636.742,570.594 640.5,565.5 Z"/></g>
<g><path style="opacity:0.196" fill="#fef0be" d="M 243.5,573.5 C 243.5,572.833 243.833,572.5 244.5,572.5C 254.833,572.5 265.167,572.5 275.5,572.5C 275.727,574.933 274.727,576.599 272.5,577.5C 272.539,576.417 272.873,575.417 273.5,574.5C 263.522,573.501 253.522,573.168 243.5,573.5 Z"/></g>
<g><path style="opacity:1" fill="#88574a" d="M 645.5,573.5 C 652.546,584.571 659.379,595.905 666,607.5C 666.759,609.063 667.926,610.063 669.5,610.5C 681.78,634.963 697.78,656.797 717.5,676C 725.857,682.364 734.191,688.698 742.5,695C 741.944,695.383 741.611,695.883 741.5,696.5C 740.167,696.5 739.5,697.167 739.5,698.5C 735.452,698.605 731.452,698.272 727.5,697.5C 726.71,696.599 725.71,695.932 724.5,695.5C 718.631,693.568 712.964,691.068 707.5,688C 698.906,686.23 690.239,684.897 681.5,684C 676.125,683.125 673.459,679.958 673.5,674.5C 675.743,668.978 675.576,663.645 673,658.5C 663.683,647.683 653.516,637.683 642.5,628.5C 642.649,627.448 642.483,626.448 642,625.5C 629.908,614.909 618.741,603.575 608.5,591.5C 611.713,591.81 614.713,591.477 617.5,590.5C 617.833,590.5 618.167,590.5 618.5,590.5C 623.43,590.193 627.763,588.527 631.5,585.5C 637.055,582.617 641.722,578.617 645.5,573.5 Z"/></g>
<g><path style="opacity:1" fill="#ff7d69" d="M 215.5,573.5 C 224.833,573.5 234.167,573.5 243.5,573.5C 253.522,573.168 263.522,573.501 273.5,574.5C 272.873,575.417 272.539,576.417 272.5,577.5C 269.908,579.036 268.908,581.369 269.5,584.5C 268.086,593.887 268.42,603.22 270.5,612.5C 270.171,615.228 270.837,617.562 272.5,619.5C 274.208,622.95 275.541,626.617 276.5,630.5C 277.171,635.506 279.171,639.839 282.5,643.5C 282.861,647.915 284.194,651.915 286.5,655.5C 287.973,662.813 287.64,670.147 285.5,677.5C 283.755,679.033 282.755,681.033 282.5,683.5C 279.75,687.311 276.75,690.978 273.5,694.5C 271.973,694.427 270.973,695.094 270.5,696.5C 270.167,696.5 269.833,696.5 269.5,696.5C 267.565,697.15 265.565,697.483 263.5,697.5C 263.5,697.167 263.5,696.833 263.5,696.5C 263.389,695.883 263.056,695.383 262.5,695C 275.362,684.088 280.195,670.255 277,653.5C 270.487,638.81 264.821,623.81 260,608.5C 258.758,601.299 258.258,594.299 258.5,587.5C 241.167,586.167 223.833,584.833 206.5,583.5C 207.5,582.5 208.5,581.5 209.5,580.5C 211.587,579.415 212.92,577.749 213.5,575.5C 214.5,575.167 215.167,574.5 215.5,573.5 Z"/></g>
<g><path style="opacity:1" fill="#a8cd73" d="M 213.5,575.5 C 212.92,577.749 211.587,579.415 209.5,580.5C 210.08,578.251 211.413,576.585 213.5,575.5 Z"/></g>
<g><path style="opacity:0.235" fill="#ffe6b1" d="M 272.5,577.5 C 271.736,580.018 270.736,582.351 269.5,584.5C 268.908,581.369 269.908,579.036 272.5,577.5 Z"/></g>
<g><path style="opacity:1" fill="#042767" d="M 625.5,577.5 C 625.833,577.5 626.167,577.5 626.5,577.5C 626.908,579.537 627.742,581.871 629,584.5C 629.671,585.252 630.504,585.586 631.5,585.5C 627.763,588.527 623.43,590.193 618.5,590.5C 616.578,588.105 615.411,585.438 615,582.5C 618.628,580.912 622.128,579.246 625.5,577.5 Z"/></g>
<g><path style="opacity:1" fill="#875749" d="M 512.5,582.5 C 520.706,593.366 531.373,600.7 544.5,604.5C 539.161,612.496 533.328,620.163 527,627.5C 524.959,630.248 523.459,633.248 522.5,636.5C 507.136,656.191 491.803,675.857 476.5,695.5C 475.596,696.209 475.263,697.209 475.5,698.5C 474.5,698.5 473.5,698.5 472.5,698.5C 471.5,698.5 470.5,698.5 469.5,698.5C 468.662,698.158 468.328,697.492 468.5,696.5C 468.018,695.584 467.685,694.584 467.5,693.5C 469.5,685.167 471.5,676.833 473.5,668.5C 471.397,661.168 471.23,653.835 473,646.5C 474.214,644.951 475.714,643.785 477.5,643C 481.423,642.207 485.256,642.374 489,643.5C 489.977,641.26 490.477,638.927 490.5,636.5C 491.167,636.5 491.5,636.167 491.5,635.5C 492.167,635.5 492.5,635.167 492.5,634.5C 496.649,622.608 500.816,610.608 505,598.5C 507.418,593.056 509.918,587.723 512.5,582.5 Z"/></g>
<g><path style="opacity:1" fill="#206aa9" d="M 581.5,542.5 C 586.985,544.807 591.818,548.14 596,552.5C 601.898,561.405 607.398,570.571 612.5,580C 616.722,579.761 620.722,578.595 624.5,576.5C 624.5,577.167 624.833,577.5 625.5,577.5C 622.128,579.246 618.628,580.912 615,582.5C 615.411,585.438 616.578,588.105 618.5,590.5C 618.167,590.5 617.833,590.5 617.5,590.5C 615.732,588.492 614.066,586.326 612.5,584C 609.833,583.667 607.167,583.333 604.5,583C 606.78,582.767 608.78,581.934 610.5,580.5C 607.412,575.325 604.579,569.992 602,564.5C 597.566,555.227 590.732,548.56 581.5,544.5C 581.5,543.833 581.5,543.167 581.5,542.5 Z"/></g>
<g><path style="opacity:1" fill="#5da5e8" d="M 516.5,572.5 C 525.901,583.709 537.568,591.709 551.5,596.5C 551.5,597.167 551.167,597.5 550.5,597.5C 536.309,593.417 524.976,585.417 516.5,573.5C 516.5,573.167 516.5,572.833 516.5,572.5 Z"/></g>
<g><path style="opacity:1" fill="#fdf7c1" d="M 206.5,583.5 C 223.833,584.833 241.167,586.167 258.5,587.5C 239.833,587.5 221.167,587.5 202.5,587.5C 203.833,586.167 205.167,584.833 206.5,583.5 Z"/></g>
<g><path style="opacity:1" fill="#ff7569" d="M 202.5,587.5 C 221.167,587.5 239.833,587.5 258.5,587.5C 258.258,594.299 258.758,601.299 260,608.5C 264.821,623.81 270.487,638.81 277,653.5C 280.195,670.255 275.362,684.088 262.5,695C 263.056,695.383 263.389,695.883 263.5,696.5C 239.164,696.667 214.831,696.5 190.5,696C 189.756,694.961 188.756,694.461 187.5,694.5C 185.833,692.167 183.833,690.167 181.5,688.5C 180.833,688.5 180.5,688.167 180.5,687.5C 180.573,685.973 179.906,684.973 178.5,684.5C 177.662,684.158 177.328,683.492 177.5,682.5C 177.34,680.847 176.674,679.514 175.5,678.5C 175.88,676.302 175.213,674.635 173.5,673.5C 172.207,667.469 172.207,661.469 173.5,655.5C 175.163,653.562 175.829,651.228 175.5,648.5C 176.931,647.22 177.598,645.553 177.5,643.5C 178.561,640.378 179.895,637.378 181.5,634.5C 183.104,633.713 183.771,632.38 183.5,630.5C 184.931,629.22 185.598,627.553 185.5,625.5C 186.931,624.22 187.598,622.553 187.5,620.5C 187.5,620.167 187.5,619.833 187.5,619.5C 189.28,618.01 189.946,616.01 189.5,613.5C 189.5,613.167 189.5,612.833 189.5,612.5C 191.118,609.829 191.785,606.829 191.5,603.5C 192.194,600.579 193.027,597.579 194,594.5C 196.328,593.336 198.162,591.67 199.5,589.5C 200.778,589.218 201.778,588.551 202.5,587.5 Z"/></g>
<g><path style="opacity:1" fill="#0f3280" d="M 516.5,573.5 C 524.976,585.417 536.309,593.417 550.5,597.5C 549.171,600.546 547.171,602.879 544.5,604.5C 531.373,600.7 520.706,593.366 512.5,582.5C 512.389,581.883 512.056,581.383 511.5,581C 512.818,578.176 514.485,575.676 516.5,573.5 Z"/></g>
<g><path style="opacity:0.412" fill="#dadd99" d="M 197.5,589.5 C 198.167,589.5 198.833,589.5 199.5,589.5C 198.162,591.67 196.328,593.336 194,594.5C 193.027,597.579 192.194,600.579 191.5,603.5C 191.5,600.833 191.5,598.167 191.5,595.5C 192.404,594.791 192.737,593.791 192.5,592.5C 194.38,592.771 195.713,592.104 196.5,590.5C 197.167,590.5 197.5,590.167 197.5,589.5 Z"/></g>
<g><path style="opacity:0.141" fill="#fff4bd" d="M 191.5,603.5 C 191.785,606.829 191.118,609.829 189.5,612.5C 189.676,609.273 190.343,606.273 191.5,603.5 Z"/></g>
<g><path style="opacity:0.11" fill="#ffd2d3" d="M 364.5,606.5 C 367.5,607.5 369.5,609.5 370.5,612.5C 368.167,610.833 366.167,608.833 364.5,606.5 Z"/></g>
<g><path style="opacity:0.078" fill="#ffc6c4" d="M 372.5,613.5 C 374.853,614.34 376.853,615.674 378.5,617.5C 375.802,617.155 373.802,615.822 372.5,613.5 Z"/></g>
<g><path style="opacity:0.741" fill="#ffd29b" d="M 270.5,612.5 C 271.612,614.599 272.279,616.933 272.5,619.5C 270.837,617.562 270.171,615.228 270.5,612.5 Z"/></g>
<g><path style="opacity:1" fill="#ffd49b" d="M 189.5,613.5 C 189.946,616.01 189.28,618.01 187.5,619.5C 187.595,617.214 188.262,615.214 189.5,613.5 Z"/></g>
<g><path style="opacity:0.302" fill="#ffecb1" d="M 187.5,620.5 C 187.598,622.553 186.931,624.22 185.5,625.5C 185.402,623.447 186.069,621.78 187.5,620.5 Z"/></g>
<g><path style="opacity:0.239" fill="#fff0b8" d="M 185.5,625.5 C 185.598,627.553 184.931,629.22 183.5,630.5C 183.402,628.447 184.069,626.78 185.5,625.5 Z"/></g>
<g><path style="opacity:1" fill="#2fa39c" d="M 411.5,628.5 C 414.15,628.958 414.65,629.958 413,631.5C 411.961,630.756 411.461,629.756 411.5,628.5 Z"/></g>
<g><path style="opacity:0.776" fill="#70cdc8" d="M 640.5,629.5 C 640.823,632.017 640.823,634.351 640.5,636.5C 639.167,634.167 639.167,631.833 640.5,629.5 Z"/></g>
<g><path style="opacity:1" fill="#959390" d="M 620.5,632.5 C 625.021,632.326 625.355,632.993 621.5,634.5C 620.702,634.043 620.369,633.376 620.5,632.5 Z"/></g>
<g><path style="opacity:0.349" fill="#fff0b5" d="M 183.5,630.5 C 183.771,632.38 183.104,633.713 181.5,634.5C 181.66,632.847 182.326,631.514 183.5,630.5 Z"/></g>
<g><path style="opacity:1" fill="#ffcb94" d="M 276.5,630.5 C 279.267,634.464 281.267,638.797 282.5,643.5C 279.171,639.839 277.171,635.506 276.5,630.5 Z"/></g>
<g><path style="opacity:0.671" fill="#69cdc7" d="M 436.5,633.5 C 436.34,635.153 435.674,636.486 434.5,637.5C 434.34,635.801 434.506,634.134 435,632.5C 435.383,633.056 435.883,633.389 436.5,633.5 Z"/></g>
<g><path style="opacity:0.506" fill="#ffb2b0" d="M 492.5,634.5 C 492.5,635.167 492.167,635.5 491.5,635.5C 490.833,635.5 490.5,635.833 490.5,636.5C 482.981,636.825 475.648,636.492 468.5,635.5C 476.542,635.736 484.542,635.403 492.5,634.5 Z"/></g>
<g><path style="opacity:0.38" fill="#83dfdb" d="M 609.5,637.5 C 610.267,638.172 610.934,639.005 611.5,640C 611.272,640.399 610.938,640.565 610.5,640.5C 609.596,639.791 609.263,638.791 609.5,637.5 Z"/></g>
<g><path style="opacity:0.271" fill="#fff1b9" d="M 177.5,643.5 C 177.598,645.553 176.931,647.22 175.5,648.5C 175.402,646.447 176.069,644.78 177.5,643.5 Z"/></g>
<g><path style="opacity:1" fill="#ffcc93" d="M 282.5,643.5 C 284.806,647.085 286.139,651.085 286.5,655.5C 284.194,651.915 282.861,647.915 282.5,643.5 Z"/></g>
<g><path style="opacity:0.557" fill="#ffe4a5" d="M 175.5,648.5 C 175.829,651.228 175.163,653.562 173.5,655.5C 173.41,652.848 174.076,650.515 175.5,648.5 Z"/></g>
<g><path style="opacity:0.604" fill="#ffe0a4" d="M 173.5,673.5 C 175.213,674.635 175.88,676.302 175.5,678.5C 174.069,677.22 173.402,675.553 173.5,673.5 Z"/></g>
<g><path style="opacity:0.62" fill="#b08ed7" d="M 304.5,678.5 C 304.5,678.167 304.5,677.833 304.5,677.5C 320.503,677.333 336.503,677.5 352.5,678C 355.115,678.612 356.781,680.112 357.5,682.5C 355.518,681.509 353.518,680.509 351.5,679.5C 335.848,678.501 320.181,678.167 304.5,678.5 Z"/></g>
<g><path style="opacity:0.318" fill="#ffe8ad" d="M 175.5,678.5 C 176.674,679.514 177.34,680.847 177.5,682.5C 175.896,681.713 175.229,680.38 175.5,678.5 Z"/></g>
<g><path style="opacity:1" fill="#9a6cd5" d="M 285.5,677.5 C 290.5,677.5 295.5,677.5 300.5,677.5C 300.62,678.586 301.287,679.253 302.5,679.5C 303.416,679.457 304.083,679.124 304.5,678.5C 320.181,678.167 335.848,678.501 351.5,679.5C 353.518,680.509 355.518,681.509 357.5,682.5C 360.587,687.962 359.587,692.628 354.5,696.5C 354.167,696.5 353.833,696.5 353.5,696.5C 325.736,697.828 298.069,697.828 270.5,696.5C 270.973,695.094 271.973,694.427 273.5,694.5C 273.389,695.117 273.056,695.617 272.5,696C 275.5,696.667 278.5,696.667 281.5,696C 284.027,693.473 286.527,690.973 289,688.5C 290.537,685.427 292.037,682.427 293.5,679.5C 288.906,678.657 285.239,679.991 282.5,683.5C 282.755,681.033 283.755,679.033 285.5,677.5 Z"/></g>
<g><path style="opacity:1" fill="#8e56ce" d="M 273.5,694.5 C 276.75,690.978 279.75,687.311 282.5,683.5C 285.239,679.991 288.906,678.657 293.5,679.5C 292.037,682.427 290.537,685.427 289,688.5C 286.527,690.973 284.027,693.473 281.5,696C 278.5,696.667 275.5,696.667 272.5,696C 273.056,695.617 273.389,695.117 273.5,694.5 Z"/></g>
<g><path style="opacity:0.063" fill="#ffebb6" d="M 178.5,684.5 C 179.906,684.973 180.573,685.973 180.5,687.5C 179.094,687.027 178.427,686.027 178.5,684.5 Z"/></g>
<g><path style="opacity:0.016" fill="#ffeab6" d="M 181.5,688.5 C 183.833,690.167 185.833,692.167 187.5,694.5C 184.5,693.5 182.5,691.5 181.5,688.5 Z"/></g>
<g><path style="opacity:1" fill="#ddaa58" d="M 187.5,694.5 C 188.756,694.461 189.756,694.961 190.5,696C 214.831,696.5 239.164,696.667 263.5,696.5C 263.5,696.833 263.5,697.167 263.5,697.5C 238.833,697.5 214.167,697.5 189.5,697.5C 189.5,696.833 189.167,696.5 188.5,696.5C 188.167,695.833 187.833,695.167 187.5,694.5 Z"/></g>
<g><path style="opacity:0.157" fill="#c5daf5" d="M 400.5,695.5 C 401.338,695.842 401.672,696.508 401.5,697.5C 385.325,697.83 369.325,697.496 353.5,696.5C 353.833,696.5 354.167,696.5 354.5,696.5C 370.009,696.83 385.342,696.496 400.5,695.5 Z"/></g>
<g><path style="opacity:0.15" fill="#b7d7f1" d="M 410.5,695.5 C 429.659,696.497 448.993,696.83 468.5,696.5C 468.328,697.492 468.662,698.158 469.5,698.5C 348.833,699.833 228.167,699.833 107.5,698.5C 134.833,698.5 162.167,698.5 189.5,698.5C 216.167,698.5 242.833,698.5 269.5,698.5C 313.5,698.5 357.5,698.5 401.5,698.5C 404.167,698.5 406.833,698.5 409.5,698.5C 409.263,697.209 409.596,696.209 410.5,695.5 Z"/></g>
<g><path style="opacity:0.18" fill="#b2d2ef" d="M 476.5,695.5 C 528.5,696.833 580.5,696.833 632.5,695.5C 634.142,697.081 636.142,697.747 638.5,697.5C 668.167,697.5 697.833,697.5 727.5,697.5C 731.452,698.272 735.452,698.605 739.5,698.5C 826.167,698.5 912.833,698.5 999.5,698.5C 999.5,698.833 999.5,699.167 999.5,699.5C 823.666,699.833 647.999,699.5 472.5,698.5C 473.5,698.5 474.5,698.5 475.5,698.5C 475.263,697.209 475.596,696.209 476.5,695.5 Z"/></g>
<g><path style="opacity:0.15" fill="#c4dbf5" d="M 640.5,695.5 C 668.5,696.833 696.5,696.833 724.5,695.5C 725.71,695.932 726.71,696.599 727.5,697.5C 697.833,697.5 668.167,697.5 638.5,697.5C 638.833,696.5 639.5,695.833 640.5,695.5 Z"/></g>
<g><path style="opacity:0.157" fill="#c4daf6" d="M 999.5,696.5 C 999.5,696.833 999.5,697.167 999.5,697.5C 924.833,697.5 850.167,697.5 775.5,697.5C 836.902,696.832 898.402,696.165 960,695.5C 973.087,696.489 986.254,696.823 999.5,696.5 Z"/></g>
<g><path style="opacity:1" fill="#8fb1db" d="M 188.5,696.5 C 189.167,696.5 189.5,696.833 189.5,697.5C 189.5,697.833 189.5,698.167 189.5,698.5C 162.167,698.5 134.833,698.5 107.5,698.5C 106.262,698.19 106.262,697.69 107.5,697C 134.498,696.5 161.498,696.333 188.5,696.5 Z"/></g>
<g><path style="opacity:1" fill="#879fa2" d="M 269.5,696.5 C 269.5,697.167 269.5,697.833 269.5,698.5C 242.833,698.5 216.167,698.5 189.5,698.5C 189.5,698.167 189.5,697.833 189.5,697.5C 214.167,697.5 238.833,697.5 263.5,697.5C 265.565,697.483 267.565,697.15 269.5,696.5 Z"/></g>
<g><path style="opacity:1" fill="#7b9fdb" d="M 269.5,696.5 C 269.833,696.5 270.167,696.5 270.5,696.5C 298.069,697.828 325.736,697.828 353.5,696.5C 369.325,697.496 385.325,697.83 401.5,697.5C 401.5,697.833 401.5,698.167 401.5,698.5C 357.5,698.5 313.5,698.5 269.5,698.5C 269.5,697.833 269.5,697.167 269.5,696.5 Z"/></g>
<g><path style="opacity:1" fill="#79a2d1" d="M 741.5,696.5 C 752.846,696.486 764.179,696.819 775.5,697.5C 850.167,697.5 924.833,697.5 999.5,697.5C 999.5,697.833 999.5,698.167 999.5,698.5C 912.833,698.5 826.167,698.5 739.5,698.5C 739.5,697.167 740.167,696.5 741.5,696.5 Z"/></g>
</svg>
