<?xml version="1.0" encoding="UTF-8"?>
<!DOCTYPE svg PUBLIC "-//W3C//DTD SVG 1.1//EN" "http://www.w3.org/Graphics/SVG/1.1/DTD/svg11.dtd">
<svg xmlns="http://www.w3.org/2000/svg" version="1.1" width="30px" height="30px" style="shape-rendering:geometricPrecision; text-rendering:geometricPrecision; image-rendering:optimizeQuality; fill-rule:evenodd; clip-rule:evenodd" xmlns:xlink="http://www.w3.org/1999/xlink">
<g><path style="opacity:0.763" fill="#fb7368" d="M 6.5,-0.5 C 9.83333,-0.5 13.1667,-0.5 16.5,-0.5C 23.2519,4.43162 24.9186,10.765 21.5,18.5C 20.8333,18.5 20.5,18.8333 20.5,19.5C 19.8333,19.5 19.5,19.8333 19.5,20.5C 18.8333,20.5 18.5,20.8333 18.5,21.5C 10.2794,25.092 3.94607,23.092 -0.5,15.5C -0.5,12.5 -0.5,9.5 -0.5,6.5C 1.5,3.83333 3.83333,1.5 6.5,-0.5 Z M 15.5,4.5 C 16.8333,4.5 17.5,5.16667 17.5,6.5C 16.5,6.16667 15.8333,5.5 15.5,4.5 Z M 9.5,8.5 C 10.5676,7.56552 11.901,7.23219 13.5,7.5C 13.7678,9.09903 13.4345,10.4324 12.5,11.5C 12.5,10.5 12.5,9.5 12.5,8.5C 11.5,8.5 10.5,8.5 9.5,8.5 Z M 9.5,8.5 C 9.55688,9.60895 9.89022,10.609 10.5,11.5C 8.44818,10.9473 8.11484,9.9473 9.5,8.5 Z M 8.5,14.5 C 8.5,15.8333 8.5,17.1667 8.5,18.5C 7.50838,18.6716 6.84171,18.3382 6.5,17.5C 7.16667,16.5 7.83333,15.5 8.5,14.5 Z M 4.5,15.5 C 5.5,15.8333 6.16667,16.5 6.5,17.5C 5.16667,17.5 4.5,16.8333 4.5,15.5 Z"/></g>
<g><path style="opacity:0.733" fill="#fb7368" d="M 8.5,3.5 C 10.1667,3.5 11.8333,3.5 13.5,3.5C 13.8417,4.33825 14.5084,4.67158 15.5,4.5C 15.8333,5.5 16.5,6.16667 17.5,6.5C 17.5,7.16667 17.8333,7.5 18.5,7.5C 18.5,9.83333 18.5,12.1667 18.5,14.5C 17.6618,14.8417 17.3284,15.5084 17.5,16.5C 16.8333,16.5 16.5,16.8333 16.5,17.5C 15.5084,17.3284 14.8417,17.6618 14.5,18.5C 12.5,18.5 10.5,18.5 8.5,18.5C 8.5,17.1667 8.5,15.8333 8.5,14.5C 7.83333,15.5 7.16667,16.5 6.5,17.5C 6.16667,16.5 5.5,15.8333 4.5,15.5C 4.67158,14.5084 4.33825,13.8417 3.5,13.5C 3.5,11.8333 3.5,10.1667 3.5,8.5C 4.33825,8.15829 4.67158,7.49162 4.5,6.5C 5.16667,6.5 5.5,6.16667 5.5,5.5C 6.16667,5.5 6.5,5.16667 6.5,4.5C 7.49162,4.67158 8.15829,4.33825 8.5,3.5 Z M 9.5,8.5 C 10.5676,7.56552 11.901,7.23219 13.5,7.5C 13.7678,9.09903 13.4345,10.4324 12.5,11.5C 12.5,10.5 12.5,9.5 12.5,8.5C 11.5,8.5 10.5,8.5 9.5,8.5 Z M 9.5,8.5 C 9.55688,9.60895 9.89022,10.609 10.5,11.5C 8.44818,10.9473 8.11484,9.9473 9.5,8.5 Z"/></g>
<g><path style="opacity:0.644" fill="#fb7468" d="M 9.5,8.5 C 10.5,8.5 11.5,8.5 12.5,8.5C 12.5,9.5 12.5,10.5 12.5,11.5C 11.8333,11.5 11.1667,11.5 10.5,11.5C 9.89022,10.609 9.55688,9.60895 9.5,8.5 Z"/></g>
<g><path style="opacity:0.873" fill="#fa7368" d="M 29.5,22.5 C 29.5,24.5 29.5,26.5 29.5,28.5C 28.8333,28.5 28.5,28.8333 28.5,29.5C 26.5,29.5 24.5,29.5 22.5,29.5C 20.9962,27.1644 18.9962,25.331 16.5,24C 17.3805,23.2917 18.0472,22.4584 18.5,21.5C 19.1667,21.5 19.5,21.1667 19.5,20.5C 20.1667,20.5 20.5,20.1667 20.5,19.5C 21.1667,19.5 21.5,19.1667 21.5,18.5C 22.1499,18.1961 22.8165,17.8627 23.5,17.5C 25.5193,19.1897 27.5193,20.8564 29.5,22.5 Z"/></g>
</svg>
