<?xml version="1.0" encoding="UTF-8"?>
<!DOCTYPE svg PUBLIC "-//W3C//DTD SVG 1.1//EN" "http://www.w3.org/Graphics/SVG/1.1/DTD/svg11.dtd">
<svg xmlns="http://www.w3.org/2000/svg" version="1.1" width="50px" height="32px" style="shape-rendering:geometricPrecision; text-rendering:geometricPrecision; image-rendering:optimizeQuality; fill-rule:evenodd; clip-rule:evenodd" xmlns:xlink="http://www.w3.org/1999/xlink">
<g><path style="opacity:0.688" fill="#fb7368" d="M 12.5,-0.5 C 20.5,-0.5 28.5,-0.5 36.5,-0.5C 38.002,1.17496 39.3353,3.0083 40.5,5C 42.8098,5.49665 45.1432,5.66331 47.5,5.5C 48.4669,10.3673 46.4669,12.534 41.5,12C 42.3333,12.8333 43.1667,13.6667 44,14.5C 44.6667,19.5 44.6667,24.5 44,29.5C 41.2053,30.7825 38.3719,30.7825 35.5,29.5C 35.1667,28.8333 34.8333,28.1667 34.5,27.5C 27.8333,26.1667 21.1667,26.1667 14.5,27.5C 13.5475,29.5116 11.8809,30.5116 9.5,30.5C 8.16667,30.3333 6.83333,30.1667 5.5,30C 4.36298,24.918 4.19631,19.7513 5,14.5C 5.83333,13.6667 6.66667,12.8333 7.5,12C 2.53315,12.534 0.533148,10.3673 1.5,5.5C 3.85684,5.66331 6.19018,5.49665 8.5,5C 9.6647,3.0083 10.998,1.17496 12.5,-0.5 Z M 13.5,2.5 C 20.8409,2.33368 28.1742,2.50034 35.5,3C 37.4771,5.04293 38.4771,7.54293 38.5,10.5C 29.1429,10.8316 19.8096,10.4983 10.5,9.5C 11.0541,6.91292 12.0541,4.57959 13.5,2.5 Z M 3.5,8.5 C 4.3864,7.2241 5.3864,7.2241 6.5,8.5C 5.76662,9.08703 4.76662,9.08703 3.5,8.5 Z M 40.5,14.5 C 37.8344,14.933 35.1677,15.433 32.5,16C 30.5063,20.1367 31.8396,21.97 36.5,21.5C 38.6934,21.6738 40.5267,21.0071 42,19.5C 42.4974,22.146 42.6641,24.8127 42.5,27.5C 40.4727,27.6621 38.4727,27.4955 36.5,27C 37.624,26.7508 38.624,26.2508 39.5,25.5C 36.9135,24.52 34.2469,24.1866 31.5,24.5C 31.5,23.5 31.5,22.5 31.5,21.5C 26.8333,21.5 22.1667,21.5 17.5,21.5C 17.5,22.5 17.5,23.5 17.5,24.5C 14.7531,24.1866 12.0865,24.52 9.5,25.5C 10.376,26.2508 11.376,26.7508 12.5,27C 10.5273,27.4955 8.5273,27.6621 6.5,27.5C 6.33537,24.4816 6.50204,21.4816 7,18.5C 7.94254,20.9544 9.77587,21.9544 12.5,21.5C 15.576,22.0507 17.576,20.884 18.5,18C 16.4663,16.0186 13.9663,14.8519 11,14.5C 9.69736,14.9783 8.53069,15.645 7.5,16.5C 7.41423,15.5041 7.74756,14.6708 8.5,14C 19.3414,13.1745 30.008,13.3412 40.5,14.5 Z"/></g>
</svg>
