<?xml version="1.0" encoding="UTF-8"?>
<!DOCTYPE svg PUBLIC "-//W3C//DTD SVG 1.1//EN" "http://www.w3.org/Graphics/SVG/1.1/DTD/svg11.dtd">
<svg xmlns="http://www.w3.org/2000/svg" version="1.1" width="200px" height="200px" style="shape-rendering:geometricPrecision; text-rendering:geometricPrecision; image-rendering:optimizeQuality; fill-rule:evenodd; clip-rule:evenodd" xmlns:xlink="http://www.w3.org/1999/xlink">
<g><path style="opacity:0.675" fill="#c2c2c3" d="M 119.5,25.5 C 112.217,24.3647 104.884,23.6981 97.5,23.5C 92.5629,23.3002 87.8962,23.9669 83.5,25.5C 80.8333,25.5 78.1667,25.5 75.5,25.5C 90.0687,20.6424 104.735,20.6424 119.5,25.5 Z"/></g>
<g><path style="opacity:1" fill="#525253" d="M 119.5,25.5 C 121.099,25.2322 122.432,25.5655 123.5,26.5C 123.833,27.1667 124.167,27.8333 124.5,28.5C 118.444,26.9228 112.277,25.9228 106,25.5C 97.7935,25.6266 97.6268,26.1266 105.5,27C 106.056,27.3826 106.389,27.8826 106.5,28.5C 104.5,28.5 102.5,28.5 100.5,28.5C 100.5,29.5 100.5,30.5 100.5,31.5C 104.514,31.3345 108.514,31.5012 112.5,32C 113.737,32.2321 114.737,32.7321 115.5,33.5C 109.696,33.4237 104.196,32.4237 99,30.5C 94.8082,32.239 90.3082,33.0723 85.5,33C 84.3774,34.0437 83.0441,34.7104 81.5,35C 83.1545,35.6077 84.8211,36.1077 86.5,36.5C 86.5,36.8333 86.5,37.1667 86.5,37.5C 83.2722,38.5456 79.9389,39.2122 76.5,39.5C 78.0188,38.5902 79.6854,37.7568 81.5,37C 81.1667,36.6667 80.8333,36.3333 80.5,36C 76.8125,35.5499 73.1458,35.7166 69.5,36.5C 77.1466,32.0573 85.4799,30.3907 94.5,31.5C 94.5,30.1667 94.5,28.8333 94.5,27.5C 92.1667,27.5 89.8333,27.5 87.5,27.5C 89.2922,26.6909 91.2922,26.1909 93.5,26C 90.1832,25.5017 86.8499,25.335 83.5,25.5C 87.8962,23.9669 92.5629,23.3002 97.5,23.5C 104.884,23.6981 112.217,24.3647 119.5,25.5 Z"/></g>
<g><path style="opacity:1" fill="#3c3b3c" d="M 75.5,25.5 C 78.1667,25.5 80.8333,25.5 83.5,25.5C 86.8499,25.335 90.1832,25.5017 93.5,26C 91.2922,26.1909 89.2922,26.6909 87.5,27.5C 72.6214,30.1018 58.9547,35.7685 46.5,44.5C 47.1925,45.5178 47.8592,46.5178 48.5,47.5C 48.5,47.8333 48.5,48.1667 48.5,48.5C 47.1434,47.3146 45.6434,46.3146 44,45.5C 42.6494,47.0182 41.1494,48.3515 39.5,49.5C 39.7438,46.7374 41.0771,44.5707 43.5,43C 49.9624,39.6681 55.9624,35.8347 61.5,31.5C 62.7095,31.0679 63.7095,30.4013 64.5,29.5C 68.533,28.9751 72.1996,27.6418 75.5,25.5 Z"/></g>
<g><path style="opacity:1" fill="#a3a3a3" d="M 75.5,25.5 C 72.1996,27.6418 68.533,28.9751 64.5,29.5C 67.7966,27.3987 71.4632,26.0653 75.5,25.5 Z"/></g>
<g><path style="opacity:0.443" fill="#d1d0d2" d="M 64.5,29.5 C 63.7095,30.4013 62.7095,31.0679 61.5,31.5C 60.8333,31.5 60.1667,31.5 59.5,31.5C 60.7804,30.0687 62.4471,29.4021 64.5,29.5 Z"/></g>
<g><path style="opacity:1" fill="#5e5e5f" d="M 124.5,28.5 C 130.042,29.9374 135.375,31.9374 140.5,34.5C 143.704,35.3833 146.371,37.0499 148.5,39.5C 149.167,40.5 149.833,41.5 150.5,42.5C 141.794,37.8151 133.127,33.1484 124.5,28.5 Z"/></g>
<g><path style="opacity:0.588" fill="#cacacb" d="M 123.5,26.5 C 129.86,27.8485 135.527,30.5151 140.5,34.5C 135.375,31.9374 130.042,29.9374 124.5,28.5C 124.167,27.8333 123.833,27.1667 123.5,26.5 Z"/></g>
<g><path style="opacity:1" fill="#7b7a7b" d="M 87.5,27.5 C 89.8333,27.5 92.1667,27.5 94.5,27.5C 94.5,28.8333 94.5,30.1667 94.5,31.5C 85.4799,30.3907 77.1466,32.0573 69.5,36.5C 64.8159,37.1963 60.8159,39.1963 57.5,42.5C 54.3388,43.9131 51.3388,45.5797 48.5,47.5C 47.8592,46.5178 47.1925,45.5178 46.5,44.5C 58.9547,35.7685 72.6214,30.1018 87.5,27.5 Z"/></g>
<g><path style="opacity:1" fill="#414041" d="M 124.5,28.5 C 133.127,33.1484 141.794,37.8151 150.5,42.5C 151.167,42.5 151.833,42.5 152.5,42.5C 152.973,43.9063 153.973,44.573 155.5,44.5C 156.08,46.7488 157.413,48.4154 159.5,49.5C 160.08,51.7488 161.413,53.4154 163.5,54.5C 163.511,56.0174 164.177,57.1841 165.5,58C 164.5,58.5 163.5,59 162.5,59.5C 161.099,57.7227 159.599,56.056 158,54.5C 156.334,55.3402 156.167,54.8402 157.5,53C 155.167,51.3333 153.167,49.3333 151.5,47C 148.128,45.8785 146.128,47.0451 145.5,50.5C 144.357,50.0919 143.357,49.4252 142.5,48.5C 143.781,48.9839 144.781,48.3173 145.5,46.5C 146.289,46.2172 146.956,45.7172 147.5,45C 140.022,40.76 132.356,36.76 124.5,33C 118.605,30.9774 112.605,29.4774 106.5,28.5C 106.389,27.8826 106.056,27.3826 105.5,27C 97.6268,26.1266 97.7935,25.6266 106,25.5C 112.277,25.9228 118.444,26.9228 124.5,28.5 Z"/></g>
<g><path style="opacity:1" fill="#757475" d="M 59.5,31.5 C 60.1667,31.5 60.8333,31.5 61.5,31.5C 55.9624,35.8347 49.9624,39.6681 43.5,43C 41.0771,44.5707 39.7438,46.7374 39.5,49.5C 38.609,48.8902 37.609,48.5569 36.5,48.5C 42.9117,41.1283 50.5784,35.4616 59.5,31.5 Z"/></g>
<g><path style="opacity:1" fill="#383839" d="M 115.5,33.5 C 116.737,35.0968 118.404,36.2635 120.5,37C 119.756,38.0386 118.756,38.5386 117.5,38.5C 115.236,37.7814 112.903,37.448 110.5,37.5C 109.833,37.5 109.167,37.5 108.5,37.5C 105.305,35.9704 101.805,35.3037 98,35.5C 94.1424,35.6792 90.3091,36.0125 86.5,36.5C 84.8211,36.1077 83.1545,35.6077 81.5,35C 83.0441,34.7104 84.3774,34.0437 85.5,33C 90.3082,33.0723 94.8082,32.239 99,30.5C 104.196,32.4237 109.696,33.4237 115.5,33.5 Z"/></g>
<g><path style="opacity:0.902" fill="#aeaeae" d="M 108.5,37.5 C 101.043,37.0797 93.71,37.0797 86.5,37.5C 86.5,37.1667 86.5,36.8333 86.5,36.5C 90.3091,36.0125 94.1424,35.6792 98,35.5C 101.805,35.3037 105.305,35.9704 108.5,37.5 Z"/></g>
<g><path style="opacity:1" fill="#89898b" d="M 106.5,28.5 C 112.605,29.4774 118.605,30.9774 124.5,33C 132.356,36.76 140.022,40.76 147.5,45C 146.956,45.7172 146.289,46.2172 145.5,46.5C 138.635,43.4813 131.968,39.9813 125.5,36C 122.071,35.4666 118.738,34.6332 115.5,33.5C 114.737,32.7321 113.737,32.2321 112.5,32C 108.514,31.5012 104.514,31.3345 100.5,31.5C 100.5,30.5 100.5,29.5 100.5,28.5C 102.5,28.5 104.5,28.5 106.5,28.5 Z"/></g>
<g><path style="opacity:0.616" fill="#bbbbbb" d="M 110.5,37.5 C 112.903,37.448 115.236,37.7814 117.5,38.5C 117.5,38.8333 117.5,39.1667 117.5,39.5C 114.933,39.2785 112.599,38.6118 110.5,37.5 Z"/></g>
<g><path style="opacity:0.051" fill="#dddcdd" d="M 148.5,39.5 C 150.404,39.7376 151.738,40.7376 152.5,42.5C 151.833,42.5 151.167,42.5 150.5,42.5C 149.833,41.5 149.167,40.5 148.5,39.5 Z"/></g>
<g><path style="opacity:1" fill="#414142" d="M 76.5,39.5 C 73.4582,39.7329 70.7916,40.7329 68.5,42.5C 65.669,44.4168 62.669,46.0834 59.5,47.5C 57.9731,47.427 56.9731,48.0937 56.5,49.5C 54.6916,49.5086 53.0249,49.0086 51.5,48C 53.7632,46.383 55.7632,44.5497 57.5,42.5C 60.8159,39.1963 64.8159,37.1963 69.5,36.5C 73.1458,35.7166 76.8125,35.5499 80.5,36C 80.8333,36.3333 81.1667,36.6667 81.5,37C 79.6854,37.7568 78.0188,38.5902 76.5,39.5 Z"/></g>
<g><path style="opacity:0.42" fill="#b9b9b9" d="M 76.5,39.5 C 74.2084,41.2671 71.5418,42.2671 68.5,42.5C 70.7916,40.7329 73.4582,39.7329 76.5,39.5 Z"/></g>
<g><path style="opacity:0.082" fill="#dad9db" d="M 152.5,42.5 C 154.027,42.427 155.027,43.0937 155.5,44.5C 153.973,44.573 152.973,43.9063 152.5,42.5 Z"/></g>
<g><path style="opacity:0.984" fill="#c4c3c5" d="M 155.5,44.5 C 157.587,45.5846 158.92,47.2512 159.5,49.5C 157.413,48.4154 156.08,46.7488 155.5,44.5 Z"/></g>
<g><path style="opacity:1" fill="#4f4e4f" d="M 115.5,33.5 C 118.738,34.6332 122.071,35.4666 125.5,36C 131.968,39.9813 138.635,43.4813 145.5,46.5C 144.781,48.3173 143.781,48.9839 142.5,48.5C 143.357,49.4252 144.357,50.0919 145.5,50.5C 148.543,51.6964 151.209,53.5297 153.5,56C 153.167,56.3333 152.833,56.6667 152.5,57C 155.774,59.4456 158.108,62.6123 159.5,66.5C 161.824,66.8773 162.491,67.8773 161.5,69.5C 162.189,72.1894 163.856,73.8561 166.5,74.5C 165.477,77.0066 166.144,79.1733 168.5,81C 167.167,84.3333 167.167,87.6667 168.5,91C 167.833,91.6667 167.167,92.3333 166.5,93C 166.47,94.4293 166.803,95.9293 167.5,97.5C 166.5,97.5 165.5,97.5 164.5,97.5C 164.629,99.2161 164.962,100.883 165.5,102.5C 164.167,101.5 162.833,100.5 161.5,99.5C 161.918,98.7784 162.584,98.2784 163.5,98C 162.464,96.3831 161.297,96.2164 160,97.5C 159.184,96.1772 158.017,95.5106 156.5,95.5C 155.694,94.2719 154.694,93.2719 153.5,92.5C 154.791,92.7373 155.791,92.404 156.5,91.5C 156.5,91.1667 156.5,90.8333 156.5,90.5C 156.833,90.5 157.167,90.5 157.5,90.5C 158.959,90.5674 160.292,90.2341 161.5,89.5C 160.826,91.0245 159.826,92.3578 158.5,93.5C 158.833,94.5 159.5,95.1667 160.5,95.5C 161.5,94.1667 162.5,94.1667 163.5,95.5C 165.687,92.4515 166.52,89.1182 166,85.5C 165.461,79.759 163.294,74.759 159.5,70.5C 158.635,69.4173 157.635,69.2506 156.5,70C 157.464,71.7255 158.131,73.5588 158.5,75.5C 156.844,73.5398 155.177,71.5398 153.5,69.5C 153.573,67.9731 152.906,66.9731 151.5,66.5C 147.572,62.1682 144.239,57.3348 141.5,52C 134.197,46.5151 126.197,42.3484 117.5,39.5C 117.5,39.1667 117.5,38.8333 117.5,38.5C 118.756,38.5386 119.756,38.0386 120.5,37C 118.404,36.2635 116.737,35.0968 115.5,33.5 Z"/></g>
<g><path style="opacity:0.051" fill="#c7c6c7" d="M 59.5,47.5 C 59.0269,48.9063 58.0269,49.573 56.5,49.5C 56.9731,48.0937 57.9731,47.427 59.5,47.5 Z"/></g>
<g><path style="opacity:1" fill="#abaaac" d="M 159.5,49.5 C 161.587,50.5846 162.92,52.2512 163.5,54.5C 161.413,53.4154 160.08,51.7488 159.5,49.5 Z"/></g>
<g><path style="opacity:0.937" fill="#ababac" d="M 36.5,48.5 C 35.9202,50.7488 34.5869,52.4154 32.5,53.5C 33.0798,51.2512 34.4131,49.5846 36.5,48.5 Z"/></g>
<g><path style="opacity:1" fill="#4e4e4f" d="M 57.5,42.5 C 55.7632,44.5497 53.7632,46.383 51.5,48C 53.0249,49.0086 54.6916,49.5086 56.5,49.5C 50.264,58.2775 43.764,66.9442 37,75.5C 34.3979,79.4738 32.8979,83.8071 32.5,88.5C 31.8365,86.9581 31.1698,85.2914 30.5,83.5C 29.4822,84.1925 28.4822,84.8592 27.5,85.5C 26.7109,85.2172 26.0442,84.7172 25.5,84C 27.0316,81.9656 28.3649,79.7989 29.5,77.5C 28.4291,75.6745 29.0958,74.5079 31.5,74C 30.4652,72.4931 30.6319,70.9931 32,69.5C 32.6667,70.8333 33.3333,70.8333 34,69.5C 32.9529,66.74 33.7863,64.5733 36.5,63C 35.552,62.5172 34.552,62.3505 33.5,62.5C 33.369,61.7611 33.5357,61.0944 34,60.5C 35.1827,61.731 36.3493,61.731 37.5,60.5C 38.0253,59.8076 38.6919,59.3076 39.5,59C 39.1667,58.6667 38.8333,58.3333 38.5,58C 42.1667,55.3333 45.8333,52.6667 49.5,50C 48.944,49.6174 48.6107,49.1174 48.5,48.5C 48.5,48.1667 48.5,47.8333 48.5,47.5C 51.3388,45.5797 54.3388,43.9131 57.5,42.5 Z"/></g>
<g><path style="opacity:1" fill="#5c5c5d" d="M 48.5,48.5 C 48.6107,49.1174 48.944,49.6174 49.5,50C 45.8333,52.6667 42.1667,55.3333 38.5,58C 38.8333,58.3333 39.1667,58.6667 39.5,59C 38.6919,59.3076 38.0253,59.8076 37.5,60.5C 36.3493,61.731 35.1827,61.731 34,60.5C 33.5357,61.0944 33.369,61.7611 33.5,62.5C 32.6618,62.1583 32.3284,61.4916 32.5,60.5C 30.9504,59.2801 29.2837,59.2801 27.5,60.5C 28.4333,57.6298 30.1,55.2964 32.5,53.5C 34.5869,52.4154 35.9202,50.7488 36.5,48.5C 37.609,48.5569 38.609,48.8902 39.5,49.5C 41.1494,48.3515 42.6494,47.0182 44,45.5C 45.6434,46.3146 47.1434,47.3146 48.5,48.5 Z"/></g>
<g><path style="opacity:1" fill="#686869" d="M 163.5,54.5 C 165.9,56.2964 167.567,58.6298 168.5,61.5C 166.692,58.8188 165.359,58.9854 164.5,62C 165.236,64.1394 166.236,66.1394 167.5,68C 165.42,69.9612 165.086,72.1278 166.5,74.5C 163.856,73.8561 162.189,72.1894 161.5,69.5C 162.491,67.8773 161.824,66.8773 159.5,66.5C 158.108,62.6123 155.774,59.4456 152.5,57C 152.833,56.6667 153.167,56.3333 153.5,56C 151.209,53.5297 148.543,51.6964 145.5,50.5C 146.128,47.0451 148.128,45.8785 151.5,47C 153.167,49.3333 155.167,51.3333 157.5,53C 156.167,54.8402 156.334,55.3402 158,54.5C 159.599,56.056 161.099,57.7227 162.5,59.5C 163.5,59 164.5,58.5 165.5,58C 164.177,57.1841 163.511,56.0174 163.5,54.5 Z"/></g>
<g><path style="opacity:0.478" fill="#dad9da" d="M 169.5,63.5 C 170.906,63.9731 171.573,64.9731 171.5,66.5C 170.094,66.0269 169.427,65.0269 169.5,63.5 Z"/></g>
<g><path style="opacity:0.035" fill="#d4d3d4" d="M 151.5,66.5 C 152.906,66.9731 153.573,67.9731 153.5,69.5C 152.094,69.0269 151.427,68.0269 151.5,66.5 Z"/></g>
<g><path style="opacity:1" fill="#4f4f50" d="M 168.5,61.5 C 169.338,61.8417 169.672,62.5084 169.5,63.5C 169.427,65.0269 170.094,66.0269 171.5,66.5C 171.5,66.8333 171.5,67.1667 171.5,67.5C 172.025,71.533 173.358,75.1996 175.5,78.5C 177.556,94.7126 176.556,110.713 172.5,126.5C 171.876,126.083 171.543,125.416 171.5,124.5C 172.686,120.239 173.353,115.906 173.5,111.5C 174.271,103.052 174.604,95.0519 174.5,87.5C 174.41,85.5749 173.41,84.4083 171.5,84C 172.167,83.6667 172.833,83.3333 173.5,83C 170.811,80.4517 168.477,77.6184 166.5,74.5C 165.086,72.1278 165.42,69.9612 167.5,68C 166.236,66.1394 165.236,64.1394 164.5,62C 165.359,58.9854 166.692,58.8188 168.5,61.5 Z"/></g>
<g><path style="opacity:1" fill="#5e5d5e" d="M 32.5,60.5 C 32.3284,61.4916 32.6618,62.1583 33.5,62.5C 34.552,62.3505 35.552,62.5172 36.5,63C 33.7863,64.5733 32.9529,66.74 34,69.5C 33.3333,70.8333 32.6667,70.8333 32,69.5C 30.6319,70.9931 30.4652,72.4931 31.5,74C 29.0958,74.5079 28.4291,75.6745 29.5,77.5C 28.3649,79.7989 27.0316,81.9656 25.5,84C 26.0442,84.7172 26.7109,85.2172 27.5,85.5C 27.5,85.8333 27.5,86.1667 27.5,86.5C 25.1231,88.0302 25.1231,89.5302 27.5,91C 23.7768,92.3651 23.7768,94.0317 27.5,96C 25.7788,97.4371 24.2788,96.9371 23,94.5C 22.3828,95.4491 22.5494,96.2825 23.5,97C 22.5838,97.3742 21.7504,97.8742 21,98.5C 20.7216,97.5842 20.2216,96.9175 19.5,96.5C 19.8356,92.7649 20.3356,88.4316 21,83.5C 23.3032,81.4719 24.1365,79.1386 23.5,76.5C 26.1067,71.6203 28.44,66.6203 30.5,61.5C 30.9569,60.7025 31.6236,60.3691 32.5,60.5 Z"/></g>
<g><path style="opacity:1" fill="#aeadae" d="M 21.5,71.5 C 20.8684,75.7024 19.8684,79.7024 18.5,83.5C 18.3082,79.0981 19.3082,75.0981 21.5,71.5 Z"/></g>
<g><path style="opacity:1" fill="#414142" d="M 32.5,60.5 C 31.6236,60.3691 30.9569,60.7025 30.5,61.5C 28.44,66.6203 26.1067,71.6203 23.5,76.5C 24.1365,79.1386 23.3032,81.4719 21,83.5C 20.3356,88.4316 19.8356,92.7649 19.5,96.5C 19.8718,98.5623 20.2052,100.229 20.5,101.5C 19.8031,103.071 19.4698,104.571 19.5,106C 21.045,110.985 21.545,115.819 21,120.5C 20.7216,119.584 20.2216,118.918 19.5,118.5C 18.6736,107.187 18.3403,95.8539 18.5,84.5C 18.5,84.1667 18.5,83.8333 18.5,83.5C 19.8684,79.7024 20.8684,75.7024 21.5,71.5C 22.7417,67.3447 24.7417,63.678 27.5,60.5C 29.2837,59.2801 30.9504,59.2801 32.5,60.5 Z"/></g>
<g><path style="opacity:0.114" fill="#f4f4f5" d="M 119.5,84.5 C 119.5,83.8333 119.167,83.5 118.5,83.5C 118.167,82.1667 117.833,82.1667 117.5,83.5C 113.966,80.9031 110.3,78.5698 106.5,76.5C 107.93,76.4208 109.264,76.7542 110.5,77.5C 118.677,72.5552 126.677,72.3885 134.5,77C 139.488,83.3862 137.988,86.5528 130,86.5C 126.31,86.6179 122.81,85.9513 119.5,84.5 Z"/></g>
<g><path style="opacity:1" fill="#aaa9ab" d="M 171.5,67.5 C 174.21,70.6004 175.543,74.267 175.5,78.5C 173.358,75.1996 172.025,71.533 171.5,67.5 Z"/></g>
<g><path style="opacity:0.117" fill="#f4f3f5" d="M 79.5,79.5 C 78.1667,79.8333 78.1667,80.1667 79.5,80.5C 79.5,80.8333 79.5,81.1667 79.5,81.5C 77.8333,82.8333 76.1667,84.1667 74.5,85.5C 74.1667,84.1667 73.8333,84.1667 73.5,85.5C 69.688,86.0264 66.0213,86.6931 62.5,87.5C 61.7611,87.631 61.0944,87.4643 60.5,87C 60.5,85 60.5,83 60.5,81C 62.3912,78.4555 64.7245,77.6222 67.5,78.5C 71.8971,74.3716 75.8971,74.705 79.5,79.5 Z"/></g>
<g><path style="opacity:1" fill="#b6b6b7" d="M 106.5,76.5 C 99.4648,76.3257 92.4648,76.6591 85.5,77.5C 92.3677,73.9951 99.3677,73.6618 106.5,76.5 Z"/></g>
<g><path style="opacity:1" fill="#3b3a3b" d="M 103.5,80.5 C 106.024,81.7399 108.691,82.9066 111.5,84C 112.381,84.7083 113.047,85.5416 113.5,86.5C 116.404,92.202 115.737,92.702 111.5,88C 109.567,87.2174 108.067,87.7174 107,89.5C 103.658,87.494 100.158,85.8273 96.5,84.5C 94.399,84.6316 92.899,85.6316 92,87.5C 91.6667,86.8333 91.3333,86.1667 91,85.5C 89.2927,86.4585 87.4594,87.1252 85.5,87.5C 83.1106,88.6022 81.2773,90.2689 80,92.5C 78.9916,92.0183 77.825,91.8516 76.5,92C 77.7736,91.0228 77.7736,90.1894 76.5,89.5C 83.6881,81.5481 92.6881,78.5481 103.5,80.5 Z"/></g>
<g><path style="opacity:1" fill="#777778" d="M 151.5,85.5 C 151.414,86.4959 151.748,87.3292 152.5,88C 151.584,88.2784 150.918,88.7784 150.5,89.5C 149.292,88.7659 147.959,88.4326 146.5,88.5C 146.167,88.5 145.833,88.5 145.5,88.5C 145.5,87.8333 145.5,87.1667 145.5,86.5C 145.938,85.4937 146.604,85.4937 147.5,86.5C 151.289,86.2627 151.289,85.5961 147.5,84.5C 147.5,84.1667 147.5,83.8333 147.5,83.5C 146.909,82.8485 146.243,82.1818 145.5,81.5C 145.833,81.1667 146.167,80.8333 146.5,80.5C 148.57,81.9029 150.237,83.5696 151.5,85.5 Z"/></g>
<g><path style="opacity:0.984" fill="#bebebf" d="M 157.5,90.5 C 157.167,90.5 156.833,90.5 156.5,90.5C 154.937,89.0552 153.604,87.3885 152.5,85.5C 152.167,85.5 151.833,85.5 151.5,85.5C 150.237,83.5696 148.57,81.9029 146.5,80.5C 146.167,80.8333 145.833,81.1667 145.5,81.5C 146.243,82.1818 146.909,82.8485 147.5,83.5C 146.167,83.8333 146.167,84.1667 147.5,84.5C 147.5,85.1667 147.5,85.8333 147.5,86.5C 146.604,85.4937 145.938,85.4937 145.5,86.5C 144.532,84.3926 144.198,82.0593 144.5,79.5C 151.577,79.9099 155.911,83.5766 157.5,90.5 Z M 147.5,84.5 C 151.289,85.5961 151.289,86.2627 147.5,86.5C 147.5,85.8333 147.5,85.1667 147.5,84.5 Z"/></g>
<g><path style="opacity:1" fill="#464546" d="M 113.5,86.5 C 117.276,88.9431 119.943,92.2764 121.5,96.5C 118.162,97.5009 114.829,98.5009 111.5,99.5C 107.532,91.7158 101.198,88.5492 92.5,90C 89.8936,90.7918 87.8936,92.2918 86.5,94.5C 85.2223,94.7822 84.2223,95.4489 83.5,96.5C 82.7611,96.631 82.0944,96.4643 81.5,96C 82.6956,95.3457 82.6956,94.8457 81.5,94.5C 80.6143,95.325 80.281,96.325 80.5,97.5C 78.8008,97.3398 77.1341,97.5065 75.5,98C 76.6956,98.6543 76.6956,99.1543 75.5,99.5C 74.7492,98.624 74.2492,97.624 74,96.5C 73.3292,97.2524 72.4959,97.5858 71.5,97.5C 72.6662,94.4968 74.3328,91.8302 76.5,89.5C 77.7736,90.1894 77.7736,91.0228 76.5,92C 77.825,91.8516 78.9916,92.0183 80,92.5C 81.2773,90.2689 83.1106,88.6022 85.5,87.5C 87.4594,87.1252 89.2927,86.4585 91,85.5C 91.3333,86.1667 91.6667,86.8333 92,87.5C 92.899,85.6316 94.399,84.6316 96.5,84.5C 100.158,85.8273 103.658,87.494 107,89.5C 108.067,87.7174 109.567,87.2174 111.5,88C 115.737,92.702 116.404,92.202 113.5,86.5 Z"/></g>
<g><path style="opacity:1" fill="#383738" d="M 106.5,76.5 C 110.3,78.5698 113.966,80.9031 117.5,83.5C 117.833,83.5 118.167,83.5 118.5,83.5C 119.167,83.5 119.5,83.8333 119.5,84.5C 121.252,86.2459 122.585,88.2459 123.5,90.5C 123.557,91.609 123.89,92.609 124.5,93.5C 125.57,97.4702 125.404,101.47 124,105.5C 123.604,102.343 122.771,99.3429 121.5,96.5C 119.943,92.2764 117.276,88.9431 113.5,86.5C 113.047,85.5416 112.381,84.7083 111.5,84C 108.691,82.9066 106.024,81.7399 103.5,80.5C 104.239,80.631 104.906,80.4643 105.5,80C 97.1154,77.5313 89.1154,78.3646 81.5,82.5C 80.8165,82.1373 80.1499,81.8039 79.5,81.5C 79.5,81.1667 79.5,80.8333 79.5,80.5C 79.5,80.1667 79.5,79.8333 79.5,79.5C 81.5,78.8333 83.5,78.1667 85.5,77.5C 92.4648,76.6591 99.4648,76.3257 106.5,76.5 Z"/></g>
<g><path style="opacity:0.035" fill="#c1c0c1" d="M 160.5,79.5 C 162.239,81.3749 163.239,83.7082 163.5,86.5C 163.547,88.0377 162.88,89.0377 161.5,89.5C 162.002,86.2572 161.669,82.9238 160.5,79.5 Z"/></g>
<g><path style="opacity:0.102" fill="#dad9da" d="M 42.5,83.5 C 43.625,84.6522 43.625,85.6522 42.5,86.5C 42.4257,88.4109 41.4257,89.5776 39.5,90C 40.1667,90.3333 40.8333,90.6667 41.5,91C 40.2506,91.7401 39.2506,91.5735 38.5,90.5C 38.5548,87.3855 39.8881,85.0522 42.5,83.5 Z"/></g>
<g><path style="opacity:1" fill="#353536" d="M 161.5,89.5 C 162.88,89.0377 163.547,88.0377 163.5,86.5C 163.239,83.7082 162.239,81.3749 160.5,79.5C 159.326,78.4863 158.66,77.153 158.5,75.5C 158.131,73.5588 157.464,71.7255 156.5,70C 157.635,69.2506 158.635,69.4173 159.5,70.5C 163.294,74.759 165.461,79.759 166,85.5C 166.52,89.1182 165.687,92.4515 163.5,95.5C 162.5,94.1667 161.5,94.1667 160.5,95.5C 159.5,95.1667 158.833,94.5 158.5,93.5C 159.826,92.3578 160.826,91.0245 161.5,89.5 Z"/></g>
<g><path style="opacity:0.361" fill="#cacaca" d="M 146.5,88.5 C 147.959,88.4326 149.292,88.7659 150.5,89.5C 152.5,90.1667 154.5,90.8333 156.5,91.5C 155.791,92.404 154.791,92.7373 153.5,92.5C 151.309,91.1314 148.975,90.1314 146.5,89.5C 146.5,89.1667 146.5,88.8333 146.5,88.5 Z"/></g>
<g><path style="opacity:0.958" fill="#89888a" d="M 48.5,83.5 C 46.8333,84.5 45.5,85.8333 44.5,87.5C 43.7326,88.172 43.0659,89.0053 42.5,90C 48.7477,89.586 55.0811,89.4194 61.5,89.5C 61.5,90.5 61.5,91.5 61.5,92.5C 55.8777,91.2625 50.211,91.2625 44.5,92.5C 44.4802,94.143 45.1468,95.4763 46.5,96.5C 44.9547,97.4519 43.288,97.7852 41.5,97.5C 40.8333,97.5 40.1667,97.5 39.5,97.5C 40.1175,95.7708 41.1175,94.2708 42.5,93C 40.8602,92.6522 39.5268,93.1522 38.5,94.5C 37.8333,94.5 37.1667,94.5 36.5,94.5C 36.4142,93.5041 36.7476,92.6708 37.5,92C 36.1667,91.6667 34.8333,91.3333 33.5,91C 32.7476,90.3292 32.4142,89.4959 32.5,88.5C 34.1417,90.0808 36.1417,90.7475 38.5,90.5C 39.2506,91.5735 40.2506,91.7401 41.5,91C 40.8333,90.6667 40.1667,90.3333 39.5,90C 41.4257,89.5776 42.4257,88.4109 42.5,86.5C 43.625,85.6522 43.625,84.6522 42.5,83.5C 42.5,82.8333 42.8333,82.5 43.5,82.5C 45.368,83.7569 47.0347,83.4236 48.5,81.5C 49.463,81.9698 49.463,82.6365 48.5,83.5 Z"/></g>
<g><path style="opacity:1" fill="#cccccd" d="M 145.5,88.5 C 145.5,88.8333 145.5,89.1667 145.5,89.5C 140.77,89.2834 136.103,89.6167 131.5,90.5C 129.54,91.1383 127.707,91.1383 126,90.5C 125.768,91.7375 125.268,92.7375 124.5,93.5C 123.89,92.609 123.557,91.609 123.5,90.5C 124.627,89.8783 125.627,89.045 126.5,88C 132.818,88.0125 139.151,88.1792 145.5,88.5 Z"/></g>
<g><path style="opacity:1" fill="#2b2a2b" d="M 151.5,85.5 C 151.833,85.5 152.167,85.5 152.5,85.5C 153.604,87.3885 154.937,89.0552 156.5,90.5C 156.5,90.8333 156.5,91.1667 156.5,91.5C 154.5,90.8333 152.5,90.1667 150.5,89.5C 150.918,88.7784 151.584,88.2784 152.5,88C 151.748,87.3292 151.414,86.4959 151.5,85.5 Z"/></g>
<g><path style="opacity:0.78" fill="#c8c7c8" d="M 62.5,88.5 C 62.5,88.1667 62.5,87.8333 62.5,87.5C 65.1873,87.3359 67.854,87.5026 70.5,88C 69.1602,90.1785 69.4935,90.6785 71.5,89.5C 69.6464,94.4211 68.6464,94.4211 68.5,89.5C 66.7354,88.5386 64.7354,88.2053 62.5,88.5 Z"/></g>
<g><path style="opacity:1" fill="#29292a" d="M 32.5,88.5 C 32.4142,89.4959 32.7476,90.3292 33.5,91C 34.8333,91.3333 36.1667,91.6667 37.5,92C 36.7476,92.6708 36.4142,93.5041 36.5,94.5C 33.4797,96.5232 31.1464,99.1898 29.5,102.5C 29.3674,100.229 30.3674,98.0619 32.5,96C 30.9474,94.9032 29.614,93.5699 28.5,92C 28.8333,91.6667 29.1667,91.3333 29.5,91C 27.9632,89.8904 27.2965,88.3904 27.5,86.5C 27.5,86.1667 27.5,85.8333 27.5,85.5C 28.4822,84.8592 29.4822,84.1925 30.5,83.5C 31.1698,85.2914 31.8365,86.9581 32.5,88.5 Z"/></g>
<g><path style="opacity:1" fill="#656566" d="M 61.5,92.5 C 62.8333,95.1667 62.8333,97.8333 61.5,100.5C 60.8333,100.5 60.1667,100.5 59.5,100.5C 54.8333,100.5 50.1667,100.5 45.5,100.5C 40.964,100.272 36.964,101.605 33.5,104.5C 32.3691,102.926 32.2025,101.259 33,99.5C 33.6708,98.7476 34.5041,98.4142 35.5,98.5C 44.7137,99.7992 52.7137,99.7992 59.5,98.5C 59.38,97.4138 58.7133,96.7472 57.5,96.5C 56.2867,96.7472 55.62,97.4138 55.5,98.5C 50.6367,98.8195 45.97,98.4861 41.5,97.5C 43.288,97.7852 44.9547,97.4519 46.5,96.5C 45.1468,95.4763 44.4802,94.143 44.5,92.5C 50.211,91.2625 55.8777,91.2625 61.5,92.5 Z"/></g>
<g><path style="opacity:0.992" fill="#b0afb1" d="M 134.5,91.5 C 140.754,90.3048 147.087,90.6381 153.5,92.5C 154.694,93.2719 155.694,94.2719 156.5,95.5C 158.017,95.5106 159.184,96.1772 160,97.5C 161.297,96.2164 162.464,96.3831 163.5,98C 162.584,98.2784 161.918,98.7784 161.5,99.5C 156.132,98.9358 150.799,98.1025 145.5,97C 146.759,96.0766 148.092,95.2432 149.5,94.5C 146.965,93.7467 144.465,94.08 142,95.5C 142.148,94.175 141.982,93.0084 141.5,92C 139.19,91.5034 136.857,91.3367 134.5,91.5 Z"/></g>
<g><path style="opacity:1" fill="#2f2f30" d="M 103.5,80.5 C 92.6881,78.5481 83.6881,81.5481 76.5,89.5C 74.3328,91.8302 72.6662,94.4968 71.5,97.5C 70.7589,100.413 70.2589,103.413 70,106.5C 69.3292,105.748 68.4959,105.414 67.5,105.5C 67.8788,100.163 66.8788,95.1632 64.5,90.5C 65.6888,89.5713 67.0222,89.238 68.5,89.5C 68.6464,94.4211 69.6464,94.4211 71.5,89.5C 71.7329,87.9382 72.3995,86.6049 73.5,85.5C 73.8333,85.5 74.1667,85.5 74.5,85.5C 76.1667,84.1667 77.8333,82.8333 79.5,81.5C 80.1499,81.8039 80.8165,82.1373 81.5,82.5C 89.1154,78.3646 97.1154,77.5313 105.5,80C 104.906,80.4643 104.239,80.631 103.5,80.5 Z"/></g>
<g><path style="opacity:0.992" fill="#908f91" d="M 145.5,89.5 C 145.833,89.5 146.167,89.5 146.5,89.5C 148.975,90.1314 151.309,91.1314 153.5,92.5C 147.087,90.6381 140.754,90.3048 134.5,91.5C 132.774,93.8201 132.107,96.4867 132.5,99.5C 131.71,98.3915 131.21,97.0581 131,95.5C 130.333,96.8333 129.667,96.8333 129,95.5C 128.452,99.1704 127.952,102.837 127.5,106.5C 127.5,106.833 127.5,107.167 127.5,107.5C 127.167,107.5 126.833,107.5 126.5,107.5C 126.5,107.167 126.5,106.833 126.5,106.5C 126.586,102.143 126.92,97.81 127.5,93.5C 128.873,93.6567 130.207,93.49 131.5,93C 132.598,92.2303 132.598,91.397 131.5,90.5C 136.103,89.6167 140.77,89.2834 145.5,89.5 Z"/></g>
<g><path style="opacity:0.443" fill="#cfcfd0" d="M 175.5,78.5 C 176.309,80.2922 176.809,82.2922 177,84.5C 177.667,93.1667 177.667,101.833 177,110.5C 176.236,116.813 174.736,122.813 172.5,128.5C 172.5,127.833 172.5,127.167 172.5,126.5C 176.556,110.713 177.556,94.7126 175.5,78.5 Z"/></g>
<g><path style="opacity:1" fill="#848485" d="M 62.5,88.5 C 64.7354,88.2053 66.7354,88.5386 68.5,89.5C 67.0222,89.238 65.6888,89.5713 64.5,90.5C 66.8788,95.1632 67.8788,100.163 67.5,105.5C 67.5,105.833 67.5,106.167 67.5,106.5C 66.6031,100.384 64.9364,94.3835 62.5,88.5 Z"/></g>
<g><path style="opacity:1" fill="#5c5b5d" d="M 134.5,91.5 C 136.857,91.3367 139.19,91.5034 141.5,92C 141.982,93.0084 142.148,94.175 142,95.5C 144.465,94.08 146.965,93.7467 149.5,94.5C 148.092,95.2432 146.759,96.0766 145.5,97C 150.799,98.1025 156.132,98.9358 161.5,99.5C 161.631,100.376 161.298,101.043 160.5,101.5C 151.038,100.858 141.705,100.191 132.5,99.5C 132.107,96.4867 132.774,93.8201 134.5,91.5 Z"/></g>
<g><path style="opacity:0.851" fill="#bbbabc" d="M 136.5,94.5 C 137.882,95.8005 139.548,96.6339 141.5,97C 138.906,98.6006 136.239,98.7673 133.5,97.5C 134.34,96.265 135.34,95.265 136.5,94.5 Z"/></g>
<g><path style="opacity:0.588" fill="#d8d7d8" d="M 59.5,98.5 C 58.1667,98.5 56.8333,98.5 55.5,98.5C 55.62,97.4138 56.2867,96.7472 57.5,96.5C 58.7133,96.7472 59.38,97.4138 59.5,98.5 Z"/></g>
<g><path style="opacity:1" fill="#1a191a" d="M 39.5,97.5 C 40.1667,97.5 40.8333,97.5 41.5,97.5C 45.97,98.4861 50.6367,98.8195 55.5,98.5C 56.8333,98.5 58.1667,98.5 59.5,98.5C 52.7137,99.7992 44.7137,99.7992 35.5,98.5C 36.7079,97.7659 38.0413,97.4326 39.5,97.5 Z"/></g>
<g><path style="opacity:1" fill="#525253" d="M 131.5,90.5 C 132.598,91.397 132.598,92.2303 131.5,93C 130.207,93.49 128.873,93.6567 127.5,93.5C 126.92,97.81 126.586,102.143 126.5,106.5C 125.265,106.721 124.265,107.388 123.5,108.5C 122.686,106.234 122.186,103.9 122,101.5C 121.028,103.305 119.861,104.972 118.5,106.5C 118.089,105.738 117.923,104.738 118,103.5C 116.518,105.781 114.851,105.781 113,103.5C 112.209,102.255 111.709,100.922 111.5,99.5C 114.829,98.5009 118.162,97.5009 121.5,96.5C 122.771,99.3429 123.604,102.343 124,105.5C 125.404,101.47 125.57,97.4702 124.5,93.5C 125.268,92.7375 125.768,91.7375 126,90.5C 127.707,91.1383 129.54,91.1383 131.5,90.5 Z"/></g>
<g><path style="opacity:0.643" fill="#c2c2c2" d="M 18.5,84.5 C 18.3403,95.8539 18.6736,107.187 19.5,118.5C 17.975,112.07 17.3083,105.404 17.5,98.5C 17.5008,93.6543 17.8341,88.9876 18.5,84.5 Z"/></g>
<g><path style="opacity:1" fill="#555556" d="M 83.5,96.5 C 81.7351,102.304 77.9017,105.971 72,107.5C 71.5065,109.134 71.3398,110.801 71.5,112.5C 70.7784,112.082 70.2784,111.416 70,110.5C 69.3292,111.252 68.4959,111.586 67.5,111.5C 67.5,109.833 67.5,108.167 67.5,106.5C 67.5,106.167 67.5,105.833 67.5,105.5C 68.4959,105.414 69.3292,105.748 70,106.5C 70.2589,103.413 70.7589,100.413 71.5,97.5C 72.4959,97.5858 73.3292,97.2524 74,96.5C 74.2492,97.624 74.7492,98.624 75.5,99.5C 76.6956,99.1543 76.6956,98.6543 75.5,98C 77.1341,97.5065 78.8008,97.3398 80.5,97.5C 80.281,96.325 80.6143,95.325 81.5,94.5C 82.6956,94.8457 82.6956,95.3457 81.5,96C 82.0944,96.4643 82.7611,96.631 83.5,96.5 Z"/></g>
<g><path style="opacity:1" fill="#626263" d="M 110.5,102.5 C 110.264,109.586 106.93,114.753 100.5,118C 97.633,118.801 94.9664,118.634 92.5,117.5C 97.8539,118.045 101.854,116.045 104.5,111.5C 105.525,111.103 105.692,110.437 105,109.5C 102.672,108.001 100.505,106.334 98.5,104.5C 98.3398,102.801 98.5065,101.134 99,99.5C 99.4828,100.448 99.6495,101.448 99.5,102.5C 101.262,102.357 102.929,102.691 104.5,103.5C 105.999,98.9511 104.333,95.9511 99.5,94.5C 98.914,94.7093 98.414,95.0426 98,95.5C 96.087,93.8131 93.9203,93.3131 91.5,94C 89.2777,96.6179 87.7777,99.4512 87,102.5C 88.3086,100.109 89.3086,100.109 90,102.5C 93.4649,102.033 95.1316,100.033 95,96.5C 95.498,99.4816 95.6646,102.482 95.5,105.5C 92.2054,107.147 88.8721,108.814 85.5,110.5C 84.1324,108.436 83.1324,106.102 82.5,103.5C 81.5713,104.689 81.238,106.022 81.5,107.5C 79.4508,107.706 79.1175,108.539 80.5,110C 76.8777,109.621 74.711,111.121 74,114.5C 73.31,113.262 72.81,113.262 72.5,114.5C 71.6618,114.158 71.3284,113.492 71.5,112.5C 71.3398,110.801 71.5065,109.134 72,107.5C 77.9017,105.971 81.7351,102.304 83.5,96.5C 84.2223,95.4489 85.2223,94.7822 86.5,94.5C 97.4525,88.5952 105.452,91.2618 110.5,102.5 Z"/></g>
<g><path style="opacity:1" fill="#484748" d="M 98.5,104.5 C 97.391,104.557 96.391,104.89 95.5,105.5C 95.6646,102.482 95.498,99.4816 95,96.5C 95.1316,100.033 93.4649,102.033 90,102.5C 89.3086,100.109 88.3086,100.109 87,102.5C 87.7777,99.4512 89.2777,96.6179 91.5,94C 93.9203,93.3131 96.087,93.8131 98,95.5C 98.414,95.0426 98.914,94.7093 99.5,94.5C 104.333,95.9511 105.999,98.9511 104.5,103.5C 102.929,102.691 101.262,102.357 99.5,102.5C 99.6495,101.448 99.4828,100.448 99,99.5C 98.5065,101.134 98.3398,102.801 98.5,104.5 Z"/></g>
<g><path style="opacity:1" fill="#656566" d="M 166.5,74.5 C 168.477,77.6184 170.811,80.4517 173.5,83C 172.833,83.3333 172.167,83.6667 171.5,84C 173.41,84.4083 174.41,85.5749 174.5,87.5C 174.604,95.0519 174.271,103.052 173.5,111.5C 172.733,110.828 172.066,109.995 171.5,109C 172.089,107.111 172.423,105.111 172.5,103C 171.347,101.117 169.681,100.284 167.5,100.5C 167.5,99.5 167.5,98.5 167.5,97.5C 166.803,95.9293 166.47,94.4293 166.5,93C 167.167,92.3333 167.833,91.6667 168.5,91C 167.167,87.6667 167.167,84.3333 168.5,81C 166.144,79.1733 165.477,77.0066 166.5,74.5 Z"/></g>
<g><path style="opacity:1" fill="#505051" d="M 27.5,86.5 C 27.2965,88.3904 27.9632,89.8904 29.5,91C 29.1667,91.3333 28.8333,91.6667 28.5,92C 29.614,93.5699 30.9474,94.9032 32.5,96C 30.3674,98.0619 29.3674,100.229 29.5,102.5C 29.5,103.833 29.5,105.167 29.5,106.5C 29.5,106.833 29.5,107.167 29.5,107.5C 29.762,108.978 29.4287,110.311 28.5,111.5C 27.3044,111.154 27.3044,110.654 28.5,110C 26.208,108.71 24.208,107.043 22.5,105C 26.3609,103.657 26.3609,102.157 22.5,100.5C 21.8165,100.863 21.1499,101.196 20.5,101.5C 20.2052,100.229 19.8718,98.5623 19.5,96.5C 20.2216,96.9175 20.7216,97.5842 21,98.5C 21.7504,97.8742 22.5838,97.3742 23.5,97C 22.5494,96.2825 22.3828,95.4491 23,94.5C 24.2788,96.9371 25.7788,97.4371 27.5,96C 23.7768,94.0317 23.7768,92.3651 27.5,91C 25.1231,89.5302 25.1231,88.0302 27.5,86.5 Z"/></g>
<g><path style="opacity:0.604" fill="#c6c6c8" d="M 39.5,97.5 C 38.0413,97.4326 36.7079,97.7659 35.5,98.5C 34.5041,98.4142 33.6708,98.7476 33,99.5C 32.2025,101.259 32.3691,102.926 33.5,104.5C 36.964,101.605 40.964,100.272 45.5,100.5C 47.9344,101.131 50.2677,102.131 52.5,103.5C 52.6309,104.376 52.2975,105.043 51.5,105.5C 49.5,102.833 47.5,102.833 45.5,105.5C 43.2244,104.798 40.8911,104.965 38.5,106C 40.8098,106.497 43.1432,106.663 45.5,106.5C 46.9187,107.451 48.5853,107.784 50.5,107.5C 53.6797,106.189 54.6797,106.189 53.5,107.5C 52.1805,108.942 50.5138,109.608 48.5,109.5C 47.6043,108.494 46.9377,108.494 46.5,109.5C 45.0331,108.708 43.6998,108.708 42.5,109.5C 43.6888,110.429 45.0222,110.762 46.5,110.5C 47.1667,110.5 47.5,110.833 47.5,111.5C 43.6836,112.482 39.6836,113.149 35.5,113.5C 34.2921,112.766 32.9587,112.433 31.5,112.5C 30.8902,111.609 30.5569,110.609 30.5,109.5C 31.8333,108.833 31.8333,108.167 30.5,107.5C 30.5,106.833 30.1667,106.5 29.5,106.5C 29.5,105.167 29.5,103.833 29.5,102.5C 31.1464,99.1898 33.4797,96.5232 36.5,94.5C 37.1667,94.5 37.8333,94.5 38.5,94.5C 39.5268,93.1522 40.8602,92.6522 42.5,93C 41.1175,94.2708 40.1175,95.7708 39.5,97.5 Z M 37.5,108.5 C 38.2891,108.783 38.9558,109.283 39.5,110C 37.8333,110.667 36.1667,110.667 34.5,110C 35.7375,109.768 36.7375,109.268 37.5,108.5 Z"/></g>
<g><path style="opacity:0.502" fill="#dfdfe0" d="M 45.5,100.5 C 50.1667,100.5 54.8333,100.5 59.5,100.5C 57.1107,102.603 57.7774,103.937 61.5,104.5C 60.9395,107.275 59.2729,109.108 56.5,110C 57.4158,110.278 58.0825,110.778 58.5,111.5C 54.8333,111.5 51.1667,111.5 47.5,111.5C 47.5,110.833 47.1667,110.5 46.5,110.5C 46.5,110.167 46.5,109.833 46.5,109.5C 46.9377,108.494 47.6043,108.494 48.5,109.5C 50.6282,110.629 52.9615,110.796 55.5,110C 54.6195,109.292 53.9528,108.458 53.5,107.5C 54.6797,106.189 53.6797,106.189 50.5,107.5C 49.0813,106.549 47.4147,106.216 45.5,106.5C 43.1432,106.663 40.8098,106.497 38.5,106C 40.8911,104.965 43.2244,104.798 45.5,105.5C 47.5,102.833 49.5,102.833 51.5,105.5C 52.2975,105.043 52.6309,104.376 52.5,103.5C 50.2677,102.131 47.9344,101.131 45.5,100.5 Z"/></g>
<g><path style="opacity:0.656" fill="#d9d8da" d="M 132.5,99.5 C 141.705,100.191 151.038,100.858 160.5,101.5C 161.298,101.043 161.631,100.376 161.5,99.5C 162.833,100.5 164.167,101.5 165.5,102.5C 165.795,104.735 165.461,106.735 164.5,108.5C 164.213,111.484 162.546,112.817 159.5,112.5C 150.838,112.928 142.171,113.262 133.5,113.5C 133.611,112.883 133.944,112.383 134.5,112C 142.167,111.667 149.833,111.333 157.5,111C 161.709,110.206 162.375,108.372 159.5,105.5C 158.833,106.5 158.167,107.5 157.5,108.5C 155.5,107.833 153.5,107.167 151.5,106.5C 150.702,106.957 150.369,107.624 150.5,108.5C 147.609,109.403 144.609,109.736 141.5,109.5C 141.5,108.5 141.5,107.5 141.5,106.5C 138.692,106.693 136.025,107.36 133.5,108.5C 132.84,103.86 134.507,102.527 138.5,104.5C 140.615,103.921 142.615,103.088 144.5,102C 142.833,101.333 141.167,101.333 139.5,102C 140.706,103.018 140.373,103.518 138.5,103.5C 136.354,102.106 134.021,101.44 131.5,101.5C 131.66,103.199 131.494,104.866 131,106.5C 130.014,105.829 128.847,105.829 127.5,106.5C 127.952,102.837 128.452,99.1704 129,95.5C 129.667,96.8333 130.333,96.8333 131,95.5C 131.21,97.0581 131.71,98.3915 132.5,99.5 Z M 146.5,105.5 C 147.289,105.783 147.956,106.283 148.5,107C 146.833,107.667 145.167,107.667 143.5,107C 144.737,106.768 145.737,106.268 146.5,105.5 Z M 149.5,103.5 C 149.56,102.957 149.893,102.624 150.5,102.5C 152.115,103.154 153.782,103.654 155.5,104C 153.402,104.678 151.402,104.511 149.5,103.5 Z"/></g>
<g><path style="opacity:1" fill="#5f5e5f" d="M 167.5,97.5 C 167.5,98.5 167.5,99.5 167.5,100.5C 169.681,100.284 171.347,101.117 172.5,103C 172.423,105.111 172.089,107.111 171.5,109C 172.066,109.995 172.733,110.828 173.5,111.5C 173.353,115.906 172.686,120.239 171.5,124.5C 171.543,125.416 171.876,126.083 172.5,126.5C 172.5,127.167 172.5,127.833 172.5,128.5C 172.5,128.833 172.5,129.167 172.5,129.5C 171.442,130.6 170.608,131.934 170,133.5C 169.892,129.823 169.892,126.157 170,122.5C 168.373,120.688 166.873,120.521 165.5,122C 166.627,123.057 167.127,124.223 167,125.5C 166.333,124.167 165.667,124.167 165,125.5C 163.531,129.477 161.365,132.81 158.5,135.5C 160.661,130.686 162.661,125.852 164.5,121C 164.604,118.855 163.937,117.021 162.5,115.5C 162.709,114.914 163.043,114.414 163.5,114C 162.207,113.51 160.873,113.343 159.5,113.5C 159.5,113.167 159.5,112.833 159.5,112.5C 162.546,112.817 164.213,111.484 164.5,108.5C 165.461,106.735 165.795,104.735 165.5,102.5C 164.962,100.883 164.629,99.2161 164.5,97.5C 165.5,97.5 166.5,97.5 167.5,97.5 Z"/></g>
<g><path style="opacity:0.294" fill="#f3f2f3" d="M 150.5,108.5 C 152.199,108.34 153.866,108.506 155.5,109C 153.415,111.139 151.749,110.972 150.5,108.5 Z"/></g>
<g><path style="opacity:1" fill="#656566" d="M 29.5,107.5 C 29.8333,107.5 30.1667,107.5 30.5,107.5C 30.5,108.167 30.5,108.833 30.5,109.5C 30.5569,110.609 30.8902,111.609 31.5,112.5C 31.458,113.479 31.458,114.479 31.5,115.5C 30.1861,114.687 29.0195,113.687 28,112.5C 27.2496,113.126 26.4162,113.626 25.5,114C 25.5,115.333 25.5,116.667 25.5,118C 26.1667,118.333 26.8333,118.667 27.5,119C 26.1667,119.667 26.1667,120.333 27.5,121C 26.8333,121.333 26.1667,121.667 25.5,122C 27.2067,128.521 30.2067,134.688 34.5,140.5C 34.0269,141.906 33.0269,142.573 31.5,142.5C 29.1006,137.481 26.6006,132.481 24,127.5C 23.6667,125.5 23.3333,123.5 23,121.5C 22.502,124.482 22.3354,127.482 22.5,130.5C 20.7547,126.8 19.7547,122.8 19.5,118.5C 20.2216,118.918 20.7216,119.584 21,120.5C 21.545,115.819 21.045,110.985 19.5,106C 19.4698,104.571 19.8031,103.071 20.5,101.5C 21.1499,101.196 21.8165,100.863 22.5,100.5C 26.3609,102.157 26.3609,103.657 22.5,105C 24.208,107.043 26.208,108.71 28.5,110C 27.3044,110.654 27.3044,111.154 28.5,111.5C 29.4287,110.311 29.762,108.978 29.5,107.5 Z"/></g>
<g><path style="opacity:1" fill="#6b6b6c" d="M 111.5,99.5 C 111.709,100.922 112.209,102.255 113,103.5C 114.851,105.781 116.518,105.781 118,103.5C 117.923,104.738 118.089,105.738 118.5,106.5C 119.861,104.972 121.028,103.305 122,101.5C 122.186,103.9 122.686,106.234 123.5,108.5C 124.265,107.388 125.265,106.721 126.5,106.5C 126.5,106.833 126.5,107.167 126.5,107.5C 126.802,110.059 126.468,112.393 125.5,114.5C 125.778,112.654 125.111,111.32 123.5,110.5C 122.675,112.36 121.675,114.026 120.5,115.5C 119.671,114.668 118.838,115.001 118,116.5C 117.612,115.572 116.945,114.905 116,114.5C 114.007,116.333 111.673,117.666 109,118.5C 108.691,116.609 109.525,115.275 111.5,114.5C 110.767,113.913 109.767,113.913 108.5,114.5C 111.33,110.851 111.997,106.851 110.5,102.5C 105.452,91.2618 97.4525,88.5952 86.5,94.5C 87.8936,92.2918 89.8936,90.7918 92.5,90C 101.198,88.5492 107.532,91.7158 111.5,99.5 Z"/></g>
<g><path style="opacity:1" fill="#c8c7c9" d="M 64.5,113.5 C 66.3786,113.393 66.7119,113.893 65.5,115C 64.1667,115.333 62.8333,115.667 61.5,116C 63.1932,116.847 64.8599,117.68 66.5,118.5C 66.8333,118.5 67.1667,118.5 67.5,118.5C 68.1098,119.391 68.4431,120.391 68.5,121.5C 58.6846,117.149 48.3513,115.483 37.5,116.5C 37.2178,115.222 36.5511,114.222 35.5,113.5C 39.6836,113.149 43.6836,112.482 47.5,111.5C 51.1667,111.5 54.8333,111.5 58.5,111.5C 59.7206,110.972 60.8873,110.305 62,109.5C 62.6082,111.066 63.4415,112.4 64.5,113.5 Z"/></g>
<g><path style="opacity:1" fill="#bdbdbf" d="M 126.5,107.5 C 126.833,107.5 127.167,107.5 127.5,107.5C 127.754,110.014 128.587,112.348 130,114.5C 131.011,113.663 132.178,113.33 133.5,113.5C 142.171,113.262 150.838,112.928 159.5,112.5C 159.5,112.833 159.5,113.167 159.5,113.5C 159.119,114.931 158.119,115.764 156.5,116C 157.056,116.383 157.389,116.883 157.5,117.5C 148.774,117.161 140.107,117.661 131.5,119C 130.058,119.377 129.058,120.21 128.5,121.5C 127.833,121.5 127.5,121.833 127.5,122.5C 126.833,122.5 126.5,122.833 126.5,123.5C 125.5,123.833 124.833,124.5 124.5,125.5C 123.599,126.29 122.932,127.29 122.5,128.5C 121.833,128.5 121.5,128.833 121.5,129.5C 120.5,129.833 119.833,130.5 119.5,131.5C 119.167,131.5 118.833,131.5 118.5,131.5C 117.833,131.5 117.5,131.833 117.5,132.5C 116.596,133.209 116.263,134.209 116.5,135.5C 115.262,140.409 114.762,145.409 115,150.5C 115.383,149.944 115.883,149.611 116.5,149.5C 115.833,150.833 115.167,152.167 114.5,153.5C 113.883,153.389 113.383,153.056 113,152.5C 112.768,153.737 112.268,154.737 111.5,155.5C 111.5,150.833 111.5,146.167 111.5,141.5C 111.927,138.99 112.593,136.657 113.5,134.5C 114.644,135.183 114.644,134.849 113.5,133.5C 111.688,133.771 110.022,134.438 108.5,135.5C 109.348,137.409 109.682,139.409 109.5,141.5C 109.167,141.5 108.833,141.5 108.5,141.5C 108.441,139.278 107.275,138.278 105,138.5C 98.9208,140.049 93.0875,139.716 87.5,137.5C 87.1583,136.662 86.4916,136.328 85.5,136.5C 84.6935,135.272 83.6935,134.272 82.5,133.5C 82.5,133.167 82.5,132.833 82.5,132.5C 89.6392,136.777 96.9725,137.444 104.5,134.5C 112.384,133.276 118.384,129.276 122.5,122.5C 123.883,120.022 124.883,117.355 125.5,114.5C 126.468,112.393 126.802,110.059 126.5,107.5 Z"/></g>
<g><path style="opacity:0.302" fill="#d7d6d7" d="M 62.5,88.5 C 64.9364,94.3835 66.6031,100.384 67.5,106.5C 67.5,108.167 67.5,109.833 67.5,111.5C 68.9805,120.985 73.9805,127.985 82.5,132.5C 82.5,132.833 82.5,133.167 82.5,133.5C 80.9519,133.821 80.2852,134.821 80.5,136.5C 78.7195,140.727 77.8862,145.394 78,150.5C 77.6174,149.944 77.1174,149.611 76.5,149.5C 76.5,149.167 76.5,148.833 76.5,148.5C 77.8157,142.987 77.8157,137.32 76.5,131.5C 75.4822,130.807 74.4822,130.141 73.5,129.5C 73.5,128.833 73.1667,128.5 72.5,128.5C 72.5,127.833 72.1667,127.5 71.5,127.5C 71.0679,126.29 70.4013,125.29 69.5,124.5C 69.5,123.833 69.1667,123.5 68.5,123.5C 68.5,122.833 68.5,122.167 68.5,121.5C 68.4431,120.391 68.1098,119.391 67.5,118.5C 67.1667,117.167 66.8333,117.167 66.5,118.5C 64.8599,117.68 63.1932,116.847 61.5,116C 62.8333,115.667 64.1667,115.333 65.5,115C 66.7119,113.893 66.3786,113.393 64.5,113.5C 64.8551,109.923 63.8551,106.923 61.5,104.5C 61.5,103.167 61.5,101.833 61.5,100.5C 62.8333,97.8333 62.8333,95.1667 61.5,92.5C 61.5,91.5 61.5,90.5 61.5,89.5C 55.0811,89.4194 48.7477,89.586 42.5,90C 43.0659,89.0053 43.7326,88.172 44.5,87.5C 48.1512,87.7708 49.4846,86.4374 48.5,83.5C 49.463,82.6365 49.463,81.9698 48.5,81.5C 47.0347,83.4236 45.368,83.7569 43.5,82.5C 46.0508,79.3567 49.0508,78.8567 52.5,81C 51.8333,83.3333 51.1667,85.6667 50.5,88C 54.4862,88.4988 58.4862,88.6655 62.5,88.5 Z"/></g>
<g><path style="opacity:1" fill="#7c7c7d" d="M 81.5,107.5 C 82.2175,112.87 84.8842,116.87 89.5,119.5C 87.5165,119.383 85.8498,120.05 84.5,121.5C 85.8919,122.645 87.5586,123.478 89.5,124C 87.8542,125.555 87.5209,127.221 88.5,129C 87.9056,129.464 87.2389,129.631 86.5,129.5C 79.4016,126.736 74.7349,121.736 72.5,114.5C 72.81,113.262 73.31,113.262 74,114.5C 74.711,111.121 76.8777,109.621 80.5,110C 79.1175,108.539 79.4508,107.706 81.5,107.5 Z"/></g>
<g><path style="opacity:1" fill="#3e3e3f" d="M 110.5,102.5 C 111.997,106.851 111.33,110.851 108.5,114.5C 106.704,115.793 105.037,117.293 103.5,119C 101.26,119.977 98.9267,120.477 96.5,120.5C 94.0971,120.552 91.7638,120.219 89.5,119.5C 84.8842,116.87 82.2175,112.87 81.5,107.5C 81.238,106.022 81.5713,104.689 82.5,103.5C 83.1324,106.102 84.1324,108.436 85.5,110.5C 86.0798,112.749 87.4131,114.415 89.5,115.5C 90.2905,116.401 91.2905,117.068 92.5,117.5C 94.9664,118.634 97.633,118.801 100.5,118C 106.93,114.753 110.264,109.586 110.5,102.5 Z"/></g>
<g><path style="opacity:1" fill="#676667" d="M 104.5,111.5 C 101.854,116.045 97.8539,118.045 92.5,117.5C 91.2905,117.068 90.2905,116.401 89.5,115.5C 89.9382,115.565 90.2716,115.399 90.5,115C 89.5,114 88.5,113 87.5,112C 90.2211,109.973 93.2211,108.473 96.5,107.5C 99.2585,108.879 101.925,110.213 104.5,111.5 Z"/></g>
<g><path style="opacity:0.39" fill="#d0d0d1" d="M 98.5,104.5 C 100.505,106.334 102.672,108.001 105,109.5C 105.692,110.437 105.525,111.103 104.5,111.5C 101.925,110.213 99.2585,108.879 96.5,107.5C 93.2211,108.473 90.2211,109.973 87.5,112C 88.5,113 89.5,114 90.5,115C 90.2716,115.399 89.9382,115.565 89.5,115.5C 87.4131,114.415 86.0798,112.749 85.5,110.5C 88.8721,108.814 92.2054,107.147 95.5,105.5C 96.391,104.89 97.391,104.557 98.5,104.5 Z"/></g>
<g><path style="opacity:1" fill="#747475" d="M 120.5,115.5 C 118.26,120.407 114.927,124.407 110.5,127.5C 108.701,125.85 106.868,124.183 105,122.5C 102.092,123.285 99.2582,123.619 96.5,123.5C 95.4376,122.575 95.4376,121.575 96.5,120.5C 98.9267,120.477 101.26,119.977 103.5,119C 105.037,117.293 106.704,115.793 108.5,114.5C 109.767,113.913 110.767,113.913 111.5,114.5C 109.525,115.275 108.691,116.609 109,118.5C 111.673,117.666 114.007,116.333 116,114.5C 116.945,114.905 117.612,115.572 118,116.5C 118.838,115.001 119.671,114.668 120.5,115.5 Z"/></g>
<g><path style="opacity:0.022" fill="#fbfafc" d="M 126.5,123.5 C 127.167,123.5 127.5,123.167 127.5,122.5C 128.167,122.5 128.5,122.167 128.5,121.5C 133.989,119.374 136.655,121.04 136.5,126.5C 133.283,129.927 129.617,132.593 125.5,134.5C 125.323,130.766 125.656,127.099 126.5,123.5 Z"/></g>
<g><path style="opacity:1" fill="#302f30" d="M 159.5,113.5 C 160.873,113.343 162.207,113.51 163.5,114C 163.043,114.414 162.709,114.914 162.5,115.5C 163.937,117.021 164.604,118.855 164.5,121C 162.661,125.852 160.661,130.686 158.5,135.5C 157.634,137.144 157.134,138.811 157,140.5C 159.167,142 161.333,143.5 163.5,145C 162.874,145.75 162.374,146.584 162,147.5C 161.768,146.263 161.268,145.263 160.5,144.5C 158.932,143.527 157.265,143.36 155.5,144C 152.13,147.035 149.13,150.368 146.5,154C 141.906,157.448 137.24,160.615 132.5,163.5C 128.072,163.799 123.739,164.465 119.5,165.5C 119.5,165.167 119.5,164.833 119.5,164.5C 119.674,162.139 120.007,159.806 120.5,157.5C 124.042,157.813 127.375,157.479 130.5,156.5C 131.791,156.737 132.791,156.404 133.5,155.5C 135.368,154.737 137.035,153.737 138.5,152.5C 140.749,151.92 142.415,150.587 143.5,148.5C 143.5,147.833 143.833,147.5 144.5,147.5C 146.914,146.089 148.581,144.089 149.5,141.5C 151.262,140.738 152.262,139.404 152.5,137.5C 152.66,135.847 153.326,134.514 154.5,133.5C 156.913,132.32 157.913,130.32 157.5,127.5C 158.117,127.389 158.617,127.056 159,126.5C 159.167,125 159.333,123.5 159.5,122C 159.431,120.014 158.765,118.514 157.5,117.5C 157.389,116.883 157.056,116.383 156.5,116C 158.119,115.764 159.119,114.931 159.5,113.5 Z"/></g>
<g><path style="opacity:0.118" fill="#c4c4c5" d="M 157.5,117.5 C 158.765,118.514 159.431,120.014 159.5,122C 159.333,123.5 159.167,125 159,126.5C 158.617,127.056 158.117,127.389 157.5,127.5C 158.628,124.115 158.628,120.781 157.5,117.5 Z"/></g>
<g><path style="opacity:0.021" fill="#faf9fb" d="M 68.5,123.5 C 69.1667,123.5 69.5,123.833 69.5,124.5C 69.2743,129.562 69.6076,134.562 70.5,139.5C 69.8333,139.5 69.5,139.833 69.5,140.5C 68.1147,139.386 66.6147,138.386 65,137.5C 64.5,138 64,138.5 63.5,139C 65.2872,140.319 67.2872,141.152 69.5,141.5C 68.2347,142.479 66.9014,143.479 65.5,144.5C 64.7425,143.189 63.7425,142.689 62.5,143C 61.3595,143.741 61.3595,144.575 62.5,145.5C 61.011,145.533 59.6776,146.033 58.5,147C 58.8333,147.333 59.1667,147.667 59.5,148C 58.695,149.113 58.0283,150.279 57.5,151.5C 56.3797,147.983 56.3797,144.316 57.5,140.5C 60.0842,140.431 62.0842,139.265 63.5,137C 62.3774,135.956 61.0441,135.29 59.5,135C 59.3232,132.45 59.6566,130.117 60.5,128C 58.3143,127.396 58.1476,126.23 60,124.5C 62.6377,121.21 65.471,120.877 68.5,123.5 Z"/></g>
<g><path style="opacity:1" fill="#717172" d="M 89.5,119.5 C 91.7638,120.219 94.0971,120.552 96.5,120.5C 95.4376,121.575 95.4376,122.575 96.5,123.5C 99.2582,123.619 102.092,123.285 105,122.5C 106.868,124.183 108.701,125.85 110.5,127.5C 108.574,128.486 106.574,129.486 104.5,130.5C 98.3118,131.997 92.3118,131.663 86.5,129.5C 87.2389,129.631 87.9056,129.464 88.5,129C 87.5209,127.221 87.8542,125.555 89.5,124C 87.5586,123.478 85.8919,122.645 84.5,121.5C 85.8498,120.05 87.5165,119.383 89.5,119.5 Z"/></g>
<g><path style="opacity:1" fill="#4c4c4d" d="M 31.5,112.5 C 32.9587,112.433 34.2921,112.766 35.5,113.5C 36.5511,114.222 37.2178,115.222 37.5,116.5C 36.2702,118.297 35.6036,120.297 35.5,122.5C 34.5655,121.432 34.2322,120.099 34.5,118.5C 33.1779,118.67 32.0113,118.337 31,117.5C 30.8333,118.167 30.6667,118.833 30.5,119.5C 31.9558,126.371 34.2891,132.871 37.5,139C 36.7562,140.039 35.7562,140.539 34.5,140.5C 30.2067,134.688 27.2067,128.521 25.5,122C 26.1667,121.667 26.8333,121.333 27.5,121C 26.1667,120.333 26.1667,119.667 27.5,119C 26.8333,118.667 26.1667,118.333 25.5,118C 25.5,116.667 25.5,115.333 25.5,114C 26.4162,113.626 27.2496,113.126 28,112.5C 29.0195,113.687 30.1861,114.687 31.5,115.5C 31.458,114.479 31.458,113.479 31.5,112.5 Z"/></g>
<g><path style="opacity:1" fill="#3e3e3f" d="M 125.5,114.5 C 124.883,117.355 123.883,120.022 122.5,122.5C 118.384,129.276 112.384,133.276 104.5,134.5C 105.833,133.167 105.833,131.833 104.5,130.5C 106.574,129.486 108.574,128.486 110.5,127.5C 114.927,124.407 118.26,120.407 120.5,115.5C 121.675,114.026 122.675,112.36 123.5,110.5C 125.111,111.32 125.778,112.654 125.5,114.5 Z"/></g>
<g><path style="opacity:1" fill="#5e5d5e" d="M 35.5,122.5 C 37.0086,125.678 38.342,129.011 39.5,132.5C 37.8868,132.056 36.7202,131.056 36,129.5C 35.5034,127.19 35.3367,124.857 35.5,122.5 Z"/></g>
<g><path style="opacity:1" fill="#7e7e7f" d="M 157.5,127.5 C 157.913,130.32 156.913,132.32 154.5,133.5C 154.992,131.181 155.992,129.181 157.5,127.5 Z"/></g>
<g><path style="opacity:1" fill="#2b2b2c" d="M 35.5,122.5 C 35.3367,124.857 35.5034,127.19 36,129.5C 36.7202,131.056 37.8868,132.056 39.5,132.5C 40.3382,132.842 40.6716,133.508 40.5,134.5C 40.1616,137.325 41.1616,139.492 43.5,141C 40.3304,141.221 37.3304,142.055 34.5,143.5C 34.1667,143.5 33.8333,143.5 33.5,143.5C 32.7321,144.263 32.2321,145.263 32,146.5C 30.6658,145.122 30.4991,143.789 31.5,142.5C 33.0269,142.573 34.0269,141.906 34.5,140.5C 35.7562,140.539 36.7562,140.039 37.5,139C 34.2891,132.871 31.9558,126.371 30.5,119.5C 30.6667,118.833 30.8333,118.167 31,117.5C 32.0113,118.337 33.1779,118.67 34.5,118.5C 34.2322,120.099 34.5655,121.432 35.5,122.5 Z"/></g>
<g><path style="opacity:1" fill="#404041" d="M 71.5,112.5 C 71.3284,113.492 71.6618,114.158 72.5,114.5C 74.7349,121.736 79.4016,126.736 86.5,129.5C 92.3118,131.663 98.3118,131.997 104.5,130.5C 105.833,131.833 105.833,133.167 104.5,134.5C 96.9725,137.444 89.6392,136.777 82.5,132.5C 73.9805,127.985 68.9805,120.985 67.5,111.5C 68.4959,111.586 69.3292,111.252 70,110.5C 70.2784,111.416 70.7784,112.082 71.5,112.5 Z"/></g>
<g><path style="opacity:1" fill="#6a6a6b" d="M 172.5,129.5 C 170.237,138.407 165.903,146.074 159.5,152.5C 158.542,152.953 157.708,153.619 157,154.5C 156.5,153.5 156,152.5 155.5,151.5C 157.431,149.284 159.098,146.951 160.5,144.5C 161.268,145.263 161.768,146.263 162,147.5C 162.374,146.584 162.874,145.75 163.5,145C 161.333,143.5 159.167,142 157,140.5C 157.134,138.811 157.634,137.144 158.5,135.5C 161.365,132.81 163.531,129.477 165,125.5C 165.667,124.167 166.333,124.167 167,125.5C 167.127,124.223 166.627,123.057 165.5,122C 166.873,120.521 168.373,120.688 170,122.5C 169.892,126.157 169.892,129.823 170,133.5C 170.608,131.934 171.442,130.6 172.5,129.5 Z"/></g>
<g><path style="opacity:0.498" fill="#c0c0c1" d="M 24.5,135.5 C 26.0075,137.181 27.0075,139.181 27.5,141.5C 25.461,140.089 24.461,138.089 24.5,135.5 Z"/></g>
<g><path style="opacity:1" fill="#2f2e30" d="M 113.5,133.5 C 113.5,133.833 113.5,134.167 113.5,134.5C 112.593,136.657 111.927,138.99 111.5,141.5C 110.71,142.609 110.21,143.942 110,145.5C 109.51,144.207 109.343,142.873 109.5,141.5C 109.682,139.409 109.348,137.409 108.5,135.5C 110.022,134.438 111.688,133.771 113.5,133.5 Z"/></g>
<g><path style="opacity:0.169" fill="#f1f0f2" d="M 124.5,125.5 C 123.822,132.879 122.822,140.212 121.5,147.5C 121.167,147.5 120.833,147.5 120.5,147.5C 120.649,146.448 120.483,145.448 120,144.5C 118.198,145.789 117.031,147.456 116.5,149.5C 115.883,149.611 115.383,149.944 115,150.5C 114.762,145.409 115.262,140.409 116.5,135.5C 117.404,134.791 117.737,133.791 117.5,132.5C 117.5,131.833 117.833,131.5 118.5,131.5C 118.833,132.833 119.167,132.833 119.5,131.5C 119.833,130.5 120.5,129.833 121.5,129.5C 122.167,129.5 122.5,129.167 122.5,128.5C 122.932,127.29 123.599,126.29 124.5,125.5 Z"/></g>
<g><path style="opacity:1" fill="#c1c0c1" d="M 152.5,137.5 C 152.262,139.404 151.262,140.738 149.5,141.5C 149.738,139.596 150.738,138.262 152.5,137.5 Z"/></g>
<g><path style="opacity:1" fill="#282728" d="M 82.5,133.5 C 83.6935,134.272 84.6935,135.272 85.5,136.5C 84.9331,140.497 84.0998,144.497 83,148.5C 82.9251,144.248 82.0918,140.248 80.5,136.5C 80.2852,134.821 80.9519,133.821 82.5,133.5 Z"/></g>
<g><path style="opacity:0.121" fill="#f0eff1" d="M 85.5,136.5 C 86.4916,136.328 87.1583,136.662 87.5,137.5C 86.0905,140.178 86.2572,142.844 88,145.5C 89.4097,142.472 91.9097,141.138 95.5,141.5C 98.7062,141.347 101.706,142.014 104.5,143.5C 106.102,142.45 106.935,143.117 107,145.5C 107.21,143.942 107.71,142.609 108.5,141.5C 109.1,145.516 108.1,149.016 105.5,152C 99.8333,152.667 94.1667,152.667 88.5,152C 87.6195,151.292 86.9528,150.458 86.5,149.5C 85.564,145.265 85.2307,140.931 85.5,136.5 Z"/></g>
<g><path style="opacity:0.11" fill="#ededee" d="M 71.5,127.5 C 72.1667,127.5 72.5,127.833 72.5,128.5C 73.1667,128.5 73.5,128.833 73.5,129.5C 74.4822,130.141 75.4822,130.807 76.5,131.5C 77.8157,137.32 77.8157,142.987 76.5,148.5C 75.8783,147.373 75.045,146.373 74,145.5C 74.2188,150.485 74.2188,155.485 74,160.5C 73.79,158.942 73.29,157.609 72.5,156.5C 67.3077,156.909 62.3077,156.242 57.5,154.5C 57.5,154.167 57.5,153.833 57.5,153.5C 58.8333,153.167 58.8333,152.833 57.5,152.5C 57.5,152.167 57.5,151.833 57.5,151.5C 58.0283,150.279 58.695,149.113 59.5,148C 59.1667,147.667 58.8333,147.333 58.5,147C 59.6776,146.033 61.011,145.533 62.5,145.5C 61.3595,144.575 61.3595,143.741 62.5,143C 63.7425,142.689 64.7425,143.189 65.5,144.5C 66.9014,143.479 68.2347,142.479 69.5,141.5C 69.5,141.167 69.5,140.833 69.5,140.5C 69.5,139.833 69.8333,139.5 70.5,139.5C 71.095,135.799 71.4283,131.799 71.5,127.5 Z M 70.5,143.5 C 70.56,142.957 70.8933,142.624 71.5,142.5C 72.6309,144.074 72.7975,145.741 72,147.5C 71.79,145.942 71.29,144.609 70.5,143.5 Z"/></g>
<g><path style="opacity:0.126" fill="#f6f5f6" d="M 139.5,150.5 C 138.833,150.5 138.5,150.833 138.5,151.5C 137.167,151.833 137.167,152.167 138.5,152.5C 137.035,153.737 135.368,154.737 133.5,155.5C 132.761,155.631 132.094,155.464 131.5,155C 133.002,154.417 134.335,153.584 135.5,152.5C 134.159,149.185 131.826,147.685 128.5,148C 125.898,148.977 123.398,150.144 121,151.5C 120.517,150.552 120.351,149.552 120.5,148.5C 121.167,148.5 121.5,148.167 121.5,147.5C 125.912,142.46 131.079,141.46 137,144.5C 137.414,144.043 137.914,143.709 138.5,143.5C 138.251,145.63 138.585,147.963 139.5,150.5 Z"/></g>
<g><path style="opacity:0.82" fill="#a8a7a8" d="M 149.5,141.5 C 148.581,144.089 146.914,146.089 144.5,147.5C 145.419,144.911 147.086,142.911 149.5,141.5 Z"/></g>
<g><path style="opacity:1" fill="#707070" d="M 160.5,144.5 C 159.098,146.951 157.431,149.284 155.5,151.5C 156,152.5 156.5,153.5 157,154.5C 157.708,153.619 158.542,152.953 159.5,152.5C 156.833,157.167 153.167,160.833 148.5,163.5C 147.305,163.322 146.138,162.989 145,162.5C 143.189,163.424 143.355,164.257 145.5,165C 143.044,165.946 141.044,165.446 139.5,163.5C 145.533,161.616 149.7,157.95 152,152.5C 146.602,155.451 141.435,158.784 136.5,162.5C 135.264,163.246 133.93,163.579 132.5,163.5C 137.24,160.615 141.906,157.448 146.5,154C 149.13,150.368 152.13,147.035 155.5,144C 157.265,143.36 158.932,143.527 160.5,144.5 Z"/></g>
<g><path style="opacity:1" fill="#5c5c5c" d="M 31.5,142.5 C 30.4991,143.789 30.6658,145.122 32,146.5C 32.2321,145.263 32.7321,144.263 33.5,143.5C 34.5,145.5 35.5,147.5 36.5,149.5C 39.7955,154.161 43.1288,158.828 46.5,163.5C 42.5644,161.234 39.2311,158.234 36.5,154.5C 36.573,152.973 35.9063,151.973 34.5,151.5C 33.2058,150.71 32.0391,149.71 31,148.5C 30.0112,146.03 28.8446,143.697 27.5,141.5C 27.0075,139.181 26.0075,137.181 24.5,135.5C 23.0687,134.22 22.4021,132.553 22.5,130.5C 22.3354,127.482 22.502,124.482 23,121.5C 23.3333,123.5 23.6667,125.5 24,127.5C 26.6006,132.481 29.1006,137.481 31.5,142.5 Z"/></g>
<g><path style="opacity:0.91" fill="#a3a2a3" d="M 143.5,148.5 C 142.415,150.587 140.749,151.92 138.5,152.5C 138.5,152.167 138.5,151.833 138.5,151.5C 139.167,151.5 139.5,151.167 139.5,150.5C 140.605,149.4 141.938,148.733 143.5,148.5 Z"/></g>
<g><path style="opacity:1" fill="#434344" d="M 40.5,134.5 C 44.7806,141.781 50.4473,147.781 57.5,152.5C 57.5,152.833 57.5,153.167 57.5,153.5C 57.5,153.833 57.5,154.167 57.5,154.5C 56.1974,156.757 56.864,158.59 59.5,160C 63.402,161.249 67.402,162.082 71.5,162.5C 71.5,163.5 71.5,164.5 71.5,165.5C 67.7337,164.715 63.9003,164.048 60,163.5C 55.8184,160.438 51.3184,157.938 46.5,156C 43.7272,153.617 41.5605,150.783 40,147.5C 38.549,145.536 36.7157,144.203 34.5,143.5C 37.3304,142.055 40.3304,141.221 43.5,141C 41.1616,139.492 40.1616,137.325 40.5,134.5 Z"/></g>
<g><path style="opacity:0.102" fill="#cececf" d="M 34.5,151.5 C 35.9063,151.973 36.573,152.973 36.5,154.5C 35.0937,154.027 34.427,153.027 34.5,151.5 Z"/></g>
<g><path style="opacity:1" fill="#7a7a7a" d="M 148.5,163.5 C 146.704,165.9 144.37,167.567 141.5,168.5C 142.679,166.493 142.179,166.16 140,167.5C 139.481,166.484 138.647,165.818 137.5,165.5C 132.17,167.662 126.67,168.996 121,169.5C 120.251,168.365 120.417,167.365 121.5,166.5C 125.366,165.811 129.032,164.811 132.5,163.5C 133.93,163.579 135.264,163.246 136.5,162.5C 141.435,158.784 146.602,155.451 152,152.5C 149.7,157.95 145.533,161.616 139.5,163.5C 141.044,165.446 143.044,165.946 145.5,165C 143.355,164.257 143.189,163.424 145,162.5C 146.138,162.989 147.305,163.322 148.5,163.5 Z"/></g>
<g><path style="opacity:1" fill="#cacacc" d="M 87.5,155.5 C 86.0837,153.821 84.7503,152.154 83.5,150.5C 83.8333,150.5 84.1667,150.5 84.5,150.5C 84.5,151.167 84.8333,151.5 85.5,151.5C 86.6828,152.504 88.0161,153.338 89.5,154C 94.5,154.667 99.5,154.667 104.5,154C 106.552,153.07 108.052,151.57 109,149.5C 109.561,152.298 108.394,154.131 105.5,155C 99.5092,155.499 93.5092,155.666 87.5,155.5 Z"/></g>
<g><path style="opacity:1" fill="#6e6e6f" d="M 108.5,141.5 C 108.833,141.5 109.167,141.5 109.5,141.5C 109.343,142.873 109.51,144.207 110,145.5C 110.21,143.942 110.71,142.609 111.5,141.5C 111.5,146.167 111.5,150.833 111.5,155.5C 111.606,158.079 110.939,160.412 109.5,162.5C 108.504,162.586 107.671,162.252 107,161.5C 106.727,159.671 105.893,158.171 104.5,157C 98.6518,156.827 92.9851,156.327 87.5,155.5C 93.5092,155.666 99.5092,155.499 105.5,155C 108.394,154.131 109.561,152.298 109,149.5C 108.052,151.57 106.552,153.07 104.5,154C 99.5,154.667 94.5,154.667 89.5,154C 88.0161,153.338 86.6828,152.504 85.5,151.5C 85.5,151.167 85.5,150.833 85.5,150.5C 85.5,149.833 85.8333,149.5 86.5,149.5C 86.9528,150.458 87.6195,151.292 88.5,152C 94.1667,152.667 99.8333,152.667 105.5,152C 108.1,149.016 109.1,145.516 108.5,141.5 Z"/></g>
<g><path style="opacity:0.957" fill="#dfdee1" d="M 120.5,147.5 C 120.5,147.833 120.5,148.167 120.5,148.5C 120.351,149.552 120.517,150.552 121,151.5C 123.398,150.144 125.898,148.977 128.5,148C 131.826,147.685 134.159,149.185 135.5,152.5C 134.335,153.584 133.002,154.417 131.5,155C 132.094,155.464 132.761,155.631 133.5,155.5C 132.791,156.404 131.791,156.737 130.5,156.5C 126.486,156.666 122.486,156.499 118.5,156C 119.337,154.989 119.67,153.822 119.5,152.5C 119.216,150.585 119.549,148.919 120.5,147.5 Z"/></g>
<g><path style="opacity:0.329" fill="#e0dfe1" d="M 82.5,160.5 C 82.2852,162.179 82.9519,163.179 84.5,163.5C 84.5,164.167 84.5,164.833 84.5,165.5C 83.5041,165.586 82.6708,165.252 82,164.5C 81.0266,162.608 80.3599,160.608 80,158.5C 79.7216,159.416 79.2216,160.082 78.5,160.5C 78.5,157.5 78.5,154.5 78.5,151.5C 79.1174,151.389 79.6174,151.056 80,150.5C 80.738,153.991 81.5713,157.325 82.5,160.5 Z"/></g>
<g><path style="opacity:0.886" fill="#9c9c9d" d="M 119.5,152.5 C 119.67,153.822 119.337,154.989 118.5,156C 122.486,156.499 126.486,156.666 130.5,156.5C 127.375,157.479 124.042,157.813 120.5,157.5C 120.007,159.806 119.674,162.139 119.5,164.5C 118.167,164.5 116.833,164.5 115.5,164.5C 115.5,163.5 115.5,162.5 115.5,161.5C 116.833,158.5 118.167,155.5 119.5,152.5 Z"/></g>
<g><path style="opacity:1" fill="#6d6c6e" d="M 120.5,147.5 C 119.549,148.919 119.216,150.585 119.5,152.5C 118.167,155.5 116.833,158.5 115.5,161.5C 114.735,158.904 114.401,156.237 114.5,153.5C 115.167,152.167 115.833,150.833 116.5,149.5C 117.031,147.456 118.198,145.789 120,144.5C 120.483,145.448 120.649,146.448 120.5,147.5 Z"/></g>
<g><path style="opacity:1" fill="#a1a1a3" d="M 80.5,136.5 C 82.0918,140.248 82.9251,144.248 83,148.5C 84.0998,144.497 84.9331,140.497 85.5,136.5C 85.2307,140.931 85.564,145.265 86.5,149.5C 85.8333,149.5 85.5,149.833 85.5,150.5C 85.1667,150.5 84.8333,150.5 84.5,150.5C 84.1667,149.167 83.8333,149.167 83.5,150.5C 84.7503,152.154 86.0837,153.821 87.5,155.5C 92.9851,156.327 98.6518,156.827 104.5,157C 105.893,158.171 106.727,159.671 107,161.5C 107.671,162.252 108.504,162.586 109.5,162.5C 109.082,163.222 108.416,163.722 107.5,164C 100.167,164.333 92.8333,164.667 85.5,165C 86.056,165.383 86.3893,165.883 86.5,166.5C 85.8333,166.5 85.5,166.833 85.5,167.5C 85.5,168.167 85.5,168.833 85.5,169.5C 85.5,170.833 85.5,172.167 85.5,173.5C 92.5,173.5 99.5,173.5 106.5,173.5C 106.5,173.833 106.5,174.167 106.5,174.5C 98.7572,175.13 91.4238,174.463 84.5,172.5C 84.5,171.833 84.5,171.167 84.5,170.5C 84.5,168.833 84.5,167.167 84.5,165.5C 84.5,164.833 84.5,164.167 84.5,163.5C 91.5,163.5 98.5,163.5 105.5,163.5C 105.5,162.5 105.5,161.5 105.5,160.5C 99.2424,160.19 93.0758,160.524 87,161.5C 86.2193,155.499 84.7193,155.166 82.5,160.5C 81.5713,157.325 80.738,153.991 80,150.5C 79.6174,151.056 79.1174,151.389 78.5,151.5C 77.1667,151.5 76.5,150.833 76.5,149.5C 77.1174,149.611 77.6174,149.944 78,150.5C 77.8862,145.394 78.7195,140.727 80.5,136.5 Z"/></g>
<g><path style="opacity:1" fill="#5f5f60" d="M 84.5,163.5 C 82.9519,163.179 82.2852,162.179 82.5,160.5C 84.7193,155.166 86.2193,155.499 87,161.5C 93.0758,160.524 99.2424,160.19 105.5,160.5C 105.5,161.5 105.5,162.5 105.5,163.5C 98.5,163.5 91.5,163.5 84.5,163.5 Z"/></g>
<g><path style="opacity:1" fill="#89898a" d="M 33.5,143.5 C 33.8333,143.5 34.1667,143.5 34.5,143.5C 36.7157,144.203 38.549,145.536 40,147.5C 41.5605,150.783 43.7272,153.617 46.5,156C 51.3184,157.938 55.8184,160.438 60,163.5C 63.9003,164.048 67.7337,164.715 71.5,165.5C 71.5,166.5 71.5,167.5 71.5,168.5C 64.434,168.201 57.7673,166.368 51.5,163C 46.3308,158.663 41.3308,154.163 36.5,149.5C 35.5,147.5 34.5,145.5 33.5,143.5 Z"/></g>
<g><path style="opacity:0.051" fill="#e4e4e5" d="M 78.5,160.5 C 79.1667,164.5 77.5,166.167 73.5,165.5C 73.8212,163.952 74.8212,163.285 76.5,163.5C 76.2852,161.821 76.9519,160.821 78.5,160.5 Z"/></g>
<g><path style="opacity:1" fill="#575758" d="M 76.5,148.5 C 76.5,148.833 76.5,149.167 76.5,149.5C 76.5,150.833 77.1667,151.5 78.5,151.5C 78.5,154.5 78.5,157.5 78.5,160.5C 76.9519,160.821 76.2852,161.821 76.5,163.5C 74.8212,163.285 73.8212,163.952 73.5,165.5C 73.5,165.833 73.5,166.167 73.5,166.5C 73.2606,168.467 73.5939,170.301 74.5,172C 69.0812,172.48 63.7479,171.98 58.5,170.5C 56.597,170.204 54.9303,169.537 53.5,168.5C 53.0269,167.094 52.0269,166.427 50.5,166.5C 48.5956,166.262 47.2623,165.262 46.5,163.5C 43.1288,158.828 39.7955,154.161 36.5,149.5C 41.3308,154.163 46.3308,158.663 51.5,163C 57.7673,166.368 64.434,168.201 71.5,168.5C 71.5,167.5 71.5,166.5 71.5,165.5C 72.4767,162.713 72.81,159.713 72.5,156.5C 73.29,157.609 73.79,158.942 74,160.5C 74.2188,155.485 74.2188,150.485 74,145.5C 75.045,146.373 75.8783,147.373 76.5,148.5 Z"/></g>
<g><path style="opacity:1" fill="#282728" d="M 57.5,154.5 C 62.3077,156.242 67.3077,156.909 72.5,156.5C 72.81,159.713 72.4767,162.713 71.5,165.5C 71.5,164.5 71.5,163.5 71.5,162.5C 67.402,162.082 63.402,161.249 59.5,160C 56.864,158.59 56.1974,156.757 57.5,154.5 Z"/></g>
<g><path style="opacity:0.482" fill="#ddddde" d="M 114.5,153.5 C 114.401,156.237 114.735,158.904 115.5,161.5C 115.5,162.5 115.5,163.5 115.5,164.5C 116.833,164.5 118.167,164.5 119.5,164.5C 119.5,164.833 119.5,165.167 119.5,165.5C 119.672,166.492 119.338,167.158 118.5,167.5C 118.631,166.761 118.464,166.094 118,165.5C 115.045,165.678 111.879,165.678 108.5,165.5C 108.338,167.527 108.505,169.527 109,171.5C 111.667,170.167 114.333,170.167 117,171.5C 117.232,170.263 117.732,169.263 118.5,168.5C 118.5,170.167 118.5,171.833 118.5,173.5C 120.5,173.5 122.5,173.5 124.5,173.5C 118.628,173.707 112.628,174.04 106.5,174.5C 106.5,174.167 106.5,173.833 106.5,173.5C 107.468,171.393 107.802,169.059 107.5,166.5C 100.5,166.5 93.5,166.5 86.5,166.5C 86.3893,165.883 86.056,165.383 85.5,165C 92.8333,164.667 100.167,164.333 107.5,164C 108.416,163.722 109.082,163.222 109.5,162.5C 110.939,160.412 111.606,158.079 111.5,155.5C 112.268,154.737 112.768,153.737 113,152.5C 113.383,153.056 113.883,153.389 114.5,153.5 Z"/></g>
<g><path style="opacity:1" fill="#5e5e5f" d="M 132.5,163.5 C 129.032,164.811 125.366,165.811 121.5,166.5C 120.417,167.365 120.251,168.365 121,169.5C 126.67,168.996 132.17,167.662 137.5,165.5C 138.647,165.818 139.481,166.484 140,167.5C 142.179,166.16 142.679,166.493 141.5,168.5C 141.158,169.338 140.492,169.672 139.5,169.5C 136.458,169.733 133.792,170.733 131.5,172.5C 129.283,173.369 126.95,173.702 124.5,173.5C 122.5,173.5 120.5,173.5 118.5,173.5C 118.5,171.833 118.5,170.167 118.5,168.5C 118.5,168.167 118.5,167.833 118.5,167.5C 119.338,167.158 119.672,166.492 119.5,165.5C 123.739,164.465 128.072,163.799 132.5,163.5 Z"/></g>
<g><path style="opacity:0.443" fill="#d3d2d4" d="M 50.5,166.5 C 52.0269,166.427 53.0269,167.094 53.5,168.5C 51.9731,168.573 50.9731,167.906 50.5,166.5 Z"/></g>
<g><path style="opacity:1" fill="#727172" d="M 85.5,167.5 C 113.5,168.167 113.5,168.833 85.5,169.5C 85.5,168.833 85.5,168.167 85.5,167.5 Z"/></g>
<g><path style="opacity:0.168" fill="#ddddde" d="M 73.5,166.5 C 74.4345,167.568 74.7678,168.901 74.5,170.5C 77.8333,170.5 81.1667,170.5 84.5,170.5C 84.5,171.167 84.5,171.833 84.5,172.5C 81.6634,172.565 78.8301,172.565 76,172.5C 74.9148,173.293 73.7481,173.96 72.5,174.5C 67.554,173.767 62.8873,172.434 58.5,170.5C 63.7479,171.98 69.0812,172.48 74.5,172C 73.5939,170.301 73.2606,168.467 73.5,166.5 Z"/></g>
<g><path style="opacity:1" fill="#4c4b4c" d="M 85.5,167.5 C 85.5,166.833 85.8333,166.5 86.5,166.5C 93.5,166.5 100.5,166.5 107.5,166.5C 107.802,169.059 107.468,171.393 106.5,173.5C 99.5,173.5 92.5,173.5 85.5,173.5C 85.5,172.167 85.5,170.833 85.5,169.5C 113.5,168.833 113.5,168.167 85.5,167.5 Z"/></g>
<g><path style="opacity:0.267" fill="#dbdadb" d="M 139.5,169.5 C 137.208,171.267 134.542,172.267 131.5,172.5C 133.792,170.733 136.458,169.733 139.5,169.5 Z"/></g>
</svg>
