<?xml version="1.0" encoding="UTF-8"?>
<!DOCTYPE svg PUBLIC "-//W3C//DTD SVG 1.1//EN" "http://www.w3.org/Graphics/SVG/1.1/DTD/svg11.dtd">
<svg xmlns="http://www.w3.org/2000/svg" version="1.1" width="663px" height="608px" style="shape-rendering:geometricPrecision; text-rendering:geometricPrecision; image-rendering:optimizeQuality; fill-rule:evenodd; clip-rule:evenodd" xmlns:xlink="http://www.w3.org/1999/xlink">
<g><path style="opacity:0.999" fill="#fb7469" d="M 502.5,64.5 C 503.035,66.4456 504.368,67.4456 506.5,67.5C 507.167,67.5 507.5,67.8333 507.5,68.5C 594.096,141.063 629.929,233.729 615,346.5C 595.419,445.217 540.586,516.717 450.5,561C 360.773,599.376 272.773,595.876 186.5,550.5C 186.027,549.094 185.027,548.427 183.5,548.5C 90.4869,491.036 42.1535,407.202 38.5,297C 43.1762,182.113 95.1762,96.4466 194.5,40C 270.702,2.26997 349.035,-2.73003 429.5,25C 455.684,35.0862 480.017,48.2529 502.5,64.5 Z"/></g>
<g><path style="opacity:0.471" fill="#a08487" d="M 502.5,64.5 C 504.23,65.0256 505.564,66.0256 506.5,67.5C 504.368,67.4456 503.035,66.4456 502.5,64.5 Z"/></g>
<g><path style="opacity:0.997" fill="#124c66" d="M 507.5,68.5 C 569.278,111.626 608.445,170.293 625,244.5C 644.93,355.377 613.763,448.877 531.5,525C 450.788,590.92 359.788,610.586 258.5,584C 232.723,576.273 208.723,565.107 186.5,550.5C 272.773,595.876 360.773,599.376 450.5,561C 540.586,516.717 595.419,445.217 615,346.5C 629.929,233.729 594.096,141.063 507.5,68.5 Z"/></g>
<g><path style="opacity:1" fill="#004762" d="M 366.5,172.5 C 366.5,266.833 366.5,361.167 366.5,455.5C 357.5,455.5 348.5,455.5 339.5,455.5C 336.833,455.5 334.167,455.5 331.5,455.5C 331.5,375.167 331.5,294.833 331.5,214.5C 331.5,210.167 331.5,205.833 331.5,201.5C 309.396,214.725 287.729,228.725 266.5,243.5C 263.943,245.032 261.443,246.699 259,248.5C 258.179,236.258 258.346,224.091 259.5,212C 283.167,196.333 306.833,180.667 330.5,165C 342.495,164.5 354.495,164.333 366.5,164.5C 366.5,167.167 366.5,169.833 366.5,172.5 Z"/></g>
<g><path style="opacity:1" fill="#fff0f0" d="M 366.5,172.5 C 369.167,172.5 371.833,172.5 374.5,172.5C 374.5,269.5 374.5,366.5 374.5,463.5C 362.833,463.5 351.167,463.5 339.5,463.5C 339.5,460.833 339.5,458.167 339.5,455.5C 348.5,455.5 357.5,455.5 366.5,455.5C 366.5,361.167 366.5,266.833 366.5,172.5 Z"/></g>
<g><path style="opacity:1" fill="#fbeded" d="M 331.5,214.5 C 309.801,228.106 288.301,242.106 267,256.5C 266.501,252.179 266.334,247.846 266.5,243.5C 287.729,228.725 309.396,214.725 331.5,201.5C 331.5,205.833 331.5,210.167 331.5,214.5 Z"/></g>
<g><path style="opacity:0.455" fill="#6e6e79" d="M 183.5,548.5 C 185.027,548.427 186.027,549.094 186.5,550.5C 184.973,550.573 183.973,549.906 183.5,548.5 Z"/></g>
</svg>
