<?xml version="1.0" encoding="UTF-8"?>
<!DOCTYPE svg PUBLIC "-//W3C//DTD SVG 1.1//EN" "http://www.w3.org/Graphics/SVG/1.1/DTD/svg11.dtd">
<svg xmlns="http://www.w3.org/2000/svg" version="1.1" width="661px" height="630px" style="shape-rendering:geometricPrecision; text-rendering:geometricPrecision; image-rendering:optimizeQuality; fill-rule:evenodd; clip-rule:evenodd" xmlns:xlink="http://www.w3.org/1999/xlink">
<g><path style="opacity:0.999" fill="#fb7469" d="M 544.5,113.5 C 545.757,116.427 547.757,118.761 550.5,120.5C 619.07,208.589 634.903,305.589 598,411.5C 561.105,499.727 496.939,557.894 405.5,586C 307.95,610.128 219.95,591.294 141.5,529.5C 139.761,526.757 137.427,524.757 134.5,523.5C 53.5969,446.949 23.4302,353.615 44,243.5C 71.3712,136.594 137.205,65.094 241.5,29C 347.479,0.255389 441.812,21.5887 524.5,93C 531.369,99.7018 538.036,106.535 544.5,113.5 Z"/></g>
<g><path style="opacity:0.522" fill="#84838b" d="M 544.5,113.5 C 547.243,115.239 549.243,117.573 550.5,120.5C 547.757,118.761 545.757,116.427 544.5,113.5 Z"/></g>
<g><path style="opacity:1" fill="#034762" d="M 409.5,174.5 C 422.476,192.407 427.309,212.407 424,234.5C 421.714,248.022 417.047,260.689 410,272.5C 403.065,283.368 395.398,293.702 387,303.5C 356.701,336.801 326.034,369.801 295,402.5C 294.517,403.448 294.351,404.448 294.5,405.5C 299.167,405.5 303.833,405.5 308.5,405.5C 349.167,405.5 389.833,405.5 430.5,405.5C 430.5,408.167 430.5,410.833 430.5,413.5C 430.5,421.167 430.5,428.833 430.5,436.5C 371.833,436.5 313.167,436.5 254.5,436.5C 251.833,436.5 249.167,436.5 246.5,436.5C 246.334,427.827 246.5,419.16 247,410.5C 289.74,364.43 331.74,317.764 373,270.5C 384.981,256.393 391.148,240.059 391.5,221.5C 391.991,209.635 388.324,199.302 380.5,190.5C 372.71,181.932 363.044,176.432 351.5,174C 326.558,168.092 306.058,174.925 290,194.5C 283.585,204.579 280.751,215.579 281.5,227.5C 272.833,227.5 264.167,227.5 255.5,227.5C 252.833,227.5 250.167,227.5 247.5,227.5C 248.951,185.55 269.618,158.05 309.5,145C 341.637,136.908 370.97,142.575 397.5,162C 401.731,166.062 405.731,170.229 409.5,174.5 Z"/></g>
<g><path style="opacity:0.996" fill="#154e67" d="M 550.5,120.5 C 600.213,175.258 625.213,239.925 625.5,314.5C 623.032,414.615 581.698,494.115 501.5,553C 419.271,607.113 331.271,618.78 237.5,588C 201.398,574.803 169.398,555.303 141.5,529.5C 219.95,591.294 307.95,610.128 405.5,586C 496.939,557.894 561.105,499.727 598,411.5C 634.903,305.589 619.07,208.589 550.5,120.5 Z"/></g>
<g><path style="opacity:1" fill="#fceded" d="M 380.5,190.5 C 361.823,179.885 342.156,177.718 321.5,184C 299.554,194.041 288.888,211.208 289.5,235.5C 278.167,235.5 266.833,235.5 255.5,235.5C 255.5,232.833 255.5,230.167 255.5,227.5C 264.167,227.5 272.833,227.5 281.5,227.5C 280.751,215.579 283.585,204.579 290,194.5C 306.058,174.925 326.558,168.092 351.5,174C 363.044,176.432 372.71,181.932 380.5,190.5 Z"/></g>
<g><path style="opacity:1" fill="#fceded" d="M 409.5,174.5 C 428.448,193.178 435.948,215.845 432,242.5C 429.713,256.025 425.047,268.692 418,280.5C 411.065,291.368 403.398,301.702 395,311.5C 366.329,343.004 337.496,374.337 308.5,405.5C 303.833,405.5 299.167,405.5 294.5,405.5C 294.351,404.448 294.517,403.448 295,402.5C 326.034,369.801 356.701,336.801 387,303.5C 395.398,293.702 403.065,283.368 410,272.5C 417.047,260.689 421.714,248.022 424,234.5C 427.309,212.407 422.476,192.407 409.5,174.5 Z"/></g>
<g><path style="opacity:1" fill="#ffefef" d="M 430.5,413.5 C 433.167,413.5 435.833,413.5 438.5,413.5C 438.5,423.833 438.5,434.167 438.5,444.5C 377.167,444.5 315.833,444.5 254.5,444.5C 254.5,441.833 254.5,439.167 254.5,436.5C 313.167,436.5 371.833,436.5 430.5,436.5C 430.5,428.833 430.5,421.167 430.5,413.5 Z"/></g>
<g><path style="opacity:0.522" fill="#80858e" d="M 134.5,523.5 C 137.427,524.757 139.761,526.757 141.5,529.5C 138.573,528.243 136.239,526.243 134.5,523.5 Z"/></g>
</svg>
