<?xml version="1.0" encoding="UTF-8"?>
<!DOCTYPE svg PUBLIC "-//W3C//DTD SVG 1.1//EN" "http://www.w3.org/Graphics/SVG/1.1/DTD/svg11.dtd">
<svg xmlns="http://www.w3.org/2000/svg" version="1.1" width="713px" height="607px" style="shape-rendering:geometricPrecision; text-rendering:geometricPrecision; image-rendering:optimizeQuality; fill-rule:evenodd; clip-rule:evenodd" xmlns:xlink="http://www.w3.org/1999/xlink">
<g><path style="opacity:0.999" fill="#fb7469" d="M 521.5,61.5 C 521.973,62.9063 522.973,63.573 524.5,63.5C 525.167,63.5 525.5,63.8333 525.5,64.5C 525.973,65.9063 526.973,66.573 528.5,66.5C 614.513,139.924 649.68,232.924 634,345.5C 613.356,444.977 557.19,516.477 465.5,560C 377.654,595.954 291.654,592.121 207.5,548.5C 207.027,547.094 206.027,546.427 204.5,546.5C 203.508,546.672 202.842,546.338 202.5,545.5C 202.027,544.094 201.027,543.427 199.5,543.5C 119.078,493.466 72.5783,421.133 60,326.5C 51.4655,219.78 88.2988,132.613 170.5,65C 243.928,10.3111 325.595,-7.35554 415.5,12C 454.422,21.3001 489.755,37.8001 521.5,61.5 Z"/></g>
<g><path style="opacity:0.133" fill="#a59da2" d="M 521.5,61.5 C 523.027,61.427 524.027,62.0937 524.5,63.5C 522.973,63.573 521.973,62.9063 521.5,61.5 Z"/></g>
<g><path style="opacity:0.408" fill="#5f7a87" d="M 525.5,64.5 C 527.027,64.427 528.027,65.0937 528.5,66.5C 526.973,66.573 525.973,65.9063 525.5,64.5 Z"/></g>
<g><path style="opacity:0.997" fill="#124c66" d="M 528.5,66.5 C 591.756,111.596 630.922,172.596 646,249.5C 662.258,354.394 632.425,443.56 556.5,517C 476.321,585.958 384.654,607.625 281.5,582C 254.917,574.763 230.25,563.597 207.5,548.5C 291.654,592.121 377.654,595.954 465.5,560C 557.19,516.477 613.356,444.977 634,345.5C 649.68,232.924 614.513,139.924 528.5,66.5 Z"/></g>
<g><path style="opacity:1" fill="#034862" d="M 426.5,174.5 C 444.64,201.2 446.14,228.866 431,257.5C 421.963,271.379 409.463,280.379 393.5,284.5C 393.36,286.124 394.027,287.29 395.5,288C 399.895,289.015 404.229,290.182 408.5,291.5C 421.713,296.106 432.38,304.106 440.5,315.5C 451.399,334.159 454.566,354.159 450,375.5C 442.348,402.488 425.515,421.321 399.5,432C 363.29,445.005 327.956,443.005 293.5,426C 289.66,423.644 285.994,421.144 282.5,418.5C 264.967,404.436 255.634,386.103 254.5,363.5C 266.5,363.5 278.5,363.5 290.5,363.5C 290.802,366.373 291.469,369.039 292.5,371.5C 294.265,380.364 298.598,387.698 305.5,393.5C 319.37,404.269 335.203,409.602 353,409.5C 373.634,409.673 391.3,402.673 406,388.5C 422.038,365.782 421.204,343.782 403.5,322.5C 393.17,311.871 380.503,305.704 365.5,304C 354.839,303.5 344.172,303.333 333.5,303.5C 331.052,302.527 328.385,302.194 325.5,302.5C 325.5,292.167 325.5,281.833 325.5,271.5C 336.172,271.667 346.839,271.5 357.5,271C 395.233,265.031 411.066,243.198 405,205.5C 402.991,198.796 399.491,193.129 394.5,188.5C 388.057,180.605 379.724,175.772 369.5,174C 343.993,168.663 322.16,175.163 304,193.5C 298.318,200.864 295.485,209.197 295.5,218.5C 286.833,218.5 278.167,218.5 269.5,218.5C 266.833,218.5 264.167,218.5 261.5,218.5C 263.149,189.371 276.816,167.871 302.5,154C 333.248,138.913 364.581,137.58 396.5,150C 408.481,155.821 418.481,163.988 426.5,174.5 Z"/></g>
<g><path style="opacity:1" fill="#fceded" d="M 394.5,188.5 C 373.457,178.469 352.124,177.969 330.5,187C 313.888,195.083 304.888,208.25 303.5,226.5C 292.167,226.5 280.833,226.5 269.5,226.5C 269.5,223.833 269.5,221.167 269.5,218.5C 278.167,218.5 286.833,218.5 295.5,218.5C 295.485,209.197 298.318,200.864 304,193.5C 322.16,175.163 343.993,168.663 369.5,174C 379.724,175.772 388.057,180.605 394.5,188.5 Z"/></g>
<g><path style="opacity:1" fill="#fbecec" d="M 426.5,174.5 C 441.141,188.473 448.808,205.806 449.5,226.5C 449.119,256.82 435.453,278.487 408.5,291.5C 404.229,290.182 399.895,289.015 395.5,288C 394.027,287.29 393.36,286.124 393.5,284.5C 409.463,280.379 421.963,271.379 431,257.5C 446.14,228.866 444.64,201.2 426.5,174.5 Z"/></g>
<g><path style="opacity:1" fill="#966366" d="M 325.5,271.5 C 325.5,281.833 325.5,292.167 325.5,302.5C 328.385,302.194 331.052,302.527 333.5,303.5C 330.5,303.5 327.5,303.5 324.5,303.5C 324.172,292.654 324.506,281.987 325.5,271.5 Z"/></g>
<g><path style="opacity:1" fill="#fbe8e8" d="M 333.5,303.5 C 344.172,303.333 354.839,303.5 365.5,304C 380.503,305.704 393.17,311.871 403.5,322.5C 394.21,317.171 384.21,313.671 373.5,312C 360.171,311.5 346.837,311.333 333.5,311.5C 333.5,308.833 333.5,306.167 333.5,303.5 Z"/></g>
<g><path style="opacity:1" fill="#fbecec" d="M 440.5,315.5 C 453.969,328.72 460.303,344.887 459.5,364C 459.445,393.45 447.112,416.116 422.5,432C 393.28,448.379 362.28,452.712 329.5,445C 311.065,440.79 295.398,431.957 282.5,418.5C 285.994,421.144 289.66,423.644 293.5,426C 327.956,443.005 363.29,445.005 399.5,432C 425.515,421.321 442.348,402.488 450,375.5C 454.566,354.159 451.399,334.159 440.5,315.5 Z"/></g>
<g><path style="opacity:1" fill="#f7e5e5" d="M 292.5,371.5 C 294.5,371.5 296.5,371.5 298.5,371.5C 299.3,379.38 301.633,386.713 305.5,393.5C 298.598,387.698 294.265,380.364 292.5,371.5 Z"/></g>
<g><path style="opacity:0.486" fill="#a3898d" d="M 199.5,543.5 C 201.027,543.427 202.027,544.094 202.5,545.5C 200.973,545.573 199.973,544.906 199.5,543.5 Z"/></g>
<g><path style="opacity:0.831" fill="#516574" d="M 204.5,546.5 C 206.027,546.427 207.027,547.094 207.5,548.5C 205.973,548.573 204.973,547.906 204.5,546.5 Z"/></g>
</svg>
