<?xml version="1.0" encoding="UTF-8"?>
<!DOCTYPE svg PUBLIC "-//W3C//DTD SVG 1.1//EN" "http://www.w3.org/Graphics/SVG/1.1/DTD/svg11.dtd">
<svg xmlns="http://www.w3.org/2000/svg" version="1.1" width="50px" height="50px" style="shape-rendering:geometricPrecision; text-rendering:geometricPrecision; image-rendering:optimizeQuality; fill-rule:evenodd; clip-rule:evenodd" xmlns:xlink="http://www.w3.org/1999/xlink">
<g><path style="opacity:0.585" fill="#fb7368" d="M 9.5,-0.5 C 10.5,-0.5 11.5,-0.5 12.5,-0.5C 12.7989,1.60395 12.4656,3.60395 11.5,5.5C 9.71745,3.97747 9.05078,1.97747 9.5,-0.5 Z"/></g>
<g><path style="opacity:0.567" fill="#fb7468" d="M 4.5,1.5 C 6.2572,2.29197 7.59053,3.62531 8.5,5.5C 6.18165,6.83441 4.51499,6.16774 3.5,3.5C 3.86273,2.81654 4.19607,2.14987 4.5,1.5 Z"/></g>
<g><path style="opacity:0.68" fill="#fb7368" d="M 36.5,49.5 C 34.8333,49.5 33.1667,49.5 31.5,49.5C 30.5618,44.4113 29.3951,39.4113 28,34.5C 26.6049,39.4113 25.4382,44.4113 24.5,49.5C 22.8333,49.5 21.1667,49.5 19.5,49.5C 14.9366,45.3512 12.77,40.0179 13,33.5C 12.0581,30.0073 10.7248,26.674 9,23.5C 7.52851,14.4583 11.3618,9.12495 20.5,7.5C 23.1084,7.92284 25.4417,8.92284 27.5,10.5C 31.4529,7.42932 35.7862,6.76265 40.5,8.5C 41.8132,4.69413 42.9798,5.02747 44,9.5C 48.8448,10.4566 49.3448,12.1233 45.5,14.5C 46.5748,17.438 46.7415,20.438 46,23.5C 43.1392,29.8376 41.4725,36.5043 41,43.5C 39.7225,45.7472 38.2225,47.7472 36.5,49.5 Z M 18.5,10.5 C 24.0071,13.0023 29.5071,13.0023 35,10.5C 36.9991,12.6278 39.1658,15.2945 41.5,18.5C 42.086,18.2907 42.586,17.9574 43,17.5C 43.6667,19.5 43.6667,21.5 43,23.5C 40.1392,29.8376 38.4725,36.5043 38,43.5C 37,45.1667 35.6667,46.5 34,47.5C 33.0881,43.2054 32.4215,38.8721 32,34.5C 29.3333,30.5 26.6667,30.5 24,34.5C 23.4265,38.8477 22.7599,43.181 22,47.5C 20,46.8333 18.6667,45.5 18,43.5C 16.8398,35.3562 14.6732,27.5228 11.5,20C 11.7951,15.2201 14.1285,12.0535 18.5,10.5 Z M 40.5,12.5 C 41.0768,11.2267 41.7435,11.2267 42.5,12.5C 42.0302,13.463 41.3635,13.463 40.5,12.5 Z"/></g>
<g><path style="opacity:0.538" fill="#fb7368" d="M 0.5,7.5 C 2.5273,7.33788 4.5273,7.50454 6.5,8C 7.78359,9.29749 7.61693,10.4642 6,11.5C 4.30054,10.5939 2.4672,10.2606 0.5,10.5C 0.5,9.5 0.5,8.5 0.5,7.5 Z"/></g>
<g><path style="opacity:0.683" fill="#fb7368" d="M 18.5,13.5 C 20.459,16.3093 23.1257,18.476 26.5,20C 25.3774,21.0437 24.0441,21.7104 22.5,22C 20.6102,27.9348 18.6102,27.9348 16.5,22C 15.552,21.5172 14.552,21.3505 13.5,21.5C 13.5,20.5 13.5,19.5 13.5,18.5C 16.8333,18.5 18.5,16.8333 18.5,13.5 Z"/></g>
</svg>
