<?xml version="1.0" encoding="UTF-8"?>
<!DOCTYPE svg PUBLIC "-//W3C//DTD SVG 1.1//EN" "http://www.w3.org/Graphics/SVG/1.1/DTD/svg11.dtd">
<svg xmlns="http://www.w3.org/2000/svg" version="1.1" width="50px" height="50px" style="shape-rendering:geometricPrecision; text-rendering:geometricPrecision; image-rendering:optimizeQuality; fill-rule:evenodd; clip-rule:evenodd" xmlns:xlink="http://www.w3.org/1999/xlink">
<g><path style="opacity:0.667" fill="#fa7368" d="M 17.5,-0.5 C 22.1667,-0.5 26.8333,-0.5 31.5,-0.5C 39.8333,3.16667 45.8333,9.16667 49.5,17.5C 49.5,22.1667 49.5,26.8333 49.5,31.5C 47.8773,35.4005 45.7106,39.0671 43,42.5C 39.4864,45.5001 35.6531,47.8334 31.5,49.5C 26.8333,49.5 22.1667,49.5 17.5,49.5C 9.16667,45.8333 3.16667,39.8333 -0.5,31.5C -0.5,26.8333 -0.5,22.1667 -0.5,17.5C 3.16667,9.16667 9.16667,3.16667 17.5,-0.5 Z M 21.5,1.5 C 41.1509,2.81452 49.3176,13.1478 46,32.5C 39.871,44.9798 30.0376,49.4798 16.5,46C 4.02512,39.8803 -0.474883,30.0469 3,16.5C 6.64895,8.27488 12.8156,3.27488 21.5,1.5 Z M 22.5,11.5 C 23.8333,11.5 25.1667,11.5 26.5,11.5C 26.335,14.8499 26.5017,18.1832 27,21.5C 30.4106,22.2931 33.9106,22.7931 37.5,23C 38.8333,24 38.8333,25 37.5,26C 33.9106,26.2069 30.4106,26.7069 27,27.5C 26.5017,30.8168 26.335,34.1501 26.5,37.5C 25.1667,37.5 23.8333,37.5 22.5,37.5C 22.665,34.1501 22.4983,30.8168 22,27.5C 18.6064,26.5442 15.1064,26.2108 11.5,26.5C 11.5,25.1667 11.5,23.8333 11.5,22.5C 15.1667,22.5 18.8333,22.5 22.5,22.5C 22.5,18.8333 22.5,15.1667 22.5,11.5 Z"/></g>
<g><path style="opacity:0.586" fill="#fb7368" d="M 21.5,8.5 C 24.3646,8.05484 26.8646,8.7215 29,10.5C 29.498,13.4816 29.6646,16.4816 29.5,19.5C 32.5184,19.3354 35.5184,19.502 38.5,20C 41.1667,23 41.1667,26 38.5,29C 35.5184,29.498 32.5184,29.6646 29.5,29.5C 29.6646,32.5184 29.498,35.5184 29,38.5C 26,41.1667 23,41.1667 20,38.5C 19.502,35.5184 19.3354,32.5184 19.5,29.5C 16.4816,29.6646 13.4816,29.498 10.5,29C 7.83333,26 7.83333,23 10.5,20C 13.4816,19.502 16.4816,19.3354 19.5,19.5C 19.0097,15.5128 19.6764,11.8462 21.5,8.5 Z M 22.5,11.5 C 22.5,15.1667 22.5,18.8333 22.5,22.5C 18.8333,22.5 15.1667,22.5 11.5,22.5C 11.5,23.8333 11.5,25.1667 11.5,26.5C 15.1064,26.2108 18.6064,26.5442 22,27.5C 22.4983,30.8168 22.665,34.1501 22.5,37.5C 23.8333,37.5 25.1667,37.5 26.5,37.5C 26.335,34.1501 26.5017,30.8168 27,27.5C 30.4106,26.7069 33.9106,26.2069 37.5,26C 38.8333,25 38.8333,24 37.5,23C 33.9106,22.7931 30.4106,22.2931 27,21.5C 26.5017,18.1832 26.335,14.8499 26.5,11.5C 25.1667,11.5 23.8333,11.5 22.5,11.5 Z"/></g>
<g><path style="opacity:0.661" fill="#fb7368" d="M 43.5,23.5 C 46.2925,31.6384 43.6259,37.9717 35.5,42.5C 34.479,41.9984 34.3123,41.3317 35,40.5C 40.4993,36.1681 43.3326,30.5014 43.5,23.5 Z"/></g>
</svg>
