<?xml version="1.0" encoding="UTF-8"?>
<!DOCTYPE svg PUBLIC "-//W3C//DTD SVG 1.1//EN" "http://www.w3.org/Graphics/SVG/1.1/DTD/svg11.dtd">
<svg xmlns="http://www.w3.org/2000/svg" version="1.1" width="200px" height="200px" style="shape-rendering:geometricPrecision; text-rendering:geometricPrecision; image-rendering:optimizeQuality; fill-rule:evenodd; clip-rule:evenodd" xmlns:xlink="http://www.w3.org/1999/xlink">
<g><path style="opacity:0.322" fill="#82837d" d="M 63.5,-0.5 C 68.5,-0.5 73.5,-0.5 78.5,-0.5C 83.5,0.166667 88.5,0.833333 93.5,1.5C 93.1667,2.16667 92.8333,2.83333 92.5,3.5C 90.3254,3.31779 88.3254,2.65112 86.5,1.5C 85.1508,1.84572 83.8175,2.17905 82.5,2.5C 78.2988,1.26406 73.9655,1.26406 69.5,2.5C 67.2488,1.98511 65.2488,0.985108 63.5,-0.5 Z"/></g>
<g><path style="opacity:1" fill="#1e492d" d="M 69.5,2.5 C 73.9655,1.26406 78.2988,1.26406 82.5,2.5C 76.4631,2.98786 70.4631,3.65453 64.5,4.5C 60.102,6.4385 56.4354,5.60516 53.5,2C 55.9018,1.18591 58.2351,1.35258 60.5,2.5C 59.9747,3.19238 59.3081,3.69238 58.5,4C 59,4.16667 59.5,4.33333 60,4.5C 62.9353,2.8084 66.1019,2.14174 69.5,2.5 Z"/></g>
<g><path style="opacity:0.996" fill="#546c5d" d="M 58.5,-0.5 C 60.1667,-0.5 61.8333,-0.5 63.5,-0.5C 65.2488,0.985108 67.2488,1.98511 69.5,2.5C 66.1019,2.14174 62.9353,2.8084 60,4.5C 59.5,4.33333 59,4.16667 58.5,4C 59.3081,3.69238 59.9747,3.19238 60.5,2.5C 58.2351,1.35258 55.9018,1.18591 53.5,2C 56.4354,5.60516 60.102,6.4385 64.5,4.5C 68.2984,5.48342 72.2984,5.81675 76.5,5.5C 75.8333,6.16667 75.1667,6.83333 74.5,7.5C 70.1434,7.41355 65.81,7.08021 61.5,6.5C 52.1536,5.96581 42.8203,5.29915 33.5,4.5C 41.8169,2.74056 50.1502,1.07389 58.5,-0.5 Z"/></g>
<g><path style="opacity:1" fill="#9aa39c" d="M 92.5,3.5 C 87.1266,2.86706 81.7932,3.53373 76.5,5.5C 72.2984,5.81675 68.2984,5.48342 64.5,4.5C 70.4631,3.65453 76.4631,2.98786 82.5,2.5C 83.8175,2.17905 85.1508,1.84572 86.5,1.5C 88.3254,2.65112 90.3254,3.31779 92.5,3.5 Z"/></g>
<g><path style="opacity:1" fill="#727b70" d="M 108.5,2.5 C 117.167,2.83333 125.833,3.16667 134.5,3.5C 134.918,4.22158 135.584,4.72158 136.5,5C 134,5.16667 131.5,5.33333 129,5.5C 118.883,4.23291 108.716,3.39958 98.5,3C 101.817,2.50166 105.15,2.33499 108.5,2.5 Z"/></g>
<g><path style="opacity:1" fill="#a7aba7" d="M 93.5,1.5 C 98.6946,1.17949 103.695,1.51283 108.5,2.5C 105.15,2.33499 101.817,2.50166 98.5,3C 108.716,3.39958 118.883,4.23291 129,5.5C 131.5,5.33333 134,5.16667 136.5,5C 135.584,4.72158 134.918,4.22158 134.5,3.5C 140.318,4.02843 145.984,4.6951 151.5,5.5C 146.821,5.33418 142.155,5.50085 137.5,6C 139.833,6.33333 142.167,6.66667 144.5,7C 143.4,8.02303 142.067,8.52303 140.5,8.5C 136.535,7.72608 132.535,7.39275 128.5,7.5C 124.176,7.07281 119.842,6.73948 115.5,6.5C 109.013,5.67175 102.346,5.17175 95.5,5C 94.7562,3.96141 93.7562,3.46141 92.5,3.5C 92.8333,2.83333 93.1667,2.16667 93.5,1.5 Z"/></g>
<g><path style="opacity:1" fill="#255b3a" d="M 92.5,3.5 C 93.7562,3.46141 94.7562,3.96141 95.5,5C 102.346,5.17175 109.013,5.67175 115.5,6.5C 112.813,6.33591 110.146,6.50258 107.5,7C 108.252,7.67076 108.586,8.5041 108.5,9.5C 97.1834,8.56839 85.8501,7.90173 74.5,7.5C 75.1667,6.83333 75.8333,6.16667 76.5,5.5C 81.7932,3.53373 87.1266,2.86706 92.5,3.5 Z"/></g>
<g><path style="opacity:1" fill="#797a76" d="M 30.5,6.5 C 33.7216,6.10809 36.7216,6.60809 39.5,8C 36.854,8.49742 34.1873,8.66409 31.5,8.5C 30.1914,10.5706 29.5248,13.0706 29.5,16C 29.5252,18.755 29.8586,21.4217 30.5,24C 30.1667,24.1667 29.8333,24.3333 29.5,24.5C 28.8243,23.3984 28.1577,22.3984 27.5,21.5C 27.3225,16.9997 27.6558,12.333 28.5,7.5C 29.1835,7.13727 29.8501,6.80393 30.5,6.5 Z"/></g>
<g><path style="opacity:1" fill="#a83920" d="M 159.5,7.5 C 161.857,7.33669 164.19,7.50335 166.5,8C 165.263,8.23209 164.263,8.73209 163.5,9.5C 160.833,9.5 158.167,9.5 155.5,9.5C 155.5,9.16667 155.5,8.83333 155.5,8.5C 156.833,8.16667 158.167,7.83333 159.5,7.5 Z"/></g>
<g><path style="opacity:1" fill="#827368" d="M 151.5,5.5 C 156.927,5.21754 162.26,5.55087 167.5,6.5C 169.386,7.06517 171.053,8.06517 172.5,9.5C 168.251,10.7261 163.917,11.3927 159.5,11.5C 161.51,10.9826 162.843,10.316 163.5,9.5C 164.263,8.73209 165.263,8.23209 166.5,8C 164.19,7.50335 161.857,7.33669 159.5,7.5C 156.833,6.83333 154.167,6.16667 151.5,5.5 Z"/></g>
<g><path style="opacity:1" fill="#a8a9a4" d="M 167.5,6.5 C 173.212,6.31298 178.879,6.64631 184.5,7.5C 186.969,8.3171 189.635,8.8171 192.5,9C 185.233,10.3004 178.567,12.8004 172.5,16.5C 160.7,15.4945 149.033,14.1612 137.5,12.5C 141.179,12.2756 144.846,11.9422 148.5,11.5C 150.5,11.5 152.5,11.5 154.5,11.5C 156.167,11.5 157.833,11.5 159.5,11.5C 163.917,11.3927 168.251,10.7261 172.5,9.5C 171.053,8.06517 169.386,7.06517 167.5,6.5 Z"/></g>
<g><path style="opacity:1" fill="#0d4925" d="M 115.5,6.5 C 119.842,6.73948 124.176,7.07281 128.5,7.5C 129.152,8.72507 130.319,9.39174 132,9.5C 145.447,10.759 145.614,11.4257 132.5,11.5C 124.423,11.1402 116.423,10.4735 108.5,9.5C 108.586,8.5041 108.252,7.67076 107.5,7C 110.146,6.50258 112.813,6.33591 115.5,6.5 Z"/></g>
<g><path style="opacity:1" fill="#7e7440" d="M 155.5,8.5 C 155.5,8.83333 155.5,9.16667 155.5,9.5C 154.662,9.84171 154.328,10.5084 154.5,11.5C 152.5,11.5 150.5,11.5 148.5,11.5C 149.609,10.71 150.942,10.21 152.5,10C 151.833,9.66667 151.167,9.33333 150.5,9C 152.134,8.50649 153.801,8.33982 155.5,8.5 Z"/></g>
<g><path style="opacity:1" fill="#b08722" d="M 155.5,9.5 C 158.167,9.5 160.833,9.5 163.5,9.5C 162.843,10.316 161.51,10.9826 159.5,11.5C 157.833,11.5 156.167,11.5 154.5,11.5C 154.328,10.5084 154.662,9.84171 155.5,9.5 Z"/></g>
<g><path style="opacity:1" fill="#cbcdc4" d="M 61.5,6.5 C 65.81,7.08021 70.1434,7.41355 74.5,7.5C 85.8501,7.90173 97.1834,8.56839 108.5,9.5C 116.423,10.4735 124.423,11.1402 132.5,11.5C 132.5,11.8333 132.5,12.1667 132.5,12.5C 132.5,18.8333 132.5,25.1667 132.5,31.5C 134.167,31.5 135.833,31.5 137.5,31.5C 137.261,33.4672 137.594,35.3005 138.5,37C 141.817,37.4983 145.15,37.665 148.5,37.5C 150.5,37.5 151.5,36.5 151.5,34.5C 158.84,34.7228 166.173,35.0561 173.5,35.5C 167.046,38.8917 160.379,42.0584 153.5,45C 152.915,46.3024 152.249,47.469 151.5,48.5C 151.5,48.1667 151.5,47.8333 151.5,47.5C 150.737,46.7321 149.737,46.2321 148.5,46C 139.83,45.1183 131.164,44.2849 122.5,43.5C 121.923,40.3551 119.923,38.8551 116.5,39C 117.167,38.6667 117.833,38.3333 118.5,38C 116.942,37.79 115.609,37.29 114.5,36.5C 114.5,30.1667 114.5,23.8333 114.5,17.5C 98.5658,16.981 82.8992,15.3144 67.5,12.5C 72.2137,12.8266 76.8804,12.4933 81.5,11.5C 81.2907,10.914 80.9574,10.414 80.5,10C 76.1667,9.33333 71.8333,9.33333 67.5,10C 65.8807,10.2355 64.8807,11.0689 64.5,12.5C 59.5,12.5 54.5,12.5 49.5,12.5C 47.7078,11.6909 45.7078,11.1909 43.5,11C 49.504,8.93164 55.504,7.43164 61.5,6.5 Z"/></g>
<g><path style="opacity:1" fill="#375b44" d="M 151.5,5.5 C 154.167,6.16667 156.833,6.83333 159.5,7.5C 158.167,7.83333 156.833,8.16667 155.5,8.5C 153.801,8.33982 152.134,8.50649 150.5,9C 151.167,9.33333 151.833,9.66667 152.5,10C 150.942,10.21 149.609,10.71 148.5,11.5C 144.846,11.9422 141.179,12.2756 137.5,12.5C 135.833,12.5 134.167,12.5 132.5,12.5C 132.5,12.1667 132.5,11.8333 132.5,11.5C 145.614,11.4257 145.447,10.759 132,9.5C 130.319,9.39174 129.152,8.72507 128.5,7.5C 132.535,7.39275 136.535,7.72608 140.5,8.5C 142.067,8.52303 143.4,8.02303 144.5,7C 142.167,6.66667 139.833,6.33333 137.5,6C 142.155,5.50085 146.821,5.33418 151.5,5.5 Z"/></g>
<g><path style="opacity:1" fill="#60635f" d="M 67.5,12.5 C 66.5,12.5 65.5,12.5 64.5,12.5C 64.8807,11.0689 65.8807,10.2355 67.5,10C 71.8333,9.33333 76.1667,9.33333 80.5,10C 80.9574,10.414 81.2907,10.914 81.5,11.5C 76.8804,12.4933 72.2137,12.8266 67.5,12.5 Z"/></g>
<g><path style="opacity:1" fill="#f4f4ef" d="M 132.5,12.5 C 134.167,12.5 135.833,12.5 137.5,12.5C 149.033,14.1612 160.7,15.4945 172.5,16.5C 173.014,22.8217 173.347,29.155 173.5,35.5C 166.173,35.0561 158.84,34.7228 151.5,34.5C 151.666,28.8236 151.499,23.1569 151,17.5C 147.606,16.5442 144.106,16.2108 140.5,16.5C 139.542,16.9528 138.708,17.6195 138,18.5C 137.501,22.8206 137.334,27.1539 137.5,31.5C 135.833,31.5 134.167,31.5 132.5,31.5C 132.5,25.1667 132.5,18.8333 132.5,12.5 Z"/></g>
<g><path style="opacity:1" fill="#f4f5ed" d="M 49.5,12.5 C 54.5,12.5 59.5,12.5 64.5,12.5C 65.5,12.5 66.5,12.5 67.5,12.5C 82.8992,15.3144 98.5658,16.981 114.5,17.5C 114.5,23.8333 114.5,30.1667 114.5,36.5C 100.541,34.9432 86.5412,33.7765 72.5,33C 63.7611,32.1033 55.0945,30.77 46.5,29C 50.5305,28.6743 54.5305,28.6743 58.5,29C 61.1439,26.402 61.1439,23.7353 58.5,21C 59.2052,19.5781 59.5385,18.2447 59.5,17C 56.8333,16.3333 56.8333,15.6667 59.5,15C 54.7255,14.4541 51.3922,13.6208 49.5,12.5 Z"/></g>
<g><path style="opacity:1" fill="#969790" d="M 127.5,13.5 C 128.5,13.5 129.5,13.5 130.5,13.5C 130.5,19.8333 130.5,26.1667 130.5,32.5C 126.059,33.4245 121.725,34.7578 117.5,36.5C 116.503,29.8665 116.17,23.1998 116.5,16.5C 120.479,16.2576 124.146,15.2576 127.5,13.5 Z"/></g>
<g><path style="opacity:1" fill="#7f7f7a" d="M 140.5,16.5 C 144.106,16.2108 147.606,16.5442 151,17.5C 151.499,23.1569 151.666,28.8236 151.5,34.5C 151.5,36.5 150.5,37.5 148.5,37.5C 147.314,31.6095 147.314,25.4429 148.5,19C 147.906,18.5357 147.239,18.369 146.5,18.5C 145.5,18.5 144.5,18.5 143.5,18.5C 142.5,17.8333 141.5,17.1667 140.5,16.5 Z"/></g>
<g><path style="opacity:1" fill="#bdbeb8" d="M 31.5,8.5 C 31.5,13.5 31.5,18.5 31.5,23.5C 33.8333,23.5 36.1667,23.5 38.5,23.5C 38.5318,15.6145 39.1985,15.6145 40.5,23.5C 39.9747,24.1924 39.3081,24.6924 38.5,25C 34.1982,25.1937 30.0315,26.027 26,27.5C 24.634,27.2935 23.3006,26.9602 22,26.5C 21.0546,26.9054 20.3879,27.572 20,28.5C 14.317,28.7785 8.48366,28.4452 2.5,27.5C 1.51592,30.4281 1.18259,33.4281 1.5,36.5C 0.833333,33.8333 0.166667,31.1667 -0.5,28.5C -0.5,27.8333 -0.5,27.1667 -0.5,26.5C 8.83718,24.8321 18.1705,23.1654 27.5,21.5C 28.1577,22.3984 28.8243,23.3984 29.5,24.5C 29.8333,24.3333 30.1667,24.1667 30.5,24C 29.8586,21.4217 29.5252,18.755 29.5,16C 29.5248,13.0706 30.1914,10.5706 31.5,8.5 Z"/></g>
<g><path style="opacity:1" fill="#82837e" d="M 184.5,7.5 C 187.777,7.21614 190.943,7.54948 194,8.5C 194.435,13.184 194.935,17.8507 195.5,22.5C 196.833,22.5 198.167,22.5 199.5,22.5C 199.5,26.8333 199.5,31.1667 199.5,35.5C 197.668,36.2485 196.001,37.2485 194.5,38.5C 194.44,37.9569 194.107,37.6236 193.5,37.5C 190.432,38.6913 187.765,40.358 185.5,42.5C 182.24,43.7738 179.24,45.4405 176.5,47.5C 168.365,51.7347 160.365,56.2347 152.5,61C 151.207,61.49 149.873,61.6567 148.5,61.5C 147.596,62.209 147.263,63.209 147.5,64.5C 146.118,63.1995 144.452,62.3661 142.5,62C 125.832,59.3332 109.166,56.6665 92.5,54C 93.0944,53.5357 93.7611,53.369 94.5,53.5C 113.489,55.9649 132.489,58.2982 151.5,60.5C 151.5,56.5 151.5,52.5 151.5,48.5C 152.249,47.469 152.915,46.3024 153.5,45C 160.379,42.0584 167.046,38.8917 173.5,35.5C 173.347,29.155 173.014,22.8217 172.5,16.5C 178.567,12.8004 185.233,10.3004 192.5,9C 189.635,8.8171 186.969,8.3171 184.5,7.5 Z"/></g>
<g><path style="opacity:1" fill="#e1e2da" d="M 33.5,4.5 C 42.8203,5.29915 52.1536,5.96581 61.5,6.5C 55.504,7.43164 49.504,8.93164 43.5,11C 45.7078,11.1909 47.7078,11.6909 49.5,12.5C 51.3922,13.6208 54.7255,14.4541 59.5,15C 56.8333,15.6667 56.8333,16.3333 59.5,17C 59.5385,18.2447 59.2052,19.5781 58.5,21C 61.1439,23.7353 61.1439,26.402 58.5,29C 54.5305,28.6743 50.5305,28.6743 46.5,29C 55.0945,30.77 63.7611,32.1033 72.5,33C 86.5412,33.7765 100.541,34.9432 114.5,36.5C 115.609,37.29 116.942,37.79 118.5,38C 117.833,38.3333 117.167,38.6667 116.5,39C 119.923,38.8551 121.923,40.3551 122.5,43.5C 95.5548,39.6262 68.5548,36.4595 41.5,34C 78.0372,39.7076 114.704,44.2076 151.5,47.5C 151.5,47.8333 151.5,48.1667 151.5,48.5C 151.5,52.5 151.5,56.5 151.5,60.5C 132.489,58.2982 113.489,55.9649 94.5,53.5C 66.3978,48.7713 38.0645,44.7713 9.5,41.5C 9.16667,41.5 8.83333,41.5 8.5,41.5C 6.65676,40.7171 4.65676,40.0505 2.5,39.5C 1.61432,38.675 1.28099,37.675 1.5,36.5C 1.18259,33.4281 1.51592,30.4281 2.5,27.5C 8.48366,28.4452 14.317,28.7785 20,28.5C 20.3879,27.572 21.0546,26.9054 22,26.5C 23.3006,26.9602 24.634,27.2935 26,27.5C 30.0315,26.027 34.1982,25.1937 38.5,25C 39.3081,24.6924 39.9747,24.1924 40.5,23.5C 39.1985,15.6145 38.5318,15.6145 38.5,23.5C 36.1667,23.5 33.8333,23.5 31.5,23.5C 31.5,18.5 31.5,13.5 31.5,8.5C 34.1873,8.66409 36.854,8.49742 39.5,8C 36.7216,6.60809 33.7216,6.10809 30.5,6.5C 30.8212,4.95186 31.8212,4.28519 33.5,4.5 Z"/></g>
<g><path style="opacity:1" fill="#b7b8b2" d="M 140.5,16.5 C 141.5,17.1667 142.5,17.8333 143.5,18.5C 142.167,18.5 140.833,18.5 139.5,18.5C 139.5,24.1667 139.5,29.8333 139.5,35.5C 141.527,35.6621 143.527,35.4955 145.5,35C 144.572,34.6121 143.905,33.9454 143.5,33C 144.649,31.2703 144.649,29.6037 143.5,28C 143.998,24.6196 144.998,21.4529 146.5,18.5C 147.239,18.369 147.906,18.5357 148.5,19C 147.314,25.4429 147.314,31.6095 148.5,37.5C 145.15,37.665 141.817,37.4983 138.5,37C 137.594,35.3005 137.261,33.4672 137.5,31.5C 137.334,27.1539 137.501,22.8206 138,18.5C 138.708,17.6195 139.542,16.9528 140.5,16.5 Z"/></g>
<g><path style="opacity:1" fill="#dddcda" d="M 143.5,18.5 C 144.5,18.5 145.5,18.5 146.5,18.5C 144.998,21.4529 143.998,24.6196 143.5,28C 144.649,29.6037 144.649,31.2703 143.5,33C 143.905,33.9454 144.572,34.6121 145.5,35C 143.527,35.4955 141.527,35.6621 139.5,35.5C 139.5,29.8333 139.5,24.1667 139.5,18.5C 140.833,18.5 142.167,18.5 143.5,18.5 Z"/></g>
<g><path style="opacity:1" fill="#797a75" d="M -0.5,28.5 C 0.166667,31.1667 0.833333,33.8333 1.5,36.5C 1.28099,37.675 1.61432,38.675 2.5,39.5C 4.65676,40.0505 6.65676,40.7171 8.5,41.5C 5.24571,41.7931 2.24571,41.1264 -0.5,39.5C -0.5,35.8333 -0.5,32.1667 -0.5,28.5 Z"/></g>
<g><path style="opacity:1" fill="#f6f7f0" d="M 122.5,43.5 C 131.164,44.2849 139.83,45.1183 148.5,46C 149.737,46.2321 150.737,46.7321 151.5,47.5C 114.704,44.2076 78.0372,39.7076 41.5,34C 68.5548,36.4595 95.5548,39.6262 122.5,43.5 Z"/></g>
<g><path style="opacity:1" fill="#444743" d="M 185.5,42.5 C 185.719,43.675 185.386,44.675 184.5,45.5C 182.998,46.0831 181.665,46.9164 180.5,48C 179.181,48.195 177.847,48.0283 176.5,47.5C 179.24,45.4405 182.24,43.7738 185.5,42.5 Z"/></g>
<g><path style="opacity:1" fill="#d6d7d0" d="M 185.5,42.5 C 187.423,42.795 189.09,43.6283 190.5,45C 186.348,48.0677 182.015,50.5677 177.5,52.5C 176.624,52.6309 175.957,52.2975 175.5,51.5C 176.246,50.2638 176.579,48.9305 176.5,47.5C 177.847,48.0283 179.181,48.195 180.5,48C 181.665,46.9164 182.998,46.0831 184.5,45.5C 185.386,44.675 185.719,43.675 185.5,42.5 Z"/></g>
<g><path style="opacity:1" fill="#4d4e4a" d="M 176.5,47.5 C 176.579,48.9305 176.246,50.2638 175.5,51.5C 175.957,52.2975 176.624,52.6309 177.5,52.5C 178.263,53.2679 179.263,53.7679 180.5,54C 178.153,54.3336 175.819,54.167 173.5,53.5C 172.417,53.4606 171.417,53.1272 170.5,52.5C 167.515,56.5733 163.682,58.5733 159,58.5C 158.051,60.0931 156.885,61.4264 155.5,62.5C 154.374,63.7142 153.041,64.7142 151.5,65.5C 149.085,65.2811 148.085,63.9477 148.5,61.5C 149.873,61.6567 151.207,61.49 152.5,61C 160.365,56.2347 168.365,51.7347 176.5,47.5 Z"/></g>
<g><path style="opacity:1" fill="#7c7d78" d="M 183.5,131.5 C 175.403,141.353 167.07,151.02 158.5,160.5C 157.778,160.918 157.278,161.584 157,162.5C 156.632,161.09 155.799,160.09 154.5,159.5C 153.167,160.833 151.833,162.167 150.5,163.5C 149.335,155.521 149.168,147.521 150,139.5C 150.333,146.833 150.667,154.167 151,161.5C 151.171,156.467 151.671,151.467 152.5,146.5C 159.735,122.164 166.401,97.6635 172.5,73C 172.821,68.6577 170.821,66.8244 166.5,67.5C 166.911,70.2763 166.078,70.943 164,69.5C 163.055,69.9054 162.388,70.572 162,71.5C 158.909,66.5852 155.742,66.4185 152.5,71C 151.552,71.4828 150.552,71.6495 149.5,71.5C 149.606,68.9214 148.939,66.588 147.5,64.5C 147.263,63.209 147.596,62.209 148.5,61.5C 148.085,63.9477 149.085,65.2811 151.5,65.5C 153.041,64.7142 154.374,63.7142 155.5,62.5C 155.56,63.0431 155.893,63.3764 156.5,63.5C 159.484,62.7254 162.484,62.0587 165.5,61.5C 164.499,62.7887 164.666,64.1221 166,65.5C 168.972,64.974 171.472,63.6407 173.5,61.5C 172.975,60.8076 172.308,60.3076 171.5,60C 173.624,58.8783 175.457,57.3783 177,55.5C 178.802,57.6778 180.969,59.5112 183.5,61C 183.092,63.8614 183.925,64.0281 186,61.5C 186.374,62.4162 186.874,63.2496 187.5,64C 186.167,64.6667 184.833,65.3333 183.5,66C 186.028,68.0749 185.861,68.9082 183,68.5C 182.333,69.5 182.333,70.5 183,71.5C 183.914,70.3463 184.747,70.513 185.5,72C 184.5,73 183.5,74 182.5,75C 182.5,76.6667 182.5,78.3333 182.5,80C 181.743,81.5122 180.743,82.8455 179.5,84C 180.167,84.6667 180.833,85.3333 181.5,86C 177.433,88.6279 177.099,91.2946 180.5,94C 177.833,95.3333 177.833,96.6667 180.5,98C 178.474,100.787 176.14,102.453 173.5,103C 176.474,104.506 176.807,106.172 174.5,108C 176.807,109.828 176.474,111.494 173.5,113C 173.833,114 174.167,115 174.5,116C 173.167,117.333 171.833,118.667 170.5,120C 173.167,121.333 173.167,122.667 170.5,124C 171.167,124.667 171.833,125.333 172.5,126C 170.167,129.667 167.833,133.333 165.5,137C 165.5,138.333 165.5,139.667 165.5,141C 166.333,141.833 167.167,142.667 168,143.5C 172.016,139.652 175.849,135.652 179.5,131.5C 180.808,130.374 182.142,130.374 183.5,131.5 Z"/></g>
<g><path style="opacity:1" fill="#d9dbd2" d="M 12.5,48.5 C 25.5932,52.1528 38.9265,54.9861 52.5,57C 55.4294,57.7772 58.2628,57.6105 61,56.5C 89.0699,63.155 117.57,67.8216 146.5,70.5C 146.198,75.2137 145.532,79.8803 144.5,84.5C 143.284,83.9984 142.117,83.6651 141,83.5C 137.615,87.6856 134.948,87.3522 133,82.5C 132.667,85.1667 132.333,87.8333 132,90.5C 130.898,85.2704 130.065,85.2704 129.5,90.5C 131.566,95.3252 132.399,100.325 132,105.5C 131.329,104.748 130.496,104.414 129.5,104.5C 128.005,104.585 127.005,103.919 126.5,102.5C 127.456,100.925 128.123,99.258 128.5,97.5C 129.166,94.8171 127.832,93.4838 124.5,93.5C 125.297,89.7768 126.297,86.1101 127.5,82.5C 123.119,80.7895 118.453,80.1228 113.5,80.5C 107.715,78.6916 101.715,77.1916 95.5,76C 78.2558,72.5209 60.9225,69.6876 43.5,67.5C 37.4061,65.6213 31.0728,64.288 24.5,63.5C 23.5046,69.1278 23.1712,74.7945 23.5,80.5C 23.665,83.8499 23.4983,87.1832 23,90.5C 23.7578,83.4136 21.4245,77.7469 16,73.5C 15.6667,76.1667 15.3333,78.8333 15,81.5C 14.79,79.9419 14.29,78.6085 13.5,77.5C 12.9466,72.518 12.6133,67.518 12.5,62.5C 12.5,57.8333 12.5,53.1667 12.5,48.5 Z"/></g>
<g><path style="opacity:1" fill="#e8e9e1" d="M 134.5,62.5 C 135.609,63.29 136.942,63.79 138.5,64C 136.527,64.4955 134.527,64.6621 132.5,64.5C 132.649,65.552 132.483,66.552 132,67.5C 114.72,64.4112 97.3865,61.4112 80,58.5C 78.9701,58.1639 78.4701,57.4972 78.5,56.5C 81.6399,55.3592 84.9733,55.1925 88.5,56C 103.849,58.1723 119.182,60.339 134.5,62.5 Z"/></g>
<g><path style="opacity:1" fill="#d7d8d0" d="M 173.5,53.5 C 173.611,54.1174 173.944,54.6174 174.5,55C 171.433,57.1882 168.433,59.3548 165.5,61.5C 162.484,62.0587 159.484,62.7254 156.5,63.5C 155.893,63.3764 155.56,63.0431 155.5,62.5C 156.885,61.4264 158.051,60.0931 159,58.5C 163.682,58.5733 167.515,56.5733 170.5,52.5C 171.417,53.1272 172.417,53.4606 173.5,53.5 Z"/></g>
<g><path style="opacity:1" fill="#9a9b95" d="M 9.5,41.5 C 38.0645,44.7713 66.3978,48.7713 94.5,53.5C 93.7611,53.369 93.0944,53.5357 92.5,54C 109.166,56.6665 125.832,59.3332 142.5,62C 144.452,62.3661 146.118,63.1995 147.5,64.5C 148.939,66.588 149.606,68.9214 149.5,71.5C 149.825,79.3516 149.492,87.0182 148.5,94.5C 148.666,85.8269 148.5,77.1603 148,68.5C 147.626,67.5838 147.126,66.7504 146.5,66C 144.167,65.6667 141.833,65.3333 139.5,65C 140.308,64.6924 140.975,64.1924 141.5,63.5C 139.257,62.5258 136.924,62.1924 134.5,62.5C 119.182,60.339 103.849,58.1723 88.5,56C 84.9733,55.1925 81.6399,55.3592 78.5,56.5C 76.4496,56.0388 74.4496,55.3721 72.5,54.5C 71.914,54.7093 71.414,55.0426 71,55.5C 68.962,53.9278 66.6287,52.9278 64,52.5C 63.3333,53.8333 62.3333,54.8333 61,55.5C 60.5357,54.9056 60.369,54.2389 60.5,53.5C 60.9175,52.7784 61.5842,52.2784 62.5,52C 47.778,50.1573 33.1113,47.9906 18.5,45.5C 17.2739,45.5195 16.2739,45.8529 15.5,46.5C 15.316,48.9248 14.6493,48.9248 13.5,46.5C 12.7025,46.9569 12.3691,47.6236 12.5,48.5C 12.5,53.1667 12.5,57.8333 12.5,62.5C 12.1667,62.5 11.8333,62.5 11.5,62.5C 10.5991,55.5707 9.93248,48.5707 9.5,41.5 Z"/></g>
<g><path style="opacity:1" fill="#dedfd7" d="M 15.5,46.5 C 16.2739,45.8529 17.2739,45.5195 18.5,45.5C 33.1113,47.9906 47.778,50.1573 62.5,52C 61.5842,52.2784 60.9175,52.7784 60.5,53.5C 59.4477,54.5305 58.1143,55.1971 56.5,55.5C 43.2191,53.0314 29.8858,51.0314 16.5,49.5C 16.7373,48.209 16.404,47.209 15.5,46.5 Z"/></g>
<g><path style="opacity:1" fill="#81827c" d="M 158.5,160.5 C 158.5,161.5 158.5,162.5 158.5,163.5C 155.708,163.622 153.708,164.956 152.5,167.5C 151.672,173.987 151.172,180.654 151,187.5C 148.989,191.002 147.656,191.002 147,187.5C 147.094,190.501 145.761,192.501 143,193.5C 142.601,193.272 142.435,192.938 142.5,192.5C 142.5,191.5 142.5,190.5 142.5,189.5C 142.5,189.167 142.5,188.833 142.5,188.5C 143.429,187.064 144.595,185.731 146,184.5C 146.667,185.833 147.333,185.833 148,184.5C 148.5,155.835 148.667,127.169 148.5,98.5C 148.5,97.1667 148.5,95.8333 148.5,94.5C 149.492,87.0182 149.825,79.3516 149.5,71.5C 150.552,71.6495 151.552,71.4828 152.5,71C 155.742,66.4185 158.909,66.5852 162,71.5C 162.388,70.572 163.055,69.9054 164,69.5C 166.078,70.943 166.911,70.2763 166.5,67.5C 170.821,66.8244 172.821,68.6577 172.5,73C 166.401,97.6635 159.735,122.164 152.5,146.5C 151.671,151.467 151.171,156.467 151,161.5C 150.667,154.167 150.333,146.833 150,139.5C 149.168,147.521 149.335,155.521 150.5,163.5C 151.833,162.167 153.167,160.833 154.5,159.5C 155.799,160.09 156.632,161.09 157,162.5C 157.278,161.584 157.778,160.918 158.5,160.5 Z"/></g>
<g><path style="opacity:1" fill="#105630" d="M 43.5,67.5 C 60.9225,69.6876 78.2558,72.5209 95.5,76C 101.715,77.1916 107.715,78.6916 113.5,80.5C 110.796,86.9422 108.462,93.6089 106.5,100.5C 108.665,100.116 110.332,100.783 111.5,102.5C 109.749,104.972 108.915,107.639 109,110.5C 111.147,111.113 113.314,111.779 115.5,112.5C 113.679,118.785 112.012,125.118 110.5,131.5C 110.253,132.713 109.586,133.38 108.5,133.5C 80.9563,126.123 53.2897,119.123 25.5,112.5C 25.2815,101.653 24.6148,90.9863 23.5,80.5C 23.1712,74.7945 23.5046,69.1278 24.5,63.5C 31.0728,64.288 37.4061,65.6213 43.5,67.5 Z"/></g>
<g><path style="opacity:1" fill="#eeeded" d="M 60.5,71.5 C 62.3792,72.3414 64.3792,72.6747 66.5,72.5C 66.5,78.8333 66.5,85.1667 66.5,91.5C 66.5,93.5 66.5,95.5 66.5,97.5C 64.6208,96.6586 62.6208,96.3253 60.5,96.5C 60.5,94.1667 60.5,91.8333 60.5,89.5C 60.5,83.5 60.5,77.5 60.5,71.5 Z"/></g>
<g><path style="opacity:1" fill="#e9e9e8" d="M 43.5,67.5 C 43.5,67.8333 43.5,68.1667 43.5,68.5C 43.3786,76.8578 43.7119,85.1912 44.5,93.5C 42.5,93.5 40.5,93.5 38.5,93.5C 38.81,90.2869 38.4767,87.2869 37.5,84.5C 36.791,83.596 35.791,83.2627 34.5,83.5C 34.8064,86.3854 34.4731,89.0521 33.5,91.5C 32.8333,91.5 32.1667,91.5 31.5,91.5C 29.8356,90.0512 29.0023,88.0512 29,85.5C 28.5469,78.8229 28.0469,72.1562 27.5,65.5C 29.861,65.6741 32.1944,66.0074 34.5,66.5C 34.5,69.5 34.5,72.5 34.5,75.5C 35.5,75.5 36.5,75.5 37.5,75.5C 37.5,72.8333 37.5,70.1667 37.5,67.5C 39.5,67.5 41.5,67.5 43.5,67.5 Z"/></g>
<g><path style="opacity:1" fill="#5a6b5f" d="M 60.5,71.5 C 60.5,77.5 60.5,83.5 60.5,89.5C 59.776,91.2184 59.1094,93.0517 58.5,95C 55.9615,95.7958 53.6282,95.6291 51.5,94.5C 53.5273,94.6621 55.5273,94.4955 57.5,94C 58.8911,89.345 57.2244,87.845 52.5,89.5C 51.6143,88.675 51.281,87.675 51.5,86.5C 53.5914,86.3184 55.5914,86.6518 57.5,87.5C 58.4519,85.9547 58.7852,84.288 58.5,82.5C 59.1667,78.8333 59.8333,75.1667 60.5,71.5 Z"/></g>
<g><path style="opacity:1" fill="#2f563c" d="M 43.5,68.5 C 44.1667,72.1667 44.8333,75.8333 45.5,79.5C 45.2694,83.993 45.936,88.3263 47.5,92.5C 45.7973,91.3398 45.1307,92.0065 45.5,94.5C 43.1667,94.5 40.8333,94.5 38.5,94.5C 37.8333,94.5 37.1667,94.5 36.5,94.5C 34.901,94.7678 33.5676,94.4345 32.5,93.5C 32.1667,92.8333 31.8333,92.1667 31.5,91.5C 32.1667,91.5 32.8333,91.5 33.5,91.5C 33.56,92.0431 33.8933,92.3764 34.5,92.5C 34.9201,89.3837 35.9201,86.7171 37.5,84.5C 38.4767,87.2869 38.81,90.2869 38.5,93.5C 40.5,93.5 42.5,93.5 44.5,93.5C 43.7119,85.1912 43.3786,76.8578 43.5,68.5 Z"/></g>
<g><path style="opacity:0.925" fill="#81837d" d="M 11.5,62.5 C 11.8333,62.5 12.1667,62.5 12.5,62.5C 12.6133,67.518 12.9466,72.518 13.5,77.5C 14.3842,88.9917 15.3842,100.325 16.5,111.5C 16.5,113.833 16.5,116.167 16.5,118.5C 17.1637,123.473 17.4971,128.473 17.5,133.5C 17.5,134.167 17.1667,134.5 16.5,134.5C 14.3596,110.535 12.693,86.5349 11.5,62.5 Z"/></g>
<g><path style="opacity:1" fill="#c1c2bb" d="M 145.5,134.5 C 145.951,140.031 145.951,145.531 145.5,151C 144.285,153.096 143.451,152.929 143,150.5C 141.221,151.479 139.555,151.146 138,149.5C 137.667,149.833 137.333,150.167 137,150.5C 134.667,149.5 132.333,148.5 130,147.5C 128.249,148.174 126.583,148.507 125,148.5C 122.91,147.206 120.91,146.206 119,145.5C 117.467,145.944 115.967,146.277 114.5,146.5C 113.522,146.023 112.689,145.357 112,144.5C 109.911,144.745 107.911,144.745 106,144.5C 105.085,143.672 104.419,142.672 104,141.5C 103.692,142.308 103.192,142.975 102.5,143.5C 101.575,142.359 100.741,142.359 100,143.5C 99.6758,141.431 98.8425,141.098 97.5,142.5C 96.8076,141.975 96.3076,141.308 96,140.5C 94.2109,140.377 92.3775,140.377 90.5,140.5C 89.0944,139.573 87.5944,138.573 86,137.5C 83.6667,138.833 81.3333,138.833 79,137.5C 77.6667,136.833 76.6667,135.833 76,134.5C 75.7508,135.624 75.2508,136.624 74.5,137.5C 72.5291,135.96 70.3624,134.626 68,133.5C 66.8831,133.665 65.7164,133.998 64.5,134.5C 63.6667,133.5 62.8333,132.5 62,131.5C 59.8685,132.623 57.8685,132.623 56,131.5C 54.6532,127.625 53.4865,127.625 52.5,131.5C 51.6667,130.5 50.8333,129.5 50,128.5C 48.092,129.079 46.4253,129.079 45,128.5C 43.3483,127.932 41.6816,126.599 40,124.5C 38.3148,126.988 36.9814,126.655 36,123.5C 34.4345,124.061 33.1011,123.394 32,121.5C 31.7508,122.624 31.2508,123.624 30.5,124.5C 29.5197,123.019 28.353,121.685 27,120.5C 25.1918,120.888 23.5252,120.888 22,120.5C 20.6152,119.449 19.6152,118.116 19,116.5C 18.6667,117.833 18.3333,119.167 18,120.5C 17.7216,119.584 17.2216,118.918 16.5,118.5C 16.5,116.167 16.5,113.833 16.5,111.5C 17.2679,112.263 17.7679,113.263 18,114.5C 18.4966,107.497 19.1632,107.163 20,113.5C 20.3333,113.167 20.6667,112.833 21,112.5C 23.2048,114.361 25.7048,115.861 28.5,117C 29.1905,118.067 29.6905,119.234 30,120.5C 30.4935,118.866 30.6602,117.199 30.5,115.5C 31.5,115.5 32.5,115.5 33.5,115.5C 33.4208,116.93 33.7542,118.264 34.5,119.5C 39.1667,121 43.8333,122.5 48.5,124C 51.491,128.953 53.3244,128.453 54,122.5C 55.0124,127.224 57.6791,128.891 62,127.5C 65.2012,129.51 68.7012,130.677 72.5,131C 73.1258,131.75 73.6258,132.584 74,133.5C 74.4186,132.328 75.0853,131.328 76,130.5C 80.9205,133.063 85.7539,135.063 90.5,136.5C 93.2582,136.619 96.0916,136.285 99,135.5C 102.781,137.864 106.948,139.197 111.5,139.5C 112.967,139.277 114.467,138.944 116,138.5C 116.5,139.667 117.333,140.5 118.5,141C 116.405,141.556 116.238,142.056 118,142.5C 119.796,142.087 121.463,142.087 123,142.5C 123.667,139.833 124.333,139.833 125,142.5C 128.14,142.964 131.806,142.964 136,142.5C 138.95,143.392 141.617,144.725 144,146.5C 144.675,142.302 145.175,138.302 145.5,134.5 Z"/></g>
<g><path style="opacity:1" fill="#c9cac2" d="M 15.5,46.5 C 16.404,47.209 16.7373,48.209 16.5,49.5C 29.8858,51.0314 43.2191,53.0314 56.5,55.5C 58.1143,55.1971 59.4477,54.5305 60.5,53.5C 60.369,54.2389 60.5357,54.9056 61,55.5C 62.3333,54.8333 63.3333,53.8333 64,52.5C 66.6287,52.9278 68.962,53.9278 71,55.5C 71.414,55.0426 71.914,54.7093 72.5,54.5C 74.4496,55.3721 76.4496,56.0388 78.5,56.5C 78.4701,57.4972 78.9701,58.1639 80,58.5C 97.3865,61.4112 114.72,64.4112 132,67.5C 132.483,66.552 132.649,65.552 132.5,64.5C 134.527,64.6621 136.527,64.4955 138.5,64C 136.942,63.79 135.609,63.29 134.5,62.5C 136.924,62.1924 139.257,62.5258 141.5,63.5C 140.975,64.1924 140.308,64.6924 139.5,65C 141.833,65.3333 144.167,65.6667 146.5,66C 147.126,66.7504 147.626,67.5838 148,68.5C 148.5,77.1603 148.666,85.8269 148.5,94.5C 148.5,95.8333 148.5,97.1667 148.5,98.5C 147.508,105.982 147.175,113.648 147.5,121.5C 146.78,125.73 146.113,130.063 145.5,134.5C 145.175,138.302 144.675,142.302 144,146.5C 141.617,144.725 138.95,143.392 136,142.5C 131.806,142.964 128.14,142.964 125,142.5C 124.333,139.833 123.667,139.833 123,142.5C 121.463,142.087 119.796,142.087 118,142.5C 116.238,142.056 116.405,141.556 118.5,141C 117.333,140.5 116.5,139.667 116,138.5C 114.467,138.944 112.967,139.277 111.5,139.5C 106.948,139.197 102.781,137.864 99,135.5C 96.0916,136.285 93.2582,136.619 90.5,136.5C 85.7539,135.063 80.9205,133.063 76,130.5C 75.0853,131.328 74.4186,132.328 74,133.5C 73.6258,132.584 73.1258,131.75 72.5,131C 68.7012,130.677 65.2012,129.51 62,127.5C 57.6791,128.891 55.0124,127.224 54,122.5C 53.3244,128.453 51.491,128.953 48.5,124C 43.8333,122.5 39.1667,121 34.5,119.5C 33.7542,118.264 33.4208,116.93 33.5,115.5C 32.5,115.5 31.5,115.5 30.5,115.5C 30.6602,117.199 30.4935,118.866 30,120.5C 29.6905,119.234 29.1905,118.067 28.5,117C 25.7048,115.861 23.2048,114.361 21,112.5C 20.6667,112.833 20.3333,113.167 20,113.5C 19.1632,107.163 18.4966,107.497 18,114.5C 17.7679,113.263 17.2679,112.263 16.5,111.5C 15.3842,100.325 14.3842,88.9917 13.5,77.5C 14.29,78.6085 14.79,79.9419 15,81.5C 15.3333,78.8333 15.6667,76.1667 16,73.5C 21.4245,77.7469 23.7578,83.4136 23,90.5C 23.4983,87.1832 23.665,83.8499 23.5,80.5C 24.6148,90.9863 25.2815,101.653 25.5,112.5C 53.2897,119.123 80.9563,126.123 108.5,133.5C 109.209,134.404 110.209,134.737 111.5,134.5C 112.167,134.167 112.833,133.833 113.5,133.5C 113.611,134.117 113.944,134.617 114.5,135C 120.453,136.491 126.453,137.657 132.5,138.5C 132.827,128.985 132.494,119.652 131.5,110.5C 131.565,110.062 131.399,109.728 131,109.5C 129.134,111.809 126.967,113.142 124.5,113.5C 124.557,112.391 124.89,111.391 125.5,110.5C 126.338,110.158 126.672,109.492 126.5,108.5C 126.833,107.159 127.833,105.826 129.5,104.5C 130.496,104.414 131.329,104.748 132,105.5C 132.399,100.325 131.566,95.3252 129.5,90.5C 130.065,85.2704 130.898,85.2704 132,90.5C 132.333,87.8333 132.667,85.1667 133,82.5C 134.948,87.3522 137.615,87.6856 141,83.5C 142.117,83.6651 143.284,83.9984 144.5,84.5C 145.532,79.8803 146.198,75.2137 146.5,70.5C 117.57,67.8216 89.0699,63.155 61,56.5C 58.2628,57.6105 55.4294,57.7772 52.5,57C 38.9265,54.9861 25.5932,52.1528 12.5,48.5C 12.3691,47.6236 12.7025,46.9569 13.5,46.5C 14.6493,48.9248 15.316,48.9248 15.5,46.5 Z"/></g>
<g><path style="opacity:1" fill="#e1e0e0" d="M 131.5,110.5 C 132.494,119.652 132.827,128.985 132.5,138.5C 126.453,137.657 120.453,136.491 114.5,135C 113.944,134.617 113.611,134.117 113.5,133.5C 119.5,125.833 125.5,118.167 131.5,110.5 Z"/></g>
<g><path style="opacity:1" fill="#e0ad1e" d="M 111.5,109.5 C 112.097,108.861 112.93,108.528 114,108.5C 117.714,109.869 121.547,110.536 125.5,110.5C 124.89,111.391 124.557,112.391 124.5,113.5C 122.806,114.527 121.473,115.861 120.5,117.5C 119.181,117.056 118.181,115.723 117.5,113.5C 117.586,112.504 117.252,111.671 116.5,111C 114.753,110.648 113.086,110.148 111.5,109.5 Z"/></g>
<g><path style="opacity:1" fill="#3a674e" d="M 93.5,109.5 C 92.8386,110.718 92.1719,112.051 91.5,113.5C 89.6029,111.415 87.6029,111.415 85.5,113.5C 84.5084,113.672 83.8417,113.338 83.5,112.5C 83.9382,112.565 84.2716,112.399 84.5,112C 80.0732,111.427 79.4065,109.593 82.5,106.5C 82.2964,107.529 82.7964,108.529 84,109.5C 84.6739,108.422 85.6739,107.755 87,107.5C 89.3995,107.802 91.5662,108.468 93.5,109.5 Z"/></g>
<g><path style="opacity:1" fill="#67993b" d="M 61.5,106.5 C 61.5,104.833 61.5,103.167 61.5,101.5C 65.493,100.663 69.3263,101.329 73,103.5C 73.4993,108.489 73.6659,113.489 73.5,118.5C 70.1012,117.984 66.7679,117.15 63.5,116C 62.868,112.73 62.2014,109.563 61.5,106.5 Z"/></g>
<g><path style="opacity:1" fill="#9cb19d" d="M 63.5,112.5 C 66.7411,112.878 69.7411,113.878 72.5,115.5C 70.7156,116.606 68.8822,116.606 67,115.5C 65.0503,115.293 63.8836,114.293 63.5,112.5 Z"/></g>
<g><path style="opacity:1" fill="#b98362" d="M 48.5,111.5 C 46.139,111.326 43.8056,110.993 41.5,110.5C 41.238,109.022 41.5713,107.689 42.5,106.5C 44.1151,107.154 45.7818,107.654 47.5,108C 48.3366,109.011 48.67,110.178 48.5,111.5 Z"/></g>
<g><path style="opacity:1" fill="#dd9321" d="M 114.5,101.5 C 116.275,102.629 117.942,103.629 119.5,104.5C 119.5,104.833 119.5,105.167 119.5,105.5C 121.461,107.113 123.794,108.113 126.5,108.5C 126.672,109.492 126.338,110.158 125.5,110.5C 121.547,110.536 117.714,109.869 114,108.5C 112.93,108.528 112.097,108.861 111.5,109.5C 110.957,109.44 110.624,109.107 110.5,108.5C 112.098,106.302 113.431,103.969 114.5,101.5 Z"/></g>
<g><path style="opacity:1" fill="#b1c4a2" d="M 63.5,104.5 C 64.8195,105.942 66.4862,106.608 68.5,106.5C 68.719,107.675 68.3857,108.675 67.5,109.5C 66.2638,108.754 64.9305,108.421 63.5,108.5C 63.5,107.167 63.5,105.833 63.5,104.5 Z"/></g>
<g><path style="opacity:1" fill="#8e8f94" d="M 31.5,103.5 C 34.7682,103.634 37.1016,105.134 38.5,108C 37.2068,108.49 35.8734,108.657 34.5,108.5C 34.1667,108.5 33.8333,108.5 33.5,108.5C 32.5592,106.95 31.8925,105.284 31.5,103.5 Z"/></g>
<g><path style="opacity:1" fill="#6d6d6d" d="M 128.5,97.5 C 128.123,99.258 127.456,100.925 126.5,102.5C 127.005,103.919 128.005,104.585 129.5,104.5C 127.833,105.826 126.833,107.159 126.5,108.5C 123.794,108.113 121.461,107.113 119.5,105.5C 120.376,105.631 121.043,105.298 121.5,104.5C 122.747,101.671 124.247,99.0048 126,96.5C 126.951,96.8836 127.784,97.2169 128.5,97.5 Z"/></g>
<g><path style="opacity:1" fill="#727573" d="M 50.5,98.5 C 52.8568,98.3367 55.1902,98.5034 57.5,99C 59.3197,99.2004 60.653,100.034 61.5,101.5C 61.5,103.167 61.5,104.833 61.5,106.5C 61.5,109.5 61.5,112.5 61.5,115.5C 57.7612,114.697 54.0946,113.697 50.5,112.5C 50.5,107.833 50.5,103.167 50.5,98.5 Z"/></g>
<g><path style="opacity:1" fill="#bcbcbc" d="M 55.5,100.5 C 56.1174,100.611 56.6174,100.944 57,101.5C 57.567,104.168 58.067,106.834 58.5,109.5C 54.0805,108.91 53.4138,106.91 56.5,103.5C 54.565,102.787 54.2317,101.787 55.5,100.5 Z"/></g>
<g><path style="opacity:1" fill="#ae7a20" d="M 50.5,98.5 C 50.5,103.167 50.5,107.833 50.5,112.5C 49.5084,112.672 48.8417,112.338 48.5,111.5C 48.67,110.178 48.3366,109.011 47.5,108C 45.7818,107.654 44.1151,107.154 42.5,106.5C 41.5713,107.689 41.238,109.022 41.5,110.5C 40.8333,108.5 40.1667,106.5 39.5,104.5C 39.5,101.833 39.5,99.1667 39.5,96.5C 43.2805,95.8537 46.9472,96.5204 50.5,98.5 Z"/></g>
<g><path style="opacity:1" fill="#75847c" d="M 94.5,84.5 C 93.5098,90.6446 93.1765,96.9779 93.5,103.5C 91.901,103.768 90.5676,103.434 89.5,102.5C 90.1667,102.5 90.8333,102.5 91.5,102.5C 92.1666,96.3208 92.8332,89.9875 93.5,83.5C 94.1067,83.6236 94.44,83.9569 94.5,84.5 Z"/></g>
<g><path style="opacity:1" fill="#1c759f" d="M 36.5,94.5 C 37.1667,94.5 37.8333,94.5 38.5,94.5C 38.8333,95.1667 39.1667,95.8333 39.5,96.5C 39.5,99.1667 39.5,101.833 39.5,104.5C 39.5,106.167 39.5,107.833 39.5,109.5C 37.5853,109.784 35.9187,109.451 34.5,108.5C 35.8734,108.657 37.2068,108.49 38.5,108C 37.1016,105.134 34.7682,103.634 31.5,103.5C 32.795,102.512 34.1283,101.512 35.5,100.5C 37.8454,99.0121 38.1788,97.0121 36.5,94.5 Z"/></g>
<g><path style="opacity:1" fill="#24435f" d="M 29.5,96.5 C 32.7848,97.0892 33.1181,98.2559 30.5,100C 32.9034,100.63 34.7367,99.7969 36,97.5C 36.4696,98.5768 36.3029,99.5768 35.5,100.5C 34.1283,101.512 32.795,102.512 31.5,103.5C 31.8925,105.284 32.5592,106.95 33.5,108.5C 31.9826,108.489 30.8159,107.823 30,106.5C 29.9968,103.348 29.8301,100.015 29.5,96.5 Z"/></g>
<g><path style="opacity:1" fill="#757676" d="M 100.5,93.5 C 100.824,97.5546 100.491,101.555 99.5,105.5C 98.8933,105.376 98.56,105.043 98.5,104.5C 99.1667,100.833 99.8333,97.1667 100.5,93.5 Z"/></g>
<g><path style="opacity:1" fill="#687c70" d="M 67.5,79.5 C 67.8333,79.5 68.1667,79.5 68.5,79.5C 67.9401,86.1213 68.6068,92.4546 70.5,98.5C 69.0413,98.5674 67.7079,98.2341 66.5,97.5C 66.5,95.5 66.5,93.5 66.5,91.5C 67.4834,87.7016 67.8168,83.7016 67.5,79.5 Z"/></g>
<g><path style="opacity:1" fill="#94afc0" d="M 32.5,93.5 C 33.5676,94.4345 34.901,94.7678 36.5,94.5C 38.1788,97.0121 37.8454,99.0121 35.5,100.5C 36.3029,99.5768 36.4696,98.5768 36,97.5C 34.7367,99.7969 32.9034,100.63 30.5,100C 33.1181,98.2559 32.7848,97.0892 29.5,96.5C 29.5,95.5 29.5,94.5 29.5,93.5C 30.5,93.5 31.5,93.5 32.5,93.5 Z"/></g>
<g><path style="opacity:1" fill="#797a79" d="M 127.5,82.5 C 126.297,86.1101 125.297,89.7768 124.5,93.5C 122.965,94.7879 121.299,94.7879 119.5,93.5C 120.015,91.7749 120.682,90.1083 121.5,88.5C 122.086,88.7093 122.586,89.0426 123,89.5C 124.419,87.0071 125.919,84.6737 127.5,82.5 Z"/></g>
<g><path style="opacity:1" fill="#ebeaea" d="M 91.5,102.5 C 90.8333,102.5 90.1667,102.5 89.5,102.5C 85.1972,101.395 81.0305,100.062 77,98.5C 76.1955,95.3035 76.3622,92.3035 77.5,89.5C 79.924,89.8076 82.2573,89.4742 84.5,88.5C 84.1667,87.5 83.5,86.8333 82.5,86.5C 80.5914,87.3482 78.5914,87.6816 76.5,87.5C 76.1464,81.7962 78.813,79.9629 84.5,82C 86.1667,83 87.8333,84 89.5,85C 90.1874,90.8318 90.854,96.6652 91.5,102.5 Z"/></g>
<g><path style="opacity:1" fill="#6a766f" d="M 83.5,92.5 C 84.4345,93.5676 84.7678,94.901 84.5,96.5C 83.325,96.719 82.325,96.3857 81.5,95.5C 82.1925,94.4822 82.8592,93.4822 83.5,92.5 Z"/></g>
<g><path style="opacity:1" fill="#4c514c" d="M 77.5,89.5 C 77.1667,88.8333 76.8333,88.1667 76.5,87.5C 78.5914,87.6816 80.5914,87.3482 82.5,86.5C 83.5,86.8333 84.1667,87.5 84.5,88.5C 82.2573,89.4742 79.924,89.8076 77.5,89.5 Z"/></g>
<g><path style="opacity:1" fill="#ecebeb" d="M 94.5,84.5 C 96.1667,84.5 97.8333,84.5 99.5,84.5C 99.3505,85.552 99.5172,86.552 100,87.5C 101.11,85.9632 102.61,85.2965 104.5,85.5C 104.802,88.0593 104.468,90.3926 103.5,92.5C 102.209,92.2627 101.209,92.596 100.5,93.5C 99.8333,97.1667 99.1667,100.833 98.5,104.5C 97.0813,103.549 95.4147,103.216 93.5,103.5C 93.1765,96.9779 93.5098,90.6446 94.5,84.5 Z"/></g>
<g><path style="opacity:1" fill="#7b827a" d="M 103.5,92.5 C 104.468,90.3926 104.802,88.0593 104.5,85.5C 105.575,84.4376 106.575,84.4376 107.5,85.5C 106.078,87.9647 105.078,90.6313 104.5,93.5C 103.893,93.3764 103.56,93.0431 103.5,92.5 Z"/></g>
<g><path style="opacity:1" fill="#888c88" d="M 37.5,84.5 C 35.9201,86.7171 34.9201,89.3837 34.5,92.5C 33.8933,92.3764 33.56,92.0431 33.5,91.5C 34.4731,89.0521 34.8064,86.3854 34.5,83.5C 35.791,83.2627 36.791,83.596 37.5,84.5 Z"/></g>
<g><path style="opacity:1" fill="#ececec" d="M 68.5,79.5 C 69.5,79.5 70.5,79.5 71.5,79.5C 72.1667,79.5 72.8333,79.5 73.5,79.5C 73.8333,79.5 74.1667,79.5 74.5,79.5C 74.5,85.8333 74.5,92.1667 74.5,98.5C 73.1667,98.5 71.8333,98.5 70.5,98.5C 68.6068,92.4546 67.9401,86.1213 68.5,79.5 Z"/></g>
<g><path style="opacity:1" fill="#ebeaea" d="M 58.5,82.5 C 58.7852,84.288 58.4519,85.9547 57.5,87.5C 55.5914,86.6518 53.5914,86.3184 51.5,86.5C 51.281,87.675 51.6143,88.675 52.5,89.5C 57.2244,87.845 58.8911,89.345 57.5,94C 55.5273,94.4955 53.5273,94.6621 51.5,94.5C 49.9382,94.2671 48.6049,93.6005 47.5,92.5C 45.936,88.3263 45.2694,83.993 45.5,79.5C 46.4615,75.8539 48.7949,74.6872 52.5,76C 56.0894,76.7542 58.0894,78.9209 58.5,82.5 Z"/></g>
<g><path style="opacity:1" fill="#9f5b58" d="M 74.5,79.5 C 74.1667,79.5 73.8333,79.5 73.5,79.5C 73.5,77.8333 73.5,76.1667 73.5,74.5C 71.8333,74.5 70.1667,74.5 68.5,74.5C 68.5,75.8333 68.5,77.1667 68.5,78.5C 69.791,78.2627 70.791,78.596 71.5,79.5C 70.5,79.5 69.5,79.5 68.5,79.5C 68.1667,79.5 67.8333,79.5 67.5,79.5C 67.5,77.5 67.5,75.5 67.5,73.5C 69.8333,73.5 72.1667,73.5 74.5,73.5C 74.5,75.5 74.5,77.5 74.5,79.5 Z"/></g>
<g><path style="opacity:1" fill="#df1424" d="M 73.5,79.5 C 72.8333,79.5 72.1667,79.5 71.5,79.5C 70.791,78.596 69.791,78.2627 68.5,78.5C 68.5,77.1667 68.5,75.8333 68.5,74.5C 70.1667,74.5 71.8333,74.5 73.5,74.5C 73.5,76.1667 73.5,77.8333 73.5,79.5 Z"/></g>
<g><path style="opacity:1" fill="#9da69f" d="M 85.5,113.5 C 87.6029,111.415 89.6029,111.415 91.5,113.5C 92.1719,112.051 92.8386,110.718 93.5,109.5C 91.5662,108.468 89.3995,107.802 87,107.5C 85.6739,107.755 84.6739,108.422 84,109.5C 82.7964,108.529 82.2964,107.529 82.5,106.5C 79.4065,109.593 80.0732,111.427 84.5,112C 84.2716,112.399 83.9382,112.565 83.5,112.5C 78.9407,112.121 77.6074,109.787 79.5,105.5C 80.1667,105.167 80.8333,104.833 81.5,104.5C 86.4854,105.73 91.4854,106.897 96.5,108C 97.428,108.388 98.0946,109.055 98.5,110C 97.7135,112.099 97.3801,114.266 97.5,116.5C 100.397,116.125 103.063,116.625 105.5,118C 103.431,118.324 103.098,119.158 104.5,120.5C 103.975,121.192 103.308,121.692 102.5,122C 104.645,122.743 104.811,123.576 103,124.5C 99.7572,123.731 96.5905,122.731 93.5,121.5C 92.5522,118.285 91.2189,117.952 89.5,120.5C 89.2947,118.448 89.2947,116.114 89.5,113.5C 88.1667,113.5 86.8333,113.5 85.5,113.5 Z"/></g>
<g><path style="opacity:1" fill="#2f5e43" d="M 93.5,109.5 C 94.5,109.5 95.5,109.5 96.5,109.5C 96.7852,111.288 96.4519,112.955 95.5,114.5C 93.7826,113.332 93.1159,111.665 93.5,109.5 Z"/></g>
<g><path style="opacity:1" fill="#29513a" d="M 99.5,118.5 C 99.56,117.957 99.8933,117.624 100.5,117.5C 101.833,119.167 101.833,120.833 100.5,122.5C 100.24,121.095 99.9066,119.762 99.5,118.5 Z"/></g>
<g><path style="opacity:1" fill="#b9bab3" d="M 145.5,134.5 C 146.113,130.063 146.78,125.73 147.5,121.5C 147.5,137.5 147.5,153.5 147.5,169.5C 146.859,167.958 145.859,166.624 144.5,165.5C 143.914,165.709 143.414,166.043 143,166.5C 141.566,164.864 139.733,163.864 137.5,163.5C 136.914,163.709 136.414,164.043 136,164.5C 132.698,162.242 129.031,160.575 125,159.5C 123.354,161.141 122.354,160.807 122,158.5C 121.667,158.833 121.333,159.167 121,159.5C 118.086,157.603 115.253,156.269 112.5,155.5C 110.267,154.385 108.101,154.385 106,155.5C 101.827,152.547 97.1604,150.547 92,149.5C 73.4699,143.877 54.6365,138.544 35.5,133.5C 33.0646,135.279 32.0646,134.613 32.5,131.5C 27.7248,131.579 23.2248,130.579 19,128.5C 18.5065,130.134 18.3398,131.801 18.5,133.5C 18.1667,133.5 17.8333,133.5 17.5,133.5C 17.4971,128.473 17.1637,123.473 16.5,118.5C 17.2216,118.918 17.7216,119.584 18,120.5C 18.3333,119.167 18.6667,117.833 19,116.5C 19.6152,118.116 20.6152,119.449 22,120.5C 23.5252,120.888 25.1918,120.888 27,120.5C 28.353,121.685 29.5197,123.019 30.5,124.5C 31.2508,123.624 31.7508,122.624 32,121.5C 33.1011,123.394 34.4345,124.061 36,123.5C 36.9814,126.655 38.3148,126.988 40,124.5C 41.6816,126.599 43.3483,127.932 45,128.5C 46.4253,129.079 48.092,129.079 50,128.5C 50.8333,129.5 51.6667,130.5 52.5,131.5C 53.4865,127.625 54.6532,127.625 56,131.5C 57.8685,132.623 59.8685,132.623 62,131.5C 62.8333,132.5 63.6667,133.5 64.5,134.5C 65.7164,133.998 66.8831,133.665 68,133.5C 70.3624,134.626 72.5291,135.96 74.5,137.5C 75.2508,136.624 75.7508,135.624 76,134.5C 76.6667,135.833 77.6667,136.833 79,137.5C 81.3333,138.833 83.6667,138.833 86,137.5C 87.5944,138.573 89.0944,139.573 90.5,140.5C 92.3775,140.377 94.2109,140.377 96,140.5C 96.3076,141.308 96.8076,141.975 97.5,142.5C 98.8425,141.098 99.6758,141.431 100,143.5C 100.741,142.359 101.575,142.359 102.5,143.5C 103.192,142.975 103.692,142.308 104,141.5C 104.419,142.672 105.085,143.672 106,144.5C 107.911,144.745 109.911,144.745 112,144.5C 112.689,145.357 113.522,146.023 114.5,146.5C 115.967,146.277 117.467,145.944 119,145.5C 120.91,146.206 122.91,147.206 125,148.5C 126.583,148.507 128.249,148.174 130,147.5C 132.333,148.5 134.667,149.5 137,150.5C 137.333,150.167 137.667,149.833 138,149.5C 139.555,151.146 141.221,151.479 143,150.5C 143.451,152.929 144.285,153.096 145.5,151C 145.951,145.531 145.951,140.031 145.5,134.5 Z"/></g>
<g><path style="opacity:1" fill="#a2a5a7" d="M 113.5,80.5 C 118.453,80.1228 123.119,80.7895 127.5,82.5C 125.919,84.6737 124.419,87.0071 123,89.5C 122.586,89.0426 122.086,88.7093 121.5,88.5C 120.682,90.1083 120.015,91.7749 119.5,93.5C 121.299,94.7879 122.965,94.7879 124.5,93.5C 127.832,93.4838 129.166,94.8171 128.5,97.5C 127.784,97.2169 126.951,96.8836 126,96.5C 124.247,99.0048 122.747,101.671 121.5,104.5C 121.043,105.298 120.376,105.631 119.5,105.5C 119.5,105.167 119.5,104.833 119.5,104.5C 120.737,103.035 121.737,101.368 122.5,99.5C 122.804,98.8501 123.137,98.1835 123.5,97.5C 121.149,96.9882 119.149,95.9882 117.5,94.5C 118.833,90.8333 120.167,87.1667 121.5,83.5C 119.337,81.2802 116.837,80.9469 114,82.5C 112.198,87.0952 110.698,91.7619 109.5,96.5C 108.596,97.209 108.263,98.209 108.5,99.5C 110.898,99.2594 112.898,99.9261 114.5,101.5C 113.431,103.969 112.098,106.302 110.5,108.5C 110.624,109.107 110.957,109.44 111.5,109.5C 113.086,110.148 114.753,110.648 116.5,111C 117.252,111.671 117.586,112.504 117.5,113.5C 115.56,117.589 114.394,121.922 114,126.5C 116.385,123.621 118.552,120.621 120.5,117.5C 121.473,115.861 122.806,114.527 124.5,113.5C 119.916,120.332 115.583,127.332 111.5,134.5C 110.209,134.737 109.209,134.404 108.5,133.5C 109.586,133.38 110.253,132.713 110.5,131.5C 112.012,125.118 113.679,118.785 115.5,112.5C 113.314,111.779 111.147,111.113 109,110.5C 108.915,107.639 109.749,104.972 111.5,102.5C 110.332,100.783 108.665,100.116 106.5,100.5C 108.462,93.6089 110.796,86.9422 113.5,80.5 Z"/></g>
<g><path style="opacity:1" fill="#d4c11a" d="M 117.5,113.5 C 118.181,115.723 119.181,117.056 120.5,117.5C 118.552,120.621 116.385,123.621 114,126.5C 114.394,121.922 115.56,117.589 117.5,113.5 Z"/></g>
<g><path style="opacity:1" fill="#d86629" d="M 122.5,99.5 C 121.737,101.368 120.737,103.035 119.5,104.5C 117.942,103.629 116.275,102.629 114.5,101.5C 112.898,99.9261 110.898,99.2594 108.5,99.5C 108.263,98.209 108.596,97.209 109.5,96.5C 111.667,94.4409 113.5,95.1076 115,98.5C 115.333,98.1667 115.667,97.8333 116,97.5C 118.087,98.3972 120.254,99.0639 122.5,99.5 Z"/></g>
<g><path style="opacity:1" fill="#d02724" d="M 122.5,99.5 C 120.254,99.0639 118.087,98.3972 116,97.5C 115.667,97.8333 115.333,98.1667 115,98.5C 113.5,95.1076 111.667,94.4409 109.5,96.5C 110.698,91.7619 112.198,87.0952 114,82.5C 116.837,80.9469 119.337,81.2802 121.5,83.5C 120.167,87.1667 118.833,90.8333 117.5,94.5C 119.149,95.9882 121.149,96.9882 123.5,97.5C 123.137,98.1835 122.804,98.8501 122.5,99.5 Z"/></g>
<g><path style="opacity:1" fill="#666665" d="M 131.5,110.5 C 125.5,118.167 119.5,125.833 113.5,133.5C 112.833,133.833 112.167,134.167 111.5,134.5C 115.583,127.332 119.916,120.332 124.5,113.5C 126.967,113.142 129.134,111.809 131,109.5C 131.399,109.728 131.565,110.062 131.5,110.5 Z"/></g>
<g><path style="opacity:1" fill="#777873" d="M 194.5,38.5 C 193.85,38.8039 193.183,39.1373 192.5,39.5C 190.687,69.8836 189.02,100.217 187.5,130.5C 185.737,129.046 184.403,129.38 183.5,131.5C 182.142,130.374 180.808,130.374 179.5,131.5C 175.849,135.652 172.016,139.652 168,143.5C 167.167,142.667 166.333,141.833 165.5,141C 165.5,139.667 165.5,138.333 165.5,137C 167.833,133.333 170.167,129.667 172.5,126C 171.833,125.333 171.167,124.667 170.5,124C 173.167,122.667 173.167,121.333 170.5,120C 171.833,118.667 173.167,117.333 174.5,116C 174.167,115 173.833,114 173.5,113C 176.474,111.494 176.807,109.828 174.5,108C 176.807,106.172 176.474,104.506 173.5,103C 176.14,102.453 178.474,100.787 180.5,98C 177.833,96.6667 177.833,95.3333 180.5,94C 177.099,91.2946 177.433,88.6279 181.5,86C 180.833,85.3333 180.167,84.6667 179.5,84C 180.743,82.8455 181.743,81.5122 182.5,80C 182.5,78.3333 182.5,76.6667 182.5,75C 183.5,74 184.5,73 185.5,72C 184.747,70.513 183.914,70.3463 183,71.5C 182.333,70.5 182.333,69.5 183,68.5C 185.861,68.9082 186.028,68.0749 183.5,66C 184.833,65.3333 186.167,64.6667 187.5,64C 186.874,63.2496 186.374,62.4162 186,61.5C 183.925,64.0281 183.092,63.8614 183.5,61C 180.969,59.5112 178.802,57.6778 177,55.5C 175.457,57.3783 173.624,58.8783 171.5,60C 172.308,60.3076 172.975,60.8076 173.5,61.5C 171.472,63.6407 168.972,64.974 166,65.5C 164.666,64.1221 164.499,62.7887 165.5,61.5C 168.433,59.3548 171.433,57.1882 174.5,55C 173.944,54.6174 173.611,54.1174 173.5,53.5C 175.819,54.167 178.153,54.3336 180.5,54C 179.263,53.7679 178.263,53.2679 177.5,52.5C 182.015,50.5677 186.348,48.0677 190.5,45C 189.09,43.6283 187.423,42.795 185.5,42.5C 187.765,40.358 190.432,38.6913 193.5,37.5C 194.107,37.6236 194.44,37.9569 194.5,38.5 Z"/></g>
<g><path style="opacity:1" fill="#8a8987" d="M 118.5,131.5 C 120.435,130.291 122.435,130.458 124.5,132C 123.167,132.333 121.833,132.667 120.5,133C 122.5,133.667 124.5,134.333 126.5,135C 124.153,135.334 121.819,135.167 119.5,134.5C 119.737,133.209 119.404,132.209 118.5,131.5 Z"/></g>
<g><path style="opacity:0.996" fill="#525450" d="M 126.5,129.5 C 129.423,130.163 130.09,131.83 128.5,134.5C 126.783,133.332 126.116,131.665 126.5,129.5 Z"/></g>
<g><path style="opacity:1" fill="#fafaf8" d="M 17.5,133.5 C 17.8333,133.5 18.1667,133.5 18.5,133.5C 26.9961,136.498 35.6627,138.998 44.5,141C 46.4909,142.158 48.1576,143.658 49.5,145.5C 50.548,144.617 51.7147,143.95 53,143.5C 55.368,144.717 57.868,145.551 60.5,146C 61.7875,147.41 62.9542,148.91 64,150.5C 64.956,149.106 66.2894,148.439 68,148.5C 72.4755,148.971 75.9755,150.971 78.5,154.5C 79.5,153.833 80.5,153.167 81.5,152.5C 84.7012,153.453 87.7012,154.786 90.5,156.5C 89.518,158.834 89.3513,161.168 90,163.5C 89.221,162.272 88.221,161.272 87,160.5C 83.7572,159.731 80.5905,158.731 77.5,157.5C 76.8333,157.833 76.1667,158.167 75.5,158.5C 74.2311,156.82 72.5644,155.653 70.5,155C 67.6484,154.731 64.9818,153.897 62.5,152.5C 61.8076,153.025 61.3076,153.692 61,154.5C 58.5725,151.43 55.4058,149.596 51.5,149C 49.5594,148.257 47.7261,148.424 46,149.5C 45.1667,148.667 44.3333,147.833 43.5,147C 36.0541,143.926 28.3874,141.593 20.5,140C 18.2404,139.451 16.5738,138.284 15.5,136.5C 15.8333,135.833 16.1667,135.167 16.5,134.5C 17.1667,134.5 17.5,134.167 17.5,133.5 Z"/></g>
<g><path style="opacity:1" fill="#f5f6f1" d="M 187.5,130.5 C 188.167,131.167 188.833,131.833 189.5,132.5C 185.263,137.916 180.763,143.25 176,148.5C 175.51,149.793 175.343,151.127 175.5,152.5C 174.178,152.33 173.011,152.663 172,153.5C 169.333,156.833 166.667,160.167 164,163.5C 163.517,164.448 163.351,165.448 163.5,166.5C 161.019,166.774 159.353,168.107 158.5,170.5C 155.784,170.614 153.784,169.614 152.5,167.5C 153.708,164.956 155.708,163.622 158.5,163.5C 158.5,162.5 158.5,161.5 158.5,160.5C 167.07,151.02 175.403,141.353 183.5,131.5C 184.403,129.38 185.737,129.046 187.5,130.5 Z"/></g>
<g><path style="opacity:1" fill="#797a75" d="M 189.5,132.5 C 190.756,134.726 190.756,137.059 189.5,139.5C 188.167,140.167 187.167,141.167 186.5,142.5C 177.595,153.31 168.928,164.31 160.5,175.5C 159.883,175.611 159.383,175.944 159,176.5C 158.505,174.527 158.338,172.527 158.5,170.5C 159.353,168.107 161.019,166.774 163.5,166.5C 163.351,165.448 163.517,164.448 164,163.5C 166.667,160.167 169.333,156.833 172,153.5C 173.011,152.663 174.178,152.33 175.5,152.5C 175.343,151.127 175.51,149.793 176,148.5C 180.763,143.25 185.263,137.916 189.5,132.5 Z"/></g>
<g><path style="opacity:0.251" fill="#8b8d87" d="M 189.5,139.5 C 191.183,145.772 189.85,151.439 185.5,156.5C 183.844,158.46 182.177,160.46 180.5,162.5C 177.453,165.545 174.787,168.878 172.5,172.5C 170.863,174.475 169.196,176.475 167.5,178.5C 166.512,179.795 165.512,181.128 164.5,182.5C 162.5,184.833 160.5,187.167 158.5,189.5C 158.034,184.57 158.701,179.903 160.5,175.5C 161.75,175.577 162.583,176.244 163,177.5C 164.973,170.837 168.64,165.17 174,160.5C 174.333,161.167 174.667,161.833 175,162.5C 176.782,156.284 180.115,150.951 185,146.5C 185.317,148.301 185.984,148.634 187,147.5C 187.78,145.613 187.613,143.946 186.5,142.5C 187.167,141.167 188.167,140.167 189.5,139.5 Z"/></g>
<g><path style="opacity:0.089" fill="#b2b3ac" d="M 15.5,152.5 C 57.77,165.985 100.103,179.318 142.5,192.5C 142.435,192.938 142.601,193.272 143,193.5C 145.761,192.501 147.094,190.501 147,187.5C 147.656,191.002 148.989,191.002 151,187.5C 151.172,180.654 151.672,173.987 152.5,167.5C 153.784,169.614 155.784,170.614 158.5,170.5C 158.338,172.527 158.505,174.527 159,176.5C 159.383,175.944 159.883,175.611 160.5,175.5C 158.701,179.903 158.034,184.57 158.5,189.5C 158.167,190.167 157.833,190.833 157.5,191.5C 157.167,191.5 156.833,191.5 156.5,191.5C 155.811,190.226 154.977,190.226 154,191.5C 153.612,190.572 152.945,189.905 152,189.5C 150.636,190.371 149.47,191.371 148.5,192.5C 147.508,192.328 146.842,192.662 146.5,193.5C 145.128,194.512 143.795,195.512 142.5,196.5C 141.833,196.5 141.167,196.5 140.5,196.5C 140.158,195.662 139.492,195.328 138.5,195.5C 138.167,194.167 137.833,194.167 137.5,195.5C 136.833,195.167 136.167,194.833 135.5,194.5C 135.167,193.167 134.833,193.167 134.5,194.5C 133.833,194.167 133.167,193.833 132.5,193.5C 132.167,192.167 131.833,192.167 131.5,193.5C 130.609,192.89 129.609,192.557 128.5,192.5C 128.158,191.662 127.492,191.328 126.5,191.5C 126.167,190.167 125.833,190.167 125.5,191.5C 125.167,191.5 124.833,191.5 124.5,191.5C 124.158,190.662 123.492,190.328 122.5,190.5C 121.811,189.226 120.977,189.226 120,190.5C 119.333,187.833 118.667,187.833 118,190.5C 117.722,189.584 117.222,188.918 116.5,188.5C 116.167,187.167 115.833,187.167 115.5,188.5C 114.833,188.167 114.167,187.833 113.5,187.5C 113.167,186.167 112.833,186.167 112.5,187.5C 111.833,187.167 111.167,186.833 110.5,186.5C 110.167,185.167 109.833,185.167 109.5,186.5C 109.167,186.5 108.833,186.5 108.5,186.5C 108.158,185.662 107.492,185.328 106.5,185.5C 106.167,184.167 105.833,184.167 105.5,185.5C 104.833,185.167 104.167,184.833 103.5,184.5C 103.167,183.167 102.833,183.167 102.5,184.5C 101.833,184.167 101.167,183.833 100.5,183.5C 100.167,182.167 99.8333,182.167 99.5,183.5C 98.8333,183.167 98.1667,182.833 97.5,182.5C 96.4341,181.308 95.6008,181.641 95,183.5C 94.6411,180.456 93.9745,180.122 93,182.5C 92.7216,181.584 92.2216,180.918 91.5,180.5C 90.2069,180.125 88.8736,179.792 87.5,179.5C 87.1667,178.167 86.8333,178.167 86.5,179.5C 85.8333,179.167 85.1667,178.833 84.5,178.5C 83.8106,177.226 82.9772,177.226 82,178.5C 81.3333,175.833 80.6667,175.833 80,178.5C 79.7216,177.584 79.2216,176.918 78.5,176.5C 77.4341,175.308 76.6008,175.641 76,177.5C 75.7216,176.584 75.2216,175.918 74.5,175.5C 74.1667,174.167 73.8333,174.167 73.5,175.5C 72.609,174.89 71.609,174.557 70.5,174.5C 69.02,172.397 67.8534,172.397 67,174.5C 66.7216,173.584 66.2216,172.918 65.5,172.5C 64.8106,171.226 63.9772,171.226 63,172.5C 62.3333,169.833 61.6667,169.833 61,172.5C 60.7216,171.584 60.2216,170.918 59.5,170.5C 58.4341,169.308 57.6008,169.641 57,171.5C 56.7216,170.584 56.2216,169.918 55.5,169.5C 55.1667,168.167 54.8333,168.167 54.5,169.5C 53.609,168.89 52.609,168.557 51.5,168.5C 51.1583,167.662 50.4916,167.328 49.5,167.5C 49.1667,166.167 48.8333,166.167 48.5,167.5C 47.8333,167.167 47.1667,166.833 46.5,166.5C 46.1667,165.167 45.8333,165.167 45.5,166.5C 44.8333,166.167 44.1667,165.833 43.5,165.5C 43.1667,164.167 42.8333,164.167 42.5,165.5C 41.8333,165.167 41.1667,164.833 40.5,164.5C 39.2069,164.125 37.8736,163.792 36.5,163.5C 36.1667,162.167 35.8333,162.167 35.5,163.5C 34.8333,163.167 34.1667,162.833 33.5,162.5C 32.8106,161.226 31.9772,161.226 31,162.5C 30.3333,159.833 29.6667,159.833 29,162.5C 28.7216,161.584 28.2216,160.918 27.5,160.5C 26.2069,160.125 24.8736,159.792 23.5,159.5C 23.1667,158.167 22.8333,158.167 22.5,159.5C 21.7784,159.082 21.2784,158.416 21,157.5C 20.0138,158.171 18.8471,158.171 17.5,157.5C 17.1667,156.167 16.8333,156.167 16.5,157.5C 15.0719,155.926 14.7386,154.259 15.5,152.5 Z"/></g>
<g><path style="opacity:0.055" fill="#989a93" d="M 185.5,156.5 C 186.833,157.167 186.833,157.167 185.5,156.5 Z"/></g>
<g><path style="opacity:0.055" fill="#989a93" d="M 16.5,157.5 C 16.8333,157.5 17.1667,157.5 17.5,157.5C 17.3147,158.17 16.9813,158.17 16.5,157.5 Z"/></g>
<g><path style="opacity:0.38" fill="#d2d3cc" d="M 141.5,182.5 C 142.341,184.379 142.675,186.379 142.5,188.5C 142.5,188.833 142.5,189.167 142.5,189.5C 100.148,176.705 57.9815,163.371 16,149.5C 15.3333,147.5 15.3333,145.5 16,143.5C 45.0343,153.012 74.2009,162.012 103.5,170.5C 103.543,174.59 104.876,175.257 107.5,172.5C 118.768,176.149 130.101,179.483 141.5,182.5 Z"/></g>
<g><path style="opacity:0.055" fill="#989a93" d="M 22.5,159.5 C 22.8333,159.5 23.1667,159.5 23.5,159.5C 23.3147,160.17 22.9813,160.17 22.5,159.5 Z"/></g>
<g><path style="opacity:0.055" fill="#989a93" d="M 27.5,160.5 C 26.8333,161.167 26.8333,161.167 27.5,160.5 Z"/></g>
<g><path style="opacity:1" fill="#fbfbf9" d="M 146.5,171.5 C 145.136,173.191 143.803,174.858 142.5,176.5C 130.082,173.418 117.749,170.084 105.5,166.5C 105.641,163.52 107.141,161.52 110,160.5C 122.093,164.476 134.26,168.143 146.5,171.5 Z"/></g>
<g><path style="opacity:0.055" fill="#989a93" d="M 33.5,162.5 C 32.8333,163.167 32.8333,163.167 33.5,162.5 Z"/></g>
<g><path style="opacity:1" fill="#c2c4bc" d="M 147.5,169.5 C 147.167,170.167 146.833,170.833 146.5,171.5C 134.26,168.143 122.093,164.476 110,160.5C 107.141,161.52 105.641,163.52 105.5,166.5C 117.749,170.084 130.082,173.418 142.5,176.5C 142.675,178.621 142.341,180.621 141.5,182.5C 130.101,179.483 118.768,176.149 107.5,172.5C 104.876,175.257 103.543,174.59 103.5,170.5C 74.2009,162.012 45.0343,153.012 16,143.5C 15.3333,145.5 15.3333,147.5 16,149.5C 57.9815,163.371 100.148,176.705 142.5,189.5C 142.5,190.5 142.5,191.5 142.5,192.5C 100.103,179.318 57.77,165.985 15.5,152.5C 14.1667,147.167 14.1667,141.833 15.5,136.5C 16.5738,138.284 18.2404,139.451 20.5,140C 28.3874,141.593 36.0541,143.926 43.5,147C 44.3333,147.833 45.1667,148.667 46,149.5C 47.7261,148.424 49.5594,148.257 51.5,149C 55.4058,149.596 58.5725,151.43 61,154.5C 61.3076,153.692 61.8076,153.025 62.5,152.5C 64.9818,153.897 67.6484,154.731 70.5,155C 72.5644,155.653 74.2311,156.82 75.5,158.5C 76.1667,158.167 76.8333,157.833 77.5,157.5C 80.5905,158.731 83.7572,159.731 87,160.5C 88.221,161.272 89.221,162.272 90,163.5C 89.3513,161.168 89.518,158.834 90.5,156.5C 87.7012,154.786 84.7012,153.453 81.5,152.5C 80.5,153.167 79.5,153.833 78.5,154.5C 75.9755,150.971 72.4755,148.971 68,148.5C 66.2894,148.439 64.956,149.106 64,150.5C 62.9542,148.91 61.7875,147.41 60.5,146C 57.868,145.551 55.368,144.717 53,143.5C 51.7147,143.95 50.548,144.617 49.5,145.5C 48.1576,143.658 46.4909,142.158 44.5,141C 35.6627,138.998 26.9961,136.498 18.5,133.5C 18.3398,131.801 18.5065,130.134 19,128.5C 23.2248,130.579 27.7248,131.579 32.5,131.5C 32.0646,134.613 33.0646,135.279 35.5,133.5C 54.6365,138.544 73.4699,143.877 92,149.5C 97.1604,150.547 101.827,152.547 106,155.5C 108.101,154.385 110.267,154.385 112.5,155.5C 115.253,156.269 118.086,157.603 121,159.5C 121.333,159.167 121.667,158.833 122,158.5C 122.354,160.807 123.354,161.141 125,159.5C 129.031,160.575 132.698,162.242 136,164.5C 136.414,164.043 136.914,163.709 137.5,163.5C 139.733,163.864 141.566,164.864 143,166.5C 143.414,166.043 143.914,165.709 144.5,165.5C 145.859,166.624 146.859,167.958 147.5,169.5 Z"/></g>
<g><path style="opacity:1" fill="#fafaf8" d="M 95.5,156.5 C 98.3071,157.577 101.14,158.577 104,159.5C 103.518,161.408 102.851,163.408 102,165.5C 98.1457,164.501 94.6457,162.835 91.5,160.5C 93.188,159.479 94.5213,158.145 95.5,156.5 Z"/></g>
<g><path style="opacity:0.055" fill="#989a93" d="M 180.5,162.5 C 181.833,163.167 181.833,163.167 180.5,162.5 Z"/></g>
<g><path style="opacity:0.055" fill="#989a93" d="M 35.5,163.5 C 35.8333,163.5 36.1667,163.5 36.5,163.5C 36.3147,164.17 35.9813,164.17 35.5,163.5 Z"/></g>
<g><path style="opacity:0.055" fill="#989a93" d="M 40.5,164.5 C 39.8333,165.167 39.8333,165.167 40.5,164.5 Z"/></g>
<g><path style="opacity:0.055" fill="#989a93" d="M 42.5,165.5 C 42.8333,165.5 43.1667,165.5 43.5,165.5C 43.3147,166.17 42.9813,166.17 42.5,165.5 Z"/></g>
<g><path style="opacity:0.055" fill="#989a93" d="M 45.5,166.5 C 45.8333,166.5 46.1667,166.5 46.5,166.5C 46.3147,167.17 45.9813,167.17 45.5,166.5 Z"/></g>
<g><path style="opacity:0.055" fill="#989a93" d="M 48.5,167.5 C 48.8333,167.5 49.1667,167.5 49.5,167.5C 49.3147,168.17 48.9813,168.17 48.5,167.5 Z"/></g>
<g><path style="opacity:0.055" fill="#989a93" d="M 51.5,168.5 C 50.8333,169.167 50.8333,169.167 51.5,168.5 Z"/></g>
<g><path style="opacity:0.737" fill="#b4b5af" d="M 186.5,142.5 C 187.613,143.946 187.78,145.613 187,147.5C 185.984,148.634 185.317,148.301 185,146.5C 180.115,150.951 176.782,156.284 175,162.5C 174.667,161.833 174.333,161.167 174,160.5C 168.64,165.17 164.973,170.837 163,177.5C 162.583,176.244 161.75,175.577 160.5,175.5C 168.928,164.31 177.595,153.31 186.5,142.5 Z"/></g>
<g><path style="opacity:0.055" fill="#989a93" d="M 54.5,169.5 C 54.8333,169.5 55.1667,169.5 55.5,169.5C 55.3147,170.17 54.9813,170.17 54.5,169.5 Z"/></g>
<g><path style="opacity:0.055" fill="#989a93" d="M 59.5,170.5 C 58.8333,171.167 58.8333,171.167 59.5,170.5 Z"/></g>
<g><path style="opacity:0.055" fill="#989a93" d="M 65.5,172.5 C 64.8333,173.167 64.8333,173.167 65.5,172.5 Z"/></g>
<g><path style="opacity:0.055" fill="#989a93" d="M 172.5,172.5 C 173.833,173.167 173.833,173.167 172.5,172.5 Z"/></g>
<g><path style="opacity:0.055" fill="#989a93" d="M 70.5,174.5 C 69.8333,175.167 69.8333,175.167 70.5,174.5 Z"/></g>
<g><path style="opacity:0.055" fill="#989a93" d="M 73.5,175.5 C 73.8333,175.5 74.1667,175.5 74.5,175.5C 74.3147,176.17 73.9813,176.17 73.5,175.5 Z"/></g>
<g><path style="opacity:0.055" fill="#989a93" d="M 78.5,176.5 C 77.8333,177.167 77.8333,177.167 78.5,176.5 Z"/></g>
<g><path style="opacity:0.055" fill="#989a93" d="M 84.5,178.5 C 83.8333,179.167 83.8333,179.167 84.5,178.5 Z"/></g>
<g><path style="opacity:0.055" fill="#989a93" d="M 167.5,178.5 C 168.833,179.167 168.833,179.167 167.5,178.5 Z"/></g>
<g><path style="opacity:0.055" fill="#989a93" d="M 86.5,179.5 C 86.8333,179.5 87.1667,179.5 87.5,179.5C 87.3147,180.17 86.9813,180.17 86.5,179.5 Z"/></g>
<g><path style="opacity:0.055" fill="#989a93" d="M 91.5,180.5 C 90.8333,181.167 90.8333,181.167 91.5,180.5 Z"/></g>
<g><path style="opacity:0.055" fill="#989a93" d="M 97.5,182.5 C 96.8333,183.167 96.8333,183.167 97.5,182.5 Z"/></g>
<g><path style="opacity:0.055" fill="#989a93" d="M 164.5,182.5 C 165.833,183.167 165.833,183.167 164.5,182.5 Z"/></g>
<g><path style="opacity:0.055" fill="#989a93" d="M 99.5,183.5 C 99.8333,183.5 100.167,183.5 100.5,183.5C 100.315,184.17 99.9813,184.17 99.5,183.5 Z"/></g>
<g><path style="opacity:0.663" fill="#9c9d97" d="M 148.5,98.5 C 148.667,127.169 148.5,155.835 148,184.5C 147.333,185.833 146.667,185.833 146,184.5C 144.595,185.731 143.429,187.064 142.5,188.5C 142.675,186.379 142.341,184.379 141.5,182.5C 142.341,180.621 142.675,178.621 142.5,176.5C 143.803,174.858 145.136,173.191 146.5,171.5C 146.833,170.833 147.167,170.167 147.5,169.5C 147.5,153.5 147.5,137.5 147.5,121.5C 147.175,113.648 147.508,105.982 148.5,98.5 Z"/></g>
<g><path style="opacity:0.055" fill="#989a93" d="M 102.5,184.5 C 102.833,184.5 103.167,184.5 103.5,184.5C 103.315,185.17 102.981,185.17 102.5,184.5 Z"/></g>
<g><path style="opacity:0.055" fill="#989a93" d="M 105.5,185.5 C 105.833,185.5 106.167,185.5 106.5,185.5C 106.315,186.17 105.981,186.17 105.5,185.5 Z"/></g>
<g><path style="opacity:0.055" fill="#989a93" d="M 108.5,186.5 C 107.833,187.167 107.833,187.167 108.5,186.5 Z"/></g>
<g><path style="opacity:0.055" fill="#989a93" d="M 109.5,186.5 C 109.833,186.5 110.167,186.5 110.5,186.5C 110.315,187.17 109.981,187.17 109.5,186.5 Z"/></g>
<g><path style="opacity:0.055" fill="#989a93" d="M 112.5,187.5 C 112.833,187.5 113.167,187.5 113.5,187.5C 113.315,188.17 112.981,188.17 112.5,187.5 Z"/></g>
<g><path style="opacity:0.055" fill="#989a93" d="M 115.5,188.5 C 115.833,188.5 116.167,188.5 116.5,188.5C 116.315,189.17 115.981,189.17 115.5,188.5 Z"/></g>
<g><path style="opacity:0.055" fill="#989a93" d="M 122.5,190.5 C 121.833,191.167 121.833,191.167 122.5,190.5 Z"/></g>
<g><path style="opacity:0.055" fill="#989a93" d="M 151.5,190.5 C 152.833,191.167 152.833,191.167 151.5,190.5 Z"/></g>
<g><path style="opacity:0.055" fill="#989a93" d="M 124.5,191.5 C 123.833,192.167 123.833,192.167 124.5,191.5 Z"/></g>
<g><path style="opacity:0.055" fill="#989a93" d="M 125.5,191.5 C 125.833,191.5 126.167,191.5 126.5,191.5C 126.315,192.17 125.981,192.17 125.5,191.5 Z"/></g>
<g><path style="opacity:0.055" fill="#989a93" d="M 156.5,191.5 C 155.833,192.167 155.833,192.167 156.5,191.5 Z"/></g>
<g><path style="opacity:0.055" fill="#989a93" d="M 157.5,191.5 C 158.833,192.167 158.833,192.167 157.5,191.5 Z"/></g>
<g><path style="opacity:0.055" fill="#989a93" d="M 128.5,192.5 C 127.833,193.167 127.833,193.167 128.5,192.5 Z"/></g>
<g><path style="opacity:0.055" fill="#989a93" d="M 148.5,192.5 C 149.833,193.167 149.833,193.167 148.5,192.5 Z"/></g>
<g><path style="opacity:0.055" fill="#989a93" d="M 131.5,193.5 C 131.833,193.5 132.167,193.5 132.5,193.5C 132.315,194.17 131.981,194.17 131.5,193.5 Z"/></g>
<g><path style="opacity:0.055" fill="#989a93" d="M 146.5,193.5 C 147.833,194.167 147.833,194.167 146.5,193.5 Z"/></g>
<g><path style="opacity:0.055" fill="#989a93" d="M 134.5,194.5 C 134.833,194.5 135.167,194.5 135.5,194.5C 135.315,195.17 134.981,195.17 134.5,194.5 Z"/></g>
<g><path style="opacity:0.055" fill="#989a93" d="M 137.5,195.5 C 137.833,195.5 138.167,195.5 138.5,195.5C 138.315,196.17 137.981,196.17 137.5,195.5 Z"/></g>
<g><path style="opacity:0.055" fill="#989a93" d="M 140.5,196.5 C 139.833,197.167 139.833,197.167 140.5,196.5 Z"/></g>
<g><path style="opacity:0.055" fill="#989a93" d="M 142.5,196.5 C 143.833,197.167 143.833,197.167 142.5,196.5 Z"/></g>
</svg>
