<?xml version="1.0" encoding="UTF-8"?>
<!DOCTYPE svg PUBLIC "-//W3C//DTD SVG 1.1//EN" "http://www.w3.org/Graphics/SVG/1.1/DTD/svg11.dtd">
<svg xmlns="http://www.w3.org/2000/svg" version="1.1" width="512px" height="512px" style="shape-rendering:geometricPrecision; text-rendering:geometricPrecision; image-rendering:optimizeQuality; fill-rule:evenodd; clip-rule:evenodd" xmlns:xlink="http://www.w3.org/1999/xlink">
<g><path style="opacity:0.998" fill="#fe7863" d="M 492.5,90.5 C 495.498,93.667 498.331,97.0003 501,100.5C 501.667,102.5 502.333,104.5 503,106.5C 503.667,205.5 503.667,304.5 503,403.5C 500.5,414 494,420.5 483.5,423C 331.5,423.5 179.5,423.667 27.5,423.5C 17.7632,421.599 11.2632,415.933 8,406.5C 7.33333,305.833 7.33333,205.167 8,104.5C 10.8333,96.3333 16.3333,90.8333 24.5,88C 178.5,87.3333 332.5,87.3333 486.5,88C 488.723,88.5662 490.723,89.3995 492.5,90.5 Z M 484.5,105.5 C 485.931,107.189 486.764,109.189 487,111.5C 487.667,207.5 487.667,303.5 487,399.5C 486.934,402.276 485.768,404.442 483.5,406C 333.21,407.494 182.876,407.994 32.5,407.5C 31.4058,405.641 30.5725,403.641 30,401.5C 29.3333,305.5 29.3333,209.5 30,113.5C 30.0657,110.724 31.2324,108.558 33.5,107C 183.79,105.506 334.124,105.006 484.5,105.5 Z M 164.5,330.5 C 166.067,331.681 166.901,333.347 167,335.5C 167.829,342.234 167.496,348.901 166,355.5C 164.736,357.607 162.903,358.607 160.5,358.5C 159.207,357.158 158.374,355.491 158,353.5C 157.171,346.766 157.504,340.099 159,333.5C 160.264,331.393 162.097,330.393 164.5,330.5 Z M 348.5,330.5 C 350.067,331.681 350.901,333.347 351,335.5C 351.829,342.234 351.496,348.901 350,355.5C 348.736,357.607 346.903,358.607 344.5,358.5C 343.207,357.158 342.374,355.491 342,353.5C 341.171,346.766 341.504,340.099 343,333.5C 344.264,331.393 346.097,330.393 348.5,330.5 Z"/></g>
<g><path style="opacity:0.987" fill="#042d3e" d="M 492.5,90.5 C 500.745,92.9106 506.245,98.244 509,106.5C 509.667,207.167 509.667,307.833 509,408.5C 506.167,416.667 500.667,422.167 492.5,425C 338.5,425.667 184.5,425.667 30.5,425C 29.2625,424.768 28.2625,424.268 27.5,423.5C 179.5,423.667 331.5,423.5 483.5,423C 494,420.5 500.5,414 503,403.5C 503.667,304.5 503.667,205.5 503,106.5C 502.333,104.5 501.667,102.5 501,100.5C 498.331,97.0003 495.498,93.667 492.5,90.5 Z"/></g>
<g><path style="opacity:0.996" fill="#003144" d="M 484.5,105.5 C 334.124,105.006 183.79,105.506 33.5,107C 31.2324,108.558 30.0657,110.724 30,113.5C 29.3333,209.5 29.3333,305.5 30,401.5C 30.5725,403.641 31.4058,405.641 32.5,407.5C 28.5075,407.755 25.6742,406.089 24,402.5C 23.3333,304.5 23.3333,206.5 24,108.5C 24.4652,107.069 25.2986,105.903 26.5,105C 102.752,103.836 179.086,103.336 255.5,103.5C 331.167,103.667 406.833,103.833 482.5,104C 483.416,104.278 484.082,104.778 484.5,105.5 Z"/></g>
<g><path style="opacity:1" fill="#fe7963" d="M 79.5,121.5 C 79.5,206.167 79.5,290.833 79.5,375.5C 70.8333,375.5 62.1667,375.5 53.5,375.5C 51.5,375.5 49.5,375.5 47.5,375.5C 47.5,290.167 47.5,204.833 47.5,119.5C 58.5524,118.857 69.2191,119.524 79.5,121.5 Z"/></g>
<g><path style="opacity:1" fill="#fe7963" d="M 111.5,121.5 C 111.5,179.5 111.5,237.5 111.5,295.5C 108.167,295.5 104.833,295.5 101.5,295.5C 99.5,295.5 97.5,295.5 95.5,295.5C 95.5,236.833 95.5,178.167 95.5,119.5C 101.271,118.887 106.604,119.554 111.5,121.5 Z"/></g>
<g><path style="opacity:1" fill="#fe7963" d="M 159.5,121.5 C 159.5,179.5 159.5,237.5 159.5,295.5C 150.833,295.5 142.167,295.5 133.5,295.5C 131.5,295.5 129.5,295.5 127.5,295.5C 127.5,236.833 127.5,178.167 127.5,119.5C 138.552,118.857 149.219,119.524 159.5,121.5 Z"/></g>
<g><path style="opacity:1" fill="#fe7963" d="M 223.5,121.5 C 223.5,179.5 223.5,237.5 223.5,295.5C 209.5,295.5 195.5,295.5 181.5,295.5C 179.5,295.5 177.5,295.5 175.5,295.5C 175.5,236.833 175.5,178.167 175.5,119.5C 191.868,118.849 207.868,119.515 223.5,121.5 Z"/></g>
<g><path style="opacity:1" fill="#fe7963" d="M 255.5,121.5 C 255.5,179.5 255.5,237.5 255.5,295.5C 252.167,295.5 248.833,295.5 245.5,295.5C 243.5,295.5 241.5,295.5 239.5,295.5C 239.5,236.833 239.5,178.167 239.5,119.5C 245.271,118.887 250.604,119.554 255.5,121.5 Z"/></g>
<g><path style="opacity:1" fill="#fe7963" d="M 303.5,121.5 C 303.5,179.5 303.5,237.5 303.5,295.5C 294.833,295.5 286.167,295.5 277.5,295.5C 275.5,295.5 273.5,295.5 271.5,295.5C 271.5,236.833 271.5,178.167 271.5,119.5C 282.552,118.857 293.219,119.524 303.5,121.5 Z"/></g>
<g><path style="opacity:1" fill="#fe7963" d="M 335.5,121.5 C 335.5,179.5 335.5,237.5 335.5,295.5C 332.167,295.5 328.833,295.5 325.5,295.5C 323.5,295.5 321.5,295.5 319.5,295.5C 319.5,236.833 319.5,178.167 319.5,119.5C 325.271,118.887 330.604,119.554 335.5,121.5 Z"/></g>
<g><path style="opacity:1" fill="#fe7963" d="M 367.5,121.5 C 367.5,179.5 367.5,237.5 367.5,295.5C 364.167,295.5 360.833,295.5 357.5,295.5C 355.5,295.5 353.5,295.5 351.5,295.5C 351.5,236.833 351.5,178.167 351.5,119.5C 357.271,118.887 362.604,119.554 367.5,121.5 Z"/></g>
<g><path style="opacity:1" fill="#fe7963" d="M 415.5,121.5 C 415.5,179.5 415.5,237.5 415.5,295.5C 406.833,295.5 398.167,295.5 389.5,295.5C 387.5,295.5 385.5,295.5 383.5,295.5C 383.5,236.833 383.5,178.167 383.5,119.5C 394.552,118.857 405.219,119.524 415.5,121.5 Z"/></g>
<g><path style="opacity:1" fill="#fe7963" d="M 463.5,121.5 C 463.5,206.167 463.5,290.833 463.5,375.5C 454.833,375.5 446.167,375.5 437.5,375.5C 435.5,375.5 433.5,375.5 431.5,375.5C 431.5,290.167 431.5,204.833 431.5,119.5C 442.552,118.857 453.219,119.524 463.5,121.5 Z"/></g>
<g><path style="opacity:1" fill="#003144" d="M 79.5,121.5 C 81.5,121.5 83.5,121.5 85.5,121.5C 85.5,206.833 85.5,292.167 85.5,377.5C 74.4476,378.143 63.7809,377.476 53.5,375.5C 62.1667,375.5 70.8333,375.5 79.5,375.5C 79.5,290.833 79.5,206.167 79.5,121.5 Z"/></g>
<g><path style="opacity:1" fill="#003144" d="M 111.5,121.5 C 113.5,121.5 115.5,121.5 117.5,121.5C 117.5,180.167 117.5,238.833 117.5,297.5C 111.729,298.113 106.396,297.446 101.5,295.5C 104.833,295.5 108.167,295.5 111.5,295.5C 111.5,237.5 111.5,179.5 111.5,121.5 Z"/></g>
<g><path style="opacity:1" fill="#003144" d="M 159.5,121.5 C 161.5,121.5 163.5,121.5 165.5,121.5C 165.5,180.167 165.5,238.833 165.5,297.5C 154.448,298.143 143.781,297.476 133.5,295.5C 142.167,295.5 150.833,295.5 159.5,295.5C 159.5,237.5 159.5,179.5 159.5,121.5 Z"/></g>
<g><path style="opacity:1" fill="#003144" d="M 223.5,121.5 C 225.5,121.5 227.5,121.5 229.5,121.5C 229.5,180.167 229.5,238.833 229.5,297.5C 213.132,298.151 197.132,297.485 181.5,295.5C 195.5,295.5 209.5,295.5 223.5,295.5C 223.5,237.5 223.5,179.5 223.5,121.5 Z"/></g>
<g><path style="opacity:1" fill="#003144" d="M 255.5,121.5 C 257.5,121.5 259.5,121.5 261.5,121.5C 261.5,180.167 261.5,238.833 261.5,297.5C 255.729,298.113 250.396,297.446 245.5,295.5C 248.833,295.5 252.167,295.5 255.5,295.5C 255.5,237.5 255.5,179.5 255.5,121.5 Z"/></g>
<g><path style="opacity:1" fill="#003144" d="M 303.5,121.5 C 305.5,121.5 307.5,121.5 309.5,121.5C 309.5,180.167 309.5,238.833 309.5,297.5C 298.448,298.143 287.781,297.476 277.5,295.5C 286.167,295.5 294.833,295.5 303.5,295.5C 303.5,237.5 303.5,179.5 303.5,121.5 Z"/></g>
<g><path style="opacity:1" fill="#003144" d="M 335.5,121.5 C 337.5,121.5 339.5,121.5 341.5,121.5C 341.5,180.167 341.5,238.833 341.5,297.5C 335.729,298.113 330.396,297.446 325.5,295.5C 328.833,295.5 332.167,295.5 335.5,295.5C 335.5,237.5 335.5,179.5 335.5,121.5 Z"/></g>
<g><path style="opacity:1" fill="#003144" d="M 367.5,121.5 C 369.5,121.5 371.5,121.5 373.5,121.5C 373.5,180.167 373.5,238.833 373.5,297.5C 367.729,298.113 362.396,297.446 357.5,295.5C 360.833,295.5 364.167,295.5 367.5,295.5C 367.5,237.5 367.5,179.5 367.5,121.5 Z"/></g>
<g><path style="opacity:1" fill="#003144" d="M 415.5,121.5 C 417.5,121.5 419.5,121.5 421.5,121.5C 421.5,180.167 421.5,238.833 421.5,297.5C 410.448,298.143 399.781,297.476 389.5,295.5C 398.167,295.5 406.833,295.5 415.5,295.5C 415.5,237.5 415.5,179.5 415.5,121.5 Z"/></g>
<g><path style="opacity:1" fill="#003144" d="M 463.5,121.5 C 465.5,121.5 467.5,121.5 469.5,121.5C 469.5,206.833 469.5,292.167 469.5,377.5C 458.448,378.143 447.781,377.476 437.5,375.5C 446.167,375.5 454.833,375.5 463.5,375.5C 463.5,290.833 463.5,206.167 463.5,121.5 Z"/></g>
<g><path style="opacity:0.998" fill="#fe7863" d="M 125.5,313.5 C 125.987,314.473 126.487,315.473 127,316.5C 127.5,336.164 127.667,355.831 127.5,375.5C 124.167,375.5 120.833,375.5 117.5,375.5C 115.5,375.5 113.5,375.5 111.5,375.5C 111.5,360.167 111.5,344.833 111.5,329.5C 108.663,327.598 105.329,326.931 101.5,327.5C 99.5,327.5 97.5,327.5 95.5,327.5C 95.5,322.167 95.5,316.833 95.5,311.5C 104.839,311.334 114.173,311.5 123.5,312C 124.416,312.278 125.082,312.778 125.5,313.5 Z"/></g>
<g><path style="opacity:0.978" fill="#fe7863" d="M 172.5,314.5 C 175.498,317.667 178.331,321 181,324.5C 183.942,336.062 184.276,347.729 182,359.5C 177.187,371.329 168.354,376.662 155.5,375.5C 146.917,374.09 140.75,369.423 137,361.5C 135.403,350.573 135.069,339.573 136,328.5C 141.457,314.518 151.624,309.018 166.5,312C 168.723,312.566 170.723,313.4 172.5,314.5 Z M 164.5,330.5 C 166.067,331.681 166.901,333.347 167,335.5C 167.829,342.234 167.496,348.901 166,355.5C 164.736,357.607 162.903,358.607 160.5,358.5C 159.207,357.158 158.374,355.491 158,353.5C 157.171,346.766 157.504,340.099 159,333.5C 160.264,331.393 162.097,330.393 164.5,330.5 Z"/></g>
<g><path style="opacity:0.983" fill="#fe7863" d="M 229.5,313.5 C 231.293,316.259 231.793,319.259 231,322.5C 220.865,338.736 215.698,356.403 215.5,375.5C 212.167,375.5 208.833,375.5 205.5,375.5C 203.5,375.5 201.5,375.5 199.5,375.5C 199.168,359.495 202.168,344.161 208.5,329.5C 209.289,329.217 209.956,328.717 210.5,328C 206.179,327.501 201.846,327.334 197.5,327.5C 195.5,327.5 193.5,327.5 191.5,327.5C 191.5,322.167 191.5,316.833 191.5,311.5C 203.505,311.333 215.505,311.5 227.5,312C 228.416,312.278 229.082,312.778 229.5,313.5 Z"/></g>
<g><path style="opacity:0.998" fill="#fe7863" d="M 269.5,313.5 C 269.987,314.473 270.487,315.473 271,316.5C 271.5,336.164 271.667,355.831 271.5,375.5C 268.167,375.5 264.833,375.5 261.5,375.5C 259.5,375.5 257.5,375.5 255.5,375.5C 255.5,360.167 255.5,344.833 255.5,329.5C 252.663,327.598 249.329,326.931 245.5,327.5C 243.5,327.5 241.5,327.5 239.5,327.5C 239.5,322.167 239.5,316.833 239.5,311.5C 248.839,311.334 258.173,311.5 267.5,312C 268.416,312.278 269.082,312.778 269.5,313.5 Z"/></g>
<g><path style="opacity:0.998" fill="#fe7863" d="M 309.5,313.5 C 309.987,314.473 310.487,315.473 311,316.5C 311.5,336.164 311.667,355.831 311.5,375.5C 308.167,375.5 304.833,375.5 301.5,375.5C 299.5,375.5 297.5,375.5 295.5,375.5C 295.5,360.167 295.5,344.833 295.5,329.5C 292.663,327.598 289.329,326.931 285.5,327.5C 283.5,327.5 281.5,327.5 279.5,327.5C 279.5,322.167 279.5,316.833 279.5,311.5C 288.839,311.334 298.173,311.5 307.5,312C 308.416,312.278 309.082,312.778 309.5,313.5 Z"/></g>
<g><path style="opacity:0.978" fill="#fe7863" d="M 356.5,314.5 C 359.498,317.667 362.331,321 365,324.5C 367.942,336.062 368.276,347.729 366,359.5C 361.187,371.329 352.354,376.662 339.5,375.5C 330.917,374.09 324.75,369.423 321,361.5C 319.403,350.573 319.069,339.573 320,328.5C 325.457,314.518 335.624,309.018 350.5,312C 352.723,312.566 354.723,313.4 356.5,314.5 Z M 348.5,330.5 C 350.067,331.681 350.901,333.347 351,335.5C 351.829,342.234 351.496,348.901 350,355.5C 348.736,357.607 346.903,358.607 344.5,358.5C 343.207,357.158 342.374,355.491 342,353.5C 341.171,346.766 341.504,340.099 343,333.5C 344.264,331.393 346.097,330.393 348.5,330.5 Z"/></g>
<g><path style="opacity:0.983" fill="#fe7863" d="M 413.5,313.5 C 415.293,316.259 415.793,319.259 415,322.5C 404.865,338.736 399.698,356.403 399.5,375.5C 396.167,375.5 392.833,375.5 389.5,375.5C 387.5,375.5 385.5,375.5 383.5,375.5C 383.168,359.495 386.168,344.161 392.5,329.5C 393.289,329.217 393.956,328.717 394.5,328C 390.179,327.501 385.846,327.334 381.5,327.5C 379.5,327.5 377.5,327.5 375.5,327.5C 375.5,322.167 375.5,316.833 375.5,311.5C 387.505,311.333 399.505,311.5 411.5,312C 412.416,312.278 413.082,312.778 413.5,313.5 Z"/></g>
<g><path style="opacity:0.985" fill="#003144" d="M 125.5,313.5 C 128.961,313.146 131.461,314.479 133,317.5C 133.5,337.497 133.667,357.497 133.5,377.5C 127.729,378.113 122.396,377.446 117.5,375.5C 120.833,375.5 124.167,375.5 127.5,375.5C 127.667,355.831 127.5,336.164 127,316.5C 126.487,315.473 125.987,314.473 125.5,313.5 Z"/></g>
<g><path style="opacity:0.918" fill="#073244" d="M 229.5,313.5 C 236.726,314.252 239.226,318.252 237,325.5C 227.178,341.464 222.344,358.797 222.5,377.5C 216.402,378.117 210.735,377.45 205.5,375.5C 208.833,375.5 212.167,375.5 215.5,375.5C 215.698,356.403 220.865,338.736 231,322.5C 231.793,319.259 231.293,316.259 229.5,313.5 Z"/></g>
<g><path style="opacity:0.985" fill="#003144" d="M 269.5,313.5 C 272.961,313.146 275.461,314.479 277,317.5C 277.5,337.497 277.667,357.497 277.5,377.5C 271.729,378.113 266.396,377.446 261.5,375.5C 264.833,375.5 268.167,375.5 271.5,375.5C 271.667,355.831 271.5,336.164 271,316.5C 270.487,315.473 269.987,314.473 269.5,313.5 Z"/></g>
<g><path style="opacity:0.985" fill="#003144" d="M 309.5,313.5 C 312.961,313.146 315.461,314.479 317,317.5C 317.5,337.497 317.667,357.497 317.5,377.5C 311.729,378.113 306.396,377.446 301.5,375.5C 304.833,375.5 308.167,375.5 311.5,375.5C 311.667,355.831 311.5,336.164 311,316.5C 310.487,315.473 309.987,314.473 309.5,313.5 Z"/></g>
<g><path style="opacity:0.918" fill="#073244" d="M 413.5,313.5 C 420.726,314.252 423.226,318.252 421,325.5C 411.178,341.464 406.344,358.797 406.5,377.5C 400.402,378.117 394.735,377.45 389.5,375.5C 392.833,375.5 396.167,375.5 399.5,375.5C 399.698,356.403 404.865,338.736 415,322.5C 415.793,319.259 415.293,316.259 413.5,313.5 Z"/></g>
<g><path style="opacity:0.908" fill="#093244" d="M 172.5,314.5 C 179.597,316.422 184.763,320.755 188,327.5C 189.597,338.427 189.931,349.427 189,360.5C 182.47,376.017 171.303,381.017 155.5,375.5C 168.354,376.662 177.187,371.329 182,359.5C 184.276,347.729 183.942,336.062 181,324.5C 178.331,321 175.498,317.667 172.5,314.5 Z"/></g>
<g><path style="opacity:0.908" fill="#093244" d="M 356.5,314.5 C 363.597,316.422 368.763,320.755 372,327.5C 373.597,338.427 373.931,349.427 373,360.5C 366.47,376.017 355.303,381.017 339.5,375.5C 352.354,376.662 361.187,371.329 366,359.5C 368.276,347.729 367.942,336.062 365,324.5C 362.331,321 359.498,317.667 356.5,314.5 Z"/></g>
<g><path style="opacity:1" fill="#003144" d="M 101.5,327.5 C 105.329,326.931 108.663,327.598 111.5,329.5C 107.671,330.069 104.337,329.402 101.5,327.5 Z"/></g>
<g><path style="opacity:1" fill="#003144" d="M 197.5,327.5 C 201.846,327.334 206.179,327.501 210.5,328C 209.956,328.717 209.289,329.217 208.5,329.5C 204.351,330.08 200.684,329.414 197.5,327.5 Z"/></g>
<g><path style="opacity:1" fill="#003144" d="M 245.5,327.5 C 249.329,326.931 252.663,327.598 255.5,329.5C 251.671,330.069 248.337,329.402 245.5,327.5 Z"/></g>
<g><path style="opacity:1" fill="#003144" d="M 285.5,327.5 C 289.329,326.931 292.663,327.598 295.5,329.5C 291.671,330.069 288.337,329.402 285.5,327.5 Z"/></g>
<g><path style="opacity:1" fill="#003144" d="M 381.5,327.5 C 385.846,327.334 390.179,327.501 394.5,328C 393.956,328.717 393.289,329.217 392.5,329.5C 388.351,330.08 384.684,329.414 381.5,327.5 Z"/></g>
<g><path style="opacity:0.946" fill="#0c3244" d="M 164.5,330.5 C 162.097,330.393 160.264,331.393 159,333.5C 157.504,340.099 157.171,346.766 158,353.5C 158.374,355.491 159.207,357.158 160.5,358.5C 156.671,359.843 153.838,358.509 152,354.5C 151.333,347.167 151.333,339.833 152,332.5C 154.598,327.756 158.431,326.422 163.5,328.5C 164.298,328.957 164.631,329.624 164.5,330.5 Z"/></g>
<g><path style="opacity:0.946" fill="#0c3244" d="M 348.5,330.5 C 346.097,330.393 344.264,331.393 343,333.5C 341.504,340.099 341.171,346.766 342,353.5C 342.374,355.491 343.207,357.158 344.5,358.5C 340.671,359.843 337.838,358.509 336,354.5C 335.333,347.167 335.333,339.833 336,332.5C 338.598,327.756 342.431,326.422 347.5,328.5C 348.298,328.957 348.631,329.624 348.5,330.5 Z"/></g>
</svg>
