<?xml version="1.0" encoding="UTF-8"?>
<!DOCTYPE svg PUBLIC "-//W3C//DTD SVG 1.1//EN" "http://www.w3.org/Graphics/SVG/1.1/DTD/svg11.dtd">
<svg xmlns="http://www.w3.org/2000/svg" version="1.1" width="512px" height="512px" style="shape-rendering:geometricPrecision; text-rendering:geometricPrecision; image-rendering:optimizeQuality; fill-rule:evenodd; clip-rule:evenodd" xmlns:xlink="http://www.w3.org/1999/xlink">
<g><path style="opacity:0.934" fill="#fb7468" d="M 251.5,-0.5 C 254.167,-0.5 256.833,-0.5 259.5,-0.5C 260.836,1.01027 262.003,2.67694 263,4.5C 264.93,26.7621 277.096,38.5955 299.5,40C 304.405,44.1673 304.738,48.6673 300.5,53.5C 284.906,54.0359 273.406,61.0359 266,74.5C 264.636,80.5705 263.136,86.5705 261.5,92.5C 257.5,96.5 253.5,96.5 249.5,92.5C 248.166,83.1642 244.999,74.4975 240,66.5C 231.805,58.5962 221.972,54.2628 210.5,53.5C 206.262,48.6673 206.595,44.1673 211.5,40C 233.904,38.5955 246.07,26.7621 248,4.5C 248.997,2.67694 250.164,1.01027 251.5,-0.5 Z M 254.5,34.5 C 258.927,38.7503 263.593,42.9169 268.5,47C 263.658,50.6757 259.325,54.8424 255.5,59.5C 251.675,54.8424 247.342,50.6757 242.5,47C 247.377,43.6239 251.377,39.4572 254.5,34.5 Z"/></g>
<g><path style="opacity:0.936" fill="#fb7468" d="M -0.5,147.5 C -0.5,144.833 -0.5,142.167 -0.5,139.5C 0.639972,138.199 1.97331,137.032 3.5,136C 21.6991,134.634 31.3657,124.8 32.5,106.5C 36.3679,102.925 40.5346,102.592 45,105.5C 46.7918,110.367 48.1251,115.367 49,120.5C 52.2235,126.723 57.0568,131.223 63.5,134C 67.9294,134.681 72.2627,135.681 76.5,137C 80.657,141.683 80.3236,146.017 75.5,150C 57.0075,151.159 47.1742,160.992 46,179.5C 41.3751,184.684 36.7085,184.684 32,179.5C 30.868,161.035 21.0347,151.201 2.5,150C 1.62656,148.955 0.626561,148.122 -0.5,147.5 Z M 38.5,135.5 C 41.4789,137.812 44.1456,140.479 46.5,143.5C 43.5064,145.662 41.0064,148.328 39,151.5C 37.0218,148.355 34.5218,145.688 31.5,143.5C 33.8558,140.814 36.1891,138.147 38.5,135.5 Z"/></g>
<g><path style="opacity:0.936" fill="#fb7468" d="M 511.5,139.5 C 511.5,142.167 511.5,144.833 511.5,147.5C 510.373,148.122 509.373,148.955 508.5,150C 489.965,151.201 480.132,161.035 479,179.5C 474.292,184.684 469.625,184.684 465,179.5C 463.826,160.992 453.992,151.159 435.5,150C 430.676,146.017 430.343,141.683 434.5,137C 441.112,135.878 447.446,133.878 453.5,131C 457.092,128.079 459.925,124.579 462,120.5C 462.875,115.367 464.208,110.367 466,105.5C 470.465,102.592 474.632,102.925 478.5,106.5C 479.634,124.8 489.301,134.634 507.5,136C 509.027,137.032 510.36,138.199 511.5,139.5 Z M 471.5,135.5 C 474.479,137.812 477.146,140.479 479.5,143.5C 476.478,145.688 473.978,148.355 472,151.5C 469.994,148.328 467.494,145.662 464.5,143.5C 466.856,140.814 469.189,138.147 471.5,135.5 Z"/></g>
<g><path style="opacity:0.941" fill="#fb7468" d="M 460.5,511.5 C 440.833,511.5 421.167,511.5 401.5,511.5C 397.572,509.408 394.406,506.408 392,502.5C 390.644,494.905 390.144,487.238 390.5,479.5C 299.833,479.5 209.167,479.5 118.5,479.5C 118.856,487.238 118.356,494.905 117,502.5C 114.594,506.408 111.428,509.408 107.5,511.5C 87.8333,511.5 68.1667,511.5 48.5,511.5C 44.189,509.353 41.0223,506.02 39,501.5C 38.8322,491.483 38.3322,481.483 37.5,471.5C 30.1384,465.447 25.3051,457.78 23,448.5C 22.3333,411.5 22.3333,374.5 23,337.5C 23.8786,332.864 25.5452,328.531 28,324.5C 36.711,312.245 45.5443,300.078 54.5,288C 39.4073,287.968 24.4073,287.302 9.5,286C 8.66667,285.167 7.83333,284.333 7,283.5C 6.33333,270.167 6.33333,256.833 7,243.5C 8.21398,241.951 9.71398,240.785 11.5,240C 26.8333,239.333 42.1667,239.333 57.5,240C 59.3783,241.543 60.8783,243.376 62,245.5C 63.5108,251.877 65.1774,258.21 67,264.5C 79.3333,229.5 91.6667,194.5 104,159.5C 109.718,146.551 119.551,138.718 133.5,136C 214.167,135.333 294.833,135.333 375.5,136C 389.449,138.718 399.282,146.551 405,159.5C 417.333,194.5 429.667,229.5 442,264.5C 443.823,258.21 445.489,251.877 447,245.5C 448.122,243.376 449.622,241.543 451.5,240C 466.833,239.333 482.167,239.333 497.5,240C 499.286,240.785 500.786,241.951 502,243.5C 502.667,256.833 502.667,270.167 502,283.5C 501.167,284.333 500.333,285.167 499.5,286C 484.593,287.302 469.593,287.968 454.5,288C 462.544,299.255 470.711,310.422 479,321.5C 482.422,326.345 484.755,331.678 486,337.5C 486.667,374.5 486.667,411.5 486,448.5C 483.695,457.78 478.862,465.447 471.5,471.5C 470.668,481.483 470.168,491.483 470,501.5C 467.978,506.02 464.811,509.353 460.5,511.5 Z M 135.5,151.5 C 214.834,151.333 294.167,151.5 373.5,152C 381.111,153.946 386.611,158.446 390,165.5C 402.308,200.759 414.808,235.926 427.5,271C 411.833,271.333 396.167,271.667 380.5,272C 373.202,276.553 372.869,281.553 379.5,287C 397.833,287.333 416.167,287.667 434.5,288C 446.054,303.221 457.221,318.721 468,334.5C 468.862,336.087 469.529,337.754 470,339.5C 470.5,370.165 470.667,400.832 470.5,431.5C 425.167,431.5 379.833,431.5 334.5,431.5C 334.667,410.831 334.5,390.164 334,369.5C 330.803,352.637 320.97,341.803 304.5,337C 287.866,335.888 271.199,335.388 254.5,335.5C 237.801,335.388 221.134,335.888 204.5,337C 188.03,341.803 178.197,352.637 175,369.5C 174.5,390.164 174.333,410.831 174.5,431.5C 129.167,431.5 83.8333,431.5 38.5,431.5C 38.3334,400.832 38.5,370.165 39,339.5C 41.147,334.54 43.8136,329.873 47,325.5C 56.1667,313 65.3333,300.5 74.5,288C 167.5,287.667 260.5,287.333 353.5,287C 357.861,284.774 359.361,281.274 358,276.5C 357.167,274.333 355.667,272.833 353.5,272C 262.833,271.667 172.167,271.333 81.5,271C 94.1919,235.926 106.692,200.759 119,165.5C 122.561,158.431 128.061,153.764 135.5,151.5 Z M 140.5,175.5 C 216.5,175.5 292.5,175.5 368.5,175.5C 376.334,199.503 384.668,223.336 393.5,247C 300.833,247.667 208.167,247.667 115.5,247C 124.332,223.336 132.666,199.503 140.5,175.5 Z M 22.5,255.5 C 30.84,255.334 39.1733,255.5 47.5,256C 49.2211,261.05 50.5544,266.217 51.5,271.5C 41.8333,271.5 32.1667,271.5 22.5,271.5C 22.5,266.167 22.5,260.833 22.5,255.5 Z M 461.5,255.5 C 469.833,255.5 478.167,255.5 486.5,255.5C 486.5,260.833 486.5,266.167 486.5,271.5C 476.833,271.5 467.167,271.5 457.5,271.5C 458.525,266.067 459.858,260.733 461.5,255.5 Z M 210.5,351.5 C 239.835,351.333 269.169,351.5 298.5,352C 307.029,353.696 313.029,358.529 316.5,366.5C 275.167,367.833 233.833,367.833 192.5,366.5C 196.14,358.516 202.14,353.516 210.5,351.5 Z M 105.5,367.5 C 115.242,367.29 124.575,369.123 133.5,373C 137.752,375.419 140.752,378.919 142.5,383.5C 141.764,385.541 140.931,387.541 140,389.5C 128.62,398.22 115.787,401.387 101.5,399C 92.0968,398.053 84.5968,393.886 79,386.5C 78.0623,383.12 78.729,380.12 81,377.5C 88.2565,371.698 96.4232,368.365 105.5,367.5 Z M 393.5,367.5 C 404.096,367.036 414.096,369.202 423.5,374C 429.789,377.248 431.622,382.082 429,388.5C 423.114,394.526 415.947,398.026 407.5,399C 393.213,401.387 380.38,398.22 369,389.5C 365.943,385.768 365.943,382.101 369,378.5C 376.048,372.224 384.214,368.557 393.5,367.5 Z M 190.5,383.5 C 233.167,383.5 275.833,383.5 318.5,383.5C 318.5,388.833 318.5,394.167 318.5,399.5C 275.833,399.5 233.167,399.5 190.5,399.5C 190.5,394.167 190.5,388.833 190.5,383.5 Z M 190.5,415.5 C 233.167,415.5 275.833,415.5 318.5,415.5C 318.5,420.833 318.5,426.167 318.5,431.5C 275.833,431.5 233.167,431.5 190.5,431.5C 190.5,426.167 190.5,420.833 190.5,415.5 Z M 39.5,448.5 C 182.666,447.334 325.999,447.167 469.5,448C 466.436,455.397 461.102,460.397 453.5,463C 320.833,463.667 188.167,463.667 55.5,463C 48.0458,460.374 42.7125,455.54 39.5,448.5 Z M 54.5,479.5 C 70.5,479.5 86.5,479.5 102.5,479.5C 102.5,484.833 102.5,490.167 102.5,495.5C 86.5,495.5 70.5,495.5 54.5,495.5C 54.5,490.167 54.5,484.833 54.5,479.5 Z M 406.5,479.5 C 422.5,479.5 438.5,479.5 454.5,479.5C 454.5,484.833 454.5,490.167 454.5,495.5C 438.5,495.5 422.5,495.5 406.5,495.5C 406.5,490.167 406.5,484.833 406.5,479.5 Z"/></g>
<g><path style="opacity:0.936" fill="#fb7468" d="M 136.5,159.5 C 216.224,159.009 295.891,159.509 375.5,161C 380.497,164.143 383.664,168.643 385,174.5C 394,200.167 403,225.833 412,251.5C 413.569,256.625 412.069,260.459 407.5,263C 305.5,263.667 203.5,263.667 101.5,263C 98.0662,261.471 96.3996,258.804 96.5,255C 105.731,226.308 115.564,197.808 126,169.5C 128.106,164.557 131.606,161.224 136.5,159.5 Z M 140.5,175.5 C 132.666,199.503 124.332,223.336 115.5,247C 208.167,247.667 300.833,247.667 393.5,247C 384.668,223.336 376.334,199.503 368.5,175.5C 292.5,175.5 216.5,175.5 140.5,175.5 Z"/></g>
<g><path style="opacity:0.924" fill="#fb7468" d="M 84.5,327.5 C 101.837,327.333 119.17,327.5 136.5,328C 143.82,332.6 144.154,337.6 137.5,343C 119.167,343.667 100.833,343.667 82.5,343C 78.2468,339.58 77.4135,335.413 80,330.5C 81.4087,329.219 82.9087,328.219 84.5,327.5 Z"/></g>
<g><path style="opacity:0.924" fill="#fb7468" d="M 372.5,327.5 C 389.837,327.333 407.17,327.5 424.5,328C 429.906,329.98 431.739,333.814 430,339.5C 428.833,340.667 427.667,341.833 426.5,343C 408.167,343.667 389.833,343.667 371.5,343C 364.952,337.451 365.285,332.285 372.5,327.5 Z"/></g>
<g><path style="opacity:0.932" fill="#fb7468" d="M 105.5,351.5 C 120.84,350.729 134.84,354.563 147.5,363C 162.346,377.985 161.679,392.318 145.5,406C 125.99,416.693 105.657,418.359 84.5,411C 65.0768,403.332 58.9102,389.832 66,370.5C 76.5461,358.707 89.7127,352.374 105.5,351.5 Z M 105.5,367.5 C 96.4232,368.365 88.2565,371.698 81,377.5C 78.729,380.12 78.0623,383.12 79,386.5C 84.5968,393.886 92.0968,398.053 101.5,399C 115.787,401.387 128.62,398.22 140,389.5C 140.931,387.541 141.764,385.541 142.5,383.5C 140.752,378.919 137.752,375.419 133.5,373C 124.575,369.123 115.242,367.29 105.5,367.5 Z"/></g>
<g><path style="opacity:0.932" fill="#fb7468" d="M 394.5,351.5 C 408.435,350.919 421.435,354.086 433.5,361C 447.781,371.524 450.281,384.357 441,399.5C 432.329,408.252 421.829,413.419 409.5,415C 395.202,417.066 381.535,415.066 368.5,409C 352.567,400.654 347.734,388.154 354,371.5C 358.371,364.898 364.204,360.065 371.5,357C 379.077,354.19 386.743,352.357 394.5,351.5 Z M 393.5,367.5 C 384.214,368.557 376.048,372.224 369,378.5C 365.943,382.101 365.943,385.768 369,389.5C 380.38,398.22 393.213,401.387 407.5,399C 415.947,398.026 423.114,394.526 429,388.5C 431.622,382.082 429.789,377.248 423.5,374C 414.096,369.202 404.096,367.036 393.5,367.5 Z"/></g>
</svg>
