<?xml version="1.0" encoding="UTF-8"?>
<!DOCTYPE svg PUBLIC "-//W3C//DTD SVG 1.1//EN" "http://www.w3.org/Graphics/SVG/1.1/DTD/svg11.dtd">
<svg xmlns="http://www.w3.org/2000/svg" version="1.1" width="635px" height="500px" style="shape-rendering:geometricPrecision; text-rendering:geometricPrecision; image-rendering:optimizeQuality; fill-rule:evenodd; clip-rule:evenodd" xmlns:xlink="http://www.w3.org/1999/xlink">
<g><path style="opacity:1" fill="#fefefe" d="M -0.5,-0.5 C 211.167,-0.5 422.833,-0.5 634.5,-0.5C 634.5,166.167 634.5,332.833 634.5,499.5C 422.833,499.5 211.167,499.5 -0.5,499.5C -0.5,332.833 -0.5,166.167 -0.5,-0.5 Z"/></g>
<g><path style="opacity:1" fill="#b5b9ba" d="M 345.5,13.5 C 336.139,13.3129 326.805,13.6462 317.5,14.5C 318.263,13.7321 319.263,13.2321 320.5,13C 329.01,12.1768 337.344,12.3434 345.5,13.5 Z"/></g>
<g><path style="opacity:1" fill="#3f4d50" d="M 345.5,13.5 C 345.833,13.5 346.167,13.5 346.5,13.5C 339.011,14.329 331.344,14.829 323.5,15C 328.897,15.2272 334.231,15.8938 339.5,17C 339.833,17.3333 340.167,17.6667 340.5,18C 339.584,18.2784 338.918,18.7784 338.5,19.5C 337.711,19.7828 337.044,20.2828 336.5,21C 331.447,21.2174 326.447,21.7174 321.5,22.5C 317.598,21.5973 314.265,22.764 311.5,26C 312.244,28.8506 312.244,31.5172 311.5,34C 309.577,37.1783 307.911,40.5117 306.5,44C 306.833,44.3333 307.167,44.6667 307.5,45C 305.861,48.259 304.694,51.759 304,55.5C 301.52,48.2425 300.02,40.9092 299.5,33.5C 299.5,33.1667 299.5,32.8333 299.5,32.5C 300.117,32.3893 300.617,32.056 301,31.5C 301.333,33.5 301.667,35.5 302,37.5C 302.636,34.2554 304.47,31.9221 307.5,30.5C 308.196,25.7391 309.862,21.4058 312.5,17.5C 314.368,16.7368 316.035,15.7368 317.5,14.5C 326.805,13.6462 336.139,13.3129 345.5,13.5 Z"/></g>
<g><path style="opacity:1" fill="#3f4d51" d="M 377.5,57.5 C 374.25,53.5409 372.417,48.8743 372,43.5C 370.212,41.9956 369.712,40.3289 370.5,38.5C 369.624,37.7492 368.624,37.2492 367.5,37C 368.451,36.2825 368.617,35.4491 368,34.5C 367.333,35.8333 366.667,35.8333 366,34.5C 364.374,32.0829 362.874,29.5829 361.5,27C 356.595,26.1299 352.095,24.2966 348,21.5C 345.064,23.6637 344.23,26.3304 345.5,29.5C 343.941,27.7499 341.941,26.7499 339.5,26.5C 339.918,25.7784 340.584,25.2784 341.5,25C 340.619,24.2917 339.953,23.4584 339.5,22.5C 340.708,21.7659 342.041,21.4326 343.5,21.5C 343.281,20.325 343.614,19.325 344.5,18.5C 345.963,18.3678 347.463,18.0345 349,17.5C 354.843,19.7482 360.676,21.9148 366.5,24C 367.435,26.3806 367.768,28.8806 367.5,31.5C 368.822,31.33 369.989,31.6634 371,32.5C 373.946,40.6165 376.113,48.9499 377.5,57.5 Z"/></g>
<g><path style="opacity:1" fill="#6a6d70" d="M 312.5,17.5 C 309.862,21.4058 308.196,25.7391 307.5,30.5C 304.47,31.9221 302.636,34.2554 302,37.5C 301.667,35.5 301.333,33.5 301,31.5C 300.617,32.056 300.117,32.3893 299.5,32.5C 302.083,25.921 306.417,20.921 312.5,17.5 Z"/></g>
<g><path style="opacity:1" fill="#2c3e43" d="M 338.5,19.5 C 338.263,20.791 338.596,21.791 339.5,22.5C 339.953,23.4584 340.619,24.2917 341.5,25C 340.584,25.2784 339.918,25.7784 339.5,26.5C 339.312,28.1033 339.812,29.4366 341,30.5C 341.333,29.8333 341.667,29.1667 342,28.5C 343.041,30.3115 344.207,30.6448 345.5,29.5C 344.23,26.3304 345.064,23.6637 348,21.5C 352.095,24.2966 356.595,26.1299 361.5,27C 362.874,29.5829 364.374,32.0829 366,34.5C 366.667,35.8333 367.333,35.8333 368,34.5C 368.617,35.4491 368.451,36.2825 367.5,37C 368.624,37.2492 369.624,37.7492 370.5,38.5C 369.712,40.3289 370.212,41.9956 372,43.5C 372.417,48.8743 374.25,53.5409 377.5,57.5C 377.474,65.8593 376.974,74.1926 376,82.5C 375.617,83.056 375.117,83.3893 374.5,83.5C 374.763,79.3998 374.43,75.3998 373.5,71.5C 374.492,71.6716 375.158,71.3382 375.5,70.5C 376.638,67.6965 376.805,64.6965 376,61.5C 373.929,60.4752 371.762,59.6419 369.5,59C 370.167,58.6667 370.833,58.3333 371.5,58C 370.167,57 368.833,56 367.5,55C 368.167,54.6667 368.833,54.3333 369.5,54C 367.566,52.647 365.733,51.147 364,49.5C 361.891,52.2796 360.058,52.1129 358.5,49C 359.756,48.5831 360.423,47.7498 360.5,46.5C 361.625,45.3478 361.625,44.3478 360.5,43.5C 359.489,40.9818 358.156,40.9818 356.5,43.5C 355.614,42.675 355.281,41.675 355.5,40.5C 356.5,40.5 357.5,40.5 358.5,40.5C 358.5,39.5 358.5,38.5 358.5,37.5C 357.167,37.5 355.833,37.5 354.5,37.5C 354.5,38.5 354.5,39.5 354.5,40.5C 351.615,40.8064 348.948,40.4731 346.5,39.5C 347.598,38.3991 347.765,37.0657 347,35.5C 346.667,36.1667 346.333,36.8333 346,37.5C 345.601,37.2716 345.435,36.9382 345.5,36.5C 345.5,35.5 345.5,34.5 345.5,33.5C 338.994,32.8688 332.494,31.8688 326,30.5C 322.8,31.2351 321.3,33.2351 321.5,36.5C 318.215,36.2693 315.715,37.6026 314,40.5C 312.563,50.8383 310.397,60.8383 307.5,70.5C 301.551,59.6966 298.885,48.03 299.5,35.5C 299.5,34.8333 299.5,34.1667 299.5,33.5C 300.02,40.9092 301.52,48.2425 304,55.5C 304.694,51.759 305.861,48.259 307.5,45C 307.167,44.6667 306.833,44.3333 306.5,44C 307.911,40.5117 309.577,37.1783 311.5,34C 312.244,31.5172 312.244,28.8506 311.5,26C 314.265,22.764 317.598,21.5973 321.5,22.5C 326.447,21.7174 331.447,21.2174 336.5,21C 337.044,20.2828 337.711,19.7828 338.5,19.5 Z"/></g>
<g><path style="opacity:1" fill="#97a5a8" d="M 339.5,26.5 C 341.941,26.7499 343.941,27.7499 345.5,29.5C 344.207,30.6448 343.041,30.3115 342,28.5C 341.667,29.1667 341.333,29.8333 341,30.5C 339.812,29.4366 339.312,28.1033 339.5,26.5 Z"/></g>
<g><path style="opacity:1" fill="#a1acae" d="M 345.5,36.5 C 345.435,36.9382 345.601,37.2716 346,37.5C 346.333,36.8333 346.667,36.1667 347,35.5C 347.765,37.0657 347.598,38.3991 346.5,39.5C 345.542,39.0472 344.708,38.3805 344,37.5C 342.929,40.1125 342.095,40.1125 341.5,37.5C 341.281,36.325 341.614,35.325 342.5,34.5C 343.518,35.1925 344.518,35.8592 345.5,36.5 Z"/></g>
<g><path style="opacity:1" fill="#a4a8a9" d="M 298.5,35.5 C 298.706,38.4951 298.04,41.1617 296.5,43.5C 296.294,40.5049 296.96,37.8383 298.5,35.5 Z"/></g>
<g><path style="opacity:1" fill="#838e91" d="M 360.5,43.5 C 361.625,44.3478 361.625,45.3478 360.5,46.5C 359.508,46.6716 358.842,46.3382 358.5,45.5C 358.5,44.1667 359.167,43.5 360.5,43.5 Z"/></g>
<g><path style="opacity:1" fill="#083338" d="M 341.5,37.5 C 342.095,40.1125 342.929,40.1125 344,37.5C 344.708,38.3805 345.542,39.0472 346.5,39.5C 348.948,40.4731 351.615,40.8064 354.5,40.5C 354.5,39.5 354.5,38.5 354.5,37.5C 355.833,37.5 357.167,37.5 358.5,37.5C 358.5,38.5 358.5,39.5 358.5,40.5C 357.5,40.5 356.5,40.5 355.5,40.5C 355.281,41.675 355.614,42.675 356.5,43.5C 358.156,40.9818 359.489,40.9818 360.5,43.5C 359.167,43.5 358.5,44.1667 358.5,45.5C 357.685,46.4293 356.852,47.4293 356,48.5C 355.023,47.2264 354.189,47.2264 353.5,48.5C 352.542,48.0472 351.708,47.3805 351,46.5C 350.691,48.3914 351.525,49.7248 353.5,50.5C 352.833,50.8333 352.167,51.1667 351.5,51.5C 352.325,52.3857 353.325,52.719 354.5,52.5C 354.611,53.1174 354.944,53.6174 355.5,54C 354.051,55.117 352.384,55.7837 350.5,56C 351.774,56.9772 351.774,57.8106 350.5,58.5C 348.5,57.1667 346.5,57.1667 344.5,58.5C 341.904,59.2653 339.237,59.5987 336.5,59.5C 336.5,60.5 336.5,61.5 336.5,62.5C 336.167,62.5 335.833,62.5 335.5,62.5C 332.069,60.6905 328.402,59.6905 324.5,59.5C 324.5,57.1667 324.5,54.8333 324.5,52.5C 323.5,52.5 322.5,52.5 321.5,52.5C 321.5,53.5 321.5,54.5 321.5,55.5C 320.5,55.5 319.5,55.5 318.5,55.5C 318.5,52.5 318.5,49.5 318.5,46.5C 317.5,46.5 316.5,46.5 315.5,46.5C 315.5,45.5 315.5,44.5 315.5,43.5C 316.5,43.5 317.5,43.5 318.5,43.5C 318.5,42.5 318.5,41.5 318.5,40.5C 323.5,40.5 328.5,40.5 333.5,40.5C 333.5,41.5 333.5,42.5 333.5,43.5C 334.5,43.5 335.5,43.5 336.5,43.5C 336.5,41.5 336.5,39.5 336.5,37.5C 338.167,37.5 339.833,37.5 341.5,37.5 Z"/></g>
<g><path style="opacity:1" fill="#6f8d92" d="M 347.5,45.5 C 348.438,47.9227 347.938,50.256 346,52.5C 345.761,50.0405 346.261,47.7072 347.5,45.5 Z"/></g>
<g><path style="opacity:1" fill="#899ea2" d="M 353.5,48.5 C 355.519,49.5383 355.853,50.8716 354.5,52.5C 353.325,52.719 352.325,52.3857 351.5,51.5C 352.167,51.1667 352.833,50.8333 353.5,50.5C 351.525,49.7248 350.691,48.3914 351,46.5C 351.708,47.3805 352.542,48.0472 353.5,48.5 Z"/></g>
<g><path style="opacity:1" fill="#9aabaf" d="M 337.5,45.5 C 342.486,45.3049 344.152,47.4716 342.5,52C 340.866,52.4935 339.199,52.6602 337.5,52.5C 337.5,50.1667 337.5,47.8333 337.5,45.5 Z"/></g>
<g><path style="opacity:1" fill="#17292e" d="M 338.5,47.5 C 339.5,47.5 340.5,47.5 341.5,47.5C 340.5,52.8333 339.5,52.8333 338.5,47.5 Z"/></g>
<g><path style="opacity:1" fill="#768284" d="M 375.5,32.5 C 379.98,38.5364 382.98,45.2031 384.5,52.5C 384.5,52.8333 384.5,53.1667 384.5,53.5C 383.58,59.1599 382.413,64.8266 381,70.5C 379.928,62.203 379.261,53.8696 379,45.5C 377.623,41.2572 376.456,36.9238 375.5,32.5 Z"/></g>
<g><path style="opacity:1" fill="#9aa8ac" d="M 350.5,58.5 C 348.627,62.3357 346.627,62.3357 344.5,58.5C 346.5,57.1667 348.5,57.1667 350.5,58.5 Z"/></g>
<g><path style="opacity:1" fill="#1a3036" d="M 358.5,45.5 C 358.842,46.3382 359.508,46.6716 360.5,46.5C 360.423,47.7498 359.756,48.5831 358.5,49C 360.058,52.1129 361.891,52.2796 364,49.5C 365.733,51.147 367.566,52.647 369.5,54C 368.833,54.3333 368.167,54.6667 367.5,55C 368.833,56 370.167,57 371.5,58C 370.833,58.3333 370.167,58.6667 369.5,59C 371.762,59.6419 373.929,60.4752 376,61.5C 376.805,64.6965 376.638,67.6965 375.5,70.5C 375.092,69.3569 374.425,68.3569 373.5,67.5C 361.455,63.786 349.122,62.1193 336.5,62.5C 336.5,61.5 336.5,60.5 336.5,59.5C 339.237,59.5987 341.904,59.2653 344.5,58.5C 346.627,62.3357 348.627,62.3357 350.5,58.5C 351.774,57.8106 351.774,56.9772 350.5,56C 352.384,55.7837 354.051,55.117 355.5,54C 354.944,53.6174 354.611,53.1174 354.5,52.5C 355.853,50.8716 355.519,49.5383 353.5,48.5C 354.189,47.2264 355.023,47.2264 356,48.5C 356.852,47.4293 357.685,46.4293 358.5,45.5 Z"/></g>
<g><path style="opacity:1" fill="#1e3239" d="M 345.5,36.5 C 344.518,35.8592 343.518,35.1925 342.5,34.5C 341.614,35.325 341.281,36.325 341.5,37.5C 339.833,37.5 338.167,37.5 336.5,37.5C 336.5,39.5 336.5,41.5 336.5,43.5C 335.5,43.5 334.5,43.5 333.5,43.5C 333.5,42.5 333.5,41.5 333.5,40.5C 328.5,40.5 323.5,40.5 318.5,40.5C 318.5,41.5 318.5,42.5 318.5,43.5C 317.5,43.5 316.5,43.5 315.5,43.5C 315.5,44.5 315.5,45.5 315.5,46.5C 316.5,46.5 317.5,46.5 318.5,46.5C 318.5,49.5 318.5,52.5 318.5,55.5C 319.5,55.5 320.5,55.5 321.5,55.5C 321.5,54.5 321.5,53.5 321.5,52.5C 322.5,52.5 323.5,52.5 324.5,52.5C 324.5,54.8333 324.5,57.1667 324.5,59.5C 328.402,59.6905 332.069,60.6905 335.5,62.5C 332.023,63.3227 328.356,63.8227 324.5,64C 328.152,64.4986 331.818,64.6653 335.5,64.5C 334.194,65.4674 333.527,66.8007 333.5,68.5C 331.5,68.5 329.5,68.5 327.5,68.5C 327.5,69.5 327.5,70.5 327.5,71.5C 325.5,71.5 323.5,71.5 321.5,71.5C 321.383,73.4835 322.05,75.1502 323.5,76.5C 321.484,77.6942 319.484,77.6942 317.5,76.5C 318.184,72.7076 319.184,69.0409 320.5,65.5C 321.552,65.6495 322.552,65.4828 323.5,65C 321.559,64.2571 319.726,64.4238 318,65.5C 317.667,68.5 317.333,71.5 317,74.5C 314.535,77.3081 313.702,80.3081 314.5,83.5C 314.065,85.7033 314.065,87.7033 314.5,89.5C 315.828,95.4797 317.161,101.48 318.5,107.5C 318.457,108.416 318.124,109.083 317.5,109.5C 314.164,96.4802 310.83,83.4802 307.5,70.5C 310.397,60.8383 312.563,50.8383 314,40.5C 315.715,37.6026 318.215,36.2693 321.5,36.5C 321.3,33.2351 322.8,31.2351 326,30.5C 332.494,31.8688 338.994,32.8688 345.5,33.5C 345.5,34.5 345.5,35.5 345.5,36.5 Z"/></g>
<g><path style="opacity:1" fill="#505a80" d="M 335.5,62.5 C 335.833,62.5 336.167,62.5 336.5,62.5C 349.122,62.1193 361.455,63.786 373.5,67.5C 374.425,68.3569 375.092,69.3569 375.5,70.5C 375.158,71.3382 374.492,71.6716 373.5,71.5C 372.842,70.6016 372.176,69.6016 371.5,68.5C 359.761,65.0449 347.761,63.7116 335.5,64.5C 331.818,64.6653 328.152,64.4986 324.5,64C 328.356,63.8227 332.023,63.3227 335.5,62.5 Z"/></g>
<g><path style="opacity:1" fill="#66686c" d="M 295.5,53.5 C 298.165,65.8295 300.832,78.1628 303.5,90.5C 302.686,92.631 302.186,94.9644 302,97.5C 301.901,95.3474 301.067,93.6808 299.5,92.5C 294.699,79.7357 293.366,66.7357 295.5,53.5 Z"/></g>
<g><path style="opacity:1" fill="#c9cccd" d="M 384.5,52.5 C 386.022,57.7483 386.689,63.2483 386.5,69C 386.689,74.7517 386.022,80.2517 384.5,85.5C 384.5,84.8333 384.5,84.1667 384.5,83.5C 385.799,73.5032 385.799,63.5032 384.5,53.5C 384.5,53.1667 384.5,52.8333 384.5,52.5 Z"/></g>
<g><path style="opacity:1" fill="#5d6e76" d="M 317.5,76.5 C 316.227,78.7128 315.227,81.0462 314.5,83.5C 313.702,80.3081 314.535,77.3081 317,74.5C 317.333,71.5 317.667,68.5 318,65.5C 319.726,64.4238 321.559,64.2571 323.5,65C 322.552,65.4828 321.552,65.6495 320.5,65.5C 319.184,69.0409 318.184,72.7076 317.5,76.5 Z"/></g>
<g><path style="opacity:1" fill="#13282e" d="M 335.5,64.5 C 347.761,63.7116 359.761,65.0449 371.5,68.5C 372.176,69.6016 372.842,70.6016 373.5,71.5C 374.43,75.3998 374.763,79.3998 374.5,83.5C 372.015,88.4716 369.681,93.4716 367.5,98.5C 367.961,96.4496 368.628,94.4496 369.5,92.5C 367.382,90.5607 367.049,88.394 368.5,86C 367.5,85.5 366.5,85 365.5,84.5C 364.476,85.8532 363.143,86.5198 361.5,86.5C 361.649,85.448 361.483,84.448 361,83.5C 358.724,86.057 355.89,87.7236 352.5,88.5C 350.952,88.1788 350.285,87.1788 350.5,85.5C 354.5,83.8333 358.5,82.1667 362.5,80.5C 362.784,78.1229 362.784,75.9562 362.5,74C 359.498,74.1584 356.498,74.6584 353.5,75.5C 353.649,76.552 353.483,77.552 353,78.5C 351.732,78.3842 350.398,78.0509 349,77.5C 347.902,78.9675 346.402,79.8008 344.5,80C 345.711,80.8928 345.711,81.7261 344.5,82.5C 343.614,81.675 343.281,80.675 343.5,79.5C 340.291,79.4107 337.125,79.744 334,80.5C 332.674,80.2451 331.674,79.5784 331,78.5C 327.594,79.7996 325.761,82.2996 325.5,86C 322.902,85.5783 320.236,85.5783 317.5,86C 316.027,86.7096 315.36,87.8762 315.5,89.5C 315.167,89.5 314.833,89.5 314.5,89.5C 314.065,87.7033 314.065,85.7033 314.5,83.5C 315.227,81.0462 316.227,78.7128 317.5,76.5C 319.484,77.6942 321.484,77.6942 323.5,76.5C 322.05,75.1502 321.383,73.4835 321.5,71.5C 323.5,71.5 325.5,71.5 327.5,71.5C 327.5,70.5 327.5,69.5 327.5,68.5C 329.5,68.5 331.5,68.5 333.5,68.5C 333.527,66.8007 334.194,65.4674 335.5,64.5 Z"/></g>
<g><path style="opacity:1" fill="#0c2126" d="M 352.5,88.5 C 351.791,89.404 350.791,89.7373 349.5,89.5C 349.662,87.4727 349.495,85.4727 349,83.5C 345.793,85.6882 344.793,88.6882 346,92.5C 347.281,97.8602 349.781,102.527 353.5,106.5C 354.59,108.791 355.09,111.124 355,113.5C 353.333,114.167 351.667,114.833 350,115.5C 347.794,111.551 346.461,107.551 346,103.5C 342.64,102.306 340.473,99.9724 339.5,96.5C 334.963,102.446 333.296,109.113 334.5,116.5C 338.73,120.054 343.73,121.387 349.5,120.5C 345.355,121.726 341.022,122.226 336.5,122C 334.457,120.189 332.957,118.022 332,115.5C 329.911,107.339 327.411,99.3393 324.5,91.5C 321.358,90.8326 318.358,90.166 315.5,89.5C 315.36,87.8762 316.027,86.7096 317.5,86C 320.236,85.5783 322.902,85.5783 325.5,86C 325.761,82.2996 327.594,79.7996 331,78.5C 331.674,79.5784 332.674,80.2451 334,80.5C 337.125,79.744 340.291,79.4107 343.5,79.5C 343.281,80.675 343.614,81.675 344.5,82.5C 345.711,81.7261 345.711,80.8928 344.5,80C 346.402,79.8008 347.902,78.9675 349,77.5C 350.398,78.0509 351.732,78.3842 353,78.5C 353.483,77.552 353.649,76.552 353.5,75.5C 356.498,74.6584 359.498,74.1584 362.5,74C 362.784,75.9562 362.784,78.1229 362.5,80.5C 358.5,82.1667 354.5,83.8333 350.5,85.5C 350.285,87.1788 350.952,88.1788 352.5,88.5 Z"/></g>
<g><path style="opacity:1" fill="#515d61" d="M 346.5,13.5 C 356.484,12.5807 364.65,15.914 371,23.5C 372.527,26.5531 374.027,29.5531 375.5,32.5C 376.456,36.9238 377.623,41.2572 379,45.5C 379.261,53.8696 379.928,62.203 381,70.5C 382.413,64.8266 383.58,59.1599 384.5,53.5C 385.799,63.5032 385.799,73.5032 384.5,83.5C 383.5,83.5 382.5,83.5 381.5,83.5C 378.189,97.2717 374.356,110.938 370,124.5C 368.768,128.061 367.268,131.394 365.5,134.5C 364.527,136.25 363.193,137.75 361.5,139C 358.183,139.498 354.85,139.665 351.5,139.5C 351.331,137.088 351.997,134.921 353.5,133C 353.43,132.235 353.097,131.735 352.5,131.5C 354.655,128.397 356.989,125.397 359.5,122.5C 362.507,117.144 365.007,111.477 367,105.5C 367.494,103.866 367.66,102.199 367.5,100.5C 367.5,99.8333 367.5,99.1667 367.5,98.5C 369.681,93.4716 372.015,88.4716 374.5,83.5C 375.117,83.3893 375.617,83.056 376,82.5C 376.974,74.1926 377.474,65.8593 377.5,57.5C 376.113,48.9499 373.946,40.6165 371,32.5C 369.989,31.6634 368.822,31.33 367.5,31.5C 367.768,28.8806 367.435,26.3806 366.5,24C 360.676,21.9148 354.843,19.7482 349,17.5C 347.463,18.0345 345.963,18.3678 344.5,18.5C 343.614,19.325 343.281,20.325 343.5,21.5C 342.041,21.4326 340.708,21.7659 339.5,22.5C 338.596,21.791 338.263,20.791 338.5,19.5C 338.918,18.7784 339.584,18.2784 340.5,18C 340.167,17.6667 339.833,17.3333 339.5,17C 334.231,15.8938 328.897,15.2272 323.5,15C 331.344,14.829 339.011,14.329 346.5,13.5 Z"/></g>
<g><path style="opacity:1" fill="#021c22" d="M 352.5,88.5 C 355.89,87.7236 358.724,86.057 361,83.5C 361.483,84.448 361.649,85.448 361.5,86.5C 363.143,86.5198 364.476,85.8532 365.5,84.5C 366.5,85 367.5,85.5 368.5,86C 367.049,88.394 367.382,90.5607 369.5,92.5C 368.628,94.4496 367.961,96.4496 367.5,98.5C 367.5,99.1667 367.5,99.8333 367.5,100.5C 364.562,106.931 361.229,113.264 357.5,119.5C 354.914,120.48 352.247,120.813 349.5,120.5C 343.73,121.387 338.73,120.054 334.5,116.5C 333.296,109.113 334.963,102.446 339.5,96.5C 340.473,99.9724 342.64,102.306 346,103.5C 346.461,107.551 347.794,111.551 350,115.5C 351.667,114.833 353.333,114.167 355,113.5C 355.09,111.124 354.59,108.791 353.5,106.5C 349.781,102.527 347.281,97.8602 346,92.5C 344.793,88.6882 345.793,85.6882 349,83.5C 349.495,85.4727 349.662,87.4727 349.5,89.5C 350.791,89.7373 351.791,89.404 352.5,88.5 Z"/></g>
<g><path style="opacity:1" fill="#273b41" d="M 314.5,89.5 C 314.833,89.5 315.167,89.5 315.5,89.5C 318.358,90.166 321.358,90.8326 324.5,91.5C 327.411,99.3393 329.911,107.339 332,115.5C 332.957,118.022 334.457,120.189 336.5,122C 341.022,122.226 345.355,121.726 349.5,120.5C 352.247,120.813 354.914,120.48 357.5,119.5C 361.229,113.264 364.562,106.931 367.5,100.5C 367.66,102.199 367.494,103.866 367,105.5C 365.007,111.477 362.507,117.144 359.5,122.5C 353.779,122.868 348.112,123.534 342.5,124.5C 342.5,125.5 342.5,126.5 342.5,127.5C 339.203,127.671 338.869,127.005 341.5,125.5C 339.955,124.548 338.288,124.215 336.5,124.5C 334.657,123.717 332.657,123.05 330.5,122.5C 328.877,123.491 327.877,122.824 327.5,120.5C 327.709,119.914 328.043,119.414 328.5,119C 326.285,118.612 324.952,117.612 324.5,116C 325.167,115.667 325.833,115.333 326.5,115C 323.087,113.731 320.921,111.231 320,107.5C 319.34,110.534 319.84,113.367 321.5,116C 320.956,116.717 320.289,117.217 319.5,117.5C 319.142,114.733 318.475,112.067 317.5,109.5C 318.124,109.083 318.457,108.416 318.5,107.5C 317.161,101.48 315.828,95.4797 314.5,89.5 Z"/></g>
<g><path style="opacity:1" fill="#536163" d="M 304.5,92.5 C 308.644,97.8782 310.977,103.712 311.5,110C 310.436,113.527 311.102,116.861 313.5,120C 312.572,120.388 311.905,121.055 311.5,122C 310.93,124.846 311.596,127.513 313.5,130C 312.288,136.278 311.288,142.445 310.5,148.5C 308.707,129.797 306.707,111.131 304.5,92.5 Z"/></g>
<g><path style="opacity:1" fill="#758284" d="M 384.5,83.5 C 384.5,84.1667 384.5,84.8333 384.5,85.5C 378.233,112.834 371.4,140.168 364,167.5C 363.264,170.592 363.431,173.592 364.5,176.5C 363.883,176.611 363.383,176.944 363,177.5C 362.501,172.177 362.334,166.844 362.5,161.5C 362.5,155.167 362.5,148.833 362.5,142.5C 363.937,140.04 364.937,137.374 365.5,134.5C 367.268,131.394 368.768,128.061 370,124.5C 374.356,110.938 378.189,97.2717 381.5,83.5C 382.5,83.5 383.5,83.5 384.5,83.5 Z"/></g>
<g><path style="opacity:1" fill="#445257" d="M 298.5,35.5 C 298.833,35.5 299.167,35.5 299.5,35.5C 298.885,48.03 301.551,59.6966 307.5,70.5C 310.83,83.4802 314.164,96.4802 317.5,109.5C 318.475,112.067 319.142,114.733 319.5,117.5C 321.224,124.948 322.89,132.448 324.5,140C 323.915,142.134 322.582,143.634 320.5,144.5C 321.245,148.932 319.245,151.932 314.5,153.5C 310.855,157.122 308.522,161.456 307.5,166.5C 307.167,166.5 306.833,166.5 306.5,166.5C 306.325,164.379 306.659,162.379 307.5,160.5C 309.342,156.841 310.342,152.841 310.5,148.5C 311.288,142.445 312.288,136.278 313.5,130C 311.596,127.513 310.93,124.846 311.5,122C 311.905,121.055 312.572,120.388 313.5,120C 311.102,116.861 310.436,113.527 311.5,110C 310.977,103.712 308.644,97.8782 304.5,92.5C 304.672,91.5084 304.338,90.8417 303.5,90.5C 300.832,78.1628 298.165,65.8295 295.5,53.5C 296.051,50.1933 296.384,46.8599 296.5,43.5C 298.04,41.1617 298.706,38.4951 298.5,35.5 Z"/></g>
<g><path style="opacity:1" fill="#7d8385" d="M 303.5,90.5 C 304.338,90.8417 304.672,91.5084 304.5,92.5C 306.707,111.131 308.707,129.797 310.5,148.5C 310.342,152.841 309.342,156.841 307.5,160.5C 306.085,143.858 304.918,127.191 304,110.5C 302.497,104.487 300.997,98.4866 299.5,92.5C 301.067,93.6808 301.901,95.3474 302,97.5C 302.186,94.9644 302.686,92.631 303.5,90.5 Z"/></g>
<g><path style="opacity:1" fill="#394c51" d="M 336.5,124.5 C 336.577,125.75 337.244,126.583 338.5,127C 335.808,127.43 333.141,127.263 330.5,126.5C 330.33,127.822 330.663,128.989 331.5,130C 326.52,130.526 326.187,132.026 330.5,134.5C 333.428,135.484 336.428,135.817 339.5,135.5C 339.222,137.346 339.889,138.68 341.5,139.5C 343.468,137.546 344.802,135.212 345.5,132.5C 348.059,132.802 350.393,132.468 352.5,131.5C 353.097,131.735 353.43,132.235 353.5,133C 351.997,134.921 351.331,137.088 351.5,139.5C 354.85,139.665 358.183,139.498 361.5,139C 363.193,137.75 364.527,136.25 365.5,134.5C 364.937,137.374 363.937,140.04 362.5,142.5C 361.735,143.66 360.735,144.66 359.5,145.5C 358.614,144.675 358.281,143.675 358.5,142.5C 357.448,142.351 356.448,142.517 355.5,143C 354.167,143.667 354.167,144.333 355.5,145C 353.866,145.494 352.199,145.66 350.5,145.5C 351.16,142.351 353.16,140.851 356.5,141C 347.756,140.805 339.089,140.305 330.5,139.5C 328.97,138.933 327.47,138.267 326,137.5C 325.58,141.191 325.08,144.858 324.5,148.5C 323.883,148.611 323.383,148.944 323,149.5C 322.975,153.953 321.808,157.953 319.5,161.5C 319.565,161.062 319.399,160.728 319,160.5C 318.691,161.766 318.191,162.933 317.5,164C 312.479,164.549 309.146,167.049 307.5,171.5C 307.5,169.833 307.5,168.167 307.5,166.5C 308.522,161.456 310.855,157.122 314.5,153.5C 319.245,151.932 321.245,148.932 320.5,144.5C 322.582,143.634 323.915,142.134 324.5,140C 322.89,132.448 321.224,124.948 319.5,117.5C 320.289,117.217 320.956,116.717 321.5,116C 319.84,113.367 319.34,110.534 320,107.5C 320.921,111.231 323.087,113.731 326.5,115C 325.833,115.333 325.167,115.667 324.5,116C 324.952,117.612 326.285,118.612 328.5,119C 328.043,119.414 327.709,119.914 327.5,120.5C 327.877,122.824 328.877,123.491 330.5,122.5C 332.657,123.05 334.657,123.717 336.5,124.5 Z"/></g>
<g><path style="opacity:1" fill="#2a4d50" d="M 359.5,122.5 C 356.989,125.397 354.655,128.397 352.5,131.5C 350.393,132.468 348.059,132.802 345.5,132.5C 344.802,135.212 343.468,137.546 341.5,139.5C 339.889,138.68 339.222,137.346 339.5,135.5C 336.428,135.817 333.428,135.484 330.5,134.5C 326.187,132.026 326.52,130.526 331.5,130C 330.663,128.989 330.33,127.822 330.5,126.5C 333.141,127.263 335.808,127.43 338.5,127C 337.244,126.583 336.577,125.75 336.5,124.5C 338.288,124.215 339.955,124.548 341.5,125.5C 338.869,127.005 339.203,127.671 342.5,127.5C 342.5,126.5 342.5,125.5 342.5,124.5C 348.112,123.534 353.779,122.868 359.5,122.5 Z"/></g>
<g><path style="opacity:1" fill="#2b4f52" d="M 362.5,142.5 C 362.5,148.833 362.5,155.167 362.5,161.5C 361.833,163.5 361.167,165.5 360.5,167.5C 359.883,167.389 359.383,167.056 359,166.5C 358.751,167.624 358.251,168.624 357.5,169.5C 356.756,168.009 356.09,166.509 355.5,165C 355.833,164.667 356.167,164.333 356.5,164C 353.536,163.16 353.203,162.16 355.5,161C 353.519,160.395 353.185,159.395 354.5,158C 352.833,156.333 351.167,154.667 349.5,153C 350.5,152.667 351.5,152.333 352.5,152C 349.536,151.16 349.203,150.16 351.5,149C 350.672,148.085 349.672,147.419 348.5,147C 349.416,146.722 350.082,146.222 350.5,145.5C 352.199,145.66 353.866,145.494 355.5,145C 354.167,144.333 354.167,143.667 355.5,143C 356.448,142.517 357.448,142.351 358.5,142.5C 358.281,143.675 358.614,144.675 359.5,145.5C 360.735,144.66 361.735,143.66 362.5,142.5 Z"/></g>
<g><path style="opacity:1" fill="#0d3a3e" d="M 330.5,139.5 C 330.5,140.5 330.5,141.5 330.5,142.5C 332.103,142.312 333.437,142.812 334.5,144C 333.565,146.381 333.232,148.881 333.5,151.5C 337.324,149.819 341.324,149.319 345.5,150C 342.668,151.908 343.001,152.741 346.5,152.5C 347.159,155.161 348.492,157.494 350.5,159.5C 350.291,160.086 349.957,160.586 349.5,161C 352.447,162.223 353.447,164.223 352.5,167C 353.624,167.839 354.291,169.006 354.5,170.5C 354.36,172.03 353.693,173.03 352.5,173.5C 351.489,171.494 350.489,169.494 349.5,167.5C 349.68,166.446 350.013,165.446 350.5,164.5C 347.788,163.772 345.121,162.939 342.5,162C 344.167,161.667 345.833,161.333 347.5,161C 346.663,159.989 346.33,158.822 346.5,157.5C 344.508,157.328 342.842,157.995 341.5,159.5C 340.304,159.154 340.304,158.654 341.5,158C 335.843,157.501 330.176,157.334 324.5,157.5C 323.167,154.5 323.167,151.5 324.5,148.5C 325.08,144.858 325.58,141.191 326,137.5C 327.47,138.267 328.97,138.933 330.5,139.5 Z"/></g>
<g><path style="opacity:1" fill="#223e43" d="M 330.5,139.5 C 339.089,140.305 347.756,140.805 356.5,141C 353.16,140.851 351.16,142.351 350.5,145.5C 350.082,146.222 349.416,146.722 348.5,147C 349.672,147.419 350.672,148.085 351.5,149C 349.203,150.16 349.536,151.16 352.5,152C 351.5,152.333 350.5,152.667 349.5,153C 351.167,154.667 352.833,156.333 354.5,158C 353.185,159.395 353.519,160.395 355.5,161C 353.203,162.16 353.536,163.16 356.5,164C 356.167,164.333 355.833,164.667 355.5,165C 356.09,166.509 356.756,168.009 357.5,169.5C 358.251,168.624 358.751,167.624 359,166.5C 359.383,167.056 359.883,167.389 360.5,167.5C 360.666,171.846 360.499,176.179 360,180.5C 359.617,181.056 359.117,181.389 358.5,181.5C 357.504,181.586 356.671,181.252 356,180.5C 355.109,177.97 353.942,175.637 352.5,173.5C 353.693,173.03 354.36,172.03 354.5,170.5C 354.291,169.006 353.624,167.839 352.5,167C 353.447,164.223 352.447,162.223 349.5,161C 349.957,160.586 350.291,160.086 350.5,159.5C 348.492,157.494 347.159,155.161 346.5,152.5C 343.001,152.741 342.668,151.908 345.5,150C 341.324,149.319 337.324,149.819 333.5,151.5C 333.232,148.881 333.565,146.381 334.5,144C 333.437,142.812 332.103,142.312 330.5,142.5C 330.5,141.5 330.5,140.5 330.5,139.5 Z"/></g>
<g><path style="opacity:1" fill="#2c3c40" d="M 319.5,161.5 C 317.961,168.529 316.294,175.529 314.5,182.5C 314.5,182.833 314.5,183.167 314.5,183.5C 311.693,180.574 309.36,177.24 307.5,173.5C 303.571,174.433 299.571,174.766 295.5,174.5C 288.507,173.767 281.507,173.101 274.5,172.5C 263.012,171.505 251.345,171.172 239.5,171.5C 239.611,170.883 239.944,170.383 240.5,170C 243.036,169.814 245.369,169.314 247.5,168.5C 249.978,167.836 252.645,167.503 255.5,167.5C 269.156,168.708 282.823,169.708 296.5,170.5C 299.962,171.482 303.629,171.815 307.5,171.5C 309.146,167.049 312.479,164.549 317.5,164C 318.191,162.933 318.691,161.766 319,160.5C 319.399,160.728 319.565,161.062 319.5,161.5 Z"/></g>
<g><path style="opacity:1" fill="#b1b5b7" d="M 306.5,166.5 C 306.833,166.5 307.167,166.5 307.5,166.5C 307.5,168.167 307.5,169.833 307.5,171.5C 303.629,171.815 299.962,171.482 296.5,170.5C 299.833,170.5 303.167,170.5 306.5,170.5C 306.5,169.167 306.5,167.833 306.5,166.5 Z"/></g>
<g><path style="opacity:1" fill="#454f53" d="M 219.5,171.5 C 218.002,174.331 215.669,175.998 212.5,176.5C 214.334,185.496 216.001,194.496 217.5,203.5C 213.678,193.539 210.678,183.205 208.5,172.5C 212.179,172.276 215.846,171.942 219.5,171.5 Z"/></g>
<g><path style="opacity:1" fill="#06292e" d="M 324.5,148.5 C 323.167,151.5 323.167,154.5 324.5,157.5C 330.176,157.334 335.843,157.501 341.5,158C 340.304,158.654 340.304,159.154 341.5,159.5C 342.842,157.995 344.508,157.328 346.5,157.5C 346.33,158.822 346.663,159.989 347.5,161C 345.833,161.333 344.167,161.667 342.5,162C 345.121,162.939 347.788,163.772 350.5,164.5C 350.013,165.446 349.68,166.446 349.5,167.5C 350.489,169.494 351.489,171.494 352.5,173.5C 353.942,175.637 355.109,177.97 356,180.5C 356.671,181.252 357.504,181.586 358.5,181.5C 358.5,182.167 358.5,182.833 358.5,183.5C 353.771,185.767 348.771,187.267 343.5,188C 341.074,189.145 338.741,190.478 336.5,192C 337.833,192.667 337.833,193.333 336.5,194C 340.588,193.645 343.588,195.145 345.5,198.5C 346.141,199.482 346.807,200.482 347.5,201.5C 346.359,202.425 346.359,203.259 347.5,204C 346.833,204.667 346.167,205.333 345.5,206C 342.595,205.316 339.595,204.483 336.5,203.5C 335.833,203.5 335.167,203.5 334.5,203.5C 330.425,201.783 326.092,201.283 321.5,202C 320.953,202.925 320.287,203.758 319.5,204.5C 317.748,202.494 316.748,200.161 316.5,197.5C 317.333,193.514 317.499,189.514 317,185.5C 316.148,184.429 315.315,183.429 314.5,182.5C 316.294,175.529 317.961,168.529 319.5,161.5C 321.808,157.953 322.975,153.953 323,149.5C 323.383,148.944 323.883,148.611 324.5,148.5 Z"/></g>
<g><path style="opacity:1" fill="#405c5f" d="M 239.5,171.5 C 251.345,171.172 263.012,171.505 274.5,172.5C 261.43,172.065 248.43,172.732 235.5,174.5C 240.5,175.333 245.5,176.167 250.5,177C 268.503,178.018 286.503,178.685 304.5,179C 304.833,178 305.167,177 305.5,176C 301.975,175.821 298.641,175.321 295.5,174.5C 299.571,174.766 303.571,174.433 307.5,173.5C 309.36,177.24 311.693,180.574 314.5,183.5C 314.18,187.084 313.013,187.751 311,185.5C 308.95,189.539 308.116,193.872 308.5,198.5C 307.5,198.5 306.5,198.5 305.5,198.5C 305.169,200.322 304.502,201.989 303.5,203.5C 301.632,213.599 299.965,223.599 298.5,233.5C 298.935,227.158 299.102,220.825 299,214.5C 298.768,215.737 298.268,216.737 297.5,217.5C 298.489,211.541 299.156,205.541 299.5,199.5C 299.225,193.878 300.225,188.544 302.5,183.5C 303.404,182.791 303.737,181.791 303.5,180.5C 286.152,180.41 269.819,181.076 254.5,182.5C 252.949,180.455 250.949,178.955 248.5,178C 244.21,177.077 239.877,176.577 235.5,176.5C 235.167,176.5 234.833,176.5 234.5,176.5C 233.697,175.577 233.53,174.577 234,173.5C 235.815,172.756 237.648,172.089 239.5,171.5 Z"/></g>
<g><path style="opacity:1" fill="#47676b" d="M 274.5,172.5 C 281.507,173.101 288.507,173.767 295.5,174.5C 298.641,175.321 301.975,175.821 305.5,176C 305.167,177 304.833,178 304.5,179C 286.503,178.685 268.503,178.018 250.5,177C 245.5,176.167 240.5,175.333 235.5,174.5C 248.43,172.732 261.43,172.065 274.5,172.5 Z"/></g>
<g><path style="opacity:1" fill="#c0c4c5" d="M 376.5,180.5 C 381.165,181.057 385.498,182.39 389.5,184.5C 384.835,183.943 380.502,182.61 376.5,180.5 Z"/></g>
<g><path style="opacity:1" fill="#304f53" d="M 235.5,176.5 C 239.877,176.577 244.21,177.077 248.5,178C 250.949,178.955 252.949,180.455 254.5,182.5C 269.819,181.076 286.152,180.41 303.5,180.5C 303.737,181.791 303.404,182.791 302.5,183.5C 299.881,183.768 297.381,183.435 295,182.5C 292.787,183.802 290.454,184.802 288,185.5C 287.667,184.833 287.333,184.167 287,183.5C 285.412,185.421 283.912,187.421 282.5,189.5C 282.846,190.696 283.346,190.696 284,189.5C 284.202,191.256 284.702,192.922 285.5,194.5C 288.692,195.866 292.026,196.699 295.5,197C 296.308,198.706 297.641,199.539 299.5,199.5C 299.156,205.541 298.489,211.541 297.5,217.5C 297.672,218.492 297.338,219.158 296.5,219.5C 296.806,216.615 296.473,213.948 295.5,211.5C 297.113,208.453 296.446,205.953 293.5,204C 291.234,203.068 289.234,201.734 287.5,200C 282.254,197.746 276.921,195.58 271.5,193.5C 269.494,191.481 267.828,189.148 266.5,186.5C 266.002,187.603 265.669,188.603 265.5,189.5C 264.614,188.675 264.281,187.675 264.5,186.5C 261.278,186.892 258.278,186.392 255.5,185C 259.226,183.957 258.893,183.457 254.5,183.5C 254.5,184.5 254.5,185.5 254.5,186.5C 246.376,186.994 238.21,186.994 230,186.5C 228.22,188.95 229.053,190.284 232.5,190.5C 237.133,189.447 241.799,189.281 246.5,190C 245.978,190.561 245.645,191.228 245.5,192C 247.703,196.006 249.37,200.173 250.5,204.5C 246.882,202.273 245.049,198.94 245,194.5C 244.167,193.5 243.333,192.5 242.5,191.5C 241.031,195.246 240.031,199.579 239.5,204.5C 237.913,201.572 235.913,198.906 233.5,196.5C 232.423,195.295 231.09,194.628 229.5,194.5C 227.022,191.671 226.022,188.338 226.5,184.5C 232.058,184.605 235.058,181.938 235.5,176.5 Z"/></g>
<g><path style="opacity:1" fill="#5a6a6f" d="M 362.5,161.5 C 362.334,166.844 362.501,172.177 363,177.5C 363.383,176.944 363.883,176.611 364.5,176.5C 364.833,177.5 365.5,178.167 366.5,178.5C 367.301,180.042 367.634,181.708 367.5,183.5C 368.675,183.281 369.675,183.614 370.5,184.5C 368.604,185.466 366.604,185.799 364.5,185.5C 364.5,186.5 364.5,187.5 364.5,188.5C 362.847,187.395 361.18,187.229 359.5,188C 358.62,186.644 358.286,185.144 358.5,183.5C 358.5,182.833 358.5,182.167 358.5,181.5C 359.117,181.389 359.617,181.056 360,180.5C 360.499,176.179 360.666,171.846 360.5,167.5C 361.167,165.5 361.833,163.5 362.5,161.5 Z"/></g>
<g><path style="opacity:1" fill="#475f62" d="M 366.5,178.5 C 367.492,178.328 368.158,178.662 368.5,179.5C 368.5,180.5 368.5,181.5 368.5,182.5C 380.354,184.006 391.687,187.34 402.5,192.5C 403.938,192.281 405.271,191.781 406.5,191C 405.584,190.722 404.918,190.222 404.5,189.5C 407.099,189.549 409.266,190.549 411,192.5C 411.696,195.478 412.196,198.478 412.5,201.5C 411.057,200.665 410.057,199.332 409.5,197.5C 408.659,202.15 408.825,206.816 410,211.5C 411.654,215.789 413.321,220.122 415,224.5C 415.464,223.906 415.631,223.239 415.5,222.5C 416.473,224.948 416.806,227.615 416.5,230.5C 414.143,225.409 412.81,226.075 412.5,232.5C 409.657,221.808 406.491,211.141 403,200.5C 401.5,198.667 400,196.833 398.5,195C 396.866,194.506 395.199,194.34 393.5,194.5C 393.64,192.876 392.973,191.71 391.5,191C 385.251,189.464 378.917,189.13 372.5,190C 373.337,191.011 373.67,192.178 373.5,193.5C 371.703,192.27 369.703,191.604 367.5,191.5C 367.144,189.81 366.144,188.81 364.5,188.5C 364.5,187.5 364.5,186.5 364.5,185.5C 366.604,185.799 368.604,185.466 370.5,184.5C 369.675,183.614 368.675,183.281 367.5,183.5C 367.634,181.708 367.301,180.042 366.5,178.5 Z"/></g>
<g><path style="opacity:1" fill="#24393d" d="M 368.5,179.5 C 371.167,179.833 373.833,180.167 376.5,180.5C 380.502,182.61 384.835,183.943 389.5,184.5C 394.216,186.739 399.216,188.405 404.5,189.5C 404.918,190.222 405.584,190.722 406.5,191C 405.271,191.781 403.938,192.281 402.5,192.5C 391.687,187.34 380.354,184.006 368.5,182.5C 368.5,181.5 368.5,180.5 368.5,179.5 Z"/></g>
<g><path style="opacity:1" fill="#173d43" d="M 302.5,183.5 C 300.225,188.544 299.225,193.878 299.5,199.5C 297.641,199.539 296.308,198.706 295.5,197C 292.026,196.699 288.692,195.866 285.5,194.5C 284.702,192.922 284.202,191.256 284,189.5C 283.346,190.696 282.846,190.696 282.5,189.5C 283.912,187.421 285.412,185.421 287,183.5C 287.333,184.167 287.667,184.833 288,185.5C 290.454,184.802 292.787,183.802 295,182.5C 297.381,183.435 299.881,183.768 302.5,183.5 Z"/></g>
<g><path style="opacity:1" fill="#2c4046" d="M 358.5,183.5 C 358.286,185.144 358.62,186.644 359.5,188C 361.18,187.229 362.847,187.395 364.5,188.5C 366.144,188.81 367.144,189.81 367.5,191.5C 364.108,191.871 361.442,193.537 359.5,196.5C 359.709,197.086 360.043,197.586 360.5,198C 358.119,198.223 356.453,199.39 355.5,201.5C 353.738,201.357 352.071,201.691 350.5,202.5C 349.571,201.311 349.238,199.978 349.5,198.5C 348.167,198.5 346.833,198.5 345.5,198.5C 343.588,195.145 340.588,193.645 336.5,194C 337.833,193.333 337.833,192.667 336.5,192C 338.741,190.478 341.074,189.145 343.5,188C 348.771,187.267 353.771,185.767 358.5,183.5 Z"/></g>
<g><path style="opacity:1" fill="#041e25" d="M 367.5,191.5 C 369.703,191.604 371.703,192.27 373.5,193.5C 373.714,195.144 373.38,196.644 372.5,198C 368.931,200.523 364.931,201.856 360.5,202C 359.627,203.045 358.627,203.878 357.5,204.5C 356.596,205.209 356.263,206.209 356.5,207.5C 354.007,207.329 352.174,208.329 351,210.5C 350.014,209.829 348.847,209.829 347.5,210.5C 350.167,207.5 352.833,204.5 355.5,201.5C 356.453,199.39 358.119,198.223 360.5,198C 360.043,197.586 359.709,197.086 359.5,196.5C 361.442,193.537 364.108,191.871 367.5,191.5 Z"/></g>
<g><path style="opacity:1" fill="#3d5e60" d="M 271.5,193.5 C 270.048,194.302 268.382,194.802 266.5,195C 265.663,196.011 265.33,197.178 265.5,198.5C 264.5,198.5 263.5,198.5 262.5,198.5C 262.67,197.178 262.337,196.011 261.5,195C 259.5,194.333 257.5,194.333 255.5,195C 256.238,199.23 256.238,203.23 255.5,207C 256.938,207.219 258.271,207.719 259.5,208.5C 258.95,210.657 258.283,212.657 257.5,214.5C 257.5,213.833 257.5,213.167 257.5,212.5C 255.98,209.212 253.647,206.546 250.5,204.5C 249.37,200.173 247.703,196.006 245.5,192C 245.645,191.228 245.978,190.561 246.5,190C 241.799,189.281 237.133,189.447 232.5,190.5C 229.053,190.284 228.22,188.95 230,186.5C 238.21,186.994 246.376,186.994 254.5,186.5C 254.5,185.5 254.5,184.5 254.5,183.5C 258.893,183.457 259.226,183.957 255.5,185C 258.278,186.392 261.278,186.892 264.5,186.5C 264.281,187.675 264.614,188.675 265.5,189.5C 265.669,188.603 266.002,187.603 266.5,186.5C 267.828,189.148 269.494,191.481 271.5,193.5 Z"/></g>
<g><path style="opacity:1" fill="#365256" d="M 412.5,232.5 C 413.392,242.134 413.725,251.801 413.5,261.5C 412.209,261.737 411.209,261.404 410.5,260.5C 411.82,257.572 412.486,254.239 412.5,250.5C 412.464,245.12 411.964,239.786 411,234.5C 409.014,230.814 407.181,227.147 405.5,223.5C 404.076,219.145 403.742,214.812 404.5,210.5C 402.863,208.998 399.863,207.498 395.5,206C 396.167,204.667 397.167,203.667 398.5,203C 397.213,201.59 396.046,200.09 395,198.5C 391.656,201.345 388.489,204.345 385.5,207.5C 391.652,214.152 397.985,220.652 404.5,227C 404.272,227.399 403.938,227.565 403.5,227.5C 403.167,227.5 402.833,227.5 402.5,227.5C 395.631,221.52 387.964,216.353 379.5,212C 374.815,209.43 369.815,207.93 364.5,207.5C 367.588,206.573 370.588,205.24 373.5,203.5C 373.167,202.5 372.5,201.833 371.5,201.5C 366.967,202.945 362.634,204.611 358.5,206.5C 358.167,205.833 357.833,205.167 357.5,204.5C 358.627,203.878 359.627,203.045 360.5,202C 364.931,201.856 368.931,200.523 372.5,198C 373.38,196.644 373.714,195.144 373.5,193.5C 373.67,192.178 373.337,191.011 372.5,190C 378.917,189.13 385.251,189.464 391.5,191C 392.973,191.71 393.64,192.876 393.5,194.5C 395.199,194.34 396.866,194.506 398.5,195C 400,196.833 401.5,198.667 403,200.5C 406.491,211.141 409.657,221.808 412.5,232.5 Z"/></g>
<g><path style="opacity:1" fill="#526368" d="M 271.5,193.5 C 276.921,195.58 282.254,197.746 287.5,200C 289.234,201.734 291.234,203.068 293.5,204C 296.446,205.953 297.113,208.453 295.5,211.5C 291.96,211.377 289.96,213.043 289.5,216.5C 280.296,213.874 271.963,209.541 264.5,203.5C 264.167,203.833 263.833,204.167 263.5,204.5C 265.086,206.173 265.753,208.173 265.5,210.5C 262.756,210.2 261.089,211.367 260.5,214C 262.256,217.81 262.923,221.643 262.5,225.5C 261.969,226.795 260.636,227.462 258.5,227.5C 258.167,227.5 257.833,227.5 257.5,227.5C 255.273,225.771 254.273,223.438 254.5,220.5C 255.5,218.5 256.5,216.5 257.5,214.5C 258.283,212.657 258.95,210.657 259.5,208.5C 258.271,207.719 256.938,207.219 255.5,207C 256.238,203.23 256.238,199.23 255.5,195C 257.5,194.333 259.5,194.333 261.5,195C 262.337,196.011 262.67,197.178 262.5,198.5C 263.5,198.5 264.5,198.5 265.5,198.5C 265.33,197.178 265.663,196.011 266.5,195C 268.382,194.802 270.048,194.302 271.5,193.5 Z"/></g>
<g><path style="opacity:1" fill="#001116" d="M 357.5,204.5 C 357.833,205.167 358.167,205.833 358.5,206.5C 359.635,207.474 360.635,208.641 361.5,210C 359.109,210.691 359.109,211.691 361.5,213C 361.167,213.333 360.833,213.667 360.5,214C 362.701,214.825 364.534,214.325 366,212.5C 367.74,213.716 368.74,215.382 369,217.5C 369.414,217.043 369.914,216.709 370.5,216.5C 371.415,218.98 372.915,219.647 375,218.5C 375.785,220.286 376.951,221.786 378.5,223C 386.556,225.336 394.223,228.169 401.5,231.5C 400.147,232.526 399.147,233.859 398.5,235.5C 394.058,242.789 388.225,249.123 381,254.5C 380.517,255.448 380.351,256.448 380.5,257.5C 369.879,256.006 359.212,255.506 348.5,256C 343.924,257.417 339.591,259.417 335.5,262C 333.581,267.39 329.915,268.89 324.5,266.5C 325.179,263.641 326.512,261.141 328.5,259C 328.054,257.274 327.221,255.774 326,254.5C 325.097,255.701 323.931,256.535 322.5,257C 323.5,257.833 324.5,258.667 325.5,259.5C 324.094,261.026 322.928,262.693 322,264.5C 321.333,263.167 320.333,262.167 319,261.5C 316.662,262.84 314.329,264.174 312,265.5C 309.301,260.77 306.968,255.77 305,250.5C 303.595,249.269 302.429,247.936 301.5,246.5C 301.167,245.833 300.833,245.167 300.5,244.5C 302.027,234.959 303.027,225.292 303.5,215.5C 304.495,220.792 304.828,226.125 304.5,231.5C 304.062,238.757 306.228,245.091 311,250.5C 312.497,238.842 319.497,233.842 332,235.5C 335.75,235.517 339.417,235.851 343,236.5C 345.099,235.869 346.932,234.869 348.5,233.5C 360.638,236.711 361.304,235.377 350.5,229.5C 348.538,225.016 346.872,220.35 345.5,215.5C 345.167,215.167 344.833,214.833 344.5,214.5C 343.15,215.95 341.484,216.617 339.5,216.5C 339.715,218.179 339.048,219.179 337.5,219.5C 337.292,217.08 337.626,214.747 338.5,212.5C 341.478,211.647 344.478,210.981 347.5,210.5C 348.847,209.829 350.014,209.829 351,210.5C 352.174,208.329 354.007,207.329 356.5,207.5C 356.263,206.209 356.596,205.209 357.5,204.5 Z"/></g>
<g><path style="opacity:1" fill="#2c484d" d="M 247.5,168.5 C 245.369,169.314 243.036,169.814 240.5,170C 239.944,170.383 239.611,170.883 239.5,171.5C 237.648,172.089 235.815,172.756 234,173.5C 233.53,174.577 233.697,175.577 234.5,176.5C 231.813,176.336 229.146,176.503 226.5,177C 224.529,179.143 223.196,181.643 222.5,184.5C 230.342,201.86 236.342,219.86 240.5,238.5C 241.357,239.425 242.357,240.092 243.5,240.5C 243.5,240.833 243.5,241.167 243.5,241.5C 246.639,250.593 248.973,259.927 250.5,269.5C 248.11,260.297 244.943,251.297 241,242.5C 239.934,240.901 238.434,239.901 236.5,239.5C 234.002,235.362 232.335,230.862 231.5,226C 230.011,222.039 228.344,218.873 226.5,216.5C 222.286,204.845 218.286,193.012 214.5,181C 214.585,179.893 214.919,178.893 215.5,178C 219.798,176.068 224.132,174.234 228.5,172.5C 225.572,171.516 222.572,171.183 219.5,171.5C 228.597,169.586 237.93,168.586 247.5,168.5 Z"/></g>
<g><path style="opacity:1" fill="#002a2f" d="M 257.5,212.5 C 257.5,213.167 257.5,213.833 257.5,214.5C 256.5,216.5 255.5,218.5 254.5,220.5C 253.685,221.429 252.852,222.429 252,223.5C 250.865,223.273 249.698,222.94 248.5,222.5C 246.615,218 244.448,213.667 242,209.5C 241.505,207.527 241.338,205.527 241.5,203.5C 244.39,203.278 247.057,203.945 249.5,205.5C 252.186,207.856 254.853,210.189 257.5,212.5 Z"/></g>
<g><path style="opacity:1" fill="#041c22" d="M 364.5,207.5 C 375.106,218.466 387.772,225.132 402.5,227.5C 402.833,227.5 403.167,227.5 403.5,227.5C 403.5,228.5 403.5,229.5 403.5,230.5C 402.833,230.5 402.5,230.833 402.5,231.5C 402.167,231.5 401.833,231.5 401.5,231.5C 394.223,228.169 386.556,225.336 378.5,223C 376.951,221.786 375.785,220.286 375,218.5C 372.915,219.647 371.415,218.98 370.5,216.5C 369.914,216.709 369.414,217.043 369,217.5C 368.74,215.382 367.74,213.716 366,212.5C 364.534,214.325 362.701,214.825 360.5,214C 360.833,213.667 361.167,213.333 361.5,213C 359.109,211.691 359.109,210.691 361.5,210C 360.635,208.641 359.635,207.474 358.5,206.5C 362.634,204.611 366.967,202.945 371.5,201.5C 372.5,201.833 373.167,202.5 373.5,203.5C 370.588,205.24 367.588,206.573 364.5,207.5 Z"/></g>
<g><path style="opacity:1" fill="#153d41" d="M 314.5,182.5 C 315.315,183.429 316.148,184.429 317,185.5C 317.499,189.514 317.333,193.514 316.5,197.5C 316.748,200.161 317.748,202.494 319.5,204.5C 320.287,203.758 320.953,202.925 321.5,202C 326.092,201.283 330.425,201.783 334.5,203.5C 329.325,203.272 324.325,204.105 319.5,206C 320.293,207.085 320.96,208.252 321.5,209.5C 325.681,210.066 329.681,211.066 333.5,212.5C 336.802,211.17 340.135,209.837 343.5,208.5C 340.57,207.547 338.237,205.88 336.5,203.5C 339.595,204.483 342.595,205.316 345.5,206C 346.167,205.333 346.833,204.667 347.5,204C 346.359,203.259 346.359,202.425 347.5,201.5C 346.807,200.482 346.141,199.482 345.5,198.5C 346.833,198.5 348.167,198.5 349.5,198.5C 349.238,199.978 349.571,201.311 350.5,202.5C 352.071,201.691 353.738,201.357 355.5,201.5C 352.833,204.5 350.167,207.5 347.5,210.5C 344.478,210.981 341.478,211.647 338.5,212.5C 337.626,214.747 337.292,217.08 337.5,219.5C 338.117,221.229 339.117,222.729 340.5,224C 343.723,226.062 347.057,227.896 350.5,229.5C 361.304,235.377 360.638,236.711 348.5,233.5C 344.204,231.685 340.204,229.352 336.5,226.5C 335.601,223.972 334.601,221.472 333.5,219C 330.167,218.667 326.833,218.333 323.5,218C 322.833,217 322.167,216 321.5,215C 319.19,214.503 316.857,214.337 314.5,214.5C 315.171,205.808 315.171,197.141 314.5,188.5C 313.753,193.423 312.753,198.257 311.5,203C 312.576,204.726 312.743,206.559 312,208.5C 309.454,206.325 306.621,204.658 303.5,203.5C 304.502,201.989 305.169,200.322 305.5,198.5C 306.5,198.5 307.5,198.5 308.5,198.5C 308.116,193.872 308.95,189.539 311,185.5C 313.013,187.751 314.18,187.084 314.5,183.5C 314.5,183.167 314.5,182.833 314.5,182.5 Z"/></g>
<g><path style="opacity:1" fill="#3f5f62" d="M 334.5,203.5 C 335.167,203.5 335.833,203.5 336.5,203.5C 338.237,205.88 340.57,207.547 343.5,208.5C 340.135,209.837 336.802,211.17 333.5,212.5C 329.681,211.066 325.681,210.066 321.5,209.5C 320.96,208.252 320.293,207.085 319.5,206C 324.325,204.105 329.325,203.272 334.5,203.5 Z"/></g>
<g><path style="opacity:1" fill="#19292d" d="M 412.5,201.5 C 413.909,208.434 414.909,215.434 415.5,222.5C 415.631,223.239 415.464,223.906 415,224.5C 413.321,220.122 411.654,215.789 410,211.5C 408.825,206.816 408.659,202.15 409.5,197.5C 410.057,199.332 411.057,200.665 412.5,201.5 Z"/></g>
<g><path style="opacity:1" fill="#01282d" d="M 336.5,226.5 C 332.552,226.314 328.719,225.648 325,224.5C 322.193,227.466 318.859,227.799 315,225.5C 314.026,227.878 313.359,227.544 313,224.5C 311.818,226.866 310.651,229.533 309.5,232.5C 307.708,232.634 306.042,232.301 304.5,231.5C 304.828,226.125 304.495,220.792 303.5,215.5C 303.027,225.292 302.027,234.959 300.5,244.5C 298.715,244.074 297.715,242.908 297.5,241C 298.159,238.538 298.493,236.038 298.5,233.5C 299.965,223.599 301.632,213.599 303.5,203.5C 306.621,204.658 309.454,206.325 312,208.5C 312.743,206.559 312.576,204.726 311.5,203C 312.753,198.257 313.753,193.423 314.5,188.5C 315.171,197.141 315.171,205.808 314.5,214.5C 316.857,214.337 319.19,214.503 321.5,215C 322.167,216 322.833,217 323.5,218C 326.833,218.333 330.167,218.667 333.5,219C 334.601,221.472 335.601,223.972 336.5,226.5 Z"/></g>
<g><path style="opacity:1" fill="#162d33" d="M 364.5,207.5 C 369.815,207.93 374.815,209.43 379.5,212C 387.964,216.353 395.631,221.52 402.5,227.5C 387.772,225.132 375.106,218.466 364.5,207.5 Z"/></g>
<g><path style="opacity:1" fill="#07282d" d="M 234.5,176.5 C 234.833,176.5 235.167,176.5 235.5,176.5C 235.058,181.938 232.058,184.605 226.5,184.5C 226.022,188.338 227.022,191.671 229.5,194.5C 229.953,195.458 230.619,196.292 231.5,197C 231.167,197.333 230.833,197.667 230.5,198C 237.481,208.124 243.315,218.957 248,230.5C 248.414,230.957 248.914,231.291 249.5,231.5C 250.141,230.007 251.141,229.007 252.5,228.5C 251.985,233.207 251.152,237.874 250,242.5C 248.255,240.911 247.088,238.911 246.5,236.5C 245.476,237.852 244.476,239.185 243.5,240.5C 242.357,240.092 241.357,239.425 240.5,238.5C 236.342,219.86 230.342,201.86 222.5,184.5C 223.196,181.643 224.529,179.143 226.5,177C 229.146,176.503 231.813,176.336 234.5,176.5 Z"/></g>
<g><path style="opacity:1" fill="#224145" d="M 250.5,204.5 C 253.647,206.546 255.98,209.212 257.5,212.5C 254.853,210.189 252.186,207.856 249.5,205.5C 247.057,203.945 244.39,203.278 241.5,203.5C 241.338,205.527 241.505,207.527 242,209.5C 244.448,213.667 246.615,218 248.5,222.5C 249.698,222.94 250.865,223.273 252,223.5C 252.852,222.429 253.685,221.429 254.5,220.5C 254.273,223.438 255.273,225.771 257.5,227.5C 255.708,227.366 254.042,227.699 252.5,228.5C 251.141,229.007 250.141,230.007 249.5,231.5C 248.914,231.291 248.414,230.957 248,230.5C 243.315,218.957 237.481,208.124 230.5,198C 230.833,197.667 231.167,197.333 231.5,197C 230.619,196.292 229.953,195.458 229.5,194.5C 231.09,194.628 232.423,195.295 233.5,196.5C 235.913,198.906 237.913,201.572 239.5,204.5C 240.031,199.579 241.031,195.246 242.5,191.5C 243.333,192.5 244.167,193.5 245,194.5C 245.049,198.94 246.882,202.273 250.5,204.5 Z"/></g>
<g><path style="opacity:1" fill="#132a30" d="M 219.5,171.5 C 222.572,171.183 225.572,171.516 228.5,172.5C 224.132,174.234 219.798,176.068 215.5,178C 214.919,178.893 214.585,179.893 214.5,181C 218.286,193.012 222.286,204.845 226.5,216.5C 233.333,238.328 240.333,259.995 247.5,281.5C 252.054,295.627 259.387,307.961 269.5,318.5C 270.614,320.353 269.948,320.853 267.5,320C 265.638,318.634 263.972,317.134 262.5,315.5C 256.81,307.428 251.143,299.428 245.5,291.5C 245.107,289.716 244.441,288.05 243.5,286.5C 243.167,284.5 242.833,282.5 242.5,280.5C 242.169,274.346 241.003,268.346 239,262.5C 232.562,245.437 226.729,228.104 221.5,210.5C 220.376,207.903 219.043,205.57 217.5,203.5C 216.001,194.496 214.334,185.496 212.5,176.5C 215.669,175.998 218.002,174.331 219.5,171.5 Z"/></g>
<g><path style="opacity:1" fill="#023135" d="M 350.5,229.5 C 347.057,227.896 343.723,226.062 340.5,224C 339.117,222.729 338.117,221.229 337.5,219.5C 339.048,219.179 339.715,218.179 339.5,216.5C 341.484,216.617 343.15,215.95 344.5,214.5C 344.833,214.833 345.167,215.167 345.5,215.5C 346.872,220.35 348.538,225.016 350.5,229.5 Z"/></g>
<g><path style="opacity:1" fill="#0d373b" d="M 295.5,211.5 C 296.473,213.948 296.806,216.615 296.5,219.5C 295.454,226.659 294.621,233.993 294,241.5C 293.768,242.737 293.268,243.737 292.5,244.5C 292.998,239.848 293.331,235.181 293.5,230.5C 290.09,230.457 286.757,230.957 283.5,232C 282.027,232.71 281.36,233.876 281.5,235.5C 283.199,235.34 284.866,235.506 286.5,236C 283.904,237.136 281.237,237.969 278.5,238.5C 278.5,239.5 278.5,240.5 278.5,241.5C 277.833,241.167 277.167,240.833 276.5,240.5C 275.25,237.994 274.584,235.327 274.5,232.5C 273.325,232.719 272.325,232.386 271.5,231.5C 274.342,230.996 275.675,229.329 275.5,226.5C 276.5,226.5 277.5,226.5 278.5,226.5C 278.5,225.5 278.5,224.5 278.5,223.5C 281.85,223.665 285.183,223.498 288.5,223C 287.62,221.644 287.286,220.144 287.5,218.5C 286.448,218.649 285.448,218.483 284.5,218C 286.382,217.802 288.048,217.302 289.5,216.5C 289.96,213.043 291.96,211.377 295.5,211.5 Z"/></g>
<g><path style="opacity:1" fill="#28474c" d="M 289.5,216.5 C 288.048,217.302 286.382,217.802 284.5,218C 285.448,218.483 286.448,218.649 287.5,218.5C 287.286,220.144 287.62,221.644 288.5,223C 285.183,223.498 281.85,223.665 278.5,223.5C 278.5,224.5 278.5,225.5 278.5,226.5C 277.5,226.5 276.5,226.5 275.5,226.5C 275.675,229.329 274.342,230.996 271.5,231.5C 272.325,232.386 273.325,232.719 274.5,232.5C 274.584,235.327 275.25,237.994 276.5,240.5C 274.166,237.171 271.166,234.504 267.5,232.5C 266.537,229.541 264.871,227.208 262.5,225.5C 262.923,221.643 262.256,217.81 260.5,214C 261.089,211.367 262.756,210.2 265.5,210.5C 265.753,208.173 265.086,206.173 263.5,204.5C 263.833,204.167 264.167,203.833 264.5,203.5C 271.963,209.541 280.296,213.874 289.5,216.5 Z"/></g>
<g><path style="opacity:1" fill="#00181e" d="M 336.5,226.5 C 340.204,229.352 344.204,231.685 348.5,233.5C 346.932,234.869 345.099,235.869 343,236.5C 339.417,235.851 335.75,235.517 332,235.5C 319.497,233.842 312.497,238.842 311,250.5C 306.228,245.091 304.062,238.757 304.5,231.5C 306.042,232.301 307.708,232.634 309.5,232.5C 310.651,229.533 311.818,226.866 313,224.5C 313.359,227.544 314.026,227.878 315,225.5C 318.859,227.799 322.193,227.466 325,224.5C 328.719,225.648 332.552,226.314 336.5,226.5 Z"/></g>
<g><path style="opacity:1" fill="#113338" d="M 258.5,228.5 C 262.854,229.356 265.354,232.022 266,236.5C 270.108,239.402 273.275,243.069 275.5,247.5C 273.198,245.562 270.698,243.895 268,242.5C 264.107,238.398 260.94,233.732 258.5,228.5 Z"/></g>
<g><path style="opacity:1" fill="#2e4348" d="M 410.5,260.5 C 409.227,256.349 407.56,252.349 405.5,248.5C 404.801,242.165 405.135,235.831 406.5,229.5C 406.333,229.167 406.167,228.833 406,228.5C 405.292,229.381 404.458,230.047 403.5,230.5C 403.5,229.5 403.5,228.5 403.5,227.5C 403.938,227.565 404.272,227.399 404.5,227C 397.985,220.652 391.652,214.152 385.5,207.5C 388.489,204.345 391.656,201.345 395,198.5C 396.046,200.09 397.213,201.59 398.5,203C 397.167,203.667 396.167,204.667 395.5,206C 399.863,207.498 402.863,208.998 404.5,210.5C 403.742,214.812 404.076,219.145 405.5,223.5C 407.181,227.147 409.014,230.814 411,234.5C 411.964,239.786 412.464,245.12 412.5,250.5C 412.486,254.239 411.82,257.572 410.5,260.5 Z"/></g>
<g><path style="opacity:1" fill="#1d3339" d="M 401.5,231.5 C 401.833,231.5 402.167,231.5 402.5,231.5C 400.197,236.6 399.863,241.933 401.5,247.5C 401.406,249.923 400.906,252.256 400,254.5C 397.861,256.806 396.361,259.473 395.5,262.5C 393.974,262.006 392.641,261.339 391.5,260.5C 392.822,260.67 393.989,260.337 395,259.5C 395.779,251.417 396.946,243.417 398.5,235.5C 399.147,233.859 400.147,232.526 401.5,231.5 Z"/></g>
<g><path style="opacity:1" fill="#506c6f" d="M 298.5,233.5 C 298.493,236.038 298.159,238.538 297.5,241C 297.715,242.908 298.715,244.074 300.5,244.5C 300.833,245.167 301.167,245.833 301.5,246.5C 298.902,250.438 295.902,254.105 292.5,257.5C 290.18,259.226 287.513,259.893 284.5,259.5C 280.731,256.066 277.731,252.066 275.5,247.5C 273.275,243.069 270.108,239.402 266,236.5C 265.354,232.022 262.854,229.356 258.5,228.5C 258.5,228.167 258.5,227.833 258.5,227.5C 260.636,227.462 261.969,226.795 262.5,225.5C 264.871,227.208 266.537,229.541 267.5,232.5C 271.166,234.504 274.166,237.171 276.5,240.5C 277.167,240.833 277.833,241.167 278.5,241.5C 279.458,242.962 280.624,244.295 282,245.5C 282.476,249.576 283.642,253.41 285.5,257C 287.441,257.743 289.274,257.576 291,256.5C 292.354,252.637 292.854,248.637 292.5,244.5C 293.268,243.737 293.768,242.737 294,241.5C 294.621,233.993 295.454,226.659 296.5,219.5C 297.338,219.158 297.672,218.492 297.5,217.5C 298.268,216.737 298.768,215.737 299,214.5C 299.102,220.825 298.935,227.158 298.5,233.5 Z"/></g>
<g><path style="opacity:1" fill="#031f24" d="M 292.5,244.5 C 292.854,248.637 292.354,252.637 291,256.5C 289.274,257.576 287.441,257.743 285.5,257C 283.642,253.41 282.476,249.576 282,245.5C 280.624,244.295 279.458,242.962 278.5,241.5C 278.5,240.5 278.5,239.5 278.5,238.5C 281.237,237.969 283.904,237.136 286.5,236C 284.866,235.506 283.199,235.34 281.5,235.5C 281.36,233.876 282.027,232.71 283.5,232C 286.757,230.957 290.09,230.457 293.5,230.5C 293.331,235.181 292.998,239.848 292.5,244.5 Z"/></g>
<g><path style="opacity:1" fill="#031b21" d="M 257.5,227.5 C 257.833,227.5 258.167,227.5 258.5,227.5C 258.5,227.833 258.5,228.167 258.5,228.5C 260.94,233.732 264.107,238.398 268,242.5C 270.698,243.895 273.198,245.562 275.5,247.5C 277.731,252.066 280.731,256.066 284.5,259.5C 283.833,259.5 283.5,259.833 283.5,260.5C 282.504,260.586 281.671,260.252 281,259.5C 280.062,256.743 278.562,254.41 276.5,252.5C 268.243,250.156 259.91,248.323 251.5,247C 252.167,247.667 252.833,248.333 253.5,249C 256.662,250.027 259.662,251.194 262.5,252.5C 265.806,254.953 269.473,256.787 273.5,258C 272.833,258.667 272.167,259.333 271.5,260C 268.183,260.498 264.85,260.665 261.5,260.5C 262.188,266.372 260.688,267.372 257,263.5C 253.681,256.697 250.181,250.03 246.5,243.5C 245.482,242.807 244.482,242.141 243.5,241.5C 243.5,241.167 243.5,240.833 243.5,240.5C 244.476,239.185 245.476,237.852 246.5,236.5C 247.088,238.911 248.255,240.911 250,242.5C 251.152,237.874 251.985,233.207 252.5,228.5C 254.042,227.699 255.708,227.366 257.5,227.5 Z"/></g>
<g><path style="opacity:1" fill="#4b5c61" d="M 276.5,252.5 C 271.987,253.597 267.321,253.597 262.5,252.5C 259.662,251.194 256.662,250.027 253.5,249C 252.833,248.333 252.167,247.667 251.5,247C 259.91,248.323 268.243,250.156 276.5,252.5 Z"/></g>
<g><path style="opacity:1" fill="#374d52" d="M 217.5,203.5 C 219.043,205.57 220.376,207.903 221.5,210.5C 226.729,228.104 232.562,245.437 239,262.5C 241.003,268.346 242.169,274.346 242.5,280.5C 238.712,272.348 235.379,264.014 232.5,255.5C 231.51,247.03 229.01,239.03 225,231.5C 222.998,222.001 220.498,212.667 217.5,203.5 Z"/></g>
<g><path style="opacity:1" fill="#07292e" d="M 398.5,235.5 C 396.946,243.417 395.779,251.417 395,259.5C 393.989,260.337 392.822,260.67 391.5,260.5C 387.894,260.211 384.394,260.544 381,261.5C 377.851,259.638 374.351,258.971 370.5,259.5C 367.873,256.841 365.373,257.174 363,260.5C 362.667,260.167 362.333,259.833 362,259.5C 360.806,260.43 359.473,261.097 358,261.5C 356.27,260.351 354.604,260.351 353,261.5C 350.019,258.725 348.853,259.225 349.5,263C 346.934,265.398 343.934,267.064 340.5,268C 334.843,268.499 329.176,268.666 323.5,268.5C 323.719,267.325 323.386,266.325 322.5,265.5C 321.859,267.296 320.859,268.796 319.5,270C 316.452,269.422 313.452,269.589 310.5,270.5C 308.766,267.183 307.099,263.683 305.5,260C 303.69,258.134 300.357,256.967 295.5,256.5C 294.583,257.127 293.583,257.461 292.5,257.5C 295.902,254.105 298.902,250.438 301.5,246.5C 302.429,247.936 303.595,249.269 305,250.5C 306.968,255.77 309.301,260.77 312,265.5C 314.329,264.174 316.662,262.84 319,261.5C 320.333,262.167 321.333,263.167 322,264.5C 322.928,262.693 324.094,261.026 325.5,259.5C 324.5,258.667 323.5,257.833 322.5,257C 323.931,256.535 325.097,255.701 326,254.5C 327.221,255.774 328.054,257.274 328.5,259C 326.512,261.141 325.179,263.641 324.5,266.5C 329.915,268.89 333.581,267.39 335.5,262C 339.591,259.417 343.924,257.417 348.5,256C 359.212,255.506 369.879,256.006 380.5,257.5C 380.351,256.448 380.517,255.448 381,254.5C 388.225,249.123 394.058,242.789 398.5,235.5 Z"/></g>
<g><path style="opacity:1" fill="#001318" d="M 310.5,270.5 C 307.18,271.393 304.18,272.727 301.5,274.5C 299.833,274.5 298.167,274.5 296.5,274.5C 292.875,269.207 288.542,264.541 283.5,260.5C 283.5,259.833 283.833,259.5 284.5,259.5C 287.513,259.893 290.18,259.226 292.5,257.5C 293.583,257.461 294.583,257.127 295.5,256.5C 300.357,256.967 303.69,258.134 305.5,260C 307.099,263.683 308.766,267.183 310.5,270.5 Z"/></g>
<g><path style="opacity:1" fill="#0e393d" d="M 370.5,259.5 C 369.5,259.5 368.5,259.5 367.5,259.5C 367.5,260.5 367.5,261.5 367.5,262.5C 364.784,262.386 362.784,263.386 361.5,265.5C 359.214,265.595 357.214,266.262 355.5,267.5C 354.167,267.5 352.833,267.5 351.5,267.5C 341.913,269.03 332.247,269.863 322.5,270C 318.615,271.05 314.948,272.55 311.5,274.5C 309.714,272.078 308.048,272.078 306.5,274.5C 305.516,277.428 305.183,280.428 305.5,283.5C 304.523,280.713 304.19,277.713 304.5,274.5C 303.5,274.5 302.5,274.5 301.5,274.5C 304.18,272.727 307.18,271.393 310.5,270.5C 313.452,269.589 316.452,269.422 319.5,270C 320.859,268.796 321.859,267.296 322.5,265.5C 323.386,266.325 323.719,267.325 323.5,268.5C 329.176,268.666 334.843,268.499 340.5,268C 343.934,267.064 346.934,265.398 349.5,263C 348.853,259.225 350.019,258.725 353,261.5C 354.604,260.351 356.27,260.351 358,261.5C 359.473,261.097 360.806,260.43 362,259.5C 362.333,259.833 362.667,260.167 363,260.5C 365.373,257.174 367.873,256.841 370.5,259.5 Z"/></g>
<g><path style="opacity:1" fill="#828d8f" d="M 232.5,255.5 C 235.379,264.014 238.712,272.348 242.5,280.5C 242.833,282.5 243.167,284.5 243.5,286.5C 242.883,286.389 242.383,286.056 242,285.5C 241.768,286.737 241.268,287.737 240.5,288.5C 240.237,282.776 238.737,277.443 236,272.5C 235.027,275.579 234.194,278.579 233.5,281.5C 228.609,272.96 228.276,264.294 232.5,255.5 Z"/></g>
<g><path style="opacity:1" fill="#4f5e61" d="M 412.5,232.5 C 413.765,233.514 414.431,235.014 414.5,237C 414.966,240.989 415.299,244.989 415.5,249C 414.45,256.872 414.45,264.705 415.5,272.5C 414.358,275.399 413.692,278.399 413.5,281.5C 415.833,281.5 418.167,281.5 420.5,281.5C 420.5,282.5 420.5,283.5 420.5,284.5C 415.377,285.635 415.543,286.968 421,288.5C 421.333,283.167 421.667,277.833 422,272.5C 422.383,273.056 422.883,273.389 423.5,273.5C 423.5,273.833 423.5,274.167 423.5,274.5C 422.508,281.648 422.175,288.981 422.5,296.5C 421.768,297.808 420.934,299.142 420,300.5C 419.667,300.167 419.333,299.833 419,299.5C 418.412,303.806 417.079,307.806 415,311.5C 412.86,309.36 410.694,307.194 408.5,305C 409.308,304.692 409.975,304.192 410.5,303.5C 410.154,302.304 409.654,302.304 409,303.5C 408.768,302.263 408.268,301.263 407.5,300.5C 407.781,292.578 409.281,284.912 412,277.5C 412.667,274.167 412.667,270.833 412,267.5C 411.439,266.978 410.772,266.645 410,266.5C 407.792,268.186 405.292,269.186 402.5,269.5C 398.856,268.585 395.19,268.419 391.5,269C 390.157,271.273 388.657,273.439 387,275.5C 385.534,272.317 384.367,268.984 383.5,265.5C 387.793,264.198 392.459,263.365 397.5,263C 400.498,259.994 403.165,256.661 405.5,253C 404.392,251.323 404.392,249.823 405.5,248.5C 407.56,252.349 409.227,256.349 410.5,260.5C 411.209,261.404 412.209,261.737 413.5,261.5C 413.725,251.801 413.392,242.134 412.5,232.5 Z"/></g>
<g><path style="opacity:1" fill="#083338" d="M 243.5,241.5 C 244.482,242.141 245.482,242.807 246.5,243.5C 250.181,250.03 253.681,256.697 257,263.5C 260.688,267.372 262.188,266.372 261.5,260.5C 264.85,260.665 268.183,260.498 271.5,260C 272.167,259.333 272.833,258.667 273.5,258C 269.473,256.787 265.806,254.953 262.5,252.5C 267.321,253.597 271.987,253.597 276.5,252.5C 278.562,254.41 280.062,256.743 281,259.5C 281.671,260.252 282.504,260.586 283.5,260.5C 288.542,264.541 292.875,269.207 296.5,274.5C 293.72,275.82 290.72,276.32 287.5,276C 288.428,275.612 289.095,274.945 289.5,274C 288.683,269.351 286.016,266.518 281.5,265.5C 281.5,264.5 281.5,263.5 281.5,262.5C 280.448,262.351 279.448,262.517 278.5,263C 277.167,263.667 277.167,264.333 278.5,265C 277.207,265.49 275.873,265.657 274.5,265.5C 275.01,268.388 274.344,270.721 272.5,272.5C 271.596,273.209 271.263,274.209 271.5,275.5C 270.5,275.5 269.5,275.5 268.5,275.5C 268.5,274.5 268.5,273.5 268.5,272.5C 266.5,272.5 264.5,272.5 262.5,272.5C 262.5,273.5 262.5,274.5 262.5,275.5C 263.5,275.5 264.5,275.5 265.5,275.5C 265.772,284.883 265.772,293.883 265.5,302.5C 262.367,297.588 259.2,292.588 256,287.5C 254.359,281.478 252.525,275.478 250.5,269.5C 248.973,259.927 246.639,250.593 243.5,241.5 Z"/></g>
<g><path style="opacity:1" fill="#3a5055" d="M 296.5,274.5 C 298.167,274.5 299.833,274.5 301.5,274.5C 302.5,274.5 303.5,274.5 304.5,274.5C 304.19,277.713 304.523,280.713 305.5,283.5C 305.111,288.504 304.611,293.504 304,298.5C 303.667,293.833 303.333,289.167 303,284.5C 302.505,286.473 302.338,288.473 302.5,290.5C 301.5,290.5 300.5,290.5 299.5,290.5C 299.5,289.5 299.5,288.5 299.5,287.5C 298.5,287.5 297.5,287.5 296.5,287.5C 296.826,285.339 297.826,283.506 299.5,282C 294.9,281.535 290.4,280.701 286,279.5C 283.958,279.615 281.958,279.949 280,280.5C 278.116,278.55 276.782,276.216 276,273.5C 275.505,275.473 275.338,277.473 275.5,279.5C 272.908,277.964 271.908,275.631 272.5,272.5C 274.344,270.721 275.01,268.388 274.5,265.5C 275.873,265.657 277.207,265.49 278.5,265C 277.167,264.333 277.167,263.667 278.5,263C 279.448,262.517 280.448,262.351 281.5,262.5C 281.5,263.5 281.5,264.5 281.5,265.5C 286.016,266.518 288.683,269.351 289.5,274C 289.095,274.945 288.428,275.612 287.5,276C 290.72,276.32 293.72,275.82 296.5,274.5 Z"/></g>
<g><path style="opacity:1" fill="#61696c" d="M 416.5,230.5 C 419.288,244.632 421.621,258.965 423.5,273.5C 422.883,273.389 422.383,273.056 422,272.5C 421.667,277.833 421.333,283.167 421,288.5C 415.543,286.968 415.377,285.635 420.5,284.5C 420.5,283.5 420.5,282.5 420.5,281.5C 418.167,281.5 415.833,281.5 413.5,281.5C 413.692,278.399 414.358,275.399 415.5,272.5C 414.45,264.705 414.45,256.872 415.5,249C 415.299,244.989 414.966,240.989 414.5,237C 414.431,235.014 413.765,233.514 412.5,232.5C 412.81,226.075 414.143,225.409 416.5,230.5 Z"/></g>
<g><path style="opacity:1" fill="#425358" d="M 383.5,272.5 C 384.751,275.406 385.251,278.406 385,281.5C 384.252,279.668 383.252,278.001 382,276.5C 375.264,276.593 368.43,276.76 361.5,277C 363.256,277.202 364.922,277.702 366.5,278.5C 366.023,279.478 365.357,280.311 364.5,281C 370.284,281.178 375.284,283.012 379.5,286.5C 378.735,286.923 377.902,287.257 377,287.5C 373.584,286.104 370.084,284.937 366.5,284C 366.833,283.667 367.167,283.333 367.5,283C 363.145,282.052 358.812,281.385 354.5,281C 355.678,280.033 357.011,279.533 358.5,279.5C 357.667,279.167 356.833,278.833 356,278.5C 354.065,279.343 352.231,279.343 350.5,278.5C 351,277.5 351.5,276.5 352,275.5C 352.388,276.428 353.055,277.095 354,277.5C 355.5,277 357,276.5 358.5,276C 356.744,275.798 355.078,275.298 353.5,274.5C 356.836,273.76 360.17,273.094 363.5,272.5C 367.954,271.306 371.788,271.306 375,272.5C 375.915,273.328 376.581,274.328 377,275.5C 377.936,270.387 379.269,270.387 381,275.5C 381.377,274.058 382.21,273.058 383.5,272.5 Z"/></g>
<g><path style="opacity:1" fill="#4d5d60" d="M 240.5,288.5 C 239.325,288.719 238.325,288.386 237.5,287.5C 235.364,286.031 234.03,284.031 233.5,281.5C 234.194,278.579 235.027,275.579 236,272.5C 238.737,277.443 240.237,282.776 240.5,288.5 Z"/></g>
<g><path style="opacity:1" fill="#394a4e" d="M 405.5,248.5 C 404.392,249.823 404.392,251.323 405.5,253C 403.165,256.661 400.498,259.994 397.5,263C 392.459,263.365 387.793,264.198 383.5,265.5C 384.367,268.984 385.534,272.317 387,275.5C 388.657,273.439 390.157,271.273 391.5,269C 395.19,268.419 398.856,268.585 402.5,269.5C 405.292,269.186 407.792,268.186 410,266.5C 410.772,266.645 411.439,266.978 412,267.5C 412.667,270.833 412.667,274.167 412,277.5C 409.281,284.912 407.781,292.578 407.5,300.5C 405.247,303.973 403.913,307.64 403.5,311.5C 401.742,310.872 400.242,309.872 399,308.5C 397.54,311.21 395.54,311.876 393,310.5C 392.019,313.784 392.853,316.451 395.5,318.5C 396.192,317.975 396.692,317.308 397,316.5C 402.743,319.417 408.91,320.75 415.5,320.5C 415.5,321.167 415.167,321.5 414.5,321.5C 406.627,322.087 398.96,321.42 391.5,319.5C 390.476,320.853 389.143,321.52 387.5,321.5C 387.5,320.167 387.5,318.833 387.5,317.5C 386.5,317.5 385.5,317.5 384.5,317.5C 384.5,318.5 384.5,319.5 384.5,320.5C 359.875,319.598 334.708,319.598 309,320.5C 306.036,320.117 303.37,319.117 301,317.5C 294.295,319.018 287.462,319.684 280.5,319.5C 281.263,318.732 282.263,318.232 283.5,318C 286.817,317.502 290.15,317.335 293.5,317.5C 291.499,313.503 292.499,310.503 296.5,308.5C 296.177,310.649 296.177,312.983 296.5,315.5C 298.045,316.452 299.712,316.785 301.5,316.5C 301.437,311.797 301.771,307.13 302.5,302.5C 303.129,307.318 303.129,312.318 302.5,317.5C 304.199,317.66 305.866,317.494 307.5,317C 308.274,314.595 308.774,312.095 309,309.5C 309.464,310.094 309.631,310.761 309.5,311.5C 309.5,313.167 309.5,314.833 309.5,316.5C 311.167,316.5 312.833,316.5 314.5,316.5C 323.839,316.666 333.173,316.5 342.5,316C 345.709,314.908 348.876,313.741 352,312.5C 352.333,312.833 352.667,313.167 353,313.5C 359.115,312.11 365.282,310.776 371.5,309.5C 374.481,310.358 377.481,310.025 380.5,308.5C 382.516,309.706 384.516,309.706 386.5,308.5C 383.477,306.967 381.81,304.467 381.5,301C 381.905,300.055 382.572,299.388 383.5,299C 380.804,296.537 380.471,294.037 382.5,291.5C 381.006,290.095 380.006,288.429 379.5,286.5C 375.284,283.012 370.284,281.178 364.5,281C 365.357,280.311 366.023,279.478 366.5,278.5C 364.922,277.702 363.256,277.202 361.5,277C 368.43,276.76 375.264,276.593 382,276.5C 383.252,278.001 384.252,279.668 385,281.5C 385.251,278.406 384.751,275.406 383.5,272.5C 383.264,269.215 382.264,266.215 380.5,263.5C 378.176,263.877 377.509,264.877 378.5,266.5C 376.993,267.739 375.826,267.405 375,265.5C 370.679,264.455 366.179,264.455 361.5,265.5C 362.784,263.386 364.784,262.386 367.5,262.5C 367.5,261.5 367.5,260.5 367.5,259.5C 368.5,259.5 369.5,259.5 370.5,259.5C 374.351,258.971 377.851,259.638 381,261.5C 384.394,260.544 387.894,260.211 391.5,260.5C 392.641,261.339 393.974,262.006 395.5,262.5C 396.361,259.473 397.861,256.806 400,254.5C 400.906,252.256 401.406,249.923 401.5,247.5C 399.863,241.933 400.197,236.6 402.5,231.5C 402.5,230.833 402.833,230.5 403.5,230.5C 404.458,230.047 405.292,229.381 406,228.5C 406.167,228.833 406.333,229.167 406.5,229.5C 405.135,235.831 404.801,242.165 405.5,248.5 Z"/></g>
<g><path style="opacity:1" fill="#395a5d" d="M 250.5,269.5 C 252.525,275.478 254.359,281.478 256,287.5C 259.2,292.588 262.367,297.588 265.5,302.5C 266.209,303.404 267.209,303.737 268.5,303.5C 268.5,304.5 268.5,305.5 268.5,306.5C 269.5,306.5 270.5,306.5 271.5,306.5C 271.5,305.5 271.5,304.5 271.5,303.5C 272.5,303.5 273.5,303.5 274.5,303.5C 274.5,301.5 274.5,299.5 274.5,297.5C 276.179,297.285 277.179,297.952 277.5,299.5C 276.761,299.369 276.094,299.536 275.5,300C 277.25,301.754 277.917,303.921 277.5,306.5C 276.5,306.5 275.5,306.5 274.5,306.5C 274.357,308.262 274.691,309.929 275.5,311.5C 273.668,312.057 272.335,313.057 271.5,314.5C 271.265,315.097 270.765,315.43 270,315.5C 265.73,312.63 263.23,308.63 262.5,303.5C 260.253,302.755 258.42,301.422 257,299.5C 253.685,293.06 250.852,286.394 248.5,279.5C 247.702,279.957 247.369,280.624 247.5,281.5C 240.333,259.995 233.333,238.328 226.5,216.5C 228.344,218.873 230.011,222.039 231.5,226C 232.335,230.862 234.002,235.362 236.5,239.5C 238.434,239.901 239.934,240.901 241,242.5C 244.943,251.297 248.11,260.297 250.5,269.5 Z"/></g>
<g><path style="opacity:1" fill="#506165" d="M 383.5,272.5 C 382.21,273.058 381.377,274.058 381,275.5C 379.269,270.387 377.936,270.387 377,275.5C 376.581,274.328 375.915,273.328 375,272.5C 371.788,271.306 367.954,271.306 363.5,272.5C 360.17,273.094 356.836,273.76 353.5,274.5C 355.078,275.298 356.744,275.798 358.5,276C 357,276.5 355.5,277 354,277.5C 353.055,277.095 352.388,276.428 352,275.5C 351.5,276.5 351,277.5 350.5,278.5C 352.231,279.343 354.065,279.343 356,278.5C 356.833,278.833 357.667,279.167 358.5,279.5C 357.011,279.533 355.678,280.033 354.5,281C 358.812,281.385 363.145,282.052 367.5,283C 367.167,283.333 366.833,283.667 366.5,284C 370.084,284.937 373.584,286.104 377,287.5C 377.902,287.257 378.735,286.923 379.5,286.5C 380.006,288.429 381.006,290.095 382.5,291.5C 380.471,294.037 380.804,296.537 383.5,299C 382.572,299.388 381.905,300.055 381.5,301C 381.81,304.467 383.477,306.967 386.5,308.5C 384.516,309.706 382.516,309.706 380.5,308.5C 377.481,310.025 374.481,310.358 371.5,309.5C 365.282,310.776 359.115,312.11 353,313.5C 352.667,313.167 352.333,312.833 352,312.5C 348.876,313.741 345.709,314.908 342.5,316C 333.173,316.5 323.839,316.666 314.5,316.5C 334.131,314.841 353.131,310.508 371.5,303.5C 369.993,301.031 370.327,298.865 372.5,297C 371.5,296.667 370.5,296.333 369.5,296C 368.5,294.333 367.5,292.667 366.5,291C 362.526,289.744 358.526,289.244 354.5,289.5C 354.167,289.833 353.833,290.167 353.5,290.5C 356.107,291.318 358.774,291.818 361.5,292C 360.675,293.688 359.675,293.855 358.5,292.5C 357.808,293.025 357.308,293.692 357,294.5C 355.249,293.826 353.583,293.493 352,293.5C 350.915,295.373 349.582,297.04 348,298.5C 347.676,296.431 346.842,296.098 345.5,297.5C 344.289,298.274 344.289,299.107 345.5,300C 342.553,303.014 338.887,304.348 334.5,304C 331.495,305.17 328.495,306.336 325.5,307.5C 324.558,307.392 323.725,307.059 323,306.5C 319.733,308.101 316.233,308.934 312.5,309C 311.309,309.698 310.309,310.531 309.5,311.5C 309.631,310.761 309.464,310.094 309,309.5C 308.774,312.095 308.274,314.595 307.5,317C 305.866,317.494 304.199,317.66 302.5,317.5C 303.129,312.318 303.129,307.318 302.5,302.5C 302.663,300.143 302.497,297.81 302,295.5C 301.667,296.833 301.333,298.167 301,299.5C 300.333,298.167 299.667,298.167 299,299.5C 298.255,308.453 297.089,308.62 295.5,300C 295.645,298.774 295.978,297.607 296.5,296.5C 294.082,292.665 291.915,288.665 290,284.5C 286.369,282.593 282.535,281.759 278.5,282C 280.035,284.624 281.202,287.457 282,290.5C 283.171,291.893 284.671,292.727 286.5,293C 286.167,293.333 285.833,293.667 285.5,294C 287.152,295.47 288.152,297.303 288.5,299.5C 285.94,303.95 283.94,308.617 282.5,313.5C 281.452,314.383 280.285,315.05 279,315.5C 276.566,314.678 274.066,314.344 271.5,314.5C 272.335,313.057 273.668,312.057 275.5,311.5C 274.691,309.929 274.357,308.262 274.5,306.5C 275.5,306.5 276.5,306.5 277.5,306.5C 277.917,303.921 277.25,301.754 275.5,300C 276.094,299.536 276.761,299.369 277.5,299.5C 278.207,297.769 279.207,296.103 280.5,294.5C 279.487,291.046 278.487,287.713 277.5,284.5C 277.107,282.716 276.441,281.05 275.5,279.5C 275.338,277.473 275.505,275.473 276,273.5C 276.782,276.216 278.116,278.55 280,280.5C 281.958,279.949 283.958,279.615 286,279.5C 290.4,280.701 294.9,281.535 299.5,282C 297.826,283.506 296.826,285.339 296.5,287.5C 297.5,287.5 298.5,287.5 299.5,287.5C 299.5,288.5 299.5,289.5 299.5,290.5C 300.5,290.5 301.5,290.5 302.5,290.5C 302.338,288.473 302.505,286.473 303,284.5C 303.333,289.167 303.667,293.833 304,298.5C 304.611,293.504 305.111,288.504 305.5,283.5C 305.183,280.428 305.516,277.428 306.5,274.5C 308.048,272.078 309.714,272.078 311.5,274.5C 314.948,272.55 318.615,271.05 322.5,270C 332.247,269.863 341.913,269.03 351.5,267.5C 348.54,268.847 345.54,270.347 342.5,272C 332.978,271.583 323.978,273.083 315.5,276.5C 314.833,278.167 314.167,279.833 313.5,281.5C 319.158,284.637 324.158,287.804 328.5,291C 327.062,291.219 325.729,291.719 324.5,292.5C 325,292.833 325.5,293.167 326,293.5C 330.171,292.923 334.338,292.256 338.5,291.5C 339.311,290.784 339.978,289.95 340.5,289C 339.852,287.56 339.519,286.06 339.5,284.5C 340.5,284.5 341.5,284.5 342.5,284.5C 341.313,281.956 340.313,279.29 339.5,276.5C 346.818,273.563 354.151,270.73 361.5,268C 359.527,267.505 357.527,267.338 355.5,267.5C 357.214,266.262 359.214,265.595 361.5,265.5C 366.179,264.455 370.679,264.455 375,265.5C 375.826,267.405 376.993,267.739 378.5,266.5C 377.509,264.877 378.176,263.877 380.5,263.5C 382.264,266.215 383.264,269.215 383.5,272.5 Z"/></g>
<g><path style="opacity:1" fill="#5c6a70" d="M 351.5,267.5 C 352.833,267.5 354.167,267.5 355.5,267.5C 357.527,267.338 359.527,267.505 361.5,268C 354.151,270.73 346.818,273.563 339.5,276.5C 340.313,279.29 341.313,281.956 342.5,284.5C 341.5,284.5 340.5,284.5 339.5,284.5C 339.519,286.06 339.852,287.56 340.5,289C 339.978,289.95 339.311,290.784 338.5,291.5C 334.338,292.256 330.171,292.923 326,293.5C 325.5,293.167 325,292.833 324.5,292.5C 325.729,291.719 327.062,291.219 328.5,291C 324.158,287.804 319.158,284.637 313.5,281.5C 314.167,279.833 314.833,278.167 315.5,276.5C 323.978,273.083 332.978,271.583 342.5,272C 345.54,270.347 348.54,268.847 351.5,267.5 Z"/></g>
<g><path style="opacity:1" fill="#25393f" d="M 272.5,272.5 C 271.908,275.631 272.908,277.964 275.5,279.5C 276.441,281.05 277.107,282.716 277.5,284.5C 277.5,287.833 277.5,291.167 277.5,294.5C 274.017,293.717 270.683,292.884 267.5,292C 267.043,292.414 266.709,292.914 266.5,293.5C 268.361,295.888 269.694,298.554 270.5,301.5C 268.955,302.452 267.288,302.785 265.5,302.5C 265.772,293.883 265.772,284.883 265.5,275.5C 264.5,275.5 263.5,275.5 262.5,275.5C 262.5,274.5 262.5,273.5 262.5,272.5C 264.5,272.5 266.5,272.5 268.5,272.5C 268.5,273.5 268.5,274.5 268.5,275.5C 269.5,275.5 270.5,275.5 271.5,275.5C 271.263,274.209 271.596,273.209 272.5,272.5 Z"/></g>
<g><path style="opacity:1" fill="#465157" d="M 422.5,296.5 C 422.007,305.157 419.674,313.157 415.5,320.5C 408.91,320.75 402.743,319.417 397,316.5C 396.692,317.308 396.192,317.975 395.5,318.5C 392.853,316.451 392.019,313.784 393,310.5C 395.54,311.876 397.54,311.21 399,308.5C 400.242,309.872 401.742,310.872 403.5,311.5C 403.913,307.64 405.247,303.973 407.5,300.5C 408.268,301.263 408.768,302.263 409,303.5C 409.654,302.304 410.154,302.304 410.5,303.5C 409.975,304.192 409.308,304.692 408.5,305C 410.694,307.194 412.86,309.36 415,311.5C 417.079,307.806 418.412,303.806 419,299.5C 419.333,299.833 419.667,300.167 420,300.5C 420.934,299.142 421.768,297.808 422.5,296.5 Z"/></g>
<g><path style="opacity:1" fill="#5a6b70" d="M 271.5,314.5 C 274.066,314.344 276.566,314.678 279,315.5C 280.285,315.05 281.452,314.383 282.5,313.5C 283.94,308.617 285.94,303.95 288.5,299.5C 288.152,297.303 287.152,295.47 285.5,294C 285.833,293.667 286.167,293.333 286.5,293C 284.671,292.727 283.171,291.893 282,290.5C 281.202,287.457 280.035,284.624 278.5,282C 282.535,281.759 286.369,282.593 290,284.5C 291.915,288.665 294.082,292.665 296.5,296.5C 295.978,297.607 295.645,298.774 295.5,300C 297.089,308.62 298.255,308.453 299,299.5C 299.667,298.167 300.333,298.167 301,299.5C 301.333,298.167 301.667,296.833 302,295.5C 302.497,297.81 302.663,300.143 302.5,302.5C 301.771,307.13 301.437,311.797 301.5,316.5C 299.712,316.785 298.045,316.452 296.5,315.5C 296.177,312.983 296.177,310.649 296.5,308.5C 292.499,310.503 291.499,313.503 293.5,317.5C 290.15,317.335 286.817,317.502 283.5,318C 282.263,318.232 281.263,318.732 280.5,319.5C 276.766,319.677 273.099,319.344 269.5,318.5C 259.387,307.961 252.054,295.627 247.5,281.5C 247.369,280.624 247.702,279.957 248.5,279.5C 250.852,286.394 253.685,293.06 257,299.5C 258.42,301.422 260.253,302.755 262.5,303.5C 263.23,308.63 265.73,312.63 270,315.5C 270.765,315.43 271.265,315.097 271.5,314.5 Z"/></g>
<g><path style="opacity:1" fill="#394b50" d="M 277.5,284.5 C 278.487,287.713 279.487,291.046 280.5,294.5C 279.207,296.103 278.207,297.769 277.5,299.5C 277.179,297.952 276.179,297.285 274.5,297.5C 274.5,299.5 274.5,301.5 274.5,303.5C 273.5,303.5 272.5,303.5 271.5,303.5C 271.5,304.5 271.5,305.5 271.5,306.5C 270.5,306.5 269.5,306.5 268.5,306.5C 268.5,305.5 268.5,304.5 268.5,303.5C 267.209,303.737 266.209,303.404 265.5,302.5C 267.288,302.785 268.955,302.452 270.5,301.5C 269.694,298.554 268.361,295.888 266.5,293.5C 266.709,292.914 267.043,292.414 267.5,292C 270.683,292.884 274.017,293.717 277.5,294.5C 277.5,291.167 277.5,287.833 277.5,284.5 Z"/></g>
<g><path style="opacity:1" fill="#5c6a70" d="M 314.5,316.5 C 312.833,316.5 311.167,316.5 309.5,316.5C 309.5,314.833 309.5,313.167 309.5,311.5C 310.309,310.531 311.309,309.698 312.5,309C 316.233,308.934 319.733,308.101 323,306.5C 323.725,307.059 324.558,307.392 325.5,307.5C 328.495,306.336 331.495,305.17 334.5,304C 338.887,304.348 342.553,303.014 345.5,300C 344.289,299.107 344.289,298.274 345.5,297.5C 346.842,296.098 347.676,296.431 348,298.5C 349.582,297.04 350.915,295.373 352,293.5C 353.583,293.493 355.249,293.826 357,294.5C 357.308,293.692 357.808,293.025 358.5,292.5C 359.675,293.855 360.675,293.688 361.5,292C 358.774,291.818 356.107,291.318 353.5,290.5C 353.833,290.167 354.167,289.833 354.5,289.5C 358.526,289.244 362.526,289.744 366.5,291C 367.5,292.667 368.5,294.333 369.5,296C 370.5,296.333 371.5,296.667 372.5,297C 370.327,298.865 369.993,301.031 371.5,303.5C 353.131,310.508 334.131,314.841 314.5,316.5 Z"/></g>
<g><path style="opacity:1" fill="#597174" d="M 245.5,291.5 C 251.143,299.428 256.81,307.428 262.5,315.5C 263.038,317.117 263.371,318.784 263.5,320.5C 259.936,316.386 256.603,312.052 253.5,307.5C 251.324,302.472 248.657,297.806 245.5,293.5C 245.5,292.833 245.5,292.167 245.5,291.5 Z"/></g>
<g><path style="opacity:1" fill="#37474c" d="M 424.5,287.5 C 426.231,298.401 425.231,309.068 421.5,319.5C 423.814,308.981 424.814,298.314 424.5,287.5 Z"/></g>
<g><path style="opacity:1" fill="#b5b9ba" d="M 245.5,293.5 C 248.657,297.806 251.324,302.472 253.5,307.5C 254.167,313.5 254.833,319.5 255.5,325.5C 251.567,315.127 248.234,304.46 245.5,293.5 Z"/></g>
<g><path style="opacity:1" fill="#899294" d="M 253.5,307.5 C 256.603,312.052 259.936,316.386 263.5,320.5C 262.531,326.329 261.198,331.996 259.5,337.5C 257.653,333.775 256.319,329.775 255.5,325.5C 254.833,319.5 254.167,313.5 253.5,307.5 Z"/></g>
<g><path style="opacity:1" fill="#203338" d="M 262.5,315.5 C 263.972,317.134 265.638,318.634 267.5,320C 269.948,320.853 270.614,320.353 269.5,318.5C 273.099,319.344 276.766,319.677 280.5,319.5C 287.462,319.684 294.295,319.018 301,317.5C 303.37,319.117 306.036,320.117 309,320.5C 334.708,319.598 359.875,319.598 384.5,320.5C 384.5,319.5 384.5,318.5 384.5,317.5C 385.5,317.5 386.5,317.5 387.5,317.5C 387.5,318.833 387.5,320.167 387.5,321.5C 389.143,321.52 390.476,320.853 391.5,319.5C 398.96,321.42 406.627,322.087 414.5,321.5C 412.429,322.809 409.929,323.475 407,323.5C 375.176,322.557 343.343,322.224 311.5,322.5C 307.665,321.08 303.665,320.413 299.5,320.5C 291.66,321.695 283.827,321.695 276,320.5C 274.5,320.667 273,320.833 271.5,321C 271.957,321.414 272.291,321.914 272.5,322.5C 286.643,323.967 300.643,325.3 314.5,326.5C 299.466,326.527 284.466,325.861 269.5,324.5C 267.246,323.585 265.246,322.252 263.5,320.5C 263.371,318.784 263.038,317.117 262.5,315.5 Z"/></g>
<g><path style="opacity:1" fill="#0b1f24" d="M 423.5,274.5 C 424.08,278.81 424.414,283.143 424.5,287.5C 424.814,298.314 423.814,308.981 421.5,319.5C 421.5,319.833 421.5,320.167 421.5,320.5C 419.419,321.727 417.419,323.227 415.5,325C 412.854,325.497 410.187,325.664 407.5,325.5C 390.158,324.223 372.658,324.223 355,325.5C 342.513,324.758 330.013,324.258 317.5,324C 315.292,323.809 313.292,323.309 311.5,322.5C 343.343,322.224 375.176,322.557 407,323.5C 409.929,323.475 412.429,322.809 414.5,321.5C 415.167,321.5 415.5,321.167 415.5,320.5C 419.674,313.157 422.007,305.157 422.5,296.5C 422.175,288.981 422.508,281.648 423.5,274.5 Z"/></g>
<g><path style="opacity:1" fill="#03161b" d="M 311.5,322.5 C 313.292,323.309 315.292,323.809 317.5,324C 330.013,324.258 342.513,324.758 355,325.5C 372.658,324.223 390.158,324.223 407.5,325.5C 402.398,326.121 397.398,326.787 392.5,327.5C 390.5,327.5 388.5,327.5 386.5,327.5C 362.485,327.75 338.485,327.416 314.5,326.5C 300.643,325.3 286.643,323.967 272.5,322.5C 272.291,321.914 271.957,321.414 271.5,321C 273,320.833 274.5,320.667 276,320.5C 283.827,321.695 291.66,321.695 299.5,320.5C 303.665,320.413 307.665,321.08 311.5,322.5 Z"/></g>
<g><path style="opacity:1" fill="#47565a" d="M 421.5,320.5 C 420.651,323.681 418.985,326.348 416.5,328.5C 412.51,329.19 408.51,329.357 404.5,329C 405.5,328.667 406.5,328.333 407.5,328C 402.511,327.501 397.511,327.334 392.5,327.5C 397.398,326.787 402.398,326.121 407.5,325.5C 410.187,325.664 412.854,325.497 415.5,325C 417.419,323.227 419.419,321.727 421.5,320.5 Z"/></g>
<g><path style="opacity:1" fill="#34474c" d="M 269.5,324.5 C 284.466,325.861 299.466,326.527 314.5,326.5C 338.485,327.416 362.485,327.75 386.5,327.5C 382.366,328.485 378.032,328.818 373.5,328.5C 356.496,328.673 339.496,329.006 322.5,329.5C 305.427,329.33 288.427,328.163 271.5,326C 270.584,325.722 269.918,325.222 269.5,324.5 Z"/></g>
<g><path style="opacity:1" fill="#6f7d7e" d="M 263.5,320.5 C 265.246,322.252 267.246,323.585 269.5,324.5C 269.918,325.222 270.584,325.722 271.5,326C 288.427,328.163 305.427,329.33 322.5,329.5C 322.611,330.117 322.944,330.617 323.5,331C 343.833,331.667 364.167,331.667 384.5,331C 380.367,331.094 376.701,330.26 373.5,328.5C 378.032,328.818 382.366,328.485 386.5,327.5C 388.5,327.5 390.5,327.5 392.5,327.5C 397.511,327.334 402.511,327.501 407.5,328C 406.5,328.333 405.5,328.667 404.5,329C 408.51,329.357 412.51,329.19 416.5,328.5C 413.822,331.873 411.156,335.206 408.5,338.5C 407.092,337.939 405.592,337.605 404,337.5C 394.19,339.164 384.357,340.497 374.5,341.5C 372.901,341.232 371.568,341.566 370.5,342.5C 363.8,342.17 357.134,342.503 350.5,343.5C 350.137,344.183 349.804,344.85 349.5,345.5C 348.188,346.145 347.188,347.145 346.5,348.5C 340.872,349.495 335.206,349.829 329.5,349.5C 329.5,347.167 329.5,344.833 329.5,342.5C 321.677,341.344 313.677,341.177 305.5,342C 304.944,342.383 304.611,342.883 304.5,343.5C 302.56,345.782 300.56,348.115 298.5,350.5C 292.22,349.871 285.886,349.204 279.5,348.5C 279.135,347.098 278.301,346.098 277,345.5C 272.535,344.506 268.035,343.672 263.5,343C 261.536,341.549 260.203,339.716 259.5,337.5C 261.198,331.996 262.531,326.329 263.5,320.5 Z"/></g>
<g><path style="opacity:1" fill="#4d5e63" d="M 373.5,328.5 C 376.701,330.26 380.367,331.094 384.5,331C 364.167,331.667 343.833,331.667 323.5,331C 322.944,330.617 322.611,330.117 322.5,329.5C 339.496,329.006 356.496,328.673 373.5,328.5 Z"/></g>
<g><path style="opacity:1" fill="#5c6668" d="M 408.5,338.5 C 404.069,346.056 397.402,350.056 388.5,350.5C 386.833,350.5 385.167,350.5 383.5,350.5C 384.091,349.849 384.757,349.182 385.5,348.5C 383.925,347.554 382.258,347.554 380.5,348.5C 378.803,348.101 377.137,347.601 375.5,347C 375.833,346.667 376.167,346.333 376.5,346C 375.733,344.53 375.067,343.03 374.5,341.5C 384.357,340.497 394.19,339.164 404,337.5C 405.592,337.605 407.092,337.939 408.5,338.5 Z"/></g>
<g><path style="opacity:1" fill="#656865" d="M 304.5,343.5 C 306.71,344.201 308.544,345.535 310,347.5C 311.609,346.85 313.109,347.35 314.5,349C 312.164,350.27 312.164,351.77 314.5,353.5C 318.661,355.185 322.994,355.852 327.5,355.5C 328.167,355.5 328.5,355.833 328.5,356.5C 323.046,357.483 317.713,358.983 312.5,361C 310.5,361.667 308.5,361.667 306.5,361C 303.617,357.624 300.951,354.124 298.5,350.5C 300.56,348.115 302.56,345.782 304.5,343.5 Z"/></g>
<g><path style="opacity:1" fill="#545854" d="M 329.5,342.5 C 326.813,342.336 324.146,342.503 321.5,343C 322.759,343.923 324.092,344.757 325.5,345.5C 325.167,346.167 324.833,346.833 324.5,347.5C 325.833,349.5 327.167,351.5 328.5,353.5C 328.137,354.183 327.804,354.85 327.5,355.5C 322.994,355.852 318.661,355.185 314.5,353.5C 312.164,351.77 312.164,350.27 314.5,349C 313.109,347.35 311.609,346.85 310,347.5C 308.544,345.535 306.71,344.201 304.5,343.5C 304.611,342.883 304.944,342.383 305.5,342C 313.677,341.177 321.677,341.344 329.5,342.5 Z"/></g>
<g><path style="opacity:1" fill="#474d4c" d="M 370.5,342.5 C 371.568,341.566 372.901,341.232 374.5,341.5C 375.067,343.03 375.733,344.53 376.5,346C 376.167,346.333 375.833,346.667 375.5,347C 377.137,347.601 378.803,348.101 380.5,348.5C 382.258,347.554 383.925,347.554 385.5,348.5C 384.757,349.182 384.091,349.849 383.5,350.5C 381.694,351.024 380.028,351.691 378.5,352.5C 372.275,352.9 366.275,353.9 360.5,355.5C 354.236,355.808 348.402,354.474 343,351.5C 339.813,353.181 336.646,355.014 333.5,357C 331.735,357.64 330.068,357.473 328.5,356.5C 328.5,355.833 328.167,355.5 327.5,355.5C 327.804,354.85 328.137,354.183 328.5,353.5C 327.167,351.5 325.833,349.5 324.5,347.5C 324.833,346.833 325.167,346.167 325.5,345.5C 324.092,344.757 322.759,343.923 321.5,343C 324.146,342.503 326.813,342.336 329.5,342.5C 329.5,344.833 329.5,347.167 329.5,349.5C 335.206,349.829 340.872,349.495 346.5,348.5C 347.188,347.145 348.188,346.145 349.5,345.5C 351.246,346.218 351.912,347.218 351.5,348.5C 358.256,347.727 365.256,347.393 372.5,347.5C 372.421,346.07 372.754,344.736 373.5,343.5C 372.675,342.614 371.675,342.281 370.5,342.5 Z"/></g>
<g><path style="opacity:1" fill="#323737" d="M 370.5,342.5 C 371.675,342.281 372.675,342.614 373.5,343.5C 372.754,344.736 372.421,346.07 372.5,347.5C 365.256,347.393 358.256,347.727 351.5,348.5C 351.912,347.218 351.246,346.218 349.5,345.5C 349.804,344.85 350.137,344.183 350.5,343.5C 357.134,342.503 363.8,342.17 370.5,342.5 Z"/></g>
<g><path style="opacity:1" fill="#9ea2a4" d="M 383.5,350.5 C 385.167,350.5 386.833,350.5 388.5,350.5C 385.411,351.785 382.078,352.451 378.5,352.5C 380.028,351.691 381.694,351.024 383.5,350.5 Z"/></g>
<g><path style="opacity:1" fill="#a8abac" d="M 378.5,352.5 C 372.777,354.421 366.777,355.421 360.5,355.5C 366.275,353.9 372.275,352.9 378.5,352.5 Z"/></g>
</svg>
