<?xml version="1.0" encoding="UTF-8"?>
<!DOCTYPE svg PUBLIC "-//W3C//DTD SVG 1.1//EN" "http://www.w3.org/Graphics/SVG/1.1/DTD/svg11.dtd">
<svg xmlns="http://www.w3.org/2000/svg" version="1.1" width="25px" height="25px" style="shape-rendering:geometricPrecision; text-rendering:geometricPrecision; image-rendering:optimizeQuality; fill-rule:evenodd; clip-rule:evenodd" xmlns:xlink="http://www.w3.org/1999/xlink">
<g><path style="opacity:0.994" fill="#fc766b" d="M 6.5,-0.5 C 10.1667,-0.5 13.8333,-0.5 17.5,-0.5C 20.1667,1.5 22.5,3.83333 24.5,6.5C 24.5,10.1667 24.5,13.8333 24.5,17.5C 22.5,20.1667 20.1667,22.5 17.5,24.5C 13.8333,24.5 10.1667,24.5 6.5,24.5C 3.83333,22.5 1.5,20.1667 -0.5,17.5C -0.5,13.8333 -0.5,10.1667 -0.5,6.5C 1.5,3.83333 3.83333,1.5 6.5,-0.5 Z M 16.5,8.5 C 17.2389,8.36899 17.9056,8.53566 18.5,9C 16.5,11 14.5,13 12.5,15C 9.90626,15.4493 7.90626,14.4493 6.5,12C 8.38673,11.8374 9.88673,12.6707 11,14.5C 13.0396,12.6298 14.8729,10.6298 16.5,8.5 Z"/></g>
</svg>
