<?xml version="1.0" encoding="UTF-8"?>
<!DOCTYPE svg PUBLIC "-//W3C//DTD SVG 1.1//EN" "http://www.w3.org/Graphics/SVG/1.1/DTD/svg11.dtd">
<svg xmlns="http://www.w3.org/2000/svg" version="1.1" width="512px" height="512px" style="shape-rendering:geometricPrecision; text-rendering:geometricPrecision; image-rendering:optimizeQuality; fill-rule:evenodd; clip-rule:evenodd" xmlns:xlink="http://www.w3.org/1999/xlink">
<g><path style="opacity:0.975" fill="#fe7568" d="M 44.5,-0.5 C 125.167,-0.5 205.833,-0.5 286.5,-0.5C 286.5,19.5 286.5,39.5 286.5,59.5C 301.5,59.5 316.5,59.5 331.5,59.5C 331.5,104.5 331.5,149.5 331.5,194.5C 351.167,194.5 370.833,194.5 390.5,194.5C 390.5,174.5 390.5,154.5 390.5,134.5C 430.833,134.5 471.167,134.5 511.5,134.5C 511.5,260.167 511.5,385.833 511.5,511.5C 340.833,511.5 170.167,511.5 -0.5,511.5C -0.5,360.833 -0.5,210.167 -0.5,59.5C 14.5,59.5 29.5,59.5 44.5,59.5C 44.5,39.5 44.5,19.5 44.5,-0.5 Z M 75.5,30.5 C 135.5,30.5 195.5,30.5 255.5,30.5C 255.5,40.1667 255.5,49.8333 255.5,59.5C 195.5,59.5 135.5,59.5 75.5,59.5C 75.5,49.8333 75.5,40.1667 75.5,30.5 Z M 30.5,90.5 C 120.5,90.5 210.5,90.5 300.5,90.5C 300.5,200.5 300.5,310.5 300.5,420.5C 275.5,420.5 250.5,420.5 225.5,420.5C 225.5,395.5 225.5,370.5 225.5,345.5C 185.167,345.5 144.833,345.5 104.5,345.5C 104.5,370.5 104.5,395.5 104.5,420.5C 79.8333,420.5 55.1667,420.5 30.5,420.5C 30.5,310.5 30.5,200.5 30.5,90.5 Z M 421.5,165.5 C 441.167,165.5 460.833,165.5 480.5,165.5C 480.5,175.167 480.5,184.833 480.5,194.5C 460.833,194.5 441.167,194.5 421.5,194.5C 421.5,184.833 421.5,175.167 421.5,165.5 Z M 331.5,225.5 C 381.167,225.5 430.833,225.5 480.5,225.5C 480.5,310.5 480.5,395.5 480.5,480.5C 430.833,480.5 381.167,480.5 331.5,480.5C 331.5,395.5 331.5,310.5 331.5,225.5 Z M 135.5,376.5 C 155.167,376.5 174.833,376.5 194.5,376.5C 194.5,411.167 194.5,445.833 194.5,480.5C 174.833,480.5 155.167,480.5 135.5,480.5C 135.5,445.833 135.5,411.167 135.5,376.5 Z M 30.5,451.5 C 55.1667,451.5 79.8333,451.5 104.5,451.5C 104.5,461.167 104.5,470.833 104.5,480.5C 79.8333,480.5 55.1667,480.5 30.5,480.5C 30.5,470.833 30.5,461.167 30.5,451.5 Z M 225.5,451.5 C 250.5,451.5 275.5,451.5 300.5,451.5C 300.5,461.167 300.5,470.833 300.5,480.5C 275.5,480.5 250.5,480.5 225.5,480.5C 225.5,470.833 225.5,461.167 225.5,451.5 Z"/></g>
<g><path style="opacity:0.954" fill="#fe7568" d="M 59.5,119.5 C 69.8333,119.5 80.1667,119.5 90.5,119.5C 90.5,134.833 90.5,150.167 90.5,165.5C 80.1667,165.5 69.8333,165.5 59.5,165.5C 59.5,150.167 59.5,134.833 59.5,119.5 Z"/></g>
<g><path style="opacity:0.955" fill="#fe7568" d="M 119.5,119.5 C 129.833,119.5 140.167,119.5 150.5,119.5C 150.5,134.833 150.5,150.167 150.5,165.5C 140.167,165.5 129.833,165.5 119.5,165.5C 119.5,150.167 119.5,134.833 119.5,119.5 Z"/></g>
<g><path style="opacity:0.955" fill="#fe7568" d="M 179.5,119.5 C 189.833,119.5 200.167,119.5 210.5,119.5C 210.5,134.833 210.5,150.167 210.5,165.5C 200.167,165.5 189.833,165.5 179.5,165.5C 179.5,150.167 179.5,134.833 179.5,119.5 Z"/></g>
<g><path style="opacity:0.925" fill="#fe7568" d="M 239.5,119.5 C 250.167,119.5 260.833,119.5 271.5,119.5C 271.5,134.833 271.5,150.167 271.5,165.5C 260.833,165.5 250.167,165.5 239.5,165.5C 239.5,150.167 239.5,134.833 239.5,119.5 Z"/></g>
<g><path style="opacity:0.954" fill="#fe7568" d="M 59.5,194.5 C 69.8333,194.5 80.1667,194.5 90.5,194.5C 90.5,209.833 90.5,225.167 90.5,240.5C 80.1667,240.5 69.8333,240.5 59.5,240.5C 59.5,225.167 59.5,209.833 59.5,194.5 Z"/></g>
<g><path style="opacity:0.954" fill="#fe7568" d="M 119.5,194.5 C 129.833,194.5 140.167,194.5 150.5,194.5C 150.5,209.833 150.5,225.167 150.5,240.5C 140.167,240.5 129.833,240.5 119.5,240.5C 119.5,225.167 119.5,209.833 119.5,194.5 Z"/></g>
<g><path style="opacity:0.954" fill="#fe7568" d="M 179.5,194.5 C 189.833,194.5 200.167,194.5 210.5,194.5C 210.5,209.833 210.5,225.167 210.5,240.5C 200.167,240.5 189.833,240.5 179.5,240.5C 179.5,225.167 179.5,209.833 179.5,194.5 Z"/></g>
<g><path style="opacity:0.926" fill="#fe7568" d="M 240.5,194.5 C 250.749,194.181 260.916,194.514 271,195.5C 271.5,210.496 271.667,225.496 271.5,240.5C 260.833,240.5 250.167,240.5 239.5,240.5C 239.183,225.089 239.517,209.755 240.5,194.5 Z"/></g>
<g><path style="opacity:0.954" fill="#fe7568" d="M 360.5,255.5 C 370.833,255.5 381.167,255.5 391.5,255.5C 391.5,270.833 391.5,286.167 391.5,301.5C 381.167,301.5 370.833,301.5 360.5,301.5C 360.5,286.167 360.5,270.833 360.5,255.5 Z"/></g>
<g><path style="opacity:0.954" fill="#fe7568" d="M 420.5,255.5 C 430.833,255.5 441.167,255.5 451.5,255.5C 451.5,270.833 451.5,286.167 451.5,301.5C 441.167,301.5 430.833,301.5 420.5,301.5C 420.5,286.167 420.5,270.833 420.5,255.5 Z"/></g>
<g><path style="opacity:0.954" fill="#fe7568" d="M 59.5,270.5 C 69.8333,270.5 80.1667,270.5 90.5,270.5C 90.5,285.833 90.5,301.167 90.5,316.5C 80.1667,316.5 69.8333,316.5 59.5,316.5C 59.5,301.167 59.5,285.833 59.5,270.5 Z"/></g>
<g><path style="opacity:0.954" fill="#fe7568" d="M 119.5,270.5 C 129.833,270.5 140.167,270.5 150.5,270.5C 150.5,285.833 150.5,301.167 150.5,316.5C 140.167,316.5 129.833,316.5 119.5,316.5C 119.5,301.167 119.5,285.833 119.5,270.5 Z"/></g>
<g><path style="opacity:0.954" fill="#fe7568" d="M 179.5,270.5 C 189.833,270.5 200.167,270.5 210.5,270.5C 210.5,285.833 210.5,301.167 210.5,316.5C 200.167,316.5 189.833,316.5 179.5,316.5C 179.5,301.167 179.5,285.833 179.5,270.5 Z"/></g>
<g><path style="opacity:0.926" fill="#fe7568" d="M 239.5,270.5 C 250.167,270.5 260.833,270.5 271.5,270.5C 271.667,285.504 271.5,300.504 271,315.5C 260.667,316.833 250.333,316.833 240,315.5C 239.5,300.504 239.333,285.504 239.5,270.5 Z"/></g>
<g><path style="opacity:0.955" fill="#fe7568" d="M 360.5,330.5 C 370.833,330.5 381.167,330.5 391.5,330.5C 391.5,345.833 391.5,361.167 391.5,376.5C 381.167,376.5 370.833,376.5 360.5,376.5C 360.5,361.167 360.5,345.833 360.5,330.5 Z"/></g>
<g><path style="opacity:0.954" fill="#fe7568" d="M 420.5,330.5 C 430.833,330.5 441.167,330.5 451.5,330.5C 451.5,345.833 451.5,361.167 451.5,376.5C 441.167,376.5 430.833,376.5 420.5,376.5C 420.5,361.167 420.5,345.833 420.5,330.5 Z"/></g>
<g><path style="opacity:0.954" fill="#fe7568" d="M 360.5,405.5 C 370.833,405.5 381.167,405.5 391.5,405.5C 391.5,420.833 391.5,436.167 391.5,451.5C 381.167,451.5 370.833,451.5 360.5,451.5C 360.5,436.167 360.5,420.833 360.5,405.5 Z"/></g>
<g><path style="opacity:0.954" fill="#fe7568" d="M 420.5,405.5 C 430.833,405.5 441.167,405.5 451.5,405.5C 451.5,420.833 451.5,436.167 451.5,451.5C 441.167,451.5 430.833,451.5 420.5,451.5C 420.5,436.167 420.5,420.833 420.5,405.5 Z"/></g>
</svg>
