<?xml version="1.0" encoding="UTF-8"?>
<!DOCTYPE svg PUBLIC "-//W3C//DTD SVG 1.1//EN" "http://www.w3.org/Graphics/SVG/1.1/DTD/svg11.dtd">
<svg xmlns="http://www.w3.org/2000/svg" version="1.1" width="512px" height="512px" style="shape-rendering:geometricPrecision; text-rendering:geometricPrecision; image-rendering:optimizeQuality; fill-rule:evenodd; clip-rule:evenodd" xmlns:xlink="http://www.w3.org/1999/xlink">
<g><path style="opacity:0.969" fill="#f77566" d="M 235.5,47.5 C 314.009,43.0143 377.175,71.6809 425,133.5C 467.97,197.899 475.303,266.232 447,338.5C 412.593,411.14 355.426,452.64 275.5,463C 196.969,467.975 133.802,439.475 86,377.5C 43.0299,313.099 35.6966,244.766 64,172.5C 98.5342,99.8014 155.701,58.1347 235.5,47.5 Z M 253.5,79.5 C 321.168,81.777 372.668,111.444 408,168.5C 435.001,219.183 438.001,271.183 417,324.5C 414.161,330.851 410.828,336.851 407,342.5C 352.553,296.502 289.72,278.669 218.5,289C 175.23,295.14 137.563,312.806 105.5,342C 104.365,342.749 103.365,342.583 102.5,341.5C 72.1728,283.779 72.3395,226.113 103,168.5C 137.553,112.794 187.72,83.1273 253.5,79.5 Z M 254.5,143.5 C 279.078,145.245 294.911,157.912 302,181.5C 305.361,205.948 296.194,223.782 274.5,235C 247.018,243.948 226.185,235.782 212,210.5C 204.746,191.509 207.746,174.176 221,158.5C 230.49,149.513 241.657,144.513 254.5,143.5 Z M 246.5,319.5 C 295.483,317.219 339.149,331.053 377.5,361C 381.067,363.945 384.4,367.111 387.5,370.5C 352.089,410.113 307.589,430.447 254,431.5C 202.091,429.538 158.758,409.538 124,371.5C 123.333,370.833 123.333,370.167 124,369.5C 158.535,337.486 199.369,320.82 246.5,319.5 Z"/></g>
<g><path style="opacity:0.968" fill="#f77566" d="M 243.5,111.5 C 283.598,108.291 312.431,124.624 330,160.5C 343.582,202.422 332.415,235.922 296.5,261C 257.371,280.173 222.871,274.006 193,242.5C 173.914,216.613 170.248,188.613 182,158.5C 194.903,132.749 215.403,117.082 243.5,111.5 Z M 254.5,143.5 C 241.657,144.513 230.49,149.513 221,158.5C 207.746,174.176 204.746,191.509 212,210.5C 226.185,235.782 247.018,243.948 274.5,235C 296.194,223.782 305.361,205.948 302,181.5C 294.911,157.912 279.078,145.245 254.5,143.5 Z"/></g>
</svg>
