<?xml version="1.0" encoding="UTF-8"?>
<!DOCTYPE svg PUBLIC "-//W3C//DTD SVG 1.1//EN" "http://www.w3.org/Graphics/SVG/1.1/DTD/svg11.dtd">
<svg xmlns="http://www.w3.org/2000/svg" version="1.1" width="512px" height="512px" style="shape-rendering:geometricPrecision; text-rendering:geometricPrecision; image-rendering:optimizeQuality; fill-rule:evenodd; clip-rule:evenodd" xmlns:xlink="http://www.w3.org/1999/xlink">
<g><path style="opacity:0.944" fill="#fe7568" d="M 101.5,-0.5 C 180.833,-0.5 260.167,-0.5 339.5,-0.5C 350.328,3.8363 356.494,11.8363 358,23.5C 358.333,67.8333 358.667,112.167 359,156.5C 418.315,184.854 449.148,232.021 451.5,298C 451.724,329.658 442.891,358.491 425,384.5C 424.333,385.5 424.333,386.5 425,387.5C 430.5,393 436,398.5 441.5,404C 447.846,403.526 453.512,405.193 458.5,409C 474.696,424.862 490.529,441.029 506,457.5C 508.162,461.481 509.995,465.481 511.5,469.5C 511.5,474.833 511.5,480.167 511.5,485.5C 507.167,498.5 498.5,507.167 485.5,511.5C 480.167,511.5 474.833,511.5 469.5,511.5C 462.819,509.321 456.819,505.821 451.5,501C 437.333,486.833 423.167,472.667 409,458.5C 405.193,453.512 403.526,447.846 404,441.5C 398.023,435.855 392.357,429.855 387,423.5C 342.304,453.317 294.47,459.483 243.5,442C 232.942,438.054 222.942,433.054 213.5,427C 149.5,426.667 85.5,426.333 21.5,426C 10.3127,424.262 2.97932,418.095 -0.5,407.5C -0.5,305.5 -0.5,203.5 -0.5,101.5C 1.21103,97.093 3.71103,93.093 7,89.5C 34.5,62 62,34.5 89.5,7C 93.093,3.71103 97.093,1.21103 101.5,-0.5 Z M 110.5,17.5 C 186.249,17.0061 261.916,17.5061 337.5,19C 338.717,20.6477 339.55,22.481 340,24.5C 340.5,66.1653 340.667,107.832 340.5,149.5C 277.301,134.667 223.801,151 180,198.5C 141.721,248.05 134.055,302.05 157,360.5C 165.056,378.551 176.223,394.385 190.5,408C 134.833,408.667 79.1667,408.667 23.5,408C 20.7683,407.602 18.935,406.102 18,403.5C 17.5,305.834 17.3333,208.167 17.5,110.5C 42.1689,110.667 66.8356,110.5 91.5,110C 101,107.167 107.167,101 110,91.5C 110.5,66.8356 110.667,42.1689 110.5,17.5 Z M 91.5,30.5 C 92.6623,49.6623 92.829,68.9956 92,88.5C 90.8333,89.6667 89.6667,90.8333 88.5,92C 69.1667,92.6667 49.8333,92.6667 30.5,92C 51.035,71.6319 71.3683,51.1319 91.5,30.5 Z M 296.5,161.5 C 355.271,164.277 397.438,191.943 423,244.5C 442.412,295.562 435.412,342.562 402,385.5C 356.842,433.829 303.342,445.996 241.5,422C 191.483,396.016 164.816,354.683 161.5,298C 164.296,243.035 189.629,202.369 237.5,176C 256.328,167.209 275.995,162.376 296.5,161.5 Z M 284.5,196.5 C 328.305,193.32 362.138,209.987 386,246.5C 405.672,285.062 403.672,322.395 380,358.5C 351.341,393.498 314.841,405.998 270.5,396C 229.244,382.411 204.744,354.244 197,311.5C 193.368,267.6 209.868,233.767 246.5,210C 258.477,203.177 271.144,198.677 284.5,196.5 Z M 411.5,401.5 C 417.088,405.417 422.088,410.084 426.5,415.5C 423.167,419.5 419.5,423.167 415.5,426.5C 410.5,422.167 405.833,417.5 401.5,412.5C 404.855,408.813 408.189,405.147 411.5,401.5 Z M 445.5,422.5 C 460.465,436.965 475.299,451.631 490,466.5C 495.622,476.047 494.122,484.214 485.5,491C 478.998,494.454 472.665,494.121 466.5,490C 451.833,475.333 437.167,460.667 422.5,446C 430.369,438.298 438.036,430.465 445.5,422.5 Z"/></g>
<g><path style="opacity:0.942" fill="#fe7568" d="M 140.5,67.5 C 197.168,67.3333 253.834,67.5 310.5,68C 315.447,71.5099 316.613,76.0099 314,81.5C 312.681,83.4875 310.848,84.6541 308.5,85C 253.167,85.6667 197.833,85.6667 142.5,85C 135.131,81.685 133.631,76.5183 138,69.5C 138.995,68.9341 139.828,68.2674 140.5,67.5 Z"/></g>
<g><path style="opacity:0.939" fill="#fe7568" d="M 142.5,109.5 C 197.501,109.333 252.501,109.5 307.5,110C 315.457,112.865 317.29,118.031 313,125.5C 312.25,126.126 311.416,126.626 310.5,127C 253.833,127.667 197.167,127.667 140.5,127C 135.391,123.634 134.224,119.134 137,113.5C 138.5,111.531 140.333,110.198 142.5,109.5 Z"/></g>
<g><path style="opacity:0.941" fill="#fe7568" d="M 47.5,152.5 C 89.5013,152.333 131.501,152.5 173.5,153C 177.084,154.664 178.751,157.497 178.5,161.5C 178.751,165.503 177.084,168.336 173.5,170C 131.5,170.667 89.5,170.667 47.5,170C 39.5557,164.131 39.5557,158.297 47.5,152.5 Z"/></g>
<g><path style="opacity:0.941" fill="#fe7568" d="M 282.5,178.5 C 333.708,174.523 373.208,193.856 401,236.5C 423,277.5 423,318.5 401,359.5C 367.9,408.322 322.4,426.155 264.5,413C 215.768,396.698 187.268,363.198 179,312.5C 174.922,260.153 195.089,220.32 239.5,193C 253.173,185.832 267.506,180.998 282.5,178.5 Z M 284.5,196.5 C 271.144,198.677 258.477,203.177 246.5,210C 209.868,233.767 193.368,267.6 197,311.5C 204.744,354.244 229.244,382.411 270.5,396C 314.841,405.998 351.341,393.498 380,358.5C 403.672,322.395 405.672,285.062 386,246.5C 362.138,209.987 328.305,193.32 284.5,196.5 Z"/></g>
<g><path style="opacity:0.937" fill="#fe7568" d="M 46.5,195.5 C 77.5018,195.333 108.502,195.5 139.5,196C 144.155,198.897 145.655,203.063 144,208.5C 142.363,210.81 140.196,212.31 137.5,213C 108.167,213.667 78.8333,213.667 49.5,213C 42.1272,210.418 40.1272,205.585 43.5,198.5C 44.7701,197.712 45.7701,196.712 46.5,195.5 Z"/></g>
<g><path style="opacity:0.931" fill="#fe7568" d="M 285.5,212.5 C 291.621,212.09 297.621,212.59 303.5,214C 307.787,219.357 307.453,224.357 302.5,229C 280.988,229.276 262.654,236.943 247.5,252C 238.216,253.716 234.049,249.882 235,240.5C 242.22,231.633 251.053,224.8 261.5,220C 269.399,216.753 277.399,214.253 285.5,212.5 Z"/></g>
<g><path style="opacity:0.937" fill="#fe7568" d="M 48.5,237.5 C 72.8356,237.333 97.1689,237.5 121.5,238C 127.089,240.451 128.922,244.617 127,250.5C 126.167,252.667 124.667,254.167 122.5,255C 97.1667,255.667 71.8333,255.667 46.5,255C 39.5732,248.164 40.2398,242.33 48.5,237.5 Z"/></g>
<g><path style="opacity:0.932" fill="#fe7568" d="M 47.5,280.5 C 69.5025,280.333 91.5025,280.5 113.5,281C 119.372,284.016 120.872,288.516 118,294.5C 116.681,296.487 114.848,297.654 112.5,298C 91.1667,298.667 69.8333,298.667 48.5,298C 42.1835,295.393 40.3502,290.893 43,284.5C 44.3968,282.93 45.8968,281.596 47.5,280.5 Z"/></g>
<g><path style="opacity:0.936" fill="#fe7568" d="M 46.5,323.5 C 69.1691,323.333 91.8358,323.5 114.5,324C 119.957,327.96 120.791,332.793 117,338.5C 115.055,339.863 112.888,340.697 110.5,341C 90.5,341.667 70.5,341.667 50.5,341C 43.9063,339.988 41.073,336.155 42,329.5C 42.8041,326.854 44.3041,324.854 46.5,323.5 Z"/></g>
<g><path style="opacity:0.936" fill="#fe7568" d="M 48.5,365.5 C 72.8356,365.333 97.1689,365.5 121.5,366C 127.092,368.402 128.925,372.569 127,378.5C 126.167,380.667 124.667,382.167 122.5,383C 97.5,383.667 72.5,383.667 47.5,383C 41.628,379.984 40.128,375.484 43,369.5C 44.4998,367.531 46.3331,366.198 48.5,365.5 Z"/></g>
</svg>
