<?xml version="1.0" encoding="UTF-8"?>
<!DOCTYPE svg PUBLIC "-//W3C//DTD SVG 1.1//EN" "http://www.w3.org/Graphics/SVG/1.1/DTD/svg11.dtd">
<svg xmlns="http://www.w3.org/2000/svg" version="1.1" width="80px" height="33px" style="shape-rendering:geometricPrecision; text-rendering:geometricPrecision; image-rendering:optimizeQuality; fill-rule:evenodd; clip-rule:evenodd" xmlns:xlink="http://www.w3.org/1999/xlink">
<g><path style="opacity:0.991" fill="#f9c300" d="M 11.5,0.5 C 20.051,-1.14034 26.2177,1.85966 30,9.5C 30.49,10.7932 30.6567,12.1266 30.5,13.5C 28.5328,13.2606 26.6995,13.5939 25,14.5C 22.5407,9.21388 18.374,6.54721 12.5,6.5C 11.2151,4.42335 10.8818,2.42335 11.5,0.5 Z"/></g>
<g><path style="opacity:0.923" fill="#fcfcfc" d="M 60.5,22.5 C 59.5899,26.9855 57.4232,27.6521 54,24.5C 53.5004,17.8417 53.3337,11.175 53.5,4.5C 54.8333,4.5 56.1667,4.5 57.5,4.5C 57.1712,10.2055 57.5046,15.8722 58.5,21.5C 59.1835,21.8627 59.8501,22.1961 60.5,22.5 Z"/></g>
<g><path style="opacity:0.987" fill="#00a6e3" d="M 4.5,4.5 C 7.27234,4.5952 9.27234,5.92853 10.5,8.5C 6.52196,12.8721 6.52196,17.2054 10.5,21.5C 8.93514,26.8943 6.43514,27.561 3,23.5C -0.261753,16.8764 0.238247,10.5431 4.5,4.5 Z"/></g>
<g><path style="opacity:0.949" fill="#f8f8f8" d="M 39.5,21.5 C 38.0695,21.4208 36.7362,21.7542 35.5,22.5C 32.1098,14.6137 34.6098,9.61365 43,7.5C 47.818,7.9835 50.9846,10.4835 52.5,15C 47.8435,16.7065 43.5102,18.8731 39.5,21.5 Z M 39.5,15.5 C 40.4028,12.881 42.0695,12.2144 44.5,13.5C 43.1502,14.9501 41.4835,15.6168 39.5,15.5 Z"/></g>
<g><path style="opacity:0.944" fill="#f5f4f4" d="M 66.5,12.5 C 66.67,11.1779 66.3366,10.0113 65.5,9C 71.8763,6.85745 76.2097,9.02412 78.5,15.5C 76.9255,16.6309 75.2588,16.7975 73.5,16C 71.5435,14.0929 69.2102,12.9263 66.5,12.5 Z"/></g>
<g><path style="opacity:0.947" fill="#f7f7f7" d="M 66.5,12.5 C 66.0805,14.0936 65.4138,15.5936 64.5,17C 65.0439,18.585 65.7106,20.085 66.5,21.5C 65.2058,22.2899 64.0391,23.2899 63,24.5C 62.2917,23.6195 61.4584,22.9528 60.5,22.5C 58.6565,17.8821 59.4898,13.8821 63,10.5C 64.3026,10.9783 65.4693,11.645 66.5,12.5 Z"/></g>
<g><path style="opacity:0.927" fill="#fb2f18" d="M 23.5,16.5 C 25.861,16.6741 28.1944,17.0074 30.5,17.5C 27.9118,28.2969 21.2452,32.1302 10.5,29C 11.2598,27.5589 11.9264,26.0589 12.5,24.5C 15.2125,23.7719 17.8791,22.9385 20.5,22C 22.607,20.7365 23.607,18.9032 23.5,16.5 Z"/></g>
<g><path style="opacity:0.927" fill="#f9f9f9" d="M 66.5,21.5 C 70.1816,22.2747 72.6816,20.9414 74,17.5C 75.5095,18.0897 77.0095,18.7564 78.5,19.5C 76.0151,25.5765 71.6818,27.5765 65.5,25.5C 66.2458,24.2638 66.5792,22.9305 66.5,21.5 Z"/></g>
<g><path style="opacity:0.935" fill="#f9f8f9" d="M 39.5,21.5 C 42.4822,21.8956 45.1489,21.2289 47.5,19.5C 50.8229,20.9378 51.1562,22.7711 48.5,25C 44.679,27.1407 41.0124,26.974 37.5,24.5C 38.1925,23.4822 38.8592,22.4822 39.5,21.5 Z"/></g>
</svg>
