<?xml version="1.0" encoding="UTF-8"?>
<!DOCTYPE svg PUBLIC "-//W3C//DTD SVG 1.1//EN" "http://www.w3.org/Graphics/SVG/1.1/DTD/svg11.dtd">
<svg xmlns="http://www.w3.org/2000/svg" version="1.1" width="512px" height="512px" style="shape-rendering:geometricPrecision; text-rendering:geometricPrecision; image-rendering:optimizeQuality; fill-rule:evenodd; clip-rule:evenodd" xmlns:xlink="http://www.w3.org/1999/xlink">
<g><path style="opacity:0.947" fill="#000000" d="M 484.5,-0.5 C 488.833,-0.5 493.167,-0.5 497.5,-0.5C 503.833,2.5 508.5,7.16667 511.5,13.5C 511.5,17.8333 511.5,22.1667 511.5,26.5C 443.718,185.411 375.885,344.411 308,503.5C 305.06,507.037 301.56,509.703 297.5,511.5C 293.167,511.5 288.833,511.5 284.5,511.5C 278.601,508.77 274.101,504.437 271,498.5C 249.265,434.463 227.432,370.463 205.5,306.5C 140.646,283.715 75.6456,261.215 10.5,239C 5.53892,235.878 1.87225,231.712 -0.5,226.5C -0.5,222.167 -0.5,217.833 -0.5,213.5C 2.71249,206.46 8.04583,201.626 15.5,199C 82.2519,170.638 149.085,142.472 216,114.5C 224.509,116.015 227.843,121.015 226,129.5C 225.215,131.286 224.049,132.786 222.5,134C 155.167,162.667 87.8333,191.333 20.5,220C 84.0166,241.839 147.517,263.672 211,285.5C 295.167,201.333 379.333,117.167 463.5,33C 460.756,33.0192 458.089,33.6859 455.5,35C 404.616,56.9423 353.616,78.6089 302.5,100C 293.948,102.06 289.281,98.7266 288.5,90C 288.595,86.1447 290.262,83.1447 293.5,81C 357.39,54.1008 421.057,26.9341 484.5,-0.5 Z M 478.5,48.5 C 416.288,195.927 353.788,343.261 291,490.5C 269.161,426.983 247.328,363.483 225.5,300C 309.98,216.353 394.314,132.52 478.5,48.5 Z"/></g>
<g><path style="opacity:0.896" fill="#000000" d="M 253.5,97.5 C 264.486,96.6526 268.986,101.653 267,112.5C 262.66,118.864 257.16,120.031 250.5,116C 247.64,112.319 246.807,108.152 248,103.5C 249.36,100.977 251.193,98.9774 253.5,97.5 Z"/></g>
</svg>
