<?xml version="1.0" encoding="UTF-8"?>
<!DOCTYPE svg PUBLIC "-//W3C//DTD SVG 1.1//EN" "http://www.w3.org/Graphics/SVG/1.1/DTD/svg11.dtd">
<svg xmlns="http://www.w3.org/2000/svg" version="1.1" width="512px" height="512px" style="shape-rendering:geometricPrecision; text-rendering:geometricPrecision; image-rendering:optimizeQuality; fill-rule:evenodd; clip-rule:evenodd" xmlns:xlink="http://www.w3.org/1999/xlink">
<g><path style="opacity:0.961" fill="#fb7468" d="M 116.5,0.5 C 130.625,-1.55024 143.625,1.2831 155.5,9C 162.493,17.4901 171.159,23.4901 181.5,27C 230.833,27.6667 280.167,27.6667 329.5,27C 339.867,23.481 348.534,17.481 355.5,9C 369.88,0.110383 385.213,-1.88962 401.5,3C 408.241,5.45386 414.075,9.2872 419,14.5C 420.538,19.1691 419.038,22.3357 414.5,24C 402.035,26.533 389.702,29.533 377.5,33C 376.299,33.9025 375.465,35.0692 375,36.5C 374.333,44.8333 374.333,53.1667 375,61.5C 375.833,63.6667 377.333,65.1667 379.5,66C 392.348,68.5452 405.014,71.7119 417.5,75.5C 420.534,80.4775 419.534,84.6442 414.5,88C 397.258,99.0696 379.258,100.403 360.5,92C 353.167,86 345.833,80 338.5,74C 332.156,71.0736 325.489,69.907 318.5,70.5C 318.5,80.8333 318.5,91.1667 318.5,101.5C 311.167,101.5 303.833,101.5 296.5,101.5C 296.5,91.1667 296.5,80.8333 296.5,70.5C 269.167,70.5 241.833,70.5 214.5,70.5C 214.5,80.8333 214.5,91.1667 214.5,101.5C 207.167,101.5 199.833,101.5 192.5,101.5C 192.5,91.1667 192.5,80.8333 192.5,70.5C 185.511,69.907 178.844,71.0736 172.5,74C 165.167,80 157.833,86 150.5,92C 131.731,100.452 113.731,99.1182 96.5,88C 91.4035,84.5084 90.4035,80.1751 93.5,75C 106.089,71.6861 118.756,68.6861 131.5,66C 133.667,65.1667 135.167,63.6667 136,61.5C 136.667,53.1667 136.667,44.8333 136,36.5C 135.535,35.0692 134.701,33.9025 133.5,33C 121.298,29.533 108.965,26.533 96.5,24C 90.0168,19.6043 90.0168,14.9377 96.5,10C 102.74,5.76259 109.407,2.59593 116.5,0.5 Z M 213.5,39.5 C 241.502,39.3334 269.502,39.5 297.5,40C 306.472,43.2423 308.139,48.5756 302.5,56C 300.608,56.9734 298.608,57.6401 296.5,58C 269.167,58.6667 241.833,58.6667 214.5,58C 206.656,56.4578 203.823,51.9578 206,44.5C 207.913,41.7197 210.413,40.053 213.5,39.5 Z"/></g>
<g><path style="opacity:0.996" fill="#fb7468" d="M 36.5,111.5 C 182.5,111.333 328.5,111.5 474.5,112C 478.588,113.752 481.754,116.585 484,120.5C 484.667,145.833 484.667,171.167 484,196.5C 482.373,201.062 479.206,203.895 474.5,205C 328.5,205.667 182.5,205.667 36.5,205C 32.2116,203.436 29.045,200.603 27,196.5C 26.3333,171.167 26.3333,145.833 27,120.5C 29.4301,116.566 32.5967,113.566 36.5,111.5 Z"/></g>
<g><path style="opacity:0.974" fill="#fb7468" d="M 51.5,215.5 C 187.5,215.5 323.5,215.5 459.5,215.5C 459.5,306.167 459.5,396.833 459.5,487.5C 465.176,487.334 470.843,487.501 476.5,488C 483.974,491.12 486.474,496.62 484,504.5C 482.833,507 481,508.833 478.5,510C 329.833,510.667 181.167,510.667 32.5,510C 30,508.833 28.1667,507 27,504.5C 24.526,496.62 27.026,491.12 34.5,488C 40.1569,487.501 45.8236,487.334 51.5,487.5C 51.5,396.833 51.5,306.167 51.5,215.5 Z M 86.5,291.5 C 199.167,291.5 311.833,291.5 424.5,291.5C 424.5,356.833 424.5,422.167 424.5,487.5C 401.831,487.667 379.164,487.5 356.5,487C 357.126,486.25 357.626,485.416 358,484.5C 358.499,479.511 358.666,474.511 358.5,469.5C 370.778,469.889 376.778,463.889 376.5,451.5C 376.205,428.745 367.205,410.245 349.5,396C 355.279,396.314 360.946,395.314 366.5,393C 373.04,385.088 371.374,379.422 361.5,376C 356.5,375.333 351.5,375.333 346.5,376C 345.234,376.309 344.067,376.809 343,377.5C 337.351,363.53 331.685,349.53 326,335.5C 322.206,330.05 317.039,326.55 310.5,325C 273.833,324.333 237.167,324.333 200.5,325C 193.961,326.55 188.794,330.05 185,335.5C 179.315,349.53 173.649,363.53 168,377.5C 162.351,375.512 156.518,375.012 150.5,376C 139.713,378.793 137.713,384.459 144.5,393C 150.054,395.314 155.721,396.314 161.5,396C 143.795,410.245 134.795,428.745 134.5,451.5C 134.222,463.889 140.222,469.889 152.5,469.5C 152.334,474.511 152.501,479.511 153,484.5C 153.374,485.416 153.874,486.25 154.5,487C 131.836,487.5 109.169,487.667 86.5,487.5C 86.5,422.167 86.5,356.833 86.5,291.5 Z M 204.5,334.5 C 239.882,334.026 275.215,334.526 310.5,336C 315.052,337.588 317.885,340.755 319,345.5C 323.975,358.763 329.142,371.929 334.5,385C 281.833,385.667 229.167,385.667 176.5,385C 182.519,369.792 188.686,354.625 195,339.5C 197.907,337.132 201.074,335.465 204.5,334.5 Z M 170.5,423.5 C 183.807,422.975 190.307,429.308 190,442.5C 184.774,453.908 176.607,456.742 165.5,451C 156.44,439.927 158.107,430.76 170.5,423.5 Z M 331.5,423.5 C 344.807,422.975 351.307,429.308 351,442.5C 345.814,453.895 337.647,456.729 326.5,451C 317.44,439.927 319.107,430.76 331.5,423.5 Z M 207.5,434.5 C 239.502,434.333 271.502,434.5 303.5,435C 307.441,438.098 307.107,440.765 302.5,443C 271.167,443.667 239.833,443.667 208.5,443C 203.653,440.666 203.32,437.832 207.5,434.5 Z M 191.5,469.5 C 234.167,469.5 276.833,469.5 319.5,469.5C 319.212,475.229 319.546,480.896 320.5,486.5C 277.167,487.833 233.833,487.833 190.5,486.5C 191.454,480.896 191.788,475.229 191.5,469.5 Z"/></g>
</svg>
