<?xml version="1.0" encoding="UTF-8"?>
<!DOCTYPE svg PUBLIC "-//W3C//DTD SVG 1.1//EN" "http://www.w3.org/Graphics/SVG/1.1/DTD/svg11.dtd">
<svg xmlns="http://www.w3.org/2000/svg" version="1.1" width="75px" height="75px" style="shape-rendering:geometricPrecision; text-rendering:geometricPrecision; image-rendering:optimizeQuality; fill-rule:evenodd; clip-rule:evenodd" xmlns:xlink="http://www.w3.org/1999/xlink">
<g><path style="opacity:0.81" fill="#fe7568" d="M 38.5,5.5 C 42.5546,5.17575 46.5546,5.50909 50.5,6.5C 51.5107,10.1339 51.5107,13.8006 50.5,17.5C 48.2776,17.822 46.4443,17.1554 45,15.5C 34.8196,24.829 22.9862,29.4957 9.5,29.5C 8.25278,27.9936 8.25278,26.4936 9.5,25C 21.6451,23.5915 32.3118,18.9248 41.5,11C 38.9648,10.0718 37.9648,8.23848 38.5,5.5 Z"/></g>
<g><path style="opacity:0.923" fill="#fe7568" d="M 55.5,19.5 C 60.0986,19.2 64.5986,19.5333 69,20.5C 69.4999,33.4957 69.6666,46.4957 69.5,59.5C 64.5,59.5 59.5,59.5 54.5,59.5C 54.1858,46.0875 54.5192,32.7541 55.5,19.5 Z"/></g>
<g><path style="opacity:0.916" fill="#fe7568" d="M 39.5,26.5 C 43.7675,26.203 47.9341,26.5363 52,27.5C 52.4998,38.1615 52.6665,48.8281 52.5,59.5C 47.5,59.5 42.5,59.5 37.5,59.5C 37.3335,49.1613 37.5002,38.828 38,28.5C 38.7172,27.9558 39.2172,27.2891 39.5,26.5 Z"/></g>
<g><path style="opacity:0.924" fill="#fe7568" d="M 21.5,35.5 C 26.2137,35.1734 30.8804,35.5067 35.5,36.5C 36.4671,44.1101 36.8004,51.7767 36.5,59.5C 31.5,59.5 26.5,59.5 21.5,59.5C 21.5,51.5 21.5,43.5 21.5,35.5 Z"/></g>
<g><path style="opacity:0.901" fill="#fe7568" d="M 5.5,43.5 C 9.51383,43.3345 13.5138,43.5012 17.5,44C 18,44.5 18.5,45 19,45.5C 19.4992,50.1548 19.6658,54.8215 19.5,59.5C 14.5,59.5 9.5,59.5 4.5,59.5C 4.21754,54.0735 4.55087,48.7401 5.5,43.5 Z"/></g>
<g><path style="opacity:0.882" fill="#fe7568" d="M -0.5,63.5 C 24.5,63.5 49.5,63.5 74.5,63.5C 74.5,65.1667 74.5,66.8333 74.5,68.5C 49.5,68.5 24.5,68.5 -0.5,68.5C -0.5,66.8333 -0.5,65.1667 -0.5,63.5 Z"/></g>
</svg>
