<?xml version="1.0" encoding="UTF-8"?>
<!DOCTYPE svg PUBLIC "-//W3C//DTD SVG 1.1//EN" "http://www.w3.org/Graphics/SVG/1.1/DTD/svg11.dtd">
<svg xmlns="http://www.w3.org/2000/svg" version="1.1" width="75px" height="75px" style="shape-rendering:geometricPrecision; text-rendering:geometricPrecision; image-rendering:optimizeQuality; fill-rule:evenodd; clip-rule:evenodd" xmlns:xlink="http://www.w3.org/1999/xlink">
<g><path style="opacity:0.698" fill="#fe7568" d="M 74.5,16.5 C 74.5,19.1667 74.5,21.8333 74.5,24.5C 73.661,25.6412 72.9943,26.9745 72.5,28.5C 71.675,29.3857 70.675,29.719 69.5,29.5C 70.0138,27.4884 70.1805,25.4884 70,23.5C 66.8333,26.6667 63.6667,29.8333 60.5,33C 61.6667,33.5 62.5,34.3333 63,35.5C 64.5,34 66,32.5 67.5,31C 68.635,30.2506 69.635,30.4173 70.5,31.5C 69.7469,33.7534 68.4136,35.5867 66.5,37C 62.4776,38.2132 58.4776,40.0466 54.5,42.5C 53.5091,46.4454 53.1758,50.4454 53.5,54.5C 59.5464,54.5727 61.7131,57.5727 60,63.5C 59.0975,64.7014 57.9308,65.5348 56.5,66C 43.0969,66.944 29.7636,66.6107 16.5,65C 14.6217,63.4571 13.1217,61.6238 12,59.5C 11.8566,46.1008 11.6899,32.7674 11.5,19.5C 7.18691,20.0095 3.18691,19.3429 -0.5,17.5C -0.5,15.1667 -0.5,12.8333 -0.5,10.5C 0.682751,9.49551 2.01608,8.66218 3.5,8C 18.5548,7.06643 33.5548,7.39977 48.5,9C 54.1072,13.5264 54.7739,18.5264 50.5,24C 51.5786,24.956 52.7453,25.7894 54,26.5C 59.2137,20.0362 66.047,16.7029 74.5,16.5 Z M 2.5,11.5 C 6.53928,10.6597 9.53928,11.993 11.5,15.5C 8.89382,16.6517 6.22716,16.8184 3.5,16C 2.61983,14.6439 2.28649,13.1439 2.5,11.5 Z M 13.5,11.5 C 24.505,11.3335 35.505,11.5002 46.5,12C 49.6886,13.5444 50.8553,16.0444 50,19.5C 48.1746,20.1029 46.3413,20.7696 44.5,21.5C 44.9767,22.4776 45.6433,23.3109 46.5,24C 45.5494,24.7175 45.3828,25.5509 46,26.5C 49.0755,26.7914 50.5755,28.4581 50.5,31.5C 50,34.5 49.5,37.5 49,40.5C 46.9824,42.3501 45.1491,44.3501 43.5,46.5C 44.365,47.5827 45.365,47.7494 46.5,47C 47.6667,45.8333 48.8333,44.6667 50,43.5C 50.4986,47.1516 50.6653,50.8183 50.5,54.5C 40.1452,54.1681 29.8119,54.5014 19.5,55.5C 20.8651,56.941 22.3651,58.2744 24,59.5C 24.4562,61.7132 23.4562,62.7132 21,62.5C 15.6397,61.1139 13.473,57.6139 14.5,52C 14.0369,48.1412 15.0369,44.8078 17.5,42C 15.3102,39.2837 13.9769,36.117 13.5,32.5C 14.7964,25.5005 14.7964,18.5005 13.5,11.5 Z M 66.5,20.5 C 69.0009,20.5109 69.1676,21.1776 67,22.5C 66.5357,21.9056 66.369,21.2389 66.5,20.5 Z M 53.5,35.5 C 54.6029,30.301 57.4362,26.301 62,23.5C 62.7504,24.1258 63.5838,24.6258 64.5,25C 60.9643,28.7039 57.2976,32.2039 53.5,35.5 Z M 56.5,36.5 C 57.7733,37.0768 57.7733,37.7435 56.5,38.5C 55.537,38.0302 55.537,37.3635 56.5,36.5 Z M 27.5,57.5 C 37.1724,57.3335 46.8391,57.5002 56.5,58C 57.8602,59.9376 57.5268,61.6043 55.5,63C 45.8333,63.6667 36.1667,63.6667 26.5,63C 27.4061,61.3005 27.7394,59.4672 27.5,57.5 Z"/></g>
<g><path style="opacity:0.7" fill="#fe7568" d="M 23.5,18.5 C 29.8333,18.5 36.1667,18.5 42.5,18.5C 42.5,19.5 42.5,20.5 42.5,21.5C 35.8002,21.83 29.1335,21.4967 22.5,20.5C 22.8627,19.8165 23.1961,19.1499 23.5,18.5 Z"/></g>
<g><path style="opacity:0.699" fill="#fe7568" d="M 22.5,28.5 C 29.1667,28.5 35.8333,28.5 42.5,28.5C 42.5,29.5 42.5,30.5 42.5,31.5C 36.1579,31.6662 29.8246,31.4995 23.5,31C 22.7476,30.3292 22.4142,29.4959 22.5,28.5 Z"/></g>
<g><path style="opacity:0.701" fill="#fe7568" d="M 23.5,37.5 C 29.8333,37.5 36.1667,37.5 42.5,37.5C 42.5,38.5 42.5,39.5 42.5,40.5C 35.8002,40.83 29.1335,40.4967 22.5,39.5C 22.8627,38.8165 23.1961,38.1499 23.5,37.5 Z"/></g>
<g><path style="opacity:0.693" fill="#fe7568" d="M 22.5,47.5 C 29.1667,47.5 35.8333,47.5 42.5,47.5C 42.5,48.5 42.5,49.5 42.5,50.5C 35.8333,50.5 29.1667,50.5 22.5,50.5C 22.5,49.5 22.5,48.5 22.5,47.5 Z"/></g>
</svg>
