<?xml version="1.0" encoding="UTF-8"?>
<!DOCTYPE svg PUBLIC "-//W3C//DTD SVG 1.1//EN" "http://www.w3.org/Graphics/SVG/1.1/DTD/svg11.dtd">
<svg xmlns="http://www.w3.org/2000/svg" version="1.1" width="512px" height="512px" style="shape-rendering:geometricPrecision; text-rendering:geometricPrecision; image-rendering:optimizeQuality; fill-rule:evenodd; clip-rule:evenodd" xmlns:xlink="http://www.w3.org/1999/xlink">
<g><path style="opacity:0.942" fill="#fe7568" d="M -0.5,110.5 C -0.5,102.167 -0.5,93.8333 -0.5,85.5C 4.90969,72.928 14.243,64.7613 27.5,61C 122.167,60.3333 216.833,60.3333 311.5,61C 340.667,67.5 358.5,85.3333 365,114.5C 365.667,127.167 365.667,139.833 365,152.5C 363.786,154.049 362.286,155.215 360.5,156C 353.777,156.738 347.11,157.738 340.5,159C 346.296,163.24 346.963,168.24 342.5,174C 348.79,175.823 355.123,177.489 361.5,179C 362.667,180.167 363.833,181.333 365,182.5C 365.333,186.833 365.667,191.167 366,195.5C 379.518,174.982 396.685,158.149 417.5,145C 421.611,144.535 425.611,145.035 429.5,146.5C 429.107,143.07 429.773,139.904 431.5,137C 455.813,124.537 481.48,119.537 508.5,122C 512.125,149.545 507.125,175.545 493.5,200C 490.2,201.879 486.866,201.879 483.5,200C 481.556,198.278 480.556,196.111 480.5,193.5C 483.955,184.636 487.122,175.636 490,166.5C 491.53,160.86 492.53,155.193 493,149.5C 463.167,179.333 433.333,209.167 403.5,239C 408.699,241.711 413.033,240.711 416.5,236C 420.505,234.902 424.005,235.735 427,238.5C 428.481,241.956 430.148,245.289 432,248.5C 445.98,238.353 458.147,226.353 468.5,212.5C 475.51,208.839 479.843,210.839 481.5,218.5C 481.423,220.299 480.923,221.966 480,223.5C 466.497,242.813 449.33,257.813 428.5,268.5C 422.97,267.494 419.637,264.16 418.5,258.5C 415.275,257.125 413.608,258.292 413.5,262C 414.406,266.147 414.573,270.314 414,274.5C 413.167,275.5 412.333,276.5 411.5,277.5C 396.745,283.689 381.411,287.689 365.5,289.5C 365.5,318.5 365.5,347.5 365.5,376.5C 387.54,372.769 403.373,380.769 413,400.5C 418.281,417.434 414.448,431.934 401.5,444C 395.505,448.33 388.839,450.997 381.5,452C 303.167,452.667 224.833,452.667 146.5,452C 109.123,445.956 87.9568,424.123 83,386.5C 82.3333,359.5 82.3333,332.5 83,305.5C 87.343,299.991 92.1763,294.991 97.5,290.5C 93.4668,289.1 89.4668,287.6 85.5,286C 84.1068,284.829 83.2735,283.329 83,281.5C 82.3333,265.833 82.3333,250.167 83,234.5C 85.695,228.902 89.8617,227.402 95.5,230C 96.7014,230.903 97.5348,232.069 98,233.5C 98.3333,246.833 98.6667,260.167 99,273.5C 105.07,275.56 111.236,277.394 117.5,279C 122.535,282.013 123.702,286.18 121,291.5C 113.667,298.167 106.333,304.833 99,311.5C 98.3333,336.167 98.3333,360.833 99,385.5C 103.297,414.963 120.13,431.963 149.5,436.5C 162.719,434.781 170.052,427.281 171.5,414C 168.672,399.177 159.672,391.51 144.5,391C 139.221,385.941 139.554,381.274 145.5,377C 213.499,376.5 281.499,376.333 349.5,376.5C 349.667,348.831 349.5,321.165 349,293.5C 338.167,304.333 327.333,315.167 316.5,326C 306,328.833 302.167,325 305,314.5C 317,302.5 329,290.5 341,278.5C 341.614,262.482 344.281,246.815 349,231.5C 349.833,218.487 349.666,205.487 348.5,192.5C 338.882,189.845 329.215,187.345 319.5,185C 315.28,182.013 314.114,178.18 316,173.5C 318.446,171.041 320.946,168.708 323.5,166.5C 319.573,163.285 315.74,159.951 312,156.5C 309.935,151.37 311.435,147.537 316.5,145C 327.478,143.569 338.478,142.402 349.5,141.5C 353.983,113.637 343.983,93.137 319.5,80C 316.226,78.7977 312.893,77.7977 309.5,77C 233.855,75.361 158.188,75.0276 82.5,76C 90.9702,84.4397 96.1368,94.6063 98,106.5C 98.6667,142.5 98.6667,178.5 98,214.5C 94.9138,219.752 90.7471,220.752 85.5,217.5C 84.4164,216.335 83.5831,215.002 83,213.5C 82.5,187.835 82.3334,162.169 82.5,136.5C 63.7865,136.934 45.1198,136.434 26.5,135C 13.6445,130.933 4.64454,122.766 -0.5,110.5 Z M 35.5,75.5 C 59.5685,73.9361 75.0685,84.6027 82,107.5C 82.499,111.821 82.6657,116.154 82.5,120.5C 66.1633,120.667 49.8299,120.5 33.5,120C 18.3547,116.209 12.1881,106.709 15,91.5C 18.8487,82.1317 25.6821,76.7984 35.5,75.5 Z M 480.5,138.5 C 471.5,148.167 462.167,157.5 452.5,166.5C 452.938,164.874 453.272,163.207 453.5,161.5C 452.332,156.83 450.665,152.33 448.5,148C 458.391,142.539 469.058,139.373 480.5,138.5 Z M 451.5,167.5 C 420.868,198.632 390.035,229.632 359,260.5C 365.625,218.228 386.625,185.228 422,161.5C 429.727,164.465 437.561,167.131 445.5,169.5C 447.516,168.822 449.516,168.156 451.5,167.5 Z M 395.5,246.5 C 396.813,252.959 397.479,259.626 397.5,266.5C 388.618,269.139 379.618,270.973 370.5,272C 379.036,263.632 387.369,255.132 395.5,246.5 Z M 180.5,393.5 C 247.999,392.335 315.665,392.168 383.5,393C 393.304,396.75 398.637,403.917 399.5,414.5C 398.288,426.211 391.955,433.378 380.5,436C 313.831,436.833 247.164,436.667 180.5,435.5C 189.731,421.388 189.731,407.388 180.5,393.5 Z"/></g>
<g><path style="opacity:0.93" fill="#fe7568" d="M 165.5,132.5 C 206.835,132.333 248.168,132.5 289.5,133C 295.33,139.006 294.663,144.006 287.5,148C 247.167,148.667 206.833,148.667 166.5,148C 159.335,143.093 159.002,137.926 165.5,132.5 Z"/></g>
<g><path style="opacity:0.989" fill="#fe7568" d="M 165.5,198.5 C 206.835,198.333 248.168,198.5 289.5,199C 294.833,203.667 294.833,208.333 289.5,213C 247.833,213.667 206.167,213.667 164.5,213C 159.459,207.846 159.792,203.013 165.5,198.5 Z"/></g>
<g><path style="opacity:0.93" fill="#fe7568" d="M 167.5,263.5 C 207.501,263.333 247.501,263.5 287.5,264C 294.663,267.994 295.33,272.994 289.5,279C 248.167,279.667 206.833,279.667 165.5,279C 161.277,276.005 160.111,272.171 162,267.5C 163.5,265.531 165.333,264.198 167.5,263.5 Z"/></g>
<g><path style="opacity:0.93" fill="#fe7568" d="M 166.5,329.5 C 207.168,329.333 247.835,329.5 288.5,330C 293.535,333.013 294.702,337.18 292,342.5C 291.097,343.701 289.931,344.535 288.5,345C 247.5,345.667 206.5,345.667 165.5,345C 158.861,339.425 159.195,334.259 166.5,329.5 Z"/></g>
</svg>
