<?xml version="1.0" encoding="UTF-8"?>
<!DOCTYPE svg PUBLIC "-//W3C//DTD SVG 1.1//EN" "http://www.w3.org/Graphics/SVG/1.1/DTD/svg11.dtd">
<svg xmlns="http://www.w3.org/2000/svg" version="1.1" width="512px" height="512px" style="shape-rendering:geometricPrecision; text-rendering:geometricPrecision; image-rendering:optimizeQuality; fill-rule:evenodd; clip-rule:evenodd" xmlns:xlink="http://www.w3.org/1999/xlink">
<g><path style="opacity:0.94" fill="#004762" d="M 305.5,-0.5 C 311.833,-0.5 318.167,-0.5 324.5,-0.5C 337.87,3.19701 347.87,11.197 354.5,23.5C 364.747,23.2392 374.413,25.4059 383.5,30C 391.529,36.3903 395.862,44.7237 396.5,55C 391.276,77.2329 385.276,99.2329 378.5,121C 390.629,128.76 394.796,139.593 391,153.5C 389.698,157.274 387.531,160.441 384.5,163C 433.094,201.686 458.761,252.186 461.5,314.5C 474.833,304.5 488.499,304 502.5,313C 506.428,317.376 509.428,322.21 511.5,327.5C 511.5,332.5 511.5,337.5 511.5,342.5C 508.923,349.585 504.59,355.419 498.5,360C 435.883,406.95 373.549,454.283 311.5,502C 305.622,506.273 299.288,509.439 292.5,511.5C 286.167,511.5 279.833,511.5 273.5,511.5C 214.435,491.868 155.102,472.702 95.5,454C 69.1584,453.01 42.8251,452.01 16.5,451C 7.91495,447.916 2.24829,442.083 -0.5,433.5C -0.5,405.833 -0.5,378.167 -0.5,350.5C 2.22189,341.943 7.88855,336.109 16.5,333C 40.4586,331.717 64.4586,331.05 88.5,331C 94.4989,329.501 100.166,327.168 105.5,324C 118.833,316.667 132.167,309.333 145.5,302C 153.573,299.061 161.906,297.561 170.5,297.5C 176.059,249.215 196.392,208.382 231.5,175C 236.021,170.978 240.688,167.144 245.5,163.5C 236.498,152.349 235.665,140.683 243,128.5C 245.9,125.6 248.733,122.767 251.5,120C 245.797,100.558 240.297,81.0581 235,61.5C 232.883,47.8352 237.383,37.0018 248.5,29C 257.068,25.2242 266.068,23.5575 275.5,24C 282.135,11.5151 292.135,3.34843 305.5,-0.5 Z M 308.5,17.5 C 325.099,15.6305 335.599,22.6305 340,38.5C 340.333,52.5 340.667,66.5 341,80.5C 347.122,87.2727 352.789,86.9394 358,79.5C 358.5,67.1712 358.667,54.8378 358.5,42.5C 368.94,40.8765 375.607,45.0432 378.5,55C 372.584,75.8282 366.584,96.6615 360.5,117.5C 330.174,118.5 299.841,118.833 269.5,118.5C 263.913,97.32 258.247,76.1533 252.5,55C 252.932,48.5693 256.265,44.5693 262.5,43C 265.817,42.5017 269.15,42.335 272.5,42.5C 272.333,55.1711 272.5,67.8377 273,80.5C 276.44,85.4579 280.94,86.6246 286.5,84C 288.317,82.2002 289.484,80.0336 290,77.5C 290.333,63.5 290.667,49.5 291,35.5C 294.353,26.9815 300.186,20.9815 308.5,17.5 Z M 261.5,136.5 C 297.168,136.333 332.835,136.5 368.5,137C 376.052,141.535 376.385,146.535 369.5,152C 333.5,152.667 297.5,152.667 261.5,152C 256.311,149.087 255.144,144.92 258,139.5C 259.145,138.364 260.312,137.364 261.5,136.5 Z M 267.5,170.5 C 299.502,170.333 331.502,170.5 363.5,171C 404.372,199.241 430.205,237.741 441,286.5C 443.476,300.693 442.81,314.693 439,328.5C 424.585,337.958 410.085,347.291 395.5,356.5C 390.592,337.612 378.258,327.945 358.5,327.5C 359.234,311.805 353.568,298.971 341.5,289C 336.559,285.697 331.226,283.197 325.5,281.5C 324.334,265.177 324.167,248.844 325,232.5C 335.709,238.242 341.042,247.242 341,259.5C 345.985,265.665 351.318,265.998 357,260.5C 359.378,241.422 352.211,226.922 335.5,217C 331.979,215.326 328.313,214.16 324.5,213.5C 323.086,205.293 318.419,202.46 310.5,205C 307.156,206.894 305.822,209.727 306.5,213.5C 284.511,218.826 273.178,232.826 272.5,255.5C 273.178,278.174 284.511,292.174 306.5,297.5C 306.666,304.841 306.5,312.174 306,319.5C 266.552,312.953 227.052,306.453 187.5,300C 195.539,245.045 222.206,201.878 267.5,170.5 Z M 304.5,232.5 C 305.831,239.803 306.498,247.47 306.5,255.5C 306.167,263.167 305.833,270.833 305.5,278.5C 289.928,269.273 286.428,256.606 295,240.5C 297.775,237.22 300.942,234.554 304.5,232.5 Z M 324.5,300.5 C 334.316,305.453 339.649,313.453 340.5,324.5C 335.207,323.554 329.874,322.887 324.5,322.5C 324.5,315.167 324.5,307.833 324.5,300.5 Z M 162.5,315.5 C 228.568,325.122 294.568,335.289 360.5,346C 376.259,348.682 380.259,356.848 372.5,370.5C 370.664,371.919 368.664,373.086 366.5,374C 308.5,374.333 250.5,374.667 192.5,375C 185.529,379.551 184.862,384.884 190.5,391C 205.407,392.302 220.407,392.968 235.5,393C 252.167,405.667 268.833,418.333 285.5,431C 295.9,437.193 305.9,436.526 315.5,429C 369.5,394.667 423.5,360.333 477.5,326C 490.977,323.102 495.644,328.269 491.5,341.5C 426.5,391 361.5,440.5 296.5,490C 290.21,493.281 283.543,494.281 276.5,493C 217.228,473.798 157.895,454.798 98.5,436C 73.5355,434.725 48.5355,434.058 23.5,434C 21.9194,433.293 20.4194,432.46 19,431.5C 17.8507,418.424 17.3507,405.258 17.5,392C 17.6667,379.5 17.8333,367 18,354.5C 19.1094,352.185 20.9427,350.685 23.5,350C 47.5414,349.95 71.5414,349.283 95.5,348C 102.179,346.161 108.512,343.494 114.5,340C 129.931,330.452 145.931,322.286 162.5,315.5 Z M 266.5,393.5 C 289.996,392.337 313.663,392.17 337.5,393C 324.667,401.167 311.833,409.333 299,417.5C 288.048,409.613 277.215,401.613 266.5,393.5 Z"/></g>
</svg>
