<?xml version="1.0" encoding="UTF-8"?>
<!DOCTYPE svg PUBLIC "-//W3C//DTD SVG 1.1//EN" "http://www.w3.org/Graphics/SVG/1.1/DTD/svg11.dtd">
<svg xmlns="http://www.w3.org/2000/svg" version="1.1" width="512px" height="512px" style="shape-rendering:geometricPrecision; text-rendering:geometricPrecision; image-rendering:optimizeQuality; fill-rule:evenodd; clip-rule:evenodd" xmlns:xlink="http://www.w3.org/1999/xlink">
<g><path style="opacity:0.93" fill="#004762" d="M 457.5,17.5 C 473.458,16.2202 483.624,23.2202 488,38.5C 488.594,60.157 478.094,70.3236 456.5,69C 441.05,64.1874 434.55,53.6874 437,37.5C 439.765,26.5669 446.599,19.9002 457.5,17.5 Z M 459.5,34.5 C 467.989,34.1538 471.822,38.1538 471,46.5C 468.647,51.4264 464.814,53.2598 459.5,52C 451.555,46.1697 451.555,40.3363 459.5,34.5 Z"/></g>
<g><path style="opacity:0.941" fill="#004762" d="M 113.5,26.5 C 130.619,24.7555 144.619,30.4222 155.5,43.5C 168.874,42.3777 180.374,46.3777 190,55.5C 196.736,64.1852 199.236,73.8519 197.5,84.5C 233.5,84.5 269.5,84.5 305.5,84.5C 312.725,41.1248 338.059,23.2915 381.5,31C 404.467,38.7194 418.301,54.5528 423,78.5C 431.265,83.2637 438.098,89.597 443.5,97.5C 471.311,98.8279 488.811,112.828 496,139.5C 497.757,152.216 495.59,164.216 489.5,175.5C 490.636,183.785 490.803,192.118 490,200.5C 486.833,214.333 478.333,222.833 464.5,226C 459.167,226.333 453.833,226.667 448.5,227C 456.667,237.833 464.833,248.667 473,259.5C 473.667,310.5 473.667,361.5 473,412.5C 471.635,414.86 469.635,416.527 467,417.5C 466.667,426.5 466.333,435.5 466,444.5C 462.611,459.556 453.445,469.056 438.5,473C 415.837,474.988 393.171,474.988 370.5,473C 355.82,468.32 346.654,458.487 343,443.5C 342.5,434.84 342.334,426.173 342.5,417.5C 281.833,417.5 221.167,417.5 160.5,417.5C 160.666,425.84 160.5,434.173 160,442.5C 156.784,458.049 147.617,468.215 132.5,473C 111.867,474.581 91.2,474.915 70.5,474C 53.0433,471.86 41.8766,462.36 37,445.5C 35.8905,436.204 35.2239,426.87 35,417.5C 32.6667,416.5 31,414.833 30,412.5C 29.3333,361.5 29.3333,310.5 30,259.5C 38.0451,248.577 46.2118,237.744 54.5,227C 26.4419,228.843 12.1086,215.843 11.5,188C 10.0172,173.844 16.0172,164.844 29.5,161C 10.668,137.525 9.16799,113.025 25,87.5C 38.3317,71.2523 55.4984,63.9189 76.5,65.5C 80.34,44.3291 92.6734,31.3291 113.5,26.5 Z M 114.5,43.5 C 122.022,42.6514 129.022,44.1514 135.5,48C 140.58,52.4094 144.914,57.4094 148.5,63C 153.918,63.4731 159.252,62.9731 164.5,61.5C 179.167,64.1693 184,72.5026 179,86.5C 169.825,97.6491 159.991,98.1491 149.5,88C 146.833,87.3333 144.167,87.3333 141.5,88C 138.573,90.3824 135.739,92.8824 133,95.5C 130.963,99.3344 131.296,103.001 134,106.5C 147.562,116.638 150.562,129.305 143,144.5C 135.657,154.397 125.824,158.231 113.5,156C 109.045,154.021 104.545,152.188 100,150.5C 94.118,153.191 88.2847,156.024 82.5,159C 52.8886,163.865 35.5552,151.531 30.5,122C 32.1333,101.063 43.1333,88.0632 63.5,83C 70.7585,82.197 77.9252,82.697 85,84.5C 88.804,84.6004 91.4707,82.9338 93,79.5C 91.2741,61.9209 98.4408,49.9209 114.5,43.5 Z M 358.5,45.5 C 378.386,44.0209 392.886,52.0209 402,69.5C 404.643,76.739 406.976,84.0724 409,91.5C 414.048,93.9414 418.881,96.7748 423.5,100C 427.57,104.138 430.903,108.805 433.5,114C 449.198,112.12 462.365,116.953 473,128.5C 479.802,138.716 481.302,149.716 477.5,161.5C 460.497,161.667 443.497,161.5 426.5,161C 421.752,142.173 416.918,123.34 412,104.5C 406.268,93.2126 397.102,86.7126 384.5,85C 363.833,84.6667 343.167,84.3333 322.5,84C 325.824,62.7296 337.824,49.8963 358.5,45.5 Z M 188.5,101.5 C 254.545,101.014 320.545,101.514 386.5,103C 391.333,105.167 394.833,108.667 397,113.5C 404.949,145.417 412.449,177.417 419.5,209.5C 307.166,209.667 194.833,209.5 82.5,209C 85.5605,197.591 88.3938,186.091 91,174.5C 94.0877,172.706 97.2544,171.039 100.5,169.5C 122.121,178.47 140.621,174.136 156,156.5C 165.403,142.441 166.903,127.608 160.5,112C 171.421,112.748 180.754,109.248 188.5,101.5 Z M 32.5,177.5 C 45.8333,177.5 59.1667,177.5 72.5,177.5C 70.1663,188.168 67.8329,198.835 65.5,209.5C 55.7529,209.92 46.0862,209.42 36.5,208C 31.7497,204.333 29.2497,199.499 29,193.5C 28.3333,189.167 28.3333,184.833 29,180.5C 30.1451,179.364 31.3117,178.364 32.5,177.5 Z M 430.5,177.5 C 443.837,177.333 457.171,177.5 470.5,178C 471.416,178.374 472.25,178.874 473,179.5C 473.667,185.167 473.667,190.833 473,196.5C 471.874,202.268 468.707,206.435 463.5,209C 454.84,209.5 446.173,209.666 437.5,209.5C 435.166,198.832 432.833,188.165 430.5,177.5 Z M 75.5,226.5 C 192.5,226.333 309.5,226.5 426.5,227C 434.025,236.357 441.358,245.857 448.5,255.5C 432.562,257.994 416.562,260.16 400.5,262C 395.123,263.602 390.956,266.769 388,271.5C 378.71,289.119 369.877,306.952 361.5,325C 361.981,328.814 363.981,331.48 367.5,333C 397.165,333.5 426.831,333.667 456.5,333.5C 456.5,341.167 456.5,348.833 456.5,356.5C 415.499,356.667 374.499,356.5 333.5,356C 328.141,340.924 322.975,325.758 318,310.5C 317.535,309.069 316.701,307.903 315.5,307C 294.253,305.844 272.92,305.344 251.5,305.5C 230.08,305.344 208.747,305.844 187.5,307C 186.299,307.903 185.465,309.069 185,310.5C 180.025,325.758 174.859,340.924 169.5,356C 128.501,356.5 87.5014,356.667 46.5,356.5C 46.5,348.833 46.5,341.167 46.5,333.5C 75.8352,333.667 105.169,333.5 134.5,333C 137.232,332.602 139.065,331.102 140,328.5C 140.667,325.833 140.667,323.167 140,320.5C 130.882,302.429 121.382,284.595 111.5,267C 108.952,264.558 105.952,262.892 102.5,262C 86.4377,260.16 70.4377,257.994 54.5,255.5C 61.9367,246.076 68.9367,236.41 75.5,226.5 Z M 46.5,272.5 C 63.8892,274.265 81.2225,276.432 98.5,279C 105.167,291.333 111.833,303.667 118.5,316C 94.5023,316.5 70.5023,316.667 46.5,316.5C 46.5,301.833 46.5,287.167 46.5,272.5 Z M 452.5,272.5 C 453.833,272.5 455.167,272.5 456.5,272.5C 456.5,287.167 456.5,301.833 456.5,316.5C 432.498,316.667 408.498,316.5 384.5,316C 391.167,303.667 397.833,291.333 404.5,279C 420.629,276.859 436.629,274.692 452.5,272.5 Z M 198.5,322.5 C 233.502,322.333 268.502,322.5 303.5,323C 307.303,334.077 311.303,345.077 315.5,356C 272.833,356.667 230.167,356.667 187.5,356C 191.667,344.998 195.334,333.831 198.5,322.5 Z M 46.5,373.5 C 63.5,373.5 80.5,373.5 97.5,373.5C 97.5,382.5 97.5,391.5 97.5,400.5C 80.5,400.5 63.5,400.5 46.5,400.5C 46.5,391.5 46.5,382.5 46.5,373.5 Z M 114.5,373.5 C 205.833,373.5 297.167,373.5 388.5,373.5C 388.5,382.5 388.5,391.5 388.5,400.5C 297.167,400.5 205.833,400.5 114.5,400.5C 114.5,391.5 114.5,382.5 114.5,373.5 Z M 405.5,373.5 C 422.5,373.5 439.5,373.5 456.5,373.5C 456.5,382.5 456.5,391.5 456.5,400.5C 439.5,400.5 422.5,400.5 405.5,400.5C 405.5,391.5 405.5,382.5 405.5,373.5 Z M 52.5,417.5 C 82.8333,417.5 113.167,417.5 143.5,417.5C 143.666,425.174 143.5,432.841 143,440.5C 140.719,449.781 134.886,455.281 125.5,457C 107.5,457.667 89.5,457.667 71.5,457C 62.9458,455.445 57.1125,450.612 54,442.5C 52.6696,434.227 52.1696,425.893 52.5,417.5 Z M 359.5,417.5 C 389.5,417.5 419.5,417.5 449.5,417.5C 449.666,425.84 449.5,434.173 449,442.5C 445.863,450.641 440.03,455.474 431.5,457C 413.5,457.667 395.5,457.667 377.5,457C 368.079,455.244 362.246,449.744 360,440.5C 359.5,432.841 359.334,425.174 359.5,417.5 Z"/></g>
</svg>
