<?xml version="1.0" encoding="UTF-8"?>
<!DOCTYPE svg PUBLIC "-//W3C//DTD SVG 1.1//EN" "http://www.w3.org/Graphics/SVG/1.1/DTD/svg11.dtd">
<svg xmlns="http://www.w3.org/2000/svg" version="1.1" width="92px" height="100px" style="shape-rendering:geometricPrecision; text-rendering:geometricPrecision; image-rendering:optimizeQuality; fill-rule:evenodd; clip-rule:evenodd" xmlns:xlink="http://www.w3.org/1999/xlink">
<g><path style="opacity:0.713" fill="#fe7568" d="M 34.5,-0.5 C 39.5,-0.5 44.5,-0.5 49.5,-0.5C 59.2466,2.75018 65.4132,9.41684 68,19.5C 68.4997,27.1594 68.6664,34.8261 68.5,42.5C 70.4672,42.2606 72.3005,42.5939 74,43.5C 74.3333,49.1667 74.6667,54.8333 75,60.5C 79.2153,63.8877 84.0487,65.221 89.5,64.5C 91.0776,75.068 88.9109,84.7347 83,93.5C 80.5216,95.6394 78.0216,97.6394 75.5,99.5C 73.5,99.5 71.5,99.5 69.5,99.5C 49.961,98.8219 30.2943,98.1553 10.5,97.5C 9.50044,79.1788 9.16711,60.8454 9.5,42.5C 11.8333,42.5 14.1667,42.5 16.5,42.5C 16.0863,33.4178 16.5863,24.4178 18,15.5C 21.4126,7.91933 26.9126,2.586 34.5,-0.5 Z M 39.5,2.5 C 52.3098,2.31022 60.4765,8.31022 64,20.5C 64.4997,27.8258 64.6663,35.1591 64.5,42.5C 63.1667,42.5 61.8333,42.5 60.5,42.5C 60.6663,35.825 60.4996,29.1583 60,22.5C 56.1345,10.1059 47.9678,5.60591 35.5,9C 30.2694,11.2315 26.7694,15.0648 25,20.5C 24.5003,27.8258 24.3337,35.1591 24.5,42.5C 23.1667,42.5 21.8333,42.5 20.5,42.5C 20.3336,34.4931 20.5003,26.4931 21,18.5C 24.1102,9.54216 30.2769,4.20882 39.5,2.5 Z M 39.5,11.5 C 47.9763,10.8148 53.4763,14.4815 56,22.5C 56.4996,29.1583 56.6663,35.825 56.5,42.5C 47.1667,42.5 37.8333,42.5 28.5,42.5C 28.3337,35.4921 28.5004,28.4921 29,21.5C 31.1059,16.5573 34.6059,13.224 39.5,11.5 Z M 13.5,46.5 C 32.5,46.5 51.5,46.5 70.5,46.5C 70.6658,51.1785 70.4992,55.8452 70,60.5C 65.7167,63.6139 60.8834,64.9472 55.5,64.5C 54.2182,75.2712 56.5516,85.1046 62.5,94C 46.1701,94.4999 29.8367,94.6666 13.5,94.5C 13.5,78.5 13.5,62.5 13.5,46.5 Z M 40.5,60.5 C 47.0769,61.8301 48.0769,64.9968 43.5,70C 44.4505,73.0567 44.7839,76.2234 44.5,79.5C 42.5542,79.8072 40.8875,79.8072 39.5,79.5C 41.264,74.1241 40.5973,69.1241 37.5,64.5C 38.1716,62.8405 39.1716,61.5072 40.5,60.5 Z M 71.5,63.5 C 75.7329,66.2786 80.3995,67.9453 85.5,68.5C 85.6153,75.8716 84.1153,82.8716 81,89.5C 73.0221,98.75 66.6888,97.4167 62,85.5C 59.9843,80.0117 59.151,74.345 59.5,68.5C 64.2321,68.3732 68.2321,66.7065 71.5,63.5 Z"/></g>
<g><path style="opacity:0.685" fill="#fe7568" d="M 39.5,56.5 C 45.6358,56.1356 49.3025,58.9689 50.5,65C 48.3006,70.1988 47.9672,75.5322 49.5,81C 49.0696,82.4341 48.2362,83.6008 47,84.5C 44,83.1667 41,83.1667 38,84.5C 37.3333,83.8333 36.6667,83.1667 36,82.5C 37.4084,76.3589 36.5751,70.5255 33.5,65C 34.1868,61.1604 36.1868,58.3271 39.5,56.5 Z M 40.5,60.5 C 39.1716,61.5072 38.1716,62.8405 37.5,64.5C 40.5973,69.1241 41.264,74.1241 39.5,79.5C 40.8875,79.8072 42.5542,79.8072 44.5,79.5C 44.7839,76.2234 44.4505,73.0567 43.5,70C 48.0769,64.9968 47.0769,61.8301 40.5,60.5 Z"/></g>
<g><path style="opacity:0.719" fill="#fe7568" d="M 79.5,71.5 C 80.5,71.5 81.5,71.5 82.5,71.5C 78.668,78.0109 73.668,83.6776 67.5,88.5C 66.5,86.8333 65.1667,85.5 63.5,84.5C 62.5713,83.3112 62.238,81.9778 62.5,80.5C 64.9032,80.393 66.7365,81.393 68,83.5C 71.3635,78.9715 75.1969,74.9715 79.5,71.5 Z"/></g>
</svg>
