<?xml version="1.0" encoding="UTF-8"?>
<!DOCTYPE svg PUBLIC "-//W3C//DTD SVG 1.1//EN" "http://www.w3.org/Graphics/SVG/1.1/DTD/svg11.dtd">
<svg xmlns="http://www.w3.org/2000/svg" version="1.1" width="512px" height="512px" style="shape-rendering:geometricPrecision; text-rendering:geometricPrecision; image-rendering:optimizeQuality; fill-rule:evenodd; clip-rule:evenodd" xmlns:xlink="http://www.w3.org/1999/xlink">
<g><path style="opacity:0.926" fill="#fb7468" d="M 511.5,218.5 C 511.5,228.167 511.5,237.833 511.5,247.5C 503.551,290.96 478.551,319.793 436.5,334C 429.604,335.872 422.604,337.205 415.5,338C 413.484,350.368 407.817,360.701 398.5,369C 381.655,378.403 366.155,376.57 352,363.5C 345.3,355.341 342.633,346.008 344,335.5C 351.057,293.381 375.89,270.547 418.5,267C 439.096,257.304 446.263,241.471 440,219.5C 432.241,203.436 419.407,196.269 401.5,198C 392.368,199.815 384.868,204.315 379,211.5C 366.859,248.141 342.692,273.141 306.5,286.5C 305.832,294.86 304.999,303.193 304,311.5C 296.2,331.938 281.367,340.772 259.5,338C 242.803,333.968 232.969,323.468 230,306.5C 225.099,260.104 244.266,228.604 287.5,212C 308.116,197.476 313.283,178.643 303,155.5C 290.56,137.352 273.726,131.519 252.5,138C 234.272,146.602 225.438,161.102 226,181.5C 223.642,194.555 216.642,204.222 205,210.5C 205.983,216.764 206.983,223.097 208,229.5C 209.802,245.886 208.135,261.886 203,277.5C 199.987,282.535 195.82,283.702 190.5,281C 188.556,279.278 187.556,277.111 187.5,274.5C 193.494,255.304 193.994,235.97 189,216.5C 188.5,215.333 187.667,214.5 186.5,214C 168.783,212.566 157.283,203.399 152,186.5C 151.057,179.853 150.223,173.186 149.5,166.5C 114.449,147.537 80.7824,149.703 48.5,173C 14.6348,203.956 6.80142,240.456 25,282.5C 36.3969,292.434 46.7303,291.434 56,279.5C 56.989,276.544 57.8223,273.544 58.5,270.5C 56.3651,264.261 54.5317,257.928 53,251.5C 51.0851,215.411 68.0851,195.078 104,190.5C 139.436,194.929 156.436,214.929 155,250.5C 152.894,263.938 146.561,274.938 136,283.5C 118.341,307.777 118.007,332.444 135,357.5C 145.58,364.98 155.247,363.98 164,354.5C 166.343,349.398 167.01,344.064 166,338.5C 164,333.833 162,329.167 160,324.5C 159.233,320.406 159.566,316.406 161,312.5C 165.167,307.667 169.333,302.833 173.5,298C 181.985,295.485 186.152,298.652 186,307.5C 183.095,312.129 179.595,316.296 175.5,320C 184.182,334.588 184.682,349.421 177,364.5C 167.622,376.435 155.455,380.935 140.5,378C 129.045,375.032 120.879,368.199 116,357.5C 98.8205,321.901 104.487,290.568 133,263.5C 143.584,244.981 141.084,228.481 125.5,214C 107.29,202.951 90.7896,205.118 76,220.5C 71.2047,227.052 68.7047,234.386 68.5,242.5C 70.3817,251.991 72.3817,261.491 74.5,271C 71.5534,294.617 58.2201,305.95 34.5,305C 22.3136,302.996 13.4803,296.496 8,285.5C 4.21514,276.323 1.38181,266.99 -0.5,257.5C -0.5,247.833 -0.5,238.167 -0.5,228.5C 7.35558,185.465 32.0222,156.631 73.5,142C 100.807,134.372 127.141,136.872 152.5,149.5C 170.343,93.3238 208.677,63.3238 267.5,59.5C 318.254,61.6196 354.254,85.6196 375.5,131.5C 376.167,131.833 376.833,132.167 377.5,132.5C 409.767,123.702 439.6,128.702 467,147.5C 469.167,157.333 465.333,161.167 455.5,159C 432.617,144.302 408.117,140.802 382,148.5C 383.047,157.596 383.88,166.763 384.5,176C 384.459,179.221 384.125,182.388 383.5,185.5C 384,185.833 384.5,186.167 385,186.5C 410.248,176.645 431.582,181.979 449,202.5C 461.249,222.307 461.582,242.307 450,262.5C 442.737,272.428 433.237,279.261 421.5,283C 386.687,285.139 366.187,303.305 360,337.5C 359.34,350.141 365.34,357.474 378,359.5C 385.641,358.848 391.307,355.182 395,348.5C 396.847,342.108 398.847,335.775 401,329.5C 402.833,327.667 404.667,325.833 406.5,324C 439.163,321.097 464.663,306.264 483,279.5C 497.739,252.638 499.405,224.972 488,196.5C 484.919,190.669 481.585,185.002 478,179.5C 476.378,170.21 480.211,166.71 489.5,169C 501.004,183.691 508.337,200.191 511.5,218.5 Z M 256.5,75.5 C 305.302,73.6393 340.135,94.6393 361,138.5C 376.62,186.293 365.12,226.126 326.5,258C 316.161,264.753 305.328,270.586 294,275.5C 292.139,277.888 290.806,280.554 290,283.5C 289.667,290.5 289.333,297.5 289,304.5C 284.984,318.266 275.817,324.099 261.5,322C 248.92,316.518 243.586,306.852 245.5,293C 244.99,271.695 252.657,254.029 268.5,240C 280.007,233.412 291.674,227.079 303.5,221C 327.263,197.581 330.763,171.414 314,142.5C 292.076,117.516 266.242,112.683 236.5,128C 217.932,141.637 208.765,160.137 209,183.5C 201.344,198.165 190.177,201.665 175.5,194C 169.509,188.685 166.509,182.018 166.5,174C 172.354,118.983 202.354,86.1501 256.5,75.5 Z"/></g>
<g><path style="opacity:0.924" fill="#fb7468" d="M 262.5,351.5 C 285.609,351.124 299.776,362.124 305,384.5C 306.491,406.655 296.658,420.822 275.5,427C 244.697,428.864 229.53,414.364 230,383.5C 234.13,365.869 244.964,355.202 262.5,351.5 Z M 264.5,367.5 C 281.122,368.287 289.289,376.954 289,393.5C 283.044,410.226 271.877,415.059 255.5,408C 242.638,396.406 242.304,384.406 254.5,372C 257.815,370.17 261.149,368.67 264.5,367.5 Z"/></g>
<g><path style="opacity:0.928" fill="#fb7468" d="M 172.5,382.5 C 201.104,381.271 214.937,394.938 214,423.5C 208.392,444.086 194.892,453.252 173.5,451C 152.496,445.189 143.329,431.355 146,409.5C 149.682,395.319 158.515,386.319 172.5,382.5 Z M 174.5,398.5 C 191.136,397.304 198.97,404.97 198,421.5C 192.756,434.475 183.589,438.308 170.5,433C 160.846,425.513 159.013,416.347 165,405.5C 167.79,402.535 170.957,400.202 174.5,398.5 Z"/></g>
<g><path style="opacity:0.926" fill="#fb7468" d="M 349.5,382.5 C 378.158,380.662 392.325,393.996 392,422.5C 384.913,446.797 369.08,455.63 344.5,449C 327.842,441.076 321.009,427.909 324,409.5C 327.577,395.759 336.077,386.759 349.5,382.5 Z M 352.5,398.5 C 368.647,397.151 376.48,404.484 376,420.5C 371.194,434.312 362.028,438.479 348.5,433C 338.751,425.527 336.918,416.36 343,405.5C 345.79,402.535 348.957,400.202 352.5,398.5 Z"/></g>
</svg>
