<?xml version="1.0" encoding="UTF-8"?>
<!DOCTYPE svg PUBLIC "-//W3C//DTD SVG 1.1//EN" "http://www.w3.org/Graphics/SVG/1.1/DTD/svg11.dtd">
<svg xmlns="http://www.w3.org/2000/svg" version="1.1" width="350px" height="330px" style="shape-rendering:geometricPrecision; text-rendering:geometricPrecision; image-rendering:optimizeQuality; fill-rule:evenodd; clip-rule:evenodd" xmlns:xlink="http://www.w3.org/1999/xlink">
<g><path style="opacity:0.822" fill="#004563" d="M 316.5,-0.5 C 321.833,-0.5 327.167,-0.5 332.5,-0.5C 344.561,6.85386 347.395,16.8539 341,29.5C 332.216,39.9107 322.383,41.0774 311.5,33C 302.221,20.1563 303.888,8.9896 316.5,-0.5 Z M 322.5,12.5 C 330.365,12.8381 332.365,16.3381 328.5,23C 319.051,23.8661 317.051,20.3661 322.5,12.5 Z"/></g>
<g><path style="opacity:0.832" fill="#004563" d="M 349.5,81.5 C 349.5,89.8333 349.5,98.1667 349.5,106.5C 347.81,108.504 346.476,110.837 345.5,113.5C 348.965,125.964 346.299,136.797 337.5,146C 331.279,150.604 324.279,152.604 316.5,152C 322.363,158.896 327.863,166.063 333,173.5C 333.667,210.833 333.667,248.167 333,285.5C 332,286.5 331,287.5 330,288.5C 332.521,306.782 326.021,320.448 310.5,329.5C 292.167,329.5 273.833,329.5 255.5,329.5C 240.409,320.628 234.409,307.295 237.5,289.5C 194.5,289.5 151.5,289.5 108.5,289.5C 110.934,307.279 104.601,320.612 89.5,329.5C 71.1667,329.5 52.8333,329.5 34.5,329.5C 26.0433,325.205 20.21,318.538 17,309.5C 16.8311,302.476 16.3311,295.476 15.5,288.5C 13.8035,287.636 12.6368,286.303 12,284.5C 11.3333,247.833 11.3333,211.167 12,174.5C 17.5,167 23,159.5 28.5,152C 15.5462,152.529 5.87957,147.362 -0.5,136.5C -0.5,127.833 -0.5,119.167 -0.5,110.5C 2.6765,107.172 6.34317,104.339 10.5,102C 5.31651,95.135 1.64984,87.635 -0.5,79.5C -0.5,76.1667 -0.5,72.8333 -0.5,69.5C 3.62481,51.8704 14.2915,40.037 31.5,34C 36.2522,33.1494 40.9189,32.8161 45.5,33C 51.4264,11.4025 65.4264,2.4025 87.5,6C 93.812,8.47964 99.1453,12.313 103.5,17.5C 124.304,16.6372 134.638,26.6372 134.5,47.5C 160.167,47.5 185.833,47.5 211.5,47.5C 213.864,22.374 227.698,8.70731 253,6.5C 277.486,7.81669 292.319,20.4834 297.5,44.5C 303.421,46.6503 308.088,50.4837 311.5,56C 328.874,57.5494 341.541,66.0494 349.5,81.5 Z M 72.5,19.5 C 78.6751,18.6432 84.3418,19.8099 89.5,23C 92.285,26.6042 95.285,29.9375 98.5,33C 102.34,33.4057 106.173,33.239 110,32.5C 114.259,32.296 117.592,33.9626 120,37.5C 122.52,51.3147 117.02,56.4814 103.5,53C 101.398,50.8646 98.8983,49.3646 96,48.5C 92.7385,50.0926 89.7385,52.0926 87,54.5C 85.5783,57.0301 85.245,59.6967 86,62.5C 98.868,72.9072 99.7013,84.0739 88.5,96C 85.1276,97.6057 81.6276,98.7724 78,99.5C 72.8203,98.4121 67.8203,96.7454 63,94.5C 59.2804,95.8795 55.7804,97.7128 52.5,100C 39.3356,104.082 28.1689,100.916 19,90.5C 11.1373,75.5787 13.6373,62.7454 26.5,52C 34.7871,47.1191 43.4538,46.2858 52.5,49.5C 55.2138,49.0596 57.3805,47.7262 59,45.5C 57.0279,33.2189 61.5279,24.5522 72.5,19.5 Z M 245.5,21.5 C 268.707,18.8611 281.874,29.1944 285,52.5C 287.388,55.6337 290.554,57.467 294.5,58C 298.23,61.4634 301.23,65.4634 303.5,70C 309.169,70.7584 314.835,71.425 320.5,72C 333.76,77.8148 338.594,87.6481 335,101.5C 323.243,102.654 311.409,102.821 299.5,102C 296.466,89.1704 293.299,76.3371 290,63.5C 286.755,55.9561 281.255,50.7894 273.5,48C 257.503,47.5001 241.503,47.3334 225.5,47.5C 226.591,34.4233 233.258,25.7566 245.5,21.5 Z M 126.5,61.5 C 174.501,61.3333 222.501,61.5 270.5,62C 273.333,63.5 275.5,65.6667 277,68.5C 282.238,91.4511 287.738,114.284 293.5,137C 213.167,137.5 132.834,137.667 52.5,137.5C 53.7009,129.363 55.5342,121.363 58,113.5C 59.8196,112.511 61.6529,111.511 63.5,110.5C 77.9311,116.234 90.7645,113.901 102,103.5C 110.534,93.226 112.701,81.726 108.5,69C 115.773,69.201 121.773,66.701 126.5,61.5 Z M 13.5,116.5 C 23.1896,116.168 32.8563,116.502 42.5,117.5C 40.5756,124.128 38.909,130.795 37.5,137.5C 18.5702,142.217 10.5702,135.217 13.5,116.5 Z M 302.5,116.5 C 312.167,116.5 321.833,116.5 331.5,116.5C 334.282,135.372 326.282,142.372 307.5,137.5C 306.211,130.386 304.545,123.386 302.5,116.5 Z M 46.5,151.5 C 130.836,151.167 215.169,151.5 299.5,152.5C 304.288,158.577 308.955,164.744 313.5,171C 302.18,172.453 290.846,173.787 279.5,175C 274.667,177.167 271.167,180.667 269,185.5C 263.589,196.657 257.922,207.657 252,218.5C 250.707,222.582 251.874,225.749 255.5,228C 276.831,228.5 298.164,228.667 319.5,228.5C 319.5,233.5 319.5,238.5 319.5,243.5C 290.498,243.667 261.498,243.5 232.5,243C 228.16,231.287 223.827,219.62 219.5,208C 203.922,206.848 188.256,206.348 172.5,206.5C 157.5,206.667 142.5,206.833 127.5,207C 124.575,209.077 122.742,211.91 122,215.5C 118.851,224.767 116.018,234.1 113.5,243.5C 84.1667,243.5 54.8333,243.5 25.5,243.5C 25.5,238.5 25.5,233.5 25.5,228.5C 46.8359,228.667 68.1693,228.5 89.5,228C 92.1279,226.431 93.7946,224.098 94.5,221C 88.2899,209.712 82.4566,198.212 77,186.5C 74.5,181.333 70.6667,177.5 65.5,175C 54.1535,173.787 42.8202,172.453 31.5,171C 36.6299,164.56 41.6299,158.06 46.5,151.5 Z M 25.5,184.5 C 37.4625,186.197 49.4625,187.697 61.5,189C 66.1667,197.333 70.8333,205.667 75.5,214C 58.8367,214.5 42.17,214.667 25.5,214.5C 25.5,204.5 25.5,194.5 25.5,184.5 Z M 316.5,184.5 C 317.5,184.5 318.5,184.5 319.5,184.5C 319.5,194.5 319.5,204.5 319.5,214.5C 303.153,214.833 286.82,214.499 270.5,213.5C 274.932,205.36 279.265,197.194 283.5,189C 294.709,187.99 305.709,186.49 316.5,184.5 Z M 135.5,220.5 C 160.5,220.5 185.5,220.5 210.5,220.5C 211.839,228.163 214.172,235.497 217.5,242.5C 187.506,243.667 157.506,243.833 127.5,243C 130.269,235.526 132.936,228.026 135.5,220.5 Z M 25.5,257.5 C 37.1667,257.5 48.8333,257.5 60.5,257.5C 60.5,263.5 60.5,269.5 60.5,275.5C 48.8333,275.5 37.1667,275.5 25.5,275.5C 25.5,269.5 25.5,263.5 25.5,257.5 Z M 74.5,257.5 C 139.833,257.5 205.167,257.5 270.5,257.5C 270.5,263.5 270.5,269.5 270.5,275.5C 205.167,275.5 139.833,275.5 74.5,275.5C 74.5,269.5 74.5,263.5 74.5,257.5 Z M 284.5,257.5 C 296.167,257.5 307.833,257.5 319.5,257.5C 319.5,263.5 319.5,269.5 319.5,275.5C 307.833,275.5 296.167,275.5 284.5,275.5C 284.5,269.5 284.5,263.5 284.5,257.5 Z M 30.5,289.5 C 51.5,289.5 72.5,289.5 93.5,289.5C 93.6661,295.176 93.4994,300.843 93,306.5C 90.9927,311.838 87.1594,315.004 81.5,316C 68.5,316.667 55.5,316.667 42.5,316C 36.412,314.91 32.5787,311.41 31,305.5C 30.5006,300.177 30.334,294.844 30.5,289.5 Z M 251.5,289.5 C 272.833,289.5 294.167,289.5 315.5,289.5C 317.296,312.682 306.629,321.682 283.5,316.5C 276.833,316.333 270.167,316.167 263.5,316C 256.964,314.797 253.13,310.964 252,304.5C 251.501,299.511 251.334,294.511 251.5,289.5 Z"/></g>
</svg>
