<?xml version="1.0" encoding="UTF-8"?>
<!DOCTYPE svg PUBLIC "-//W3C//DTD SVG 1.1//EN" "http://www.w3.org/Graphics/SVG/1.1/DTD/svg11.dtd">
<svg xmlns="http://www.w3.org/2000/svg" version="1.1" width="412px" height="512px" style="shape-rendering:geometricPrecision; text-rendering:geometricPrecision; image-rendering:optimizeQuality; fill-rule:evenodd; clip-rule:evenodd" xmlns:xlink="http://www.w3.org/1999/xlink">
<g><path style="opacity:0.924" fill="#fb7468" d="M 59.5,14.5 C 133.501,14.3333 207.501,14.5 281.5,15C 321.333,54.8333 361.167,94.6667 401,134.5C 402.662,246.753 402.996,359.086 402,471.5C 399.364,484.136 391.864,492.302 379.5,496C 273.167,496.667 166.833,496.667 60.5,496C 50.2057,493.441 43.0391,487.274 39,477.5C 37.5489,462.572 37.0489,447.572 37.5,432.5C 25.2243,434.369 16.0577,430.036 10,419.5C 8.85538,403.564 8.35538,387.564 8.5,371.5C 8.36292,355.116 8.86292,338.783 10,322.5C 16.1741,312.166 25.3408,307.832 37.5,309.5C 37.3333,218.499 37.5,127.499 38,36.5C 41.3501,25.3177 48.5167,17.9844 59.5,14.5 Z M 63.5,26.5 C 132.833,26.5 202.167,26.5 271.5,26.5C 271.333,57.8351 271.5,89.1684 272,120.5C 275.948,135.114 285.448,143.281 300.5,145C 330.498,145.5 360.498,145.667 390.5,145.5C 390.667,253.167 390.5,360.834 390,468.5C 388.345,476.155 383.845,481.321 376.5,484C 272.167,484.667 167.833,484.667 63.5,484C 56.3333,482.167 51.8333,477.667 50,470.5C 49.5001,457.838 49.3334,445.171 49.5,432.5C 106.213,432.984 162.879,432.484 219.5,431C 227,428.833 231.833,424 234,416.5C 235.135,401.385 235.635,386.218 235.5,371C 235.635,355.782 235.135,340.615 234,325.5C 231.192,318.692 226.359,313.859 219.5,311C 162.871,309.52 106.204,309.02 49.5,309.5C 49.3333,219.833 49.5,130.166 50,40.5C 52.0166,33.3185 56.5166,28.6518 63.5,26.5 Z M 283.5,35.5 C 315.965,67.4652 348.299,99.6318 380.5,132C 352.833,132.667 325.167,132.667 297.5,132C 290.175,129.883 285.675,125.049 284,117.5C 283.5,90.1687 283.333,62.8354 283.5,35.5 Z M 26.5,322.5 C 89.5009,322.333 152.501,322.5 215.5,323C 220.078,324.981 222.578,328.481 223,333.5C 223.955,360.208 223.622,386.874 222,413.5C 219.784,417.027 216.617,419.194 212.5,420C 150.122,420.985 87.7888,420.652 25.5,419C 23.1898,417.363 21.6898,415.196 21,412.5C 20.3333,384.833 20.3333,357.167 21,329.5C 21.9383,326.402 23.7716,324.069 26.5,322.5 Z M 118.5,356.5 C 122.846,356.334 127.179,356.501 131.5,357C 133.91,357.758 134.91,359.425 134.5,362C 134.91,364.575 133.91,366.242 131.5,367C 127.179,367.499 122.846,367.666 118.5,367.5C 118.5,363.833 118.5,360.167 118.5,356.5 Z"/></g>
<g><path style="opacity:0.934" fill="#fb7468" d="M 121.5,168.5 C 154.835,168.333 188.168,168.5 221.5,169C 224.442,169.94 225.775,171.94 225.5,175C 225.646,177.034 224.98,178.701 223.5,180C 188.833,180.667 154.167,180.667 119.5,180C 116.414,175.421 117.081,171.588 121.5,168.5 Z"/></g>
<g><path style="opacity:0.933" fill="#fb7468" d="M 120.5,212.5 C 186.501,212.333 252.501,212.5 318.5,213C 323.371,216.178 323.704,219.845 319.5,224C 252.833,224.667 186.167,224.667 119.5,224C 116.616,219.826 116.949,215.993 120.5,212.5 Z"/></g>
<g><path style="opacity:0.938" fill="#fb7468" d="M 120.5,256.5 C 186.501,256.333 252.501,256.5 318.5,257C 323.371,260.178 323.704,263.845 319.5,268C 253.167,268.667 186.833,268.667 120.5,268C 116.542,264.215 116.542,260.382 120.5,256.5 Z"/></g>
<g><path style="opacity:0.876" fill="#fb7468" d="M 79.5,346.5 C 86.0088,346.127 92.0088,347.627 97.5,351C 101.023,354.398 102.689,358.564 102.5,363.5C 99.4816,363.665 96.4816,363.498 93.5,363C 89.754,355.31 84.0873,353.643 76.5,358C 73.6378,363.832 72.8045,369.998 74,376.5C 77.7966,384.367 83.4632,386.034 91,381.5C 92.5604,376.216 96.0604,374.382 101.5,376C 102.598,382.796 99.9317,387.796 93.5,391C 86.0311,393.228 78.6978,392.895 71.5,390C 68.1929,387.222 66.0262,383.722 65,379.5C 64.3333,372.833 64.3333,366.167 65,359.5C 67.524,352.471 72.3573,348.137 79.5,346.5 Z"/></g>
<g><path style="opacity:0.862" fill="#fb7468" d="M 109.5,347.5 C 117.507,347.334 125.507,347.5 133.5,348C 142.764,350.729 146.264,356.896 144,366.5C 142.735,372.062 139.235,375.228 133.5,376C 128.511,376.499 123.511,376.666 118.5,376.5C 118.666,381.511 118.499,386.511 118,391.5C 115,392.833 112,392.833 109,391.5C 108.185,376.759 108.351,362.092 109.5,347.5 Z M 118.5,356.5 C 118.5,360.167 118.5,363.833 118.5,367.5C 122.846,367.666 127.179,367.499 131.5,367C 133.91,366.242 134.91,364.575 134.5,362C 134.91,359.425 133.91,357.758 131.5,357C 127.179,356.501 122.846,356.334 118.5,356.5 Z"/></g>
<g><path style="opacity:0.889" fill="#fb7468" d="M 150.5,347.5 C 160.506,347.334 170.506,347.5 180.5,348C 181.833,350.667 181.833,353.333 180.5,356C 173.508,356.5 166.508,356.666 159.5,356.5C 159.5,360.167 159.5,363.833 159.5,367.5C 166.175,367.334 172.842,367.5 179.5,368C 180.833,370.667 180.833,373.333 179.5,376C 172.842,376.5 166.175,376.666 159.5,376.5C 159.666,381.511 159.499,386.511 159,391.5C 156.333,392.833 153.667,392.833 151,391.5C 150.5,376.837 150.333,362.17 150.5,347.5 Z"/></g>
</svg>
