<svg xmlns="http://www.w3.org/2000/svg" xmlns:xlink="http://www.w3.org/1999/xlink" viewBox="0 0 500 500"><defs><clipPath id="freepik--clip-path--inject-12"><rect x="199.15" y="78.01" width="89.69" height="121.98" style="fill:none;stroke:#fff;stroke-linecap:round;stroke-linejoin:round"></rect></clipPath><clipPath id="freepik--clip-path-2--inject-12"><rect x="270.51" y="205.97" width="78.99" height="224.2" style="fill:#fff;stroke:#263238;stroke-linecap:round;stroke-linejoin:round"></rect></clipPath><clipPath id="freepik--clip-path-3--inject-12"><rect x="322.76" y="251.14" width="78.99" height="179.02" style="fill:#fff;stroke:#263238;stroke-linecap:round;stroke-linejoin:round"></rect></clipPath><clipPath id="freepik--clip-path-4--inject-12"><rect x="211.27" y="251.14" width="78.99" height="179.02" style="fill:#fff;stroke:#263238;stroke-linecap:round;stroke-linejoin:round"></rect></clipPath><clipPath id="freepik--clip-path-5--inject-12"><rect x="267.77" y="292.74" width="78.99" height="137.42" style="fill:#fff;stroke:#263238;stroke-linecap:round;stroke-linejoin:round"></rect></clipPath></defs><g id="freepik--background-simple--inject-12"><path d="M197,80.13c-19.78,8.47-39.08,21.78-55.3,34.19-28.22,21.59-54,48-71.92,77.57-21.69,35.86-22.12,77.5-8.23,109.1,7.07,16.1,18.13,30.24,33.09,39.86,19.54,12.59,42.91,9.34,67.43,10.43,44.74,2,63.19,46.78,97.69,64.53,45.34,23.33,108.6-1.87,148.07-44.46,20.54-22.17,32.92-49.75,29-75.57-4.15-27.38-26.09-46.3-46.74-61.7a204.81,204.81,0,0,1-46-47.21C331.89,169.34,325,149,314.56,130.48c-17-30.25-41.62-62-84.73-59C219,72.22,207.93,75.43,197,80.13Z" style="fill:#DB162F"></path><path d="M197,80.13c-19.78,8.47-39.08,21.78-55.3,34.19-28.22,21.59-54,48-71.92,77.57-21.69,35.86-22.12,77.5-8.23,109.1,7.07,16.1,18.13,30.24,33.09,39.86,19.54,12.59,42.91,9.34,67.43,10.43,44.74,2,63.19,46.78,97.69,64.53,45.34,23.33,108.6-1.87,148.07-44.46,20.54-22.17,32.92-49.75,29-75.57-4.15-27.38-26.09-46.3-46.74-61.7a204.81,204.81,0,0,1-46-47.21C331.89,169.34,325,149,314.56,130.48c-17-30.25-41.62-62-84.73-59C219,72.22,207.93,75.43,197,80.13Z" style="fill:#fff;opacity:0.7000000000000001"></path></g><g id="freepik--Picture--inject-12"><rect x="194" y="71" width="100" height="136" style="fill:#DB162F"></rect><rect x="194" y="71" width="100" height="136" style="fill:#fff;opacity:0.5"></rect><rect x="199.15" y="78.01" width="89.69" height="121.98" style="opacity:0.05"></rect><g style="opacity:0.05"><path d="M245.56,111.64c12.69-9.42,31.83-10.86,43.28-10.77V97.54c-14-4.65-40.88-10.11-63,5.4-12.8,9-21.19,12.61-26.65,13.78v49.43C234,153,228,124.65,245.56,111.64Z"></path><path d="M288.84,148.07c-16.08,9.29-42.55,25.74-63,44.18A92.82,92.82,0,0,1,216,200h27.37A113.16,113.16,0,0,0,255,184.35c7.35-11.49,22.45-24.58,33.8-33.52Z"></path><path d="M199.15,98.5a47.43,47.43,0,0,0,12.42-5.83C229,81.6,252.67,81.6,252.67,81.6A131.3,131.3,0,0,0,238.52,78H199.15Z"></path></g><g style="clip-path:url(#freepik--clip-path--inject-12)"><circle cx="241.36" cy="130.74" r="37.67" transform="translate(-21.75 208.96) rotate(-45)" style="fill:none;stroke:#fff;stroke-linecap:round;stroke-linejoin:round"></circle><path d="M187.66,154.6l4.8-.06,37.11,28.25,1.78,3.46,5.69.41s6.09,5.26,9.14,5.54,65.63-14.68,66.46-16.61-65.08-25.48-65.08-25.48L187.75,141Z" style="fill:#263238"></path><path d="M236.81,169.4c.68,9-1.77,16.57-5.46,16.85s-7.22-6.83-7.9-15.86,1.77-16.57,5.46-16.85S236.14,160.37,236.81,169.4Z" style="fill:#fff"></path><path d="M234.83,169.55c.47,6.34-1.25,11.64-3.84,11.83s-5.08-4.79-5.55-11.13,1.25-11.65,3.84-11.84S234.35,163.2,234.83,169.55Z" style="fill:#263238"></path><path d="M292.48,142.41c.16.2.33.4.49.61C292.81,142.81,292.64,142.61,292.48,142.41Z" style="fill:#fff"></path><path d="M295.77,148.58c.11.33.21.67.32,1C296,149.25,295.88,148.91,295.77,148.58Z" style="fill:#fff"></path><path d="M290.73,140.76c.19.14.37.29.55.45C291.1,141.05,290.92,140.9,290.73,140.76Z" style="fill:#fff"></path><path d="M293.06,143.14c.15.19.29.4.44.61C293.35,143.54,293.21,143.33,293.06,143.14Z" style="fill:#fff"></path><path d="M291.87,141.76c-.18-.18-.36-.35-.55-.51C291.51,141.41,291.69,141.58,291.87,141.76Z" style="fill:#fff"></path><path d="M291.94,141.84c.17.17.33.35.49.53C292.27,142.19,292.11,142,291.94,141.84Z" style="fill:#fff"></path><path d="M295,146.48c.12.27.24.56.36.85C295.21,147,295.09,146.75,295,146.48Z" style="fill:#fff"></path><path d="M295.34,147.38c.12.3.24.63.35,1C295.58,148,295.46,147.68,295.34,147.38Z" style="fill:#fff"></path><path d="M294.49,145.45c.14.27.27.54.39.83C294.76,146,294.63,145.72,294.49,145.45Z" style="fill:#fff"></path><path d="M293.53,143.81c.16.22.3.46.45.71C293.83,144.27,293.69,144,293.53,143.81Z" style="fill:#fff"></path><path d="M294.07,144.67l.39.72Z" style="fill:#fff"></path><path d="M288.73,139.47c.23.12.45.24.66.37C289.18,139.71,289,139.59,288.73,139.47Z" style="fill:#fff"></path><path d="M181.53,135.78c.06-.24.12-.47.19-.71C181.65,135.31,181.59,135.54,181.53,135.78Z" style="fill:#fff"></path><path d="M181.37,136.52c0-.24.1-.48.16-.72C181.47,136,181.42,136.28,181.37,136.52Z" style="fill:#fff"></path><path d="M181.24,137.33c0-.23.07-.45.11-.68C181.31,136.88,181.27,137.1,181.24,137.33Z" style="fill:#fff"></path><path d="M290.07,140.27c.21.14.41.29.6.44C290.48,140.56,290.28,140.41,290.07,140.27Z" style="fill:#fff"></path><path d="M181.74,135c.07-.25.15-.49.24-.74C181.89,134.49,181.81,134.73,181.74,135Z" style="fill:#fff"></path><path d="M181.15,138c0-.22,0-.45.08-.68C181.2,137.59,181.18,137.82,181.15,138Z" style="fill:#fff"></path><path d="M289.42,139.86c.21.12.42.25.62.39C289.84,140.11,289.63,140,289.42,139.86Z" style="fill:#fff"></path><path d="M287.31,138.8c.48.2.95.42,1.4.66C288.26,139.22,287.79,139,287.31,138.8Z" style="fill:#fff"></path><path d="M182,134.24c.08-.25.18-.5.27-.75C182.16,133.74,182.06,134,182,134.24Z" style="fill:#fff"></path><path d="M187.15,127.06c1.31-.41,2.54-.26,3.15,1.24,1.66,4.08,2.12,8.92,15.11,10.13s28.87,2.42,33.25,11.33,9.07,10,10.58,8.31-.45-7.55-2.42-9.82,6.35,2.27,8.16,3.33,7.26,6.49,6.65,3.62-3.32-8.46-6.35-10.58,8.16,3.78,9.83,6.2,7.25,5.89,6.65,1.36-5-11.94-1.21-9.82,10.42,4.23,13.3,7.55,6.34,3.78,4.23-.75a13.79,13.79,0,0,0-7.26-7.41c-2.72-1.36-10.58-2.11-11.18-3s6.5,0,12.39,1.51c3.37.86,4.37-.29,5.28-1.44a28.56,28.56,0,0,0-3.92-1.28c-5.74-1.51-20.4-2.27-20.4-2.27l-13.45-7.1s-5.14-12.54-7.4-13a156.73,156.73,0,0,0-15.87-1.82c-3,0-14.81,1.36-16.78,3.63a3.1,3.1,0,0,0-.8,3,1,1,0,0,1-.91,1.29A53.13,53.13,0,0,0,192,124.37c-5.32,2.11-8.24,5.5-9.69,9.08A15.18,15.18,0,0,1,187.15,127.06Z" style="fill:#fff"></path><path d="M181.08,138.88c0-.22,0-.45.06-.68C181.11,138.43,181.1,138.66,181.08,138.88Z" style="fill:#fff"></path><path d="M287.31,138.8c-.91,1.15-1.91,2.3-5.28,1.44-5.89-1.51-13-2.42-12.39-1.51s8.46,1.66,11.18,3a13.79,13.79,0,0,1,7.26,7.41c2.11,4.53-1.36,4.08-4.23.75s-9.52-5.44-13.3-7.55.6,5.29,1.21,9.82-5,1.06-6.65-1.36-12.85-8.31-9.83-6.2,5.75,7.71,6.35,10.58-4.83-2.57-6.65-3.62-10.12-5.6-8.16-3.33,3.93,8.16,2.42,9.82-6.2.61-10.58-8.31-20.25-10.12-33.25-11.33S192,132.38,190.3,128.3c-.61-1.5-1.84-1.65-3.15-1.24a15.63,15.63,0,0,0-6.07,11.82c-.3,5.29,1.51,6.65,2.27,5.9s4.23-5,5.89-3.63,1.52,8.76,2.42,9.82,27.81,18.29,27.81,18.29-.15-21,8.31-20.4,9.52,26.29,10,27.8,2.27,1.82,3.78,1.82,47.6-7.86,50.63-8.62,4.38-4.23,4.38-4.23a33.71,33.71,0,0,0-.45-16C294.25,143.18,291.19,140.42,287.31,138.8Z" style="fill:#DB162F"></path><path d="M190.3,125s3,1.51,5.14,6,3.17,5.29,11.94,5.29,16.62-.3,26.44,1.82a165.28,165.28,0,0,1,18,5s-15.11-7.1-26-9.22-22.22-1.81-26-4.38S195.44,124.83,190.3,125Z" style="fill:#DB162F"></path><path d="M211.31,129.36s-8.31,4.38-11.64,4.38-5.14-5.89-2.42-8.61,12.4-2.42,12.4-2.42Z" style="fill:#263238"></path><rect x="229.76" y="114" width="0.42" height="12.43" transform="translate(-27.61 88.77) rotate(-20.64)" style="fill:#DB162F"></rect><path d="M213.23,130.75l-.22-.36c.08,0,7.22-4.26,13.4-4.56s20.3,1.94,20.44,2l-.06.41c-.14,0-14.26-2.26-20.36-2S213.3,130.71,213.23,130.75Z" style="fill:#DB162F"></path><path d="M190.76,143.79c0,6-1.39,10.81-3.1,10.81s-3.1-4.84-3.1-10.81S186,133,187.66,133,190.76,137.83,190.76,143.79Z" style="fill:#fff"></path><path d="M190,143.79c0,4.52-1.05,8.17-2.34,8.17s-2.35-3.65-2.35-8.17,1.05-8.17,2.35-8.17S190,139.28,190,143.79Z" style="fill:#263238"></path><path d="M263.14,154.67c0,3-2,5.37-4.46,5.37s-4.45-2.4-4.45-5.37,2-5.36,4.45-5.36S263.14,151.71,263.14,154.67Z" style="fill:#fff"></path><path d="M290.19,151.2c0,2.46-1.65,4.46-3.7,4.46s-3.7-2-3.7-4.46,1.65-4.46,3.7-4.46S290.19,148.74,290.19,151.2Z" style="fill:#fff"></path><path d="M286.37,158.3a2.49,2.49,0,1,1-2.45-3A2.74,2.74,0,0,1,286.37,158.3Z" style="fill:#fff"></path><path d="M267.78,161.32a2.49,2.49,0,1,1-2.45-2.94A2.73,2.73,0,0,1,267.78,161.32Z" style="fill:#fff"></path><path d="M265.26,149l3.47,15.71s.91,7.11,3.93,5,3.48-9.22,1.51-17.38-4.08-9.22-6.65-8.46S264.5,145.23,265.26,149Z" style="fill:#263238;stroke:#fff;stroke-linecap:round;stroke-linejoin:round"></path><path d="M269.86,165.93s-22.85,3.81-24.66,4-3.3-.4-2.8,1.51,6.71,1.3,10.32.8,17.64-2.51,18.24-3.61S271.56,165.73,269.86,165.93Z" style="fill:#fff"></path><path d="M281.88,163.53s-3.61-.8-3.81,0-.2,1.3.9,1.9,5.52.71,9,.5,10.93-.5,12.13-2.2-.1-3-1.3-2.71a52.9,52.9,0,0,1-10.43,1.91C283.08,163.33,281.88,163.53,281.88,163.53Z" style="fill:#fff"></path><path d="M250.92,165.83a1.41,1.41,0,1,1-1.41-1.5A1.46,1.46,0,0,1,250.92,165.83Z" style="fill:#fff"></path><path d="M298,157.92c0,.72-.42,1.3-.95,1.3s-.95-.58-.95-1.3.43-1.3.95-1.3S298,157.2,298,157.92Z" style="fill:#fff"></path></g><rect x="199.15" y="78.01" width="89.69" height="121.98" style="fill:none;stroke:#fff;stroke-linecap:round;stroke-linejoin:round"></rect></g><g id="freepik--Toys--inject-12"><path d="M336.9,194.44a5.4,5.4,0,1,0-5.4,5.4A5.4,5.4,0,0,0,336.9,194.44Z" style="fill:#263238;stroke:#263238;stroke-linecap:round;stroke-linejoin:round"></path><path d="M335,194.44a3.47,3.47,0,1,0-3.47,3.47A3.47,3.47,0,0,0,335,194.44Z" style="fill:#fff;stroke:#263238;stroke-linecap:round;stroke-linejoin:round"></path><path d="M290.87,194.44a5.4,5.4,0,1,0-5.4,5.4A5.4,5.4,0,0,0,290.87,194.44Z" style="fill:#263238;stroke:#263238;stroke-linecap:round;stroke-linejoin:round"></path><path d="M288.94,194.44a3.47,3.47,0,1,0-3.47,3.47A3.47,3.47,0,0,0,288.94,194.44Z" style="fill:#fff;stroke:#263238;stroke-linecap:round;stroke-linejoin:round"></path><path d="M283.8,182l-15.95-.26,3.34,6,.65,6.05h5.91l12.35-3.47s2.44-.52,1.54,3.47h30.6s3.86-3.09,7.72-3.35a63.09,63.09,0,0,1,7.46,0l1.28,3.6h4.63l.26-5.78s1.8-2.7.64-4-2.05-1-2.05-1H324.69l-4.46-5.84a4.43,4.43,0,0,0-3.53-1.74h-21a8.48,8.48,0,0,0-4.81,1.48Z" style="fill:#DB162F;stroke:#263238;stroke-linecap:round;stroke-linejoin:round"></path><polygon points="283.7 181.97 283.8 182.1 289.32 182.1 292.67 178.5 290.88 177.15 283.8 181.97 283.7 181.97" style="fill:#fff;stroke:#263238;stroke-linecap:round;stroke-linejoin:round"></polygon><path d="M295,179l-2.18,3.47a9.09,9.09,0,0,1,6,2.57h18.65l-1.42-6.17Z" style="fill:#fff;stroke:#263238;stroke-linecap:round;stroke-linejoin:round"></path><path d="M320.23,177.41c-.1-.13-.21-.26-.32-.38l-.11.05-1.41,1.42L320.7,184a5.35,5.35,0,0,0,4-.77Z" style="fill:#fff;stroke:#263238;stroke-linecap:round;stroke-linejoin:round"></path><path d="M294.6,184.93c-2.32-.65-24.05,1.41-24.05,1.41l-.05.17.69,1.24.27,2.54,27-2.15A7.8,7.8,0,0,0,294.6,184.93Z" style="fill:#fff;stroke:#263238;stroke-linecap:round;stroke-linejoin:round"></path><path d="M271.84,193.67h-1.93a1.67,1.67,0,0,1-1.67-1.67h0a1.66,1.66,0,0,1,1.67-1.67h1.93a1.67,1.67,0,0,1,1.67,1.67h0A1.67,1.67,0,0,1,271.84,193.67Z" style="fill:#263238;stroke:#263238;stroke-linecap:round;stroke-linejoin:round"></path><rect x="338.57" y="190.71" width="7.33" height="4.24" rx="1.69" style="fill:#263238;stroke:#263238;stroke-linecap:round;stroke-linejoin:round"></rect><line x1="303.6" y1="179.14" x2="303.6" y2="184.93" style="fill:none;stroke:#263238;stroke-linecap:round;stroke-linejoin:round"></line><line x1="298.45" y1="188.14" x2="318.9" y2="186.85" style="fill:none;stroke:#263238;stroke-linecap:round;stroke-linejoin:round"></line><rect x="274.54" y="199.37" width="70.93" height="230.8" style="fill:#fff;stroke:#263238;stroke-linecap:round;stroke-linejoin:round"></rect><rect x="270.51" y="205.97" width="78.99" height="224.2" style="fill:#fff"></rect><g style="clip-path:url(#freepik--clip-path-2--inject-12)"><rect x="267.47" y="210.65" width="7.37" height="7.37" style="fill:#bfbfbf"></rect><rect x="267.47" y="217.82" width="7.37" height="7.37" style="fill:#fff"></rect><rect x="274.71" y="210.65" width="7.37" height="7.37" style="fill:#fff"></rect><rect x="274.71" y="217.82" width="7.37" height="7.37" style="fill:#bfbfbf"></rect><rect x="281.95" y="210.65" width="7.37" height="7.37" style="fill:#bfbfbf"></rect><rect x="281.95" y="217.82" width="7.37" height="7.37" style="fill:#fff"></rect><rect x="289.2" y="210.65" width="7.37" height="7.37" style="fill:#fff"></rect><rect x="289.2" y="217.82" width="7.37" height="7.37" style="fill:#bfbfbf"></rect><rect x="296.44" y="210.65" width="7.37" height="7.37" style="fill:#bfbfbf"></rect><rect x="296.44" y="217.82" width="7.37" height="7.37" style="fill:#fff"></rect><rect x="303.68" y="210.65" width="7.37" height="7.37" style="fill:#fff"></rect><rect x="303.68" y="217.82" width="7.37" height="7.37" style="fill:#bfbfbf"></rect><rect x="310.92" y="210.65" width="7.37" height="7.37" style="fill:#bfbfbf"></rect><rect x="310.92" y="217.82" width="7.37" height="7.37" style="fill:#fff"></rect><rect x="318.16" y="210.65" width="7.37" height="7.37" style="fill:#fff"></rect><rect x="318.16" y="217.82" width="7.37" height="7.37" style="fill:#bfbfbf"></rect><rect x="267.47" y="225.26" width="7.37" height="7.37" style="fill:#bfbfbf"></rect><rect x="267.47" y="232.44" width="7.37" height="7.37" style="fill:#fff"></rect><rect x="274.71" y="225.26" width="7.37" height="7.37" style="fill:#fff"></rect><rect x="274.71" y="232.44" width="7.37" height="7.37" style="fill:#bfbfbf"></rect><rect x="281.95" y="225.26" width="7.37" height="7.37" style="fill:#bfbfbf"></rect><rect x="281.95" y="232.44" width="7.37" height="7.37" style="fill:#fff"></rect><rect x="289.2" y="225.26" width="7.37" height="7.37" style="fill:#fff"></rect><rect x="289.2" y="232.44" width="7.37" height="7.37" style="fill:#bfbfbf"></rect><rect x="296.44" y="225.26" width="7.37" height="7.37" style="fill:#bfbfbf"></rect><rect x="296.44" y="232.44" width="7.37" height="7.37" style="fill:#fff"></rect><rect x="303.68" y="225.26" width="7.37" height="7.37" style="fill:#fff"></rect><rect x="303.68" y="232.44" width="7.37" height="7.37" style="fill:#bfbfbf"></rect><rect x="310.92" y="225.26" width="7.37" height="7.37" style="fill:#bfbfbf"></rect><rect x="310.92" y="232.44" width="7.37" height="7.37" style="fill:#fff"></rect><rect x="318.16" y="225.26" width="7.37" height="7.37" style="fill:#fff"></rect><rect x="318.16" y="232.44" width="7.37" height="7.37" style="fill:#bfbfbf"></rect><rect x="325.53" y="210.65" width="7.37" height="7.37" style="fill:#bfbfbf"></rect><rect x="325.53" y="217.82" width="7.37" height="7.37" style="fill:#fff"></rect><rect x="332.77" y="210.65" width="7.37" height="7.37" style="fill:#fff"></rect><rect x="332.77" y="217.82" width="7.37" height="7.37" style="fill:#bfbfbf"></rect><rect x="325.53" y="225.26" width="7.37" height="7.37" style="fill:#bfbfbf"></rect><rect x="325.53" y="232.44" width="7.37" height="7.37" style="fill:#fff"></rect><rect x="332.77" y="225.26" width="7.37" height="7.37" style="fill:#fff"></rect><rect x="332.77" y="232.44" width="7.37" height="7.37" style="fill:#bfbfbf"></rect><rect x="340.11" y="210.65" width="7.37" height="7.37" style="fill:#bfbfbf"></rect><rect x="340.11" y="217.82" width="7.37" height="7.37" style="fill:#fff"></rect><rect x="347.35" y="210.65" width="7.37" height="7.37" style="fill:#fff"></rect><rect x="347.35" y="217.82" width="7.37" height="7.37" style="fill:#bfbfbf"></rect><rect x="340.11" y="225.26" width="7.37" height="7.37" style="fill:#bfbfbf"></rect><rect x="340.11" y="232.44" width="7.37" height="7.37" style="fill:#fff"></rect><rect x="347.35" y="225.26" width="7.37" height="7.37" style="fill:#fff"></rect><rect x="347.35" y="232.44" width="7.37" height="7.37" style="fill:#bfbfbf"></rect></g><rect x="270.51" y="205.97" width="78.99" height="224.2" style="fill:none;stroke:#263238;stroke-linecap:round;stroke-linejoin:round"></rect><path d="M346.48,239.39a5.56,5.56,0,1,0-5.55,5.55A5.55,5.55,0,0,0,346.48,239.39Z" style="fill:#263238;stroke:#263238;stroke-linecap:round;stroke-linejoin:round"></path><path d="M344.5,239.39a3.57,3.57,0,1,0-3.57,3.57A3.57,3.57,0,0,0,344.5,239.39Z" style="fill:#fff;stroke:#263238;stroke-linecap:round;stroke-linejoin:round"></path><path d="M390.89,239.39a5.56,5.56,0,1,0-5.56,5.55A5.56,5.56,0,0,0,390.89,239.39Z" style="fill:#263238;stroke:#263238;stroke-linecap:round;stroke-linejoin:round"></path><path d="M388.9,239.39a3.57,3.57,0,1,0-3.57,3.57A3.57,3.57,0,0,0,388.9,239.39Z" style="fill:#fff;stroke:#263238;stroke-linecap:round;stroke-linejoin:round"></path><path d="M365.14,224.71s11-3.27,14.44-3.68,2.59,2.18,2.59,2.18,1.23,1.5.68,2.86S365.14,224.71,365.14,224.71Z" style="fill:#fff;stroke:#263238;stroke-linecap:round;stroke-linejoin:round"></path><path d="M359.15,225.86a.6.6,0,0,1-.56-.36l-1.37-3.14a.62.62,0,0,1,1.13-.49l1.36,3.14a.6.6,0,0,1-.31.8A.56.56,0,0,1,359.15,225.86Z" style="fill:#263238"></path><path d="M339.31,224.46s-9.8-1.09-9.8-.54,1.63,1,1.63,1v1.5A25.31,25.31,0,0,1,339.31,224.46Z" style="fill:#fff;stroke:#000;stroke-linecap:round;stroke-linejoin:round"></path><path d="M335,236a2.31,2.31,0,0,1,2.2-1.62h7.18a2.31,2.31,0,0,1,2.09,1.33l1.13,2.48H395a21.5,21.5,0,0,0-7.08-10.35c-5.45-4.22-19.75-3.13-19.75-3.13h-12.4v-4.77s-2.86,1.63-2.86,4.63H334.63s-3-.95-4.22,4a40.06,40.06,0,0,0-1.09,9.67h5Z" style="fill:#DB162F;stroke:#263238;stroke-linecap:round;stroke-linejoin:round"></path><path d="M351.11,234.38c-.27-2.73-1.9-3-1.9-3s-10.49-1.5-13.22-1.77a2.66,2.66,0,0,0-3.13,2l-.68,6.27,0,.27h2.14L335,236a2.31,2.31,0,0,1,2.2-1.62h7.18a2.31,2.31,0,0,1,2.09,1.33l1.13,2.48h3.66A27.12,27.12,0,0,0,351.11,234.38Z" style="fill:#fff;stroke:#263238;stroke-linecap:round;stroke-linejoin:round"></path><line x1="368.82" y1="224.98" x2="368.82" y2="238.19" style="fill:none;stroke:#263238;stroke-linecap:round;stroke-linejoin:round"></line><line x1="364.33" y1="230.29" x2="366.64" y2="230.29" style="fill:none;stroke:#263238;stroke-linecap:round;stroke-linejoin:round"></line><path d="M376,238.05s.41-7.76,2.86-8.58,19.48,3.14,19.48,3.14,2.18.54,2.18,2.45v3.13Z" style="fill:#fff;stroke:#263238;stroke-linecap:round;stroke-linejoin:round"></path><rect x="326.65" y="236.04" width="5.99" height="3.68" rx="1.71" style="fill:#263238;stroke:#000;stroke-linecap:round;stroke-linejoin:round"></rect><rect x="400.56" y="235.06" width="2.77" height="2.21" style="fill:#263238;stroke:#000;stroke-linecap:round;stroke-linejoin:round"></rect><rect x="327.05" y="244.35" width="70.41" height="185.82" style="fill:#fff;stroke:#263238;stroke-linecap:round;stroke-linejoin:round"></rect><rect x="322.76" y="251.14" width="78.99" height="179.02" style="fill:#fff"></rect><g style="clip-path:url(#freepik--clip-path-3--inject-12)"><rect x="319.94" y="256.29" width="7.37" height="7.37" style="fill:#bfbfbf"></rect><rect x="319.94" y="263.47" width="7.37" height="7.37" style="fill:#fff"></rect><rect x="327.19" y="256.29" width="7.37" height="7.37" style="fill:#fff"></rect><rect x="327.19" y="263.47" width="7.37" height="7.37" style="fill:#bfbfbf"></rect><rect x="334.43" y="256.29" width="7.37" height="7.37" style="fill:#bfbfbf"></rect><rect x="334.43" y="263.47" width="7.37" height="7.37" style="fill:#fff"></rect><rect x="341.67" y="256.29" width="7.37" height="7.37" style="fill:#fff"></rect><rect x="341.67" y="263.47" width="7.37" height="7.37" style="fill:#bfbfbf"></rect><rect x="348.91" y="256.29" width="7.37" height="7.37" style="fill:#bfbfbf"></rect><rect x="348.91" y="263.47" width="7.37" height="7.37" style="fill:#fff"></rect><rect x="356.15" y="256.29" width="7.37" height="7.37" style="fill:#fff"></rect><rect x="356.15" y="263.47" width="7.37" height="7.37" style="fill:#bfbfbf"></rect><rect x="363.39" y="256.29" width="7.37" height="7.37" style="fill:#bfbfbf"></rect><rect x="363.39" y="263.47" width="7.37" height="7.37" style="fill:#fff"></rect><rect x="370.64" y="256.29" width="7.37" height="7.37" style="fill:#fff"></rect><rect x="370.64" y="263.47" width="7.37" height="7.37" style="fill:#bfbfbf"></rect><rect x="319.94" y="270.91" width="7.37" height="7.37" style="fill:#bfbfbf"></rect><rect x="319.94" y="278.08" width="7.37" height="7.37" style="fill:#fff"></rect><rect x="327.19" y="270.91" width="7.37" height="7.37" style="fill:#fff"></rect><rect x="327.19" y="278.08" width="7.37" height="7.37" style="fill:#bfbfbf"></rect><rect x="334.43" y="270.91" width="7.37" height="7.37" style="fill:#bfbfbf"></rect><rect x="334.43" y="278.08" width="7.37" height="7.37" style="fill:#fff"></rect><rect x="341.67" y="270.91" width="7.37" height="7.37" style="fill:#fff"></rect><rect x="341.67" y="278.08" width="7.37" height="7.37" style="fill:#bfbfbf"></rect><rect x="348.91" y="270.91" width="7.37" height="7.37" style="fill:#bfbfbf"></rect><rect x="348.91" y="278.08" width="7.37" height="7.37" style="fill:#fff"></rect><rect x="356.15" y="270.91" width="7.37" height="7.37" style="fill:#fff"></rect><rect x="356.15" y="278.08" width="7.37" height="7.37" style="fill:#bfbfbf"></rect><rect x="363.39" y="270.91" width="7.37" height="7.37" style="fill:#bfbfbf"></rect><rect x="363.39" y="278.08" width="7.37" height="7.37" style="fill:#fff"></rect><rect x="370.64" y="270.91" width="7.37" height="7.37" style="fill:#fff"></rect><rect x="370.64" y="278.08" width="7.37" height="7.37" style="fill:#bfbfbf"></rect><rect x="378" y="256.29" width="7.37" height="7.37" style="fill:#bfbfbf"></rect><rect x="378" y="263.47" width="7.37" height="7.37" style="fill:#fff"></rect><rect x="385.25" y="256.29" width="7.37" height="7.37" style="fill:#fff"></rect><rect x="385.25" y="263.47" width="7.37" height="7.37" style="fill:#bfbfbf"></rect><rect x="378" y="270.91" width="7.37" height="7.37" style="fill:#bfbfbf"></rect><rect x="378" y="278.08" width="7.37" height="7.37" style="fill:#fff"></rect><rect x="385.25" y="270.91" width="7.37" height="7.37" style="fill:#fff"></rect><rect x="385.25" y="278.08" width="7.37" height="7.37" style="fill:#bfbfbf"></rect><rect x="392.58" y="256.29" width="7.37" height="7.37" style="fill:#bfbfbf"></rect><rect x="392.58" y="263.47" width="7.37" height="7.37" style="fill:#fff"></rect><rect x="399.82" y="256.29" width="7.37" height="7.37" style="fill:#fff"></rect><rect x="399.82" y="263.47" width="7.37" height="7.37" style="fill:#bfbfbf"></rect><rect x="392.58" y="270.91" width="7.37" height="7.37" style="fill:#bfbfbf"></rect><rect x="392.58" y="278.08" width="7.37" height="7.37" style="fill:#fff"></rect><rect x="399.82" y="270.91" width="7.37" height="7.37" style="fill:#fff"></rect><rect x="399.82" y="278.08" width="7.37" height="7.37" style="fill:#bfbfbf"></rect></g><rect x="322.76" y="251.14" width="78.99" height="179.02" style="fill:none;stroke:#263238;stroke-linecap:round;stroke-linejoin:round"></rect><rect x="215.56" y="244.35" width="70.41" height="185.82" style="fill:#fff;stroke:#263238;stroke-linecap:round;stroke-linejoin:round"></rect><rect x="211.27" y="251.14" width="78.99" height="179.02" style="fill:#fff"></rect><g style="clip-path:url(#freepik--clip-path-4--inject-12)"><rect x="206.37" y="256.29" width="7.37" height="7.37" style="fill:#bfbfbf"></rect><rect x="206.37" y="263.47" width="7.37" height="7.37" style="fill:#fff"></rect><rect x="213.61" y="256.29" width="7.37" height="7.37" style="fill:#fff"></rect><rect x="213.61" y="263.47" width="7.37" height="7.37" style="fill:#bfbfbf"></rect><rect x="220.86" y="256.29" width="7.37" height="7.37" style="fill:#bfbfbf"></rect><rect x="220.86" y="263.47" width="7.37" height="7.37" style="fill:#fff"></rect><rect x="228.1" y="256.29" width="7.37" height="7.37" style="fill:#fff"></rect><rect x="228.1" y="263.47" width="7.37" height="7.37" style="fill:#bfbfbf"></rect><rect x="235.34" y="256.29" width="7.37" height="7.37" style="fill:#bfbfbf"></rect><rect x="235.34" y="263.47" width="7.37" height="7.37" style="fill:#fff"></rect><rect x="242.58" y="256.29" width="7.37" height="7.37" style="fill:#fff"></rect><rect x="242.58" y="263.47" width="7.37" height="7.37" style="fill:#bfbfbf"></rect><rect x="249.82" y="256.29" width="7.37" height="7.37" style="fill:#bfbfbf"></rect><rect x="249.82" y="263.47" width="7.37" height="7.37" style="fill:#fff"></rect><rect x="257.06" y="256.29" width="7.37" height="7.37" style="fill:#fff"></rect><rect x="257.06" y="263.47" width="7.37" height="7.37" style="fill:#bfbfbf"></rect><rect x="206.37" y="270.91" width="7.37" height="7.37" style="fill:#bfbfbf"></rect><rect x="206.37" y="278.08" width="7.37" height="7.37" style="fill:#fff"></rect><rect x="213.61" y="270.91" width="7.37" height="7.37" style="fill:#fff"></rect><rect x="213.61" y="278.08" width="7.37" height="7.37" style="fill:#bfbfbf"></rect><rect x="220.86" y="270.91" width="7.37" height="7.37" style="fill:#bfbfbf"></rect><rect x="220.86" y="278.08" width="7.37" height="7.37" style="fill:#fff"></rect><rect x="228.1" y="270.91" width="7.37" height="7.37" style="fill:#fff"></rect><rect x="228.1" y="278.08" width="7.37" height="7.37" style="fill:#bfbfbf"></rect><rect x="235.34" y="270.91" width="7.37" height="7.37" style="fill:#bfbfbf"></rect><rect x="235.34" y="278.08" width="7.37" height="7.37" style="fill:#fff"></rect><rect x="242.58" y="270.91" width="7.37" height="7.37" style="fill:#fff"></rect><rect x="242.58" y="278.08" width="7.37" height="7.37" style="fill:#bfbfbf"></rect><rect x="249.82" y="270.91" width="7.37" height="7.37" style="fill:#bfbfbf"></rect><rect x="249.82" y="278.08" width="7.37" height="7.37" style="fill:#fff"></rect><rect x="257.06" y="270.91" width="7.37" height="7.37" style="fill:#fff"></rect><rect x="257.06" y="278.08" width="7.37" height="7.37" style="fill:#bfbfbf"></rect><rect x="264.43" y="256.29" width="7.37" height="7.37" style="fill:#bfbfbf"></rect><rect x="264.43" y="263.47" width="7.37" height="7.37" style="fill:#fff"></rect><rect x="271.68" y="256.29" width="7.37" height="7.37" style="fill:#fff"></rect><rect x="271.68" y="263.47" width="7.37" height="7.37" style="fill:#bfbfbf"></rect><rect x="264.43" y="270.91" width="7.37" height="7.37" style="fill:#bfbfbf"></rect><rect x="264.43" y="278.08" width="7.37" height="7.37" style="fill:#fff"></rect><rect x="271.68" y="270.91" width="7.37" height="7.37" style="fill:#fff"></rect><rect x="271.68" y="278.08" width="7.37" height="7.37" style="fill:#bfbfbf"></rect><rect x="279.01" y="256.29" width="7.37" height="7.37" style="fill:#bfbfbf"></rect><rect x="279.01" y="263.47" width="7.37" height="7.37" style="fill:#fff"></rect><rect x="286.25" y="256.29" width="7.37" height="7.37" style="fill:#fff"></rect><rect x="286.25" y="263.47" width="7.37" height="7.37" style="fill:#bfbfbf"></rect><rect x="279.01" y="270.91" width="7.37" height="7.37" style="fill:#bfbfbf"></rect><rect x="279.01" y="278.08" width="7.37" height="7.37" style="fill:#fff"></rect><rect x="286.25" y="270.91" width="7.37" height="7.37" style="fill:#fff"></rect><rect x="286.25" y="278.08" width="7.37" height="7.37" style="fill:#bfbfbf"></rect></g><rect x="211.27" y="251.14" width="78.99" height="179.02" style="fill:none;stroke:#263238;stroke-linecap:round;stroke-linejoin:round"></rect><path d="M283,239l-1.87-4.91s-6.2-7.14-8.77-8.31-20.72-4.91-23.64-4.1-5.38,6.09-5.38,6.09-10,.18-14.47,1.36c-1.34.2-4.65.8-5,1.87s.55,2.19,1.05,2.73a25,25,0,0,0-.74,5.27Z" style="fill:#DB162F;stroke:#263238;stroke-linecap:round;stroke-linejoin:round"></path><path d="M280.6,239a5.6,5.6,0,1,0-5.6,5.6A5.6,5.6,0,0,0,280.6,239Z" style="fill:#263238;stroke:#263238;stroke-linecap:round;stroke-linejoin:round"></path><path d="M278.6,239a3.6,3.6,0,1,0-3.6,3.6A3.6,3.6,0,0,0,278.6,239Z" style="fill:#fff;stroke:#263238;stroke-linecap:round;stroke-linejoin:round"></path><path d="M264.83,239.22s.35-5.74,1.64-6.09,15.91.35,18.72,1.41,3.63,5.26,3.63,5.61-7.38,0-7.38,0l-.39-1.82a2.5,2.5,0,0,0-2.39-2l-7.55-.15a2.5,2.5,0,0,0-2.54,2.5v.38Z" style="fill:#fff;stroke:#263238;stroke-linecap:round;stroke-linejoin:round"></path><path d="M239.41,239a5.6,5.6,0,1,0-5.6,5.6A5.6,5.6,0,0,0,239.41,239Z" style="fill:#263238;stroke:#263238;stroke-linecap:round;stroke-linejoin:round"></path><path d="M237.41,239a3.6,3.6,0,1,0-3.6,3.6A3.6,3.6,0,0,0,237.41,239Z" style="fill:#fff;stroke:#263238;stroke-linecap:round;stroke-linejoin:round"></path><path d="M245.52,228s3.39-4.91,2.57-5.15a2.85,2.85,0,0,0-1.28-.05,17.94,17.94,0,0,0-3.51,5Z" style="fill:#fff;stroke:#263238;stroke-linecap:round;stroke-linejoin:round"></path><path d="M249.5,224.59,248,228.33l20.59.47s-.7-2.22-2.22-2.69-14.75-2.57-14.75-2.57A2.07,2.07,0,0,0,249.5,224.59Z" style="fill:#fff;stroke:#263238;stroke-linecap:round;stroke-linejoin:round"></path><line x1="245.05" y1="228.8" x2="245.05" y2="237.93" style="fill:none;stroke:#263238;stroke-linecap:round;stroke-linejoin:round"></line><line x1="260.73" y1="229.5" x2="260.73" y2="238.4" style="fill:none;stroke:#263238;stroke-linecap:round;stroke-linejoin:round"></line><rect x="287.92" y="237.55" width="3.77" height="2.43" style="fill:#263238;stroke:#263238;stroke-linecap:round;stroke-linejoin:round"></rect><rect x="222.33" y="236.58" width="3.77" height="2.43" style="fill:#263238;stroke:#263238;stroke-linecap:round;stroke-linejoin:round"></rect><path d="M278.53,279.82H338.3a15.46,15.46,0,0,0-4.54-10c-4.53-4.53-11.5-3.24-11.5-3.24s-4.86-6.48-7.12-6.8-12.15-1.94-19.6.48-14.58,7.94-18.3,18.95C277.24,279.17,277.24,279.82,278.53,279.82Z" style="fill:#DB162F;stroke:#263238;stroke-linecap:round;stroke-linejoin:round"></path><path d="M297,278.1a8,8,0,0,0-15.88,0,6.93,6.93,0,0,0,.23,1.72h15.42A6.93,6.93,0,0,0,297,278.1Z" style="fill:#fff;stroke:#263238;stroke-linecap:round;stroke-linejoin:round"></path><path d="M337,278.1a8,8,0,0,0-15.87,0,6.93,6.93,0,0,0,.22,1.72h15.43A6.93,6.93,0,0,0,337,278.1Z" style="fill:#fff;stroke:#263238;stroke-linecap:round;stroke-linejoin:round"></path><circle cx="288.87" cy="279.43" r="5.6" style="fill:#263238;stroke:#263238;stroke-linecap:round;stroke-linejoin:round"></circle><path d="M292.47,279.43a3.6,3.6,0,1,0-3.6,3.6A3.6,3.6,0,0,0,292.47,279.43Z" style="fill:#fff;stroke:#263238;stroke-linecap:round;stroke-linejoin:round"></path><circle cx="329.04" cy="279.43" r="5.6" style="fill:#263238;stroke:#263238;stroke-linecap:round;stroke-linejoin:round"></circle><path d="M332.64,279.43A3.6,3.6,0,1,0,329,283,3.6,3.6,0,0,0,332.64,279.43Z" style="fill:#fff;stroke:#263238;stroke-linecap:round;stroke-linejoin:round"></path><rect x="276.43" y="276.91" width="4.86" height="3.4" style="fill:#263238;stroke:#263238;stroke-linecap:round;stroke-linejoin:round"></rect><rect x="335.71" y="276.91" width="4.86" height="3.4" style="fill:#263238;stroke:#263238;stroke-linecap:round;stroke-linejoin:round"></rect><path d="M318.55,267.22c-.54-1.35-2.48-5.06-5.41-5.5a54.22,54.22,0,0,0-8.37-.36v5.86Z" style="fill:#fff;stroke:#263238;stroke-linecap:round;stroke-linejoin:round"></path><path d="M302.34,266.87v-5.19s-4.53-.16-7.77,1.78-1.46,3.57-.49,3.73,8.26,0,8.26,0Z" style="fill:#fff;stroke:#263238;stroke-linecap:round;stroke-linejoin:round"></path><line x1="303.72" y1="261.24" x2="303.72" y2="279.73" style="fill:none;stroke:#263238;stroke-linecap:round;stroke-linejoin:round"></line><rect x="272.9" y="284.94" width="68.72" height="145.23" style="fill:#fff;stroke:#263238;stroke-linecap:round;stroke-linejoin:round"></rect><rect x="267.77" y="292.74" width="78.99" height="137.42" style="fill:#fff"></rect><g style="clip-path:url(#freepik--clip-path-5--inject-12)"><rect x="264.6" y="296.54" width="7.37" height="7.37" style="fill:#bfbfbf"></rect><rect x="264.6" y="303.72" width="7.37" height="7.37" style="fill:#fff"></rect><rect x="271.84" y="296.54" width="7.37" height="7.37" style="fill:#fff"></rect><rect x="271.84" y="303.72" width="7.37" height="7.37" style="fill:#bfbfbf"></rect><rect x="279.08" y="296.54" width="7.37" height="7.37" style="fill:#bfbfbf"></rect><rect x="279.08" y="303.72" width="7.37" height="7.37" style="fill:#fff"></rect><rect x="286.32" y="296.54" width="7.37" height="7.37" style="fill:#fff"></rect><rect x="286.32" y="303.72" width="7.37" height="7.37" style="fill:#bfbfbf"></rect><rect x="293.56" y="296.54" width="7.37" height="7.37" style="fill:#bfbfbf"></rect><rect x="293.56" y="303.72" width="7.37" height="7.37" style="fill:#fff"></rect><rect x="300.8" y="296.54" width="7.37" height="7.37" style="fill:#fff"></rect><rect x="300.8" y="303.72" width="7.37" height="7.37" style="fill:#bfbfbf"></rect><rect x="308.05" y="296.54" width="7.37" height="7.37" style="fill:#bfbfbf"></rect><rect x="308.05" y="303.72" width="7.37" height="7.37" style="fill:#fff"></rect><rect x="315.29" y="296.54" width="7.37" height="7.37" style="fill:#fff"></rect><rect x="315.29" y="303.72" width="7.37" height="7.37" style="fill:#bfbfbf"></rect><rect x="264.6" y="311.16" width="7.37" height="7.37" style="fill:#bfbfbf"></rect><rect x="264.6" y="318.34" width="7.37" height="7.37" style="fill:#fff"></rect><rect x="271.84" y="311.16" width="7.37" height="7.37" style="fill:#fff"></rect><rect x="271.84" y="318.34" width="7.37" height="7.37" style="fill:#bfbfbf"></rect><rect x="279.08" y="311.16" width="7.37" height="7.37" style="fill:#bfbfbf"></rect><rect x="279.08" y="318.34" width="7.37" height="7.37" style="fill:#fff"></rect><rect x="286.32" y="311.16" width="7.37" height="7.37" style="fill:#fff"></rect><rect x="286.32" y="318.34" width="7.37" height="7.37" style="fill:#bfbfbf"></rect><rect x="293.56" y="311.16" width="7.37" height="7.37" style="fill:#bfbfbf"></rect><rect x="293.56" y="318.34" width="7.37" height="7.37" style="fill:#fff"></rect><rect x="300.8" y="311.16" width="7.37" height="7.37" style="fill:#fff"></rect><rect x="300.8" y="318.34" width="7.37" height="7.37" style="fill:#bfbfbf"></rect><rect x="308.05" y="311.16" width="7.37" height="7.37" style="fill:#bfbfbf"></rect><rect x="308.05" y="318.34" width="7.37" height="7.37" style="fill:#fff"></rect><rect x="315.29" y="311.16" width="7.37" height="7.37" style="fill:#fff"></rect><rect x="315.29" y="318.34" width="7.37" height="7.37" style="fill:#bfbfbf"></rect><rect x="322.66" y="296.54" width="7.37" height="7.37" style="fill:#bfbfbf"></rect><rect x="322.66" y="303.72" width="7.37" height="7.37" style="fill:#fff"></rect><rect x="329.9" y="296.54" width="7.37" height="7.37" style="fill:#fff"></rect><rect x="329.9" y="303.72" width="7.37" height="7.37" style="fill:#bfbfbf"></rect><rect x="322.66" y="311.16" width="7.37" height="7.37" style="fill:#bfbfbf"></rect><rect x="322.66" y="318.34" width="7.37" height="7.37" style="fill:#fff"></rect><rect x="329.9" y="311.16" width="7.37" height="7.37" style="fill:#fff"></rect><rect x="329.9" y="318.34" width="7.37" height="7.37" style="fill:#bfbfbf"></rect><rect x="337.23" y="296.54" width="7.37" height="7.37" style="fill:#bfbfbf"></rect><rect x="337.23" y="303.72" width="7.37" height="7.37" style="fill:#fff"></rect><rect x="344.47" y="296.54" width="7.37" height="7.37" style="fill:#fff"></rect><rect x="344.47" y="303.72" width="7.37" height="7.37" style="fill:#bfbfbf"></rect><rect x="337.23" y="311.16" width="7.37" height="7.37" style="fill:#bfbfbf"></rect><rect x="337.23" y="318.34" width="7.37" height="7.37" style="fill:#fff"></rect><rect x="344.47" y="311.16" width="7.37" height="7.37" style="fill:#fff"></rect><rect x="344.47" y="318.34" width="7.37" height="7.37" style="fill:#bfbfbf"></rect></g><rect x="267.77" y="292.74" width="78.99" height="137.42" style="fill:none;stroke:#263238;stroke-linecap:round;stroke-linejoin:round"></rect></g><g id="freepik--Character--inject-12"><polygon points="118.07 158.13 92.27 208.35 101.17 213.43 123.72 191.31 118.07 158.13" style="fill:#DB162F;stroke:#263238;stroke-linecap:round;stroke-linejoin:round"></polygon><path d="M184.8,154.43l12.79,60.08,22.13,22.7s14.18,3.4,15.88,4.54,5.11,6.81,5.11,6.81l-2.27,1.13-10.21-4.54h-3.41l6.24,5.11-1.19,1.14L214,240.05l-26.67-19.86-9.08-18.73Z" style="fill:#DB162F;stroke:#263238;stroke-linecap:round;stroke-linejoin:round"></path><path d="M235.6,241.75c-1.7-1.14-15.88-4.54-15.88-4.54l-22.13-22.7-.87-4.07L185.82,217l1.55,3.21L214,240.05l15.83,11.35,1.19-1.14-6.24-5.11h3.41l10.21,4.54,2.27-1.13S237.31,242.88,235.6,241.75Z" style="fill:#fff;stroke:#263238;stroke-linecap:round;stroke-linejoin:round"></path><line x1="230.61" y1="243.31" x2="239.15" y2="248.84" style="fill:none;stroke:#263238;stroke-linecap:round;stroke-linejoin:round"></line><line x1="233.29" y1="242.31" x2="240.71" y2="248.56" style="fill:none;stroke:#263238;stroke-linecap:round;stroke-linejoin:round"></line><path d="M141,149l-23,9s6.45,39.73,6.7,47-1.54,26.57,0,28.63,5.42,2.33,5.42,2.33l47.13-.25s4-2,2.42-9.28c-.9-4,1-35.87,1.53-42.58s3.61-29.41,3.61-29.41-19.09-5.41-24.25-6.19S144.81,146.44,141,149Z" style="fill:#DB162F;stroke:#263238;stroke-linecap:round;stroke-linejoin:round"></path><line x1="154.28" y1="211.93" x2="157" y2="209.84" style="fill:none;stroke:#263238;stroke-linecap:round;stroke-linejoin:round"></line><line x1="128.86" y1="231.46" x2="151.23" y2="214.28" style="fill:none;stroke:#263238;stroke-linecap:round;stroke-linejoin:round"></line><line x1="139.84" y1="218.76" x2="155.63" y2="204.7" style="fill:none;stroke:#263238;stroke-linecap:round;stroke-linejoin:round"></line><path d="M145.57,142.5s-4.77,1.43-5.72,2.38-1.67,6-2.63,8.58-4.05,7.15-3.09,7.39,9.05-3.82,9.05-3.82l9.3,10.54,8.82-11s6.91,5.24,7.38,4.52-3.1-9.29-3.33-12.86-5.49-4.77-8.58-5S145.57,142.5,145.57,142.5Z" style="fill:#fff;stroke:#263238;stroke-linecap:round;stroke-linejoin:round"></path><polygon points="143.52 136.72 143.52 150.66 152.21 166.66 160.5 150.46 160.5 135.91 143.52 136.72" style="fill:#fff;stroke:#263238;stroke-linecap:round;stroke-linejoin:round"></polygon><path d="M139.41,122.53s-4.22-4.54-5.74-1.41,2.08,8.73,3.47,10.14,3-1.4,3-1.4" style="fill:#fff;stroke:#263238;stroke-linecap:round;stroke-linejoin:round"></path><path d="M165.55,122.48s4.33-4.45,5.77-1.29-2.28,8.69-3.7,10.06-2.92-1.47-2.92-1.47" style="fill:#fff;stroke:#263238;stroke-linecap:round;stroke-linejoin:round"></path><path d="M166.8,119.82c0,11-6.47,26.16-14.45,26.16s-14.45-15.16-14.45-26.16,6.47-19.91,14.45-19.91S166.8,108.82,166.8,119.82Z" style="fill:#fff;stroke:#263238;stroke-linecap:round;stroke-linejoin:round"></path><ellipse cx="147.59" cy="123.75" rx="0.81" ry="2.07" style="fill:#263238"></ellipse><ellipse cx="155.99" cy="123.75" rx="0.81" ry="2.07" style="fill:#263238"></ellipse><path d="M144.71,119.84s.46-3.22,5.53-3.22" style="fill:none;stroke:#263238;stroke-linecap:round;stroke-linejoin:round"></path><path d="M160.45,119.84s-.46-3.22-5.53-3.22" style="fill:none;stroke:#263238;stroke-linecap:round;stroke-linejoin:round"></path><path d="M153.31,121.91s-.35,5.59-.35,6.81-1.05,2.45-2.27,1.58l-1.22-.88" style="fill:none;stroke:#263238;stroke-linecap:round;stroke-linejoin:round"></path><path d="M147.47,133.89s3,2.07,8.06,0" style="fill:none;stroke:#263238;stroke-linecap:round;stroke-linejoin:round"></path><path d="M163.73,114.3s-1,2.83.2,4,1,3,.81,5.45.4,3.84,1.21,3,1.62-12.12,1.62-12.93S163.73,114.3,163.73,114.3Z" style="fill:#263238;stroke:#263238;stroke-linecap:round;stroke-linejoin:round"></path><path d="M138.07,118.14l.4,6.26a1.26,1.26,0,0,0,1.62-.81c.4-1.21-.61-5,.4-7.07s4.85-3,5-4.45-2-4-2-5,.61-2,5.66,2.83,14.35,5.86,19.19,4.65-1-8.49-2.22-10.1,3.24-.41.81-4.45-10.91-6.67-19.4-3.64-13.33,7.28-12.12,11.52S138.07,118.14,138.07,118.14Z" style="fill:#263238;stroke:#263238;stroke-linecap:round;stroke-linejoin:round"></path><path d="M143.33,103a26.51,26.51,0,0,1,12.66-.92" style="fill:none;stroke:#fff;stroke-linecap:round;stroke-linejoin:round"></path><path d="M162.9,110.42a17.63,17.63,0,0,1-6.45-1.86c-7.83-3.69-13.35-3.92-13.35-3.92l-2.77.46-2.07-1.84" style="fill:none;stroke:#fff;stroke-linecap:round;stroke-linejoin:round"></path><path d="M166.59,107.63a1.56,1.56,0,0,1-.63,2.17" style="fill:none;stroke:#fff;stroke-linecap:round;stroke-linejoin:round"></path><path d="M191.36,409.18s-5.24-72.21-6.45-101.26-7.27-73.84-7.27-73.84l-18.1-2.21h-15l-19.82,1.75s-3.35,7.11-4.51,21c-1.28,15.28-.4,38.09-1,53.33-1.21,29.05-6.45,101.26-6.45,101.26l-4.44,4.44v3.23l12.1,4.84L151.82,274l.2-.34.2.34,31.47,147.66,12.11-4.84v-3.23Z" style="fill:#263238;stroke:#263238;stroke-linecap:round;stroke-linejoin:round"></path><rect x="147.36" y="234.02" width="9.08" height="4.68" style="fill:#fff;stroke:#263238;stroke-linecap:round;stroke-linejoin:round"></rect><polygon points="108.25 416.85 95.34 427.74 95.34 430.17 119.14 430.17 120.35 421.69 108.25 416.85" style="fill:#DB162F;stroke:#263238;stroke-linecap:round;stroke-linejoin:round"></polygon><polygon points="119.14 430.17 119.49 427.74 95.34 427.74 95.34 430.17 119.14 430.17" style="fill:#fff;stroke:#263238;stroke-linecap:round;stroke-linejoin:round"></polygon><polygon points="195.4 416.85 208.31 427.74 208.31 430.17 184.5 430.17 183.29 421.69 195.4 416.85" style="fill:#DB162F;stroke:#263238;stroke-linecap:round;stroke-linejoin:round"></polygon><polygon points="184.5 430.17 184.16 427.74 208.31 427.74 208.31 430.17 184.5 430.17" style="fill:#fff;stroke:#263238;stroke-linecap:round;stroke-linejoin:round"></polygon><path d="M195.23,208.48l-9.93,4.59a2.38,2.38,0,0,0-1.1,3.29l2,3.74a2.39,2.39,0,0,0,3.34.93l8.8-5.28A2.39,2.39,0,0,0,199.4,213l-.88-3A2.38,2.38,0,0,0,195.23,208.48Z" style="fill:#fff;stroke:#263238;stroke-linecap:round;stroke-linejoin:round"></path><path d="M105.6,210.88l-11.51-5.64s-5,3.87-4.51,8.19a8.85,8.85,0,0,0,3.77,6.28l13.72-.59Z" style="fill:#fff;stroke:#263238;stroke-linecap:round;stroke-linejoin:round"></path><path d="M127.48,242.58l-5-.05-16.14-25.18s-7.83-3.63-13,2.36l25.32,27.61,2.49,6.85,5.65-7.73,5.9,1.9,1.56-1.65Z" style="fill:#fff;stroke:#263238;stroke-linecap:round;stroke-linejoin:round"></path></g><g id="freepik--Ground--inject-12"><line x1="48" y1="430.16" x2="456" y2="430.16" style="fill:none;stroke:#263238;stroke-linecap:round;stroke-linejoin:round"></line></g></svg>
