<?xml version="1.0" encoding="UTF-8"?>
<!DOCTYPE svg PUBLIC "-//W3C//DTD SVG 1.1//EN" "http://www.w3.org/Graphics/SVG/1.1/DTD/svg11.dtd">
<svg xmlns="http://www.w3.org/2000/svg" version="1.1" width="512px" height="512px" style="shape-rendering:geometricPrecision; text-rendering:geometricPrecision; image-rendering:optimizeQuality; fill-rule:evenodd; clip-rule:evenodd" xmlns:xlink="http://www.w3.org/1999/xlink">
<g><path style="opacity:0.955" fill="#004762" d="M 104.5,39.5 C 110.816,38.5762 115.983,40.5762 120,45.5C 129.617,58.7851 139.617,71.7851 150,84.5C 165.863,105.402 178.863,128.069 189,152.5C 203.645,193.086 195.145,227.92 163.5,257C 135.656,277.154 105.656,281.154 73.5,269C 32.9531,248.075 16.1198,214.908 23,169.5C 27.6069,151.013 34.9402,133.679 45,117.5C 60.8637,92.4396 78.197,68.4396 97,45.5C 99.1141,42.8792 101.614,40.8792 104.5,39.5 Z M 107.5,73.5 C 131.963,100.372 151.463,130.705 166,164.5C 176.267,197.036 167.434,222.869 139.5,242C 110.673,256.168 84.8396,252.001 62,229.5C 45.6678,208.832 42.3345,186.165 52,161.5C 60.1314,143.23 69.798,125.897 81,109.5C 90.0959,97.6187 98.9292,85.6187 107.5,73.5 Z"/></g>
<g><path style="opacity:0.961" fill="#004762" d="M 511.5,320.5 C 511.5,346.167 511.5,371.833 511.5,397.5C 510.394,400.402 509.228,403.402 508,406.5C 502.487,414.676 495.153,420.676 486,424.5C 478.066,454.144 458.733,469.811 428,471.5C 392.529,468.029 373.029,448.529 369.5,413C 374.372,372.794 397.039,353.461 437.5,355C 460.205,359.202 475.872,372.036 484.5,393.5C 485.192,392.975 485.692,392.308 486,391.5C 486.768,368.816 486.602,346.15 485.5,323.5C 420.166,323.667 354.832,323.5 289.5,323C 282.309,319.795 275.642,315.795 269.5,311C 251.654,295.153 235.154,277.987 220,259.5C 215.174,252.469 215.34,245.636 220.5,239C 226.167,235.667 231.833,235.667 237.5,239C 253.876,262.376 273.876,282.043 297.5,298C 355.167,298.667 412.833,298.667 470.5,298C 442.055,271.215 412.722,245.549 382.5,221C 371.045,211.895 358.379,204.895 344.5,200C 338.574,198.568 332.574,197.568 326.5,197C 293.167,196.667 259.833,196.333 226.5,196C 215.935,189.606 214.935,181.939 223.5,173C 225.392,172.027 227.392,171.36 229.5,171C 264.515,170.129 299.515,170.462 334.5,172C 354.768,174.639 373.102,181.972 389.5,194C 429.819,224.982 467.652,258.815 503,295.5C 507.37,303.446 510.203,311.779 511.5,320.5 Z M 420.5,380.5 C 439.549,378.269 452.716,385.935 460,403.5C 463.942,422.449 457.109,435.949 439.5,444C 414.059,448.885 399.392,438.552 395.5,413C 396.901,396.773 405.234,385.94 420.5,380.5 Z"/></g>
<g><path style="opacity:0.94" fill="#004762" d="M 131.5,173.5 C 144.171,174.795 149.005,181.795 146,194.5C 139.442,217.077 124.608,226.577 101.5,223C 92.7844,214.012 93.7844,206.345 104.5,200C 116.135,199.365 121.968,193.198 122,181.5C 124.362,177.755 127.528,175.089 131.5,173.5 Z"/></g>
<g><path style="opacity:0.959" fill="#004762" d="M 129.5,295.5 C 138.044,295.217 143.211,299.217 145,307.5C 145.008,336.646 145.675,365.646 147,394.5C 162.002,360.751 187.502,348.585 223.5,358C 242.559,366.06 254.892,380.06 260.5,400C 285.5,400.333 310.5,400.667 335.5,401C 343.374,405.051 345.541,411.218 342,419.5C 340.337,421.917 338.171,423.75 335.5,425C 310.5,425.333 285.5,425.667 260.5,426C 247.191,463.339 221.191,477.339 182.5,468C 162.467,459.466 149.8,444.633 144.5,423.5C 133.199,419.365 125.365,411.699 121,400.5C 119.37,368.54 119.037,336.54 120,304.5C 121.871,300.006 125.038,297.006 129.5,295.5 Z M 202.5,379.5 C 222.777,381.61 233.777,392.777 235.5,413C 234,433.167 223.167,444 203,445.5C 183.011,443.846 171.845,433.012 169.5,413C 172.011,393.323 183.011,382.156 202.5,379.5 Z"/></g>
<g><path style="opacity:0.945" fill="#004762" d="M 189.5,298.5 C 197.943,298.062 206.277,298.562 214.5,300C 220.462,304.162 222.296,309.662 220,316.5C 218.5,319.333 216.333,321.5 213.5,323C 204.73,323.94 196.064,323.607 187.5,322C 179.074,313.464 179.741,305.63 189.5,298.5 Z"/></g>
<g><path style="opacity:0.97" fill="#004762" d="M -0.5,345.5 C -0.5,341.833 -0.5,338.167 -0.5,334.5C 1.50583,331.645 4.17249,329.479 7.5,328C 31.1667,327.333 54.8333,327.333 78.5,328C 86.6698,331.843 89.1698,338.009 86,346.5C 84.3374,348.917 82.1707,350.75 79.5,352C 55.1667,352.667 30.8333,352.667 6.5,352C 3.64238,350.306 1.30904,348.139 -0.5,345.5 Z"/></g>
<g><path style="opacity:0.929" fill="#004762" d="M 43.5,371.5 C 55.9085,371.061 68.2419,371.561 80.5,373C 88.5833,378.916 89.5833,385.916 83.5,394C 81.7254,395.439 79.7254,396.439 77.5,397C 65.0957,397.939 52.7624,397.606 40.5,396C 32.7978,390.287 31.6311,383.454 37,375.5C 39.0948,373.875 41.2615,372.542 43.5,371.5 Z"/></g>
<g><path style="opacity:0.919" fill="#004762" d="M 198.5,400.5 C 210.985,399.484 216.485,405.151 215,417.5C 209.461,426.307 202.294,427.807 193.5,422C 188.276,413.051 189.943,405.885 198.5,400.5 Z"/></g>
<g><path style="opacity:0.909" fill="#004762" d="M 423.5,400.5 C 435.615,399.119 441.449,404.452 441,416.5C 436.536,425.823 429.703,427.99 420.5,423C 413.186,414.384 414.186,406.884 423.5,400.5 Z"/></g>
</svg>
