<?xml version="1.0" encoding="UTF-8"?>
<!DOCTYPE svg PUBLIC "-//W3C//DTD SVG 1.1//EN" "http://www.w3.org/Graphics/SVG/1.1/DTD/svg11.dtd">
<svg xmlns="http://www.w3.org/2000/svg" version="1.1" width="512px" height="512px" style="shape-rendering:geometricPrecision; text-rendering:geometricPrecision; image-rendering:optimizeQuality; fill-rule:evenodd; clip-rule:evenodd" xmlns:xlink="http://www.w3.org/1999/xlink">
<g><path style="opacity:0.947" fill="#fb7468" d="M 113.5,41.5 C 119.185,40.8929 123.685,42.8929 127,47.5C 127.667,65.1667 127.667,82.8333 127,100.5C 122.803,106.471 117.303,107.971 110.5,105C 108.383,103.269 106.883,101.102 106,98.5C 105.333,82.1667 105.333,65.8333 106,49.5C 107.353,45.6499 109.853,42.9832 113.5,41.5 Z"/></g>
<g><path style="opacity:0.947" fill="#fb7468" d="M 391.5,41.5 C 397.957,40.9749 402.457,43.6416 405,49.5C 405.667,65.8333 405.667,82.1667 405,98.5C 400.909,106.879 394.742,108.712 386.5,104C 385.299,103.097 384.465,101.931 384,100.5C 383.333,82.8333 383.333,65.1667 384,47.5C 386.134,44.8474 388.634,42.8474 391.5,41.5 Z"/></g>
<g><path style="opacity:0.966" fill="#fb7468" d="M 75.5,63.5 C 78.8333,63.5 82.1667,63.5 85.5,63.5C 85.5,70.8333 85.5,78.1667 85.5,85.5C 72.2821,86.2171 65.1154,93.2171 64,106.5C 63.5001,120.496 63.3334,134.496 63.5,148.5C 191.5,148.5 319.5,148.5 447.5,148.5C 447.667,134.496 447.5,120.496 447,106.5C 445.885,93.2171 438.718,86.2171 425.5,85.5C 425.5,78.1667 425.5,70.8333 425.5,63.5C 449.931,64.0945 464.431,76.4278 469,100.5C 469.667,203.833 469.667,307.167 469,410.5C 465.813,430.02 454.646,442.186 435.5,447C 315.5,447.667 195.5,447.667 75.5,447C 56.3541,442.186 45.1874,430.02 42,410.5C 41.3333,307.167 41.3333,203.833 42,100.5C 45.3746,80.965 56.5412,68.6316 75.5,63.5 Z M 63.5,170.5 C 191.5,170.5 319.5,170.5 447.5,170.5C 447.667,248.501 447.5,326.501 447,404.5C 446.289,414.776 441.122,421.609 431.5,425C 314.167,425.667 196.833,425.667 79.5,425C 69.878,421.609 64.7113,414.776 64,404.5C 63.5,326.501 63.3333,248.501 63.5,170.5 Z M 106.5,234.5 C 120.5,234.5 134.5,234.5 148.5,234.5C 148.5,241.5 148.5,248.5 148.5,255.5C 134.5,255.5 120.5,255.5 106.5,255.5C 106.5,248.5 106.5,241.5 106.5,234.5 Z M 234.5,234.5 C 248.5,234.5 262.5,234.5 276.5,234.5C 276.5,241.5 276.5,248.5 276.5,255.5C 262.5,255.5 248.5,255.5 234.5,255.5C 234.5,248.5 234.5,241.5 234.5,234.5 Z M 362.5,234.5 C 376.5,234.5 390.5,234.5 404.5,234.5C 404.5,241.5 404.5,248.5 404.5,255.5C 390.5,255.5 376.5,255.5 362.5,255.5C 362.5,248.5 362.5,241.5 362.5,234.5 Z M 106.5,341.5 C 120.5,341.5 134.5,341.5 148.5,341.5C 148.5,348.167 148.5,354.833 148.5,361.5C 134.5,361.5 120.5,361.5 106.5,361.5C 106.5,354.833 106.5,348.167 106.5,341.5 Z M 234.5,341.5 C 248.5,341.5 262.5,341.5 276.5,341.5C 276.5,348.167 276.5,354.833 276.5,361.5C 262.5,361.5 248.5,361.5 234.5,361.5C 234.5,354.833 234.5,348.167 234.5,341.5 Z M 362.5,341.5 C 376.5,341.5 390.5,341.5 404.5,341.5C 404.5,348.167 404.5,354.833 404.5,361.5C 390.5,361.5 376.5,361.5 362.5,361.5C 362.5,354.833 362.5,348.167 362.5,341.5 Z"/></g>
<g><path style="opacity:0.967" fill="#fb7468" d="M 148.5,63.5 C 219.833,63.5 291.167,63.5 362.5,63.5C 362.5,70.8333 362.5,78.1667 362.5,85.5C 291.167,85.5 219.833,85.5 148.5,85.5C 148.5,78.1667 148.5,70.8333 148.5,63.5 Z"/></g>
<g><path style="opacity:0.961" fill="#fb7468" d="M 100.5,212.5 C 118.503,212.333 136.503,212.5 154.5,213C 162.333,215.5 167.5,220.667 170,228.5C 170.667,239.5 170.667,250.5 170,261.5C 167.313,270.186 161.479,275.353 152.5,277C 135.833,277.667 119.167,277.667 102.5,277C 93.5207,275.353 87.6874,270.186 85,261.5C 84.3333,250.5 84.3333,239.5 85,228.5C 87.685,220.65 92.8517,215.316 100.5,212.5 Z M 106.5,234.5 C 106.5,241.5 106.5,248.5 106.5,255.5C 120.5,255.5 134.5,255.5 148.5,255.5C 148.5,248.5 148.5,241.5 148.5,234.5C 134.5,234.5 120.5,234.5 106.5,234.5 Z"/></g>
<g><path style="opacity:0.961" fill="#fb7468" d="M 228.5,212.5 C 246.503,212.333 264.503,212.5 282.5,213C 290.333,215.5 295.5,220.667 298,228.5C 298.667,239.5 298.667,250.5 298,261.5C 295.313,270.186 289.479,275.353 280.5,277C 263.833,277.667 247.167,277.667 230.5,277C 221.521,275.353 215.687,270.186 213,261.5C 212.333,250.5 212.333,239.5 213,228.5C 215.685,220.65 220.852,215.316 228.5,212.5 Z M 234.5,234.5 C 234.5,241.5 234.5,248.5 234.5,255.5C 248.5,255.5 262.5,255.5 276.5,255.5C 276.5,248.5 276.5,241.5 276.5,234.5C 262.5,234.5 248.5,234.5 234.5,234.5 Z"/></g>
<g><path style="opacity:0.961" fill="#fb7468" d="M 356.5,212.5 C 374.503,212.333 392.503,212.5 410.5,213C 418.333,215.5 423.5,220.667 426,228.5C 426.667,239.5 426.667,250.5 426,261.5C 423.313,270.186 417.479,275.353 408.5,277C 391.833,277.667 375.167,277.667 358.5,277C 349.521,275.353 343.687,270.186 341,261.5C 340.333,250.5 340.333,239.5 341,228.5C 343.685,220.65 348.852,215.316 356.5,212.5 Z M 362.5,234.5 C 362.5,241.5 362.5,248.5 362.5,255.5C 376.5,255.5 390.5,255.5 404.5,255.5C 404.5,248.5 404.5,241.5 404.5,234.5C 390.5,234.5 376.5,234.5 362.5,234.5 Z"/></g>
<g><path style="opacity:0.964" fill="#fb7468" d="M 99.5,319.5 C 118.17,319.333 136.836,319.5 155.5,320C 163.389,322.258 168.222,327.425 170,335.5C 170.667,346.167 170.667,356.833 170,367.5C 168.222,375.575 163.389,380.742 155.5,383C 136.833,383.667 118.167,383.667 99.5,383C 91.6111,380.742 86.7778,375.575 85,367.5C 84.3333,356.833 84.3333,346.167 85,335.5C 86.9469,327.393 91.7802,322.06 99.5,319.5 Z M 106.5,341.5 C 106.5,348.167 106.5,354.833 106.5,361.5C 120.5,361.5 134.5,361.5 148.5,361.5C 148.5,354.833 148.5,348.167 148.5,341.5C 134.5,341.5 120.5,341.5 106.5,341.5 Z"/></g>
<g><path style="opacity:0.964" fill="#fb7468" d="M 227.5,319.5 C 246.17,319.333 264.836,319.5 283.5,320C 291.389,322.258 296.222,327.425 298,335.5C 298.667,346.167 298.667,356.833 298,367.5C 296.222,375.575 291.389,380.742 283.5,383C 264.833,383.667 246.167,383.667 227.5,383C 219.611,380.742 214.778,375.575 213,367.5C 212.333,356.833 212.333,346.167 213,335.5C 214.947,327.393 219.78,322.06 227.5,319.5 Z M 234.5,341.5 C 234.5,348.167 234.5,354.833 234.5,361.5C 248.5,361.5 262.5,361.5 276.5,361.5C 276.5,354.833 276.5,348.167 276.5,341.5C 262.5,341.5 248.5,341.5 234.5,341.5 Z"/></g>
<g><path style="opacity:0.964" fill="#fb7468" d="M 355.5,319.5 C 374.17,319.333 392.836,319.5 411.5,320C 419.389,322.258 424.222,327.425 426,335.5C 426.667,346.167 426.667,356.833 426,367.5C 424.222,375.575 419.389,380.742 411.5,383C 392.833,383.667 374.167,383.667 355.5,383C 347.611,380.742 342.778,375.575 341,367.5C 340.333,356.833 340.333,346.167 341,335.5C 342.947,327.393 347.78,322.06 355.5,319.5 Z M 362.5,341.5 C 362.5,348.167 362.5,354.833 362.5,361.5C 376.5,361.5 390.5,361.5 404.5,361.5C 404.5,354.833 404.5,348.167 404.5,341.5C 390.5,341.5 376.5,341.5 362.5,341.5 Z"/></g>
</svg>
