<?xml version="1.0" encoding="UTF-8"?>
<!DOCTYPE svg PUBLIC "-//W3C//DTD SVG 1.1//EN" "http://www.w3.org/Graphics/SVG/1.1/DTD/svg11.dtd">
<svg xmlns="http://www.w3.org/2000/svg" version="1.1" width="512px" height="358px" style="shape-rendering:geometricPrecision; text-rendering:geometricPrecision; image-rendering:optimizeQuality; fill-rule:evenodd; clip-rule:evenodd" xmlns:xlink="http://www.w3.org/1999/xlink">
<g><path style="opacity:0.956" fill="#fb7468" d="M -0.5,323.5 C -0.5,227.5 -0.5,131.5 -0.5,35.5C 2.98533,23.1824 10.9853,15.349 23.5,12C 163.5,11.3333 303.5,11.3333 443.5,12C 446.366,13.3929 447.699,15.7262 447.5,19C 447.666,23.3484 445.666,26.015 441.5,27C 303.167,27.3333 164.833,27.6667 26.5,28C 19.3965,30.6953 15.5631,35.862 15,43.5C 14.3333,134.167 14.3333,224.833 15,315.5C 15.5631,323.138 19.3965,328.305 26.5,331C 32.2488,331.148 37.9155,331.814 43.5,333C 48.8426,338.019 48.5093,342.686 42.5,347C 21.2817,351.068 6.94834,343.235 -0.5,323.5 Z"/></g>
<g><path style="opacity:0.956" fill="#fb7468" d="M 511.5,35.5 C 511.5,131.5 511.5,227.5 511.5,323.5C 508.015,335.818 500.015,343.651 487.5,347C 347.5,347.667 207.5,347.667 67.5,347C 64.6339,345.607 63.3006,343.274 63.5,340C 63.3339,335.652 65.3339,332.985 69.5,332C 207.833,331.667 346.167,331.333 484.5,331C 491.604,328.305 495.437,323.138 496,315.5C 496.667,224.833 496.667,134.167 496,43.5C 495.437,35.862 491.604,30.6953 484.5,28C 478.751,27.8522 473.085,27.1856 467.5,26C 462.157,20.981 462.491,16.3144 468.5,12C 489.718,7.93156 504.052,15.7649 511.5,35.5 Z"/></g>
<g><path style="opacity:0.924" fill="#fb7468" d="M 428.5,61.5 C 432.115,61.2055 435.282,62.2055 438,64.5C 457.5,94.4031 460.833,126.07 448,159.5C 445.294,166.422 441.46,172.589 436.5,178C 427.39,180.563 423.556,177.063 425,167.5C 444.602,135.653 444.268,103.986 424,72.5C 422.776,67.626 424.276,63.9593 428.5,61.5 Z"/></g>
<g><path style="opacity:0.92" fill="#fb7468" d="M 401.5,80.5 C 405.603,79.7691 409.103,80.7691 412,83.5C 427.127,108.023 427.293,132.689 412.5,157.5C 405.437,163.203 400.437,161.703 397.5,153C 400.722,146.718 403.555,140.218 406,133.5C 409.692,118.271 407.025,104.271 398,91.5C 396.663,86.8721 397.83,83.2054 401.5,80.5 Z"/></g>
<g><path style="opacity:0.91" fill="#fb7468" d="M 376.5,98.5 C 380.95,98.1416 384.45,99.8083 387,103.5C 393.376,115.871 392.876,127.871 385.5,139.5C 378.935,143.683 374.269,142.016 371.5,134.5C 373.285,130.107 374.618,125.607 375.5,121C 375.344,117.183 374.178,113.683 372,110.5C 370.309,105.131 371.809,101.131 376.5,98.5 Z"/></g>
<g><path style="opacity:0.937" fill="#fb7468" d="M 73.5,107.5 C 90.5033,107.333 107.503,107.5 124.5,108C 134.858,111.026 141.025,117.859 143,128.5C 143.667,138.5 143.667,148.5 143,158.5C 141.062,169.107 134.895,175.94 124.5,179C 107.833,179.667 91.1667,179.667 74.5,179C 64.7432,176.909 58.5765,171.075 56,161.5C 55.3333,149.5 55.3333,137.5 56,125.5C 58.648,116.353 64.4814,110.353 73.5,107.5 Z M 76.5,123.5 C 80.1667,123.5 83.8333,123.5 87.5,123.5C 87.5,136.833 87.5,150.167 87.5,163.5C 84.1501,163.665 80.8168,163.498 77.5,163C 74.9427,162.315 73.1094,160.815 72,158.5C 71.3333,148.5 71.3333,138.5 72,128.5C 73.025,126.313 74.525,124.646 76.5,123.5 Z M 103.5,123.5 C 121.714,118.399 129.714,125.065 127.5,143.5C 127.333,147.833 127.167,152.167 127,156.5C 126.654,158.848 125.487,160.681 123.5,162C 116.95,163.42 110.284,163.92 103.5,163.5C 103.5,150.167 103.5,136.833 103.5,123.5 Z"/></g>
<g><path style="opacity:0.925" fill="#fb7468" d="M 60.5,211.5 C 86.1688,211.333 111.835,211.5 137.5,212C 144.82,216.6 145.154,221.6 138.5,227C 112.167,227.667 85.8333,227.667 59.5,227C 53.9385,221.353 54.2719,216.186 60.5,211.5 Z"/></g>
<g><path style="opacity:0.923" fill="#fb7468" d="M 164.5,211.5 C 190.169,211.333 215.835,211.5 241.5,212C 247.448,214.433 248.948,218.6 246,224.5C 245.097,225.701 243.931,226.535 242.5,227C 216.5,227.667 190.5,227.667 164.5,227C 159.311,224.087 158.144,219.92 161,214.5C 162.145,213.364 163.312,212.364 164.5,211.5 Z"/></g>
<g><path style="opacity:0.923" fill="#fb7468" d="M 269.5,211.5 C 295.169,211.333 320.835,211.5 346.5,212C 351.069,214.541 352.569,218.375 351,223.5C 349.786,225.049 348.286,226.215 346.5,227C 320.5,227.667 294.5,227.667 268.5,227C 263.465,223.987 262.298,219.82 265,214.5C 266.409,213.219 267.909,212.219 269.5,211.5 Z"/></g>
<g><path style="opacity:0.925" fill="#fb7468" d="M 373.5,211.5 C 399.169,211.333 424.835,211.5 450.5,212C 455.224,214.435 456.724,218.269 455,223.5C 453.833,224.667 452.667,225.833 451.5,227C 425.167,227.667 398.833,227.667 372.5,227C 365.952,221.451 366.285,216.285 373.5,211.5 Z"/></g>
<g><path style="opacity:0.933" fill="#fb7468" d="M 61.5,259.5 C 121.501,259.333 181.501,259.5 241.5,260C 247.098,262.695 248.598,266.862 246,272.5C 245.097,273.701 243.931,274.535 242.5,275C 181.5,275.667 120.5,275.667 59.5,275C 55.7235,272.045 54.5568,268.212 56,263.5C 57.4998,261.531 59.3331,260.198 61.5,259.5 Z"/></g>
<g><path style="opacity:0.925" fill="#fb7468" d="M 269.5,259.5 C 294.836,259.333 320.169,259.5 345.5,260C 350.906,261.98 352.739,265.814 351,271.5C 349.833,272.667 348.667,273.833 347.5,275C 321.167,275.667 294.833,275.667 268.5,275C 263.248,271.914 262.248,267.747 265.5,262.5C 266.901,261.479 268.235,260.479 269.5,259.5 Z"/></g>
</svg>
