<?xml version="1.0" encoding="UTF-8"?>
<!DOCTYPE svg PUBLIC "-//W3C//DTD SVG 1.1//EN" "http://www.w3.org/Graphics/SVG/1.1/DTD/svg11.dtd">
<svg xmlns="http://www.w3.org/2000/svg" version="1.1" width="512px" height="512px" style="shape-rendering:geometricPrecision; text-rendering:geometricPrecision; image-rendering:optimizeQuality; fill-rule:evenodd; clip-rule:evenodd" xmlns:xlink="http://www.w3.org/1999/xlink">
<g><path style="opacity:0.985" fill="#fb7468" d="M 69.5,63.5 C 193.5,63.3333 317.5,63.5 441.5,64C 461.333,69.1667 473.833,81.6667 479,101.5C 479.667,204.167 479.667,306.833 479,409.5C 473.833,429.333 461.333,441.833 441.5,447C 317.5,447.667 193.5,447.667 69.5,447C 49.6667,441.833 37.1667,429.333 32,409.5C 31.3333,306.833 31.3333,204.167 32,101.5C 37.3488,81.6518 49.8488,68.9852 69.5,63.5 Z M 79.5,95.5 C 196.834,95.3333 314.167,95.5 431.5,96C 440.667,97.1667 445.833,102.333 447,111.5C 447.667,167.5 447.667,223.5 447,279.5C 426.5,259 406,238.5 385.5,218C 366.818,205.235 347.484,204.235 327.5,215C 323.367,218.131 319.534,221.631 316,225.5C 287.714,262.121 259.048,298.454 230,334.5C 212.833,317.333 195.667,300.167 178.5,283C 157.514,267.827 136.514,267.827 115.5,283C 113.333,285.167 111.167,287.333 109,289.5C 94.3847,309.783 79.3847,329.783 64,349.5C 63.3333,270.167 63.3333,190.833 64,111.5C 65.3459,102.322 70.5125,96.9891 79.5,95.5 Z M 186.5,160.5 C 203.765,160.257 209.598,168.257 204,184.5C 197.749,191.011 190.582,192.177 182.5,188C 175.989,181.749 174.823,174.582 179,166.5C 181.114,163.879 183.614,161.879 186.5,160.5 Z M 349.5,240.5 C 354.449,239.959 359.116,240.792 363.5,243C 391.333,270.833 419.167,298.667 447,326.5C 447.667,350.833 447.667,375.167 447,399.5C 445.833,408.667 440.667,413.833 431.5,415C 357.5,415.667 283.5,415.667 209.5,415C 253.333,359.167 297.167,303.333 341,247.5C 343.441,244.546 346.275,242.213 349.5,240.5 Z M 144.5,304.5 C 148.813,304.548 152.813,305.715 156.5,308C 174.167,325.667 191.833,343.333 209.5,361C 195.5,379 181.5,397 167.5,415C 138.167,415.667 108.833,415.667 79.5,415C 72.4031,414.629 67.7364,411.129 65.5,404.5C 88.1068,373.384 110.94,342.384 134,311.5C 136.998,308.262 140.498,305.929 144.5,304.5 Z"/></g>
<g><path style="opacity:0.964" fill="#fb7468" d="M 181.5,127.5 C 211.16,124.564 230.326,137.231 239,165.5C 242.421,195.18 229.921,214.346 201.5,223C 171.82,226.421 152.654,213.921 144,185.5C 140.699,155.735 153.199,136.402 181.5,127.5 Z M 186.5,160.5 C 183.614,161.879 181.114,163.879 179,166.5C 174.823,174.582 175.989,181.749 182.5,188C 190.582,192.177 197.749,191.011 204,184.5C 209.598,168.257 203.765,160.257 186.5,160.5 Z"/></g>
</svg>
