<?xml version="1.0" encoding="UTF-8"?>
<!DOCTYPE svg PUBLIC "-//W3C//DTD SVG 1.1//EN" "http://www.w3.org/Graphics/SVG/1.1/DTD/svg11.dtd">
<svg xmlns="http://www.w3.org/2000/svg" version="1.1" width="512px" height="512px" style="shape-rendering:geometricPrecision; text-rendering:geometricPrecision; image-rendering:optimizeQuality; fill-rule:evenodd; clip-rule:evenodd" xmlns:xlink="http://www.w3.org/1999/xlink">
<g><path style="opacity:0.974" fill="#fb7468" d="M 121.5,-0.5 C 210.833,-0.5 300.167,-0.5 389.5,-0.5C 457.833,12.5 498.5,53.1667 511.5,121.5C 511.5,210.833 511.5,300.167 511.5,389.5C 498.5,457.833 457.833,498.5 389.5,511.5C 300.167,511.5 210.833,511.5 121.5,511.5C 53.1667,498.5 12.5,457.833 -0.5,389.5C -0.5,300.167 -0.5,210.833 -0.5,121.5C 12.5,53.1667 53.1667,12.5 121.5,-0.5 Z M 124.5,30.5 C 211.834,30.3333 299.167,30.5 386.5,31C 436.009,39.8415 466.842,68.6748 479,117.5C 479.998,124.467 480.664,131.467 481,138.5C 481.667,216.5 481.667,294.5 481,372.5C 478.112,423.371 452.945,457.871 405.5,476C 394.73,479.158 383.73,480.824 372.5,481C 294.5,481.667 216.5,481.667 138.5,481C 91.2538,478.723 57.7538,456.223 38,413.5C 34.5725,404.79 32.2392,395.79 31,386.5C 30.0179,296.807 30.3512,207.141 32,117.5C 44.333,68.6628 75.1664,39.6628 124.5,30.5 Z M 395.5,96.5 C 405.317,96.1488 409.817,100.815 409,110.5C 406.221,117.049 401.388,119.216 394.5,117C 388.891,113.723 387.058,108.89 389,102.5C 390.914,100.144 393.081,98.1435 395.5,96.5 Z M 241.5,146.5 C 295.334,143.566 333.834,166.233 357,214.5C 373.326,262.024 363.493,303.191 327.5,338C 293.477,365.393 255.811,371.726 214.5,357C 166.08,333.86 143.58,295.36 147,241.5C 157.346,188.654 188.846,156.987 241.5,146.5 Z"/></g>
<g><path style="opacity:0.963" fill="#fb7468" d="M 391.5,65.5 C 417.005,63.6589 433.172,74.9922 440,99.5C 442.563,121.216 434.063,136.716 414.5,146C 391.433,152.976 373.6,146.142 361,125.5C 352.56,103.152 358.06,84.9854 377.5,71C 382.159,68.8421 386.825,67.0088 391.5,65.5 Z M 395.5,96.5 C 393.081,98.1435 390.914,100.144 389,102.5C 387.058,108.89 388.891,113.723 394.5,117C 401.388,119.216 406.221,117.049 409,110.5C 409.817,100.815 405.317,96.1488 395.5,96.5 Z"/></g>
<g><path style="opacity:0.963" fill="#fb7468" d="M 239.5,115.5 C 300.006,111.833 346.172,135.5 378,186.5C 396.702,221.522 400.702,258.189 390,296.5C 374.167,343 343,374.167 296.5,390C 238.819,404.793 189.653,390.627 149,347.5C 117.068,308.083 107.734,263.75 121,214.5C 136.833,168 168,136.833 214.5,121C 222.877,118.722 231.21,116.889 239.5,115.5 Z M 241.5,146.5 C 188.846,156.987 157.346,188.654 147,241.5C 143.58,295.36 166.08,333.86 214.5,357C 255.811,371.726 293.477,365.393 327.5,338C 363.493,303.191 373.326,262.024 357,214.5C 333.834,166.233 295.334,143.566 241.5,146.5 Z"/></g>
</svg>
