<?xml version="1.0" encoding="UTF-8"?>
<!DOCTYPE svg PUBLIC "-//W3C//DTD SVG 1.1//EN" "http://www.w3.org/Graphics/SVG/1.1/DTD/svg11.dtd">
<svg xmlns="http://www.w3.org/2000/svg" version="1.1" width="512px" height="512px" style="shape-rendering:geometricPrecision; text-rendering:geometricPrecision; image-rendering:optimizeQuality; fill-rule:evenodd; clip-rule:evenodd" xmlns:xlink="http://www.w3.org/1999/xlink">
<g><path style="opacity:0.991" fill="#fb7468" d="M 233.5,-0.5 C 248.167,-0.5 262.833,-0.5 277.5,-0.5C 377.766,12.0408 449.266,64.0408 492,155.5C 502.296,180.684 508.796,206.684 511.5,233.5C 511.5,248.167 511.5,262.833 511.5,277.5C 500.409,369.216 454.742,437.716 374.5,483C 343.811,498.512 311.478,508.012 277.5,511.5C 262.833,511.5 248.167,511.5 233.5,511.5C 141.796,500.413 73.2961,454.747 28,374.5C 12.6975,344.104 3.19749,312.104 -0.5,278.5C -0.5,263.5 -0.5,248.5 -0.5,233.5C 10.5909,141.784 56.2576,73.2844 136.5,28C 167.189,12.4884 199.522,2.98836 233.5,-0.5 Z M 146.5,121.5 C 165.318,119.817 177.818,127.817 184,145.5C 186.56,166.926 177.393,180.093 156.5,185C 135.131,184.969 123.131,174.302 120.5,153C 122.479,136.864 131.146,126.364 146.5,121.5 Z M 313.5,206.5 C 361.061,202.231 386.228,223.898 389,271.5C 389.5,310.832 389.667,350.165 389.5,389.5C 371.167,389.5 352.833,389.5 334.5,389.5C 334.969,352.126 334.469,314.793 333,277.5C 329.981,262.147 320.647,254.481 305,254.5C 286.708,254.459 276.041,263.459 273,281.5C 271.539,317.465 271.039,353.465 271.5,389.5C 253.167,389.5 234.833,389.5 216.5,389.5C 216.5,329.833 216.5,270.167 216.5,210.5C 234.167,210.5 251.833,210.5 269.5,210.5C 269.169,218.86 269.502,227.193 270.5,235.5C 280.672,219.586 295.005,209.92 313.5,206.5 Z M 125.5,210.5 C 143.833,210.5 162.167,210.5 180.5,210.5C 180.5,270.167 180.5,329.833 180.5,389.5C 162.167,389.5 143.833,389.5 125.5,389.5C 125.5,329.833 125.5,270.167 125.5,210.5 Z"/></g>
</svg>
