<?xml version="1.0" encoding="UTF-8"?>
<!DOCTYPE svg PUBLIC "-//W3C//DTD SVG 1.1//EN" "http://www.w3.org/Graphics/SVG/1.1/DTD/svg11.dtd">
<svg xmlns="http://www.w3.org/2000/svg" version="1.1" width="30px" height="30px" style="shape-rendering:geometricPrecision; text-rendering:geometricPrecision; image-rendering:optimizeQuality; fill-rule:evenodd; clip-rule:evenodd" xmlns:xlink="http://www.w3.org/1999/xlink">
<g><path style="opacity:0.876" fill="#fb7368" d="M 9.5,-0.5 C 12.8333,-0.5 16.1667,-0.5 19.5,-0.5C 25.9,4.46082 27.0666,10.4608 23,17.5C 20.2755,21.3845 17.7755,25.3845 15.5,29.5C 14.8333,29.5 14.1667,29.5 13.5,29.5C 9.23284,23.4654 5.89951,16.9654 3.5,10C 3.54189,8.03255 4.04189,6.19922 5,4.5C 6.70733,2.96252 8.20733,1.29585 9.5,-0.5 Z M 12.5,5.5 C 18.9918,5.65823 20.6585,8.49157 17.5,14C 13.2598,15.5389 10.5932,14.2056 9.5,10C 9.95669,8.05979 10.9567,6.55979 12.5,5.5 Z"/></g>
</svg>
