<?xml version="1.0" encoding="UTF-8"?>
<!DOCTYPE svg PUBLIC "-//W3C//DTD SVG 1.1//EN" "http://www.w3.org/Graphics/SVG/1.1/DTD/svg11.dtd">
<svg xmlns="http://www.w3.org/2000/svg" version="1.1" width="500px" height="500px" style="shape-rendering:geometricPrecision; text-rendering:geometricPrecision; image-rendering:optimizeQuality; fill-rule:evenodd; clip-rule:evenodd" xmlns:xlink="http://www.w3.org/1999/xlink">
<g><path style="opacity:1" fill="#4d4c51" d="M 188.5,457.5 C 195.214,453.633 201.547,449.133 207.5,444C 206.391,443.362 205.225,442.862 204,442.5C 199.581,445.297 195.415,448.464 191.5,452C 189.536,453.451 188.203,455.284 187.5,457.5C 147.467,447.399 113.133,427.732 84.5,398.5C 91.1451,395.512 97.8117,392.512 104.5,389.5C 105.44,386.948 104.44,386.114 101.5,387C 94.9445,389.77 88.9445,393.27 83.5,397.5C 68.4961,383.147 56.1627,366.814 46.5,348.5C 47.7421,349.043 49.0755,349.377 50.5,349.5C 56.7642,348.158 63.0975,347.324 69.5,347C 71.0368,345.89 71.7035,344.39 71.5,342.5C 62.9202,343.549 54.5869,345.216 46.5,347.5C 28.6742,316.334 19.3409,282.667 18.5,246.5C 27.4274,248.109 36.4274,248.442 45.5,247.5C 45.8333,246.833 46.1667,246.167 46.5,245.5C 37.1069,244.196 27.7735,244.196 18.5,245.5C 17.8132,228.976 19.1466,212.642 22.5,196.5C 30.299,199.116 38.299,201.116 46.5,202.5C 48.3186,202.658 49.6519,201.991 50.5,200.5C 41.2865,197.254 31.9532,195.587 22.5,195.5C 25.8493,178.405 31.1826,162.071 38.5,146.5C 45.8278,129.826 55.1611,114.492 66.5,100.5C 106.889,49.2917 159.889,20.4584 225.5,14C 275.963,10.2414 323.63,19.9081 368.5,43C 383.95,51.7837 398.284,62.117 411.5,74C 415.725,77.7218 419.392,81.8885 422.5,86.5C 421.998,87.521 421.332,87.6877 420.5,87C 368.049,45.5057 309.049,32.1724 243.5,47C 167.955,69.2115 120.122,118.378 100,194.5C 84.65,273.784 106.817,340.284 166.5,394C 226.117,440.103 291.784,451.103 363.5,427C 385.073,418.554 404.74,407.054 422.5,392.5C 422.833,392.833 423.167,393.167 423.5,393.5C 379.411,440.39 324.911,464.39 260,465.5C 235.681,465.82 211.848,463.153 188.5,457.5 Z"/></g>
<g><path style="opacity:1" fill="#09080a" d="M 199.5,19.5 C 208.789,22.3106 217.455,26.4772 225.5,32C 224.07,33.4404 222.403,33.7737 220.5,33C 214.5,29.6667 208.5,26.3333 202.5,23C 200.937,22.2411 199.937,21.0744 199.5,19.5 Z"/></g>
<g><path style="opacity:1" fill="#0a0a0b" d="M 149.5,35.5 C 158.644,38.7386 167.311,43.0719 175.5,48.5C 174.672,49.4147 173.672,50.0814 172.5,50.5C 166.488,46.4925 160.155,42.9925 153.5,40C 151.365,39.1237 150.031,37.6237 149.5,35.5 Z"/></g>
<g><path style="opacity:1" fill="#09090a" d="M 106.5,62.5 C 115.789,65.3106 124.455,69.4772 132.5,75C 131.07,76.4404 129.403,76.7737 127.5,76C 121.5,72.6667 115.5,69.3333 109.5,66C 107.937,65.2411 106.937,64.0744 106.5,62.5 Z"/></g>
<g><path style="opacity:1" fill="#fbbc39" d="M 281.5,61.5 C 288.863,61.1694 296.197,61.5027 303.5,62.5C 297.489,68.6788 291.823,75.1788 286.5,82C 247.493,78.3347 211.827,87.3347 179.5,109C 175.65,111.761 171.983,114.761 168.5,118C 167.4,118.432 166.733,117.932 166.5,116.5C 197.854,83.9927 236.188,65.6593 281.5,61.5 Z"/></g>
<g><path style="opacity:1" fill="#f49c36" d="M 324.5,64.5 C 339.056,68.242 353.389,72.5753 367.5,77.5C 360.014,84.4854 352.681,91.652 345.5,99C 343.5,99.6667 341.5,99.6667 339.5,99C 328.583,93.4172 317.249,88.9172 305.5,85.5C 311.486,78.1812 317.819,71.1812 324.5,64.5 Z"/></g>
<g><path style="opacity:1" fill="#ef7c36" d="M 380.5,84.5 C 383.425,84.4598 386.091,85.2932 388.5,87C 397.346,93.2567 406.012,99.7567 414.5,106.5C 405.805,116.028 396.639,125.028 387,133.5C 377.151,125.313 367.651,116.813 358.5,108C 365.603,100.06 372.936,92.2265 380.5,84.5 Z"/></g>
<g><path style="opacity:1" fill="#0a0a0b" d="M 66.5,100.5 C 76.214,103.022 85.214,107.189 93.5,113C 92.0696,114.44 90.403,114.774 88.5,114C 80.8625,109.696 73.5292,105.196 66.5,100.5 Z"/></g>
<g><path style="opacity:1" fill="#ec672c" d="M 423.5,118.5 C 426.959,119.436 429.793,121.436 432,124.5C 438.254,132.018 443.754,140.018 448.5,148.5C 438.562,160.107 427.895,171.107 416.5,181.5C 410.739,169.479 404.072,157.979 396.5,147C 405.326,137.34 414.326,127.84 423.5,118.5 Z"/></g>
<g><path style="opacity:1" fill="#e52c2a" d="M 300.5,245.5 C 301.292,251.13 301.625,256.797 301.5,262.5C 299.914,271.94 294.914,279.106 286.5,284C 266.318,292.828 250.818,287.661 240,268.5C 234.164,248.346 240.664,233.846 259.5,225C 263.773,223.97 268.106,223.303 272.5,223C 273.833,222.333 275.167,221.667 276.5,221C 304.167,192 331.833,163 359.5,134C 360.448,133.517 361.448,133.351 362.5,133.5C 343.468,168.557 323.634,203.224 303,237.5C 301.659,240.022 300.826,242.689 300.5,245.5 Z"/></g>
<g><path style="opacity:1" fill="#0b0b0c" d="M 38.5,146.5 C 48.5503,148.35 58.2169,151.517 67.5,156C 66.6008,157.236 65.4341,158.07 64,158.5C 55.132,154.811 46.632,150.811 38.5,146.5 Z"/></g>
<g><path style="opacity:0.999" fill="#eb5d31" d="M 179.5,375.5 C 179.5,374.167 180.167,373.5 181.5,373.5C 230.193,402.448 280.86,406.281 333.5,385C 388.911,357.723 419.744,313.223 426,251.5C 426.5,244.174 426.666,236.841 426.5,229.5C 426.904,224.217 426.238,219.217 424.5,214.5C 423.44,209.699 422.44,204.866 421.5,200C 421.625,198.373 422.125,196.873 423,195.5C 433.5,185 444,174.5 454.5,164C 455.996,163.493 457.163,163.993 458,165.5C 484.666,228.823 478.666,288.823 440,345.5C 393.97,404.521 333.803,428.021 259.5,416C 228.95,409.56 202.284,396.06 179.5,375.5 Z"/></g>
<g><path style="opacity:1" fill="#0b0b0c" d="M 22.5,196.5 C 22.5,196.167 22.5,195.833 22.5,195.5C 31.9532,195.587 41.2865,197.254 50.5,200.5C 49.6519,201.991 48.3186,202.658 46.5,202.5C 38.299,201.116 30.299,199.116 22.5,196.5 Z"/></g>
<g><path style="opacity:0.651" fill="#f0835f" d="M 424.5,214.5 C 426.238,219.217 426.904,224.217 426.5,229.5C 425.513,224.68 424.847,219.68 424.5,214.5 Z"/></g>
<g><path style="opacity:1" fill="#09090a" d="M 18.5,246.5 C 18.5,246.167 18.5,245.833 18.5,245.5C 27.7735,244.196 37.1069,244.196 46.5,245.5C 46.1667,246.167 45.8333,246.833 45.5,247.5C 36.4274,248.442 27.4274,248.109 18.5,246.5 Z"/></g>
<g><path style="opacity:0.6" fill="#ed635c" d="M 300.5,245.5 C 302.019,248.526 302.685,251.859 302.5,255.5C 302.497,258.025 302.163,260.359 301.5,262.5C 301.625,256.797 301.292,251.13 300.5,245.5 Z"/></g>
<g><path style="opacity:1" fill="#040404" d="M 26.5,294.5 C 35.1922,294.169 43.8589,294.502 52.5,295.5C 52.2907,296.086 51.9574,296.586 51.5,297C 43.1733,297.5 34.84,297.666 26.5,297.5C 26.5,296.5 26.5,295.5 26.5,294.5 Z"/></g>
<g><path style="opacity:1" fill="#0f0f11" d="M 46.5,348.5 C 46.5,348.167 46.5,347.833 46.5,347.5C 54.5869,345.216 62.9202,343.549 71.5,342.5C 71.7035,344.39 71.0368,345.89 69.5,347C 63.0975,347.324 56.7642,348.158 50.5,349.5C 49.0755,349.377 47.7421,349.043 46.5,348.5 Z"/></g>
<g><path style="opacity:1" fill="#ed795a" d="M 181.5,373.5 C 180.167,373.5 179.5,374.167 179.5,375.5C 174.541,372.544 170.875,368.878 168.5,364.5C 173.702,366.389 178.036,369.389 181.5,373.5 Z"/></g>
<g><path style="opacity:1" fill="#0c0c0d" d="M 84.5,398.5 C 83.8333,398.5 83.5,398.167 83.5,397.5C 88.9445,393.27 94.9445,389.77 101.5,387C 104.44,386.114 105.44,386.948 104.5,389.5C 97.8117,392.512 91.1451,395.512 84.5,398.5 Z"/></g>
<g><path style="opacity:1" fill="#090809" d="M 150.5,420.5 C 153.173,420.684 153.84,421.851 152.5,424C 146.167,427 139.833,430 133.5,433C 132.365,433.749 131.365,433.583 130.5,432.5C 136.863,427.986 143.53,423.986 150.5,420.5 Z"/></g>
<g><path style="opacity:1" fill="#0a0a0b" d="M 188.5,457.5 C 188.167,457.5 187.833,457.5 187.5,457.5C 188.203,455.284 189.536,453.451 191.5,452C 195.415,448.464 199.581,445.297 204,442.5C 205.225,442.862 206.391,443.362 207.5,444C 201.547,449.133 195.214,453.633 188.5,457.5 Z"/></g>
<g><path style="opacity:1" fill="#070708" d="M 261.5,452.5 C 262.922,452.709 264.255,453.209 265.5,454C 262.988,457.846 259.821,461.012 256,463.5C 255.5,463.167 255,462.833 254.5,462.5C 256.859,459.149 259.192,455.815 261.5,452.5 Z"/></g>
</svg>
