<?xml version="1.0" encoding="UTF-8"?>
<!DOCTYPE svg PUBLIC "-//W3C//DTD SVG 1.1//EN" "http://www.w3.org/Graphics/SVG/1.1/DTD/svg11.dtd">
<svg xmlns="http://www.w3.org/2000/svg" version="1.1" width="12373px" height="12318px" style="shape-rendering:geometricPrecision; text-rendering:geometricPrecision; image-rendering:optimizeQuality; fill-rule:evenodd; clip-rule:evenodd" xmlns:xlink="http://www.w3.org/1999/xlink">
<g><path style="opacity:0.334" fill="#4d4c51" d="M 4725.5,11286.5 C 4726.43,11273.5 4732.43,11263.3 4743.5,11256C 4851.14,11171.7 4960.47,11089.7 5071.5,11010C 5085.66,11000.4 5100,10991.1 5114.5,10982C 5126.83,10973.5 5136.5,10962.7 5143.5,10949.5C 5138.91,10945.4 5133.91,10941.9 5128.5,10939C 5116.07,10935 5104.07,10930 5092.5,10924C 5075.23,10906.5 5056.89,10905.1 5037.5,10920C 4911.21,11023.3 4785.21,11127 4659.5,11231C 4650.44,11241 4646.44,11252.8 4647.5,11266.5C 4650.03,11266.3 4651.7,11267.3 4652.5,11269.5C 4632.68,11268.7 4613.02,11265.9 4593.5,11261C 4508.38,11236.4 4423.38,11211.4 4338.5,11186C 3797.08,11017.3 3296.42,10770.3 2836.5,10445C 2644.86,10309.1 2462.19,10161.4 2288.5,10002C 2232.67,9949.5 2176.83,9897 2121,9844.5C 2116.72,9838.94 2113.22,9832.94 2110.5,9826.5C 2124.64,9827.44 2137.97,9824.61 2150.5,9818C 2233.83,9778.33 2317.17,9738.67 2400.5,9699C 2470.29,9667.94 2539.95,9636.61 2609.5,9605C 2618.35,9599.12 2621.51,9590.96 2619,9580.5C 2614.49,9566.78 2609.82,9553.12 2605,9539.5C 2602.86,9533.89 2600.19,9528.55 2597,9523.5C 2595.42,9521.96 2593.59,9520.79 2591.5,9520C 2587.5,9519.33 2583.5,9519.33 2579.5,9520C 2570.39,9523.39 2561.39,9527.06 2552.5,9531C 2400.36,9605.4 2250.36,9683.4 2102.5,9765C 2091.08,9776.56 2087.08,9790.06 2090.5,9805.5C 2082.54,9800.51 2074.87,9795.01 2067.5,9789C 2052.7,9775.87 2038.2,9762.37 2024,9748.5C 1968.47,9686.79 1912.47,9625.45 1856,9564.5C 1597.12,9274.07 1372.12,8959.41 1181,8620.5C 1179.81,8616.25 1179.31,8611.92 1179.5,8607.5C 1183.94,8607.75 1188.27,8608.59 1192.5,8610C 1202.68,8615.26 1213.01,8620.26 1223.5,8625C 1230.43,8626.51 1237.43,8626.84 1244.5,8626C 1384.12,8599.84 1523.29,8580.01 1662,8566.5C 1674.08,8564.39 1686.24,8562.55 1698.5,8561C 1712.19,8559.55 1725.19,8555.21 1737.5,8548C 1743.94,8543.28 1749.11,8537.45 1753,8530.5C 1762.01,8511.82 1769.34,8492.48 1775,8472.5C 1775,8467.85 1774.84,8463.19 1774.5,8458.5C 1754.76,8457.94 1735.09,8458.77 1715.5,8461C 1635.65,8476.17 1555.65,8490.5 1475.5,8504C 1382.86,8522.26 1290.2,8540.26 1197.5,8558C 1181.09,8563.89 1172.09,8575.39 1170.5,8592.5C 1169.71,8591.39 1169.21,8590.06 1169,8588.5C 1156.67,8576.17 1146.67,8562.17 1139,8546.5C 1101.82,8474.14 1065.16,8401.48 1029,8328.5C 876.954,8012.39 755.287,7684.72 664,7345.5C 663.732,7337.8 663.232,7330.13 662.5,7322.5C 663.771,7324.11 664.771,7325.94 665.5,7328C 678.569,7332.2 691.902,7335.2 705.5,7337C 818.171,7337.74 930.838,7338.07 1043.5,7338C 1073.05,7342.07 1102.72,7345.07 1132.5,7347C 1176.52,7347.2 1220.52,7347.87 1264.5,7349C 1274.8,7347.04 1282.63,7341.54 1288,7332.5C 1298.25,7315 1308.25,7297.33 1318,7279.5C 1321.03,7268.72 1317.2,7261.89 1306.5,7259C 1279.16,7258.68 1251.83,7258.18 1224.5,7257.5C 1102.17,7258.18 979.836,7258.34 857.5,7258C 798.379,7259.37 739.379,7262.71 680.5,7268C 674.864,7268.73 670.697,7271.56 668,7276.5C 667.68,7283.89 668.014,7291.23 669,7298.5C 667.862,7302.45 665.529,7305.45 662,7307.5C 661.503,7309.81 661.337,7312.14 661.5,7314.5C 649.561,7288.52 640.061,7261.52 633,7233.5C 620.305,7173.69 606.971,7114.02 593,7054.5C 532.302,6775.91 494.302,6494.25 479,6209.5C 478.115,6166.81 478.615,6124.15 480.5,6081.5C 481.49,6087.31 481.823,6093.31 481.5,6099.5C 499.772,6102.56 518.105,6105.4 536.5,6108C 619.868,6108.69 703.201,6110.69 786.5,6114C 873.069,6121.26 959.736,6127.26 1046.5,6132C 1061.2,6132.93 1075.87,6134.26 1090.5,6136C 1097.83,6136.67 1105.17,6136.67 1112.5,6136C 1116.21,6135.06 1119.37,6133.23 1122,6130.5C 1130.58,6115 1139.92,6100 1150,6085.5C 1157.86,6073.61 1163.69,6060.78 1167.5,6047C 1163.62,6044.23 1159.28,6042.23 1154.5,6041C 939.835,6039.37 725.169,6038.37 510.5,6038C 498.718,6042.29 488.718,6049.13 480.5,6058.5C 475.224,6037.63 472.391,6016.3 472,5994.5C 472.004,5722.76 489.004,5452.09 523,5182.5C 535.52,5086.71 550.853,4991.38 569,4896.5C 569.095,4879.16 569.095,4861.83 569,4844.5C 570.009,4836.95 572.842,4830.28 577.5,4824.5C 579.001,4836.83 581.834,4848.83 586,4860.5C 591.026,4867.61 597.859,4872.11 606.5,4874C 715.764,4898.53 825.098,4922.86 934.5,4947C 989.991,4961.04 1045.32,4975.71 1100.5,4991C 1124.67,4996.04 1148.67,5001.71 1172.5,5008C 1184.17,5011.91 1195.5,5011.24 1206.5,5006C 1217.97,4993.19 1229.47,4980.36 1241,4967.5C 1248.19,4958.62 1253.69,4948.79 1257.5,4938C 1257.41,4936.89 1257.08,4935.89 1256.5,4935C 1249.21,4930.86 1241.55,4927.53 1233.5,4925C 1215.18,4921.92 1196.85,4918.92 1178.5,4916C 1148.15,4907.2 1117.49,4899.53 1086.5,4893C 979.288,4873.02 872.288,4852.02 765.5,4830C 708.267,4820.21 651.1,4810.04 594,4799.5C 592.061,4799.95 590.228,4800.62 588.5,4801.5C 593.594,4760.61 600.76,4719.95 610,4679.5C 656.919,4476.15 714.252,4275.82 782,4078.5C 929.643,3655.23 1125.98,3257.23 1371,2884.5C 1568.44,2584.6 1792.11,2304.6 2042,2044.5C 2470.21,1605.42 2956.71,1246.25 3501.5,967C 3776.08,827.139 4060.08,710.139 4353.5,616C 4720.16,501.401 5094.83,426.401 5477.5,391C 5758.71,363.941 6040.38,357.941 6322.5,373C 6356.86,374.907 6391.2,377.24 6425.5,380C 6477.15,384.887 6528.82,389.554 6580.5,394C 6799.36,398.266 7017.02,416.599 7233.5,449C 7898.87,546.344 8525.54,757.011 9113.5,1081C 9449.32,1264.91 9761.98,1481.58 10051.5,1731C 10090.8,1764.93 10129.4,1799.59 10167.5,1835C 10254.2,1917.41 10340.1,2000.91 10425,2085.5C 10444.3,2105.51 10457.4,2129.01 10464.5,2156C 10453.5,2159.86 10442.8,2158.86 10432.5,2153C 10121.7,1895.27 9784.08,1676.94 9419.5,1498C 9012.26,1301.37 8585.59,1164.03 8139.5,1086C 7930.62,1049.27 7720.29,1025.27 7508.5,1014C 7409.75,1007.88 7310.92,1004.05 7212,1002.5C 6966.11,1006.59 6721.61,1027.09 6478.5,1064C 6003.63,1141.18 5550.96,1286.52 5120.5,1500C 4677.34,1719.39 4273.67,1995.05 3909.5,2327C 3461.43,2738.67 3105.93,3218.5 2843,3766.5C 2680.9,4107.78 2555.9,4462.45 2468,4830.5C 2428.52,5000.38 2399.52,5172.05 2381,5345.5C 2341.59,5686.24 2335.59,6027.57 2363,6369.5C 2390.55,6683.59 2448.55,6991.92 2537,7294.5C 2674.56,7766.21 2876.23,8207.55 3142,8618.5C 3355.98,8948.18 3607.81,9248.02 3897.5,9518C 4165.56,9768.62 4456.89,9987.62 4771.5,10175C 5241.78,10451.3 5744.78,10644.3 6280.5,10754C 6576.11,10815 6874.78,10849.7 7176.5,10858C 7584.21,10861.7 7986.88,10818.3 8384.5,10728C 8922,10605.3 9423,10397.3 9887.5,10104C 10078,9983.07 10260,9850.41 10433.5,9706C 10445.6,9698.91 10458.6,9694.08 10472.5,9691.5C 10474.4,9701.98 10471.9,9711.32 10465,9719.5C 10416,9785.15 10361.9,9846.65 10302.5,9904C 10110.7,10082.8 9910.04,10250.1 9700.5,10406C 9207.55,10765.3 8667.88,11037 8081.5,11221C 7553.5,11387.1 7012.67,11470.2 6459,11470.5C 6356.8,11470 6254.63,11467.9 6152.5,11464C 6070.78,11458.4 5989.11,11452.1 5907.5,11445C 5562.61,11435.8 5221.28,11396.2 4883.5,11326C 4836.83,11316 4790.16,11306 4743.5,11296C 4736.47,11294.7 4730.47,11291.5 4725.5,11286.5 Z"/></g>
<g><path style="opacity:1" fill="#070709" d="M 4988.5,487.5 C 4995.84,487.334 5003.17,487.5 5010.5,488C 5051.43,505.299 5091.77,523.965 5131.5,544C 5242.66,602.078 5353.66,660.412 5464.5,719C 5496.71,735.604 5529.04,751.938 5561.5,768C 5574.92,774.615 5585.75,784.115 5594,796.5C 5595.19,798.044 5595.52,799.711 5595,801.5C 5580.06,813.771 5564.56,825.271 5548.5,836C 5533.16,845.572 5517.16,846.905 5500.5,840C 5494.05,837.273 5487.71,834.273 5481.5,831C 5380,772.081 5278.33,713.414 5176.5,655C 5118.78,622.471 5060.12,591.471 5000.5,562C 4990.16,555.83 4980.16,549.163 4970.5,542C 4963.68,538.877 4956.68,536.211 4949.5,534C 4938.1,529.698 4932.94,521.532 4934,509.5C 4940.3,503.931 4947.46,499.765 4955.5,497C 4966.56,493.631 4977.56,490.465 4988.5,487.5 Z"/></g>
<g><path style="opacity:1" fill="#070709" d="M 3750.5,893.5 C 3769.69,891.789 3788.02,894.955 3805.5,903C 3951.19,978.511 4097.19,1053.51 4243.5,1128C 4285.86,1151.17 4327.52,1175.34 4368.5,1200.5C 4361.31,1207.86 4353.64,1214.69 4345.5,1221C 4334.67,1227.92 4323.67,1234.58 4312.5,1241C 4305.55,1245.62 4298.88,1250.62 4292.5,1256C 4288.02,1258.88 4283.36,1259.21 4278.5,1257C 4177,1197.08 4075.33,1137.41 3973.5,1078C 3884.83,1029.67 3796.17,981.333 3707.5,933C 3700.3,926.302 3699.63,918.969 3705.5,911C 3719.94,903.469 3734.94,897.635 3750.5,893.5 Z"/></g>
<g><path style="opacity:0.999" fill="#fbbc33" d="M 7425.5,1530.5 C 7448.84,1530.33 7472.17,1530.5 7495.5,1531C 7500.64,1532.4 7504.97,1535.07 7508.5,1539C 7507.87,1539.75 7507.37,1540.58 7507,1541.5C 7375.96,1693.54 7245.29,1845.87 7115,1998.5C 7094.83,2021.25 7069.49,2032.92 7039,2033.5C 6989.83,2030.09 6940.66,2026.59 6891.5,2023C 6853.92,2018.68 6816.25,2015.34 6778.5,2013C 6457.93,1997.24 6140.93,2023.91 5827.5,2093C 5596.39,2144.59 5370.39,2212.93 5149.5,2298C 5078.82,2325.01 5008.82,2353.68 4939.5,2384C 4860.96,2421.25 4785.63,2463.59 4713.5,2511C 4567.4,2610.44 4422.4,2711.44 4278.5,2814C 4244.18,2842.03 4211.18,2871.69 4179.5,2903C 4162.42,2915.5 4148.92,2912.33 4139,2893.5C 4135.88,2885.08 4136.21,2876.74 4140,2868.5C 4145.59,2857.84 4152.75,2848.34 4161.5,2840C 4296.21,2724.29 4431.21,2608.96 4566.5,2494C 4660.93,2418.24 4759.27,2347.9 4861.5,2283C 4990.92,2201.61 5121.92,2122.61 5254.5,2046C 5624.82,1839.44 6019.15,1699.11 6437.5,1625C 6664.62,1584.03 6893.29,1555.36 7123.5,1539C 7140.66,1538.12 7157.82,1537.62 7175,1537.5C 7206.16,1538.39 7237.33,1538.56 7268.5,1538C 7321,1535.71 7373.34,1533.21 7425.5,1530.5 Z"/></g>
<g><path style="opacity:1" fill="#070709" d="M 2678.5,1547.5 C 2696.33,1545.58 2713.33,1548.42 2729.5,1556C 2848.86,1613.85 2967.19,1673.51 3084.5,1735C 3135.37,1763.94 3187.04,1791.61 3239.5,1818C 3260.59,1829.21 3279.92,1842.88 3297.5,1859C 3282.97,1874.53 3265.97,1886.53 3246.5,1895C 3223.96,1902.76 3201.62,1902.09 3179.5,1893C 3173.5,1890.33 3167.5,1887.67 3161.5,1885C 3080.48,1833.68 2998.14,1784.34 2914.5,1737C 2829.49,1689.83 2744.15,1643.16 2658.5,1597C 2650.16,1594.91 2642.16,1591.91 2634.5,1588C 2630.81,1585.27 2627.81,1581.94 2625.5,1578C 2640.54,1563.15 2658.21,1552.98 2678.5,1547.5 Z"/></g>
<g><path style="opacity:0.999" fill="#f49c34" d="M 8057.5,1619.5 C 8068.37,1618.86 8079.04,1620.03 8089.5,1623C 8420.32,1717.22 8751.32,1810.72 9082.5,1903.5C 9083.69,1912.43 9081.52,1920.43 9076,1927.5C 8919.27,2090.9 8758.1,2249.4 8592.5,2403C 8574.74,2418.1 8556.41,2432.43 8537.5,2446C 8499.74,2466.29 8461.74,2466.63 8423.5,2447C 8353.92,2409.71 8283.58,2373.71 8212.5,2339C 8098.45,2287.15 7981.45,2242.82 7861.5,2206C 7766.29,2178.03 7670.96,2150.7 7575.5,2124C 7588.86,2104.97 7603.36,2086.8 7619,2069.5C 7662.43,2025.07 7704.77,1979.74 7746,1933.5C 7835.67,1837.17 7925.33,1740.83 8015,1644.5C 8026.88,1632.09 8041.05,1623.75 8057.5,1619.5 Z"/></g>
<g><path style="opacity:0.999" fill="#ef7c35" d="M 9046.5,2512.5 C 9050.1,2510.57 9053.1,2507.9 9055.5,2504.5C 9128.89,2430.78 9201.56,2356.44 9273.5,2281.5C 9278.5,2278.5 9282.5,2274.5 9285.5,2269.5C 9338.35,2215.48 9392.02,2162.31 9446.5,2110C 9458.98,2100.7 9472.65,2098.37 9487.5,2103C 9513.1,2113.3 9538.1,2124.97 9562.5,2138C 9635.85,2176.32 9705.85,2219.65 9772.5,2268C 9922.22,2381.38 10072.2,2494.38 10222.5,2607C 10250.9,2630.1 10253,2655.6 10229,2683.5C 10036.1,2875.06 9842.61,3065.89 9648.5,3256C 9637.07,3266.87 9624.74,3276.54 9611.5,3285C 9593.47,3296.27 9575.47,3296.27 9557.5,3285C 9551.65,3280.91 9545.99,3276.58 9540.5,3272C 9446.6,3169.76 9347.27,3073.43 9242.5,2983C 9138.55,2893.88 9032.21,2807.88 8923.5,2725C 8910.8,2714.31 8900.3,2701.81 8892,2687.5C 8886.45,2673.37 8888.45,2660.37 8898,2648.5C 8901.05,2644.91 8904.22,2641.41 8907.5,2638C 8955.2,2597.81 9001.53,2555.98 9046.5,2512.5 Z"/></g>
<g><path style="opacity:0.616" fill="#f8a071" d="M 9285.5,2269.5 C 9282.5,2274.5 9278.5,2278.5 9273.5,2281.5C 9277.17,2277.17 9281.17,2273.17 9285.5,2269.5 Z"/></g>
<g><path style="opacity:1" fill="#070709" d="M 1716.5,2483.5 C 1737.13,2483.07 1756.8,2487.24 1775.5,2496C 1911.86,2565.84 2048.52,2635.18 2185.5,2704C 2236.07,2730.43 2285.07,2759.1 2332.5,2790C 2331.3,2792.59 2330.3,2795.26 2329.5,2798C 2310.68,2813.8 2290.01,2826.8 2267.5,2837C 2256.03,2840.56 2244.7,2840.23 2233.5,2836C 2228.17,2833.67 2222.83,2831.33 2217.5,2829C 2039.38,2721.59 1858.04,2619.25 1673.5,2522C 1668.49,2518.16 1664.82,2513.33 1662.5,2507.5C 1678.35,2494.57 1696.35,2486.57 1716.5,2483.5 Z"/></g>
<g><path style="opacity:0.616" fill="#f79f70" d="M 9055.5,2504.5 C 9053.1,2507.9 9050.1,2510.57 9046.5,2512.5C 9048.9,2509.1 9051.9,2506.43 9055.5,2504.5 Z"/></g>
<g><path style="opacity:0.999" fill="#ec662a" d="M 9922.5,3524.5 C 9970.75,3477.75 10018.6,3430.42 10066,3382.5C 10066.5,3381.91 10066.6,3381.24 10066.5,3380.5C 10164.5,3282.14 10262.5,3183.81 10360.5,3085.5C 10365.8,3082.17 10370.2,3077.83 10373.5,3072.5C 10410.2,3033.26 10447.9,2994.76 10486.5,2957C 10497.4,2946.87 10510.1,2939.87 10524.5,2936C 10532.4,2934.87 10540.1,2935.87 10547.5,2939C 10553.8,2942.16 10559.8,2945.83 10565.5,2950C 10574.3,2957.5 10582.5,2965.67 10590,2974.5C 10680.3,3075.49 10767.7,3178.82 10852,3284.5C 10938.2,3394.47 11016.2,3510.13 11086,3631.5C 11091.1,3640.37 11095.1,3649.7 11098,3659.5C 11101.6,3674.17 11099.3,3687.83 11091,3700.5C 11086.7,3707.11 11082.1,3713.45 11077,3719.5C 10832.5,3964.97 10587.7,4210.14 10342.5,4455C 10333.9,4462.48 10323.9,4466.98 10312.5,4468.5C 10302.3,4467.16 10294.5,4462.16 10289,4453.5C 10273.4,4421.29 10258.1,4388.95 10243,4356.5C 10139.8,4111.37 10009.2,3883.37 9851,3672.5C 9845.94,3665.1 9841.27,3657.43 9837,3649.5C 9830.04,3633.97 9832.04,3619.64 9843,3606.5C 9845.67,3603.17 9848.33,3599.83 9851,3596.5C 9875.06,3572.61 9898.9,3548.61 9922.5,3524.5 Z"/></g>
<g><path style="opacity:0.663" fill="#f6956a" d="M 10373.5,3072.5 C 10370.2,3077.83 10365.8,3082.17 10360.5,3085.5C 10364.5,3080.83 10368.8,3076.5 10373.5,3072.5 Z"/></g>
<g><path style="opacity:1" fill="#e52829" d="M 6900.5,5421.5 C 6904.5,5419.5 6907.5,5416.5 6909.5,5412.5C 6916.53,5405.14 6923.53,5397.81 6930.5,5390.5C 6933.5,5389.5 6935.5,5387.5 6936.5,5384.5C 6942.53,5378.14 6948.53,5371.81 6954.5,5365.5C 6957.17,5364.83 6958.83,5363.17 6959.5,5360.5C 6964.86,5354.81 6970.19,5349.14 6975.5,5343.5C 6978.17,5342.83 6979.83,5341.17 6980.5,5338.5C 6991.13,5326.53 7002.13,5314.86 7013.5,5303.5C 7016.17,5302.83 7017.83,5301.17 7018.5,5298.5C 7053.5,5260.84 7088.83,5223.5 7124.5,5186.5C 7127.17,5185.83 7128.83,5184.17 7129.5,5181.5C 7134.19,5176.47 7138.86,5171.47 7143.5,5166.5C 7146.17,5165.83 7147.83,5164.17 7148.5,5161.5C 7158.8,5149.86 7169.47,5138.53 7180.5,5127.5C 7183.17,5126.83 7184.83,5125.17 7185.5,5122.5C 7195.8,5110.86 7206.47,5099.53 7217.5,5088.5C 7220.17,5087.83 7221.83,5086.17 7222.5,5083.5C 7226.83,5078.83 7231.17,5074.17 7235.5,5069.5C 7238.17,5068.83 7239.83,5067.17 7240.5,5064.5C 7244.83,5059.83 7249.17,5055.17 7253.5,5050.5C 7256.17,5049.83 7257.83,5048.17 7258.5,5045.5C 7268.8,5033.86 7279.47,5022.53 7290.5,5011.5C 7293.17,5010.83 7294.83,5009.17 7295.5,5006.5C 7305.8,4994.86 7316.47,4983.53 7327.5,4972.5C 7330.17,4971.83 7331.83,4970.17 7332.5,4967.5C 7337.17,4962.5 7341.83,4957.5 7346.5,4952.5C 7349.17,4951.83 7350.83,4950.17 7351.5,4947.5C 7356.17,4942.5 7360.83,4937.5 7365.5,4932.5C 7368.17,4931.83 7369.83,4930.17 7370.5,4927.5C 7381.5,4915.17 7392.83,4903.17 7404.5,4891.5C 7407.17,4890.83 7408.83,4889.17 7409.5,4886.5C 7414.17,4881.5 7418.83,4876.5 7423.5,4871.5C 7426.17,4870.83 7427.83,4869.17 7428.5,4866.5C 7433.5,4861.17 7438.5,4855.83 7443.5,4850.5C 7446.17,4849.83 7447.83,4848.17 7448.5,4845.5C 7453.53,4840.14 7458.53,4834.81 7463.5,4829.5C 7466.17,4828.83 7467.83,4827.17 7468.5,4824.5C 7473.53,4819.14 7478.53,4813.81 7483.5,4808.5C 7486.17,4807.83 7487.83,4806.17 7488.5,4803.5C 7493.53,4798.14 7498.53,4792.81 7503.5,4787.5C 7506.17,4786.83 7507.83,4785.17 7508.5,4782.5C 7513.53,4777.14 7518.53,4771.81 7523.5,4766.5C 7526.17,4765.83 7527.83,4764.17 7528.5,4761.5C 7533.5,4756.17 7538.5,4750.83 7543.5,4745.5C 7546.17,4744.83 7547.83,4743.17 7548.5,4740.5C 7553.86,4734.81 7559.19,4729.14 7564.5,4723.5C 7567.17,4722.83 7568.83,4721.17 7569.5,4718.5C 7574.5,4713.17 7579.5,4707.83 7584.5,4702.5C 7587.5,4701.5 7589.5,4699.5 7590.5,4696.5C 7595.5,4691.17 7600.5,4685.83 7605.5,4680.5C 7608.17,4679.83 7609.83,4678.17 7610.5,4675.5C 7615.83,4669.83 7621.17,4664.17 7626.5,4658.5C 7629.17,4657.83 7630.83,4656.17 7631.5,4653.5C 7636.83,4647.83 7642.17,4642.17 7647.5,4636.5C 7650.17,4635.83 7651.83,4634.17 7652.5,4631.5C 7657.83,4625.83 7663.17,4620.17 7668.5,4614.5C 7671.5,4613.5 7673.5,4611.5 7674.5,4608.5C 7679.86,4602.81 7685.19,4597.14 7690.5,4591.5C 7693.17,4590.83 7694.83,4589.17 7695.5,4586.5C 7700.83,4580.83 7706.17,4575.17 7711.5,4569.5C 7714.5,4568.5 7716.5,4566.5 7717.5,4563.5C 7722.83,4557.83 7728.17,4552.17 7733.5,4546.5C 7736.5,4545.5 7738.5,4543.5 7739.5,4540.5C 7744.83,4534.83 7750.17,4529.17 7755.5,4523.5C 7758.5,4522.5 7760.5,4520.5 7761.5,4517.5C 7766.86,4511.81 7772.19,4506.14 7777.5,4500.5C 7780.5,4499.5 7782.5,4497.5 7783.5,4494.5C 7789.19,4488.47 7794.86,4482.47 7800.5,4476.5C 7803.5,4475.5 7805.5,4473.5 7806.5,4470.5C 7812.53,4464.14 7818.53,4457.81 7824.5,4451.5C 7827.5,4450.5 7829.5,4448.5 7830.5,4445.5C 7836.86,4438.81 7843.19,4432.14 7849.5,4425.5C 7852.5,4424.5 7854.5,4422.5 7855.5,4419.5C 7861.83,4412.83 7868.17,4406.17 7874.5,4399.5C 7877.83,4398.17 7880.17,4395.83 7881.5,4392.5C 7888.19,4385.47 7894.86,4378.47 7901.5,4371.5C 7904.5,4370.5 7906.5,4368.5 7907.5,4365.5C 7914.17,4358.5 7920.83,4351.5 7927.5,4344.5C 7930.83,4343.17 7933.17,4340.83 7934.5,4337.5C 7940.83,4330.83 7947.17,4324.17 7953.5,4317.5C 7956.83,4316.17 7959.17,4313.83 7960.5,4310.5C 7966.86,4303.81 7973.19,4297.14 7979.5,4290.5C 7982.5,4289.5 7984.5,4287.5 7985.5,4284.5C 7991.86,4277.81 7998.19,4271.14 8004.5,4264.5C 8007.5,4263.5 8009.5,4261.5 8010.5,4258.5C 8016.53,4252.14 8022.53,4245.81 8028.5,4239.5C 8031.5,4238.5 8033.5,4236.5 8034.5,4233.5C 8039.83,4227.83 8045.17,4222.17 8050.5,4216.5C 8053.5,4215.5 8055.5,4213.5 8056.5,4210.5C 8061.83,4204.83 8067.17,4199.17 8072.5,4193.5C 8075.5,4192.5 8077.5,4190.5 8078.5,4187.5C 8083.86,4181.81 8089.19,4176.14 8094.5,4170.5C 8097.17,4169.83 8098.83,4168.17 8099.5,4165.5C 8104.83,4159.83 8110.17,4154.17 8115.5,4148.5C 8118.17,4147.83 8119.83,4146.17 8120.5,4143.5C 8125.83,4137.83 8131.17,4132.17 8136.5,4126.5C 8139.5,4125.5 8141.5,4123.5 8142.5,4120.5C 8147.5,4115.17 8152.5,4109.83 8157.5,4104.5C 8160.17,4103.83 8161.83,4102.17 8162.5,4099.5C 8167.83,4093.83 8173.17,4088.17 8178.5,4082.5C 8181.17,4081.83 8182.83,4080.17 8183.5,4077.5C 8188.86,4071.81 8194.19,4066.14 8199.5,4060.5C 8202.17,4059.83 8203.83,4058.17 8204.5,4055.5C 8209.86,4049.81 8215.19,4044.14 8220.5,4038.5C 8223.17,4037.83 8224.83,4036.17 8225.5,4033.5C 8230.86,4027.81 8236.19,4022.14 8241.5,4016.5C 8244.17,4015.83 8245.83,4014.17 8246.5,4011.5C 8251.5,4006.17 8256.5,4000.83 8261.5,3995.5C 8264.5,3994.5 8266.5,3992.5 8267.5,3989.5C 8272.5,3984.17 8277.5,3978.83 8282.5,3973.5C 8285.17,3972.83 8286.83,3971.17 8287.5,3968.5C 8292.83,3962.83 8298.17,3957.17 8303.5,3951.5C 8306.17,3950.83 8307.83,3949.17 8308.5,3946.5C 8313.83,3940.83 8319.17,3935.17 8324.5,3929.5C 8327.5,3928.5 8329.5,3926.5 8330.5,3923.5C 8335.86,3917.81 8341.19,3912.14 8346.5,3906.5C 8349.17,3905.83 8350.83,3904.17 8351.5,3901.5C 8356.83,3895.83 8362.17,3890.17 8367.5,3884.5C 8370.17,3883.83 8371.83,3882.17 8372.5,3879.5C 8378.19,3873.47 8383.86,3867.47 8389.5,3861.5C 8392.17,3860.83 8393.83,3859.17 8394.5,3856.5C 8400.19,3850.47 8405.86,3844.47 8411.5,3838.5C 8414.5,3837.5 8416.5,3835.5 8417.5,3832.5C 8422.83,3826.83 8428.17,3821.17 8433.5,3815.5C 8436.5,3814.5 8438.5,3812.5 8439.5,3809.5C 8445.17,3803.5 8450.83,3797.5 8456.5,3791.5C 8459.5,3790.5 8461.5,3788.5 8462.5,3785.5C 8468.17,3779.5 8473.83,3773.5 8479.5,3767.5C 8482.5,3766.5 8484.5,3764.5 8485.5,3761.5C 8491.5,3755.17 8497.5,3748.83 8503.5,3742.5C 8506.5,3741.5 8508.5,3739.5 8509.5,3736.5C 8515.83,3729.83 8522.17,3723.17 8528.5,3716.5C 8531.5,3715.5 8533.5,3713.5 8534.5,3710.5C 8540.83,3703.83 8547.17,3697.17 8553.5,3690.5C 8556.83,3689.17 8559.17,3686.83 8560.5,3683.5C 8566.83,3676.83 8573.17,3670.17 8579.5,3663.5C 8582.83,3662.17 8585.17,3659.83 8586.5,3656.5C 8592.83,3649.83 8599.17,3643.17 8605.5,3636.5C 8608.5,3635.5 8610.5,3633.5 8611.5,3630.5C 8618.19,3623.47 8624.86,3616.47 8631.5,3609.5C 8634.83,3608.17 8637.17,3605.83 8638.5,3602.5C 8644.86,3595.81 8651.19,3589.14 8657.5,3582.5C 8660.5,3581.5 8662.5,3579.5 8663.5,3576.5C 8669.86,3569.81 8676.19,3563.14 8682.5,3556.5C 8685.5,3555.5 8687.5,3553.5 8688.5,3550.5C 8694.5,3544.17 8700.5,3537.83 8706.5,3531.5C 8709.5,3530.5 8711.5,3528.5 8712.5,3525.5C 8718.53,3519.14 8724.53,3512.81 8730.5,3506.5C 8733.17,3505.83 8734.83,3504.17 8735.5,3501.5C 8741.53,3495.14 8747.53,3488.81 8753.5,3482.5C 8756.17,3481.83 8757.83,3480.17 8758.5,3477.5C 8763.83,3471.83 8769.17,3466.17 8774.5,3460.5C 8777.5,3459.5 8779.5,3457.5 8780.5,3454.5C 8785.53,3449.14 8790.53,3443.81 8795.5,3438.5C 8798.17,3437.83 8799.83,3436.17 8800.5,3433.5C 8805.19,3428.47 8809.86,3423.47 8814.5,3418.5C 8817.17,3417.83 8818.83,3416.17 8819.5,3413.5C 8823.83,3408.83 8828.17,3404.17 8832.5,3399.5C 8835.17,3398.83 8836.83,3397.17 8837.5,3394.5C 8863.53,3366.81 8889.53,3339.14 8915.5,3311.5C 8918.09,3310.58 8920.09,3308.91 8921.5,3306.5C 8928.04,3299.63 8935.37,3298.8 8943.5,3304C 8957.97,3312.44 8964.47,3324.94 8963,3341.5C 8962.06,3344.99 8960.72,3348.33 8959,3351.5C 8592.67,3984.17 8226.33,4616.83 7860,5249.5C 7731.25,5471.33 7602.25,5693 7473,5914.5C 7444.63,5961.38 7437.3,6011.38 7451,6064.5C 7505.55,6239.64 7502.88,6413.97 7443,6587.5C 7395.44,6718.04 7317.94,6827.21 7210.5,6915C 7121.84,6987.18 7022.84,7041.52 6913.5,7078C 6851.95,7097.74 6788.95,7105.57 6724.5,7101.5C 6631.36,7101.94 6540.03,7089.44 6450.5,7064C 6340.6,7030.75 6243.93,6975.41 6160.5,6898C 6105.83,6847.32 6058.66,6790.82 6019,6728.5C 5951.56,6614.17 5915.23,6490.5 5910,6357.5C 5903.53,6204.06 5935.86,6059.39 6007,5923.5C 6068.72,5811.11 6153.89,5720.61 6262.5,5652C 6369.81,5585.67 6486.14,5543.67 6611.5,5526C 6642.18,5525.76 6672.85,5526.1 6703.5,5527C 6749.86,5523.66 6792.19,5508.99 6830.5,5483C 6856.1,5465.24 6879.44,5444.74 6900.5,5421.5 Z"/></g>
<g><path style="opacity:0.671" fill="#f47565" d="M 8921.5,3306.5 C 8920.09,3308.91 8918.09,3310.58 8915.5,3311.5C 8916.91,3309.09 8918.91,3307.42 8921.5,3306.5 Z"/></g>
<g><path style="opacity:0.671" fill="#f57767" d="M 8837.5,3394.5 C 8836.83,3397.17 8835.17,3398.83 8832.5,3399.5C 8833.83,3397.5 8835.5,3395.83 8837.5,3394.5 Z"/></g>
<g><path style="opacity:0.671" fill="#f57767" d="M 8819.5,3413.5 C 8818.83,3416.17 8817.17,3417.83 8814.5,3418.5C 8815.83,3416.5 8817.5,3414.83 8819.5,3413.5 Z"/></g>
<g><path style="opacity:0.671" fill="#f57767" d="M 8800.5,3433.5 C 8799.83,3436.17 8798.17,3437.83 8795.5,3438.5C 8796.83,3436.5 8798.5,3434.83 8800.5,3433.5 Z"/></g>
<g><path style="opacity:0.671" fill="#f57767" d="M 8780.5,3454.5 C 8779.5,3457.5 8777.5,3459.5 8774.5,3460.5C 8776.17,3458.17 8778.17,3456.17 8780.5,3454.5 Z"/></g>
<g><path style="opacity:0.663" fill="#f79468" d="M 10066.5,3380.5 C 10066.6,3381.24 10066.5,3381.91 10066,3382.5C 10018.6,3430.42 9970.75,3477.75 9922.5,3524.5C 9970.17,3476.17 10018.2,3428.17 10066.5,3380.5 Z"/></g>
<g><path style="opacity:0.671" fill="#f47868" d="M 8758.5,3477.5 C 8757.83,3480.17 8756.17,3481.83 8753.5,3482.5C 8754.83,3480.5 8756.5,3478.83 8758.5,3477.5 Z"/></g>
<g><path style="opacity:0.671" fill="#f57968" d="M 8735.5,3501.5 C 8734.83,3504.17 8733.17,3505.83 8730.5,3506.5C 8731.83,3504.5 8733.5,3502.83 8735.5,3501.5 Z"/></g>
<g><path style="opacity:0.671" fill="#f47868" d="M 8712.5,3525.5 C 8711.5,3528.5 8709.5,3530.5 8706.5,3531.5C 8708.17,3529.17 8710.17,3527.17 8712.5,3525.5 Z"/></g>
<g><path style="opacity:0.671" fill="#f57868" d="M 8688.5,3550.5 C 8687.5,3553.5 8685.5,3555.5 8682.5,3556.5C 8684.17,3554.17 8686.17,3552.17 8688.5,3550.5 Z"/></g>
<g><path style="opacity:0.671" fill="#f57868" d="M 8663.5,3576.5 C 8662.5,3579.5 8660.5,3581.5 8657.5,3582.5C 8659.17,3580.17 8661.17,3578.17 8663.5,3576.5 Z"/></g>
<g><path style="opacity:0.671" fill="#f57767" d="M 8638.5,3602.5 C 8637.17,3605.83 8634.83,3608.17 8631.5,3609.5C 8633.5,3606.83 8635.83,3604.5 8638.5,3602.5 Z"/></g>
<g><path style="opacity:1" fill="#070709" d="M 1049.5,3611.5 C 1065.41,3611.14 1080.74,3613.98 1095.5,3620C 1143.05,3638.94 1190.72,3657.61 1238.5,3676C 1335.48,3712.33 1432.48,3748.66 1529.5,3785C 1573.48,3802.49 1617.15,3820.82 1660.5,3840C 1665.27,3842.44 1669.77,3845.27 1674,3848.5C 1675.42,3851.03 1675.75,3853.7 1675,3856.5C 1662.73,3877.43 1645.9,3893.6 1624.5,3905C 1605.44,3911.14 1586.44,3910.8 1567.5,3904C 1440.52,3842.84 1311.85,3785.51 1181.5,3732C 1118.25,3706.14 1054.91,3680.47 991.5,3655C 987.217,3652.38 983.217,3649.38 979.5,3646C 999.589,3627.79 1022.92,3616.29 1049.5,3611.5 Z"/></g>
<g><path style="opacity:0.671" fill="#f57868" d="M 8611.5,3630.5 C 8610.5,3633.5 8608.5,3635.5 8605.5,3636.5C 8607.17,3634.17 8609.17,3632.17 8611.5,3630.5 Z"/></g>
<g><path style="opacity:0.671" fill="#f57867" d="M 8586.5,3656.5 C 8585.17,3659.83 8582.83,3662.17 8579.5,3663.5C 8581.5,3660.83 8583.83,3658.5 8586.5,3656.5 Z"/></g>
<g><path style="opacity:0.671" fill="#f57867" d="M 8560.5,3683.5 C 8559.17,3686.83 8556.83,3689.17 8553.5,3690.5C 8555.5,3687.83 8557.83,3685.5 8560.5,3683.5 Z"/></g>
<g><path style="opacity:0.671" fill="#f57868" d="M 8534.5,3710.5 C 8533.5,3713.5 8531.5,3715.5 8528.5,3716.5C 8530.17,3714.17 8532.17,3712.17 8534.5,3710.5 Z"/></g>
<g><path style="opacity:0.671" fill="#f57868" d="M 8509.5,3736.5 C 8508.5,3739.5 8506.5,3741.5 8503.5,3742.5C 8505.17,3740.17 8507.17,3738.17 8509.5,3736.5 Z"/></g>
<g><path style="opacity:0.671" fill="#f47868" d="M 8485.5,3761.5 C 8484.5,3764.5 8482.5,3766.5 8479.5,3767.5C 8481.17,3765.17 8483.17,3763.17 8485.5,3761.5 Z"/></g>
<g><path style="opacity:0.671" fill="#f57767" d="M 8462.5,3785.5 C 8461.5,3788.5 8459.5,3790.5 8456.5,3791.5C 8458.17,3789.17 8460.17,3787.17 8462.5,3785.5 Z"/></g>
<g><path style="opacity:0.671" fill="#f47868" d="M 8439.5,3809.5 C 8438.5,3812.5 8436.5,3814.5 8433.5,3815.5C 8435.17,3813.17 8437.17,3811.17 8439.5,3809.5 Z"/></g>
<g><path style="opacity:0.671" fill="#f57767" d="M 8417.5,3832.5 C 8416.5,3835.5 8414.5,3837.5 8411.5,3838.5C 8413.17,3836.17 8415.17,3834.17 8417.5,3832.5 Z"/></g>
<g><path style="opacity:0.671" fill="#f57968" d="M 8394.5,3856.5 C 8393.83,3859.17 8392.17,3860.83 8389.5,3861.5C 8390.83,3859.5 8392.5,3857.83 8394.5,3856.5 Z"/></g>
<g><path style="opacity:0.671" fill="#f57968" d="M 8372.5,3879.5 C 8371.83,3882.17 8370.17,3883.83 8367.5,3884.5C 8368.83,3882.5 8370.5,3880.83 8372.5,3879.5 Z"/></g>
<g><path style="opacity:0.671" fill="#f57868" d="M 8351.5,3901.5 C 8350.83,3904.17 8349.17,3905.83 8346.5,3906.5C 8347.83,3904.5 8349.5,3902.83 8351.5,3901.5 Z"/></g>
<g><path style="opacity:0.671" fill="#f57767" d="M 8330.5,3923.5 C 8329.5,3926.5 8327.5,3928.5 8324.5,3929.5C 8326.17,3927.17 8328.17,3925.17 8330.5,3923.5 Z"/></g>
<g><path style="opacity:0.671" fill="#f57968" d="M 8308.5,3946.5 C 8307.83,3949.17 8306.17,3950.83 8303.5,3951.5C 8304.83,3949.5 8306.5,3947.83 8308.5,3946.5 Z"/></g>
<g><path style="opacity:0.671" fill="#f57968" d="M 8287.5,3968.5 C 8286.83,3971.17 8285.17,3972.83 8282.5,3973.5C 8283.83,3971.5 8285.5,3969.83 8287.5,3968.5 Z"/></g>
<g><path style="opacity:0.671" fill="#f57767" d="M 8267.5,3989.5 C 8266.5,3992.5 8264.5,3994.5 8261.5,3995.5C 8263.17,3993.17 8265.17,3991.17 8267.5,3989.5 Z"/></g>
<g><path style="opacity:0.671" fill="#f57767" d="M 8246.5,4011.5 C 8245.83,4014.17 8244.17,4015.83 8241.5,4016.5C 8242.83,4014.5 8244.5,4012.83 8246.5,4011.5 Z"/></g>
<g><path style="opacity:0.671" fill="#f57868" d="M 8225.5,4033.5 C 8224.83,4036.17 8223.17,4037.83 8220.5,4038.5C 8221.83,4036.5 8223.5,4034.83 8225.5,4033.5 Z"/></g>
<g><path style="opacity:1" fill="#eb5c30" d="M 11704.5,5382.5 C 11704.2,5384.1 11704.6,5385.43 11705.5,5386.5C 11705.5,5387.83 11705.5,5389.17 11705.5,5390.5C 11705.2,5392.1 11705.6,5393.43 11706.5,5394.5C 11706.5,5395.83 11706.5,5397.17 11706.5,5398.5C 11706.2,5400.1 11706.6,5401.43 11707.5,5402.5C 11710,5421.78 11712,5441.11 11713.5,5460.5C 11713.2,5462.1 11713.6,5463.43 11714.5,5464.5C 11714.5,5466.17 11714.5,5467.83 11714.5,5469.5C 11714.2,5471.41 11714.5,5473.08 11715.5,5474.5C 11715.5,5476.17 11715.5,5477.83 11715.5,5479.5C 11715.2,5481.41 11715.5,5483.08 11716.5,5484.5C 11716.5,5486.17 11716.5,5487.83 11716.5,5489.5C 11716.2,5491.74 11716.5,5493.74 11717.5,5495.5C 11718.2,5500.8 11718.5,5506.14 11718.5,5511.5C 11718.2,5513.41 11718.5,5515.08 11719.5,5516.5C 11720.1,5528.46 11721.5,5540.29 11723.5,5552C 11722.6,5554.04 11722.2,5556.21 11722.5,5558.5C 11722.2,5561.06 11722.5,5563.39 11723.5,5565.5C 11724.5,5576.81 11725.2,5588.14 11725.5,5599.5C 11725.2,5602.39 11725.5,5605.05 11726.5,5607.5C 11727.2,5615.48 11727.5,5623.48 11727.5,5631.5C 11727.2,5634.71 11727.5,5637.71 11728.5,5640.5C 11728.5,5643.5 11728.5,5646.5 11728.5,5649.5C 11728.2,5653.04 11728.5,5656.38 11729.5,5659.5C 11729.5,5662.5 11729.5,5665.5 11729.5,5668.5C 11729.2,5672.37 11729.5,5676.04 11730.5,5679.5C 11730.5,5682.83 11730.5,5686.17 11730.5,5689.5C 11730.2,5694.03 11730.5,5698.37 11731.5,5702.5C 11731.5,5706.5 11731.5,5710.5 11731.5,5714.5C 11731.2,5719.69 11731.5,5724.69 11732.5,5729.5C 11733.3,5746.82 11733.6,5764.16 11733.5,5781.5C 11733.2,5792.01 11733.5,5802.35 11734.5,5812.5C 11735.8,5853.83 11735.8,5895.17 11734.5,5936.5C 11733.5,5947.99 11733.2,5959.65 11733.5,5971.5C 11733.3,6006.52 11732.3,6041.52 11730.5,6076.5C 11729.5,6081.31 11729.2,6086.31 11729.5,6091.5C 11729.6,6101.52 11729.3,6111.52 11728.5,6121.5C 11727.5,6125.63 11727.2,6129.97 11727.5,6134.5C 11712.5,6505.74 11650,6868.74 11540,7223.5C 11483.5,7408.97 11414.9,7589.63 11334,7765.5C 11226.9,7991.85 11102.6,8207.19 10961,8411.5C 10871.6,8540.23 10777.6,8665.56 10679,8787.5C 10519.8,8980.37 10343.6,9156.2 10150.5,9315C 9861.53,9551.96 9547.53,9751.96 9208.5,9915C 8648.35,10180.6 8058.02,10320.6 7437.5,10335C 7115.5,10339.4 6796.16,10312.4 6479.5,10254C 6066.34,10174.9 5673.34,10038.6 5300.5,9845C 5091.24,9735.94 4892.24,9611.6 4703.5,9472C 4625.26,9413.1 4547.6,9353.43 4470.5,9293C 4459.66,9285.5 4451.82,9275.66 4447,9263.5C 4445.95,9261.08 4445.79,9258.75 4446.5,9256.5C 4448.91,9244.95 4452.91,9233.95 4458.5,9223.5C 4467.75,9213.5 4478.58,9210.16 4491,9213.5C 4492.4,9212.95 4493.73,9212.62 4495,9212.5C 4502.35,9214.31 4509.52,9215.65 4516.5,9216.5C 4606.46,9270.82 4697.46,9323.66 4789.5,9375C 5121.73,9557.41 5473.73,9687.08 5845.5,9764C 6323.49,9862.35 6803.49,9873.35 7285.5,9797C 7715.44,9728.69 8122.1,9592.36 8505.5,9388C 8817.24,9222.31 9100.58,9016.98 9355.5,8772C 9423.15,8706.02 9488.98,8638.52 9553,8569.5C 9696.13,8414.76 9825.13,8249.43 9940,8073.5C 10202.5,7667.61 10385.5,7227.61 10489,6753.5C 10554.3,6449.59 10582.3,6142.25 10573,5831.5C 10567.4,5605.72 10542.8,5382.06 10499,5160.5C 10489.7,5115.17 10480.3,5069.83 10471,5024.5C 10466,5001.67 10460.3,4979.01 10454,4956.5C 10445.4,4918.44 10453.1,4884.11 10477,4853.5C 10523.6,4805.91 10570.6,4758.58 10618,4711.5C 10824.5,4502.69 11031.3,4294.19 11238.5,4086C 11249,4076.51 11260.3,4068.18 11272.5,4061C 11288.8,4053.4 11303.5,4055.74 11316.5,4068C 11328.5,4082.45 11337.9,4098.12 11344.5,4115C 11403.4,4242.6 11454.7,4371.94 11498.5,4503C 11597,4786.1 11665.7,5079.27 11704.5,5382.5 Z"/></g>
<g><path style="opacity:0.671" fill="#f47868" d="M 8204.5,4055.5 C 8203.83,4058.17 8202.17,4059.83 8199.5,4060.5C 8200.83,4058.5 8202.5,4056.83 8204.5,4055.5 Z"/></g>
<g><path style="opacity:0.671" fill="#f57968" d="M 8183.5,4077.5 C 8182.83,4080.17 8181.17,4081.83 8178.5,4082.5C 8179.83,4080.5 8181.5,4078.83 8183.5,4077.5 Z"/></g>
<g><path style="opacity:0.671" fill="#f57968" d="M 8162.5,4099.5 C 8161.83,4102.17 8160.17,4103.83 8157.5,4104.5C 8158.83,4102.5 8160.5,4100.83 8162.5,4099.5 Z"/></g>
<g><path style="opacity:0.671" fill="#f57767" d="M 8142.5,4120.5 C 8141.5,4123.5 8139.5,4125.5 8136.5,4126.5C 8138.17,4124.17 8140.17,4122.17 8142.5,4120.5 Z"/></g>
<g><path style="opacity:0.671" fill="#f57968" d="M 8120.5,4143.5 C 8119.83,4146.17 8118.17,4147.83 8115.5,4148.5C 8116.83,4146.5 8118.5,4144.83 8120.5,4143.5 Z"/></g>
<g><path style="opacity:0.671" fill="#f47868" d="M 8099.5,4165.5 C 8098.83,4168.17 8097.17,4169.83 8094.5,4170.5C 8095.83,4168.5 8097.5,4166.83 8099.5,4165.5 Z"/></g>
<g><path style="opacity:0.671" fill="#f57767" d="M 8078.5,4187.5 C 8077.5,4190.5 8075.5,4192.5 8072.5,4193.5C 8074.17,4191.17 8076.17,4189.17 8078.5,4187.5 Z"/></g>
<g><path style="opacity:0.671" fill="#f57868" d="M 8056.5,4210.5 C 8055.5,4213.5 8053.5,4215.5 8050.5,4216.5C 8052.17,4214.17 8054.17,4212.17 8056.5,4210.5 Z"/></g>
<g><path style="opacity:0.671" fill="#f57767" d="M 8034.5,4233.5 C 8033.5,4236.5 8031.5,4238.5 8028.5,4239.5C 8030.17,4237.17 8032.17,4235.17 8034.5,4233.5 Z"/></g>
<g><path style="opacity:0.671" fill="#f57868" d="M 8010.5,4258.5 C 8009.5,4261.5 8007.5,4263.5 8004.5,4264.5C 8006.17,4262.17 8008.17,4260.17 8010.5,4258.5 Z"/></g>
<g><path style="opacity:0.671" fill="#f47868" d="M 7985.5,4284.5 C 7984.5,4287.5 7982.5,4289.5 7979.5,4290.5C 7981.17,4288.17 7983.17,4286.17 7985.5,4284.5 Z"/></g>
<g><path style="opacity:0.671" fill="#f57767" d="M 7960.5,4310.5 C 7959.17,4313.83 7956.83,4316.17 7953.5,4317.5C 7955.5,4314.83 7957.83,4312.5 7960.5,4310.5 Z"/></g>
<g><path style="opacity:0.671" fill="#f57767" d="M 7934.5,4337.5 C 7933.17,4340.83 7930.83,4343.17 7927.5,4344.5C 7929.5,4341.83 7931.83,4339.5 7934.5,4337.5 Z"/></g>
<g><path style="opacity:0.671" fill="#f57868" d="M 7907.5,4365.5 C 7906.5,4368.5 7904.5,4370.5 7901.5,4371.5C 7903.17,4369.17 7905.17,4367.17 7907.5,4365.5 Z"/></g>
<g><path style="opacity:0.671" fill="#f47868" d="M 7881.5,4392.5 C 7880.17,4395.83 7877.83,4398.17 7874.5,4399.5C 7876.5,4396.83 7878.83,4394.5 7881.5,4392.5 Z"/></g>
<g><path style="opacity:0.671" fill="#f47868" d="M 7855.5,4419.5 C 7854.5,4422.5 7852.5,4424.5 7849.5,4425.5C 7851.17,4423.17 7853.17,4421.17 7855.5,4419.5 Z"/></g>
<g><path style="opacity:0.671" fill="#f57868" d="M 7830.5,4445.5 C 7829.5,4448.5 7827.5,4450.5 7824.5,4451.5C 7826.17,4449.17 7828.17,4447.17 7830.5,4445.5 Z"/></g>
<g><path style="opacity:0.671" fill="#f57868" d="M 7806.5,4470.5 C 7805.5,4473.5 7803.5,4475.5 7800.5,4476.5C 7802.17,4474.17 7804.17,4472.17 7806.5,4470.5 Z"/></g>
<g><path style="opacity:0.671" fill="#f57767" d="M 7783.5,4494.5 C 7782.5,4497.5 7780.5,4499.5 7777.5,4500.5C 7779.17,4498.17 7781.17,4496.17 7783.5,4494.5 Z"/></g>
<g><path style="opacity:0.671" fill="#f57767" d="M 7761.5,4517.5 C 7760.5,4520.5 7758.5,4522.5 7755.5,4523.5C 7757.17,4521.17 7759.17,4519.17 7761.5,4517.5 Z"/></g>
<g><path style="opacity:0.671" fill="#f57767" d="M 7739.5,4540.5 C 7738.5,4543.5 7736.5,4545.5 7733.5,4546.5C 7735.17,4544.17 7737.17,4542.17 7739.5,4540.5 Z"/></g>
<g><path style="opacity:0.671" fill="#f57868" d="M 7717.5,4563.5 C 7716.5,4566.5 7714.5,4568.5 7711.5,4569.5C 7713.17,4567.17 7715.17,4565.17 7717.5,4563.5 Z"/></g>
<g><path style="opacity:0.671" fill="#f47868" d="M 7695.5,4586.5 C 7694.83,4589.17 7693.17,4590.83 7690.5,4591.5C 7691.83,4589.5 7693.5,4587.83 7695.5,4586.5 Z"/></g>
<g><path style="opacity:0.671" fill="#f57767" d="M 7674.5,4608.5 C 7673.5,4611.5 7671.5,4613.5 7668.5,4614.5C 7670.17,4612.17 7672.17,4610.17 7674.5,4608.5 Z"/></g>
<g><path style="opacity:0.671" fill="#f57968" d="M 7652.5,4631.5 C 7651.83,4634.17 7650.17,4635.83 7647.5,4636.5C 7648.83,4634.5 7650.5,4632.83 7652.5,4631.5 Z"/></g>
<g><path style="opacity:0.671" fill="#f57968" d="M 7631.5,4653.5 C 7630.83,4656.17 7629.17,4657.83 7626.5,4658.5C 7627.83,4656.5 7629.5,4654.83 7631.5,4653.5 Z"/></g>
<g><path style="opacity:0.671" fill="#f57968" d="M 7610.5,4675.5 C 7609.83,4678.17 7608.17,4679.83 7605.5,4680.5C 7606.83,4678.5 7608.5,4676.83 7610.5,4675.5 Z"/></g>
<g><path style="opacity:0.671" fill="#f57767" d="M 7590.5,4696.5 C 7589.5,4699.5 7587.5,4701.5 7584.5,4702.5C 7586.17,4700.17 7588.17,4698.17 7590.5,4696.5 Z"/></g>
<g><path style="opacity:0.671" fill="#f57868" d="M 7569.5,4718.5 C 7568.83,4721.17 7567.17,4722.83 7564.5,4723.5C 7565.83,4721.5 7567.5,4719.83 7569.5,4718.5 Z"/></g>
<g><path style="opacity:0.671" fill="#f57968" d="M 7548.5,4740.5 C 7547.83,4743.17 7546.17,4744.83 7543.5,4745.5C 7544.83,4743.5 7546.5,4741.83 7548.5,4740.5 Z"/></g>
<g><path style="opacity:0.671" fill="#f57868" d="M 7528.5,4761.5 C 7527.83,4764.17 7526.17,4765.83 7523.5,4766.5C 7524.83,4764.5 7526.5,4762.83 7528.5,4761.5 Z"/></g>
<g><path style="opacity:0.671" fill="#f57868" d="M 7508.5,4782.5 C 7507.83,4785.17 7506.17,4786.83 7503.5,4787.5C 7504.83,4785.5 7506.5,4783.83 7508.5,4782.5 Z"/></g>
<g><path style="opacity:1" fill="#070709" d="M 577.5,4824.5 C 578.756,4815.66 582.422,4807.99 588.5,4801.5C 590.228,4800.62 592.061,4799.95 594,4799.5C 651.1,4810.04 708.267,4820.21 765.5,4830C 872.288,4852.02 979.288,4873.02 1086.5,4893C 1117.49,4899.53 1148.15,4907.2 1178.5,4916C 1196.85,4918.92 1215.18,4921.92 1233.5,4925C 1241.55,4927.53 1249.21,4930.86 1256.5,4935C 1257.08,4935.89 1257.41,4936.89 1257.5,4938C 1253.69,4948.79 1248.19,4958.62 1241,4967.5C 1229.47,4980.36 1217.97,4993.19 1206.5,5006C 1195.5,5011.24 1184.17,5011.91 1172.5,5008C 1148.67,5001.71 1124.67,4996.04 1100.5,4991C 1045.32,4975.71 989.991,4961.04 934.5,4947C 825.098,4922.86 715.764,4898.53 606.5,4874C 597.859,4872.11 591.026,4867.61 586,4860.5C 581.834,4848.83 579.001,4836.83 577.5,4824.5 Z"/></g>
<g><path style="opacity:0.671" fill="#f57767" d="M 7488.5,4803.5 C 7487.83,4806.17 7486.17,4807.83 7483.5,4808.5C 7484.83,4806.5 7486.5,4804.83 7488.5,4803.5 Z"/></g>
<g><path style="opacity:0.671" fill="#f57767" d="M 7468.5,4824.5 C 7467.83,4827.17 7466.17,4828.83 7463.5,4829.5C 7464.83,4827.5 7466.5,4825.83 7468.5,4824.5 Z"/></g>
<g><path style="opacity:0.671" fill="#f57868" d="M 7448.5,4845.5 C 7447.83,4848.17 7446.17,4849.83 7443.5,4850.5C 7444.83,4848.5 7446.5,4846.83 7448.5,4845.5 Z"/></g>
<g><path style="opacity:0.671" fill="#f57968" d="M 7428.5,4866.5 C 7427.83,4869.17 7426.17,4870.83 7423.5,4871.5C 7424.83,4869.5 7426.5,4867.83 7428.5,4866.5 Z"/></g>
<g><path style="opacity:0.671" fill="#f57868" d="M 7409.5,4886.5 C 7408.83,4889.17 7407.17,4890.83 7404.5,4891.5C 7405.83,4889.5 7407.5,4887.83 7409.5,4886.5 Z"/></g>
<g><path style="opacity:0.671" fill="#f47868" d="M 7370.5,4927.5 C 7369.83,4930.17 7368.17,4931.83 7365.5,4932.5C 7366.83,4930.5 7368.5,4928.83 7370.5,4927.5 Z"/></g>
<g><path style="opacity:0.671" fill="#f57868" d="M 7351.5,4947.5 C 7350.83,4950.17 7349.17,4951.83 7346.5,4952.5C 7347.83,4950.5 7349.5,4948.83 7351.5,4947.5 Z"/></g>
<g><path style="opacity:0.671" fill="#f57868" d="M 7332.5,4967.5 C 7331.83,4970.17 7330.17,4971.83 7327.5,4972.5C 7328.83,4970.5 7330.5,4968.83 7332.5,4967.5 Z"/></g>
<g><path style="opacity:0.671" fill="#f57767" d="M 7295.5,5006.5 C 7294.83,5009.17 7293.17,5010.83 7290.5,5011.5C 7291.83,5009.5 7293.5,5007.83 7295.5,5006.5 Z"/></g>
<g><path style="opacity:0.671" fill="#f47868" d="M 7258.5,5045.5 C 7257.83,5048.17 7256.17,5049.83 7253.5,5050.5C 7254.83,5048.5 7256.5,5046.83 7258.5,5045.5 Z"/></g>
<g><path style="opacity:0.671" fill="#f57868" d="M 7240.5,5064.5 C 7239.83,5067.17 7238.17,5068.83 7235.5,5069.5C 7236.83,5067.5 7238.5,5065.83 7240.5,5064.5 Z"/></g>
<g><path style="opacity:0.671" fill="#f57767" d="M 7222.5,5083.5 C 7221.83,5086.17 7220.17,5087.83 7217.5,5088.5C 7218.83,5086.5 7220.5,5084.83 7222.5,5083.5 Z"/></g>
<g><path style="opacity:0.671" fill="#f57868" d="M 7185.5,5122.5 C 7184.83,5125.17 7183.17,5126.83 7180.5,5127.5C 7181.83,5125.5 7183.5,5123.83 7185.5,5122.5 Z"/></g>
<g><path style="opacity:0.671" fill="#f57767" d="M 7148.5,5161.5 C 7147.83,5164.17 7146.17,5165.83 7143.5,5166.5C 7144.83,5164.5 7146.5,5162.83 7148.5,5161.5 Z"/></g>
<g><path style="opacity:0.671" fill="#f57767" d="M 7129.5,5181.5 C 7128.83,5184.17 7127.17,5185.83 7124.5,5186.5C 7125.83,5184.5 7127.5,5182.83 7129.5,5181.5 Z"/></g>
<g><path style="opacity:0.671" fill="#f47868" d="M 7018.5,5298.5 C 7017.83,5301.17 7016.17,5302.83 7013.5,5303.5C 7014.83,5301.5 7016.5,5299.83 7018.5,5298.5 Z"/></g>
<g><path style="opacity:0.671" fill="#f47868" d="M 6980.5,5338.5 C 6979.83,5341.17 6978.17,5342.83 6975.5,5343.5C 6976.83,5341.5 6978.5,5339.83 6980.5,5338.5 Z"/></g>
<g><path style="opacity:0.671" fill="#f47868" d="M 6959.5,5360.5 C 6958.83,5363.17 6957.17,5364.83 6954.5,5365.5C 6955.83,5363.5 6957.5,5361.83 6959.5,5360.5 Z"/></g>
<g><path style="opacity:0.251" fill="#f8ae99" d="M 11704.5,5382.5 C 11705.2,5383.53 11705.9,5384.7 11706.5,5386C 11706.3,5386.4 11705.9,5386.57 11705.5,5386.5C 11704.6,5385.43 11704.2,5384.1 11704.5,5382.5 Z"/></g>
<g><path style="opacity:0.671" fill="#f47868" d="M 6936.5,5384.5 C 6935.5,5387.5 6933.5,5389.5 6930.5,5390.5C 6932.17,5388.17 6934.17,5386.17 6936.5,5384.5 Z"/></g>
<g><path style="opacity:0.251" fill="#f8ae99" d="M 11705.5,5390.5 C 11706.2,5391.53 11706.9,5392.7 11707.5,5394C 11707.3,5394.4 11706.9,5394.57 11706.5,5394.5C 11705.6,5393.43 11705.2,5392.1 11705.5,5390.5 Z"/></g>
<g><path style="opacity:0.251" fill="#f8ae99" d="M 11706.5,5398.5 C 11707.2,5399.53 11707.9,5400.7 11708.5,5402C 11708.3,5402.4 11707.9,5402.57 11707.5,5402.5C 11706.6,5401.43 11706.2,5400.1 11706.5,5398.5 Z"/></g>
<g><path style="opacity:0.671" fill="#f57667" d="M 6909.5,5412.5 C 6907.5,5416.5 6904.5,5419.5 6900.5,5421.5C 6903.17,5418.17 6906.17,5415.17 6909.5,5412.5 Z"/></g>
<g><path style="opacity:0.251" fill="#f8ae99" d="M 11713.5,5460.5 C 11714.2,5461.53 11714.9,5462.7 11715.5,5464C 11715.3,5464.4 11714.9,5464.57 11714.5,5464.5C 11713.6,5463.43 11713.2,5462.1 11713.5,5460.5 Z"/></g>
<g><path style="opacity:0.251" fill="#f6b19c" d="M 11714.5,5469.5 C 11715.2,5470.88 11715.9,5472.38 11716.5,5474C 11716.3,5474.4 11715.9,5474.57 11715.5,5474.5C 11714.5,5473.08 11714.2,5471.41 11714.5,5469.5 Z"/></g>
<g><path style="opacity:0.251" fill="#f6b19c" d="M 11715.5,5479.5 C 11716.2,5480.88 11716.9,5482.38 11717.5,5484C 11717.3,5484.4 11716.9,5484.57 11716.5,5484.5C 11715.5,5483.08 11715.2,5481.41 11715.5,5479.5 Z"/></g>
<g><path style="opacity:0.337" fill="#f6ac97" d="M 11716.5,5489.5 C 11717.8,5491.44 11718.2,5493.44 11717.5,5495.5C 11716.5,5493.74 11716.2,5491.74 11716.5,5489.5 Z"/></g>
<g><path style="opacity:0.298" fill="#f8b0a2" d="M 11718.5,5511.5 C 11719.2,5512.88 11719.9,5514.38 11720.5,5516C 11720.3,5516.4 11719.9,5516.57 11719.5,5516.5C 11718.5,5515.08 11718.2,5513.41 11718.5,5511.5 Z"/></g>
<g><path style="opacity:0.298" fill="#f7ab9b" d="M 11722.5,5558.5 C 11723.2,5560.22 11723.9,5562.05 11724.5,5564C 11723.9,5564.38 11723.6,5564.88 11723.5,5565.5C 11722.5,5563.39 11722.2,5561.06 11722.5,5558.5 Z"/></g>
<g><path style="opacity:0.298" fill="#f8b1a0" d="M 11725.5,5599.5 C 11726.2,5601.56 11726.9,5603.72 11727.5,5606C 11726.9,5606.38 11726.6,5606.88 11726.5,5607.5C 11725.5,5605.05 11725.2,5602.39 11725.5,5599.5 Z"/></g>
<g><path style="opacity:0.325" fill="#f6b19f" d="M 11727.5,5631.5 C 11728.8,5634.44 11729.2,5637.44 11728.5,5640.5C 11727.5,5637.71 11727.2,5634.71 11727.5,5631.5 Z"/></g>
<g><path style="opacity:0.325" fill="#f7ae97" d="M 11728.5,5649.5 C 11729.9,5652.76 11730.3,5656.09 11729.5,5659.5C 11728.5,5656.38 11728.2,5653.04 11728.5,5649.5 Z"/></g>
<g><path style="opacity:0.298" fill="#f6ae99" d="M 11729.5,5668.5 C 11730.9,5672.11 11731.2,5675.77 11730.5,5679.5C 11729.5,5676.04 11729.2,5672.37 11729.5,5668.5 Z"/></g>
<g><path style="opacity:0.298" fill="#f8b19b" d="M 11730.5,5689.5 C 11731.9,5693.77 11732.2,5698.1 11731.5,5702.5C 11730.5,5698.37 11730.2,5694.03 11730.5,5689.5 Z"/></g>
<g><path style="opacity:0.325" fill="#f6b097" d="M 11731.5,5714.5 C 11732.9,5719.44 11733.3,5724.44 11732.5,5729.5C 11731.5,5724.69 11731.2,5719.69 11731.5,5714.5 Z"/></g>
<g><path style="opacity:0.325" fill="#f6aa8f" d="M 11733.5,5781.5 C 11735.1,5791.78 11735.5,5802.11 11734.5,5812.5C 11733.5,5802.35 11733.2,5792.01 11733.5,5781.5 Z"/></g>
<g><path style="opacity:0.298" fill="#f3a993" d="M 11734.5,5936.5 C 11734.2,5939.78 11734.5,5942.94 11735.5,5946C 11734.8,5954.6 11734.2,5963.1 11733.5,5971.5C 11733.2,5959.65 11733.5,5947.99 11734.5,5936.5 Z"/></g>
<g><path style="opacity:1" fill="#070709" d="M 480.5,6081.5 C 480.5,6073.83 480.5,6066.17 480.5,6058.5C 488.718,6049.13 498.718,6042.29 510.5,6038C 725.169,6038.37 939.835,6039.37 1154.5,6041C 1159.28,6042.23 1163.62,6044.23 1167.5,6047C 1163.69,6060.78 1157.86,6073.61 1150,6085.5C 1139.92,6100 1130.58,6115 1122,6130.5C 1119.37,6133.23 1116.21,6135.06 1112.5,6136C 1105.17,6136.67 1097.83,6136.67 1090.5,6136C 1075.87,6134.26 1061.2,6132.93 1046.5,6132C 959.736,6127.26 873.069,6121.26 786.5,6114C 703.201,6110.69 619.868,6108.69 536.5,6108C 518.105,6105.4 499.772,6102.56 481.5,6099.5C 481.823,6093.31 481.49,6087.31 480.5,6081.5 Z"/></g>
<g><path style="opacity:0.282" fill="#f3ac98" d="M 11730.5,6076.5 C 11731.3,6081.56 11730.9,6086.56 11729.5,6091.5C 11729.2,6086.31 11729.5,6081.31 11730.5,6076.5 Z"/></g>
<g><path style="opacity:0.251" fill="#f3ab95" d="M 11728.5,6121.5 C 11729.2,6125.9 11728.9,6130.23 11727.5,6134.5C 11727.2,6129.97 11727.5,6125.63 11728.5,6121.5 Z"/></g>
<g><path style="opacity:1" fill="#070709" d="M 662.5,7322.5 C 661.735,7319.9 661.401,7317.24 661.5,7314.5C 661.337,7312.14 661.503,7309.81 662,7307.5C 665.529,7305.45 667.862,7302.45 669,7298.5C 668.014,7291.23 667.68,7283.89 668,7276.5C 670.697,7271.56 674.864,7268.73 680.5,7268C 739.379,7262.71 798.379,7259.37 857.5,7258C 979.836,7258.34 1102.17,7258.18 1224.5,7257.5C 1251.83,7258.18 1279.16,7258.68 1306.5,7259C 1317.2,7261.89 1321.03,7268.72 1318,7279.5C 1308.25,7297.33 1298.25,7315 1288,7332.5C 1282.63,7341.54 1274.8,7347.04 1264.5,7349C 1220.52,7347.87 1176.52,7347.2 1132.5,7347C 1102.72,7345.07 1073.05,7342.07 1043.5,7338C 930.838,7338.07 818.171,7337.74 705.5,7337C 691.902,7335.2 678.569,7332.2 665.5,7328C 664.771,7325.94 663.771,7324.11 662.5,7322.5 Z"/></g>
<g><path style="opacity:1" fill="#070709" d="M 1179.5,8607.5 C 1174.22,8603.96 1171.22,8598.96 1170.5,8592.5C 1172.09,8575.39 1181.09,8563.89 1197.5,8558C 1290.2,8540.26 1382.86,8522.26 1475.5,8504C 1555.65,8490.5 1635.65,8476.17 1715.5,8461C 1735.09,8458.77 1754.76,8457.94 1774.5,8458.5C 1774.84,8463.19 1775,8467.85 1775,8472.5C 1769.34,8492.48 1762.01,8511.82 1753,8530.5C 1749.11,8537.45 1743.94,8543.28 1737.5,8548C 1725.19,8555.21 1712.19,8559.55 1698.5,8561C 1686.24,8562.55 1674.08,8564.39 1662,8566.5C 1523.29,8580.01 1384.12,8599.84 1244.5,8626C 1237.43,8626.84 1230.43,8626.51 1223.5,8625C 1213.01,8620.26 1202.68,8615.26 1192.5,8610C 1188.27,8608.59 1183.94,8607.75 1179.5,8607.5 Z"/></g>
<g><path style="opacity:0.989" fill="#ea7055" d="M 4516.5,9216.5 C 4509.52,9215.65 4502.35,9214.31 4495,9212.5C 4493.73,9212.62 4492.4,9212.95 4491,9213.5C 4478.58,9210.16 4467.75,9213.5 4458.5,9223.5C 4452.91,9233.95 4448.91,9244.95 4446.5,9256.5C 4441.44,9249.93 4435.77,9243.76 4429.5,9238C 4383.22,9207.06 4339.22,9173.06 4297.5,9136C 4253.14,9094.64 4210.47,9051.64 4169.5,9007C 4207.41,9017.44 4243.74,9032.11 4278.5,9051C 4317.69,9072.75 4355.36,9096.75 4391.5,9123C 4433.35,9154.03 4475.02,9185.2 4516.5,9216.5 Z"/></g>
<g><path style="opacity:1" fill="#070709" d="M 2110.5,9826.5 C 2106.82,9824.66 2103.48,9822.33 2100.5,9819.5C 2100.17,9818.5 2099.5,9817.83 2098.5,9817.5C 2094.84,9814.2 2092.18,9810.2 2090.5,9805.5C 2087.08,9790.06 2091.08,9776.56 2102.5,9765C 2250.36,9683.4 2400.36,9605.4 2552.5,9531C 2561.39,9527.06 2570.39,9523.39 2579.5,9520C 2583.5,9519.33 2587.5,9519.33 2591.5,9520C 2593.59,9520.79 2595.42,9521.96 2597,9523.5C 2600.19,9528.55 2602.86,9533.89 2605,9539.5C 2609.82,9553.12 2614.49,9566.78 2619,9580.5C 2621.51,9590.96 2618.35,9599.12 2609.5,9605C 2539.95,9636.61 2470.29,9667.94 2400.5,9699C 2317.17,9738.67 2233.83,9778.33 2150.5,9818C 2137.97,9824.61 2124.64,9827.44 2110.5,9826.5 Z"/></g>
<g><path style="opacity:0.024" fill="#f3d9cf" d="M 2098.5,9817.5 C 2099.5,9817.83 2100.17,9818.5 2100.5,9819.5C 2099.17,9819.5 2098.5,9818.83 2098.5,9817.5 Z"/></g>
<g><path style="opacity:1" fill="#070709" d="M 3759.5,10369.5 C 3766.58,10368.6 3773.25,10369.8 3779.5,10373C 3796.05,10390.4 3808.72,10410.2 3817.5,10432.5C 3816.95,10440.5 3813.28,10446.7 3806.5,10451C 3745.22,10481 3683.22,10509.3 3620.5,10536C 3511.83,10586.7 3403.83,10639 3296.5,10693C 3284.73,10697.7 3274.06,10696 3264.5,10688C 3240.35,10665.4 3242.02,10645 3269.5,10627C 3336.72,10588.9 3405.06,10552.6 3474.5,10518C 3544.07,10479.4 3614.41,10442 3685.5,10406C 3710.94,10395.1 3735.6,10382.9 3759.5,10369.5 Z"/></g>
<g><path style="opacity:1" fill="#070709" d="M 4725.5,11286.5 C 4708.67,11289.6 4692.34,11287.8 4676.5,11281C 4668.46,11277.3 4660.46,11273.4 4652.5,11269.5C 4651.7,11267.3 4650.03,11266.3 4647.5,11266.5C 4646.44,11252.8 4650.44,11241 4659.5,11231C 4785.21,11127 4911.21,11023.3 5037.5,10920C 5056.89,10905.1 5075.23,10906.5 5092.5,10924C 5104.07,10930 5116.07,10935 5128.5,10939C 5133.91,10941.9 5138.91,10945.4 5143.5,10949.5C 5136.5,10962.7 5126.83,10973.5 5114.5,10982C 5100,10991.1 5085.66,11000.4 5071.5,11010C 4960.47,11089.7 4851.14,11171.7 4743.5,11256C 4732.43,11263.3 4726.43,11273.5 4725.5,11286.5 Z"/></g>
<g><path style="opacity:1" fill="#070709" d="M 6497.5,11160.5 C 6501.85,11160.3 6506.18,11160.5 6510.5,11161C 6533.47,11167.6 6554.64,11177.7 6574,11191.5C 6575.13,11197.5 6573.79,11202.8 6570,11207.5C 6522.79,11265.7 6474.46,11323 6425,11379.5C 6412.88,11395.3 6400.38,11410.8 6387.5,11426C 6381.42,11431.2 6374.42,11434.5 6366.5,11436C 6351.16,11436.2 6335.83,11435.9 6320.5,11435C 6308.48,11432.4 6303.98,11425.3 6307,11413.5C 6313.49,11401.9 6320.49,11390.5 6328,11379.5C 6375.9,11315.6 6424.57,11252.3 6474,11189.5C 6478.42,11182.3 6483.09,11175.3 6488,11168.5C 6490.77,11165.2 6493.94,11162.5 6497.5,11160.5 Z"/></g>
</svg>
