<?xml version="1.0" encoding="UTF-8"?>
<!DOCTYPE svg PUBLIC "-//W3C//DTD SVG 1.1//EN" "http://www.w3.org/Graphics/SVG/1.1/DTD/svg11.dtd">
<svg xmlns="http://www.w3.org/2000/svg" version="1.1" width="512px" height="512px" style="shape-rendering:geometricPrecision; text-rendering:geometricPrecision; image-rendering:optimizeQuality; fill-rule:evenodd; clip-rule:evenodd" xmlns:xlink="http://www.w3.org/1999/xlink">
<g><path style="opacity:0.962" fill="#020201" d="M 307.5,-0.5 C 319.833,-0.5 332.167,-0.5 344.5,-0.5C 424.121,10.9014 477.288,54.568 504,130.5C 507.228,142.15 509.728,153.816 511.5,165.5C 511.5,178.167 511.5,190.833 511.5,203.5C 499.967,281.873 456.967,334.707 382.5,362C 321.078,379.514 264.578,369.681 213,332.5C 206.333,339.167 199.667,345.833 193,352.5C 195.732,362.954 193.399,372.288 186,380.5C 153.333,417.833 120.667,455.167 88,492.5C 79.8817,502.3 69.715,508.633 57.5,511.5C 51.1667,511.5 44.8333,511.5 38.5,511.5C 17.8245,506.158 4.82452,493.158 -0.5,472.5C -0.5,465.833 -0.5,459.167 -0.5,452.5C 2.74374,440.203 9.41041,430.036 19.5,422C 56.8333,389.333 94.1667,356.667 131.5,324C 139.528,317.387 148.528,315.387 158.5,318C 165.167,311.333 171.833,304.667 178.5,298C 136.986,239.389 129.486,176.556 156,109.5C 186.835,45.8253 237.335,9.15859 307.5,-0.5 Z"/></g>
<g><path style="opacity:1" fill="#c4ebf8" d="M 309.5,14.5 C 382.005,11.3281 437.171,40.3281 475,101.5C 504.016,158.457 503.349,215.123 473,271.5C 433.422,332.204 377.255,359.704 304.5,354C 228.705,340.52 180.538,296.687 160,222.5C 147.518,156.279 166.018,100.445 215.5,55C 242.925,32.455 274.258,18.955 309.5,14.5 Z"/></g>
<g><path style="opacity:1" fill="#030405" d="M 313.5,47.5 C 314.296,51.6388 312.963,54.8055 309.5,57C 246.593,68.9074 209.426,106.407 198,169.5C 194.92,206.584 204.92,239.584 228,268.5C 233.404,274.409 239.237,279.742 245.5,284.5C 258.865,296.021 274.199,304.187 291.5,309C 297.752,310.717 304.086,312.05 310.5,313C 313.397,314.715 314.731,317.215 314.5,320.5C 313.717,324.948 311.05,327.281 306.5,327.5C 250.762,317.255 212.262,285.921 191,233.5C 171.213,167.544 187.713,112.71 240.5,69C 259.8,54.8978 281.3,46.0645 305,42.5C 309.211,42.0161 312.044,43.6827 313.5,47.5 Z"/></g>
<g><path style="opacity:1" fill="#030505" d="M 334.5,321.5 C 334.253,318.495 335.253,315.995 337.5,314C 397.346,304.481 435.512,270.648 452,212.5C 460.232,171.767 451.399,135.434 425.5,103.5C 403.639,76.562 375.305,61.062 340.5,57C 336.724,55.395 334.724,52.5616 334.5,48.5C 335.885,44.1198 338.885,42.1198 343.5,42.5C 400.092,50.9265 439.259,81.5932 461,134.5C 478.732,189.885 468.732,239.552 431,283.5C 406.74,308.796 377.073,323.463 342,327.5C 338.15,327.146 335.65,325.146 334.5,321.5 Z"/></g>
<g><path style="opacity:1" fill="#96e3f8" d="M 313.5,47.5 C 320.412,48.4621 327.412,48.7955 334.5,48.5C 334.724,52.5616 336.724,55.395 340.5,57C 375.305,61.062 403.639,76.562 425.5,103.5C 440.537,139.098 441.37,175.098 428,211.5C 400.037,271.252 352.871,299.418 286.5,296C 272.229,294.183 258.562,290.35 245.5,284.5C 239.237,279.742 233.404,274.409 228,268.5C 204.92,239.584 194.92,206.584 198,169.5C 209.426,106.407 246.593,68.9074 309.5,57C 312.963,54.8055 314.296,51.6388 313.5,47.5 Z"/></g>
<g><path style="opacity:1" fill="#030505" d="M 314.5,86.5 C 346.772,83.7539 374.272,93.7539 397,116.5C 399.233,124.608 396.066,128.108 387.5,127C 360.632,101.584 329.632,94.9178 294.5,107C 283.798,111.377 274.465,117.711 266.5,126C 257.319,129.325 253.485,126.158 255,116.5C 271.613,99.9435 291.447,89.9435 314.5,86.5 Z"/></g>
<g><path style="opacity:1" fill="#61d6f7" d="M 425.5,103.5 C 451.399,135.434 460.232,171.767 452,212.5C 435.512,270.648 397.346,304.481 337.5,314C 335.253,315.995 334.253,318.495 334.5,321.5C 327.745,321.793 321.078,321.46 314.5,320.5C 314.731,317.215 313.397,314.715 310.5,313C 304.086,312.05 297.752,310.717 291.5,309C 274.199,304.187 258.865,296.021 245.5,284.5C 258.562,290.35 272.229,294.183 286.5,296C 352.871,299.418 400.037,271.252 428,211.5C 441.37,175.098 440.537,139.098 425.5,103.5 Z"/></g>
<g><path style="opacity:1" fill="#d3e1e7" d="M 188.5,309.5 C 192.964,313.463 197.298,317.63 201.5,322C 194.986,328.681 188.319,335.181 181.5,341.5C 177.167,337.833 173.167,333.833 169.5,329.5C 175.855,322.813 182.188,316.146 188.5,309.5 Z"/></g>
<g><path style="opacity:1" fill="#f9da2d" d="M 161.5,343.5 C 153.798,351.2 146.465,359.2 139.5,367.5C 134.035,362.536 128.702,357.37 123.5,352C 130.833,345.667 138.167,339.333 145.5,333C 147.5,332.333 149.5,332.333 151.5,333C 155.037,336.369 158.371,339.869 161.5,343.5 Z"/></g>
<g><path style="opacity:1" fill="#f8d107" d="M 161.5,343.5 C 168.298,348.957 173.965,355.29 178.5,362.5C 178.333,363.5 178.167,364.5 178,365.5C 171.285,372.71 164.785,380.044 158.5,387.5C 152.145,380.813 145.812,374.146 139.5,367.5C 146.465,359.2 153.798,351.2 161.5,343.5 Z"/></g>
<g><path style="opacity:1" fill="#f9a414" d="M 128.5,378.5 C 128.291,379.922 127.791,381.255 127,382.5C 100.833,412 74.6667,441.5 48.5,471C 39.7616,476.968 30.095,479.801 19.5,479.5C 10.4424,461.794 13.7757,446.627 29.5,434C 56.1667,410.667 82.8333,387.333 109.5,364C 110.759,363.018 112.092,362.685 113.5,363C 118.703,368.035 123.703,373.202 128.5,378.5 Z"/></g>
<g><path style="opacity:1" fill="#f79601" d="M 128.5,378.5 C 136.014,384.837 142.514,391.837 148,399.5C 122.206,429.63 96.0391,459.463 69.5,489C 55.0998,498.955 40.7665,498.955 26.5,489C 23.1517,486.499 20.8184,483.332 19.5,479.5C 30.095,479.801 39.7616,476.968 48.5,471C 74.6667,441.5 100.833,412 127,382.5C 127.791,381.255 128.291,379.922 128.5,378.5 Z"/></g>
</svg>
