<?xml version="1.0" encoding="UTF-8"?>
<!DOCTYPE svg PUBLIC "-//W3C//DTD SVG 1.1//EN" "http://www.w3.org/Graphics/SVG/1.1/DTD/svg11.dtd">
<svg xmlns="http://www.w3.org/2000/svg" version="1.1" width="512px" height="512px" style="shape-rendering:geometricPrecision; text-rendering:geometricPrecision; image-rendering:optimizeQuality; fill-rule:evenodd; clip-rule:evenodd" xmlns:xlink="http://www.w3.org/1999/xlink">
<g><path style="opacity:0.946" fill="#fb7468" d="M 511.5,249.5 C 511.5,330.5 511.5,411.5 511.5,492.5C 509.021,497.143 505.355,500.643 500.5,503C 456.167,503.667 411.833,503.667 367.5,503C 356.353,498.492 352.187,490.326 355,478.5C 356.123,475.751 357.623,473.251 359.5,471C 369.08,465.96 378.58,460.794 388,455.5C 389.771,447.142 391.605,438.809 393.5,430.5C 333.504,429.5 273.504,429.167 213.5,429.5C 219.33,383.802 205.33,345.635 171.5,315C 138.357,289.586 101.691,282.919 61.5,295C 48.2741,299.609 36.2741,306.276 25.5,315C 16.6037,323.728 7.93705,332.562 -0.5,341.5C -0.5,241.167 -0.5,140.833 -0.5,40.5C 18.7296,38.8055 36.0629,43.6388 51.5,55C 94.2867,94.8197 136.787,134.986 179,175.5C 203.501,137.169 227.501,98.5022 251,59.5C 273.785,25.8524 305.618,8.51909 346.5,7.5C 346.5,13.1667 346.5,18.8333 346.5,24.5C 311.156,25.7454 283.989,41.0788 265,70.5C 252.251,91.6676 239.251,112.668 226,133.5C 225.333,134.5 225.333,135.5 226,136.5C 235.275,156.716 244.275,177.049 253,197.5C 253.839,198.624 255.006,199.291 256.5,199.5C 280.754,203.877 305.087,207.377 329.5,210C 353.833,185.667 378.167,161.333 402.5,137C 384.679,129.19 374.179,115.69 371,96.5C 370.5,89.1742 370.334,81.8409 370.5,74.5C 362.167,74.5 353.833,74.5 345.5,74.5C 345.5,68.5 345.5,62.5 345.5,56.5C 353.833,56.5 362.167,56.5 370.5,56.5C 372.153,32.3666 384.486,16.5332 407.5,9C 436.143,3.56931 456.31,14.0693 468,40.5C 468.794,43.4715 469.461,46.4715 470,49.5C 470.667,65.8333 470.667,82.1667 470,98.5C 468.183,109.303 463.35,118.469 455.5,126C 472.429,131.927 484.596,143.094 492,159.5C 498.841,189.548 505.341,219.548 511.5,249.5 Z M 417.5,24.5 C 438.564,25.0242 450.564,35.6908 453.5,56.5C 431.833,56.5 410.167,56.5 388.5,56.5C 390.52,38.8168 400.187,28.1501 417.5,24.5 Z M 16.5,58.5 C 28.547,60.8558 38.8803,66.3558 47.5,75C 87.1667,112.667 126.833,150.333 166.5,188C 158.167,188.667 149.833,188.667 141.5,188C 132.45,180.615 123.116,173.615 113.5,167C 85.5,139 57.5,111 29.5,83C 25.582,80.1227 21.4153,77.6227 17,75.5C 16.5006,69.8431 16.3339,64.1764 16.5,58.5 Z M 388.5,74.5 C 410.167,74.5 431.833,74.5 453.5,74.5C 454.269,84.7537 453.102,94.7537 450,104.5C 437.159,123.835 420.659,127.668 400.5,116C 394.624,111.12 390.791,104.953 389,97.5C 388.5,89.8406 388.334,82.1739 388.5,74.5 Z M 16.5,95.5 C 33.9652,112.465 51.2986,129.632 68.5,147C 45.0654,146.175 33.0654,157.342 32.5,180.5C 27.1667,180.5 21.8333,180.5 16.5,180.5C 16.5,152.167 16.5,123.833 16.5,95.5 Z M 426.5,140.5 C 442.153,141.144 447.319,148.81 442,163.5C 420.5,185 399,206.5 377.5,228C 371.503,224.496 365.17,221.163 358.5,218C 355.5,217 352.5,216 349.5,215C 373.167,191.333 396.833,167.667 420.5,144C 422.432,142.541 424.432,141.375 426.5,140.5 Z M 461.5,150.5 C 461.897,149.475 462.563,149.308 463.5,150C 470.026,155.521 474.526,162.354 477,170.5C 482.379,197.063 487.879,223.563 493.5,250C 464.619,263.21 434.286,270.377 402.5,271.5C 400.358,260.549 396.024,250.549 389.5,241.5C 411.819,218.68 434.319,196.014 457,173.5C 461.576,166.237 463.076,158.571 461.5,150.5 Z M 213.5,153.5 C 220.058,166.956 226.392,180.623 232.5,194.5C 231.833,194.833 231.167,195.167 230.5,195.5C 219.187,193.559 207.853,191.726 196.5,190C 194.956,189.71 193.623,189.044 192.5,188C 199.888,176.722 206.888,165.222 213.5,153.5 Z M 57.5,165.5 C 67.5056,165.334 77.5056,165.5 87.5,166C 94.9437,174.45 103.277,181.783 112.5,188C 94.1667,188.667 75.8333,188.667 57.5,188C 50.2,184.562 48.0334,179.062 51,171.5C 52.4936,168.686 54.6603,166.686 57.5,165.5 Z M 16.5,198.5 C 24.84,198.334 33.1733,198.5 41.5,199C 45.8467,202.673 50.8467,205.006 56.5,206C 81.1644,206.5 105.831,206.667 130.5,206.5C 129.885,228.906 125.552,250.573 117.5,271.5C 80.3675,268.156 46.8675,277.489 17,299.5C 16.5,265.835 16.3333,232.168 16.5,198.5 Z M 148.5,206.5 C 163.17,206.333 177.837,206.5 192.5,207C 243.557,215.01 294.557,223.343 345.5,232C 358.682,236.184 369.349,243.851 377.5,255C 350.502,255.5 323.502,255.667 296.5,255.5C 296.5,271.833 296.5,288.167 296.5,304.5C 330.269,310.087 363.936,316.254 397.5,323C 399.487,324.319 400.654,326.152 401,328.5C 401.282,339.854 401.782,351.187 402.5,362.5C 343.163,362.833 283.83,362.5 224.5,361.5C 207.96,318.792 177.96,290.292 134.5,276C 142.871,253.612 147.538,230.446 148.5,206.5 Z M 491.5,269.5 C 492.5,269.5 493.5,269.5 494.5,269.5C 494.5,327.833 494.5,386.167 494.5,444.5C 483.833,444.5 473.167,444.5 462.5,444.5C 463.815,390.794 459.148,337.627 448.5,285C 448.645,284.228 448.978,283.561 449.5,283C 464.156,280.169 478.156,275.669 491.5,269.5 Z M 313.5,272.5 C 337.5,272.5 361.5,272.5 385.5,272.5C 387.11,282.425 387.777,292.425 387.5,302.5C 362.795,298.382 338.128,294.049 313.5,289.5C 313.5,283.833 313.5,278.167 313.5,272.5 Z M 426.5,286.5 C 428.167,286.5 429.833,286.5 431.5,286.5C 441.728,338.671 446.061,391.338 444.5,444.5C 432.5,444.5 420.5,444.5 408.5,444.5C 409.472,438.806 410.639,433.14 412,427.5C 418.121,423.765 421.288,418.265 421.5,411C 420.414,381.836 419.247,352.669 418,323.5C 416.25,316.253 412.083,310.92 405.5,307.5C 404.504,301.202 404.17,294.868 404.5,288.5C 412.056,288.69 419.389,288.023 426.5,286.5 Z M 229.5,379.5 C 287.167,379.5 344.833,379.5 402.5,379.5C 403.15,390.154 403.484,400.821 403.5,411.5C 346.167,411.5 288.833,411.5 231.5,411.5C 231.363,400.797 230.696,390.131 229.5,379.5 Z M 404.5,462.5 C 413.506,462.334 422.506,462.5 431.5,463C 425.749,465.289 420.582,468.455 416,472.5C 413.313,476.754 411.813,481.421 411.5,486.5C 398.008,486.98 384.675,486.48 371.5,485C 379.848,479.825 388.515,475.158 397.5,471C 400.423,468.584 402.757,465.75 404.5,462.5 Z M 460.5,462.5 C 471.833,462.5 483.167,462.5 494.5,462.5C 494.5,470.5 494.5,478.5 494.5,486.5C 472.833,486.5 451.167,486.5 429.5,486.5C 429.281,485.325 429.614,484.325 430.5,483.5C 438.167,479.667 445.833,475.833 453.5,472C 456.939,469.612 459.272,466.445 460.5,462.5 Z"/></g>
<g><path style="opacity:0.937" fill="#fb7468" d="M -0.5,418.5 C -0.5,409.167 -0.5,399.833 -0.5,390.5C 10.7559,337.009 43.7559,308.343 98.5,304.5C 147.625,307.137 179.791,331.804 195,378.5C 204.52,425.936 189.353,463.102 149.5,490C 120.44,505.628 90.4397,507.628 59.5,496C 26.1193,480.461 6.11932,454.627 -0.5,418.5 Z M 87.5,322.5 C 89.4461,327.396 90.1128,332.729 89.5,338.5C 95.5,338.5 101.5,338.5 107.5,338.5C 107.172,333.125 107.505,327.792 108.5,322.5C 116.487,323.829 124.154,326.163 131.5,329.5C 129.033,333.602 126.7,337.768 124.5,342C 128.556,345.877 133.223,349.044 138.5,351.5C 141.253,346.992 144.253,342.659 147.5,338.5C 154.167,343.167 159.833,348.833 164.5,355.5C 160.418,358.291 156.251,360.958 152,363.5C 152.032,365.598 152.699,367.598 154,369.5C 155.689,372.891 157.856,375.891 160.5,378.5C 164.7,375.733 169.034,373.566 173.5,372C 176.764,379.391 179.097,387.057 180.5,395C 175.177,395.499 169.844,395.666 164.5,395.5C 164.5,401.167 164.5,406.833 164.5,412.5C 169.844,412.334 175.177,412.501 180.5,413C 179.019,420.947 177.019,428.78 174.5,436.5C 169.421,434.288 164.421,432.121 159.5,430C 156.573,434.52 153.907,439.187 151.5,444C 155.629,447.236 159.962,450.236 164.5,453C 159.333,459.5 153.5,465.333 147,470.5C 144.333,465.833 141.667,461.167 139,456.5C 134.333,459.167 129.667,461.833 125,464.5C 125.913,469.63 128.08,474.297 131.5,478.5C 123.984,482.38 115.984,484.714 107.5,485.5C 107.5,480.167 107.5,474.833 107.5,469.5C 101.5,469.5 95.5,469.5 89.5,469.5C 89.5,474.833 89.5,480.167 89.5,485.5C 81.1794,484.536 73.1794,482.369 65.5,479C 68.2926,474.582 70.9593,470.082 73.5,465.5C 68.9649,462.468 64.2983,459.635 59.5,457C 58.6683,456.312 58.0016,456.479 57.5,457.5C 55,461.833 52.5,466.167 50,470.5C 43.5,465.333 37.6667,459.5 32.5,453C 36.3318,450.25 40.3318,447.75 44.5,445.5C 45.5827,444.635 45.7494,443.635 45,442.5C 42.5841,437.999 39.9175,433.666 37,429.5C 32.7525,431.707 28.5859,434.04 24.5,436.5C 21.6184,432.711 19.785,428.378 19,423.5C 18.0642,419.886 17.5642,416.22 17.5,412.5C 22.8333,412.5 28.1667,412.5 33.5,412.5C 33.5,406.833 33.5,401.167 33.5,395.5C 28.1667,395.5 22.8333,395.5 17.5,395.5C 17.8468,386.806 20.1801,378.806 24.5,371.5C 28.6018,373.967 32.7685,376.3 37,378.5C 39.6561,374.53 42.3227,370.53 45,366.5C 45.7805,365.056 45.6139,363.723 44.5,362.5C 40.6262,360.132 36.6262,357.966 32.5,356C 37,348.833 42.8333,343 50,338.5C 52.8333,342.833 55.6667,347.167 58.5,351.5C 63.5,348.667 68.5,345.833 73.5,343C 71.4599,339.086 69.2933,335.252 67,331.5C 66.2506,330.365 66.4173,329.365 67.5,328.5C 74.1083,325.854 80.7749,323.854 87.5,322.5 Z M 96.5,379.5 C 115.466,381.295 123.966,391.628 122,410.5C 114.136,427.848 101.636,432.348 84.5,424C 73.0527,413.407 71.5527,401.574 80,388.5C 84.5164,383.495 90.0164,380.495 96.5,379.5 Z"/></g>
<g><path style="opacity:0.936" fill="#fb7468" d="M 91.5,362.5 C 117.788,361.045 133.954,373.045 140,398.5C 141.135,422.406 130.301,437.906 107.5,445C 77.4407,447.609 60.4407,433.943 56.5,404C 58.3174,381.694 69.9841,367.861 91.5,362.5 Z M 96.5,379.5 C 90.0164,380.495 84.5164,383.495 80,388.5C 71.5527,401.574 73.0527,413.407 84.5,424C 101.636,432.348 114.136,427.848 122,410.5C 123.966,391.628 115.466,381.295 96.5,379.5 Z"/></g>
<g><path style="opacity:0.893" fill="#fb7468" d="M 89.5,395.5 C 95.5,395.5 101.5,395.5 107.5,395.5C 107.5,401.167 107.5,406.833 107.5,412.5C 101.5,412.5 95.5,412.5 89.5,412.5C 89.5,406.833 89.5,401.167 89.5,395.5 Z"/></g>
</svg>
