<?xml version="1.0" encoding="UTF-8"?>
<!DOCTYPE svg PUBLIC "-//W3C//DTD SVG 1.1//EN" "http://www.w3.org/Graphics/SVG/1.1/DTD/svg11.dtd">
<svg xmlns="http://www.w3.org/2000/svg" version="1.1" width="512px" height="512px" style="shape-rendering:geometricPrecision; text-rendering:geometricPrecision; image-rendering:optimizeQuality; fill-rule:evenodd; clip-rule:evenodd" xmlns:xlink="http://www.w3.org/1999/xlink">
<g><path style="opacity:0.986" fill="#fe7568" d="M 362.5,-0.5 C 371.833,-0.5 381.167,-0.5 390.5,-0.5C 441.154,9.32073 471.32,39.6541 481,90.5C 483.372,111.596 480.539,131.929 472.5,151.5C 485.5,151.5 498.5,151.5 511.5,151.5C 511.5,271.5 511.5,391.5 511.5,511.5C 362.167,511.5 212.833,511.5 63.5,511.5C 28.9108,503.91 7.57742,482.91 -0.5,448.5C -0.5,340.167 -0.5,231.833 -0.5,123.5C 6.66484,91.1656 26.3315,70.6656 58.5,62C 97.9783,55.6555 126.812,70.1555 145,105.5C 150.06,120.404 151.893,135.738 150.5,151.5C 193.833,151.5 237.167,151.5 280.5,151.5C 263.461,108.599 269.295,69.2655 298,33.5C 315.707,14.8971 337.207,3.56374 362.5,-0.5 Z M 375.5,29.5 C 421.151,33.6516 446.485,58.4849 451.5,104C 451.026,118.724 447.193,132.557 440,145.5C 419.03,177.968 397.863,210.302 376.5,242.5C 355.333,210.167 334.167,177.833 313,145.5C 295.993,112.916 298.993,82.2489 322,53.5C 336.91,38.7916 354.743,30.7916 375.5,29.5 Z M 371.5,90.5 C 388.286,90.0726 393.786,97.7392 388,113.5C 381.803,119.104 374.969,119.937 367.5,116C 361.896,109.803 361.063,102.969 365,95.5C 366.965,93.4497 369.132,91.783 371.5,90.5 Z M 66.5,91.5 C 93.5422,89.0668 111.042,100.733 119,126.5C 120.642,209.479 120.975,292.479 120,375.5C 96.7009,360.127 71.8676,357.293 45.5,367C 40.1753,369.327 35.1753,372.16 30.5,375.5C 30.1667,335.5 29.8333,295.5 29.5,255.5C 29.3583,212.478 29.8583,169.478 31,126.5C 36.0884,107.911 47.9218,96.2444 66.5,91.5 Z M 150.5,181.5 C 200.168,181.333 249.834,181.5 299.5,182C 318.833,211.667 338.167,241.333 357.5,271C 310.167,271.333 262.833,271.667 215.5,272C 197.333,276.833 185.833,288.333 181,306.5C 177.409,329.818 185.909,346.985 206.5,358C 209.5,359 212.5,360 215.5,361C 240.874,361.047 266.208,361.714 291.5,363C 300.83,368.282 302.996,375.782 298,385.5C 296.269,387.617 294.102,389.117 291.5,390C 266.208,391.286 240.874,391.953 215.5,392C 197.333,396.833 185.833,408.333 181,426.5C 180.5,444.83 180.333,463.164 180.5,481.5C 145.498,481.667 110.498,481.5 75.5,481C 47.9766,478.643 32.9766,463.809 30.5,436.5C 31.8203,415.341 42.487,401.174 62.5,394C 89.1289,388.729 107.629,398.563 118,423.5C 119.195,427.751 119.695,432.085 119.5,436.5C 129.833,436.5 140.167,436.5 150.5,436.5C 150.5,351.5 150.5,266.5 150.5,181.5 Z M 453.5,181.5 C 462.833,181.5 472.167,181.5 481.5,181.5C 481.5,281.5 481.5,381.5 481.5,481.5C 391.167,481.5 300.833,481.5 210.5,481.5C 210.333,466.496 210.5,451.496 211,436.5C 211.833,427.667 216.667,422.833 225.5,422C 249.167,421.667 272.833,421.333 296.5,421C 319.063,414.697 330.729,399.864 331.5,376.5C 330.725,353.124 319.059,338.29 296.5,332C 271.126,331.953 245.792,331.286 220.5,330C 212.695,326.219 209.862,320.053 212,311.5C 214.462,305.513 218.962,302.346 225.5,302C 300.833,301.5 376.166,301.333 451.5,301.5C 451.5,291.5 451.5,281.5 451.5,271.5C 432.83,271.667 414.164,271.5 395.5,271C 414.968,241.223 434.302,211.39 453.5,181.5 Z"/></g>
<g><path style="opacity:0.964" fill="#fe7568" d="M 366.5,59.5 C 389.793,56.3955 406.959,65.0622 418,85.5C 425.983,106.533 421.816,124.699 405.5,140C 388.977,151.094 371.643,152.428 353.5,144C 335.692,132.273 328.525,115.773 332,94.5C 337.016,76.3183 348.516,64.6517 366.5,59.5 Z M 371.5,90.5 C 369.132,91.783 366.965,93.4497 365,95.5C 361.063,102.969 361.896,109.803 367.5,116C 374.969,119.937 381.803,119.104 388,113.5C 393.786,97.7392 388.286,90.0726 371.5,90.5 Z"/></g>
<g><path style="opacity:1" fill="#fe7568" d="M 361.5,331.5 C 371.5,331.5 381.5,331.5 391.5,331.5C 391.5,341.5 391.5,351.5 391.5,361.5C 381.5,361.5 371.5,361.5 361.5,361.5C 361.5,351.5 361.5,341.5 361.5,331.5 Z"/></g>
<g><path style="opacity:1" fill="#fe7568" d="M 421.5,391.5 C 431.5,391.5 441.5,391.5 451.5,391.5C 451.5,401.5 451.5,411.5 451.5,421.5C 441.5,421.5 431.5,421.5 421.5,421.5C 421.5,411.5 421.5,401.5 421.5,391.5 Z"/></g>
<g><path style="opacity:1" fill="#fe7568" d="M 331.5,421.5 C 341.5,421.5 351.5,421.5 361.5,421.5C 361.5,431.5 361.5,441.5 361.5,451.5C 351.5,451.5 341.5,451.5 331.5,451.5C 331.5,441.5 331.5,431.5 331.5,421.5 Z"/></g>
</svg>
