<?xml version="1.0" encoding="UTF-8"?>
<!DOCTYPE svg PUBLIC "-//W3C//DTD SVG 1.1//EN" "http://www.w3.org/Graphics/SVG/1.1/DTD/svg11.dtd">
<svg xmlns="http://www.w3.org/2000/svg" version="1.1" width="512px" height="512px" style="shape-rendering:geometricPrecision; text-rendering:geometricPrecision; image-rendering:optimizeQuality; fill-rule:evenodd; clip-rule:evenodd" xmlns:xlink="http://www.w3.org/1999/xlink">
<g><path style="opacity:0.986" fill="#fe7568" d="M 126.5,80.5 C 127.665,146.332 127.832,212.332 127,278.5C 120.045,287.79 112.712,296.79 105,305.5C 98.5876,293.007 91.9209,280.674 85,268.5C 80.9162,271.126 76.7495,273.626 72.5,276C 81.0496,291.598 89.2162,307.432 97,323.5C 100.373,326.886 104.206,327.386 108.5,325C 114.667,317.5 120.833,310 127,302.5C 127.833,333.172 127.667,363.839 126.5,394.5C 92.28,405.74 58.1134,417.073 24,428.5C 23.5,319.834 23.3333,211.167 23.5,102.5C 58.059,95.6564 92.3923,88.3231 126.5,80.5 Z M 67.5,136.5 C 94.4872,134.988 107.321,147.654 106,174.5C 99.4146,198.002 91.4146,221.002 82,243.5C 77.6667,247.5 73.3333,247.5 69,243.5C 59.6086,220.993 51.6086,197.993 45,174.5C 42.5228,155.772 50.0228,143.105 67.5,136.5 Z"/></g>
<g><path style="opacity:0.988" fill="#fe7568" d="M 143.5,80.5 C 178.073,88.1421 212.739,95.4755 247.5,102.5C 247.833,125.51 247.5,148.51 246.5,171.5C 232.219,176.154 217.886,180.654 203.5,185C 183.547,209.075 163.714,233.241 144,257.5C 143.5,198.501 143.333,139.501 143.5,80.5 Z M 167.5,127.5 C 172.833,127.5 178.167,127.5 183.5,127.5C 183.5,132.833 183.5,138.167 183.5,143.5C 178.167,143.5 172.833,143.5 167.5,143.5C 167.5,138.167 167.5,132.833 167.5,127.5 Z"/></g>
<g><path style="opacity:0.986" fill="#fe7568" d="M 366.5,80.5 C 367.499,160.332 367.833,240.332 367.5,320.5C 361.402,318.869 355.568,316.536 350,313.5C 339.588,260.774 328.921,208.107 318,155.5C 315.091,152.606 311.591,151.773 307.5,153C 292.912,157.308 278.412,161.808 264,166.5C 263.5,145.169 263.333,123.836 263.5,102.5C 298.059,95.6564 332.392,88.3231 366.5,80.5 Z M 335.5,151.5 C 340.833,151.5 346.167,151.5 351.5,151.5C 351.5,156.833 351.5,162.167 351.5,167.5C 346.167,167.5 340.833,167.5 335.5,167.5C 335.5,162.167 335.5,156.833 335.5,151.5 Z"/></g>
<g><path style="opacity:0.984" fill="#fe7568" d="M 383.5,80.5 C 418.073,88.1421 452.739,95.4755 487.5,102.5C 487.667,211.167 487.5,319.834 487,428.5C 452.887,417.073 418.72,405.74 384.5,394.5C 383.334,377.51 383.167,360.51 384,343.5C 395.816,348.329 407.65,353.162 419.5,358C 425.337,359.992 429.171,358.158 431,352.5C 435.165,304.52 438.998,256.52 442.5,208.5C 437.473,208.497 432.473,208.164 427.5,207.5C 424.221,251.512 420.721,295.512 417,339.5C 416.586,339.957 416.086,340.291 415.5,340.5C 404.943,336.26 394.443,331.927 384,327.5C 383.5,245.167 383.333,162.834 383.5,80.5 Z M 411.5,154.5 C 412.552,154.351 413.552,154.517 414.5,155C 421.5,160.167 428.5,165.333 435.5,170.5C 442.027,165.473 448.693,160.64 455.5,156C 456.759,155.018 458.092,154.685 459.5,155C 462.167,158.667 464.833,162.333 467.5,166C 461.052,169.954 455.052,174.454 449.5,179.5C 455.052,184.546 461.052,189.046 467.5,193C 464.851,197.144 461.851,200.978 458.5,204.5C 450.965,199.237 443.299,194.237 435.5,189.5C 428.191,193.826 421.191,198.66 414.5,204C 413.5,204.667 412.5,204.667 411.5,204C 408.833,200.333 406.167,196.667 403.5,193C 409.972,188.694 416.306,184.194 422.5,179.5C 416.306,174.806 409.972,170.306 403.5,166C 406.3,162.225 408.966,158.392 411.5,154.5 Z M 455.5,319.5 C 460.833,319.5 466.167,319.5 471.5,319.5C 471.5,324.833 471.5,330.167 471.5,335.5C 466.167,335.5 460.833,335.5 455.5,335.5C 455.5,330.167 455.5,324.833 455.5,319.5 Z"/></g>
<g><path style="opacity:0.941" fill="#fe7568" d="M 69.5,151.5 C 79.36,149.35 86.5267,152.683 91,161.5C 91.4847,170.417 90.1513,179.083 87,187.5C 84.0403,197.886 80.207,207.886 75.5,217.5C 67.762,201.285 62.4287,184.285 59.5,166.5C 59.6768,159.335 63.0102,154.335 69.5,151.5 Z"/></g>
<g><path style="opacity:0.99" fill="#fe7568" d="M 302.5,169.5 C 303.822,169.33 304.989,169.663 306,170.5C 316.079,221.56 326.412,272.56 337,323.5C 346.701,328.901 356.868,333.235 367.5,336.5C 367.833,355.845 367.5,375.178 366.5,394.5C 332.28,405.74 298.113,417.073 264,428.5C 263.5,346.167 263.333,263.834 263.5,181.5C 276.831,178.277 289.831,174.277 302.5,169.5 Z M 279.5,271.5 C 284.833,271.5 290.167,271.5 295.5,271.5C 295.5,276.833 295.5,282.167 295.5,287.5C 290.167,287.5 284.833,287.5 279.5,287.5C 279.5,282.167 279.5,276.833 279.5,271.5 Z"/></g>
<g><path style="opacity:0.993" fill="#fe7568" d="M 244.5,187.5 C 245.5,187.5 246.5,187.5 247.5,187.5C 247.667,267.834 247.5,348.167 247,428.5C 212.887,417.073 178.72,405.74 144.5,394.5C 143.333,356.838 143.167,319.171 144,281.5C 166.5,253.667 189,225.833 211.5,198C 222.76,194.942 233.76,191.442 244.5,187.5 Z M 207.5,319.5 C 212.833,319.5 218.167,319.5 223.5,319.5C 223.5,324.833 223.5,330.167 223.5,335.5C 218.167,335.5 212.833,335.5 207.5,335.5C 207.5,330.167 207.5,324.833 207.5,319.5 Z"/></g>
</svg>
