<?xml version="1.0" encoding="UTF-8"?>
<!DOCTYPE svg PUBLIC "-//W3C//DTD SVG 1.1//EN" "http://www.w3.org/Graphics/SVG/1.1/DTD/svg11.dtd">
<svg xmlns="http://www.w3.org/2000/svg" version="1.1" width="80px" height="48px" style="shape-rendering:geometricPrecision; text-rendering:geometricPrecision; image-rendering:optimizeQuality; fill-rule:evenodd; clip-rule:evenodd" xmlns:xlink="http://www.w3.org/1999/xlink">
<g><path style="opacity:0.908" fill="#cc0901" d="M 16.5,-0.5 C 21.5,-0.5 26.5,-0.5 31.5,-0.5C 34.1305,1.15264 36.7972,2.8193 39.5,4.5C 39.4606,5.58317 39.1272,6.58317 38.5,7.5C 40.5096,8.06526 42.1763,9.06526 43.5,10.5C 40.5,11.1667 37.5,11.8333 34.5,12.5C 38.3125,13.1671 41.9792,13.8337 45.5,14.5C 41.3656,15.4849 37.0323,15.8182 32.5,15.5C 32.5,16.5 32.5,17.5 32.5,18.5C 37.1667,18.5 41.8333,18.5 46.5,18.5C 46.8333,18.5 47.1667,18.5 47.5,18.5C 45.2121,19.0735 43.0454,20.0735 41,21.5C 38.506,18.9142 36.006,18.9142 33.5,21.5C 33.6716,20.5084 33.3382,19.8417 32.5,19.5C 31.3478,18.375 30.3478,18.375 29.5,19.5C 27.4727,19.3379 25.4727,19.5045 23.5,20C 22.944,20.3826 22.6107,20.8826 22.5,21.5C 22.1667,21.5 21.8333,21.5 21.5,21.5C 19.7182,19.3131 17.5515,18.9797 15,20.5C 14.5172,19.552 14.3505,18.552 14.5,17.5C 12.302,17.1201 10.6354,17.7868 9.5,19.5C 7.31757,16.9847 5.31757,16.9847 3.5,19.5C 2.09659,22.9085 1.42993,26.5752 1.5,30.5C 2.79105,30.7373 3.79105,30.404 4.5,29.5C 4.83333,29.5 5.16667,29.5 5.5,29.5C 6.16667,30.8333 6.83333,30.8333 7.5,29.5C 8.16667,28.5 8.83333,27.5 9.5,26.5C 9.5,27.8333 9.5,29.1667 9.5,30.5C 10.791,30.7373 11.791,30.404 12.5,29.5C 17.2669,30.7973 21.9335,30.7973 26.5,29.5C 26.8333,29.5 27.1667,29.5 27.5,29.5C 28.9613,30.6857 30.2946,30.6857 31.5,29.5C 32.5,29.5 33.5,29.5 34.5,29.5C 34.5,29.8333 34.5,30.1667 34.5,30.5C 33.8333,30.5 33.5,30.8333 33.5,31.5C 36.7443,33.1119 40.411,34.1119 44.5,34.5C 44.2907,35.086 43.9574,35.586 43.5,36C 41.0995,36.1858 38.7662,36.6858 36.5,37.5C 38.0777,38.2978 39.7444,38.7978 41.5,39C 40.1772,39.8159 39.5106,40.9826 39.5,42.5C 36.7904,44.2322 34.1237,45.8989 31.5,47.5C 26.1667,47.5 20.8333,47.5 15.5,47.5C 8.08339,43.7513 2.75005,38.0847 -0.5,30.5C -0.5,25.8333 -0.5,21.1667 -0.5,16.5C 2.83333,8.5 8.5,2.83333 16.5,-0.5 Z"/></g>
<g><path style="opacity:0.921" fill="#fe9803" d="M 47.5,-0.5 C 52.5,-0.5 57.5,-0.5 62.5,-0.5C 70.5,2.83333 76.1667,8.5 79.5,16.5C 79.5,21.1667 79.5,25.8333 79.5,30.5C 77.7903,32.4601 77.457,34.6268 78.5,37C 73.6181,40.7228 68.6181,44.2228 63.5,47.5C 58.1667,47.5 52.8333,47.5 47.5,47.5C 44.5664,46.361 41.8997,44.6943 39.5,42.5C 39.5106,40.9826 40.1772,39.8159 41.5,39C 39.7444,38.7978 38.0777,38.2978 36.5,37.5C 38.7662,36.6858 41.0995,36.1858 43.5,36C 43.9574,35.586 44.2907,35.086 44.5,34.5C 40.411,34.1119 36.7443,33.1119 33.5,31.5C 38.294,32.0969 42.6273,31.4302 46.5,29.5C 47.391,30.1098 48.391,30.4431 49.5,30.5C 50.5,30.5 51.5,30.5 52.5,30.5C 56.1667,30.5 59.8333,30.5 63.5,30.5C 64.1667,30.5 64.5,30.1667 64.5,29.5C 65.1667,28.8333 65.8333,28.1667 66.5,27.5C 66.4142,28.4959 66.7476,29.3292 67.5,30C 70.0385,30.7958 72.3718,30.6291 74.5,29.5C 75.7947,25.7329 76.4613,21.7329 76.5,17.5C 73.4757,18.4288 70.6424,19.7622 68,21.5C 66.5728,19.2129 64.7394,18.8795 62.5,20.5C 57.6167,18.3001 52.6167,17.6334 47.5,18.5C 47.1667,18.5 46.8333,18.5 46.5,18.5C 42.3528,17.6753 38.0195,17.1753 33.5,17C 37.8711,16.8275 42.2044,16.3275 46.5,15.5C 46.3764,14.8933 46.0431,14.56 45.5,14.5C 41.9792,13.8337 38.3125,13.1671 34.5,12.5C 37.5,11.8333 40.5,11.1667 43.5,10.5C 42.1763,9.06526 40.5096,8.06526 38.5,7.5C 39.1272,6.58317 39.4606,5.58317 39.5,4.5C 42.2028,2.8193 44.8695,1.15264 47.5,-0.5 Z"/></g>
<g><path style="opacity:1" fill="#ef7400" d="M 45.5,14.5 C 46.0431,14.56 46.3764,14.8933 46.5,15.5C 42.2044,16.3275 37.8711,16.8275 33.5,17C 38.0195,17.1753 42.3528,17.6753 46.5,18.5C 41.8333,18.5 37.1667,18.5 32.5,18.5C 32.5,17.5 32.5,16.5 32.5,15.5C 37.0323,15.8182 41.3656,15.4849 45.5,14.5 Z"/></g>
<g><path style="opacity:1" fill="#cc8990" d="M 9.5,19.5 C 9.71901,20.675 9.38568,21.675 8.5,22.5C 7.57131,21.3112 7.23798,19.9778 7.5,18.5C 6.04125,18.4326 4.70792,18.7659 3.5,19.5C 5.31757,16.9847 7.31757,16.9847 9.5,19.5 Z"/></g>
<g><path style="opacity:1" fill="#f4e4e7" d="M 32.5,19.5 C 31.7929,22.7861 31.4595,26.1194 31.5,29.5C 29.5977,26.6627 28.931,23.3293 29.5,19.5C 30.3478,18.375 31.3478,18.375 32.5,19.5 Z"/></g>
<g><path style="opacity:1" fill="#8e7192" d="M 21.5,21.5 C 21.8333,21.5 22.1667,21.5 22.5,21.5C 22.7036,23.6854 23.3702,25.6854 24.5,27.5C 23.5,26.8333 22.5,26.1667 21.5,25.5C 21.5,24.1667 21.5,22.8333 21.5,21.5 Z"/></g>
<g><path style="opacity:1" fill="#a4314a" d="M 25.5,22.5 C 26.5,22.5 27.5,22.5 28.5,22.5C 28.7373,23.791 28.404,24.791 27.5,25.5C 26.8333,24.5 26.1667,23.5 25.5,22.5 Z"/></g>
<g><path style="opacity:1" fill="#e9dfe5" d="M 21.5,21.5 C 21.5,22.8333 21.5,24.1667 21.5,25.5C 20.5655,26.5676 20.2322,27.901 20.5,29.5C 17.586,29.1949 14.9193,29.1949 12.5,29.5C 10.8829,28.4107 10.0496,26.744 10,24.5C 9.53566,25.0944 9.36899,25.7611 9.5,26.5C 8.83333,27.5 8.16667,28.5 7.5,29.5C 6.69088,27.7078 6.19088,25.7078 6,23.5C 5.50454,25.4727 5.33788,27.4727 5.5,29.5C 5.16667,29.5 4.83333,29.5 4.5,29.5C 3.62356,29.6309 2.95689,29.2975 2.5,28.5C 3.40661,25.5788 3.73994,22.5788 3.5,19.5C 4.70792,18.7659 6.04125,18.4326 7.5,18.5C 7.23798,19.9778 7.57131,21.3112 8.5,22.5C 9.38568,21.675 9.71901,20.675 9.5,19.5C 10.6354,17.7868 12.302,17.1201 14.5,17.5C 14.3505,18.552 14.5172,19.552 15,20.5C 17.5515,18.9797 19.7182,19.3131 21.5,21.5 Z"/></g>
<g><path style="opacity:1" fill="#b85058" d="M 13.5,22.5 C 15.1992,22.3398 16.8659,22.5065 18.5,23C 16.6711,23.2735 15.1711,24.1068 14,25.5C 13.5172,24.552 13.3505,23.552 13.5,22.5 Z"/></g>
<g><path style="opacity:1" fill="#ede2e2" d="M 74.5,29.5 C 72.4727,29.6621 70.4727,29.4955 68.5,29C 67.8875,26.8526 67.2208,24.686 66.5,22.5C 65.8933,22.6236 65.56,22.9569 65.5,23.5C 64.6586,25.3792 64.3253,27.3792 64.5,29.5C 64.5,30.1667 64.1667,30.5 63.5,30.5C 62.4324,29.5655 61.099,29.2322 59.5,29.5C 59.8206,26.1198 58.8206,25.2865 56.5,27C 57.6091,28.813 56.9424,29.6463 54.5,29.5C 54.5,28.1667 54.5,26.8333 54.5,25.5C 54.8333,24.8333 55.1667,24.1667 55.5,23.5C 56.5,23.5 57.5,23.5 58.5,23.5C 59.2389,23.631 59.9056,23.4643 60.5,23C 58.9698,21.8797 57.3032,21.0464 55.5,20.5C 53.5853,20.2155 51.9187,20.5489 50.5,21.5C 49.5386,23.2646 49.2053,25.2646 49.5,27.5C 50.8333,27.5 52.1667,27.5 53.5,27.5C 53.4431,28.609 53.1098,29.609 52.5,30.5C 51.5,30.5 50.5,30.5 49.5,30.5C 46.5702,27.6827 45.7369,24.3494 47,20.5C 45.5187,21.4709 44.6854,22.8042 44.5,24.5C 43.5489,25.9187 43.2155,27.5853 43.5,29.5C 41.9519,29.1788 41.2852,28.1788 41.5,26.5C 41.44,25.9569 41.1067,25.6236 40.5,25.5C 38.2935,25.8913 36.9602,26.5579 36.5,27.5C 37.2625,28.2679 38.2625,28.7679 39.5,29C 37.8659,29.4935 36.1992,29.6602 34.5,29.5C 33.612,26.9455 33.2786,24.2788 33.5,21.5C 36.006,18.9142 38.506,18.9142 41,21.5C 43.0454,20.0735 45.2121,19.0735 47.5,18.5C 52.6167,17.6334 57.6167,18.3001 62.5,20.5C 64.7394,18.8795 66.5728,19.2129 68,21.5C 70.6424,19.7622 73.4757,18.4288 76.5,17.5C 76.4613,21.7329 75.7947,25.7329 74.5,29.5 Z"/></g>
<g><path style="opacity:1" fill="#a96e52" d="M 50.5,21.5 C 51.9187,20.5489 53.5853,20.2155 55.5,20.5C 56.0998,21.8999 57.0998,22.8999 58.5,23.5C 57.5,23.5 56.5,23.5 55.5,23.5C 54.2209,22.032 52.5542,21.3653 50.5,21.5 Z"/></g>
<g><path style="opacity:1" fill="#f99a26" d="M 50.5,21.5 C 52.5542,21.3653 54.2209,22.032 55.5,23.5C 55.1667,24.1667 54.8333,24.8333 54.5,25.5C 53.6618,25.8417 53.3284,26.5084 53.5,27.5C 52.1667,27.5 50.8333,27.5 49.5,27.5C 49.2053,25.2646 49.5386,23.2646 50.5,21.5 Z"/></g>
<g><path style="opacity:1" fill="#9994b5" d="M 55.5,20.5 C 57.3032,21.0464 58.9698,21.8797 60.5,23C 59.9056,23.4643 59.2389,23.631 58.5,23.5C 57.0998,22.8999 56.0998,21.8999 55.5,20.5 Z"/></g>
<g><path style="opacity:1" fill="#efe8ec" d="M 25.5,22.5 C 26.1667,23.5 26.8333,24.5 27.5,25.5C 27.5,26.8333 27.5,28.1667 27.5,29.5C 27.1667,29.5 26.8333,29.5 26.5,29.5C 24.8008,29.6602 23.1341,29.4935 21.5,29C 22.7375,28.7679 23.7375,28.2679 24.5,27.5C 23.3702,25.6854 22.7036,23.6854 22.5,21.5C 24.1368,20.7822 25.8034,20.6155 27.5,21C 26.5842,21.2784 25.9175,21.7784 25.5,22.5 Z"/></g>
<g><path style="opacity:1" fill="#a57086" d="M 32.5,19.5 C 33.3382,19.8417 33.6716,20.5084 33.5,21.5C 33.2786,24.2788 33.612,26.9455 34.5,29.5C 33.5,29.5 32.5,29.5 31.5,29.5C 31.4595,26.1194 31.7929,22.7861 32.5,19.5 Z"/></g>
<g><path style="opacity:1" fill="#f09a42" d="M 69.5,23.5 C 70.5,23.5 71.5,23.5 72.5,23.5C 72.7778,25.3464 72.1112,26.6798 70.5,27.5C 69.5713,26.3112 69.238,24.9778 69.5,23.5 Z"/></g>
<g><path style="opacity:1" fill="#c8b5c3" d="M 29.5,19.5 C 28.931,23.3293 29.5977,26.6627 31.5,29.5C 30.2946,30.6857 28.9613,30.6857 27.5,29.5C 27.5,28.1667 27.5,26.8333 27.5,25.5C 28.404,24.791 28.7373,23.791 28.5,22.5C 27.5,22.5 26.5,22.5 25.5,22.5C 25.9175,21.7784 26.5842,21.2784 27.5,21C 25.8034,20.6155 24.1368,20.7822 22.5,21.5C 22.6107,20.8826 22.944,20.3826 23.5,20C 25.4727,19.5045 27.4727,19.3379 29.5,19.5 Z"/></g>
<g><path style="opacity:1" fill="#825c7a" d="M 49.5,30.5 C 48.391,30.4431 47.391,30.1098 46.5,29.5C 45.9759,27.6943 45.3092,26.0276 44.5,24.5C 44.6854,22.8042 45.5187,21.4709 47,20.5C 45.7369,24.3494 46.5702,27.6827 49.5,30.5 Z"/></g>
<g><path style="opacity:1" fill="#9a8ba3" d="M 65.5,23.5 C 65.56,22.9569 65.8933,22.6236 66.5,22.5C 67.2208,24.686 67.8875,26.8526 68.5,29C 70.4727,29.4955 72.4727,29.6621 74.5,29.5C 72.3718,30.6291 70.0385,30.7958 67.5,30C 66.7476,29.3292 66.4142,28.4959 66.5,27.5C 66.7678,25.901 66.4345,24.5676 65.5,23.5 Z"/></g>
<g><path style="opacity:1" fill="#90668b" d="M 7.5,29.5 C 6.83333,30.8333 6.16667,30.8333 5.5,29.5C 5.33788,27.4727 5.50454,25.4727 6,23.5C 6.19088,25.7078 6.69088,27.7078 7.5,29.5 Z"/></g>
<g><path style="opacity:1" fill="#a14d70" d="M 16.5,25.5 C 18.337,25.6395 18.6704,26.3061 17.5,27.5C 16.7025,27.0431 16.3691,26.3764 16.5,25.5 Z"/></g>
<g><path style="opacity:1" fill="#bd5560" d="M 41.5,26.5 C 39.9582,27.3007 38.2915,27.634 36.5,27.5C 36.9602,26.5579 38.2935,25.8913 40.5,25.5C 41.1067,25.6236 41.44,25.9569 41.5,26.5 Z"/></g>
<g><path style="opacity:0.984" fill="#d24825" d="M 44.5,24.5 C 45.3092,26.0276 45.9759,27.6943 46.5,29.5C 42.6273,31.4302 38.294,32.0969 33.5,31.5C 33.5,30.8333 33.8333,30.5 34.5,30.5C 37.7131,30.81 40.7131,30.4767 43.5,29.5C 43.2155,27.5853 43.5489,25.9187 44.5,24.5 Z"/></g>
<g><path style="opacity:1" fill="#93708e" d="M 12.5,29.5 C 11.791,30.404 10.791,30.7373 9.5,30.5C 9.5,29.1667 9.5,27.8333 9.5,26.5C 9.36899,25.7611 9.53566,25.0944 10,24.5C 10.0496,26.744 10.8829,28.4107 12.5,29.5 Z"/></g>
<g><path style="opacity:1" fill="#ac96a1" d="M 54.5,25.5 C 54.5,26.8333 54.5,28.1667 54.5,29.5C 56.9424,29.6463 57.6091,28.813 56.5,27C 58.8206,25.2865 59.8206,26.1198 59.5,29.5C 61.099,29.2322 62.4324,29.5655 63.5,30.5C 59.8333,30.5 56.1667,30.5 52.5,30.5C 53.1098,29.609 53.4431,28.609 53.5,27.5C 53.3284,26.5084 53.6618,25.8417 54.5,25.5 Z"/></g>
<g><path style="opacity:1" fill="#e4a970" d="M 65.5,23.5 C 66.4345,24.5676 66.7678,25.901 66.5,27.5C 65.8333,28.1667 65.1667,28.8333 64.5,29.5C 64.3253,27.3792 64.6586,25.3792 65.5,23.5 Z"/></g>
<g><path style="opacity:1" fill="#a06d82" d="M 3.5,19.5 C 3.73994,22.5788 3.40661,25.5788 2.5,28.5C 2.95689,29.2975 3.62356,29.6309 4.5,29.5C 3.79105,30.404 2.79105,30.7373 1.5,30.5C 1.42993,26.5752 2.09659,22.9085 3.5,19.5 Z"/></g>
<g><path style="opacity:1" fill="#ab8397" d="M 21.5,25.5 C 22.5,26.1667 23.5,26.8333 24.5,27.5C 23.7375,28.2679 22.7375,28.7679 21.5,29C 23.1341,29.4935 24.8008,29.6602 26.5,29.5C 21.9335,30.7973 17.2669,30.7973 12.5,29.5C 14.9193,29.1949 17.586,29.1949 20.5,29.5C 20.2322,27.901 20.5655,26.5676 21.5,25.5 Z"/></g>
<g><path style="opacity:1" fill="#a98998" d="M 41.5,26.5 C 41.2852,28.1788 41.9519,29.1788 43.5,29.5C 40.7131,30.4767 37.7131,30.81 34.5,30.5C 34.5,30.1667 34.5,29.8333 34.5,29.5C 36.1992,29.6602 37.8659,29.4935 39.5,29C 38.2625,28.7679 37.2625,28.2679 36.5,27.5C 38.2915,27.634 39.9582,27.3007 41.5,26.5 Z"/></g>
</svg>
