<?xml version="1.0" encoding="UTF-8"?>
<!DOCTYPE svg PUBLIC "-//W3C//DTD SVG 1.1//EN" "http://www.w3.org/Graphics/SVG/1.1/DTD/svg11.dtd">
<svg xmlns="http://www.w3.org/2000/svg" version="1.1" width="665px" height="573px" style="shape-rendering:geometricPrecision; text-rendering:geometricPrecision; image-rendering:optimizeQuality; fill-rule:evenodd; clip-rule:evenodd" xmlns:xlink="http://www.w3.org/1999/xlink">
<g><path style="opacity:1" fill="#024960" d="M 406.5,-0.5 C 482.167,-0.5 557.833,-0.5 633.5,-0.5C 647.045,3.21023 655.878,11.8769 660,25.5C 661.452,60.1354 661.952,94.802 661.5,129.5C 662.5,129.5 663.5,129.5 664.5,129.5C 664.5,152.5 664.5,175.5 664.5,198.5C 663.85,198.804 663.183,199.137 662.5,199.5C 661.667,312.832 661.167,426.165 661,539.5C 659.232,556.761 650.065,567.761 633.5,572.5C 557.833,572.5 482.167,572.5 406.5,572.5C 390.398,567.892 381.232,557.225 379,540.5C 379.084,423.988 378.25,307.488 376.5,191C 376.713,181.96 377.38,172.96 378.5,164C 375.871,145.287 375.871,126.454 378.5,107.5C 377.668,100.516 377.001,93.5159 376.5,86.5C 377.96,68.1962 378.793,49.8629 379,31.5C 381.232,14.7748 390.398,4.10812 406.5,-0.5 Z"/></g>
<g><path style="opacity:1" fill="#e4e6ea" d="M 494.5,17.5 C 506.838,17.3335 519.171,17.5001 531.5,18C 532.833,20.3333 532.833,22.6667 531.5,25C 519.167,25.6667 506.833,25.6667 494.5,25C 493.221,22.5024 493.221,20.0024 494.5,17.5 Z"/></g>
<g><path style="opacity:1" fill="#dddfe4" d="M 540.5,17.5 C 545.665,17.1619 547.831,19.4953 547,24.5C 544,28.5 541,28.5 538,24.5C 537.162,21.5193 537.995,19.1859 540.5,17.5 Z"/></g>
<g><path style="opacity:1" fill="#fefefe" d="M 412.5,19.5 C 424.833,19.5 437.167,19.5 449.5,19.5C 448.161,29.6552 452.161,36.8219 461.5,41C 480.333,41.1667 499.167,41.3333 518,41.5C 538.216,41.6432 558.382,41.1432 578.5,40C 586.512,35.4759 589.845,28.6426 588.5,19.5C 601.171,19.3334 613.838,19.5001 626.5,20C 634.667,22.8333 640.167,28.3333 643,36.5C 643.667,206.167 643.667,375.833 643,545.5C 640.071,554.096 634.237,559.596 625.5,562C 554.5,562.667 483.5,562.667 412.5,562C 404.911,558.745 399.744,553.245 397,545.5C 396.333,375.5 396.333,205.5 397,35.5C 400.355,28.3126 405.522,22.9793 412.5,19.5 Z"/></g>
<g><path style="opacity:1" fill="#fb7369" d="M 598.5,69.5 C 614.68,70.8774 621.513,79.5441 619,95.5C 611.623,108.719 601.456,111.386 588.5,103.5C 579.89,94.611 579.39,85.2777 587,75.5C 590.575,72.7976 594.408,70.7976 598.5,69.5 Z"/></g>
<g><path style="opacity:1" fill="#e5e5e5" d="M 416.5,155.5 C 485.167,155.5 553.833,155.5 622.5,155.5C 622.5,200.833 622.5,246.167 622.5,291.5C 553.833,291.5 485.167,291.5 416.5,291.5C 416.5,246.167 416.5,200.833 416.5,155.5 Z"/></g>
<g><path style="opacity:1" fill="#9d2117" d="M 555.5,219.5 C 539.201,230.058 529.367,245.058 526,264.5C 523.492,244.872 513.992,229.872 497.5,219.5C 497.051,208.177 499.385,197.511 504.5,187.5C 513.591,193.923 520.925,201.923 526.5,211.5C 529.667,207.167 532.833,202.833 536,198.5C 540.315,195.019 544.482,191.353 548.5,187.5C 553.615,197.511 555.949,208.177 555.5,219.5 Z"/></g>
<g><path style="opacity:1" fill="#fb7469" d="M 497.5,219.5 C 513.992,229.872 523.492,244.872 526,264.5C 529.367,245.058 539.201,230.058 555.5,219.5C 565.167,214.279 575.5,211.279 586.5,210.5C 581.922,245.744 561.922,265.077 526.5,268.5C 491.078,265.077 471.078,245.744 466.5,210.5C 477.5,211.279 487.833,214.279 497.5,219.5 Z"/></g>
<g><path style="opacity:0.999" fill="#034961" d="M 76.5,375.5 C 86.2667,356.966 81.6,343.466 62.5,335C 60.5,334.333 58.5,334.333 56.5,335C 48.6896,343.142 40.523,350.976 32,358.5C 31.3658,361.555 31.5325,364.555 32.5,367.5C 31.2876,366.77 30.2876,365.77 29.5,364.5C 26.8788,370.103 26.8788,375.77 29.5,381.5C 29.1543,382.696 28.6543,382.696 28,381.5C 21.439,372.154 18.7724,361.821 20,350.5C 20.7355,347.68 22.4022,345.68 25,344.5C 27.1854,326.816 37.0187,316.483 54.5,313.5C 53.5962,306.241 56.7629,302.574 64,302.5C 68.2003,302.098 71.2003,303.765 73,307.5C 73.1786,310.553 73.6786,313.553 74.5,316.5C 89.4782,325.229 95.3116,338.229 92,355.5C 90.721,360.725 88.3877,365.391 85,369.5C 82.7213,372.381 79.888,374.381 76.5,375.5 Z"/></g>
<g><path style="opacity:0.994" fill="#fcb6b7" d="M 76.5,375.5 C 74.2154,378.565 73.8821,381.898 75.5,385.5C 70.5889,394.955 62.9222,398.455 52.5,396C 50.2028,393.901 48.5361,391.401 47.5,388.5C 47.5,387.833 47.1667,387.5 46.5,387.5C 46.5086,385.692 46.0086,384.025 45,382.5C 38.4758,379.444 34.3091,374.444 32.5,367.5C 31.5325,364.555 31.3658,361.555 32,358.5C 40.523,350.976 48.6896,343.142 56.5,335C 58.5,334.333 60.5,334.333 62.5,335C 81.6,343.466 86.2667,356.966 76.5,375.5 Z"/></g>
<g><path style="opacity:1" fill="#e5e6e5" d="M 417.5,347.5 C 486.167,347.5 554.833,347.5 623.5,347.5C 623.5,356.167 623.5,364.833 623.5,373.5C 554.833,373.5 486.167,373.5 417.5,373.5C 417.5,364.833 417.5,356.167 417.5,347.5 Z"/></g>
<g><path style="opacity:1" fill="#9e2118" d="M 75.5,385.5 C 81.9803,384.824 87.4803,386.824 92,391.5C 94,394.833 96,398.167 98,401.5C 98.6667,414.167 98.6667,426.833 98,439.5C 96.5593,442.88 94.7259,446.047 92.5,449C 94.2644,451.181 95.9311,453.348 97.5,455.5C 96.32,459.019 94.32,462.019 91.5,464.5C 93.21,468.21 95.8767,470.877 99.5,472.5C 100.5,474.5 101.5,476.5 102.5,478.5C 99.3421,482.306 95.3421,484.973 90.5,486.5C 89.8826,486.611 89.3826,486.944 89,487.5C 88.5017,490.817 88.335,494.15 88.5,497.5C 82.2556,499.572 76.9222,503.072 72.5,508C 71.1667,508.333 69.8333,508.667 68.5,509C 66.3592,513.447 64.3592,517.947 62.5,522.5C 61.1761,525.411 58.8428,526.911 55.5,527C 52.6757,530.824 49.009,533.491 44.5,535C 35.0645,536.355 26.0645,535.188 17.5,531.5C 16.9084,534.127 16.5751,536.794 16.5,539.5C 12.2697,540.437 9.76967,538.771 9,534.5C 7.21413,525.038 7.04746,515.538 8.5,506C 5.99534,502.461 3.82867,498.628 2,494.5C 1.45397,491.621 0.620635,488.954 -0.5,486.5C -0.5,476.167 -0.5,465.833 -0.5,455.5C 1.52464,443.212 4.02464,430.879 7,418.5C 14.6914,404.473 25.858,394.307 40.5,388C 42.4727,387.505 44.4727,387.338 46.5,387.5C 47.1667,387.5 47.5,387.833 47.5,388.5C 48.5361,391.401 50.2028,393.901 52.5,396C 62.9222,398.455 70.5889,394.955 75.5,385.5 Z"/></g>
<g><path style="opacity:1" fill="#e5e6e5" d="M 417.5,395.5 C 486.167,395.5 554.833,395.5 623.5,395.5C 623.5,404.167 623.5,412.833 623.5,421.5C 554.833,421.5 486.167,421.5 417.5,421.5C 417.5,412.833 417.5,404.167 417.5,395.5 Z"/></g>
<g><path style="opacity:1" fill="#114b63" d="M 166.5,506.5 C 164.896,507.287 164.229,508.62 164.5,510.5C 162.641,510.461 161.308,511.294 160.5,513C 136.548,515.075 112.548,515.908 88.5,515.5C 93.73,513.214 98.73,510.381 103.5,507C 108.009,502.185 107.009,498.852 100.5,497C 96.4126,496.238 92.4126,496.404 88.5,497.5C 88.335,494.15 88.5017,490.817 89,487.5C 89.3826,486.944 89.8826,486.611 90.5,486.5C 93.2558,489.389 96.5891,491.556 100.5,493C 112.978,499.023 125.312,498.69 137.5,492C 140.397,490.285 141.731,487.785 141.5,484.5C 146.833,484.5 152.167,484.5 157.5,484.5C 158.586,484.38 159.253,483.713 159.5,482.5C 165.767,463.531 171.934,444.531 178,425.5C 179.011,424.663 180.178,424.33 181.5,424.5C 183.903,432.343 185.07,440.343 185,448.5C 178.726,467.82 172.56,487.154 166.5,506.5 Z"/></g>
<g><path style="opacity:1" fill="#f6f6f7" d="M 178.5,428.5 C 179.117,428.611 179.617,428.944 180,429.5C 180.779,434.116 181.946,438.616 183.5,443C 177.413,462.51 171.247,482.01 165,501.5C 162.872,495.657 161.372,489.657 160.5,483.5C 166.506,465.149 172.506,446.816 178.5,428.5 Z"/></g>
<g><path style="opacity:1" fill="#e5e6e5" d="M 417.5,442.5 C 486.167,442.5 554.833,442.5 623.5,442.5C 623.5,451.167 623.5,459.833 623.5,468.5C 554.833,468.5 486.167,468.5 417.5,468.5C 417.5,459.833 417.5,451.167 417.5,442.5 Z"/></g>
<g><path style="opacity:0.975" fill="#d0cce0" d="M 157.5,484.5 C 152.167,484.5 146.833,484.5 141.5,484.5C 139.027,481.263 135.694,479.597 131.5,479.5C 127.496,480.006 123.829,481.34 120.5,483.5C 118.167,483.5 115.833,483.5 113.5,483.5C 109.71,482.105 106.043,480.438 102.5,478.5C 101.5,476.5 100.5,474.5 99.5,472.5C 108.712,462.897 119.045,454.73 130.5,448C 142.471,446.944 150.638,452.111 155,463.5C 156.097,470.475 156.931,477.475 157.5,484.5 Z"/></g>
<g><path style="opacity:1" fill="#f8b4b5" d="M 102.5,478.5 C 106.043,480.438 109.71,482.105 113.5,483.5C 116.186,486.77 118.519,486.77 120.5,483.5C 123.829,481.34 127.496,480.006 131.5,479.5C 135.694,479.597 139.027,481.263 141.5,484.5C 141.731,487.785 140.397,490.285 137.5,492C 125.312,498.69 112.978,499.023 100.5,493C 96.5891,491.556 93.2558,489.389 90.5,486.5C 95.3421,484.973 99.3421,482.306 102.5,478.5 Z"/></g>
<g><path style="opacity:1" fill="#274b61" d="M 113.5,483.5 C 115.833,483.5 118.167,483.5 120.5,483.5C 118.519,486.77 116.186,486.77 113.5,483.5 Z"/></g>
<g><path style="opacity:1" fill="#fab4b8" d="M 88.5,515.5 C 82.4019,518.115 76.0685,520.281 69.5,522C 67.1902,522.497 64.8568,522.663 62.5,522.5C 64.3592,517.947 66.3592,513.447 68.5,509C 69.8333,508.667 71.1667,508.333 72.5,508C 76.9222,503.072 82.2556,499.572 88.5,497.5C 92.4126,496.404 96.4126,496.238 100.5,497C 107.009,498.852 108.009,502.185 103.5,507C 98.73,510.381 93.73,513.214 88.5,515.5 Z"/></g>
<g><path style="opacity:0.987" fill="#cfcce0" d="M 166.5,506.5 C 183.348,514.421 199.681,523.088 215.5,532.5C 215.24,538.857 212.906,544.357 208.5,549C 209.056,549.383 209.389,549.883 209.5,550.5C 207.878,551.122 206.545,552.122 205.5,553.5C 202.093,551.527 198.426,550.027 194.5,549C 187.148,548.537 179.815,547.87 172.5,547C 167.185,545.841 162.185,544.008 157.5,541.5C 156.527,541.013 155.527,540.513 154.5,540C 148.843,539.501 143.176,539.334 137.5,539.5C 135.836,538.051 135.002,536.051 135,533.5C 113.192,543.153 92.0257,553.987 71.5,566C 41.3753,580.601 23.042,571.768 16.5,539.5C 16.5751,536.794 16.9084,534.127 17.5,531.5C 26.0645,535.188 35.0645,536.355 44.5,535C 49.009,533.491 52.6757,530.824 55.5,527C 58.8428,526.911 61.1761,525.411 62.5,522.5C 64.8568,522.663 67.1902,522.497 69.5,522C 76.0685,520.281 82.4019,518.115 88.5,515.5C 112.548,515.908 136.548,515.075 160.5,513C 161.308,511.294 162.641,510.461 164.5,510.5C 164.229,508.62 164.896,507.287 166.5,506.5 Z"/></g>
<g><path style="opacity:0.965" fill="#fdb7b8" d="M 215.5,532.5 C 229.896,534.51 244.229,536.844 258.5,539.5C 255.671,548.997 249.671,555.664 240.5,559.5C 230.485,555.743 220.151,552.743 209.5,550.5C 209.389,549.883 209.056,549.383 208.5,549C 212.906,544.357 215.24,538.857 215.5,532.5 Z"/></g>
<g><path style="opacity:1" fill="#fab5b5" d="M 137.5,539.5 C 143.176,539.334 148.843,539.501 154.5,540C 155.527,540.513 156.527,541.013 157.5,541.5C 151.382,544.918 144.715,546.251 137.5,545.5C 137.5,543.5 137.5,541.5 137.5,539.5 Z"/></g>
<g><path style="opacity:1" fill="#014961" d="M 258.5,539.5 C 274.181,540.667 289.848,541.833 305.5,543C 311.155,544.875 312.989,548.708 311,554.5C 306.392,564.751 298.392,569.751 287,569.5C 272.53,568.161 258.03,567.328 243.5,567C 238.187,566.253 237.187,563.753 240.5,559.5C 249.671,555.664 255.671,548.997 258.5,539.5 Z"/></g>
<g><path style="opacity:1" fill="#044961" d="M 157.5,541.5 C 162.185,544.008 167.185,545.841 172.5,547C 179.815,547.87 187.148,548.537 194.5,549C 198.426,550.027 202.093,551.527 205.5,553.5C 207.566,557.696 207.899,562.03 206.5,566.5C 202.613,569.675 198.279,571.675 193.5,572.5C 187.167,572.5 180.833,572.5 174.5,572.5C 160.579,571.965 146.579,571.132 132.5,570C 131.354,563.537 131.521,557.037 133,550.5C 133.996,548.34 135.496,546.673 137.5,545.5C 144.715,546.251 151.382,544.918 157.5,541.5 Z"/></g>
</svg>
