<?xml version="1.0" encoding="UTF-8"?>
<!DOCTYPE svg PUBLIC "-//W3C//DTD SVG 1.1//EN" "http://www.w3.org/Graphics/SVG/1.1/DTD/svg11.dtd">
<svg xmlns="http://www.w3.org/2000/svg" version="1.1" width="512px" height="512px" style="shape-rendering:geometricPrecision; text-rendering:geometricPrecision; image-rendering:optimizeQuality; fill-rule:evenodd; clip-rule:evenodd" xmlns:xlink="http://www.w3.org/1999/xlink">
<g><path style="opacity:0.994" fill="#000000" d="M 131.5,79.5 C 203.501,79.3333 275.501,79.5 347.5,80C 349.333,80.5 350.5,81.6667 351,83.5C 351.667,96.8333 351.667,110.167 351,123.5C 350.626,124.416 350.126,125.25 349.5,126C 331.594,127.473 313.594,127.973 295.5,127.5C 295.5,132.833 295.5,138.167 295.5,143.5C 316.259,143.023 336.925,143.523 357.5,145C 379,166.5 400.5,188 422,209.5C 423.379,214.036 423.879,218.703 423.5,223.5C 428.833,223.5 434.167,223.5 439.5,223.5C 439.333,208.83 439.5,194.163 440,179.5C 440.374,178.584 440.874,177.75 441.5,177C 451.405,175.857 461.405,175.357 471.5,175.5C 480.833,175.667 490.167,175.833 499.5,176C 500.416,176.374 501.25,176.874 502,177.5C 503.161,216.75 503.661,256.084 503.5,295.5C 503.661,334.916 503.161,374.25 502,413.5C 501.25,414.126 500.416,414.626 499.5,415C 490.167,415.167 480.833,415.333 471.5,415.5C 461.405,415.643 451.405,415.143 441.5,414C 440.874,413.25 440.374,412.416 440,411.5C 439.5,396.837 439.333,382.17 439.5,367.5C 434.167,367.5 428.833,367.5 423.5,367.5C 423.667,387.503 423.5,407.503 423,427.5C 422.5,429.333 421.333,430.5 419.5,431C 344.833,431.667 270.167,431.667 195.5,431C 176.528,413.029 157.862,394.695 139.5,376C 117.412,375.979 95.4116,375.312 73.5,374C 72.8742,373.25 72.3742,372.416 72,371.5C 71.5001,356.837 71.3334,342.17 71.5,327.5C 66.1667,327.5 60.8333,327.5 55.5,327.5C 55.9731,345.594 55.4731,363.594 54,381.5C 53.2496,382.126 52.4162,382.626 51.5,383C 44.8333,383.167 38.1667,383.333 31.5,383.5C 24.0664,383.633 16.733,383.133 9.5,382C 8.87424,381.25 8.37424,380.416 8,379.5C 7.33333,318.167 7.33333,256.833 8,195.5C 8.37424,194.584 8.87424,193.75 9.5,193C 16.733,191.867 24.0664,191.367 31.5,191.5C 38.1667,191.667 44.8333,191.833 51.5,192C 52.4162,192.374 53.2496,192.874 54,193.5C 55.4731,211.406 55.9731,229.406 55.5,247.5C 60.8333,247.5 66.1667,247.5 71.5,247.5C 71.0391,234.734 71.5391,222.067 73,209.5C 73.7504,208.874 74.5838,208.374 75.5,208C 87.4954,207.5 99.4954,207.333 111.5,207.5C 111.333,187.497 111.5,167.497 112,147.5C 112.374,146.584 112.874,145.75 113.5,145C 136.743,143.52 160.076,143.02 183.5,143.5C 183.5,138.167 183.5,132.833 183.5,127.5C 165.406,127.973 147.406,127.473 129.5,126C 128.874,125.25 128.374,124.416 128,123.5C 127.333,110.167 127.333,96.8333 128,83.5C 128.69,81.6498 129.856,80.3164 131.5,79.5 Z"/></g>
<g><path style="opacity:1" fill="#2a0e0b" d="M 327.5,94.5 C 327.5,94.8333 327.5,95.1667 327.5,95.5C 266.167,95.5 204.833,95.5 143.5,95.5C 143.5,98.1667 143.5,100.833 143.5,103.5C 143.167,103.5 142.833,103.5 142.5,103.5C 142.5,100.5 142.5,97.5 142.5,94.5C 204.167,94.5 265.833,94.5 327.5,94.5 Z"/></g>
<g><path style="opacity:1" fill="#7f3b35" d="M 327.5,95.5 C 327.5,95.1667 327.5,94.8333 327.5,94.5C 330.5,94.5 333.5,94.5 336.5,94.5C 336.5,100.5 336.5,106.5 336.5,112.5C 271.833,112.5 207.167,112.5 142.5,112.5C 142.5,109.5 142.5,106.5 142.5,103.5C 142.833,103.5 143.167,103.5 143.5,103.5C 143.5,106.167 143.5,108.833 143.5,111.5C 207.5,111.5 271.5,111.5 335.5,111.5C 335.5,106.167 335.5,100.833 335.5,95.5C 332.833,95.5 330.167,95.5 327.5,95.5 Z"/></g>
<g><path style="opacity:1" fill="#fb7468" d="M 327.5,95.5 C 327.456,99.0897 325.789,101.59 322.5,103C 262.834,103.5 203.168,103.667 143.5,103.5C 143.5,100.833 143.5,98.1667 143.5,95.5C 204.833,95.5 266.167,95.5 327.5,95.5 Z"/></g>
<g><path style="opacity:1" fill="#e46d65" d="M 327.5,95.5 C 330.167,95.5 332.833,95.5 335.5,95.5C 335.5,100.833 335.5,106.167 335.5,111.5C 271.5,111.5 207.5,111.5 143.5,111.5C 143.5,108.833 143.5,106.167 143.5,103.5C 203.168,103.667 262.834,103.5 322.5,103C 325.789,101.59 327.456,99.0897 327.5,95.5 Z"/></g>
<g><path style="opacity:1" fill="#75362f" d="M 198.5,126.5 C 225.833,126.5 253.167,126.5 280.5,126.5C 280.5,132.5 280.5,138.5 280.5,144.5C 253.167,144.5 225.833,144.5 198.5,144.5C 198.5,138.5 198.5,132.5 198.5,126.5 Z"/></g>
<g><path style="opacity:1" fill="#e46e64" d="M 199.5,127.5 C 226.167,127.5 252.833,127.5 279.5,127.5C 279.5,132.833 279.5,138.167 279.5,143.5C 252.833,143.5 226.167,143.5 199.5,143.5C 199.5,138.167 199.5,132.833 199.5,127.5 Z"/></g>
<g><path style="opacity:1" fill="#004661" d="M 368.5,179.5 C 368.667,230.834 368.5,282.168 368,333.5C 366.167,338.667 362.667,342.167 357.5,344C 324.331,344.831 291.331,344.664 258.5,343.5C 275.465,327.035 292.299,310.368 309,293.5C 312.914,287.655 311.747,283.155 305.5,280C 294.833,279.667 284.167,279.333 273.5,279C 285.333,265.167 297.167,251.333 309,237.5C 312.914,231.655 311.747,227.155 305.5,224C 285.5,223.333 265.5,223.333 245.5,224C 243.998,224.583 242.665,225.416 241.5,226.5C 227.744,253.011 214.244,279.678 201,306.5C 198.412,312.155 199.912,316.322 205.5,319C 215.849,319.168 226.183,319.668 236.5,320.5C 233.824,328.195 231.158,335.862 228.5,343.5C 181.572,344.495 134.572,344.828 87.5,344.5C 87.5,304.167 87.5,263.833 87.5,223.5C 98.8382,223.667 110.172,223.5 121.5,223C 124.333,222.167 126.167,220.333 127,217.5C 127.5,198.17 127.667,178.836 127.5,159.5C 201.167,159.333 274.834,159.5 348.5,160C 355.035,166.703 361.702,173.203 368.5,179.5 Z"/></g>
<g><path style="opacity:1" fill="#003347" d="M 143.5,168.5 C 188.835,168.333 234.168,168.5 279.5,169C 284.71,170.211 286.544,173.377 285,178.5C 283.681,180.487 281.848,181.654 279.5,182C 234.167,182.667 188.833,182.667 143.5,182C 134.316,177.527 134.316,173.027 143.5,168.5 Z"/></g>
<g><path style="opacity:1" fill="#003347" d="M 308.5,169.5 C 317.818,169.655 319.818,173.488 314.5,181C 309.424,182.437 306.091,180.604 304.5,175.5C 305.467,173.21 306.8,171.21 308.5,169.5 Z"/></g>
<g><path style="opacity:1" fill="#003246" d="M 368.5,179.5 C 381.5,192.167 394.5,204.833 407.5,217.5C 407.5,283.5 407.5,349.5 407.5,415.5C 338.833,415.5 270.167,415.5 201.5,415.5C 183.702,397.201 165.702,379.035 147.5,361C 127.567,359.536 107.567,359.036 87.5,359.5C 87.5,354.5 87.5,349.5 87.5,344.5C 134.572,344.828 181.572,344.495 228.5,343.5C 226.84,348.816 225.173,354.149 223.5,359.5C 225.211,366.186 229.211,368.353 235.5,366C 243.035,358.298 250.702,350.798 258.5,343.5C 291.331,344.664 324.331,344.831 357.5,344C 362.667,342.167 366.167,338.667 368,333.5C 368.5,282.168 368.667,230.834 368.5,179.5 Z"/></g>
<g><path style="opacity:1" fill="#2a0e0b" d="M 479.5,190.5 C 479.5,190.833 479.5,191.167 479.5,191.5C 471.5,191.5 463.5,191.5 455.5,191.5C 455.5,252.833 455.5,314.167 455.5,375.5C 455.167,375.5 454.833,375.5 454.5,375.5C 454.5,313.833 454.5,252.167 454.5,190.5C 462.833,190.5 471.167,190.5 479.5,190.5 Z"/></g>
<g><path style="opacity:1" fill="#7f3b35" d="M 479.5,191.5 C 479.5,191.167 479.5,190.833 479.5,190.5C 482.5,190.5 485.5,190.5 488.5,190.5C 488.5,260.5 488.5,330.5 488.5,400.5C 477.167,400.5 465.833,400.5 454.5,400.5C 454.5,392.167 454.5,383.833 454.5,375.5C 454.833,375.5 455.167,375.5 455.5,375.5C 455.5,383.5 455.5,391.5 455.5,399.5C 466.167,399.5 476.833,399.5 487.5,399.5C 487.5,330.167 487.5,260.833 487.5,191.5C 484.833,191.5 482.167,191.5 479.5,191.5 Z"/></g>
<g><path style="opacity:1" fill="#fb7468" d="M 479.5,191.5 C 479.667,251.168 479.5,310.834 479,370.5C 478.167,372.667 476.667,374.167 474.5,375C 468.175,375.5 461.842,375.666 455.5,375.5C 455.5,314.167 455.5,252.833 455.5,191.5C 463.5,191.5 471.5,191.5 479.5,191.5 Z"/></g>
<g><path style="opacity:1" fill="#e46d65" d="M 479.5,191.5 C 482.167,191.5 484.833,191.5 487.5,191.5C 487.5,260.833 487.5,330.167 487.5,399.5C 476.833,399.5 466.167,399.5 455.5,399.5C 455.5,391.5 455.5,383.5 455.5,375.5C 461.842,375.666 468.175,375.5 474.5,375C 476.667,374.167 478.167,372.667 479,370.5C 479.5,310.834 479.667,251.168 479.5,191.5 Z"/></g>
<g><path style="opacity:1" fill="#2a0e0b" d="M 31.5,206.5 C 31.5,206.833 31.5,207.167 31.5,207.5C 28.8333,207.5 26.1667,207.5 23.5,207.5C 23.5,258.167 23.5,308.833 23.5,359.5C 23.1667,359.5 22.8333,359.5 22.5,359.5C 22.5,308.5 22.5,257.5 22.5,206.5C 25.5,206.5 28.5,206.5 31.5,206.5 Z"/></g>
<g><path style="opacity:1" fill="#7f3b35" d="M 31.5,207.5 C 31.5,207.167 31.5,206.833 31.5,206.5C 34.5,206.5 37.5,206.5 40.5,206.5C 40.5,260.5 40.5,314.5 40.5,368.5C 34.5,368.5 28.5,368.5 22.5,368.5C 22.5,365.5 22.5,362.5 22.5,359.5C 22.8333,359.5 23.1667,359.5 23.5,359.5C 23.5,362.167 23.5,364.833 23.5,367.5C 28.8333,367.5 34.1667,367.5 39.5,367.5C 39.5,314.167 39.5,260.833 39.5,207.5C 36.8333,207.5 34.1667,207.5 31.5,207.5 Z"/></g>
<g><path style="opacity:1" fill="#fb7468" d="M 31.5,207.5 C 31.6667,256.501 31.5,305.501 31,354.5C 29.5897,357.789 27.0897,359.456 23.5,359.5C 23.5,308.833 23.5,258.167 23.5,207.5C 26.1667,207.5 28.8333,207.5 31.5,207.5 Z"/></g>
<g><path style="opacity:1" fill="#e46d65" d="M 31.5,207.5 C 34.1667,207.5 36.8333,207.5 39.5,207.5C 39.5,260.833 39.5,314.167 39.5,367.5C 34.1667,367.5 28.8333,367.5 23.5,367.5C 23.5,364.833 23.5,362.167 23.5,359.5C 27.0897,359.456 29.5897,357.789 31,354.5C 31.5,305.501 31.6667,256.501 31.5,207.5 Z"/></g>
<g><path style="opacity:1" fill="#000d16" d="M 407.5,217.5 C 408.499,283.665 408.832,349.998 408.5,416.5C 339.331,416.833 270.331,416.499 201.5,415.5C 270.167,415.5 338.833,415.5 407.5,415.5C 407.5,349.5 407.5,283.5 407.5,217.5 Z"/></g>
<g><path style="opacity:1" fill="#010101" d="M 258.5,343.5 C 250.702,350.798 243.035,358.298 235.5,366C 229.211,368.353 225.211,366.186 223.5,359.5C 225.173,354.149 226.84,348.816 228.5,343.5C 231.158,335.862 233.824,328.195 236.5,320.5C 226.183,319.668 215.849,319.168 205.5,319C 199.912,316.322 198.412,312.155 201,306.5C 214.244,279.678 227.744,253.011 241.5,226.5C 242.665,225.416 243.998,224.583 245.5,224C 265.5,223.333 285.5,223.333 305.5,224C 311.747,227.155 312.914,231.655 309,237.5C 297.167,251.333 285.333,265.167 273.5,279C 284.167,279.333 294.833,279.667 305.5,280C 311.747,283.155 312.914,287.655 309,293.5C 292.299,310.368 275.465,327.035 258.5,343.5 Z"/></g>
<g><path style="opacity:1" fill="#75362f" d="M 422.5,238.5 C 428.5,238.5 434.5,238.5 440.5,238.5C 440.5,276.5 440.5,314.5 440.5,352.5C 434.5,352.5 428.5,352.5 422.5,352.5C 422.5,314.5 422.5,276.5 422.5,238.5 Z"/></g>
<g><path style="opacity:1" fill="#fa7368" d="M 285.5,241.5 C 284.5,241.833 283.833,242.5 283.5,243.5C 281.413,244.585 280.08,246.251 279.5,248.5C 278.5,248.833 277.833,249.5 277.5,250.5C 275.413,251.585 274.08,253.251 273.5,255.5C 272.5,255.833 271.833,256.5 271.5,257.5C 269.413,258.585 268.08,260.251 267.5,262.5C 266.5,262.833 265.833,263.5 265.5,264.5C 263.413,265.585 262.08,267.251 261.5,269.5C 260.5,269.833 259.833,270.5 259.5,271.5C 257.413,272.585 256.08,274.251 255.5,276.5C 254.5,276.833 253.833,277.5 253.5,278.5C 251.413,279.585 250.08,281.251 249.5,283.5C 247.629,288.354 248.962,292.02 253.5,294.5C 263.325,295.33 273.325,295.83 283.5,296C 272.667,306.833 261.833,317.667 251,328.5C 250.517,327.552 250.351,326.552 250.5,325.5C 253.997,319.98 254.997,313.98 253.5,307.5C 252.358,306.174 251.024,305.174 249.5,304.5C 240.009,303.67 230.342,303.17 220.5,303C 231.128,282.244 241.628,261.411 252,240.5C 257.588,239.844 263.255,239.511 269,239.5C 274.876,239.505 280.376,240.171 285.5,241.5 Z"/></g>
<g><path style="opacity:1" fill="#e46e64" d="M 423.5,239.5 C 428.833,239.5 434.167,239.5 439.5,239.5C 439.5,276.833 439.5,314.167 439.5,351.5C 434.167,351.5 428.833,351.5 423.5,351.5C 423.5,314.167 423.5,276.833 423.5,239.5 Z"/></g>
<g><path style="opacity:1" fill="#793430" d="M 285.5,241.5 C 280.376,240.171 274.876,239.505 269,239.5C 263.255,239.511 257.588,239.844 252,240.5C 241.628,261.411 231.128,282.244 220.5,303C 230.342,303.17 240.009,303.67 249.5,304.5C 239.5,304.5 229.5,304.5 219.5,304.5C 229.478,282.377 240.144,260.544 251.5,239C 263.162,238.5 274.829,238.333 286.5,238.5C 286.737,239.791 286.404,240.791 285.5,241.5 Z"/></g>
<g><path style="opacity:1" fill="#77342f" d="M 283.5,243.5 C 282.92,245.749 281.587,247.415 279.5,248.5C 280.08,246.251 281.413,244.585 283.5,243.5 Z"/></g>
<g><path style="opacity:1" fill="#77342f" d="M 277.5,250.5 C 276.92,252.749 275.587,254.415 273.5,255.5C 274.08,253.251 275.413,251.585 277.5,250.5 Z"/></g>
<g><path style="opacity:1" fill="#77342f" d="M 271.5,257.5 C 270.92,259.749 269.587,261.415 267.5,262.5C 268.08,260.251 269.413,258.585 271.5,257.5 Z"/></g>
<g><path style="opacity:1" fill="#75362f" d="M 54.5,262.5 C 60.5,262.5 66.5,262.5 72.5,262.5C 72.5,279.167 72.5,295.833 72.5,312.5C 66.5,312.5 60.5,312.5 54.5,312.5C 54.5,295.833 54.5,279.167 54.5,262.5 Z"/></g>
<g><path style="opacity:1" fill="#e46e64" d="M 55.5,263.5 C 60.8333,263.5 66.1667,263.5 71.5,263.5C 71.5,279.5 71.5,295.5 71.5,311.5C 66.1667,311.5 60.8333,311.5 55.5,311.5C 55.5,295.5 55.5,279.5 55.5,263.5 Z"/></g>
<g><path style="opacity:1" fill="#77342f" d="M 265.5,264.5 C 264.92,266.749 263.587,268.415 261.5,269.5C 262.08,267.251 263.413,265.585 265.5,264.5 Z"/></g>
<g><path style="opacity:1" fill="#77342f" d="M 259.5,271.5 C 258.92,273.749 257.587,275.415 255.5,276.5C 256.08,274.251 257.413,272.585 259.5,271.5 Z"/></g>
<g><path style="opacity:1" fill="#77342f" d="M 253.5,278.5 C 252.92,280.749 251.587,282.415 249.5,283.5C 250.08,281.251 251.413,279.585 253.5,278.5 Z"/></g>
<g><path style="opacity:1" fill="#7d3732" d="M 253.5,294.5 C 263.833,294.5 274.167,294.5 284.5,294.5C 284.649,295.552 284.483,296.552 284,297.5C 273.5,308 263,318.5 252.5,329C 251.552,329.483 250.552,329.649 249.5,329.5C 249.232,327.901 249.566,326.568 250.5,325.5C 250.351,326.552 250.517,327.552 251,328.5C 261.833,317.667 272.667,306.833 283.5,296C 273.325,295.83 263.325,295.33 253.5,294.5 Z"/></g>
<g><path style="opacity:1" fill="#000d16" d="M 207.5,383.5 C 258.167,383.5 308.833,383.5 359.5,383.5C 359.5,388.833 359.5,394.167 359.5,399.5C 308.833,399.5 258.167,399.5 207.5,399.5C 207.5,394.167 207.5,388.833 207.5,383.5 Z"/></g>
<g><path style="opacity:1" fill="#000000" d="M 208.5,384.5 C 258.5,384.5 308.5,384.5 358.5,384.5C 358.5,389.167 358.5,393.833 358.5,398.5C 308.5,398.5 258.5,398.5 208.5,398.5C 208.5,393.833 208.5,389.167 208.5,384.5 Z"/></g>
<g><path style="opacity:1" fill="#000205" d="M 375.5,383.5 C 380.833,383.5 386.167,383.5 391.5,383.5C 391.5,388.833 391.5,394.167 391.5,399.5C 386.167,399.5 380.833,399.5 375.5,399.5C 375.5,394.167 375.5,388.833 375.5,383.5 Z"/></g>
</svg>
