<?xml version="1.0" encoding="UTF-8"?>
<!DOCTYPE svg PUBLIC "-//W3C//DTD SVG 1.1//EN" "http://www.w3.org/Graphics/SVG/1.1/DTD/svg11.dtd">
<svg xmlns="http://www.w3.org/2000/svg" version="1.1" width="200px" height="200px" style="shape-rendering:geometricPrecision; text-rendering:geometricPrecision; image-rendering:optimizeQuality; fill-rule:evenodd; clip-rule:evenodd" xmlns:xlink="http://www.w3.org/1999/xlink">
<g><path style="opacity:1" fill="#616161" d="M 154.5,33.5 C 160.509,33.3338 166.509,33.5005 172.5,34C 172.957,34.414 173.291,34.914 173.5,35.5C 166.866,36.4967 160.2,36.83 153.5,36.5C 153.082,35.7784 152.416,35.2784 151.5,35C 152.737,34.7679 153.737,34.2679 154.5,33.5 Z"/></g>
<g><path style="opacity:0.903" fill="#565556" d="M 142.5,33.5 C 144.631,34.3138 146.964,34.8138 149.5,35C 141.52,36.1014 133.52,36.4348 125.5,36C 127.058,35.79 128.391,35.29 129.5,34.5C 133.898,34.7059 138.232,34.3726 142.5,33.5 Z"/></g>
<g><path style="opacity:1" fill="#9e9e9e" d="M 175.5,32.5 C 174.761,32.369 174.094,32.5357 173.5,33C 176.119,35.2565 176.119,37.4232 173.5,39.5C 169.886,38.8683 166.219,38.5349 162.5,38.5C 149.494,39.1336 136.494,39.8003 123.5,40.5C 123.389,39.8826 123.056,39.3826 122.5,39C 132.821,37.8876 143.154,37.0542 153.5,36.5C 160.2,36.83 166.866,36.4967 173.5,35.5C 173.291,34.914 172.957,34.414 172.5,34C 166.509,33.5005 160.509,33.3338 154.5,33.5C 154.611,32.8826 154.944,32.3826 155.5,32C 162.346,31.1794 169.013,31.346 175.5,32.5 Z"/></g>
<g><path style="opacity:1" fill="#676767" d="M 81.5,41.5 C 80.5,42.1667 79.5,42.8333 78.5,43.5C 77.1121,42.4531 76.2787,41.1198 76,39.5C 73.6667,40.1667 71.3333,40.8333 69,41.5C 68.2352,41.4301 67.7352,41.0967 67.5,40.5C 69.9178,39.1343 72.5844,38.1343 75.5,37.5C 78.217,37.8519 80.217,39.1853 81.5,41.5 Z"/></g>
<g><path style="opacity:0.769" fill="#676767" d="M 121.5,35.5 C 125.449,35.6932 125.449,36.1932 121.5,37C 110.308,37.2738 99.3077,38.7738 88.5,41.5C 85.7672,41.9481 83.6006,43.2814 82,45.5C 81.6174,44.944 81.1174,44.6107 80.5,44.5C 81.1098,43.609 81.4431,42.609 81.5,41.5C 94.5261,37.5515 107.859,35.5515 121.5,35.5 Z"/></g>
<g><path style="opacity:1" fill="#8e8e8e" d="M 142.5,33.5 C 146.5,33.5 150.5,33.5 154.5,33.5C 153.737,34.2679 152.737,34.7679 151.5,35C 152.416,35.2784 153.082,35.7784 153.5,36.5C 143.154,37.0542 132.821,37.8876 122.5,39C 123.056,39.3826 123.389,39.8826 123.5,40.5C 116.289,40.4579 109.289,41.1246 102.5,42.5C 98.7983,42.421 95.1317,42.7543 91.5,43.5C 89.9704,43.3601 88.9704,42.6935 88.5,41.5C 99.3077,38.7738 110.308,37.2738 121.5,37C 125.449,36.1932 125.449,35.6932 121.5,35.5C 123.948,34.5269 126.615,34.1936 129.5,34.5C 128.391,35.29 127.058,35.79 125.5,36C 133.52,36.4348 141.52,36.1014 149.5,35C 146.964,34.8138 144.631,34.3138 142.5,33.5 Z"/></g>
<g><path style="opacity:1" fill="#686868" d="M 175.5,32.5 C 179.02,33.3528 181.687,35.3528 183.5,38.5C 186.887,38.7165 188.887,40.5498 189.5,44C 187.137,45.9619 184.47,47.4619 181.5,48.5C 181.44,47.9569 181.107,47.6236 180.5,47.5C 178.396,48.5195 176.396,49.5195 174.5,50.5C 173.183,50.821 171.849,51.1543 170.5,51.5C 168.461,49.7872 166.461,48.1205 164.5,46.5C 164.953,45.5416 165.619,44.7083 166.5,44C 160.672,43.4399 154.838,42.9399 149,42.5C 136.515,43.3597 124.015,43.6931 111.5,43.5C 108.287,43.81 105.287,43.4767 102.5,42.5C 109.289,41.1246 116.289,40.4579 123.5,40.5C 136.494,39.8003 149.494,39.1336 162.5,38.5C 166.219,38.5349 169.886,38.8683 173.5,39.5C 176.119,37.4232 176.119,35.2565 173.5,33C 174.094,32.5357 174.761,32.369 175.5,32.5 Z"/></g>
<g><path style="opacity:1" fill="#adadad" d="M 183.5,38.5 C 184.476,39.8149 185.476,41.1482 186.5,42.5C 186.167,42.8333 185.833,43.1667 185.5,43.5C 179.711,45.0273 174.044,46.6939 168.5,48.5C 168.26,44.4223 170.26,42.2556 174.5,42C 176.628,40.3331 177.961,38.1664 178.5,35.5C 179.94,36.9524 181.606,37.9524 183.5,38.5 Z"/></g>
<g><path style="opacity:1" fill="#5b5b5b" d="M 60.5,42.5 C 66.3233,42.798 66.8233,44.4647 62,47.5C 61.6174,46.944 61.1174,46.6107 60.5,46.5C 58.4021,45.5155 56.4021,45.8489 54.5,47.5C 55.6385,44.9138 57.6385,43.2471 60.5,42.5 Z"/></g>
<g><path style="opacity:1" fill="#9e9e9e" d="M 164.5,46.5 C 163.833,46.8333 163.167,47.1667 162.5,47.5C 154.5,47.5 146.5,47.5 138.5,47.5C 127.549,45.5223 116.216,44.8556 104.5,45.5C 100.818,45.6653 97.1516,45.4986 93.5,45C 99.6807,44.8276 105.681,44.3276 111.5,43.5C 124.015,43.6931 136.515,43.3597 149,42.5C 154.838,42.9399 160.672,43.4399 166.5,44C 165.619,44.7083 164.953,45.5416 164.5,46.5 Z"/></g>
<g><path style="opacity:1" fill="#656565" d="M 104.5,45.5 C 116.216,44.8556 127.549,45.5223 138.5,47.5C 135.615,47.1936 132.948,47.5269 130.5,48.5C 117.157,48.526 103.824,48.8594 90.5,49.5C 91.9516,48.6981 93.6183,48.1981 95.5,48C 106.5,47.6667 117.5,47.3333 128.5,47C 120.323,46.8292 112.323,46.3292 104.5,45.5 Z"/></g>
<g><path style="opacity:1" fill="#848484" d="M 88.5,41.5 C 88.9704,42.6935 89.9704,43.3601 91.5,43.5C 95.1317,42.7543 98.7983,42.421 102.5,42.5C 105.287,43.4767 108.287,43.81 111.5,43.5C 105.681,44.3276 99.6807,44.8276 93.5,45C 97.1516,45.4986 100.818,45.6653 104.5,45.5C 112.323,46.3292 120.323,46.8292 128.5,47C 117.5,47.3333 106.5,47.6667 95.5,48C 93.6183,48.1981 91.9516,48.6981 90.5,49.5C 83.0633,49.8919 75.73,50.7252 68.5,52C 72.6963,49.7394 76.6963,47.2394 80.5,44.5C 81.1174,44.6107 81.6174,44.944 82,45.5C 83.6006,43.2814 85.7672,41.9481 88.5,41.5 Z"/></g>
<g><path style="opacity:1" fill="#626262" d="M 138.5,47.5 C 146.5,47.5 154.5,47.5 162.5,47.5C 162.5,48.8333 162.5,50.1667 162.5,51.5C 154.535,50.0194 146.535,48.686 138.5,47.5 Z"/></g>
<g><path style="opacity:1" fill="#101010" d="M 164.5,46.5 C 166.461,48.1205 168.461,49.7872 170.5,51.5C 171.849,51.1543 173.183,50.821 174.5,50.5C 175.774,51.1894 175.774,52.0228 174.5,53C 170.413,53.7625 166.413,53.5958 162.5,52.5C 162.5,52.1667 162.5,51.8333 162.5,51.5C 162.5,50.1667 162.5,48.8333 162.5,47.5C 163.167,47.1667 163.833,46.8333 164.5,46.5 Z"/></g>
<g><path style="opacity:1" fill="#bbbbbb" d="M 60.5,46.5 C 60.0766,47.2646 59.7432,48.0979 59.5,49C 60.3839,50.098 61.3839,50.598 62.5,50.5C 58.1765,52.3267 54.1765,54.66 50.5,57.5C 49.7497,53.2246 51.083,49.8913 54.5,47.5C 56.4021,45.8489 58.4021,45.5155 60.5,46.5 Z"/></g>
<g><path style="opacity:1" fill="#595959" d="M 181.5,48.5 C 181.923,49.2646 182.257,50.0979 182.5,51C 180.774,54.567 180.107,58.067 180.5,61.5C 180.489,59.9826 179.823,58.8159 178.5,58C 161.547,55.7081 144.547,54.3747 127.5,54C 128.416,54.2784 129.082,54.7784 129.5,55.5C 116.183,54.6941 102.85,54.3608 89.5,54.5C 82.8656,54.3232 82.8656,53.8232 89.5,53C 101.833,52.6667 114.167,52.3333 126.5,52C 114.838,51.5001 103.171,51.3335 91.5,51.5C 106.848,50.0323 122.181,49.3656 137.5,49.5C 139.046,50.6358 140.879,51.3025 143,51.5C 149.21,51.9898 155.377,52.6564 161.5,53.5C 162.107,53.3764 162.44,53.0431 162.5,52.5C 166.413,53.5958 170.413,53.7625 174.5,53C 175.774,52.0228 175.774,51.1894 174.5,50.5C 176.396,49.5195 178.396,48.5195 180.5,47.5C 181.107,47.6236 181.44,47.9569 181.5,48.5 Z"/></g>
<g><path style="opacity:1" fill="#888888" d="M 78.5,43.5 C 75.7557,45.555 72.7557,46.3883 69.5,46C 67.699,49.1466 65.8657,52.3132 64,55.5C 61.0685,58.2852 57.9018,60.6185 54.5,62.5C 52.8333,63.8333 51.1667,65.1667 49.5,66.5C 49.5,65.8333 49.1667,65.5 48.5,65.5C 48.5,65.1667 48.5,64.8333 48.5,64.5C 52.0902,61.3607 56.0902,58.694 60.5,56.5C 61.3857,55.675 61.719,54.675 61.5,53.5C 57.6233,54.7115 53.9566,56.3781 50.5,58.5C 50.5,58.1667 50.5,57.8333 50.5,57.5C 54.1765,54.66 58.1765,52.3267 62.5,50.5C 61.3839,50.598 60.3839,50.098 59.5,49C 59.7432,48.0979 60.0766,47.2646 60.5,46.5C 61.1174,46.6107 61.6174,46.944 62,47.5C 66.8233,44.4647 66.3233,42.798 60.5,42.5C 62.5145,41.0762 64.8478,40.4095 67.5,40.5C 67.7352,41.0967 68.2352,41.4301 69,41.5C 71.3333,40.8333 73.6667,40.1667 76,39.5C 76.2787,41.1198 77.1121,42.4531 78.5,43.5 Z"/></g>
<g><path style="opacity:1" fill="#888888" d="M 130.5,48.5 C 132.948,47.5269 135.615,47.1936 138.5,47.5C 146.535,48.686 154.535,50.0194 162.5,51.5C 162.5,51.8333 162.5,52.1667 162.5,52.5C 162.44,53.0431 162.107,53.3764 161.5,53.5C 155.377,52.6564 149.21,51.9898 143,51.5C 140.879,51.3025 139.046,50.6358 137.5,49.5C 135.393,48.5318 133.059,48.1984 130.5,48.5 Z"/></g>
<g><path style="opacity:1" fill="#323232" d="M 180.5,61.5 C 163.522,59.3127 146.522,57.3127 129.5,55.5C 129.082,54.7784 128.416,54.2784 127.5,54C 144.547,54.3747 161.547,55.7081 178.5,58C 179.823,58.8159 180.489,59.9826 180.5,61.5 Z"/></g>
<g><path style="opacity:1" fill="#bebebe" d="M 48.5,64.5 C 48.2594,62.1016 48.9261,60.1016 50.5,58.5C 53.9566,56.3781 57.6233,54.7115 61.5,53.5C 61.719,54.675 61.3857,55.675 60.5,56.5C 56.0902,58.694 52.0902,61.3607 48.5,64.5 Z"/></g>
<g><path style="opacity:1" fill="#2c2c2c" d="M 81.5,41.5 C 81.4431,42.609 81.1098,43.609 80.5,44.5C 76.6963,47.2394 72.6963,49.7394 68.5,52C 75.73,50.7252 83.0633,49.8919 90.5,49.5C 103.824,48.8594 117.157,48.526 130.5,48.5C 133.059,48.1984 135.393,48.5318 137.5,49.5C 122.181,49.3656 106.848,50.0323 91.5,51.5C 85.655,51.151 79.9883,51.9843 74.5,54C 67.4057,57.9384 60.739,62.4384 54.5,67.5C 53.7598,65.5947 53.7598,63.928 54.5,62.5C 57.9018,60.6185 61.0685,58.2852 64,55.5C 65.8657,52.3132 67.699,49.1466 69.5,46C 72.7557,46.3883 75.7557,45.555 78.5,43.5C 79.5,42.8333 80.5,42.1667 81.5,41.5 Z"/></g>
<g><path style="opacity:0.545" fill="#626262" d="M 91.5,51.5 C 103.171,51.3335 114.838,51.5001 126.5,52C 114.167,52.3333 101.833,52.6667 89.5,53C 82.8656,53.8232 82.8656,54.3232 89.5,54.5C 72.7512,57.0475 59.0845,65.0475 48.5,78.5C 47.6618,78.1583 47.3284,77.4916 47.5,76.5C 49.4512,73.2139 51.7846,70.2139 54.5,67.5C 60.739,62.4384 67.4057,57.9384 74.5,54C 79.9883,51.9843 85.655,51.151 91.5,51.5 Z"/></g>
<g><path style="opacity:1" fill="#616161" d="M 135.5,64.5 C 136.609,65.29 137.942,65.79 139.5,66C 133.509,66.4995 127.509,66.6662 121.5,66.5C 116.5,65.8333 111.5,65.1667 106.5,64.5C 116.08,64.0829 125.747,64.0829 135.5,64.5 Z"/></g>
<g><path style="opacity:1" fill="#979797" d="M 165.5,65.5 C 165.062,65.4346 164.728,65.6012 164.5,66C 167.372,68.5321 167.039,70.3655 163.5,71.5C 144.567,69.5735 125.567,68.5735 106.5,68.5C 104.708,67.6909 102.708,67.1909 100.5,67C 107.492,66.5004 114.492,66.3337 121.5,66.5C 127.509,66.6662 133.509,66.4995 139.5,66C 137.942,65.79 136.609,65.29 135.5,64.5C 139.702,64.1832 143.702,64.5166 147.5,65.5C 145.473,65.3379 143.473,65.5045 141.5,66C 149.055,68.0462 156.722,68.7129 164.5,68C 163.833,67.3333 163.167,66.6667 162.5,66C 157.845,65.5008 153.179,65.3342 148.5,65.5C 149.624,64.1914 151.124,63.5247 153,63.5C 157.335,64.0084 161.501,64.6751 165.5,65.5 Z"/></g>
<g><path style="opacity:1" fill="#616161" d="M 147.5,65.5 C 147.833,65.5 148.167,65.5 148.5,65.5C 153.179,65.3342 157.845,65.5008 162.5,66C 163.167,66.6667 163.833,67.3333 164.5,68C 156.722,68.7129 149.055,68.0462 141.5,66C 143.473,65.5045 145.473,65.3379 147.5,65.5 Z"/></g>
<g><path style="opacity:1" fill="#858585" d="M 106.5,64.5 C 111.5,65.1667 116.5,65.8333 121.5,66.5C 114.492,66.3337 107.492,66.5004 100.5,67C 102.708,67.1909 104.708,67.6909 106.5,68.5C 104.801,68.3398 103.134,68.5065 101.5,69C 101.833,69.3333 102.167,69.6667 102.5,70C 110.831,70.611 119.164,71.111 127.5,71.5C 117.833,72.1667 108.167,72.8333 98.5,73.5C 93.3054,73.1795 88.3054,73.5128 83.5,74.5C 81.4012,75.2309 79.4012,75.2309 77.5,74.5C 81.5945,72.9774 85.2611,70.8107 88.5,68C 85.4107,69.0224 82.0774,69.6891 78.5,70C 76.6859,72.4795 75.0192,74.9795 73.5,77.5C 73.4894,75.9826 72.8228,74.8159 71.5,74C 72.3081,73.6924 72.9747,73.1924 73.5,72.5C 72.3539,71.2813 71.3539,69.9479 70.5,68.5C 69.3132,69.6527 68.3132,69.6527 67.5,68.5C 73.5822,64.8148 80.2489,63.3148 87.5,64C 88.09,65.2989 89.09,66.1322 90.5,66.5C 95.7553,65.1795 101.089,64.5129 106.5,64.5 Z"/></g>
<g><path style="opacity:1" fill="#b2b2b2" d="M 67.5,68.5 C 68.3132,69.6527 69.3132,69.6527 70.5,68.5C 71.3539,69.9479 72.3539,71.2813 73.5,72.5C 72.9747,73.1924 72.3081,73.6924 71.5,74C 72.8228,74.8159 73.4894,75.9826 73.5,77.5C 71.5739,79.2927 69.2406,80.2927 66.5,80.5C 64.4862,80.3915 62.8195,81.0582 61.5,82.5C 62.1509,77.1168 64.1509,72.4501 67.5,68.5 Z"/></g>
<g><path style="opacity:1" fill="#676767" d="M 165.5,65.5 C 169.697,67.1901 173.197,69.8568 176,73.5C 176.49,74.7932 176.657,76.1266 176.5,77.5C 174.035,77.767 171.701,78.4336 169.5,79.5C 169.44,78.9569 169.107,78.6236 168.5,78.5C 166.362,79.2431 164.196,79.9097 162,80.5C 160.97,80.1639 160.47,79.4972 160.5,78.5C 164.793,77.3434 169.127,76.3434 173.5,75.5C 172.336,72.8135 170.503,70.4801 168,68.5C 167.727,70.3289 166.893,71.8289 165.5,73C 161.874,73.2782 159.874,75.1116 159.5,78.5C 158.596,77.791 158.263,76.791 158.5,75.5C 158.611,74.8826 158.944,74.3826 159.5,74C 153.13,73.4122 146.797,72.5788 140.5,71.5C 138.865,72.0463 137.199,72.3796 135.5,72.5C 133.052,71.5269 130.385,71.1936 127.5,71.5C 119.164,71.111 110.831,70.611 102.5,70C 102.167,69.6667 101.833,69.3333 101.5,69C 103.134,68.5065 104.801,68.3398 106.5,68.5C 125.567,68.5735 144.567,69.5735 163.5,71.5C 167.039,70.3655 167.372,68.5321 164.5,66C 164.728,65.6012 165.062,65.4346 165.5,65.5 Z"/></g>
<g><path style="opacity:1" fill="#787878" d="M 127.5,71.5 C 130.385,71.1936 133.052,71.5269 135.5,72.5C 133.143,72.3367 130.81,72.5034 128.5,73C 136.964,75.2445 145.631,76.7445 154.5,77.5C 154.5,78.8333 154.5,80.1667 154.5,81.5C 147.566,80.961 140.899,79.6277 134.5,77.5C 122.829,74.4995 110.829,73.1661 98.5,73.5C 108.167,72.8333 117.833,72.1667 127.5,71.5 Z"/></g>
<g><path style="opacity:1" fill="#a0a0a0" d="M 158.5,75.5 C 156.938,75.7329 155.605,76.3995 154.5,77.5C 145.631,76.7445 136.964,75.2445 128.5,73C 130.81,72.5034 133.143,72.3367 135.5,72.5C 137.199,72.3796 138.865,72.0463 140.5,71.5C 146.797,72.5788 153.13,73.4122 159.5,74C 158.944,74.3826 158.611,74.8826 158.5,75.5 Z"/></g>
<g><path style="opacity:1" fill="#474747" d="M 83.5,74.5 C 88.3054,73.5128 93.3054,73.1795 98.5,73.5C 110.829,73.1661 122.829,74.4995 134.5,77.5C 126.183,76.668 117.85,76.0014 109.5,75.5C 102.833,75.5 96.1667,75.5 89.5,75.5C 87.7354,74.5386 85.7354,74.2053 83.5,74.5 Z"/></g>
<g><path style="opacity:1" fill="#aeaeae" d="M 160.5,78.5 C 160.167,78.5 159.833,78.5 159.5,78.5C 159.874,75.1116 161.874,73.2782 165.5,73C 166.893,71.8289 167.727,70.3289 168,68.5C 170.503,70.4801 172.336,72.8135 173.5,75.5C 169.127,76.3434 164.793,77.3434 160.5,78.5 Z"/></g>
<g><path style="opacity:1" fill="#292929" d="M 54.5,62.5 C 53.7598,63.928 53.7598,65.5947 54.5,67.5C 51.7846,70.2139 49.4512,73.2139 47.5,76.5C 42.4607,81.5372 37.794,86.8705 33.5,92.5C 32.6971,91.5768 32.5304,90.5768 33,89.5C 37.4089,83.9372 41.5756,78.2705 45.5,72.5C 46.4151,70.2459 47.7484,68.2459 49.5,66.5C 51.1667,65.1667 52.8333,63.8333 54.5,62.5 Z"/></g>
<g><path style="opacity:0.447" fill="#5f5f5f" d="M 89.5,75.5 C 96.1667,75.5 102.833,75.5 109.5,75.5C 111.167,76.1667 112.833,76.8333 114.5,77.5C 110.958,77.1872 107.625,77.5206 104.5,78.5C 89.9428,76.5544 76.9428,80.0544 65.5,89C 53.9551,101.042 42.6218,113.209 31.5,125.5C 30.6143,124.675 30.281,123.675 30.5,122.5C 29.1667,122.5 27.8333,122.5 26.5,122.5C 26.2627,121.209 26.596,120.209 27.5,119.5C 27.7911,120.649 28.6244,121.316 30,121.5C 30.8333,121.333 31.6667,121.167 32.5,121C 37.3771,115.627 42.0438,110.127 46.5,104.5C 53.6625,97.5049 60.9958,90.6716 68.5,84C 74.6184,78.9392 81.6184,76.1059 89.5,75.5 Z"/></g>
<g><path style="opacity:1" fill="#616161" d="M 109.5,75.5 C 117.85,76.0014 126.183,76.668 134.5,77.5C 140.899,79.6277 147.566,80.961 154.5,81.5C 157.647,82.7399 160.98,83.7399 164.5,84.5C 165.981,82.8511 167.648,81.5177 169.5,80.5C 169.039,82.9589 169.039,85.6255 169.5,88.5C 168.743,90.4041 167.743,90.7375 166.5,89.5C 167.404,88.791 167.737,87.791 167.5,86.5C 149.819,83.3866 132.152,80.3866 114.5,77.5C 112.833,76.8333 111.167,76.1667 109.5,75.5 Z"/></g>
<g><path style="opacity:1" fill="#242424" d="M 158.5,75.5 C 158.263,76.791 158.596,77.791 159.5,78.5C 159.833,78.5 160.167,78.5 160.5,78.5C 160.47,79.4972 160.97,80.1639 162,80.5C 164.196,79.9097 166.362,79.2431 168.5,78.5C 169.107,78.6236 169.44,78.9569 169.5,79.5C 168.167,79.8333 168.167,80.1667 169.5,80.5C 167.648,81.5177 165.981,82.8511 164.5,84.5C 160.98,83.7399 157.647,82.7399 154.5,81.5C 154.5,80.1667 154.5,78.8333 154.5,77.5C 155.605,76.3995 156.938,75.7329 158.5,75.5 Z"/></g>
<g><path style="opacity:1" fill="#242424" d="M 83.5,74.5 C 85.7354,74.2053 87.7354,74.5386 89.5,75.5C 81.6184,76.1059 74.6184,78.9392 68.5,84C 60.9958,90.6716 53.6625,97.5049 46.5,104.5C 47.5,102.5 48.5,100.5 49.5,98.5C 49.369,97.7611 49.5357,97.0944 50,96.5C 55.3953,90.9362 60.8953,85.6029 66.5,80.5C 69.2406,80.2927 71.5739,79.2927 73.5,77.5C 75.0192,74.9795 76.6859,72.4795 78.5,70C 82.0774,69.6891 85.4107,69.0224 88.5,68C 85.2611,70.8107 81.5945,72.9774 77.5,74.5C 79.4012,75.2309 81.4012,75.2309 83.5,74.5 Z"/></g>
<g><path style="opacity:1" fill="#646464" d="M 48.5,65.5 C 49.1667,65.5 49.5,65.8333 49.5,66.5C 47.7484,68.2459 46.4151,70.2459 45.5,72.5C 37.8717,81.0659 30.705,90.0659 24,99.5C 22.7292,100.883 21.2292,101.883 19.5,102.5C 27.4801,88.8883 37.1468,76.555 48.5,65.5 Z"/></g>
<g><path style="opacity:1" fill="#353535" d="M 104.5,78.5 C 107.625,77.5206 110.958,77.1872 114.5,77.5C 132.152,80.3866 149.819,83.3866 167.5,86.5C 167.737,87.791 167.404,88.791 166.5,89.5C 146.063,84.546 125.397,80.8794 104.5,78.5 Z"/></g>
<g><path style="opacity:0.966" fill="#737373" d="M 66.5,80.5 C 60.8953,85.6029 55.3953,90.9362 50,96.5C 49.5357,97.0944 49.369,97.7611 49.5,98.5C 45.7728,102.233 41.7728,105.566 37.5,108.5C 44.4244,98.9062 52.4244,90.2396 61.5,82.5C 62.8195,81.0582 64.4862,80.3915 66.5,80.5 Z"/></g>
<g><path style="opacity:1" fill="#5b5b5b" d="M 47.5,76.5 C 47.3284,77.4916 47.6618,78.1583 48.5,78.5C 37.8068,91.8645 27.4735,105.531 17.5,119.5C 16.6376,118.234 15.9709,116.901 15.5,115.5C 16.4959,115.586 17.3292,115.252 18,114.5C 22.9304,106.962 28.097,99.6289 33.5,92.5C 37.794,86.8705 42.4607,81.5372 47.5,76.5 Z"/></g>
<g><path style="opacity:1" fill="#222222" d="M 45.5,72.5 C 41.5756,78.2705 37.4089,83.9372 33,89.5C 32.5304,90.5768 32.6971,91.5768 33.5,92.5C 28.097,99.6289 22.9304,106.962 18,114.5C 17.3292,115.252 16.4959,115.586 15.5,115.5C 15.1667,115.5 14.8333,115.5 14.5,115.5C 13.5,115.5 12.5,115.5 11.5,115.5C 11.5,114.5 11.5,113.5 11.5,112.5C 13.7935,108.873 16.4602,105.539 19.5,102.5C 21.2292,101.883 22.7292,100.883 24,99.5C 30.705,90.0659 37.8717,81.0659 45.5,72.5 Z"/></g>
<g><path style="opacity:1" fill="#242424" d="M 49.5,98.5 C 48.5,100.5 47.5,102.5 46.5,104.5C 42.0438,110.127 37.3771,115.627 32.5,121C 31.6667,121.167 30.8333,121.333 30,121.5C 28.6244,121.316 27.7911,120.649 27.5,119.5C 30.8617,115.808 34.1951,112.141 37.5,108.5C 41.7728,105.566 45.7728,102.233 49.5,98.5 Z"/></g>
<g><path style="opacity:0.431" fill="#4b4b4b" d="M 166.5,148.5 C 166.649,147.448 166.483,146.448 166,145.5C 163.51,146.743 161.01,147.91 158.5,149C 149.304,150.382 140.304,152.549 131.5,155.5C 130.246,153.741 130.579,152.241 132.5,151C 142.972,149.883 152.972,147.216 162.5,143C 160.19,142.503 157.857,142.337 155.5,142.5C 153.452,142.84 152.452,142.507 152.5,141.5C 156.215,141.577 159.881,141.244 163.5,140.5C 163.351,141.552 163.517,142.552 164,143.5C 165.892,142.383 166.725,140.716 166.5,138.5C 165.807,133.747 164.14,129.414 161.5,125.5C 158.637,120.968 154.637,117.968 149.5,116.5C 147.952,116.821 147.285,117.821 147.5,119.5C 146.833,119.833 146.167,120.167 145.5,120.5C 144.375,119.652 144.375,118.652 145.5,117.5C 136.868,114.342 129.035,117.009 122,125.5C 118.457,131.341 116.957,137.674 117.5,144.5C 117.5,145.167 117.167,145.5 116.5,145.5C 114.254,126.555 122.754,115.889 142,113.5C 157.96,114.96 166.793,123.627 168.5,139.5C 168.553,142.785 167.886,145.785 166.5,148.5 Z M 149.5,116.5 C 149.374,118.622 148.707,119.622 147.5,119.5C 147.285,117.821 147.952,116.821 149.5,116.5 Z M 161.5,125.5 C 164.14,129.414 165.807,133.747 166.5,138.5C 165.167,138.5 163.833,138.5 162.5,138.5C 162.443,137.391 162.11,136.391 161.5,135.5C 161.953,131.574 160.62,128.408 157.5,126C 158.793,125.51 160.127,125.343 161.5,125.5 Z M 150.5,132.5 C 150.586,133.496 150.252,134.329 149.5,135C 147.148,135.24 145.148,136.073 143.5,137.5C 143.5,138.167 143.167,138.5 142.5,138.5C 141.504,138.414 140.671,138.748 140,139.5C 139.517,138.552 139.351,137.552 139.5,136.5C 142.369,133.242 146.036,131.909 150.5,132.5 Z"/></g>
<g><path style="opacity:0.649" fill="#727272" d="M 11.5,112.5 C 11.5,113.5 11.5,114.5 11.5,115.5C 12.5,115.5 13.5,115.5 14.5,115.5C 13.0813,116.451 11.4147,116.784 9.5,116.5C 9.22911,114.62 9.89578,113.287 11.5,112.5 Z"/></g>
<g><path style="opacity:0.965" fill="#f6f6f6" d="M 149.5,116.5 C 154.637,117.968 158.637,120.968 161.5,125.5C 160.127,125.343 158.793,125.51 157.5,126C 160.62,128.408 161.953,131.574 161.5,135.5C 155.378,135.268 149.378,135.935 143.5,137.5C 145.148,136.073 147.148,135.24 149.5,135C 150.252,134.329 150.586,133.496 150.5,132.5C 150.5,132.167 150.5,131.833 150.5,131.5C 150.5,130.167 150.5,128.833 150.5,127.5C 147.477,126.322 144.477,126.322 141.5,127.5C 140.761,127.631 140.094,127.464 139.5,127C 143.065,126.268 145.065,124.102 145.5,120.5C 146.167,120.167 146.833,119.833 147.5,119.5C 148.707,119.622 149.374,118.622 149.5,116.5 Z"/></g>
<g><path style="opacity:1" fill="#969696" d="M 145.5,117.5 C 144.375,118.652 144.375,119.652 145.5,120.5C 145.065,124.102 143.065,126.268 139.5,127C 140.094,127.464 140.761,127.631 141.5,127.5C 139.712,128.622 137.712,128.789 135.5,128C 134.901,126.378 134.234,124.878 133.5,123.5C 136.947,120.562 140.947,118.562 145.5,117.5 Z"/></g>
<g><path style="opacity:1" fill="#0f0f0f" d="M 133.5,123.5 C 134.234,124.878 134.901,126.378 135.5,128C 137.712,128.789 139.712,128.622 141.5,127.5C 144.477,126.322 147.477,126.322 150.5,127.5C 150.5,128.833 150.5,130.167 150.5,131.5C 138.986,129.01 132.986,133.676 132.5,145.5C 131.534,143.604 131.201,141.604 131.5,139.5C 131.5,138.167 130.833,137.5 129.5,137.5C 129.338,135.473 129.505,133.473 130,131.5C 130.535,133.271 131.369,133.604 132.5,132.5C 131.626,130.253 131.292,127.92 131.5,125.5C 131.833,124.5 132.5,123.833 133.5,123.5 Z"/></g>
<g><path style="opacity:1" fill="#414141" d="M 131.5,125.5 C 131.292,127.92 131.626,130.253 132.5,132.5C 131.369,133.604 130.535,133.271 130,131.5C 129.505,133.473 129.338,135.473 129.5,137.5C 128.019,133.211 128.685,129.211 131.5,125.5 Z"/></g>
<g><path style="opacity:1" fill="#1d1d1d" d="M 161.5,135.5 C 162.11,136.391 162.443,137.391 162.5,138.5C 160.742,138.877 159.075,139.544 157.5,140.5C 156.167,139.5 154.833,138.5 153.5,137.5C 152.817,137.863 152.15,138.196 151.5,138.5C 150.609,139.11 149.609,139.443 148.5,139.5C 146.94,139.519 145.44,139.852 144,140.5C 142.97,140.164 142.47,139.497 142.5,138.5C 143.167,138.5 143.5,138.167 143.5,137.5C 149.378,135.935 155.378,135.268 161.5,135.5 Z"/></g>
<g><path style="opacity:1" fill="#4a4a4a" d="M 150.5,131.5 C 150.5,131.833 150.5,132.167 150.5,132.5C 146.036,131.909 142.369,133.242 139.5,136.5C 138.521,139.625 138.187,142.958 138.5,146.5C 137.238,149.071 135.905,149.071 134.5,146.5C 133.614,147.325 133.281,148.325 133.5,149.5C 131.901,149.768 130.568,149.434 129.5,148.5C 130.473,146.052 130.806,143.385 130.5,140.5C 130.5,139.833 130.833,139.5 131.5,139.5C 131.201,141.604 131.534,143.604 132.5,145.5C 132.986,133.676 138.986,129.01 150.5,131.5 Z"/></g>
<g><path style="opacity:1" fill="#939393" d="M 162.5,138.5 C 163.833,138.5 165.167,138.5 166.5,138.5C 166.725,140.716 165.892,142.383 164,143.5C 163.517,142.552 163.351,141.552 163.5,140.5C 159.881,141.244 156.215,141.577 152.5,141.5C 151.89,140.609 151.557,139.609 151.5,138.5C 152.15,138.196 152.817,137.863 153.5,137.5C 154.833,138.5 156.167,139.5 157.5,140.5C 159.075,139.544 160.742,138.877 162.5,138.5 Z"/></g>
<g><path style="opacity:1" fill="#969696" d="M 139.5,136.5 C 139.351,137.552 139.517,138.552 140,139.5C 140.671,138.748 141.504,138.414 142.5,138.5C 142.47,139.497 142.97,140.164 144,140.5C 145.44,139.852 146.94,139.519 148.5,139.5C 148.918,140.222 149.584,140.722 150.5,141C 149.142,141.934 147.808,142.768 146.5,143.5C 144.046,145.06 141.38,146.06 138.5,146.5C 138.187,142.958 138.521,139.625 139.5,136.5 Z"/></g>
<g><path style="opacity:1" fill="#919191" d="M 130.5,140.5 C 130.806,143.385 130.473,146.052 129.5,148.5C 129.408,146.152 128.408,144.486 126.5,143.5C 127.262,141.738 128.596,140.738 130.5,140.5 Z"/></g>
<g><path style="opacity:1" fill="#575757" d="M 151.5,138.5 C 151.557,139.609 151.89,140.609 152.5,141.5C 152.452,142.507 153.452,142.84 155.5,142.5C 155.631,143.376 155.298,144.043 154.5,144.5C 152.167,145.167 149.833,145.833 147.5,146.5C 146.614,145.675 146.281,144.675 146.5,143.5C 147.808,142.768 149.142,141.934 150.5,141C 149.584,140.722 148.918,140.222 148.5,139.5C 149.609,139.443 150.609,139.11 151.5,138.5 Z"/></g>
<g><path style="opacity:0.635" fill="#757575" d="M 117.5,144.5 C 118.065,146.386 119.065,148.053 120.5,149.5C 121.004,146.658 122.671,145.325 125.5,145.5C 125.461,146.583 125.127,147.583 124.5,148.5C 125.376,149.251 126.376,149.751 127.5,150C 125.336,150.914 123.336,152.081 121.5,153.5C 118.709,149.411 118.042,149.745 119.5,154.5C 117.446,151.992 116.446,148.992 116.5,145.5C 117.167,145.5 117.5,145.167 117.5,144.5 Z"/></g>
<g><path style="opacity:1" fill="#161516" d="M 155.5,142.5 C 157.857,142.337 160.19,142.503 162.5,143C 152.972,147.216 142.972,149.883 132.5,151C 130.579,152.241 130.246,153.741 131.5,155.5C 140.304,152.549 149.304,150.382 158.5,149C 161.01,147.91 163.51,146.743 166,145.5C 166.483,146.448 166.649,147.448 166.5,148.5C 166.5,148.833 166.5,149.167 166.5,149.5C 165.833,149.167 165.167,148.833 164.5,148.5C 164.167,148.5 163.833,148.5 163.5,148.5C 160.016,149.657 156.683,150.99 153.5,152.5C 147.484,152.833 141.817,154.166 136.5,156.5C 135.081,157.451 133.415,157.784 131.5,157.5C 129.409,157.682 127.409,157.348 125.5,156.5C 125.407,157.472 125.074,158.472 124.5,159.5C 121.833,158.833 120.167,157.167 119.5,154.5C 118.042,149.745 118.709,149.411 121.5,153.5C 123.336,152.081 125.336,150.914 127.5,150C 126.376,149.751 125.376,149.251 124.5,148.5C 125.127,147.583 125.461,146.583 125.5,145.5C 125.833,144.833 126.167,144.167 126.5,143.5C 128.408,144.486 129.408,146.152 129.5,148.5C 130.568,149.434 131.901,149.768 133.5,149.5C 133.281,148.325 133.614,147.325 134.5,146.5C 135.905,149.071 137.238,149.071 138.5,146.5C 141.38,146.06 144.046,145.06 146.5,143.5C 146.281,144.675 146.614,145.675 147.5,146.5C 149.833,145.833 152.167,145.167 154.5,144.5C 155.298,144.043 155.631,143.376 155.5,142.5 Z"/></g>
<g><path style="opacity:0.294" fill="#888888" d="M 163.5,148.5 C 163.5,149.167 163.5,149.833 163.5,150.5C 160.237,151.482 156.903,152.149 153.5,152.5C 156.683,150.99 160.016,149.657 163.5,148.5 Z"/></g>
<g><path style="opacity:0.38" fill="#7a7a7a" d="M 153.5,152.5 C 148.064,154.324 142.397,155.658 136.5,156.5C 141.817,154.166 147.484,152.833 153.5,152.5 Z"/></g>
<g><path style="opacity:0.831" fill="#4b4b4b" d="M 164.5,148.5 C 165.167,148.833 165.833,149.167 166.5,149.5C 159.601,163.981 148.268,169.148 132.5,165C 129.379,163.694 126.713,161.86 124.5,159.5C 125.074,158.472 125.407,157.472 125.5,156.5C 127.409,157.348 129.409,157.682 131.5,157.5C 130.048,158.302 128.382,158.802 126.5,159C 136.833,166.333 147.167,166.333 157.5,159C 160.381,156.721 162.381,153.888 163.5,150.5C 164.338,150.158 164.672,149.492 164.5,148.5 Z"/></g>
</svg>
