<?xml version="1.0" encoding="UTF-8"?>
<!DOCTYPE svg PUBLIC "-//W3C//DTD SVG 1.1//EN" "http://www.w3.org/Graphics/SVG/1.1/DTD/svg11.dtd">
<svg xmlns="http://www.w3.org/2000/svg" version="1.1" width="714px" height="349px" style="shape-rendering:geometricPrecision; text-rendering:geometricPrecision; image-rendering:optimizeQuality; fill-rule:evenodd; clip-rule:evenodd" xmlns:xlink="http://www.w3.org/1999/xlink">
<g><path style="opacity:0.725" fill="#8d8d8d" d="M 375.5,66.5 C 372.833,65.1667 370.167,65.1667 367.5,66.5C 369.186,63.9953 371.519,63.162 374.5,64C 375.252,64.6708 375.586,65.5041 375.5,66.5 Z"/></g>
<g><path style="opacity:0.31" fill="#a7a7a7" d="M 367.5,66.5 C 366.486,67.6737 365.153,68.3404 363.5,68.5C 364.287,66.8958 365.62,66.2291 367.5,66.5 Z"/></g>
<g><path style="opacity:0.314" fill="#adadad" d="M 356.5,68.5 C 354.435,68.5172 352.435,68.8505 350.5,69.5C 351.134,68.0532 352.301,67.3866 354,67.5C 355.07,67.528 355.903,67.8614 356.5,68.5 Z"/></g>
<g><path style="opacity:0.18" fill="#b5b5b5" d="M 375.5,66.5 C 377.539,67.911 378.539,69.911 378.5,72.5C 376.992,70.8185 375.992,68.8185 375.5,66.5 Z"/></g>
<g><path style="opacity:1" fill="#2a2a2a" d="M 375.5,66.5 C 375.992,68.8185 376.992,70.8185 378.5,72.5C 380.273,75.676 379.273,77.3427 375.5,77.5C 375.44,76.9569 375.107,76.6236 374.5,76.5C 373.614,77.325 373.281,78.325 373.5,79.5C 368.013,79.1952 364.346,76.3619 362.5,71C 362.743,70.0979 363.077,69.2646 363.5,68.5C 365.153,68.3404 366.486,67.6737 367.5,66.5C 370.167,65.1667 372.833,65.1667 375.5,66.5 Z"/></g>
<g><path style="opacity:0.314" fill="#aaaaaa" d="M 350.5,69.5 C 350.389,70.1174 350.056,70.6174 349.5,71C 341.553,72.383 333.553,73.2164 325.5,73.5C 333.693,72.05 342.026,70.7167 350.5,69.5 Z"/></g>
<g><path style="opacity:1" fill="#505050" d="M 356.5,68.5 C 358.833,69.8333 361.167,69.8333 363.5,68.5C 363.077,69.2646 362.743,70.0979 362.5,71C 364.346,76.3619 368.013,79.1952 373.5,79.5C 373.281,78.325 373.614,77.325 374.5,76.5C 375.107,76.6236 375.44,76.9569 375.5,77.5C 375.5,78.1667 375.833,78.5 376.5,78.5C 377.167,79.1667 377.833,79.8333 378.5,80.5C 373.598,82.1593 369.098,81.4927 365,78.5C 364.667,78.8333 364.333,79.1667 364,79.5C 360.56,77.0615 357.227,77.0615 354,79.5C 353.5,79 353,78.5 352.5,78C 348.167,77.3333 343.833,77.3333 339.5,78C 338.244,78.4169 337.577,79.2502 337.5,80.5C 330.568,79.4763 323.902,79.4763 317.5,80.5C 324.458,77.735 331.792,75.9016 339.5,75C 331.536,74.3518 323.869,75.5185 316.5,78.5C 315.432,77.5655 314.099,77.2322 312.5,77.5C 312.5,77.1667 312.5,76.8333 312.5,76.5C 316.248,75.7926 319.914,74.7926 323.5,73.5C 324.167,73.5 324.833,73.5 325.5,73.5C 333.553,73.2164 341.553,72.383 349.5,71C 350.056,70.6174 350.389,70.1174 350.5,69.5C 352.435,68.8505 354.435,68.5172 356.5,68.5 Z"/></g>
<g><path style="opacity:0.894" fill="#939393" d="M 323.5,73.5 C 319.914,74.7926 316.248,75.7926 312.5,76.5C 314.385,74.6885 316.719,73.5218 319.5,73C 321.066,72.235 322.399,72.4017 323.5,73.5 Z"/></g>
<g><path style="opacity:0.616" fill="#8c8c8c" d="M 376.5,78.5 C 385.8,78.8995 395.133,79.5661 404.5,80.5C 402.167,80.5 399.833,80.5 397.5,80.5C 392.167,80.5 386.833,80.5 381.5,80.5C 380.5,80.5 379.5,80.5 378.5,80.5C 377.833,79.8333 377.167,79.1667 376.5,78.5 Z"/></g>
<g><path style="opacity:1" fill="#777777" d="M 317.5,80.5 C 316.399,81.7997 315.066,82.2997 313.5,82C 314.71,80.9609 315.71,79.7942 316.5,78.5C 323.869,75.5185 331.536,74.3518 339.5,75C 331.792,75.9016 324.458,77.735 317.5,80.5 Z"/></g>
<g><path style="opacity:0.38" fill="#a1a1a1" d="M 312.5,76.5 C 312.5,76.8333 312.5,77.1667 312.5,77.5C 309.833,80.5 307.167,83.5 304.5,86.5C 305.343,83.4838 306.843,80.8171 309,78.5C 309.816,77.1772 310.983,76.5106 312.5,76.5 Z"/></g>
<g><path style="opacity:1" fill="#3b3b3b" d="M 378.5,80.5 C 379.5,80.5 380.5,80.5 381.5,80.5C 381.042,83.3938 381.709,85.8938 383.5,88C 383.167,88.3333 382.833,88.6667 382.5,89C 378.179,89.499 373.846,89.6657 369.5,89.5C 358.495,89.3335 347.495,89.5002 336.5,90C 335.584,90.2784 334.918,90.7784 334.5,91.5C 333.878,92.6266 333.045,93.6266 332,94.5C 331.878,92.7184 332.378,91.0518 333.5,89.5C 335.292,88.6909 337.292,88.1909 339.5,88C 353.167,87.6667 366.833,87.3333 380.5,87C 371.167,86.6667 361.833,86.3333 352.5,86C 350.711,85.0862 348.877,84.2529 347,83.5C 344.159,83.9811 341.326,84.3144 338.5,84.5C 337.406,83.132 337.74,81.9653 339.5,81C 338.906,80.5357 338.239,80.369 337.5,80.5C 337.577,79.2502 338.244,78.4169 339.5,78C 343.833,77.3333 348.167,77.3333 352.5,78C 353,78.5 353.5,79 354,79.5C 357.227,77.0615 360.56,77.0615 364,79.5C 364.333,79.1667 364.667,78.8333 365,78.5C 369.098,81.4927 373.598,82.1593 378.5,80.5 Z"/></g>
<g><path style="opacity:1" fill="#252525" d="M 381.5,80.5 C 386.833,80.5 392.167,80.5 397.5,80.5C 403.118,86.6805 405.784,94.0139 405.5,102.5C 402.315,102.828 398.982,102.828 395.5,102.5C 395.5,100.167 395.5,97.8333 395.5,95.5C 381.5,95.5 367.5,95.5 353.5,95.5C 367.327,94.6689 381.327,94.1689 395.5,94C 390.647,93.9715 385.98,93.1382 381.5,91.5C 378.111,93.4895 374.444,93.9895 370.5,93C 369.663,91.9887 369.33,90.8221 369.5,89.5C 373.846,89.6657 378.179,89.499 382.5,89C 382.833,88.6667 383.167,88.3333 383.5,88C 381.709,85.8938 381.042,83.3938 381.5,80.5 Z"/></g>
<g><path style="opacity:1" fill="#1c1c1c" d="M 319.5,96.5 C 317.926,98.1016 317.259,100.102 317.5,102.5C 321.798,103.2 326.131,103.533 330.5,103.5C 329.791,104.404 328.791,104.737 327.5,104.5C 323.466,104.505 319.466,104.838 315.5,105.5C 315.804,104.85 316.137,104.183 316.5,103.5C 312.893,102.511 309.226,102.177 305.5,102.5C 304.105,100.153 304.272,97.8194 306,95.5C 306.333,96.5 306.667,97.5 307,98.5C 309.568,92.2625 313.902,87.5959 320,84.5C 320.945,84.9054 321.612,85.572 322,86.5C 324.795,85.2175 327.628,85.2175 330.5,86.5C 328.847,88.1214 326.847,89.2881 324.5,90C 322.21,91.7772 320.543,93.9438 319.5,96.5 Z"/></g>
<g><path style="opacity:1" fill="#323232" d="M 312.5,77.5 C 314.099,77.2322 315.432,77.5655 316.5,78.5C 315.71,79.7942 314.71,80.9609 313.5,82C 315.066,82.2997 316.399,81.7997 317.5,80.5C 323.902,79.4763 330.568,79.4763 337.5,80.5C 338.239,80.369 338.906,80.5357 339.5,81C 337.74,81.9653 337.406,83.132 338.5,84.5C 341.326,84.3144 344.159,83.9811 347,83.5C 348.877,84.2529 350.711,85.0862 352.5,86C 361.833,86.3333 371.167,86.6667 380.5,87C 366.833,87.3333 353.167,87.6667 339.5,88C 337.292,88.1909 335.292,88.6909 333.5,89.5C 332.504,89.4142 331.671,89.7476 331,90.5C 329.1,94.2035 327.6,98.0368 326.5,102C 325.4,102.432 324.733,101.932 324.5,100.5C 325.154,97.0368 326.487,93.8701 328.5,91C 326.506,91.6568 325.006,93.1568 324,95.5C 323.667,94.8333 323.333,94.1667 323,93.5C 321.615,94.5505 320.615,95.8839 320,97.5C 319.601,97.2716 319.435,96.9382 319.5,96.5C 320.543,93.9438 322.21,91.7772 324.5,90C 326.847,89.2881 328.847,88.1214 330.5,86.5C 327.628,85.2175 324.795,85.2175 322,86.5C 321.612,85.572 320.945,84.9054 320,84.5C 313.902,87.5959 309.568,92.2625 307,98.5C 306.667,97.5 306.333,96.5 306,95.5C 304.272,97.8194 304.105,100.153 305.5,102.5C 305.631,103.239 305.464,103.906 305,104.5C 302.959,103.577 300.792,103.244 298.5,103.5C 298.5,102.5 298.5,101.5 298.5,100.5C 299.5,100.5 300.5,100.5 301.5,100.5C 301.5,98.5 301.5,96.5 301.5,94.5C 303.074,92.8984 303.741,90.8984 303.5,88.5C 303.328,87.5084 303.662,86.8417 304.5,86.5C 307.167,83.5 309.833,80.5 312.5,77.5 Z"/></g>
<g><path style="opacity:1" fill="#303030" d="M 369.5,89.5 C 369.33,90.8221 369.663,91.9887 370.5,93C 374.444,93.9895 378.111,93.4895 381.5,91.5C 385.98,93.1382 390.647,93.9715 395.5,94C 381.327,94.1689 367.327,94.6689 353.5,95.5C 353.167,95.5 352.833,95.5 352.5,95.5C 350.99,94.2721 349.49,94.2721 348,95.5C 347.517,94.552 347.351,93.552 347.5,92.5C 345.516,92.6168 343.85,91.9501 342.5,90.5C 341.5,91.8333 340.5,91.8333 339.5,90.5C 338.522,90.9767 337.689,91.6433 337,92.5C 336.329,91.7476 335.496,91.4142 334.5,91.5C 334.918,90.7784 335.584,90.2784 336.5,90C 347.495,89.5002 358.495,89.3335 369.5,89.5 Z"/></g>
<g><path style="opacity:1" fill="#979797" d="M 407.5,86.5 C 409.952,87.0654 412.285,87.7321 414.5,88.5C 412.234,88.1412 410.401,88.8078 409,90.5C 408.209,89.255 407.709,87.9217 407.5,86.5 Z"/></g>
<g><path style="opacity:0.192" fill="#b0b0b0" d="M 414.5,88.5 C 415.674,89.5137 416.34,90.847 416.5,92.5C 415.094,92.0269 414.427,91.0269 414.5,89.5C 414.5,89.1667 414.5,88.8333 414.5,88.5 Z"/></g>
<g><path style="opacity:1" fill="#262626" d="M 333.5,89.5 C 332.378,91.0518 331.878,92.7184 332,94.5C 333.045,93.6266 333.878,92.6266 334.5,91.5C 335.496,91.4142 336.329,91.7476 337,92.5C 337.689,91.6433 338.522,90.9767 339.5,90.5C 340.5,91.8333 341.5,91.8333 342.5,90.5C 343.85,91.9501 345.516,92.6168 347.5,92.5C 347.351,93.552 347.517,94.552 348,95.5C 349.49,94.2721 350.99,94.2721 352.5,95.5C 351.313,97.9752 351.647,100.309 353.5,102.5C 345.648,102.175 337.982,102.508 330.5,103.5C 326.131,103.533 321.798,103.2 317.5,102.5C 317.259,100.102 317.926,98.1016 319.5,96.5C 319.435,96.9382 319.601,97.2716 320,97.5C 320.615,95.8839 321.615,94.5505 323,93.5C 323.333,94.1667 323.667,94.8333 324,95.5C 325.006,93.1568 326.506,91.6568 328.5,91C 326.487,93.8701 325.154,97.0368 324.5,100.5C 324.733,101.932 325.4,102.432 326.5,102C 327.6,98.0368 329.1,94.2035 331,90.5C 331.671,89.7476 332.504,89.4142 333.5,89.5 Z"/></g>
<g><path style="opacity:0.824" fill="#7f7f7f" d="M 303.5,88.5 C 303.741,90.8984 303.074,92.8984 301.5,94.5C 300.167,94.5 298.833,94.5 297.5,94.5C 298.263,93.7321 299.263,93.2321 300.5,93C 301.399,91.3484 302.399,89.8484 303.5,88.5 Z"/></g>
<g><path style="opacity:0.952" fill="#3f3f3f" d="M 414.5,89.5 C 414.427,91.0269 415.094,92.0269 416.5,92.5C 416.328,93.4916 416.662,94.1583 417.5,94.5C 418.15,96.4352 418.483,98.4352 418.5,100.5C 415.949,101.949 413.615,101.615 411.5,99.5C 410.481,100.687 409.314,101.687 408,102.5C 407.333,99.1667 407.333,95.8333 408,92.5C 408.219,93.938 408.719,95.2713 409.5,96.5C 410.333,94.5 411.167,92.5 412,90.5C 412.671,89.7476 413.504,89.4142 414.5,89.5 Z"/></g>
<g><path style="opacity:0.237" fill="#818181" d="M 416.5,92.5 C 420.474,93.931 424.474,94.931 428.5,95.5C 424.731,95.756 421.064,95.4227 417.5,94.5C 416.662,94.1583 416.328,93.4916 416.5,92.5 Z"/></g>
<g><path style="opacity:1" fill="#171717" d="M 352.5,95.5 C 352.833,95.5 353.167,95.5 353.5,95.5C 367.5,95.5 381.5,95.5 395.5,95.5C 395.5,97.8333 395.5,100.167 395.5,102.5C 381.5,102.5 367.5,102.5 353.5,102.5C 351.647,100.309 351.313,97.9752 352.5,95.5 Z"/></g>
<g><path style="opacity:1" fill="#393939" d="M 459.5,103.5 C 462.717,107.517 466.884,108.85 472,107.5C 473.473,107.903 474.806,108.57 476,109.5C 476.414,109.043 476.914,108.709 477.5,108.5C 495.309,112.04 512.976,115.707 530.5,119.5C 529.06,121.388 527.393,122.055 525.5,121.5C 527.695,122.769 529.861,122.769 532,121.5C 534.06,123.502 536.227,125.002 538.5,126C 571.187,133.674 603.854,141.007 636.5,148C 637.044,147.283 637.711,146.783 638.5,146.5C 638.5,148.167 638.5,149.833 638.5,151.5C 595.934,140.856 553.268,131.189 510.5,122.5C 512.347,122.766 513.014,122.432 512.5,121.5C 508.931,120.033 505.264,118.866 501.5,118C 484.184,115.574 466.85,113.241 449.5,111C 444.012,108.487 438.512,106.654 433,105.5C 430.003,107.558 427.003,107.225 424,104.5C 423.586,104.957 423.086,105.291 422.5,105.5C 421.682,103.892 421.015,102.225 420.5,100.5C 433.595,99.8462 446.595,100.846 459.5,103.5 Z"/></g>
<g><path style="opacity:1" fill="#484848" d="M 289.5,95.5 C 291.948,94.5269 294.615,94.1936 297.5,94.5C 298.833,94.5 300.167,94.5 301.5,94.5C 301.5,96.5 301.5,98.5 301.5,100.5C 300.5,100.5 299.5,100.5 298.5,100.5C 298.5,101.5 298.5,102.5 298.5,103.5C 300.792,103.244 302.959,103.577 305,104.5C 305.464,103.906 305.631,103.239 305.5,102.5C 309.226,102.177 312.893,102.511 316.5,103.5C 316.137,104.183 315.804,104.85 315.5,105.5C 311.702,106.483 307.702,106.817 303.5,106.5C 303.167,106.5 302.833,106.5 302.5,106.5C 299.055,105.732 295.222,105.065 291,104.5C 279.421,105.74 267.921,107.407 256.5,109.5C 249.73,109.286 243.063,109.953 236.5,111.5C 236.082,110.778 235.416,110.278 234.5,110C 236.5,109 238.5,108 240.5,107C 259.302,104.253 277.635,101.419 295.5,98.5C 296.5,98.1667 297.5,97.8333 298.5,97.5C 295.807,95.7298 292.807,95.0632 289.5,95.5 Z"/></g>
<g><path style="opacity:1" fill="#4e4e4e" d="M 397.5,80.5 C 399.833,80.5 402.167,80.5 404.5,80.5C 406.008,82.1815 407.008,84.1815 407.5,86.5C 407.709,87.9217 408.209,89.255 409,90.5C 410.401,88.8078 412.234,88.1412 414.5,88.5C 414.5,88.8333 414.5,89.1667 414.5,89.5C 413.504,89.4142 412.671,89.7476 412,90.5C 411.167,92.5 410.333,94.5 409.5,96.5C 408.719,95.2713 408.219,93.938 408,92.5C 407.333,95.8333 407.333,99.1667 408,102.5C 409.314,101.687 410.481,100.687 411.5,99.5C 413.615,101.615 415.949,101.949 418.5,100.5C 419.234,101.708 419.567,103.041 419.5,104.5C 415.689,105.645 411.689,105.812 407.5,105C 406.244,104.583 405.577,103.75 405.5,102.5C 405.784,94.0139 403.118,86.6805 397.5,80.5 Z"/></g>
<g><path style="opacity:1" fill="#363636" d="M 473.5,101.5 C 505.967,106.06 537.967,112.394 569.5,120.5C 568.047,121.825 568.381,122.658 570.5,123C 567.792,123.236 565.292,124.069 563,125.5C 553.076,123.769 542.742,121.435 532,118.5C 531.617,119.056 531.117,119.389 530.5,119.5C 512.976,115.707 495.309,112.04 477.5,108.5C 476.914,108.709 476.414,109.043 476,109.5C 474.806,108.57 473.473,107.903 472,107.5C 466.884,108.85 462.717,107.517 459.5,103.5C 463.986,103.763 468.653,104.43 473.5,105.5C 475.619,105.402 477.286,104.569 478.5,103C 476.833,102.333 475.167,102.333 473.5,103C 474.706,104.018 474.373,104.518 472.5,104.5C 470.428,103.081 468.428,102.414 466.5,102.5C 468.743,101.526 471.076,101.192 473.5,101.5 Z"/></g>
<g><path style="opacity:1" fill="#414141" d="M 353.5,102.5 C 367.5,102.5 381.5,102.5 395.5,102.5C 398.982,102.828 402.315,102.828 405.5,102.5C 405.577,103.75 406.244,104.583 407.5,105C 411.689,105.812 415.689,105.645 419.5,104.5C 420.833,105.167 420.833,105.833 419.5,106.5C 403.833,106.5 388.167,106.5 372.5,106.5C 355.163,106.667 337.83,106.5 320.5,106C 323.036,105.814 325.369,105.314 327.5,104.5C 328.791,104.737 329.791,104.404 330.5,103.5C 337.982,102.508 345.648,102.175 353.5,102.5 Z"/></g>
<g><path style="opacity:1" fill="#272727" d="M 372.5,106.5 C 388.167,106.5 403.833,106.5 419.5,106.5C 419.185,109.211 419.852,111.544 421.5,113.5C 414.333,114.142 407,114.308 399.5,114C 401.382,114.198 403.048,114.698 404.5,115.5C 378.509,114.672 352.509,114.339 326.5,114.5C 341.328,113.669 356.328,113.169 371.5,113C 370.978,112.439 370.645,111.772 370.5,111C 371.707,109.7 372.374,108.2 372.5,106.5 Z"/></g>
<g><path style="opacity:1" fill="#404040" d="M 289.5,95.5 C 292.807,95.0632 295.807,95.7298 298.5,97.5C 297.5,97.8333 296.5,98.1667 295.5,98.5C 277.635,101.419 259.302,104.253 240.5,107C 238.5,108 236.5,109 234.5,110C 235.416,110.278 236.082,110.778 236.5,111.5C 226.601,113.427 216.601,114.594 206.5,115C 209.516,114.78 212.016,113.613 214,111.5C 214.725,112.059 215.558,112.392 216.5,112.5C 221.603,110.184 227.27,108.517 233.5,107.5C 235.569,107.176 235.902,106.342 234.5,105C 232.866,104.506 231.199,104.34 229.5,104.5C 249.209,100.44 269.209,97.4396 289.5,95.5 Z"/></g>
<g><path style="opacity:1" fill="#1a1a1a" d="M 302.5,106.5 C 302.833,106.5 303.167,106.5 303.5,106.5C 307.298,107.483 311.298,107.817 315.5,107.5C 315.66,109.199 315.494,110.866 315,112.5C 311.27,111.54 307.437,111.207 303.5,111.5C 302.351,111.209 301.684,110.376 301.5,109C 301.528,107.93 301.861,107.097 302.5,106.5 Z"/></g>
<g><path style="opacity:1" fill="#333333" d="M 327.5,104.5 C 325.369,105.314 323.036,105.814 320.5,106C 337.83,106.5 355.163,106.667 372.5,106.5C 372.374,108.2 371.707,109.7 370.5,111C 370.645,111.772 370.978,112.439 371.5,113C 356.328,113.169 341.328,113.669 326.5,114.5C 324.5,114.5 322.5,114.5 320.5,114.5C 314.431,114.307 308.764,113.307 303.5,111.5C 307.437,111.207 311.27,111.54 315,112.5C 315.494,110.866 315.66,109.199 315.5,107.5C 311.298,107.817 307.298,107.483 303.5,106.5C 307.702,106.817 311.702,106.483 315.5,105.5C 319.466,104.838 323.466,104.505 327.5,104.5 Z"/></g>
<g><path style="opacity:1" fill="#2d2d2d" d="M 302.5,106.5 C 301.861,107.097 301.528,107.93 301.5,109C 301.684,110.376 302.351,111.209 303.5,111.5C 308.764,113.307 314.431,114.307 320.5,114.5C 306.644,115.826 292.644,117.16 278.5,118.5C 278.167,118.5 277.833,118.5 277.5,118.5C 284.248,116.652 291.248,115.485 298.5,115C 297.915,113.698 297.249,112.531 296.5,111.5C 295.306,110.223 293.64,109.556 291.5,109.5C 267.095,112.846 242.761,116.512 218.5,120.5C 217.726,119.853 216.726,119.52 215.5,119.5C 203.398,122.154 191.231,124.487 179,126.5C 176.183,125.969 173.35,125.636 170.5,125.5C 180.977,122.263 191.31,120.263 201.5,119.5C 217.745,115.501 233.912,113.168 250,112.5C 250.945,112.095 251.612,111.428 252,110.5C 252.308,111.308 252.808,111.975 253.5,112.5C 254.548,111.452 255.548,110.452 256.5,109.5C 267.921,107.407 279.421,105.74 291,104.5C 295.222,105.065 299.055,105.732 302.5,106.5 Z"/></g>
<g><path style="opacity:1" fill="#363636" d="M 417.5,94.5 C 421.064,95.4227 424.731,95.756 428.5,95.5C 443.753,96.6139 458.753,98.6139 473.5,101.5C 471.076,101.192 468.743,101.526 466.5,102.5C 468.428,102.414 470.428,103.081 472.5,104.5C 474.373,104.518 474.706,104.018 473.5,103C 475.167,102.333 476.833,102.333 478.5,103C 477.286,104.569 475.619,105.402 473.5,105.5C 468.653,104.43 463.986,103.763 459.5,103.5C 446.595,100.846 433.595,99.8462 420.5,100.5C 421.015,102.225 421.682,103.892 422.5,105.5C 423.086,105.291 423.586,104.957 424,104.5C 427.003,107.225 430.003,107.558 433,105.5C 438.512,106.654 444.012,108.487 449.5,111C 466.85,113.241 484.184,115.574 501.5,118C 505.264,118.866 508.931,120.033 512.5,121.5C 513.014,122.432 512.347,122.766 510.5,122.5C 482.881,117.144 455.047,113.144 427,110.5C 425.167,110.667 423.333,110.833 421.5,111C 438.493,113.249 455.493,115.583 472.5,118C 477.157,118.412 481.491,119.579 485.5,121.5C 464.226,118.341 442.893,115.674 421.5,113.5C 419.852,111.544 419.185,109.211 419.5,106.5C 420.833,105.833 420.833,105.167 419.5,104.5C 419.567,103.041 419.234,101.708 418.5,100.5C 418.483,98.4352 418.15,96.4352 417.5,94.5 Z"/></g>
<g><path style="opacity:1" fill="#393939" d="M 229.5,104.5 C 231.199,104.34 232.866,104.506 234.5,105C 235.902,106.342 235.569,107.176 233.5,107.5C 227.27,108.517 221.603,110.184 216.5,112.5C 215.558,112.392 214.725,112.059 214,111.5C 212.016,113.613 209.516,114.78 206.5,115C 216.601,114.594 226.601,113.427 236.5,111.5C 243.063,109.953 249.73,109.286 256.5,109.5C 255.548,110.452 254.548,111.452 253.5,112.5C 252.808,111.975 252.308,111.308 252,110.5C 251.612,111.428 250.945,112.095 250,112.5C 233.912,113.168 217.745,115.501 201.5,119.5C 191.31,120.263 180.977,122.263 170.5,125.5C 170.167,125.5 169.833,125.5 169.5,125.5C 166.854,125.892 164.354,125.892 162,125.5C 160.915,126.293 159.748,126.96 158.5,127.5C 157.289,126.726 157.289,125.893 158.5,125C 160.421,124.64 162.088,123.806 163.5,122.5C 165.123,123.476 166.457,122.976 167.5,121C 174.839,119.165 182.173,117.332 189.5,115.5C 188.45,113.898 189.117,113.065 191.5,113C 190.207,112.51 188.873,112.343 187.5,112.5C 201.217,108.989 215.217,106.322 229.5,104.5 Z"/></g>
<g><path style="opacity:0.994" fill="#303030" d="M 187.5,112.5 C 188.873,112.343 190.207,112.51 191.5,113C 189.117,113.065 188.45,113.898 189.5,115.5C 182.173,117.332 174.839,119.165 167.5,121C 166.457,122.976 165.123,123.476 163.5,122.5C 162.088,123.806 160.421,124.64 158.5,125C 157.289,125.893 157.289,126.726 158.5,127.5C 159.748,126.96 160.915,126.293 162,125.5C 164.354,125.892 166.854,125.892 169.5,125.5C 164.142,127.628 158.475,129.128 152.5,130C 153.654,130.914 153.487,131.747 152,132.5C 150.612,131.446 149.112,131.28 147.5,132C 146.922,133.417 145.922,134.25 144.5,134.5C 146.137,132.876 145.803,131.876 143.5,131.5C 139.122,132.349 134.955,133.682 131,135.5C 128.026,134.9 127.359,133.567 129,131.5C 130.011,132.337 131.178,132.67 132.5,132.5C 132.5,131.5 132.5,130.5 132.5,129.5C 143.301,127.48 153.968,124.146 164.5,119.5C 163.311,118.571 161.978,118.238 160.5,118.5C 169.216,115.754 178.216,113.754 187.5,112.5 Z"/></g>
<g><path style="opacity:1" fill="#252525" d="M 409.5,120.5 C 405.629,120.815 401.962,120.482 398.5,119.5C 401.85,119.665 405.183,119.498 408.5,119C 360.703,116.028 313.037,117.361 265.5,123C 259.866,123.634 259.532,124.134 264.5,124.5C 262.735,125.461 260.735,125.795 258.5,125.5C 257.551,124.848 256.385,124.514 255,124.5C 247.518,125.867 240.018,126.7 232.5,127C 247.891,123.971 263.225,121.471 278.5,119.5C 326.494,114.52 374.494,114.353 422.5,119C 417.981,119.175 413.647,119.675 409.5,120.5 Z"/></g>
<g><path style="opacity:1" fill="#434343" d="M 510.5,122.5 C 553.268,131.189 595.934,140.856 638.5,151.5C 638.804,152.15 639.137,152.817 639.5,153.5C 637.579,154.641 635.579,154.808 633.5,154C 617.501,150.101 601.501,146.267 585.5,142.5C 561.285,136.62 536.951,130.786 512.5,125C 505.622,123.117 498.622,122.284 491.5,122.5C 489.735,121.539 487.735,121.205 485.5,121.5C 481.491,119.579 477.157,118.412 472.5,118C 455.493,115.583 438.493,113.249 421.5,111C 423.333,110.833 425.167,110.667 427,110.5C 455.047,113.144 482.881,117.144 510.5,122.5 Z"/></g>
<g><path style="opacity:1" fill="#3e3e3e" d="M 296.5,111.5 C 296.209,112.649 295.376,113.316 294,113.5C 273.323,115.934 252.99,118.6 233,121.5C 230.522,120.668 228.022,120.501 225.5,121C 226.833,121.333 228.167,121.667 229.5,122C 223.903,124.546 218.07,125.046 212,123.5C 209.421,123.636 207.255,124.636 205.5,126.5C 204.393,125.978 203.226,125.645 202,125.5C 196.25,126.365 190.75,127.699 185.5,129.5C 171.497,131.667 157.663,134.667 144,138.5C 142.93,138.472 142.097,138.139 141.5,137.5C 166.992,131.044 192.659,125.377 218.5,120.5C 242.761,116.512 267.095,112.846 291.5,109.5C 293.64,109.556 295.306,110.223 296.5,111.5 Z"/></g>
<g><path style="opacity:1" fill="#0d0d0d" d="M 398.5,119.5 C 353.664,117.027 308.997,118.694 264.5,124.5C 259.532,124.134 259.866,123.634 265.5,123C 313.037,117.361 360.703,116.028 408.5,119C 405.183,119.498 401.85,119.665 398.5,119.5 Z"/></g>
<g><path style="opacity:1" fill="#333333" d="M 296.5,111.5 C 297.249,112.531 297.915,113.698 298.5,115C 291.248,115.485 284.248,116.652 277.5,118.5C 248.595,121.748 219.928,126.415 191.5,132.5C 189.833,132.5 188.167,132.5 186.5,132.5C 186.737,131.209 186.404,130.209 185.5,129.5C 190.75,127.699 196.25,126.365 202,125.5C 203.226,125.645 204.393,125.978 205.5,126.5C 207.255,124.636 209.421,123.636 212,123.5C 218.07,125.046 223.903,124.546 229.5,122C 228.167,121.667 226.833,121.333 225.5,121C 228.022,120.501 230.522,120.668 233,121.5C 252.99,118.6 273.323,115.934 294,113.5C 295.376,113.316 296.209,112.649 296.5,111.5 Z"/></g>
<g><path style="opacity:1" fill="#2d2d2d" d="M 421.5,113.5 C 442.893,115.674 464.226,118.341 485.5,121.5C 487.735,121.205 489.735,121.539 491.5,122.5C 496.989,123.864 502.656,125.031 508.5,126C 509.888,126.889 509.722,127.389 508,127.5C 505.547,126.507 503.047,126.34 500.5,127C 501.416,127.278 502.082,127.778 502.5,128.5C 470.027,122.866 437.361,118.533 404.5,115.5C 403.048,114.698 401.382,114.198 399.5,114C 407,114.308 414.333,114.142 421.5,113.5 Z"/></g>
<g><path style="opacity:1" fill="#292929" d="M 160.5,118.5 C 161.978,118.238 163.311,118.571 164.5,119.5C 153.968,124.146 143.301,127.48 132.5,129.5C 132.5,130.5 132.5,131.5 132.5,132.5C 131.178,132.67 130.011,132.337 129,131.5C 127.359,133.567 128.026,134.9 131,135.5C 134.955,133.682 139.122,132.349 143.5,131.5C 145.803,131.876 146.137,132.876 144.5,134.5C 130.212,138.827 115.878,142.494 101.5,145.5C 100.328,145.081 99.3279,144.415 98.5,143.5C 98.2635,144.247 97.9302,145.08 97.5,146C 90.1039,149.3 82.4372,150.133 74.5,148.5C 80.5507,145.569 86.884,143.402 93.5,142C 92.0977,140.658 92.4311,139.824 94.5,139.5C 96.1547,140.228 97.8214,140.395 99.5,140C 98.3463,139.086 98.513,138.253 100,137.5C 100.308,138.308 100.808,138.975 101.5,139.5C 101.736,138.753 102.07,137.92 102.5,137C 107.153,135.677 111.819,134.344 116.5,133C 118.864,131.988 120.198,130.655 120.5,129C 119.906,128.536 119.239,128.369 118.5,128.5C 132.244,124.547 146.244,121.214 160.5,118.5 Z"/></g>
<g><path style="opacity:1" fill="#4d4d4d" d="M 398.5,119.5 C 401.962,120.482 405.629,120.815 409.5,120.5C 415.775,121.418 422.108,121.751 428.5,121.5C 444.882,123.876 461.216,126.542 477.5,129.5C 455.188,127.032 432.854,124.532 410.5,122C 396.455,121.816 382.455,121.316 368.5,120.5C 367.478,120.855 366.811,121.522 366.5,122.5C 348.138,122.634 329.805,123.301 311.5,124.5C 301.113,125.039 290.78,126.039 280.5,127.5C 281.859,125.991 281.359,125.324 279,125.5C 269.197,127.462 259.364,128.129 249.5,127.5C 252.345,126.656 255.345,125.99 258.5,125.5C 260.735,125.795 262.735,125.461 264.5,124.5C 308.997,118.694 353.664,117.027 398.5,119.5 Z"/></g>
<g><path style="opacity:1" fill="#3e3e3e" d="M 569.5,120.5 C 575.388,121.341 581.055,122.674 586.5,124.5C 584.692,124.491 583.025,124.991 581.5,126C 581.944,127.533 582.277,129.033 582.5,130.5C 583.5,129.833 584.5,129.167 585.5,128.5C 586.23,129.934 587.23,131.1 588.5,132C 605.45,135.597 622.117,140.097 638.5,145.5C 638.5,145.833 638.5,146.167 638.5,146.5C 637.711,146.783 637.044,147.283 636.5,148C 603.854,141.007 571.187,133.674 538.5,126C 536.227,125.002 534.06,123.502 532,121.5C 529.861,122.769 527.695,122.769 525.5,121.5C 527.393,122.055 529.06,121.388 530.5,119.5C 531.117,119.389 531.617,119.056 532,118.5C 542.742,121.435 553.076,123.769 563,125.5C 565.292,124.069 567.792,123.236 570.5,123C 568.381,122.658 568.047,121.825 569.5,120.5 Z"/></g>
<g><path style="opacity:0.99" fill="#393939" d="M 586.5,124.5 C 604.093,128.232 621.427,132.565 638.5,137.5C 638.5,137.833 638.5,138.167 638.5,138.5C 637.989,140.576 637.989,142.909 638.5,145.5C 622.117,140.097 605.45,135.597 588.5,132C 587.23,131.1 586.23,129.934 585.5,128.5C 584.5,129.167 583.5,129.833 582.5,130.5C 582.277,129.033 581.944,127.533 581.5,126C 583.025,124.991 584.692,124.491 586.5,124.5 Z"/></g>
<g><path style="opacity:0.988" fill="#3c3c3c" d="M 366.5,122.5 C 394.977,122.72 423.311,124.886 451.5,129C 483.994,133.999 516.327,139.832 548.5,146.5C 550.042,147.163 551.709,147.83 553.5,148.5C 552.332,150.217 550.665,150.884 548.5,150.5C 524.834,145.665 501.168,140.999 477.5,136.5C 474.155,134.783 470.489,134.116 466.5,134.5C 423.736,128.307 380.736,125.64 337.5,126.5C 328.605,126.861 319.939,126.194 311.5,124.5C 329.805,123.301 348.138,122.634 366.5,122.5 Z"/></g>
<g><path style="opacity:1" fill="#656565" d="M 477.5,129.5 C 478.833,129.5 480.167,129.5 481.5,129.5C 483.269,131.397 485.602,132.564 488.5,133C 509.689,136.571 530.689,140.904 551.5,146C 550.552,146.483 549.552,146.649 548.5,146.5C 516.327,139.832 483.994,133.999 451.5,129C 423.311,124.886 394.977,122.72 366.5,122.5C 366.811,121.522 367.478,120.855 368.5,120.5C 382.455,121.316 396.455,121.816 410.5,122C 432.854,124.532 455.188,127.032 477.5,129.5 Z"/></g>
<g><path style="opacity:1" fill="#0e0e0e" d="M 320.5,114.5 C 322.5,114.5 324.5,114.5 326.5,114.5C 352.509,114.339 378.509,114.672 404.5,115.5C 437.361,118.533 470.027,122.866 502.5,128.5C 514.153,130.738 525.82,133.071 537.5,135.5C 537.5,136.167 537.167,136.5 536.5,136.5C 501.072,129.415 465.405,123.748 429.5,119.5C 427.833,119.667 426.167,119.833 424.5,120C 426.5,120.333 428.5,120.667 430.5,121C 429.906,121.464 429.239,121.631 428.5,121.5C 422.108,121.751 415.775,121.418 409.5,120.5C 413.647,119.675 417.981,119.175 422.5,119C 374.494,114.353 326.494,114.52 278.5,119.5C 278.5,119.167 278.5,118.833 278.5,118.5C 292.644,117.16 306.644,115.826 320.5,114.5 Z"/></g>
<g><path style="opacity:1" fill="#121212" d="M 277.5,118.5 C 277.833,118.5 278.167,118.5 278.5,118.5C 278.5,118.833 278.5,119.167 278.5,119.5C 263.225,121.471 247.891,123.971 232.5,127C 240.018,126.7 247.518,125.867 255,124.5C 256.385,124.514 257.551,124.848 258.5,125.5C 255.345,125.99 252.345,126.656 249.5,127.5C 249.167,127.5 248.833,127.5 248.5,127.5C 220.238,131.543 192.238,136.877 164.5,143.5C 164.5,143.167 164.5,142.833 164.5,142.5C 165.263,141.732 166.263,141.232 167.5,141C 166.906,140.536 166.239,140.369 165.5,140.5C 165.158,139.662 164.492,139.328 163.5,139.5C 172.758,136.852 182.091,134.519 191.5,132.5C 219.928,126.415 248.595,121.748 277.5,118.5 Z"/></g>
<g><path style="opacity:0.917" fill="#4e4e4e" d="M 311.5,124.5 C 319.939,126.194 328.605,126.861 337.5,126.5C 325.683,127.692 313.683,128.358 301.5,128.5C 297.154,128.334 292.821,128.501 288.5,129C 287.263,129.232 286.263,129.732 285.5,130.5C 265.125,133.22 244.792,136.22 224.5,139.5C 221.6,139.72 218.933,139.054 216.5,137.5C 219.848,136.713 223.182,135.879 226.5,135C 244.468,132.172 262.468,129.672 280.5,127.5C 290.78,126.039 301.113,125.039 311.5,124.5 Z"/></g>
<g><path style="opacity:1" fill="#2d2d2d" d="M 224.5,127.5 C 226.857,127.337 229.19,127.503 231.5,128C 216.516,131.065 201.516,133.731 186.5,136C 199.175,132.701 211.842,129.868 224.5,127.5 Z"/></g>
<g><path style="opacity:0.404" fill="#818181" d="M 301.5,128.5 C 296.354,129.551 291.021,130.218 285.5,130.5C 286.263,129.732 287.263,129.232 288.5,129C 292.821,128.501 297.154,128.334 301.5,128.5 Z"/></g>
<g><path style="opacity:0.994" fill="#272727" d="M 218.5,120.5 C 192.659,125.377 166.992,131.044 141.5,137.5C 120.313,142.458 99.3127,147.792 78.5,153.5C 76.2958,152.555 73.9625,152.389 71.5,153C 69.8446,151.556 69.178,149.722 69.5,147.5C 72.7973,147.671 73.1306,147.005 70.5,145.5C 73.4362,144.885 76.1029,143.718 78.5,142C 76.6547,140.872 74.6547,140.372 72.5,140.5C 87.5698,135.898 102.903,131.898 118.5,128.5C 119.239,128.369 119.906,128.536 120.5,129C 120.198,130.655 118.864,131.988 116.5,133C 111.819,134.344 107.153,135.677 102.5,137C 102.07,137.92 101.736,138.753 101.5,139.5C 100.808,138.975 100.308,138.308 100,137.5C 98.513,138.253 98.3463,139.086 99.5,140C 97.8214,140.395 96.1547,140.228 94.5,139.5C 92.4311,139.824 92.0977,140.658 93.5,142C 86.884,143.402 80.5507,145.569 74.5,148.5C 82.4372,150.133 90.1039,149.3 97.5,146C 97.9302,145.08 98.2635,144.247 98.5,143.5C 99.3279,144.415 100.328,145.081 101.5,145.5C 115.878,142.494 130.212,138.827 144.5,134.5C 145.922,134.25 146.922,133.417 147.5,132C 149.112,131.28 150.612,131.446 152,132.5C 153.487,131.747 153.654,130.914 152.5,130C 158.475,129.128 164.142,127.628 169.5,125.5C 169.833,125.5 170.167,125.5 170.5,125.5C 173.35,125.636 176.183,125.969 179,126.5C 191.231,124.487 203.398,122.154 215.5,119.5C 216.726,119.52 217.726,119.853 218.5,120.5 Z"/></g>
<g><path style="opacity:1" fill="#4d4d4d" d="M 481.5,129.5 C 505.586,133.784 529.586,138.45 553.5,143.5C 553.926,145.285 555.092,146.285 557,146.5C 571.41,150.135 585.91,153.468 600.5,156.5C 598.955,157.452 597.288,157.785 595.5,157.5C 583.708,154.774 571.875,152.108 560,149.5C 558.033,149.542 556.199,150.042 554.5,151C 555.737,151.232 556.737,151.732 557.5,152.5C 554.219,152.58 551.219,151.913 548.5,150.5C 550.665,150.884 552.332,150.217 553.5,148.5C 551.709,147.83 550.042,147.163 548.5,146.5C 549.552,146.649 550.552,146.483 551.5,146C 530.689,140.904 509.689,136.571 488.5,133C 485.602,132.564 483.269,131.397 481.5,129.5 Z"/></g>
<g><path style="opacity:1" fill="#303030" d="M 185.5,129.5 C 186.404,130.209 186.737,131.209 186.5,132.5C 188.167,132.5 189.833,132.5 191.5,132.5C 182.091,134.519 172.758,136.852 163.5,139.5C 127.562,147.618 91.8957,156.618 56.5,166.5C 56.4701,165.503 56.9701,164.836 58,164.5C 71.671,160.876 85.171,156.876 98.5,152.5C 96.2362,151.962 93.9028,152.296 91.5,153.5C 90.914,153.291 90.414,152.957 90,152.5C 82.8846,155.241 75.7179,156.907 68.5,157.5C 71.6352,155.597 74.9685,154.263 78.5,153.5C 99.3127,147.792 120.313,142.458 141.5,137.5C 142.097,138.139 142.93,138.472 144,138.5C 157.663,134.667 171.497,131.667 185.5,129.5 Z"/></g>
<g><path style="opacity:1" fill="#313131" d="M 491.5,122.5 C 498.622,122.284 505.622,123.117 512.5,125C 536.951,130.786 561.285,136.62 585.5,142.5C 583.886,144.075 581.886,144.741 579.5,144.5C 565.385,141.926 551.385,138.926 537.5,135.5C 525.82,133.071 514.153,130.738 502.5,128.5C 502.082,127.778 501.416,127.278 500.5,127C 503.047,126.34 505.547,126.507 508,127.5C 509.722,127.389 509.888,126.889 508.5,126C 502.656,125.031 496.989,123.864 491.5,122.5 Z"/></g>
<g><path style="opacity:0.663" fill="#6f6f6f" d="M 466.5,134.5 C 470.489,134.116 474.155,134.783 477.5,136.5C 473.613,136.354 469.946,135.687 466.5,134.5 Z"/></g>
<g><path style="opacity:1" fill="#1c1c1c" d="M 536.5,136.5 C 548.058,139.25 559.724,142.083 571.5,145C 568.335,144.633 565.335,144.799 562.5,145.5C 559.402,145.244 556.402,144.578 553.5,143.5C 529.586,138.45 505.586,133.784 481.5,129.5C 480.167,129.5 478.833,129.5 477.5,129.5C 461.216,126.542 444.882,123.876 428.5,121.5C 429.239,121.631 429.906,121.464 430.5,121C 428.5,120.667 426.5,120.333 424.5,120C 426.167,119.833 427.833,119.667 429.5,119.5C 465.405,123.748 501.072,129.415 536.5,136.5 Z"/></g>
<g><path style="opacity:0.958" fill="#444444" d="M 213.5,141.5 C 212.081,142.451 210.415,142.784 208.5,142.5C 206.146,142.162 203.813,141.662 201.5,141C 205.653,138.975 209.987,138.475 214.5,139.5C 214.137,140.183 213.804,140.85 213.5,141.5 Z"/></g>
<g><path style="opacity:0.892" fill="#7d7d7d" d="M 652.5,137.5 C 656.116,137.899 659.45,138.899 662.5,140.5C 659.617,139.69 656.783,139.69 654,140.5C 652.238,140.056 652.405,139.556 654.5,139C 653.584,138.722 652.918,138.222 652.5,137.5 Z"/></g>
<g><path style="opacity:0.92" fill="#656565" d="M 280.5,127.5 C 262.468,129.672 244.468,132.172 226.5,135C 223.182,135.879 219.848,136.713 216.5,137.5C 218.933,139.054 221.6,139.72 224.5,139.5C 221.054,140.687 217.387,141.354 213.5,141.5C 213.804,140.85 214.137,140.183 214.5,139.5C 209.987,138.475 205.653,138.975 201.5,141C 203.813,141.662 206.146,142.162 208.5,142.5C 205.411,143.785 202.078,144.451 198.5,144.5C 199.091,143.849 199.757,143.182 200.5,142.5C 199.167,142.167 197.833,141.833 196.5,141.5C 191.873,142.491 187.206,143.157 182.5,143.5C 188.911,141.203 195.577,139.37 202.5,138C 217.469,135.227 232.469,132.561 247.5,130C 248.252,129.329 248.586,128.496 248.5,127.5C 248.833,127.5 249.167,127.5 249.5,127.5C 259.364,128.129 269.197,127.462 279,125.5C 281.359,125.324 281.859,125.991 280.5,127.5 Z"/></g>
<g><path style="opacity:1" fill="#131313" d="M 537.5,135.5 C 551.385,138.926 565.385,141.926 579.5,144.5C 590.51,146.93 601.51,149.763 612.5,153C 618.15,153.965 623.816,154.798 629.5,155.5C 631.13,156.421 632.797,157.255 634.5,158C 639.607,158.488 644.607,159.488 649.5,161C 648.304,161.654 648.304,162.154 649.5,162.5C 652.863,162.184 656.196,161.851 659.5,161.5C 666.717,163.051 673.717,165.051 680.5,167.5C 678.738,167.643 677.071,167.309 675.5,166.5C 674.638,167.766 673.971,169.099 673.5,170.5C 672.778,170.918 672.278,171.584 672,172.5C 660.056,169.944 648.222,166.944 636.5,163.5C 611.867,157.287 587.2,151.287 562.5,145.5C 565.335,144.799 568.335,144.633 571.5,145C 559.724,142.083 548.058,139.25 536.5,136.5C 537.167,136.5 537.5,136.167 537.5,135.5 Z"/></g>
<g><path style="opacity:0.999" fill="#4a4a4a" d="M 652.5,137.5 C 652.918,138.222 653.584,138.722 654.5,139C 652.405,139.556 652.238,140.056 654,140.5C 656.783,139.69 659.617,139.69 662.5,140.5C 666.982,141.663 670.816,143.996 674,147.5C 676.448,151.399 678.615,155.399 680.5,159.5C 680.5,160.833 680.5,162.167 680.5,163.5C 680.083,164.124 679.416,164.457 678.5,164.5C 666.452,161.291 654.452,157.958 642.5,154.5C 641.359,152.579 641.192,150.579 642,148.5C 648.608,151.162 655.441,153.329 662.5,155C 665.801,155.997 669.134,156.33 672.5,156C 662.686,152.429 652.686,149.429 642.5,147C 641.663,145.989 641.33,144.822 641.5,143.5C 643.13,140.438 642.13,138.771 638.5,138.5C 638.5,138.167 638.5,137.833 638.5,137.5C 639.822,137.33 640.989,137.663 642,138.5C 645.103,134.962 648.603,134.628 652.5,137.5 Z"/></g>
<g><path style="opacity:0.6" fill="#7d7d7d" d="M 58.5,140.5 C 56.8984,142.074 54.8984,142.741 52.5,142.5C 54.2143,141.262 56.2143,140.595 58.5,140.5 Z"/></g>
<g><path style="opacity:0.192" fill="#909090" d="M 63.5,140.5 C 64.391,141.11 65.391,141.443 66.5,141.5C 66.5,142.167 66.1667,142.5 65.5,142.5C 64.1667,142.5 63.5,141.833 63.5,140.5 Z"/></g>
<g><path style="opacity:1" fill="#2e2e2e" d="M 165.5,140.5 C 166.239,140.369 166.906,140.536 167.5,141C 166.263,141.232 165.263,141.732 164.5,142.5C 144.285,146.404 124.285,151.238 104.5,157C 102.833,157.667 101.167,157.667 99.5,157C 121.349,150.871 143.349,145.371 165.5,140.5 Z"/></g>
<g><path style="opacity:0.569" fill="#747474" d="M 52.5,142.5 C 49.4954,144.277 46.1621,145.277 42.5,145.5C 45.5046,143.723 48.8379,142.723 52.5,142.5 Z"/></g>
<g><path style="opacity:0.997" fill="#4a4a4a" d="M 198.5,144.5 C 186.381,147.609 174.048,150.276 161.5,152.5C 160.127,152.657 158.793,152.49 157.5,152C 156.167,151.333 156.167,150.667 157.5,150C 166.014,148.005 174.347,145.838 182.5,143.5C 187.206,143.157 191.873,142.491 196.5,141.5C 197.833,141.833 199.167,142.167 200.5,142.5C 199.757,143.182 199.091,143.849 198.5,144.5 Z"/></g>
<g><path style="opacity:1" fill="#252525" d="M 63.5,140.5 C 63.5,141.833 64.1667,142.5 65.5,142.5C 67.4642,148.324 67.9642,154.324 67,160.5C 64.7772,160.105 62.6106,159.772 60.5,159.5C 62.0301,157.654 64.0301,156.654 66.5,156.5C 66.719,155.325 66.3857,154.325 65.5,153.5C 55.7387,157.052 45.7387,159.719 35.5,161.5C 33.3603,161.444 31.6936,160.777 30.5,159.5C 31.0787,156.669 32.412,154.336 34.5,152.5C 35.9063,152.027 36.573,151.027 36.5,149.5C 38.0269,149.573 39.0269,148.906 39.5,147.5C 39.9731,146.094 40.9731,145.427 42.5,145.5C 46.1621,145.277 49.4954,144.277 52.5,142.5C 54.8984,142.741 56.8984,142.074 58.5,140.5C 60.1667,139.167 61.8333,139.167 63.5,140.5 Z"/></g>
<g><path style="opacity:0.416" fill="#7d7d7d" d="M 39.5,147.5 C 39.0269,148.906 38.0269,149.573 36.5,149.5C 36.9731,148.094 37.9731,147.427 39.5,147.5 Z"/></g>
<g><path style="opacity:1" fill="#262626" d="M 638.5,138.5 C 642.13,138.771 643.13,140.438 641.5,143.5C 640.515,147.634 640.182,151.968 640.5,156.5C 646.988,158.003 653.321,159.67 659.5,161.5C 656.196,161.851 652.863,162.184 649.5,162.5C 648.304,162.154 648.304,161.654 649.5,161C 644.607,159.488 639.607,158.488 634.5,158C 632.797,157.255 631.13,156.421 629.5,155.5C 623.816,154.798 618.15,153.965 612.5,153C 601.51,149.763 590.51,146.93 579.5,144.5C 581.886,144.741 583.886,144.075 585.5,142.5C 601.501,146.267 617.501,150.101 633.5,154C 635.579,154.808 637.579,154.641 639.5,153.5C 639.137,152.817 638.804,152.15 638.5,151.5C 638.5,149.833 638.5,148.167 638.5,146.5C 638.5,146.167 638.5,145.833 638.5,145.5C 637.989,142.909 637.989,140.576 638.5,138.5 Z"/></g>
<g><path style="opacity:0.459" fill="#848484" d="M 36.5,149.5 C 36.573,151.027 35.9063,152.027 34.5,152.5C 34.427,150.973 35.0937,149.973 36.5,149.5 Z"/></g>
<g><path style="opacity:1" fill="#333333" d="M 641.5,143.5 C 641.33,144.822 641.663,145.989 642.5,147C 652.686,149.429 662.686,152.429 672.5,156C 669.134,156.33 665.801,155.997 662.5,155C 655.441,153.329 648.608,151.162 642,148.5C 641.192,150.579 641.359,152.579 642.5,154.5C 654.452,157.958 666.452,161.291 678.5,164.5C 679.416,164.457 680.083,164.124 680.5,163.5C 681.434,164.568 681.768,165.901 681.5,167.5C 681.167,167.5 680.833,167.5 680.5,167.5C 673.717,165.051 666.717,163.051 659.5,161.5C 653.321,159.67 646.988,158.003 640.5,156.5C 640.182,151.968 640.515,147.634 641.5,143.5 Z"/></g>
<g><path style="opacity:1" fill="#686868" d="M 182.5,143.5 C 174.347,145.838 166.014,148.005 157.5,150C 156.167,150.667 156.167,151.333 157.5,152C 158.793,152.49 160.127,152.657 161.5,152.5C 159.401,153.612 157.067,154.279 154.5,154.5C 154.5,153.5 154.5,152.5 154.5,151.5C 152.335,151.116 150.668,151.783 149.5,153.5C 150.689,154.429 152.022,154.762 153.5,154.5C 151.698,155.458 149.698,156.125 147.5,156.5C 147.804,155.85 148.137,155.183 148.5,154.5C 145.163,153.334 141.83,153.334 138.5,154.5C 137.448,154.649 136.448,154.483 135.5,154C 151.007,149.706 166.674,146.206 182.5,143.5 Z"/></g>
<g><path style="opacity:0.888" fill="#343434" d="M 154.5,154.5 C 154.167,154.5 153.833,154.5 153.5,154.5C 152.022,154.762 150.689,154.429 149.5,153.5C 150.668,151.783 152.335,151.116 154.5,151.5C 154.5,152.5 154.5,153.5 154.5,154.5 Z"/></g>
<g><path style="opacity:1" fill="#545454" d="M 248.5,127.5 C 248.586,128.496 248.252,129.329 247.5,130C 232.469,132.561 217.469,135.227 202.5,138C 195.577,139.37 188.911,141.203 182.5,143.5C 166.674,146.206 151.007,149.706 135.5,154C 136.448,154.483 137.448,154.649 138.5,154.5C 127.146,157.548 115.646,160.548 104,163.5C 100.812,163.446 99.9786,162.113 101.5,159.5C 122.329,153.402 143.329,148.069 164.5,143.5C 192.238,136.877 220.238,131.543 248.5,127.5 Z"/></g>
<g><path style="opacity:0.259" fill="#747474" d="M 570.5,155.5 C 573.495,155.294 576.162,155.96 578.5,157.5C 575.572,157.435 572.905,156.768 570.5,155.5 Z"/></g>
<g><path style="opacity:1" fill="#434343" d="M 60.5,159.5 C 49.0786,162.189 37.7452,165.189 26.5,168.5C 26.5,170.167 26.5,171.833 26.5,173.5C 25.3775,171.712 25.2109,169.712 26,167.5C 27.3965,164.646 28.8965,161.98 30.5,159.5C 31.6936,160.777 33.3603,161.444 35.5,161.5C 45.7387,159.719 55.7387,157.052 65.5,153.5C 66.3857,154.325 66.719,155.325 66.5,156.5C 64.0301,156.654 62.0301,157.654 60.5,159.5 Z"/></g>
<g><path style="opacity:0.02" fill="#959595" d="M 144.5,156.5 C 142.485,157.924 140.152,158.59 137.5,158.5C 139.515,157.076 141.848,156.41 144.5,156.5 Z"/></g>
<g><path style="opacity:0.959" fill="#313131" d="M 595.5,157.5 C 601.967,159.297 608.633,160.797 615.5,162C 616.833,162.667 618.167,163.333 619.5,164C 616.657,163.743 613.99,163.91 611.5,164.5C 608.873,163.908 606.206,163.575 603.5,163.5C 603.167,163.5 602.833,163.5 602.5,163.5C 600.562,161.837 598.228,161.171 595.5,161.5C 589.701,160.633 584.034,159.3 578.5,157.5C 576.162,155.96 573.495,155.294 570.5,155.5C 565.908,155.118 561.575,154.118 557.5,152.5C 556.737,151.732 555.737,151.232 554.5,151C 556.199,150.042 558.033,149.542 560,149.5C 571.875,152.108 583.708,154.774 595.5,157.5 Z"/></g>
<g><path style="opacity:1" fill="#424242" d="M 553.5,143.5 C 556.402,144.578 559.402,145.244 562.5,145.5C 587.2,151.287 611.867,157.287 636.5,163.5C 636.918,164.222 637.584,164.722 638.5,165C 638.167,165.333 637.833,165.667 637.5,166C 642.082,166.547 646.416,167.881 650.5,170C 642.432,169.153 634.432,167.653 626.5,165.5C 625.833,165.667 625.167,165.833 624.5,166C 626.96,166.396 628.96,167.563 630.5,169.5C 631.446,169.013 632.446,168.68 633.5,168.5C 637.733,169.981 642.067,171.148 646.5,172C 646.167,172.333 645.833,172.667 645.5,173C 648.758,173.212 651.924,173.712 655,174.5C 655.333,174.167 655.667,173.833 656,173.5C 661.47,176.229 666.97,176.562 672.5,174.5C 672.868,177.056 672.034,179.056 670,180.5C 650.362,175.55 630.862,170.55 611.5,165.5C 611.5,165.167 611.5,164.833 611.5,164.5C 613.99,163.91 616.657,163.743 619.5,164C 618.167,163.333 616.833,162.667 615.5,162C 608.633,160.797 601.967,159.297 595.5,157.5C 597.288,157.785 598.955,157.452 600.5,156.5C 585.91,153.468 571.41,150.135 557,146.5C 555.092,146.285 553.926,145.285 553.5,143.5 Z"/></g>
<g><path style="opacity:1" fill="#222222" d="M 72.5,140.5 C 74.6547,140.372 76.6547,140.872 78.5,142C 76.1029,143.718 73.4362,144.885 70.5,145.5C 73.1306,147.005 72.7973,147.671 69.5,147.5C 69.178,149.722 69.8446,151.556 71.5,153C 73.9625,152.389 76.2958,152.555 78.5,153.5C 74.9685,154.263 71.6352,155.597 68.5,157.5C 75.7179,156.907 82.8846,155.241 90,152.5C 90.414,152.957 90.914,153.291 91.5,153.5C 93.9028,152.296 96.2362,151.962 98.5,152.5C 85.171,156.876 71.671,160.876 58,164.5C 56.9701,164.836 56.4701,165.503 56.5,166.5C 48.9054,168.313 41.5721,170.646 34.5,173.5C 32.2078,172.314 29.8744,172.314 27.5,173.5C 27.1667,173.5 26.8333,173.5 26.5,173.5C 26.5,171.833 26.5,170.167 26.5,168.5C 37.7452,165.189 49.0786,162.189 60.5,159.5C 62.6106,159.772 64.7772,160.105 67,160.5C 67.9642,154.324 67.4642,148.324 65.5,142.5C 66.1667,142.5 66.5,142.167 66.5,141.5C 68.3792,140.659 70.3792,140.325 72.5,140.5 Z"/></g>
<g><path style="opacity:0.525" fill="#797979" d="M 595.5,161.5 C 598.228,161.171 600.562,161.837 602.5,163.5C 599.933,163.279 597.599,162.612 595.5,161.5 Z"/></g>
<g><path style="opacity:1" fill="#101010" d="M 163.5,139.5 C 164.492,139.328 165.158,139.662 165.5,140.5C 143.349,145.371 121.349,150.871 99.5,157C 101.167,157.667 102.833,157.667 104.5,157C 124.285,151.238 144.285,146.404 164.5,142.5C 164.5,142.833 164.5,143.167 164.5,143.5C 143.329,148.069 122.329,153.402 101.5,159.5C 96.5695,160.259 91.9029,161.592 87.5,163.5C 70.8883,167.313 54.3883,171.647 38,176.5C 37.2352,176.43 36.7352,176.097 36.5,175.5C 47.4365,172.182 58.4365,169.015 69.5,166C 58.0936,167.435 47.0936,170.268 36.5,174.5C 35.8333,174.5 35.1667,174.5 34.5,174.5C 34.5,174.167 34.5,173.833 34.5,173.5C 41.5721,170.646 48.9054,168.313 56.5,166.5C 91.8957,156.618 127.562,147.618 163.5,139.5 Z"/></g>
<g><path style="opacity:0.525" fill="#717171" d="M 603.5,163.5 C 606.206,163.575 608.873,163.908 611.5,164.5C 611.5,164.833 611.5,165.167 611.5,165.5C 608.572,165.435 605.905,164.768 603.5,163.5 Z"/></g>
<g><path style="opacity:0.882" fill="#484848" d="M 147.5,156.5 C 146.5,156.5 145.5,156.5 144.5,156.5C 141.848,156.41 139.515,157.076 137.5,158.5C 123.368,162.532 109.035,166.199 94.5,169.5C 92.2841,169.725 90.6174,168.892 89.5,167C 93.3048,166.466 96.9714,165.466 100.5,164C 96.7087,163.409 93.0421,163.909 89.5,165.5C 88.8333,165.333 88.1667,165.167 87.5,165C 91.449,164.193 91.449,163.693 87.5,163.5C 91.9029,161.592 96.5695,160.259 101.5,159.5C 99.9786,162.113 100.812,163.446 104,163.5C 115.646,160.548 127.146,157.548 138.5,154.5C 141.83,153.334 145.163,153.334 148.5,154.5C 148.137,155.183 147.804,155.85 147.5,156.5 Z"/></g>
<g><path style="opacity:0.216" fill="#a4a4a4" d="M 680.5,159.5 C 682.584,161.993 682.917,164.66 681.5,167.5C 681.768,165.901 681.434,164.568 680.5,163.5C 680.5,162.167 680.5,160.833 680.5,159.5 Z"/></g>
<g><path style="opacity:0.999" fill="#313131" d="M 636.5,163.5 C 648.222,166.944 660.056,169.944 672,172.5C 672.278,171.584 672.778,170.918 673.5,170.5C 673.768,172.099 673.434,173.432 672.5,174.5C 666.97,176.562 661.47,176.229 656,173.5C 655.667,173.833 655.333,174.167 655,174.5C 651.924,173.712 648.758,173.212 645.5,173C 645.833,172.667 646.167,172.333 646.5,172C 642.067,171.148 637.733,169.981 633.5,168.5C 632.446,168.68 631.446,169.013 630.5,169.5C 628.96,167.563 626.96,166.396 624.5,166C 625.167,165.833 625.833,165.667 626.5,165.5C 634.432,167.653 642.432,169.153 650.5,170C 646.416,167.881 642.082,166.547 637.5,166C 637.833,165.667 638.167,165.333 638.5,165C 637.584,164.722 636.918,164.222 636.5,163.5 Z"/></g>
<g><path style="opacity:0.192" fill="#646464" d="M 680.5,167.5 C 680.833,167.5 681.167,167.5 681.5,167.5C 679.152,169.097 676.486,170.097 673.5,170.5C 673.971,169.099 674.638,167.766 675.5,166.5C 677.071,167.309 678.738,167.643 680.5,167.5 Z"/></g>
<g><path style="opacity:0.408" fill="#8f8f8f" d="M 34.5,173.5 C 34.5,173.833 34.5,174.167 34.5,174.5C 32.0513,173.98 29.718,173.647 27.5,173.5C 29.8744,172.314 32.2078,172.314 34.5,173.5 Z"/></g>
<g><path style="opacity:1" fill="#2b2b2b" d="M 36.5,175.5 C 36.5,175.167 36.5,174.833 36.5,174.5C 47.0936,170.268 58.0936,167.435 69.5,166C 58.4365,169.015 47.4365,172.182 36.5,175.5 Z"/></g>
<g><path style="opacity:1" fill="#5d5d5d" d="M 87.5,163.5 C 91.449,163.693 91.449,164.193 87.5,165C 88.1667,165.167 88.8333,165.333 89.5,165.5C 93.0421,163.909 96.7087,163.409 100.5,164C 96.9714,165.466 93.3048,166.466 89.5,167C 90.6174,168.892 92.2841,169.725 94.5,169.5C 92.4006,170.612 90.0673,171.279 87.5,171.5C 90.403,169.755 90.0697,168.755 86.5,168.5C 74.3452,171.097 62.3452,174.264 50.5,178C 50.0426,178.414 49.7093,178.914 49.5,179.5C 51.0453,180.452 52.712,180.785 54.5,180.5C 52.4006,181.612 50.0673,182.279 47.5,182.5C 47.4142,181.504 47.7476,180.671 48.5,180C 45.4642,179.362 42.4642,179.528 39.5,180.5C 38.2867,180.747 37.62,181.414 37.5,182.5C 35.8044,179.834 34.8044,177.167 34.5,174.5C 35.1667,174.5 35.8333,174.5 36.5,174.5C 36.5,174.833 36.5,175.167 36.5,175.5C 36.7352,176.097 37.2352,176.43 38,176.5C 54.3883,171.647 70.8883,167.313 87.5,163.5 Z"/></g>
<g><path style="opacity:0.153" fill="#b1b1b1" d="M 382.5,177.5 C 381.089,176.092 379.423,175.092 377.5,174.5C 375.484,175.178 373.484,175.844 371.5,176.5C 375.935,170.977 379.601,171.311 382.5,177.5 Z"/></g>
<g><path style="opacity:0.984" fill="#3c3c3c" d="M 382.5,177.5 C 383.338,177.842 383.672,178.508 383.5,179.5C 383.366,181.292 383.699,182.958 384.5,184.5C 383.078,184.291 381.745,183.791 380.5,183C 379.81,180.304 378.31,178.137 376,176.5C 375,177.167 374,177.833 373,178.5C 371.989,177.663 370.822,177.33 369.5,177.5C 369.842,176.662 370.508,176.328 371.5,176.5C 373.484,175.844 375.484,175.178 377.5,174.5C 379.423,175.092 381.089,176.092 382.5,177.5 Z"/></g>
<g><path style="opacity:0.946" fill="#424242" d="M 87.5,171.5 C 76.8113,175.258 65.8113,178.258 54.5,180.5C 52.712,180.785 51.0453,180.452 49.5,179.5C 49.7093,178.914 50.0426,178.414 50.5,178C 62.3452,174.264 74.3452,171.097 86.5,168.5C 90.0697,168.755 90.403,169.755 87.5,171.5 Z"/></g>
<g><path style="opacity:1" fill="#808080" d="M 369.5,177.5 C 369.167,178.5 368.5,179.167 367.5,179.5C 365.409,179.682 363.409,179.348 361.5,178.5C 357.928,179.681 354.262,180.348 350.5,180.5C 353.74,179.224 357.073,177.89 360.5,176.5C 363.295,178.614 366.295,178.948 369.5,177.5 Z"/></g>
<g><path style="opacity:1" fill="#222222" d="M 384.5,184.5 C 384.5,185.167 384.5,185.833 384.5,186.5C 384.167,186.5 383.833,186.5 383.5,186.5C 383.167,186.5 382.833,186.5 382.5,186.5C 381.791,185.596 380.791,185.263 379.5,185.5C 379.5,186.5 379.5,187.5 379.5,188.5C 373.35,188.42 369.35,185.42 367.5,179.5C 368.5,179.167 369.167,178.5 369.5,177.5C 370.822,177.33 371.989,177.663 373,178.5C 374,177.833 375,177.167 376,176.5C 378.31,178.137 379.81,180.304 380.5,183C 381.745,183.791 383.078,184.291 384.5,184.5 Z"/></g>
<g><path style="opacity:0.936" fill="#4b4b4b" d="M 47.5,182.5 C 44.9487,183.484 42.2821,184.484 39.5,185.5C 38.0815,184.995 37.4148,183.995 37.5,182.5C 37.62,181.414 38.2867,180.747 39.5,180.5C 42.4642,179.528 45.4642,179.362 48.5,180C 47.7476,180.671 47.4142,181.504 47.5,182.5 Z"/></g>
<g><path style="opacity:0.431" fill="#adadad" d="M 349.5,180.5 C 343.712,181.81 337.712,182.477 331.5,182.5C 337.274,181.054 343.274,180.388 349.5,180.5 Z"/></g>
<g><path style="opacity:0.314" fill="#b0b0b0" d="M 329.5,182.5 C 325.668,182.882 322.335,184.215 319.5,186.5C 316.635,188.509 313.968,190.842 311.5,193.5C 315.09,185.525 321.09,181.858 329.5,182.5 Z"/></g>
<g><path style="opacity:1" fill="#4d4d4d" d="M 367.5,179.5 C 369.35,185.42 373.35,188.42 379.5,188.5C 379.5,187.5 379.5,186.5 379.5,185.5C 380.791,185.263 381.791,185.596 382.5,186.5C 381.833,186.5 381.5,186.833 381.5,187.5C 382.209,188.404 383.209,188.737 384.5,188.5C 384.5,188.833 384.5,189.167 384.5,189.5C 380.253,190.602 375.92,190.768 371.5,190C 369.483,189.326 367.817,188.159 366.5,186.5C 364.958,187.747 363.458,187.747 362,186.5C 360.915,188.657 359.749,188.824 358.5,187C 352.981,186.001 347.647,186.501 342.5,188.5C 339.629,185.887 336.795,185.887 334,188.5C 332.644,187.62 331.144,187.286 329.5,187.5C 335.264,185.813 341.264,184.647 347.5,184C 339.188,183.163 331.188,184.33 323.5,187.5C 322.432,186.566 321.099,186.232 319.5,186.5C 322.335,184.215 325.668,182.882 329.5,182.5C 330.167,182.5 330.833,182.5 331.5,182.5C 337.712,182.477 343.712,181.81 349.5,180.5C 349.833,180.5 350.167,180.5 350.5,180.5C 354.262,180.348 357.928,179.681 361.5,178.5C 363.409,179.348 365.409,179.682 367.5,179.5 Z"/></g>
<g><path style="opacity:0.035" fill="#ababab" d="M 383.5,179.5 C 385.312,181.713 385.645,184.047 384.5,186.5C 384.5,185.833 384.5,185.167 384.5,184.5C 383.699,182.958 383.366,181.292 383.5,179.5 Z"/></g>
<g><path style="opacity:1" fill="#3e3e3e" d="M 384.5,189.5 C 385.5,189.5 386.5,189.5 387.5,189.5C 387.5,190.5 387.5,191.5 387.5,192.5C 386.778,192.918 386.278,193.584 386,194.5C 384.566,192.864 382.733,191.864 380.5,191.5C 378.958,192.747 377.458,192.747 376,191.5C 375,192.5 374,193.5 373,194.5C 370.267,192.895 367.267,191.895 364,191.5C 362.488,192.257 361.154,193.257 360,194.5C 358.352,192.972 356.352,192.305 354,192.5C 350.752,193.369 347.585,193.703 344.5,193.5C 343.261,191.993 343.595,190.826 345.5,190C 344.833,189.833 344.167,189.667 343.5,189.5C 339.632,191.658 335.632,191.992 331.5,190.5C 330.031,192.375 328.198,192.375 326,190.5C 324.89,192.037 323.39,192.703 321.5,192.5C 320.504,192.414 319.671,192.748 319,193.5C 317.213,196.363 315.713,199.363 314.5,202.5C 314.152,198.176 315.818,194.51 319.5,191.5C 321.595,190.588 323.595,189.421 325.5,188C 326.793,187.51 328.127,187.343 329.5,187.5C 331.144,187.286 332.644,187.62 334,188.5C 336.795,185.887 339.629,185.887 342.5,188.5C 347.647,186.501 352.981,186.001 358.5,187C 359.749,188.824 360.915,188.657 362,186.5C 363.458,187.747 364.958,187.747 366.5,186.5C 367.817,188.159 369.483,189.326 371.5,190C 375.92,190.768 380.253,190.602 384.5,189.5 Z"/></g>
<g><path style="opacity:0.098" fill="#d4d4d4" d="M 383.5,186.5 C 383.833,186.5 384.167,186.5 384.5,186.5C 384.5,187.167 384.5,187.833 384.5,188.5C 383.209,188.737 382.209,188.404 381.5,187.5C 382.492,187.672 383.158,187.338 383.5,186.5 Z"/></g>
<g><path style="opacity:1" fill="#777777" d="M 329.5,187.5 C 328.127,187.343 326.793,187.51 325.5,188C 323.595,189.421 321.595,190.588 319.5,191.5C 320.5,189.833 321.833,188.5 323.5,187.5C 331.188,184.33 339.188,183.163 347.5,184C 341.264,184.647 335.264,185.813 329.5,187.5 Z"/></g>
<g><path style="opacity:0.998" fill="#252525" d="M 387.5,189.5 C 392.844,189.334 398.177,189.501 403.5,190C 409.27,196.64 411.603,204.14 410.5,212.5C 407.57,211.701 404.57,211.368 401.5,211.5C 401.5,209.167 401.5,206.833 401.5,204.5C 387.5,204.5 373.5,204.5 359.5,204.5C 373.327,203.669 387.327,203.169 401.5,203C 397.167,202.667 392.833,202.333 388.5,202C 387.672,201.085 386.672,200.419 385.5,200C 386.416,199.722 387.082,199.222 387.5,198.5C 388.833,197.833 388.833,197.167 387.5,196.5C 387.5,195.167 387.5,193.833 387.5,192.5C 387.5,191.5 387.5,190.5 387.5,189.5 Z"/></g>
<g><path style="opacity:1" fill="#303030" d="M 387.5,192.5 C 387.5,193.833 387.5,195.167 387.5,196.5C 374,197.825 360.5,197.825 347,196.5C 344.595,197.274 342.095,197.774 339.5,198C 355.497,198.5 371.497,198.667 387.5,198.5C 387.082,199.222 386.416,199.722 385.5,200C 386.672,200.419 387.672,201.085 388.5,202C 392.833,202.333 397.167,202.667 401.5,203C 387.327,203.169 373.327,203.669 359.5,204.5C 357.787,205.635 357.12,207.302 357.5,209.5C 357.565,209.938 357.399,210.272 357,210.5C 356.333,209.167 355.667,207.833 355,206.5C 354.667,206.833 354.333,207.167 354,207.5C 353,204.833 352,204.833 351,207.5C 349.344,204.947 349.177,202.281 350.5,199.5C 341.237,197.97 336.57,201.97 336.5,211.5C 336.5,211.833 336.5,212.167 336.5,212.5C 335.12,212.038 334.453,211.038 334.5,209.5C 335.154,206.037 336.487,202.87 338.5,200C 338.167,199.833 337.833,199.667 337.5,199.5C 334.728,203.043 333.061,207.043 332.5,211.5C 331.325,211.719 330.325,211.386 329.5,210.5C 331.449,205.437 333.782,200.604 336.5,196C 334.919,195.293 333.419,194.46 332,193.5C 331.333,194.167 330.667,194.833 330,195.5C 328.424,196.013 327.091,195.346 326,193.5C 324.005,195.076 322.505,194.743 321.5,192.5C 323.39,192.703 324.89,192.037 326,190.5C 328.198,192.375 330.031,192.375 331.5,190.5C 335.632,191.992 339.632,191.658 343.5,189.5C 344.167,189.667 344.833,189.833 345.5,190C 343.595,190.826 343.261,191.993 344.5,193.5C 347.585,193.703 350.752,193.369 354,192.5C 356.352,192.305 358.352,192.972 360,194.5C 361.154,193.257 362.488,192.257 364,191.5C 367.267,191.895 370.267,192.895 373,194.5C 374,193.5 375,192.5 376,191.5C 377.458,192.747 378.958,192.747 380.5,191.5C 382.733,191.864 384.566,192.864 386,194.5C 386.278,193.584 386.778,192.918 387.5,192.5 Z"/></g>
<g><path style="opacity:0.978" fill="#5c5c5c" d="M 384.5,189.5 C 384.5,189.167 384.5,188.833 384.5,188.5C 392.84,188.334 401.173,188.5 409.5,189C 411.16,190.488 412.16,192.321 412.5,194.5C 412.414,195.496 412.748,196.329 413.5,197C 415.473,197.495 417.473,197.662 419.5,197.5C 421.25,198.659 422.25,200.326 422.5,202.5C 420.468,201.952 419.468,200.619 419.5,198.5C 418.167,198.5 416.833,198.5 415.5,198.5C 416.363,200.895 416.363,203.229 415.5,205.5C 414.757,204.092 413.923,202.759 413,201.5C 412.886,204.833 413.219,208.166 414,211.5C 415.019,210.313 416.186,209.313 417.5,208.5C 419.51,210.171 421.843,210.838 424.5,210.5C 425.338,210.842 425.672,211.508 425.5,212.5C 423.952,213.794 421.952,214.461 419.5,214.5C 416.186,214.657 413.186,213.991 410.5,212.5C 411.603,204.14 409.27,196.64 403.5,190C 398.177,189.501 392.844,189.334 387.5,189.5C 386.5,189.5 385.5,189.5 384.5,189.5 Z"/></g>
<g><path style="opacity:0.098" fill="#c8c8c8" d="M 412.5,194.5 C 414.732,195.869 417.066,196.869 419.5,197.5C 417.473,197.662 415.473,197.495 413.5,197C 412.748,196.329 412.414,195.496 412.5,194.5 Z"/></g>
<g><path style="opacity:0.773" fill="#8b8b8b" d="M 311.5,193.5 C 311.408,195.848 310.408,197.514 308.5,198.5C 308.75,196.326 309.75,194.659 311.5,193.5 Z"/></g>
<g><path style="opacity:1" fill="#4e4e4e" d="M 387.5,196.5 C 388.833,197.167 388.833,197.833 387.5,198.5C 371.497,198.667 355.497,198.5 339.5,198C 342.095,197.774 344.595,197.274 347,196.5C 360.5,197.825 374,197.825 387.5,196.5 Z"/></g>
<g><path style="opacity:1" fill="#252525" d="M 357.5,209.5 C 358.5,209.833 359.167,210.5 359.5,211.5C 351.833,211.5 344.167,211.5 336.5,211.5C 336.57,201.97 341.237,197.97 350.5,199.5C 349.177,202.281 349.344,204.947 351,207.5C 352,204.833 353,204.833 354,207.5C 354.333,207.167 354.667,206.833 355,206.5C 355.667,207.833 356.333,209.167 357,210.5C 357.399,210.272 357.565,209.938 357.5,209.5 Z"/></g>
<g><path style="opacity:1" fill="#7a7a7a" d="M 308.5,199.5 C 308.634,201.292 308.301,202.958 307.5,204.5C 306.778,204.918 306.278,205.584 306,206.5C 305.764,204.881 304.931,203.881 303.5,203.5C 305.707,202.87 307.374,201.536 308.5,199.5 Z"/></g>
<g><path style="opacity:1" fill="#171717" d="M 359.5,204.5 C 373.5,204.5 387.5,204.5 401.5,204.5C 401.5,206.833 401.5,209.167 401.5,211.5C 391.833,211.5 382.167,211.5 372.5,211.5C 368.167,211.5 363.833,211.5 359.5,211.5C 359.167,210.5 358.5,209.833 357.5,209.5C 357.12,207.302 357.787,205.635 359.5,204.5 Z"/></g>
<g><path style="opacity:1" fill="#484848" d="M 422.5,202.5 C 426.642,203.04 430.642,203.706 434.5,204.5C 430.833,204.5 427.167,204.5 423.5,204.5C 423.517,206.565 423.85,208.565 424.5,210.5C 421.843,210.838 419.51,210.171 417.5,208.5C 416.186,209.313 415.019,210.313 414,211.5C 413.219,208.166 412.886,204.833 413,201.5C 413.923,202.759 414.757,204.092 415.5,205.5C 416.363,203.229 416.363,200.895 415.5,198.5C 416.833,198.5 418.167,198.5 419.5,198.5C 419.468,200.619 420.468,201.952 422.5,202.5 Z"/></g>
<g><path style="opacity:1" fill="#474747" d="M 303.5,203.5 C 304.931,203.881 305.764,204.881 306,206.5C 306.278,205.584 306.778,204.918 307.5,204.5C 307.361,207.588 306.361,210.255 304.5,212.5C 283.735,214.511 263.069,217.177 242.5,220.5C 242.201,219.24 242.201,218.073 242.5,217C 256.796,214.505 271.129,212.339 285.5,210.5C 285.33,209.178 285.663,208.011 286.5,207C 284.866,206.506 283.199,206.34 281.5,206.5C 288.615,204.874 295.948,203.874 303.5,203.5 Z"/></g>
<g><path style="opacity:1" fill="#3b3b3b" d="M 548.5,230.5 C 545.881,230.768 543.381,230.435 541,229.5C 540.5,230.667 539.667,231.5 538.5,232C 540.491,232.374 542.158,233.207 543.5,234.5C 504.507,226.78 465.174,220.78 425.5,216.5C 414.012,215.505 402.345,215.172 390.5,215.5C 371.992,215.83 353.659,215.497 335.5,214.5C 336.167,214.5 336.5,214.167 336.5,213.5C 348.88,214.146 360.88,213.479 372.5,211.5C 382.167,211.5 391.833,211.5 401.5,211.5C 404.57,211.368 407.57,211.701 410.5,212.5C 413.186,213.991 416.186,214.657 419.5,214.5C 421.952,214.461 423.952,213.794 425.5,212.5C 426.309,210.987 426.476,209.32 426,207.5C 439.243,209.057 452.743,210.723 466.5,212.5C 466.5,213.5 466.5,214.5 466.5,215.5C 493.61,219.802 520.944,224.802 548.5,230.5 Z"/></g>
<g><path style="opacity:1" fill="#676767" d="M 311.5,211.5 C 315.226,211.177 318.893,211.511 322.5,212.5C 322.376,213.107 322.043,213.44 321.5,213.5C 317.671,214.069 314.337,213.402 311.5,211.5 Z"/></g>
<g><path style="opacity:1" fill="#202020" d="M 321.5,192.5 C 322.505,194.743 324.005,195.076 326,193.5C 327.091,195.346 328.424,196.013 330,195.5C 330.667,194.833 331.333,194.167 332,193.5C 333.419,194.46 334.919,195.293 336.5,196C 333.782,200.604 331.449,205.437 329.5,210.5C 330.325,211.386 331.325,211.719 332.5,211.5C 333.061,207.043 334.728,203.043 337.5,199.5C 337.833,199.667 338.167,199.833 338.5,200C 336.487,202.87 335.154,206.037 334.5,209.5C 334.453,211.038 335.12,212.038 336.5,212.5C 336.5,212.833 336.5,213.167 336.5,213.5C 336.5,214.167 336.167,214.5 335.5,214.5C 331.044,214.354 326.378,214.354 321.5,214.5C 321.5,214.167 321.5,213.833 321.5,213.5C 322.043,213.44 322.376,213.107 322.5,212.5C 318.893,211.511 315.226,211.177 311.5,211.5C 310.079,208.492 310.246,205.492 312,202.5C 312.547,209.052 313.38,209.052 314.5,202.5C 315.713,199.363 317.213,196.363 319,193.5C 319.671,192.748 320.504,192.414 321.5,192.5 Z"/></g>
<g><path style="opacity:1" fill="#535353" d="M 336.5,211.5 C 344.167,211.5 351.833,211.5 359.5,211.5C 363.833,211.5 368.167,211.5 372.5,211.5C 360.88,213.479 348.88,214.146 336.5,213.5C 336.5,213.167 336.5,212.833 336.5,212.5C 336.5,212.167 336.5,211.833 336.5,211.5 Z"/></g>
<g><path style="opacity:0.986" fill="#373737" d="M 434.5,204.5 C 453.988,206.141 473.321,208.808 492.5,212.5C 495.507,214.175 498.84,214.841 502.5,214.5C 526.877,218.266 550.877,223.266 574.5,229.5C 575.171,230.847 575.171,232.014 574.5,233C 572.187,233.662 569.854,234.162 567.5,234.5C 561.284,232.765 554.95,231.432 548.5,230.5C 520.944,224.802 493.61,219.802 466.5,215.5C 466.5,214.5 466.5,213.5 466.5,212.5C 452.743,210.723 439.243,209.057 426,207.5C 426.476,209.32 426.309,210.987 425.5,212.5C 425.672,211.508 425.338,210.842 424.5,210.5C 423.85,208.565 423.517,206.565 423.5,204.5C 427.167,204.5 430.833,204.5 434.5,204.5 Z"/></g>
<g><path style="opacity:0.192" fill="#727272" d="M 492.5,212.5 C 496.04,212.753 499.373,213.419 502.5,214.5C 498.84,214.841 495.507,214.175 492.5,212.5 Z"/></g>
<g><path style="opacity:0.997" fill="#393939" d="M 304.5,212.5 C 307.028,213.518 306.861,214.518 304,215.5C 294.459,214.523 285.125,215.523 276,218.5C 273.063,217.183 270.23,217.183 267.5,218.5C 260.232,218.128 253.399,219.462 247,222.5C 233.806,223.365 220.639,225.365 207.5,228.5C 206.914,228.291 206.414,227.957 206,227.5C 194.146,230.71 181.979,233.377 169.5,235.5C 167.883,235.331 166.216,234.997 164.5,234.5C 166.078,233.702 167.744,233.202 169.5,233C 168.833,232.667 168.167,232.333 167.5,232C 168.784,231.316 169.951,231.483 171,232.5C 171.833,231.667 172.667,230.833 173.5,230C 180.762,228.018 188.095,226.351 195.5,225C 197.49,223.16 197.49,221.993 195.5,221.5C 206.871,218.292 218.538,215.959 230.5,214.5C 232.199,214.34 233.866,214.506 235.5,215C 233.405,215.556 233.238,216.056 235,216.5C 235.772,216.355 236.439,216.022 237,215.5C 237.591,216.483 237.257,217.15 236,217.5C 231.613,217.802 227.113,218.469 222.5,219.5C 222.881,221.942 222.214,222.609 220.5,221.5C 219.205,222.098 217.872,222.598 216.5,223C 217,223.5 217.5,224 218,224.5C 226.108,223.01 234.275,221.677 242.5,220.5C 263.069,217.177 283.735,214.511 304.5,212.5 Z"/></g>
<g><path style="opacity:1" fill="#2f2f2f" d="M 319.5,186.5 C 321.099,186.232 322.432,186.566 323.5,187.5C 321.833,188.5 320.5,189.833 319.5,191.5C 315.818,194.51 314.152,198.176 314.5,202.5C 313.38,209.052 312.547,209.052 312,202.5C 310.246,205.492 310.079,208.492 311.5,211.5C 314.337,213.402 317.671,214.069 321.5,213.5C 321.5,213.833 321.5,214.167 321.5,214.5C 317.029,213.911 313.029,214.577 309.5,216.5C 308.883,216.389 308.383,216.056 308,215.5C 307.505,217.473 307.338,219.473 307.5,221.5C 304.752,222.032 302.752,223.032 301.5,224.5C 300.833,223.833 300.167,223.167 299.5,222.5C 301.942,222.881 302.609,222.214 301.5,220.5C 299.833,220.167 298.167,219.833 296.5,219.5C 289.508,220.314 282.508,220.981 275.5,221.5C 272.523,221.098 269.857,220.098 267.5,218.5C 270.23,217.183 273.063,217.183 276,218.5C 285.125,215.523 294.459,214.523 304,215.5C 306.861,214.518 307.028,213.518 304.5,212.5C 306.361,210.255 307.361,207.588 307.5,204.5C 308.301,202.958 308.634,201.292 308.5,199.5C 308.5,199.167 308.5,198.833 308.5,198.5C 310.408,197.514 311.408,195.848 311.5,193.5C 313.968,190.842 316.635,188.509 319.5,186.5 Z"/></g>
<g><path style="opacity:1" fill="#404040" d="M 281.5,206.5 C 283.199,206.34 284.866,206.506 286.5,207C 285.663,208.011 285.33,209.178 285.5,210.5C 271.129,212.339 256.796,214.505 242.5,217C 242.201,218.073 242.201,219.24 242.5,220.5C 234.275,221.677 226.108,223.01 218,224.5C 217.5,224 217,223.5 216.5,223C 217.872,222.598 219.205,222.098 220.5,221.5C 222.214,222.609 222.881,221.942 222.5,219.5C 227.113,218.469 231.613,217.802 236,217.5C 237.257,217.15 237.591,216.483 237,215.5C 236.439,216.022 235.772,216.355 235,216.5C 233.238,216.056 233.405,215.556 235.5,215C 233.866,214.506 232.199,214.34 230.5,214.5C 247.223,210.881 264.223,208.214 281.5,206.5 Z"/></g>
<g><path style="opacity:1" fill="#393939" d="M 335.5,214.5 C 353.659,215.497 371.992,215.83 390.5,215.5C 374.338,216.331 358.005,216.831 341.5,217C 340.04,217.811 339.707,218.645 340.5,219.5C 342.833,216.833 345.167,216.833 347.5,219.5C 353.498,219.63 359.331,219.296 365,218.5C 366.734,219.249 368.567,219.749 370.5,220C 369.692,220.308 369.025,220.808 368.5,221.5C 356.674,222.167 345.007,222.833 333.5,223.5C 327.819,223.365 322.152,223.032 316.5,222.5C 314.076,222.808 311.743,222.474 309.5,221.5C 313.107,220.511 316.774,220.177 320.5,220.5C 320.33,219.178 320.663,218.011 321.5,217C 317.514,216.501 313.514,216.334 309.5,216.5C 313.029,214.577 317.029,213.911 321.5,214.5C 326.378,214.354 331.044,214.354 335.5,214.5 Z"/></g>
<g><path style="opacity:1" fill="#2b2b2b" d="M 390.5,215.5 C 402.345,215.172 414.012,215.505 425.5,216.5C 425.739,218.467 425.406,220.301 424.5,222C 425.448,222.483 426.448,222.649 427.5,222.5C 427.189,223.478 426.522,224.145 425.5,224.5C 421.892,223.407 418.225,223.24 414.5,224C 416.382,224.198 418.048,224.698 419.5,225.5C 407.128,225.007 394.794,224.007 382.5,222.5C 366.185,223.44 349.851,223.774 333.5,223.5C 345.007,222.833 356.674,222.167 368.5,221.5C 369.025,220.808 369.692,220.308 370.5,220C 368.567,219.749 366.734,219.249 365,218.5C 359.331,219.296 353.498,219.63 347.5,219.5C 345.167,216.833 342.833,216.833 340.5,219.5C 339.707,218.645 340.04,217.811 341.5,217C 358.005,216.831 374.338,216.331 390.5,215.5 Z"/></g>
<g><path style="opacity:0.998" fill="#2e2e2e" d="M 267.5,218.5 C 269.857,220.098 272.523,221.098 275.5,221.5C 259.171,223.976 242.838,226.643 226.5,229.5C 227.85,228.35 227.684,227.683 226,227.5C 219.845,228.942 213.679,230.275 207.5,231.5C 206.325,230.145 205.325,230.312 204.5,232C 198.806,233.105 193.14,234.272 187.5,235.5C 184.936,235.629 182.269,235.296 179.5,234.5C 178.205,235.098 176.872,235.598 175.5,236C 179.5,236.667 179.5,237.333 175.5,238C 169.028,236.313 162.861,237.48 157,241.5C 156.667,240.833 156.333,240.167 156,239.5C 147.294,241.716 138.461,243.716 129.5,245.5C 128.5,245.167 127.5,244.833 126.5,244.5C 129.342,244.199 132.342,243.366 135.5,242C 134.167,241.667 132.833,241.333 131.5,241C 132.167,240.667 132.833,240.333 133.5,240C 132.663,238.989 132.33,237.822 132.5,236.5C 131.5,236.5 130.5,236.5 129.5,236.5C 151.108,230.267 173.108,225.267 195.5,221.5C 197.49,221.993 197.49,223.16 195.5,225C 188.095,226.351 180.762,228.018 173.5,230C 172.667,230.833 171.833,231.667 171,232.5C 169.951,231.483 168.784,231.316 167.5,232C 168.167,232.333 168.833,232.667 169.5,233C 167.744,233.202 166.078,233.702 164.5,234.5C 166.216,234.997 167.883,235.331 169.5,235.5C 181.979,233.377 194.146,230.71 206,227.5C 206.414,227.957 206.914,228.291 207.5,228.5C 220.639,225.365 233.806,223.365 247,222.5C 253.399,219.462 260.232,218.128 267.5,218.5 Z"/></g>
<g><path style="opacity:1" fill="#3e3e3e" d="M 299.5,222.5 C 279.843,225.111 260.176,227.778 240.5,230.5C 237.846,229.732 235.179,229.566 232.5,230C 233.624,230.249 234.624,230.749 235.5,231.5C 231.678,232.662 227.845,233.662 224,234.5C 221.841,233.803 219.674,234.137 217.5,235.5C 217.167,235.167 216.833,234.833 216.5,234.5C 217.729,233.719 219.062,233.219 220.5,233C 217.028,232.128 214.028,232.961 211.5,235.5C 210.554,235.013 209.554,234.68 208.5,234.5C 196.311,236.884 184.311,239.55 172.5,242.5C 170.901,242.768 169.568,242.434 168.5,241.5C 187.687,236.871 207.02,232.871 226.5,229.5C 242.838,226.643 259.171,223.976 275.5,221.5C 282.508,220.981 289.508,220.314 296.5,219.5C 298.167,219.833 299.833,220.167 301.5,220.5C 302.609,222.214 301.942,222.881 299.5,222.5 Z"/></g>
<g><path style="opacity:1" fill="#1f1f1f" d="M 309.5,216.5 C 313.514,216.334 317.514,216.501 321.5,217C 320.663,218.011 320.33,219.178 320.5,220.5C 316.774,220.177 313.107,220.511 309.5,221.5C 311.743,222.474 314.076,222.808 316.5,222.5C 316.918,223.222 317.584,223.722 318.5,224C 309.863,225.164 301.196,225.998 292.5,226.5C 295.171,224.882 298.171,224.215 301.5,224.5C 302.752,223.032 304.752,222.032 307.5,221.5C 307.338,219.473 307.505,217.473 308,215.5C 308.383,216.056 308.883,216.389 309.5,216.5 Z"/></g>
<g><path style="opacity:1" fill="#404040" d="M 531.5,235.5 C 532.167,236.167 532.833,236.833 533.5,237.5C 530.167,237.167 526.833,236.833 523.5,236.5C 491.505,230.274 459.505,225.607 427.5,222.5C 426.766,221.292 426.433,219.959 426.5,218.5C 461.916,221.986 496.916,227.652 531.5,235.5 Z"/></g>
<g><path style="opacity:1" fill="#333333" d="M 299.5,222.5 C 300.167,223.167 300.833,223.833 301.5,224.5C 298.171,224.215 295.171,224.882 292.5,226.5C 273.36,228.163 254.36,230.663 235.5,234C 216.817,237.838 198.15,241.671 179.5,245.5C 178.732,244.737 178.232,243.737 178,242.5C 176.15,242.683 174.317,242.683 172.5,242.5C 184.311,239.55 196.311,236.884 208.5,234.5C 209.554,234.68 210.554,235.013 211.5,235.5C 214.028,232.961 217.028,232.128 220.5,233C 219.062,233.219 217.729,233.719 216.5,234.5C 216.833,234.833 217.167,235.167 217.5,235.5C 219.674,234.137 221.841,233.803 224,234.5C 227.845,233.662 231.678,232.662 235.5,231.5C 234.624,230.749 233.624,230.249 232.5,230C 235.179,229.566 237.846,229.732 240.5,230.5C 260.176,227.778 279.843,225.111 299.5,222.5 Z"/></g>
<g><path style="opacity:1" fill="#2e2e2e" d="M 427.5,222.5 C 459.505,225.607 491.505,230.274 523.5,236.5C 524.544,238.492 526.544,240.158 529.5,241.5C 516.099,239.378 502.766,237.045 489.5,234.5C 466.246,230.843 442.913,227.843 419.5,225.5C 418.048,224.698 416.382,224.198 414.5,224C 418.225,223.24 421.892,223.407 425.5,224.5C 426.522,224.145 427.189,223.478 427.5,222.5 Z"/></g>
<g><path style="opacity:1" fill="#111111" d="M 316.5,222.5 C 322.152,223.032 327.819,223.365 333.5,223.5C 349.851,223.774 366.185,223.44 382.5,222.5C 394.794,224.007 407.128,225.007 419.5,225.5C 442.913,227.843 466.246,230.843 489.5,234.5C 488.378,235.156 487.045,235.489 485.5,235.5C 477.545,234.063 469.545,233.063 461.5,232.5C 416.548,225.383 371.215,223.217 325.5,226C 347.833,226.333 370.167,226.667 392.5,227C 375.995,227.169 359.662,227.669 343.5,228.5C 313.761,228.275 284.428,230.942 255.5,236.5C 255.167,236.5 254.833,236.5 254.5,236.5C 239.401,238.35 224.401,240.85 209.5,244C 182.095,249.851 154.762,256.018 127.5,262.5C 149.575,255.805 172.575,249.972 196.5,245C 194.5,244.333 192.5,244.333 190.5,245C 153.06,253.314 116.06,262.814 79.5,273.5C 77.8008,273.66 76.1341,273.494 74.5,273C 74.8333,272.667 75.1667,272.333 75.5,272C 110.118,262.846 144.785,254.012 179.5,245.5C 198.15,241.671 216.817,237.838 235.5,234C 254.36,230.663 273.36,228.163 292.5,226.5C 301.196,225.998 309.863,225.164 318.5,224C 317.584,223.722 316.918,223.222 316.5,222.5 Z"/></g>
<g><path style="opacity:1" fill="#262626" d="M 461.5,232.5 C 446.157,231.166 430.824,229.666 415.5,228C 409.319,227.181 403.319,227.347 397.5,228.5C 379.5,228.5 361.5,228.5 343.5,228.5C 359.662,227.669 375.995,227.169 392.5,227C 370.167,226.667 347.833,226.333 325.5,226C 371.215,223.217 416.548,225.383 461.5,232.5 Z"/></g>
<g><path style="opacity:1" fill="#505050" d="M 343.5,228.5 C 361.5,228.5 379.5,228.5 397.5,228.5C 412.494,229.499 427.494,230.666 442.5,232C 446.392,232.419 450.058,233.252 453.5,234.5C 435.186,233.12 416.853,231.787 398.5,230.5C 397.287,230.747 396.62,231.414 396.5,232.5C 379.36,231.202 362.36,231.202 345.5,232.5C 340.833,232.5 336.167,232.5 331.5,232.5C 316.44,233.233 301.44,234.566 286.5,236.5C 287.859,234.991 287.359,234.324 285,234.5C 275.25,236.955 265.416,237.622 255.5,236.5C 284.428,230.942 313.761,228.275 343.5,228.5 Z"/></g>
<g><path style="opacity:1" fill="#2a2a2a" d="M 306.5,226.5 C 312.509,226.334 318.509,226.501 324.5,227C 304.48,228.803 284.48,230.469 264.5,232C 278.606,229.827 292.606,227.994 306.5,226.5 Z"/></g>
<g><path style="opacity:1" fill="#3f3f3f" d="M 548.5,230.5 C 554.95,231.432 561.284,232.765 567.5,234.5C 576.612,236.599 585.779,238.933 595,241.5C 595.95,240.978 596.784,240.311 597.5,239.5C 597.833,240.167 598.167,240.833 598.5,241.5C 600.838,239.989 601.504,240.323 600.5,242.5C 606.664,243.872 612.664,245.539 618.5,247.5C 626.845,249.505 635.178,251.505 643.5,253.5C 643.5,254.833 643.5,256.167 643.5,257.5C 609.92,250.436 576.586,242.769 543.5,234.5C 542.158,233.207 540.491,232.374 538.5,232C 539.667,231.5 540.5,230.667 541,229.5C 543.381,230.435 545.881,230.768 548.5,230.5 Z"/></g>
<g><path style="opacity:0.974" fill="#282828" d="M 331.5,232.5 C 336.167,232.5 340.833,232.5 345.5,232.5C 359.171,232.333 372.837,232.5 386.5,233C 373.148,234.149 359.814,234.982 346.5,235.5C 342.154,235.666 337.821,235.499 333.5,235C 332.244,234.583 331.577,233.75 331.5,232.5 Z"/></g>
<g><path style="opacity:1" fill="#2d2d2d" d="M 255.5,232.5 C 258.187,232.336 260.854,232.503 263.5,233C 255.589,234.989 247.589,235.989 239.5,236C 244.989,234.925 250.322,233.759 255.5,232.5 Z"/></g>
<g><path style="opacity:0.952" fill="#484848" d="M 331.5,232.5 C 331.577,233.75 332.244,234.583 333.5,235C 337.821,235.499 342.154,235.666 346.5,235.5C 317.532,236.952 288.532,239.618 259.5,243.5C 256.753,243.813 254.086,243.48 251.5,242.5C 262.82,238.972 274.487,236.972 286.5,236.5C 301.44,234.566 316.44,233.233 331.5,232.5 Z"/></g>
<g><path style="opacity:1" fill="#686868" d="M 453.5,234.5 C 453.833,234.5 454.167,234.5 454.5,234.5C 466.766,238.045 479.433,240.212 492.5,241C 502.793,243.439 513.126,245.772 523.5,248C 521.527,248.495 519.527,248.662 517.5,248.5C 477.532,240.552 437.199,235.219 396.5,232.5C 396.62,231.414 397.287,230.747 398.5,230.5C 416.853,231.787 435.186,233.12 453.5,234.5 Z"/></g>
<g><path style="opacity:0.978" fill="#393939" d="M 574.5,229.5 C 598.758,234.564 622.758,240.564 646.5,247.5C 646.5,247.833 646.5,248.167 646.5,248.5C 646.443,249.609 646.11,250.609 645.5,251.5C 637.829,249.592 630.496,247.592 623.5,245.5C 621.664,246.028 619.997,246.694 618.5,247.5C 612.664,245.539 606.664,243.872 600.5,242.5C 601.504,240.323 600.838,239.989 598.5,241.5C 598.167,240.833 597.833,240.167 597.5,239.5C 596.784,240.311 595.95,240.978 595,241.5C 585.779,238.933 576.612,236.599 567.5,234.5C 569.854,234.162 572.187,233.662 574.5,233C 575.171,232.014 575.171,230.847 574.5,229.5 Z"/></g>
<g><path style="opacity:1" fill="#282828" d="M 226.5,229.5 C 207.02,232.871 187.687,236.871 168.5,241.5C 158.886,243.957 149.219,246.29 139.5,248.5C 139.083,247.876 138.416,247.543 137.5,247.5C 127.136,249.603 116.97,252.27 107,255.5C 105.48,253.165 103.98,253.332 102.5,256C 99.6337,257.276 96.8003,257.443 94,256.5C 93.4806,257.516 92.6473,258.182 91.5,258.5C 88.0338,258.367 84.5338,258.367 81,258.5C 80.5,258.167 80,257.833 79.5,257.5C 86.5389,255.479 93.2056,252.645 99.5,249C 103.062,250.069 106.062,249.069 108.5,246C 113.567,244.866 118.567,243.532 123.5,242C 123.833,241 124.167,240 124.5,239C 123.552,238.517 122.552,238.351 121.5,238.5C 123.905,237.232 126.572,236.565 129.5,236.5C 130.5,236.5 131.5,236.5 132.5,236.5C 132.33,237.822 132.663,238.989 133.5,240C 132.833,240.333 132.167,240.667 131.5,241C 132.833,241.333 134.167,241.667 135.5,242C 132.342,243.366 129.342,244.199 126.5,244.5C 127.5,244.833 128.5,245.167 129.5,245.5C 138.461,243.716 147.294,241.716 156,239.5C 156.333,240.167 156.667,240.833 157,241.5C 162.861,237.48 169.028,236.313 175.5,238C 179.5,237.333 179.5,236.667 175.5,236C 176.872,235.598 178.205,235.098 179.5,234.5C 182.269,235.296 184.936,235.629 187.5,235.5C 193.14,234.272 198.806,233.105 204.5,232C 205.325,230.312 206.325,230.145 207.5,231.5C 213.679,230.275 219.845,228.942 226,227.5C 227.684,227.683 227.85,228.35 226.5,229.5 Z"/></g>
<g><path style="opacity:1" fill="#2f2f2f" d="M 231.5,236.5 C 233.527,236.338 235.527,236.505 237.5,237C 230.928,238.874 224.262,239.874 217.5,240C 222.317,238.929 226.984,237.763 231.5,236.5 Z"/></g>
<g><path style="opacity:0.994" fill="#252525" d="M 121.5,238.5 C 122.552,238.351 123.552,238.517 124.5,239C 124.167,240 123.833,241 123.5,242C 118.567,243.532 113.567,244.866 108.5,246C 106.062,249.069 103.062,250.069 99.5,249C 93.2056,252.645 86.5389,255.479 79.5,257.5C 80,257.833 80.5,258.167 81,258.5C 84.5338,258.367 88.0338,258.367 91.5,258.5C 92.6473,258.182 93.4806,257.516 94,256.5C 96.8003,257.443 99.6337,257.276 102.5,256C 103.98,253.332 105.48,253.165 107,255.5C 116.97,252.27 127.136,249.603 137.5,247.5C 138.416,247.543 139.083,247.876 139.5,248.5C 121.177,253.162 102.844,257.829 84.5,262.5C 82.3618,262.062 80.0285,261.895 77.5,262C 76.3333,261.5 75.5,260.667 75,259.5C 64.0061,262.334 53.8395,265.667 44.5,269.5C 42.0582,270.182 39.5582,270.515 37,270.5C 36.5172,269.552 36.3505,268.552 36.5,267.5C 36.7497,265.326 37.7497,263.659 39.5,262.5C 41.5,261.167 43.1667,259.5 44.5,257.5C 49.3812,253.516 55.0478,251.182 61.5,250.5C 64.0101,250.946 66.0101,250.28 67.5,248.5C 67.8333,248.5 68.1667,248.5 68.5,248.5C 68.4142,249.496 68.7476,250.329 69.5,251C 71.0657,251.765 72.3991,251.598 73.5,250.5C 89.3269,245.877 105.327,241.877 121.5,238.5 Z"/></g>
<g><path style="opacity:0.946" fill="#3c3c3c" d="M 345.5,232.5 C 362.36,231.202 379.36,231.202 396.5,232.5C 437.199,235.219 477.532,240.552 517.5,248.5C 515.786,249.738 513.786,250.405 511.5,250.5C 457.057,239.489 402.057,234.489 346.5,235.5C 359.814,234.982 373.148,234.149 386.5,233C 372.837,232.5 359.171,232.333 345.5,232.5 Z"/></g>
<g><path style="opacity:1" fill="#313131" d="M 168.5,241.5 C 169.568,242.434 170.901,242.768 172.5,242.5C 174.317,242.683 176.15,242.683 178,242.5C 178.232,243.737 178.732,244.737 179.5,245.5C 144.785,254.012 110.118,262.846 75.5,272C 75.1667,272.333 74.8333,272.667 74.5,273C 76.1341,273.494 77.8008,273.66 79.5,273.5C 67.3891,277.532 55.0558,281.199 42.5,284.5C 42.5,284.167 42.5,283.833 42.5,283.5C 52.5923,279.888 62.9257,276.722 73.5,274C 63.7796,274.971 54.2796,277.137 45,280.5C 43.2382,280.056 43.4049,279.556 45.5,279C 66.6462,273.34 87.6462,267.174 108.5,260.5C 105.528,258.105 102.862,258.605 100.5,262C 98.765,262.651 97.0983,262.485 95.5,261.5C 89.3654,264.118 83.0321,265.618 76.5,266C 78.9124,264.232 81.5791,263.065 84.5,262.5C 102.844,257.829 121.177,253.162 139.5,248.5C 149.219,246.29 158.886,243.957 168.5,241.5 Z"/></g>
<g><path style="opacity:1" fill="#686868" d="M 286.5,236.5 C 274.487,236.972 262.82,238.972 251.5,242.5C 254.086,243.48 256.753,243.813 259.5,243.5C 254.016,244.804 248.349,245.804 242.5,246.5C 243.263,245.732 244.263,245.232 245.5,245C 245.167,244.667 244.833,244.333 244.5,244C 246.384,243.784 248.051,243.117 249.5,242C 225.08,245.487 200.914,250.32 177,256.5C 176.833,256.833 176.667,257.167 176.5,257.5C 177.689,258.429 179.022,258.762 180.5,258.5C 179.081,259.451 177.415,259.784 175.5,259.5C 174.666,258.252 173.333,257.585 171.5,257.5C 166.393,258.193 161.393,259.36 156.5,261C 156.043,261.414 155.709,261.914 155.5,262.5C 156.689,263.429 158.022,263.762 159.5,263.5C 157.698,264.458 155.698,265.125 153.5,265.5C 154.048,264.312 154.381,263.145 154.5,262C 153.833,261.833 153.167,261.667 152.5,261.5C 146.918,263.251 141.251,264.584 135.5,265.5C 135.062,265.565 134.728,265.399 134.5,265C 173.458,254.761 212.791,246.095 252.5,239C 251.833,238.667 251.167,238.333 250.5,238C 252.058,237.79 253.391,237.29 254.5,236.5C 254.833,236.5 255.167,236.5 255.5,236.5C 265.416,237.622 275.25,236.955 285,234.5C 287.359,234.324 287.859,234.991 286.5,236.5 Z"/></g>
<g><path style="opacity:1" fill="#303030" d="M 523.5,236.5 C 526.833,236.833 530.167,237.167 533.5,237.5C 570.36,246.532 607.36,255.199 644.5,263.5C 639.995,263.247 635.328,263.247 630.5,263.5C 625.009,261.446 619.342,260.446 613.5,260.5C 595.845,256.502 578.178,252.502 560.5,248.5C 550.08,246.549 539.747,244.216 529.5,241.5C 526.544,240.158 524.544,238.492 523.5,236.5 Z"/></g>
<g><path style="opacity:1" fill="#434343" d="M 531.5,235.5 C 569.455,242.825 607.122,251.159 644.5,260.5C 645.625,261.652 645.625,262.652 644.5,263.5C 607.36,255.199 570.36,246.532 533.5,237.5C 532.833,236.833 532.167,236.167 531.5,235.5 Z"/></g>
<g><path style="opacity:1" fill="#343434" d="M 425.5,216.5 C 465.174,220.78 504.507,226.78 543.5,234.5C 576.586,242.769 609.92,250.436 643.5,257.5C 643.5,256.167 643.5,254.833 643.5,253.5C 635.178,251.505 626.845,249.505 618.5,247.5C 619.997,246.694 621.664,246.028 623.5,245.5C 630.496,247.592 637.829,249.592 645.5,251.5C 644.701,254.43 644.368,257.43 644.5,260.5C 607.122,251.159 569.455,242.825 531.5,235.5C 496.916,227.652 461.916,221.986 426.5,218.5C 426.433,219.959 426.766,221.292 427.5,222.5C 426.448,222.649 425.448,222.483 424.5,222C 425.406,220.301 425.739,218.467 425.5,216.5 Z"/></g>
<g><path style="opacity:1" fill="#191919" d="M 397.5,228.5 C 403.319,227.347 409.319,227.181 415.5,228C 430.824,229.666 446.157,231.166 461.5,232.5C 469.545,233.063 477.545,234.063 485.5,235.5C 487.045,235.489 488.378,235.156 489.5,234.5C 502.766,237.045 516.099,239.378 529.5,241.5C 539.747,244.216 550.08,246.549 560.5,248.5C 558.621,248.393 558.288,248.893 559.5,250C 575.285,253.196 590.952,256.863 606.5,261C 601.434,260.888 596.434,260.055 591.5,258.5C 590.584,258.543 589.917,258.876 589.5,259.5C 568.916,254.749 548.25,250.416 527.5,246.5C 503.43,241.203 479.097,237.203 454.5,234.5C 454.167,234.5 453.833,234.5 453.5,234.5C 450.058,233.252 446.392,232.419 442.5,232C 427.494,230.666 412.494,229.499 397.5,228.5 Z"/></g>
<g><path style="opacity:0.639" fill="#7e7e7e" d="M 67.5,248.5 C 66.0101,250.28 64.0101,250.946 61.5,250.5C 63.3024,249.542 65.3024,248.875 67.5,248.5 Z"/></g>
<g><path style="opacity:0.991" fill="#5f5f5f" d="M 660.5,247.5 C 666.353,247.601 671.353,249.601 675.5,253.5C 673.105,253.521 670.605,253.188 668,252.5C 666.289,252.439 664.956,253.106 664,254.5C 662.954,252.91 661.787,251.41 660.5,250C 661.5,249.667 662.5,249.333 663.5,249C 662.263,248.768 661.263,248.268 660.5,247.5 Z"/></g>
<g><path style="opacity:0.294" fill="#888888" d="M 68.5,248.5 C 69.8195,249.942 71.4862,250.608 73.5,250.5C 72.3991,251.598 71.0657,251.765 69.5,251C 68.7476,250.329 68.4142,249.496 68.5,248.5 Z"/></g>
<g><path style="opacity:1" fill="#515151" d="M 254.5,236.5 C 253.391,237.29 252.058,237.79 250.5,238C 251.167,238.333 251.833,238.667 252.5,239C 212.791,246.095 173.458,254.761 134.5,265C 134.728,265.399 135.062,265.565 135.5,265.5C 135.158,266.338 134.492,266.672 133.5,266.5C 129.886,266.049 127.886,265.049 127.5,263.5C 127.5,263.167 127.5,262.833 127.5,262.5C 154.762,256.018 182.095,249.851 209.5,244C 224.401,240.85 239.401,238.35 254.5,236.5 Z"/></g>
<g><path style="opacity:1" fill="#474747" d="M 242.5,246.5 C 221.863,250.496 201.196,254.496 180.5,258.5C 179.022,258.762 177.689,258.429 176.5,257.5C 176.667,257.167 176.833,256.833 177,256.5C 200.914,250.32 225.08,245.487 249.5,242C 248.051,243.117 246.384,243.784 244.5,244C 244.833,244.333 245.167,244.667 245.5,245C 244.263,245.232 243.263,245.732 242.5,246.5 Z"/></g>
<g><path style="opacity:0.948" fill="#373737" d="M 566.5,258.5 C 571.839,259.544 577.172,261.044 582.5,263C 580.655,264.128 578.655,264.628 576.5,264.5C 560.8,261.325 545.133,257.992 529.5,254.5C 528.194,253.533 527.527,252.199 527.5,250.5C 540.498,253.166 553.498,255.832 566.5,258.5 Z"/></g>
<g><path style="opacity:1" fill="#555555" d="M 454.5,234.5 C 479.097,237.203 503.43,241.203 527.5,246.5C 527.881,247.931 528.881,248.764 530.5,249C 543.966,251.366 557.299,254.366 570.5,258C 569.207,258.49 567.873,258.657 566.5,258.5C 553.498,255.832 540.498,253.166 527.5,250.5C 527.527,252.199 528.194,253.533 529.5,254.5C 526.627,254.198 523.961,253.531 521.5,252.5C 523.665,252.884 525.332,252.217 526.5,250.5C 523.349,249.106 520.349,249.273 517.5,251C 518.737,251.232 519.737,251.732 520.5,252.5C 517.273,252.324 514.273,251.657 511.5,250.5C 513.786,250.405 515.786,249.738 517.5,248.5C 519.527,248.662 521.527,248.495 523.5,248C 513.126,245.772 502.793,243.439 492.5,241C 479.433,240.212 466.766,238.045 454.5,234.5 Z"/></g>
<g><path style="opacity:0.979" fill="#2b2b2b" d="M 521.5,252.5 C 521.167,252.5 520.833,252.5 520.5,252.5C 519.737,251.732 518.737,251.232 517.5,251C 520.349,249.273 523.349,249.106 526.5,250.5C 525.332,252.217 523.665,252.884 521.5,252.5 Z"/></g>
<g><path style="opacity:0.997" fill="#444444" d="M 660.5,247.5 C 661.263,248.268 662.263,248.768 663.5,249C 662.5,249.333 661.5,249.667 660.5,250C 661.787,251.41 662.954,252.91 664,254.5C 664.956,253.106 666.289,252.439 668,252.5C 670.605,253.188 673.105,253.521 675.5,253.5C 675.833,253.5 676.167,253.5 676.5,253.5C 676.738,255.404 677.738,256.738 679.5,257.5C 680.218,259.137 680.384,260.803 680,262.5C 679.586,262.043 679.086,261.709 678.5,261.5C 677.818,262.243 677.151,262.909 676.5,263.5C 666.644,260.573 656.644,258.24 646.5,256.5C 646.466,253.801 647.133,251.301 648.5,249C 647.906,248.536 647.239,248.369 646.5,248.5C 646.5,248.167 646.5,247.833 646.5,247.5C 648.436,246.741 650.269,245.741 652,244.5C 655.078,245.134 657.911,246.134 660.5,247.5 Z"/></g>
<g><path style="opacity:0.31" fill="#a1a1a1" d="M 676.5,253.5 C 678.262,254.262 679.262,255.596 679.5,257.5C 677.738,256.738 676.738,255.404 676.5,253.5 Z"/></g>
<g><path style="opacity:1" fill="#2b2b2b" d="M 127.5,262.5 C 127.5,262.833 127.5,263.167 127.5,263.5C 126.292,264.234 124.959,264.567 123.5,264.5C 123.918,263.778 124.584,263.278 125.5,263C 125,262.833 124.5,262.667 124,262.5C 109.254,266.615 94.421,270.281 79.5,273.5C 116.06,262.814 153.06,253.314 190.5,245C 192.5,244.333 194.5,244.333 196.5,245C 172.575,249.972 149.575,255.805 127.5,262.5 Z"/></g>
<g><path style="opacity:0.459" fill="#797979" d="M 44.5,257.5 C 43.1667,259.5 41.5,261.167 39.5,262.5C 40.1667,259.833 41.8333,258.167 44.5,257.5 Z"/></g>
<g><path style="opacity:0.741" fill="#494949" d="M 175.5,259.5 C 170.427,261.435 165.094,262.768 159.5,263.5C 158.022,263.762 156.689,263.429 155.5,262.5C 155.709,261.914 156.043,261.414 156.5,261C 161.393,259.36 166.393,258.193 171.5,257.5C 173.333,257.585 174.666,258.252 175.5,259.5 Z"/></g>
<g><path style="opacity:1" fill="#333333" d="M 646.5,256.5 C 656.644,258.24 666.644,260.573 676.5,263.5C 676.918,264.222 677.584,264.722 678.5,265C 676.5,265.667 674.5,265.667 672.5,265C 664.119,262.927 655.786,260.76 647.5,258.5C 647.141,260.766 647.808,262.599 649.5,264C 661.128,267.324 672.794,270.49 684.5,273.5C 687.165,272.112 688.165,273.112 687.5,276.5C 687.5,277.167 687.167,277.5 686.5,277.5C 684.621,276.659 682.621,276.325 680.5,276.5C 681.953,275.175 681.619,274.342 679.5,274C 668.479,271.15 657.479,268.317 646.5,265.5C 646.5,262.5 646.5,259.5 646.5,256.5 Z"/></g>
<g><path style="opacity:1" fill="#464646" d="M 527.5,246.5 C 548.25,250.416 568.916,254.749 589.5,259.5C 593.044,259.885 596.377,260.885 599.5,262.5C 599.389,263.117 599.056,263.617 598.5,264C 602.009,264.422 605.343,265.422 608.5,267C 601.143,266.448 593.81,265.281 586.5,263.5C 585.5,263.667 584.5,263.833 583.5,264C 586.968,264.23 589.634,265.73 591.5,268.5C 586.327,267.406 581.327,266.072 576.5,264.5C 578.655,264.628 580.655,264.128 582.5,263C 577.172,261.044 571.839,259.544 566.5,258.5C 567.873,258.657 569.207,258.49 570.5,258C 557.299,254.366 543.966,251.366 530.5,249C 528.881,248.764 527.881,247.931 527.5,246.5 Z"/></g>
<g><path style="opacity:1" fill="#525252" d="M 679.5,257.5 C 682.601,261.915 685.434,266.582 688,271.5C 688.78,273.387 688.613,275.054 687.5,276.5C 688.165,273.112 687.165,272.112 684.5,273.5C 672.794,270.49 661.128,267.324 649.5,264C 647.808,262.599 647.141,260.766 647.5,258.5C 655.786,260.76 664.119,262.927 672.5,265C 674.5,265.667 676.5,265.667 678.5,265C 677.584,264.722 676.918,264.222 676.5,263.5C 677.151,262.909 677.818,262.243 678.5,261.5C 679.086,261.709 679.586,262.043 680,262.5C 680.384,260.803 680.218,259.137 679.5,257.5 Z"/></g>
<g><path style="opacity:1" fill="#3c3c3c" d="M 599.5,262.5 C 625.214,268.508 650.881,274.508 676.5,280.5C 676.833,281.5 677.5,282.167 678.5,282.5C 678.628,284.655 678.128,286.655 677,288.5C 675.708,289.791 674.542,289.791 673.5,288.5C 671.485,287.076 669.152,286.41 666.5,286.5C 660.906,285.768 655.573,284.435 650.5,282.5C 658.52,283.503 666.52,284.337 674.5,285C 658.667,280.708 642.667,276.708 626.5,273C 624.5,272.333 622.5,272.333 620.5,273C 623.822,273.059 626.656,274.226 629,276.5C 630.395,275.185 631.395,275.519 632,277.5C 635.802,276.31 638.969,277.31 641.5,280.5C 624.757,276.814 608.091,272.814 591.5,268.5C 589.634,265.73 586.968,264.23 583.5,264C 584.5,263.833 585.5,263.667 586.5,263.5C 593.81,265.281 601.143,266.448 608.5,267C 605.343,265.422 602.009,264.422 598.5,264C 599.056,263.617 599.389,263.117 599.5,262.5 Z"/></g>
<g><path style="opacity:1" fill="#101010" d="M 560.5,248.5 C 578.178,252.502 595.845,256.502 613.5,260.5C 625.219,263.794 637.219,266.461 649.5,268.5C 657.447,273.321 666.113,275.654 675.5,275.5C 678.042,276.335 677.875,277.001 675,277.5C 672.192,276.614 669.359,276.447 666.5,277C 669.789,277.882 673.123,278.548 676.5,279C 677.738,279.69 677.738,280.19 676.5,280.5C 650.881,274.508 625.214,268.508 599.5,262.5C 596.377,260.885 593.044,259.885 589.5,259.5C 589.917,258.876 590.584,258.543 591.5,258.5C 596.434,260.055 601.434,260.888 606.5,261C 590.952,256.863 575.285,253.196 559.5,250C 558.288,248.893 558.621,248.393 560.5,248.5 Z"/></g>
<g><path style="opacity:1" fill="#1e1e1e" d="M 42.5,283.5 C 41.8333,283.5 41.1667,283.5 40.5,283.5C 40.5774,282.25 41.244,281.417 42.5,281C 40.2852,280.83 38.2852,280.163 36.5,279C 38.5,277.667 40.5,276.333 42.5,275C 51.6442,272.253 60.8109,269.42 70,266.5C 70.9454,266.905 71.6121,267.572 72,268.5C 72.6667,266.5 72.6667,264.5 72,262.5C 63.0309,265.66 53.8642,267.993 44.5,269.5C 53.8395,265.667 64.0061,262.334 75,259.5C 75.5,260.667 76.3333,261.5 77.5,262C 80.0285,261.895 82.3618,262.062 84.5,262.5C 81.5791,263.065 78.9124,264.232 76.5,266C 83.0321,265.618 89.3654,264.118 95.5,261.5C 97.0983,262.485 98.765,262.651 100.5,262C 102.862,258.605 105.528,258.105 108.5,260.5C 87.6462,267.174 66.6462,273.34 45.5,279C 43.4049,279.556 43.2382,280.056 45,280.5C 54.2796,277.137 63.7796,274.971 73.5,274C 62.9257,276.722 52.5923,279.888 42.5,283.5 Z"/></g>
<g><path style="opacity:1" fill="#444444" d="M 40.5,283.5 C 40.1667,283.5 39.8333,283.5 39.5,283.5C 37.0378,283.382 34.5378,283.049 32,282.5C 31.2042,279.961 31.3709,277.628 32.5,275.5C 34.7271,274.599 35.7271,272.933 35.5,270.5C 35.2627,269.209 35.596,268.209 36.5,267.5C 36.3505,268.552 36.5172,269.552 37,270.5C 39.5582,270.515 42.0582,270.182 44.5,269.5C 53.8642,267.993 63.0309,265.66 72,262.5C 72.6667,264.5 72.6667,266.5 72,268.5C 71.6121,267.572 70.9454,266.905 70,266.5C 60.8109,269.42 51.6442,272.253 42.5,275C 40.5,276.333 38.5,277.667 36.5,279C 38.2852,280.163 40.2852,280.83 42.5,281C 41.244,281.417 40.5774,282.25 40.5,283.5 Z"/></g>
<g><path style="opacity:1" fill="#1c1c1c" d="M 646.5,248.5 C 647.239,248.369 647.906,248.536 648.5,249C 647.133,251.301 646.466,253.801 646.5,256.5C 646.5,259.5 646.5,262.5 646.5,265.5C 657.479,268.317 668.479,271.15 679.5,274C 681.619,274.342 681.953,275.175 680.5,276.5C 680.443,277.609 680.11,278.609 679.5,279.5C 679.737,280.791 679.404,281.791 678.5,282.5C 677.5,282.167 676.833,281.5 676.5,280.5C 677.738,280.19 677.738,279.69 676.5,279C 673.123,278.548 669.789,277.882 666.5,277C 669.359,276.447 672.192,276.614 675,277.5C 677.875,277.001 678.042,276.335 675.5,275.5C 666.113,275.654 657.447,273.321 649.5,268.5C 637.219,266.461 625.219,263.794 613.5,260.5C 619.342,260.446 625.009,261.446 630.5,263.5C 635.328,263.247 639.995,263.247 644.5,263.5C 645.625,262.652 645.625,261.652 644.5,260.5C 644.368,257.43 644.701,254.43 645.5,251.5C 646.11,250.609 646.443,249.609 646.5,248.5 Z"/></g>
<g><path style="opacity:0.4" fill="#bbbbbb" d="M 35.5,270.5 C 35.7271,272.933 34.7271,274.599 32.5,275.5C 33.1103,273.566 34.1103,271.899 35.5,270.5 Z"/></g>
<g><path style="opacity:0.838" fill="#3f3f3f" d="M 153.5,265.5 C 134.536,270.324 115.536,274.991 96.5,279.5C 95.2438,279.539 94.2438,279.039 93.5,278C 94.8333,277.333 96.1667,276.667 97.5,276C 109.541,272.93 121.541,269.763 133.5,266.5C 134.492,266.672 135.158,266.338 135.5,265.5C 141.251,264.584 146.918,263.251 152.5,261.5C 153.167,261.667 153.833,261.833 154.5,262C 154.381,263.145 154.048,264.312 153.5,265.5 Z"/></g>
<g><path style="opacity:0.733" fill="#636363" d="M 680.5,276.5 C 682.621,276.325 684.621,276.659 686.5,277.5C 684.343,278.407 682.01,279.073 679.5,279.5C 680.11,278.609 680.443,277.609 680.5,276.5 Z"/></g>
<g><path style="opacity:1" fill="#0f0f0f" d="M 123.5,264.5 C 98.0614,270.889 72.7281,277.722 47.5,285C 45.6131,285.78 43.9464,285.613 42.5,284.5C 55.0558,281.199 67.3891,277.532 79.5,273.5C 94.421,270.281 109.254,266.615 124,262.5C 124.5,262.667 125,262.833 125.5,263C 124.584,263.278 123.918,263.778 123.5,264.5 Z"/></g>
<g><path style="opacity:0.987" fill="#2b2b2b" d="M 650.5,282.5 C 650.167,282.5 649.833,282.5 649.5,282.5C 647.162,280.96 644.495,280.294 641.5,280.5C 638.969,277.31 635.802,276.31 632,277.5C 631.395,275.519 630.395,275.185 629,276.5C 626.656,274.226 623.822,273.059 620.5,273C 622.5,272.333 624.5,272.333 626.5,273C 642.667,276.708 658.667,280.708 674.5,285C 666.52,284.337 658.52,283.503 650.5,282.5 Z"/></g>
<g><path style="opacity:0.255" fill="#6e6e6e" d="M 641.5,280.5 C 644.495,280.294 647.162,280.96 649.5,282.5C 646.572,282.435 643.905,281.768 641.5,280.5 Z"/></g>
<g><path style="opacity:1" fill="#5c5c5c" d="M 127.5,263.5 C 127.886,265.049 129.886,266.049 133.5,266.5C 121.541,269.763 109.541,272.93 97.5,276C 96.1667,276.667 94.8333,277.333 93.5,278C 94.2438,279.039 95.2438,279.539 96.5,279.5C 95.4324,280.434 94.099,280.768 92.5,280.5C 92.0296,279.307 91.0296,278.64 89.5,278.5C 88.5,278.667 87.5,278.833 86.5,279C 72.286,282.789 57.9526,286.289 43.5,289.5C 43.5,290.5 43.5,291.5 43.5,292.5C 42.4217,290.461 41.4217,288.294 40.5,286C 40.8333,285.667 41.1667,285.333 41.5,285C 40.5842,284.722 39.9175,284.222 39.5,283.5C 39.8333,283.5 40.1667,283.5 40.5,283.5C 41.1667,283.5 41.8333,283.5 42.5,283.5C 42.5,283.833 42.5,284.167 42.5,284.5C 43.9464,285.613 45.6131,285.78 47.5,285C 72.7281,277.722 98.0614,270.889 123.5,264.5C 124.959,264.567 126.292,264.234 127.5,263.5 Z"/></g>
<g><path style="opacity:0.924" fill="#3c3c3c" d="M 92.5,280.5 C 78.42,285.108 64.0867,289.275 49.5,293C 47.2884,293.789 45.2884,293.622 43.5,292.5C 43.5,291.5 43.5,290.5 43.5,289.5C 57.9526,286.289 72.286,282.789 86.5,279C 87.5,278.833 88.5,278.667 89.5,278.5C 91.0296,278.64 92.0296,279.307 92.5,280.5 Z"/></g>
<g><path style="opacity:0.302" fill="#7b7b7b" d="M 666.5,286.5 C 669.152,286.41 671.485,287.076 673.5,288.5C 670.848,288.59 668.515,287.924 666.5,286.5 Z"/></g>
</svg>
