<?xml version="1.0" encoding="UTF-8"?>
<!DOCTYPE svg PUBLIC "-//W3C//DTD SVG 1.1//EN" "http://www.w3.org/Graphics/SVG/1.1/DTD/svg11.dtd">
<svg xmlns="http://www.w3.org/2000/svg" version="1.1" width="512px" height="512px" style="shape-rendering:geometricPrecision; text-rendering:geometricPrecision; image-rendering:optimizeQuality; fill-rule:evenodd; clip-rule:evenodd" xmlns:xlink="http://www.w3.org/1999/xlink">
<g><path style="opacity:0.989" fill="#de7368" d="M 511.5,87.5 C 511.5,97.8333 511.5,108.167 511.5,118.5C 505.975,132.867 496.309,143.701 482.5,151C 461.302,162.844 438.635,170.511 414.5,174C 363.826,182.184 314.16,178.184 265.5,162C 253.229,157.202 241.896,150.868 231.5,143C 214.923,128.883 209.09,111.049 214,89.5C 216.053,80.2232 220.553,72.3899 227.5,66C 243.711,52.7272 262.044,43.3938 282.5,38C 340.567,22.9068 398.234,24.2401 455.5,42C 473.87,47.9256 489.703,57.7589 503,71.5C 506.656,76.4828 509.489,81.8161 511.5,87.5 Z"/></g>
<g><path style="opacity:0.985" fill="#de7368" d="M -0.5,232.5 C -0.5,222.167 -0.5,211.833 -0.5,201.5C 4.50967,189.359 12.5097,179.526 23.5,172C 53.4491,154.687 85.7825,145.02 120.5,143C 143.89,140.927 167.223,141.427 190.5,144.5C 190.5,192.833 190.5,241.167 190.5,289.5C 140.848,296.446 92.515,291.279 45.5,274C 31.6972,268.184 19.5305,260.018 9,249.5C 4.76313,244.353 1.59647,238.686 -0.5,232.5 Z"/></g>
<g><path style="opacity:0.968" fill="#de7368" d="M 511.5,162.5 C 511.5,172.833 511.5,183.167 511.5,193.5C 505.639,208.204 495.639,219.371 481.5,227C 449.495,243.271 415.495,251.937 379.5,253C 341.179,255.21 303.846,250.21 267.5,238C 249.336,231.826 233.836,221.659 221,207.5C 214.908,198.799 212.408,189.132 213.5,178.5C 212.904,170.837 214.071,163.504 217,156.5C 229.156,174.669 245.656,187.169 266.5,194C 325.31,213.785 384.643,215.452 444.5,199C 466.129,193.275 484.962,182.775 501,167.5C 503.5,163.833 506,160.167 508.5,156.5C 509.518,158.594 510.518,160.594 511.5,162.5 Z"/></g>
<g><path style="opacity:0.969" fill="#de7368" d="M 511.5,238.5 C 511.5,248.5 511.5,258.5 511.5,268.5C 505.311,283.533 494.977,295.033 480.5,303C 454.134,316.593 426.134,324.593 396.5,327C 350.216,332.117 305.216,326.784 261.5,311C 244.159,304.642 229.992,294.142 219,279.5C 214.322,271.453 212.489,262.787 213.5,253.5C 212.906,245.854 214.072,238.521 217,231.5C 222.783,242.283 230.949,250.783 241.5,257C 269.8,272.661 300.133,281.661 332.5,284C 375.197,288.33 416.863,283.663 457.5,270C 474.727,264.142 489.561,254.642 502,241.5C 504.503,238.498 506.503,235.165 508,231.5C 509.616,233.713 510.783,236.047 511.5,238.5 Z"/></g>
<g><path style="opacity:0.968" fill="#de7368" d="M -0.5,307.5 C -0.5,297.167 -0.5,286.833 -0.5,276.5C 0.374833,274.432 1.5415,272.432 3,270.5C 9.11701,281.617 17.617,290.451 28.5,297C 60.9747,314.119 95.6414,323.119 132.5,324C 151.925,324.956 171.258,324.122 190.5,321.5C 190.5,336.167 190.5,350.833 190.5,365.5C 148.942,370.369 107.942,367.535 67.5,357C 44.4067,351.376 24.5734,340.21 8,323.5C 4.33905,318.507 1.50572,313.173 -0.5,307.5 Z"/></g>
<g><path style="opacity:0.967" fill="#de7368" d="M 511.5,317.5 C 511.5,327.833 511.5,338.167 511.5,348.5C 508.409,357.157 503.409,364.657 496.5,371C 473.924,387.869 448.591,398.536 420.5,403C 367.872,412.476 316.205,408.81 265.5,392C 245.953,385.43 230.119,373.93 218,357.5C 214.154,349.62 212.654,341.287 213.5,332.5C 213.667,328.167 213.833,323.833 214,319.5C 214.417,316.578 215.417,313.911 217,311.5C 227.54,327.364 241.706,338.864 259.5,346C 300.422,361.575 342.756,367.575 386.5,364C 420.105,362.281 451.771,353.615 481.5,338C 492.726,331.396 501.726,322.563 508.5,311.5C 509.518,313.594 510.518,315.594 511.5,317.5 Z"/></g>
<g><path style="opacity:0.968" fill="#de7368" d="M -0.5,383.5 C -0.5,373.167 -0.5,362.833 -0.5,352.5C 0.482403,350.594 1.4824,348.594 2.5,346.5C 10.0425,357.875 19.7091,367.042 31.5,374C 61.3561,389.048 93.0228,397.381 126.5,399C 147.872,399.863 169.205,399.363 190.5,397.5C 190.334,406.506 190.5,415.506 191,424.5C 192.41,429.559 193.91,434.559 195.5,439.5C 153.08,445.254 111.08,443.087 69.5,433C 51.5143,428.004 34.8476,420.338 19.5,410C 10.3135,402.992 3.6468,394.158 -0.5,383.5 Z"/></g>
<g><path style="opacity:0.968" fill="#de7368" d="M 511.5,392.5 C 511.5,402.833 511.5,413.167 511.5,423.5C 505.639,438.204 495.639,449.371 481.5,457C 449.544,473.489 415.544,482.156 379.5,483C 341.161,485.37 303.827,480.37 267.5,468C 248.029,461.369 231.862,450.202 219,434.5C 214.322,426.453 212.489,417.787 213.5,408.5C 212.904,400.837 214.071,393.504 217,386.5C 226.099,401.267 238.599,412.1 254.5,419C 292.547,434.913 332.214,441.913 373.5,440C 410.426,439.55 445.426,431.217 478.5,415C 491.256,408.41 501.256,398.91 508.5,386.5C 509.518,388.594 510.518,390.594 511.5,392.5 Z"/></g>
</svg>
