<?xml version="1.0" encoding="UTF-8"?>
<!DOCTYPE svg PUBLIC "-//W3C//DTD SVG 1.1//EN" "http://www.w3.org/Graphics/SVG/1.1/DTD/svg11.dtd">
<svg xmlns="http://www.w3.org/2000/svg" version="1.1" width="512px" height="512px" style="shape-rendering:geometricPrecision; text-rendering:geometricPrecision; image-rendering:optimizeQuality; fill-rule:evenodd; clip-rule:evenodd" xmlns:xlink="http://www.w3.org/1999/xlink">
<g><path style="opacity:0.964" fill="#030000" d="M 448.5,275.5 C 446.621,272.885 444.288,270.719 441.5,269C 472.235,234.995 480.068,196.162 465,152.5C 460.16,142.177 454.327,132.51 447.5,123.5C 445.163,152.95 431.83,175.783 407.5,192C 404.412,192.847 401.579,192.347 399,190.5C 390.259,148.669 369.092,114.669 335.5,88.5C 336.588,112.431 328.254,132.264 310.5,148C 304.592,153.25 299.758,152.417 296,145.5C 295.667,138.5 295.333,131.5 295,124.5C 293.604,120.208 291.104,116.708 287.5,114C 270.636,108.088 261.636,96.255 260.5,78.5C 261.597,67.6808 263.597,57.0141 266.5,46.5C 266.167,45.8333 265.833,45.1667 265.5,44.5C 254.171,52.0923 243.671,60.7589 234,70.5C 217.678,92.4511 211.345,117.118 215,144.5C 213.693,149.484 210.526,151.651 205.5,151C 190.602,144.808 178.769,134.975 170,121.5C 166.53,114.245 163.364,106.911 160.5,99.5C 138.518,120.11 123.685,145.11 116,174.5C 112.987,179.535 108.82,180.702 103.5,178C 89.1093,155.378 68.6093,141.878 42,137.5C 41.5,137.833 41,138.167 40.5,138.5C 45.9322,146.445 50.7655,154.778 55,163.5C 56.8651,169.19 58.0318,175.023 58.5,181C 56.8737,193.672 54.3737,206.172 51,218.5C 48.5247,241.15 52.358,262.65 62.5,283C 60.1965,284.626 58.1965,286.459 56.5,288.5C 53.9998,290.45 51.3332,291.117 48.5,290.5C 32.0659,258.557 29.5659,225.557 41,191.5C 42.7911,180.887 41.1244,170.887 36,161.5C 29.3333,151.5 22.6667,141.5 16,131.5C 15.1834,128.036 15.5167,124.702 17,121.5C 51.4791,117.883 80.8124,128.55 105,153.5C 112.203,136.756 121.203,121.089 132,106.5C 141.833,95.3333 151.667,84.1667 161.5,73C 165.5,71 169.5,71 173.5,73C 174.126,73.7504 174.626,74.5838 175,75.5C 174.139,97.633 182.139,115.633 199,129.5C 197.78,94.7862 210.614,66.6195 237.5,45C 249.5,35.6667 261.5,26.3333 273.5,17C 277.781,14.891 281.948,15.0577 286,17.5C 287.006,19.5336 287.506,21.7002 287.5,24C 284.385,40.5751 280.885,57.0751 277,73.5C 275.122,82.5346 277.956,89.7013 285.5,95C 298.869,99.7002 307.369,108.867 311,122.5C 318.154,111.392 320.154,99.3917 317,86.5C 315.536,80.4423 313.87,74.4423 312,68.5C 309.822,56.8383 314.322,53.005 325.5,57C 335.868,67.0362 346.534,76.7029 357.5,86C 382.967,108.754 400.467,136.587 410,169.5C 423.56,155.699 430.56,139.032 431,119.5C 431.333,110.167 431.667,100.833 432,91.5C 433.529,88.484 436.029,87.1506 439.5,87.5C 443.503,87.2492 446.336,88.9158 448,92.5C 455.938,106.099 464.271,119.433 473,132.5C 483.967,151.367 488.8,171.701 487.5,193.5C 488.915,215.84 483.748,236.507 472,255.5C 466.064,263.719 459.897,271.719 453.5,279.5C 451.79,278.113 450.123,276.779 448.5,275.5 Z"/></g>
<g><path style="opacity:1" fill="#e36d64" d="M 448.5,275.5 C 444.54,279.47 440.873,283.804 437.5,288.5C 430.276,281.785 422.109,276.452 413,272.5C 401.108,240.149 388.441,208.149 375,176.5C 370.427,171.131 364.594,168.297 357.5,168C 286.5,167.333 215.5,167.333 144.5,168C 135.059,169.439 128.559,174.605 125,183.5C 115.664,213.511 106.331,243.511 97,273.5C 86.8593,277.063 78.5259,283.063 72,291.5C 69.807,295.23 67.6404,298.897 65.5,302.5C 62.5136,297.87 59.5136,293.203 56.5,288.5C 58.1965,286.459 60.1965,284.626 62.5,283C 52.358,262.65 48.5247,241.15 51,218.5C 54.3737,206.172 56.8737,193.672 58.5,181C 58.0318,175.023 56.8651,169.19 55,163.5C 50.7655,154.778 45.9322,146.445 40.5,138.5C 41,138.167 41.5,137.833 42,137.5C 68.6093,141.878 89.1093,155.378 103.5,178C 108.82,180.702 112.987,179.535 116,174.5C 123.685,145.11 138.518,120.11 160.5,99.5C 163.364,106.911 166.53,114.245 170,121.5C 178.769,134.975 190.602,144.808 205.5,151C 210.526,151.651 213.693,149.484 215,144.5C 211.345,117.118 217.678,92.4511 234,70.5C 243.671,60.7589 254.171,52.0923 265.5,44.5C 265.833,45.1667 266.167,45.8333 266.5,46.5C 263.597,57.0141 261.597,67.6808 260.5,78.5C 261.636,96.255 270.636,108.088 287.5,114C 291.104,116.708 293.604,120.208 295,124.5C 295.333,131.5 295.667,138.5 296,145.5C 299.758,152.417 304.592,153.25 310.5,148C 328.254,132.264 336.588,112.431 335.5,88.5C 369.092,114.669 390.259,148.669 399,190.5C 401.579,192.347 404.412,192.847 407.5,192C 431.83,175.783 445.163,152.95 447.5,123.5C 454.327,132.51 460.16,142.177 465,152.5C 480.068,196.162 472.235,234.995 441.5,269C 444.288,270.719 446.621,272.885 448.5,275.5 Z"/></g>
<g><path style="opacity:0.996" fill="#000000" d="M 437.5,288.5 C 440.726,291.93 443.226,295.93 445,300.5C 451.81,319.595 457.81,338.928 463,358.5C 463.667,398.5 463.667,438.5 463,478.5C 460.167,486.667 454.667,492.167 446.5,495C 433.833,495.667 421.167,495.667 408.5,495C 401.481,492.649 396.314,488.149 393,481.5C 391.59,472.916 391.09,464.25 391.5,455.5C 300.833,455.5 210.167,455.5 119.5,455.5C 119.91,464.25 119.41,472.916 118,481.5C 115.167,487 111,491.167 105.5,494C 91.9028,495.612 78.2361,495.945 64.5,495C 57.4808,492.649 52.3141,488.149 49,481.5C 47.3506,440.893 47.0173,400.226 48,359.5C 52.7295,340.146 58.5628,321.146 65.5,302.5C 67.6404,298.897 69.807,295.23 72,291.5C 78.5259,283.063 86.8593,277.063 97,273.5C 106.331,243.511 115.664,213.511 125,183.5C 128.559,174.605 135.059,169.439 144.5,168C 215.5,167.333 286.5,167.333 357.5,168C 364.594,168.297 370.427,171.131 375,176.5C 388.441,208.149 401.108,240.149 413,272.5C 422.109,276.452 430.276,281.785 437.5,288.5 Z"/></g>
<g><path style="opacity:1" fill="#004662" d="M 143.5,183.5 C 215.834,183.333 288.167,183.5 360.5,184C 364.199,188.396 366.866,193.396 368.5,199C 291.167,199.5 213.834,199.667 136.5,199.5C 137.301,193.407 139.635,188.074 143.5,183.5 Z"/></g>
<g><path style="opacity:1" fill="#c7c7c5" d="M 210.5,215.5 C 193.535,232.965 176.368,250.299 159,267.5C 158.7,269.066 159.2,270.399 160.5,271.5C 145.167,271.5 129.833,271.5 114.5,271.5C 119.781,252.875 125.448,234.375 131.5,216C 157.831,215.5 184.165,215.333 210.5,215.5 Z"/></g>
<g><path style="opacity:1" fill="#ececec" d="M 210.5,215.5 C 215.5,215.5 220.5,215.5 225.5,215.5C 227.109,216.898 227.942,218.565 228,220.5C 210.965,237.368 194.132,254.368 177.5,271.5C 171.833,271.5 166.167,271.5 160.5,271.5C 159.2,270.399 158.7,269.066 159,267.5C 176.368,250.299 193.535,232.965 210.5,215.5 Z"/></g>
<g><path style="opacity:1" fill="#c8c8c6" d="M 225.5,215.5 C 275.171,215.167 324.838,215.5 374.5,216.5C 381.5,234.5 388.5,252.5 395.5,270.5C 336.17,271.5 276.837,271.833 217.5,271.5C 227.812,260.854 238.145,250.187 248.5,239.5C 245.182,235.682 241.682,232.015 238,228.5C 225,241.5 212,254.5 199,267.5C 198.7,269.066 199.2,270.399 200.5,271.5C 192.833,271.5 185.167,271.5 177.5,271.5C 194.132,254.368 210.965,237.368 228,220.5C 227.942,218.565 227.109,216.898 225.5,215.5 Z"/></g>
<g><path style="opacity:1" fill="#ececec" d="M 217.5,271.5 C 211.833,271.5 206.167,271.5 200.5,271.5C 199.2,270.399 198.7,269.066 199,267.5C 212,254.5 225,241.5 238,228.5C 241.682,232.015 245.182,235.682 248.5,239.5C 238.145,250.187 227.812,260.854 217.5,271.5 Z"/></g>
<g><path style="opacity:1" fill="#004662" d="M 103.5,287.5 C 204.834,287.333 306.167,287.5 407.5,288C 416.172,290.251 423.005,295.084 428,302.5C 428.749,303.635 428.583,304.635 427.5,305.5C 401.219,310.213 374.886,314.713 348.5,319C 286.833,319.667 225.167,319.667 163.5,319C 136.485,314.498 109.485,309.998 82.5,305.5C 83.7102,300.768 86.3768,296.934 90.5,294C 94.657,291.255 98.9904,289.088 103.5,287.5 Z"/></g>
<g><path style="opacity:1" fill="#fabf00" d="M 76.5,320.5 C 104.147,324.941 131.814,329.275 159.5,333.5C 159.5,344.5 159.5,355.5 159.5,366.5C 137.49,363.475 115.49,360.308 93.5,357C 79.7484,353.002 73.2484,343.836 74,329.5C 74.7388,326.454 75.5721,323.454 76.5,320.5 Z"/></g>
<g><path style="opacity:1" fill="#fbbf00" d="M 429.5,320.5 C 431.288,320.215 432.955,320.548 434.5,321.5C 440.717,339.096 435.05,350.93 417.5,357C 395.562,360.222 373.562,363.055 351.5,365.5C 351.5,354.833 351.5,344.167 351.5,333.5C 377.732,329.795 403.732,325.461 429.5,320.5 Z"/></g>
<g><path style="opacity:1" fill="#004762" d="M 175.5,335.5 C 228.833,335.5 282.167,335.5 335.5,335.5C 335.5,346.167 335.5,356.833 335.5,367.5C 282.167,367.5 228.833,367.5 175.5,367.5C 175.5,356.833 175.5,346.167 175.5,335.5 Z"/></g>
<g><path style="opacity:1" fill="#004662" d="M 64.5,356.5 C 68.6424,360.794 73.309,364.627 78.5,368C 81.0891,369.197 83.7558,370.197 86.5,371C 110.734,375.2 135.068,378.7 159.5,381.5C 159.5,384.833 159.5,388.167 159.5,391.5C 127.5,391.5 95.5,391.5 63.5,391.5C 63.2787,379.807 63.612,368.14 64.5,356.5 Z"/></g>
<g><path style="opacity:1" fill="#004662" d="M 444.5,356.5 C 446.117,357.589 446.95,359.256 447,361.5C 447.5,371.494 447.666,381.494 447.5,391.5C 415.5,391.5 383.5,391.5 351.5,391.5C 351.5,388.167 351.5,384.833 351.5,381.5C 376.274,378.794 400.941,375.294 425.5,371C 433.468,368.185 439.801,363.352 444.5,356.5 Z"/></g>
<g><path style="opacity:1" fill="#004762" d="M 175.5,383.5 C 228.833,383.5 282.167,383.5 335.5,383.5C 335.5,402.167 335.5,420.833 335.5,439.5C 282.167,439.5 228.833,439.5 175.5,439.5C 175.5,420.833 175.5,402.167 175.5,383.5 Z"/></g>
<g><path style="opacity:1" fill="#000001" d="M 199.5,399.5 C 204.833,399.5 210.167,399.5 215.5,399.5C 215.5,404.833 215.5,410.167 215.5,415.5C 210.167,415.5 204.833,415.5 199.5,415.5C 199.5,410.167 199.5,404.833 199.5,399.5 Z"/></g>
<g><path style="opacity:1" fill="#000001" d="M 231.5,399.5 C 236.833,399.5 242.167,399.5 247.5,399.5C 247.5,404.833 247.5,410.167 247.5,415.5C 242.167,415.5 236.833,415.5 231.5,415.5C 231.5,410.167 231.5,404.833 231.5,399.5 Z"/></g>
<g><path style="opacity:1" fill="#000001" d="M 263.5,399.5 C 268.833,399.5 274.167,399.5 279.5,399.5C 279.5,404.833 279.5,410.167 279.5,415.5C 274.167,415.5 268.833,415.5 263.5,415.5C 263.5,410.167 263.5,404.833 263.5,399.5 Z"/></g>
<g><path style="opacity:1" fill="#000001" d="M 295.5,399.5 C 300.833,399.5 306.167,399.5 311.5,399.5C 311.5,404.833 311.5,410.167 311.5,415.5C 306.167,415.5 300.833,415.5 295.5,415.5C 295.5,410.167 295.5,404.833 295.5,399.5 Z"/></g>
<g><path style="opacity:1" fill="#004762" d="M 63.5,407.5 C 95.5,407.5 127.5,407.5 159.5,407.5C 159.5,418.167 159.5,428.833 159.5,439.5C 127.5,439.5 95.5,439.5 63.5,439.5C 63.5,428.833 63.5,418.167 63.5,407.5 Z"/></g>
<g><path style="opacity:1" fill="#004762" d="M 351.5,407.5 C 383.5,407.5 415.5,407.5 447.5,407.5C 447.5,418.167 447.5,428.833 447.5,439.5C 415.5,439.5 383.5,439.5 351.5,439.5C 351.5,428.833 351.5,418.167 351.5,407.5 Z"/></g>
<g><path style="opacity:1" fill="#6d6a73" d="M 63.5,455.5 C 76.8333,455.5 90.1667,455.5 103.5,455.5C 103.925,462.615 103.425,469.615 102,476.5C 101.097,477.701 99.9308,478.535 98.5,479C 88.5,479.667 78.5,479.667 68.5,479C 67.0692,478.535 65.9025,477.701 65,476.5C 63.5753,469.615 63.0753,462.615 63.5,455.5 Z"/></g>
<g><path style="opacity:1" fill="#6d6a73" d="M 407.5,455.5 C 420.833,455.5 434.167,455.5 447.5,455.5C 447.925,462.615 447.425,469.615 446,476.5C 445.097,477.701 443.931,478.535 442.5,479C 432.5,479.667 422.5,479.667 412.5,479C 411.069,478.535 409.903,477.701 409,476.5C 407.575,469.615 407.075,462.615 407.5,455.5 Z"/></g>
</svg>
