<?xml version="1.0" encoding="utf-8"?>
<!-- Generator: Adobe Illustrator 26.5.3, SVG Export Plug-In . SVG Version: 6.00 Build 0)  -->
<svg version="1.1" id="Camada_1" xmlns="http://www.w3.org/2000/svg" xmlns:xlink="http://www.w3.org/1999/xlink" x="0px" y="0px"
	 viewBox="0 0 1562 1562" style="enable-background:new 0 0 1562 1562;" xml:space="preserve">
<style type="text/css">
	.st0{fill:#FEFEFE;}
	.st1{fill:#FE7569;}
	.st2{fill:#FD7469;}
	.st3{fill:#43179C;}
	.st4{fill:#014562;}
	.st5{fill:#018E4B;}
	.st6{fill:#CDF0FE;}
	.st7{fill:#FDFDFD;}
	.st8{fill:#3EA4CB;}
	.st9{fill:#FCFDFD;}
	.st10{fill:#3FA5CB;}
	.st11{fill:#81BFD9;}
	.st12{fill:#19024E;}
	.st13{fill:#8B51F6;}
	.st14{fill:#FB735E;}
	.st15{fill:#FD8675;}
</style>
<g>
	<g>
		<path class="st0" d="M781,1084.9c-103.3,0-206.6-0.02-309.91,0.1c-3.42,0-4.1-0.67-4.09-4.09c0.11-199.94,0.11-399.87,0-599.81
			c0-3.42,0.67-4.1,4.09-4.09c206.6,0.11,413.21,0.11,619.81,0c3.42,0,4.1,0.67,4.09,4.09c-0.11,199.94-0.11,399.88,0,599.81
			c0,3.42-0.67,4.1-4.09,4.09C987.6,1084.88,884.3,1084.9,781,1084.9z M525.11,699.06c0.33-0.33,0.67-0.67,1-1
			c2.31-0.36,3.67-1.67,4.01-4c0.14-0.15,0.27-0.31,0.41-0.46c-0.16,0.13-0.32,0.26-0.47,0.4c-2.31,0.36-3.67,1.67-4.01,4
			c-0.33,0.33-0.67,0.66-1,1c-0.33,0.33-0.66,0.66-0.99,0.99c-1.04,0.13-1.92,0.44-1.84,1.73c0.01,0.22,0.39,0.63,0.52,0.6
			c1.19-0.27,1.26-1.29,1.39-2.25C524.44,699.72,524.78,699.39,525.11,699.06z M925.96,503.08c-0.41-0.83-1.17-0.98-1.99-1.01
			c-2.67-2.26-5.92-2.97-9.25-3.47c2.77,1.98,5.64,3.69,9.22,3.51c0.42,0.83,1.17,0.99,2,0.99c0.42,0.84,1.17,1,2,1
			c1.06,2,2.95,2.64,5,3.01c0.42,0.82,1.16,1.01,2,1c0.33,0.33,0.66,0.67,0.99,1c0.42,0.82,1.16,1.01,2,1
			c0.34,0.33,0.67,0.66,1.01,0.99c0.57,1.31,1.53,2.02,2.99,2.02c0.12,1.04,0.45,1.91,1.72,1.83c0.22-0.01,0.62-0.39,0.59-0.52
			c-0.29-1.18-1.31-1.24-2.26-1.36c-0.58-1.3-1.54-2.03-3.01-1.99c-0.33-0.33-0.66-0.67-0.99-1c-0.42-0.82-1.16-1.01-2-1.01
			c-0.33-0.33-0.67-0.66-1-0.99c-0.42-0.82-1.16-1-1.99-1.01c-1.07-2-2.96-2.64-5.01-2.99C927.54,503.25,926.79,503.1,925.96,503.08
			z M537.04,687.99c-0.44,0.15-0.88,0.29-1.33,0.44c0.09,0.13,0.26,0.38,0.26,0.37c0.38-0.24,0.75-0.49,1.12-0.75
			c0.33-0.33,0.66-0.66,0.99-0.99c1.45,0,2.42-0.71,3-2.01c0.33-0.33,0.66-0.66,1-0.99c1.45,0.01,2.42-0.7,3.01-2
			c0.33-0.34,0.66-0.67,0.99-1c4.71-1.6,8.68-4.31,12.01-7.99c1.44-0.02,2.42-0.71,3-2c0.33-0.33,0.67-0.66,1-0.98
			c1.7-0.42,3.51-0.69,4.42-2.86c-2.59-0.21-3.53,1.3-4.49,2.78c-0.33,0.33-0.66,0.66-0.99,0.99c-1.44,0.01-2.42,0.71-2.99,2.01
			c-4.69,1.64-8.69,4.3-11.99,8.02c-0.34,0.33-0.67,0.65-1.01,0.98c-1.45,0-2.42,0.71-3,2.01c-0.33,0.33-0.67,0.66-1,0.99
			c-1.45-0.01-2.42,0.71-3,2C537.71,687.34,537.38,687.66,537.04,687.99z M1052.9,771.98c-1.3,0.57-1.99,1.56-2.02,2.99
			c-6.44,6.84-9.61,15.33-12.1,24.14c-2.56,9.09-4.34,18.32-4.94,29.08c1.49-2.67,1.93-4.19,2.09-5.87
			c0.97-10.4,3.22-20.49,6.76-30.36c2.15-5.99,6.54-10.79,8.26-16.92c1.29-0.59,2-1.56,1.99-3c0.33-0.33,0.66-0.66,1-0.99
			c2.58-1.68,4.05-4.16,4.99-7.01c2.73-2.11,4.03-5.27,5.43-8.17c9.17-19.05,9.9-39.25,7.2-59.71c-0.39-2.98,0.54-6.66-2.63-9.83
			c0,1.63-0.18,2.64,0.03,3.57c2.45,10.95,1.87,22.08,1.96,33.17c0.07,8.76-2.48,16.92-5,25.17c-1.71,5.59-6.17,9.85-7.04,15.75
			c-3.01,1.37-4.23,4.02-5.01,7C1053.55,771.31,1053.23,771.64,1052.9,771.98z M586.09,1001.89c-0.37-0.25-0.74-0.5-1.12-0.73
			c-0.01-0.01-0.17,0.24-0.26,0.37c0.44,0.15,0.87,0.3,1.31,0.45c0.13,1.04,0.47,1.91,1.74,1.82c0.22-0.02,0.62-0.39,0.59-0.52
			C588.06,1002.1,587.04,1002.03,586.09,1001.89z M633.07,1028.88c-0.51-0.4-0.97-0.92-1.55-1.17
			c-14.04-6.02-27.28-13.44-39.73-22.3c-0.63-0.45-1.45-0.78-2.3,0.6c6.24,3.99,12.26,8.35,18.75,11.86
			c7.95,4.29,15.67,9.26,24.75,11.1c1.39,1.55,3.31,2.2,5.17,2.83c12.69,4.26,25.45,8.25,38.76,10.19
			c5.65,0.83,11.27,1.65,17.96,1.89c-2.28-1.96-3.93-1.89-5.59-1.98c-10.09-0.53-19.99-2.32-29.69-5.01
			C650.71,1034.41,641.91,1031.57,633.07,1028.88z M1030.05,850.06c-0.41-0.03-0.82-0.06-1.23-0.1c-3-1.43-4.95,0.68-7.11,2.1
			c-1.25-1.04-0.92-2.51-0.7-3.72c2.19-11.98,2.72-24.16,3.71-36.25c1.16-14.1,4.63-27.06,12.99-38.57
			c12.4-17.07,20.16-36.14,21.97-57.09c1.6-18.5-0.52-36.76-7.64-54.29c-5.94-14.62-15.03-26.64-27.6-35.96
			c-8.19-6.08-17.58-10.22-26.5-15.09c-10.93-5.96-20.14-13.53-26.31-24.61c-4.97-8.93-8.32-18.5-11.61-28.06
			c-8.64-25.11-25.34-41.44-50.74-49.47c-20.74-6.56-42.14-8.26-63.55-9.73c-14.38-0.99-28.85-0.27-43.29-0.88
			c-15.38-0.65-30.83-0.48-46.29,0.5c-14.34,0.91-28.59,2.26-42.45,5.59c-30.57,7.34-58.03,20.72-79.21,44.79
			c-9.12,10.37-15.45,22.28-18.5,35.92c-2.98,13.36-1.61,26.97-2.83,40.44c-1.28,14.17-5.39,26.83-15.41,37.37
			c-9.12,9.6-20.45,15.95-31.64,22.5c-16.04,9.39-30.31,20.56-41.24,35.94c-18.24,25.68-24.59,54.86-25.61,85.48
			c-0.51,15.27,1.6,30.47,4.69,45.55c7.21,35.25,22.73,66.43,44.87,94.52c0.21,2.32,0.42,4.64,0.64,6.96
			c-0.54,1.1-1.56,1.08-2.55,1.04c-3.9-0.19-4.74,2.21-4.57,5.42c0.17,3.22,0.87,5.77,5.07,5.58c5.93-0.26,11.88-0.17,17.83-0.23
			c13.27,13.88,27.95,26,44.25,36.19c17.06,10.66,35.07,18.95,54.61,24.11c30.48,8.05,61.68,11.1,92.94,12.67
			c27.21,1.37,54.44,0.31,81.48-4.57c26.29-4.74,51.41-12.66,75.43-24.19c23.2-11.13,43.39-26.52,61.9-44.22
			c14.64,0.06,29.27,0.03,43.91,0.25c4.15,0.06,6.18-1.25,6.19-5.64c0-4.39-1.99-5.91-6.14-5.39c-1.64,0.2-3.32,0.06-4.99,0.02
			c-0.97-0.03-1.92,0.06-1.65-1.57c1.28-7.69,2.29-15.43,3.71-23.1c1.18-6.38,0.16-7.54-6.38-6.34c-0.8,0.15-1.66-0.05-2.49-0.08
			c0.17-4.31,0.33-8.61,0.5-12.92c3.01-4.5,3.46-9.93,5.37-14.83c1.37-1.22,3.04-1.16,4.7-1.06c8.79,0.55,12.84-3.09,14.46-11.54
			c1.88-9.81-0.3-19.46-0.13-29.19C1032.92,852.36,1031.85,850.9,1030.05,850.06z M514.85,710.92
			c-16.92,22.89-26.06,48.4-25.21,77.14C490.73,759.96,498.81,734.17,514.85,710.92z M968.63,546.79
			c-1.68-7.31-7.89-16.85-11.87-18.42C961.34,534.1,964.66,540.62,968.63,546.79z M954.37,525.51c-1.67-4.36-4.27-7.68-8.89-8.83
			C948.45,519.62,951.41,522.57,954.37,525.51z M583.78,999.55c-1.24-1.65-2.12-2.96-4.25-2.17
			C580.45,998.97,581.32,1000.09,583.78,999.55z M576.52,658.98c2.36-0.06,3.36-0.92,4.03-2.65
			C578.27,655.92,577.34,656.96,576.52,658.98z M516.34,709.9c0.97-0.86,1.64-1.29,2.07-1.89c0.51-0.7,1.2-1.57-0.06-2.35
			C517.02,706.4,516.03,707.31,516.34,709.9z M574.86,661.55c-0.83-0.2-1.32-0.48-1.66-0.35c-0.53,0.21-1.32,0.66-1.35,1.07
			c-0.08,0.87,0.77,0.81,1.31,0.58C573.69,662.61,574.11,662.14,574.86,661.55z M570.32,664.93c0.12-0.64-0.29-0.9-0.77-0.78
			c-0.58,0.14-1.21,0.39-1.63,0.79c-0.42,0.41-0.07,0.87,0.44,0.96C569.21,666.06,569.88,665.7,570.32,664.93z M577.3,994.86
			c0.13,0.26,0.19,0.64,0.39,0.75c0.18,0.1,0.52-0.1,0.79-0.17c-0.14-0.26-0.22-0.61-0.43-0.75
			C577.91,994.59,577.57,994.79,577.3,994.86z M588.5,648.4c0.11-0.06,0.28-0.1,0.32-0.19c0.05-0.11-0.02-0.26-0.04-0.4
			c-0.17,0.09-0.33,0.18-0.5,0.27C588.35,648.18,588.43,648.29,588.5,648.4z"/>
		<path class="st1" d="M548.81,946.94c-22.14-28.1-37.66-59.28-44.87-94.52c-3.08-15.08-5.19-30.28-4.69-45.55
			c1.01-30.62,7.37-59.8,25.61-85.48c10.93-15.38,25.19-26.55,41.24-35.94c11.19-6.55,22.52-12.9,31.64-22.5
			c10.02-10.55,14.13-23.21,15.41-37.37c1.22-13.46-0.15-27.07,2.83-40.44c3.04-13.64,9.37-25.55,18.5-35.92
			c21.18-24.07,48.64-37.45,79.21-44.79c13.87-3.33,28.12-4.68,42.45-5.59c15.46-0.98,30.92-1.15,46.29-0.5
			c14.45,0.61,28.91-0.11,43.29,0.88c21.42,1.47,42.81,3.18,63.55,9.73c25.4,8.03,42.1,24.36,50.74,49.47
			c3.29,9.56,6.64,19.13,11.61,28.06c6.17,11.08,15.38,18.66,26.31,24.61c8.93,4.86,18.32,9.01,26.5,15.09
			c12.56,9.32,21.65,21.35,27.6,35.96c7.13,17.53,9.24,35.79,7.64,54.29c-1.81,20.94-9.57,40.01-21.97,57.09
			c-8.36,11.51-11.83,24.47-12.99,38.57c-1,12.08-1.52,24.26-3.71,36.25c-0.22,1.21-0.55,2.68,0.7,3.72
			c0.02,0.36,0.04,0.72,0.06,1.09c-0.3,0.39-0.6,0.78-0.9,1.16c-2.33,3.05-2.52,6.7-2.97,10.3c-0.47,3.76-0.25,7.64-1.58,11.26
			c-1.12,3.06-3.5,4.39-6.64,4c-3.1-0.39-2.99-2.87-3.2-5.28c-1.27-14.15-2.48-28.31-4.13-42.41c-0.49-4.16-1.87-8.45-6.49-10.35
			c-0.62-0.33-1.25-0.67-1.87-1c-1.47-0.79-2.79-0.41-4.05,0.51c-0.64,0.27-1.29,0.53-1.93,0.8c-0.27-0.12-0.54-0.16-0.84-0.13
			c-1.08-9.11-1.9-18.27-3.29-27.34c-1.91-12.52-4.53-24.91-8.96-36.83c0-0.29-0.06-0.58-0.16-0.86c-2.5-7.93-5.42-15.7-8.96-23.22
			c1.48-1.61,3.43-0.9,5.18-0.96c11.6-0.36,23.23,0.64,34.82-0.66c9.11-1.02,15.19-7.03,16.2-16c0.99-8.79,0.45-17.61,0.44-26.41
			c-0.03-15.25-7.45-22.44-22.76-22.44c-27.1-0.01-54.2,0.02-81.31-0.04c-2.76-0.01-5.69,0.65-8.21-1.21
			c-2.8-1.97-5.12-4.64-8.44-5.86l-0.49-0.08c-4.14-3.2-8.44-6.14-13.4-7.96c-2.06-1.78-1.67-4.21-1.67-6.5
			c-0.01-20.31-0.32-40.63,0.08-60.94c0.38-19.18-14.49-32.8-30.94-32.63c-28.97,0.3-57.94-0.07-86.91-0.05
			c-32.8,0.02-65.6-0.05-98.39,0.34c-15.73,0.19-28.37,13.14-28.67,28.86c-0.3,15.81-0.3,31.64,0.01,47.45
			c0.28,14.45,12.33,27.13,26.76,28.12c9.12,0.62,18.3,0.27,27.45,0.47c1.62,0.04,3.83-1.05,4.62,1.6
			c-0.45,1.13-1.45,1.59-2.38,2.27c-5.72,4.17-11.67,8.05-16.88,12.89c-0.8,0.33-0.82,1.02-0.8,1.73c-3.19,1.48-6.39,2.93-8.11,6.3
			c-0.29,0.23-0.57,0.46-0.86,0.69c-1.69,1.41-3.71,1.19-5.7,1.19c-16.47-0.01-32.94-0.02-49.41,0
			c-11.96,0.02-22.02,10.02-22.06,21.92c-0.04,11.15,0.03,22.29-0.03,33.44c-0.02,4.24,1.4,7.9,3.36,11.62
			c3.08,5.85,9,7.9,13.9,11.33c-1.03,4.99-3.98,9.19-5.79,13.87c-3.81,9.78-8.07,19.39-10.31,29.71c-0.96,0.46-1.07,1.26-0.89,2.19
			c-0.72,1.97-1.53,3.92-2.14,5.93c-4.84,15.93-8.28,32.2-10.62,48.64c-1.48,10.34-3.76,20.68-3.21,31.26
			c-8.33,13.34-15,27.37-17.96,42.95c-0.18,0.94-0.85,1.36-1.82,1.32c-1.57-16.9-1.28-33.84-1.3-50.78
			c-0.02-10.47-4.21-15.6-14.18-17.94c-1.33-0.31-2.45-0.45-3.13-1.95c-6.32-13.76,2.73-27.1,17.56-25.81
			c7.06,0.62,13.48-3.99,14.52-10.84c1.14-7.49-0.03-14.96-1.22-22.34c-0.44-2.72-2.45-4.82-5.73-4.3
			c-3.49,0.55-3.91,3.12-3.58,6.02c0.45,3.96,1.01,7.91,1.39,11.88c0.79,8.13-0.83,9.91-8.79,9.9c-0.83,0-1.66-0.01-2.5,0
			c-9.3,0.12-16.99,5.68-19.98,14.48c-2.61,7.67-1.78,15.42-0.54,23.18c0.79,4.98,3.47,7.97,8.49,9.17
			c6.75,1.62,8.41,3.83,8.49,10.82c0.07,5.82-0.24,11.64-0.13,17.45C548.06,920.36,548.47,933.65,548.81,946.94z"/>
		<path class="st2" d="M975.83,965.69c-18.52,17.71-38.71,33.09-61.9,44.22c-24.02,11.53-49.14,19.45-75.43,24.19
			c-27.04,4.87-54.27,5.93-81.48,4.57c-31.26-1.57-62.46-4.61-92.94-12.67c-19.54-5.16-37.55-13.45-54.61-24.11
			c-16.3-10.19-30.99-22.31-44.25-36.19c1.45-1.27,3.19-0.61,4.77-0.61c133.69-0.04,267.39-0.04,401.08,0
			C972.65,965.1,974.39,964.41,975.83,965.69z"/>
		<path class="st3" d="M548.81,946.94c-0.34-13.29-0.74-26.58-0.99-39.87c-0.11-5.82,0.2-11.64,0.13-17.45
			c-0.08-6.99-1.74-9.21-8.49-10.82c-5.02-1.2-7.7-4.19-8.49-9.17c-1.24-7.77-2.06-15.52,0.54-23.18c3-8.81,10.68-14.36,19.98-14.48
			c0.83-0.01,1.66,0,2.5,0c7.96,0.02,9.58-1.77,8.79-9.9c-0.38-3.97-0.94-7.92-1.39-11.88c-0.33-2.9,0.09-5.47,3.58-6.02
			c3.28-0.52,5.3,1.58,5.73,4.3c1.18,7.38,2.36,14.85,1.22,22.34c-1.04,6.85-7.46,11.46-14.52,10.84
			c-14.83-1.3-23.88,12.04-17.56,25.81c0.69,1.5,1.81,1.64,3.13,1.95c9.97,2.34,14.17,7.46,14.18,17.94
			c0.03,16.94-0.27,33.88,1.3,50.78c0.97,0.05,1.64-0.37,1.82-1.32c2.95-15.59,9.63-29.62,17.96-42.95
			c6.56-8.07,14.45-14.56,23.45-19.75c6.12-3.52,10.52-8.51,12.94-15.22c0.96-2.65,0.69-4.25-2.65-3.89
			c-5.3,0.56-8.32-2.22-10.34-6.79c-3.99-9.02-6.07-18.53-7.55-28.21l-0.05,0.05c8.41,6.12,16.31,2.45,24.23-1.22
			c2.09-0.97,4.19-1.98,6.38-2.65c4.11-1.26,6.03-3.78,5.27-8.12c0.01-0.67,0.01-1.33,0.02-2c1.32-4.08,2.54,0.04,3.81,0.05
			c0.22,0.81,0.35,1.67,1.28,2.04c3.7,5.31,6.39,11.13,9.03,17.04c3.19,7.15,3.07,13.37-3.27,18.68
			c-7.11,2.69-13.42,7.15-20.77,9.34c-1.84,0.55-4.55,0.52-4.11,3.84c0.4,3.06-0.24,6.55,3.69,7.86c0.96,0.32,2.14,0.35,2.23,1.56
			c0.33,4.32,4.91,5.48,6.53,9.01c1.2,2.61,5.73,2.08,6.41-0.58c1.15-4.53,5.49-8.03,4.19-13.34c-0.31-1.28,0.95-2,1.89-2.68
			c-0.01,4.16,0.18,8.33-0.06,12.47c-1.15,20.42-2.41,40.85-1.43,61.29c0.31,6.44-1.2,14.02,5.65,18.73
			c-4.47,0.12-8.95,0.26-13.42,0.35c-1.85,0.04-3.77-0.15-4.41,2.23c-25.91-0.01-51.81-0.02-77.72-0.03
			C549.23,951.58,549.02,949.26,548.81,946.94z M591.61,950.47c3.22,1.11,5.95-1.06,8.88-0.59c0.96,0.15,2.29-0.02,2.32-1.23
			c0.05-2.22-1.28-4.02-2.51-5.75c-0.72-1.02-1.79-0.77-2.55,0.02C595.55,945.23,592.54,946.92,591.61,950.47z M622.98,847.85
			c0.4-8.15,5.2-7.56,10.62-5.77c-0.45-0.93-0.52-1.29-0.74-1.49c-1.98-1.74-6.49-0.03-6.35-4.93c0.03-0.93-2,0.21-3.07,0.41
			c-0.97,0.18-2.46,1.27-1.91,1.76C624.86,840.78,621.18,844.14,622.98,847.85z"/>
		<path class="st4" d="M549.44,953.9c25.91,0.01,51.81,0.02,77.72,0.03c1.35,0.86,2.86,0.69,4.34,0.69
			c26.51-0.01,53.01-0.02,79.52-0.04c21.12,0.79,42.25,0.27,63.38,0.25c0.29,0,0.57-0.32,0.86-0.48c0.66,0.05,1.32,0.15,1.99,0.15
			c62.19,0.01,124.38,0.01,186.58-0.01c1.3,0,2.6-0.37,3.89-0.57c2.64,0.05,5.29,0.03,7.93,0.18c2.47,0.14,3.03-0.63,2.48-3.17
			c-1.51-6.9-2.64-13.89-3.98-20.83c-1.05-5.41-0.76-5.82,4.87-6.12c2.31,0,4.64-0.18,6.92,0.05c4.08,0.4,7.44-0.02,7.83-5.15
			c0-0.02,0.51,0,1.19,0c-2.06,4.57,0.07,5.5,4.13,5.09c2.94-0.29,5.93-0.09,8.9-0.11c0.83,0.04,1.69,0.23,2.48,0.08
			c6.54-1.2,7.56-0.04,6.38,6.34c-1.42,7.67-2.43,15.41-3.71,23.1c-0.27,1.63,0.69,1.55,1.65,1.57c1.66,0.04,3.35,0.19,4.99-0.02
			c4.16-0.52,6.15,1,6.14,5.39c0,4.39-2.03,5.71-6.19,5.64c-14.63-0.22-29.27-0.19-43.91-0.25c-1.45-1.28-3.18-0.6-4.76-0.6
			c-133.69-0.04-267.39-0.04-401.08,0c-1.58,0-3.32-0.66-4.77,0.61c-5.94,0.06-11.89-0.03-17.83,0.23c-4.2,0.19-4.9-2.36-5.07-5.58
			c-0.17-3.22,0.67-5.61,4.57-5.42C547.88,954.98,548.9,955,549.44,953.9z"/>
		<path class="st5" d="M1007.99,923.84c-2.97,0.02-5.96-0.18-8.9,0.11c-4.06,0.41-6.19-0.52-4.13-5.09c-0.68,0-1.19-0.02-1.19,0
			c-0.39,5.13-3.75,5.55-7.83,5.15c-2.29-0.22-4.61-0.05-6.92-0.05c0.41-4.6,0.31-8.86-5.98-9.01c0.96-4.98,1.92-9.96,2.89-14.94
			c2.28,2.98,4.75,5.58,9.03,4.79c4.17-0.31,5.04-3.26,4.86-6.6c-0.33-6.11-0.84-12.21-2.12-18.21
			c-2.47-10.42-5.24-20.81-6.38-31.45c-1.01-9.33-1.9-18.99,5.87-26.54c0.29-0.03,0.57,0.01,0.83,0.13
			c-6.39,22.55,2.95,43.4,6.97,64.83c0,6.65,0,13.3,0,19.95c0.28,0,0.55-0.01,0.82-0.01c0-6.63,0-13.25,0-19.88
			c0.28-4.88-1.12-9.51-2.39-14.1c-4.69-16.97-8.86-33.95-3.47-51.58c1.25-0.92,2.58-1.3,4.05-0.51c1.01,8.2,1.97,16.41,3.04,24.61
			c3.12,23.86,4.46,47.76,2.01,71.77c-0.11,1.07-0.7,2.62,1.71,3.41c0.41-8.05,0.99-15.77,1.13-23.49c0.06-3.24,0.45-5.02,4.28-5.58
			c3.38-0.49,7.1-0.82,9.97-3.33c-3.59,0.39-7.08,1.19-10.62,1.77c-1.16,0.19-3.01,1.92-3.48-0.85c-0.42-2.47,0.96-2.93,3.15-3.23
			c3.06-0.41,6.32-0.55,8.82-2.85c0.67-0.34,1.34-0.68,2-1.01c0.15-0.21,0.3-0.41,0.45-0.62c-0.21,0.14-0.42,0.29-0.63,0.43
			c-0.8,0.05-1.59,0.14-1.99,1c-2.76,0.46-5.62,0.61-8.25,1.47c-3.25,1.06-3.57-0.36-3.72-3.03c-0.38-6.91-0.87-13.81-1.6-20.69
			c-1.36-12.94-2.92-25.85-4.4-38.78c4.62,1.9,6,6.19,6.49,10.35c1.65,14.11,2.85,28.27,4.13,42.41c0.22,2.41,0.1,4.89,3.2,5.28
			c3.14,0.39,5.52-0.94,6.64-4c1.33-3.63,1.11-7.5,1.58-11.26c0.45-3.6,0.64-7.25,2.97-10.3c-0.1,7.57,0.63,15.16-0.29,22.72
			c2.23-7.86,0.96-15.91,1.19-23.88c-0.02-0.36-0.04-0.72-0.06-1.09c2.16-1.42,4.11-3.53,7.11-2.1c-0.14,10.64,0.92,21.32-1.03,31.9
			c-0.75,0.48-0.97,1.2-0.93,2.04c-0.84-0.03-1.56,0.21-2.03,0.96c-0.79,0.07-1.54,0.23-1.98,1c-1.62,0.02-3.19,0.17-4.3,1.93
			c2.01,0.2,3.32-0.59,4.49-1.71c0.79-0.07,1.57-0.18,1.99-0.99c0.81-0.07,1.52-0.32,1.92-1.1c0.38-0.63,0.76-1.26,1.13-1.89
			c1.49-1.52,1.82-3.41,1.91-5.45c0.35-8.87,1.76-17.73,0.05-26.6c1.81,0.84,2.88,2.29,2.84,4.24c-0.17,9.72,2.02,19.38,0.13,29.19
			c-1.62,8.45-5.67,12.09-14.46,11.54c-1.66-0.1-3.33-0.16-4.7,1.06c-3.64-0.61-4.65,2.19-5.27,4.64c-0.84,3.31-1.3,6.79-0.1,10.19
			C1008.32,915.23,1008.15,919.53,1007.99,923.84z M994.95,911.94c0.13,0.08,0.26,0.15,0.38,0.23c-0.14-0.07-0.27-0.13-0.41-0.2
			c-0.11-1.06-0.42-1.94-1.7-1.97c-3.91-0.11-7.65,1.81-11.68,0.76C985.95,912.65,990.5,911.64,994.95,911.94z"/>
		<path class="st6" d="M1058.89,763.98c0.87-5.9,5.33-10.16,7.04-15.75c2.52-8.25,5.08-16.41,5-25.17
			c-0.09-11.09,0.49-22.21-1.96-33.17c-0.21-0.93-0.03-1.94-0.03-3.57c3.17,3.17,2.24,6.85,2.63,9.83
			c2.69,20.46,1.97,40.66-7.2,59.71c-1.4,2.91-2.7,6.06-5.43,8.17L1058.89,763.98z"/>
		<path class="st6" d="M514.85,710.92c-16.04,23.25-24.11,49.04-25.21,77.14C488.79,759.32,497.92,733.81,514.85,710.92z"/>
		<path class="st6" d="M633.07,1028.88c8.84,2.68,17.64,5.53,26.54,8c9.71,2.7,19.61,4.48,29.69,5.01c1.65,0.09,3.31,0.02,5.59,1.98
			c-6.69-0.23-12.31-1.06-17.96-1.89c-13.31-1.94-26.07-5.93-38.76-10.19c-1.86-0.62-3.78-1.27-5.17-2.83L633.07,1028.88z"/>
		<path class="st6" d="M1050.96,775.03c-1.72,6.14-6.11,10.93-8.26,16.92c-3.54,9.87-5.79,19.96-6.76,30.36
			c-0.16,1.68-0.6,3.2-2.09,5.87c0.6-10.76,2.37-19.99,4.94-29.08c2.48-8.81,5.66-17.3,12.1-24.14
			C1050.88,774.97,1050.96,775.03,1050.96,775.03z"/>
		<path class="st6" d="M633,1028.97c-9.08-1.84-16.8-6.81-24.75-11.1c-6.49-3.51-12.52-7.87-18.75-11.86
			c0.85-1.38,1.67-1.05,2.3-0.6c12.44,8.86,25.69,16.28,39.73,22.3c0.58,0.25,1.04,0.78,1.55,1.17
			C633.07,1028.88,633,1028.97,633,1028.97z"/>
		<path class="st4" d="M1030.05,850.06c1.7,8.87,0.3,17.73-0.05,26.6c-0.08,2.04-0.42,3.93-1.91,5.45c0,0-0.29-0.25-0.29-0.25
			c1.95-10.58,0.89-21.26,1.03-31.9C1029.23,850,1029.64,850.03,1030.05,850.06z"/>
		<path class="st2" d="M1008.49,910.92c-1.2-3.41-0.74-6.89,0.1-10.19c0.62-2.45,1.63-5.25,5.27-4.64
			C1011.94,900.99,1011.49,906.42,1008.49,910.92z"/>
		<path class="st6" d="M968.63,546.79c-3.97-6.17-7.29-12.69-11.87-18.42C960.74,529.94,966.94,539.48,968.63,546.79z"/>
		<path class="st6" d="M954.37,525.51c-2.96-2.94-5.92-5.89-8.89-8.83C950.1,517.84,952.7,521.15,954.37,525.51z"/>
		<path class="st6" d="M558.1,673.06c-3.33,3.68-7.3,6.38-12.01,7.99c0,0-0.03-0.03-0.03-0.03c3.3-3.72,7.3-6.38,11.99-8.02
			C558.04,673,558.1,673.06,558.1,673.06z"/>
		<path class="st6" d="M923.94,502.11c-3.58,0.18-6.45-1.53-9.22-3.51c3.33,0.5,6.58,1.21,9.25,3.47L923.94,502.11z"/>
		<path class="st6" d="M1058.94,764.03c-0.94,2.85-2.41,5.32-4.99,7.01c0,0-0.06-0.06-0.06-0.06c0.78-2.97,2-5.62,5.01-7
			C1058.89,763.98,1058.94,764.03,1058.94,764.03z"/>
		<path class="st6" d="M530.11,694.06c-0.34,2.33-1.7,3.65-4.01,4l-0.06-0.06c0.34-2.33,1.7-3.64,4.01-4L530.11,694.06z"/>
		<path class="st6" d="M583.78,999.55c-2.46,0.54-3.33-0.59-4.25-2.17C581.66,996.59,582.54,997.9,583.78,999.55z"/>
		<path class="st6" d="M576.52,658.98c0.81-2.02,1.75-3.06,4.03-2.65C579.88,658.06,578.88,658.92,576.52,658.98z"/>
		<path class="st6" d="M516.34,709.9c-0.31-2.59,0.68-3.5,2.01-4.24c1.26,0.78,0.57,1.65,0.06,2.35
			C517.98,708.61,517.31,709.04,516.34,709.9z"/>
		<path class="st6" d="M562.03,670c0.96-1.48,1.9-2.99,4.49-2.78c-0.91,2.17-2.72,2.44-4.42,2.86L562.03,670z"/>
		<path class="st6" d="M932.94,507.1c-2.05-0.36-3.93-1-5-3.01l0.02-0.02c2.06,0.35,3.94,0.99,5.01,2.99
			C932.97,507.07,932.94,507.1,932.94,507.1z"/>
		<path class="st6" d="M574.86,661.55c-0.75,0.59-1.17,1.06-1.69,1.29c-0.54,0.24-1.39,0.3-1.31-0.58c0.04-0.41,0.82-0.86,1.35-1.07
			C573.54,661.07,574.03,661.36,574.86,661.55z"/>
		<path class="st6" d="M570.32,664.94c-0.43,0.77-1.1,1.13-1.96,0.98c-0.51-0.09-0.86-0.56-0.44-0.96c0.42-0.4,1.05-0.65,1.63-0.79
			C570.03,664.04,570.44,664.3,570.32,664.94z"/>
		<path class="st6" d="M586.09,1001.89c0.96,0.14,1.97,0.21,2.25,1.39c0.03,0.13-0.37,0.5-0.59,0.52c-1.27,0.09-1.61-0.78-1.74-1.82
			L586.09,1001.89z"/>
		<path class="st6" d="M524.11,700.05c-0.13,0.96-0.2,1.98-1.39,2.25c-0.13,0.03-0.5-0.38-0.52-0.6c-0.08-1.28,0.8-1.6,1.84-1.72
			C524.05,699.99,524.11,700.05,524.11,700.05z"/>
		<path class="st6" d="M941.97,513.06c0.96,0.13,1.97,0.18,2.26,1.36c0.03,0.12-0.37,0.5-0.59,0.52c-1.27,0.08-1.6-0.79-1.72-1.83
			C941.93,513.11,941.97,513.06,941.97,513.06z"/>
		<path class="st6" d="M1052.95,772.03c0.01,1.45-0.7,2.42-1.99,3c0,0-0.07-0.06-0.07-0.07c0.03-1.43,0.72-2.42,2.01-2.99
			L1052.95,772.03z"/>
		<path class="st6" d="M561.1,671.06c-0.58,1.29-1.57,1.98-3.01,2c0,0-0.05-0.06-0.05-0.06c0.57-1.3,1.55-2,2.99-2.01
			C561.04,671,561.1,671.06,561.1,671.06z"/>
		<path class="st6" d="M541.1,685.05c-0.58,1.3-1.55,2.02-3,2.01c0,0-0.05-0.05-0.05-0.05c0.59-1.29,1.55-2.01,3.01-2
			C541.05,685,541.1,685.05,541.1,685.05z"/>
		<path class="st6" d="M542.05,684.01c0.58-1.3,1.55-2.01,3-2.01l0.05,0.05c-0.58,1.3-1.55,2.01-3.01,2L542.05,684.01z"/>
		<path class="st6" d="M938.96,511.07c1.46-0.03,2.42,0.69,3.01,1.99c0,0-0.04,0.04-0.04,0.05c-1.45,0.01-2.42-0.71-2.99-2.02
			C938.94,511.09,938.96,511.07,938.96,511.07z"/>
		<path class="st6" d="M577.3,994.86c0.27-0.07,0.61-0.27,0.75-0.17c0.22,0.14,0.3,0.49,0.43,0.75c-0.27,0.07-0.61,0.27-0.79,0.17
			C577.49,995.5,577.43,995.12,577.3,994.86z"/>
		<path class="st6" d="M537.11,688.05c-0.37,0.26-0.74,0.51-1.12,0.75c-0.01,0.01-0.17-0.24-0.26-0.37
			c0.44-0.15,0.88-0.29,1.33-0.44L537.11,688.05z"/>
		<path class="st6" d="M588.5,648.4c-0.07-0.11-0.15-0.22-0.22-0.32c0.17-0.09,0.33-0.18,0.5-0.27c0.02,0.13,0.08,0.29,0.04,0.4
			C588.78,648.3,588.61,648.33,588.5,648.4z"/>
		<path class="st6" d="M934.94,508.1c-0.84,0.01-1.58-0.18-2-1c0,0,0.03-0.04,0.03-0.04c0.83,0.01,1.57,0.19,1.99,1.01
			C934.97,508.07,934.94,508.1,934.94,508.1z"/>
		<path class="st6" d="M937.94,510.11c-0.84,0.01-1.58-0.19-2-1.01l0.04-0.04c0.84,0,1.58,0.19,2,1.01L937.94,510.11z"/>
		<path class="st6" d="M927.95,504.1c-0.84,0.01-1.59-0.16-2-1c0,0,0.02-0.02,0.02-0.02c0.82,0.02,1.58,0.17,2,1
			C927.96,504.08,927.95,504.1,927.95,504.1z"/>
		<path class="st6" d="M586.01,1001.98c-0.44-0.15-0.87-0.3-1.31-0.45c0.09-0.13,0.25-0.37,0.26-0.37c0.38,0.23,0.75,0.48,1.12,0.73
			C586.09,1001.89,586.01,1001.98,586.01,1001.98z"/>
		<path class="st6" d="M923.98,502.07c0.82,0.03,1.57,0.18,1.99,1.01c0,0-0.02,0.02-0.02,0.02c-0.83,0-1.58-0.16-2-0.99
			C923.94,502.11,923.98,502.07,923.98,502.07z"/>
		<path class="st6" d="M537.04,687.99c0.33-0.33,0.67-0.66,1-0.99c0,0,0.05,0.05,0.05,0.05c-0.33,0.33-0.66,0.66-0.99,1
			C537.11,688.05,537.04,687.99,537.04,687.99z"/>
		<path class="st6" d="M562.1,670.08c-0.33,0.33-0.67,0.66-1,0.98c0,0-0.06-0.06-0.06-0.06c0.33-0.33,0.66-0.66,0.99-0.99
			C562.03,670,562.1,670.08,562.1,670.08z"/>
		<path class="st6" d="M530.05,693.99c0.16-0.13,0.32-0.26,0.47-0.4c-0.14,0.15-0.27,0.31-0.41,0.46
			C530.11,694.06,530.05,693.99,530.05,693.99z"/>
		<path class="st6" d="M526.1,698.06c-0.33,0.33-0.67,0.67-1,1c0,0-0.07-0.07-0.07-0.07c0.33-0.33,0.67-0.66,1-1
			C526.04,698,526.1,698.06,526.1,698.06z"/>
		<path class="st6" d="M525.11,699.06c-0.33,0.33-0.66,0.66-0.99,0.99c0,0-0.07-0.07-0.07-0.07c0.33-0.33,0.66-0.66,0.99-0.99
			C525.04,698.99,525.11,699.06,525.11,699.06z"/>
		<path class="st6" d="M1052.9,771.98c0.33-0.33,0.66-0.67,0.99-1c0,0,0.06,0.06,0.06,0.06c-0.33,0.33-0.66,0.66-1,0.99
			C1052.95,772.03,1052.9,771.98,1052.9,771.98z"/>
		<path class="st6" d="M937.97,510.07c0.33,0.33,0.66,0.67,0.99,1c0,0-0.02,0.02-0.02,0.02c-0.34-0.33-0.67-0.66-1.01-0.99
			C937.94,510.11,937.97,510.07,937.97,510.07z"/>
		<path class="st6" d="M542.09,684.05c-0.33,0.33-0.66,0.66-1,0.99c0,0-0.05-0.05-0.05-0.05c0.33-0.33,0.67-0.66,1-0.99
			C542.05,684.01,542.09,684.05,542.09,684.05z"/>
		<path class="st6" d="M935.93,509.1c-0.33-0.33-0.66-0.67-0.99-1c0,0,0.03-0.03,0.03-0.03c0.33,0.33,0.67,0.66,1,0.99
			C935.97,509.06,935.93,509.1,935.93,509.1z"/>
		<path class="st6" d="M545.05,682c0.34-0.33,0.67-0.65,1.01-0.98c0,0,0.03,0.03,0.03,0.03c-0.33,0.34-0.66,0.67-0.98,1.01
			C545.1,682.05,545.05,682,545.05,682z"/>
		<path class="st7" d="M700.17,658.87c-0.79-2.65-3-1.57-4.62-1.6c-9.15-0.2-18.33,0.15-27.45-0.47
			c-14.42-0.98-26.48-13.67-26.76-28.12c-0.31-15.81-0.31-31.64-0.01-47.45c0.3-15.72,12.95-28.67,28.67-28.86
			c32.79-0.39,65.59-0.32,98.39-0.34c28.97-0.02,57.94,0.35,86.91,0.05c16.45-0.17,31.32,13.45,30.94,32.63
			c-0.41,20.31-0.1,40.63-0.08,60.94c0,2.3-0.39,4.72,1.67,6.5c-0.09,6.72-0.09,6.72-6.99,6.72
			C820.62,658.87,760.39,658.87,700.17,658.87z M744.16,595.07c-4.45-0.06-8.11,3.63-8.19,8.28c-0.08,4.69,3.34,8.52,7.79,8.7
			c4.7,0.2,8.45-3.6,8.43-8.53C752.16,598.77,748.7,595.13,744.16,595.07z M772.18,603.5c-0.03-4.73-3.5-8.37-8.03-8.43
			c-4.45-0.05-8.1,3.64-8.18,8.29c-0.08,4.89,3.67,8.82,8.3,8.69C768.8,611.92,772.21,608.24,772.18,603.5z M792.16,604.05
			c0.24-4.97-3.23-8.89-7.96-8.99c-4.26-0.09-7.91,3.34-8.23,7.73c-0.36,4.88,3.11,9.02,7.73,9.25
			C788.21,612.26,791.93,608.75,792.16,604.05z"/>
		<path class="st7" d="M611.19,762.24c-4.9-3.43-10.82-5.48-13.9-11.33c-1.96-3.71-3.38-7.38-3.36-11.62
			c0.06-11.15-0.01-22.29,0.03-33.44c0.04-11.9,10.11-21.9,22.06-21.92c16.47-0.03,32.94-0.01,49.41,0c1.99,0,4.01,0.23,5.7-1.18
			c0,0,0.47,0.03,0.47,0.03l0.43-0.18c1.99,0.09,3.98,0.25,5.96,0.25c23.45,0.02,46.9-0.09,70.35,0.06
			c14.51,0.09,23.71,9.14,23.91,23.63c0.24,17.46,0.02,34.92,0.14,52.38c0.02,2.99-0.85,4.16-3.95,4.03
			c-4.14-0.17-8.3,0.1-12.45,0.18c-0.3-0.13-0.62-0.16-0.94-0.08c-0.35-0.01-0.69-0.02-1.04-0.03
			c-44.46-0.04-88.92-0.08-133.38-0.16C617.49,762.85,614.34,762.45,611.19,762.24z M670.07,706.27c-0.53,4.12,0.1,6.63,5.16,4.18
			c1.89-0.92,4.31-1.05,5.83,1.18c1.49,2.17,0.43,4.13-0.74,6c-1.23,1.97-2.66,3.82-3.73,5.86c-0.75,1.44-1.39,3.71,0.54,4.29
			c1.72,0.51,4.7,1.53,5.6-1.26c0.98-3.05,3.27-4.42,5.57-6.04c4.53-3.19,6.31-8.41,4.73-13.57c-1.38-4.5-5.7-7.6-11-7.87
			c-2.51-0.13-4.94,0.22-7.38,0.88C671.33,700.81,669.26,702.46,670.07,706.27z M674.95,735.77c0.43,3.18,2.17,5.31,5.48,5.13
			c3.31-0.18,4.99-2.66,5.02-5.74c0.03-3.34-2.14-5.23-5.43-5.05C676.76,730.29,675.1,732.43,674.95,735.77z"/>
		<path class="st8" d="M755.99,763.12c4.15-0.08,8.31-0.35,12.45-0.18c3.1,0.13,3.97-1.04,3.95-4.03
			c-0.12-17.46,0.11-34.93-0.14-52.38c-0.2-14.49-9.4-23.54-23.91-23.63c-23.45-0.15-46.9-0.04-70.35-0.06
			c-1.99,0-3.98-0.16-5.96-0.25c0-0.18-0.02-0.36-0.04-0.53c1.71-3.37,4.92-4.82,8.11-6.3c9.31,0.06,18.62,0.18,27.93,0.18
			c60.69,0.03,121.39,0.04,182.08,0.06c-0.94,2.6-2.4,5.05-2.31,7.95c-3.9,0.6-7.97,0.62-11.33,3.39c3.8-0.55,7.5-1.7,11.36-1.24
			c0.07,14.29,0.3,28.59,0.09,42.87c-0.06,4.1,1.29,4.9,5.07,4.88c24.27-0.16,48.54-0.09,72.81-0.09c3.55,7.53,6.46,15.3,8.96,23.22
			c-31.23-0.05-62.46-0.1-93.69-0.15c-3.98-5.29-10.03-6.34-15.89-7.78c-0.1-0.33-0.19-0.65-0.29-0.98
			c4.9-4.73,7.92-10.65,10.16-16.92c2.16-6.04-1.82-10.32-8.06-9.04c-1.29,0.26-2.55,0.71-3.82,1.07
			c-0.18-7.21-0.53-14.41,0.23-21.64c-3.41,7.2-2.14,14.92-2.42,22.46c-3.11,1.93-6.44,1.22-9.65,0.58
			c-4.21-0.84-8.34-2.1-12.53-3.08c-20.29-4.75-34.24,3.56-39.43,23.62c-0.78,3.02-1.1,6.19-1.4,9.31
			c-0.64,6.79-1.39,13.53-5.03,19.54c-6.58,0.06-13.16,0.13-19.75,0.19c-1.13-0.16-2.27-0.4-3.14,0.66
			c-4.24,0.78-8.47,1.55-12.71,2.33c-0.7-0.06-1.41-0.12-2.11-0.17c0-4.35,0-8.69,0-13.04C755.49,763.68,755.74,763.4,755.99,763.12
			z M871.39,690.42c0.09-0.3,0.15-0.48,0.21-0.66c-0.12,0.03-0.25,0.07-0.37,0.1C871.27,690,871.31,690.14,871.39,690.42z
			 M866.46,695.8l0.18-0.31l-0.3-0.03L866.46,695.8z M865.44,697.77l0.19-0.33l-0.3-0.03L865.44,697.77z M864.43,699.75l0.19-0.32
			l-0.29-0.04L864.43,699.75z"/>
		<path class="st9" d="M965.81,733.76c-24.27,0-48.54-0.07-72.81,0.09c-3.78,0.02-5.13-0.78-5.07-4.88
			c0.21-14.29-0.03-28.58-0.09-42.87c-0.01-0.72-0.02-1.43-0.03-2.15c-0.09-2.9,1.38-5.35,2.31-7.95c1.27,0.06,1.87-0.59,1.9-1.82
			c0.61-1.76,1.76-3.3,3.43-3.85c5.12-1.71,6.29-5.44,5.79-10.22c0,0,0.49,0.08,0.49,0.08c-0.88,4.89,0.47,7.56,6.04,6.11
			c0.77-0.2,1.6-0.17,2.4-0.25c2.52,1.86,5.44,1.21,8.21,1.21c27.1,0.05,54.2,0.03,81.31,0.04c15.31,0,22.72,7.19,22.76,22.44
			c0.02,8.8,0.55,17.62-0.44,26.41c-1.01,8.97-7.09,14.97-16.2,16c-11.59,1.3-23.22,0.3-34.82,0.66
			C969.24,732.86,967.29,732.15,965.81,733.76z M969.16,691.52c0.47-4.87-1.92-8.31-6.24-10.2c-5.35-2.33-10.92-1.85-15.68,1.32
			c-2.79,1.86-1.7,5.71-0.92,8.36c0.91,3.08,3.29,0.38,5,0.23c2-0.18,4.06-0.67,5.55,1.15c1.7,2.07,0.66,4.1-0.46,5.98
			c-1.27,2.13-2.84,4.11-3.96,6.31c-0.72,1.41-1.36,3.62,0.77,4.18c1.66,0.44,4.59,1.23,5.26-1.07c1.02-3.52,3.78-4.85,6.28-6.68
			C967.97,698.76,969.4,695.57,969.16,691.52z M956.11,722.06c3.53-0.64,5.29-2.94,5.26-6.2c-0.03-3.1-2.29-4.81-5.23-4.73
			c-3.22,0.08-5.18,2.11-5.18,5.41C950.95,719.86,953.04,721.5,956.11,722.06z"/>
		<path class="st8" d="M987.18,822.01c-7.77,7.55-6.88,17.2-5.87,26.54c1.15,10.64,3.91,21.04,6.39,31.45
			c-1.61,0.03-1.66,1.11-1.72,2.35c-0.32,7.49-0.68,14.97-1.03,22.46c-4.27,0.79-6.75-1.81-9.03-4.79
			c1.49-10.17,2.89-20.36,4.51-30.52c1.32-8.27-0.57-10.66-8.94-10.7c-16.79-0.08-33.58-0.17-50.36-0.25
			c-2.76-10.56-5.52-21.12-8.28-31.68c1.88-1.84,3.76-3.69,5.64-5.53c5.75-5.61,8.23-12.26,6.45-20.25
			c-0.24-1.06-0.28-2.46-2.59-1.81c3.28,11-1.75,18.7-10.4,24.83c-3.01-11.01-6.01-22.02-9.02-33.02
			c-2.32-8.47-4.24-17.11-10.07-24.09c-2.54-3.04-5.22-5.96-7.84-8.93c3.16-0.03,6.33-0.08,9.49-0.08
			c26.8-0.05,53.61-0.1,80.41-0.14c4.43,11.93,7.05,24.31,8.96,36.83C985.28,803.74,986.1,812.89,987.18,822.01z M921.97,838.9
			c0.85-6.42,5.49-10.07,9.57-14.12c5.11-5.05,7.63-11.17,7.46-18.38c-0.08-3.16-0.1-6.32-0.19-9.48
			c-0.23-8.15-0.87-16.35,4.27-23.54c0.27-0.39-0.04-1.19-0.09-1.99c-2.6,0.92-3.29,3.02-4.2,4.92c-3.52,7.38-3.37,15.28-2.45,23.02
			c1.33,11.1-1.05,20.27-10.22,27.46C922.57,829.57,919.62,833.43,921.97,838.9z"/>
		<path class="st8" d="M611.19,762.24c3.15,0.22,6.29,0.61,9.44,0.62c44.46,0.08,88.92,0.12,133.38,0.16
			c0,5.19,0.01,10.39,0.01,15.58c-14.5,6.04-26.33,15.66-36.59,27.36c-27.9,0.04-55.79,0.08-83.69,0.12
			c-1.27-0.01-2.48-4.13-3.81-0.05c-11.62-0.07-23.23-0.14-34.85-0.22c2.25-10.32,6.51-19.93,10.31-29.71
			C607.22,771.43,610.16,767.23,611.19,762.24z"/>
		<path class="st10" d="M901.24,660.1c0.5,4.78-0.68,8.52-5.79,10.22c-1.67,0.56-2.82,2.09-3.43,3.85
			c-2.18,1.15-4.54,0.84-6.85,0.84c-64.29,0.01-128.58,0-192.88,0.03c-3.84,0-7.65-0.05-11.39-1.02
			c5.21-4.84,11.16-8.71,16.88-12.89c0.93-0.68,1.93-1.14,2.38-2.27c60.23,0,120.46,0,180.68,0c6.9,0,6.9,0,6.99-6.72
			C892.8,653.96,897.09,656.9,901.24,660.1z"/>
		<path class="st8" d="M594.08,819.97c1.48,9.68,3.57,19.19,7.55,28.21c2.02,4.57,5.04,7.36,10.34,6.79
			c3.34-0.36,3.6,1.24,2.65,3.89c-2.42,6.71-6.82,11.7-12.94,15.22c-9,5.18-16.89,11.67-23.45,19.75
			c-0.56-10.58,1.73-20.92,3.21-31.26c2.34-16.43,5.78-32.71,10.62-48.64c0.61-2.01,1.42-3.95,2.14-5.93
			c11.91,0.01,23.82,0.02,35.72,0.03c0.75,4.34-1.16,6.85-5.27,8.12c-2.19,0.67-4.29,1.69-6.38,2.65
			c-7.92,3.67-15.83,7.34-24.23,1.22c-0.12-0.09-0.24-0.18-0.36-0.27C593.81,819.82,593.94,819.89,594.08,819.97z"/>
		<path class="st6" d="M680.9,674.03c3.74,0.96,7.55,1.02,11.39,1.02c64.29-0.03,128.58-0.02,192.88-0.03
			c2.31,0,4.67,0.32,6.85-0.84c-0.03,1.24-0.62,1.88-1.9,1.83c-60.69-0.02-121.39-0.03-182.08-0.06c-9.31,0-18.62-0.12-27.93-0.18
			C680.08,675.05,680.1,674.36,680.9,674.03z"/>
		<path class="st4" d="M995.87,821.83c1.48,12.92,3.04,25.84,4.4,38.78c0.73,6.88,1.21,13.79,1.6,20.69
			c0.15,2.67,0.47,4.09,3.72,3.03c2.63-0.86,5.49-1.01,8.25-1.47l0.17,0.2c-2.5,2.29-5.77,2.44-8.82,2.85
			c-2.19,0.3-3.57,0.76-3.15,3.23c0.47,2.77,2.32,1.04,3.48,0.85c3.53-0.57,7.03-1.37,10.62-1.77c-2.87,2.51-6.59,2.84-9.97,3.33
			c-3.83,0.56-4.22,2.34-4.28,5.58c-0.14,7.73-0.71,15.45-1.13,23.49c-2.41-0.79-1.82-2.34-1.71-3.41
			c2.46-24.01,1.12-47.91-2.01-71.77c-1.07-8.2-2.03-16.41-3.04-24.61C994.62,821.16,995.24,821.49,995.87,821.83z"/>
		<path class="st6" d="M974.93,757.84c-26.8,0.05-53.61,0.09-80.41,0.14c-3.16,0.01-6.33,0.05-9.49,0.08
			c-6.29-0.05-12.57-0.1-18.86-0.14c-0.11-0.27-0.11-0.54-0.02-0.82c4.98-0.09,9.95-0.18,14.93-0.27
			c31.23,0.05,62.46,0.1,93.68,0.15C974.87,757.26,974.93,757.55,974.93,757.84z"/>
		<path class="st4" d="M994.98,886.97c-4.02-21.43-13.35-42.29-6.97-64.83c0.65-0.27,1.29-0.53,1.93-0.8
			c-5.39,17.64-1.22,34.61,3.47,51.58c1.27,4.59,2.67,9.22,2.39,14.1C995.53,886.99,995.26,886.97,994.98,886.97z"/>
		<path class="st11" d="M629.92,808.03c-11.91-0.01-23.82-0.02-35.72-0.03c-0.18-0.92-0.07-1.72,0.89-2.19
			c11.62,0.07,23.23,0.14,34.85,0.21C629.93,806.7,629.93,807.36,629.92,808.03z"/>
		<path class="st8" d="M910.17,666.05c-0.8,0.08-1.63,0.05-2.4,0.25c-5.57,1.45-6.91-1.22-6.04-6.11
			C905.05,661.41,907.37,664.07,910.17,666.05z"/>
		<path class="st12" d="M1021.77,853.15c-0.23,7.97,1.04,16.02-1.19,23.88c0.92-7.56,0.19-15.15,0.29-22.72
			C1021.17,853.93,1021.47,853.54,1021.77,853.15z"/>
		<path class="st10" d="M672,682.06c0.03,0.18,0.04,0.35,0.04,0.53c0,0-0.43,0.18-0.43,0.18s-0.47-0.03-0.47-0.03
			C671.42,682.52,671.71,682.29,672,682.06z"/>
		<path class="st8" d="M640.77,843.84c6.34-5.31,6.47-11.53,3.27-18.68c-2.64-5.9-5.32-11.72-9.03-17.04
			c26.99,0.02,53.98,0.04,80.98,0.06c-10.62,15.88-17.64,33.49-24.56,51.15c-0.87,2.21-0.72,4.56,0.64,6.67
			c-6.05,14.75-11,29.88-15.36,45.21c-1.65,1.15-3.54,0.72-5.34,0.73c-7.99,0.04-15.99,0.19-23.98-0.06
			c-3.59-0.12-4.55,1.12-4.42,4.54c0.24,6.49,0.36,13-0.01,19.48c-0.34,5.83,1.12,10.79,5.1,15.02c-1.02,0.14-2.03,0.28-3.05,0.42
			c-6.85-4.71-5.34-12.28-5.65-18.73c-0.98-20.44,0.28-40.87,1.43-61.29c0.23-4.15,0.05-8.31,0.06-12.47
			C640.81,853.86,640.79,848.85,640.77,843.84z"/>
		<path class="st13" d="M640.77,843.84c0.02,5.01,0.04,10.01,0.06,15.01c-0.94,0.68-2.21,1.4-1.89,2.68
			c1.3,5.31-3.04,8.81-4.19,13.34c-0.68,2.67-5.21,3.19-6.41,0.58c-1.62-3.53-6.2-4.69-6.53-9.01c-0.09-1.21-1.27-1.25-2.23-1.56
			c-3.94-1.31-3.3-4.8-3.69-7.86c-0.43-3.32,2.27-3.29,4.11-3.84C627.35,850.99,633.66,846.53,640.77,843.84z"/>
		<path class="st6" d="M645,951.34c1.02-0.14,2.03-0.28,3.05-0.42c1.44,0.32,2.88,0.92,4.32,0.92c11.92,0.03,23.84-0.06,35.76-0.11
			c6.27,0.03,12.53,0.04,18.8,0.1c1.92,0.02,4.25-0.43,4.09,2.75c-26.51,0.01-53.01,0.03-79.52,0.04c-1.48,0-2.99,0.18-4.34-0.69
			c0.65-2.38,2.57-2.19,4.41-2.23C636.05,951.6,640.53,951.46,645,951.34z"/>
		<path class="st11" d="M715.99,808.19c-26.99-0.02-53.98-0.04-80.98-0.06c-0.92-0.37-1.06-1.23-1.28-2.04
			c27.9-0.04,55.79-0.08,83.69-0.12C716.95,806.7,716.47,807.44,715.99,808.19z"/>
		<path class="st12" d="M591.61,950.47c0.92-3.54,3.94-5.24,6.14-7.55c0.76-0.8,1.83-1.04,2.55-0.02c1.23,1.73,2.56,3.53,2.51,5.75
			c-0.03,1.22-1.36,1.39-2.32,1.23C597.57,949.41,594.83,951.58,591.61,950.47z"/>
		<path class="st12" d="M622.98,847.85c-1.79-3.72,1.88-7.07-1.45-10.02c-0.54-0.48,0.95-1.58,1.91-1.76
			c1.06-0.19,3.1-1.34,3.07-0.41c-0.15,4.9,4.37,3.19,6.35,4.93c0.22,0.19,0.29,0.56,0.74,1.49
			C628.18,840.29,623.38,839.7,622.98,847.85z"/>
		<path class="st9" d="M921.14,858.55c16.79,0.08,33.58,0.17,50.36,0.25c8.37,0.04,10.26,2.43,8.94,10.7
			c-1.62,10.15-3.02,20.34-4.51,30.52c-0.96,4.98-1.92,9.96-2.89,14.94c-0.14,1.99-0.14,3.99-0.43,5.96c-1.59,11.01-3.25,22-4.89,33
			c-1.3,0.2-2.6,0.57-3.89,0.57c-62.19,0.03-124.38,0.02-186.58,0.01c-0.66,0-1.32-0.1-1.99-0.15c-0.52-3.54,1.14-4.68,4.53-4.58
			c6.12,0.17,12.24,0.05,18.36,0.05c7.3,0,7.3,0,7.83-7.61c0.32-1.12,0.76-2.21,0.93-3.35c3.46-23.14,6.8-46.29,10.36-69.41
			c1.54-9.97,1.76-9.97,11.32-10.72c5.45-0.02,10.89-0.04,16.33-0.06c5.37-0.02,10.75-0.03,16.12-0.05
			c5.6,0.68,11.22,0.29,16.83,0.21C892.3,858.73,906.72,858.64,921.14,858.55z M908.92,901.99c0.11-4.48-3.83-8.67-8.36-8.89
			c-4.64-0.23-9.13,4.02-9.14,8.64c-0.02,4.51,3.93,8.7,8.4,8.92C904.53,910.88,908.8,906.82,908.92,901.99z"/>
		<path class="st14" d="M805.99,942.2c-0.53,7.6-0.53,7.6-7.83,7.61c-6.12,0-12.25,0.12-18.36-0.05c-3.4-0.1-5.05,1.04-4.53,4.58
			c-0.29,0.17-0.57,0.48-0.86,0.48c-21.13,0.02-42.25,0.55-63.38-0.25c0.16-3.17-2.17-2.73-4.09-2.75
			c-6.27-0.06-12.53-0.07-18.8-0.1c2.25-0.83,4.59-2.21,5.2-4.3c1.14-3.92,3.91-4.95,7.22-6.14c6.25-2.25,8.75-6.5,8.32-12.98
			c-0.34-5.16-3.09-8.35-9.47-9.74c-2.78-0.61-4.17-1.37-3.68-4.33c0.41-2.45-0.81-3.09-3.11-3.04c-5.3,0.12-10.61,0.02-15.91,0.01
			c4.36-15.33,9.31-30.45,15.36-45.21c12.55,8.63,24.46,18.29,38.69,24.23c1.22,0.51,2.37,0.96,1.94,2.85
			c-1.62,7.04-2.56,14.24-5.25,21.01c-2.56,6.44-2.01,7.37,4.66,9.16c16.98,4.55,33.35,10.89,49.3,18.17
			c6.28,2.87,12.23,3.69,18.75,1.92C802.06,942.83,804.04,942.57,805.99,942.2z"/>
		<path class="st8" d="M967.72,953.91c1.64-11,3.3-22,4.89-33c0.28-1.97,0.29-3.97,0.43-5.96c6.3,0.15,6.39,4.41,5.98,9.01
			c-5.63,0.3-5.92,0.71-4.87,6.12c1.34,6.94,2.47,13.93,3.98,20.83c0.56,2.54,0,3.31-2.48,3.17
			C973.01,953.95,970.36,953.97,967.72,953.91z"/>
		<path class="st15" d="M984.95,904.8c0.35-7.49,0.72-14.97,1.03-22.46c0.05-1.24,0.1-2.32,1.72-2.35c1.28,6,1.79,12.1,2.12,18.21
			C989.99,901.55,989.12,904.49,984.95,904.8z"/>
		<path class="st4" d="M994.95,911.94c-4.45-0.31-9,0.71-13.41-1.19c4.03,1.05,7.77-0.87,11.68-0.76c1.28,0.04,1.6,0.92,1.7,1.97
			L994.95,911.94z"/>
		<path class="st12" d="M994.98,886.97c0.28,0,0.55,0.02,0.83,0.05c0,6.63,0,13.25,0,19.88c-0.27,0-0.55,0.01-0.82,0.01
			C994.98,900.27,994.98,893.62,994.98,886.97z"/>
		<path class="st4" d="M1023.04,886.09c-1.17,1.12-2.48,1.91-4.49,1.71c1.11-1.76,2.68-1.91,4.3-1.93
			C1022.85,885.87,1023.04,886.09,1023.04,886.09z"/>
		<path class="st4" d="M1013.84,882.85c0.39-0.87,1.18-0.95,1.99-1c0,0,0.19,0.19,0.19,0.19c-0.67,0.34-1.34,0.67-2,1.01
			C1014.01,883.05,1013.84,882.85,1013.84,882.85z"/>
		<path class="st4" d="M1026.87,883.9c-0.05-0.84,0.18-1.56,0.93-2.04c0,0,0.29,0.25,0.29,0.25c-0.38,0.63-0.75,1.26-1.13,1.89
			C1026.95,884,1026.87,883.9,1026.87,883.9z"/>
		<path class="st4" d="M1024.83,884.87c0.47-0.75,1.19-0.99,2.04-0.96c0,0,0.08,0.1,0.08,0.1c-0.4,0.78-1.11,1.03-1.92,1.1
			L1024.83,884.87z"/>
		<path class="st4" d="M1025.03,885.1c-0.42,0.82-1.2,0.92-1.99,0.99c0,0-0.19-0.22-0.19-0.22c0.44-0.78,1.19-0.94,1.98-1
			C1024.83,884.87,1025.03,885.1,1025.03,885.1z"/>
		<path class="st4" d="M1015.82,881.85c0.21-0.14,0.42-0.29,0.63-0.43c-0.15,0.21-0.3,0.41-0.45,0.62
			C1016.01,882.04,1015.82,881.85,1015.82,881.85z"/>
		<path class="st4" d="M994.92,911.97c0.14,0.07,0.27,0.13,0.41,0.2c-0.13-0.08-0.26-0.15-0.38-0.23
			C994.95,911.94,994.92,911.97,994.92,911.97z"/>
		<path class="st1" d="M744.16,595.07c4.54,0.06,8,3.71,8.02,8.44c0.02,4.93-3.73,8.73-8.43,8.53c-4.45-0.19-7.87-4.01-7.79-8.7
			C736.05,598.7,739.71,595,744.16,595.07z"/>
		<path class="st1" d="M772.18,603.5c0.03,4.74-3.38,8.42-7.92,8.55c-4.63,0.13-8.38-3.8-8.3-8.69c0.08-4.65,3.73-8.35,8.18-8.29
			C768.68,595.12,772.15,598.76,772.18,603.5z"/>
		<path class="st1" d="M792.16,604.05c-0.23,4.69-3.95,8.21-8.46,7.99c-4.63-0.22-8.09-4.37-7.73-9.25
			c0.32-4.39,3.97-7.82,8.23-7.73C788.92,595.16,792.4,599.09,792.16,604.05z"/>
		<path class="st1" d="M670.07,706.27c-0.81-3.81,1.26-5.47,4.59-6.36c2.44-0.66,4.87-1,7.38-0.88c5.3,0.27,9.62,3.37,11,7.87
			c1.58,5.16-0.19,10.39-4.73,13.57c-2.3,1.62-4.59,2.98-5.57,6.04c-0.89,2.78-3.88,1.77-5.6,1.26c-1.94-0.58-1.3-2.85-0.54-4.29
			c1.07-2.05,2.5-3.9,3.73-5.86c1.17-1.87,2.22-3.83,0.74-6c-1.53-2.23-3.94-2.09-5.83-1.18
			C670.17,712.9,669.54,710.39,670.07,706.27z"/>
		<path class="st1" d="M674.95,735.77c0.15-3.34,1.8-5.48,5.08-5.66c3.29-0.18,5.46,1.71,5.43,5.05c-0.03,3.08-1.71,5.56-5.02,5.74
			C677.12,741.08,675.39,738.95,674.95,735.77z"/>
		<path class="st6" d="M754.03,778.6c0-5.19-0.01-10.39-0.01-15.58c0.35,0.01,0.69,0.02,1.04,0.03c-0.02,0.32,0.04,0.63,0.19,0.92
			c0,4.35,0,8.69,0,13.04c-0.15,0.31-0.15,0.62-0.01,0.94C754.82,778.16,754.42,778.38,754.03,778.6z"/>
		<path class="st10" d="M755.23,763.96c-0.14-0.29-0.21-0.6-0.19-0.92c0.32-0.08,0.64-0.05,0.94,0.08
			C755.74,763.4,755.49,763.68,755.23,763.96z"/>
		<path class="st4" d="M754.03,778.6c0.4-0.22,0.8-0.44,1.2-0.66c0.86,0.16,1.59-0.03,2.12-0.77c4.24-0.78,8.47-1.55,12.71-2.33
			c1.13,0.17,2.25,0.29,3.14-0.66c6.58-0.06,13.16-0.13,19.75-0.19c0.07,2.69,0.15,5.39,0.22,8.08c-0.77,1.82-1.15,3.96-2.36,5.41
			c-6.45,7.71-4.75,16.02-2,24.37c2.92,8.87,9.55,13.75,18.86,14.13c3.81,0.15,7.62,0.02,11.31-1.15c5.5-1.97,10.71-4.89,13.58-9.85
			c2.11-3.65,4.63-4.63,8.17-4.86c-1.57,6.62-3.15,13.23-4.72,19.85c-1.01,3.5-2.01,7-3.02,10.5c-1.46,6.08-2.92,12.17-4.38,18.25
			c-9.55,0.75-9.78,0.74-11.32,10.72c-3.56,23.12-6.9,46.27-10.36,69.41c-0.17,1.14-0.61,2.23-0.93,3.35
			c-1.95,0.38-3.93,0.63-5.84,1.15c-6.51,1.76-12.47,0.94-18.75-1.92c-15.95-7.28-32.31-13.62-49.3-18.17
			c-6.66-1.78-7.22-2.72-4.66-9.16c2.69-6.77,3.64-13.97,5.25-21.01c0.43-1.89-0.72-2.34-1.94-2.85
			c-14.23-5.95-26.14-15.61-38.69-24.23c-1.36-2.11-1.5-4.46-0.64-6.67c6.92-17.66,13.94-35.27,24.56-51.15
			c0.48-0.74,0.95-1.48,1.43-2.22C727.69,794.25,739.52,784.63,754.03,778.6z"/>
		<path class="st15" d="M840.72,810.12c-3.55,0.23-6.06,1.21-8.17,4.86c-2.87,4.96-8.08,7.88-13.58,9.85
			c-9.1-11.73-13.19-24.81-9.88-39.55c1.43-6.36,2.89-12.96,8.69-17.23c0.72,4.18,2.12,4.85,5.59,2.67
			c1.46-0.92,2.16-2.39,2.97-3.83c2.57-4.55,5.24-9.05,7.87-13.56c5.16-3.96,10.81-5.07,17.23-3.66c4.54,1,9.19,0.7,13.47-1.58
			c0.1,0.33,0.19,0.65,0.29,0.98c0.32,2.68,0.65,5.36,0.97,8.05c-0.09,0.28-0.09,0.55,0.02,0.82c-0.49,1.5,0.16,2.79,0.76,4.08
			c-0.88,0.7-0.92,1.68-0.96,2.69c-0.49,10.74-3.07,20.95-8.54,30.23C853.49,801.64,849.03,808.08,840.72,810.12z M851.66,785.23
			c0.29,1.05,0.91,1.76,2.2,2.31c-0.03-1.59-0.61-2.33-1.86-2.56c-3.02-2.39-5.61-1.41-8.03,1c-3.56,1.77-4.69,4.89-5.07,8.45
			c1.6-2.82,3.36-5.51,5.34-8.07C846.63,785.47,849.02,784.53,851.66,785.23z M841.82,768.04c1.81-0.23,4.42,1.83,4.56-1.17
			c0.11-2.45-2.79-2.15-4.59-2.55c-0.59-0.13-1.32,0.05-1.92,0.27c-1.67,0.62-4.81,0.02-4.3,2.77c0.48,2.59,2.96,0.73,4.58,0.68
			C840.8,768.02,841.45,768.04,841.82,768.04z M860.4,761.93c-2.04,0.24-4.5,0.4-5.3,3.1c-0.44,1.46,1.11,2.51,2,1.82
			c2.15-1.66,6.33,0.93,6.93-3.11C864.34,761.63,862.07,762.12,860.4,761.93z"/>
		<path class="st12" d="M864.9,748.08c-4.28,2.28-8.93,2.58-13.47,1.58c-6.42-1.41-12.07-0.3-17.22,3.66
			c-1.28-0.31-2.12,0.56-3.13,1.09c-5.52,2.89-9.28,7.81-13.87,11.78c-4.69-3.73-9.16-3.53-12.97,0.83
			c-3.34,3.82-4.71,8.64-3.98,13.41c0.82,5.39-1.55,4.1-4.41,2.91c-0.91-0.38-1.79-0.85-2.68-1.28c-0.07-2.69-0.15-5.39-0.22-8.08
			c3.64-6.01,4.39-12.75,5.03-19.54c0.29-3.12,0.62-6.29,1.4-9.31c5.2-20.06,19.15-28.38,39.43-23.62
			c4.19,0.98,8.32,2.24,12.53,3.08c3.21,0.64,6.54,1.36,9.64-0.58c0.86,0.06,1.66-0.03,2.19-0.83c1.27-0.36,2.53-0.81,3.82-1.07
			c6.24-1.28,10.22,3,8.06,9.04C872.82,737.43,869.8,743.35,864.9,748.08z"/>
		<path class="st11" d="M866.16,757.1c-0.32-2.68-0.65-5.36-0.97-8.05c5.86,1.44,11.92,2.49,15.89,7.78
			C876.11,756.92,871.13,757.01,866.16,757.1z"/>
		<path class="st11" d="M863.18,723.19c-0.53,0.8-1.34,0.88-2.19,0.83c0.29-7.54-0.98-15.27,2.42-22.46
			C862.66,708.78,863,715.99,863.18,723.19z"/>
		<path class="st11" d="M887.8,683.95c0.01,0.72,0.02,1.43,0.03,2.15c-3.86-0.46-7.56,0.69-11.36,1.24
			C879.83,684.57,883.9,684.55,887.8,683.95z"/>
		<path class="st10" d="M773.2,774.18c-0.89,0.95-2.01,0.84-3.14,0.66C770.93,773.78,772.07,774.02,773.2,774.18z"/>
		<path class="st10" d="M871.39,690.42c-0.08-0.28-0.12-0.42-0.17-0.56c0.12-0.03,0.25-0.07,0.37-0.1
			C871.54,689.94,871.49,690.12,871.39,690.42z"/>
		<path class="st10" d="M757.35,777.17c-0.54,0.73-1.27,0.93-2.12,0.77c-0.14-0.32-0.14-0.63,0.01-0.94
			C755.94,777.06,756.64,777.11,757.35,777.17z"/>
		<polygon class="st11" points="866.46,695.8 866.34,695.46 866.63,695.49 		"/>
		<polygon class="st11" points="865.44,697.77 865.33,697.4 865.63,697.44 		"/>
		<polygon class="st11" points="864.43,699.75 864.33,699.4 864.62,699.43 		"/>
		<path class="st1" d="M969.16,691.52c0.24,4.05-1.18,7.24-4.39,9.59c-2.5,1.83-5.25,3.16-6.28,6.68c-0.67,2.3-3.6,1.51-5.26,1.07
			c-2.13-0.56-1.49-2.77-0.77-4.18c1.12-2.2,2.68-4.18,3.96-6.31c1.13-1.89,2.16-3.91,0.46-5.98c-1.49-1.82-3.55-1.33-5.55-1.15
			c-1.71,0.15-4.09,2.85-5-0.23c-0.79-2.65-1.87-6.5,0.92-8.36c4.75-3.17,10.32-3.66,15.68-1.32
			C967.23,683.2,969.63,686.64,969.16,691.52z"/>
		<path class="st1" d="M956.11,722.06c-3.08-0.56-5.16-2.2-5.16-5.53c0.01-3.3,1.97-5.32,5.18-5.41c2.94-0.08,5.2,1.63,5.23,4.73
			C961.41,719.12,959.65,721.42,956.11,722.06z"/>
		<path class="st11" d="M866.94,762c-0.6-1.29-1.25-2.58-0.76-4.08c6.29,0.05,12.57,0.1,18.86,0.14c2.62,2.97,5.31,5.89,7.84,8.93
			c5.82,6.99,7.75,15.63,10.07,24.09c3.01,11.01,6.01,22.02,9.02,33.02c-6.8,8.39-8.35,19.53-3.57,27.67
			c1.06-2.52,0.3-4.68,0.02-6.9c-0.85-6.55-1.08-13.01,4.45-18.01c2.76,10.56,5.52,21.12,8.28,31.68
			c-14.42,0.09-28.84,0.18-43.26,0.27c1.61-9.71,1.18-19.55,1.9-29.32c0.93-12.67,0.54-25.23-7.4-36.16
			C876.86,781.8,872.13,771.86,866.94,762z"/>
		<path class="st6" d="M921.97,838.9c-2.35-5.46,0.6-9.32,4.16-12.12c9.17-7.18,11.55-16.35,10.22-27.46
			c-0.93-7.73-1.07-15.64,2.45-23.02c0.91-1.9,1.6-4,4.2-4.92c0.05,0.8,0.36,1.6,0.09,1.99c-5.13,7.19-4.5,15.4-4.27,23.54
			c0.09,3.16,0.12,6.32,0.19,9.48c0.17,7.21-2.35,13.33-7.46,18.38C927.46,828.82,922.82,832.47,921.97,838.9z"/>
		<path class="st9" d="M912.86,826.87c-5.53,5-5.3,11.47-4.45,18.01c0.29,2.22,1.04,4.38-0.02,6.9c-4.78-8.15-3.23-19.29,3.57-27.67
			c8.65-6.12,13.68-13.83,10.4-24.83c2.31-0.65,2.36,0.75,2.59,1.81c1.78,7.99-0.7,14.64-6.45,20.25
			C916.62,823.18,914.74,825.03,912.86,826.87z"/>
		<path class="st3" d="M594.08,819.97c-0.14-0.07-0.28-0.15-0.41-0.22c0.12,0.09,0.24,0.18,0.36,0.27
			C594.03,820.02,594.08,819.97,594.08,819.97z"/>
		<path class="st4" d="M676.71,911.21c5.3,0.01,10.61,0.11,15.91-0.01c2.3-0.05,3.52,0.59,3.11,3.04c-0.49,2.96,0.89,3.72,3.68,4.33
			c6.37,1.4,9.12,4.58,9.47,9.74c0.43,6.48-2.07,10.72-8.32,12.98c-3.32,1.19-6.09,2.22-7.22,6.14c-0.6,2.08-2.95,3.47-5.2,4.3
			c-11.92,0.05-23.84,0.14-35.75,0.11c-1.44,0-2.88-0.6-4.32-0.92c-3.98-4.23-5.43-9.19-5.1-15.02c0.37-6.47,0.26-12.99,0.01-19.48
			c-0.13-3.43,0.82-4.66,4.42-4.54c7.98,0.26,15.98,0.1,23.98,0.06C673.16,911.93,675.05,912.36,676.71,911.21z M695.74,930.4
			c0.82,1.91-1.7,5.69,1.52,6.48c2.99,0.73,5.04-2.53,6.51-5.03c1.49-2.53-0.08-4.7-1.67-6.65c-1.36-1.68-3.69-2.48-5.26-1.92
			c-2.19,0.78-0.74,3.44-1.09,5.24C695.66,929,695.74,929.51,695.74,930.4z"/>
		<path class="st4" d="M872.37,793.34c7.94,10.93,8.33,23.49,7.4,36.16c-0.72,9.77-0.28,19.61-1.9,29.32
			c-5.61,0.08-11.23,0.47-16.83-0.21c0.14-16.21,0.78-32.42-0.06-48.64C862.89,803.13,868.12,798.57,872.37,793.34z"/>
		<path class="st15" d="M860.99,809.97c0.84,16.21,0.2,32.42,0.06,48.64c-5.37,0.02-10.75,0.03-16.12,0.05
			c-0.02-1.28-1.05-1.97-1.62-2.94c-3.13-5.31-9.01-8.74-10.33-15.25c1.01-3.5,2.01-7,3.02-10.5c2.07-0.2,3.68-1.26,5.15-2.65
			c5.14-4.83,10.29-9.65,15.46-14.45C857.9,811.66,858.9,809.98,860.99,809.97z"/>
		<path class="st14" d="M832.98,840.47c1.33,6.51,7.21,9.95,10.33,15.25c0.57,0.97,1.6,1.66,1.62,2.94
			c-5.44,0.02-10.89,0.04-16.33,0.06C830.06,852.64,831.52,846.55,832.98,840.47z"/>
		<path class="st13" d="M908.92,901.99c-0.12,4.83-4.38,8.9-9.09,8.67c-4.47-0.21-8.42-4.41-8.4-8.92c0.02-4.63,4.51-8.87,9.14-8.64
			C905.09,893.32,909.03,897.51,908.92,901.99z M900.4,895.07c-3.66-0.07-6.66,2.85-6.76,6.59c-0.11,3.87,2.54,6.67,6.41,6.77
			c3.71,0.1,6.81-2.79,6.88-6.41C906.99,898.55,903.78,895.13,900.4,895.07z"/>
		<path class="st14" d="M793.17,782.07c0.89,0.43,1.77,0.9,2.68,1.28c2.86,1.19,5.23,2.48,4.41-2.91
			c-0.73-4.77,0.65-9.59,3.98-13.41c3.8-4.36,8.28-4.56,12.97-0.83c0.19,0.62,0.38,1.23,0.57,1.85c-5.8,4.27-7.26,10.87-8.69,17.23
			c-3.3,14.74,0.78,27.82,9.88,39.55c-3.69,1.17-7.49,1.3-11.31,1.15c-9.3-0.37-15.93-5.25-18.86-14.13
			c-2.75-8.35-4.45-16.65,2-24.37C792.02,786.04,792.4,783.89,793.17,782.07z"/>
		<path class="st1" d="M860.99,809.97c-2.09,0.01-3.09,1.69-4.39,2.89c-5.16,4.81-10.32,9.62-15.46,14.45
			c-1.47,1.39-3.09,2.44-5.15,2.65c1.57-6.62,3.15-13.24,4.72-19.85c8.31-2.04,12.77-8.48,16.72-15.19
			c5.47-9.28,8.05-19.49,8.54-30.23c0.05-1.01,0.08-2,0.96-2.69c5.19,9.86,9.93,19.8,5.44,31.34
			C868.12,798.57,862.89,803.13,860.99,809.97z"/>
		<path class="st3" d="M817.77,768.04c-0.19-0.62-0.38-1.24-0.57-1.85c4.59-3.97,8.35-8.89,13.87-11.78
			c1.02-0.53,1.85-1.4,3.13-1.09c-2.63,4.52-5.3,9.01-7.88,13.56c-0.81,1.44-1.51,2.91-2.97,3.83
			C819.89,772.89,818.49,772.22,817.77,768.04z"/>
		<path class="st3" d="M841.82,768.04c-0.37,0-1.02-0.02-1.67,0c-1.62,0.05-4.1,1.91-4.58-0.68c-0.51-2.75,2.62-2.15,4.3-2.77
			c0.6-0.22,1.33-0.41,1.92-0.27c1.8,0.4,4.7,0.1,4.59,2.55C846.24,769.87,843.63,767.81,841.82,768.04z"/>
		<path class="st3" d="M860.4,761.93c1.67,0.19,3.94-0.3,3.62,1.81c-0.6,4.04-4.78,1.45-6.93,3.11c-0.89,0.69-2.44-0.37-2-1.82
			C855.91,762.33,858.36,762.16,860.4,761.93z"/>
		<path class="st3" d="M844.25,786.37c-1.98,2.55-3.74,5.25-5.34,8.06c0.38-3.56,1.51-6.69,5.07-8.45L844.25,786.37z"/>
		<path class="st3" d="M843.97,785.98c2.42-2.41,5.01-3.4,8.03-1l-0.35,0.26c-2.64-0.71-5.02,0.23-7.41,1.12
			C844.25,786.37,843.97,785.98,843.97,785.98z"/>
		<path class="st3" d="M852,784.97c1.25,0.24,1.83,0.97,1.86,2.56c-1.29-0.55-1.91-1.26-2.2-2.3
			C851.65,785.24,852,784.97,852,784.97z"/>
		<path class="st14" d="M695.74,930.4c0-0.89-0.08-1.4,0.01-1.87c0.35-1.81-1.1-4.46,1.09-5.24c1.57-0.56,3.89,0.24,5.26,1.92
			c1.59,1.95,3.16,4.12,1.67,6.65c-1.47,2.5-3.52,5.76-6.51,5.03C694.04,936.09,696.56,932.31,695.74,930.4z"/>
		<path class="st9" d="M900.4,895.07c3.38,0.06,6.59,3.49,6.53,6.95c-0.06,3.62-3.16,6.51-6.88,6.41c-3.87-0.1-6.52-2.9-6.41-6.77
			C893.75,897.92,896.74,895,900.4,895.07z"/>
	</g>
</g>
</svg>
