<?xml version="1.0" encoding="UTF-8"?>
<!DOCTYPE svg PUBLIC "-//W3C//DTD SVG 1.1//EN" "http://www.w3.org/Graphics/SVG/1.1/DTD/svg11.dtd">
<svg xmlns="http://www.w3.org/2000/svg" version="1.1" width="150px" height="165px" style="shape-rendering:geometricPrecision; text-rendering:geometricPrecision; image-rendering:optimizeQuality; fill-rule:evenodd; clip-rule:evenodd" xmlns:xlink="http://www.w3.org/1999/xlink">
<g><path style="opacity:1" fill="#aca7a5" d="M 41.5,-0.5 C 42.8333,-0.5 44.1667,-0.5 45.5,-0.5C 57.5094,10.8936 62.1761,24.8936 59.5,41.5C 58.2502,41.4226 57.4169,40.756 57,39.5C 56.8064,31.2721 55.473,23.2721 53,15.5C 52.3603,17.265 52.5269,18.9317 53.5,20.5C 52.8333,20.5 52.5,20.8333 52.5,21.5C 50.104,18.4509 47.7706,15.4509 45.5,12.5C 44.1667,10.5 42.5,8.83333 40.5,7.5C 39.2073,6.35521 38.0407,6.68854 37,8.5C 36.1301,7.8921 35.6301,7.05877 35.5,6C 37.014,3.32185 39.014,1.15518 41.5,-0.5 Z"/></g>
<g><path style="opacity:0.945" fill="#c3bfbd" d="M 36.5,-0.5 C 38.1667,-0.5 39.8333,-0.5 41.5,-0.5C 39.014,1.15518 37.014,3.32185 35.5,6C 35.6301,7.05877 36.1301,7.8921 37,8.5C 38.0407,6.68854 39.2073,6.35521 40.5,7.5C 37.376,9.72442 35.2094,12.7244 34,16.5C 32.5149,22.0764 31.6816,27.7431 31.5,33.5C 30.2719,32.6935 29.2719,31.6935 28.5,30.5C 28.3995,23.8351 29.3995,17.3351 31.5,11C 31.2568,10.0979 30.9234,9.26456 30.5,8.5C 31.2344,7.12247 31.9011,5.62247 32.5,4C 32.2716,3.60123 31.9382,3.43456 31.5,3.5C 32.6718,1.46096 34.3384,0.127626 36.5,-0.5 Z"/></g>
<g><path style="opacity:1" fill="#9cabac" d="M 31.5,3.5 C 31.9382,3.43456 32.2716,3.60123 32.5,4C 31.9011,5.62247 31.2344,7.12247 30.5,8.5C 29.065,10.5976 27.8984,12.9309 27,15.5C 24.4662,23.7933 22.9662,32.1266 22.5,40.5C 22.391,33.8039 22.7243,27.1373 23.5,20.5C 24.319,13.8662 26.9857,8.19952 31.5,3.5 Z"/></g>
<g><path style="opacity:1" fill="#4e4e4b" d="M 53.5,20.5 C 54.3761,23.7989 54.5428,27.1322 54,30.5C 53.8019,28.6183 53.3019,26.9516 52.5,25.5C 52.5,24.1667 52.5,22.8333 52.5,21.5C 52.5,20.8333 52.8333,20.5 53.5,20.5 Z"/></g>
<g><path style="opacity:1" fill="#969491" d="M 30.5,8.5 C 30.9234,9.26456 31.2568,10.0979 31.5,11C 29.3995,17.3351 28.3995,23.8351 28.5,30.5C 28.5,31.1667 28.1667,31.5 27.5,31.5C 26.603,30.4019 25.7697,30.4019 25,31.5C 24.51,32.7932 24.3433,34.1266 24.5,35.5C 25.5,35.5 26.5,35.5 27.5,35.5C 27.5,37.8333 27.5,40.1667 27.5,42.5C 26.6618,42.8417 26.3284,43.5084 26.5,44.5C 25.8333,44.5 25.1667,44.5 24.5,44.5C 24.4729,42.8007 23.8062,41.4674 22.5,40.5C 22.9662,32.1266 24.4662,23.7933 27,15.5C 27.8984,12.9309 29.065,10.5976 30.5,8.5 Z"/></g>
<g><path style="opacity:0.408" fill="#d4ddde" d="M 45.5,12.5 C 47.7706,15.4509 50.104,18.4509 52.5,21.5C 52.5,22.8333 52.5,24.1667 52.5,25.5C 52.6743,32.5352 52.3409,39.5352 51.5,46.5C 50.8921,47.7997 50.2255,49.1331 49.5,50.5C 50.7052,52.1209 50.5385,53.4542 49,54.5C 47.8069,53.0215 47.3069,51.6882 47.5,50.5C 46.0476,51.9397 45.0476,53.6064 44.5,55.5C 43.9829,53.81 43.6495,52.1433 43.5,50.5C 45.2227,47.1024 46.3894,43.4357 47,39.5C 47.97,30.359 47.47,21.359 45.5,12.5 Z"/></g>
<g><path style="opacity:0.527" fill="#c4d9dc" d="M 23.5,20.5 C 22.7243,27.1373 22.391,33.8039 22.5,40.5C 23.8062,41.4674 24.4729,42.8007 24.5,44.5C 23.5,44.5 22.5,44.5 21.5,44.5C 21.3337,37.825 21.5004,31.1583 22,24.5C 22.21,22.9419 22.71,21.6085 23.5,20.5 Z"/></g>
<g><path style="opacity:1" fill="#e1dfde" d="M 27.5,31.5 C 28.2341,32.7079 28.5674,34.0413 28.5,35.5C 28.1667,35.5 27.8333,35.5 27.5,35.5C 26.5,35.5 25.5,35.5 24.5,35.5C 24.3433,34.1266 24.51,32.7932 25,31.5C 25.7697,30.4019 26.603,30.4019 27.5,31.5 Z"/></g>
<g><path style="opacity:1" fill="#6c615e" d="M 27.5,35.5 C 27.8333,35.5 28.1667,35.5 28.5,35.5C 29.1558,36.6216 29.4892,37.9549 29.5,39.5C 29.4146,41.3328 28.7479,42.6661 27.5,43.5C 27.5,43.1667 27.5,42.8333 27.5,42.5C 27.5,40.1667 27.5,37.8333 27.5,35.5 Z"/></g>
<g><path style="opacity:1" fill="#282826" d="M 53.5,47.5 C 52.8333,47.5 52.5,47.1667 52.5,46.5C 52.9978,43.5131 53.4978,40.5131 54,37.5C 54.6588,40.8881 54.4922,44.2214 53.5,47.5 Z"/></g>
<g><path style="opacity:0.102" fill="#b0afac" d="M 28.5,30.5 C 29.2719,31.6935 30.2719,32.6935 31.5,33.5C 32.2757,40.1373 32.609,46.8039 32.5,53.5C 33.9778,53.238 35.3112,53.5713 36.5,54.5C 37.4803,55.9814 38.647,57.3147 40,58.5C 40.4974,55.854 40.6641,53.1873 40.5,50.5C 41.5,50.5 42.5,50.5 43.5,50.5C 43.6495,52.1433 43.9829,53.81 44.5,55.5C 44.6567,56.8734 44.49,58.2068 44,59.5C 42.8687,58.3961 42.0354,58.7295 41.5,60.5C 46.1071,61.4491 49.6071,59.7824 52,55.5C 51.716,57.6792 51.8826,59.6792 52.5,61.5C 51.8333,62.5 51.1667,63.5 50.5,64.5C 49.4038,68.3217 47.7372,68.4884 45.5,65C 44.2068,64.51 42.8734,64.3433 41.5,64.5C 39.2654,63.7721 37.4321,62.4388 36,60.5C 36.0579,62.4354 36.8912,64.1021 38.5,65.5C 35.7374,65.2562 33.5707,63.9229 32,61.5C 31.3123,60.6683 31.479,60.0016 32.5,59.5C 34.6996,60.4563 35.0329,59.7896 33.5,57.5C 33.719,56.325 33.3857,55.325 32.5,54.5C 31.7025,54.9569 31.3691,55.6236 31.5,56.5C 30.7994,53.6652 30.6327,50.6652 31,47.5C 30.5814,46.3279 29.9147,45.3279 29,44.5C 29.1953,46.1261 29.1953,47.7928 29,49.5C 27.872,47.6547 27.372,45.6547 27.5,43.5C 28.7479,42.6661 29.4146,41.3328 29.5,39.5C 29.4892,37.9549 29.1558,36.6216 28.5,35.5C 28.5674,34.0413 28.2341,32.7079 27.5,31.5C 28.1667,31.5 28.5,31.1667 28.5,30.5 Z"/></g>
<g><path style="opacity:0.008" fill="#e4e4dd" d="M 25.5,49.5 C 24.8333,48.1667 24.8333,48.1667 25.5,49.5 Z"/></g>
<g><path style="opacity:1" fill="#b6b6b5" d="M 59.5,41.5 C 59.9452,44.3646 59.2785,46.8646 57.5,49C 60.816,51.4771 63.1494,54.6437 64.5,58.5C 63.71,59.6085 63.21,60.9419 63,62.5C 61.6612,59.1194 60.3279,55.7861 59,52.5C 58.7216,53.4158 58.2216,54.0825 57.5,54.5C 55.9255,52.0594 53.5921,50.8928 50.5,51C 51.448,50.5172 52.448,50.3505 53.5,50.5C 53.5,49.5 53.5,48.5 53.5,47.5C 54.4922,44.2214 54.6588,40.8881 54,37.5C 53.4978,40.5131 52.9978,43.5131 52.5,46.5C 52.1667,46.5 51.8333,46.5 51.5,46.5C 52.3409,39.5352 52.6743,32.5352 52.5,25.5C 53.3019,26.9516 53.8019,28.6183 54,30.5C 54.5428,27.1322 54.3761,23.7989 53.5,20.5C 52.5269,18.9317 52.3603,17.265 53,15.5C 55.473,23.2721 56.8064,31.2721 57,39.5C 57.4169,40.756 58.2502,41.4226 59.5,41.5 Z"/></g>
<g><path style="opacity:1" fill="#373231" d="M 33.5,57.5 C 32.5084,57.6716 31.8417,57.3382 31.5,56.5C 31.3691,55.6236 31.7025,54.9569 32.5,54.5C 33.3857,55.325 33.719,56.325 33.5,57.5 Z"/></g>
<g><path style="opacity:1" fill="#d2cecb" d="M 27.5,42.5 C 27.5,42.8333 27.5,43.1667 27.5,43.5C 27.372,45.6547 27.872,47.6547 29,49.5C 29.1953,47.7928 29.1953,46.1261 29,44.5C 29.9147,45.3279 30.5814,46.3279 31,47.5C 30.6327,50.6652 30.7994,53.6652 31.5,56.5C 31.8417,57.3382 32.5084,57.6716 33.5,57.5C 35.0329,59.7896 34.6996,60.4563 32.5,59.5C 31.479,60.0016 31.3123,60.6683 32,61.5C 33.5707,63.9229 35.7374,65.2562 38.5,65.5C 39.8333,65.5 40.5,66.1667 40.5,67.5C 33.9314,67.1142 29.4314,63.7809 27,57.5C 25.9207,54.9373 25.4207,52.2706 25.5,49.5C 26.4511,48.0813 26.7845,46.4147 26.5,44.5C 26.3284,43.5084 26.6618,42.8417 27.5,42.5 Z"/></g>
<g><path style="opacity:1" fill="#696464" d="M 51.5,46.5 C 51.8333,46.5 52.1667,46.5 52.5,46.5C 52.5,47.1667 52.8333,47.5 53.5,47.5C 53.5,48.5 53.5,49.5 53.5,50.5C 52.448,50.3505 51.448,50.5172 50.5,51C 53.5921,50.8928 55.9255,52.0594 57.5,54.5C 58.5063,55.3957 58.5063,56.0623 57.5,56.5C 56.8826,56.3893 56.3826,56.056 56,55.5C 54.5693,57.3635 53.4026,59.3635 52.5,61.5C 51.8826,59.6792 51.716,57.6792 52,55.5C 49.6071,59.7824 46.1071,61.4491 41.5,60.5C 42.0354,58.7295 42.8687,58.3961 44,59.5C 44.49,58.2068 44.6567,56.8734 44.5,55.5C 45.0476,53.6064 46.0476,51.9397 47.5,50.5C 47.3069,51.6882 47.8069,53.0215 49,54.5C 50.5385,53.4542 50.7052,52.1209 49.5,50.5C 50.2255,49.1331 50.8921,47.7997 51.5,46.5 Z"/></g>
<g><path style="opacity:0.375" fill="#e5e4e3" d="M 57.5,57.5 C 58.4511,58.9187 58.7845,60.5853 58.5,62.5C 58.5,63.1667 58.8333,63.5 59.5,63.5C 59.5,63.8333 59.5,64.1667 59.5,64.5C 58.1667,64.1667 56.8333,63.8333 55.5,63.5C 56.0906,62.8485 56.7573,62.1818 57.5,61.5C 56.8333,60.5 56.1667,59.5 55.5,58.5C 55.9569,57.7025 56.6236,57.3691 57.5,57.5 Z"/></g>
<g><path style="opacity:0.994" fill="#828283" d="M 64.5,58.5 C 64.5394,59.5832 64.8728,60.5832 65.5,61.5C 65.1125,64.2383 64.1125,66.5717 62.5,68.5C 62.6691,63.9593 62.0025,63.626 60.5,67.5C 59.5832,68.1272 58.5832,68.4606 57.5,68.5C 58.6005,67.3951 59.2671,66.0618 59.5,64.5C 59.5,64.1667 59.5,63.8333 59.5,63.5C 58.8333,63.5 58.5,63.1667 58.5,62.5C 58.7845,60.5853 58.4511,58.9187 57.5,57.5C 57.5,57.1667 57.5,56.8333 57.5,56.5C 58.5063,56.0623 58.5063,55.3957 57.5,54.5C 58.2216,54.0825 58.7216,53.4158 59,52.5C 60.3279,55.7861 61.6612,59.1194 63,62.5C 63.21,60.9419 63.71,59.6085 64.5,58.5 Z"/></g>
<g><path style="opacity:1" fill="#2b2724" d="M 55.5,63.5 C 56.8333,63.8333 58.1667,64.1667 59.5,64.5C 59.2671,66.0618 58.6005,67.3951 57.5,68.5C 56.7611,68.631 56.0944,68.4643 55.5,68C 56.4132,66.5861 56.4132,65.0861 55.5,63.5 Z"/></g>
<g><path style="opacity:0.184" fill="#454342" d="M 41.5,64.5 C 42.2625,65.2679 43.2625,65.7679 44.5,66C 43.944,66.3826 43.6107,66.8826 43.5,67.5C 42.5,67.5 41.5,67.5 40.5,67.5C 40.5,66.1667 39.8333,65.5 38.5,65.5C 36.8912,64.1021 36.0579,62.4354 36,60.5C 37.4321,62.4388 39.2654,63.7721 41.5,64.5 Z"/></g>
<g><path style="opacity:1" fill="#818282" d="M 55.5,63.5 C 56.4132,65.0861 56.4132,66.5861 55.5,68C 56.0944,68.4643 56.7611,68.631 57.5,68.5C 57.1193,69.9311 56.1193,70.7645 54.5,71C 55.448,71.4828 56.448,71.6495 57.5,71.5C 57.4802,73.143 58.1468,74.4763 59.5,75.5C 58.8728,76.4168 58.5394,77.4168 58.5,78.5C 59.1667,79.8333 59.8333,79.8333 60.5,78.5C 61.1667,78.5 61.8333,78.5 62.5,78.5C 62.8333,79.8333 63.1667,79.8333 63.5,78.5C 64.0431,78.56 64.3764,78.8933 64.5,79.5C 63.7573,80.1818 63.0906,80.8485 62.5,81.5C 60.5377,87.0248 58.7044,86.3581 57,79.5C 55.9443,82.7248 54.4443,85.7248 52.5,88.5C 51.8333,88.5 51.5,88.1667 51.5,87.5C 52.1534,86.1932 52.8201,84.8599 53.5,83.5C 53.3764,82.8933 53.0431,82.56 52.5,82.5C 54.1364,80.3862 55.803,78.2195 57.5,76C 56.0186,75.0197 54.6853,73.853 53.5,72.5C 52.8933,72.6236 52.56,72.9569 52.5,73.5C 51.6907,71.9867 51.5241,70.3201 52,68.5C 51.3333,69.1667 50.6667,69.8333 50,70.5C 49.3292,69.7476 48.4959,69.4142 47.5,69.5C 46.8333,69.5 46.1667,69.5 45.5,69.5C 45.5,68.8333 45.1667,68.5 44.5,68.5C 44.5,67.8333 44.1667,67.5 43.5,67.5C 43.6107,66.8826 43.944,66.3826 44.5,66C 43.2625,65.7679 42.2625,65.2679 41.5,64.5C 42.8734,64.3433 44.2068,64.51 45.5,65C 47.7372,68.4884 49.4038,68.3217 50.5,64.5C 52.0174,64.4894 53.1841,63.8228 54,62.5C 54.3826,63.056 54.8826,63.3893 55.5,63.5 Z"/></g>
<g><path style="opacity:0.012" fill="#c3c6c7" d="M 62.5,68.5 C 63.7945,70.907 65.4611,73.0737 67.5,75C 67.1667,75.3333 66.8333,75.6667 66.5,76C 67.305,77.1127 67.9717,78.2794 68.5,79.5C 67.8333,79.5 67.1667,79.5 66.5,79.5C 64.7583,76.3566 62.7583,73.3566 60.5,70.5C 60.8555,69.4777 61.5222,68.811 62.5,68.5 Z"/></g>
<g><path style="opacity:1" fill="#9ea1a1" d="M 52.5,73.5 C 51.9101,74.766 51.4101,76.0993 51,77.5C 50.7508,76.376 50.2508,75.376 49.5,74.5C 48.5344,76.396 48.2011,78.396 48.5,80.5C 47.4625,79.0697 46.7959,77.403 46.5,75.5C 46.5,74.5 46.5,73.5 46.5,72.5C 46.5569,71.391 46.8902,70.391 47.5,69.5C 48.4959,69.4142 49.3292,69.7476 50,70.5C 50.6667,69.8333 51.3333,69.1667 52,68.5C 51.5241,70.3201 51.6907,71.9867 52.5,73.5 Z"/></g>
<g><path style="opacity:0.996" fill="#555556" d="M 62.5,68.5 C 61.5222,68.811 60.8555,69.4777 60.5,70.5C 62.7583,73.3566 64.7583,76.3566 66.5,79.5C 65.7656,80.8775 65.0989,82.3775 64.5,84C 63.8333,84.6667 63.1667,84.6667 62.5,84C 63.7736,83.0228 63.7736,82.1894 62.5,81.5C 63.0906,80.8485 63.7573,80.1818 64.5,79.5C 64.3764,78.8933 64.0431,78.56 63.5,78.5C 63.1667,78.5 62.8333,78.5 62.5,78.5C 62.2144,76.0673 61.5477,76.0673 60.5,78.5C 59.8333,78.5 59.1667,78.5 58.5,78.5C 58.5394,77.4168 58.8728,76.4168 59.5,75.5C 58.1468,74.4763 57.4802,73.143 57.5,71.5C 56.448,71.6495 55.448,71.4828 54.5,71C 56.1193,70.7645 57.1193,69.9311 57.5,68.5C 58.5832,68.4606 59.5832,68.1272 60.5,67.5C 62.0025,63.626 62.6691,63.9593 62.5,68.5 Z M 62.5,78.5 C 61.8333,78.5 61.1667,78.5 60.5,78.5C 61.5477,76.0673 62.2144,76.0673 62.5,78.5 Z"/></g>
<g><path style="opacity:0.014" fill="#d2dee5" d="M 44.5,68.5 C 45.1667,68.5 45.5,68.8333 45.5,69.5C 45.5858,70.4959 45.2524,71.3292 44.5,72C 45.0944,72.4643 45.7611,72.631 46.5,72.5C 46.5,73.5 46.5,74.5 46.5,75.5C 45.6236,75.3691 44.9569,75.7025 44.5,76.5C 45.1667,78.8333 45.8333,81.1667 46.5,83.5C 44.6155,84.1973 44.2822,85.1973 45.5,86.5C 43.796,87.8229 42.4627,87.4896 41.5,85.5C 43.542,84.4968 43.8754,83.1634 42.5,81.5C 43.0253,80.8076 43.6919,80.3076 44.5,80C 40.6283,76.0576 40.6283,72.2243 44.5,68.5 Z"/></g>
<g><path style="opacity:1" fill="#4f5759" d="M 52.5,82.5 C 51.3634,83.7888 50.0301,84.7888 48.5,85.5C 49.0715,83.64 49.0715,81.9733 48.5,80.5C 48.2011,78.396 48.5344,76.396 49.5,74.5C 50.2508,75.376 50.7508,76.376 51,77.5C 51.4101,76.0993 51.9101,74.766 52.5,73.5C 52.56,72.9569 52.8933,72.6236 53.5,72.5C 54.6853,73.853 56.0186,75.0197 57.5,76C 55.803,78.2195 54.1364,80.3862 52.5,82.5 Z"/></g>
<g><path style="opacity:0.486" fill="#606062" d="M 82.5,76.5 C 82.5299,77.4972 82.0299,78.1639 81,78.5C 77.0337,79.1301 73.2004,80.1301 69.5,81.5C 67.4017,82.9143 66.4017,82.2476 66.5,79.5C 67.1667,79.5 67.8333,79.5 68.5,79.5C 68.4346,79.9382 68.6012,80.2716 69,80.5C 73.1893,78.1605 77.6893,76.8271 82.5,76.5 Z"/></g>
<g><path style="opacity:0.008" fill="#6d6d6d" d="M 91.5,76.5 C 99.5645,77.1989 106.231,80.5322 111.5,86.5C 105.001,82.573 98.3343,79.2397 91.5,76.5 Z"/></g>
<g><path style="opacity:1" fill="#0d0e0f" d="M 91.5,76.5 C 98.3343,79.2397 105.001,82.573 111.5,86.5C 112.932,88.7986 112.266,90.4653 109.5,91.5C 113.441,95.7161 115.441,100.716 115.5,106.5C 115.167,106.5 114.833,106.5 114.5,106.5C 111.712,93.3779 103.712,85.7112 90.5,83.5C 84.0141,83.0811 77.6808,83.7477 71.5,85.5C 70.3263,84.4863 69.6596,83.153 69.5,81.5C 73.2004,80.1301 77.0337,79.1301 81,78.5C 82.0299,78.1639 82.5299,77.4972 82.5,76.5C 85.3463,75.9054 88.3463,75.9054 91.5,76.5 Z"/></g>
<g><path style="opacity:1" fill="#161617" d="M 62.5,81.5 C 63.7736,82.1894 63.7736,83.0228 62.5,84C 63.1667,84.6667 63.8333,84.6667 64.5,84C 65.0989,82.3775 65.7656,80.8775 66.5,79.5C 66.4017,82.2476 67.4017,82.9143 69.5,81.5C 69.6596,83.153 70.3263,84.4863 71.5,85.5C 71.4335,87.4112 70.7668,89.4112 69.5,91.5C 67.1386,92.4348 64.9719,93.7682 63,95.5C 62.2917,94.6195 61.4584,93.9528 60.5,93.5C 61.2899,92.2058 62.2899,91.0391 63.5,90C 62.8333,89 62.1667,88 61.5,87C 59.5675,87.6461 57.5675,88.4794 55.5,89.5C 54.561,89.3738 53.561,89.0405 52.5,88.5C 54.4443,85.7248 55.9443,82.7248 57,79.5C 58.7044,86.3581 60.5377,87.0248 62.5,81.5 Z"/></g>
<g><path style="opacity:1" fill="#2a211d" d="M 90.5,84.5 C 95.7448,86.6464 95.7448,87.3131 90.5,86.5C 84.3349,86.2684 78.3349,86.7684 72.5,88C 74.4899,86.2494 76.8232,85.2494 79.5,85C 83.1516,84.5014 86.8183,84.3347 90.5,84.5 Z"/></g>
<g><path style="opacity:0.894" fill="#192526" d="M 52.5,82.5 C 53.0431,82.56 53.3764,82.8933 53.5,83.5C 52.8201,84.8599 52.1534,86.1932 51.5,87.5C 50.8333,87.8333 50.1667,88.1667 49.5,88.5C 49.1667,88.5 48.8333,88.5 48.5,88.5C 49.8333,87.5 49.8333,86.5 48.5,85.5C 50.0301,84.7888 51.3634,83.7888 52.5,82.5 Z"/></g>
<g><path style="opacity:1" fill="#c5c3c3" d="M 55.5,85.5 C 57.337,85.6395 57.6704,86.3061 56.5,87.5C 55.7025,87.0431 55.3691,86.3764 55.5,85.5 Z"/></g>
<g><path style="opacity:0.004" fill="#8a97a6" d="M 48.5,88.5 C 48.1034,89.525 47.4368,89.6917 46.5,89C 47.0944,88.5357 47.7611,88.369 48.5,88.5 Z"/></g>
<g><path style="opacity:0.43" fill="#4c5355" d="M 51.5,87.5 C 51.5,88.1667 51.8333,88.5 52.5,88.5C 53.561,89.0405 54.561,89.3738 55.5,89.5C 54.4222,92.9078 52.0889,94.9078 48.5,95.5C 50.4318,93.3366 50.7651,91.0033 49.5,88.5C 50.1667,88.1667 50.8333,87.8333 51.5,87.5 Z"/></g>
<g><path style="opacity:0.005" fill="#d9dfe5" d="M 39.5,90.5 C 41.337,90.6395 41.6704,91.3061 40.5,92.5C 39.7025,92.0431 39.3691,91.3764 39.5,90.5 Z"/></g>
<g><path style="opacity:0.439" fill="#838184" d="M 114.5,89.5 C 115.906,89.9731 116.573,90.9731 116.5,92.5C 115.094,92.0269 114.427,91.0269 114.5,89.5 Z"/></g>
<g><path style="opacity:1" fill="#544c4b" d="M 90.5,83.5 C 90.5,83.8333 90.5,84.1667 90.5,84.5C 86.8183,84.3347 83.1516,84.5014 79.5,85C 76.8232,85.2494 74.4899,86.2494 72.5,88C 78.3349,86.7684 84.3349,86.2684 90.5,86.5C 91.0577,87.7899 92.0577,88.6232 93.5,89C 93,89.5 92.5,90 92,90.5C 90.3005,89.5939 88.4672,89.2606 86.5,89.5C 87.2625,88.7321 88.2625,88.2321 89.5,88C 84.2072,87.1197 79.2072,87.953 74.5,90.5C 75.8409,94.5111 77.1743,98.5111 78.5,102.5C 78.7953,104.435 78.2953,106.435 77,108.5C 75.6439,109.38 74.1439,109.714 72.5,109.5C 72.5,110.833 72.5,112.167 72.5,113.5C 68.4246,111.35 68.5913,109.35 73,107.5C 74.9392,108.801 76.1058,108.135 76.5,105.5C 75.675,104.614 74.675,104.281 73.5,104.5C 73.1667,103.167 72.8333,103.167 72.5,104.5C 71.1667,104.833 71.1667,105.167 72.5,105.5C 70.3364,106.118 68.6697,105.118 67.5,102.5C 68.9154,99.6193 71.2487,97.9526 74.5,97.5C 73.4794,94.8249 71.8128,92.8249 69.5,91.5C 70.7668,89.4112 71.4335,87.4112 71.5,85.5C 77.6808,83.7477 84.0141,83.0811 90.5,83.5 Z"/></g>
<g><path style="opacity:1" fill="#231918" d="M 86.5,89.5 C 83.2623,90.7376 80.5956,92.7376 78.5,95.5C 79.0983,96.7946 79.5983,98.1279 80,99.5C 80.9772,100.774 81.8106,100.774 82.5,99.5C 83.4916,99.3284 84.1583,99.6618 84.5,100.5C 86.0234,102.586 85.69,104.252 83.5,105.5C 82.8597,102.318 81.8597,101.985 80.5,104.5C 79.8333,103.833 79.1667,103.167 78.5,102.5C 77.1743,98.5111 75.8409,94.5111 74.5,90.5C 79.2072,87.953 84.2072,87.1197 89.5,88C 88.2625,88.2321 87.2625,88.7321 86.5,89.5 Z"/></g>
<g><path style="opacity:1" fill="#15151a" d="M 111.5,86.5 C 112.833,87.1667 113.833,88.1667 114.5,89.5C 114.427,91.0269 115.094,92.0269 116.5,92.5C 116.427,94.0269 117.094,95.0269 118.5,95.5C 119.167,95.5 119.5,95.8333 119.5,96.5C 121.442,105.574 121.442,114.574 119.5,123.5C 119.422,118.278 119.255,112.945 119,107.5C 118.667,107.167 118.333,106.833 118,106.5C 117.667,109.5 117.333,112.5 117,115.5C 116.819,112.305 116.319,109.305 115.5,106.5C 115.441,100.716 113.441,95.7161 109.5,91.5C 112.266,90.4653 112.932,88.7986 111.5,86.5 Z"/></g>
<g><path style="opacity:0.424" fill="#7c7c7d" d="M 116.5,92.5 C 117.906,92.9731 118.573,93.9731 118.5,95.5C 117.094,95.0269 116.427,94.0269 116.5,92.5 Z"/></g>
<g><path style="opacity:1" fill="#0e0a0a" d="M 65.5,106.5 C 61.6106,108.714 58.2772,111.714 55.5,115.5C 53.9025,110.02 55.2358,105.354 59.5,101.5C 60.1174,101.389 60.6174,101.056 61,100.5C 62.332,102.66 63.832,104.66 65.5,106.5 Z"/></g>
<g><path style="opacity:0.324" fill="#d3e0e8" d="M 38.5,106.5 C 38.1507,103.537 39.1507,101.204 41.5,99.5C 42.0574,101.718 42.0574,104.051 41.5,106.5C 40.5,106.5 39.5,106.5 38.5,106.5 Z"/></g>
<g><path style="opacity:1" fill="#151414" d="M 58.5,99.5 C 54.8057,104.562 52.4724,110.228 51.5,116.5C 50.8826,116.611 50.3826,116.944 50,117.5C 50.0534,112.027 51.72,106.694 55,101.5C 55.8159,100.177 56.9826,99.5106 58.5,99.5 Z"/></g>
<g><path style="opacity:1" fill="#110b0b" d="M 78.5,102.5 C 79.1667,103.167 79.8333,103.833 80.5,104.5C 83.1014,107.174 82.9347,109.84 80,112.5C 79.1072,111.289 78.2739,111.289 77.5,112.5C 78.376,113.251 79.376,113.751 80.5,114C 78.8333,117 77.1667,120 75.5,123C 77.1579,124.663 79.1579,125.496 81.5,125.5C 81.5,126.167 81.5,126.833 81.5,127.5C 79.2362,128.219 76.9029,128.552 74.5,128.5C 72.6563,133.406 70.6563,138.073 68.5,142.5C 67.8333,141.167 66.8333,140.167 65.5,139.5C 65.1667,139.5 64.8333,139.5 64.5,139.5C 63.8333,137.5 63.1667,135.5 62.5,133.5C 62.6309,132.624 62.2975,131.957 61.5,131.5C 60.1401,132.18 58.8068,132.847 57.5,133.5C 56.0695,133.421 54.7362,133.754 53.5,134.5C 52.1667,133.833 52.1667,133.167 53.5,132.5C 58.6694,130.402 63.336,128.235 67.5,126C 69.1341,125.506 70.8008,125.34 72.5,125.5C 71.9648,122.762 72.9648,120.928 75.5,120C 73.3122,115.168 71.4789,115.335 70,120.5C 69.5357,119.906 69.369,119.239 69.5,118.5C 70.075,116.589 71.075,114.922 72.5,113.5C 72.5,112.167 72.5,110.833 72.5,109.5C 74.1439,109.714 75.6439,109.38 77,108.5C 78.2953,106.435 78.7953,104.435 78.5,102.5 Z"/></g>
<g><path style="opacity:1" fill="#78706d" d="M 90.5,84.5 C 90.5,84.1667 90.5,83.8333 90.5,83.5C 103.712,85.7112 111.712,93.3779 114.5,106.5C 114.693,110.566 114.36,114.566 113.5,118.5C 109.534,115.476 105.201,114.809 100.5,116.5C 99.8333,116.5 99.1667,116.5 98.5,116.5C 97.1667,116.5 96.5,115.833 96.5,114.5C 100.164,115 103.164,113.833 105.5,111C 104.667,110.167 103.833,109.333 103,108.5C 102.035,110.26 100.868,110.594 99.5,109.5C 100.18,108.14 100.847,106.807 101.5,105.5C 104.5,107.668 107,110.334 109,113.5C 110.036,108.773 109.203,104.44 106.5,100.5C 106.227,98.549 106.893,97.049 108.5,96C 108,95.5 107.5,95 107,94.5C 104.943,96.269 103.11,98.269 101.5,100.5C 100.583,99.8728 99.5832,99.5394 98.5,99.5C 98.8333,98.8333 99.1667,98.1667 99.5,97.5C 100.429,96.6851 101.429,95.8518 102.5,95C 100.937,93.0527 98.9366,91.886 96.5,91.5C 96.9081,90.3569 97.5748,89.3569 98.5,88.5C 100.937,89.8034 103.104,91.4701 105,93.5C 105.167,93.1667 105.333,92.8333 105.5,92.5C 104.252,90.5414 102.585,89.0414 100.5,88C 99.2411,87.0181 97.9078,86.6848 96.5,87C 92.7867,91.6497 90.12,96.8164 88.5,102.5C 88.9709,104.246 89.6376,105.913 90.5,107.5C 90.5704,109.666 89.9038,109.999 88.5,108.5C 87.7025,108.957 87.3691,109.624 87.5,110.5C 84.5159,110.213 83.1826,108.546 83.5,105.5C 85.69,104.252 86.0234,102.586 84.5,100.5C 85.2674,99.828 85.9341,98.9947 86.5,98C 84.2439,97.7584 82.9105,98.2584 82.5,99.5C 81.8106,100.774 80.9772,100.774 80,99.5C 79.5983,98.1279 79.0983,96.7946 78.5,95.5C 80.5956,92.7376 83.2623,90.7376 86.5,89.5C 88.4672,89.2606 90.3005,89.5939 92,90.5C 92.5,90 93,89.5 93.5,89C 92.0577,88.6232 91.0577,87.7899 90.5,86.5C 95.7448,87.3131 95.7448,86.6464 90.5,84.5 Z M 106.5,100.5 C 109.203,104.44 110.036,108.773 109,113.5C 107,110.334 104.5,107.668 101.5,105.5C 101.833,104.833 102.167,104.167 102.5,103.5C 103.833,102.5 105.167,101.5 106.5,100.5 Z M 84.5,100.5 C 84.1583,99.6618 83.4916,99.3284 82.5,99.5C 82.9105,98.2584 84.2439,97.7584 86.5,98C 85.9341,98.9947 85.2674,99.828 84.5,100.5 Z M 93.5,96.5 C 95.5648,96.5172 97.5648,96.8505 99.5,97.5C 99.1667,98.1667 98.8333,98.8333 98.5,99.5C 96.7867,101.85 94.4534,102.85 91.5,102.5C 92.3627,100.579 93.0293,98.5786 93.5,96.5 Z"/></g>
<g><path style="opacity:1" fill="#333230" d="M 106.5,100.5 C 105.167,101.5 103.833,102.5 102.5,103.5C 101.791,102.596 100.791,102.263 99.5,102.5C 98.8902,101.609 98.5569,100.609 98.5,99.5C 99.5832,99.5394 100.583,99.8728 101.5,100.5C 103.11,98.269 104.943,96.269 107,94.5C 107.5,95 108,95.5 108.5,96C 106.893,97.049 106.227,98.549 106.5,100.5 Z"/></g>
<g><path style="opacity:0.247" fill="#a9a29e" d="M 96.5,91.5 C 98.9366,91.886 100.937,93.0527 102.5,95C 101.429,95.8518 100.429,96.6851 99.5,97.5C 97.5648,96.8505 95.5648,96.5172 93.5,96.5C 94.1103,94.5659 95.1103,92.8993 96.5,91.5 Z"/></g>
<g><path style="opacity:0.99" fill="#151110" d="M 69.5,91.5 C 71.8128,92.8249 73.4794,94.8249 74.5,97.5C 71.2487,97.9526 68.9154,99.6193 67.5,102.5C 68.6697,105.118 70.3364,106.118 72.5,105.5C 72.5,105.167 72.5,104.833 72.5,104.5C 72.8333,104.5 73.1667,104.5 73.5,104.5C 74.675,104.281 75.675,104.614 76.5,105.5C 76.1058,108.135 74.9392,108.801 73,107.5C 68.5913,109.35 68.4246,111.35 72.5,113.5C 71.075,114.922 70.075,116.589 69.5,118.5C 66.8753,119.458 66.8753,120.624 69.5,122C 67.478,124.009 65.1446,125.509 62.5,126.5C 62.7947,124.265 62.4614,122.265 61.5,120.5C 61.1667,120.5 60.8333,120.5 60.5,120.5C 58.7085,120.366 57.0418,120.699 55.5,121.5C 53.8333,121.5 52.1667,121.5 50.5,121.5C 50.1667,126.833 49.8333,126.833 49.5,121.5C 54.8799,119.519 60.2132,117.352 65.5,115C 66.2524,114.329 66.5858,113.496 66.5,112.5C 66.5,111.833 66.5,111.167 66.5,110.5C 67.1667,110.5 67.5,110.167 67.5,109.5C 67.1835,105.473 65.5168,101.639 62.5,98C 64.9071,95.8169 67.2404,93.6503 69.5,91.5 Z"/></g>
<g><path style="opacity:1" fill="#5c5754" d="M 98.5,99.5 C 98.5569,100.609 98.8902,101.609 99.5,102.5C 95.8229,105.826 94.4896,109.826 95.5,114.5C 94.1526,115.028 92.8193,115.195 91.5,115C 92.4907,110.624 92.4907,106.458 91.5,102.5C 94.4534,102.85 96.7867,101.85 98.5,99.5 Z"/></g>
<g><path style="opacity:0.01" fill="#d2e2e8" d="M 38.5,106.5 C 41.1614,108.514 41.1614,110.514 38.5,112.5C 37.2072,110.364 37.2072,108.364 38.5,106.5 Z"/></g>
<g><path style="opacity:1" fill="#110c0b" d="M 99.5,102.5 C 100.791,102.263 101.791,102.596 102.5,103.5C 102.167,104.167 101.833,104.833 101.5,105.5C 100.624,105.369 99.9569,105.702 99.5,106.5C 98.8008,109.31 97.8008,111.977 96.5,114.5C 96.1667,114.5 95.8333,114.5 95.5,114.5C 94.4896,109.826 95.8229,105.826 99.5,102.5 Z"/></g>
<g><path style="opacity:0.251" fill="#a7a6a4" d="M 124.5,104.5 C 125.674,105.514 126.34,106.847 126.5,108.5C 125.094,108.027 124.427,107.027 124.5,105.5C 124.5,105.167 124.5,104.833 124.5,104.5 Z"/></g>
<g><path style="opacity:1" fill="#252220" d="M 96.5,91.5 C 95.1103,92.8993 94.1103,94.5659 93.5,96.5C 93.0293,98.5786 92.3627,100.579 91.5,102.5C 92.4907,106.458 92.4907,110.624 91.5,115C 92.8193,115.195 94.1526,115.028 95.5,114.5C 95.385,116.947 94.385,118.947 92.5,120.5C 91.0666,122.519 89.7332,124.686 88.5,127C 86.9387,127.188 86.272,126.355 86.5,124.5C 89.4878,121.078 90.4878,117.245 89.5,113C 88.5509,112.383 87.7175,112.549 87,113.5C 86.5304,112.423 86.6971,111.423 87.5,110.5C 87.3691,109.624 87.7025,108.957 88.5,108.5C 89.9038,109.999 90.5704,109.666 90.5,107.5C 89.6376,105.913 88.9709,104.246 88.5,102.5C 90.12,96.8164 92.7867,91.6497 96.5,87C 97.9078,86.6848 99.2411,87.0181 100.5,88C 102.585,89.0414 104.252,90.5414 105.5,92.5C 105.333,92.8333 105.167,93.1667 105,93.5C 103.104,91.4701 100.937,89.8034 98.5,88.5C 97.5748,89.3569 96.9081,90.3569 96.5,91.5 Z"/></g>
<g><path style="opacity:1" fill="#4f4743" d="M 101.5,105.5 C 100.847,106.807 100.18,108.14 99.5,109.5C 100.868,110.594 102.035,110.26 103,108.5C 103.833,109.333 104.667,110.167 105.5,111C 103.164,113.833 100.164,115 96.5,114.5C 97.8008,111.977 98.8008,109.31 99.5,106.5C 99.9569,105.702 100.624,105.369 101.5,105.5 Z"/></g>
<g><path style="opacity:0.039" fill="#d0dde4" d="M 35.5,113.5 C 36.8734,113.343 38.2068,113.51 39.5,114C 37.9336,121.21 36.6003,121.044 35.5,113.5 Z"/></g>
<g><path style="opacity:0.992" fill="#6d6462" d="M 58.5,99.5 C 59.3382,99.8417 59.6716,100.508 59.5,101.5C 55.2358,105.354 53.9025,110.02 55.5,115.5C 58.2772,111.714 61.6106,108.714 65.5,106.5C 65.7822,107.778 66.4489,108.778 67.5,109.5C 67.5,110.167 67.1667,110.5 66.5,110.5C 65.1667,111.167 65.1667,111.833 66.5,112.5C 66.5858,113.496 66.2524,114.329 65.5,115C 60.2132,117.352 54.8799,119.519 49.5,121.5C 48.596,120.791 48.2627,119.791 48.5,118.5C 49.8734,118.657 51.2068,118.49 52.5,118C 51.944,117.617 51.6107,117.117 51.5,116.5C 52.4724,110.228 54.8057,104.562 58.5,99.5 Z"/></g>
<g><path style="opacity:1" fill="#58504f" d="M 83.5,105.5 C 83.1826,108.546 84.5159,110.213 87.5,110.5C 86.6971,111.423 86.5304,112.423 87,113.5C 87.7175,112.549 88.5509,112.383 89.5,113C 90.4878,117.245 89.4878,121.078 86.5,124.5C 85.399,125.8 84.0657,126.3 82.5,126C 82.9574,125.586 83.2907,125.086 83.5,124.5C 82.1028,122.018 81.2694,119.352 81,116.5C 80.0565,117.263 79.5565,118.263 79.5,119.5C 80.6511,121.325 81.3178,123.325 81.5,125.5C 79.1579,125.496 77.1579,124.663 75.5,123C 77.1667,120 78.8333,117 80.5,114C 79.376,113.751 78.376,113.251 77.5,112.5C 78.2739,111.289 79.1072,111.289 80,112.5C 82.9347,109.84 83.1014,107.174 80.5,104.5C 81.8597,101.985 82.8597,102.318 83.5,105.5 Z"/></g>
<g><path style="opacity:0.651" fill="#777679" d="M 126.5,108.5 C 127.768,110.905 128.435,113.572 128.5,116.5C 127.883,116.389 127.383,116.056 127,115.5C 126.503,113.19 126.337,110.857 126.5,108.5 Z"/></g>
<g><path style="opacity:1" fill="#453d3b" d="M 95.5,114.5 C 95.8333,114.5 96.1667,114.5 96.5,114.5C 96.5,115.833 97.1667,116.5 98.5,116.5C 100.369,117.165 102.369,117.831 104.5,118.5C 103.224,119.645 101.891,119.645 100.5,118.5C 99.8333,119.5 99.1667,120.5 98.5,121.5C 97.8076,120.975 97.3076,120.308 97,119.5C 95.6534,121.466 94.1534,121.799 92.5,120.5C 94.385,118.947 95.385,116.947 95.5,114.5 Z"/></g>
<g><path style="opacity:0.672" fill="#05070c" d="M 60.5,93.5 C 49.1358,103.253 45.4691,115.253 49.5,129.5C 50.6818,134.542 53.3485,138.542 57.5,141.5C 58.9448,143.063 60.6115,144.396 62.5,145.5C 62.44,146.043 62.1067,146.376 61.5,146.5C 59.677,145.253 57.677,144.586 55.5,144.5C 55.4993,140.748 53.8326,139.748 50.5,141.5C 52.6881,144.522 55.3548,147.022 58.5,149C 58.2716,149.399 57.9382,149.565 57.5,149.5C 56.8333,149.5 56.1667,149.5 55.5,149.5C 53.1667,146.5 50.5,143.833 47.5,141.5C 43.7151,135.287 42.0484,128.454 42.5,121C 42.1646,111.823 44.1646,103.323 48.5,95.5C 52.0889,94.9078 54.4222,92.9078 55.5,89.5C 57.5675,88.4794 59.5675,87.6461 61.5,87C 62.1667,88 62.8333,89 63.5,90C 62.2899,91.0391 61.2899,92.2058 60.5,93.5 Z"/></g>
<g><path style="opacity:0.004" fill="#d0dbe4" d="M 35.5,123.5 C 35.8966,122.475 36.5632,122.308 37.5,123C 36.9056,123.464 36.2389,123.631 35.5,123.5 Z"/></g>
<g><path style="opacity:1" fill="#4e4b49" d="M 69.5,91.5 C 67.2404,93.6503 64.9071,95.8169 62.5,98C 65.5168,101.639 67.1835,105.473 67.5,109.5C 66.4489,108.778 65.7822,107.778 65.5,106.5C 63.832,104.66 62.332,102.66 61,100.5C 60.6174,101.056 60.1174,101.389 59.5,101.5C 59.6716,100.508 59.3382,99.8417 58.5,99.5C 56.9826,99.5106 55.8159,100.177 55,101.5C 51.72,106.694 50.0534,112.027 50,117.5C 50.3826,116.944 50.8826,116.611 51.5,116.5C 51.6107,117.117 51.944,117.617 52.5,118C 51.2068,118.49 49.8734,118.657 48.5,118.5C 48.2627,119.791 48.596,120.791 49.5,121.5C 49.8333,126.833 50.1667,126.833 50.5,121.5C 52.1667,121.5 53.8333,121.5 55.5,121.5C 53.2082,123.451 52.8749,125.784 54.5,128.5C 52.8733,127.555 52.04,125.555 52,122.5C 51.289,124.899 51.4557,127.232 52.5,129.5C 51.2821,129.74 50.2821,129.74 49.5,129.5C 45.4691,115.253 49.1358,103.253 60.5,93.5C 61.4584,93.9528 62.2917,94.6195 63,95.5C 64.9719,93.7682 67.1386,92.4348 69.5,91.5 Z"/></g>
<g><path style="opacity:1" fill="#333138" d="M 119.5,96.5 C 121.95,98.6291 123.617,101.296 124.5,104.5C 124.5,104.833 124.5,105.167 124.5,105.5C 123.547,108.269 123.88,111.103 125.5,114C 125.241,115.261 124.574,116.261 123.5,117C 125.283,118.067 125.783,119.567 125,121.5C 124.667,120.833 124.333,120.167 124,119.5C 122.249,121.212 121.582,123.212 122,125.5C 122.811,124.04 123.645,123.707 124.5,124.5C 123.482,125.852 122.149,126.852 120.5,127.5C 121.616,127.402 122.616,127.902 123.5,129C 123.192,130.459 122.525,131.626 121.5,132.5C 121.631,131.761 121.464,131.094 121,130.5C 117.352,132.997 115.186,136.164 114.5,140C 113.365,140.749 112.365,140.583 111.5,139.5C 115.127,134.602 117.793,129.269 119.5,123.5C 121.442,114.574 121.442,105.574 119.5,96.5 Z"/></g>
<g><path style="opacity:1" fill="#9f9695" d="M 60.5,120.5 C 60.8333,121.833 61.1667,121.833 61.5,120.5C 62.4614,122.265 62.7947,124.265 62.5,126.5C 62.1667,126.5 61.8333,126.5 61.5,126.5C 61.1667,121.167 60.8333,121.167 60.5,126.5C 58.7857,127.738 56.7857,128.405 54.5,128.5C 52.8749,125.784 53.2082,123.451 55.5,121.5C 57.0418,120.699 58.7085,120.366 60.5,120.5 Z"/></g>
<g><path style="opacity:1" fill="#413b39" d="M 92.5,124.5 C 92.5774,125.75 93.244,126.583 94.5,127C 97.9555,127.18 101.289,127.847 104.5,129C 102.942,129.21 101.609,129.71 100.5,130.5C 97.9499,129.642 95.4499,128.642 93,127.5C 91.9702,129.346 90.8036,131.013 89.5,132.5C 88.9569,132.44 88.6236,132.107 88.5,131.5C 89.9295,129.107 91.2628,126.774 92.5,124.5 Z"/></g>
<g><path style="opacity:1" fill="#0d0b0a" d="M 100.5,130.5 C 101.756,130.461 102.756,130.961 103.5,132C 101.627,133.704 99.9599,135.537 98.5,137.5C 95.1932,139.153 91.8599,140.82 88.5,142.5C 87.9426,140.282 87.9426,137.949 88.5,135.5C 90.7375,136.537 93.0709,136.703 95.5,136C 92.6546,135.992 90.6546,134.825 89.5,132.5C 90.8036,131.013 91.9702,129.346 93,127.5C 95.4499,128.642 97.9499,129.642 100.5,130.5 Z"/></g>
<g><path style="opacity:0.675" fill="#afaba9" d="M 62.5,133.5 C 60.8235,134.183 60.1568,135.517 60.5,137.5C 59.5116,136.205 58.5116,134.872 57.5,133.5C 58.8068,132.847 60.1401,132.18 61.5,131.5C 62.2975,131.957 62.6309,132.624 62.5,133.5 Z"/></g>
<g><path style="opacity:1" fill="#69615f" d="M 57.5,133.5 C 58.5116,134.872 59.5116,136.205 60.5,137.5C 61.8333,138.167 63.1667,138.833 64.5,139.5C 64.8333,140.833 65.1667,140.833 65.5,139.5C 66.8333,140.167 67.8333,141.167 68.5,142.5C 69.0367,145.14 68.2034,145.14 66,142.5C 65.2825,143.451 64.4491,143.617 63.5,143C 60.3699,140.872 57.5366,138.372 55,135.5C 55.1953,137.745 56.3619,139.578 58.5,141C 58.2716,141.399 57.9382,141.565 57.5,141.5C 53.3485,138.542 50.6818,134.542 49.5,129.5C 50.2821,129.74 51.2821,129.74 52.5,129.5C 51.4557,127.232 51.289,124.899 52,122.5C 52.04,125.555 52.8733,127.555 54.5,128.5C 56.7857,128.405 58.7857,127.738 60.5,126.5C 60.8333,126.5 61.1667,126.5 61.5,126.5C 61.8333,126.5 62.1667,126.5 62.5,126.5C 65.1446,125.509 67.478,124.009 69.5,122C 66.8753,120.624 66.8753,119.458 69.5,118.5C 69.369,119.239 69.5357,119.906 70,120.5C 71.4789,115.335 73.3122,115.168 75.5,120C 72.9648,120.928 71.9648,122.762 72.5,125.5C 70.8008,125.34 69.1341,125.506 67.5,126C 63.336,128.235 58.6694,130.402 53.5,132.5C 52.1667,133.167 52.1667,133.833 53.5,134.5C 54.7362,133.754 56.0695,133.421 57.5,133.5 Z"/></g>
<g><path style="opacity:1" fill="#685d59" d="M 100.5,116.5 C 105.201,114.809 109.534,115.476 113.5,118.5C 112.164,124.172 109.997,129.505 107,134.5C 104.868,135.928 102.701,137.261 100.5,138.5C 99.5084,138.672 98.8417,138.338 98.5,137.5C 99.9599,135.537 101.627,133.704 103.5,132C 102.756,130.961 101.756,130.461 100.5,130.5C 101.609,129.71 102.942,129.21 104.5,129C 101.289,127.847 97.9555,127.18 94.5,127C 93.244,126.583 92.5774,125.75 92.5,124.5C 93.5832,124.461 94.5832,124.127 95.5,123.5C 99.035,125.402 102.702,126.569 106.5,127C 108.16,124.367 108.66,121.534 108,118.5C 105.871,119.863 105.371,119.529 106.5,117.5C 104.604,116.534 102.604,116.201 100.5,116.5 Z"/></g>
<g><path style="opacity:0.259" fill="#9d9d9e" d="M 128.5,127.5 C 128.253,130.854 127.253,133.854 125.5,136.5C 125.747,133.146 126.747,130.146 128.5,127.5 Z"/></g>
<g><path style="opacity:1" fill="#151311" d="M 86.5,124.5 C 86.272,126.355 86.9387,127.188 88.5,127C 89.7332,124.686 91.0666,122.519 92.5,120.5C 94.1534,121.799 95.6534,121.466 97,119.5C 97.3076,120.308 97.8076,120.975 98.5,121.5C 99.1667,120.5 99.8333,119.5 100.5,118.5C 101.891,119.645 103.224,119.645 104.5,118.5C 102.369,117.831 100.369,117.165 98.5,116.5C 99.1667,116.5 99.8333,116.5 100.5,116.5C 102.604,116.201 104.604,116.534 106.5,117.5C 105.371,119.529 105.871,119.863 108,118.5C 108.66,121.534 108.16,124.367 106.5,127C 102.702,126.569 99.035,125.402 95.5,123.5C 94.5832,124.127 93.5832,124.461 92.5,124.5C 91.2628,126.774 89.9295,129.107 88.5,131.5C 88.6236,132.107 88.9569,132.44 89.5,132.5C 90.6546,134.825 92.6546,135.992 95.5,136C 93.0709,136.703 90.7375,136.537 88.5,135.5C 87.6091,134.739 86.9424,133.739 86.5,132.5C 87.3089,131.014 87.3089,129.681 86.5,128.5C 82.6481,131.14 81.6481,134.307 83.5,138C 82.0115,142.745 79.0115,144.245 74.5,142.5C 76.1639,141.257 77.3305,139.59 78,137.5C 78.3333,137.833 78.6667,138.167 79,138.5C 79.1667,137.667 79.3333,136.833 79.5,136C 79.3158,134.624 78.6491,133.791 77.5,133.5C 78.9142,131.946 80.5808,130.612 82.5,129.5C 82.1373,128.817 81.8039,128.15 81.5,127.5C 81.5,126.833 81.5,126.167 81.5,125.5C 81.3178,123.325 80.6511,121.325 79.5,119.5C 79.5565,118.263 80.0565,117.263 81,116.5C 81.2694,119.352 82.1028,122.018 83.5,124.5C 83.2907,125.086 82.9574,125.586 82.5,126C 84.0657,126.3 85.399,125.8 86.5,124.5 Z"/></g>
<g><path style="opacity:1" fill="#07080d" d="M 114.5,106.5 C 114.833,106.5 115.167,106.5 115.5,106.5C 116.319,109.305 116.819,112.305 117,115.5C 117.333,112.5 117.667,109.5 118,106.5C 118.333,106.833 118.667,107.167 119,107.5C 119.255,112.945 119.422,118.278 119.5,123.5C 116.276,128.613 112.776,133.613 109,138.5C 106.521,141.069 103.854,143.402 101,145.5C 100.517,146.448 100.351,147.448 100.5,148.5C 94.1666,151.845 87.4999,154.179 80.5,155.5C 72.1928,155.508 64.5261,153.508 57.5,149.5C 57.9382,149.565 58.2716,149.399 58.5,149C 55.3548,147.022 52.6881,144.522 50.5,141.5C 53.8326,139.748 55.4993,140.748 55.5,144.5C 57.677,144.586 59.677,145.253 61.5,146.5C 62.1067,146.376 62.44,146.043 62.5,145.5C 70.4612,149.056 78.4612,149.389 86.5,146.5C 91.9174,145.069 96.584,142.402 100.5,138.5C 102.701,137.261 104.868,135.928 107,134.5C 109.997,129.505 112.164,124.172 113.5,118.5C 114.36,114.566 114.693,110.566 114.5,106.5 Z"/></g>
<g><path style="opacity:0.004" fill="#959da0" d="M 41.5,139.5 C 42.0768,138.227 42.7435,138.227 43.5,139.5C 43.0302,140.463 42.3635,140.463 41.5,139.5 Z"/></g>
<g><path style="opacity:1" fill="#17151c" d="M 119.5,123.5 C 117.793,129.269 115.127,134.602 111.5,139.5C 112.365,140.583 113.365,140.749 114.5,140C 115.186,136.164 117.352,132.997 121,130.5C 121.464,131.094 121.631,131.761 121.5,132.5C 119.393,136.972 116.393,140.972 112.5,144.5C 112.667,144.833 112.833,145.167 113,145.5C 116.06,141.918 117.56,142.918 117.5,148.5C 115.501,149.857 114.335,149.19 114,146.5C 113.292,147.381 112.458,148.047 111.5,148.5C 110.671,147.668 109.838,148.001 109,149.5C 108.583,148.244 107.75,147.577 106.5,147.5C 106.369,146.624 106.702,145.957 107.5,145.5C 108.425,146.641 109.259,146.641 110,145.5C 110.49,144.207 110.657,142.873 110.5,141.5C 109.5,141.5 108.5,141.5 107.5,141.5C 106.211,144.789 103.878,147.122 100.5,148.5C 100.351,147.448 100.517,146.448 101,145.5C 103.854,143.402 106.521,141.069 109,138.5C 112.776,133.613 116.276,128.613 119.5,123.5 Z"/></g>
<g><path style="opacity:1" fill="#615550" d="M 88.5,135.5 C 87.9426,137.949 87.9426,140.282 88.5,142.5C 91.8599,140.82 95.1932,139.153 98.5,137.5C 98.8417,138.338 99.5084,138.672 100.5,138.5C 96.584,142.402 91.9174,145.069 86.5,146.5C 84.323,146.414 82.323,145.747 80.5,144.5C 78.5914,145.348 76.5914,145.682 74.5,145.5C 74.5,144.5 74.5,143.5 74.5,142.5C 79.0115,144.245 82.0115,142.745 83.5,138C 81.6481,134.307 82.6481,131.14 86.5,128.5C 87.3089,129.681 87.3089,131.014 86.5,132.5C 86.9424,133.739 87.6091,134.739 88.5,135.5 Z"/></g>
<g><path style="opacity:1" fill="#27252b" d="M 124.5,105.5 C 124.427,107.027 125.094,108.027 126.5,108.5C 126.337,110.857 126.503,113.19 127,115.5C 127.383,116.056 127.883,116.389 128.5,116.5C 128.5,120.167 128.5,123.833 128.5,127.5C 126.747,130.146 125.747,133.146 125.5,136.5C 124.002,141.322 121.336,145.322 117.5,148.5C 117.56,142.918 116.06,141.918 113,145.5C 112.833,145.167 112.667,144.833 112.5,144.5C 116.393,140.972 119.393,136.972 121.5,132.5C 122.525,131.626 123.192,130.459 123.5,129C 122.616,127.902 121.616,127.402 120.5,127.5C 122.149,126.852 123.482,125.852 124.5,124.5C 123.645,123.707 122.811,124.04 122,125.5C 121.582,123.212 122.249,121.212 124,119.5C 124.333,120.167 124.667,120.833 125,121.5C 125.783,119.567 125.283,118.067 123.5,117C 124.574,116.261 125.241,115.261 125.5,114C 123.88,111.103 123.547,108.269 124.5,105.5 Z"/></g>
<g><path style="opacity:1" fill="#5e514d" d="M 81.5,127.5 C 81.8039,128.15 82.1373,128.817 82.5,129.5C 80.5808,130.612 78.9142,131.946 77.5,133.5C 78.6491,133.791 79.3158,134.624 79.5,136C 79.3333,136.833 79.1667,137.667 79,138.5C 78.6667,138.167 78.3333,137.833 78,137.5C 77.3305,139.59 76.1639,141.257 74.5,142.5C 74.5,143.5 74.5,144.5 74.5,145.5C 76.5914,145.682 78.5914,145.348 80.5,144.5C 82.323,145.747 84.323,146.414 86.5,146.5C 78.4612,149.389 70.4612,149.056 62.5,145.5C 60.6115,144.396 58.9448,143.063 57.5,141.5C 57.9382,141.565 58.2716,141.399 58.5,141C 56.3619,139.578 55.1953,137.745 55,135.5C 57.5366,138.372 60.3699,140.872 63.5,143C 64.4491,143.617 65.2825,143.451 66,142.5C 68.2034,145.14 69.0367,145.14 68.5,142.5C 70.6563,138.073 72.6563,133.406 74.5,128.5C 76.9029,128.552 79.2362,128.219 81.5,127.5 Z"/></g>
<g><path style="opacity:1" fill="#201a18" d="M 77.5,133.5 C 76.8018,136.212 75.4684,138.546 73.5,140.5C 72.548,139.467 72.548,138.3 73.5,137C 74.4098,135.251 75.7431,134.084 77.5,133.5 Z"/></g>
<g><path style="opacity:0.071" fill="#989593" d="M 47.5,141.5 C 50.5,143.833 53.1667,146.5 55.5,149.5C 55.5,149.833 55.5,150.167 55.5,150.5C 52.0969,148.1 49.4302,145.1 47.5,141.5 Z"/></g>
<g><path style="opacity:1" fill="#2e2c30" d="M 117.5,148.5 C 112.558,154.761 106.224,159.094 98.5,161.5C 99.6002,160.442 100.934,159.608 102.5,159C 101.692,158.692 101.025,158.192 100.5,157.5C 101.945,155.937 103.611,154.604 105.5,153.5C 106.251,154.376 106.751,155.376 107,156.5C 107.738,153.352 109.238,150.685 111.5,148.5C 112.458,148.047 113.292,147.381 114,146.5C 114.335,149.19 115.501,149.857 117.5,148.5 Z"/></g>
<g><path style="opacity:1" fill="#353438" d="M 55.5,149.5 C 56.1667,149.5 56.8333,149.5 57.5,149.5C 64.5261,153.508 72.1928,155.508 80.5,155.5C 79.1242,157.271 77.2908,158.605 75,159.5C 73.2382,159.056 73.4049,158.556 75.5,158C 74.8921,157.13 74.0588,156.63 73,156.5C 71.6293,157.581 70.1293,158.415 68.5,159C 69.7375,159.232 70.7375,159.732 71.5,160.5C 70.8333,160.5 70.1667,160.5 69.5,160.5C 63.7682,158.636 59.1015,155.303 55.5,150.5C 55.5,150.167 55.5,149.833 55.5,149.5 Z"/></g>
<g><path style="opacity:1" fill="#121116" d="M 106.5,147.5 C 107.75,147.577 108.583,148.244 109,149.5C 109.838,148.001 110.671,147.668 111.5,148.5C 109.238,150.685 107.738,153.352 107,156.5C 106.751,155.376 106.251,154.376 105.5,153.5C 103.611,154.604 101.945,155.937 100.5,157.5C 101.025,158.192 101.692,158.692 102.5,159C 100.934,159.608 99.6002,160.442 98.5,161.5C 96.4727,161.662 94.4727,161.495 92.5,161C 94.5951,160.444 94.7618,159.944 93,159.5C 90.4226,161.126 89.4226,160.46 90,157.5C 92.7832,154.86 95.9499,152.86 99.5,151.5C 100.086,151.709 100.586,152.043 101,152.5C 102.107,149.887 103.94,148.22 106.5,147.5 Z"/></g>
<g><path style="opacity:1" fill="#1c1b1f" d="M 106.5,147.5 C 103.94,148.22 102.107,149.887 101,152.5C 100.586,152.043 100.086,151.709 99.5,151.5C 95.9499,152.86 92.7832,154.86 90,157.5C 89.4226,160.46 90.4226,161.126 93,159.5C 94.7618,159.944 94.5951,160.444 92.5,161C 94.4727,161.495 96.4727,161.662 98.5,161.5C 97.3285,162.345 95.9952,163.011 94.5,163.5C 90.3547,163.197 86.0214,163.03 81.5,163C 78.1114,162.224 74.7781,161.391 71.5,160.5C 70.7375,159.732 69.7375,159.232 68.5,159C 70.1293,158.415 71.6293,157.581 73,156.5C 74.0588,156.63 74.8921,157.13 75.5,158C 73.4049,158.556 73.2382,159.056 75,159.5C 77.2908,158.605 79.1242,157.271 80.5,155.5C 87.4999,154.179 94.1666,151.845 100.5,148.5C 103.878,147.122 106.211,144.789 107.5,141.5C 108.5,141.5 109.5,141.5 110.5,141.5C 110.657,142.873 110.49,144.207 110,145.5C 109.259,146.641 108.425,146.641 107.5,145.5C 106.702,145.957 106.369,146.624 106.5,147.5 Z"/></g>
<g><path style="opacity:0.504" fill="#7c7c7b" d="M 69.5,160.5 C 70.1667,160.5 70.8333,160.5 71.5,160.5C 74.7781,161.391 78.1114,162.224 81.5,163C 86.0214,163.03 90.3547,163.197 94.5,163.5C 93.5084,163.328 92.8417,163.662 92.5,164.5C 87.5,164.5 82.5,164.5 77.5,164.5C 74.5962,163.715 71.9296,162.381 69.5,160.5 Z"/></g>
</svg>
