<?xml version="1.0" encoding="UTF-8"?>
<!DOCTYPE svg PUBLIC "-//W3C//DTD SVG 1.1//EN" "http://www.w3.org/Graphics/SVG/1.1/DTD/svg11.dtd">
<svg xmlns="http://www.w3.org/2000/svg" version="1.1" width="150px" height="197px" style="shape-rendering:geometricPrecision; text-rendering:geometricPrecision; image-rendering:optimizeQuality; fill-rule:evenodd; clip-rule:evenodd" xmlns:xlink="http://www.w3.org/1999/xlink">
<g><path style="opacity:0.62" fill="#a3a3a3" d="M 0.5,-0.5 C 50.1667,-0.5 99.8333,-0.5 149.5,-0.5C 149.5,-0.166667 149.5,0.166667 149.5,0.5C 100.162,0.166728 50.8288,0.500061 1.5,1.5C 49.8287,2.49994 98.1621,2.83327 146.5,2.5C 119.338,3.49791 92.0051,3.83124 64.5,3.5C 43.1667,3.5 21.8333,3.5 0.5,3.5C 0.5,2.16667 0.5,0.833333 0.5,-0.5 Z"/></g>
<g><path style="opacity:1" fill="#545454" d="M 149.5,0.5 C 149.5,1.16667 149.5,1.83333 149.5,2.5C 148.5,2.5 147.5,2.5 146.5,2.5C 98.1621,2.83327 49.8287,2.49994 1.5,1.5C 50.8288,0.500061 100.162,0.166728 149.5,0.5 Z"/></g>
<g><path style="opacity:1" fill="#bbbbbb" d="M 146.5,2.5 C 147.5,2.5 148.5,2.5 149.5,2.5C 149.5,2.83333 149.5,3.16667 149.5,3.5C 148.711,3.78281 148.044,4.28281 147.5,5C 139.507,5.49971 131.507,5.66638 123.5,5.5C 107.497,5.66659 91.4965,5.49993 75.5,5C 71.6437,4.8227 67.977,4.3227 64.5,3.5C 92.0051,3.83124 119.338,3.49791 146.5,2.5 Z"/></g>
<g><path style="opacity:0.93" fill="#bebebe" d="M 0.5,3.5 C 21.8333,3.5 43.1667,3.5 64.5,3.5C 67.977,4.3227 71.6437,4.8227 75.5,5C 91.4965,5.49993 107.497,5.66659 123.5,5.5C 114.676,6.32975 105.676,6.82975 96.5,7C 106.009,7.17011 115.342,7.67011 124.5,8.5C 112.5,8.5 100.5,8.5 88.5,8.5C 85.0623,7.17683 81.229,6.51016 77,6.5C 73.1667,6.66667 69.3333,6.83333 65.5,7C 67.0151,9.62279 69.0151,10.6228 71.5,10C 70.695,11.1127 70.0283,12.2794 69.5,13.5C 69.1667,13.5 68.8333,13.5 68.5,13.5C 67.1882,11.359 65.3549,9.69237 63,8.5C 62.6667,8.83333 62.3333,9.16667 62,9.5C 42.9066,8.67325 23.74,8.17325 4.5,8C 2.24896,7.25247 0.915629,5.75247 0.5,3.5 Z"/></g>
<g><path style="opacity:0.971" fill="#cdcdcd" d="M 149.5,3.5 C 149.5,4.5 149.5,5.5 149.5,6.5C 148.234,7.0899 146.901,7.5899 145.5,8C 138.508,8.49962 131.508,8.66629 124.5,8.5C 115.342,7.67011 106.009,7.17011 96.5,7C 105.676,6.82975 114.676,6.32975 123.5,5.5C 131.507,5.66638 139.507,5.49971 147.5,5C 148.044,4.28281 148.711,3.78281 149.5,3.5 Z"/></g>
<g><path style="opacity:0.987" fill="#cbcbcb" d="M 88.5,8.5 C 85.4675,9.5324 83.4675,11.5324 82.5,14.5C 81.8333,15.5 81.1667,16.5 80.5,17.5C 80.9928,13.6618 79.3262,11.6618 75.5,11.5C 71.1867,11.8261 69.52,14.1594 70.5,18.5C 69.5489,17.0813 69.2155,15.4147 69.5,13.5C 70.0283,12.2794 70.695,11.1127 71.5,10C 69.0151,10.6228 67.0151,9.62279 65.5,7C 69.3333,6.83333 73.1667,6.66667 77,6.5C 81.229,6.51016 85.0623,7.17683 88.5,8.5 Z"/></g>
<g><path style="opacity:1" fill="#7c7c7c" d="M 80.5,17.5 C 80.1667,19.8333 78.8333,21.1667 76.5,21.5C 73.6874,21.9754 71.6874,20.9754 70.5,18.5C 69.52,14.1594 71.1867,11.8261 75.5,11.5C 79.3262,11.6618 80.9928,13.6618 80.5,17.5 Z"/></g>
<g><path style="opacity:1" fill="#d4d4d4" d="M 82.5,15.5 C 81.2425,52.8387 81.2425,90.5053 82.5,128.5C 82.1667,128.5 81.8333,128.5 81.5,128.5C 80.8333,127.5 80.1667,126.5 79.5,125.5C 80.496,111.01 80.8293,96.3428 80.5,81.5C 80.3282,62.1632 79.9948,42.8299 79.5,23.5C 81.0435,21.0722 82.0435,18.4056 82.5,15.5 Z"/></g>
<g><path style="opacity:1" fill="#dedede" d="M 82.5,14.5 C 82.5,14.8333 82.5,15.1667 82.5,15.5C 82.0435,18.4056 81.0435,21.0722 79.5,23.5C 78.5,23.5 77.5,23.5 76.5,23.5C 76.5,57.1667 76.5,90.8333 76.5,124.5C 76.1667,124.5 75.8333,124.5 75.5,124.5C 75.6664,115.827 75.4998,107.16 75,98.5C 73.6855,107.212 73.1855,115.545 73.5,123.5C 72.5,123.5 71.5,123.5 70.5,123.5C 71.2657,94.5125 71.7657,65.5125 72,36.5C 73.7416,46.3492 73.9083,56.1825 72.5,66C 73.2442,73.1261 74.0776,80.2928 75,87.5C 75.8265,65.9271 75.6598,44.4271 74.5,23C 75.4158,22.7216 76.0825,22.2216 76.5,21.5C 78.8333,21.1667 80.1667,19.8333 80.5,17.5C 81.1667,16.5 81.8333,15.5 82.5,14.5 Z"/></g>
<g><path style="opacity:0.578" fill="#dadada" d="M 68.5,13.5 C 68.8333,13.5 69.1667,13.5 69.5,13.5C 69.2155,15.4147 69.5489,17.0813 70.5,18.5C 71.6874,20.9754 73.6874,21.9754 76.5,21.5C 76.0825,22.2216 75.4158,22.7216 74.5,23C 75.6598,44.4271 75.8265,65.9271 75,87.5C 74.0776,80.2928 73.2442,73.1261 72.5,66C 73.9083,56.1825 73.7416,46.3492 72,36.5C 71.7657,65.5125 71.2657,94.5125 70.5,123.5C 71.5,123.5 72.5,123.5 73.5,123.5C 73.1855,115.545 73.6855,107.212 75,98.5C 75.4998,107.16 75.6664,115.827 75.5,124.5C 73.9382,124.733 72.6049,125.4 71.5,126.5C 70.5,126.833 69.8333,127.5 69.5,128.5C 69.1667,128.5 68.8333,128.5 68.5,128.5C 70.4382,93.2221 70.9382,57.8888 70,22.5C 69.1667,21.6667 68.3333,20.8333 67.5,20C 67.1982,17.9587 67.5316,15.7921 68.5,13.5 Z"/></g>
<g><path style="opacity:1" fill="#eeeeee" d="M 80.5,81.5 C 80.8293,96.3428 80.496,111.01 79.5,125.5C 79.1667,125.5 78.8333,125.5 78.5,125.5C 77.4592,101.974 77.2925,78.3069 78,54.5C 79.0492,63.6174 79.8825,72.6174 80.5,81.5 Z"/></g>
<g><path style="opacity:1" fill="#e8e8e8" d="M 79.5,23.5 C 79.9948,42.8299 80.3282,62.1632 80.5,81.5C 79.8825,72.6174 79.0492,63.6174 78,54.5C 77.2925,78.3069 77.4592,101.974 78.5,125.5C 77.8333,125.5 77.1667,125.5 76.5,125.5C 76.5,125.167 76.5,124.833 76.5,124.5C 76.5,90.8333 76.5,57.1667 76.5,23.5C 77.5,23.5 78.5,23.5 79.5,23.5 Z"/></g>
<g><path style="opacity:1" fill="#737373" d="M 75.5,124.5 C 75.8333,124.5 76.1667,124.5 76.5,124.5C 76.5,124.833 76.5,125.167 76.5,125.5C 76.1671,144.512 76.5004,163.512 77.5,182.5C 78.5178,183.193 79.5178,183.859 80.5,184.5C 80.5,186.5 80.5,188.5 80.5,190.5C 77.7209,191.617 77.3876,192.783 79.5,194C 78.944,194.383 78.6107,194.883 78.5,195.5C 75.9272,195.852 73.5938,195.352 71.5,194C 72.0659,193.005 72.7326,192.172 73.5,191.5C 78.2624,190.908 79.5957,188.408 77.5,184C 76.2068,183.51 74.8734,183.343 73.5,183.5C 72.7704,166.05 72.4371,148.384 72.5,130.5C 72.1667,129.167 71.8333,127.833 71.5,126.5C 72.6049,125.4 73.9382,124.733 75.5,124.5 Z"/></g>
<g><path style="opacity:1" fill="#8c8c8c" d="M 76.5,125.5 C 77.1667,125.5 77.8333,125.5 78.5,125.5C 78.8333,125.5 79.1667,125.5 79.5,125.5C 80.1667,126.5 80.8333,127.5 81.5,128.5C 81.7591,147.232 81.4258,165.899 80.5,184.5C 79.5178,183.859 78.5178,183.193 77.5,182.5C 76.5004,163.512 76.1671,144.512 76.5,125.5 Z"/></g>
<g><path style="opacity:1" fill="#818181" d="M 81.5,128.5 C 81.8333,128.5 82.1667,128.5 82.5,128.5C 82.833,149.511 82.4997,170.511 81.5,191.5C 80.8933,191.376 80.56,191.043 80.5,190.5C 80.5,188.5 80.5,186.5 80.5,184.5C 81.4258,165.899 81.7591,147.232 81.5,128.5 Z"/></g>
<g><path style="opacity:1" fill="#ababab" d="M 68.5,128.5 C 68.8333,128.5 69.1667,128.5 69.5,128.5C 69.7803,137.056 69.1137,145.39 67.5,153.5C 67.5031,144.87 67.8364,136.537 68.5,128.5 Z"/></g>
<g><path style="opacity:1" fill="#7f7f7f" d="M 72.5,130.5 C 72.4371,148.384 72.7704,166.05 73.5,183.5C 70.8333,186.167 70.8333,188.833 73.5,191.5C 72.7326,192.172 72.0659,193.005 71.5,194C 73.5938,195.352 75.9272,195.852 78.5,195.5C 78.5,195.833 78.5,196.167 78.5,196.5C 76.1667,196.5 73.8333,196.5 71.5,196.5C 70.8333,195.5 70.1667,194.5 69.5,193.5C 68.4578,182.856 68.2911,172.189 69,161.5C 69.3333,162.167 69.6667,162.833 70,163.5C 70.3333,162.167 70.6667,160.833 71,159.5C 71.17,149.658 71.67,139.991 72.5,130.5 Z"/></g>
<g><path style="opacity:0.925" fill="#a4a4a4" d="M 82.5,128.5 C 84.0145,148.654 84.5145,168.987 84,189.5C 83.3512,192.647 81.5179,194.647 78.5,195.5C 78.6107,194.883 78.944,194.383 79.5,194C 77.3876,192.783 77.7209,191.617 80.5,190.5C 80.56,191.043 80.8933,191.376 81.5,191.5C 82.4997,170.511 82.833,149.511 82.5,128.5 Z"/></g>
<g><path style="opacity:1" fill="#939493" d="M 71.5,126.5 C 71.8333,127.833 72.1667,129.167 72.5,130.5C 71.67,139.991 71.17,149.658 71,159.5C 70.6667,160.833 70.3333,162.167 70,163.5C 69.6667,162.833 69.3333,162.167 69,161.5C 68.2911,172.189 68.4578,182.856 69.5,193.5C 68.2101,192.942 67.3768,191.942 67,190.5C 66.414,178.156 66.5807,165.822 67.5,153.5C 69.1137,145.39 69.7803,137.056 69.5,128.5C 69.8333,127.5 70.5,126.833 71.5,126.5 Z"/></g>
<g><path style="opacity:1" fill="#f3f3f3" d="M 73.5,183.5 C 74.8734,183.343 76.2068,183.51 77.5,184C 79.5957,188.408 78.2624,190.908 73.5,191.5C 70.8333,188.833 70.8333,186.167 73.5,183.5 Z"/></g>
</svg>
