<?xml version="1.0" encoding="UTF-8"?>
<!DOCTYPE svg PUBLIC "-//W3C//DTD SVG 1.1//EN" "http://www.w3.org/Graphics/SVG/1.1/DTD/svg11.dtd">
<svg xmlns="http://www.w3.org/2000/svg" version="1.1" width="257px" height="245px" style="shape-rendering:geometricPrecision; text-rendering:geometricPrecision; image-rendering:optimizeQuality; fill-rule:evenodd; clip-rule:evenodd" xmlns:xlink="http://www.w3.org/1999/xlink">
<g><path style="opacity:0.966" fill="#f9766b" d="M 163.5,4.5 C 162.761,4.36899 162.094,4.53566 161.5,5C 162.643,11.4184 162.81,17.9184 162,24.5C 160.648,26.749 158.815,28.4156 156.5,29.5C 154.11,28.554 151.944,27.2206 150,25.5C 149.333,18.5 149.333,11.5 150,4.5C 154.51,0.64528 159.01,0.64528 163.5,4.5 Z"/></g>
<g><path style="opacity:0.998" fill="#311616" d="M 163.5,4.5 C 164.458,4.9528 165.292,5.61947 166,6.5C 166.667,13.5 166.667,20.5 166,27.5C 163.239,30.5328 160.073,31.1995 156.5,29.5C 158.815,28.4156 160.648,26.749 162,24.5C 162.81,17.9184 162.643,11.4184 161.5,5C 162.094,4.53566 162.761,4.36899 163.5,4.5 Z"/></g>
<g><path style="opacity:0.977" fill="#fb776c" d="M 120.5,18.5 C 123.796,22.2976 127.296,25.9643 131,29.5C 131.495,31.4727 131.662,33.4727 131.5,35.5C 130.335,38.5902 128.002,39.9236 124.5,39.5C 119.313,36.827 114.813,33.1603 111,28.5C 108.222,22.3888 110.056,18.3888 116.5,16.5C 117.86,17.1799 119.193,17.8466 120.5,18.5 Z"/></g>
<g><path style="opacity:0.979" fill="#fa786d" d="M 201.5,19.5 C 202.39,21.7819 202.556,24.1152 202,26.5C 197.212,31.7983 192.045,36.4649 186.5,40.5C 180.073,38.6441 178.239,34.6441 181,28.5C 185.128,23.5293 189.961,19.5293 195.5,16.5C 197.78,17.1359 199.78,18.1359 201.5,19.5 Z"/></g>
<g><path style="opacity:1" fill="#7b4b46" d="M 120.5,18.5 C 125.719,21.0464 130.052,24.7131 133.5,29.5C 132.833,31.5 132.167,33.5 131.5,35.5C 131.662,33.4727 131.495,31.4727 131,29.5C 127.296,25.9643 123.796,22.2976 120.5,18.5 Z"/></g>
<g><path style="opacity:0.999" fill="#402322" d="M 201.5,19.5 C 206.662,21.6973 207.829,25.364 205,30.5C 200.872,35.4707 196.039,39.4707 190.5,42.5C 188.974,42.0057 187.641,41.339 186.5,40.5C 192.045,36.4649 197.212,31.7983 202,26.5C 202.556,24.1152 202.39,21.7819 201.5,19.5 Z"/></g>
<g><path style="opacity:0.998" fill="#422828" d="M 133.5,29.5 C 138.415,35.6327 137.081,39.966 129.5,42.5C 127.402,42.0428 125.736,41.0428 124.5,39.5C 128.002,39.9236 130.335,38.5902 131.5,35.5C 132.167,33.5 132.833,31.5 133.5,29.5 Z"/></g>
<g><path style="opacity:0.998" fill="#fb7469" d="M 167.5,46.5 C 170.452,50.1185 173.785,53.4519 177.5,56.5C 183.292,67.3469 184.125,78.6802 180,90.5C 177.691,96.4325 175.191,102.266 172.5,108C 174.473,108.495 176.473,108.662 178.5,108.5C 190.505,108.333 202.505,108.5 214.5,109C 217.84,110.003 220.84,111.503 223.5,113.5C 223.062,113.435 222.728,113.601 222.5,114C 228.061,119.364 229.895,125.864 228,133.5C 227.088,136.319 225.922,138.986 224.5,141.5C 229.757,150.248 229.757,159.081 224.5,168C 232.255,182.4 228.922,193.4 214.5,201C 217.444,213.779 212.777,222.446 200.5,227C 176.836,227.5 153.169,227.667 129.5,227.5C 118.218,225.952 106.884,223.952 95.5,221.5C 94.3991,220.402 93.0657,220.235 91.5,221C 88.2956,224.517 84.2956,226.517 79.5,227C 65.1705,227.5 50.8372,227.667 36.5,227.5C 32.4771,226.975 30.3104,224.641 30,220.5C 29.023,179.787 29.3563,139.12 31,98.5C 32.008,96.741 33.508,95.5743 35.5,95C 49.8333,94.3333 64.1667,94.3333 78.5,95C 82.1545,95.331 85.4879,96.4976 88.5,98.5C 90.6125,100.793 92.6125,103.293 94.5,106C 95.4368,106.692 96.1034,106.525 96.5,105.5C 108.845,100.246 120.345,93.5789 131,85.5C 133.527,81.7789 135.527,77.7789 137,73.5C 139.107,64.5218 141.107,55.5218 143,46.5C 143.785,44.714 144.951,43.214 146.5,42C 154.019,41.13 161.019,42.63 167.5,46.5 Z"/></g>
<g><path style="opacity:1" fill="#70413d" d="M 167.5,46.5 C 172.063,48.3954 175.73,51.3954 178.5,55.5C 177.833,55.5 177.5,55.8333 177.5,56.5C 173.785,53.4519 170.452,50.1185 167.5,46.5 Z"/></g>
<g><path style="opacity:1" fill="#391d1d" d="M 178.5,55.5 C 184.108,61.6488 186.775,68.9822 186.5,77.5C 186.455,81.8893 185.955,86.2226 185,90.5C 182.724,96.4972 180.557,102.497 178.5,108.5C 176.473,108.662 174.473,108.495 172.5,108C 175.191,102.266 177.691,96.4325 180,90.5C 184.125,78.6802 183.292,67.3469 177.5,56.5C 177.5,55.8333 177.833,55.5 178.5,55.5 Z"/></g>
<g><path style="opacity:0.835" fill="#6c4642" d="M 88.5,98.5 C 92.0712,99.9294 94.7378,102.263 96.5,105.5C 96.1034,106.525 95.4368,106.692 94.5,106C 92.6125,103.293 90.6125,100.793 88.5,98.5 Z"/></g>
<g><path style="opacity:0.997" fill="#371c1c" d="M 223.5,113.5 C 225.716,114.203 227.549,115.536 229,117.5C 235.007,126.293 234.84,134.96 228.5,143.5C 235.167,152.167 235.167,160.833 228.5,169.5C 236.78,184.157 233.447,195.324 218.5,203C 221.732,215.438 217.398,224.105 205.5,229C 179.137,229.806 152.803,229.64 126.5,228.5C 127.209,227.596 128.209,227.263 129.5,227.5C 153.169,227.667 176.836,227.5 200.5,227C 212.777,222.446 217.444,213.779 214.5,201C 228.922,193.4 232.255,182.4 224.5,168C 229.757,159.081 229.757,150.248 224.5,141.5C 225.922,138.986 227.088,136.319 228,133.5C 229.895,125.864 228.061,119.364 222.5,114C 222.728,113.601 223.062,113.435 223.5,113.5 Z"/></g>
<g><path style="opacity:0.996" fill="#2d1313" d="M 95.5,221.5 C 95.5,221.833 95.5,222.167 95.5,222.5C 93.2756,225.624 90.2756,227.791 86.5,229C 70.1667,229.667 53.8333,229.667 37.5,229C 36.944,228.617 36.6107,228.117 36.5,227.5C 50.8372,227.667 65.1705,227.5 79.5,227C 84.2956,226.517 88.2956,224.517 91.5,221C 93.0657,220.235 94.3991,220.402 95.5,221.5 Z"/></g>
<g><path style="opacity:0.776" fill="#744d48" d="M 95.5,222.5 C 95.5,222.167 95.5,221.833 95.5,221.5C 106.884,223.952 118.218,225.952 129.5,227.5C 128.209,227.263 127.209,227.596 126.5,228.5C 116.017,227.27 105.683,225.27 95.5,222.5 Z"/></g>
</svg>
