<?xml version="1.0" encoding="UTF-8"?>
<!DOCTYPE svg PUBLIC "-//W3C//DTD SVG 1.1//EN" "http://www.w3.org/Graphics/SVG/1.1/DTD/svg11.dtd">
<svg xmlns="http://www.w3.org/2000/svg" version="1.1" width="150px" height="165px" style="shape-rendering:geometricPrecision; text-rendering:geometricPrecision; image-rendering:optimizeQuality; fill-rule:evenodd; clip-rule:evenodd" xmlns:xlink="http://www.w3.org/1999/xlink">
<g><path style="opacity:0.098" fill="#939393" d="M 43.5,-0.5 C 46.1667,-0.5 48.8333,-0.5 51.5,-0.5C 47.9694,0.220298 44.3027,1.2203 40.5,2.5C 39.8333,2.5 39.1667,2.5 38.5,2.5C 40.0725,1.31271 41.7392,0.312714 43.5,-0.5 Z"/></g>
<g><path style="opacity:0.533" fill="#5a5a5a" d="M 63.5,-0.5 C 64.1667,-0.5 64.8333,-0.5 65.5,-0.5C 65.369,0.238911 65.5357,0.905578 66,1.5C 67.6667,1.5 69.3333,1.5 71,1.5C 71.7172,2.0442 72.2172,2.71087 72.5,3.5C 72.5654,3.93822 72.3988,4.27155 72,4.5C 69.3135,3.28695 66.4802,2.62028 63.5,2.5C 63.5,1.5 63.5,0.5 63.5,-0.5 Z"/></g>
<g><path style="opacity:1" fill="#151515" d="M 51.5,-0.5 C 54.8333,-0.5 58.1667,-0.5 61.5,-0.5C 61.8333,0.833333 62.1667,0.833333 62.5,-0.5C 62.8333,-0.5 63.1667,-0.5 63.5,-0.5C 63.5,0.5 63.5,1.5 63.5,2.5C 66.4802,2.62028 69.3135,3.28695 72,4.5C 72.3988,4.27155 72.5654,3.93822 72.5,3.5C 72.8333,3.5 73.1667,3.5 73.5,3.5C 73.5,4.16667 73.5,4.83333 73.5,5.5C 71.9256,5.93709 70.7589,6.93709 70,8.5C 69.3162,7.21613 69.4829,6.04946 70.5,5C 69.552,4.51722 68.552,4.35055 67.5,4.5C 67.719,5.67504 67.3857,6.67504 66.5,7.5C 66.4464,6.31315 66.1131,4.97982 65.5,3.5C 64.8333,4.5 64.1667,5.5 63.5,6.5C 63.7948,5.17449 63.2948,3.84115 62,2.5C 61.7811,3.93801 61.2811,5.27135 60.5,6.5C 59.5,5.16667 58.5,5.16667 57.5,6.5C 56.8076,5.97473 56.3076,5.30806 56,4.5C 54.6646,6.60475 52.9979,7.27142 51,6.5C 50.0197,7.98138 48.853,9.31471 47.5,10.5C 46.914,10.2907 46.414,9.95735 46,9.5C 44.406,10.7159 42.906,12.0493 41.5,13.5C 40.7492,12.624 40.2492,11.624 40,10.5C 37.6447,12.1886 35.6447,14.1886 34,16.5C 33.5,16.1667 33,15.8333 32.5,15.5C 34.289,14.377 34.6224,13.0436 33.5,11.5C 32.8333,12.1667 32.1667,12.8333 31.5,13.5C 30.4495,12.1152 29.1161,11.1152 27.5,10.5C 27.5,11.8333 27.5,13.1667 27.5,14.5C 26.2638,13.7542 24.9305,13.4208 23.5,13.5C 24.1667,11.5 25.5,10.1667 27.5,9.5C 31.9989,7.34478 36.3322,5.01145 40.5,2.5C 44.3027,1.2203 47.9694,0.220298 51.5,-0.5 Z"/></g>
<g><path style="opacity:0.999" fill="#070707" d="M 73.5,5.5 C 75.1132,5.94425 76.2798,6.94425 77,8.5C 78.4139,7.58679 79.9139,7.58679 81.5,8.5C 81.9954,10.4817 82.4954,12.4817 83,14.5C 84.7713,15.3041 86.2713,16.4708 87.5,18C 88.8942,17.5007 90.2275,16.6674 91.5,15.5C 92.7502,17.9324 94.2502,20.2657 96,22.5C 101.441,26.7778 106.274,31.4445 110.5,36.5C 112.258,41.1134 114.925,45.1134 118.5,48.5C 119.153,49.8068 119.82,51.1401 120.5,52.5C 119.754,53.7362 119.421,55.0695 119.5,56.5C 120.82,57.9418 122.486,58.6085 124.5,58.5C 125.338,58.8417 125.672,59.5084 125.5,60.5C 126.554,65.6889 128.554,70.3556 131.5,74.5C 131.565,77.4282 132.232,80.0948 133.5,82.5C 133.93,88.2739 134.93,93.9406 136.5,99.5C 136.991,109.488 136.324,119.488 134.5,129.5C 132.952,129.179 132.285,128.179 132.5,126.5C 131.5,126.5 130.5,126.5 129.5,126.5C 129.579,127.93 129.246,129.264 128.5,130.5C 132.043,133.132 132.376,136.132 129.5,139.5C 128.302,139.94 127.135,140.273 126,140.5C 125.503,142.81 125.337,145.143 125.5,147.5C 125.5,148.167 125.167,148.5 124.5,148.5C 119.695,146.457 117.528,148.124 118,153.5C 115.76,156.167 114.26,155.667 113.5,152C 112.833,151.333 112.167,151.333 111.5,152C 109.789,154.456 108.456,157.123 107.5,160C 105.782,160.346 104.115,160.846 102.5,161.5C 101.893,161.376 101.56,161.043 101.5,160.5C 102.79,159.942 103.623,158.942 104,157.5C 104.497,154.854 104.664,152.187 104.5,149.5C 102.167,149.5 99.8333,149.5 97.5,149.5C 97.6893,153.037 97.0226,156.37 95.5,159.5C 94.3734,160.122 93.3734,160.955 92.5,162C 88.9748,162.179 85.6414,162.679 82.5,163.5C 81.5,163.5 80.5,163.5 79.5,163.5C 77.954,161.069 75.6207,159.736 72.5,159.5C 71.8333,159.5 71.1667,159.5 70.5,159.5C 70.5,158.167 69.8333,157.5 68.5,157.5C 66.7504,155.602 64.5837,154.269 62,153.5C 61.6012,153.728 61.4346,154.062 61.5,154.5C 61.1667,154.5 60.8333,154.5 60.5,154.5C 60.1667,152.167 58.8333,150.833 56.5,150.5C 54.7726,148.433 52.7726,146.767 50.5,145.5C 50.9617,143.243 51.9617,141.243 53.5,139.5C 55.5,141.5 57.5,143.5 59.5,145.5C 59.8333,144.167 60.1667,142.833 60.5,141.5C 63.4789,143.644 66.3122,145.978 69,148.5C 69.4453,146.406 68.612,144.906 66.5,144C 69.2723,143.792 71.7723,144.626 74,146.5C 73.3333,147.833 72.6667,149.167 72,150.5C 74.9432,151.935 77.7766,153.602 80.5,155.5C 80.8333,155.167 81.1667,154.833 81.5,154.5C 79.0776,152.714 79.0776,151.048 81.5,149.5C 80.1667,148.833 78.8333,148.167 77.5,147.5C 78.5,146.833 79.5,146.167 80.5,145.5C 79.0777,144.453 77.5777,144.453 76,145.5C 75.5,145.167 75,144.833 74.5,144.5C 77.2291,142.633 76.8957,141.633 73.5,141.5C 73.5,140.5 73.5,139.5 73.5,138.5C 71.3502,138.905 69.3502,139.405 67.5,140C 66.1373,137.871 66.4706,137.371 68.5,138.5C 69.3857,137.675 69.719,136.675 69.5,135.5C 68.5,135.5 67.5,135.5 66.5,135.5C 66.5,134.5 66.5,133.5 66.5,132.5C 63.1043,132.633 62.7709,133.633 65.5,135.5C 65.1667,135.833 64.8333,136.167 64.5,136.5C 62.5065,134.083 60.6732,134.083 59,136.5C 58.7645,134.881 57.9311,133.881 56.5,133.5C 56.9528,132.542 57.6195,131.708 58.5,131C 57.5509,130.383 56.7175,130.549 56,131.5C 55.5,130.333 54.6667,129.5 53.5,129C 53.9574,128.586 54.2907,128.086 54.5,127.5C 52.7127,126.684 51.0461,125.684 49.5,124.5C 50.1667,123.833 50.8333,123.167 51.5,122.5C 49.2883,123.089 47.2883,122.423 45.5,120.5C 44.9348,118.58 43.9348,116.913 42.5,115.5C 42.5,114.833 42.5,114.167 42.5,113.5C 42.7118,111.616 43.7118,110.283 45.5,109.5C 43.5112,109.468 41.5112,108.635 39.5,107C 41.3492,105.907 43.0158,104.574 44.5,103C 42.2658,98.6902 39.9324,94.5235 37.5,90.5C 36.871,87.6027 35.871,84.936 34.5,82.5C 32.1667,82.5 29.8333,82.5 27.5,82.5C 27.7678,80.901 27.4345,79.5676 26.5,78.5C 26.7373,77.209 26.404,76.209 25.5,75.5C 25.5,74.8333 25.5,74.1667 25.5,73.5C 29.3877,70.9036 29.3877,68.2369 25.5,65.5C 25.7683,62.8806 25.435,60.3806 24.5,58C 25.756,57.5831 26.4226,56.7498 26.5,55.5C 27.9592,52.2488 26.9592,49.9155 23.5,48.5C 27.1067,46.1841 27.1067,44.0174 23.5,42C 24.7375,41.7679 25.7375,41.2679 26.5,40.5C 28.7288,38.9007 29.0622,36.9007 27.5,34.5C 28.64,33.1986 29.9733,32.0319 31.5,31C 32.7494,30.2599 33.7494,30.4265 34.5,31.5C 30.2581,47.6 30.5914,63.6 35.5,79.5C 42.7375,75.058 49.7375,70.3914 56.5,65.5C 70.8874,57.0649 86.2207,53.7315 102.5,55.5C 102.729,50.6217 100.729,46.6217 96.5,43.5C 95.5,43.1667 94.8333,42.5 94.5,41.5C 93.5806,38.9108 91.914,36.9108 89.5,35.5C 88.8333,35.5 88.5,35.1667 88.5,34.5C 85.8338,31.0012 82.6671,28.0012 79,25.5C 78.6012,25.7284 78.4346,26.0618 78.5,26.5C 77.8333,26.5 77.5,26.1667 77.5,25.5C 76.5994,23.2729 74.9328,22.2729 72.5,22.5C 64.107,17.4316 55.4404,16.4316 46.5,19.5C 45.8333,19.5 45.1667,19.5 44.5,19.5C 44.1034,18.475 43.4368,18.3083 42.5,19C 40.9297,20.3968 39.5964,21.8968 38.5,23.5C 38.19,22.2617 37.69,22.2617 37,23.5C 36.7978,21.7444 36.2978,20.0777 35.5,18.5C 34.5713,19.6888 34.238,21.0222 34.5,22.5C 32.1949,21.0106 29.8616,19.5106 27.5,18C 25.6131,17.2204 23.9464,17.3871 22.5,18.5C 21.9033,18.2648 21.5699,17.7648 21.5,17C 22.4295,15.9231 23.0962,14.7564 23.5,13.5C 24.9305,13.4208 26.2638,13.7542 27.5,14.5C 27.5,13.1667 27.5,11.8333 27.5,10.5C 29.1161,11.1152 30.4495,12.1152 31.5,13.5C 32.1667,12.8333 32.8333,12.1667 33.5,11.5C 34.6224,13.0436 34.289,14.377 32.5,15.5C 33,15.8333 33.5,16.1667 34,16.5C 35.6447,14.1886 37.6447,12.1886 40,10.5C 40.2492,11.624 40.7492,12.624 41.5,13.5C 42.906,12.0493 44.406,10.7159 46,9.5C 46.414,9.95735 46.914,10.2907 47.5,10.5C 48.853,9.31471 50.0197,7.98138 51,6.5C 52.9979,7.27142 54.6646,6.60475 56,4.5C 56.3076,5.30806 56.8076,5.97473 57.5,6.5C 58.5,5.16667 59.5,5.16667 60.5,6.5C 61.2811,5.27135 61.7811,3.93801 62,2.5C 63.2948,3.84115 63.7948,5.17449 63.5,6.5C 64.1667,5.5 64.8333,4.5 65.5,3.5C 66.1131,4.97982 66.4464,6.31315 66.5,7.5C 67.3857,6.67504 67.719,5.67504 67.5,4.5C 68.552,4.35055 69.552,4.51722 70.5,5C 69.4829,6.04946 69.3162,7.21613 70,8.5C 70.7589,6.93709 71.9256,5.93709 73.5,5.5 Z M 118.5,105.5 C 118.5,106.5 118.5,107.5 118.5,108.5C 118.167,112.5 117.833,116.5 117.5,120.5C 117.5,120.833 117.5,121.167 117.5,121.5C 116.528,122.751 115.861,122.418 115.5,120.5C 114.97,118.198 114.636,115.865 114.5,113.5C 115.986,106.568 117.153,99.5677 118,92.5C 118.499,96.8206 118.666,101.154 118.5,105.5 Z M 62.5,124.5 C 66.1101,125.703 69.7768,126.703 73.5,127.5C 76.5487,129.53 79.8821,131.197 83.5,132.5C 85.0009,133.752 86.6675,134.752 88.5,135.5C 90.1182,137.785 92.1182,139.785 94.5,141.5C 94.5,142.167 94.8333,142.5 95.5,142.5C 95.631,143.239 95.4643,143.906 95,144.5C 89.3894,142.797 83.8894,140.797 78.5,138.5C 78.1583,137.662 77.4916,137.328 76.5,137.5C 74.8266,134.833 72.4933,132.833 69.5,131.5C 68.5,130.833 67.5,130.167 66.5,129.5C 66.5,127.5 65.5,126.5 63.5,126.5C 63.1667,125.833 62.8333,125.167 62.5,124.5 Z"/></g>
<g><path style="opacity:0.322" fill="#606060" d="M 38.5,2.5 C 39.1667,2.5 39.8333,2.5 40.5,2.5C 36.3322,5.01145 31.9989,7.34478 27.5,9.5C 27.281,8.32496 27.6143,7.32496 28.5,6.5C 31.7321,4.77723 35.0654,3.44389 38.5,2.5 Z"/></g>
<g><path style="opacity:1" fill="#505050" d="M 73.5,3.5 C 75.0174,3.51056 76.1841,4.17723 77,5.5C 78.9579,5.20859 80.4579,6.20859 81.5,8.5C 79.9139,7.58679 78.4139,7.58679 77,8.5C 76.2798,6.94425 75.1132,5.94425 73.5,5.5C 73.5,4.83333 73.5,4.16667 73.5,3.5 Z"/></g>
<g><path style="opacity:1" fill="#949494" d="M 81.5,8.5 C 84.8708,10.8458 88.2041,13.1792 91.5,15.5C 90.2275,16.6674 88.8942,17.5007 87.5,18C 86.2713,16.4708 84.7713,15.3041 83,14.5C 82.4954,12.4817 81.9954,10.4817 81.5,8.5 Z"/></g>
<g><path style="opacity:0.371" fill="#414141" d="M 72.5,22.5 C 64.0442,19.3109 55.3775,18.3109 46.5,19.5C 55.4404,16.4316 64.107,17.4316 72.5,22.5 Z"/></g>
<g><path style="opacity:1" fill="#acacac" d="M 34.5,22.5 C 35.9011,25.3094 35.2345,27.6428 32.5,29.5C 30.0901,27.6284 27.4234,26.295 24.5,25.5C 23.0484,24.6981 21.3817,24.1981 19.5,24C 20.2228,21.9817 21.2228,20.1484 22.5,18.5C 23.9464,17.3871 25.6131,17.2204 27.5,18C 29.8616,19.5106 32.1949,21.0106 34.5,22.5 Z"/></g>
<g><path style="opacity:0.004" fill="#838383" d="M 91.5,15.5 C 98.9077,21.5721 105.241,28.5721 110.5,36.5C 106.274,31.4445 101.441,26.7778 96,22.5C 94.2502,20.2657 92.7502,17.9324 91.5,15.5 Z"/></g>
<g><path style="opacity:0.792" fill="#747474" d="M 23.5,13.5 C 23.0962,14.7564 22.4295,15.9231 21.5,17C 21.5699,17.7648 21.9033,18.2648 22.5,18.5C 21.2228,20.1484 20.2228,21.9817 19.5,24C 21.3817,24.1981 23.0484,24.6981 24.5,25.5C 21.7212,25.2786 19.0545,25.612 16.5,26.5C 16.5907,22.8177 17.924,19.651 20.5,17C 19.9683,14.9952 20.9683,13.8286 23.5,13.5 Z"/></g>
<g><path style="opacity:0.09" fill="#585858" d="M 72.5,22.5 C 74.9328,22.2729 76.5994,23.2729 77.5,25.5C 75.326,25.2503 73.6594,24.2503 72.5,22.5 Z"/></g>
<g><path style="opacity:0.129" fill="#939393" d="M 44.5,19.5 C 41.8197,21.994 39.4863,24.6607 37.5,27.5C 37.8333,26.1667 38.1667,24.8333 38.5,23.5C 39.5964,21.8968 40.9297,20.3968 42.5,19C 43.4368,18.3083 44.1034,18.475 44.5,19.5 Z"/></g>
<g><path style="opacity:0.999" fill="#121212" d="M 38.5,23.5 C 38.1667,24.8333 37.8333,26.1667 37.5,27.5C 37.6716,28.4916 37.3382,29.1583 36.5,29.5C 35.8333,30.1667 35.1667,30.8333 34.5,31.5C 33.7494,30.4265 32.7494,30.2599 31.5,31C 29.9733,32.0319 28.64,33.1986 27.5,34.5C 23.5391,31.3571 20.5391,32.0238 18.5,36.5C 18.5288,38.0293 19.1955,39.196 20.5,40C 22.4727,40.4955 24.4727,40.6621 26.5,40.5C 25.7375,41.2679 24.7375,41.7679 23.5,42C 27.1067,44.0174 27.1067,46.1841 23.5,48.5C 18.0675,46.7621 15.9008,48.7621 17,54.5C 17.8159,55.8228 18.9826,56.4894 20.5,56.5C 19.7814,58.7638 19.448,61.0971 19.5,63.5C 20.8333,63.5 22.1667,63.5 23.5,63.5C 23.552,61.0971 23.2186,58.7638 22.5,56.5C 23.8333,56.1667 25.1667,55.8333 26.5,55.5C 26.4226,56.7498 25.756,57.5831 24.5,58C 25.435,60.3806 25.7683,62.8806 25.5,65.5C 19.1172,63.6134 16.6172,65.9467 18,72.5C 18.6708,73.2524 19.5041,73.5858 20.5,73.5C 22.0331,77.1285 22.3664,80.7952 21.5,84.5C 19.9731,84.427 18.9731,85.0937 18.5,86.5C 17.7611,86.631 17.0944,86.4643 16.5,86C 15.9152,84.6976 15.2485,83.531 14.5,82.5C 13.8569,76.3103 12.8569,70.3103 11.5,64.5C 11.5,59.8333 11.5,55.1667 11.5,50.5C 12.4215,44.9437 13.4215,39.2771 14.5,33.5C 14.5,32.8333 14.5,32.1667 14.5,31.5C 15.9313,30.2196 16.5979,28.5529 16.5,26.5C 19.0545,25.612 21.7212,25.2786 24.5,25.5C 27.4234,26.295 30.0901,27.6284 32.5,29.5C 35.2345,27.6428 35.9011,25.3094 34.5,22.5C 34.238,21.0222 34.5713,19.6888 35.5,18.5C 36.2978,20.0777 36.7978,21.7444 37,23.5C 37.69,22.2617 38.19,22.2617 38.5,23.5 Z"/></g>
<g><path style="opacity:0.139" fill="#a5a5a5" d="M 16.5,26.5 C 16.5979,28.5529 15.9313,30.2196 14.5,31.5C 14.4021,29.4471 15.0687,27.7804 16.5,26.5 Z"/></g>
<g><path style="opacity:0.182" fill="#7b7b7b" d="M 88.5,34.5 C 84.8726,32.2065 81.5393,29.5398 78.5,26.5C 78.4346,26.0618 78.6012,25.7284 79,25.5C 82.6671,28.0012 85.8338,31.0012 88.5,34.5 Z"/></g>
<g><path style="opacity:1" fill="#b3b3b3" d="M 27.5,34.5 C 29.0622,36.9007 28.7288,38.9007 26.5,40.5C 24.4727,40.6621 22.4727,40.4955 20.5,40C 19.1955,39.196 18.5288,38.0293 18.5,36.5C 20.5391,32.0238 23.5391,31.3571 27.5,34.5 Z"/></g>
<g><path style="opacity:0.537" fill="#777777" d="M 14.5,33.5 C 13.4215,39.2771 12.4215,44.9437 11.5,50.5C 11.3343,46.1539 11.501,41.8206 12,37.5C 12.1216,35.563 12.955,34.2297 14.5,33.5 Z"/></g>
<g><path style="opacity:0.173" fill="#6e6e6e" d="M 89.5,35.5 C 91.914,36.9108 93.5806,38.9108 94.5,41.5C 91.9138,40.3615 90.2471,38.3615 89.5,35.5 Z"/></g>
<g><path style="opacity:0.149" fill="#898989" d="M 110.5,36.5 C 114.142,39.7659 116.809,43.7659 118.5,48.5C 114.925,45.1134 112.258,41.1134 110.5,36.5 Z"/></g>
<g><path style="opacity:0.486" fill="#5a5a5a" d="M 36.5,29.5 C 34.5907,37.216 33.2574,45.0493 32.5,53C 32.9291,61.3422 34.2625,69.5089 36.5,77.5C 42.5592,72.4711 49.2259,68.4711 56.5,65.5C 49.7375,70.3914 42.7375,75.058 35.5,79.5C 30.5914,63.6 30.2581,47.6 34.5,31.5C 35.1667,30.8333 35.8333,30.1667 36.5,29.5 Z"/></g>
<g><path style="opacity:1" fill="#8c8c8c" d="M 109.5,48.5 C 113.31,49.7542 113.31,50.7542 109.5,51.5C 109.5,50.5 109.5,49.5 109.5,48.5 Z"/></g>
<g><path style="opacity:1" fill="#bbbbbb" d="M 23.5,48.5 C 26.9592,49.9155 27.9592,52.2488 26.5,55.5C 25.1667,55.8333 23.8333,56.1667 22.5,56.5C 21.8333,56.5 21.1667,56.5 20.5,56.5C 18.9826,56.4894 17.8159,55.8228 17,54.5C 15.9008,48.7621 18.0675,46.7621 23.5,48.5 Z"/></g>
<g><path style="opacity:0.302" fill="#929292" d="M 96.5,43.5 C 100.729,46.6217 102.729,50.6217 102.5,55.5C 101.833,55.5 101.5,55.1667 101.5,54.5C 100.289,50.6233 98.6219,46.9566 96.5,43.5 Z"/></g>
<g><path style="opacity:0.102" fill="#4c4c4c" d="M 101.5,54.5 C 101.5,55.1667 101.833,55.5 102.5,55.5C 86.2207,53.7315 70.8874,57.0649 56.5,65.5C 57.6728,63.4959 59.3395,61.9959 61.5,61C 67.5158,58.831 73.5158,56.6644 79.5,54.5C 86.8596,53.2028 94.193,53.2028 101.5,54.5 Z"/></g>
<g><path style="opacity:0.916" fill="#848484" d="M 118.5,48.5 C 121.654,51.0201 123.654,54.3534 124.5,58.5C 122.486,58.6085 120.82,57.9418 119.5,56.5C 119.421,55.0695 119.754,53.7362 120.5,52.5C 119.82,51.1401 119.153,49.8068 118.5,48.5 Z"/></g>
<g><path style="opacity:1" fill="#464646" d="M 20.5,56.5 C 21.1667,56.5 21.8333,56.5 22.5,56.5C 23.2186,58.7638 23.552,61.0971 23.5,63.5C 22.1667,63.5 20.8333,63.5 19.5,63.5C 19.448,61.0971 19.7814,58.7638 20.5,56.5 Z"/></g>
<g><path style="opacity:1" fill="#c2c2c2" d="M 25.5,65.5 C 29.3877,68.2369 29.3877,70.9036 25.5,73.5C 23.8333,73.5 22.1667,73.5 20.5,73.5C 19.5041,73.5858 18.6708,73.2524 18,72.5C 16.6172,65.9467 19.1172,63.6134 25.5,65.5 Z"/></g>
<g><path style="opacity:0.212" fill="#6f6f6f" d="M 11.5,64.5 C 12.8569,70.3103 13.8569,76.3103 14.5,82.5C 12.9328,81.3192 12.0995,79.6526 12,77.5C 11.501,73.1794 11.3343,68.8461 11.5,64.5 Z"/></g>
<g><path style="opacity:0.059" fill="#999999" d="M 125.5,60.5 C 126.458,60.9528 127.292,61.6195 128,62.5C 129.484,66.4468 130.65,70.4468 131.5,74.5C 128.554,70.3556 126.554,65.6889 125.5,60.5 Z"/></g>
<g><path style="opacity:1" fill="#464646" d="M 119.5,56.5 C 122.404,61.8666 124.738,67.5333 126.5,73.5C 126.023,74.931 125.357,76.2643 124.5,77.5C 123.28,77.1131 122.613,76.2798 122.5,75C 123.893,73.6992 124.393,72.1992 124,70.5C 121.376,63.919 118.209,57.5857 114.5,51.5C 114.667,51.1667 114.833,50.8333 115,50.5C 116.363,52.6838 117.863,54.6838 119.5,56.5 Z"/></g>
<g><path style="opacity:0.125" fill="#848484" d="M 131.5,74.5 C 133.04,76.8383 133.706,79.5049 133.5,82.5C 132.232,80.0948 131.565,77.4282 131.5,74.5 Z"/></g>
<g><path style="opacity:1" fill="#595959" d="M 20.5,73.5 C 22.1667,73.5 23.8333,73.5 25.5,73.5C 25.5,74.1667 25.5,74.8333 25.5,75.5C 24.6236,75.3691 23.9569,75.7025 23.5,76.5C 24.7468,78.0421 24.7468,79.5421 23.5,81C 24.448,81.4828 25.448,81.6495 26.5,81.5C 26.5,80.5 26.5,79.5 26.5,78.5C 27.4345,79.5676 27.7678,80.901 27.5,82.5C 26.8333,82.5 26.5,82.8333 26.5,83.5C 25.209,83.2627 24.209,83.596 23.5,84.5C 22.8333,84.5 22.1667,84.5 21.5,84.5C 22.3664,80.7952 22.0331,77.1285 20.5,73.5 Z"/></g>
<g><path style="opacity:1" fill="#979797" d="M 25.5,75.5 C 26.404,76.209 26.7373,77.209 26.5,78.5C 26.5,79.5 26.5,80.5 26.5,81.5C 25.448,81.6495 24.448,81.4828 23.5,81C 24.7468,79.5421 24.7468,78.0421 23.5,76.5C 23.9569,75.7025 24.6236,75.3691 25.5,75.5 Z"/></g>
<g><path style="opacity:1" fill="#b3b3b3" d="M 26.5,83.5 C 26.5,82.8333 26.8333,82.5 27.5,82.5C 29.8333,82.5 32.1667,82.5 34.5,82.5C 34.3455,85.716 35.3455,88.3826 37.5,90.5C 37.5,91.8333 36.8333,92.5 35.5,92.5C 34.791,91.596 33.791,91.2627 32.5,91.5C 32.5,90.5 32.5,89.5 32.5,88.5C 29.3147,88.2776 28.3147,86.7776 29.5,84C 28.552,83.5172 27.552,83.3505 26.5,83.5 Z"/></g>
<g><path style="opacity:1" fill="#565656" d="M 62.5,86.5 C 60.2918,85.0825 59.4585,83.0825 60,80.5C 61.6625,82.1579 62.4959,84.1579 62.5,86.5 Z"/></g>
<g><path style="opacity:1" fill="#6c6c6c" d="M 34.5,82.5 C 35.871,84.936 36.871,87.6027 37.5,90.5C 35.3455,88.3826 34.3455,85.716 34.5,82.5 Z"/></g>
<g><path style="opacity:0.859" fill="#676767" d="M 14.5,82.5 C 15.2485,83.531 15.9152,84.6976 16.5,86C 17.0944,86.4643 17.7611,86.631 18.5,86.5C 18.6767,91.3077 20.3433,95.3077 23.5,98.5C 22.791,99.404 21.791,99.7373 20.5,99.5C 21.7987,102.684 22.7987,106.017 23.5,109.5C 22.5,109.5 21.5,109.5 20.5,109.5C 18.6617,100.479 16.6617,91.4786 14.5,82.5 Z"/></g>
<g><path style="opacity:1" fill="#dcdcdc" d="M 26.5,83.5 C 27.552,83.3505 28.552,83.5172 29.5,84C 28.3147,86.7776 29.3147,88.2776 32.5,88.5C 32.5,89.5 32.5,90.5 32.5,91.5C 33.791,91.2627 34.791,91.596 35.5,92.5C 34.1667,93.1667 32.8333,93.8333 31.5,94.5C 30.4168,94.5394 29.4168,94.8728 28.5,95.5C 25.4888,92.4138 23.8221,88.7471 23.5,84.5C 24.209,83.596 25.209,83.2627 26.5,83.5 Z"/></g>
<g><path style="opacity:0.071" fill="#797979" d="M 133.5,82.5 C 135.309,84.564 136.309,87.064 136.5,90C 137.069,96.6523 137.403,103.319 137.5,110C 137.473,115.58 136.806,120.914 135.5,126C 136.985,127.756 136.652,128.923 134.5,129.5C 136.324,119.488 136.991,109.488 136.5,99.5C 134.93,93.9406 133.93,88.2739 133.5,82.5 Z"/></g>
<g><path style="opacity:1" fill="#a9a8a9" d="M 21.5,84.5 C 22.1667,84.5 22.8333,84.5 23.5,84.5C 23.8221,88.7471 25.4888,92.4138 28.5,95.5C 29.4168,94.8728 30.4168,94.5394 31.5,94.5C 31.8333,95.1667 32.1667,95.8333 32.5,96.5C 30.8212,96.2852 29.8212,96.9519 29.5,98.5C 28.8485,97.9094 28.1818,97.2427 27.5,96.5C 26.8933,96.6236 26.56,96.9569 26.5,97.5C 25.391,97.5569 24.391,97.8902 23.5,98.5C 20.3433,95.3077 18.6767,91.3077 18.5,86.5C 18.9731,85.0937 19.9731,84.427 21.5,84.5 Z"/></g>
<g><path style="opacity:1" fill="#515151" d="M 62.5,86.5 C 65.3557,89.2024 67.6891,92.369 69.5,96C 65.6662,94.2545 63.3328,91.0879 62.5,86.5 Z"/></g>
<g><path style="opacity:0.514" fill="#686868" d="M 118.5,105.5 C 118.666,101.154 118.499,96.8206 118,92.5C 117.153,99.5677 115.986,106.568 114.5,113.5C 114.636,115.865 114.97,118.198 115.5,120.5C 115.861,122.418 116.528,122.751 117.5,121.5C 118.712,123.264 118.379,124.93 116.5,126.5C 114.362,122.419 113.029,118.086 112.5,113.5C 114.391,106.437 115.724,99.2699 116.5,92C 116.542,87.8784 115.876,83.8784 114.5,80C 115.167,78 115.833,78 116.5,80C 118.667,86.8333 120,93.8333 120.5,101C 120.431,102.986 119.765,104.486 118.5,105.5 Z"/></g>
<g><path style="opacity:1" fill="#373737" d="M 26.5,97.5 C 26.56,96.9569 26.8933,96.6236 27.5,96.5C 28.1818,97.2427 28.8485,97.9094 29.5,98.5C 30.147,100.141 31.147,101.474 32.5,102.5C 31.2502,102.577 30.4169,103.244 30,104.5C 29.1016,101.931 27.935,99.5976 26.5,97.5 Z"/></g>
<g><path style="opacity:1" fill="#1a1a1a" d="M 37.5,90.5 C 39.9324,94.5235 42.2658,98.6902 44.5,103C 43.0158,104.574 41.3492,105.907 39.5,107C 41.5112,108.635 43.5112,109.468 45.5,109.5C 43.7118,110.283 42.7118,111.616 42.5,113.5C 40.1712,111.159 38.1712,108.492 36.5,105.5C 35.6052,102.161 34.2718,99.1605 32.5,96.5C 32.1667,95.8333 31.8333,95.1667 31.5,94.5C 32.8333,93.8333 34.1667,93.1667 35.5,92.5C 36.8333,92.5 37.5,91.8333 37.5,90.5 Z"/></g>
<g><path style="opacity:1" fill="#c2c2c2" d="M 32.5,96.5 C 34.2718,99.1605 35.6052,102.161 36.5,105.5C 38.1712,108.492 40.1712,111.159 42.5,113.5C 42.5,114.167 42.5,114.833 42.5,115.5C 41.791,116.404 40.791,116.737 39.5,116.5C 39.5,115.167 39.5,113.833 39.5,112.5C 38.5,112.5 37.5,112.5 36.5,112.5C 36.5,110.833 36.5,109.167 36.5,107.5C 35.1779,107.67 34.0113,107.337 33,106.5C 33.3308,104.981 33.1641,103.648 32.5,102.5C 31.147,101.474 30.147,100.141 29.5,98.5C 29.8212,96.9519 30.8212,96.2852 32.5,96.5 Z"/></g>
<g><path style="opacity:0.427" fill="#6a6a6a" d="M 23.5,109.5 C 25.2018,111.184 26.7018,113.184 28,115.5C 28.3333,115.167 28.6667,114.833 29,114.5C 29.2747,118.421 30.7747,122.088 33.5,125.5C 28.1941,121.587 24.8608,116.254 23.5,109.5 Z"/></g>
<g><path style="opacity:0.151" fill="#616161" d="M 118.5,108.5 C 119.748,109.334 120.415,110.667 120.5,112.5C 120.33,114.529 119.996,116.529 119.5,118.5C 119.253,119.713 118.586,120.38 117.5,120.5C 117.833,116.5 118.167,112.5 118.5,108.5 Z"/></g>
<g><path style="opacity:1" fill="#848484" d="M 42.5,115.5 C 43.9348,116.913 44.9348,118.58 45.5,120.5C 45.1667,121.5 44.5,122.167 43.5,122.5C 42.5489,121.081 42.2155,119.415 42.5,117.5C 41.209,117.737 40.209,117.404 39.5,116.5C 40.791,116.737 41.791,116.404 42.5,115.5 Z"/></g>
<g><path style="opacity:0.388" fill="#404040" d="M 62.5,123.5 C 61.1667,123.833 61.1667,124.167 62.5,124.5C 62.8333,125.167 63.1667,125.833 63.5,126.5C 60.9298,124.597 58.5964,122.263 56.5,119.5C 56.6667,119.167 56.8333,118.833 57,118.5C 59.0289,120.033 60.8622,121.699 62.5,123.5 Z"/></g>
<g><path style="opacity:0.102" fill="#6c6c6c" d="M 63.5,126.5 C 65.5,126.5 66.5,127.5 66.5,129.5C 65.1667,128.833 64.1667,127.833 63.5,126.5 Z"/></g>
<g><path style="opacity:0.098" fill="#505050" d="M 73.5,127.5 C 77.7483,127.624 81.0817,129.29 83.5,132.5C 79.8821,131.197 76.5487,129.53 73.5,127.5 Z"/></g>
<g><path style="opacity:0.998" fill="#161616" d="M 26.5,97.5 C 27.935,99.5976 29.1016,101.931 30,104.5C 30.4169,103.244 31.2502,102.577 32.5,102.5C 33.1641,103.648 33.3308,104.981 33,106.5C 34.0113,107.337 35.1779,107.67 36.5,107.5C 36.5,109.167 36.5,110.833 36.5,112.5C 37.5,112.5 38.5,112.5 39.5,112.5C 39.5,113.833 39.5,115.167 39.5,116.5C 40.209,117.404 41.209,117.737 42.5,117.5C 42.2155,119.415 42.5489,121.081 43.5,122.5C 45.2393,125.277 46.906,128.111 48.5,131C 47.2888,131.893 47.2888,132.726 48.5,133.5C 49.7678,132.572 51.1011,132.405 52.5,133C 53.3636,134.697 54.6969,135.863 56.5,136.5C 57.087,135.767 57.087,134.767 56.5,133.5C 57.9311,133.881 58.7645,134.881 59,136.5C 60.6732,134.083 62.5065,134.083 64.5,136.5C 64.8333,136.167 65.1667,135.833 65.5,135.5C 62.7709,133.633 63.1043,132.633 66.5,132.5C 66.5,133.5 66.5,134.5 66.5,135.5C 67.5,135.5 68.5,135.5 69.5,135.5C 69.719,136.675 69.3857,137.675 68.5,138.5C 66.4706,137.371 66.1373,137.871 67.5,140C 69.3502,139.405 71.3502,138.905 73.5,138.5C 73.5,139.5 73.5,140.5 73.5,141.5C 76.8957,141.633 77.2291,142.633 74.5,144.5C 75,144.833 75.5,145.167 76,145.5C 77.5777,144.453 79.0777,144.453 80.5,145.5C 79.5,146.167 78.5,146.833 77.5,147.5C 78.8333,148.167 80.1667,148.833 81.5,149.5C 79.0776,151.048 79.0776,152.714 81.5,154.5C 81.1667,154.833 80.8333,155.167 80.5,155.5C 77.7766,153.602 74.9432,151.935 72,150.5C 72.6667,149.167 73.3333,147.833 74,146.5C 71.7723,144.626 69.2723,143.792 66.5,144C 68.612,144.906 69.4453,146.406 69,148.5C 66.3122,145.978 63.4789,143.644 60.5,141.5C 60.1667,142.833 59.8333,144.167 59.5,145.5C 57.5,143.5 55.5,141.5 53.5,139.5C 51.9617,141.243 50.9617,143.243 50.5,145.5C 49.8333,144.833 49.1667,144.167 48.5,143.5C 47.8333,143.167 47.1667,142.833 46.5,142.5C 46.6495,141.448 46.4828,140.448 46,139.5C 45.31,138.262 44.81,138.262 44.5,139.5C 43.2921,138.766 41.9587,138.433 40.5,138.5C 40.5,137.167 40.5,135.833 40.5,134.5C 38.479,131.159 36.1457,128.159 33.5,125.5C 30.7747,122.088 29.2747,118.421 29,114.5C 28.6667,114.833 28.3333,115.167 28,115.5C 26.7018,113.184 25.2018,111.184 23.5,109.5C 22.7987,106.017 21.7987,102.684 20.5,99.5C 21.791,99.7373 22.791,99.404 23.5,98.5C 24.391,97.8902 25.391,97.5569 26.5,97.5 Z"/></g>
<g><path style="opacity:0.163" fill="#7b7b7b" d="M 33.5,125.5 C 36.1457,128.159 38.479,131.159 40.5,134.5C 39.1667,134.5 37.8333,134.5 36.5,134.5C 35.1721,131.644 34.1721,128.644 33.5,125.5 Z"/></g>
<g><path style="opacity:1" fill="#2d2d2d" d="M 45.5,120.5 C 47.2883,122.423 49.2883,123.089 51.5,122.5C 50.8333,123.167 50.1667,123.833 49.5,124.5C 51.0461,125.684 52.7127,126.684 54.5,127.5C 54.2907,128.086 53.9574,128.586 53.5,129C 54.6667,129.5 55.5,130.333 56,131.5C 56.7175,130.549 57.5509,130.383 58.5,131C 57.6195,131.708 56.9528,132.542 56.5,133.5C 57.087,134.767 57.087,135.767 56.5,136.5C 54.6969,135.863 53.3636,134.697 52.5,133C 51.1011,132.405 49.7678,132.572 48.5,133.5C 47.2888,132.726 47.2888,131.893 48.5,131C 46.906,128.111 45.2393,125.277 43.5,122.5C 44.5,122.167 45.1667,121.5 45.5,120.5 Z"/></g>
<g><path style="opacity:1" fill="#434343" d="M 100.5,130.5 C 102.99,133.626 104.323,137.292 104.5,141.5C 103.5,141.5 102.5,141.5 101.5,141.5C 101.577,137.785 101.244,134.119 100.5,130.5 Z"/></g>
<g><path style="opacity:0.176" fill="#555555" d="M 69.5,131.5 C 72.4933,132.833 74.8266,134.833 76.5,137.5C 74.4048,136.588 72.4048,135.421 70.5,134C 69.7476,133.329 69.4142,132.496 69.5,131.5 Z"/></g>
<g><path style="opacity:0.008" fill="#7e7e7e" d="M 88.5,135.5 C 91.5,136.5 93.5,138.5 94.5,141.5C 92.1182,139.785 90.1182,137.785 88.5,135.5 Z"/></g>
<g><path style="opacity:0.194" fill="#717171" d="M 46.5,142.5 C 44.9519,142.179 44.2852,141.179 44.5,139.5C 44.81,138.262 45.31,138.262 46,139.5C 46.4828,140.448 46.6495,141.448 46.5,142.5 Z"/></g>
<g><path style="opacity:0.231" fill="#4a494a" d="M 78.5,138.5 C 83.8894,140.797 89.3894,142.797 95,144.5C 95.4643,143.906 95.631,143.239 95.5,142.5C 97.1042,143.287 97.7709,144.62 97.5,146.5C 90.2812,145.718 83.9479,143.051 78.5,138.5 Z"/></g>
<g><path style="opacity:0.157" fill="#7f7f7f" d="M 134.5,129.5 C 133.062,136.377 130.062,142.377 125.5,147.5C 125.337,145.143 125.503,142.81 126,140.5C 127.135,140.273 128.302,139.94 129.5,139.5C 132.376,136.132 132.043,133.132 128.5,130.5C 129.246,129.264 129.579,127.93 129.5,126.5C 130.5,126.5 131.5,126.5 132.5,126.5C 132.285,128.179 132.952,129.179 134.5,129.5 Z"/></g>
<g><path style="opacity:0.667" fill="#777777" d="M 48.5,143.5 C 49.1667,144.167 49.8333,144.833 50.5,145.5C 52.7726,146.767 54.7726,148.433 56.5,150.5C 54.0722,149.585 51.7389,148.418 49.5,147C 48.6634,145.989 48.33,144.822 48.5,143.5 Z"/></g>
<g><path style="opacity:0.725" fill="#5a5a5a" d="M 56.5,150.5 C 58.8333,150.833 60.1667,152.167 60.5,154.5C 58.5,153.833 57.1667,152.5 56.5,150.5 Z"/></g>
<g><path style="opacity:1" fill="#919191" d="M 101.5,160.5 C 99.2646,160.795 97.2646,160.461 95.5,159.5C 97.0226,156.37 97.6893,153.037 97.5,149.5C 99.8333,149.5 102.167,149.5 104.5,149.5C 104.664,152.187 104.497,154.854 104,157.5C 103.623,158.942 102.79,159.942 101.5,160.5 Z"/></g>
<g><path style="opacity:0.663" fill="#4f4f4f" d="M 68.5,157.5 C 65.9369,156.912 63.6036,155.912 61.5,154.5C 61.4346,154.062 61.6012,153.728 62,153.5C 64.5837,154.269 66.7504,155.602 68.5,157.5 Z"/></g>
<g><path style="opacity:0.667" fill="#6a6a6a" d="M 68.5,157.5 C 69.8333,157.5 70.5,158.167 70.5,159.5C 69.1667,159.5 68.5,158.833 68.5,157.5 Z"/></g>
<g><path style="opacity:0.714" fill="#656564" d="M 124.5,148.5 C 113.75,161.714 99.7502,166.714 82.5,163.5C 85.6414,162.679 88.9748,162.179 92.5,162C 93.3734,160.955 94.3734,160.122 95.5,159.5C 97.2646,160.461 99.2646,160.795 101.5,160.5C 101.56,161.043 101.893,161.376 102.5,161.5C 104.115,160.846 105.782,160.346 107.5,160C 108.456,157.123 109.789,154.456 111.5,152C 112.167,151.333 112.833,151.333 113.5,152C 114.26,155.667 115.76,156.167 118,153.5C 117.528,148.124 119.695,146.457 124.5,148.5 Z"/></g>
<g><path style="opacity:0.169" fill="#5d5d5d" d="M 72.5,159.5 C 75.6207,159.736 77.954,161.069 79.5,163.5C 77.5183,163.005 75.5183,162.505 73.5,162C 72.7476,161.329 72.4142,160.496 72.5,159.5 Z"/></g>
</svg>
