<?xml version="1.0" encoding="UTF-8"?>
<!DOCTYPE svg PUBLIC "-//W3C//DTD SVG 1.1//EN" "http://www.w3.org/Graphics/SVG/1.1/DTD/svg11.dtd">
<svg xmlns="http://www.w3.org/2000/svg" version="1.1" width="1200px" height="1200px" style="shape-rendering:geometricPrecision; text-rendering:geometricPrecision; image-rendering:optimizeQuality; fill-rule:evenodd; clip-rule:evenodd" xmlns:xlink="http://www.w3.org/1999/xlink">
<g><path style="opacity:0.986" fill="#fb7469" d="M -0.5,-0.5 C 399.5,-0.5 799.5,-0.5 1199.5,-0.5C 1199.5,399.5 1199.5,799.5 1199.5,1199.5C 799.5,1199.5 399.5,1199.5 -0.5,1199.5C -0.5,799.5 -0.5,399.5 -0.5,-0.5 Z M 45.5,45.5 C 148.833,45.5 252.167,45.5 355.5,45.5C 355.5,148.833 355.5,252.167 355.5,355.5C 252.167,355.5 148.833,355.5 45.5,355.5C 45.5,252.167 45.5,148.833 45.5,45.5 Z M 444.5,89.5 C 429.5,89.5 414.5,89.5 399.5,89.5C 399.5,74.8333 399.5,60.1667 399.5,45.5C 414.5,45.5 429.5,45.5 444.5,45.5C 444.5,60.1667 444.5,74.8333 444.5,89.5 Z M 621.5,222.5 C 621.5,237.5 621.5,252.5 621.5,267.5C 606.833,267.5 592.167,267.5 577.5,267.5C 577.5,282.167 577.5,296.833 577.5,311.5C 562.833,311.5 548.167,311.5 533.5,311.5C 533.5,328.5 533.5,345.5 533.5,362.5C 532.167,362.833 530.833,363.167 529.5,363.5C 522.684,364.879 516.351,367.212 510.5,370.5C 510.167,370.5 509.833,370.5 509.5,370.5C 499.587,373.793 490.253,378.126 481.5,383.5C 479.973,383.427 478.973,384.094 478.5,385.5C 471.162,388.497 464.495,392.497 458.5,397.5C 456.668,398.248 455.001,399.248 453.5,400.5C 450.5,400.5 447.5,400.5 444.5,400.5C 444.5,385.5 444.5,370.5 444.5,355.5C 429.5,355.5 414.5,355.5 399.5,355.5C 399.171,325.926 399.505,296.426 400.5,267C 444.493,265.219 488.493,265.053 532.5,266.5C 532.5,251.833 532.5,237.167 532.5,222.5C 503.167,222.5 473.833,222.5 444.5,222.5C 444.5,207.833 444.5,193.167 444.5,178.5C 429.5,178.5 414.5,178.5 399.5,178.5C 399.333,163.83 399.5,149.163 400,134.5C 414.755,133.509 429.588,133.176 444.5,133.5C 444.5,118.833 444.5,104.167 444.5,89.5C 459.167,89.5 473.833,89.5 488.5,89.5C 488.5,74.8333 488.5,60.1667 488.5,45.5C 503.5,45.5 518.5,45.5 533.5,45.5C 533.5,60.1667 533.5,74.8333 533.5,89.5C 548.167,89.5 562.833,89.5 577.5,89.5C 577.5,104.167 577.5,118.833 577.5,133.5C 606.833,133.5 636.167,133.5 665.5,133.5C 665.5,118.833 665.5,104.167 665.5,89.5C 650.833,89.5 636.167,89.5 621.5,89.5C 621.5,74.8333 621.5,60.1667 621.5,45.5C 651.167,45.5 680.833,45.5 710.5,45.5C 710.5,74.8333 710.5,104.167 710.5,133.5C 725.167,133.5 739.833,133.5 754.5,133.5C 754.5,118.833 754.5,104.167 754.5,89.5C 769.17,89.3334 783.837,89.5001 798.5,90C 799.159,97.2569 799.492,104.59 799.5,112C 799.492,119.41 799.159,126.743 798.5,134C 783.837,134.5 769.17,134.667 754.5,134.5C 754.5,149.167 754.5,163.833 754.5,178.5C 739.833,178.5 725.167,178.5 710.5,178.5C 710.5,208.167 710.5,237.833 710.5,267.5C 695.83,267.667 681.163,267.5 666.5,267C 665.509,252.245 665.176,237.412 665.5,222.5C 650.833,222.5 636.167,222.5 621.5,222.5 Z M 843.5,45.5 C 946.833,45.5 1050.17,45.5 1153.5,45.5C 1153.5,148.833 1153.5,252.167 1153.5,355.5C 1050.17,355.5 946.833,355.5 843.5,355.5C 843.5,326.167 843.5,296.833 843.5,267.5C 816.167,267.5 788.833,267.5 761.5,267.5C 761.5,252.167 761.5,236.833 761.5,221.5C 788.833,221.5 816.167,221.5 843.5,221.5C 843.5,162.833 843.5,104.167 843.5,45.5 Z M 134.5,133.5 C 178.739,133.17 222.906,133.503 267,134.5C 267.83,178.738 267.663,222.904 266.5,267C 222.262,267.83 178.096,267.663 134,266.5C 133.173,222.096 133.339,177.762 134.5,133.5 Z M 577.5,311.5 C 592.167,311.5 606.833,311.5 621.5,311.5C 621.5,326.167 621.5,340.833 621.5,355.5C 615.19,354.81 608.857,354.476 602.5,354.5C 594.167,354.5 585.833,354.5 577.5,354.5C 577.5,340.167 577.5,325.833 577.5,311.5 Z M 710.5,375.5 C 705.792,372.98 700.792,371.314 695.5,370.5C 691.588,368.018 687.255,366.185 682.5,365C 677.153,363.829 671.819,362.663 666.5,361.5C 666.167,361.5 665.833,361.5 665.5,361.5C 665.5,344.833 665.5,328.167 665.5,311.5C 680.5,311.5 695.5,311.5 710.5,311.5C 710.5,332.833 710.5,354.167 710.5,375.5 Z M 754.5,311.5 C 769.5,311.5 784.5,311.5 799.5,311.5C 799.5,326.167 799.5,340.833 799.5,355.5C 784.5,355.5 769.5,355.5 754.5,355.5C 754.5,340.833 754.5,326.167 754.5,311.5 Z M 641.5,384.5 C 646.5,384.5 651.5,384.5 656.5,384.5C 660.81,385.08 665.143,385.414 669.5,385.5C 670.167,385.5 670.833,385.5 671.5,385.5C 688.906,387.345 705.906,391.012 722.5,396.5C 724.036,399.092 726.369,400.092 729.5,399.5C 737.745,403.36 746.079,407.026 754.5,410.5C 755.132,418.573 754.465,426.24 752.5,433.5C 751.264,431.957 749.598,430.957 747.5,430.5C 744.812,432.521 742.479,434.854 740.5,437.5C 737.5,439.833 734.833,442.5 732.5,445.5C 729.167,448.167 726.167,451.167 723.5,454.5C 721.973,454.427 720.973,455.094 720.5,456.5C 720.5,456.833 720.5,457.167 720.5,457.5C 721.262,459.262 722.596,460.262 724.5,460.5C 731.533,467.201 738.866,473.534 746.5,479.5C 747.588,483.104 749.921,484.937 753.5,485C 760.337,479.329 766.671,473.162 772.5,466.5C 774.833,464.833 776.833,462.833 778.5,460.5C 784.061,456.221 783.394,452.888 776.5,450.5C 774.45,448.453 772.117,446.786 769.5,445.5C 808.663,444.501 847.996,444.168 887.5,444.5C 887.5,429.5 887.5,414.5 887.5,399.5C 902.412,399.176 917.245,399.509 932,400.5C 932.5,429.831 932.667,459.165 932.5,488.5C 947.167,488.5 961.833,488.5 976.5,488.5C 976.5,473.833 976.5,459.167 976.5,444.5C 991.167,444.5 1005.83,444.5 1020.5,444.5C 1020.5,429.5 1020.5,414.5 1020.5,399.5C 1035.17,399.333 1049.84,399.5 1064.5,400C 1065.49,414.755 1065.82,429.588 1065.5,444.5C 1080.17,444.5 1094.83,444.5 1109.5,444.5C 1109.5,429.5 1109.5,414.5 1109.5,399.5C 1124.17,399.5 1138.83,399.5 1153.5,399.5C 1153.5,444.167 1153.5,488.833 1153.5,533.5C 1138.83,533.5 1124.17,533.5 1109.5,533.5C 1109.67,518.83 1109.5,504.163 1109,489.5C 1094.58,488.51 1080.08,488.176 1065.5,488.5C 1065.67,503.17 1065.5,517.837 1065,532.5C 1050.24,533.491 1035.41,533.824 1020.5,533.5C 1020.5,548.167 1020.5,562.833 1020.5,577.5C 1005.83,577.5 991.167,577.5 976.5,577.5C 976.5,562.833 976.5,548.167 976.5,533.5C 929.832,533.667 883.165,533.5 836.5,533C 835.934,532.005 835.267,531.172 834.5,530.5C 832.87,526.562 831.203,522.562 829.5,518.5C 826.457,516.905 824.124,517.572 822.5,520.5C 821.167,521.167 820.167,522.167 819.5,523.5C 818.833,523.5 818.5,523.833 818.5,524.5C 816.139,526.194 814.139,528.194 812.5,530.5C 811.026,531.436 810.026,532.77 809.5,534.5C 807.973,534.427 806.973,535.094 806.5,536.5C 801.861,541.474 797.195,546.474 792.5,551.5C 790.286,552.392 789.286,554.058 789.5,556.5C 791.927,567.396 793.594,578.396 794.5,589.5C 794.5,596.833 794.5,604.167 794.5,611.5C 793.601,621.559 792.268,631.559 790.5,641.5C 789.055,644.937 788.055,648.603 787.5,652.5C 786.883,652.611 786.383,652.944 786,653.5C 783.431,661.629 780.598,669.629 777.5,677.5C 776.662,677.842 776.328,678.508 776.5,679.5C 775.094,679.973 774.427,680.973 774.5,682.5C 773.326,683.514 772.66,684.847 772.5,686.5C 768.447,691.892 764.78,697.559 761.5,703.5C 759.413,704.585 758.08,706.251 757.5,708.5C 755.833,709.5 754.5,710.833 753.5,712.5C 747.784,718.547 742.117,724.547 736.5,730.5C 735.508,730.328 734.842,730.662 734.5,731.5C 728.345,736.411 722.011,741.077 715.5,745.5C 667.326,773.684 616.66,778.85 563.5,761C 556.899,758.638 550.566,755.805 544.5,752.5C 534.856,746.534 525.189,740.534 515.5,734.5C 513.443,734.957 513.443,735.957 515.5,737.5C 519.413,742.445 524.08,746.445 529.5,749.5C 530.539,751.531 532.205,752.864 534.5,753.5C 536.373,756.449 539.039,758.449 542.5,759.5C 551.711,767.277 562.044,773.277 573.5,777.5C 581.604,782.038 590.271,785.371 599.5,787.5C 600.167,787.5 600.833,787.5 601.5,787.5C 612.706,791.428 624.373,793.761 636.5,794.5C 636.833,794.5 637.167,794.5 637.5,794.5C 642.813,795.098 648.146,795.431 653.5,795.5C 654.5,795.5 655.5,795.5 656.5,795.5C 660.869,795.533 665.202,795.2 669.5,794.5C 670.167,794.5 670.833,794.5 671.5,794.5C 678.565,793.886 685.565,792.886 692.5,791.5C 693.167,791.5 693.833,791.5 694.5,791.5C 698.19,790.002 701.857,788.669 705.5,787.5C 706.167,787.5 706.833,787.5 707.5,787.5C 714.139,785.734 720.473,783.401 726.5,780.5C 727.492,780.672 728.158,780.338 728.5,779.5C 731.089,779.539 733.089,778.539 734.5,776.5C 737.241,776.293 739.574,775.293 741.5,773.5C 748.171,770.836 754.171,767.169 759.5,762.5C 761.853,761.66 763.853,760.326 765.5,758.5C 767.609,757.609 769.609,756.442 771.5,755C 795.498,754.5 819.498,754.333 843.5,754.5C 843.5,739.833 843.5,725.167 843.5,710.5C 887.833,710.5 932.167,710.5 976.5,710.5C 976.5,695.5 976.5,680.5 976.5,665.5C 1005.83,665.5 1035.17,665.5 1064.5,665.5C 1064.5,650.833 1064.5,636.167 1064.5,621.5C 1079.5,621.5 1094.5,621.5 1109.5,621.5C 1109.5,606.833 1109.5,592.167 1109.5,577.5C 1124.17,577.5 1138.83,577.5 1153.5,577.5C 1153.5,621.833 1153.5,666.167 1153.5,710.5C 1138.83,710.5 1124.17,710.5 1109.5,710.5C 1109.5,695.833 1109.5,681.167 1109.5,666.5C 1094.83,666.5 1080.17,666.5 1065.5,666.5C 1065.82,681.079 1065.49,695.579 1064.5,710C 1049.84,710.5 1035.17,710.667 1020.5,710.5C 1020.5,725.167 1020.5,739.833 1020.5,754.5C 1005.83,754.5 991.167,754.5 976.5,754.5C 976.5,769.5 976.5,784.5 976.5,799.5C 1006.17,799.667 1035.84,799.5 1065.5,799C 1064.51,784.245 1064.18,769.412 1064.5,754.5C 1079.5,754.5 1094.5,754.5 1109.5,754.5C 1109.5,769.167 1109.5,783.833 1109.5,798.5C 1124.17,798.5 1138.83,798.5 1153.5,798.5C 1153.5,828.167 1153.5,857.833 1153.5,887.5C 1094.5,887.5 1035.5,887.5 976.5,887.5C 976.5,931.833 976.5,976.167 976.5,1020.5C 991.167,1020.5 1005.83,1020.5 1020.5,1020.5C 1020.5,1035.5 1020.5,1050.5 1020.5,1065.5C 1005.83,1065.5 991.167,1065.5 976.5,1065.5C 976.5,1080.17 976.5,1094.83 976.5,1109.5C 946.833,1109.5 917.167,1109.5 887.5,1109.5C 887.5,1079.83 887.5,1050.17 887.5,1020.5C 902.167,1020.5 916.833,1020.5 931.5,1020.5C 931.5,1005.83 931.5,991.167 931.5,976.5C 902.167,976.5 872.833,976.5 843.5,976.5C 843.5,991.167 843.5,1005.83 843.5,1020.5C 828.5,1020.5 813.5,1020.5 798.5,1020.5C 798.5,1005.83 798.5,991.167 798.5,976.5C 783.833,976.5 769.167,976.5 754.5,976.5C 754.5,1005.83 754.5,1035.17 754.5,1064.5C 784.167,1064.5 813.833,1064.5 843.5,1064.5C 843.5,1079.5 843.5,1094.5 843.5,1109.5C 828.833,1109.5 814.167,1109.5 799.5,1109.5C 799.5,1124.17 799.5,1138.83 799.5,1153.5C 784.5,1153.5 769.5,1153.5 754.5,1153.5C 754.5,1124.17 754.5,1094.83 754.5,1065.5C 725.165,1065.67 695.831,1065.5 666.5,1065C 665.505,1035.57 665.171,1006.07 665.5,976.5C 680.5,976.5 695.5,976.5 710.5,976.5C 710.5,961.833 710.5,947.167 710.5,932.5C 695.83,932.667 681.163,932.5 666.5,932C 665.509,917.245 665.176,902.412 665.5,887.5C 695.167,887.5 724.833,887.5 754.5,887.5C 754.5,858.5 754.5,829.5 754.5,800.5C 755.833,799.833 756.833,798.833 757.5,797.5C 761.749,795.912 765.082,793.245 767.5,789.5C 771.727,787.215 775.393,784.215 778.5,780.5C 783.167,777.833 786.833,774.167 789.5,769.5C 791.727,768.599 792.727,766.933 792.5,764.5C 791.448,764.351 790.448,764.517 789.5,765C 786.426,767.849 783.426,770.683 780.5,773.5C 780.167,773.5 779.833,773.5 779.5,773.5C 773.62,777.267 767.954,781.267 762.5,785.5C 752.074,791.047 741.408,796.047 730.5,800.5C 727.759,800.707 725.426,801.707 723.5,803.5C 713.25,807.143 702.916,810.143 692.5,812.5C 691.833,812.5 691.167,812.5 690.5,812.5C 673.573,815.26 656.573,816.26 639.5,815.5C 637.167,815.5 634.833,815.5 632.5,815.5C 625.5,814.574 618.5,813.574 611.5,812.5C 604.733,811.142 598.066,809.475 591.5,807.5C 578.419,803.808 565.753,799.141 553.5,793.5C 530.154,780.475 509.154,764.475 490.5,745.5C 489.92,743.251 488.587,741.585 486.5,740.5C 486.573,738.973 485.906,737.973 484.5,737.5C 483.833,736.167 482.833,735.167 481.5,734.5C 481.262,732.596 480.262,731.262 478.5,730.5C 476.745,727.32 474.745,724.32 472.5,721.5C 470.735,718.291 468.735,715.291 466.5,712.5C 466.573,710.973 465.906,709.973 464.5,709.5C 463.389,706.144 461.723,703.144 459.5,700.5C 457.605,694.382 454.939,688.715 451.5,683.5C 451.5,683.167 451.5,682.833 451.5,682.5C 447.247,671.496 443.913,660.162 441.5,648.5C 441.5,648.167 441.5,647.833 441.5,647.5C 438.214,634.73 436.214,621.73 435.5,608.5C 435.5,603.5 435.5,598.5 435.5,593.5C 436.139,581.318 437.805,569.318 440.5,557.5C 443.234,543.896 446.901,530.563 451.5,517.5C 455.387,510.055 459.054,502.388 462.5,494.5C 463.674,493.486 464.34,492.153 464.5,490.5C 465.376,490.631 466.043,490.298 466.5,489.5C 468.225,486.133 469.892,482.8 471.5,479.5C 472.974,478.564 473.974,477.23 474.5,475.5C 475.906,475.027 476.573,474.027 476.5,472.5C 478.262,471.738 479.262,470.404 479.5,468.5C 483.18,464.817 486.514,460.817 489.5,456.5C 491.167,455.5 492.5,454.167 493.5,452.5C 495.833,450.833 497.833,448.833 499.5,446.5C 501.833,444.833 503.833,442.833 505.5,440.5C 511.39,436.062 517.057,431.395 522.5,426.5C 528.852,422.993 534.852,418.993 540.5,414.5C 548.363,410.736 556.03,406.736 563.5,402.5C 564.609,402.443 565.609,402.11 566.5,401.5C 570.167,401.5 573.833,401.5 577.5,401.5C 577.5,400.167 577.5,398.833 577.5,397.5C 585.312,394.972 592.979,392.305 600.5,389.5C 604.924,389.348 609.257,388.681 613.5,387.5C 622.787,386.14 632.12,385.14 641.5,384.5 Z M 178.5,444.5 C 208.167,444.5 237.833,444.5 267.5,444.5C 267.5,459.167 267.5,473.833 267.5,488.5C 304.167,488.5 340.833,488.5 377.5,488.5C 374.771,494.354 372.438,500.354 370.5,506.5C 369.463,507.93 368.796,509.597 368.5,511.5C 363.486,521.866 360.152,532.866 358.5,544.5C 357.313,547.946 356.646,551.613 356.5,555.5C 354.491,560.856 353.324,566.523 353,572.5C 352.501,578.157 352.334,583.824 352.5,589.5C 352.5,594.833 352.5,600.167 352.5,605.5C 352.5,606.167 352.5,606.833 352.5,607.5C 352.5,612.167 352.5,616.833 352.5,621.5C 338.833,621.5 325.167,621.5 311.5,621.5C 311.5,606.833 311.5,592.167 311.5,577.5C 296.833,577.5 282.167,577.5 267.5,577.5C 267.829,607.074 267.495,636.574 266.5,666C 222.501,666.5 178.501,666.667 134.5,666.5C 134.5,681.167 134.5,695.833 134.5,710.5C 119.5,710.5 104.5,710.5 89.5,710.5C 89.5,711.833 89.5,713.167 89.5,714.5C 78.1667,714.5 66.8333,714.5 55.5,714.5C 55.5,713.167 55.5,711.833 55.5,710.5C 52.1667,710.5 48.8333,710.5 45.5,710.5C 44.1799,658.938 43.5132,607.272 43.5,555.5C 43.5176,503.417 44.1843,451.417 45.5,399.5C 60.1667,399.5 74.8333,399.5 89.5,399.5C 89.5,414.5 89.5,429.5 89.5,444.5C 104.167,444.5 118.833,444.5 133.5,444.5C 133.333,429.83 133.5,415.163 134,400.5C 148.755,399.509 163.588,399.176 178.5,399.5C 178.5,414.5 178.5,429.5 178.5,444.5 Z M 311.5,399.5 C 340.835,399.333 370.169,399.5 399.5,400C 400.491,414.755 400.824,429.588 400.5,444.5C 370.833,444.5 341.167,444.5 311.5,444.5C 311.5,429.5 311.5,414.5 311.5,399.5 Z M 843.5,636.5 C 844.963,633.797 845.796,630.797 846,627.5C 846.567,622.166 847.067,616.833 847.5,611.5C 847.5,604.833 847.5,598.167 847.5,591.5C 847.772,587.098 847.439,582.765 846.5,578.5C 860.15,577.501 873.817,577.167 887.5,577.5C 887.5,592.167 887.5,606.833 887.5,621.5C 902.17,621.333 916.837,621.5 931.5,622C 932.656,636.425 932.823,650.925 932,665.5C 902.574,666.495 873.074,666.829 843.5,666.5C 843.5,656.5 843.5,646.5 843.5,636.5 Z M 355.5,644.5 C 356.788,650.27 358.455,655.937 360.5,661.5C 361.589,670.429 364.255,678.763 368.5,686.5C 368.5,686.833 368.5,687.167 368.5,687.5C 370.5,692.833 372.5,698.167 374.5,703.5C 376.012,707.201 378.012,710.534 380.5,713.5C 380.893,715.284 381.559,716.95 382.5,718.5C 384.684,722.881 387.35,726.881 390.5,730.5C 391.759,734.025 393.759,737.025 396.5,739.5C 397.34,741.853 398.674,743.853 400.5,745.5C 400.5,763.167 400.5,780.833 400.5,798.5C 415.167,798.5 429.833,798.5 444.5,798.5C 444.5,796.167 444.5,793.833 444.5,791.5C 449.357,795.092 454.357,798.425 459.5,801.5C 460.716,803.451 462.382,804.951 464.5,806C 468.577,808.705 472.91,810.872 477.5,812.5C 481.008,815.57 485.008,817.903 489.5,819.5C 492.551,821.352 495.884,822.686 499.5,823.5C 500.78,824.931 502.447,825.598 504.5,825.5C 513.449,830.374 523.116,833.707 533.5,835.5C 533.5,838.167 533.5,840.833 533.5,843.5C 518.5,843.5 503.5,843.5 488.5,843.5C 488.5,858.167 488.5,872.833 488.5,887.5C 458.833,887.5 429.167,887.5 399.5,887.5C 399.5,858.167 399.5,828.833 399.5,799.5C 370.167,799.5 340.833,799.5 311.5,799.5C 311.5,784.5 311.5,769.5 311.5,754.5C 326.167,754.5 340.833,754.5 355.5,754.5C 355.5,739.833 355.5,725.167 355.5,710.5C 340.833,710.5 326.167,710.5 311.5,710.5C 311.5,695.5 311.5,680.5 311.5,665.5C 326.167,665.5 340.833,665.5 355.5,665.5C 355.5,658.5 355.5,651.5 355.5,644.5 Z M 311.5,710.5 C 311.5,725.167 311.5,739.833 311.5,754.5C 296.833,754.5 282.167,754.5 267.5,754.5C 267.667,769.17 267.5,783.837 267,798.5C 259.743,799.159 252.41,799.492 245,799.5C 237.59,799.492 230.257,799.159 223,798.5C 222.5,783.837 222.333,769.17 222.5,754.5C 237.167,754.5 251.833,754.5 266.5,754.5C 266.5,739.833 266.5,725.167 266.5,710.5C 281.5,710.5 296.5,710.5 311.5,710.5 Z M 45.5,754.5 C 75.1667,754.5 104.833,754.5 134.5,754.5C 134.824,769.412 134.491,784.245 133.5,799C 104.169,799.5 74.8352,799.667 45.5,799.5C 45.5,784.5 45.5,769.5 45.5,754.5 Z M 45.5,843.5 C 148.833,843.5 252.167,843.5 355.5,843.5C 355.5,946.833 355.5,1050.17 355.5,1153.5C 252.167,1153.5 148.833,1153.5 45.5,1153.5C 45.5,1050.17 45.5,946.833 45.5,843.5 Z M 577.5,843.5 C 577.833,843.5 578.167,843.5 578.5,843.5C 589.482,844.286 600.482,844.619 611.5,844.5C 614.833,844.5 618.167,844.5 621.5,844.5C 621.5,947.5 621.5,1050.5 621.5,1153.5C 547.5,1153.5 473.5,1153.5 399.5,1153.5C 399.5,1138.83 399.5,1124.17 399.5,1109.5C 414.167,1109.5 428.833,1109.5 443.5,1109.5C 443.5,1094.83 443.5,1080.17 443.5,1065.5C 428.921,1065.82 414.421,1065.49 400,1064.5C 399.5,1049.84 399.333,1035.17 399.5,1020.5C 414.167,1020.5 428.833,1020.5 443.5,1020.5C 443.5,1005.5 443.5,990.5 443.5,975.5C 458.5,975.5 473.5,975.5 488.5,975.5C 488.5,960.833 488.5,946.167 488.5,931.5C 503.167,931.5 517.833,931.5 532.5,931.5C 532.5,916.833 532.5,902.167 532.5,887.5C 547.5,887.5 562.5,887.5 577.5,887.5C 577.5,872.833 577.5,858.167 577.5,843.5 Z M 843.5,843.5 C 858.167,843.5 872.833,843.5 887.5,843.5C 887.5,858.167 887.5,872.833 887.5,887.5C 872.833,887.5 858.167,887.5 843.5,887.5C 843.5,872.833 843.5,858.167 843.5,843.5 Z M 134.5,931.5 C 178.739,931.17 222.906,931.503 267,932.5C 267.83,976.738 267.663,1020.9 266.5,1065C 222.262,1065.83 178.096,1065.66 134,1064.5C 133.173,1020.1 133.339,975.762 134.5,931.5 Z M 1020.5,1020.5 C 1020.5,1005.83 1020.5,991.167 1020.5,976.5C 1035.17,976.5 1049.83,976.5 1064.5,976.5C 1064.33,961.83 1064.5,947.163 1065,932.5C 1079.76,931.509 1094.59,931.176 1109.5,931.5C 1109.5,961.167 1109.5,990.833 1109.5,1020.5C 1124.17,1020.5 1138.83,1020.5 1153.5,1020.5C 1153.5,1035.5 1153.5,1050.5 1153.5,1065.5C 1124.16,1065.67 1094.83,1065.5 1065.5,1065C 1064.51,1050.24 1064.18,1035.41 1064.5,1020.5C 1049.83,1020.5 1035.17,1020.5 1020.5,1020.5 Z M 976.5,1109.5 C 991.167,1109.5 1005.83,1109.5 1020.5,1109.5C 1020.5,1124.17 1020.5,1138.83 1020.5,1153.5C 1005.83,1153.5 991.167,1153.5 976.5,1153.5C 976.5,1138.83 976.5,1124.17 976.5,1109.5 Z M 1109.5,1109.5 C 1124.17,1109.5 1138.83,1109.5 1153.5,1109.5C 1153.5,1124.17 1153.5,1138.83 1153.5,1153.5C 1138.83,1153.5 1124.17,1153.5 1109.5,1153.5C 1109.5,1138.83 1109.5,1124.17 1109.5,1109.5 Z"/></g>
<g><path style="opacity:0.974" fill="#fb7468" d="M 90.5,89.5 C 164.167,89.5 237.833,89.5 311.5,89.5C 311.5,163.5 311.5,237.5 311.5,311.5C 237.5,311.5 163.5,311.5 89.5,311.5C 89.17,237.429 89.5033,163.429 90.5,89.5 Z M 134.5,133.5 C 133.339,177.762 133.173,222.096 134,266.5C 178.096,267.663 222.262,267.83 266.5,267C 267.663,222.904 267.83,178.738 267,134.5C 222.906,133.503 178.739,133.17 134.5,133.5 Z"/></g>
<g><path style="opacity:0.945" fill="#fb7468" d="M 488.5,89.5 C 503.167,89.5 517.833,89.5 532.5,89.5C 532.5,104.167 532.5,118.833 532.5,133.5C 517.833,133.5 503.167,133.5 488.5,133.5C 488.5,118.833 488.5,104.167 488.5,89.5 Z"/></g>
<g><path style="opacity:0.973" fill="#fb7468" d="M 887.5,89.5 C 961.167,89.3333 1034.83,89.5 1108.5,90C 1109.5,149.095 1109.83,208.262 1109.5,267.5C 1094.5,267.667 1079.5,267.5 1064.5,267C 1065.66,222.904 1065.83,178.738 1065,134.5C 1042.9,133.836 1020.74,133.503 998.5,133.5C 976.262,133.503 954.095,133.836 932,134.5C 931.17,178.738 931.337,222.904 932.5,267C 917.504,267.5 902.504,267.667 887.5,267.5C 887.5,208.167 887.5,148.833 887.5,89.5 Z"/></g>
<g><path style="opacity:0.951" fill="#fb7468" d="M 577.5,178.5 C 562.833,178.5 548.167,178.5 533.5,178.5C 533.5,163.833 533.5,149.167 533.5,134.5C 548.167,134.5 562.833,134.5 577.5,134.5C 577.5,149.167 577.5,163.833 577.5,178.5 Z"/></g>
<g><path style="opacity:0.958" fill="#fb7468" d="M 577.5,178.5 C 592.167,178.5 606.833,178.5 621.5,178.5C 621.5,193.167 621.5,207.833 621.5,222.5C 621.5,207.833 621.5,193.167 621.5,178.5C 606.833,178.5 592.167,178.5 577.5,178.5 Z"/></g>
<g><path style="opacity:0.965" fill="#fb7369" d="M 577.5,311.5 C 577.5,325.833 577.5,340.167 577.5,354.5C 576.365,356.213 574.698,356.88 572.5,356.5C 568.21,356.198 564.21,356.864 560.5,358.5C 551.611,358.538 543.111,360.204 535,363.5C 534.235,363.43 533.735,363.097 533.5,362.5C 533.5,345.5 533.5,328.5 533.5,311.5C 548.167,311.5 562.833,311.5 577.5,311.5 Z"/></g>
<g><path style="opacity:1" fill="#4c4a4f" d="M 577.5,354.5 C 585.833,354.5 594.167,354.5 602.5,354.5C 603.609,355.29 604.942,355.79 606.5,356C 614.483,356.832 622.483,357.332 630.5,357.5C 639.544,358.135 648.544,359.135 657.5,360.5C 660.219,361.913 663.219,362.58 666.5,362.5C 676.119,364.99 685.786,367.657 695.5,370.5C 700.792,371.314 705.792,372.98 710.5,375.5C 715.016,378.927 720.016,381.593 725.5,383.5C 725.973,384.906 726.973,385.573 728.5,385.5C 751.759,397.665 772.425,413.499 790.5,433C 790.167,433.167 789.833,433.333 789.5,433.5C 778.696,425.025 767.362,417.358 755.5,410.5C 746.802,405.597 737.802,401.264 728.5,397.5C 727.167,397.167 725.833,396.833 724.5,396.5C 709.073,390.643 693.073,386.643 676.5,384.5C 674.631,384.507 672.964,384.84 671.5,385.5C 670.833,385.5 670.167,385.5 669.5,385.5C 665.263,383.473 660.93,383.139 656.5,384.5C 651.5,384.5 646.5,384.5 641.5,384.5C 632.559,383.12 623.559,383.62 614.5,386C 613.944,386.383 613.611,386.883 613.5,387.5C 609.257,388.681 604.924,389.348 600.5,389.5C 592.322,390.457 584.655,392.79 577.5,396.5C 574.314,397.338 571.147,398.338 568,399.5C 566.97,399.836 566.47,400.503 566.5,401.5C 565.609,402.11 564.609,402.443 563.5,402.5C 555.08,405.208 547.414,409.208 540.5,414.5C 538.199,415.06 535.866,415.56 533.5,416C 534.833,416.667 534.833,417.333 533.5,418C 529.362,420.315 525.695,423.148 522.5,426.5C 517.057,431.395 511.39,436.062 505.5,440.5C 502.5,441.5 500.5,443.5 499.5,446.5C 497.833,448.833 495.833,450.833 493.5,452.5C 491.167,452.833 489.833,454.167 489.5,456.5C 486.514,460.817 483.18,464.817 479.5,468.5C 477.738,469.262 476.738,470.596 476.5,472.5C 475.094,472.973 474.427,473.973 474.5,475.5C 473.974,477.23 472.974,478.564 471.5,479.5C 468.421,482.65 466.087,486.317 464.5,490.5C 464.34,492.153 463.674,493.486 462.5,494.5C 457.517,501.469 453.85,509.136 451.5,517.5C 445.526,529.091 441.526,541.424 439.5,554.5C 435.445,567.264 434.112,580.264 435.5,593.5C 435.5,598.5 435.5,603.5 435.5,608.5C 434.425,620.535 435.592,632.535 439,644.5C 439.236,646.119 440.069,647.119 441.5,647.5C 441.5,647.833 441.5,648.167 441.5,648.5C 440.876,648.917 440.543,649.584 440.5,650.5C 442.177,657.543 444.011,664.543 446,671.5C 447.744,675.354 449.578,679.021 451.5,682.5C 451.5,682.833 451.5,683.167 451.5,683.5C 453.4,689.629 456.067,695.296 459.5,700.5C 461.723,703.144 463.389,706.144 464.5,709.5C 464.427,711.027 465.094,712.027 466.5,712.5C 468.735,715.291 470.735,718.291 472.5,721.5C 472.838,723.854 473.338,726.187 474,728.5C 474.333,728.167 474.667,727.833 475,727.5C 476.039,728.71 477.206,729.71 478.5,730.5C 480.262,731.262 481.262,732.596 481.5,734.5C 481.5,736.5 482.5,737.5 484.5,737.5C 484.427,739.027 485.094,740.027 486.5,740.5C 487.08,742.749 488.413,744.415 490.5,745.5C 509.154,764.475 530.154,780.475 553.5,793.5C 559.214,797.691 565.548,800.857 572.5,803C 578.136,804.934 583.802,806.767 589.5,808.5C 590.416,808.457 591.083,808.124 591.5,807.5C 598.066,809.475 604.733,811.142 611.5,812.5C 611.611,813.117 611.944,813.617 612.5,814C 619.221,816.177 625.888,816.677 632.5,815.5C 634.833,815.5 637.167,815.5 639.5,815.5C 655.619,818.216 671.952,817.716 688.5,814C 689.416,813.722 690.082,813.222 690.5,812.5C 691.167,812.5 691.833,812.5 692.5,812.5C 692.56,813.043 692.893,813.376 693.5,813.5C 704.93,811.231 715.93,807.898 726.5,803.5C 727.609,803.443 728.609,803.11 729.5,802.5C 733.67,801.498 737.67,799.998 741.5,798C 748.967,794.281 755.967,790.114 762.5,785.5C 767.902,782.63 773.235,779.464 778.5,776C 779.252,775.329 779.586,774.496 779.5,773.5C 779.833,773.5 780.167,773.5 780.5,773.5C 783.538,771.888 786.371,769.888 789,767.5C 789.464,768.094 789.631,768.761 789.5,769.5C 785.5,772.833 781.833,776.5 778.5,780.5C 775.393,784.215 771.727,787.215 767.5,789.5C 763.854,791.817 760.52,794.484 757.5,797.5C 756.833,798.833 755.833,799.833 754.5,800.5C 739.937,809.282 724.937,817.282 709.5,824.5C 706.603,825.129 703.936,826.129 701.5,827.5C 692.643,830.675 683.643,833.675 674.5,836.5C 670.2,836.755 666.2,837.755 662.5,839.5C 659.833,839.833 657.167,840.167 654.5,840.5C 650.64,840.808 646.974,841.475 643.5,842.5C 635.963,842.518 628.629,843.185 621.5,844.5C 618.167,844.5 614.833,844.5 611.5,844.5C 600.528,842.659 589.528,842.326 578.5,843.5C 578.167,843.5 577.833,843.5 577.5,843.5C 577.389,842.883 577.056,842.383 576.5,842C 567.047,841.625 557.713,840.459 548.5,838.5C 546.485,837.076 544.152,836.41 541.5,836.5C 539.585,836.784 537.919,836.451 536.5,835.5C 543.98,831.711 550.98,827.044 557.5,821.5C 556.131,819.876 554.464,819.376 552.5,820C 546.762,824.851 541.095,829.685 535.5,834.5C 524.979,832.104 514.646,829.104 504.5,825.5C 502.447,825.598 500.78,824.931 499.5,823.5C 496.724,821.608 493.724,819.941 490.5,818.5C 489.893,818.624 489.56,818.957 489.5,819.5C 485.008,817.903 481.008,815.57 477.5,812.5C 477.167,811.833 476.833,811.167 476.5,810.5C 484.014,806.243 491.68,802.243 499.5,798.5C 499.135,797.098 498.301,796.098 497,795.5C 490.927,798.787 484.761,801.953 478.5,805C 476.365,805.876 475.031,807.376 474.5,809.5C 469.341,807.088 464.341,804.421 459.5,801.5C 454.357,798.425 449.357,795.092 444.5,791.5C 444.631,790.761 444.464,790.094 444,789.5C 437.304,783.634 430.804,777.634 424.5,771.5C 431.595,768.788 438.595,765.788 445.5,762.5C 446.823,760.796 446.49,759.463 444.5,758.5C 438.167,761.667 431.833,764.833 425.5,768C 424.619,768.708 423.953,769.542 423.5,770.5C 415.461,762.729 408.127,754.396 401.5,745.5C 400.299,743.091 398.633,741.091 396.5,739.5C 393.759,737.025 391.759,734.025 390.5,730.5C 388.576,726.983 386.909,723.316 385.5,719.5C 392.661,717.548 399.994,716.381 407.5,716C 409.037,714.89 409.703,713.39 409.5,711.5C 400.65,712.404 391.983,714.07 383.5,716.5C 383.863,717.183 384.196,717.85 384.5,718.5C 383.833,718.5 383.167,718.5 382.5,718.5C 381.559,716.95 380.893,715.284 380.5,713.5C 379.167,710.167 377.833,706.833 376.5,703.5C 374.328,697.822 371.661,692.489 368.5,687.5C 368.5,687.167 368.5,686.833 368.5,686.5C 365.858,678.603 363.525,670.603 361.5,662.5C 370.506,662.666 379.506,662.5 388.5,662C 389.337,660.989 389.67,659.822 389.5,658.5C 380.167,658.5 370.833,658.5 361.5,658.5C 361.5,659.5 361.5,660.5 361.5,661.5C 361.167,661.5 360.833,661.5 360.5,661.5C 360.299,654.345 358.633,647.678 355.5,641.5C 355.5,639.833 355.5,638.167 355.5,636.5C 355.089,631.662 354.422,626.995 353.5,622.5C 353.5,621.833 353.167,621.5 352.5,621.5C 352.5,616.833 352.5,612.167 352.5,607.5C 359.752,608.448 367.086,609.114 374.5,609.5C 377.441,609.379 380.108,608.713 382.5,607.5C 383.404,606.791 383.737,605.791 383.5,604.5C 373.319,604.173 363.319,604.506 353.5,605.5C 353.167,605.5 352.833,605.5 352.5,605.5C 352.5,600.167 352.5,594.833 352.5,589.5C 353.663,578.292 354.997,566.958 356.5,555.5C 356.646,551.613 357.313,547.946 358.5,544.5C 361.981,533.582 365.315,522.582 368.5,511.5C 368.796,509.597 369.463,507.93 370.5,506.5C 373.486,500.574 376.486,494.574 379.5,488.5C 386.676,474.135 395.342,460.802 405.5,448.5C 410.648,442.237 415.814,435.904 421,429.5C 431.655,419.457 442.489,409.79 453.5,400.5C 455.001,399.248 456.668,398.248 458.5,397.5C 465.506,394 472.173,390 478.5,385.5C 478.973,384.094 479.973,383.427 481.5,383.5C 485.698,381.653 490.031,379.987 494.5,378.5C 499.659,376.088 504.659,373.421 509.5,370.5C 509.833,370.5 510.167,370.5 510.5,370.5C 514.946,369.777 519.279,368.61 523.5,367C 525.879,366.284 527.879,365.117 529.5,363.5C 530.833,363.167 532.167,362.833 533.5,362.5C 533.735,363.097 534.235,363.43 535,363.5C 543.111,360.204 551.611,358.538 560.5,358.5C 564.79,358.802 568.79,358.136 572.5,356.5C 574.698,356.88 576.365,356.213 577.5,354.5 Z"/></g>
<g><path style="opacity:0.388" fill="#7d6e71" d="M 602.5,354.5 C 608.857,354.476 615.19,354.81 621.5,355.5C 624.5,356.167 627.5,356.833 630.5,357.5C 622.483,357.332 614.483,356.832 606.5,356C 604.942,355.79 603.609,355.29 602.5,354.5 Z"/></g>
<g><path style="opacity:1" fill="#7a595b" d="M 572.5,356.5 C 568.79,358.136 564.79,358.802 560.5,358.5C 564.21,356.864 568.21,356.198 572.5,356.5 Z"/></g>
<g><path style="opacity:1" fill="#09090a" d="M 549.5,360.5 C 559.048,364.607 568.381,369.274 577.5,374.5C 576.131,376.124 574.464,376.624 572.5,376C 564.96,371.632 557.293,367.466 549.5,363.5C 548.438,362.575 548.438,361.575 549.5,360.5 Z"/></g>
<g><path style="opacity:0.757" fill="#a56d6b" d="M 657.5,360.5 C 660.206,360.575 662.873,360.908 665.5,361.5C 665.833,361.5 666.167,361.5 666.5,361.5C 666.5,361.833 666.5,362.167 666.5,362.5C 663.219,362.58 660.219,361.913 657.5,360.5 Z"/></g>
<g><path style="opacity:0.318" fill="#6b6a6f" d="M 666.5,361.5 C 671.819,362.663 677.153,363.829 682.5,365C 687.255,366.185 691.588,368.018 695.5,370.5C 685.786,367.657 676.119,364.99 666.5,362.5C 666.5,362.167 666.5,361.833 666.5,361.5 Z"/></g>
<g><path style="opacity:0.678" fill="#6e6d71" d="M 529.5,363.5 C 527.879,365.117 525.879,366.284 523.5,367C 519.279,368.61 514.946,369.777 510.5,370.5C 516.351,367.212 522.684,364.879 529.5,363.5 Z"/></g>
<g><path style="opacity:0.471" fill="#6f6c70" d="M 509.5,370.5 C 504.659,373.421 499.659,376.088 494.5,378.5C 490.031,379.987 485.698,381.653 481.5,383.5C 490.253,378.126 499.587,373.793 509.5,370.5 Z"/></g>
<g><path style="opacity:1" fill="#09090b" d="M 494.5,378.5 C 504.79,381.811 514.456,386.478 523.5,392.5C 522.131,394.124 520.464,394.624 518.5,394C 510.996,389.413 503.329,385.08 495.5,381C 494.748,380.329 494.414,379.496 494.5,378.5 Z"/></g>
<g><path style="opacity:0.596" fill="#6a686c" d="M 641.5,384.5 C 632.12,385.14 622.787,386.14 613.5,387.5C 613.611,386.883 613.944,386.383 614.5,386C 623.559,383.62 632.559,383.12 641.5,384.5 Z"/></g>
<g><path style="opacity:0.118" fill="#757377" d="M 656.5,384.5 C 660.93,383.139 665.263,383.473 669.5,385.5C 665.143,385.414 660.81,385.08 656.5,384.5 Z"/></g>
<g><path style="opacity:1" fill="#ab6866" d="M 725.5,383.5 C 727.027,383.427 728.027,384.094 728.5,385.5C 726.973,385.573 725.973,384.906 725.5,383.5 Z"/></g>
<g><path style="opacity:0.1" fill="#727075" d="M 478.5,385.5 C 472.173,390 465.506,394 458.5,397.5C 464.495,392.497 471.162,388.497 478.5,385.5 Z"/></g>
<g><path style="opacity:0.02" fill="#716b6f" d="M 671.5,385.5 C 672.964,384.84 674.631,384.507 676.5,384.5C 693.073,386.643 709.073,390.643 724.5,396.5C 723.833,396.5 723.167,396.5 722.5,396.5C 705.906,391.012 688.906,387.345 671.5,385.5 Z"/></g>
<g><path style="opacity:0.176" fill="#6d6c70" d="M 600.5,389.5 C 592.979,392.305 585.312,394.972 577.5,397.5C 577.5,397.167 577.5,396.833 577.5,396.5C 584.655,392.79 592.322,390.457 600.5,389.5 Z"/></g>
<g><path style="opacity:0.532" fill="#eb7369" d="M 577.5,396.5 C 577.5,396.833 577.5,397.167 577.5,397.5C 577.5,398.833 577.5,400.167 577.5,401.5C 573.833,401.5 570.167,401.5 566.5,401.5C 566.47,400.503 566.97,399.836 568,399.5C 571.147,398.338 574.314,397.338 577.5,396.5 Z"/></g>
<g><path style="opacity:0.159" fill="#e6736a" d="M 722.5,396.5 C 723.167,396.5 723.833,396.5 724.5,396.5C 725.833,396.833 727.167,397.167 728.5,397.5C 728.833,398.167 729.167,398.833 729.5,399.5C 726.369,400.092 724.036,399.092 722.5,396.5 Z"/></g>
<g><path style="opacity:0.09" fill="#6d686c" d="M 728.5,397.5 C 737.802,401.264 746.802,405.597 755.5,410.5C 755.167,410.5 754.833,410.5 754.5,410.5C 746.079,407.026 737.745,403.36 729.5,399.5C 729.167,398.833 728.833,398.167 728.5,397.5 Z"/></g>
<g><path style="opacity:1" fill="#09090a" d="M 447.5,407.5 C 457.643,410.727 467.31,415.227 476.5,421C 475.328,423.055 473.661,423.722 471.5,423C 464.663,418.747 457.663,414.747 450.5,411C 448.937,410.241 447.937,409.074 447.5,407.5 Z"/></g>
<g><path style="opacity:0.275" fill="#6b696e" d="M 563.5,402.5 C 556.03,406.736 548.363,410.736 540.5,414.5C 547.414,409.208 555.08,405.208 563.5,402.5 Z"/></g>
<g><path style="opacity:1" fill="#ffc34c" d="M 655.5,414.5 C 655.586,413.504 655.252,412.671 654.5,412C 657.105,411.974 658.271,410.807 658,408.5C 657.667,408.833 657.333,409.167 657,409.5C 650.935,407.882 644.769,406.882 638.5,406.5C 646.499,405.342 654.499,405.342 662.5,406.5C 660.62,409.614 658.287,412.28 655.5,414.5 Z"/></g>
<g><path style="opacity:1" fill="#ffbd1d" d="M 636.5,406.5 C 637.167,406.5 637.833,406.5 638.5,406.5C 644.769,406.882 650.935,407.882 657,409.5C 657.333,409.167 657.667,408.833 658,408.5C 658.271,410.807 657.105,411.974 654.5,412C 655.252,412.671 655.586,413.504 655.5,414.5C 654.5,415.833 653.5,417.167 652.5,418.5C 650.821,418.892 649.154,419.392 647.5,420C 648.252,420.671 648.586,421.504 648.5,422.5C 647.457,425.056 645.79,427.223 643.5,429C 639.179,429.499 634.846,429.666 630.5,429.5C 627.062,428.177 623.229,427.51 619,427.5C 613.248,427.311 607.748,427.978 602.5,429.5C 587.579,432.23 572.912,435.897 558.5,440.5C 552.188,442.153 546.188,444.653 540.5,448C 538.937,448.759 537.937,449.926 537.5,451.5C 536.078,452.925 534.411,453.925 532.5,454.5C 528.136,456.771 523.969,459.438 520,462.5C 519.5,462 519,461.5 518.5,461C 521.079,459.924 522.746,458.091 523.5,455.5C 533.07,446.375 543.737,438.708 555.5,432.5C 555.435,432.938 555.601,433.272 556,433.5C 559.927,431.978 563.093,429.644 565.5,426.5C 574.14,422.016 583.14,418.349 592.5,415.5C 592.735,416.097 593.235,416.43 594,416.5C 607.049,412.436 620.383,409.769 634,408.5C 635.376,408.316 636.209,407.649 636.5,406.5 Z"/></g>
<g><path style="opacity:0.427" fill="#ffc347" d="M 636.5,406.5 C 636.209,407.649 635.376,408.316 634,408.5C 620.383,409.769 607.049,412.436 594,416.5C 593.235,416.43 592.735,416.097 592.5,415.5C 606.917,411.429 621.584,408.429 636.5,406.5 Z"/></g>
<g><path style="opacity:0.902" fill="#ffaf4b" d="M 706.5,415.5 C 706.083,416.124 705.416,416.457 704.5,416.5C 698.63,414.908 692.797,413.241 687,411.5C 684.114,412.546 681.614,414.213 679.5,416.5C 679.5,416.167 679.5,415.833 679.5,415.5C 681.146,413.188 683.146,411.188 685.5,409.5C 692.528,411.511 699.528,413.511 706.5,415.5 Z"/></g>
<g><path style="opacity:1" fill="#ff9d25" d="M 706.5,415.5 C 714.616,417.427 722.616,419.761 730.5,422.5C 731.833,423.5 731.833,424.5 730.5,425.5C 727.147,428.522 723.813,431.522 720.5,434.5C 715.56,437.77 711.227,441.77 707.5,446.5C 705.989,448.441 703.989,448.941 701.5,448C 690.096,441.979 678.096,437.479 665.5,434.5C 665.629,432.784 665.962,431.117 666.5,429.5C 668.575,426.758 670.909,424.424 673.5,422.5C 675.833,420.833 677.833,418.833 679.5,416.5C 681.614,414.213 684.114,412.546 687,411.5C 692.797,413.241 698.63,414.908 704.5,416.5C 705.416,416.457 706.083,416.124 706.5,415.5 Z"/></g>
<g><path style="opacity:0.165" fill="#6b696d" d="M 540.5,414.5 C 534.852,418.993 528.852,422.993 522.5,426.5C 525.695,423.148 529.362,420.315 533.5,418C 534.833,417.333 534.833,416.667 533.5,416C 535.866,415.56 538.199,415.06 540.5,414.5 Z"/></g>
<g><path style="opacity:1" fill="#ffbe68" d="M 652.5,418.5 C 651.5,420.167 650.167,421.5 648.5,422.5C 648.586,421.504 648.252,420.671 647.5,420C 649.154,419.392 650.821,418.892 652.5,418.5 Z"/></g>
<g><path style="opacity:0.565" fill="#ffb582" d="M 679.5,415.5 C 679.5,415.833 679.5,416.167 679.5,416.5C 677.833,418.833 675.833,420.833 673.5,422.5C 674.757,419.573 676.757,417.239 679.5,415.5 Z"/></g>
<g><path style="opacity:0.273" fill="#ffc446" d="M 630.5,429.5 C 621.235,428.575 611.901,428.575 602.5,429.5C 607.748,427.978 613.248,427.311 619,427.5C 623.229,427.51 627.062,428.177 630.5,429.5 Z"/></g>
<g><path style="opacity:0.592" fill="#fcc05a" d="M 565.5,426.5 C 563.093,429.644 559.927,431.978 556,433.5C 555.601,433.272 555.435,432.938 555.5,432.5C 558.798,430.515 562.131,428.515 565.5,426.5 Z"/></g>
<g><path style="opacity:0.614" fill="#ff9157" d="M 752.5,433.5 C 750.94,433.481 749.44,433.148 748,432.5C 745.611,434.399 743.111,436.066 740.5,437.5C 742.479,434.854 744.812,432.521 747.5,430.5C 749.598,430.957 751.264,431.957 752.5,433.5 Z"/></g>
<g><path style="opacity:0.024" fill="#ffbe6f" d="M 666.5,429.5 C 665.962,431.117 665.629,432.784 665.5,434.5C 662.916,432.581 663.25,430.914 666.5,429.5 Z"/></g>
<g><path style="opacity:1" fill="#ff7c2b" d="M 752.5,433.5 C 757.603,438.225 763.269,442.225 769.5,445.5C 772.117,446.786 774.45,448.453 776.5,450.5C 777.909,452.417 779.576,454.25 781.5,456C 779.859,457.129 778.859,458.629 778.5,460.5C 776.833,462.833 774.833,464.833 772.5,466.5C 766.364,471.104 760.364,476.604 754.5,483C 753.167,483.667 751.833,483.667 750.5,483C 749.295,481.624 747.962,480.458 746.5,479.5C 738.866,473.534 731.533,467.201 724.5,460.5C 723.738,458.738 722.404,457.738 720.5,457.5C 720.5,457.167 720.5,456.833 720.5,456.5C 722.027,456.573 723.027,455.906 723.5,454.5C 726.167,451.167 729.167,448.167 732.5,445.5C 736.167,443.833 738.833,441.167 740.5,437.5C 743.111,436.066 745.611,434.399 748,432.5C 749.44,433.148 750.94,433.481 752.5,433.5 Z"/></g>
<g><path style="opacity:0.761" fill="#fe9867" d="M 740.5,437.5 C 738.833,441.167 736.167,443.833 732.5,445.5C 734.833,442.5 737.5,439.833 740.5,437.5 Z"/></g>
<g><path style="opacity:0.263" fill="#fec355" d="M 558.5,440.5 C 551.408,443.88 544.408,447.547 537.5,451.5C 537.937,449.926 538.937,448.759 540.5,448C 546.188,444.653 552.188,442.153 558.5,440.5 Z"/></g>
<g><path style="opacity:0.97" fill="#fb7468" d="M 178.5,444.5 C 178.5,473.833 178.5,503.167 178.5,532.5C 163.83,532.333 149.163,532.5 134.5,533C 133.509,547.755 133.176,562.588 133.5,577.5C 118.833,577.5 104.167,577.5 89.5,577.5C 89.5,547.833 89.5,518.167 89.5,488.5C 104.5,488.5 119.5,488.5 134.5,488.5C 134.5,473.833 134.5,459.167 134.5,444.5C 149.167,444.5 163.833,444.5 178.5,444.5 Z"/></g>
<g><path style="opacity:0.956" fill="#fb7468" d="M 1020.5,444.5 C 1035.17,444.5 1049.83,444.5 1064.5,444.5C 1064.5,459.167 1064.5,473.833 1064.5,488.5C 1049.83,488.5 1035.17,488.5 1020.5,488.5C 1020.5,473.833 1020.5,459.167 1020.5,444.5 Z"/></g>
<g><path style="opacity:0.02" fill="#918182" d="M 505.5,440.5 C 503.833,442.833 501.833,444.833 499.5,446.5C 500.5,443.5 502.5,441.5 505.5,440.5 Z"/></g>
<g><path style="opacity:0.031" fill="#ffba56" d="M 720.5,434.5 C 716.773,439.23 712.44,443.23 707.5,446.5C 711.227,441.77 715.56,437.77 720.5,434.5 Z"/></g>
<g><path style="opacity:1" fill="#0a0a0b" d="M 405.5,448.5 C 415.208,451.603 424.375,455.937 433,461.5C 433.612,463.237 432.946,464.237 431,464.5C 422.93,459.88 414.763,455.38 406.5,451C 405.748,450.329 405.414,449.496 405.5,448.5 Z"/></g>
<g><path style="opacity:0.063" fill="#c0a098" d="M 493.5,452.5 C 492.5,454.167 491.167,455.5 489.5,456.5C 489.833,454.167 491.167,452.833 493.5,452.5 Z"/></g>
<g><path style="opacity:0.62" fill="#fd955f" d="M 776.5,450.5 C 783.394,452.888 784.061,456.221 778.5,460.5C 778.859,458.629 779.859,457.129 781.5,456C 779.576,454.25 777.909,452.417 776.5,450.5 Z"/></g>
<g><path style="opacity:0.349" fill="#ffac8c" d="M 723.5,454.5 C 723.027,455.906 722.027,456.573 720.5,456.5C 720.973,455.094 721.973,454.427 723.5,454.5 Z"/></g>
<g><path style="opacity:0.027" fill="#ffa57c" d="M 720.5,457.5 C 722.404,457.738 723.738,458.738 724.5,460.5C 722.596,460.262 721.262,459.262 720.5,457.5 Z"/></g>
<g><path style="opacity:1" fill="#ffc145" d="M 532.5,454.5 C 526.903,458.981 521.236,463.481 515.5,468C 514.552,468.483 513.552,468.649 512.5,468.5C 512.343,467.127 512.51,465.793 513,464.5C 516.372,461.29 519.872,458.29 523.5,455.5C 522.746,458.091 521.079,459.924 518.5,461C 519,461.5 519.5,462 520,462.5C 523.969,459.438 528.136,456.771 532.5,454.5 Z"/></g>
<g><path style="opacity:0.055" fill="#9d9395" d="M 479.5,468.5 C 479.262,470.404 478.262,471.738 476.5,472.5C 476.738,470.596 477.738,469.262 479.5,468.5 Z"/></g>
<g><path style="opacity:0.529" fill="#ff855a" d="M 799.5,473.5 C 798.038,472.542 796.705,471.376 795.5,470C 794.207,469.51 792.873,469.343 791.5,469.5C 792.314,467.727 793.648,467.227 795.5,468C 797.464,469.451 798.797,471.284 799.5,473.5 Z"/></g>
<g><path style="opacity:0.024" fill="#ff8952" d="M 772.5,466.5 C 766.671,473.162 760.337,479.329 753.5,485C 749.921,484.937 747.588,483.104 746.5,479.5C 747.962,480.458 749.295,481.624 750.5,483C 751.833,483.667 753.167,483.667 754.5,483C 760.364,476.604 766.364,471.104 772.5,466.5 Z"/></g>
<g><path style="opacity:1" fill="#ff641d" d="M 791.5,469.5 C 792.873,469.343 794.207,469.51 795.5,470C 796.705,471.376 798.038,472.542 799.5,473.5C 799.5,475.5 800.5,476.5 802.5,476.5C 802.738,478.404 803.738,479.738 805.5,480.5C 807.458,483.792 809.791,486.792 812.5,489.5C 812.845,492.198 814.178,494.198 816.5,495.5C 816.75,497.674 817.75,499.341 819.5,500.5C 819.672,501.492 819.338,502.158 818.5,502.5C 814.833,505.5 811.5,508.833 808.5,512.5C 802.833,517.5 797.5,522.833 792.5,528.5C 789.853,530.811 787.186,533.144 784.5,535.5C 781.821,530.806 779.155,526.139 776.5,521.5C 775.662,521.158 775.328,520.492 775.5,519.5C 775.25,517.326 774.25,515.659 772.5,514.5C 772.25,512.326 771.25,510.659 769.5,509.5C 769.155,506.802 767.822,504.802 765.5,503.5C 764.094,503.027 763.427,502.027 763.5,500.5C 764.167,498.833 764.833,497.167 765.5,495.5C 765.5,494.833 765.833,494.5 766.5,494.5C 773.5,489.5 779.5,483.5 784.5,476.5C 786.548,473.785 788.882,471.452 791.5,469.5 Z"/></g>
<g><path style="opacity:0.071" fill="#a09a9d" d="M 476.5,472.5 C 476.573,474.027 475.906,475.027 474.5,475.5C 474.427,473.973 475.094,472.973 476.5,472.5 Z"/></g>
<g><path style="opacity:0.839" fill="#ff9065" d="M 799.5,473.5 C 800.833,474.167 801.833,475.167 802.5,476.5C 800.5,476.5 799.5,475.5 799.5,473.5 Z"/></g>
<g><path style="opacity:0.467" fill="#ff9766" d="M 802.5,476.5 C 804.262,477.262 805.262,478.596 805.5,480.5C 803.738,479.738 802.738,478.404 802.5,476.5 Z"/></g>
<g><path style="opacity:0.224" fill="#959499" d="M 471.5,479.5 C 469.892,482.8 468.225,486.133 466.5,489.5C 466.043,490.298 465.376,490.631 464.5,490.5C 466.087,486.317 468.421,482.65 471.5,479.5 Z"/></g>
<g><path style="opacity:0.188" fill="#ff9e7b" d="M 805.5,480.5 C 808.973,482.637 811.306,485.637 812.5,489.5C 809.791,486.792 807.458,483.792 805.5,480.5 Z"/></g>
<g><path style="opacity:0.384" fill="#fb8774" d="M 724.5,483.5 C 725.391,484.261 726.058,485.261 726.5,486.5C 724.725,489.738 722.725,492.738 720.5,495.5C 722.41,491.683 723.743,487.683 724.5,483.5 Z"/></g>
<g><path style="opacity:0.278" fill="#ff6b6c" d="M 722.5,484.5 C 721.92,486.749 720.587,488.415 718.5,489.5C 719.08,487.251 720.413,485.585 722.5,484.5 Z"/></g>
<g><path style="opacity:0.671" fill="#ff9764" d="M 784.5,476.5 C 779.5,483.5 773.5,489.5 766.5,494.5C 772.167,488.167 778.167,482.167 784.5,476.5 Z"/></g>
<g><path style="opacity:0.157" fill="#878689" d="M 377.5,488.5 C 378.167,488.5 378.833,488.5 379.5,488.5C 376.486,494.574 373.486,500.574 370.5,506.5C 372.438,500.354 374.771,494.354 377.5,488.5 Z"/></g>
<g><path style="opacity:0.322" fill="#ff9b70" d="M 812.5,489.5 C 814.326,491.147 815.66,493.147 816.5,495.5C 814.178,494.198 812.845,492.198 812.5,489.5 Z"/></g>
<g><path style="opacity:0.635" fill="#fe7065" d="M 718.5,489.5 C 712.224,497.445 705.224,504.778 697.5,511.5C 703.776,503.555 710.776,496.222 718.5,489.5 Z"/></g>
<g><path style="opacity:0.635" fill="#ff8d68" d="M 765.5,495.5 C 764.833,497.167 764.167,498.833 763.5,500.5C 762.761,500.631 762.094,500.464 761.5,500C 762.328,498.008 763.661,496.508 765.5,495.5 Z"/></g>
<g><path style="opacity:0.216" fill="#ff9e77" d="M 816.5,495.5 C 818.25,496.659 819.25,498.326 819.5,500.5C 817.75,499.341 816.75,497.674 816.5,495.5 Z"/></g>
<g><path style="opacity:1" fill="#09090a" d="M 375.5,498.5 C 385.767,501.09 395.767,504.59 405.5,509C 404.003,511.207 402.003,511.874 399.5,511C 392.664,507.61 385.664,504.61 378.5,502C 376.937,501.241 375.937,500.074 375.5,498.5 Z"/></g>
<g><path style="opacity:0.067" fill="#ff9b91" d="M 719.5,497.5 C 719.573,499.027 718.906,500.027 717.5,500.5C 717.427,498.973 718.094,497.973 719.5,497.5 Z"/></g>
<g><path style="opacity:1" fill="#ff2423" d="M 724.5,483.5 C 723.743,487.683 722.41,491.683 720.5,495.5C 720.672,496.492 720.338,497.158 719.5,497.5C 718.094,497.973 717.427,498.973 717.5,500.5C 716.89,502.434 715.89,504.101 714.5,505.5C 710.545,509.74 707.878,514.74 706.5,520.5C 704.819,523.203 703.153,525.869 701.5,528.5C 700.094,528.973 699.427,529.973 699.5,531.5C 699.672,532.492 699.338,533.158 698.5,533.5C 696.347,535.794 694.68,538.46 693.5,541.5C 693.34,543.153 692.674,544.486 691.5,545.5C 690.094,545.973 689.427,546.973 689.5,548.5C 689.672,549.492 689.338,550.158 688.5,550.5C 685.377,553.976 683.043,557.976 681.5,562.5C 681.611,563.117 681.944,563.617 682.5,564C 679.906,566.086 677.906,568.586 676.5,571.5C 674.461,572.911 673.461,574.911 673.5,577.5C 670.862,579.418 669.195,582.085 668.5,585.5C 668.672,586.492 668.338,587.158 667.5,587.5C 666.094,587.973 665.427,588.973 665.5,590.5C 664.89,592.434 663.89,594.101 662.5,595.5C 657.999,600.344 657.332,605.677 660.5,611.5C 660.655,620.734 658.655,629.401 654.5,637.5C 652.108,642.225 648.441,645.558 643.5,647.5C 639.497,648.168 636.164,649.834 633.5,652.5C 633.167,652.5 632.833,652.5 632.5,652.5C 628.5,651.167 624.5,651.167 620.5,652.5C 619.833,652.5 619.167,652.5 618.5,652.5C 618.631,651.624 618.298,650.957 617.5,650.5C 612.559,649.027 607.893,647.027 603.5,644.5C 602.215,642.548 600.549,640.882 598.5,639.5C 597.66,637.147 596.326,635.147 594.5,633.5C 593.629,630.888 592.963,628.221 592.5,625.5C 591.949,621.027 591.283,616.693 590.5,612.5C 590.5,612.167 590.5,611.833 590.5,611.5C 592.28,610.01 592.946,608.01 592.5,605.5C 594.213,604.365 594.88,602.698 594.5,600.5C 596.262,599.738 597.262,598.404 597.5,596.5C 597.738,594.596 598.738,593.262 600.5,592.5C 603.536,590.157 606.87,588.157 610.5,586.5C 611.298,586.043 611.631,585.376 611.5,584.5C 611.833,584.5 612.167,584.5 612.5,584.5C 612.56,585.043 612.893,585.376 613.5,585.5C 619.924,584.325 626.258,582.825 632.5,581C 636.747,577.258 640.414,573.092 643.5,568.5C 646.167,566.5 648.5,564.167 650.5,561.5C 653.903,559.1 656.57,556.1 658.5,552.5C 658.738,550.596 659.738,549.262 661.5,548.5C 664.089,547.581 666.089,545.914 667.5,543.5C 670.243,541.761 672.243,539.427 673.5,536.5C 674.833,535.833 675.833,534.833 676.5,533.5C 676.987,532.527 677.487,531.527 678,530.5C 680.305,528.179 682.805,526.179 685.5,524.5C 689.566,521.437 692.899,517.771 695.5,513.5C 695.5,512.167 696.167,511.5 697.5,511.5C 705.224,504.778 712.224,497.445 718.5,489.5C 720.587,488.415 721.92,486.749 722.5,484.5C 722.842,483.662 723.508,483.328 724.5,483.5 Z"/></g>
<g><path style="opacity:0.275" fill="#8b8b8e" d="M 462.5,494.5 C 459.054,502.388 455.387,510.055 451.5,517.5C 453.85,509.136 457.517,501.469 462.5,494.5 Z"/></g>
<g><path style="opacity:0.145" fill="#ffa481" d="M 765.5,503.5 C 767.822,504.802 769.155,506.802 769.5,509.5C 767.674,507.853 766.34,505.853 765.5,503.5 Z"/></g>
<g><path style="opacity:0.008" fill="#ff7d55" d="M 818.5,502.5 C 816.234,506.436 813.234,509.769 809.5,512.5C 809.167,512.5 808.833,512.5 808.5,512.5C 811.5,508.833 814.833,505.5 818.5,502.5 Z"/></g>
<g><path style="opacity:0.216" fill="#ff8775" d="M 714.5,505.5 C 712.593,510.984 709.927,515.984 706.5,520.5C 707.878,514.74 710.545,509.74 714.5,505.5 Z"/></g>
<g><path style="opacity:0.137" fill="#ffae8a" d="M 769.5,509.5 C 771.25,510.659 772.25,512.326 772.5,514.5C 770.75,513.341 769.75,511.674 769.5,509.5 Z"/></g>
<g><path style="opacity:0.224" fill="#ffa57a" d="M 772.5,514.5 C 774.25,515.659 775.25,517.326 775.5,519.5C 773.75,518.341 772.75,516.674 772.5,514.5 Z"/></g>
<g><path style="opacity:0.635" fill="#ff7f6e" d="M 695.5,513.5 C 692.899,517.771 689.566,521.437 685.5,524.5C 688.101,520.229 691.434,516.563 695.5,513.5 Z"/></g>
<g><path style="opacity:0.055" fill="#ffb597" d="M 808.5,512.5 C 808.833,512.5 809.167,512.5 809.5,512.5C 804.167,518.5 798.5,524.167 792.5,529.5C 792.5,529.167 792.5,528.833 792.5,528.5C 797.5,522.833 802.833,517.5 808.5,512.5 Z"/></g>
<g><path style="opacity:0.999" fill="#ff5b28" d="M 834.5,530.5 C 840.34,550.641 844.673,570.975 847.5,591.5C 847.5,598.167 847.5,604.833 847.5,611.5C 846.778,611.918 846.278,612.584 846,613.5C 844.755,621.129 843.921,628.795 843.5,636.5C 832.104,686.652 806.104,727.319 765.5,758.5C 763.853,760.326 761.853,761.66 759.5,762.5C 754.045,765.729 748.379,768.729 742.5,771.5C 741.702,771.957 741.369,772.624 741.5,773.5C 739.574,775.293 737.241,776.293 734.5,776.5C 732.03,776.654 730.03,777.654 728.5,779.5C 728.158,780.338 727.492,780.672 726.5,780.5C 721.363,781.36 716.03,782.86 710.5,785C 709.058,785.377 708.058,786.21 707.5,787.5C 706.833,787.5 706.167,787.5 705.5,787.5C 702.126,787.674 698.793,788.174 695.5,789C 694.748,789.671 694.414,790.504 694.5,791.5C 693.833,791.5 693.167,791.5 692.5,791.5C 691.551,790.848 690.385,790.514 689,790.5C 682.787,791.339 676.954,792.672 671.5,794.5C 670.833,794.5 670.167,794.5 669.5,794.5C 667.527,793.837 665.361,793.504 663,793.5C 660.39,793.533 658.223,794.2 656.5,795.5C 655.5,795.5 654.5,795.5 653.5,795.5C 651.257,794.188 648.59,793.522 645.5,793.5C 642.645,793.503 639.978,793.836 637.5,794.5C 637.167,794.5 636.833,794.5 636.5,794.5C 635.848,793.275 634.681,792.608 633,792.5C 622.426,791.156 611.926,789.49 601.5,787.5C 600.833,787.5 600.167,787.5 599.5,787.5C 594.573,785.09 589.74,782.423 585,779.5C 584.439,780.022 583.772,780.355 583,780.5C 579.853,779.338 576.686,778.338 573.5,777.5C 562.044,773.277 551.711,767.277 542.5,759.5C 540.23,757.025 537.563,755.025 534.5,753.5C 533.415,751.413 531.749,750.08 529.5,749.5C 527.681,748.064 527.348,746.397 528.5,744.5C 529.251,745.376 529.751,746.376 530,747.5C 530.414,747.043 530.914,746.709 531.5,746.5C 535.793,749.494 540.126,751.494 544.5,752.5C 550.566,755.805 556.899,758.638 563.5,761C 616.66,778.85 667.326,773.684 715.5,745.5C 715.897,746.525 716.563,746.692 717.5,746C 720.557,743.277 723.89,740.944 727.5,739C 730.428,736.91 732.761,734.41 734.5,731.5C 734.842,730.662 735.508,730.328 736.5,730.5C 743.568,725.767 749.235,719.767 753.5,712.5C 755.833,712.167 757.167,710.833 757.5,708.5C 759.587,707.415 760.92,705.749 761.5,703.5C 766.341,698.646 770.007,692.98 772.5,686.5C 772.66,684.847 773.326,683.514 774.5,682.5C 775.906,682.027 776.573,681.027 776.5,679.5C 776.328,678.508 776.662,677.842 777.5,677.5C 781.99,669.709 785.324,661.376 787.5,652.5C 788.055,648.603 789.055,644.937 790.5,641.5C 792.735,635.134 794.235,628.467 795,621.5C 795.808,617.973 795.641,614.64 794.5,611.5C 794.5,604.167 794.5,596.833 794.5,589.5C 795.162,587.696 795.495,585.696 795.5,583.5C 794.546,574.612 793.213,565.779 791.5,557C 791.696,555.122 792.029,553.288 792.5,551.5C 797.195,546.474 801.861,541.474 806.5,536.5C 807.758,537.016 808.758,536.35 809.5,534.5C 810.026,532.77 811.026,531.436 812.5,530.5C 812.905,531.55 813.571,531.55 814.5,530.5C 816.278,528.736 817.611,526.736 818.5,524.5C 818.5,523.833 818.833,523.5 819.5,523.5C 819.435,523.938 819.601,524.272 820,524.5C 821.481,523.529 822.315,522.196 822.5,520.5C 824.124,517.572 826.457,516.905 829.5,518.5C 831.203,522.562 832.87,526.562 834.5,530.5 Z"/></g>
<g><path style="opacity:0.412" fill="#ffa780" d="M 822.5,520.5 C 822.315,522.196 821.481,523.529 820,524.5C 819.601,524.272 819.435,523.938 819.5,523.5C 820.167,522.167 821.167,521.167 822.5,520.5 Z"/></g>
<g><path style="opacity:0.275" fill="#828083" d="M 368.5,511.5 C 365.315,522.582 361.981,533.582 358.5,544.5C 360.152,532.866 363.486,521.866 368.5,511.5 Z"/></g>
<g><path style="opacity:0.463" fill="#878487" d="M 451.5,517.5 C 446.901,530.563 443.234,543.896 440.5,557.5C 439.596,556.791 439.263,555.791 439.5,554.5C 441.526,541.424 445.526,529.091 451.5,517.5 Z"/></g>
<g><path style="opacity:0.392" fill="#ff785c" d="M 818.5,524.5 C 817.611,526.736 816.278,528.736 814.5,530.5C 813.571,531.55 812.905,531.55 812.5,530.5C 814.139,528.194 816.139,526.194 818.5,524.5 Z"/></g>
<g><path style="opacity:0.153" fill="#ff897c" d="M 701.5,528.5 C 701.573,530.027 700.906,531.027 699.5,531.5C 699.427,529.973 700.094,528.973 701.5,528.5 Z"/></g>
<g><path style="opacity:0.294" fill="#ff6b6c" d="M 676.5,533.5 C 675.833,534.833 674.833,535.833 673.5,536.5C 673.5,534.5 674.5,533.5 676.5,533.5 Z"/></g>
<g><path style="opacity:0.039" fill="#ff8c66" d="M 776.5,521.5 C 779.155,526.139 781.821,530.806 784.5,535.5C 787.186,533.144 789.853,530.811 792.5,528.5C 792.5,528.833 792.5,529.167 792.5,529.5C 790.188,532.479 787.521,535.146 784.5,537.5C 780.801,532.768 778.134,527.435 776.5,521.5 Z"/></g>
<g><path style="opacity:0.306" fill="#ff9573" d="M 809.5,534.5 C 808.758,536.35 807.758,537.016 806.5,536.5C 806.973,535.094 807.973,534.427 809.5,534.5 Z"/></g>
<g><path style="opacity:0.682" fill="#ff6959" d="M 673.5,536.5 C 672.243,539.427 670.243,541.761 667.5,543.5C 667.5,543.167 667.5,542.833 667.5,542.5C 669.167,540.167 671.167,538.167 673.5,536.5 Z"/></g>
<g><path style="opacity:0.043" fill="#fc8f7f" d="M 698.5,533.5 C 697.805,536.915 696.138,539.582 693.5,541.5C 694.68,538.46 696.347,535.794 698.5,533.5 Z"/></g>
<g><path style="opacity:0.478" fill="#ff9b89" d="M 667.5,542.5 C 667.5,542.833 667.5,543.167 667.5,543.5C 666.089,545.914 664.089,547.581 661.5,548.5C 663.167,546.167 665.167,544.167 667.5,542.5 Z"/></g>
<g><path style="opacity:0.263" fill="#ff7f6d" d="M 691.5,545.5 C 691.573,547.027 690.906,548.027 689.5,548.5C 689.427,546.973 690.094,545.973 691.5,545.5 Z"/></g>
<g><path style="opacity:1" fill="#0a090b" d="M 358.5,550.5 C 367.69,552.719 377.024,554.386 386.5,555.5C 386.67,556.822 386.337,557.989 385.5,559C 383.167,559.667 380.833,559.667 378.5,559C 371.963,556.909 365.297,555.242 358.5,554C 357.316,552.855 357.316,551.688 358.5,550.5 Z"/></g>
<g><path style="opacity:0.733" fill="#ff5249" d="M 658.5,552.5 C 656.57,556.1 653.903,559.1 650.5,561.5C 650.5,561.167 650.5,560.833 650.5,560.5C 652.833,557.5 655.5,554.833 658.5,552.5 Z"/></g>
<g><path style="opacity:0.078" fill="#ff8473" d="M 688.5,550.5 C 686.957,555.024 684.623,559.024 681.5,562.5C 683.043,557.976 685.377,553.976 688.5,550.5 Z"/></g>
<g><path style="opacity:0.643" fill="#ff8877" d="M 650.5,560.5 C 650.5,560.833 650.5,561.167 650.5,561.5C 648.5,564.167 646.167,566.5 643.5,568.5C 643.167,568.5 642.833,568.5 642.5,568.5C 644.833,565.5 647.5,562.833 650.5,560.5 Z"/></g>
<g><path style="opacity:0.604" fill="#ff825c" d="M 792.5,551.5 C 792.029,553.288 791.696,555.122 791.5,557C 793.213,565.779 794.546,574.612 795.5,583.5C 795.495,585.696 795.162,587.696 794.5,589.5C 793.594,578.396 791.927,567.396 789.5,556.5C 789.286,554.058 790.286,552.392 792.5,551.5 Z"/></g>
<g><path style="opacity:0.035" fill="#7d797c" d="M 356.5,555.5 C 354.997,566.958 353.663,578.292 352.5,589.5C 352.334,583.824 352.501,578.157 353,572.5C 353.324,566.523 354.491,560.856 356.5,555.5 Z"/></g>
<g><path style="opacity:0.004" fill="#ff9980" d="M 676.5,571.5 C 676.008,573.819 675.008,575.819 673.5,577.5C 673.461,574.911 674.461,572.911 676.5,571.5 Z"/></g>
<g><path style="opacity:0.714" fill="#ff4b46" d="M 642.5,568.5 C 642.833,568.5 643.167,568.5 643.5,568.5C 640.414,573.092 636.747,577.258 632.5,581C 626.258,582.825 619.924,584.325 613.5,585.5C 612.893,585.376 612.56,585.043 612.5,584.5C 614.277,583.4 616.277,582.566 618.5,582C 622.918,581.792 627.251,581.126 631.5,580C 635.398,576.271 639.065,572.438 642.5,568.5 Z"/></g>
<g><path style="opacity:0.18" fill="#ff8c7b" d="M 673.5,577.5 C 672.32,580.54 670.653,583.206 668.5,585.5C 669.195,582.085 670.862,579.418 673.5,577.5 Z"/></g>
<g><path style="opacity:0.322" fill="#ff564e" d="M 611.5,584.5 C 611.631,585.376 611.298,586.043 610.5,586.5C 606.87,588.157 603.536,590.157 600.5,592.5C 603.242,588.623 606.909,585.956 611.5,584.5 Z"/></g>
<g><path style="opacity:0.576" fill="#726f73" d="M 439.5,554.5 C 439.263,555.791 439.596,556.791 440.5,557.5C 437.805,569.318 436.139,581.318 435.5,593.5C 434.112,580.264 435.445,567.264 439.5,554.5 Z"/></g>
<g><path style="opacity:0.008" fill="#ff927d" d="M 667.5,587.5 C 667.573,589.027 666.906,590.027 665.5,590.5C 665.427,588.973 666.094,587.973 667.5,587.5 Z"/></g>
<g><path style="opacity:0.486" fill="#ff7c67" d="M 597.5,596.5 C 597.262,598.404 596.262,599.738 594.5,600.5C 594.738,598.596 595.738,597.262 597.5,596.5 Z"/></g>
<g><path style="opacity:0.8" fill="#f9786a" d="M 594.5,600.5 C 594.88,602.698 594.213,604.365 592.5,605.5C 592.402,603.447 593.069,601.78 594.5,600.5 Z"/></g>
<g><path style="opacity:1" fill="#2c2a2f" d="M 353.5,605.5 C 363.319,604.506 373.319,604.173 383.5,604.5C 383.737,605.791 383.404,606.791 382.5,607.5C 373.225,605.527 363.558,604.86 353.5,605.5 Z"/></g>
<g><path style="opacity:0.999" fill="#09090a" d="M 352.5,605.5 C 352.833,605.5 353.167,605.5 353.5,605.5C 363.558,604.86 373.225,605.527 382.5,607.5C 380.108,608.713 377.441,609.379 374.5,609.5C 367.086,609.114 359.752,608.448 352.5,607.5C 352.5,606.833 352.5,606.167 352.5,605.5 Z"/></g>
<g><path style="opacity:0.443" fill="#ff7c6e" d="M 662.5,595.5 C 661.367,598.271 660.367,601.104 659.5,604C 660.159,606.462 660.493,608.962 660.5,611.5C 657.332,605.677 657.999,600.344 662.5,595.5 Z"/></g>
<g><path style="opacity:0.553" fill="#fb726d" d="M 592.5,605.5 C 592.946,608.01 592.28,610.01 590.5,611.5C 590.875,609.302 591.542,607.302 592.5,605.5 Z"/></g>
<g><path style="opacity:0.724" fill="#716e73" d="M 435.5,608.5 C 436.214,621.73 438.214,634.73 441.5,647.5C 440.069,647.119 439.236,646.119 439,644.5C 435.592,632.535 434.425,620.535 435.5,608.5 Z"/></g>
<g><path style="opacity:0.357" fill="#ff6555" d="M 590.5,612.5 C 591.283,616.693 591.949,621.027 592.5,625.5C 591.833,625.5 591.167,625.5 590.5,625.5C 590.5,621.167 590.5,616.833 590.5,612.5 Z"/></g>
<g><path style="opacity:0.125" fill="#fe7168" d="M 660.5,611.5 C 661.658,617.037 661.492,622.704 660,628.5C 659.128,632.181 657.294,635.181 654.5,637.5C 658.655,629.401 660.655,620.734 660.5,611.5 Z"/></g>
<g><path style="opacity:1" fill="#d7736c" d="M 353.5,622.5 C 354.422,626.995 355.089,631.662 355.5,636.5C 354.732,635.737 354.232,634.737 354,633.5C 353.501,629.848 353.335,626.182 353.5,622.5 Z"/></g>
<g><path style="opacity:0.549" fill="#fe815c" d="M 847.5,611.5 C 847.067,616.833 846.567,622.166 846,627.5C 845.796,630.797 844.963,633.797 843.5,636.5C 843.921,628.795 844.755,621.129 846,613.5C 846.278,612.584 846.778,611.918 847.5,611.5 Z"/></g>
<g><path style="opacity:0.051" fill="#f99480" d="M 590.5,625.5 C 591.167,625.5 591.833,625.5 592.5,625.5C 592.963,628.221 593.629,630.888 594.5,633.5C 592.612,631.206 591.278,628.539 590.5,625.5 Z"/></g>
<g><path style="opacity:0.251" fill="#fe8965" d="M 794.5,611.5 C 795.641,614.64 795.808,617.973 795,621.5C 794.235,628.467 792.735,635.134 790.5,641.5C 792.268,631.559 793.601,621.559 794.5,611.5 Z"/></g>
<g><path style="opacity:0.298" fill="#ff8574" d="M 594.5,633.5 C 596.326,635.147 597.66,637.147 598.5,639.5C 595.956,638.292 594.622,636.292 594.5,633.5 Z"/></g>
<g><path style="opacity:0.016" fill="#ff705e" d="M 598.5,639.5 C 600.549,640.882 602.215,642.548 603.5,644.5C 600.811,643.811 599.144,642.144 598.5,639.5 Z"/></g>
<g><path style="opacity:0.796" fill="#ff543f" d="M 603.5,644.5 C 607.893,647.027 612.559,649.027 617.5,650.5C 618.298,650.957 618.631,651.624 618.5,652.5C 612.591,651.325 607.591,648.658 603.5,644.5 Z"/></g>
<g><path style="opacity:0.012" fill="#fe6253" d="M 643.5,647.5 C 640.765,650.201 637.431,651.868 633.5,652.5C 636.164,649.834 639.497,648.168 643.5,647.5 Z"/></g>
<g><path style="opacity:0.404" fill="#fe6c52" d="M 620.5,652.5 C 624.5,651.167 628.5,651.167 632.5,652.5C 628.565,653.199 624.565,653.199 620.5,652.5 Z"/></g>
<g><path style="opacity:0.529" fill="#7b787c" d="M 355.5,641.5 C 358.633,647.678 360.299,654.345 360.5,661.5C 358.455,655.937 356.788,650.27 355.5,644.5C 355.5,643.5 355.5,642.5 355.5,641.5 Z"/></g>
<g><path style="opacity:0.263" fill="#fe9679" d="M 787.5,652.5 C 785.324,661.376 781.99,669.709 777.5,677.5C 780.598,669.629 783.431,661.629 786,653.5C 786.383,652.944 786.883,652.611 787.5,652.5 Z"/></g>
<g><path style="opacity:1" fill="#09090b" d="M 361.5,662.5 C 361.5,662.167 361.5,661.833 361.5,661.5C 361.5,660.5 361.5,659.5 361.5,658.5C 370.833,658.5 380.167,658.5 389.5,658.5C 389.67,659.822 389.337,660.989 388.5,662C 379.506,662.5 370.506,662.666 361.5,662.5 Z"/></g>
<g><path style="opacity:0.114" fill="#807f83" d="M 441.5,648.5 C 443.913,660.162 447.247,671.496 451.5,682.5C 449.578,679.021 447.744,675.354 446,671.5C 444.011,664.543 442.177,657.543 440.5,650.5C 440.543,649.584 440.876,648.917 441.5,648.5 Z"/></g>
<g><path style="opacity:0.125" fill="#898689" d="M 360.5,661.5 C 360.833,661.5 361.167,661.5 361.5,661.5C 361.5,661.833 361.5,662.167 361.5,662.5C 363.525,670.603 365.858,678.603 368.5,686.5C 364.255,678.763 361.589,670.429 360.5,661.5 Z"/></g>
<g><path style="opacity:0.251" fill="#ffaa84" d="M 776.5,679.5 C 776.573,681.027 775.906,682.027 774.5,682.5C 774.427,680.973 775.094,679.973 776.5,679.5 Z"/></g>
<g><path style="opacity:0.184" fill="#ff9874" d="M 772.5,686.5 C 770.007,692.98 766.341,698.646 761.5,703.5C 764.78,697.559 768.447,691.892 772.5,686.5 Z"/></g>
<g><path style="opacity:0.051" fill="#888689" d="M 451.5,683.5 C 454.939,688.715 457.605,694.382 459.5,700.5C 456.067,695.296 453.4,689.629 451.5,683.5 Z"/></g>
<g><path style="opacity:0.388" fill="#7e7c81" d="M 368.5,687.5 C 371.661,692.489 374.328,697.822 376.5,703.5C 375.833,703.5 375.167,703.5 374.5,703.5C 372.5,698.167 370.5,692.833 368.5,687.5 Z"/></g>
<g><path style="opacity:0.631" fill="#ff8a62" d="M 761.5,703.5 C 760.92,705.749 759.587,707.415 757.5,708.5C 758.08,706.251 759.413,704.585 761.5,703.5 Z"/></g>
<g><path style="opacity:0.373" fill="#b4a8a8" d="M 374.5,703.5 C 375.167,703.5 375.833,703.5 376.5,703.5C 377.833,706.833 379.167,710.167 380.5,713.5C 378.012,710.534 376.012,707.201 374.5,703.5 Z"/></g>
<g><path style="opacity:0.694" fill="#ff9874" d="M 757.5,708.5 C 757.167,710.833 755.833,712.167 753.5,712.5C 754.5,710.833 755.833,709.5 757.5,708.5 Z"/></g>
<g><path style="opacity:0.957" fill="#fb7468" d="M 311.5,710.5 C 326.167,710.5 340.833,710.5 355.5,710.5C 355.5,725.167 355.5,739.833 355.5,754.5C 340.833,754.5 326.167,754.5 311.5,754.5C 311.5,739.833 311.5,725.167 311.5,710.5 Z"/></g>
<g><path style="opacity:0.243" fill="#c0a69d" d="M 464.5,709.5 C 465.906,709.973 466.573,710.973 466.5,712.5C 465.094,712.027 464.427,711.027 464.5,709.5 Z"/></g>
<g><path style="opacity:1" fill="#0c0b0d" d="M 385.5,719.5 C 384.833,719.5 384.5,719.167 384.5,718.5C 384.196,717.85 383.863,717.183 383.5,716.5C 391.983,714.07 400.65,712.404 409.5,711.5C 409.703,713.39 409.037,714.89 407.5,716C 399.994,716.381 392.661,717.548 385.5,719.5 Z"/></g>
<g><path style="opacity:0.686" fill="#ff7d57" d="M 753.5,712.5 C 749.235,719.767 743.568,725.767 736.5,730.5C 742.117,724.547 747.784,718.547 753.5,712.5 Z"/></g>
<g><path style="opacity:0.447" fill="#918a8b" d="M 382.5,718.5 C 383.167,718.5 383.833,718.5 384.5,718.5C 384.5,719.167 384.833,719.5 385.5,719.5C 386.909,723.316 388.576,726.983 390.5,730.5C 387.35,726.881 384.684,722.881 382.5,718.5 Z"/></g>
<g><path style="opacity:1" fill="#787275" d="M 472.5,721.5 C 474.745,724.32 476.745,727.32 478.5,730.5C 477.206,729.71 476.039,728.71 475,727.5C 474.667,727.833 474.333,728.167 474,728.5C 473.338,726.187 472.838,723.854 472.5,721.5 Z"/></g>
<g><path style="opacity:0.29" fill="#ff734a" d="M 734.5,731.5 C 732.761,734.41 730.428,736.91 727.5,739C 723.89,740.944 720.557,743.277 717.5,746C 716.563,746.692 715.897,746.525 715.5,745.5C 722.011,741.077 728.345,736.411 734.5,731.5 Z"/></g>
<g><path style="opacity:0.529" fill="#aa948d" d="M 481.5,734.5 C 482.833,735.167 483.833,736.167 484.5,737.5C 482.5,737.5 481.5,736.5 481.5,734.5 Z"/></g>
<g><path style="opacity:0.11" fill="#ffbb95" d="M 515.5,734.5 C 515.5,735.5 515.5,736.5 515.5,737.5C 513.443,735.957 513.443,734.957 515.5,734.5 Z"/></g>
<g><path style="opacity:0.251" fill="#9a999c" d="M 484.5,737.5 C 485.906,737.973 486.573,738.973 486.5,740.5C 485.094,740.027 484.427,739.027 484.5,737.5 Z"/></g>
<g><path style="opacity:0.131" fill="#958d90" d="M 396.5,739.5 C 398.633,741.091 400.299,743.091 401.5,745.5C 401.167,745.5 400.833,745.5 400.5,745.5C 398.674,743.853 397.34,741.853 396.5,739.5 Z"/></g>
<g><path style="opacity:0.518" fill="#ae9994" d="M 486.5,740.5 C 488.587,741.585 489.92,743.251 490.5,745.5C 488.413,744.415 487.08,742.749 486.5,740.5 Z"/></g>
<g><path style="opacity:1" fill="#ff744f" d="M 515.5,734.5 C 525.189,740.534 534.856,746.534 544.5,752.5C 540.126,751.494 535.793,749.494 531.5,746.5C 530.914,746.709 530.414,747.043 530,747.5C 529.751,746.376 529.251,745.376 528.5,744.5C 527.348,746.397 527.681,748.064 529.5,749.5C 524.08,746.445 519.413,742.445 515.5,737.5C 515.5,736.5 515.5,735.5 515.5,734.5 Z"/></g>
<g><path style="opacity:0.96" fill="#fa7469" d="M 400.5,745.5 C 400.833,745.5 401.167,745.5 401.5,745.5C 408.127,754.396 415.461,762.729 423.5,770.5C 423.5,771.167 423.833,771.5 424.5,771.5C 430.804,777.634 437.304,783.634 444,789.5C 444.464,790.094 444.631,790.761 444.5,791.5C 444.5,793.833 444.5,796.167 444.5,798.5C 429.833,798.5 415.167,798.5 400.5,798.5C 400.5,780.833 400.5,763.167 400.5,745.5 Z"/></g>
<g><path style="opacity:0.604" fill="#ff7c57" d="M 529.5,749.5 C 531.749,750.08 533.415,751.413 534.5,753.5C 532.205,752.864 530.539,751.531 529.5,749.5 Z"/></g>
<g><path style="opacity:0.58" fill="#ff7b53" d="M 534.5,753.5 C 537.563,755.025 540.23,757.025 542.5,759.5C 539.039,758.449 536.373,756.449 534.5,753.5 Z"/></g>
<g><path style="opacity:1" fill="#090809" d="M 424.5,771.5 C 423.833,771.5 423.5,771.167 423.5,770.5C 423.953,769.542 424.619,768.708 425.5,768C 431.833,764.833 438.167,761.667 444.5,758.5C 446.49,759.463 446.823,760.796 445.5,762.5C 438.595,765.788 431.595,768.788 424.5,771.5 Z"/></g>
<g><path style="opacity:0.302" fill="#ff805a" d="M 759.5,762.5 C 754.171,767.169 748.171,770.836 741.5,773.5C 741.369,772.624 741.702,771.957 742.5,771.5C 748.379,768.729 754.045,765.729 759.5,762.5 Z"/></g>
<g><path style="opacity:0.753" fill="#706f74" d="M 789.5,769.5 C 789.631,768.761 789.464,768.094 789,767.5C 786.371,769.888 783.538,771.888 780.5,773.5C 783.426,770.683 786.426,767.849 789.5,765C 790.448,764.517 791.448,764.351 792.5,764.5C 792.727,766.933 791.727,768.599 789.5,769.5 Z"/></g>
<g><path style="opacity:0.459" fill="#6e6d71" d="M 779.5,773.5 C 779.586,774.496 779.252,775.329 778.5,776C 773.235,779.464 767.902,782.63 762.5,785.5C 767.954,781.267 773.62,777.267 779.5,773.5 Z"/></g>
<g><path style="opacity:0.19" fill="#7c7376" d="M 789.5,769.5 C 786.833,774.167 783.167,777.833 778.5,780.5C 781.833,776.5 785.5,772.833 789.5,769.5 Z"/></g>
<g><path style="opacity:0.196" fill="#ff865f" d="M 734.5,776.5 C 733.089,778.539 731.089,779.539 728.5,779.5C 730.03,777.654 732.03,776.654 734.5,776.5 Z"/></g>
<g><path style="opacity:0.969" fill="#ff7042" d="M 573.5,777.5 C 576.686,778.338 579.853,779.338 583,780.5C 583.772,780.355 584.439,780.022 585,779.5C 589.74,782.423 594.573,785.09 599.5,787.5C 590.271,785.371 581.604,782.038 573.5,777.5 Z"/></g>
<g><path style="opacity:0.141" fill="#ff7e56" d="M 726.5,780.5 C 720.473,783.401 714.139,785.734 707.5,787.5C 708.058,786.21 709.058,785.377 710.5,785C 716.03,782.86 721.363,781.36 726.5,780.5 Z"/></g>
<g><path style="opacity:0.573" fill="#ff774d" d="M 601.5,787.5 C 611.926,789.49 622.426,791.156 633,792.5C 634.681,792.608 635.848,793.275 636.5,794.5C 624.373,793.761 612.706,791.428 601.5,787.5 Z"/></g>
<g><path style="opacity:0.706" fill="#ff764e" d="M 705.5,787.5 C 701.857,788.669 698.19,790.002 694.5,791.5C 694.414,790.504 694.748,789.671 695.5,789C 698.793,788.174 702.126,787.674 705.5,787.5 Z"/></g>
<g><path style="opacity:0.467" fill="#6d696e" d="M 762.5,785.5 C 755.967,790.114 748.967,794.281 741.5,798C 737.67,799.998 733.67,801.498 729.5,802.5C 729.833,801.833 730.167,801.167 730.5,800.5C 741.408,796.047 752.074,791.047 762.5,785.5 Z"/></g>
<g><path style="opacity:0.482" fill="#fe805a" d="M 637.5,794.5 C 639.978,793.836 642.645,793.503 645.5,793.5C 648.59,793.522 651.257,794.188 653.5,795.5C 648.146,795.431 642.813,795.098 637.5,794.5 Z"/></g>
<g><path style="opacity:0.024" fill="#ff7d55" d="M 692.5,791.5 C 685.565,792.886 678.565,793.886 671.5,794.5C 676.954,792.672 682.787,791.339 689,790.5C 690.385,790.514 691.551,790.848 692.5,791.5 Z"/></g>
<g><path style="opacity:0.016" fill="#ff8965" d="M 669.5,794.5 C 665.202,795.2 660.869,795.533 656.5,795.5C 658.223,794.2 660.39,793.533 663,793.5C 665.361,793.504 667.527,793.837 669.5,794.5 Z"/></g>
<g><path style="opacity:0.016" fill="#7a797d" d="M 767.5,789.5 C 765.082,793.245 761.749,795.912 757.5,797.5C 760.52,794.484 763.854,791.817 767.5,789.5 Z"/></g>
<g><path style="opacity:1" fill="#0b0a0c" d="M 476.5,810.5 C 475.508,810.672 474.842,810.338 474.5,809.5C 475.031,807.376 476.365,805.876 478.5,805C 484.761,801.953 490.927,798.787 497,795.5C 498.301,796.098 499.135,797.098 499.5,798.5C 491.68,802.243 484.014,806.243 476.5,810.5 Z"/></g>
<g><path style="opacity:0.977" fill="#fb7468" d="M 799.5,799.5 C 828.833,799.5 858.167,799.5 887.5,799.5C 887.5,813.5 887.5,827.5 887.5,841.5C 902.167,841.5 916.833,841.5 931.5,841.5C 931.5,871.5 931.5,901.5 931.5,931.5C 887.5,931.5 843.5,931.5 799.5,931.5C 799.5,887.5 799.5,843.5 799.5,799.5 Z M 843.5,843.5 C 843.5,858.167 843.5,872.833 843.5,887.5C 858.167,887.5 872.833,887.5 887.5,887.5C 887.5,872.833 887.5,858.167 887.5,843.5C 872.833,843.5 858.167,843.5 843.5,843.5 Z"/></g>
<g><path style="opacity:0.533" fill="#6a686d" d="M 553.5,793.5 C 565.753,799.141 578.419,803.808 591.5,807.5C 591.083,808.124 590.416,808.457 589.5,808.5C 583.802,806.767 578.136,804.934 572.5,803C 565.548,800.857 559.214,797.691 553.5,793.5 Z"/></g>
<g><path style="opacity:0.506" fill="#c06f6a" d="M 730.5,800.5 C 730.167,801.167 729.833,801.833 729.5,802.5C 728.609,803.11 727.609,803.443 726.5,803.5C 725.5,803.5 724.5,803.5 723.5,803.5C 725.426,801.707 727.759,800.707 730.5,800.5 Z"/></g>
<g><path style="opacity:0.553" fill="#6c676b" d="M 723.5,803.5 C 724.5,803.5 725.5,803.5 726.5,803.5C 715.93,807.898 704.93,811.231 693.5,813.5C 692.893,813.376 692.56,813.043 692.5,812.5C 702.916,810.143 713.25,807.143 723.5,803.5 Z"/></g>
<g><path style="opacity:0.698" fill="#6f6d72" d="M 459.5,801.5 C 464.341,804.421 469.341,807.088 474.5,809.5C 474.842,810.338 475.508,810.672 476.5,810.5C 476.833,811.167 477.167,811.833 477.5,812.5C 472.91,810.872 468.577,808.705 464.5,806C 462.382,804.951 460.716,803.451 459.5,801.5 Z"/></g>
<g><path style="opacity:0.875" fill="#68676c" d="M 611.5,812.5 C 618.5,813.574 625.5,814.574 632.5,815.5C 625.888,816.677 619.221,816.177 612.5,814C 611.944,813.617 611.611,813.117 611.5,812.5 Z"/></g>
<g><path style="opacity:0.682" fill="#6c6b70" d="M 690.5,812.5 C 690.082,813.222 689.416,813.722 688.5,814C 671.952,817.716 655.619,818.216 639.5,815.5C 656.573,816.26 673.573,815.26 690.5,812.5 Z"/></g>
<g><path style="opacity:0.11" fill="#6f6e71" d="M 499.5,823.5 C 495.884,822.686 492.551,821.352 489.5,819.5C 489.56,818.957 489.893,818.624 490.5,818.5C 493.724,819.941 496.724,821.608 499.5,823.5 Z"/></g>
<g><path style="opacity:1" fill="#09090a" d="M 536.5,835.5 C 536.5,834.833 536.167,834.5 535.5,834.5C 541.095,829.685 546.762,824.851 552.5,820C 554.464,819.376 556.131,819.876 557.5,821.5C 550.98,827.044 543.98,831.711 536.5,835.5 Z"/></g>
<g><path style="opacity:0.537" fill="#6d696d" d="M 504.5,825.5 C 514.646,829.104 524.979,832.104 535.5,834.5C 536.167,834.5 536.5,834.833 536.5,835.5C 535.5,835.5 534.5,835.5 533.5,835.5C 523.116,833.707 513.449,830.374 504.5,825.5 Z"/></g>
<g><path style="opacity:1" fill="#c26d67" d="M 709.5,824.5 C 707.383,826.655 704.716,827.655 701.5,827.5C 703.936,826.129 706.603,825.129 709.5,824.5 Z"/></g>
<g><path style="opacity:1" fill="#0b0a0c" d="M 616.5,830.5 C 618.8,830.522 619.967,831.522 620,833.5C 617.128,836.037 614.628,838.87 612.5,842C 611.056,842.781 609.723,842.614 608.5,841.5C 611.191,837.815 613.858,834.148 616.5,830.5 Z"/></g>
<g><path style="opacity:1" fill="#b26c69" d="M 541.5,836.5 C 544.152,836.41 546.485,837.076 548.5,838.5C 545.848,838.59 543.515,837.924 541.5,836.5 Z"/></g>
<g><path style="opacity:1" fill="#b66a66" d="M 674.5,836.5 C 670.8,838.245 666.8,839.245 662.5,839.5C 666.2,837.755 670.2,836.755 674.5,836.5 Z"/></g>
<g><path style="opacity:1" fill="#c46e69" d="M 654.5,840.5 C 651.155,842.217 647.489,842.884 643.5,842.5C 646.974,841.475 650.64,840.808 654.5,840.5 Z"/></g>
<g><path style="opacity:0.429" fill="#6f6e72" d="M 578.5,843.5 C 589.528,842.326 600.528,842.659 611.5,844.5C 600.482,844.619 589.482,844.286 578.5,843.5 Z"/></g>
<g><path style="opacity:0.974" fill="#fb7468" d="M 89.5,887.5 C 163.5,887.5 237.5,887.5 311.5,887.5C 311.5,961.5 311.5,1035.5 311.5,1109.5C 237.833,1109.67 164.166,1109.5 90.5,1109C 89.5018,1035.24 89.1685,961.404 89.5,887.5 Z M 134.5,931.5 C 133.339,975.762 133.173,1020.1 134,1064.5C 178.096,1065.66 222.262,1065.83 266.5,1065C 267.663,1020.9 267.83,976.738 267,932.5C 222.906,931.503 178.739,931.17 134.5,931.5 Z"/></g>
</svg>
