<?xml version="1.0" encoding="UTF-8"?>
<!DOCTYPE svg PUBLIC "-//W3C//DTD SVG 1.1//EN" "http://www.w3.org/Graphics/SVG/1.1/DTD/svg11.dtd">
<svg xmlns="http://www.w3.org/2000/svg" version="1.1" width="512px" height="164px" style="shape-rendering:geometricPrecision; text-rendering:geometricPrecision; image-rendering:optimizeQuality; fill-rule:evenodd; clip-rule:evenodd" xmlns:xlink="http://www.w3.org/1999/xlink">
<g><path style="opacity:1" fill="#003448" d="M 511.5,26.5 C 511.5,29.5 511.5,32.5 511.5,35.5C 505.698,39.5722 499.698,43.4056 493.5,47C 491.833,48.6667 490.167,50.3333 488.5,52C 489.448,52.4828 490.448,52.6495 491.5,52.5C 491.5,53.5 491.5,54.5 491.5,55.5C 493.806,55.9926 496.139,56.3259 498.5,56.5C 492.721,81.3418 483.887,105.008 472,127.5C 466.335,134.916 458.835,138.416 449.5,138C 462.482,110.621 456.815,87.9544 432.5,70C 409.029,57.8949 387.863,61.0615 369,79.5C 353.72,99.3128 352.554,119.979 365.5,141.5C 289.165,141.957 212.831,141.29 136.5,139.5C 150.052,112.545 145.052,89.7117 121.5,71C 94.315,56.5587 71.1484,61.392 52,85.5C 40.9157,103.24 40.749,121.073 51.5,139C 35.8333,139.667 20.1667,139.667 4.5,139C 2.4156,138.303 0.748938,137.136 -0.5,135.5C -0.5,133.167 -0.5,130.833 -0.5,128.5C 0.782988,126.132 2.44965,123.965 4.5,122C 3.15366,120.331 1.487,119.164 -0.5,118.5C -0.5,106.167 -0.5,93.8333 -0.5,81.5C 12.1198,68.0143 27.4532,58.8476 45.5,54C 47.0412,52.4207 48.2078,50.5873 49,48.5C 50.3189,46.5125 52.1523,45.3459 54.5,45C 61.1667,44.3333 67.8333,44.3333 74.5,45C 89.6338,46.615 104.8,47.7816 120,48.5C 134.915,48.3221 149.415,45.8221 163.5,41C 188.81,27.5104 215.144,16.5104 242.5,8C 260.934,3.73899 279.601,2.40566 298.5,4C 351.98,9.07842 403.48,21.9118 453,42.5C 456.412,39.8773 459.912,37.3773 463.5,35C 477.439,30.4646 491.439,26.1313 505.5,22C 506.944,21.2195 508.277,21.3861 509.5,22.5C 509.994,24.0255 510.661,25.3588 511.5,26.5 Z"/></g>
<g><path style="opacity:1" fill="#003448" d="M 91.5,69.5 C 119.121,71.1243 134.454,85.6243 137.5,113C 133.432,142.737 116.432,156.737 86.5,155C 60.3414,147.815 48.8414,130.648 52,103.5C 57.9492,83.7136 71.1159,72.3802 91.5,69.5 Z"/></g>
<g><path style="opacity:1" fill="#003448" d="M 404.5,69.5 C 429.83,70.6696 444.663,83.6696 449,108.5C 449.781,133.059 438.281,148.559 414.5,155C 387.428,157.559 370.594,145.726 364,119.5C 362.702,90.6471 376.202,73.9805 404.5,69.5 Z"/></g>
</svg>
