<?xml version="1.0" encoding="UTF-8"?>
<!DOCTYPE svg PUBLIC "-//W3C//DTD SVG 1.1//EN" "http://www.w3.org/Graphics/SVG/1.1/DTD/svg11.dtd">
<svg xmlns="http://www.w3.org/2000/svg" version="1.1" width="137px" height="128px" style="shape-rendering:geometricPrecision; text-rendering:geometricPrecision; image-rendering:optimizeQuality; fill-rule:evenodd; clip-rule:evenodd" xmlns:xlink="http://www.w3.org/1999/xlink">
<g><path style="opacity:0.998" fill="#f9f9f9" d="M 80.5,20.5 C 80.427,22.0269 81.0937,23.0269 82.5,23.5C 86.0031,28.5016 89.0031,33.835 91.5,39.5C 91.427,41.0269 92.0937,42.0269 93.5,42.5C 94.6737,43.5137 95.3404,44.847 95.5,46.5C 95.427,48.0269 96.0937,49.0269 97.5,49.5C 98.6737,50.5137 99.3404,51.847 99.5,53.5C 99.427,55.0269 100.094,56.0269 101.5,56.5C 103.083,58.6626 104.416,60.9959 105.5,63.5C 105.427,65.0269 106.094,66.0269 107.5,66.5C 109.008,68.1815 110.008,70.1815 110.5,72.5C 110.427,74.0269 111.094,75.0269 112.5,75.5C 113.338,75.8417 113.672,76.5084 113.5,77.5C 113.427,79.0269 114.094,80.0269 115.5,80.5C 116.674,81.5137 117.34,82.847 117.5,84.5C 117.427,86.0269 118.094,87.0269 119.5,87.5C 121.008,89.1815 122.008,91.1815 122.5,93.5C 122.427,95.0269 123.094,96.0269 124.5,96.5C 129.289,101.38 130.456,107.047 128,113.5C 126.352,114.717 124.519,115.55 122.5,116C 86.127,116.486 49.9603,116.652 14,116.5C 13.0053,115.934 12.172,115.267 11.5,114.5C 11.0269,113.094 10.0269,112.427 8.5,112.5C 7.59603,111.791 7.26269,110.791 7.5,109.5C 8.14952,107.565 8.48285,105.565 8.5,103.5C 10.4027,98.9317 12.736,94.5984 15.5,90.5C 16.9063,90.0269 17.573,89.0269 17.5,87.5C 17.3284,86.5084 17.6618,85.8417 18.5,85.5C 19.9063,85.0269 20.573,84.0269 20.5,82.5C 20.6596,80.847 21.3263,79.5137 22.5,78.5C 23.9063,78.0269 24.573,77.0269 24.5,75.5C 24.3284,74.5084 24.6618,73.8417 25.5,73.5C 26.9063,73.0269 27.573,72.0269 27.5,70.5C 27.6596,68.847 28.3263,67.5137 29.5,66.5C 30.9063,66.0269 31.573,65.0269 31.5,63.5C 31.6596,61.847 32.3263,60.5137 33.5,59.5C 34.9063,59.0269 35.573,58.0269 35.5,56.5C 35.6596,54.847 36.3263,53.5137 37.5,52.5C 38.9063,52.0269 39.573,51.0269 39.5,49.5C 39.3284,48.5084 39.6618,47.8417 40.5,47.5C 41.9063,47.0269 42.573,46.0269 42.5,44.5C 42.6596,42.847 43.3263,41.5137 44.5,40.5C 45.9063,40.0269 46.573,39.0269 46.5,37.5C 46.3284,36.5084 46.6618,35.8417 47.5,35.5C 48.9063,35.0269 49.573,34.0269 49.5,32.5C 49.9925,30.1815 50.9925,28.1815 52.5,26.5C 53.9063,26.0269 54.573,25.0269 54.5,23.5C 54.3284,22.5084 54.6618,21.8417 55.5,21.5C 56.9063,21.0269 57.573,20.0269 57.5,18.5C 57.3284,17.5084 57.6618,16.8417 58.5,16.5C 59.9063,16.0269 60.573,15.0269 60.5,13.5C 62.5,12.1667 64.1667,10.5 65.5,8.5C 67.2884,7.37753 69.2884,7.21086 71.5,8C 75.8677,11.2555 78.8677,15.4221 80.5,20.5 Z"/></g>
<g><path style="opacity:0.455" fill="#575757" d="M 65.5,8.5 C 64.1667,10.5 62.5,12.1667 60.5,13.5C 61.1667,10.8333 62.8333,9.16667 65.5,8.5 Z"/></g>
<g><path style="opacity:0.176" fill="#585858" d="M 60.5,13.5 C 60.573,15.0269 59.9063,16.0269 58.5,16.5C 58.427,14.9731 59.0937,13.9731 60.5,13.5 Z"/></g>
<g><path style="opacity:0.149" fill="#595959" d="M 57.5,18.5 C 57.573,20.0269 56.9063,21.0269 55.5,21.5C 55.427,19.9731 56.0937,18.9731 57.5,18.5 Z"/></g>
<g><path style="opacity:0.114" fill="#525252" d="M 80.5,20.5 C 81.9063,20.9731 82.573,21.9731 82.5,23.5C 81.0937,23.0269 80.427,22.0269 80.5,20.5 Z"/></g>
<g><path style="opacity:0.118" fill="#464646" d="M 54.5,23.5 C 54.573,25.0269 53.9063,26.0269 52.5,26.5C 52.427,24.9731 53.0937,23.9731 54.5,23.5 Z"/></g>
<g><path style="opacity:0.173" fill="#6c6c6c" d="M 49.5,32.5 C 49.573,34.0269 48.9063,35.0269 47.5,35.5C 47.427,33.9731 48.0937,32.9731 49.5,32.5 Z"/></g>
<g><path style="opacity:0.153" fill="#565656" d="M 46.5,37.5 C 46.573,39.0269 45.9063,40.0269 44.5,40.5C 44.427,38.9731 45.0937,37.9731 46.5,37.5 Z"/></g>
<g><path style="opacity:0.102" fill="#4e4e4e" d="M 91.5,39.5 C 92.9063,39.9731 93.573,40.9731 93.5,42.5C 92.0937,42.0269 91.427,41.0269 91.5,39.5 Z"/></g>
<g><path style="opacity:0.18" fill="#595959" d="M 42.5,44.5 C 42.573,46.0269 41.9063,47.0269 40.5,47.5C 40.427,45.9731 41.0937,44.9731 42.5,44.5 Z"/></g>
<g><path style="opacity:0.141" fill="#555555" d="M 95.5,46.5 C 96.9063,46.9731 97.573,47.9731 97.5,49.5C 96.0937,49.0269 95.427,48.0269 95.5,46.5 Z"/></g>
<g><path style="opacity:0.157" fill="#494949" d="M 39.5,49.5 C 39.573,51.0269 38.9063,52.0269 37.5,52.5C 37.427,50.9731 38.0937,49.9731 39.5,49.5 Z"/></g>
<g><path style="opacity:0.157" fill="#5c5c5c" d="M 99.5,53.5 C 100.906,53.9731 101.573,54.9731 101.5,56.5C 100.094,56.0269 99.427,55.0269 99.5,53.5 Z"/></g>
<g><path style="opacity:0.173" fill="#4f4f4f" d="M 35.5,56.5 C 35.573,58.0269 34.9063,59.0269 33.5,59.5C 33.427,57.9731 34.0937,56.9731 35.5,56.5 Z"/></g>
<g><path style="opacity:0.224" fill="#545454" d="M 31.5,63.5 C 31.573,65.0269 30.9063,66.0269 29.5,66.5C 29.427,64.9731 30.0937,63.9731 31.5,63.5 Z"/></g>
<g><path style="opacity:0.059" fill="#333333" d="M 105.5,63.5 C 106.906,63.9731 107.573,64.9731 107.5,66.5C 106.094,66.0269 105.427,65.0269 105.5,63.5 Z"/></g>
<g><path style="opacity:0.239" fill="#5c5c5c" d="M 27.5,70.5 C 27.573,72.0269 26.9063,73.0269 25.5,73.5C 25.427,71.9731 26.0937,70.9731 27.5,70.5 Z"/></g>
<g><path style="opacity:0.165" fill="#555555" d="M 110.5,72.5 C 111.906,72.9731 112.573,73.9731 112.5,75.5C 111.094,75.0269 110.427,74.0269 110.5,72.5 Z"/></g>
<g><path style="opacity:0.188" fill="#484848" d="M 24.5,75.5 C 24.573,77.0269 23.9063,78.0269 22.5,78.5C 22.427,76.9731 23.0937,75.9731 24.5,75.5 Z"/></g>
<g><path style="opacity:0.133" fill="#464646" d="M 113.5,77.5 C 114.906,77.9731 115.573,78.9731 115.5,80.5C 114.094,80.0269 113.427,79.0269 113.5,77.5 Z"/></g>
<g><path style="opacity:0.224" fill="#535353" d="M 20.5,82.5 C 20.573,84.0269 19.9063,85.0269 18.5,85.5C 18.427,83.9731 19.0937,82.9731 20.5,82.5 Z"/></g>
<g><path style="opacity:0.157" fill="#494949" d="M 117.5,84.5 C 118.906,84.9731 119.573,85.9731 119.5,87.5C 118.094,87.0269 117.427,86.0269 117.5,84.5 Z"/></g>
<g><path style="opacity:0.165" fill="#3e3e3e" d="M 17.5,87.5 C 17.573,89.0269 16.9063,90.0269 15.5,90.5C 15.427,88.9731 16.0937,87.9731 17.5,87.5 Z"/></g>
<g><path style="opacity:0.286" fill="#6a6a6a" d="M 122.5,93.5 C 123.906,93.9731 124.573,94.9731 124.5,96.5C 123.094,96.0269 122.427,95.0269 122.5,93.5 Z"/></g>
<g><path style="opacity:0.388" fill="#4f4f4f" d="M 8.5,103.5 C 8.48285,105.565 8.14952,107.565 7.5,109.5C 6.51552,107.402 6.84885,105.402 8.5,103.5 Z"/></g>
<g><path style="opacity:0.694" fill="#878787" d="M 8.5,112.5 C 10.0269,112.427 11.0269,113.094 11.5,114.5C 9.97306,114.573 8.97306,113.906 8.5,112.5 Z"/></g>
</svg>
