<?xml version="1.0" encoding="UTF-8"?>
<!DOCTYPE svg PUBLIC "-//W3C//DTD SVG 1.1//EN" "http://www.w3.org/Graphics/SVG/1.1/DTD/svg11.dtd">
<svg xmlns="http://www.w3.org/2000/svg" version="1.1" width="75px" height="75px" style="shape-rendering:geometricPrecision; text-rendering:geometricPrecision; image-rendering:optimizeQuality; fill-rule:evenodd; clip-rule:evenodd" xmlns:xlink="http://www.w3.org/1999/xlink">
<g><path style="opacity:1" fill="#fe7568" d="M 11.5,-0.5 C 13.1667,-0.5 14.8333,-0.5 16.5,-0.5C 20.345,5.18762 23.6783,11.1876 26.5,17.5C 23.7012,21.3816 20.7012,25.0483 17.5,28.5C 22.4313,41.1943 31.098,50.361 43.5,56C 44.8333,56.6667 46.1667,56.6667 47.5,56C 49.7205,52.2777 52.7205,49.4444 56.5,47.5C 62.8124,50.3217 68.8124,53.655 74.5,57.5C 74.5,59.1667 74.5,60.8333 74.5,62.5C 73.4897,65.3301 71.8231,67.8301 69.5,70C 66.4081,71.5459 63.4081,73.0459 60.5,74.5C 57.5,74.5 54.5,74.5 51.5,74.5C 31.8647,68.3875 16.698,56.3875 6,38.5C 3.50734,32.8404 1.34067,27.1737 -0.5,21.5C -0.5,18.8333 -0.5,16.1667 -0.5,13.5C 0.95406,10.5919 2.45406,7.59188 4,4.5C 6.16988,2.17694 8.66988,0.51027 11.5,-0.5 Z"/></g>
</svg>
