<?xml version="1.0" encoding="UTF-8"?>
<!DOCTYPE svg PUBLIC "-//W3C//DTD SVG 1.1//EN" "http://www.w3.org/Graphics/SVG/1.1/DTD/svg11.dtd">
<svg xmlns="http://www.w3.org/2000/svg" version="1.1" width="512px" height="512px" style="shape-rendering:geometricPrecision; text-rendering:geometricPrecision; image-rendering:optimizeQuality; fill-rule:evenodd; clip-rule:evenodd" xmlns:xlink="http://www.w3.org/1999/xlink">
<g><path style="opacity:0.937" fill="#fe7568" d="M 387.5,-0.5 C 393.167,-0.5 398.833,-0.5 404.5,-0.5C 428.161,6.88931 439.494,23.2226 438.5,48.5C 460.922,60.6836 468.422,79.0169 461,103.5C 456,113.833 448.333,121.5 438,126.5C 437.667,129.833 437.333,133.167 437,136.5C 432.333,141.833 427.667,141.833 423,136.5C 421.435,130.203 420.435,123.87 420,117.5C 420.374,116.584 420.874,115.75 421.5,115C 436.779,111.888 445.779,102.722 448.5,87.5C 446.831,72.3319 438.497,63.4986 423.5,61C 420.982,59.1297 419.648,56.6297 419.5,53.5C 425.465,31.7454 417.465,18.7454 395.5,14.5C 382.973,15.863 374.806,22.5297 371,34.5C 377.521,68.2963 363.688,85.7963 329.5,87C 337.168,88.5568 344.834,90.2235 352.5,92C 362.326,96.4923 368.492,103.992 371,114.5C 370.905,123.163 370.905,131.83 371,140.5C 377.902,157.365 390.069,162.865 407.5,157C 410.508,154.246 414.008,152.413 418,151.5C 424.901,152.75 427.234,156.75 425,163.5C 412.435,175.081 397.935,178.248 381.5,173C 367.205,167.043 358.372,156.543 355,141.5C 354.71,133.154 354.71,124.821 355,116.5C 353.421,110.59 349.588,107.09 343.5,106C 326.167,103.333 308.833,100.667 291.5,98C 283.121,93.9089 281.288,87.7422 286,79.5C 287.419,78.5399 288.919,77.7065 290.5,77C 307.165,74.3335 323.832,71.6669 340.5,69C 347.566,68.5531 352.399,65.0531 355,58.5C 354.688,49.8466 354.688,41.1799 355,32.5C 359.348,14.9858 370.182,3.98583 387.5,-0.5 Z"/></g>
<g><path style="opacity:0.944" fill="#fe7568" d="M 294.5,511.5 C 217.833,511.5 141.167,511.5 64.5,511.5C 46.758,502.44 42.5914,489.106 52,471.5C 55.9431,467.11 60.7764,464.11 66.5,462.5C 67.5,386.17 67.8333,309.836 67.5,233.5C 54.8732,230.534 47.8732,222.534 46.5,209.5C 47.6342,196.693 54.3009,188.527 66.5,185C 72.8594,184.831 79.1928,184.331 85.5,183.5C 95.1659,160.333 110.999,142.666 133,130.5C 133.333,100.5 133.667,70.5 134,40.5C 136.679,33.1552 141.845,28.6552 149.5,27C 170.884,26.0453 192.218,26.3787 213.5,28C 218.935,29.7694 222.768,33.2694 225,38.5C 226.356,46.0952 226.856,53.7618 226.5,61.5C 256.727,57.5715 268.227,70.5715 261,100.5C 259.167,106.333 255.333,110.167 249.5,112C 241.841,112.5 234.174,112.666 226.5,112.5C 226.17,118.868 226.504,125.202 227.5,131.5C 243.707,139.873 256.54,151.873 266,167.5C 269.068,172.964 271.568,178.631 273.5,184.5C 281.253,184.104 288.92,184.604 296.5,186C 311.935,194.218 316.101,206.385 309,222.5C 304.829,228.843 298.995,232.51 291.5,233.5C 291.5,309.833 291.5,386.167 291.5,462.5C 307,466.482 313.833,476.482 312,492.5C 309.072,501.592 303.238,507.925 294.5,511.5 Z M 151.5,42.5 C 170.503,42.3334 189.503,42.5001 208.5,43C 209,43.5 209.5,44 210,44.5C 210.5,72.1647 210.667,99.8313 210.5,127.5C 190.167,127.5 169.833,127.5 149.5,127.5C 149.333,99.8313 149.5,72.1647 150,44.5C 150.717,43.9558 151.217,43.2891 151.5,42.5 Z M 226.5,77.5 C 232.509,77.3338 238.509,77.5005 244.5,78C 245.809,84.1112 245.809,90.2779 244.5,96.5C 238.561,97.4571 232.561,97.7904 226.5,97.5C 226.5,90.8333 226.5,84.1667 226.5,77.5 Z M 142.5,143.5 C 167.169,143.333 191.836,143.5 216.5,144C 234.306,152.639 247.639,165.806 256.5,183.5C 205.504,184.5 154.504,184.833 103.5,184.5C 105.609,178.285 108.776,172.619 113,167.5C 121.345,157.445 131.178,149.445 142.5,143.5 Z M 68.5,200.5 C 142.501,200.333 216.501,200.5 290.5,201C 296.368,204.04 297.868,208.54 295,214.5C 293.681,216.487 291.848,217.654 289.5,218C 216.167,218.667 142.833,218.667 69.5,218C 60.5294,212.589 60.1961,206.756 68.5,200.5 Z M 83.5,234.5 C 91.5,234.5 99.5,234.5 107.5,234.5C 107.333,248.837 107.5,263.171 108,277.5C 112.138,284.527 117.138,285.194 123,279.5C 123.5,264.504 123.667,249.504 123.5,234.5C 152.833,234.5 182.167,234.5 211.5,234.5C 211.667,252.836 211.5,271.17 211,289.5C 205.333,296.167 199.667,296.167 194,289.5C 193.812,281.782 193.146,274.115 192,266.5C 184.264,249.554 171.764,244.721 154.5,252C 148.725,256.114 144.892,261.614 143,268.5C 142.667,290.167 142.333,311.833 142,333.5C 137.222,341.647 131.555,342.314 125,335.5C 123.733,324.238 123.066,312.905 123,301.5C 117.138,295.806 112.138,296.473 108,303.5C 107.333,313.5 107.333,323.5 108,333.5C 110.624,347.621 119.124,355.288 133.5,356.5C 144.842,355.655 152.675,349.989 157,339.5C 158.291,316.883 158.958,294.217 159,271.5C 160.863,265.98 164.696,263.814 170.5,265C 172.939,265.774 174.773,267.274 176,269.5C 177.225,276.755 177.892,284.089 178,291.5C 184.68,308.739 196.847,314.239 214.5,308C 220.975,304.198 225.142,298.698 227,291.5C 227.5,272.503 227.667,253.503 227.5,234.5C 243.5,234.5 259.5,234.5 275.5,234.5C 275.5,310.5 275.5,386.5 275.5,462.5C 211.5,462.5 147.5,462.5 83.5,462.5C 83.5,386.5 83.5,310.5 83.5,234.5 Z M 68.5,478.5 C 142.834,478.333 217.167,478.5 291.5,479C 296.967,483.004 297.8,487.838 294,493.5C 292.055,494.863 289.888,495.697 287.5,496C 215.5,496.667 143.5,496.667 71.5,496C 63.3942,493.693 61.2276,488.86 65,481.5C 66.1451,480.364 67.3117,479.364 68.5,478.5 Z"/></g>
</svg>
