<?xml version="1.0" encoding="UTF-8"?>
<!DOCTYPE svg PUBLIC "-//W3C//DTD SVG 1.1//EN" "http://www.w3.org/Graphics/SVG/1.1/DTD/svg11.dtd">
<svg xmlns="http://www.w3.org/2000/svg" version="1.1" width="340px" height="373px" style="shape-rendering:geometricPrecision; text-rendering:geometricPrecision; image-rendering:optimizeQuality; fill-rule:evenodd; clip-rule:evenodd" xmlns:xlink="http://www.w3.org/1999/xlink">
<g><path style="opacity:1" fill="#2f2f2f" d="M 260.5,3.5 C 260.631,4.23891 260.464,4.90558 260,5.5C 244.117,4.75965 227.951,4.42632 211.5,4.5C 209.334,4.42956 209.001,5.09623 210.5,6.5C 208.922,7.2978 207.256,7.7978 205.5,8C 204.167,8.66667 204.167,9.33333 205.5,10C 204.167,10.3333 202.833,10.6667 201.5,11C 205.887,11.226 210.221,11.726 214.5,12.5C 215.321,15.4465 215.821,18.4465 216,21.5C 216.497,19.1902 216.663,16.8568 216.5,14.5C 219.5,13.8333 222.5,13.1667 225.5,12.5C 225.016,15.7977 226.016,18.4643 228.5,20.5C 230.876,18.3732 231.876,15.7065 231.5,12.5C 233.833,12.5 236.167,12.5 238.5,12.5C 239.167,20.5 239.833,20.5 240.5,12.5C 245.316,12.5803 249.983,13.4137 254.5,15C 253.465,16.5069 253.632,18.0069 255,19.5C 255.707,17.9194 256.54,16.4194 257.5,15C 256.833,14.6667 256.167,14.3333 255.5,14C 258.432,11.8546 260.932,12.3546 263,15.5C 269.997,44.8268 286.663,66.8268 313,81.5C 314.824,80.2513 314.657,79.0847 312.5,78C 313.833,77 313.833,76 312.5,75C 313.094,74.5357 313.761,74.369 314.5,74.5C 318.85,76.2299 323.183,78.0632 327.5,80C 328.71,81.0391 329.71,82.2058 330.5,83.5C 330.427,85.0269 331.094,86.0269 332.5,86.5C 333.222,86.9175 333.722,87.5842 334,88.5C 334.667,134.5 334.667,180.5 334,226.5C 332.542,228.96 330.709,231.127 328.5,233C 306.253,234.157 283.919,234.657 261.5,234.5C 239.833,234.333 218.167,234.167 196.5,234C 191.649,233.826 186.982,233.326 182.5,232.5C 196.837,232.667 211.171,232.5 225.5,232C 215.833,231.667 206.167,231.333 196.5,231C 197.552,229.284 196.886,228.284 194.5,228C 196.059,227.02 197.726,226.187 199.5,225.5C 198.271,224.719 196.938,224.219 195.5,224C 202.743,222.704 210.076,221.871 217.5,221.5C 217.89,218.534 217.223,215.868 215.5,213.5C 217.627,211.124 220.293,210.124 223.5,210.5C 223.5,204.167 223.5,197.833 223.5,191.5C 222.5,191.5 221.5,191.5 220.5,191.5C 220.5,192.5 220.5,193.5 220.5,194.5C 219.5,194.5 218.5,194.5 217.5,194.5C 215.297,188.878 211.297,186.878 205.5,188.5C 205.662,190.527 205.495,192.527 205,194.5C 204.368,192.469 203.201,190.802 201.5,189.5C 200.152,179.507 198.819,169.84 197.5,160.5C 194.225,160.767 193.392,159.767 195,157.5C 195.333,157.833 195.667,158.167 196,158.5C 196.667,156.5 196.667,154.5 196,152.5C 194.914,154.998 193.247,156.998 191,158.5C 190.28,160.112 190.446,161.612 191.5,163C 189.485,163.424 187.651,164.258 186,165.5C 185.055,165.095 184.388,164.428 184,163.5C 183.148,158.998 183.648,154.665 185.5,150.5C 184.69,148.174 185.023,145.841 186.5,143.5C 185.178,141.443 185.511,139.61 187.5,138C 186.282,131.944 186.616,125.944 188.5,120C 188.252,118.284 187.585,116.784 186.5,115.5C 188.316,113.882 189.649,111.882 190.5,109.5C 191.572,112.442 193.239,114.942 195.5,117C 194.186,124.775 194.186,132.608 195.5,140.5C 197.711,139.807 198.045,138.641 196.5,137C 197.035,134.004 197.702,131.171 198.5,128.5C 198.144,136.238 198.644,143.905 200,151.5C 201.698,150.267 203.698,149.6 206,149.5C 209.873,150.564 213.373,150.564 216.5,149.5C 228.751,149.132 241.084,149.132 253.5,149.5C 253.021,154.925 250.188,158.591 245,160.5C 243.883,159.051 243.216,157.384 243,155.5C 242.667,158.167 242.333,160.833 242,163.5C 241.5,164 241,164.5 240.5,165C 241.894,165.956 242.561,167.289 242.5,169C 240.527,173.976 239.527,179.143 239.5,184.5C 237.5,184.5 235.5,184.5 233.5,184.5C 233.66,182.801 233.494,181.134 233,179.5C 232.282,178.549 231.449,178.383 230.5,179C 231.771,183.823 231.605,188.657 230,193.5C 229.667,183.167 229.333,172.833 229,162.5C 228.597,176.507 228.097,190.507 227.5,204.5C 228.5,204.5 229.5,204.5 230.5,204.5C 229.382,207.178 229.382,209.845 230.5,212.5C 230.224,214.33 229.557,215.997 228.5,217.5C 227.784,216.689 226.95,216.022 226,215.5C 223.776,217.726 221.276,219.559 218.5,221C 229.153,221.876 239.82,222.543 250.5,223C 251.416,223.374 252.25,223.874 253,224.5C 259.571,224.81 266.238,224.477 273,223.5C 277.158,224.073 281.324,224.573 285.5,225C 274.833,225.333 264.167,225.667 253.5,226C 261.079,226.184 268.579,226.684 276,227.5C 280.248,226.133 284.414,226.466 288.5,228.5C 290.217,227.332 290.884,225.665 290.5,223.5C 292.167,223.5 293.833,223.5 295.5,223.5C 302.896,223.242 310.229,223.242 317.5,223.5C 321.865,222.028 326.198,221.028 330.5,220.5C 331.442,220.608 332.275,220.941 333,221.5C 334.451,148.449 334.284,120.116 332.5,136.5C 331.67,125.674 331.17,114.674 331,103.5C 330.816,99.3496 329.982,95.3496 328.5,91.5C 329.428,90.2322 329.595,88.8989 329,87.5C 328.667,88.1667 328.333,88.8333 328,89.5C 325.47,86.9943 322.803,84.661 320,82.5C 319.167,83.3333 318.333,84.1667 317.5,85C 318.641,90.7504 318.807,96.5837 318,102.5C 317.667,101.833 317.333,101.167 317,100.5C 316.529,102.246 315.862,103.913 315,105.5C 314.667,100.5 314.333,95.5 314,90.5C 313.798,105.555 312.798,120.555 311,135.5C 309.374,135.854 307.541,135.854 305.5,135.5C 305.719,134.325 305.386,133.325 304.5,132.5C 303.916,139.609 302.749,146.609 301,153.5C 300.817,150.635 300.317,147.969 299.5,145.5C 299.756,143.541 300.256,142.207 301,141.5C 299.266,140.751 297.433,140.251 295.5,140C 299.051,138.239 300.051,135.572 298.5,132C 303.721,131.458 303.721,130.624 298.5,129.5C 299.309,119.547 299.809,109.547 300,99.5C 301.812,102.691 301.978,106.024 300.5,109.5C 301.664,113.335 302.664,113.168 303.5,109C 302.409,106.936 302.242,104.769 303,102.5C 303.333,103.167 303.667,103.833 304,104.5C 304.667,97.8333 304.667,91.1667 304,84.5C 302.561,82.7254 301.561,80.7254 301,78.5C 298.615,78.8801 295.949,79.2134 293,79.5C 287.609,80.1525 284.943,77.8192 285,72.5C 284.503,74.8098 284.337,77.1432 284.5,79.5C 276.16,79.3336 267.827,79.5003 259.5,80C 256.239,81.8614 252.906,83.5281 249.5,85C 238.821,85.5719 228.155,85.4053 217.5,84.5C 211.108,84.2487 204.775,84.582 198.5,85.5C 197.351,82.9592 197.351,80.4592 198.5,78C 197.422,77.3261 196.755,76.3261 196.5,75C 198.048,71.3346 198.715,67.5012 198.5,63.5C 197.5,63.5 196.5,63.5 195.5,63.5C 195.5,60.8333 195.5,58.1667 195.5,55.5C 196.833,55.5 198.167,55.5 199.5,55.5C 199.737,51.278 199.404,47.1114 198.5,43C 199.104,40.4762 199.771,37.9762 200.5,35.5C 199.249,34.3689 198.249,33.0356 197.5,31.5C 198.645,28.6114 199.978,25.9447 201.5,23.5C 203.271,24.0354 203.604,24.8687 202.5,26C 203.126,26.7504 203.626,27.5838 204,28.5C 204.269,25.6484 205.103,22.9818 206.5,20.5C 206.167,20.1667 205.833,19.8333 205.5,19.5C 204.158,21.0049 202.492,21.6715 200.5,21.5C 199.639,18.7034 199.305,16.0367 199.5,13.5C 196.737,12.7479 194.07,11.7479 191.5,10.5C 190.41,11.3914 190.41,12.3914 191.5,13.5C 190.478,14.354 189.645,15.354 189,16.5C 188.667,14.8333 188.333,13.1667 188,11.5C 187.827,17.0158 187.327,22.3491 186.5,27.5C 186.5,23.1667 186.5,18.8333 186.5,14.5C 186.95,9.20268 189.617,5.36935 194.5,3C 216.671,2.17047 238.671,2.33714 260.5,3.5 Z"/></g>
<g><path style="opacity:0.999" fill="#3b3b3b" d="M 147.5,7.5 C 146.188,7.82428 145.355,8.49095 145,9.5C 143.739,9.24092 142.739,8.57425 142,7.5C 136.884,8.14435 131.718,8.81102 126.5,9.5C 126.833,10.1667 127.167,10.8333 127.5,11.5C 114.179,12.3327 100.846,12.8327 87.5,13C 79.8239,15.3396 75.9906,20.5063 76,28.5C 75.0805,28.9302 74.2472,29.2635 73.5,29.5C 73.9867,30.4461 74.3201,31.4461 74.5,32.5C 73.6266,35.6977 71.9599,38.3643 69.5,40.5C 69.9867,41.4461 70.3201,42.4461 70.5,43.5C 63.2498,54.6243 54.5831,64.6243 44.5,73.5C 43.2798,74.7111 42.1131,74.7111 41,73.5C 40.7508,74.624 40.2508,75.624 39.5,76.5C 36.5212,77.841 33.8545,79.5076 31.5,81.5C 30.4168,81.5394 29.4168,81.8728 28.5,82.5C 27.3265,79.7211 25.4932,79.0545 23,80.5C 20.9045,79.2845 21.0712,78.4512 23.5,78C 22.9056,77.5357 22.2389,77.369 21.5,77.5C 49.0687,64.4041 65.5687,42.7374 71,12.5C 72.9904,8.5095 76.1571,6.0095 80.5,5C 102.172,4.64656 123.839,4.97989 145.5,6C 146.416,6.27842 147.082,6.77842 147.5,7.5 Z"/></g>
<g><path style="opacity:1" fill="#2d2d2d" d="M 147.5,7.5 C 150.822,8.65822 152.988,10.9916 154,14.5C 154.071,34.8781 154.904,55.2114 156.5,75.5C 156.172,77.3914 155.505,78.8914 154.5,80C 154.528,81.0698 154.861,81.9032 155.5,82.5C 156.687,86.5 157.521,90.5 158,94.5C 157.333,93.1667 156.667,93.1667 156,94.5C 155.167,96.5 154.333,98.5 153.5,100.5C 152.808,99.9747 152.308,99.3081 152,98.5C 151.667,112.5 151.333,126.5 151,140.5C 150.667,123.833 150.333,107.167 150,90.5C 149.306,93.4682 148.806,96.4682 148.5,99.5C 149.739,112.842 149.572,126.175 148,139.5C 147.501,135.179 147.334,130.846 147.5,126.5C 146.5,126.5 145.5,126.5 144.5,126.5C 145.012,131.023 145.679,135.523 146.5,140C 146.4,142.302 145.733,144.302 144.5,146C 145.261,148.179 144.928,150.345 143.5,152.5C 142.304,152.154 142.304,151.654 143.5,151C 141.866,150.506 140.199,150.34 138.5,150.5C 138.666,156.176 138.499,161.843 138,167.5C 137.667,164.167 137.333,160.833 137,157.5C 136.764,159.764 136.264,161.931 135.5,164C 136.654,164.914 136.487,165.747 135,166.5C 133.783,164.493 132.949,162.326 132.5,160C 134.235,157.74 134.902,154.74 134.5,151C 130.5,150.333 126.5,150.333 122.5,151C 125.817,151.498 129.15,151.665 132.5,151.5C 132.657,152.873 132.49,154.207 132,155.5C 131.692,154.692 131.192,154.025 130.5,153.5C 129.217,156.372 129.217,159.205 130.5,162C 130.167,162.167 129.833,162.333 129.5,162.5C 128.345,151.894 127.512,151.894 127,162.5C 126.174,154.527 125.674,154.527 125.5,162.5C 122.428,162.817 119.428,162.484 116.5,161.5C 113.976,157.574 111.476,157.574 109,161.5C 108.667,160.833 108.333,160.167 108,159.5C 107.667,162.167 107.333,164.833 107,167.5C 106.667,165.833 106.333,164.167 106,162.5C 105.751,163.624 105.251,164.624 104.5,165.5C 103.686,163.234 103.186,160.9 103,158.5C 102.667,163.833 102.333,169.167 102,174.5C 101.917,168.058 101.251,161.725 100,155.5C 100.368,162.126 100.035,168.793 99,175.5C 97.4941,177.174 95.6607,178.174 93.5,178.5C 93.5,182.833 93.5,187.167 93.5,191.5C 92.1667,191.5 90.8333,191.5 89.5,191.5C 89.5,187.167 89.5,182.833 89.5,178.5C 88.5,178.5 87.5,178.5 86.5,178.5C 85.9971,169.811 85.1638,161.144 84,152.5C 83.2449,161.827 82.5782,171.16 82,180.5C 81.6667,169.167 81.3333,157.833 81,146.5C 80.6667,157.167 80.3333,167.833 80,178.5C 79.7538,173.628 79.2538,168.795 78.5,164C 77.9019,162.699 76.9019,161.865 75.5,161.5C 74.5745,162.641 73.7412,162.641 73,161.5C 72.6664,163.847 72.833,166.181 73.5,168.5C 74.5,168.5 75.5,168.5 76.5,168.5C 76.5,170.833 76.5,173.167 76.5,175.5C 75.5,175.5 74.5,175.5 73.5,175.5C 73.5,176.5 73.5,177.5 73.5,178.5C 72.5,178.5 71.5,178.5 70.5,178.5C 71.3049,181.217 72.6382,183.717 74.5,186C 74.1667,186.5 73.8333,187 73.5,187.5C 70.2423,188.417 66.909,188.751 63.5,188.5C 63.4486,186.43 64.1153,184.597 65.5,183C 64.2927,181.7 63.6261,180.2 63.5,178.5C 62.5,178.5 61.5,178.5 60.5,178.5C 60.5,174.5 60.5,170.5 60.5,166.5C 58.5,166.5 56.5,166.5 54.5,166.5C 54.5,170.5 54.5,174.5 54.5,178.5C 53.1667,178.5 51.8333,178.5 50.5,178.5C 51.697,183.31 51.697,188.144 50.5,193C 50.5634,195.281 51.3968,197.114 53,198.5C 53.4955,200.473 53.6621,202.473 53.5,204.5C 52.1667,204.5 50.8333,204.5 49.5,204.5C 49.1991,189.804 49.5325,175.137 50.5,160.5C 49.2013,156.08 47.5346,151.913 45.5,148C 47.2331,146.811 48.8998,145.644 50.5,144.5C 61.1719,144.333 71.8385,144.5 82.5,145C 84.9258,146.145 87.2591,147.478 89.5,149C 97.8267,149.5 106.16,149.666 114.5,149.5C 116.144,149.286 117.644,149.62 119,150.5C 125.753,149.686 132.586,149.186 139.5,149C 139.957,148.586 140.291,148.086 140.5,147.5C 138.922,146.702 137.256,146.202 135.5,146C 136.872,145.598 138.205,145.098 139.5,144.5C 139.917,139.73 140.917,135.23 142.5,131C 140.693,129.764 138.693,129.43 136.5,130C 138.004,128.509 138.837,126.676 139,124.5C 139.333,125.833 139.667,127.167 140,128.5C 140.273,126.899 140.773,125.399 141.5,124C 141.043,123.586 140.709,123.086 140.5,122.5C 141.5,121.833 142.5,121.167 143.5,120.5C 142.019,119.52 140.685,118.353 139.5,117C 141.705,112.46 141.705,107.96 139.5,103.5C 140.04,102.252 140.707,101.085 141.5,100C 140.761,98.2354 140.761,96.2354 141.5,94C 139.671,92.8867 138.837,91.3867 139,89.5C 140,90.5 141,91.5 142,92.5C 143.406,90.6362 143.906,88.8029 143.5,87C 142.551,86.3828 141.718,86.5494 141,87.5C 140.667,84.8333 140.333,82.1667 140,79.5C 139.503,81.8098 139.337,84.1432 139.5,86.5C 137.123,86.2155 134.956,86.2155 133,86.5C 131.691,84.1088 130.691,84.1088 130,86.5C 121.148,86.1557 112.481,85.1557 104,83.5C 99.4816,85.407 94.6483,86.0736 89.5,85.5C 88.0139,83.3809 86.0139,81.8809 83.5,81C 70.1667,80.3333 56.8333,80.3333 43.5,81C 42.2341,81.3095 41.0674,81.8095 40,82.5C 39.9889,102.833 40.1556,123.167 40.5,143.5C 42.2161,143.629 43.8828,143.962 45.5,144.5C 44.2061,149.767 42.8728,149.767 41.5,144.5C 41.1667,144.667 40.8333,144.833 40.5,145C 41.0585,145.725 41.3918,146.558 41.5,147.5C 40.7714,152.47 40.2714,157.47 40,162.5C 39.6667,161.167 39.3333,159.833 39,158.5C 38.8092,148.453 38.3092,138.453 37.5,128.5C 40.0256,126.073 40.0256,123.573 37.5,121C 38.1138,117.23 37.9472,113.397 37,109.5C 36.814,116.414 36.314,123.247 35.5,130C 37.2785,132.135 37.9452,134.635 37.5,137.5C 36.5,137.5 35.5,137.5 34.5,137.5C 34.5,120.5 34.5,103.5 34.5,86.5C 31.1506,86.1269 30.1506,84.4602 31.5,81.5C 33.8545,79.5076 36.5212,77.841 39.5,76.5C 40.2508,75.624 40.7508,74.624 41,73.5C 42.1131,74.7111 43.2798,74.7111 44.5,73.5C 54.5831,64.6243 63.2498,54.6243 70.5,43.5C 70.3201,42.4461 69.9867,41.4461 69.5,40.5C 71.9599,38.3643 73.6266,35.6977 74.5,32.5C 74.3201,31.4461 73.9867,30.4461 73.5,29.5C 74.2472,29.2635 75.0805,28.9302 76,28.5C 75.9906,20.5063 79.8239,15.3396 87.5,13C 100.846,12.8327 114.179,12.3327 127.5,11.5C 127.167,10.8333 126.833,10.1667 126.5,9.5C 131.718,8.81102 136.884,8.14435 142,7.5C 142.739,8.57425 143.739,9.24092 145,9.5C 145.355,8.49095 146.188,7.82428 147.5,7.5 Z"/></g>
<g><path style="opacity:1" fill="#292929" d="M 198.5,85.5 C 198.238,86.9778 198.571,88.3112 199.5,89.5C 200.396,88.4937 201.062,88.4937 201.5,89.5C 200.787,91.7759 200.287,94.1093 200,96.5C 199.667,95.5 199.333,94.5 199,93.5C 198.5,105.162 198.333,116.829 198.5,128.5C 197.702,131.171 197.035,134.004 196.5,137C 198.045,138.641 197.711,139.807 195.5,140.5C 194.186,132.608 194.186,124.775 195.5,117C 193.239,114.942 191.572,112.442 190.5,109.5C 189.649,111.882 188.316,113.882 186.5,115.5C 187.585,116.784 188.252,118.284 188.5,120C 186.616,125.944 186.282,131.944 187.5,138C 185.511,139.61 185.178,141.443 186.5,143.5C 185.023,145.841 184.69,148.174 185.5,150.5C 183.648,154.665 183.148,158.998 184,163.5C 184.388,164.428 185.055,165.095 186,165.5C 187.651,164.258 189.485,163.424 191.5,163C 190.446,161.612 190.28,160.112 191,158.5C 193.247,156.998 194.914,154.998 196,152.5C 196.667,154.5 196.667,156.5 196,158.5C 195.667,158.167 195.333,157.833 195,157.5C 193.392,159.767 194.225,160.767 197.5,160.5C 198.819,169.84 200.152,179.507 201.5,189.5C 203.201,190.802 204.368,192.469 205,194.5C 205.495,192.527 205.662,190.527 205.5,188.5C 211.297,186.878 215.297,188.878 217.5,194.5C 218.5,194.5 219.5,194.5 220.5,194.5C 220.5,193.5 220.5,192.5 220.5,191.5C 221.5,191.5 222.5,191.5 223.5,191.5C 223.5,197.833 223.5,204.167 223.5,210.5C 220.293,210.124 217.627,211.124 215.5,213.5C 217.223,215.868 217.89,218.534 217.5,221.5C 210.076,221.871 202.743,222.704 195.5,224C 196.938,224.219 198.271,224.719 199.5,225.5C 197.726,226.187 196.059,227.02 194.5,228C 196.886,228.284 197.552,229.284 196.5,231C 206.167,231.333 215.833,231.667 225.5,232C 211.171,232.5 196.837,232.667 182.5,232.5C 177.483,230.982 174.316,227.648 173,222.5C 172.5,211.491 172.667,200.491 173.5,189.5C 175.093,159.682 175.759,129.682 175.5,99.5C 175.924,95.9882 176.924,92.6548 178.5,89.5C 183.29,87.6942 184.79,84.3608 183,79.5C 183.317,81.3008 183.984,81.6341 185,80.5C 185.333,79.1667 185.667,77.8333 186,76.5C 186.397,80.0922 185.897,83.5922 184.5,87C 184.667,87.5 184.833,88 185,88.5C 192.025,77.6831 194.525,65.8498 192.5,53C 193.057,45.6028 193.724,38.2695 194.5,31C 193.01,27.0123 192.01,22.8457 191.5,18.5C 190.668,27.8155 190.168,37.1489 190,46.5C 189.012,43.5755 188.346,40.5755 188,37.5C 188.013,45.3507 187.679,53.3507 187,61.5C 186.5,50.1716 186.333,38.8382 186.5,27.5C 187.327,22.3491 187.827,17.0158 188,11.5C 188.333,13.1667 188.667,14.8333 189,16.5C 189.645,15.354 190.478,14.354 191.5,13.5C 190.41,12.3914 190.41,11.3914 191.5,10.5C 194.07,11.7479 196.737,12.7479 199.5,13.5C 199.305,16.0367 199.639,18.7034 200.5,21.5C 202.492,21.6715 204.158,21.0049 205.5,19.5C 205.833,19.8333 206.167,20.1667 206.5,20.5C 205.103,22.9818 204.269,25.6484 204,28.5C 203.626,27.5838 203.126,26.7504 202.5,26C 203.604,24.8687 203.271,24.0354 201.5,23.5C 199.978,25.9447 198.645,28.6114 197.5,31.5C 198.249,33.0356 199.249,34.3689 200.5,35.5C 199.771,37.9762 199.104,40.4762 198.5,43C 199.404,47.1114 199.737,51.278 199.5,55.5C 198.167,55.5 196.833,55.5 195.5,55.5C 195.5,58.1667 195.5,60.8333 195.5,63.5C 196.5,63.5 197.5,63.5 198.5,63.5C 198.715,67.5012 198.048,71.3346 196.5,75C 196.755,76.3261 197.422,77.3261 198.5,78C 197.351,80.4592 197.351,82.9592 198.5,85.5 Z"/></g>
<g><path style="opacity:0.998" fill="#393939" d="M 260.5,3.5 C 264.536,4.02013 267.703,6.02013 270,9.5C 274.88,38.1755 289.713,59.8422 314.5,74.5C 313.761,74.369 313.094,74.5357 312.5,75C 313.833,76 313.833,77 312.5,78C 314.657,79.0847 314.824,80.2513 313,81.5C 286.663,66.8268 269.997,44.8268 263,15.5C 260.932,12.3546 258.432,11.8546 255.5,14C 256.167,14.3333 256.833,14.6667 257.5,15C 256.54,16.4194 255.707,17.9194 255,19.5C 253.632,18.0069 253.465,16.5069 254.5,15C 249.983,13.4137 245.316,12.5803 240.5,12.5C 239.833,20.5 239.167,20.5 238.5,12.5C 236.167,12.5 233.833,12.5 231.5,12.5C 231.876,15.7065 230.876,18.3732 228.5,20.5C 226.016,18.4643 225.016,15.7977 225.5,12.5C 222.5,13.1667 219.5,13.8333 216.5,14.5C 216.663,16.8568 216.497,19.1902 216,21.5C 215.821,18.4465 215.321,15.4465 214.5,12.5C 210.221,11.726 205.887,11.226 201.5,11C 202.833,10.6667 204.167,10.3333 205.5,10C 204.167,9.33333 204.167,8.66667 205.5,8C 207.256,7.7978 208.922,7.2978 210.5,6.5C 209.001,5.09623 209.334,4.42956 211.5,4.5C 227.951,4.42632 244.117,4.75965 260,5.5C 260.464,4.90558 260.631,4.23891 260.5,3.5 Z"/></g>
<g><path style="opacity:1" fill="#2a2a2a" d="M 143.5,14.5 C 145.954,16.0598 148.62,17.0598 151.5,17.5C 149.269,23.4667 148.936,29.6333 150.5,36C 150.333,36.8333 150.167,37.6667 150,38.5C 149.667,37.1667 149.333,35.8333 149,34.5C 147.292,40.3592 147.459,46.1925 149.5,52C 148.833,53.6667 148.167,55.3333 147.5,57C 148.246,59.0932 148.579,61.0932 148.5,63C 148.102,66.6605 146.102,68.4938 142.5,68.5C 142.64,66.8762 141.973,65.7096 140.5,65C 142.881,64.4048 144.881,63.9048 146.5,63.5C 144.87,60.7239 144.203,57.7239 144.5,54.5C 142.5,54.5 140.5,54.5 138.5,54.5C 138.5,52.1667 138.5,49.8333 138.5,47.5C 137.5,47.5 136.5,47.5 135.5,47.5C 135.5,43.1667 135.5,38.8333 135.5,34.5C 133.5,34.5 131.5,34.5 129.5,34.5C 129.666,38.5138 129.499,42.5138 129,46.5C 126.563,40.7646 125.229,34.7646 125,28.5C 123.414,34.0582 122.414,39.7248 122,45.5C 121.667,45.8333 121.333,46.1667 121,46.5C 120.719,43.9032 120.552,41.5699 120.5,39.5C 119.52,42.0865 119.187,44.7531 119.5,47.5C 120.5,47.5 121.5,47.5 122.5,47.5C 122.666,56.1731 122.5,64.8397 122,73.5C 120.355,42.9159 119.355,42.9159 119,73.5C 118.911,65.9055 118.078,58.4055 116.5,51C 117.107,47.8571 117.441,44.6905 117.5,41.5C 116.5,41.5 115.5,41.5 114.5,41.5C 114.5,37.1667 114.5,32.8333 114.5,28.5C 106.167,28.5 97.8333,28.5 89.5,28.5C 88.6193,24.4246 88.4527,20.4246 89,16.5C 94.089,14.758 95.589,16.4247 93.5,21.5C 94.5,21.5 95.5,21.5 96.5,21.5C 96.5792,20.0695 96.2458,18.7362 95.5,17.5C 96.3279,16.5853 97.3279,15.9186 98.5,15.5C 99.5,16.8333 100.5,16.8333 101.5,15.5C 102.466,17.396 102.799,19.396 102.5,21.5C 103.833,21.5 105.167,21.5 106.5,21.5C 106.5,19.8333 106.5,18.1667 106.5,16.5C 107.5,16.5 108.5,16.5 109.5,16.5C 109.5,18.1667 109.5,19.8333 109.5,21.5C 110.5,21.5 111.5,21.5 112.5,21.5C 112.141,19.2341 112.808,17.4007 114.5,16C 117.167,15.3333 119.833,15.3333 122.5,16C 123.667,16.5 124.5,17.3333 125,18.5C 125.5,17.3333 126.333,16.5 127.5,16C 133.016,15.8267 138.349,15.3267 143.5,14.5 Z"/></g>
<g><path style="opacity:1" fill="#3e3e3e" d="M 186.5,14.5 C 186.5,18.8333 186.5,23.1667 186.5,27.5C 186.333,38.8382 186.5,50.1716 187,61.5C 187.679,53.3507 188.013,45.3507 188,37.5C 188.346,40.5755 189.012,43.5755 190,46.5C 190.168,37.1489 190.668,27.8155 191.5,18.5C 192.01,22.8457 193.01,27.0123 194.5,31C 193.724,38.2695 193.057,45.6028 192.5,53C 194.525,65.8498 192.025,77.6831 185,88.5C 184.833,88 184.667,87.5 184.5,87C 185.897,83.5922 186.397,80.0922 186,76.5C 185.667,77.8333 185.333,79.1667 185,80.5C 183.984,81.6341 183.317,81.3008 183,79.5C 184.79,84.3608 183.29,87.6942 178.5,89.5C 181.76,80.7943 183.926,71.7943 185,62.5C 185.169,46.3281 185.669,30.3281 186.5,14.5 Z"/></g>
<g><path style="opacity:1" fill="#353535" d="M 299.5,145.5 C 298.518,144.859 297.518,144.193 296.5,143.5C 292.62,143.749 288.62,143.749 284.5,143.5C 285.263,142.732 286.263,142.232 287.5,142C 277.87,140.589 268.203,140.256 258.5,141C 256.167,142.667 253.833,144.333 251.5,146C 239.698,146.461 239.698,145.794 251.5,144C 253.274,141.56 255.608,139.894 258.5,139C 265.5,138.667 272.5,138.333 279.5,138C 277.475,136.806 277.141,135.306 278.5,133.5C 274.878,132.675 271.211,132.175 267.5,132C 264.932,130.603 265.099,129.436 268,128.5C 271.756,128.951 275.589,128.951 279.5,128.5C 279.504,126.158 280.337,124.158 282,122.5C 282.49,123.793 282.657,125.127 282.5,126.5C 287.372,129.803 289.205,128.47 288,122.5C 286.989,121.663 285.822,121.33 284.5,121.5C 284.724,119.213 285.391,117.047 286.5,115C 286.355,114.228 286.022,113.561 285.5,113C 289.833,112.667 294.167,112.333 298.5,112C 293.447,111.783 288.447,111.283 283.5,110.5C 282.554,110.987 281.554,111.32 280.5,111.5C 276.348,111.259 272.515,110.259 269,108.5C 267.449,111.176 266.449,111.176 266,108.5C 276.758,107.503 287.591,106.836 298.5,106.5C 298.657,105.127 298.49,103.793 298,102.5C 294.606,103.456 291.106,103.789 287.5,103.5C 287.5,102.5 287.5,101.5 287.5,100.5C 281.291,99.0389 274.958,98.2056 268.5,98C 275.137,97.3036 281.637,96.8036 288,96.5C 288.667,94.5 288.667,92.5 288,90.5C 287.586,90.9574 287.086,91.2907 286.5,91.5C 280.469,90.7627 274.469,89.7627 268.5,88.5C 269.025,87.8076 269.692,87.3076 270.5,87C 276.196,86.8299 281.862,86.3299 287.5,85.5C 283.429,84.8627 279.429,84.0294 275.5,83C 279.037,82.855 282.371,82.0216 285.5,80.5C 285.376,79.8933 285.043,79.56 284.5,79.5C 284.337,77.1432 284.503,74.8098 285,72.5C 284.943,77.8192 287.609,80.1525 293,79.5C 295.949,79.2134 298.615,78.8801 301,78.5C 301.561,80.7254 302.561,82.7254 304,84.5C 304.667,91.1667 304.667,97.8333 304,104.5C 303.667,103.833 303.333,103.167 303,102.5C 302.242,104.769 302.409,106.936 303.5,109C 302.664,113.168 301.664,113.335 300.5,109.5C 301.978,106.024 301.812,102.691 300,99.5C 299.809,109.547 299.309,119.547 298.5,129.5C 303.721,130.624 303.721,131.458 298.5,132C 300.051,135.572 299.051,138.239 295.5,140C 297.433,140.251 299.266,140.751 301,141.5C 300.256,142.207 299.756,143.541 299.5,145.5 Z"/></g>
<g><path style="opacity:1" fill="#474747" d="M 156.5,75.5 C 157.997,80.459 159.664,85.459 161.5,90.5C 160.034,89.653 159.2,88.3197 159,86.5C 158.667,86.8333 158.333,87.1667 158,87.5C 157.667,85.1667 157.333,82.8333 157,80.5C 156.283,81.0442 155.783,81.7109 155.5,82.5C 154.861,81.9032 154.528,81.0698 154.5,80C 155.505,78.8914 156.172,77.3914 156.5,75.5 Z"/></g>
<g><path style="opacity:1" fill="#363636" d="M 114.5,149.5 C 114.585,148.005 113.919,147.005 112.5,146.5C 111.061,147.063 109.561,147.397 108,147.5C 100.77,147.019 93.6035,146.186 86.5,145C 85.039,141.85 82.539,140.35 79,140.5C 75.6547,141.136 72.3214,141.469 69,141.5C 60.2016,140.708 51.3683,140.208 42.5,140C 41.5494,139.282 41.3828,138.449 42,137.5C 43.6477,139.028 45.6477,139.695 48,139.5C 52.1174,138.618 56.2841,138.618 60.5,139.5C 60.5,137.5 60.5,135.5 60.5,133.5C 57.4816,133.665 54.4816,133.498 51.5,133C 60.2273,132.877 68.8939,132.21 77.5,131C 71.8333,130.667 66.1667,130.333 60.5,130C 63.5252,129.639 66.5252,129.139 69.5,128.5C 85.9751,129.294 102.642,129.294 119.5,128.5C 119.5,126.833 119.5,125.167 119.5,123.5C 120.5,123.5 121.5,123.5 122.5,123.5C 122.5,125.167 122.5,126.833 122.5,128.5C 123.833,128.5 125.167,128.5 126.5,128.5C 126.083,125.921 126.75,123.754 128.5,122C 121.144,121.831 113.811,121.331 106.5,120.5C 106.808,119.692 107.308,119.025 108,118.5C 109.698,119.733 111.698,120.4 114,120.5C 121.128,120.247 120.961,119.747 113.5,119C 115.436,118.187 117.436,117.687 119.5,117.5C 119.48,115.857 120.147,114.524 121.5,113.5C 121.291,112.914 120.957,112.414 120.5,112C 103.396,111.54 86.3957,111.206 69.5,111C 73.8518,110.581 74.1851,109.914 70.5,109C 86.7799,110.321 103.113,110.654 119.5,110C 116.167,109.667 112.833,109.333 109.5,109C 114.833,108.667 120.167,108.333 125.5,108C 127.957,106.846 127.957,105.512 125.5,104C 117.5,103.333 117.5,102.667 125.5,102C 118.754,101.879 112.087,101.212 105.5,100C 112.755,98.775 120.089,98.1083 127.5,98C 125.541,96.3158 125.541,94.3158 127.5,92C 121.5,91.3333 115.5,90.6667 109.5,90C 119.18,89.5286 128.847,88.8619 138.5,88C 122.013,87.0735 105.68,86.2401 89.5,85.5C 94.6483,86.0736 99.4816,85.407 104,83.5C 112.481,85.1557 121.148,86.1557 130,86.5C 130.691,84.1088 131.691,84.1088 133,86.5C 134.956,86.2155 137.123,86.2155 139.5,86.5C 139.337,84.1432 139.503,81.8098 140,79.5C 140.333,82.1667 140.667,84.8333 141,87.5C 141.718,86.5494 142.551,86.3828 143.5,87C 143.906,88.8029 143.406,90.6362 142,92.5C 141,91.5 140,90.5 139,89.5C 138.837,91.3867 139.671,92.8867 141.5,94C 140.761,96.2354 140.761,98.2354 141.5,100C 140.707,101.085 140.04,102.252 139.5,103.5C 141.705,107.96 141.705,112.46 139.5,117C 140.685,118.353 142.019,119.52 143.5,120.5C 142.5,121.167 141.5,121.833 140.5,122.5C 140.709,123.086 141.043,123.586 141.5,124C 140.773,125.399 140.273,126.899 140,128.5C 139.667,127.167 139.333,125.833 139,124.5C 138.837,126.676 138.004,128.509 136.5,130C 138.693,129.43 140.693,129.764 142.5,131C 140.917,135.23 139.917,139.73 139.5,144.5C 138.205,145.098 136.872,145.598 135.5,146C 137.256,146.202 138.922,146.702 140.5,147.5C 140.291,148.086 139.957,148.586 139.5,149C 132.586,149.186 125.753,149.686 119,150.5C 117.644,149.62 116.144,149.286 114.5,149.5 Z"/></g>
<g><path style="opacity:1" fill="#292929" d="M 21.5,77.5 C 22.2389,77.369 22.9056,77.5357 23.5,78C 21.0712,78.4512 20.9045,79.2845 23,80.5C 25.4932,79.0545 27.3265,79.7211 28.5,82.5C 29.4168,81.8728 30.4168,81.5394 31.5,81.5C 30.1506,84.4602 31.1506,86.1269 34.5,86.5C 34.5,103.5 34.5,120.5 34.5,137.5C 35.5,137.5 36.5,137.5 37.5,137.5C 37.9452,134.635 37.2785,132.135 35.5,130C 36.314,123.247 36.814,116.414 37,109.5C 37.9472,113.397 38.1138,117.23 37.5,121C 40.0256,123.573 40.0256,126.073 37.5,128.5C 38.3092,138.453 38.8092,148.453 39,158.5C 39.3333,159.833 39.6667,161.167 40,162.5C 40.2714,157.47 40.7714,152.47 41.5,147.5C 41.3918,146.558 41.0585,145.725 40.5,145C 40.8333,144.833 41.1667,144.667 41.5,144.5C 42.8728,149.767 44.2061,149.767 45.5,144.5C 47.1667,144.5 48.8333,144.5 50.5,144.5C 48.8998,145.644 47.2331,146.811 45.5,148C 47.5346,151.913 49.2013,156.08 50.5,160.5C 49.5325,175.137 49.1991,189.804 49.5,204.5C 50.8333,204.5 52.1667,204.5 53.5,204.5C 53.6621,202.473 53.4955,200.473 53,198.5C 51.3968,197.114 50.5634,195.281 50.5,193C 51.697,188.144 51.697,183.31 50.5,178.5C 51.8333,178.5 53.1667,178.5 54.5,178.5C 54.5,174.5 54.5,170.5 54.5,166.5C 56.5,166.5 58.5,166.5 60.5,166.5C 60.5,170.5 60.5,174.5 60.5,178.5C 61.5,178.5 62.5,178.5 63.5,178.5C 63.6261,180.2 64.2927,181.7 65.5,183C 64.1153,184.597 63.4486,186.43 63.5,188.5C 66.909,188.751 70.2423,188.417 73.5,187.5C 73.8333,187 74.1667,186.5 74.5,186C 72.6382,183.717 71.3049,181.217 70.5,178.5C 71.5,178.5 72.5,178.5 73.5,178.5C 73.5,177.5 73.5,176.5 73.5,175.5C 74.5,175.5 75.5,175.5 76.5,175.5C 76.5,173.167 76.5,170.833 76.5,168.5C 75.5,168.5 74.5,168.5 73.5,168.5C 72.833,166.181 72.6664,163.847 73,161.5C 73.7412,162.641 74.5745,162.641 75.5,161.5C 76.9019,161.865 77.9019,162.699 78.5,164C 79.2538,168.795 79.7538,173.628 80,178.5C 80.3333,167.833 80.6667,157.167 81,146.5C 81.3333,157.833 81.6667,169.167 82,180.5C 82.5782,171.16 83.2449,161.827 84,152.5C 85.1638,161.144 85.9971,169.811 86.5,178.5C 87.5,178.5 88.5,178.5 89.5,178.5C 89.5,182.833 89.5,187.167 89.5,191.5C 90.8333,191.5 92.1667,191.5 93.5,191.5C 93.5,187.167 93.5,182.833 93.5,178.5C 95.6607,178.174 97.4941,177.174 99,175.5C 100.035,168.793 100.368,162.126 100,155.5C 101.251,161.725 101.917,168.058 102,174.5C 102.333,169.167 102.667,163.833 103,158.5C 103.186,160.9 103.686,163.234 104.5,165.5C 105.251,164.624 105.751,163.624 106,162.5C 106.333,164.167 106.667,165.833 107,167.5C 107.333,164.833 107.667,162.167 108,159.5C 108.333,160.167 108.667,160.833 109,161.5C 111.476,157.574 113.976,157.574 116.5,161.5C 119.428,162.484 122.428,162.817 125.5,162.5C 125.674,154.527 126.174,154.527 127,162.5C 127.512,151.894 128.345,151.894 129.5,162.5C 129.833,162.333 130.167,162.167 130.5,162C 129.217,159.205 129.217,156.372 130.5,153.5C 131.192,154.025 131.692,154.692 132,155.5C 132.49,154.207 132.657,152.873 132.5,151.5C 129.15,151.665 125.817,151.498 122.5,151C 126.5,150.333 130.5,150.333 134.5,151C 134.902,154.74 134.235,157.74 132.5,160C 132.949,162.326 133.783,164.493 135,166.5C 136.487,165.747 136.654,164.914 135.5,164C 136.264,161.931 136.764,159.764 137,157.5C 137.333,160.833 137.667,164.167 138,167.5C 138.499,161.843 138.666,156.176 138.5,150.5C 140.199,150.34 141.866,150.506 143.5,151C 142.304,151.654 142.304,152.154 143.5,152.5C 144.928,150.345 145.261,148.179 144.5,146C 145.733,144.302 146.4,142.302 146.5,140C 145.679,135.523 145.012,131.023 144.5,126.5C 145.5,126.5 146.5,126.5 147.5,126.5C 147.334,130.846 147.501,135.179 148,139.5C 149.572,126.175 149.739,112.842 148.5,99.5C 148.806,96.4682 149.306,93.4682 150,90.5C 150.333,107.167 150.667,123.833 151,140.5C 151.333,126.5 151.667,112.5 152,98.5C 152.308,99.3081 152.808,99.9747 153.5,100.5C 154.333,98.5 155.167,96.5 156,94.5C 156.667,93.1667 157.333,93.1667 158,94.5C 157.521,90.5 156.687,86.5 155.5,82.5C 155.783,81.7109 156.283,81.0442 157,80.5C 157.333,82.8333 157.667,85.1667 158,87.5C 158.333,87.1667 158.667,86.8333 159,86.5C 159.2,88.3197 160.034,89.653 161.5,90.5C 163.635,94.5715 164.968,98.9048 165.5,103.5C 164.4,101.723 163.566,99.7226 163,97.5C 162.833,98.5 162.667,99.5 162.5,100.5C 163.819,131.192 163.819,161.859 162.5,192.5C 163.011,201.348 164.011,210.015 165.5,218.5C 165.657,219.873 165.49,221.207 165,222.5C 163.37,221.28 162.37,219.28 162,216.5C 161.722,217.416 161.222,218.082 160.5,218.5C 160.281,212.852 160.947,207.352 162.5,202C 161.449,199.631 160.782,197.131 160.5,194.5C 161.871,182.151 161.705,169.817 160,157.5C 159.667,166.5 159.333,175.5 159,184.5C 158.71,186.044 158.044,187.377 157,188.5C 156.667,186.5 156.333,184.5 156,182.5C 155.917,188.126 155.917,193.46 156,198.5C 155.626,199.416 155.126,200.25 154.5,201C 152.527,201.495 150.527,201.662 148.5,201.5C 148.5,206.167 148.5,210.833 148.5,215.5C 144.316,215.17 140.982,216.67 138.5,220C 139.056,220.383 139.389,220.883 139.5,221.5C 105.573,221.141 71.5727,221.641 37.5,223C 42.8333,223.333 48.1667,223.667 53.5,224C 43.5,224.333 33.5,224.667 23.5,225C 22.8742,225.75 22.3742,226.584 22,227.5C 21.4768,225.777 20.4768,224.444 19,223.5C 15.4713,223.027 12.138,222.027 9,220.5C 8.72158,221.416 8.22158,222.082 7.5,222.5C 7.5,179.167 7.5,135.833 7.5,92.5C 8.38899,84.0407 13.0557,79.0407 21.5,77.5 Z"/></g>
<g><path style="opacity:1" fill="#3c3c3c" d="M 89.5,85.5 C 105.68,86.2401 122.013,87.0735 138.5,88C 128.847,88.8619 119.18,89.5286 109.5,90C 115.5,90.6667 121.5,91.3333 127.5,92C 125.541,94.3158 125.541,96.3158 127.5,98C 120.089,98.1083 112.755,98.775 105.5,100C 112.087,101.212 118.754,101.879 125.5,102C 117.5,102.667 117.5,103.333 125.5,104C 127.957,105.512 127.957,106.846 125.5,108C 120.167,108.333 114.833,108.667 109.5,109C 112.833,109.333 116.167,109.667 119.5,110C 103.113,110.654 86.7799,110.321 70.5,109C 74.1851,109.914 73.8518,110.581 69.5,111C 86.3957,111.206 103.396,111.54 120.5,112C 120.957,112.414 121.291,112.914 121.5,113.5C 120.147,114.524 119.48,115.857 119.5,117.5C 117.436,117.687 115.436,118.187 113.5,119C 120.961,119.747 121.128,120.247 114,120.5C 111.698,120.4 109.698,119.733 108,118.5C 107.308,119.025 106.808,119.692 106.5,120.5C 113.811,121.331 121.144,121.831 128.5,122C 126.75,123.754 126.083,125.921 126.5,128.5C 125.167,128.5 123.833,128.5 122.5,128.5C 122.5,126.833 122.5,125.167 122.5,123.5C 121.5,123.5 120.5,123.5 119.5,123.5C 119.5,125.167 119.5,126.833 119.5,128.5C 102.642,129.294 85.9751,129.294 69.5,128.5C 66.5252,129.139 63.5252,129.639 60.5,130C 66.1667,130.333 71.8333,130.667 77.5,131C 68.8939,132.21 60.2273,132.877 51.5,133C 54.4816,133.498 57.4816,133.665 60.5,133.5C 60.5,135.5 60.5,137.5 60.5,139.5C 56.2841,138.618 52.1174,138.618 48,139.5C 45.6477,139.695 43.6477,139.028 42,137.5C 41.3828,138.449 41.5494,139.282 42.5,140C 51.3683,140.208 60.2016,140.708 69,141.5C 72.3214,141.469 75.6547,141.136 79,140.5C 82.539,140.35 85.039,141.85 86.5,145C 93.6035,146.186 100.77,147.019 108,147.5C 109.561,147.397 111.061,147.063 112.5,146.5C 113.919,147.005 114.585,148.005 114.5,149.5C 106.16,149.666 97.8267,149.5 89.5,149C 87.2591,147.478 84.9258,146.145 82.5,145C 71.8385,144.5 61.1719,144.333 50.5,144.5C 48.8333,144.5 47.1667,144.5 45.5,144.5C 43.8828,143.962 42.2161,143.629 40.5,143.5C 40.1556,123.167 39.9889,102.833 40,82.5C 41.0674,81.8095 42.2341,81.3095 43.5,81C 56.8333,80.3333 70.1667,80.3333 83.5,81C 86.0139,81.8809 88.0139,83.3809 89.5,85.5 Z"/></g>
<g><path style="opacity:1" fill="#282828" d="M 332.5,136.5 C 332.667,157.169 332.5,177.836 332,198.5C 330.565,164.855 329.565,131.188 329,97.5C 327.768,111.473 327.268,125.473 327.5,139.5C 326.5,139.5 325.5,139.5 324.5,139.5C 324.666,148.173 324.5,156.84 324,165.5C 323.875,162.735 323.042,161.068 321.5,160.5C 323.331,157.012 323.831,153.345 323,149.5C 322.667,149.833 322.333,150.167 322,150.5C 321.997,146.118 319.831,144.451 315.5,145.5C 316.986,148.9 316.82,152.233 315,155.5C 314.667,153.5 314.333,151.5 314,149.5C 313.754,154.372 313.254,159.205 312.5,164C 315.146,167.274 315.146,170.607 312.5,174C 312.645,175.226 312.978,176.393 313.5,177.5C 311.439,183.976 310.273,190.643 310,197.5C 309.456,192.247 308.289,187.914 306.5,184.5C 305.167,184.5 303.833,184.5 302.5,184.5C 302.051,182.023 302.717,180.023 304.5,178.5C 305.425,179.641 306.259,179.641 307,178.5C 307.333,180.5 307.667,182.5 308,184.5C 308.544,174.606 308.211,164.94 307,155.5C 305.773,159.07 304.773,163.07 304,167.5C 303.603,155.119 302.769,154.786 301.5,166.5C 301.667,167.833 301.833,169.167 302,170.5C 302.556,168.405 303.056,168.238 303.5,170C 302.258,171.651 301.424,173.485 301,175.5C 300.667,169.167 300.333,162.833 300,156.5C 299.223,162.78 298.723,169.114 298.5,175.5C 298.611,173.366 298.278,171.033 297.5,168.5C 295.881,174.218 294.381,179.885 293,185.5C 292.034,179.87 291.367,174.204 291,168.5C 290.333,177.833 289.667,177.833 289,168.5C 288.814,170.9 288.314,173.234 287.5,175.5C 286.672,171.204 286.172,166.871 286,162.5C 285.793,166.089 285.293,169.589 284.5,173C 285.351,179.866 285.685,187.032 285.5,194.5C 288.5,194.5 291.5,194.5 294.5,194.5C 294.459,190.757 295.126,190.59 296.5,194C 295.024,197.132 294.357,200.465 294.5,204C 294.307,207.243 294.973,210.243 296.5,213C 295.856,215.74 294.689,218.24 293,220.5C 292.517,219.552 292.351,218.552 292.5,217.5C 291.5,217.5 290.5,217.5 289.5,217.5C 289.5,213.167 289.5,208.833 289.5,204.5C 290.5,204.5 291.5,204.5 292.5,204.5C 292.5,203.5 292.5,202.5 292.5,201.5C 290.194,201.007 287.861,200.674 285.5,200.5C 286.05,204.329 286.717,208.162 287.5,212C 287.355,215.32 286.355,218.32 284.5,221C 288.169,222.093 291.836,222.926 295.5,223.5C 293.833,223.5 292.167,223.5 290.5,223.5C 290.884,225.665 290.217,227.332 288.5,228.5C 284.414,226.466 280.248,226.133 276,227.5C 268.579,226.684 261.079,226.184 253.5,226C 264.167,225.667 274.833,225.333 285.5,225C 281.324,224.573 277.158,224.073 273,223.5C 266.238,224.477 259.571,224.81 253,224.5C 252.25,223.874 251.416,223.374 250.5,223C 239.82,222.543 229.153,221.876 218.5,221C 221.276,219.559 223.776,217.726 226,215.5C 226.95,216.022 227.784,216.689 228.5,217.5C 229.557,215.997 230.224,214.33 230.5,212.5C 229.382,209.845 229.382,207.178 230.5,204.5C 229.5,204.5 228.5,204.5 227.5,204.5C 228.097,190.507 228.597,176.507 229,162.5C 229.333,172.833 229.667,183.167 230,193.5C 231.605,188.657 231.771,183.823 230.5,179C 231.449,178.383 232.282,178.549 233,179.5C 233.494,181.134 233.66,182.801 233.5,184.5C 235.5,184.5 237.5,184.5 239.5,184.5C 239.527,179.143 240.527,173.976 242.5,169C 242.561,167.289 241.894,165.956 240.5,165C 241,164.5 241.5,164 242,163.5C 242.333,160.833 242.667,158.167 243,155.5C 243.216,157.384 243.883,159.051 245,160.5C 250.188,158.591 253.021,154.925 253.5,149.5C 255.132,147.673 256.799,145.839 258.5,144C 267.16,143.5 275.827,143.334 284.5,143.5C 288.62,143.749 292.62,143.749 296.5,143.5C 297.518,144.193 298.518,144.859 299.5,145.5C 300.317,147.969 300.817,150.635 301,153.5C 302.749,146.609 303.916,139.609 304.5,132.5C 305.386,133.325 305.719,134.325 305.5,135.5C 307.541,135.854 309.374,135.854 311,135.5C 312.798,120.555 313.798,105.555 314,90.5C 314.333,95.5 314.667,100.5 315,105.5C 315.862,103.913 316.529,102.246 317,100.5C 317.333,101.167 317.667,101.833 318,102.5C 318.807,96.5837 318.641,90.7504 317.5,85C 318.333,84.1667 319.167,83.3333 320,82.5C 322.803,84.661 325.47,86.9943 328,89.5C 328.333,88.8333 328.667,88.1667 329,87.5C 329.595,88.8989 329.428,90.2322 328.5,91.5C 329.982,95.3496 330.816,99.3496 331,103.5C 331.17,114.674 331.67,125.674 332.5,136.5 Z"/></g>
<g><path style="opacity:1" fill="#363636" d="M 217.5,84.5 C 213.353,85.3247 209.019,85.8247 204.5,86C 215.536,86.6691 226.536,87.6691 237.5,89C 229.147,89.1683 220.813,89.6683 212.5,90.5C 213.348,92.4086 213.682,94.4086 213.5,96.5C 220.18,97.1635 226.68,97.1635 233,96.5C 233.692,97.0253 234.192,97.6919 234.5,98.5C 228.104,98.4041 221.438,98.5708 214.5,99C 220.167,99.3333 225.833,99.6667 231.5,100C 225.509,100.499 219.509,100.666 213.5,100.5C 213.719,101.675 213.386,102.675 212.5,103.5C 211.369,102.249 210.036,101.249 208.5,100.5C 206.085,100.719 205.085,102.052 205.5,104.5C 203.712,104.215 202.045,104.548 200.5,105.5C 206.057,107.657 211.723,107.991 217.5,106.5C 218.415,107.328 219.081,108.328 219.5,109.5C 213.193,110.331 206.859,110.831 200.5,111C 201.406,112.699 201.739,114.533 201.5,116.5C 205.043,117.306 208.543,117.306 212,116.5C 213.365,116.844 214.532,117.511 215.5,118.5C 221.773,117.54 228.107,117.207 234.5,117.5C 234.5,118.5 234.5,119.5 234.5,120.5C 229.331,120.935 224.331,120.268 219.5,118.5C 217.627,118.482 217.294,118.982 218.5,120C 217,120.167 215.5,120.333 214,120.5C 211.353,119.14 207.853,118.14 203.5,117.5C 202.263,117.556 201.263,118.056 200.5,119C 206.134,119.634 206.468,120.134 201.5,120.5C 201.104,123.044 201.771,125.211 203.5,127C 207.884,127.739 212.051,128.905 216,130.5C 216.75,129.874 217.584,129.374 218.5,129C 233.5,128.333 248.5,128.333 263.5,129C 263,129.5 262.5,130 262,130.5C 252.244,129.349 242.411,129.182 232.5,130C 228.614,132.247 224.781,132.414 221,130.5C 216.236,131.595 211.57,131.262 207,129.5C 205.795,130.071 204.628,130.738 203.5,131.5C 206.079,133.438 206.079,135.271 203.5,137C 204.5,137.333 205.5,137.667 206.5,138C 218.833,138.333 231.167,138.667 243.5,139C 230.171,139.5 216.837,139.667 203.5,139.5C 203.804,144.156 206.137,145.489 210.5,143.5C 216.47,144.248 222.47,144.748 228.5,145C 223.703,146.084 218.87,146.584 214,146.5C 213.5,146.833 213,147.167 212.5,147.5C 213.949,148.172 215.282,148.839 216.5,149.5C 213.373,150.564 209.873,150.564 206,149.5C 203.698,149.6 201.698,150.267 200,151.5C 198.644,143.905 198.144,136.238 198.5,128.5C 198.333,116.829 198.5,105.162 199,93.5C 199.333,94.5 199.667,95.5 200,96.5C 200.287,94.1093 200.787,91.7759 201.5,89.5C 201.062,88.4937 200.396,88.4937 199.5,89.5C 198.571,88.3112 198.238,86.9778 198.5,85.5C 204.775,84.582 211.108,84.2487 217.5,84.5 Z"/></g>
<g><path style="opacity:0.58" fill="#838383" d="M 330.5,83.5 C 331.906,83.9731 332.573,84.9731 332.5,86.5C 331.094,86.0269 330.427,85.0269 330.5,83.5 Z"/></g>
<g><path style="opacity:1" fill="#3c3c3c" d="M 284.5,79.5 C 285.043,79.56 285.376,79.8933 285.5,80.5C 282.371,82.0216 279.037,82.855 275.5,83C 279.429,84.0294 283.429,84.8627 287.5,85.5C 281.862,86.3299 276.196,86.8299 270.5,87C 269.692,87.3076 269.025,87.8076 268.5,88.5C 274.469,89.7627 280.469,90.7627 286.5,91.5C 287.086,91.2907 287.586,90.9574 288,90.5C 288.667,92.5 288.667,94.5 288,96.5C 281.637,96.8036 275.137,97.3036 268.5,98C 274.958,98.2056 281.291,99.0389 287.5,100.5C 287.5,101.5 287.5,102.5 287.5,103.5C 291.106,103.789 294.606,103.456 298,102.5C 298.49,103.793 298.657,105.127 298.5,106.5C 287.591,106.836 276.758,107.503 266,108.5C 266.449,111.176 267.449,111.176 269,108.5C 272.515,110.259 276.348,111.259 280.5,111.5C 281.554,111.32 282.554,110.987 283.5,110.5C 288.447,111.283 293.447,111.783 298.5,112C 294.167,112.333 289.833,112.667 285.5,113C 286.022,113.561 286.355,114.228 286.5,115C 285.391,117.047 284.724,119.213 284.5,121.5C 285.822,121.33 286.989,121.663 288,122.5C 289.205,128.47 287.372,129.803 282.5,126.5C 282.657,125.127 282.49,123.793 282,122.5C 280.337,124.158 279.504,126.158 279.5,128.5C 275.589,128.951 271.756,128.951 268,128.5C 265.099,129.436 264.932,130.603 267.5,132C 271.211,132.175 274.878,132.675 278.5,133.5C 277.141,135.306 277.475,136.806 279.5,138C 272.5,138.333 265.5,138.667 258.5,139C 255.608,139.894 253.274,141.56 251.5,144C 239.698,145.794 239.698,146.461 251.5,146C 253.833,144.333 256.167,142.667 258.5,141C 268.203,140.256 277.87,140.589 287.5,142C 286.263,142.232 285.263,142.732 284.5,143.5C 275.827,143.334 267.16,143.5 258.5,144C 256.799,145.839 255.132,147.673 253.5,149.5C 241.084,149.132 228.751,149.132 216.5,149.5C 215.282,148.839 213.949,148.172 212.5,147.5C 213,147.167 213.5,146.833 214,146.5C 218.87,146.584 223.703,146.084 228.5,145C 222.47,144.748 216.47,144.248 210.5,143.5C 206.137,145.489 203.804,144.156 203.5,139.5C 216.837,139.667 230.171,139.5 243.5,139C 231.167,138.667 218.833,138.333 206.5,138C 205.5,137.667 204.5,137.333 203.5,137C 206.079,135.271 206.079,133.438 203.5,131.5C 204.628,130.738 205.795,130.071 207,129.5C 211.57,131.262 216.236,131.595 221,130.5C 224.781,132.414 228.614,132.247 232.5,130C 242.411,129.182 252.244,129.349 262,130.5C 262.5,130 263,129.5 263.5,129C 248.5,128.333 233.5,128.333 218.5,129C 217.584,129.374 216.75,129.874 216,130.5C 212.051,128.905 207.884,127.739 203.5,127C 201.771,125.211 201.104,123.044 201.5,120.5C 206.468,120.134 206.134,119.634 200.5,119C 201.263,118.056 202.263,117.556 203.5,117.5C 207.853,118.14 211.353,119.14 214,120.5C 215.5,120.333 217,120.167 218.5,120C 217.294,118.982 217.627,118.482 219.5,118.5C 224.331,120.268 229.331,120.935 234.5,120.5C 234.5,119.5 234.5,118.5 234.5,117.5C 228.107,117.207 221.773,117.54 215.5,118.5C 214.532,117.511 213.365,116.844 212,116.5C 208.543,117.306 205.043,117.306 201.5,116.5C 201.739,114.533 201.406,112.699 200.5,111C 206.859,110.831 213.193,110.331 219.5,109.5C 219.081,108.328 218.415,107.328 217.5,106.5C 211.723,107.991 206.057,107.657 200.5,105.5C 202.045,104.548 203.712,104.215 205.5,104.5C 205.085,102.052 206.085,100.719 208.5,100.5C 210.036,101.249 211.369,102.249 212.5,103.5C 213.386,102.675 213.719,101.675 213.5,100.5C 219.509,100.666 225.509,100.499 231.5,100C 225.833,99.6667 220.167,99.3333 214.5,99C 221.438,98.5708 228.104,98.4041 234.5,98.5C 234.192,97.6919 233.692,97.0253 233,96.5C 226.68,97.1635 220.18,97.1635 213.5,96.5C 213.682,94.4086 213.348,92.4086 212.5,90.5C 220.813,89.6683 229.147,89.1683 237.5,89C 226.536,87.6691 215.536,86.6691 204.5,86C 209.019,85.8247 213.353,85.3247 217.5,84.5C 228.155,85.4053 238.821,85.5719 249.5,85C 252.906,83.5281 256.239,81.8614 259.5,80C 267.827,79.5003 276.16,79.3336 284.5,79.5 Z"/></g>
<g><path style="opacity:1" fill="#212121" d="M 295.5,223.5 C 291.836,222.926 288.169,222.093 284.5,221C 286.355,218.32 287.355,215.32 287.5,212C 286.717,208.162 286.05,204.329 285.5,200.5C 287.861,200.674 290.194,201.007 292.5,201.5C 292.5,202.5 292.5,203.5 292.5,204.5C 291.5,204.5 290.5,204.5 289.5,204.5C 289.5,208.833 289.5,213.167 289.5,217.5C 290.5,217.5 291.5,217.5 292.5,217.5C 292.351,218.552 292.517,219.552 293,220.5C 294.689,218.24 295.856,215.74 296.5,213C 294.973,210.243 294.307,207.243 294.5,204C 294.357,200.465 295.024,197.132 296.5,194C 295.126,190.59 294.459,190.757 294.5,194.5C 291.5,194.5 288.5,194.5 285.5,194.5C 285.685,187.032 285.351,179.866 284.5,173C 285.293,169.589 285.793,166.089 286,162.5C 286.172,166.871 286.672,171.204 287.5,175.5C 288.314,173.234 288.814,170.9 289,168.5C 289.667,177.833 290.333,177.833 291,168.5C 291.367,174.204 292.034,179.87 293,185.5C 294.381,179.885 295.881,174.218 297.5,168.5C 298.278,171.033 298.611,173.366 298.5,175.5C 298.723,169.114 299.223,162.78 300,156.5C 300.333,162.833 300.667,169.167 301,175.5C 301.424,173.485 302.258,171.651 303.5,170C 303.056,168.238 302.556,168.405 302,170.5C 301.833,169.167 301.667,167.833 301.5,166.5C 302.769,154.786 303.603,155.119 304,167.5C 304.773,163.07 305.773,159.07 307,155.5C 308.211,164.94 308.544,174.606 308,184.5C 307.667,182.5 307.333,180.5 307,178.5C 306.259,179.641 305.425,179.641 304.5,178.5C 302.717,180.023 302.051,182.023 302.5,184.5C 303.833,184.5 305.167,184.5 306.5,184.5C 308.289,187.914 309.456,192.247 310,197.5C 310.273,190.643 311.439,183.976 313.5,177.5C 312.978,176.393 312.645,175.226 312.5,174C 315.146,170.607 315.146,167.274 312.5,164C 313.254,159.205 313.754,154.372 314,149.5C 314.333,151.5 314.667,153.5 315,155.5C 316.82,152.233 316.986,148.9 315.5,145.5C 319.831,144.451 321.997,146.118 322,150.5C 322.333,150.167 322.667,149.833 323,149.5C 323.831,153.345 323.331,157.012 321.5,160.5C 323.042,161.068 323.875,162.735 324,165.5C 324.5,156.84 324.666,148.173 324.5,139.5C 325.5,139.5 326.5,139.5 327.5,139.5C 327.268,125.473 327.768,111.473 329,97.5C 329.565,131.188 330.565,164.855 332,198.5C 332.5,177.836 332.667,157.169 332.5,136.5C 334.284,120.116 334.451,148.449 333,221.5C 332.275,220.941 331.442,220.608 330.5,220.5C 326.198,221.028 321.865,222.028 317.5,223.5C 310.229,223.242 302.896,223.242 295.5,223.5 Z"/></g>
<g><path style="opacity:0.788" fill="#6b6b6b" d="M 175.5,99.5 C 175.759,129.682 175.093,159.682 173.5,189.5C 173.953,165.987 173.953,142.487 173.5,119C 173.314,112.262 173.981,105.762 175.5,99.5 Z"/></g>
<g><path style="opacity:1" fill="#1b1b1b" d="M 165.5,103.5 C 165.5,104.5 165.5,105.5 165.5,106.5C 165.5,143.833 165.5,181.167 165.5,218.5C 164.011,210.015 163.011,201.348 162.5,192.5C 163.819,161.859 163.819,131.192 162.5,100.5C 162.667,99.5 162.833,98.5 163,97.5C 163.566,99.7226 164.4,101.723 165.5,103.5 Z"/></g>
<g><path style="opacity:1" fill="#232323" d="M 260.5,160.5 C 261.328,166.319 261.828,172.319 262,178.5C 262.159,173.084 262.826,167.75 264,162.5C 264.169,169.856 264.669,177.189 265.5,184.5C 265.11,178.495 265.61,172.495 267,166.5C 267.333,169.5 267.667,172.5 268,175.5C 268.333,175.167 268.667,174.833 269,174.5C 269.486,179.431 270.819,184.098 273,188.5C 273.49,187.207 273.657,185.873 273.5,184.5C 274.5,184.5 275.5,184.5 276.5,184.5C 274.958,178.078 275.291,171.745 277.5,165.5C 278.331,172.142 278.831,178.809 279,185.5C 279.333,183.167 279.667,180.833 280,178.5C 280.253,183.42 281.42,188.086 283.5,192.5C 283.333,193.833 283.167,195.167 283,196.5C 282.667,194.167 282.333,191.833 282,189.5C 280.88,196.392 279.213,203.392 277,210.5C 276.759,207.711 276.092,205.044 275,202.5C 274.29,203.973 273.124,204.64 271.5,204.5C 270.588,210.131 269.921,215.798 269.5,221.5C 264.504,222.687 259.671,222.354 255,220.5C 249.288,222.626 247.121,220.626 248.5,214.5C 251.952,214.448 254.119,216.115 255,219.5C 256.5,215.992 258,212.492 259.5,209C 256.73,206.04 256.064,202.706 257.5,199C 256.687,196.54 256.02,194.04 255.5,191.5C 257.163,183.018 258.496,174.518 259.5,166C 259.167,165.667 258.833,165.333 258.5,165C 259.582,163.67 260.249,162.17 260.5,160.5 Z"/></g>
<g><path style="opacity:1" fill="#222222" d="M 160.5,218.5 C 159.691,219.469 158.691,220.302 157.5,221C 151.509,221.499 145.509,221.666 139.5,221.5C 139.389,220.883 139.056,220.383 138.5,220C 140.982,216.67 144.316,215.17 148.5,215.5C 148.5,210.833 148.5,206.167 148.5,201.5C 150.527,201.662 152.527,201.495 154.5,201C 155.126,200.25 155.626,199.416 156,198.5C 155.917,193.46 155.917,188.126 156,182.5C 156.333,184.5 156.667,186.5 157,188.5C 158.044,187.377 158.71,186.044 159,184.5C 159.333,175.5 159.667,166.5 160,157.5C 161.705,169.817 161.871,182.151 160.5,194.5C 160.782,197.131 161.449,199.631 162.5,202C 160.947,207.352 160.281,212.852 160.5,218.5 Z"/></g>
<g><path style="opacity:0.786" fill="#656565" d="M 7.5,92.5 C 7.5,135.833 7.5,179.167 7.5,222.5C 7.5,222.833 7.5,223.167 7.5,223.5C 6.77602,221.782 6.10936,219.948 5.5,218C 6.16401,176.069 6.83067,134.236 7.5,92.5 Z"/></g>
<g><path style="opacity:1" fill="#3b3b3b" d="M 165.5,106.5 C 166.665,145.331 166.831,184.331 166,223.5C 161.444,231.583 154.444,234.917 145,233.5C 102.173,232.714 59.3398,232.214 16.5,232C 12.3209,230.319 9.32095,227.485 7.5,223.5C 7.5,223.167 7.5,222.833 7.5,222.5C 8.22158,222.082 8.72158,221.416 9,220.5C 12.138,222.027 15.4713,223.027 19,223.5C 20.4768,224.444 21.4768,225.777 22,227.5C 22.3742,226.584 22.8742,225.75 23.5,225C 33.5,224.667 43.5,224.333 53.5,224C 48.1667,223.667 42.8333,223.333 37.5,223C 71.5727,221.641 105.573,221.141 139.5,221.5C 145.509,221.666 151.509,221.499 157.5,221C 158.691,220.302 159.691,219.469 160.5,218.5C 161.222,218.082 161.722,217.416 162,216.5C 162.37,219.28 163.37,221.28 165,222.5C 165.49,221.207 165.657,219.873 165.5,218.5C 165.5,181.167 165.5,143.833 165.5,106.5 Z"/></g>
<g><path style="opacity:1" fill="#474646" d="M 129.5,263.5 C 128.883,263.389 128.383,263.056 128,262.5C 127.51,263.793 127.343,265.127 127.5,266.5C 124.203,266.671 123.869,266.005 126.5,264.5C 125.372,263.738 124.205,263.071 123,262.5C 114.333,263.167 105.667,263.833 97,264.5C 83.7101,263.66 70.2101,262.993 56.5,262.5C 53.1581,262.481 49.9914,263.148 47,264.5C 45.6569,263.786 44.3236,264.12 43,265.5C 39.4676,275.026 37.8009,274.692 38,264.5C 37.8195,267.695 37.3195,270.695 36.5,273.5C 34.6907,265.843 37.0241,260.01 43.5,256C 70.5044,255.65 97.5044,255.984 124.5,257C 126.79,258.777 128.457,260.944 129.5,263.5 Z"/></g>
<g><path style="opacity:1" fill="#474747" d="M 301.5,278.5 C 300.5,278.5 299.5,278.5 298.5,278.5C 299.397,273.86 299.564,269.194 299,264.5C 298.333,267.167 297.667,269.833 297,272.5C 296.689,270.444 296.189,268.444 295.5,266.5C 290.775,263.618 285.775,262.951 280.5,264.5C 259.797,263.323 239.13,262.656 218.5,262.5C 217.201,263.694 215.868,264.694 214.5,265.5C 212.726,264.119 211.226,264.452 210,266.5C 209.667,268.833 209.333,271.167 209,273.5C 208.821,269.975 208.321,266.641 207.5,263.5C 208.183,259.98 210.183,257.48 213.5,256C 240.506,255.589 267.506,255.923 294.5,257C 296.917,258.663 298.75,260.829 300,263.5C 300.411,268.519 300.911,273.519 301.5,278.5 Z"/></g>
<g><path style="opacity:1" fill="#353535" d="M 129.5,263.5 C 128.657,272.46 131.657,279.96 138.5,286C 144.537,287.594 150.537,289.261 156.5,291C 158.617,292.731 160.117,294.898 161,297.5C 161.667,318.833 161.667,340.167 161,361.5C 159.821,364.26 157.988,366.26 155.5,367.5C 155.5,366.5 155.5,365.5 155.5,364.5C 151.867,364.557 151.7,363.557 155,361.5C 155.311,359.444 155.811,357.444 156.5,355.5C 155.68,337.21 155.18,318.877 155,300.5C 154.5,300 154,299.5 153.5,299C 148.576,299.161 144.243,297.828 140.5,295C 138.5,294.667 136.5,294.333 134.5,294C 133.833,292.667 132.833,291.667 131.5,291C 131.833,290.667 132.167,290.333 132.5,290C 126.366,280.87 124.7,281.37 127.5,291.5C 126.348,296.504 126.181,301.504 127,306.5C 123.99,310.019 121.823,314.019 120.5,318.5C 119.522,318.023 118.689,317.357 118,316.5C 117.667,310.5 117.333,304.5 117,298.5C 116.83,304.196 116.33,309.862 115.5,315.5C 115.514,312.232 115.181,308.899 114.5,305.5C 113.671,310.467 113.171,315.467 113,320.5C 111.534,322.325 109.701,322.825 107.5,322C 106.736,319.931 106.236,317.764 106,315.5C 105.667,322.5 105.333,329.5 105,336.5C 104.333,328.833 104.333,321.167 105,313.5C 105.333,313.833 105.667,314.167 106,314.5C 106.728,311.77 106.562,309.103 105.5,306.5C 103.59,305.288 103.256,305.621 104.5,307.5C 103.858,316.804 103.191,326.138 102.5,335.5C 101.672,331.204 101.172,326.871 101,322.5C 100.667,322.833 100.333,323.167 100,323.5C 99.6667,317.5 99.3333,311.5 99,305.5C 98.8528,308.11 98.0194,310.444 96.5,312.5C 97.0253,313.192 97.6919,313.692 98.5,314C 96.6858,314.92 95.6858,316.42 95.5,318.5C 96.8709,320.681 97.8709,323.014 98.5,325.5C 97.5,325.5 96.5,325.5 95.5,325.5C 95.3601,327.124 96.0267,328.29 97.5,329C 96.3436,331.44 96.3436,333.94 97.5,336.5C 97.3333,337.167 97.1667,337.833 97,338.5C 96.7104,336.956 96.0437,335.623 95,334.5C 94.6667,339.167 94.3333,343.833 94,348.5C 93.6667,347.5 93.3333,346.5 93,345.5C 92.7811,346.938 92.2811,348.271 91.5,349.5C 90.6816,346.893 90.1816,344.226 90,341.5C 89.6667,345.167 89.3333,348.833 89,352.5C 87.8341,343.584 88.5008,334.918 91,326.5C 91.3333,320.5 91.6667,314.5 92,308.5C 92.5029,329.802 93.3363,329.802 94.5,308.5C 95.1924,309.025 95.6924,309.692 96,310.5C 96.4935,308.866 96.6602,307.199 96.5,305.5C 95.1667,305.5 93.8333,305.5 92.5,305.5C 92.5,303.5 92.5,301.5 92.5,299.5C 91.5,299.5 90.5,299.5 89.5,299.5C 89.4595,296.119 89.7929,292.786 90.5,289.5C 89.1667,289.5 87.8333,289.5 86.5,289.5C 86.4774,297.212 86.644,304.879 87,312.5C 86.6667,311.5 86.3333,310.5 86,309.5C 85.6824,311.061 84.8491,312.228 83.5,313C 84.6241,313.839 85.2908,315.006 85.5,316.5C 83.0071,322.448 82.8404,328.448 85,334.5C 85.6667,333.167 86.3333,333.167 87,334.5C 87.1342,340.168 86.8009,345.835 86,351.5C 85.6667,348.167 85.3333,344.833 85,341.5C 83.7862,344.189 83.6195,346.856 84.5,349.5C 84.1667,350.167 83.8333,350.833 83.5,351.5C 82.7189,350.271 82.2189,348.938 82,347.5C 81.1632,353.837 80.4966,353.503 80,346.5C 79.4646,348.271 78.6313,348.604 77.5,347.5C 76.8108,345.556 76.3108,343.556 76,341.5C 76.3962,331.14 77.3962,320.806 79,310.5C 79.3333,314.167 79.6667,317.833 80,321.5C 80.2819,317.961 80.7819,314.461 81.5,311C 79.9922,306.697 78.9922,302.197 78.5,297.5C 77.8076,298.025 77.3076,298.692 77,299.5C 76.6667,298.167 76.3333,296.833 76,295.5C 75.7883,297.78 74.9549,299.78 73.5,301.5C 74.6888,302.429 76.0222,302.762 77.5,302.5C 77.5,303.5 77.5,304.5 77.5,305.5C 76.5,305.5 75.5,305.5 74.5,305.5C 74.9783,308.278 73.9783,310.278 71.5,311.5C 69.9848,309.453 69.1515,307.119 69,304.5C 67.8372,306.285 67.1705,308.285 67,310.5C 65.9807,308.297 64.8141,306.131 63.5,304C 64.1667,303 64.8333,302 65.5,301C 63.975,296.202 62.6417,291.369 61.5,286.5C 62.5,286.5 63.5,286.5 64.5,286.5C 64.5,285.167 64.5,283.833 64.5,282.5C 63.5,282.5 62.5,282.5 61.5,282.5C 61.5489,279.626 61.2156,276.792 60.5,274C 60.8171,271.188 62.1505,269.021 64.5,267.5C 64.2907,266.914 63.9574,266.414 63.5,266C 57.1405,265.169 50.8072,265.336 44.5,266.5C 44.2319,271.388 43.5652,276.388 42.5,281.5C 40.2738,284.619 38.6072,287.952 37.5,291.5C 33.8976,291.692 30.8976,293.026 28.5,295.5C 25.4036,296.123 22.4036,297.123 19.5,298.5C 16.157,297.974 12.9903,296.974 10,295.5C 8.69137,297.891 7.69137,297.891 7,295.5C 5.56062,307.758 5.06062,320.091 5.5,332.5C 5.16667,332.5 4.83333,332.5 4.5,332.5C 4.05887,319.759 4.55887,307.092 6,294.5C 9.56798,288.802 14.7346,286.469 21.5,287.5C 24.642,288.962 26.642,288.295 27.5,285.5C 31.9591,282.577 34.9591,278.577 36.5,273.5C 37.3195,270.695 37.8195,267.695 38,264.5C 37.8009,274.692 39.4676,275.026 43,265.5C 44.3236,264.12 45.6569,263.786 47,264.5C 49.9914,263.148 53.1581,262.481 56.5,262.5C 70.2101,262.993 83.7101,263.66 97,264.5C 105.667,263.833 114.333,263.167 123,262.5C 124.205,263.071 125.372,263.738 126.5,264.5C 123.869,266.005 124.203,266.671 127.5,266.5C 127.343,265.127 127.51,263.793 128,262.5C 128.383,263.056 128.883,263.389 129.5,263.5 Z"/></g>
<g><path style="opacity:1" fill="#333333" d="M 298.5,278.5 C 297.833,280.167 297.167,281.833 296.5,283.5C 295.517,287.298 295.183,291.298 295.5,295.5C 296.5,295.5 297.5,295.5 298.5,295.5C 297.873,301.145 297.373,306.811 297,312.5C 296.02,310.941 295.187,309.274 294.5,307.5C 292.016,309.536 291.016,312.202 291.5,315.5C 290.5,315.5 289.5,315.5 288.5,315.5C 288.613,309.169 287.613,309.169 285.5,315.5C 284.67,321.138 284.17,326.804 284,332.5C 283.667,328.167 283.333,323.833 283,319.5C 281.644,318.62 280.144,318.286 278.5,318.5C 278.663,320.857 278.497,323.19 278,325.5C 277.488,314.894 276.655,314.894 275.5,325.5C 274.686,323.234 274.186,320.9 274,318.5C 273.667,324.167 273.333,329.833 273,335.5C 272.667,327.833 272.333,320.167 272,312.5C 271.706,324.523 271.039,336.523 270,348.5C 268.897,346.371 268.397,344.037 268.5,341.5C 269.333,331.517 269.666,321.517 269.5,311.5C 268.178,311.33 267.011,311.663 266,312.5C 265.333,317.833 265.333,323.167 266,328.5C 266.585,330.129 267.419,331.629 268.5,333C 267.718,340.13 267.218,347.297 267,354.5C 266.667,347.5 266.333,340.5 266,333.5C 265.692,334.308 265.192,334.975 264.5,335.5C 263.702,333.922 263.202,332.256 263,330.5C 262.667,333.5 262.333,336.5 262,339.5C 261.173,340.662 260.34,341.829 259.5,343C 260.233,344.766 260.567,346.599 260.5,348.5C 259.167,348.5 257.833,348.5 256.5,348.5C 255.625,337.96 254.625,337.96 253.5,348.5C 252.167,348.5 250.833,348.5 249.5,348.5C 249.5,346.167 249.5,343.833 249.5,341.5C 248.5,341.5 247.5,341.5 246.5,341.5C 246.313,339.436 245.813,337.436 245,335.5C 244.751,336.624 244.251,337.624 243.5,338.5C 243.167,337.833 242.833,337.167 242.5,336.5C 243.394,331.544 243.727,326.544 243.5,321.5C 244.5,321.5 245.5,321.5 246.5,321.5C 246.261,327.565 246.761,333.565 248,339.5C 248.758,337.231 248.591,335.064 247.5,333C 247.833,332.833 248.167,332.667 248.5,332.5C 249.251,333.376 249.751,334.376 250,335.5C 250.388,334.572 251.055,333.905 252,333.5C 256.677,335.318 259.011,333.652 259,328.5C 259.5,321.842 259.666,315.175 259.5,308.5C 260.5,308.5 261.5,308.5 262.5,308.5C 262.665,305.15 262.498,301.817 262,298.5C 261.667,298.833 261.333,299.167 261,299.5C 260.667,296.5 260.333,293.5 260,290.5C 259.027,292.392 258.36,294.392 258,296.5C 257.667,293.167 257.333,289.833 257,286.5C 256.857,290.619 256.19,294.619 255,298.5C 252.262,297.518 249.428,296.852 246.5,296.5C 246.5,300.833 246.5,305.167 246.5,309.5C 242.167,309.5 237.833,309.5 233.5,309.5C 233.447,303.804 233.78,298.138 234.5,292.5C 233.5,292.5 232.5,292.5 231.5,292.5C 231.201,290.396 231.534,288.396 232.5,286.5C 234.105,287.587 234.771,286.921 234.5,284.5C 233.233,278.437 231.567,272.603 229.5,267C 231.087,266.138 232.754,265.471 234.5,265C 229.051,264.104 223.718,264.437 218.5,266C 220.457,268.121 220.957,270.621 220,273.5C 217.835,271.347 217.002,268.681 217.5,265.5C 216.5,265.5 215.5,265.5 214.5,265.5C 215.868,264.694 217.201,263.694 218.5,262.5C 239.13,262.656 259.797,263.323 280.5,264.5C 285.775,262.951 290.775,263.618 295.5,266.5C 296.189,268.444 296.689,270.444 297,272.5C 297.667,269.833 298.333,267.167 299,264.5C 299.564,269.194 299.397,273.86 298.5,278.5 Z"/></g>
<g><path style="opacity:1" fill="#2f2f2f" d="M 296.5,283.5 C 298.118,284.451 299.451,285.784 300.5,287.5C 298.331,291.29 298.164,295.29 300,299.5C 300.486,296.227 301.319,293.56 302.5,291.5C 305.531,293.016 308.531,294.516 311.5,296C 311.167,296.333 310.833,296.667 310.5,297C 315.059,296.529 319.559,296.695 324,297.5C 324.777,295.299 325.944,295.299 327.5,297.5C 326.758,299.35 325.758,300.016 324.5,299.5C 325.179,319.148 325.845,338.814 326.5,358.5C 326.278,360.055 325.611,361.389 324.5,362.5C 325.246,363.736 325.579,365.07 325.5,366.5C 324.127,366.657 322.793,366.49 321.5,366C 322.696,365.346 322.696,364.846 321.5,364.5C 319.868,365.297 318.368,366.297 317,367.5C 315.779,366.728 314.779,365.728 314,364.5C 313.692,365.308 313.192,365.975 312.5,366.5C 310.226,366.03 308.226,365.03 306.5,363.5C 298.052,362.527 289.552,362.527 281,363.5C 280.333,346.167 279.667,346.167 279,363.5C 252.206,363.003 225.373,363.003 198.5,363.5C 196.493,362.829 194.66,361.829 193,360.5C 189.301,362.638 185.468,363.471 181.5,363C 184.648,364.605 187.981,365.605 191.5,366C 188.522,366.696 185.522,367.196 182.5,367.5C 182.167,367.5 181.833,367.5 181.5,367.5C 181.027,366.094 180.027,365.427 178.5,365.5C 174.383,361.654 172.716,356.82 173.5,351C 174.224,333.175 174.724,315.341 175,297.5C 175.6,295.09 176.766,293.09 178.5,291.5C 180.379,291.393 180.712,291.893 179.5,293C 180,293.5 180.5,294 181,294.5C 181.667,293.167 182.667,292.167 184,291.5C 187.298,296.22 191.798,297.72 197.5,296C 200.502,293.505 203.835,291.671 207.5,290.5C 208.88,287.414 210.546,284.414 212.5,281.5C 212.92,277.774 213.92,274.274 215.5,271C 214.767,269.234 214.433,267.401 214.5,265.5C 215.5,265.5 216.5,265.5 217.5,265.5C 217.002,268.681 217.835,271.347 220,273.5C 220.957,270.621 220.457,268.121 218.5,266C 223.718,264.437 229.051,264.104 234.5,265C 232.754,265.471 231.087,266.138 229.5,267C 231.567,272.603 233.233,278.437 234.5,284.5C 234.771,286.921 234.105,287.587 232.5,286.5C 231.534,288.396 231.201,290.396 231.5,292.5C 232.5,292.5 233.5,292.5 234.5,292.5C 233.78,298.138 233.447,303.804 233.5,309.5C 237.833,309.5 242.167,309.5 246.5,309.5C 246.5,305.167 246.5,300.833 246.5,296.5C 249.428,296.852 252.262,297.518 255,298.5C 256.19,294.619 256.857,290.619 257,286.5C 257.333,289.833 257.667,293.167 258,296.5C 258.36,294.392 259.027,292.392 260,290.5C 260.333,293.5 260.667,296.5 261,299.5C 261.333,299.167 261.667,298.833 262,298.5C 262.498,301.817 262.665,305.15 262.5,308.5C 261.5,308.5 260.5,308.5 259.5,308.5C 259.666,315.175 259.5,321.842 259,328.5C 259.011,333.652 256.677,335.318 252,333.5C 251.055,333.905 250.388,334.572 250,335.5C 249.751,334.376 249.251,333.376 248.5,332.5C 248.167,332.667 247.833,332.833 247.5,333C 248.591,335.064 248.758,337.231 248,339.5C 246.761,333.565 246.261,327.565 246.5,321.5C 245.5,321.5 244.5,321.5 243.5,321.5C 243.727,326.544 243.394,331.544 242.5,336.5C 242.833,337.167 243.167,337.833 243.5,338.5C 244.251,337.624 244.751,336.624 245,335.5C 245.813,337.436 246.313,339.436 246.5,341.5C 247.5,341.5 248.5,341.5 249.5,341.5C 249.5,343.833 249.5,346.167 249.5,348.5C 250.833,348.5 252.167,348.5 253.5,348.5C 254.625,337.96 255.625,337.96 256.5,348.5C 257.833,348.5 259.167,348.5 260.5,348.5C 260.567,346.599 260.233,344.766 259.5,343C 260.34,341.829 261.173,340.662 262,339.5C 262.333,336.5 262.667,333.5 263,330.5C 263.202,332.256 263.702,333.922 264.5,335.5C 265.192,334.975 265.692,334.308 266,333.5C 266.333,340.5 266.667,347.5 267,354.5C 267.218,347.297 267.718,340.13 268.5,333C 267.419,331.629 266.585,330.129 266,328.5C 265.333,323.167 265.333,317.833 266,312.5C 267.011,311.663 268.178,311.33 269.5,311.5C 269.666,321.517 269.333,331.517 268.5,341.5C 268.397,344.037 268.897,346.371 270,348.5C 271.039,336.523 271.706,324.523 272,312.5C 272.333,320.167 272.667,327.833 273,335.5C 273.333,329.833 273.667,324.167 274,318.5C 274.186,320.9 274.686,323.234 275.5,325.5C 276.655,314.894 277.488,314.894 278,325.5C 278.497,323.19 278.663,320.857 278.5,318.5C 280.144,318.286 281.644,318.62 283,319.5C 283.333,323.833 283.667,328.167 284,332.5C 284.17,326.804 284.67,321.138 285.5,315.5C 287.613,309.169 288.613,309.169 288.5,315.5C 289.5,315.5 290.5,315.5 291.5,315.5C 291.016,312.202 292.016,309.536 294.5,307.5C 295.187,309.274 296.02,310.941 297,312.5C 297.373,306.811 297.873,301.145 298.5,295.5C 297.5,295.5 296.5,295.5 295.5,295.5C 295.183,291.298 295.517,287.298 296.5,283.5 Z"/></g>
<g><path style="opacity:1" fill="#2f2f2f" d="M 155.5,367.5 C 148.717,365.089 141.05,363.589 132.5,363C 131.695,358.251 131.195,353.418 131,348.5C 130.946,353.679 130.279,358.679 129,363.5C 108.408,363.352 87.4079,363.352 66,363.5C 65.4938,348.878 64.6605,348.878 63.5,363.5C 51.3565,362.196 39.1898,362.196 27,363.5C 23.0877,361.26 19.2544,361.26 15.5,363.5C 13.1844,360.573 11.6844,360.907 11,364.5C 10.3292,365.252 9.4959,365.586 8.5,365.5C 6.01583,363.88 4.51583,361.547 4,358.5C 3.65558,349.829 3.82225,341.162 4.5,332.5C 4.83333,332.5 5.16667,332.5 5.5,332.5C 7.08597,325.571 7.91931,314.571 8,299.5C 8.68909,298.643 9.52242,297.977 10.5,297.5C 10.7407,309.251 10.7407,321.251 10.5,333.5C 13.1667,334.167 15.8333,334.833 18.5,335.5C 18.6626,331.293 18.3293,327.126 17.5,323C 17.6696,320.473 18.6696,319.973 20.5,321.5C 21.4922,317.217 21.8256,312.884 21.5,308.5C 24.8333,308.5 28.1667,308.5 31.5,308.5C 31.5,304.167 31.5,299.833 31.5,295.5C 30.5,295.5 29.5,295.5 28.5,295.5C 30.8976,293.026 33.8976,291.692 37.5,291.5C 38.6072,287.952 40.2738,284.619 42.5,281.5C 43.5652,276.388 44.2319,271.388 44.5,266.5C 50.8072,265.336 57.1405,265.169 63.5,266C 63.9574,266.414 64.2907,266.914 64.5,267.5C 62.1505,269.021 60.8171,271.188 60.5,274C 61.2156,276.792 61.5489,279.626 61.5,282.5C 62.5,282.5 63.5,282.5 64.5,282.5C 64.5,283.833 64.5,285.167 64.5,286.5C 63.5,286.5 62.5,286.5 61.5,286.5C 62.6417,291.369 63.975,296.202 65.5,301C 64.8333,302 64.1667,303 63.5,304C 64.8141,306.131 65.9807,308.297 67,310.5C 67.1705,308.285 67.8372,306.285 69,304.5C 69.1515,307.119 69.9848,309.453 71.5,311.5C 73.9783,310.278 74.9783,308.278 74.5,305.5C 75.5,305.5 76.5,305.5 77.5,305.5C 77.5,304.5 77.5,303.5 77.5,302.5C 76.0222,302.762 74.6888,302.429 73.5,301.5C 74.9549,299.78 75.7883,297.78 76,295.5C 76.3333,296.833 76.6667,298.167 77,299.5C 77.3076,298.692 77.8076,298.025 78.5,297.5C 78.9922,302.197 79.9922,306.697 81.5,311C 80.7819,314.461 80.2819,317.961 80,321.5C 79.6667,317.833 79.3333,314.167 79,310.5C 77.3962,320.806 76.3962,331.14 76,341.5C 76.3108,343.556 76.8108,345.556 77.5,347.5C 78.6313,348.604 79.4646,348.271 80,346.5C 80.4966,353.503 81.1632,353.837 82,347.5C 82.2189,348.938 82.7189,350.271 83.5,351.5C 83.8333,350.833 84.1667,350.167 84.5,349.5C 83.6195,346.856 83.7862,344.189 85,341.5C 85.3333,344.833 85.6667,348.167 86,351.5C 86.8009,345.835 87.1342,340.168 87,334.5C 86.3333,333.167 85.6667,333.167 85,334.5C 82.8404,328.448 83.0071,322.448 85.5,316.5C 85.2908,315.006 84.6241,313.839 83.5,313C 84.8491,312.228 85.6824,311.061 86,309.5C 86.3333,310.5 86.6667,311.5 87,312.5C 86.644,304.879 86.4774,297.212 86.5,289.5C 87.8333,289.5 89.1667,289.5 90.5,289.5C 89.7929,292.786 89.4595,296.119 89.5,299.5C 90.5,299.5 91.5,299.5 92.5,299.5C 92.5,301.5 92.5,303.5 92.5,305.5C 93.8333,305.5 95.1667,305.5 96.5,305.5C 96.6602,307.199 96.4935,308.866 96,310.5C 95.6924,309.692 95.1924,309.025 94.5,308.5C 93.3363,329.802 92.5029,329.802 92,308.5C 91.6667,314.5 91.3333,320.5 91,326.5C 88.5008,334.918 87.8341,343.584 89,352.5C 89.3333,348.833 89.6667,345.167 90,341.5C 90.1816,344.226 90.6816,346.893 91.5,349.5C 92.2811,348.271 92.7811,346.938 93,345.5C 93.3333,346.5 93.6667,347.5 94,348.5C 94.3333,343.833 94.6667,339.167 95,334.5C 96.0437,335.623 96.7104,336.956 97,338.5C 97.1667,337.833 97.3333,337.167 97.5,336.5C 96.3436,333.94 96.3436,331.44 97.5,329C 96.0267,328.29 95.3601,327.124 95.5,325.5C 96.5,325.5 97.5,325.5 98.5,325.5C 97.8709,323.014 96.8709,320.681 95.5,318.5C 95.6858,316.42 96.6858,314.92 98.5,314C 97.6919,313.692 97.0253,313.192 96.5,312.5C 98.0194,310.444 98.8528,308.11 99,305.5C 99.3333,311.5 99.6667,317.5 100,323.5C 100.333,323.167 100.667,322.833 101,322.5C 101.172,326.871 101.672,331.204 102.5,335.5C 103.191,326.138 103.858,316.804 104.5,307.5C 103.256,305.621 103.59,305.288 105.5,306.5C 106.562,309.103 106.728,311.77 106,314.5C 105.667,314.167 105.333,313.833 105,313.5C 104.333,321.167 104.333,328.833 105,336.5C 105.333,329.5 105.667,322.5 106,315.5C 106.236,317.764 106.736,319.931 107.5,322C 109.701,322.825 111.534,322.325 113,320.5C 113.171,315.467 113.671,310.467 114.5,305.5C 115.181,308.899 115.514,312.232 115.5,315.5C 116.33,309.862 116.83,304.196 117,298.5C 117.333,304.5 117.667,310.5 118,316.5C 118.689,317.357 119.522,318.023 120.5,318.5C 121.823,314.019 123.99,310.019 127,306.5C 126.181,301.504 126.348,296.504 127.5,291.5C 124.7,281.37 126.366,280.87 132.5,290C 132.167,290.333 131.833,290.667 131.5,291C 132.833,291.667 133.833,292.667 134.5,294C 136.5,294.333 138.5,294.667 140.5,295C 144.243,297.828 148.576,299.161 153.5,299C 154,299.5 154.5,300 155,300.5C 155.18,318.877 155.68,337.21 156.5,355.5C 155.811,357.444 155.311,359.444 155,361.5C 151.7,363.557 151.867,364.557 155.5,364.5C 155.5,365.5 155.5,366.5 155.5,367.5 Z"/></g>
<g><path style="opacity:1" fill="#393939" d="M 207.5,263.5 C 208.321,266.641 208.821,269.975 209,273.5C 209.333,271.167 209.667,268.833 210,266.5C 211.226,264.452 212.726,264.119 214.5,265.5C 214.433,267.401 214.767,269.234 215.5,271C 213.92,274.274 212.92,277.774 212.5,281.5C 210.546,284.414 208.88,287.414 207.5,290.5C 203.835,291.671 200.502,293.505 197.5,296C 191.798,297.72 187.298,296.22 184,291.5C 182.667,292.167 181.667,293.167 181,294.5C 180.5,294 180,293.5 179.5,293C 180.712,291.893 180.379,291.393 178.5,291.5C 179.899,290.11 181.566,289.11 183.5,288.5C 186.518,288.665 189.518,288.498 192.5,288C 194.653,287.901 196.319,287.067 197.5,285.5C 204.498,279.843 207.831,272.509 207.5,263.5 Z"/></g>
<g><path style="opacity:0.494" fill="#8d8d8d" d="M 301.5,278.5 C 302.906,278.973 303.573,279.973 303.5,281.5C 302.094,281.027 301.427,280.027 301.5,278.5 Z"/></g>
<g><path style="opacity:0.925" fill="#757575" d="M 27.5,285.5 C 26.642,288.295 24.642,288.962 21.5,287.5C 23.3024,286.542 25.3024,285.875 27.5,285.5 Z"/></g>
<g><path style="opacity:0.737" fill="#686868" d="M 197.5,285.5 C 196.319,287.067 194.653,287.901 192.5,288C 189.518,288.498 186.518,288.665 183.5,288.5C 188.081,287.667 192.747,286.667 197.5,285.5 Z"/></g>
<g><path style="opacity:1" fill="#282828" d="M 28.5,295.5 C 29.5,295.5 30.5,295.5 31.5,295.5C 31.5,299.833 31.5,304.167 31.5,308.5C 28.1667,308.5 24.8333,308.5 21.5,308.5C 21.8256,312.884 21.4922,317.217 20.5,321.5C 18.6696,319.973 17.6696,320.473 17.5,323C 18.3293,327.126 18.6626,331.293 18.5,335.5C 15.8333,334.833 13.1667,334.167 10.5,333.5C 10.7407,321.251 10.7407,309.251 10.5,297.5C 9.52242,297.977 8.68909,298.643 8,299.5C 7.91931,314.571 7.08597,325.571 5.5,332.5C 5.06062,320.091 5.56062,307.758 7,295.5C 7.69137,297.891 8.69137,297.891 10,295.5C 12.9903,296.974 16.157,297.974 19.5,298.5C 22.4036,297.123 25.4036,296.123 28.5,295.5 Z"/></g>
<g><path style="opacity:1" fill="#6e6e6e" d="M 330.5,297.5 C 332.276,317.312 332.776,337.312 332,357.5C 331.79,359.058 331.29,360.391 330.5,361.5C 330.5,340.167 330.5,318.833 330.5,297.5 Z"/></g>
<g><path style="opacity:1" fill="#3e3e3e" d="M 298.5,278.5 C 299.5,278.5 300.5,278.5 301.5,278.5C 301.427,280.027 302.094,281.027 303.5,281.5C 305.296,282.793 306.963,284.293 308.5,286C 314.537,287.594 320.537,289.261 326.5,291C 328.734,292.638 330.067,294.805 330.5,297.5C 330.5,318.833 330.5,340.167 330.5,361.5C 329.415,365.754 326.748,368.587 322.5,370C 276.496,370.502 230.496,370.169 184.5,369C 183.584,368.722 182.918,368.222 182.5,367.5C 185.522,367.196 188.522,366.696 191.5,366C 187.981,365.605 184.648,364.605 181.5,363C 185.468,363.471 189.301,362.638 193,360.5C 194.66,361.829 196.493,362.829 198.5,363.5C 225.373,363.003 252.206,363.003 279,363.5C 279.667,346.167 280.333,346.167 281,363.5C 289.552,362.527 298.052,362.527 306.5,363.5C 308.226,365.03 310.226,366.03 312.5,366.5C 313.192,365.975 313.692,365.308 314,364.5C 314.779,365.728 315.779,366.728 317,367.5C 318.368,366.297 319.868,365.297 321.5,364.5C 322.696,364.846 322.696,365.346 321.5,366C 322.793,366.49 324.127,366.657 325.5,366.5C 325.579,365.07 325.246,363.736 324.5,362.5C 325.611,361.389 326.278,360.055 326.5,358.5C 325.845,338.814 325.179,319.148 324.5,299.5C 325.758,300.016 326.758,299.35 327.5,297.5C 325.944,295.299 324.777,295.299 324,297.5C 319.559,296.695 315.059,296.529 310.5,297C 310.833,296.667 311.167,296.333 311.5,296C 308.531,294.516 305.531,293.016 302.5,291.5C 301.319,293.56 300.486,296.227 300,299.5C 298.164,295.29 298.331,291.29 300.5,287.5C 299.451,285.784 298.118,284.451 296.5,283.5C 297.167,281.833 297.833,280.167 298.5,278.5 Z"/></g>
<g><path style="opacity:1" fill="#434343" d="M 155.5,367.5 C 154.653,368.966 153.32,369.8 151.5,370C 106.161,370.587 60.828,370.254 15.5,369C 12.5578,368.856 10.2244,367.689 8.5,365.5C 9.4959,365.586 10.3292,365.252 11,364.5C 11.6844,360.907 13.1844,360.573 15.5,363.5C 19.2544,361.26 23.0877,361.26 27,363.5C 39.1898,362.196 51.3565,362.196 63.5,363.5C 64.6605,348.878 65.4938,348.878 66,363.5C 87.4079,363.352 108.408,363.352 129,363.5C 130.279,358.679 130.946,353.679 131,348.5C 131.195,353.418 131.695,358.251 132.5,363C 141.05,363.589 148.717,365.089 155.5,367.5 Z"/></g>
<g><path style="opacity:0.482" fill="#8f8f8f" d="M 178.5,365.5 C 180.027,365.427 181.027,366.094 181.5,367.5C 179.973,367.573 178.973,366.906 178.5,365.5 Z"/></g>
</svg>
