<?xml version="1.0" encoding="UTF-8"?>
<!DOCTYPE svg PUBLIC "-//W3C//DTD SVG 1.1//EN" "http://www.w3.org/Graphics/SVG/1.1/DTD/svg11.dtd">
<svg xmlns="http://www.w3.org/2000/svg" version="1.1" width="70px" height="23px" style="shape-rendering:geometricPrecision; text-rendering:geometricPrecision; image-rendering:optimizeQuality; fill-rule:evenodd; clip-rule:evenodd" xmlns:xlink="http://www.w3.org/1999/xlink">
<g><path style="opacity:0.114" fill="#3f6aa4" d="M 39.5,-0.5 C 43.1667,-0.5 46.8333,-0.5 50.5,-0.5C 51.2751,1.38814 51.2751,3.38814 50.5,5.5C 48.901,5.76781 47.5676,5.43448 46.5,4.5C 46.8333,4.5 47.1667,4.5 47.5,4.5C 49.1765,3.81658 49.8432,2.48324 49.5,0.5C 45.7657,0.322742 42.0991,0.656075 38.5,1.5C 38.8333,0.833333 39.1667,0.166667 39.5,-0.5 Z"/></g>
<g><path style="opacity:0.929" fill="#3f4279" d="M -0.5,-0.5 C 3.5,-0.5 7.5,-0.5 11.5,-0.5C 11.5,0.166667 11.5,0.833333 11.5,1.5C 8.59197,0.430893 5.59197,0.264226 2.5,1C 3.4158,1.27842 4.08247,1.77842 4.5,2.5C 2.7839,2.37133 1.11723,2.038 -0.5,1.5C -0.5,0.833333 -0.5,0.166667 -0.5,-0.5 Z"/></g>
<g><path style="opacity:1" fill="#0c105c" d="M 11.5,1.5 C 11.5474,7.85319 10.8808,8.01986 9.5,2C 8.5,1.33333 7.5,1.33333 6.5,2C 7.38053,2.7083 8.0472,3.54163 8.5,4.5C 7.39105,4.44312 6.39105,4.10978 5.5,3.5C 4.83333,3.5 4.5,3.16667 4.5,2.5C 4.08247,1.77842 3.4158,1.27842 2.5,1C 5.59197,0.264226 8.59197,0.430893 11.5,1.5 Z"/></g>
<g><path style="opacity:1" fill="#1c2d7c" d="M 33.5,3.5 C 33.7845,5.41467 33.4511,7.08134 32.5,8.5C 31.8333,9.83333 31.1667,11.1667 30.5,12.5C 30.4511,9.62568 30.7844,6.79235 31.5,4C 31.1667,3.16667 30.8333,2.33333 30.5,1.5C 29.0133,6.65719 28.3466,6.32385 28.5,0.5C 30.1667,0.5 31.8333,0.5 33.5,0.5C 33.5,1.5 33.5,2.5 33.5,3.5 Z"/></g>
<g><path style="opacity:1" fill="#042a83" d="M 47.5,4.5 C 46.0484,3.69808 44.3817,3.19808 42.5,3C 44.5,2.66667 46.5,2.33333 48.5,2C 44.3445,0.946445 40.6779,1.77978 37.5,4.5C 36.8333,4.5 36.5,4.16667 36.5,3.5C 36.8333,2.5 37.5,1.83333 38.5,1.5C 42.0991,0.656075 45.7657,0.322742 49.5,0.5C 49.8432,2.48324 49.1765,3.81658 47.5,4.5 Z"/></g>
<g><path style="opacity:1" fill="#444b8a" d="M 19.5,-0.5 C 21.8333,-0.5 24.1667,-0.5 26.5,-0.5C 26.0652,2.15734 25.0652,4.49068 23.5,6.5C 23.5,5.5 23.5,4.5 23.5,3.5C 23.5,2.5 23.5,1.5 23.5,0.5C 22.0413,0.432553 20.7079,0.765886 19.5,1.5C 19.5,0.833333 19.5,0.166667 19.5,-0.5 Z"/></g>
<g><path style="opacity:1" fill="#2a509f" d="M 58.5,-0.5 C 60.8333,-0.5 63.1667,-0.5 65.5,-0.5C 65.5,0.5 65.5,1.5 65.5,2.5C 61.9758,0.233687 59.3092,1.23369 57.5,5.5C 57.6716,6.49162 57.3382,7.15829 56.5,7.5C 55.8333,8.16667 55.1667,8.83333 54.5,9.5C 55.2534,5.90062 56.5867,2.56728 58.5,-0.5 Z"/></g>
<g><path style="opacity:0.999" fill="#01419b" d="M 65.5,2.5 C 65.6602,4.19919 65.4935,5.86586 65,7.5C 64.6667,6.83333 64.3333,6.16667 64,5.5C 63.8091,7.70779 63.3091,9.70779 62.5,11.5C 62.7373,10.209 62.404,9.20895 61.5,8.5C 60.7519,6.2651 59.9186,6.59843 59,9.5C 58.79,7.94186 58.29,6.60853 57.5,5.5C 59.3092,1.23369 61.9758,0.233687 65.5,2.5 Z"/></g>
<g><path style="opacity:1" fill="#24337a" d="M 23.5,3.5 C 23.1667,3.5 22.8333,3.5 22.5,3.5C 21.8826,3.38929 21.3826,3.05596 21,2.5C 19.9681,4.02669 18.8014,5.36003 17.5,6.5C 17.4021,4.44708 18.0687,2.78041 19.5,1.5C 20.7079,0.765886 22.0413,0.432553 23.5,0.5C 23.5,1.5 23.5,2.5 23.5,3.5 Z"/></g>
<g><path style="opacity:1" fill="#262e71" d="M 11.5,1.5 C 13.0395,3.83825 13.7062,6.50492 13.5,9.5C 12.7784,9.08247 12.2784,8.4158 12,7.5C 11.5026,10.146 11.3359,12.8127 11.5,15.5C 10.596,14.791 10.2627,13.791 10.5,12.5C 9.52498,9.93326 8.85831,7.2666 8.5,4.5C 8.0472,3.54163 7.38053,2.7083 6.5,2C 7.5,1.33333 8.5,1.33333 9.5,2C 10.8808,8.01986 11.5474,7.85319 11.5,1.5 Z"/></g>
<g><path style="opacity:1" fill="#16408d" d="M 47.5,4.5 C 47.1667,4.5 46.8333,4.5 46.5,4.5C 44.0274,4.08824 42.6941,5.08824 42.5,7.5C 41.8826,7.38929 41.3826,7.05596 41,6.5C 40.7645,8.11934 39.9311,9.11934 38.5,9.5C 37.5489,8.08134 37.2155,6.41467 37.5,4.5C 40.6779,1.77978 44.3445,0.946445 48.5,2C 46.5,2.33333 44.5,2.66667 42.5,3C 44.3817,3.19808 46.0484,3.69808 47.5,4.5 Z"/></g>
<g><path style="opacity:0.929" fill="#414182" d="M 22.5,3.5 C 22.8333,3.5 23.1667,3.5 23.5,3.5C 23.5,4.5 23.5,5.5 23.5,6.5C 21.7,11.899 19.7,17.2324 17.5,22.5C 15.1667,22.5 12.8333,22.5 10.5,22.5C 10.5,22.1667 10.5,21.8333 10.5,21.5C 13.0821,21.9746 15.0821,21.3079 16.5,19.5C 17.2271,17.0462 18.2271,14.7128 19.5,12.5C 20.6976,9.57378 21.6976,6.57378 22.5,3.5 Z"/></g>
<g><path style="opacity:1" fill="#2f418b" d="M 36.5,3.5 C 36.5,4.16667 36.8333,4.5 37.5,4.5C 37.2155,6.41467 37.5489,8.08134 38.5,9.5C 39.5137,10.6737 40.847,11.3404 42.5,11.5C 42.5,12.5 42.5,13.5 42.5,14.5C 38.7874,13.139 36.1208,10.639 34.5,7C 35.0848,5.69762 35.7515,4.53095 36.5,3.5 Z"/></g>
<g><path style="opacity:1" fill="#345ea6" d="M 57.5,5.5 C 58.29,6.60853 58.79,7.94186 59,9.5C 59.9186,6.59843 60.7519,6.2651 61.5,8.5C 62.404,9.20895 62.7373,10.209 62.5,11.5C 62.5,12.5 62.5,13.5 62.5,14.5C 60.2341,14.8588 58.4007,14.1922 57,12.5C 56.5357,13.0944 56.369,13.7611 56.5,14.5C 55.7109,14.2172 55.0442,13.7172 54.5,13C 55.8613,11.4157 56.528,9.58236 56.5,7.5C 57.3382,7.15829 57.6716,6.49162 57.5,5.5 Z M 61.5,8.5 C 61.5,10.1667 61.5,11.8333 61.5,13.5C 60.448,13.6495 59.448,13.4828 58.5,13C 59.3994,11.3484 60.3994,9.84839 61.5,8.5 Z"/></g>
<g><path style="opacity:1" fill="#353173" d="M 5.5,3.5 C 6.39105,4.10978 7.39105,4.44312 8.5,4.5C 8.85831,7.2666 9.52498,9.93326 10.5,12.5C 10.1667,12.5 9.83333,12.5 9.5,12.5C 9.16667,12.5 8.83333,12.5 8.5,12.5C 7.05414,9.74577 6.05414,6.74577 5.5,3.5 Z"/></g>
<g><path style="opacity:1" fill="#163f8c" d="M 42.5,7.5 C 44.674,7.74973 46.3406,8.74973 47.5,10.5C 45.3441,8.88234 43.6774,9.21567 42.5,11.5C 40.847,11.3404 39.5137,10.6737 38.5,9.5C 39.9311,9.11934 40.7645,8.11934 41,6.5C 41.3826,7.05596 41.8826,7.38929 42.5,7.5 Z"/></g>
<g><path style="opacity:1" fill="#1b2f77" d="M 22.5,3.5 C 21.6976,6.57378 20.6976,9.57378 19.5,12.5C 18.2101,11.9423 17.3768,10.9423 17,9.5C 16.7216,10.4158 16.2216,11.0825 15.5,11.5C 15.4021,9.44708 16.0687,7.78041 17.5,6.5C 18.8014,5.36003 19.9681,4.02669 21,2.5C 21.3826,3.05596 21.8826,3.38929 22.5,3.5 Z"/></g>
<g><path style="opacity:1" fill="#284389" d="M 27.5,-0.5 C 29.8333,-0.5 32.1667,-0.5 34.5,-0.5C 34.7678,1.09903 34.4345,2.43236 33.5,3.5C 33.5,2.5 33.5,1.5 33.5,0.5C 31.8333,0.5 30.1667,0.5 28.5,0.5C 28.3466,6.32385 29.0133,6.65719 30.5,1.5C 30.8333,2.33333 31.1667,3.16667 31.5,4C 30.7844,6.79235 30.4511,9.62568 30.5,12.5C 29.5987,13.2905 28.9321,14.2905 28.5,15.5C 28.0526,12.6862 27.8859,9.68624 28,6.5C 27.4338,8.72259 26.6005,10.7226 25.5,12.5C 26.1667,8.16667 26.8333,3.83333 27.5,-0.5 Z"/></g>
<g><path style="opacity:0.337" fill="#647cab" d="M 32.5,8.5 C 32.5797,11.7814 31.913,14.7814 30.5,17.5C 30.5,15.8333 30.5,14.1667 30.5,12.5C 31.1667,11.1667 31.8333,9.83333 32.5,8.5 Z"/></g>
<g><path style="opacity:1" fill="#153b8d" d="M 47.5,10.5 C 50.5196,12.549 51.1862,15.2157 49.5,18.5C 49.1667,18.5 48.8333,18.5 48.5,18.5C 47.6909,16.7078 47.1909,14.7078 47,12.5C 45.5945,14.3638 45.0945,16.1971 45.5,18C 44.5,18.6667 43.5,18.6667 42.5,18C 44.9272,16.4455 44.9272,15.2789 42.5,14.5C 42.5,13.5 42.5,12.5 42.5,11.5C 43.6774,9.21567 45.3441,8.88234 47.5,10.5 Z"/></g>
<g><path style="opacity:1" fill="#0a236f" d="M 19.5,12.5 C 18.2271,14.7128 17.2271,17.0462 16.5,19.5C 14.8102,19.1436 13.8102,18.1436 13.5,16.5C 14.8333,16.5 15.5,15.8333 15.5,14.5C 15.5,13.5 15.5,12.5 15.5,11.5C 16.2216,11.0825 16.7216,10.4158 17,9.5C 17.3768,10.9423 18.2101,11.9423 19.5,12.5 Z"/></g>
<g><path style="opacity:1" fill="#0d1a67" d="M 13.5,9.5 C 13.5,9.83333 13.5,10.1667 13.5,10.5C 13.1568,12.4832 13.8235,13.8166 15.5,14.5C 15.5,15.8333 14.8333,16.5 13.5,16.5C 13.1583,15.6618 12.4916,15.3284 11.5,15.5C 11.3359,12.8127 11.5026,10.146 12,7.5C 12.2784,8.4158 12.7784,9.08247 13.5,9.5 Z"/></g>
<g><path style="opacity:0.271" fill="#7d8aad" d="M 13.5,10.5 C 14.1667,10.8333 14.8333,11.1667 15.5,11.5C 15.5,12.5 15.5,13.5 15.5,14.5C 13.8235,13.8166 13.1568,12.4832 13.5,10.5 Z"/></g>
<g><path style="opacity:1" fill="#2856a6" d="M 65.5,2.5 C 66.9599,7.13439 68.2932,11.8011 69.5,16.5C 69.5,17.8333 69.5,19.1667 69.5,20.5C 67.4158,18.7253 66.2491,16.3919 66,13.5C 64.984,14.6341 64.3173,14.3008 64,12.5C 63.7216,13.4158 63.2216,14.0825 62.5,14.5C 62.5,13.5 62.5,12.5 62.5,11.5C 63.3091,9.70779 63.8091,7.70779 64,5.5C 64.3333,6.16667 64.6667,6.83333 65,7.5C 65.4935,5.86586 65.6602,4.19919 65.5,2.5 Z"/></g>
<g><path style="opacity:0.998" fill="#1f4f9e" d="M 56.5,7.5 C 56.528,9.58236 55.8613,11.4157 54.5,13C 55.0442,13.7172 55.7109,14.2172 56.5,14.5C 60.4325,15.455 63.0992,17.7884 64.5,21.5C 66.1667,21.5 67.8333,21.5 69.5,21.5C 69.5,21.8333 69.5,22.1667 69.5,22.5C 67.5,22.5 65.5,22.5 63.5,22.5C 63.5,21.5 63.5,20.5 63.5,19.5C 60.4669,19.1315 57.8002,19.7982 55.5,21.5C 55.6495,20.448 55.4828,19.448 55,18.5C 54.3292,19.2524 53.4959,19.5858 52.5,19.5C 53.2653,16.9039 53.5987,14.2372 53.5,11.5C 53.3284,10.5084 53.6618,9.84171 54.5,9.5C 55.1667,8.83333 55.8333,8.16667 56.5,7.5 Z"/></g>
<g><path style="opacity:0.353" fill="#727ca3" d="M 8.5,12.5 C 8.83333,12.5 9.16667,12.5 9.5,12.5C 9.83333,15.1667 10.1667,17.8333 10.5,20.5C 8.96046,18.1617 8.29379,15.4951 8.5,12.5 Z"/></g>
<g><path style="opacity:1" fill="#01439d" d="M 62.5,14.5 C 63.2216,14.0825 63.7216,13.4158 64,12.5C 64.3173,14.3008 64.984,14.6341 66,13.5C 66.2491,16.3919 67.4158,18.7253 69.5,20.5C 69.5,20.8333 69.5,21.1667 69.5,21.5C 67.8333,21.5 66.1667,21.5 64.5,21.5C 63.0992,17.7884 60.4325,15.455 56.5,14.5C 56.369,13.7611 56.5357,13.0944 57,12.5C 58.4007,14.1922 60.2341,14.8588 62.5,14.5 Z"/></g>
<g><path style="opacity:1" fill="#022978" d="M 28.5,15.5 C 28.7852,17.288 28.4519,18.9547 27.5,20.5C 26.8302,18.7086 26.1635,17.0419 25.5,15.5C 25.5,14.8333 25.5,14.1667 25.5,13.5C 25.5,13.1667 25.5,12.8333 25.5,12.5C 26.6005,10.7226 27.4338,8.72259 28,6.5C 27.8859,9.68624 28.0526,12.6862 28.5,15.5 Z"/></g>
<g><path style="opacity:1" fill="#0f1b67" d="M 9.5,12.5 C 9.83333,12.5 10.1667,12.5 10.5,12.5C 10.2627,13.791 10.596,14.791 11.5,15.5C 12.4916,15.3284 13.1583,15.6618 13.5,16.5C 13.8102,18.1436 14.8102,19.1436 16.5,19.5C 15.0821,21.3079 13.0821,21.9746 10.5,21.5C 10.5,21.1667 10.5,20.8333 10.5,20.5C 10.1667,17.8333 9.83333,15.1667 9.5,12.5 Z"/></g>
<g><path style="opacity:1" fill="#38509c" d="M 53.5,11.5 C 53.5987,14.2372 53.2653,16.9039 52.5,19.5C 51.391,19.5569 50.391,19.8902 49.5,20.5C 49.5,19.8333 49.5,19.1667 49.5,18.5C 50.8333,16.1667 52.1667,13.8333 53.5,11.5 Z"/></g>
<g><path style="opacity:1" fill="#1c4390" d="M 48.5,18.5 C 47.8333,19.8333 46.8333,20.8333 45.5,21.5C 44.8333,21.5 44.1667,21.5 43.5,21.5C 40.9723,20.8343 38.3056,20.1676 35.5,19.5C 37.2388,19.4062 39.2388,19.2395 41.5,19C 39.9419,18.79 38.6085,18.29 37.5,17.5C 37.8333,17.5 38.1667,17.5 38.5,17.5C 40.9726,17.9118 42.3059,16.9118 42.5,14.5C 44.9272,15.2789 44.9272,16.4455 42.5,18C 43.5,18.6667 44.5,18.6667 45.5,18C 45.0945,16.1971 45.5945,14.3638 47,12.5C 47.1909,14.7078 47.6909,16.7078 48.5,18.5 Z"/></g>
<g><path style="opacity:1" fill="#001a6f" d="M 30.5,12.5 C 30.5,14.1667 30.5,15.8333 30.5,17.5C 29.5655,18.5676 29.2322,19.901 29.5,21.5C 27.712,21.7852 26.0453,21.4519 24.5,20.5C 25.3094,18.9291 25.6427,17.2624 25.5,15.5C 26.1635,17.0419 26.8302,18.7086 27.5,20.5C 28.4519,18.9547 28.7852,17.288 28.5,15.5C 28.9321,14.2905 29.5987,13.2905 30.5,12.5 Z"/></g>
<g><path style="opacity:1" fill="#1f4597" d="M 55.5,21.5 C 55.5,21.8333 55.5,22.1667 55.5,22.5C 53.1667,22.5 50.8333,22.5 48.5,22.5C 48.3284,21.5084 48.6618,20.8417 49.5,20.5C 50.391,19.8902 51.391,19.5569 52.5,19.5C 53.4959,19.5858 54.3292,19.2524 55,18.5C 55.4828,19.448 55.6495,20.448 55.5,21.5 Z"/></g>
<g><path style="opacity:1" fill="#002079" d="M 37.5,17.5 C 38.6085,18.29 39.9419,18.79 41.5,19C 39.2388,19.2395 37.2388,19.4062 35.5,19.5C 38.3056,20.1676 40.9723,20.8343 43.5,21.5C 40.5,21.5 37.5,21.5 34.5,21.5C 34.5,20.1667 34.5,18.8333 34.5,17.5C 35.5,17.5 36.5,17.5 37.5,17.5 Z"/></g>
<g><path style="opacity:0.408" fill="#4c6499" d="M 25.5,13.5 C 25.5,14.1667 25.5,14.8333 25.5,15.5C 25.6427,17.2624 25.3094,18.9291 24.5,20.5C 26.0453,21.4519 27.712,21.7852 29.5,21.5C 29.2322,19.901 29.5655,18.5676 30.5,17.5C 30.5,19.1667 30.5,20.8333 30.5,22.5C 28.1667,22.5 25.8333,22.5 23.5,22.5C 23.6761,19.2727 24.3428,16.2727 25.5,13.5 Z"/></g>
<g><path style="opacity:0.392" fill="#48699f" d="M 38.5,17.5 C 38.1667,17.5 37.8333,17.5 37.5,17.5C 36.5,17.5 35.5,17.5 34.5,17.5C 34.5,18.8333 34.5,20.1667 34.5,21.5C 37.5,21.5 40.5,21.5 43.5,21.5C 44.1667,21.5 44.8333,21.5 45.5,21.5C 45.5,21.8333 45.5,22.1667 45.5,22.5C 41.5,22.5 37.5,22.5 33.5,22.5C 32.656,20.1491 32.9893,17.8158 34.5,15.5C 36.0255,15.9943 37.3588,16.661 38.5,17.5 Z"/></g>
</svg>
